<?xml version="1.0" encoding="UTF-8" standalone="no"?>
<!-- Created with Inkscape (http://www.inkscape.org/) -->

<svg
   xmlns:osb="http://www.openswatchbook.org/uri/2009/osb"
   xmlns:dc="http://purl.org/dc/elements/1.1/"
   xmlns:cc="http://creativecommons.org/ns#"
   xmlns:rdf="http://www.w3.org/1999/02/22-rdf-syntax-ns#"
   xmlns:svg="http://www.w3.org/2000/svg"
   xmlns="http://www.w3.org/2000/svg"
   xmlns:xlink="http://www.w3.org/1999/xlink"
   xmlns:sodipodi="http://sodipodi.sourceforge.net/DTD/sodipodi-0.dtd"
   xmlns:inkscape="http://www.inkscape.org/namespaces/inkscape"
   version="1.1"
   width="1005.4"
   height="1005.4"
   id="svg2"
   xml:space="preserve"
   inkscape:version="0.48.4 r9939"
   sodipodi:docname="AJAX1.svg"><sodipodi:namedview
     pagecolor="#ffffff"
     bordercolor="#666666"
     borderopacity="1"
     objecttolerance="10"
     gridtolerance="10"
     guidetolerance="10"
     inkscape:pageopacity="0"
     inkscape:pageshadow="2"
     inkscape:window-width="1280"
     inkscape:window-height="1004"
     id="namedview28"
     showgrid="false"
     fit-margin-top="0.2"
     fit-margin-left="0.2"
     fit-margin-right="0.2"
     fit-margin-bottom="0.2"
     inkscape:zoom="0.5"
     inkscape:cx="420.62523"
     inkscape:cy="503.46403"
     inkscape:window-x="-8"
     inkscape:window-y="-8"
     inkscape:window-maximized="1"
     inkscape:current-layer="svg2" /><metadata
     id="metadata8"><rdf:RDF><cc:Work
         rdf:about=""><dc:format>image/svg+xml</dc:format><dc:type
           rdf:resource="http://purl.org/dc/dcmitype/StillImage" /></cc:Work></rdf:RDF></metadata><defs
     id="defs6"><linearGradient
       id="linearGradient15703"
       osb:paint="solid"><stop
         style="stop-color:#ffffff;stop-opacity:1;"
         offset="0"
         id="stop15705" /></linearGradient><linearGradient
       inkscape:collect="always"
       xlink:href="#linearGradient15703"
       id="linearGradient15707"
       x1="-37.125"
       y1="465.375"
       x2="967.87512"
       y2="465.375"
       gradientUnits="userSpaceOnUse"
       gradientTransform="translate(37.325,37.325)" /></defs><path
     inkscape:connector-curvature="0"
     style="fill:url(#linearGradient15707);fill-opacity:1;stroke:#0066b3;stroke-width:5;stroke-miterlimit:4;stroke-opacity:1;stroke-dasharray:none"
     d="m 1002.7001,502.7 c 0,-276.1424 -223.85772,-500 -500.0001,-500 -276.14238,0 -500,223.8576 -500,500 0,276.1423 223.85762,500.0001 500,500.0001 276.14238,0 500.0001,-223.8578 500.0001,-500.0001 z"
     id="path3854" /><path
     id="path14622"
     d="m 968.07508,502.7 c 0,257.0196 -208.35548,465.375 -465.375,465.375 C 245.6805,968.075 37.325,759.7196 37.325,502.7 c 0,-257.0196 208.3555,-465.375 465.37508,-465.375 257.01952,0 465.375,208.3554 465.375,465.375 z"
     style="fill:#0066b3;fill-opacity:1;stroke:none"
     inkscape:connector-curvature="0"
     sodipodi:nodetypes="sssss" /><path
     sodipodi:nodetypes="ccccccsssscccccc"
     inkscape:connector-curvature="0"
     id="path15711"
     d="m 176.93808,757.27683 c -0.73919,-0.93798 -0.87476,-2.34285 -0.21711,-4.034 L 303.41856,432.13944 c 12.99184,-25.18009 24.40143,-49.22709 46.65402,-46.52294 22.27689,2.73525 27.16284,31.6369 27.0416,44.30653 -0.17666,12.66282 2.89476,90.65429 2.89476,90.65429 L 785.53898,203.74253 c 2.79987,-2.18749 6.96979,-1.63683 9.18159,1.19415 l 67.54422,86.45266 c 2.2118,2.83097 1.73731,7.01025 -1.06255,9.19774 L 455.6722,617.42187 c 0,0 74.93175,21.84804 87.26117,24.74004 12.32261,2.94742 39.18374,14.68018 36.44848,36.95707 -2.75957,22.24579 -28.8525,27.49897 -56.42764,34.01327 L 180.79973,758.4634 c -1.80001,0.22899 -3.1303,-0.24247 -3.86165,-1.18657 z"
     style="fill:#ffffff;fill-opacity:1;fill-rule:nonzero;stroke:none" /></svg>