<?xml version="1.0" encoding="UTF-8" standalone="no"?>
<!-- Created with Inkscape (http://www.inkscape.org/) -->

<svg
   xmlns:osb="http://www.openswatchbook.org/uri/2009/osb"
   xmlns:dc="http://purl.org/dc/elements/1.1/"
   xmlns:cc="http://creativecommons.org/ns#"
   xmlns:rdf="http://www.w3.org/1999/02/22-rdf-syntax-ns#"
   xmlns:svg="http://www.w3.org/2000/svg"
   xmlns="http://www.w3.org/2000/svg"
   xmlns:sodipodi="http://sodipodi.sourceforge.net/DTD/sodipodi-0.dtd"
   xmlns:inkscape="http://www.inkscape.org/namespaces/inkscape"
   version="1.1"
   width="1005.4"
   height="1005.4"
   id="svg2"
   xml:space="preserve"
   inkscape:version="0.48.4 r9939"
   sodipodi:docname="AJAX1.svg"><sodipodi:namedview
     pagecolor="#ffffff"
     bordercolor="#666666"
     borderopacity="1"
     objecttolerance="10"
     gridtolerance="10"
     guidetolerance="10"
     inkscape:pageopacity="0"
     inkscape:pageshadow="2"
     inkscape:window-width="1280"
     inkscape:window-height="1004"
     id="namedview28"
     showgrid="false"
     fit-margin-top="0.2"
     fit-margin-left="0.2"
     fit-margin-right="0.2"
     fit-margin-bottom="0.2"
     inkscape:zoom="0.5"
     inkscape:cx="519.30703"
     inkscape:cy="557.44808"
     inkscape:window-x="-8"
     inkscape:window-y="-8"
     inkscape:window-maximized="1"
     inkscape:current-layer="svg2" /><metadata
     id="metadata8"><rdf:RDF><cc:Work
         rdf:about=""><dc:format>image/svg+xml</dc:format><dc:type
           rdf:resource="http://purl.org/dc/dcmitype/StillImage" /></cc:Work></rdf:RDF></metadata><defs
     id="defs6"><linearGradient
       id="linearGradient15703"
       osb:paint="solid"><stop
         style="stop-color:#ffffff;stop-opacity:1;"
         offset="0"
         id="stop15705" /></linearGradient></defs><path
     inkscape:connector-curvature="0"
     style="fill:#ffffff;fill-opacity:1;stroke:#0066b3;stroke-width:5;stroke-miterlimit:4;stroke-opacity:1;stroke-dasharray:none"
     d="m 2.69998,502.7 c 0,-276.1424 223.85772,-500 500.0001,-500 276.14238,0 500.00002,223.8576 500.00002,500 0,276.1423 -223.85764,500.0001 -500.00002,500.0001 C 226.5577,1002.7001 2.69998,778.8423 2.69998,502.7 z"
     id="path3854" /><path
     id="path14622"
     d="m 37.325,502.7 c 0,257.0196 208.35548,465.375 465.375,465.375 257.01958,0 465.37508,-208.3554 465.37508,-465.375 C 968.07508,245.6804 759.71958,37.325 502.7,37.325 245.68048,37.325 37.325,245.6804 37.325,502.7 z"
     style="fill:#0066b3;fill-opacity:1;stroke:none"
     inkscape:connector-curvature="0"
     sodipodi:nodetypes="sssss" /><g
     id="g4378"
     transform="matrix(0,39.478707,39.478707,0,502.7,968.075)" /><g
     id="g4382"
     transform="matrix(0,39.478707,39.478707,0,771.78687,509.37191)"><path
       inkscape:connector-curvature="0"
       d="m 0,0 c 0.032,-0.022 0.048,-0.043 0.048,-0.061 0,-0.038 -0.033,-0.056 -0.095,-0.056 -0.036,0 -0.067,0.01 -0.098,0.028 -0.336,0.212 -0.715,0.398 -1.14,0.559 -0.053,0.02 -0.08,0.044 -0.08,0.067 0,0.041 0.032,0.061 0.097,0.061 0.03,0 0.061,-0.006 0.095,-0.02 C -0.72,0.403 -0.329,0.211 0,0 m -0.177,2.026 c 0.023,0.023 0.052,0.035 0.08,0.035 C -0.032,2.061 0,2.042 0,2.007 0,1.993 -0.011,1.974 -0.032,1.949 -0.289,1.659 -0.739,1.438 -1.38,1.282 -1.488,1.255 -1.542,1.222 -1.542,1.186 l 0,-0.434 c 0,-0.061 -0.037,-0.089 -0.112,-0.089 -0.075,0 -0.111,0.028 -0.111,0.089 l 0,0.441 c 0,0.089 0.074,0.149 0.223,0.186 0.624,0.141 1.076,0.357 1.365,0.647 M 1.575,0.124 C 1.597,0.094 1.608,0.072 1.608,0.056 1.608,0.017 1.575,0 1.511,0 1.469,0 1.437,0.015 1.415,0.047 1.13,0.449 0.621,0.678 -0.114,0.73 l 0,-0.324 c 0,-0.059 -0.039,-0.088 -0.114,-0.088 -0.075,0 -0.112,0.029 -0.112,0.088 l 0,1.013 c 0,0.116 0.107,0.173 0.321,0.173 0.581,0 0.987,-0.026 1.225,-0.078 C 1.474,1.453 1.608,1.346 1.608,1.193 l 0,-0.191 c 0,-0.058 -0.037,-0.086 -0.112,-0.086 -0.075,0 -0.113,0.028 -0.113,0.086 l 0,0.176 c 0,0.09 -0.08,0.157 -0.242,0.201 -0.19,0.049 -0.561,0.077 -1.111,0.077 -0.097,0 -0.144,-0.029 -0.144,-0.085 l 0,-0.516 C 0.717,0.787 1.281,0.544 1.575,0.124"
       style="fill:#ffffff;fill-opacity:1;fill-rule:nonzero;stroke:none"
       id="path4384" /></g><g
     id="g4386"
     transform="matrix(0,39.478707,39.478707,0,771.78687,509.37191)"><path
       inkscape:connector-curvature="0"
       d="m 0,0 c 0.032,-0.022 0.048,-0.043 0.048,-0.061 0,-0.038 -0.033,-0.056 -0.095,-0.056 -0.036,0 -0.067,0.01 -0.098,0.028 -0.336,0.212 -0.715,0.398 -1.14,0.559 -0.053,0.02 -0.08,0.044 -0.08,0.067 0,0.041 0.032,0.061 0.097,0.061 0.03,0 0.061,-0.006 0.095,-0.02 C -0.72,0.403 -0.329,0.211 0,0 z"
       style="fill:none;stroke:#ffffff;stroke-width:0.175;stroke-linecap:butt;stroke-linejoin:miter;stroke-miterlimit:4;stroke-opacity:1;stroke-dasharray:none"
       id="path4388" /><g
       id="g4390"
       transform="translate(-0.177,2.026)"><path
         inkscape:connector-curvature="0"
         d="m 0,0 c 0.023,0.023 0.052,0.035 0.08,0.035 0.065,0 0.097,-0.019 0.097,-0.054 0,-0.014 -0.011,-0.033 -0.032,-0.058 -0.257,-0.29 -0.707,-0.511 -1.348,-0.667 -0.108,-0.027 -0.162,-0.06 -0.162,-0.096 l 0,-0.434 c 0,-0.061 -0.037,-0.089 -0.112,-0.089 -0.075,0 -0.111,0.028 -0.111,0.089 l 0,0.441 c 0,0.089 0.074,0.149 0.223,0.186 C -0.741,-0.506 -0.289,-0.29 0,0 z"
         style="fill:none;stroke:#ffffff;stroke-width:0.175;stroke-linecap:butt;stroke-linejoin:miter;stroke-miterlimit:4;stroke-opacity:1;stroke-dasharray:none"
         id="path4392" /><g
         id="g4394"
         transform="translate(1.752,-1.902)"><path
           inkscape:connector-curvature="0"
           d="m 0,0 c 0.022,-0.03 0.033,-0.052 0.033,-0.068 0,-0.039 -0.033,-0.056 -0.097,-0.056 -0.042,0 -0.074,0.015 -0.096,0.047 -0.285,0.402 -0.794,0.631 -1.529,0.683 l 0,-0.324 c 0,-0.059 -0.039,-0.088 -0.114,-0.088 -0.075,0 -0.112,0.029 -0.112,0.088 l 0,1.013 c 0,0.116 0.107,0.173 0.321,0.173 0.581,0 0.987,-0.026 1.225,-0.078 0.268,-0.061 0.402,-0.168 0.402,-0.321 l 0,-0.191 c 0,-0.058 -0.037,-0.086 -0.112,-0.086 -0.075,0 -0.113,0.028 -0.113,0.086 l 0,0.176 c 0,0.09 -0.08,0.157 -0.242,0.201 -0.19,0.049 -0.561,0.077 -1.111,0.077 -0.097,0 -0.144,-0.029 -0.144,-0.085 l 0,-0.516 C -0.858,0.663 -0.294,0.42 0,0 z"
           style="fill:none;stroke:#ffffff;stroke-width:0.175;stroke-linecap:butt;stroke-linejoin:miter;stroke-miterlimit:4;stroke-opacity:1;stroke-dasharray:none"
           id="path4396" /></g></g></g><g
     id="g4398"
     transform="matrix(0,39.478707,39.478707,0,399.89745,159.35369)"><path
       inkscape:connector-curvature="0"
       d="m 0,0 c 0,-0.223 -0.183,-0.428 -0.482,-0.428 -0.201,0 -0.493,0.079 -0.493,0.407 0,0.358 0.278,0.457 0.471,0.457 C -0.219,0.436 0,0.265 0,0 m -0.518,0.753 c -0.366,0 -0.809,-0.213 -0.809,-0.756 0,-0.585 0.536,-0.742 0.861,-0.742 0.295,0 0.51,0.121 0.614,0.33 0.134,-0.258 0.379,-0.415 0.764,-0.415 0.15,0 0.491,0 0.747,0.251 0.196,0.196 0.24,0.453 0.24,0.59 0,0.578 -0.487,0.829 -0.991,0.829 -0.238,0 -0.587,-0.069 -0.766,-0.4 -0.071,0.107 -0.21,0.313 -0.66,0.313 M 0.339,0.004 c 0,0.279 0.188,0.508 0.613,0.508 0.492,0 0.594,-0.268 0.594,-0.49 0,-0.427 -0.374,-0.524 -0.624,-0.524 -0.292,0 -0.583,0.16 -0.583,0.506"
       style="fill:#ffffff;fill-opacity:1;fill-rule:nonzero;stroke:none"
       id="path4400" /></g><g
     id="g4402"
     transform="matrix(0,39.478707,39.478707,0,399.89745,159.35369)"><path
       inkscape:connector-curvature="0"
       d="m 0,0 c 0,-0.223 -0.183,-0.428 -0.482,-0.428 -0.201,0 -0.493,0.079 -0.493,0.407 0,0.358 0.278,0.457 0.471,0.457 C -0.219,0.436 0,0.265 0,0 z"
       style="fill:none;stroke:#ffffff;stroke-width:0.175;stroke-linecap:butt;stroke-linejoin:miter;stroke-miterlimit:4;stroke-opacity:1;stroke-dasharray:none"
       id="path4404" /><g
       id="g4406"
       transform="translate(-0.518,0.753)"><path
         inkscape:connector-curvature="0"
         d="m 0,0 c -0.366,0 -0.809,-0.213 -0.809,-0.756 0,-0.585 0.536,-0.742 0.861,-0.742 0.295,0 0.51,0.121 0.614,0.33 0.134,-0.258 0.379,-0.415 0.764,-0.415 0.15,0 0.491,0 0.747,0.251 0.196,0.196 0.24,0.453 0.24,0.59 0,0.578 -0.487,0.829 -0.991,0.829 -0.238,0 -0.587,-0.069 -0.766,-0.4 C 0.589,-0.206 0.45,0 0,0 z"
         style="fill:none;stroke:#ffffff;stroke-width:0.175;stroke-linecap:butt;stroke-linejoin:miter;stroke-miterlimit:4;stroke-opacity:1;stroke-dasharray:none"
         id="path4408" /><g
         id="g4410"
         transform="translate(0.857,-0.749)"><path
           inkscape:connector-curvature="0"
           d="m 0,0 c 0,0.279 0.188,0.508 0.613,0.508 0.492,0 0.594,-0.268 0.594,-0.49 0,-0.427 -0.374,-0.524 -0.624,-0.524 C 0.291,-0.506 0,-0.346 0,0 z"
           style="fill:none;stroke:#ffffff;stroke-width:0.175;stroke-linecap:butt;stroke-linejoin:miter;stroke-miterlimit:4;stroke-opacity:1;stroke-dasharray:none"
           id="path4412" /></g></g></g><path
     inkscape:connector-curvature="0"
     d="m 459.94456,174.1582 0,15.91071 43.22918,0 0,-15.91071 -43.22918,0 z"
     style="fill:#ffffff;fill-opacity:1;fill-rule:nonzero;stroke:none"
     id="path4414" /><path
     inkscape:connector-curvature="0"
     d="m 503.17374,174.1582 0,15.91071 -43.22918,0 0,-15.91071 43.22918,0 z m 0,15.90992 z"
     style="fill:none;stroke:#ffffff;stroke-width:6.9087739;stroke-linecap:butt;stroke-linejoin:miter;stroke-miterlimit:4;stroke-opacity:1;stroke-dasharray:none"
     id="path4416" /><g
     id="g4418"
     transform="matrix(0,39.478707,39.478707,0,532.98017,151.37899)"><path
       inkscape:connector-curvature="0"
       d="m 0,0 c -1.023,0 -1.125,0.417 -1.125,0.607 0,0.306 0.352,0.551 0.938,0.551 0.563,0 0.801,-0.208 1.05,-0.47 L 1.042,0.505 C 1.278,0.265 1.526,0.212 1.646,0.202 l 0,0.956 0.37,0 0,-1.204 c -0.652,0.013 -1,0.177 -1.246,0.413 L 0.528,0.6 c -0.192,0.188 -0.322,0.323 -0.733,0.323 -0.25,0 -0.568,-0.09 -0.568,-0.349 0,-0.332 0.555,-0.347 0.773,-0.355 L 0,0"
       style="fill:#ffffff;fill-opacity:1;fill-rule:nonzero;stroke:none"
       id="path4420" /></g><g
     id="g4422"
     transform="matrix(0,39.478707,39.478707,0,532.98017,151.37899)"><path
       inkscape:connector-curvature="0"
       d="m 0,0 c -1.023,0 -1.125,0.417 -1.125,0.607 0,0.306 0.352,0.551 0.938,0.551 0.563,0 0.801,-0.208 1.05,-0.47 L 1.042,0.505 C 1.278,0.265 1.526,0.212 1.646,0.202 l 0,0.956 0.37,0 0,-1.204 c -0.652,0.013 -1,0.177 -1.246,0.413 L 0.528,0.6 c -0.192,0.188 -0.322,0.323 -0.733,0.323 -0.25,0 -0.568,-0.09 -0.568,-0.349 0,-0.332 0.555,-0.347 0.773,-0.355 L 0,0 z"
       style="fill:none;stroke:#ffffff;stroke-width:0.175;stroke-linecap:butt;stroke-linejoin:miter;stroke-miterlimit:4;stroke-opacity:1;stroke-dasharray:none"
       id="path4424" /></g><g
     id="g4426"
     transform="matrix(0,39.478707,39.478707,0,644.70491,170.6446)"><path
       inkscape:connector-curvature="0"
       d="m 0,0 c -0.652,0 -1.613,-0.097 -1.613,-0.603 0,-0.506 0.961,-0.603 1.613,-0.603 0.652,0 1.613,0.097 1.613,0.603 C 1.613,-0.097 0.652,0 0,0 m 0,-0.235 c 0.786,0 1.26,-0.115 1.26,-0.368 0,-0.253 -0.474,-0.367 -1.26,-0.367 -0.788,0 -1.261,0.114 -1.261,0.367 0,0.253 0.473,0.368 1.261,0.368"
       style="fill:#ffffff;fill-opacity:1;fill-rule:nonzero;stroke:none"
       id="path4428" /></g><g
     id="g4430"
     transform="matrix(0,39.478707,39.478707,0,644.70491,170.6446)"><path
       inkscape:connector-curvature="0"
       d="m 0,0 c -0.652,0 -1.613,-0.097 -1.613,-0.603 0,-0.506 0.961,-0.603 1.613,-0.603 0.652,0 1.613,0.097 1.613,0.603 C 1.613,-0.097 0.652,0 0,0 z"
       style="fill:none;stroke:#ffffff;stroke-width:0.175;stroke-linecap:butt;stroke-linejoin:miter;stroke-miterlimit:4;stroke-opacity:1;stroke-dasharray:none"
       id="path4432" /><g
       id="g4434"
       transform="translate(0,-0.235)"><path
         inkscape:connector-curvature="0"
         d="m 0,0 c 0.786,0 1.26,-0.115 1.26,-0.368 0,-0.253 -0.474,-0.367 -1.26,-0.367 -0.788,0 -1.261,0.114 -1.261,0.367 C -1.261,-0.115 -0.788,0 0,0 z"
         style="fill:none;stroke:#ffffff;stroke-width:0.175;stroke-linecap:butt;stroke-linejoin:miter;stroke-miterlimit:4;stroke-opacity:1;stroke-dasharray:none"
         id="path4436" /></g></g><g
     id="g4438"
     transform="matrix(0,39.478707,39.478707,0,332.94156,486.79009)"><path
       inkscape:connector-curvature="0"
       d="m 0,0 0,2.731 c 0,1.214 -0.901,2.197 -2.013,2.197 -1.113,0 -2.014,-0.983 -2.014,-2.197 L -4.027,0 0,0 z m 1.431,0.132 6.541,0 0,-1.704 -13.65,0 0,4.445 c 0,2.049 1.661,3.712 3.602,3.712 1.94,0 3.507,-1.663 3.507,-3.712 l 0,-2.741"
       style="fill:#ffffff;fill-opacity:1;fill-rule:nonzero;stroke:none"
       id="path4440" /></g><g
     id="g4442"
     transform="matrix(0,39.478707,39.478707,0,332.94156,486.79009)"><path
       inkscape:connector-curvature="0"
       d="m 0,0 0,2.731 c 0,1.214 -0.901,2.197 -2.013,2.197 -1.113,0 -2.014,-0.983 -2.014,-2.197 L -4.027,0 0,0 z"
       style="fill:none;stroke:#ffffff;stroke-width:0.175;stroke-linecap:butt;stroke-linejoin:miter;stroke-miterlimit:4;stroke-opacity:1;stroke-dasharray:none"
       id="path4444" /><g
       id="g4446"
       transform="translate(1.431,0.132)"><path
         inkscape:connector-curvature="0"
         d="m 0,0 6.541,0 0,-1.704 -13.65,0 0,4.445 c 0,2.049 1.661,3.712 3.602,3.712 C -1.567,6.453 0,4.79 0,2.741 L 0,0 z"
         style="fill:none;stroke:#ffffff;stroke-width:0.175;stroke-linecap:butt;stroke-linejoin:miter;stroke-miterlimit:4;stroke-opacity:1;stroke-dasharray:none"
         id="path4448" /></g></g><g
     id="g4450"
     transform="matrix(0,39.478707,39.478707,0,667.01038,728.24186)"><path
       inkscape:connector-curvature="0"
       d="m 0,0 -2.165,-0.043 c -0.639,0 -1.184,0.355 -1.184,0.774 0,0.421 0.545,0.777 1.189,0.777 0,0 2.147,0.042 2.16,0.044 C 0.646,1.55 1.19,1.196 1.19,0.776 1.19,0.355 0.646,0 0,0 m -2.16,-0.749 2.169,0.045 c 1.037,-0.002 1.886,0.663 1.886,1.48 0,0.83 -0.832,1.481 -1.895,1.481 L -2.165,2.213 c -1.039,0 -1.888,-0.664 -1.888,-1.482 0,-0.83 0.832,-1.48 1.893,-1.48"
       style="fill:#ffffff;fill-opacity:1;fill-rule:nonzero;stroke:none"
       id="path4452" /></g><g
     id="g4454"
     transform="matrix(0,39.478707,39.478707,0,667.01038,728.24186)"><path
       inkscape:connector-curvature="0"
       d="m 0,0 -2.165,-0.043 c -0.639,0 -1.184,0.355 -1.184,0.774 0,0.421 0.545,0.777 1.189,0.777 0,0 2.147,0.042 2.16,0.044 C 0.646,1.55 1.19,1.196 1.19,0.776 1.19,0.355 0.646,0 0,0 z"
       style="fill:none;stroke:#ffffff;stroke-width:0.175;stroke-linecap:butt;stroke-linejoin:miter;stroke-miterlimit:4;stroke-opacity:1;stroke-dasharray:none"
       id="path4456" /><g
       id="g4458"
       transform="translate(-2.16,-0.749)"><path
         inkscape:connector-curvature="0"
         d="m 0,0 2.169,0.045 c 1.037,-0.002 1.886,0.663 1.886,1.48 0,0.83 -0.832,1.481 -1.895,1.481 L -0.005,2.962 C -1.044,2.962 -1.893,2.298 -1.893,1.48 -1.893,0.65 -1.061,0 0,0 z"
         style="fill:none;stroke:#ffffff;stroke-width:0.175;stroke-linecap:butt;stroke-linejoin:miter;stroke-miterlimit:4;stroke-opacity:1;stroke-dasharray:none"
         id="path4460" /></g></g><g
     id="g4462"
     transform="matrix(0,39.478707,39.478707,0,574.15646,766.1809)"><path
       inkscape:connector-curvature="0"
       d="m 0,0 c 0.173,-0.094 0.262,-0.218 0.262,-0.372 0,-0.173 -0.107,-0.322 -0.32,-0.447 -0.237,-0.109 -0.514,-0.162 -0.837,-0.162 -0.185,0 -0.342,0.017 -0.47,0.052 -0.368,0.109 -0.553,0.289 -0.553,0.542 0,0.129 0.091,0.251 0.27,0.365 0.272,0.114 0.519,0.171 0.737,0.171 C -0.482,0.149 -0.179,0.1 0,0 M -1.992,0.667 C -2.372,0.412 -2.56,0.073 -2.56,-0.35 c 0,-0.116 0.034,-0.229 0.082,-0.344 0,0 -1.789,0.738 -1.958,0.813 -0.167,0.074 -0.14,0.09 -0.227,0.09 -0.187,0 -0.339,-0.151 -0.339,-0.34 0,-0.164 0.12,-0.294 0.273,-0.327 L -4.733,-0.47 c 0,0 0.758,-0.31 1.456,-0.645 0.696,-0.338 1.38,-0.637 2.226,-0.637 0.551,0 0.986,0.095 1.304,0.291 0.446,0.279 0.669,0.626 0.669,1.036 0,0.477 -0.2,0.837 -0.602,1.076 -0.328,0.211 -0.723,0.316 -1.186,0.316 -0.457,0 -0.833,-0.1 -1.126,-0.3"
       style="fill:#ffffff;fill-opacity:1;fill-rule:nonzero;stroke:none"
       id="path4464" /></g><g
     id="g4466"
     transform="matrix(0,39.478707,39.478707,0,574.15646,766.1809)"><path
       inkscape:connector-curvature="0"
       d="m 0,0 c 0.173,-0.094 0.262,-0.218 0.262,-0.372 0,-0.173 -0.107,-0.322 -0.32,-0.447 -0.237,-0.109 -0.514,-0.162 -0.837,-0.162 -0.185,0 -0.342,0.017 -0.47,0.052 -0.368,0.109 -0.553,0.289 -0.553,0.542 0,0.129 0.091,0.251 0.27,0.365 0.272,0.114 0.519,0.171 0.737,0.171 C -0.482,0.149 -0.179,0.1 0,0 z"
       style="fill:none;stroke:#ffffff;stroke-width:0.175;stroke-linecap:butt;stroke-linejoin:miter;stroke-miterlimit:4;stroke-opacity:1;stroke-dasharray:none"
       id="path4468" /><g
       id="g4470"
       transform="translate(-1.992,0.667)"><path
         inkscape:connector-curvature="0"
         d="m 0,0 c -0.38,-0.255 -0.568,-0.594 -0.568,-1.017 0,-0.116 0.034,-0.229 0.082,-0.344 0,0 -1.789,0.738 -1.958,0.813 -0.167,0.074 -0.14,0.09 -0.227,0.09 -0.187,0 -0.339,-0.151 -0.339,-0.34 0,-0.164 0.12,-0.294 0.273,-0.327 l -0.004,-0.012 c 0,0 0.758,-0.31 1.456,-0.645 0.696,-0.338 1.38,-0.637 2.226,-0.637 0.551,0 0.986,0.095 1.304,0.291 0.446,0.279 0.669,0.626 0.669,1.036 0,0.477 -0.2,0.837 -0.602,1.076 C 1.984,0.195 1.589,0.3 1.126,0.3 0.669,0.3 0.293,0.2 0,0 z"
         style="fill:none;stroke:#ffffff;stroke-width:0.175;stroke-linecap:butt;stroke-linejoin:miter;stroke-miterlimit:4;stroke-opacity:1;stroke-dasharray:none"
         id="path4472" /></g></g></svg>