<?xml version="1.0" encoding="UTF-8" standalone="no"?>
<!-- Created with Inkscape (http://www.inkscape.org/) -->

<svg
   xmlns:dc="http://purl.org/dc/elements/1.1/"
   xmlns:cc="http://creativecommons.org/ns#"
   xmlns:rdf="http://www.w3.org/1999/02/22-rdf-syntax-ns#"
   xmlns:svg="http://www.w3.org/2000/svg"
   xmlns="http://www.w3.org/2000/svg"
   xmlns:sodipodi="http://sodipodi.sourceforge.net/DTD/sodipodi-0.dtd"
   xmlns:inkscape="http://www.inkscape.org/namespaces/inkscape"
   version="1.1"
   width="1005.4"
   height="1005.4"
   id="svg2"
   xml:space="preserve"
   inkscape:version="0.48.4 r9939"
   sodipodi:docname="AJAX1.svg"><sodipodi:namedview
     pagecolor="#ffffff"
     bordercolor="#666666"
     borderopacity="1"
     objecttolerance="10"
     gridtolerance="10"
     guidetolerance="10"
     inkscape:pageopacity="0"
     inkscape:pageshadow="2"
     inkscape:window-width="1280"
     inkscape:window-height="1004"
     id="namedview28"
     showgrid="false"
     fit-margin-top="2.7"
     fit-margin-left="2.7"
     fit-margin-right="2.7"
     fit-margin-bottom="2.7"
     inkscape:zoom="0.45324952"
     inkscape:cx="458.08055"
     inkscape:cy="506.15777"
     inkscape:window-x="-8"
     inkscape:window-y="-8"
     inkscape:window-maximized="1"
     inkscape:current-layer="svg2"
     showguides="true"
     inkscape:guide-bbox="true" /><metadata
     id="metadata8"><rdf:RDF><cc:Work
         rdf:about=""><dc:format>image/svg+xml</dc:format><dc:type
           rdf:resource="http://purl.org/dc/dcmitype/StillImage" /><dc:title /></cc:Work></rdf:RDF></metadata><defs
     id="defs6" /><path
     inkscape:connector-curvature="0"
     style="fill:#ffffff;fill-opacity:1;stroke:#ed1c23;stroke-opacity:1;stroke-width:5;stroke-miterlimit:4;stroke-dasharray:none"
     d="M 2.7,502.70001 C 2.7,226.55763 226.55764,2.7 502.7,2.7 c 276.14238,0 500,223.85763 500,500.00001 0,276.14237 -223.85762,499.99999 -500,499.99999 -276.14236,0 -500,-223.85762 -500,-499.99999 z"
     id="path3854" /><path
     id="path14622"
     d="M 968.075,502.70001 C 968.075,245.68049 759.71952,37.325 502.7,37.325 245.68048,37.325 37.325,245.68049 37.325,502.70001 37.325,759.71953 245.68048,968.075 502.7,968.075 c 257.01952,0 465.375,-208.35547 465.375,-465.37499 z"
     style="fill:#ed1c23;fill-opacity:1;stroke:none"
     inkscape:connector-curvature="0" /><path
     id="path15520"
     d="m 835.55,502.7 c 0,-183.82799 -149.02204,-332.85 -332.85,-332.85 -183.82797,0 -332.84999,149.02201 -332.84999,332.85 0,183.82797 149.02202,332.84999 332.84999,332.84999 183.82796,0 332.85,-149.02202 332.85,-332.84999 z"
     style="fill:#ffffff;fill-opacity:1;stroke:none"
     inkscape:connector-curvature="0" /><path
     inkscape:connector-curvature="0"
     d="m 570.07402,570.3326 -3.46221,-135.58351 c 0,-40.15378 29.88646,-73.26363 66.53817,-73.26363 36.73128,0 66.57795,33.10985 66.57795,73.86049 0,0 3.50202,133.95194 3.50202,135.06626 0,40.67104 -29.80688,73.70127 -66.53817,73.70127 -36.7313,0 -66.61776,-33.03023 -66.61776,-73.78088 m -50.30158,-134.98665 3.5418,135.58351 c 0,65.14538 50.85872,118.63054 113.37754,118.63054 62.55862,0 113.37752,-53.48516 113.37752,-119.2274 l -3.54181,-135.58351 c 0.0791,-65.22477 -50.85871,-118.67035 -113.37751,-118.67035 -62.47902,0 -113.37754,53.44558 -113.37754,119.26721"
     style="fill:#0066b3;fill-opacity:1;fill-rule:nonzero;stroke:none"
     id="path4770" /><path
     inkscape:connector-curvature="0"
     d="m 457.96994,315.83992 0,48.23221 -137.17527,0 -4.17853,86.31659 c 15.44069,-10.22747 32.314,-15.36099 50.58017,-15.36099 36.13435,0 63.4341,10.98354 81.74006,32.75159 18.66411,21.44983 28.01605,52.92812 28.01605,94.47485 0,41.82493 -9.35194,73.38282 -28.01605,94.47462 -18.30596,21.88747 -45.60571,32.7516 -81.74006,32.7516 -31.99564,0 -58.3801,-8.7947 -79.15336,-26.42414 C 266.15539,643.3972 255.331,615.89855 255.331,580.71929 l 57.02702,0 c 0,17.90784 4.73567,32.55279 14.24682,43.81474 10.18766,11.58061 23.71815,17.39083 40.59147,17.39083 17.90798,0 31.08031,-6.6857 39.51697,-20.0173 8.75503,-12.97334 13.21213,-32.95062 13.21213,-59.65339 0,-26.46417 -4.4571,-46.16302 -13.21213,-59.17617 -8.43666,-13.68962 -21.60899,-20.53432 -39.51697,-20.53432 -27.10079,0 -45.36695,14.72433 -54.83829,44.29239 l -52.8087,0 10.54582,-210.99615 187.8748,0"
     style="fill:#0066b3;fill-opacity:1;fill-rule:nonzero;stroke:none"
     id="path4774" /></svg>