<?xml version="1.0" encoding="UTF-8" standalone="no"?>
<!-- Created with Inkscape (http://www.inkscape.org/) -->
<svg
   xmlns:svg="http://www.w3.org/2000/svg"
   xmlns="http://www.w3.org/2000/svg"
   version="1.0"
   width="920"
   height="920"
   id="svg2">
  <defs
     id="defs4" />
  <path
     d="M 103.11114,19.999795 C 57.233808,19.999795 20.000003,57.233581 20.000003,103.11093 L 20.000003,459.9999 C 20.000002,702.87994 217.12005,900 460.00011,900 C 702.88016,899.99998 900.00018,702.87998 900.00021,459.9999 L 900.00021,103.11093 C 900.00021,57.233572 862.76642,19.999797 816.88908,19.999795 L 460.00011,19.999795 L 103.11114,19.999795 z "
     style="fill:#007f1f;fill-opacity:1;stroke:white;stroke-width:20.00000572;stroke-linecap:butt;stroke-linejoin:round;stroke-miterlimit:4;stroke-dasharray:none;stroke-dashoffset:0;stroke-opacity:1"
     id="plate" />
  <text
     x="406.40332"
     y="877.89386"
     transform="scale(1.140137,0.877088)"
     style="font-size:584.92199707px;font-style:normal;font-variant:normal;font-weight:bold;font-stretch:normal;text-align:center;line-height:125%;writing-mode:lr-tb;text-anchor:middle;fill:white;fill-opacity:1;stroke:none;stroke-width:1px;stroke-linecap:butt;stroke-linejoin:miter;stroke-opacity:1;font-family:Arial"
     id="number"
     xml:space="preserve"><tspan
       x="406.40332"
       y="877.89386"
       style="font-size:584.92199707px;font-style:normal;font-variant:normal;font-weight:bold;font-stretch:normal;text-align:center;line-height:125%;writing-mode:lr-tb;text-anchor:middle;font-family:Arial"
       id="number-tspan">3</tspan></text>
  <path
     d="M 748.57033,103.5 C 746.60172,113.2102 744.18475,122.92508 740.10938,131.96875 C 728.33332,132.04177 716.55732,132.12184 704.78125,132.1875 C 704.78125,161.39583 704.78125,190.60417 704.78125,219.8125 C 719.10938,219.8125 733.4375,219.8125 747.76563,219.8125 C 747.83332,226.52083 747.90105,233.22917 747.96875,239.9375 C 746.25167,237.54421 744.53685,235.14926 742.82813,232.75 C 727.03645,232.75 711.2448,232.75 695.45313,232.75 C 697.57237,231.71243 699.69605,230.68385 701.8125,229.64063 C 698.70825,215.97148 692.98193,202.91418 684.85158,191.47656 C 680.46468,194.82636 676.08502,198.18588 671.71875,201.5625 C 672.67157,202.98025 673.60585,204.41035 674.54688,205.83594 C 667.36028,207.60724 660.12672,209.10064 652.83595,210.40625 C 663.25222,196.40625 673.24437,182.08007 682.52345,167.29688 C 684.8884,167.21328 687.99475,167.2166 689.25,164.82813 C 690.08502,162.20657 687.6337,160.04504 685.954,158.42741 C 682.25985,155.1556 677.98892,152.60951 673.8125,149.98438 C 667.75065,160.29902 661.10423,170.21011 654.25,180.01563 C 650.65513,173.27525 646.27823,167.01408 641.38283,161.17188 C 651.35893,148.62295 660.02863,135.06328 667.85938,121.08594 C 670.13355,120.9026 673.23767,120.70233 674.21875,118.24219 C 674.76177,115.47578 672.17223,113.48459 670.32862,111.898 C 666.59552,108.95274 662.3365,106.77744 658.15625,104.52344 C 650.0486,119.84927 641.05953,134.79549 630.4297,148.50781 C 628.35952,146.48422 626.28815,144.46186 624.21875,142.4375 C 620.57495,146.68883 616.96168,150.95873 613.32813,155.21875 C 625.88437,166.41993 636.18393,180.13259 643.82813,195.14844 C 639.21355,201.47917 634.59895,207.80989 629.98438,214.14063 C 624.638,214.62994 619.2909,215.11154 613.94533,215.60938 C 615.42552,222.00797 616.41847,228.86424 620.21875,234.39844 C 621.50775,236.1713 624.29868,236.94512 626,235.26563 C 627.19613,234.29598 627.83473,232.8262 628.375,231.42188 C 635.46438,230.6014 642.54543,229.57449 649.5625,228.21875 C 649.5625,261.73958 649.5625,295.26042 649.5625,328.78125 C 655.05207,328.78125 660.54168,328.78125 666.03125,328.78125 C 666.03125,294.25 666.03125,259.71875 666.03125,225.1875 C 671.44443,223.95647 676.97735,222.4939 682.28125,221.26563 C 684.29602,226.35469 685.63013,231.6915 686.57033,237.10156 C 688.8551,235.96791 691.14908,234.85285 693.4375,233.72656 C 693.4375,239.04688 693.4375,244.36719 693.4375,249.6875 C 706.58332,249.6875 719.72918,249.6875 732.875,249.6875 C 725.79437,270.52907 711.42105,288.39458 693.98885,301.53967 C 690.0681,304.54011 686.00593,307.29744 681.84375,309.9375 C 686.16527,313.73491 690.47933,317.54079 694.78908,321.35156 C 715.678,307.82349 733.38543,288.8627 743.4922,265.96875 C 745.18085,262.22132 746.68753,258.36614 747.9922,254.46875 C 747.933,270.58987 748.1568,286.72131 747.8672,302.83594 C 747.27513,306.33454 743.74553,308.41654 740.46095,308.79688 C 737.08933,309.39228 733.61833,308.98985 730.20313,309.0625 C 732.2917,314.84634 734.3764,320.6316 736.46875,326.41406 C 743.87745,327.21873 752.1977,326.06626 757.58028,320.47677 C 763.16022,314.76439 764.5947,306.22132 764.25,298.46094 C 764.25,287.97656 764.25,277.49219 764.25,267.00781 C 777.93917,284.35147 794.00937,300.3172 813.51563,311.05469 C 817.57507,306.97363 821.63797,302.8957 825.71095,298.82813 C 810.4979,291.40308 797.5644,280.046 786.25,267.65625 C 795.0342,259.65248 802.69832,250.37395 808.6172,240.03906 C 810.95973,239.70058 814.1854,239.27533 815,236.66406 C 815.41995,233.92508 812.79375,232.07491 810.9375,230.57813 C 807.0855,227.71865 802.73198,225.63986 798.40625,223.57813 C 792.8499,235.28968 785.50385,246.24854 775.84375,254.90625 C 771.7933,249.65459 767.9252,244.34148 764.25,238.82031 C 764.25,232.48438 764.25,226.14844 764.25,219.8125 C 778.35938,219.8125 792.46875,219.8125 806.57813,219.8125 C 806.24935,190.60435 805.96968,161.39564 805.64063,132.1875 C 789.61978,132.12071 773.59895,132.04277 757.57813,131.96875 C 759.23193,127.56667 760.75008,123.11932 762.04688,118.59375 C 764.34582,117.96755 767.44268,116.75007 767.48438,113.9375 C 767.07538,110.42643 763.42908,108.78979 760.64845,107.36719 C 756.80235,105.55837 752.7528,104.22591 748.6875,102.96875 C 748.64842,103.14583 748.60938,103.32292 748.57033,103.5 z M 214.21875,108.82813 C 214.21875,135.59375 214.21875,162.35938 214.21875,189.125 C 203.82292,189.125 193.42708,189.125 183.03125,189.125 C 183.04688,176.15947 182.99999,163.14735 183.05469,150.21094 C 184.90775,149.50708 187.55478,148.60772 187.69531,146.26563 C 187.36504,143.8209 184.5253,143.03805 182.55469,142.32031 C 177.3751,140.70676 171.93534,140.31419 166.5625,139.77344 C 166.5625,156.22396 166.5625,172.67448 166.5625,189.125 C 156.54167,189.125 146.52083,189.125 136.5,189.125 C 136.5,194.84375 136.5,200.5625 136.5,206.28125 C 193.58333,206.28125 250.66667,206.28125 307.75,206.28125 C 307.75,200.5625 307.75,194.84375 307.75,189.125 C 282.13542,189.125 256.52083,189.125 230.90625,189.125 C 230.90625,178.97917 230.90625,168.83333 230.90625,158.6875 C 248.80208,158.6875 266.69792,158.6875 284.59375,158.6875 C 284.59375,152.96875 284.59375,147.25 284.59375,141.53125 C 266.69792,141.53125 248.80208,141.53125 230.90625,141.53125 C 230.91146,133.84744 230.89583,126.15499 230.91406,118.47656 C 232.75571,117.81829 235.42779,116.85548 235.34375,114.47656 C 234.70116,111.8832 231.64105,111.24043 229.4464,110.52764 C 224.47895,109.19266 219.33448,108.74777 214.21875,108.28125 C 214.21875,108.46354 214.21875,108.64583 214.21875,108.82813 z M 119.9375,110.92188 C 116.3478,115.01753 112.77302,119.12632 109.17969,123.21875 C 118.14611,131.53687 125.03489,142.04027 129.50781,153.4375 C 134.06991,149.91589 138.6157,146.37307 143.17188,142.84375 C 137.88286,130.65643 130.03073,119.52545 120.27344,110.53125 C 120.16146,110.66146 120.04948,110.79167 119.9375,110.92188 z M 493.52345,113.16406 C 488.86023,115.73116 484.2005,118.30467 479.53908,120.875 C 490.11663,141.9294 506.95047,159.14687 525.53075,173.31834 C 533.15868,179.15405 541.17188,184.4873 549.35938,189.5 C 553.81315,185.44813 558.274,181.404 562.73438,177.35938 C 539.0439,163.48722 516.2503,146.74006 500.55205,123.94845 C 498.14047,120.4063 495.94355,116.72498 493.96875,112.92188 C 493.82033,113.0026 493.67188,113.08333 493.52345,113.16406 z M 427.25,114.08594 C 413.5683,138.19907 392.28773,156.7562 369.39792,171.87615 C 366.19867,174.00273 362.8962,176.06779 359.59375,178.07813 C 364.14103,182.0352 368.68298,185.99851 373.21875,189.96875 C 397.7219,174.30268 420.60455,155.21707 436.89063,130.88281 C 439.48197,130.66373 442.9155,130.91158 444.53125,128.46094 C 445.3826,126.31116 443.31945,124.43382 441.78665,123.26369 C 437.17868,119.84346 432.73825,116.08225 427.48438,113.6875 L 427.35762,113.90298 L 427.25,114.08594 z M 789.64063,149.125 C 789.71355,155.30208 789.78645,161.47917 789.85938,167.65625 C 766.98957,167.65625 744.1198,167.65625 721.25,167.65625 C 721.25,161.47917 721.25,155.30208 721.25,149.125 C 744.04688,149.125 766.84375,149.125 789.64063,149.125 z M 461.27345,159.96094 C 437.76103,189.90317 408.77222,216.08303 374.56023,233.18464 C 366.47545,237.24261 358.15505,240.76277 349.625,243.78125 C 353.3904,248.4669 357.17765,253.13497 360.95313,257.8125 C 372.68305,253.3849 384.06525,248.03417 394.8125,241.58594 C 394.8125,270.49479 394.8125,299.40364 394.8125,328.3125 C 438.3125,328.3125 481.8125,328.3125 525.3125,328.3125 C 525.3125,297.97917 525.3125,267.64583 525.3125,237.3125 C 536.1376,242.69366 547.42993,247.17552 558.96875,250.79688 C 562.6111,245.87743 566.21882,240.93232 569.84375,236 C 537.8903,227.07949 507.87012,210.60335 484.19748,187.3318 C 480.76575,183.96424 477.45993,180.53006 474.3047,176.92969 C 476.05195,176.2636 476.7125,173.9247 475.51563,172.46094 C 472.99422,168.17624 468.7429,165.34307 465.00783,162.1875 C 463.83837,161.48102 462.5304,159.88547 461.42245,159.77373 L 461.27345,159.96094 z M 105.27344,164.09375 C 101.5871,168.17514 97.90737,172.27756 94.25,176.39063 C 103.59542,185.3146 110.91715,196.38 115.46094,208.50781 C 120.10726,204.97118 124.75695,201.43896 129.40625,197.90625 C 123.61288,185.2046 115.5293,173.54145 105.625,163.70313 C 105.50781,163.83333 105.39063,163.96354 105.27344,164.09375 z M 790.07813,184.59375 C 790.15105,190.77083 790.22395,196.94792 790.29688,203.125 C 767.28125,203.125 744.26563,203.125 721.25,203.125 C 721.25,196.94792 721.25,190.77083 721.25,184.59375 C 744.1927,184.59375 767.13543,184.59375 790.07813,184.59375 z M 461.29688,187.97656 C 477.94813,207.0362 498.13575,223.0134 520.4922,234.84375 C 482.23178,234.84375 443.97135,234.84375 405.71095,234.84375 C 426.14168,221.64034 444.50443,205.37062 460.625,187.20313 C 460.84895,187.46094 461.07293,187.71875 461.29688,187.97656 z M 274.33594,209.5 C 267.59612,219.83946 258.98174,229.01869 248.61224,235.80008 C 243.24221,239.53898 237.79432,243.15081 232.625,247.15625 C 236.71781,251.43354 240.80248,255.71862 244.88281,260.00781 C 255.35514,253.36798 265.25756,245.78139 273.80377,236.77436 C 277.20713,233.35204 280.51908,229.82843 283.83594,226.32031 C 286.25273,226.1838 289.65364,226.15366 290.67969,223.49219 C 291.18849,220.81066 288.63654,218.90579 286.96094,217.25 C 283.26307,213.96733 278.90928,211.5356 274.60156,209.125 L 274.45706,209.32901 L 274.33594,209.5 z M 165.35156,210.29688 C 161.77706,214.57374 158.19242,218.8422 154.625,223.125 C 167.70344,234.96539 180.85656,246.74946 191.60781,260.81359 C 192.59938,262.06427 193.56075,263.33867 194.54688,264.59375 C 199.00032,261.07665 203.45541,257.56147 207.89844,254.03125 C 198.62273,240.63003 187.06948,228.99408 174.86283,218.27779 C 171.79466,215.49276 168.72141,212.71302 165.6875,209.89063 C 165.57552,210.02604 165.46354,210.16146 165.35156,210.29688 z M 136.77344,241.33594 C 123.09948,267.94763 108.86523,294.22734 93.99219,320.21094 C 99.96911,322.74813 106.01578,325.9348 112.66406,325.92188 C 114.88571,325.80872 116.97648,323.93833 116.75781,321.60156 C 116.77766,320.00047 116.03574,318.5489 115.28906,317.1875 C 126.71599,297.13312 137.51748,276.74226 148.04688,256.20313 C 144.39193,251.00257 140.79971,245.80331 137.15625,240.59375 C 137.02864,240.84115 136.90104,241.08854 136.77344,241.33594 z M 682.33595,238.21875 C 677.83153,240.88936 673.31915,243.54662 668.82033,246.22656 C 676.5007,260.11741 681.52887,275.53544 682.875,291.375 C 688.13355,289.49271 693.39783,287.62631 698.66408,285.76563 C 696.48213,268.99251 691.0469,252.6729 682.78125,237.95313 C 682.6328,238.04167 682.48438,238.13021 682.33595,238.21875 z M 624.28125,242.11719 C 619.7858,264.95374 611.85492,287.06979 601.95313,308.125 C 607.2032,309.71329 612.45035,311.31133 617.70313,312.89063 C 626.11888,294.85238 633.21052,276.13066 637.79688,256.73438 C 640.04387,256.12415 643.09973,254.9829 643.19533,252.25 C 642.84595,248.91525 639.36598,247.22647 636.7422,245.84375 C 632.80867,243.95555 628.5904,242.7509 624.39063,241.59375 C 624.35418,241.76823 624.3177,241.94271 624.28125,242.11719 z M 508.84375,252.25 C 508.84375,271.8125 508.84375,291.375 508.84375,310.9375 C 476.47918,310.9375 444.11458,310.9375 411.75,310.9375 C 411.75,291.375 411.75,271.8125 411.75,252.25 C 444.11458,252.25 476.47918,252.25 508.84375,252.25 z M 206.46094,265.5625 C 190.174,281.19623 172.65957,295.78538 153.63281,307.9375 C 157.843,313.12253 161.76698,319.00316 167.78906,322.20313 C 169.81469,323.20659 172.76786,322.4479 173.38281,320.07031 C 173.90338,318.60381 173.86413,316.98964 173.74219,315.44531 C 187.28312,305.84935 199.83075,294.93778 211.89063,283.54688 C 210.29334,277.35178 208.68197,271.16016 207.07031,264.96875 C 206.86719,265.16667 206.66406,265.36458 206.46094,265.5625 z M 247.63281,269.58594 C 244.4582,274.1929 241.28381,278.80718 238.09375,283.40625 C 255.33889,296.24435 272.61804,309.40755 285.94737,326.40443 C 286.92429,326.4737 288.0093,324.49663 289.02616,323.80314 C 292.17583,320.69632 295.3418,317.60604 298.49219,314.5 C 283.80112,297.16866 265.95744,282.89222 247.9375,269.16406 C 247.83594,269.30469 247.73438,269.44531 247.63281,269.58594 z "
     style="font-size:227.95370483px;font-style:normal;font-variant:normal;font-weight:normal;font-stretch:normal;text-align:start;line-height:100%;writing-mode:lr-tb;text-anchor:start;fill:white;fill-opacity:1;stroke:none;stroke-width:1px;stroke-linecap:butt;stroke-linejoin:miter;stroke-opacity:1;font-family:VL Gothic"
     id="line-name" />
  <path
     d="M 96.622269,11.999833 C 49.910815,11.999833 12.000034,49.910595 12.000034,96.622069 L 12.000034,459.99989 C 12.000033,707.29592 212.70407,907.99996 460.00011,907.99996 C 707.29615,907.99994 908.00015,707.29596 908.00018,459.99989 L 908.00018,96.622069 C 908.00018,49.910585 870.08942,11.999835 823.37795,11.999833 L 460.00011,11.999833 L 96.622269,11.999833 z "
     style="fill:none;fill-opacity:1;stroke:#7f7f7f;stroke-width:4;stroke-linecap:butt;stroke-linejoin:round;stroke-miterlimit:4;stroke-dasharray:none;stroke-dashoffset:0;stroke-opacity:1"
     id="plate-line" />
</svg>
