<?xml version="1.0" encoding="UTF-8" standalone="no"?>
<!-- Created with Inkscape (http://www.inkscape.org/) -->

<svg
   xmlns:osb="http://www.openswatchbook.org/uri/2009/osb"
   xmlns:dc="http://purl.org/dc/elements/1.1/"
   xmlns:cc="http://creativecommons.org/ns#"
   xmlns:rdf="http://www.w3.org/1999/02/22-rdf-syntax-ns#"
   xmlns:svg="http://www.w3.org/2000/svg"
   xmlns="http://www.w3.org/2000/svg"
   xmlns:xlink="http://www.w3.org/1999/xlink"
   xmlns:sodipodi="http://sodipodi.sourceforge.net/DTD/sodipodi-0.dtd"
   xmlns:inkscape="http://www.inkscape.org/namespaces/inkscape"
   version="1.1"
   width="1800.4003"
   height="300.40027"
   id="svg2"
   xml:space="preserve"
   inkscape:version="0.48.4 r9939"
   sodipodi:docname="Ajax.svg"><sodipodi:namedview
     pagecolor="#ffffff"
     bordercolor="#666666"
     borderopacity="1"
     objecttolerance="10"
     gridtolerance="10"
     guidetolerance="10"
     inkscape:pageopacity="0"
     inkscape:pageshadow="2"
     inkscape:window-width="1280"
     inkscape:window-height="1001"
     id="namedview28"
     showgrid="false"
     fit-margin-top="0.2"
     fit-margin-left="0.2"
     fit-margin-right="0.2"
     fit-margin-bottom="0.2"
     inkscape:zoom="0.40989584"
     inkscape:cx="923.3912"
     inkscape:cy="-102.06497"
     inkscape:window-x="-8"
     inkscape:window-y="-8"
     inkscape:window-maximized="1"
     inkscape:current-layer="svg2"
     showguides="true"
     inkscape:guide-bbox="true" /><metadata
     id="metadata8"><rdf:RDF><cc:Work
         rdf:about=""><dc:format>image/svg+xml</dc:format><dc:type
           rdf:resource="http://purl.org/dc/dcmitype/StillImage" /><dc:title /></cc:Work></rdf:RDF></metadata><defs
     id="defs6"><linearGradient
       id="linearGradient15703"
       osb:paint="solid"><stop
         style="stop-color:#ffffff;stop-opacity:1;"
         offset="0"
         id="stop15705" /></linearGradient><linearGradient
       inkscape:collect="always"
       xlink:href="#linearGradient15703"
       id="linearGradient15707"
       x1="-37.125"
       y1="465.375"
       x2="967.87512"
       y2="465.375"
       gradientUnits="userSpaceOnUse"
       gradientTransform="translate(961.6578,56.04101)" /></defs><g
     id="g2991"
     transform="matrix(34.167339,0,0,34.167339,15.16955,-266.18948)" /><path
     style="font-size:medium;font-style:normal;font-variant:normal;font-weight:normal;font-stretch:normal;text-indent:0;text-align:start;text-decoration:none;line-height:normal;letter-spacing:normal;word-spacing:normal;text-transform:none;direction:ltr;block-progression:tb;writing-mode:lr-tb;text-anchor:start;baseline-shift:baseline;color:#000000;fill:#000000;fill-opacity:1;fill-rule:nonzero;stroke:none;stroke-width:30;marker:none;visibility:visible;display:inline;overflow:visible;enable-background:accumulate;font-family:Sans;-inkscape-font-specification:Sans"
     d="m 1743.544,300.20026 c 31.1185,0 56.6563,-25.5377 56.6563,-56.6563 l 0,-186.68776 C 1800.2003,25.7364 1774.6619,0.2 1743.544,0.2 L 56.8563,0.2 C 25.7386,0.2 0.2,25.7364 0.2,56.8562 l 0,186.68776 c 0,31.1186 25.5377,56.6563 56.6563,56.6563 z"
     id="path14428"
     inkscape:connector-curvature="0"
     sodipodi:nodetypes="sssssssss" /><path
     inkscape:connector-curvature="0"
     d="m 56.8668,285.20026 c -23.012,0 -41.6668,-18.6548 -41.6668,-41.6668 l 0,-186.66706 c 0,-23.014 18.6548,-41.6668 41.6668,-41.6668 l 1686.6669,0 c 23.0119,0 41.6666,18.6528 41.6666,41.6668 l 0,186.66706 c 0,23.012 -18.6547,41.6668 -41.6666,41.6668 z"
     style="fill:#ffffff;fill-opacity:1;fill-rule:nonzero;stroke:none"
     id="path14430"
     sodipodi:nodetypes="sssssssss" /><path
     inkscape:connector-curvature="0"
     d="m 189.97927,85.611058 c -2.24818,-2.16659 -3.37225,-4.91698 -3.37219,-8.25119 -6e-5,-3.33388 1.12528,-6.08427 3.376,-8.25119 2.25062,-2.16657 4.95778,-3.24994 8.12149,-3.25012 l 122.00162,0 c 3.16855,1.8e-4 5.87826,1.08355 8.12912,3.25012 2.25048,2.16692 3.37581,4.91731 3.37601,8.25119 -2e-4,3.33421 -1.12553,6.0846 -3.37601,8.25119 -2.25086,2.1669 -4.96057,3.25028 -8.12912,3.25012 l -122.00162,0 c -3.16371,1.6e-4 -5.87215,-1.08322 -8.1253,-3.25012 z M 259.1092,255.86096 c -29.33257,0 -52.4992,-4.9171 -69.49996,-14.7514 -17.00086,-9.83427 -25.50127,-22.83348 -25.50124,-38.99765 -3e-5,-15.00441 9.6664,-32.75545 28.99932,-53.25317 2.33453,-2.50234 5.2515,-3.83621 8.75092,-4.00162 3.49927,-0.1652 6.58154,0.83552 9.24682,3.00217 2.50236,1.999 3.83623,4.6235 4.00162,7.87353 0.16522,3.25021 -0.8355,6.04257 -3.00217,8.37708 -14.16531,15.1673 -21.24792,27.00048 -21.24786,35.49957 -6e-5,9.83178 6.00045,17.70658 18.00156,23.62442 12.00094,5.91789 28.75125,8.87682 50.25099,8.8768 22.50147,2e-5 46.16783,-2.75165 70.99913,-8.255 3.16854,-0.66628 6.12747,-0.16528 8.8768,1.50299 2.74891,1.66831 4.54055,4.16821 5.37491,7.49968 0.83393,3.3315 0.33421,6.4151 -1.49918,9.2507 -1.83381,2.8355 -4.33497,4.5865 -7.50351,5.2528 -26.4996,5.6661 -51.91563,8.4991 -76.24815,8.4991 z"
     id="path2820"
     style="font-size:250px;font-style:normal;font-variant:normal;font-weight:normal;font-stretch:normal;text-align:center;text-anchor:middle;fill:#000000;fill-opacity:1;stroke:none;font-family:'Rounded M+ 1p medium';-inkscape-font-specification:'Rounded M+ 1p medium,'" /><path
     inkscape:connector-curvature="0"
     d="m 439.97921,85.611058 c -2.24818,-2.16659 -3.37224,-4.91698 -3.37218,-8.25119 -6e-5,-3.33388 1.12527,-6.08427 3.37599,-8.25119 2.25062,-2.16657 4.95778,-3.24994 8.12149,-3.25012 l 122.00162,0 c 3.16855,1.8e-4 5.87826,1.08355 8.12912,3.25012 2.25048,2.16692 3.37581,4.91731 3.37601,8.25119 -2e-4,3.33421 -1.12553,6.0846 -3.37601,8.25119 -2.25086,2.1669 -4.96057,3.25028 -8.12912,3.25012 l -122.00162,0 c -3.16371,1.6e-4 -5.87215,-1.08322 -8.1253,-3.25012 z m 69.12993,170.249902 c -29.33257,0 -52.4992,-4.9171 -69.49996,-14.7514 -17.00086,-9.83427 -25.50127,-22.83348 -25.50124,-38.99765 -3e-5,-15.00441 9.6664,-32.75545 28.99932,-53.25317 2.33453,-2.50234 5.2515,-3.83621 8.75092,-4.00162 3.49927,-0.1652 6.58154,0.83552 9.24682,3.00217 2.50236,1.999 3.83623,4.6235 4.00162,7.87353 0.16522,3.25021 -0.8355,6.04257 -3.00217,8.37708 -14.16531,15.1673 -21.24792,27.00048 -21.24786,35.49957 -6e-5,9.83178 6.00045,17.70658 18.00156,23.62442 12.00094,5.91789 28.75125,8.87682 50.25099,8.8768 22.50147,2e-5 46.16783,-2.75165 70.99913,-8.255 3.16854,-0.66628 6.12747,-0.16528 8.8768,1.50299 2.74891,1.66831 4.54055,4.16821 5.37491,7.49968 0.83393,3.3315 0.33421,6.4151 -1.49918,9.2507 -1.83381,2.8355 -4.33497,4.5865 -7.50351,5.2528 -26.4996,5.6661 -51.91563,8.4991 -76.24815,8.4991 z"
     id="path2822"
     style="font-size:250px;font-style:normal;font-variant:normal;font-weight:normal;font-stretch:normal;text-align:center;text-anchor:middle;fill:#000000;fill-opacity:1;stroke:none;font-family:'Rounded M+ 1p medium';-inkscape-font-specification:'Rounded M+ 1p medium,'" /><path
     inkscape:connector-curvature="0"
     d="m 671.98142,253.10676 c -3.25016,1.3326 -6.45832,1.4165 -9.62448,0.2518 -3.16623,-1.1648 -5.41563,-3.2895 -6.7482,-6.3744 -1.33263,-3.0848 -1.33263,-6.209 0,-9.3727 15.4978,-37.50095 28.57966,-77.33398 39.24559,-119.49918 0.33563,-1.50032 -0.16282,-2.25054 -1.49536,-2.25067 l -27.99987,0 c -3.16877,1.3e-4 -5.83651,-1.08325 -8.00323,-3.25012 -2.16677,-2.16662 -3.25015,-4.83436 -3.25012,-8.00324 -3e-5,-3.1686 1.08335,-5.835072 3.25012,-7.999422 2.16672,-2.16405 4.83446,-3.24615 8.00323,-3.24631 l 33.24889,0 c 1.50038,1.6e-4 2.41591,-0.75007 2.74659,-2.25067 2.83297,-12.66971 5.33287,-25.00389 7.49969,-37.00256 0.67131,-3.33131 2.38156,-6.03974 5.13077,-8.12531 2.74904,-2.08516 5.79062,-2.96127 9.12475,-2.62832 3.33396,0.33335 6.00043,1.8338 7.99942,4.50134 1.9988,2.66794 2.74902,5.58618 2.25067,8.75473 -2.67038,15.33017 -4.83713,26.8302 -6.50024,34.50012 -0.33579,1.5006 0.16267,2.25083 1.49536,2.25067 l 17.00591,0 c 8.16333,1.6e-4 14.28719,1.6e-4 18.37159,0 4.08413,1.6e-4 8.5842,0.45792 13.5002,1.37329 4.91572,0.91568 8.33242,1.74856 10.25009,2.49863 1.91737,0.75037 4.08411,2.583973 6.50024,5.500792 2.41582,2.91712 3.91499,5.54163 4.49753,7.87354 0.58221,2.33218 1.24851,6.4991 1.9989,12.50076 0.75006,6.00191 1.12517,11.5027 1.12534,16.50238 -1.7e-4,4.9999 -1.7e-4,12.49959 0,22.49909 -1.7e-4,31.49928 -3.7907,54.99906 -11.37161,70.49946 -7.58123,15.5003 -17.53884,23.2505 -29.87289,23.2505 -10.66601,0 -24.08356,-2.7516 -40.25267,-8.255 -3.16883,-1.1647 -5.50215,-3.2882 -6.99997,-6.3705 -1.49799,-3.0823 -1.66456,-6.2917 -0.49973,-9.62831 1.16468,-3.16364 3.2475,-5.41303 6.24848,-6.7482 3.0008,-1.33512 6.08562,-1.41777 9.25445,-0.24795 11.83053,4.16566 20.91205,6.24849 27.24456,6.24847 2.33447,2e-5 4.66906,-1.41651 7.00378,-4.24957 2.33447,-2.83303 4.50121,-7.0826 6.50025,-12.74872 1.99876,-5.66606 3.58186,-13.29163 4.7493,-22.87674 1.16714,-9.585 1.75079,-20.46069 1.75093,-32.62711 -1.4e-4,-6.66799 -1.4e-4,-11.41856 0,-14.2517 -1.4e-4,-2.83295 -0.16671,-6.24837 -0.49972,-10.24628 -0.33329,-3.99769 -0.58379,-6.58024 -0.7515,-7.74765 -0.16798,-1.16718 -0.83555,-2.75155 -2.0027,-4.75311 -1.16744,-2.00132 -2.08424,-3.12666 -2.7504,-3.37601 -0.66644,-0.2491 -2.20757,-0.6649 -4.62341,-1.24741 -2.41611,-0.58224 -4.45697,-0.87343 -6.12259,-0.87356 -1.66588,1.3e-4 -4.41627,1.3e-4 -8.25119,0 l -27.00042,0 c -1.50054,1.3e-4 -2.41606,0.66643 -2.74658,1.9989 -11.16951,45.1661 -25.08806,88.00002 -41.75567,128.50185 -1.33264,3.1637 -3.624,5.4118 -6.87408,6.7444 z m 198.87537,-56.49564 c -1.66853,3.00094 -4.16842,4.91719 -7.49969,5.74875 -3.33173,0.83164 -6.53988,0.28996 -9.62447,-1.62506 -3.08504,-1.91493 -5.04452,-4.54071 -5.87845,-7.87735 -8.82996,-31.83484 -20.16214,-65.25155 -33.99657,-100.250252 -1.33278,-3.1635 -1.29082,-6.28773 0.12588,-9.37271 1.41634,-3.08465 3.70896,-5.20944 6.87789,-6.37436 3.33131,-1.16967 6.62212,-1.00436 9.87244,0.49591 3.24992,1.50062 5.45736,3.83521 6.62231,7.00379 14.33287,36.000692 25.91682,70.251552 34.75188,102.752682 0.83391,3.33156 0.41684,6.49776 -1.25122,9.4986 z"
     id="path2824"
     style="font-size:250px;font-style:normal;font-variant:normal;font-weight:normal;font-stretch:normal;text-align:center;text-anchor:middle;fill:#000000;fill-opacity:1;stroke:none;font-family:'Rounded M+ 1p medium';-inkscape-font-specification:'Rounded M+ 1p medium,'" /><path
     inkscape:connector-curvature="0"
     d="m 1025.8555,153.36008 c -10.1676,9e-5 -21.7502,2.29145 -34.74805,6.87409 -12.99799,4.5828 -25.74799,10.95842 -38.24994,19.12689 -6.99876,4.49632 -14.16529,5.82892 -21.49963,3.9978 -3.33154,-0.83408 -5.91409,-2.62572 -7.74765,-5.37491 -1.83363,-2.74905 -2.41728,-5.70798 -1.75094,-8.8768 2.833,-16.83035 5.66605,-34.99592 8.49914,-54.49676 0.49841,-3.49922 2.16416,-6.37422 4.99726,-8.62503 2.83299,-2.25053 6.08311,-3.21056 9.75035,-2.8801 3.49928,0.16799 6.33233,1.62775 8.49915,4.37927 2.16667,2.75181 3.00082,5.87731 2.50244,9.37653 -2.66527,18.49885 -4.66417,31.74855 -5.99671,39.74914 -6e-5,0.3307 0.0813,0.496 0.24414,0.49591 l 0.50355,0 c 10.83366,-7.83274 23.45902,-14.16514 37.87614,-18.99719 14.41695,-4.83184 28.12555,-7.24781 41.12615,-7.24792 47.4954,1.1e-4 71.2431,19.16513 71.2433,57.49511 -2e-4,22.17106 -9.2076,39.17315 -27.6222,51.00635 -18.415,11.8332 -45.4574,17.7497 -81.12715,17.7498 -12.83269,-10e-5 -27.24716,-0.6689 -43.24338,-2.0066 -3.1688,-0.1627 -5.83654,-1.4941 -8.00322,-3.994 -2.16681,-2.4999 -3.08487,-5.4181 -2.75421,-8.7547 0.16779,-3.1636 1.46097,-5.7462 3.87954,-7.7476 2.41845,-2.0015 5.20953,-2.83435 8.37325,-2.49867 17.6696,1.66327 31.58563,2.49487 41.74802,2.49477 26.00085,1e-4 45.71005,-3.99902 59.12775,-11.99718 13.4174,-7.99812 20.1262,-19.41549 20.1264,-34.25217 -2e-4,-23.3306 -15.2514,-34.99594 -45.7535,-34.99603 z M 953.73489,76.738068 c -1.74975,-2.42089 -2.45801,-5.21451 -2.12479,-8.38089 0.33308,-3.16602 1.79157,-5.66591 4.37546,-7.49969 2.58374,-1.83341 5.45748,-2.58236 8.62121,-2.24686 31.33638,3.49953 62.25313,5.49843 92.75053,5.9967 3.1685,1.9e-4 5.7943,1.08356 7.8773,3.25013 2.0827,2.16692 3.1241,4.83339 3.1243,7.99942 -2e-4,3.16636 -1.0836,5.83283 -3.2502,7.99942 -2.1669,2.16691 -4.8346,3.25028 -8.0032,3.25012 -31.3315,-0.1626 -63.33165,-2.24542 -96.00062,-6.24847 -3.16373,-0.33045 -5.62039,-1.70374 -7.36999,-4.11988 z"
     id="path2826"
     style="font-size:250px;font-style:normal;font-variant:normal;font-weight:normal;font-stretch:normal;text-align:center;text-anchor:middle;fill:#000000;fill-opacity:1;stroke:none;font-family:'Rounded M+ 1p medium';-inkscape-font-specification:'Rounded M+ 1p medium,'" /><path
     inkscape:connector-curvature="0"
     d="m 1271.606,184.61008 c -10e-5,21.00122 -5.9167,36.8767 -17.7498,47.6265 -11.8333,10.74978 -29.2499,16.12468 -52.2499,16.12468 -13.499,0 -25.7492,-2.1667 -36.7508,-6.5002 -3.1638,-1.1698 -5.4538,-3.2959 -6.8703,-6.3782 -1.4166,-3.0822 -1.7103,-6.28912 -0.8812,-9.62064 0.8341,-2.83303 2.6677,-4.87516 5.5008,-6.12641 2.8331,-1.25119 5.6687,-1.29442 8.5068,-0.1297 10.498,4.17076 20.6629,6.25613 30.4947,6.25611 28.3355,2e-5 42.5033,-13.75068 42.5034,-41.25214 -10e-5,-11.49997 -2.7925,-20.16695 -8.3771,-26.00097 -5.5848,-5.83386 -13.6262,-8.75082 -24.1241,-8.75092 -7.6651,1e-4 -14.4985,1.50054 -20.5002,4.50134 -9.0028,4.33359 -16.1693,6.50033 -21.4997,6.50025 -3.3315,8e-5 -6.0807,-1.12525 -8.2474,-3.37601 -2.1668,-2.25058 -3.1688,-5.04167 -3.006,-8.37326 l 3.7537,-71.502692 c 0.1678,-3.99763 1.7102,-7.37236 4.6273,-10.1242 2.9169,-2.75149 6.3743,-4.12732 10.3721,-4.12751 l 75.7523,0 c 3.1635,1.9e-4 5.8287,1.08356 7.9956,3.25013 2.1666,2.16692 3.25,4.83466 3.2501,8.00323 -10e-5,3.16891 -1.0835,5.83538 -3.2501,7.99942 -2.1669,2.16437 -4.8321,3.24647 -7.9956,3.24631 l -63.0035,0 c -1.3327,1.6e-4 -1.999,0.669 -1.9989,2.00653 l -2.5025,47.744752 c 0,0.16796 0.084,0.25188 0.2518,0.25177 -10e-5,1.1e-4 0.084,-0.0418 0.2518,-0.12588 0.1677,-0.0838 0.3331,-0.12578 0.4959,-0.12589 9.1704,-4.83183 19.2539,-7.24781 30.2505,-7.24792 17.3339,1.1e-4 30.8341,4.91725 40.5007,14.75143 9.6663,9.83438 14.4995,23.66773 14.4996,41.50009 z"
     id="path2828"
     style="font-size:250px;font-style:normal;font-variant:normal;font-weight:normal;font-stretch:normal;text-align:center;text-anchor:middle;fill:#000000;fill-opacity:1;stroke:none;font-family:'Rounded M+ 1p medium';-inkscape-font-specification:'Rounded M+ 1p medium,'" /><path
     inkscape:connector-curvature="0"
     d="m 1399.4442,99.237158 c -6.5818,-10.92005 -16.622,-16.38015 -30.1209,-16.38031 -13.499,1.6e-4 -23.5405,5.45899 -30.1247,16.37649 -6.5842,10.917802 -9.8762,29.375832 -9.8762,55.374152 0,25.9985 3.292,44.45653 9.8762,55.37414 6.5842,10.91769 16.6257,16.37652 30.1247,16.3765 13.4989,2e-5 23.5404,-5.45881 30.1247,-16.3765 6.584,-10.91761 9.8761,-29.37564 9.8762,-55.37414 -10e-5,-25.99832 -3.2934,-44.45508 -9.88,-55.370332 z m 20.5001,126.876832 c -11.2458,14.83157 -28.1195,22.24727 -50.621,22.24727 -22.5017,0 -39.3766,-7.417 -50.6248,-22.25109 -11.2483,-14.83405 -16.8725,-38.66825 -16.8724,-71.50268 -10e-5,-32.83425 5.6241,-56.667182 16.8724,-71.498872 11.2482,-14.83137 28.1231,-22.24713 50.6248,-22.24732 22.5015,1.9e-4 39.3765,7.41595 50.6249,22.24732 11.248,14.83169 16.8721,38.664622 16.8723,71.498872 -2e-4,32.83443 -5.6256,56.6699 -16.8762,71.5065 z"
     id="path2830"
     style="font-size:250px;font-style:normal;font-variant:normal;font-weight:normal;font-stretch:normal;text-align:center;text-anchor:middle;fill:#000000;fill-opacity:1;stroke:none;font-family:'Rounded M+ 1p medium';-inkscape-font-specification:'Rounded M+ 1p medium,'" /><path
     inkscape:connector-curvature="0"
     d="m 1491.2867,170.86191 0,62.50005 c 0,3.4993 -1.208,6.457 -3.624,8.8729 -2.416,2.416 -5.3736,3.624 -8.8729,3.624 -3.4994,0 -6.4583,-1.208 -8.8768,-3.624 -2.4186,-2.4159 -3.6278,-5.3736 -3.6278,-8.8729 l 0,-105.49931 c 0,-3.33647 1.1673,-6.17079 3.5019,-8.50297 2.3345,-2.33192 5.0849,-3.49794 8.2512,-3.49807 3.1661,1.3e-4 5.9572,1.16615 8.3732,3.49807 2.416,2.33218 3.7079,5.1665 3.8758,8.50297 l 0.2517,5.24902 c 0,0.16287 0.084,0.24425 0.2518,0.24414 0.3306,1.1e-4 0.4959,-0.0813 0.4959,-0.24414 9.5011,-13.16821 20.3348,-19.75237 32.5012,-19.7525 15.6656,1.3e-4 27.1657,7.41589 34.5001,22.24731 -10e-5,0.16796 0.1665,0.25188 0.4998,0.25177 0.333,1.1e-4 0.4996,-0.0838 0.4997,-0.25177 9.501,-14.83142 21.8352,-22.24718 37.0026,-22.24731 13.6666,1.3e-4 23.7501,3.91655 30.2505,11.74926 6.5001,7.83296 9.7502,20.58421 9.7504,38.25379 l 0,70.24384 c -2e-4,3.3366 -1.2095,6.2129 -3.6278,8.6288 -2.4187,2.416 -5.2937,3.624 -8.625,3.624 -3.3317,0 -6.2067,-1.208 -8.6251,-3.624 -2.4186,-2.4159 -3.6279,-5.2922 -3.6277,-8.6288 l 0,-62.74415 c -2e-4,-14.66869 -1.5833,-24.58689 -4.7493,-29.75464 -3.1664,-5.16753 -8.8338,-7.75135 -17.0021,-7.75146 -6.831,1.1e-4 -12.9129,3.70927 -18.2457,11.12747 -5.3331,7.41841 -7.9996,16.21128 -7.9995,26.37863 l 0,62.74415 c -10e-5,3.3366 -1.2081,6.2129 -3.6239,8.6288 -2.4161,2.416 -5.2911,3.624 -8.6251,3.624 -3.3341,0 -6.2091,-1.208 -8.625,-3.624 -2.416,-2.4159 -3.624,-5.2922 -3.6239,-8.6288 l 0,-62.74415 c -10e-5,-14.66869 -1.5845,-24.58689 -4.7532,-29.75464 -3.1688,-5.16753 -8.8349,-7.75135 -16.9982,-7.75146 -6.836,1.1e-4 -12.9205,3.70927 -18.2534,11.12747 -5.333,7.41841 -7.9994,16.21128 -7.9994,26.37863 z"
     id="path2832"
     style="font-size:250px;font-style:normal;font-variant:normal;font-weight:normal;font-stretch:normal;text-align:center;text-anchor:middle;fill:#000000;fill-opacity:1;stroke:none;font-family:'Rounded M+ 1p medium';-inkscape-font-specification:'Rounded M+ 1p medium,'" /></svg>