<?xml version="1.0" encoding="UTF-8" standalone="no"?>
<!-- Created with Inkscape (http://www.inkscape.org/) -->
<svg
   xmlns:dc="http://purl.org/dc/elements/1.1/"
   xmlns:cc="http://creativecommons.org/ns#"
   xmlns:rdf="http://www.w3.org/1999/02/22-rdf-syntax-ns#"
   xmlns:svg="http://www.w3.org/2000/svg"
   xmlns="http://www.w3.org/2000/svg"
   xmlns:sodipodi="http://sodipodi.sourceforge.net/DTD/sodipodi-0.dtd"
   xmlns:inkscape="http://www.inkscape.org/namespaces/inkscape"
   width="420"
   height="341.91229"
   id="svg4203"
   sodipodi:version="0.32"
   inkscape:version="0.46"
   version="1.0"
   sodipodi:docbase="D:\Documents and Settings\Administrator\デスクトップ\看板\sign\西日本\svg"
   sodipodi:docname="Japanese Road sign (Service area A, PA).svg"
   inkscape:output_extension="org.inkscape.output.svg.inkscape">
  <defs
     id="defs4205">
    <inkscape:perspective
       sodipodi:type="inkscape:persp3d"
       inkscape:vp_x="0 : 315 : 1"
       inkscape:vp_y="0 : 1000 : 0"
       inkscape:vp_z="1500 : 315 : 1"
       inkscape:persp3d-origin="750 : 210 : 1"
       id="perspective9" />
    <inkscape:perspective
       id="perspective3163"
       inkscape:persp3d-origin="372.04724 : 350.78739 : 1"
       inkscape:vp_z="744.09448 : 526.18109 : 1"
       inkscape:vp_y="0 : 1000 : 0"
       inkscape:vp_x="0 : 526.18109 : 1"
       sodipodi:type="inkscape:persp3d" />
    <inkscape:perspective
       id="perspective2395"
       inkscape:persp3d-origin="372.04724 : 350.78739 : 1"
       inkscape:vp_z="744.09448 : 526.18109 : 1"
       inkscape:vp_y="0 : 1000 : 0"
       inkscape:vp_x="0 : 526.18109 : 1"
       sodipodi:type="inkscape:persp3d" />
    <inkscape:perspective
       id="perspective3843"
       inkscape:persp3d-origin="227.5 : 145 : 1"
       inkscape:vp_z="455 : 217.5 : 1"
       inkscape:vp_y="0 : 1000 : 0"
       inkscape:vp_x="0 : 217.5 : 1"
       sodipodi:type="inkscape:persp3d" />
    <inkscape:perspective
       id="perspective2404"
       inkscape:persp3d-origin="372.04724 : 350.78739 : 1"
       inkscape:vp_z="744.09448 : 526.18109 : 1"
       inkscape:vp_y="0 : 1000 : 0"
       inkscape:vp_x="0 : 526.18109 : 1"
       sodipodi:type="inkscape:persp3d" />
    <inkscape:perspective
       id="perspective2401"
       inkscape:persp3d-origin="372.04724 : 350.78739 : 1"
       inkscape:vp_z="744.09448 : 526.18109 : 1"
       inkscape:vp_y="0 : 1000 : 0"
       inkscape:vp_x="0 : 526.18109 : 1"
       sodipodi:type="inkscape:persp3d" />
    <inkscape:perspective
       id="perspective2403"
       inkscape:persp3d-origin="372.04724 : 350.78739 : 1"
       inkscape:vp_z="744.09448 : 526.18109 : 1"
       inkscape:vp_y="0 : 1000 : 0"
       inkscape:vp_x="0 : 526.18109 : 1"
       sodipodi:type="inkscape:persp3d" />
  </defs>
  <sodipodi:namedview
     id="base"
     pagecolor="#ffffff"
     bordercolor="#666666"
     borderopacity="1.0"
     gridtolerance="10000"
     guidetolerance="10"
     objecttolerance="10"
     inkscape:pageopacity="0.0"
     inkscape:pageshadow="2"
     inkscape:zoom="1.4238095"
     inkscape:cx="210"
     inkscape:cy="170.95615"
     inkscape:document-units="px"
     inkscape:current-layer="layer1"
     width="1500px"
     height="630px"
     inkscape:window-width="1024"
     inkscape:window-height="712"
     inkscape:window-x="-4"
     inkscape:window-y="-4"
     showgrid="false"
     showguides="true"
     inkscape:guide-bbox="true" />
  <metadata
     id="metadata4208">
    <rdf:RDF>
      <cc:Work
         rdf:about="">
        <dc:format>image/svg+xml</dc:format>
        <dc:type
           rdf:resource="http://purl.org/dc/dcmitype/StillImage" />
      </cc:Work>
    </rdf:RDF>
  </metadata>
  <g
     inkscape:label="sign"
     inkscape:groupmode="layer"
     id="layer1"
     transform="translate(0,46.915421)">
    <rect
       style="fill:#005d35;fill-opacity:1;stroke:none;stroke-width:1;stroke-linecap:butt;stroke-linejoin:round;stroke-miterlimit:4;stroke-dasharray:none;stroke-opacity:1"
       id="rect_bg"
       width="420"
       height="150"
       x="0"
       y="144.99689" />
    <rect
       style="opacity:1;fill:#ffffff;fill-opacity:1;fill-rule:nonzero;stroke:none;stroke-width:0.01;stroke-linecap:butt;stroke-linejoin:miter;marker:none;marker-start:none;marker-mid:none;marker-end:none;stroke-miterlimit:4;stroke-dasharray:none;stroke-dashoffset:0;stroke-opacity:1;visibility:visible;display:inline;overflow:visible;enable-background:accumulate"
       id="rect3169"
       width="237.51662"
       height="141.25452"
       x="178.37463"
       y="149.0074" />
    <rect
       y="-46.915421"
       x="0"
       height="180"
       width="420"
       id="rect2401"
       style="fill:#005d35;fill-opacity:1;stroke:none;stroke-width:1;stroke-linecap:butt;stroke-linejoin:round;stroke-miterlimit:4;stroke-dasharray:none;stroke-opacity:1" />
    <path
       style="font-size:90px;font-style:normal;font-variant:normal;font-weight:normal;font-stretch:normal;text-align:start;line-height:125%;writing-mode:lr-tb;text-anchor:start;fill:#ffffff;fill-opacity:1;fill-rule:nonzero;stroke:none;stroke-width:1;stroke-linecap:butt;stroke-linejoin:round;marker:none;marker-start:none;marker-mid:none;marker-end:none;stroke-miterlimit:4;stroke-dashoffset:0;stroke-opacity:1;visibility:visible;display:inline;overflow:visible;enable-background:accumulate;font-family:GD-HighwayGothicJA-OTF;-inkscape-font-specification:GD-HighwayGothicJA-OTF"
       d="M 22.483266,162.43352 L 42.197896,220.29582 L 57.100486,203.00218 L 143.99118,277.18632 L 154.53659,264.84314 L 67.645876,190.65898 L 82.548492,173.36538 L 22.483266,162.43352 z"
       id="text2420" />
    <path
       id="path2422"
       style="font-size:73px;font-style:normal;font-variant:normal;font-weight:normal;font-stretch:normal;text-align:start;line-height:125%;writing-mode:lr-tb;text-anchor:start;fill:#005d35;fill-opacity:1;fill-rule:nonzero;stroke:none;stroke-width:1;stroke-linecap:butt;stroke-linejoin:round;marker:none;marker-start:none;marker-mid:none;marker-end:none;stroke-miterlimit:4;stroke-dashoffset:0;stroke-opacity:1;visibility:visible;display:inline;overflow:visible;enable-background:accumulate;font-family:GD-HighwayGothicJA-OTF;-inkscape-font-specification:GD-HighwayGothicJA-OTF"
       d="M 250.99103,173.26335 L 250.99103,182.75323 L 220.55043,182.75323 L 220.55043,220.85874 L 250.99103,220.85874 L 250.99103,244.36443 L 257.99894,244.36443 L 257.99894,220.85874 L 288.43955,220.85874 L 288.43955,182.75323 L 257.99894,182.75323 L 257.99894,173.26335 L 250.99103,173.26335 z M 281.43164,189.46914 L 281.43164,213.99683 L 257.99894,213.99683 L 257.99894,189.46914 L 281.43164,189.46914 z M 227.26634,189.46914 L 250.99103,189.46914 L 250.99103,213.99683 L 227.26634,213.99683 L 227.26634,189.46914 z" />
    <path
       id="path2416"
       style="font-size:73px;font-style:normal;font-variant:normal;font-weight:normal;font-stretch:normal;text-align:start;line-height:125%;writing-mode:lr-tb;text-anchor:start;fill:#005d35;fill-opacity:1;fill-rule:nonzero;stroke:none;stroke-width:1;stroke-linecap:butt;stroke-linejoin:round;marker:none;marker-start:none;marker-mid:none;marker-end:none;stroke-miterlimit:4;stroke-dashoffset:0;stroke-opacity:1;visibility:visible;display:inline;overflow:visible;enable-background:accumulate;font-family:GD-HighwayGothicJA-OTF;-inkscape-font-specification:GD-HighwayGothicJA-OTF"
       d="M 308.84394,187.71716 L 308.84394,194.28708 L 323.07875,194.28708 L 323.07875,206.40492 C 323.06657,209.9089 322.9449,213.04786 322.71376,215.8218 L 306.28897,215.8218 L 306.28897,222.39172 L 321.83777,222.39172 C 320.86291,227.45604 319.67364,231.34323 318.26994,234.05332 C 316.86622,236.76341 315.62219,238.78913 314.53786,240.13049 L 319.7938,243.92644 C 321.18076,242.34479 322.71374,239.9054 324.39274,236.60828 C 326.07169,233.31116 327.45867,228.57231 328.55368,222.39172 L 351.54839,222.39172 L 351.54839,243.56144 L 358.1183,243.56144 L 358.1183,222.39172 L 374.90809,222.39172 L 374.90809,215.8218 L 358.1183,215.8218 L 358.1183,194.28708 L 372.35312,194.28708 L 372.35312,187.71716 L 358.1183,187.71716 L 358.1183,173.84734 L 351.54839,173.84734 L 351.54839,187.71716 L 329.64867,187.71716 L 329.64867,173.84734 L 323.07875,173.84734 L 323.07875,187.71716 L 308.84394,187.71716 z M 329.64867,206.40492 L 329.64867,194.28708 L 351.54839,194.28708 L 351.54839,215.8218 L 329.28367,215.8218 C 329.51481,212.97486 329.63648,209.83591 329.64867,206.40492 L 329.64867,206.40492 z" />
    <path
       style="font-size:30px;font-style:normal;font-variant:normal;font-weight:normal;font-stretch:normal;text-align:start;line-height:125%;writing-mode:lr-tb;text-anchor:start;fill:#005d35;fill-opacity:1;fill-rule:nonzero;stroke:none;stroke-width:1;stroke-linecap:butt;stroke-linejoin:round;stroke-miterlimit:4;stroke-dashoffset:0;stroke-opacity:1;marker:none;marker-start:none;marker-mid:none;marker-end:none;visibility:visible;display:inline;overflow:visible;enable-background:accumulate;font-family:GD-HighwayGothicJA-OTF;-inkscape-font-specification:GD-HighwayGothicJA-OTF"
       d="M 264.33224,252.78997 L 268.80218,252.78997 L 268.80218,280.74961 L 263.28225,280.74961 L 251.6124,259.05989 L 251.6124,280.74961 L 247.17246,280.74961 L 247.17246,252.78997 L 252.90239,252.78997 L 264.33224,274.0897 L 264.33224,252.78997 z M 291.9299,280.74961 C 291.47322,280.74961 290.86656,280.74961 290.10992,280.74961 C 289.35324,280.74961 288.66659,280.74961 288.04995,280.74961 C 287.43327,280.74961 287.10661,280.74961 287.06996,280.74961 L 286.43997,278.19964 C 285.72371,279.3165 284.74123,280.12774 283.4925,280.63336 C 282.24376,281.13898 280.88628,281.38772 279.42006,281.3796 C 277.6907,281.3671 276.28197,280.86711 275.19386,279.87962 C 274.10575,278.89213 273.54451,277.49215 273.51013,275.67968 C 273.54388,273.88783 274.21137,272.5141 275.51261,271.55848 C 276.81384,270.60287 278.54631,269.92663 280.71004,269.52975 C 282.79938,269.14477 284.28311,268.75977 285.16123,268.37477 C 286.03933,267.98978 286.46558,267.39479 286.43997,266.58979 C 286.47433,266.00231 286.24058,265.40732 285.73873,264.80481 C 285.23684,264.20234 284.26061,263.87734 282.81001,263.82983 C 281.2644,263.85984 280.22316,264.21984 279.6863,264.90981 C 279.14943,265.59982 278.85068,266.43981 278.79007,267.42978 L 274.35012,267.42978 C 274.53012,265.20482 275.43761,263.51985 277.07259,262.37485 C 278.70756,261.22988 280.62003,260.65489 282.81001,260.64987 C 285.00997,260.65739 286.88745,261.16738 288.44244,262.17985 C 289.9974,263.19235 290.80989,264.66233 290.87991,266.58979 C 290.87989,267.48053 290.87989,268.61903 290.87991,270.0053 C 290.87989,271.39159 290.87989,272.7212 290.87991,273.99414 C 290.87989,275.26709 290.87989,276.17893 290.87991,276.72966 C 290.87114,277.42215 290.94114,278.10714 291.08991,278.78463 C 291.23864,279.46212 291.51863,280.11712 291.9299,280.74961 L 291.9299,280.74961 z M 281.34003,278.19964 C 282.85188,278.16089 284.07311,277.7134 285.00374,276.85716 C 285.93433,276.00092 286.41308,274.96844 286.43997,273.7597 L 286.43997,270.24975 C 286.13308,270.6135 285.65934,270.92849 285.01873,271.19473 C 284.37811,271.46099 283.43187,271.74598 282.18002,272.04972 C 281.0019,272.3616 280.04317,272.77284 279.30381,273.28346 C 278.56444,273.79408 278.18319,274.51282 278.16007,275.43968 C 278.14632,276.39467 278.38381,277.09466 278.87257,277.53965 C 279.3613,277.98465 280.18379,278.20464 281.34003,278.19964 L 281.34003,278.19964 z M 309.11105,280.74961 L 303.08113,272.04972 L 300.41116,274.80969 L 300.41116,280.74961 L 295.97122,280.74961 L 295.97122,252.78997 L 300.41116,252.78997 L 300.41116,270.03975 L 308.48106,261.27986 L 313.76099,261.27986 L 305.81109,269.31976 L 314.63098,280.74961 L 309.11105,280.74961 z M 335.81662,280.74961 C 335.35993,280.74961 334.75328,280.74961 333.99664,280.74961 C 333.23996,280.74961 332.55331,280.74961 331.93666,280.74961 C 331.31999,280.74961 330.99333,280.74961 330.95668,280.74961 L 330.32669,278.19964 C 329.61043,279.3165 328.62794,280.12774 327.37922,280.63336 C 326.13048,281.13898 324.773,281.38772 323.30678,281.3796 C 321.57742,281.3671 320.16869,280.86711 319.08058,279.87962 C 317.99247,278.89213 317.43122,277.49215 317.39685,275.67968 C 317.4306,273.88783 318.09809,272.5141 319.39933,271.55848 C 320.70056,270.60287 322.43303,269.92663 324.59676,269.52975 C 326.6861,269.14477 328.16983,268.75977 329.04795,268.37477 C 329.92605,267.98978 330.3523,267.39479 330.32669,266.58979 C 330.36105,266.00231 330.1273,265.40732 329.62544,264.80481 C 329.12356,264.20234 328.14733,263.87734 326.69673,263.82983 C 325.15112,263.85984 324.10988,264.21984 323.57302,264.90981 C 323.03615,265.59982 322.7374,266.43981 322.67678,267.42978 L 318.23684,267.42978 C 318.41684,265.20482 319.32432,263.51985 320.95931,262.37485 C 322.59428,261.22988 324.50675,260.65489 326.69673,260.64987 C 328.89669,260.65739 330.77417,261.16738 332.32916,262.17985 C 333.88412,263.19235 334.69661,264.66233 334.76663,266.58979 C 334.76661,267.48053 334.76661,268.61903 334.76663,270.0053 C 334.76661,271.39159 334.76661,272.7212 334.76663,273.99414 C 334.76661,275.26709 334.76661,276.17893 334.76663,276.72966 C 334.75786,277.42215 334.82786,278.10714 334.97663,278.78463 C 335.12535,279.46212 335.40535,280.11712 335.81662,280.74961 L 335.81662,280.74961 z M 325.22675,278.19964 C 326.7386,278.16089 327.95983,277.7134 328.89045,276.85716 C 329.82105,276.00092 330.2998,274.96844 330.32669,273.7597 L 330.32669,270.24975 C 330.0198,270.6135 329.54606,270.92849 328.90545,271.19473 C 328.26482,271.46099 327.31859,271.74598 326.06674,272.04972 C 324.88862,272.3616 323.92989,272.77284 323.19053,273.28346 C 322.45115,273.79408 322.06991,274.51282 322.04679,275.43968 C 322.03304,276.39467 322.27053,277.09466 322.75928,277.53965 C 323.24802,277.98465 324.07051,278.20464 325.22675,278.19964 L 325.22675,278.19964 z M 344.29788,280.74961 L 339.85794,280.74961 L 339.85794,261.27986 L 344.29788,261.27986 L 344.29788,280.74961 z M 344.29788,252.78997 L 344.29788,257.25991 L 339.85794,257.25991 L 339.85794,252.78997 L 344.29788,252.78997 z"
       id="text2426" />
    <path
       id="path3213"
       style="font-size:158px;font-style:normal;font-variant:normal;font-weight:normal;font-stretch:normal;text-indent:0;text-align:start;text-decoration:none;line-height:125%;letter-spacing:normal;word-spacing:normal;text-transform:none;direction:ltr;block-progression:tb;writing-mode:lr-tb;text-anchor:start;fill:#ffffff;fill-opacity:1;fill-rule:nonzero;stroke:none;stroke-width:1;stroke-linecap:butt;stroke-linejoin:round;marker:none;marker-start:none;marker-mid:none;marker-end:none;stroke-miterlimit:4;stroke-dashoffset:0;stroke-opacity:1;visibility:visible;display:inline;overflow:visible;enable-background:accumulate;font-family:GD-HighwayGothicJA-OTF;-inkscape-font-specification:GD-HighwayGothicJA-OTF"
       d="M 71.757566,119.64572 L 71.757566,-23.816431 L 114.57502,-23.816431 C 123.88511,-23.6622 131.89619,-21.372207 138.60827,-16.946443 C 145.32014,-12.52043 150.48726,-6.8832259 154.10962,-0.034812808 C 157.73175,6.8138163 159.56336,13.949076 159.60444,21.370987 C 159.56336,28.532665 157.73175,35.468963 154.10962,42.179902 C 150.48726,48.890973 145.32015,54.43455 138.60827,58.81065 C 131.89618,63.186848 123.88511,65.453436 114.57502,65.610418 L 90.085336,65.610418 L 90.085336,119.64572 L 71.757566,119.64572 z M 114.57502,46.966658 C 123.40307,46.52235 129.95998,43.500641 134.24577,37.901523 C 138.53136,32.302546 140.66433,26.792372 140.64469,21.370987 C 140.66433,15.646943 138.53136,9.9524363 134.24577,4.2874515 C 129.95998,-1.377326 123.40307,-4.425365 114.57502,-4.8566749 L 90.085336,-4.8566749 L 90.085336,46.966658 L 114.57502,46.966658 z" />
    <path
       id="path3209"
       style="font-size:158px;font-style:normal;font-variant:normal;font-weight:normal;font-stretch:normal;text-indent:0;text-align:start;text-decoration:none;line-height:125%;letter-spacing:normal;word-spacing:normal;text-transform:none;direction:ltr;block-progression:tb;writing-mode:lr-tb;text-anchor:start;fill:#ffffff;fill-opacity:1;fill-rule:nonzero;stroke:none;stroke-width:1;stroke-linecap:butt;stroke-linejoin:round;marker:none;marker-start:none;marker-mid:none;marker-end:none;stroke-miterlimit:4;stroke-dashoffset:0;stroke-opacity:1;visibility:visible;display:inline;overflow:visible;enable-background:accumulate;font-family:GD-HighwayGothicJA-OTF;-inkscape-font-specification:GD-HighwayGothicJA-OTF"
       d="M 368.60394,29.526976 C 371.16138,29.82329 372.40561,31.008273 372.33664,33.081928 C 372.26735,35.155716 372.12911,36.3407 371.9219,36.636884 C 371.01472,40.700025 369.00171,45.547241 365.88286,51.178545 C 362.76372,56.809947 358.29297,62.230637 352.47059,67.440632 C 346.64794,72.650692 339.2279,76.655254 330.21043,79.454333 C 327.6264,83.881585 325.36835,87.350954 323.43627,89.86245 C 321.50398,92.373962 320.23342,93.907862 319.62457,94.464142 L 260.69133,94.464142 C 260.07392,93.543472 258.0258,90.820445 254.54696,86.29506 C 251.06805,81.769702 247.65061,75.278136 244.29465,66.820344 C 240.93863,58.362617 239.13628,47.774815 238.88761,35.056905 L 238.88761,29.526976 L 368.60394,29.526976 z M 360.70404,40.11284 C 360.74998,40.040484 360.65781,39.750821 360.42754,39.243848 C 360.19699,38.736996 359.55183,38.447334 358.49207,38.374862 L 341.90228,38.374862 C 341.56312,43.927888 340.89821,49.135233 339.90756,53.996912 C 338.91665,58.858682 337.73825,63.236538 336.37235,67.130492 C 343.81459,63.476826 349.46959,58.89489 353.33738,53.384669 C 357.2049,47.87454 359.66045,43.450601 360.70404,40.11284 L 360.70404,40.11284 z M 360.70404,99.362072 C 360.78619,99.536532 359.23912,101.00459 356.06285,103.76627 C 352.88629,106.52794 347.58678,109.53648 340.1643,112.7919 L 240.62559,112.7919 C 233.17662,109.53647 227.77178,106.52793 224.41104,103.76627 C 221.05029,101.00459 219.3979,99.536532 219.45386,99.362072 L 360.70404,99.362072 z" />
  </g>
</svg>
