<?xml version="1.0" encoding="UTF-8" standalone="no"?>
<!-- Created with Inkscape (http://www.inkscape.org/) -->

<svg
   xmlns:dc="http://purl.org/dc/elements/1.1/"
   xmlns:cc="http://creativecommons.org/ns#"
   xmlns:rdf="http://www.w3.org/1999/02/22-rdf-syntax-ns#"
   xmlns:svg="http://www.w3.org/2000/svg"
   xmlns="http://www.w3.org/2000/svg"
   xmlns:sodipodi="http://sodipodi.sourceforge.net/DTD/sodipodi-0.dtd"
   xmlns:inkscape="http://www.inkscape.org/namespaces/inkscape"
   id="svg2"
   xml:space="preserve"
   height="457.38651"
   viewBox="9.114 5.709 520.09803 457.38736"
   width="520.09998"
   version="1.1"
   inkscape:version="0.48.4 r9939"
   sodipodi:docname="Ajax.svg"><defs
   id="defs20" /><sodipodi:namedview
   pagecolor="#ffffff"
   bordercolor="#666666"
   borderopacity="1"
   objecttolerance="10"
   gridtolerance="10"
   guidetolerance="10"
   inkscape:pageopacity="0"
   inkscape:pageshadow="2"
   inkscape:window-width="1280"
   inkscape:window-height="1001"
   id="namedview18"
   showgrid="false"
   fit-margin-top="0.1"
   fit-margin-left="0.1"
   fit-margin-right="0.1"
   fit-margin-bottom="0.1"
   inkscape:zoom="1.0323935"
   inkscape:cx="287.15271"
   inkscape:cy="216.06388"
   inkscape:window-x="-8"
   inkscape:window-y="-8"
   inkscape:window-maximized="1"
   inkscape:current-layer="svg2" /><metadata
   id="metadata29"><rdf:RDF><cc:Work
       rdf:about=""><dc:format>image/svg+xml</dc:format><dc:type
         rdf:resource="http://purl.org/dc/dcmitype/StillImage" /><dc:title /></cc:Work></rdf:RDF></metadata>



<path
   sodipodi:nodetypes="ssccsccsss"
   inkscape:connector-curvature="0"
   id="path3890"
   d="m 502.0067,5.8090002 c 9.49874,0 19.23829,3.8475215 24.12499,12.3124958 4.88671,8.464974 3.31274,18.805803 -1.4375,27.031241 L 291.88177,448.24635 c -4.75093,8.22533 -12.94547,14.75 -22.71875,14.75 -9.77325,0 -17.96781,-6.52467 -22.71874,-14.75 L 13.631863,45.152737 C 8.8816234,36.927299 7.3076534,26.58647 12.194363,18.121496 17.081073,9.6565217 26.820613,5.8090002 36.319353,5.8090002 z"
   style="font-size:medium;font-style:normal;font-variant:normal;font-weight:normal;font-stretch:normal;text-indent:0;text-align:start;text-decoration:none;line-height:normal;letter-spacing:normal;word-spacing:normal;text-transform:none;direction:ltr;block-progression:tb;writing-mode:lr-tb;text-anchor:start;baseline-shift:baseline;color:#000000;fill:#c0111e;fill-opacity:1;stroke:none;stroke-width:24.88995361;marker:none;visibility:visible;display:inline;overflow:visible;enable-background:accumulate;font-family:Sans;-inkscape-font-specification:Sans" /><path
   sodipodi:nodetypes="ssccsccssssssccsccss"
   inkscape:connector-curvature="0"
   id="path3892"
   d="m 36.350618,13.606415 c -7.6616,0 -14.19017,2.892179 -17.375,8.406247 -3.18482,5.514064 -2.42779,12.614608 1.40625,19.249993 L 253.19428,444.35559 c 3.83154,6.63467 9.60128,10.84375 15.96875,10.84375 6.36745,0 12.13719,-4.20908 15.96874,-10.84375 L 517.94418,41.262655 c 3.83404,-6.635385 4.59107,-13.735929 1.40625,-19.249993 -3.18483,-5.514068 -9.71339,-8.406247 -17.37499,-8.406247 z m 0,9.343747 465.624822,0 c 5.45741,0 8.1727,1.776629 9.31249,3.749998 1.13979,1.97337 1.29314,5.180455 -1.4375,9.906247 L 277.03802,439.69935 c -2.72897,4.72546 -5.59454,6.18749 -7.87499,6.18749 -2.28047,0 -5.14603,-1.46203 -7.87501,-6.18749 L 28.475618,36.606407 c -2.73065,-4.725792 -2.57728,-7.932877 -1.4375,-9.906247 1.13978,-1.973369 3.85508,-3.749998 9.3125,-3.749998 z"
   style="font-size:medium;font-style:normal;font-variant:normal;font-weight:normal;font-stretch:normal;text-indent:0;text-align:start;text-decoration:none;line-height:normal;letter-spacing:normal;word-spacing:normal;text-transform:none;direction:ltr;block-progression:tb;writing-mode:lr-tb;text-anchor:start;baseline-shift:baseline;color:#000000;fill:#ffffff;fill-opacity:1;stroke:none;stroke-width:9.3337326;marker:none;visibility:visible;display:inline;overflow:visible;enable-background:accumulate;font-family:Sans;-inkscape-font-specification:Sans" /><path
   id="path18"
   d="m 215.26133,178.26262 h -32.13267 v -35.40337 c 0.073,-0.0364 0.14791,-0.0688 0.21921,-0.10889 l 20.13883,-11.20333 c 2.9107,-1.62044 3.96048,-5.29275 2.3425,-8.20202 -1.61642,-2.91122 -5.28613,-3.95893 -8.19683,-2.34251 l -14.50358,8.06072 v -28.85809 c 0,-3.329028 -2.699,-6.028032 -6.02804,-6.028032 -3.32903,0 -6.02648,2.699004 -6.02648,6.028032 v 78.05723 H 157.0633 v -36.00358 c 0,-3.33201 -2.699,-6.0362 -6.02803,-6.0362 -3.32903,0 -6.02804,2.70406 -6.02804,6.0362 v 36.00358 h -13.80744 c -3.32955,0 -6.02803,2.6981 -6.02803,6.027 0,3.3289 2.69848,6.02648 6.02803,6.02648 h 84.06193 c 3.32903,0 6.02648,-2.69758 6.02648,-6.02648 0,-3.3289 -2.69745,-6.027 -6.02648,-6.027"
   inkscape:connector-curvature="0"
   style="fill:#ffffff;stroke:none" /><path
   id="path20"
   d="m 300.86063,174.60795 c -7.52598,-4.67698 -14.9586,-7.62268 -21.81112,-9.45015 v -16.87202 h 18.62857 c 3.32904,0 6.027,-2.699 6.027,-6.02648 0,-3.33201 -2.69809,-6.0362 -6.027,-6.0362 h -18.62857 v -12.39533 h 18.62857 c 3.32904,0 6.027,-2.699 6.027,-6.02699 0,-3.32994 -2.69809,-6.02804 -6.027,-6.02804 h -18.62857 v -11.56735 c 0,-3.329026 -2.6981,-6.02803 -6.02907,-6.02803 -3.32903,0 -6.02649,2.699004 -6.02649,6.02803 v 11.56735 h -24.15102 c -3.32904,0 -6.02648,2.6981 -6.02648,6.02804 0,3.32799 2.69757,6.02699 6.02648,6.02699 h 24.15102 v 12.39533 h -24.15102 c -3.32904,0 -6.02648,2.70406 -6.02648,6.0362 0,3.32748 2.69757,6.02648 6.02648,6.02648 h 24.15102 v 14.61507 c -3.10877,-0.33731 -5.97229,-0.46539 -8.51184,-0.46539 -6.81906,0 -11.07473,0.6684 -14.23005,2.23971 -2.99988,1.4934 -6.57497,4.63705 -6.57497,11.14357 0,14.4971 14.58007,14.4971 20.80515,14.4971 13.2526,0 18.91636,-7.79937 20.28532,-12.69413 5.02129,1.57636 10.3454,3.87998 15.72863,7.22612 2.82773,1.75617 6.5436,0.88917 8.3017,-1.93844 0.61577,-0.99054 0.90849,-2.09088 0.90849,-3.17606 0,-2.0144 -1.00856,-3.98369 -2.84575,-5.12564 z m -35.65745,3.69875 H 251.3374 c -1.21235,0 -2.19369,-0.98043 -2.19369,-2.19369 0,-1.20924 0.98134,-2.19057 2.19369,-2.19057 h 13.87226 c 1.21079,0 2.19071,0.98133 2.19071,2.19057 0,1.21326 -0.98005,2.19369 -2.19084,2.19369"
   inkscape:connector-curvature="0"
   style="fill:#ffffff;stroke:none" /><path
   id="path22"
   d="m 414.1877,169.8042 c -1.80582,-2.79481 -5.53789,-3.59738 -8.33412,-1.79014 0,0 -2.23517,1.44271 -3.80194,2.45646 v -43.58335 c 0,-3.45607 -1.37336,-6.59467 -3.60036,-8.90476 -0.0557,-0.0608 -0.10435,-0.12303 -0.16204,-0.18123 -1.0411,-1.0411 -2.21896,-1.86144 -3.47384,-2.46968 -0.0223,-0.0101 -0.0446,-0.0218 -0.0659,-0.0324 -0.13677,-0.0659 -0.2734,-0.12562 -0.41224,-0.18538 -0.0678,-0.0309 -0.13573,-0.0608 -0.20353,-0.0881 -0.0942,-0.0401 -0.18836,-0.0765 -0.2826,-0.11136 -0.11745,-0.0465 -0.22985,-0.0896 -0.34639,-0.13119 -0.0496,-0.0183 -0.10021,-0.0335 -0.14882,-0.0516 -0.16101,-0.0547 -0.32305,-0.10734 -0.4882,-0.15543 -0.003,-0.002 -0.007,-0.003 -0.0122,-0.004 -1.15764,-0.34483 -2.38204,-0.53125 -3.64807,-0.53125 -0.0739,0 -0.14376,0.008 -0.21778,0.0112 -3.21663,0.0537 -6.41902,1.30037 -8.86782,3.75022 l -16.40527,16.41567 v -33.89311 c 0,-3.330458 -2.69901,-6.029592 -6.02701,-6.029592 -3.33006,0 -6.02596,2.699004 -6.02596,6.029592 v 45.95956 l -10.51873,10.51613 8.1538,-26.17464 c 0.51556,-1.65686 0.29375,-3.45451 -0.60773,-4.93521 -0.90031,-1.47913 -2.3932,-2.49949 -4.10075,-2.79882 l -13.823,-2.43727 c -3.27834,-0.5783 -6.40372,1.61136 -6.98306,4.88867 -0.0608,0.3539 -0.0922,0.70638 -0.0922,1.0538 0,2.87272 2.059,5.42044 4.98292,5.93742 0,0 3.54073,0.6264 7.0773,1.24982 -3.07079,9.86549 -13.3926,42.97924 -13.3926,42.97924 -0.002,0.009 -0.005,0.0183 -0.009,0.0284 -0.0192,0.0648 -0.0334,0.12964 -0.0516,0.19446 -0.0294,0.11291 -0.0587,0.22426 -0.0821,0.33977 -0.0112,0.0557 -0.0233,0.1155 -0.0345,0.17371 -0.0223,0.13469 -0.0415,0.26835 -0.0568,0.40304 -0.004,0.038 -0.009,0.0754 -0.0152,0.11291 -0.0141,0.18175 -0.0253,0.36311 -0.0253,0.54434 0,0.18434 0.0111,0.36972 0.0284,0.5525 0.003,0.0308 0.008,0.0598 0.0101,0.0896 0.0162,0.14792 0.0375,0.29168 0.0638,0.43804 0.009,0.0542 0.0202,0.10734 0.0324,0.16204 0.0263,0.11901 0.0557,0.23698 0.085,0.35391 0.0183,0.0648 0.0354,0.12704 0.0547,0.19043 0.0354,0.11136 0.0749,0.22284 0.11848,0.33226 0.0213,0.0592 0.0415,0.12056 0.0659,0.18123 0.0618,0.15297 0.13469,0.3049 0.20962,0.45476 0.0345,0.0622 0.0719,0.12458 0.1063,0.18836 0.0547,0.0957 0.11045,0.19043 0.17021,0.28506 0.0385,0.0608 0.0789,0.1216 0.11745,0.17877 0.073,0.10488 0.14791,0.20612 0.22478,0.30737 0.0345,0.0401 0.0659,0.084 0.0993,0.12561 0.24203,0.29013 0.51051,0.56003 0.80413,0.80361 0.0354,0.0273 0.0688,0.0547 0.10332,0.0805 0.10941,0.0881 0.22388,0.17112 0.34029,0.2502 0.0486,0.035 0.0983,0.0674 0.14882,0.0998 0.10539,0.0674 0.21273,0.12859 0.32111,0.18784 0.0568,0.0324 0.11239,0.0664 0.17021,0.0946 0.11343,0.0587 0.23191,0.11135 0.3504,0.1636 0.10734,0.0465 0.21364,0.0896 0.32111,0.12808 0.0962,0.035 0.19239,0.0739 0.29065,0.10228 0.005,0.003 0.0141,0.006 0.0223,0.008 0.1448,0.0425 0.29167,0.0789 0.43959,0.11291 0.0497,0.0101 0.10228,0.0268 0.15297,0.0375 0.11343,0.0218 0.2279,0.035 0.34029,0.0507 0.0861,0.0127 0.17423,0.0298 0.25927,0.0375 h 0.0122 c 0.55808,0.0532 1.11201,0.0248 1.64883,-0.0725 0.0244,-0.006 0.0496,-0.007 0.0709,-0.0106 0.0911,-0.0183 0.17929,-0.043 0.26744,-0.0664 0.10228,-0.0233 0.20664,-0.0451 0.30892,-0.076 0.005,-0.002 0.0122,-0.004 0.0192,-0.006 0.62899,-0.19186 1.2305,-0.49119 1.78249,-0.89176 0.0871,-0.0622 0.1732,-0.12199 0.25629,-0.18784 0.0456,-0.0364 0.0861,-0.0795 0.13171,-0.11693 0.10941,-0.0942 0.21883,-0.19043 0.32409,-0.29168 0.006,-0.008 0.0141,-0.0117 0.0202,-0.0183 l 19.28582,-19.28582 v 20.95552 c 0,3.32903 2.69603,6.027 6.02596,6.027 3.328,0 6.02701,-2.6981 6.02701,-6.027 v -32.99344 l 24.92883,-24.95088 c 0.15699,-0.15543 0.36052,-0.23192 0.56418,-0.23036 0.0516,0.001 0.10435,0.005 0.15193,0.0141 0.0152,0.004 0.0324,0.0101 0.0476,0.0141 0.0354,0.009 0.0678,0.0183 0.10229,0.0324 0.0122,0.004 0.0233,0.0132 0.0364,0.0192 0.0345,0.0157 0.0688,0.0324 0.0993,0.0532 0.003,0.003 0.007,0.007 0.009,0.009 0.2056,0.14286 0.34029,0.37827 0.34029,0.64817 v 54.66586 c 0,2.20639 1.20821,4.23648 3.14768,5.29275 1.93843,1.05536 4.29714,0.9672 6.15157,-0.23037 l 13.10094,-8.4653 c 2.79622,-1.80556 3.59931,-5.53659 1.79155,-8.33451"
   inkscape:connector-curvature="0"
   style="fill:#ffffff;stroke:none" /></svg>