<?xml version="1.0" encoding="UTF-8" standalone="no"?>
<!-- Created with Inkscape (http://www.inkscape.org/) -->

<svg
   xmlns:dc="http://purl.org/dc/elements/1.1/"
   xmlns:cc="http://creativecommons.org/ns#"
   xmlns:rdf="http://www.w3.org/1999/02/22-rdf-syntax-ns#"
   xmlns:svg="http://www.w3.org/2000/svg"
   xmlns="http://www.w3.org/2000/svg"
   xmlns:sodipodi="http://sodipodi.sourceforge.net/DTD/sodipodi-0.dtd"
   xmlns:inkscape="http://www.inkscape.org/namespaces/inkscape"
   width="436.0625"
   height="435.5625"
   id="svg2"
   version="1.1"
   inkscape:version="0.48.4 r9939"
   sodipodi:docname="Ajax.svg">
  <defs
     id="defs4">
    <inkscape:perspective
       sodipodi:type="inkscape:persp3d"
       inkscape:vp_x="0 : 0.5 : 1"
       inkscape:vp_y="0 : 1000 : 0"
       inkscape:vp_z="1 : 0.5 : 1"
       inkscape:persp3d-origin="0.5 : 0.33333333 : 1"
       id="perspective4438" />
    <inkscape:perspective
       sodipodi:type="inkscape:persp3d"
       inkscape:vp_x="0 : 0.5 : 1"
       inkscape:vp_y="0 : 1000 : 0"
       inkscape:vp_z="1 : 0.5 : 1"
       inkscape:persp3d-origin="0.5 : 0.33333333 : 1"
       id="perspective4410" />
    <inkscape:perspective
       sodipodi:type="inkscape:persp3d"
       inkscape:vp_x="0 : 0.5 : 1"
       inkscape:vp_y="0 : 1000 : 0"
       inkscape:vp_z="1 : 0.5 : 1"
       inkscape:persp3d-origin="0.5 : 0.33333333 : 1"
       id="perspective4388" />
    <inkscape:perspective
       sodipodi:type="inkscape:persp3d"
       inkscape:vp_x="0 : 0.5 : 1"
       inkscape:vp_y="0 : 1000 : 0"
       inkscape:vp_z="1 : 0.5 : 1"
       inkscape:persp3d-origin="0.5 : 0.33333333 : 1"
       id="perspective4366" />
    <inkscape:perspective
       sodipodi:type="inkscape:persp3d"
       inkscape:vp_x="0 : 0.5 : 1"
       inkscape:vp_y="0 : 1000 : 0"
       inkscape:vp_z="1 : 0.5 : 1"
       inkscape:persp3d-origin="0.5 : 0.33333333 : 1"
       id="perspective3570" />
    <inkscape:perspective
       sodipodi:type="inkscape:persp3d"
       inkscape:vp_x="0 : 0.5 : 1"
       inkscape:vp_y="0 : 1000 : 0"
       inkscape:vp_z="1 : 0.5 : 1"
       inkscape:persp3d-origin="0.5 : 0.33333333 : 1"
       id="perspective3503" />
    <inkscape:perspective
       sodipodi:type="inkscape:persp3d"
       inkscape:vp_x="0 : 0.5 : 1"
       inkscape:vp_y="0 : 1000 : 0"
       inkscape:vp_z="1 : 0.5 : 1"
       inkscape:persp3d-origin="0.5 : 0.33333333 : 1"
       id="perspective3472" />
    <inkscape:perspective
       sodipodi:type="inkscape:persp3d"
       inkscape:vp_x="0 : 0.5 : 1"
       inkscape:vp_y="0 : 1000 : 0"
       inkscape:vp_z="1 : 0.5 : 1"
       inkscape:persp3d-origin="0.5 : 0.33333333 : 1"
       id="perspective3401" />
    <inkscape:perspective
       id="perspective3391"
       inkscape:persp3d-origin="372.04724 : 350.78739 : 1"
       inkscape:vp_z="744.09448 : 526.18109 : 1"
       inkscape:vp_y="0 : 1000 : 0"
       inkscape:vp_x="0 : 526.18109 : 1"
       sodipodi:type="inkscape:persp3d" />
    <inkscape:perspective
       sodipodi:type="inkscape:persp3d"
       inkscape:vp_x="0 : 0.5 : 1"
       inkscape:vp_y="0 : 1000 : 0"
       inkscape:vp_z="1 : 0.5 : 1"
       inkscape:persp3d-origin="0.5 : 0.33333333 : 1"
       id="perspective3839-63" />
    <inkscape:perspective
       sodipodi:type="inkscape:persp3d"
       inkscape:vp_x="0 : 0.5 : 1"
       inkscape:vp_y="0 : 1000 : 0"
       inkscape:vp_z="1 : 0.5 : 1"
       inkscape:persp3d-origin="0.5 : 0.33333333 : 1"
       id="perspective3839-6" />
    <inkscape:perspective
       sodipodi:type="inkscape:persp3d"
       inkscape:vp_x="0 : 0.5 : 1"
       inkscape:vp_y="0 : 1000 : 0"
       inkscape:vp_z="1 : 0.5 : 1"
       inkscape:persp3d-origin="0.5 : 0.33333333 : 1"
       id="perspective3839" />
    <inkscape:perspective
       sodipodi:type="inkscape:persp3d"
       inkscape:vp_x="0 : 0.5 : 1"
       inkscape:vp_y="0 : 1000 : 0"
       inkscape:vp_z="1 : 0.5 : 1"
       inkscape:persp3d-origin="0.5 : 0.33333333 : 1"
       id="perspective3817" />
    <inkscape:perspective
       sodipodi:type="inkscape:persp3d"
       inkscape:vp_x="0 : 0.5 : 1"
       inkscape:vp_y="0 : 1000 : 0"
       inkscape:vp_z="1 : 0.5 : 1"
       inkscape:persp3d-origin="0.5 : 0.33333333 : 1"
       id="perspective3789" />
    <inkscape:perspective
       sodipodi:type="inkscape:persp3d"
       inkscape:vp_x="0 : 0.5 : 1"
       inkscape:vp_y="0 : 1000 : 0"
       inkscape:vp_z="1 : 0.5 : 1"
       inkscape:persp3d-origin="0.5 : 0.33333333 : 1"
       id="perspective3767" />
    <inkscape:perspective
       sodipodi:type="inkscape:persp3d"
       inkscape:vp_x="0 : 0.5 : 1"
       inkscape:vp_y="0 : 1000 : 0"
       inkscape:vp_z="1 : 0.5 : 1"
       inkscape:persp3d-origin="0.5 : 0.33333333 : 1"
       id="perspective3745" />
    <inkscape:perspective
       sodipodi:type="inkscape:persp3d"
       inkscape:vp_x="0 : 0.5 : 1"
       inkscape:vp_y="0 : 1000 : 0"
       inkscape:vp_z="1 : 0.5 : 1"
       inkscape:persp3d-origin="0.5 : 0.33333333 : 1"
       id="perspective3723" />
    <inkscape:perspective
       sodipodi:type="inkscape:persp3d"
       inkscape:vp_x="0 : 0.5 : 1"
       inkscape:vp_y="0 : 1000 : 0"
       inkscape:vp_z="1 : 0.5 : 1"
       inkscape:persp3d-origin="0.5 : 0.33333333 : 1"
       id="perspective3697" />
    <inkscape:perspective
       sodipodi:type="inkscape:persp3d"
       inkscape:vp_x="0 : 0.5 : 1"
       inkscape:vp_y="0 : 1000 : 0"
       inkscape:vp_z="1 : 0.5 : 1"
       inkscape:persp3d-origin="0.5 : 0.33333333 : 1"
       id="perspective3645" />
    <inkscape:perspective
       sodipodi:type="inkscape:persp3d"
       inkscape:vp_x="0 : 0.5 : 1"
       inkscape:vp_y="0 : 1000 : 0"
       inkscape:vp_z="1 : 0.5 : 1"
       inkscape:persp3d-origin="0.5 : 0.33333333 : 1"
       id="perspective3612-7" />
    <inkscape:perspective
       sodipodi:type="inkscape:persp3d"
       inkscape:vp_x="0 : 0.5 : 1"
       inkscape:vp_y="0 : 1000 : 0"
       inkscape:vp_z="1 : 0.5 : 1"
       inkscape:persp3d-origin="0.5 : 0.33333333 : 1"
       id="perspective3612" />
    <inkscape:perspective
       sodipodi:type="inkscape:persp3d"
       inkscape:vp_x="0 : 0.5 : 1"
       inkscape:vp_y="0 : 1000 : 0"
       inkscape:vp_z="1 : 0.5 : 1"
       inkscape:persp3d-origin="0.5 : 0.33333333 : 1"
       id="perspective2824" />
    <inkscape:perspective
       id="perspective10"
       inkscape:persp3d-origin="372.04724 : 350.78739 : 1"
       inkscape:vp_z="744.09448 : 526.18109 : 1"
       inkscape:vp_y="0 : 1000 : 0"
       inkscape:vp_x="0 : 526.18109 : 1"
       sodipodi:type="inkscape:persp3d" />
    <inkscape:perspective
       sodipodi:type="inkscape:persp3d"
       inkscape:vp_x="0 : 0.5 : 1"
       inkscape:vp_y="0 : 1000 : 0"
       inkscape:vp_z="1 : 0.5 : 1"
       inkscape:persp3d-origin="0.5 : 0.33333333 : 1"
       id="perspective3839-63-1" />
    <inkscape:perspective
       sodipodi:type="inkscape:persp3d"
       inkscape:vp_x="0 : 0.5 : 1"
       inkscape:vp_y="0 : 1000 : 0"
       inkscape:vp_z="1 : 0.5 : 1"
       inkscape:persp3d-origin="0.5 : 0.33333333 : 1"
       id="perspective3839-6-2" />
    <inkscape:perspective
       sodipodi:type="inkscape:persp3d"
       inkscape:vp_x="0 : 0.5 : 1"
       inkscape:vp_y="0 : 1000 : 0"
       inkscape:vp_z="1 : 0.5 : 1"
       inkscape:persp3d-origin="0.5 : 0.33333333 : 1"
       id="perspective3839-2" />
    <inkscape:perspective
       sodipodi:type="inkscape:persp3d"
       inkscape:vp_x="0 : 0.5 : 1"
       inkscape:vp_y="0 : 1000 : 0"
       inkscape:vp_z="1 : 0.5 : 1"
       inkscape:persp3d-origin="0.5 : 0.33333333 : 1"
       id="perspective3817-3" />
    <inkscape:perspective
       sodipodi:type="inkscape:persp3d"
       inkscape:vp_x="0 : 0.5 : 1"
       inkscape:vp_y="0 : 1000 : 0"
       inkscape:vp_z="1 : 0.5 : 1"
       inkscape:persp3d-origin="0.5 : 0.33333333 : 1"
       id="perspective3789-2" />
    <inkscape:perspective
       sodipodi:type="inkscape:persp3d"
       inkscape:vp_x="0 : 0.5 : 1"
       inkscape:vp_y="0 : 1000 : 0"
       inkscape:vp_z="1 : 0.5 : 1"
       inkscape:persp3d-origin="0.5 : 0.33333333 : 1"
       id="perspective3767-4" />
    <inkscape:perspective
       sodipodi:type="inkscape:persp3d"
       inkscape:vp_x="0 : 0.5 : 1"
       inkscape:vp_y="0 : 1000 : 0"
       inkscape:vp_z="1 : 0.5 : 1"
       inkscape:persp3d-origin="0.5 : 0.33333333 : 1"
       id="perspective3745-1" />
    <inkscape:perspective
       sodipodi:type="inkscape:persp3d"
       inkscape:vp_x="0 : 0.5 : 1"
       inkscape:vp_y="0 : 1000 : 0"
       inkscape:vp_z="1 : 0.5 : 1"
       inkscape:persp3d-origin="0.5 : 0.33333333 : 1"
       id="perspective3723-6" />
    <inkscape:perspective
       sodipodi:type="inkscape:persp3d"
       inkscape:vp_x="0 : 0.5 : 1"
       inkscape:vp_y="0 : 1000 : 0"
       inkscape:vp_z="1 : 0.5 : 1"
       inkscape:persp3d-origin="0.5 : 0.33333333 : 1"
       id="perspective3697-7" />
    <inkscape:perspective
       sodipodi:type="inkscape:persp3d"
       inkscape:vp_x="0 : 0.5 : 1"
       inkscape:vp_y="0 : 1000 : 0"
       inkscape:vp_z="1 : 0.5 : 1"
       inkscape:persp3d-origin="0.5 : 0.33333333 : 1"
       id="perspective3645-2" />
    <inkscape:perspective
       sodipodi:type="inkscape:persp3d"
       inkscape:vp_x="0 : 0.5 : 1"
       inkscape:vp_y="0 : 1000 : 0"
       inkscape:vp_z="1 : 0.5 : 1"
       inkscape:persp3d-origin="0.5 : 0.33333333 : 1"
       id="perspective3612-7-5" />
    <inkscape:perspective
       sodipodi:type="inkscape:persp3d"
       inkscape:vp_x="0 : 0.5 : 1"
       inkscape:vp_y="0 : 1000 : 0"
       inkscape:vp_z="1 : 0.5 : 1"
       inkscape:persp3d-origin="0.5 : 0.33333333 : 1"
       id="perspective3612-1" />
    <inkscape:perspective
       sodipodi:type="inkscape:persp3d"
       inkscape:vp_x="0 : 0.5 : 1"
       inkscape:vp_y="0 : 1000 : 0"
       inkscape:vp_z="1 : 0.5 : 1"
       inkscape:persp3d-origin="0.5 : 0.33333333 : 1"
       id="perspective2824-1" />
    <inkscape:perspective
       id="perspective10-7"
       inkscape:persp3d-origin="372.04724 : 350.78739 : 1"
       inkscape:vp_z="744.09448 : 526.18109 : 1"
       inkscape:vp_y="0 : 1000 : 0"
       inkscape:vp_x="0 : 526.18109 : 1"
       sodipodi:type="inkscape:persp3d" />
    <inkscape:perspective
       sodipodi:type="inkscape:persp3d"
       inkscape:vp_x="0 : 526.18109 : 1"
       inkscape:vp_y="0 : 1000 : 0"
       inkscape:vp_z="744.09448 : 526.18109 : 1"
       inkscape:persp3d-origin="372.04724 : 350.78739 : 1"
       id="perspective3196" />
    <inkscape:perspective
       id="perspective10-8"
       inkscape:persp3d-origin="235 : 156.66667 : 1"
       inkscape:vp_z="470 : 235 : 1"
       inkscape:vp_y="0 : 1000 : 0"
       inkscape:vp_x="0 : 235 : 1"
       sodipodi:type="inkscape:persp3d" />
  </defs>
  <sodipodi:namedview
     id="base"
     pagecolor="#ffffff"
     bordercolor="#666666"
     borderopacity="1.0"
     inkscape:pageopacity="0.0"
     inkscape:pageshadow="2"
     inkscape:zoom="0.9899495"
     inkscape:cx="111.44136"
     inkscape:cy="137.64794"
     inkscape:document-units="px"
     inkscape:current-layer="layer1"
     showgrid="false"
     inkscape:object-paths="true"
     inkscape:snap-object-midpoints="true"
     inkscape:snap-intersection-paths="false"
     inkscape:snap-nodes="true"
     inkscape:object-nodes="true"
     inkscape:snap-global="true"
     inkscape:window-width="1280"
     inkscape:window-height="1001"
     inkscape:window-x="-8"
     inkscape:window-y="-8"
     inkscape:window-maximized="1"
     inkscape:snap-bbox="true"
     inkscape:bbox-nodes="false"
     inkscape:bbox-paths="true"
     fit-margin-top="0.5"
     fit-margin-left="0.5"
     fit-margin-right="0.5"
     fit-margin-bottom="0.5" />
  <metadata
     id="metadata7">
    <rdf:RDF>
      <cc:Work
         rdf:about="">
        <dc:format>image/svg+xml</dc:format>
        <dc:type
           rdf:resource="http://purl.org/dc/dcmitype/StillImage" />
        <dc:title />
      </cc:Work>
    </rdf:RDF>
  </metadata>
  <g
     inkscape:label="レイヤー 1"
     inkscape:groupmode="layer"
     id="layer1"
     style="display:inline"
     transform="translate(-157.75,-238.59375)">
    <rect
       style="color:#000000;fill:#ed1c23;fill-opacity:1;fill-rule:nonzero;stroke:#c0111e;stroke-width:30;stroke-linecap:round;stroke-linejoin:round;stroke-miterlimit:4;stroke-opacity:1;stroke-dasharray:none;stroke-dashoffset:0;marker:none;visibility:visible;display:inline;overflow:visible;enable-background:accumulate"
       id="rect2830"
       width="405.07117"
       height="404.5661"
       x="173.24117"
       y="254.08914" />
    <rect
       style="color:#000000;fill:#fcffff;fill-opacity:1;fill-rule:nonzero;stroke:#ffffff;stroke-width:23.71296883;stroke-linecap:round;stroke-linejoin:round;stroke-miterlimit:4;stroke-opacity:1;stroke-dasharray:none;stroke-dashoffset:0;marker:none;visibility:visible;display:inline;overflow:visible;enable-background:accumulate"
       id="rect2830-2"
       width="408.74213"
       height="408.23248"
       x="171.40569"
       y="252.25595"
       ry="2.2097087" />
    <rect
       style="color:#000000;fill:#c0111e;fill-opacity:1;fill-rule:nonzero;stroke:#c0111e;stroke-width:14.80000019;stroke-linecap:round;stroke-linejoin:round;stroke-miterlimit:4;stroke-opacity:1;stroke-dasharray:none;stroke-dashoffset:0;marker:none;visibility:visible;display:inline;overflow:visible;enable-background:accumulate"
       id="rect2830-5"
       width="393.95956"
       height="392.94958"
       x="178.29192"
       y="259.64499" />
    <rect
       style="fill:#ffffff;fill-opacity:1;stroke:none"
       id="rect15856"
       width="288.62808"
       height="288.62808"
       x="231.44606"
       y="311.04587" />
    <rect
       style="fill:#c0111e;fill-opacity:1;stroke:none"
       id="rect15858"
       width="444.45239"
       height="36.5424"
       x="365.65634"
       y="38.897026"
       transform="matrix(0.70710678,0.70710678,-0.70710678,0.70710678,0,0)" />
    <path
       style="fill:#ffffff;stroke:none"
       d="M 276.084,397.35264 382.65922,513.98823 441.48965,474.04962 335.67064,366.99601 z"
       id="path15874"
       inkscape:connector-curvature="0"
       sodipodi:nodetypes="ccccc" />
    <path
       style="fill:#ffffff;fill-opacity:1;fill-rule:nonzero;stroke:none"
       d="m 377.53125,328 c -8.58338,0.0635 -21.40102,-0.19873 -24.375,9.9375 -0.64069,6.29101 -9.47373,10.02518 -6.90625,17.0625 0.22669,5.367 6.67333,6.64177 8.71875,10.40625 0.013,2.7639 4.27462,4.85883 1.0625,7.09375 -5.36796,7.63906 -5.39569,20.24779 -15.1875,23.875 -9.55501,2.62136 -21.45505,9.79989 -19.65625,21.28125 1.82713,10.21446 14.84332,15.26839 23.75,10.78125 7.25218,0.52727 14.32107,-2.04361 20.3125,-5.84375 1.78726,4.0676 -1.04255,7.13182 -3.625,9.65625 -12.85739,18.01541 -15.77524,40.67449 -23.5625,61 -8.57933,2.17656 -14.57095,14.66936 -7,21.125 7.99602,7.16418 19.81077,5.02416 29.21875,8.4375 8.94428,0.20855 15.56845,-8.38938 15.87738,-16.80268 3.48803,-11.12727 5.61377,-23.48816 10.99762,-33.57232 2.78408,10.67463 8.39573,21.39194 8.8125,32.25 -6.21077,6.41367 -4.09557,20.0291 5.78125,21.125 9.93728,1.79644 18.72966,-4.89193 28.21875,-6.0625 7.76074,-3.37788 10.62391,-13.64875 6.52754,-20.87353 -5.22697,-20.48654 -12.44019,-40.43037 -16.34004,-61.18897 10.12946,0.58164 17.47845,-9.70877 16.5625,-19.25 0.76747,-14.83274 -3.73904,-30.5212 -14.09375,-41.34375 -8.14892,-8.04057 -17.40337,-15.41394 -27.9375,-19.90625 7.2536,-4.15382 7.41142,-16.37513 -0.5,-20.21875 -6.11177,-2.45591 -9.3219,-9.74885 -16.65625,-8.96875 z"
       id="path5063-4"
       inkscape:connector-curvature="0" />
    <g
       id="g15860"
       transform="translate(4,-28)"
       style="fill:#0066b3;fill-opacity:1">
      <g
         transform="matrix(0,15.741169,15.741169,0,351.72306,403.02142)"
         id="g5045"
         style="fill:#0066b3;fill-opacity:1">
        <path
           id="path5047"
           style="fill:#0066b3;fill-opacity:1;fill-rule:nonzero;stroke:none"
           d="M 0,0 C 0,0 -0.183,0.125 -0.331,0.224 -0.395,0.183 -0.476,0.144 -0.567,0.104 l 3.868,-7.413 0.73,0 -3.742,7.174 c -0.07,0.031 -0.117,0.052 -0.117,0.052 L 0,0"
           inkscape:connector-curvature="0" />
      </g>
      <g
         transform="matrix(0,15.741169,15.741169,0,396.20761,373.94748)"
         id="g5049"
         style="fill:#0066b3;fill-opacity:1">
        <path
           id="path5051"
           style="fill:#0066b3;fill-opacity:1;fill-rule:nonzero;stroke:none"
           d="m 0,0 c 0.183,0 0.398,-0.082 0.592,-0.339 0.048,0.007 0.055,0.008 0.104,0.017 0.01,0.02 0.019,0.042 0.027,0.065 l -2.428,4.654 0,-1.399 1.574,-3.013 c 0,0.002 0.004,0.004 0.007,0.004 C -0.083,-0.004 -0.044,0 0,0"
           inkscape:connector-curvature="0" />
      </g>
      <g
         transform="matrix(0,15.741169,15.741169,0,506.89951,442.59472)"
         id="g5053"
         style="fill:#0066b3;fill-opacity:1">
        <path
           id="path5055"
           style="fill:#0066b3;fill-opacity:1;fill-rule:nonzero;stroke:none"
           d="m 0,0 3.544,-5.219 c 0.224,0.062 0.446,0.123 0.659,0.182 L 0.784,0 0,0"
           inkscape:connector-curvature="0" />
      </g>
      <g
         transform="matrix(0,15.741169,15.741169,0,346.96923,551.1773)"
         id="g5057"
         style="fill:#0066b3;fill-opacity:1">
        <path
           id="path5059"
           style="fill:#0066b3;fill-opacity:1;fill-rule:nonzero;stroke:none"
           d="M 0,0 0.536,0.364 -1.266,3.018 C -1.415,2.971 -1.645,2.903 -1.914,2.822 L 0,0"
           inkscape:connector-curvature="0" />
      </g>
      <g
         transform="matrix(0,15.741169,15.741169,0,398.41137,422.46176)"
         id="g5061"
         style="fill:#0066b3;fill-opacity:1">
        <path
           id="path5063"
           style="fill:#0066b3;fill-opacity:1;fill-rule:nonzero;stroke:none"
           d="M 0,0 C -0.067,0 -0.056,0.03 -0.044,0.12 -0.029,0.209 0.195,0.432 0.404,0.541 0.615,0.65 1.97,0.924 2.02,0.995 2.171,1.121 2.138,1.227 2.051,1.366 2.03,1.43 1.539,1.558 1.344,1.583 1.152,1.608 -0.163,1.253 -0.349,1.139 -0.529,1.011 -1.571,-0.219 -1.615,-0.345 -1.66,-0.472 -1.834,-0.919 -1.887,-0.996 -1.94,-1.072 -2.506,-1.149 -2.621,-1.124 c -0.043,0.008 -0.088,0.007 -0.131,0.003 -0.093,0.227 -0.195,0.363 -0.281,0.348 -0.078,-0.013 -0.125,-0.149 -0.142,-0.355 -0.127,-0.092 -0.342,-0.241 -0.379,-0.309 -0.053,-0.092 0.01,-0.956 0.05,-1.046 0.037,-0.09 0.302,-0.074 0.302,-0.074 l 0.312,-0.137 c 0.08,-0.173 0.168,-0.276 0.242,-0.262 0.082,0.015 0.129,0.164 0.142,0.39 0.027,0.009 0.05,0.019 0.067,0.024 0.061,0.026 0.57,0.176 0.687,0.278 0.115,0.102 0.065,0.264 0.104,0.33 0.041,0.066 0.174,-0.016 0.174,-0.016 0,0 0.145,-0.21 0.251,-0.332 0.104,-0.12 0.283,-0.17 0.509,-0.29 0.227,-0.123 0.51,-0.243 0.633,-0.284 0.245,-0.082 0.267,-0.066 0.465,-0.264 0.197,-0.2 0.414,-0.818 0.53,-1.004 0.118,-0.184 0.117,-0.302 0.193,-0.359 0.077,-0.058 0.231,-0.048 0.335,-0.026 0.104,0.02 0.172,0.243 0.182,0.359 0.01,0.118 -0.109,0.185 -0.123,0.304 -0.012,0.117 -0.004,0.139 0.038,0.298 0.043,0.158 -0.281,0.869 -0.337,0.95 -0.121,0.171 -0.419,0.429 -0.445,0.479 -0.023,0.047 0.011,0.06 0.011,0.06 0.029,0.093 1.332,0.432 1.445,0.407 C 2.327,-1.675 2.76,-2.077 2.995,-2.238 3.229,-2.4 3.858,-2.623 4.13,-2.74 L 6.654,-3.526 C 6.765,-3.539 6.84,-3.673 6.866,-3.744 6.893,-3.815 6.915,-3.89 6.935,-3.942 6.957,-3.994 6.977,-4.107 7.06,-4.124 7.146,-4.14 7.227,-4.083 7.243,-3.999 l 0.263,1.394 C 7.521,-2.52 7.465,-2.439 7.38,-2.423 l -2.345,0.692 c -0.329,0.124 -1.286,0.745 -1.359,0.797 -0.082,0.06 -0.09,0.226 0,0.26 0.092,0.022 3.332,1.003 3.332,1.003 C 7.11,0.367 7.238,0.283 7.295,0.232 7.351,0.18 7.404,0.124 7.448,0.087 7.491,0.052 7.56,-0.041 7.641,-0.018 7.724,0.007 7.772,0.094 7.748,0.176 L 7.346,1.536 C 7.321,1.62 7.235,1.666 7.151,1.642 L 2.585,0.385 C 2.517,0.351 1.895,0.434 1.736,0.414 1.575,0.392 0.065,0.002 0,0"
           inkscape:connector-curvature="0" />
      </g>
    </g>
    <g
       id="g16200"
       transform="matrix(0.63448132,0,0,0.68283935,-144.47262,277.46822)"
       style="fill:none;stroke:#0066b3;stroke-opacity:1">
      <g
         style="fill:none;stroke:#0066b3;stroke-opacity:1"
         id="g16112">
        <path
           style="fill:none;stroke:#0066b3;stroke-width:8;stroke-linecap:round;stroke-linejoin:miter;stroke-miterlimit:4;stroke-opacity:1;stroke-dasharray:none"
           d="m 632.60803,382.63104 0,65.91246"
           id="path15993"
           inkscape:connector-curvature="0" />
        <path
           style="fill:none;stroke:#0066b3;stroke-width:8;stroke-linecap:round;stroke-linejoin:round;stroke-miterlimit:4;stroke-opacity:1;stroke-dasharray:none"
           d="m 623.39039,398.54095 16.03617,0"
           id="path16033"
           inkscape:connector-curvature="0" />
        <path
           style="fill:none;stroke:#0066b3;stroke-width:8;stroke-linecap:round;stroke-linejoin:miter;stroke-miterlimit:4;stroke-opacity:1;stroke-dasharray:none"
           d="m 620.4862,427.58283 7.44988,-15.53109"
           id="path16035"
           inkscape:connector-curvature="0" />
        <path
           style="fill:none;stroke:#0066b3;stroke-width:8;stroke-linecap:round;stroke-linejoin:miter;stroke-miterlimit:4;stroke-opacity:1;stroke-dasharray:none"
           d="m 641.44687,418.36519 -6.06092,-7.95495"
           id="path16037"
           inkscape:connector-curvature="0" />
        <path
           style="fill:none;stroke:#0066b3;stroke-width:8;stroke-linecap:round;stroke-linejoin:round;stroke-miterlimit:4;stroke-opacity:1;stroke-dasharray:none"
           d="m 650.15943,398.54095 32.07234,0"
           id="path16039"
           inkscape:connector-curvature="0" />
        <path
           style="fill:none;stroke:#0066b3;stroke-width:8;stroke-linecap:round;stroke-linejoin:round;stroke-miterlimit:4;stroke-opacity:1;stroke-dasharray:none"
           d="m 650.91704,386.67166 32.07234,0"
           id="path16039-5"
           inkscape:connector-curvature="0" />
        <path
           style="fill:none;stroke:#0066b3;stroke-width:8;stroke-linecap:round;stroke-linejoin:round;stroke-miterlimit:4;stroke-opacity:1;stroke-dasharray:none"
           d="m 650.15943,408.89501 32.07234,0 0,24.11739 -32.07234,0 z"
           id="path16039-8"
           inkscape:connector-curvature="0"
           sodipodi:nodetypes="ccccc" />
        <path
           style="fill:none;stroke:#0066b3;stroke-width:8;stroke-linecap:round;stroke-linejoin:round;stroke-miterlimit:4;stroke-opacity:1;stroke-dasharray:none"
           d="m 650.15943,420.63803 32.07234,0"
           id="path16039-1"
           inkscape:connector-curvature="0" />
        <path
           style="fill:none;stroke:#0066b3;stroke-width:8;stroke-linecap:round;stroke-linejoin:round;stroke-miterlimit:4;stroke-opacity:1;stroke-dasharray:none"
           d="m 666.1956,433.0124 0,-34.47145"
           id="path16084"
           inkscape:connector-curvature="0"
           sodipodi:nodetypes="cc" />
        <path
           style="fill:none;stroke:#0066b3;stroke-width:8;stroke-linecap:round;stroke-linejoin:round;stroke-miterlimit:4;stroke-opacity:1;stroke-dasharray:none"
           d="m 657.86185,382.12597 0,16.41498"
           id="path16086"
           inkscape:connector-curvature="0" />
        <path
           style="fill:none;stroke:#0066b3;stroke-width:8;stroke-linecap:round;stroke-linejoin:round;stroke-miterlimit:4;stroke-opacity:1;stroke-dasharray:none"
           d="m 675.41325,382.12597 0,16.41498"
           id="path16086-8"
           inkscape:connector-curvature="0" />
        <path
           style="fill:none;stroke:#0066b3;stroke-width:8;stroke-linecap:round;stroke-linejoin:round;stroke-miterlimit:4;stroke-opacity:1;stroke-dasharray:none"
           d="m 656.09408,441.97751 -3.53553,6.56599"
           id="path16106"
           inkscape:connector-curvature="0" />
        <path
           style="fill:none;stroke:#0066b3;stroke-width:8;stroke-linecap:round;stroke-linejoin:round;stroke-miterlimit:4;stroke-opacity:1;stroke-dasharray:none"
           d="m 680.71655,442.23004 3.78807,6.43973"
           id="path16108"
           inkscape:connector-curvature="0" />
      </g>
      <path
         sodipodi:nodetypes="cccc"
         inkscape:connector-curvature="0"
         id="path16127"
         d="m 706.60171,381.36835 0,60.10408 c 0,2.35729 2.6935,5.93465 5.93464,5.93465 l 22.22336,0"
         style="fill:none;stroke:#0066b3;stroke-width:8;stroke-linecap:round;stroke-linejoin:round;stroke-miterlimit:4;stroke-opacity:1;stroke-dasharray:none" />
      <path
         inkscape:connector-curvature="0"
         id="path16129"
         d="m 724.15311,383.38866 0,51.77032"
         style="fill:none;stroke:#0066b3;stroke-width:8;stroke-linecap:round;stroke-linejoin:miter;stroke-miterlimit:4;stroke-opacity:1;stroke-dasharray:none" />
      <path
         inkscape:connector-curvature="0"
         id="path16131"
         d="m 716.57696,410.1577 16.66752,0"
         style="fill:none;stroke:#0066b3;stroke-width:8;stroke-linecap:round;stroke-linejoin:miter;stroke-miterlimit:4;stroke-opacity:1;stroke-dasharray:none" />
      <path
         inkscape:connector-curvature="0"
         id="path16133"
         d="m 714.30412,389.3233 3.03046,10.2278"
         style="fill:none;stroke:#0066b3;stroke-width:6;stroke-linecap:round;stroke-linejoin:round;stroke-miterlimit:4;stroke-opacity:1;stroke-dasharray:none" />
      <path
         inkscape:connector-curvature="0"
         id="path16135"
         d="m 735.51732,388.56569 -3.03045,9.59645"
         style="fill:none;stroke:#0066b3;stroke-width:6;stroke-linecap:round;stroke-linejoin:round;stroke-miterlimit:4;stroke-opacity:1;stroke-dasharray:none" />
      <path
         inkscape:connector-curvature="0"
         id="path16137"
         d="m 717.20831,423.41595 -2.52538,7.44988"
         style="fill:none;stroke:#0066b3;stroke-width:6;stroke-linecap:round;stroke-linejoin:round;stroke-miterlimit:4;stroke-opacity:1;stroke-dasharray:none" />
      <path
         inkscape:connector-curvature="0"
         id="path16139"
         d="m 731.60298,422.4058 4.54569,8.9651"
         style="fill:none;stroke:#0066b3;stroke-width:6;stroke-linecap:round;stroke-linejoin:round;stroke-miterlimit:4;stroke-opacity:1;stroke-dasharray:none" />
      <path
         sodipodi:nodetypes="ccsc"
         inkscape:connector-curvature="0"
         id="path16141"
         d="m 761.40248,380.98955 -12.6269,6.69226 c 0,0 -4.54569,1.76776 -4.54569,7.82868 0,6.06091 0,45.45686 0,45.45686"
         style="fill:none;stroke:#0066b3;stroke-width:8;stroke-linecap:round;stroke-linejoin:miter;stroke-miterlimit:4;stroke-opacity:1;stroke-dasharray:none" />
      <path
         inkscape:connector-curvature="0"
         id="path16143"
         d="m 744.22989,402.20275 24.11739,0"
         style="fill:none;stroke:#0066b3;stroke-width:8;stroke-linecap:round;stroke-linejoin:miter;stroke-miterlimit:4;stroke-opacity:1;stroke-dasharray:none" />
      <path
         inkscape:connector-curvature="0"
         id="path16145"
         d="m 762.1601,402.20275 0,46.08821"
         style="fill:none;stroke:#0066b3;stroke-width:8;stroke-linecap:round;stroke-linejoin:miter;stroke-miterlimit:4;stroke-opacity:1;stroke-dasharray:none" />
      <path
         inkscape:connector-curvature="0"
         id="path16147"
         d="m 785.0148,387.42927 21.46574,0"
         style="fill:none;stroke:#0066b3;stroke-width:7;stroke-linecap:round;stroke-linejoin:miter;stroke-miterlimit:4;stroke-opacity:1;stroke-dasharray:none" />
      <path
         inkscape:connector-curvature="0"
         id="path16149"
         d="m 795.74767,381.49462 0,22.34963"
         style="fill:none;stroke:#0066b3;stroke-width:8;stroke-linecap:round;stroke-linejoin:miter;stroke-miterlimit:4;stroke-opacity:1;stroke-dasharray:none" />
      <path
         inkscape:connector-curvature="0"
         id="path16151"
         d="m 785.64614,396.77318 -1.26269,5.55584"
         style="fill:none;stroke:#0066b3;stroke-width:6;stroke-linecap:round;stroke-linejoin:round;stroke-miterlimit:4;stroke-opacity:1;stroke-dasharray:none" />
      <path
         inkscape:connector-curvature="0"
         id="path16153"
         d="m 805.21785,397.02572 2.27284,5.93464"
         style="fill:none;stroke:#0066b3;stroke-width:6;stroke-linecap:round;stroke-linejoin:round;stroke-miterlimit:4;stroke-opacity:1;stroke-dasharray:none" />
      <path
         inkscape:connector-curvature="0"
         id="path16147-0"
         d="m 841.26767,387.42927 -21.46574,0"
         style="fill:none;stroke:#0066b3;stroke-width:7;stroke-linecap:round;stroke-linejoin:miter;stroke-miterlimit:4;stroke-opacity:1;stroke-dasharray:none;display:inline" />
      <path
         inkscape:connector-curvature="0"
         id="path16149-7"
         d="m 830.5348,381.49462 0,22.34963"
         style="fill:none;stroke:#0066b3;stroke-width:8;stroke-linecap:round;stroke-linejoin:miter;stroke-miterlimit:4;stroke-opacity:1;stroke-dasharray:none;display:inline" />
      <path
         inkscape:connector-curvature="0"
         id="path16151-4"
         d="m 840.63633,396.77318 1.26269,5.55584"
         style="fill:none;stroke:#0066b3;stroke-width:6;stroke-linecap:round;stroke-linejoin:round;stroke-miterlimit:4;stroke-opacity:1;stroke-dasharray:none;display:inline" />
      <path
         inkscape:connector-curvature="0"
         id="path16153-9"
         d="m 821.06462,397.02572 -2.27284,5.93464"
         style="fill:none;stroke:#0066b3;stroke-width:6;stroke-linecap:round;stroke-linejoin:round;stroke-miterlimit:4;stroke-opacity:1;stroke-dasharray:none;display:inline" />
      <path
         inkscape:connector-curvature="0"
         id="path16182"
         d="m 794.23244,413.69323 40.15356,0"
         style="fill:none;stroke:#0066b3;stroke-width:8;stroke-linecap:round;stroke-linejoin:miter;stroke-miterlimit:4;stroke-opacity:1;stroke-dasharray:none" />
      <path
         inkscape:connector-curvature="0"
         id="path16184"
         d="m 788.92914,425.94133 50.6339,0"
         style="fill:none;stroke:#0066b3;stroke-width:8;stroke-linecap:round;stroke-linejoin:miter;stroke-miterlimit:4;stroke-opacity:1;stroke-dasharray:none" />
      <path
         inkscape:connector-curvature="0"
         id="path16186"
         d="m 815.95072,448.16469 0,-22.22336"
         style="fill:none;stroke:#0066b3;stroke-width:8;stroke-linecap:round;stroke-linejoin:miter;stroke-miterlimit:4;stroke-opacity:1;stroke-dasharray:none" />
      <path
         inkscape:connector-curvature="0"
         id="path16188"
         d="m 796.88409,436.42167 -4.92449,9.97525"
         style="fill:none;stroke:#0066b3;stroke-width:8;stroke-linecap:round;stroke-linejoin:miter;stroke-miterlimit:4;stroke-opacity:1;stroke-dasharray:none" />
      <path
         inkscape:connector-curvature="0"
         id="path16190"
         d="m 835.14362,436.42167 5.3033,9.34391"
         style="fill:none;stroke:#0066b3;stroke-width:8;stroke-linecap:round;stroke-linejoin:miter;stroke-miterlimit:4;stroke-opacity:1;stroke-dasharray:none" />
      <path
         inkscape:connector-curvature="0"
         id="path16192"
         d="m 893.6062,382.50477 0,66.79634"
         style="fill:none;stroke:#0066b3;stroke-width:8;stroke-linecap:round;stroke-linejoin:miter;stroke-miterlimit:4;stroke-opacity:1;stroke-dasharray:none" />
      <path
         sodipodi:nodetypes="cc"
         inkscape:connector-curvature="0"
         id="path16194"
         d="m 871.63538,415.08219 0,34.21892"
         style="fill:none;stroke:#0066b3;stroke-width:8;stroke-linecap:round;stroke-linejoin:miter;stroke-miterlimit:4;stroke-opacity:1;stroke-dasharray:none" />
      <path
         sodipodi:nodetypes="cc"
         inkscape:connector-curvature="0"
         id="path16196"
         d="m 855.85175,449.30111 72.73098,0"
         style="fill:none;stroke:#0066b3;stroke-width:8;stroke-linecap:round;stroke-linejoin:miter;stroke-miterlimit:4;stroke-opacity:1;stroke-dasharray:none" />
      <path
         inkscape:connector-curvature="0"
         id="path16198"
         d="m 893.6062,412.80935 20.96066,-8.08122"
         style="fill:none;stroke:#0066b3;stroke-width:7;stroke-linecap:round;stroke-linejoin:round;stroke-miterlimit:4;stroke-opacity:1;stroke-dasharray:none" />
    </g>
  </g>
</svg>
