<?xml version="1.0" encoding="UTF-8" standalone="no"?>
<!-- Created with Inkscape (http://www.inkscape.org/) -->

<svg
   xmlns:dc="http://purl.org/dc/elements/1.1/"
   xmlns:cc="http://creativecommons.org/ns#"
   xmlns:rdf="http://www.w3.org/1999/02/22-rdf-syntax-ns#"
   xmlns:svg="http://www.w3.org/2000/svg"
   xmlns="http://www.w3.org/2000/svg"
   xmlns:sodipodi="http://sodipodi.sourceforge.net/DTD/sodipodi-0.dtd"
   xmlns:inkscape="http://www.inkscape.org/namespaces/inkscape"
   version="1.1"
   width="1005.4"
   height="1005.4"
   id="svg2"
   xml:space="preserve"
   inkscape:version="0.48.4 r9939"
   sodipodi:docname="AJAX1.svg"><sodipodi:namedview
     pagecolor="#ffffff"
     bordercolor="#666666"
     borderopacity="1"
     objecttolerance="10"
     gridtolerance="10"
     guidetolerance="10"
     inkscape:pageopacity="0"
     inkscape:pageshadow="2"
     inkscape:window-width="1280"
     inkscape:window-height="1004"
     id="namedview28"
     showgrid="false"
     fit-margin-top="0.2"
     fit-margin-left="0.2"
     fit-margin-right="0.2"
     fit-margin-bottom="0.2"
     inkscape:zoom="0.51603029"
     inkscape:cx="514.97274"
     inkscape:cy="413.23738"
     inkscape:window-x="-8"
     inkscape:window-y="-8"
     inkscape:window-maximized="1"
     inkscape:current-layer="svg2" /><metadata
     id="metadata8"><rdf:RDF><cc:Work
         rdf:about=""><dc:format>image/svg+xml</dc:format><dc:type
           rdf:resource="http://purl.org/dc/dcmitype/StillImage" /></cc:Work></rdf:RDF></metadata><defs
     id="defs6" /><path
     inkscape:connector-curvature="0"
     style="fill:#ffffff;fill-opacity:1;stroke:#ed1c23;stroke-width:5;stroke-miterlimit:4;stroke-opacity:1;stroke-dasharray:none"
     d="m 1002.7001,502.7 c 0,-276.1424 -223.85772,-500 -500.0001,-500 -276.14238,0 -500,223.8576 -500,500 0,276.1423 223.85762,500 500,500 276.14238,0 500.0001,-223.8577 500.0001,-500 z"
     id="path3854" /><path
     id="path14622"
     d="m 37.325,502.7 c 0,-257.0196 208.35548,-465.375 465.375,-465.375 257.01958,0 465.37508,208.3554 465.37508,465.375 0,257.0196 -208.3555,465.375 -465.37508,465.375 C 245.68048,968.075 37.325,759.7196 37.325,502.7 z"
     style="fill:#ed1c23;fill-opacity:1;stroke:none"
     inkscape:connector-curvature="0"
     sodipodi:nodetypes="sssss" /><path
     id="path15520"
     d="m 835.55008,502.7 c 0,-183.828 -149.0221,-332.85 -332.85008,-332.85 -183.82798,0 -332.85,149.022 -332.85,332.85 0,183.8279 149.02202,332.8499 332.85,332.8499 183.82798,0 332.85008,-149.022 332.85008,-332.8499 z"
     style="fill:#ffffff;fill-opacity:1;stroke:none"
     inkscape:connector-curvature="0" /><path
     style="fill:#ed1c23;fill-opacity:1;stroke:none"
     d="m 863.29995,768.44597 48.26153,-82.75541 -769.46146,-448.7366 -48.261548,82.7554 z"
     id="path15355"
     inkscape:connector-curvature="0"
     sodipodi:nodetypes="ccccc" /><path
     sodipodi:nodetypes="ccccc"
     inkscape:connector-curvature="0"
     id="path15381"
     d="m 142.10013,768.44597 -48.26153,-82.75541 769.46146,-448.7366 48.26155,82.7554 z"
     style="fill:#ed1c23;fill-opacity:1;stroke:none" /><path
     inkscape:connector-curvature="0"
     d="m 337.02449,677.28586 c 0.63166,0.31583 1.81602,1.42123 3.43465,3.03986 1.61705,1.73706 3.27673,3.43465 4.93484,5.05328 l 7.34304,-10.06707 c -6.51399,-5.44807 -12.79111,-9.86968 -18.67343,-13.30433 l -6.39555,9.23802 c 3.98735,2.05289 7.02721,4.06631 9.35645,6.04024 m 66.48214,-3.5136 -8.36948,6.55346 -11.84362,-6.04024 -6.39555,7.61939 c 3.31622,2.01341 8.5274,5.44806 15.75201,10.18551 l -30.00382,0 0,65.13986 10.73821,0 0,-19.81831 14.84399,0 0,19.26561 10.81717,0 0,-19.26561 17.25219,0 0,9.0801 c 0,0.43427 -0.18949,0.71062 -0.51164,1.06593 0,0.35531 -0.31583,0.59218 -0.98539,0.59218 l -8.33001,0 c 2.28977,4.69797 3.59257,8.36949 3.9084,11.09352 7.85626,-1.69759 12.94901,-3.35569 15.23878,-5.09276 1.30437,-0.94749 2.01183,-2.68455 2.01183,-5.05327 l 0,-57.00725 -24.12149,0 3.43465,-3.07934 -3.90839,-3.03986 c 3.23725,-2.4082 6.6719,-4.73745 10.30394,-7.14565 3.59256,-2.32924 7.06669,-4.69797 10.34342,-7.10617 l -4.97432,-8.13261 -1.46229,0.43427 -57.08621,0 0,9.75124 43.34762,0 z m -4.46109,37.14946 0,-9.71293 17.25219,0 0,9.71293 -17.25219,0 z m 0,-9.71176 z m -25.66116,9.71176 0,-9.71293 14.80451,0 0,9.71293 -14.80451,0 z m 0,-9.71176 z m 25.66116,27.59561 0,-9.75162 17.25219,0 0,9.75162 -17.25219,0 z m 0,-9.75124 z m -62.02105,36.12302 -16.69949,11.25143 6.35607,11.64622 c 0.98539,-0.59218 7.54043,-6.04024 19.66039,-16.30471 5.25067,4.14527 9.55385,6.8693 12.87006,8.25105 4.85588,2.01342 9.63281,3.19778 14.17286,3.51361 7.30356,0.63166 17.29167,1.06592 30.12225,1.06592 l 30.00382,0.43427 c 0,-0.63166 1.1433,-4.34266 3.43465,-11.17247 l -42.8344,0 c -9.19854,0 -16.73897,-0.51323 -22.66078,-1.53967 -3.27673,-0.35531 -7.18512,-1.53967 -11.80413,-3.51361 -3.59256,-1.42123 -7.18513,-3.63204 -10.81717,-6.63242 l 0,-44.33459 -26.09542,0 0,11.21195 14.29129,0 0,36.12302 z m 36.35989,-36.12302 14.80451,0 0,9.75124 -14.80451,0 0,-9.75124"
     style="fill:#0066b3;fill-opacity:1;fill-rule:nonzero;stroke:none"
     id="path3347" /><path
     inkscape:connector-curvature="0"
     d="m 454.71052,694.06431 c -3.31622,-5.3691 -5.7639,-8.68531 -7.422,-9.6328 4.93484,-2.72403 10.50133,-6.43503 16.73897,-11.17248 3.27673,-2.44768 8.21157,-6.63242 14.80452,-12.75162 l 8.33,8.17209 c -5.52702,5.44806 -10.77768,10.02759 -15.752,13.69911 -2.56454,2.40821 -8.17209,6.3166 -16.69949,11.6857 m 98.93364,-28.97737 0,11.25026 -56.61247,0 0,-11.25026 56.61247,0 z m 0,11.25143 z m -75.79912,33.5569 0,66.67954 -11.80414,0 0,-52.98043 c -2.01183,2.0529 -3.94787,3.98735 -5.96128,5.88233 -1.93604,1.89498 -3.94787,3.82944 -5.88233,5.84285 -3.31621,-4.73744 -5.9218,-7.9747 -7.89574,-9.67228 8.25105,-7.422 13.77807,-12.87006 16.73897,-16.30471 5.5665,-6.79034 11.17248,-14.48868 16.73897,-23.41087 l 8.88271,8.13261 c -2.28976,3.47413 -3.67152,5.5665 -4.18474,6.39555 -0.51164,0.86853 -2.72245,3.98735 -6.63242,9.43541 m 53.65156,1.02645 -41.84743,0 0,-11.21195 71.41698,0 0,11.21195 -17.76542,0 0,53.37521 c 0,3.47413 -1.30437,6.15868 -3.94787,8.21157 -2.28976,2.09237 -8.05365,3.55309 -17.21271,4.57953 -0.35689,-1.34227 -0.47375,-2.68455 -0.47375,-4.10578 0,-1.26332 -0.18949,-2.21081 -0.5527,-2.52664 0,-0.31583 -1.1054,-2.32924 -3.43465,-6.15868 l 11.33039,0 c 1.06435,0 1.65811,-0.0379 1.97394,-0.43426 0.31583,-0.31583 0.51164,-1.02645 0.51164,-2.09238 l 0,-50.84857"
     style="fill:#0066b3;fill-opacity:1;fill-rule:nonzero;stroke:none"
     id="path3351" /><path
     inkscape:connector-curvature="0"
     d="m 603.86107,760.30958 22.66078,0 0,-98.8152 11.76465,0 0,39.71558 37.4653,0 0,11.21195 -37.4653,0 0,47.88767 48.79569,0 0,11.17248 -111.76422,0 0,-11.17248 16.73897,0 0,-69.24565 11.80413,0 0,69.24565"
     style="fill:#0066b3;fill-opacity:1;fill-rule:nonzero;stroke:none"
     id="path3355" /></svg>