<?xml version="1.0" encoding="UTF-8" standalone="no"?>
<!-- Created with Inkscape (http://www.inkscape.org/) -->

<svg
   xmlns:osb="http://www.openswatchbook.org/uri/2009/osb"
   xmlns:dc="http://purl.org/dc/elements/1.1/"
   xmlns:cc="http://creativecommons.org/ns#"
   xmlns:rdf="http://www.w3.org/1999/02/22-rdf-syntax-ns#"
   xmlns:svg="http://www.w3.org/2000/svg"
   xmlns="http://www.w3.org/2000/svg"
   xmlns:xlink="http://www.w3.org/1999/xlink"
   xmlns:sodipodi="http://sodipodi.sourceforge.net/DTD/sodipodi-0.dtd"
   xmlns:inkscape="http://www.inkscape.org/namespaces/inkscape"
   version="1.1"
   width="1005.4"
   height="1005.4"
   id="svg2"
   xml:space="preserve"
   inkscape:version="0.48.4 r9939"
   sodipodi:docname="AJAX1.svg"><sodipodi:namedview
     pagecolor="#ffffff"
     bordercolor="#666666"
     borderopacity="1"
     objecttolerance="10"
     gridtolerance="10"
     guidetolerance="10"
     inkscape:pageopacity="0"
     inkscape:pageshadow="2"
     inkscape:window-width="1280"
     inkscape:window-height="1004"
     id="namedview28"
     showgrid="false"
     fit-margin-top="0.2"
     fit-margin-left="0.2"
     fit-margin-right="0.2"
     fit-margin-bottom="0.2"
     inkscape:zoom="0.5"
     inkscape:cx="406.80497"
     inkscape:cy="397.4482"
     inkscape:window-x="-8"
     inkscape:window-y="-8"
     inkscape:window-maximized="1"
     inkscape:current-layer="svg2" /><metadata
     id="metadata8"><rdf:RDF><cc:Work
         rdf:about=""><dc:format>image/svg+xml</dc:format><dc:type
           rdf:resource="http://purl.org/dc/dcmitype/StillImage" /></cc:Work></rdf:RDF></metadata><defs
     id="defs6"><linearGradient
       id="linearGradient15703"
       osb:paint="solid"><stop
         style="stop-color:#ffffff;stop-opacity:1;"
         offset="0"
         id="stop15705" /></linearGradient><linearGradient
       inkscape:collect="always"
       xlink:href="#linearGradient15703"
       id="linearGradient15707"
       x1="-37.125"
       y1="465.375"
       x2="967.87512"
       y2="465.375"
       gradientUnits="userSpaceOnUse"
       gradientTransform="matrix(-1,0,0,1,968.07508,37.325)" /></defs><path
     inkscape:connector-curvature="0"
     style="fill:url(#linearGradient15707);fill-opacity:1;stroke:#0066b3;stroke-width:5;stroke-miterlimit:4;stroke-opacity:1;stroke-dasharray:none"
     d="m 2.69998,502.7 c 0,-276.1424 223.85772,-500 500.0001,-500 276.14238,0 500.00002,223.8576 500.00002,500 0,276.1423 -223.85764,500.0001 -500.00002,500.0001 C 226.5577,1002.7001 2.69998,778.8423 2.69998,502.7 z"
     id="path3854" /><path
     id="path14622"
     d="m 37.325,502.7 c 0,257.0196 208.35548,465.375 465.375,465.375 257.01958,0 465.37508,-208.3554 465.37508,-465.375 C 968.07508,245.6804 759.71958,37.325 502.7,37.325 245.68048,37.325 37.325,245.6804 37.325,502.7 z"
     style="fill:#0066b3;fill-opacity:1;stroke:none"
     inkscape:connector-curvature="0"
     sodipodi:nodetypes="sssss" /><path
     sodipodi:nodetypes="cccscccc"
     inkscape:connector-curvature="0"
     id="path27276"
     d="m 235.80629,570.1686 -65.75,-32.96875 0,59.46875 c -42.32476,-7.81745 -79.90625,-37.50941 -79.90625,-93.96875 0,-56.45934 37.58149,-86.1513 79.90625,-93.96875 l 0,59.46875 65.75,-32.96875 z"
     style="fill:#ffffff;fill-opacity:1;fill-rule:nonzero;stroke:none" /><path
     inkscape:connector-curvature="0"
     d="m 538.33552,321.44256 -153.11142,111.49733 0,-40.19274 -101.07406,63.92145 105.57502,-141.18783 0,56.49882 167.91718,-151.61109 0,84.68902 197.6077,-139.60856 0,126.22414 -212.45295,135.30501"
     style="fill:#ffffff;fill-opacity:1;fill-rule:nonzero;stroke:none"
     id="path27278" /><path
     id="path27280"
     style="fill:#ffffff;fill-opacity:1;fill-rule:nonzero;stroke:none"
     d="M 538.33552,683.95714 385.2241,572.45981 l 0,40.19274 -101.07406,-63.92145 105.57502,141.18783 0,-56.49882 167.91718,151.61109 0,-84.68902 197.6077,139.60856 0,-126.22414 -212.45295,-135.30501"
     inkscape:connector-curvature="0" /></svg>