<?xml version="1.0" encoding="UTF-8" standalone="no"?>
<!-- Created with Inkscape (http://www.inkscape.org/) -->

<svg
   xmlns:osb="http://www.openswatchbook.org/uri/2009/osb"
   xmlns:dc="http://purl.org/dc/elements/1.1/"
   xmlns:cc="http://creativecommons.org/ns#"
   xmlns:rdf="http://www.w3.org/1999/02/22-rdf-syntax-ns#"
   xmlns:svg="http://www.w3.org/2000/svg"
   xmlns="http://www.w3.org/2000/svg"
   xmlns:xlink="http://www.w3.org/1999/xlink"
   xmlns:sodipodi="http://sodipodi.sourceforge.net/DTD/sodipodi-0.dtd"
   xmlns:inkscape="http://www.inkscape.org/namespaces/inkscape"
   version="1.1"
   width="1800.4003"
   height="300.40027"
   id="svg2"
   xml:space="preserve"
   inkscape:version="0.48.4 r9939"
   sodipodi:docname="Ajax.svg"><sodipodi:namedview
     pagecolor="#ffffff"
     bordercolor="#666666"
     borderopacity="1"
     objecttolerance="10"
     gridtolerance="10"
     guidetolerance="10"
     inkscape:pageopacity="0"
     inkscape:pageshadow="2"
     inkscape:window-width="1280"
     inkscape:window-height="1001"
     id="namedview28"
     showgrid="false"
     fit-margin-top="0.2"
     fit-margin-left="0.2"
     fit-margin-right="0.2"
     fit-margin-bottom="0.2"
     inkscape:zoom="0.40989584"
     inkscape:cx="913.57296"
     inkscape:cy="8.2990351"
     inkscape:window-x="-8"
     inkscape:window-y="-8"
     inkscape:window-maximized="1"
     inkscape:current-layer="svg2" /><metadata
     id="metadata8"><rdf:RDF><cc:Work
         rdf:about=""><dc:format>image/svg+xml</dc:format><dc:type
           rdf:resource="http://purl.org/dc/dcmitype/StillImage" /><dc:title /></cc:Work></rdf:RDF></metadata><defs
     id="defs6"><linearGradient
       id="linearGradient15703"
       osb:paint="solid"><stop
         style="stop-color:#ffffff;stop-opacity:1;"
         offset="0"
         id="stop15705" /></linearGradient><linearGradient
       inkscape:collect="always"
       xlink:href="#linearGradient15703"
       id="linearGradient15707"
       x1="-37.125"
       y1="465.375"
       x2="967.87512"
       y2="465.375"
       gradientUnits="userSpaceOnUse"
       gradientTransform="translate(961.6578,56.04101)" /></defs><g
     id="g2991"
     transform="matrix(34.167339,0,0,34.167339,14.96955,-265.98947)" /><path
     style="font-size:medium;font-style:normal;font-variant:normal;font-weight:normal;font-stretch:normal;text-indent:0;text-align:start;text-decoration:none;line-height:normal;letter-spacing:normal;word-spacing:normal;text-transform:none;direction:ltr;block-progression:tb;writing-mode:lr-tb;text-anchor:start;baseline-shift:baseline;color:#000000;fill:#000000;fill-opacity:1;fill-rule:nonzero;stroke:none;stroke-width:30;marker:none;visibility:visible;display:inline;overflow:visible;enable-background:accumulate;font-family:Sans;-inkscape-font-specification:Sans"
     d="m 1743.544,300.20026 c 31.1185,0 56.6563,-25.5377 56.6563,-56.6563 l 0,-186.68776 C 1800.2003,25.7364 1774.6619,0.2 1743.544,0.2 L 56.8563,0.2 C 25.7386,0.2 0.2,25.7364 0.2,56.8562 l 0,186.68776 c 0,31.1186 25.5377,56.6563 56.6563,56.6563 z"
     id="path14428"
     inkscape:connector-curvature="0"
     sodipodi:nodetypes="sssssssss" /><path
     inkscape:connector-curvature="0"
     d="m 56.8668,285.20026 c -23.012,0 -41.6668,-18.6548 -41.6668,-41.6668 l 0,-186.66706 c 0,-23.014 18.6548,-41.6668 41.6668,-41.6668 l 1686.6669,0 c 23.0119,0 41.6666,18.6528 41.6666,41.6668 l 0,186.66706 c 0,23.012 -18.6547,41.6668 -41.6666,41.6668 z"
     style="fill:#ffffff;fill-opacity:1;fill-rule:nonzero;stroke:none"
     id="path14430"
     sodipodi:nodetypes="sssssssss" /><path
     inkscape:connector-curvature="0"
     d="m 383.43138,79.32348 c -7.16673,9.6691 -16.33467,18.91843 -27.50384,27.74799 -0.83435,0.50368 -0.6665,1.17251 0.50354,2.00652 10.83347,4.83206 20.83302,8.74846 29.99865,11.74922 2.8328,0.83427 4.91561,2.58393 6.24845,5.24901 1.33235,2.6653 1.6655,5.41441 0.99944,8.24734 -0.66654,2.83314 -2.29159,4.95792 -4.87516,6.37433 -2.58405,1.41662 -5.29247,1.7078 -8.12527,0.87357 -15.49799,-4.83183 -30.74653,-11.1642 -45.74566,-18.99713 -1.00217,-0.33047 -2.16947,-0.24655 -3.50188,0.25177 -14.50104,7.66508 -30.58372,13.99746 -48.24809,18.99712 -2.83316,0.83424 -5.58355,0.50109 -8.25116,-0.99944 -2.66784,-1.50034 -4.41879,-3.66708 -5.25281,-6.50022 -0.83426,-2.83293 -0.54307,-5.54135 0.87356,-8.12527 1.4164,-2.5837 3.54372,-4.20875 6.38197,-4.87517 12.16615,-3.33136 23.16513,-7.24776 32.99699,-11.74921 0.33045,-0.16772 0.53771,-0.45891 0.62179,-0.87357 0.0838,-0.4144 -0.0396,-0.7895 -0.37002,-1.12533 -9.3334,-6.33223 -16.83306,-12.16614 -22.499,-17.50176 -2.67041,-2.49719 -3.797,-5.57945 -3.3798,-9.24678 0.41693,-3.66702 2.12592,-6.58397 5.12692,-8.75089 l 0.99945,-0.74767 c 0.66617,-0.66613 0.49832,-0.99928 -0.50354,-0.99945 l -4.24955,0 c -2.99593,1.7e-4 -5.57719,-1.08319 -7.7438,-3.2501 -2.16686,-2.16657 -3.25023,-4.75038 -3.25011,-7.75144 -1.2e-4,-3.0007 1.08325,-5.5845 3.25011,-7.75143 2.16661,-2.16655 4.74787,-3.24992 7.7438,-3.25011 l 93.00193,0 c 3.00066,1.9e-4 5.58447,1.08356 7.75144,3.25011 2.1665,2.16693 3.24987,4.75073 3.25011,7.75143 -2.4e-4,7.66515 -2.08305,14.33066 -6.24846,19.99656 z m -82.50392,-7.75143 c 8.83464,9.00281 19.00203,17.08739 30.50219,24.25375 1.00182,0.83428 2.1691,0.75036 3.50188,-0.25177 10.32996,-7.16636 18.74515,-14.99917 25.24556,-23.49845 0.83394,-1.16457 0.66864,-1.74695 -0.49591,-1.74712 l -57.99842,0 c -0.33584,1.7e-4 -0.58633,0.16675 -0.75148,0.49973 -0.16545,0.33332 -0.16673,0.58127 -0.004,0.74386 z m 77.00316,137.99991 c -0.33592,3e-5 -0.62838,0.16661 -0.87738,0.49972 -0.24945,0.33319 -0.29014,0.58369 -0.12207,0.7515 7.49689,16.99824 12.91374,30.08259 16.25054,39.25306 1.16451,3.00088 0.99667,5.95857 -0.50353,8.87296 -1.50068,2.91439 -3.83272,4.78868 -6.99614,5.62288 -3.33679,0.83409 -6.50425,0.41829 -9.50237,-1.2474 -2.99855,-1.66579 -5.08264,-4.08308 -6.25225,-7.25177 -0.16807,-0.3306 -0.33464,-0.7884 -0.49973,-1.37329 -0.16552,-0.5849 -0.33209,-1.0427 -0.49973,-1.3733 -0.49865,-1.50039 -1.4981,-2.08529 -2.99833,-1.75469 -32.66911,4.33348 -61.83614,7.08507 -87.50116,8.25496 -3.16377,0.1627 -5.87092,-0.83929 -8.12146,-3.00598 -2.25078,-2.16679 -3.46003,-4.83318 -3.62776,-7.99937 -0.16796,-3.16619 0.78953,-5.83268 2.87246,-7.99937 2.08269,-2.16679 4.70846,-3.33148 7.87731,-3.49428 13.0003,-0.5035 26.00072,-1.2538 39.0013,-2.25069 1.33244,0 1.99873,-0.8341 1.99889,-2.50239 l 0,-20.75189 c -1.6e-4,-1.5004 -0.75037,-2.25063 -2.25066,-2.25066 l -15.99877,0 c -1.1649,3e-5 -1.74726,0.58495 -1.74712,1.75476 -1.4e-4,3.0009 -1.04283,5.54275 -3.12804,7.62554 -2.0855,2.08285 -4.62608,3.12425 -7.62174,3.12423 l -1.50298,0 c -3.33162,2e-5 -6.16465,-1.20923 -8.49911,-3.62776 -2.33471,-2.41848 -3.502,-5.29348 -3.50188,-8.625 l 0,-49.24753 c -1.2e-4,-3.83495 1.37444,-7.16897 4.12367,-10.0021 2.74899,-2.83294 6.04106,-4.24945 9.87621,-4.24955 l 10.25387,0 18.24943,0 c 1.16459,1e-4 1.74696,-0.58228 1.74712,-1.74713 -1.6e-4,-3.49923 1.20782,-6.45815 3.62395,-8.87676 2.4158,-2.4184 5.37472,-3.62765 8.87676,-3.62776 3.50171,1.1e-4 6.46062,1.20936 8.87677,3.62776 2.41577,2.41861 3.62376,5.37753 3.62395,8.87676 -1.9e-4,1.16485 0.58219,1.74723 1.74712,1.74713 l 28.5033,0 c 3.82972,1e-4 7.12051,1.41661 9.87239,4.24955 2.75143,2.83313 4.12726,6.16715 4.1275,10.0021 l 0,39.24543 c -2.4e-4,2.67032 -0.91703,4.96294 -2.75039,6.87788 -1.83382,1.91501 -4.16714,2.87248 -6.99994,2.87245 z m -16.75408,-43.74676 -15.49524,0 c -1.50063,8e-5 -2.25085,0.66637 -2.25066,1.99889 l 0,20.24833 c -1.9e-4,1.5005 0.75003,2.25071 2.25066,2.25066 l 15.49524,0 c 1.50023,5e-5 2.25045,-0.75016 2.25066,-2.25066 l 0,-20.24833 c -2.1e-4,-1.33252 -0.75043,-1.99881 -2.25066,-1.99889 z m -60.49322,24.49788 15.49523,0 c 1.50029,5e-5 2.2505,-0.75016 2.25066,-2.25066 l 0,-20.24833 c -1.6e-4,-1.33252 -0.75037,-1.99881 -2.25066,-1.99889 l -15.49523,0 c -1.50059,8e-5 -2.2508,0.66637 -2.25066,1.99889 l 0,20.24833 c -1.4e-4,1.5005 0.75007,2.25071 2.25066,2.25066 z m 58.74609,38.25362 c -2.1e-4,-0.16782 -0.0841,-0.33567 -0.25177,-0.50353 -0.16804,-0.16783 -0.25197,-0.33313 -0.25176,-0.49591 -1.33281,-3.50441 -1.20692,-6.92235 0.37764,-10.25387 1.58417,-3.33145 4.20994,-5.49819 7.87732,-6.50021 l 2.25066,-0.74768 c -0.16806,-0.16781 -0.25198,-0.33566 -0.25177,-0.50354 l -23.49843,0 c -1.50063,3e-5 -2.25085,0.75026 -2.25066,2.25066 l 0,18.5012 c -1.9e-4,1.33259 0.75003,1.99889 2.25066,1.99889 1.3324,-0.1678 3.41522,-0.4183 6.24844,-0.7515 2.83284,-0.3331 4.91565,-0.5811 6.24846,-0.74379 1.33238,-0.3357 1.74946,-1.086 1.25121,-2.25072 z m -187.75099,-62.49974 0,-104.75115 c -2e-5,-3.83484 1.37581,-7.16886 4.12749,-10.00209 2.75163,-2.83285 6.04242,-4.24936 9.87239,-4.24955 l 71.9983,0 c 2.83293,1.9e-4 5.33281,1.08355 7.49966,3.2501 2.16663,2.16694 3.25,4.66682 3.25011,7.49966 -1.1e-4,2.83322 -1.08348,5.29115 -3.25011,7.37378 -2.16685,2.08299 -4.66673,3.1244 -7.49966,3.12423 l -12.74866,0 c -1.50054,1.7e-4 -2.25075,0.66902 -2.25067,2.00652 l 0,12.74867 c -8e-5,1.50059 0.75013,2.25082 2.25067,2.25066 l 10.00209,0 c 2.66509,1.6e-4 4.95644,0.91696 6.87406,2.75039 1.9174,1.83374 2.87616,4.08313 2.87627,6.74817 -1.1e-4,2.66533 -0.95887,4.95668 -2.87627,6.87405 -1.91762,1.91765 -4.20897,2.87641 -6.87406,2.87627 l -10.00209,0 c -1.50054,1.4e-4 -2.25075,0.75036 -2.25067,2.25066 l 0,12.4969 c -8e-5,1.33272 0.75013,1.99901 2.25067,1.99889 l 10.00209,0 c 2.66509,1.2e-4 4.95644,0.95888 6.87406,2.87627 1.9174,1.91763 2.87616,4.20898 2.87627,6.87406 -1.1e-4,2.6653 -0.95887,4.95665 -2.87627,6.87405 -1.91762,1.91762 -4.20897,2.87638 -6.87406,2.87628 l -10.00209,0 c -1.50054,1e-4 -2.25075,0.6664 -2.25067,1.99889 l 0,13.99988 c -8e-5,1.33268 0.75013,1.99897 2.25067,1.99889 l 6.75198,0 c 3.83492,8e-5 7.16895,1.41788 10.0021,4.25337 2.83292,2.83565 4.24944,6.16841 4.24955,9.99829 l 0,5.75253 c -1.1e-4,24.99892 -0.75034,43.49883 -2.25066,55.49977 -1.50055,12.00105 -3.70925,19.91772 -6.6261,23.7502 -2.91706,3.83249 -7.4578,5.74878 -13.62224,5.74878 -3.66726,0 -8.50173,-0.2493 -14.50341,-0.7477 -3.16371,-0.1679 -5.87086,-1.41909 -8.12146,-3.75368 -2.25072,-2.33459 -3.45998,-5.16758 -3.62776,-8.49907 -0.16791,-3.00089 0.83154,-5.50077 2.99834,-7.49967 2.16667,-1.99889 4.75048,-2.83298 7.75143,-2.50239 5.3354,0.3357 8.41765,0.5035 9.24679,0.5035 1.6682,0 2.8355,-0.2505 3.50188,-0.7515 0.66621,-0.50099 1.29182,-1.95949 1.87682,-4.37548 0.58484,-2.41589 0.95867,-6.29157 1.12151,-11.6271 -8e-5,-0.66628 -0.4146,-0.99942 -1.24358,-0.99944 -2.16682,0.3357 -4.12629,-0.0801 -5.87843,-1.24741 -1.75228,-1.16726 -2.79368,-2.83428 -3.12421,-5.00105 -0.66638,-4.33344 -2.25074,-12.08233 -4.7531,-23.24666 -0.33068,-1.83608 0.0457,-3.54506 1.12915,-5.12693 1.08329,-1.58177 2.54177,-2.53925 4.37543,-2.87246 1.83352,-0.33309 3.58318,0.0827 5.24901,1.24741 1.66565,1.16479 2.66637,2.66523 3.00215,4.50132 0.16268,0.66634 0.36994,1.58314 0.6218,2.75038 0.25168,1.16734 0.45894,2.08414 0.62178,2.75038 l 0.25177,-0.25176 0,-14.99933 c -8e-5,-1.16978 -0.66637,-1.7547 -1.99889,-1.75476 l -56.25129,0 c -3.82997,6e-5 -7.12076,-1.41645 -9.87239,-4.24955 -2.75168,-2.83297 -4.12751,-6.16445 -4.12749,-9.99447 z m 26.00086,-95.7485 0,12.74867 c -4e-5,1.50059 0.75018,2.25082 2.25068,2.25066 l 15.747,0 c 1.33761,1.6e-4 2.00645,-0.75007 2.00652,-2.25066 l 0,-12.74867 c -7e-5,-1.3375 -0.66891,-2.00635 -2.00652,-2.00652 l -15.747,0 c -1.5005,1.7e-4 -2.25072,0.66902 -2.25068,2.00652 z m 0,36.49887 0,12.4969 c -4e-5,1.33272 0.75018,1.99901 2.25068,1.99889 l 15.747,0 c 1.33761,1.2e-4 2.00645,-0.66617 2.00652,-1.99889 l 0,-12.4969 c -7e-5,-1.5003 -0.66891,-2.25052 -2.00652,-2.25066 l -15.747,0 c -1.5005,1.4e-4 -2.25072,0.75036 -2.25068,2.25066 z m 0,35.99534 0,13.99988 c -4e-5,1.33268 0.75018,1.99897 2.25068,1.99889 l 15.747,0 c 1.33761,8e-5 2.00645,-0.66621 2.00652,-1.99889 l 0,-13.99988 c -7e-5,-1.33249 -0.66891,-1.99879 -2.00652,-1.99889 l -15.747,0 c -1.5005,1e-4 -2.25072,0.6664 -2.25068,1.99889 z m -10.49799,54.2524 c -1.66832,18.16808 -4.0029,34.75174 -7.00376,49.75108 -0.49848,2.33459 -1.78911,4.16818 -3.8719,5.50078 -2.08284,1.33259 -4.29154,1.66569 -6.6261,0.99939 -2.3346,-0.6663 -4.16819,-2.04209 -5.50078,-4.12748 -1.3326,-2.08529 -1.74967,-4.37668 -1.25121,-6.87397 3.49932,-16.99825 5.91783,-32.83171 7.25553,-47.50047 0.33059,-2.33453 1.41268,-4.21008 3.24629,-5.62665 1.83357,-1.41647 3.83373,-2.0408 6.00049,-1.873 2.33456,0.1679 4.29276,1.25126 5.87462,3.2501 1.58178,1.99894 2.20739,4.16569 1.87682,6.50022 z m 14.74756,51.49817 c -2.16679,0.1679 -4.04107,-0.4145 -5.62285,-1.74709 -1.58185,-1.3326 -2.45669,-3.08229 -2.6245,-5.24898 -0.49849,-12.33415 -1.41655,-27.16817 -2.7542,-44.5021 -0.1628,-2.1667 0.38016,-4.08294 1.62888,-5.74873 1.24862,-1.66569 2.95633,-2.58248 5.1231,-2.75038 1.99886,-0.33564 3.87314,0.12212 5.62285,1.37328 1.74961,1.25127 2.70837,2.96024 2.87627,5.12693 1.33254,13.66677 2.41591,28.66608 3.25011,44.99801 0.16779,2.16669 -0.49851,4.04228 -1.9989,5.62667 -1.50049,1.5843 -3.33407,2.54179 -5.50076,2.87239 z m 9.37648,-57.99839 c 1.25116,-1.66823 2.87622,-2.66895 4.87517,-3.00216 1.99882,-0.33308 3.83241,0.084 5.50077,1.25122 1.66822,1.16734 2.66766,2.75044 2.99833,4.74928 1.83098,10.50313 3.41534,21.83781 4.75309,34.00407 0.16269,2.16676 -0.38027,4.04105 -1.62886,5.62285 -1.24874,1.58179 -2.95645,2.54058 -5.12312,2.87628 -1.99896,0.3306 -3.79058,-0.1284 -5.37489,-1.37709 -1.58442,-1.2487 -2.54191,-2.87249 -2.87244,-4.87138 -1.1699,-10.00461 -2.67034,-21.25537 -4.50134,-33.7523 -0.33574,-1.99884 0.12202,-3.83243 1.37329,-5.50077 z"
     id="path2817"
     style="font-size:250px;font-style:normal;font-variant:normal;font-weight:normal;font-stretch:normal;text-align:center;text-anchor:middle;fill:#000000;fill-opacity:1;stroke:none;font-family:'Rounded M+ 1m medium';-inkscape-font-specification:'Rounded M+ 1m medium,'" /><path
     inkscape:connector-curvature="0"
     d="m 599.67805,264.57208 -4.99723,0 c -2.33477,-1e-4 -4.37691,-0.8749 -6.12639,-2.62449 -1.74984,-1.7497 -2.62468,-3.79189 -2.6245,-6.12648 -1.8e-4,-0.829 -0.41725,-1.24359 -1.25121,-1.24349 l -110.00016,0 c -0.8342,-1e-4 -1.25128,0.41449 -1.25121,1.24349 -7e-5,2.33459 -0.8749,4.37678 -2.6245,6.12648 -1.74973,1.74959 -3.79185,2.62439 -6.12637,2.62449 l -4.99724,0 c -3.66723,-1e-4 -6.87537,-1.3746 -9.62444,-4.12369 -2.74916,-2.74919 -4.12372,-5.95727 -4.12368,-9.62446 l 0,-87.75293 c -4e-5,-3.82986 1.41649,-7.16134 4.24957,-9.99447 2.83298,-2.83294 6.16447,-4.24946 9.99446,-4.24955 l 139.00699,0 c 3.82974,9e-5 7.16123,1.41661 9.99447,4.24955 2.83282,2.83313 4.24934,6.16461 4.24955,9.99447 l 0,87.75293 c -2.1e-4,3.66719 -1.37477,6.87527 -4.12367,9.62446 -2.74931,2.74909 -5.95746,4.12359 -9.62444,4.12369 z m -126.2507,-91.75075 0,16.50231 c -7e-5,1.50049 0.75016,2.25071 2.25066,2.25066 l 108.00126,0 c 1.50027,5e-5 2.25048,-0.75017 2.25066,-2.25066 l 0,-16.50231 c -1.8e-4,-1.33253 -0.75039,-1.99883 -2.25066,-1.99891 l -108.00126,0 c -1.5005,8e-5 -2.25073,0.66638 -2.25066,1.99891 z m 2.25066,60.50087 108.00126,0 c 1.50027,0 2.25048,-0.66629 2.25066,-1.99889 l 0,-17.25003 c -1.8e-4,-1.33256 -0.75039,-1.99886 -2.25066,-1.99889 l -108.00126,0 c -1.5005,3e-5 -2.25073,0.66633 -2.25066,1.99889 l 0,17.25003 c -7e-5,1.3326 0.75016,1.99889 2.25066,1.99889 z m 164.4967,-116.86661 c 2.1665,2.0804 3.24986,4.53705 3.2501,7.36996 -2.4e-4,2.83316 -1.0836,5.33305 -3.2501,7.49967 -2.16697,2.16685 -4.66686,3.25021 -7.49967,3.2501 l -205.9928,0 c -2.83305,1.1e-4 -5.33293,-1.08325 -7.49965,-3.2501 -2.16676,-2.16662 -3.25013,-4.66651 -3.25012,-7.49967 -1e-5,-2.83291 1.08336,-5.29084 3.25012,-7.37378 2.16672,-2.08268 4.6666,-3.12409 7.49965,-3.12422 l 48.744,0 c 1.33253,1.3e-4 1.66567,-0.66871 0.99945,-2.00652 -4.33354,-8.99742 -9.66646,-18.91304 -15.99878,-29.74689 -0.83419,-1.33243 -1.91756,-1.99873 -3.2501,-1.99889 l -22.75076,0 c -2.99583,1.6e-4 -5.57709,-1.0832 -7.74381,-3.25011 -2.16676,-2.16656 -3.25012,-4.75037 -3.2501,-7.75143 -2e-5,-3.00071 1.08334,-5.54256 3.2501,-7.62555 2.16672,-2.08263 4.74798,-3.12404 7.74381,-3.12423 l 79.25382,0 c 1.50033,1.9e-4 2.25055,-0.75003 2.25066,-2.25066 l 0,-7.24789 c -1.1e-4,-3.66698 1.37445,-6.87513 4.12368,-9.62445 2.74899,-2.7489 5.95713,-4.12345 9.62444,-4.12366 3.66704,2.1e-4 6.87519,1.37476 9.62444,4.12366 2.74898,2.74932 4.12353,5.95747 4.12367,9.62445 l 0,7.24789 c -1.4e-4,1.50063 0.75008,2.25085 2.25066,2.25066 l 79.25382,0 c 2.99557,1.9e-4 5.57684,1.0416 7.7438,3.12423 2.16651,2.08299 3.24988,4.62484 3.25012,7.62555 -2.4e-4,3.00106 -1.08361,5.58487 -3.25012,7.75143 -2.16696,2.16691 -4.74823,3.25027 -7.7438,3.25011 l -23.75021,0 c -1.50063,1.6e-4 -2.50262,0.66646 -3.00597,1.99889 -4.49642,11.0017 -9.32835,20.91731 -14.49579,29.74689 -0.33587,0.33582 -0.37783,0.75417 -0.12588,1.25503 0.25159,0.50112 0.6267,0.75162 1.12533,0.75149 l 47.99632,0 c 2.83281,1.3e-4 5.3327,1.04281 7.49967,3.12804 z M 490.18143,81.57414 c 4.83184,9.16557 9.83161,19.08119 14.99933,29.74689 0.49835,1.33781 1.58172,2.00665 3.2501,2.00652 l 41.99965,0 c 1.66305,1.3e-4 2.8278,-0.58478 3.49425,-1.75475 5.671,-8.66682 11.08785,-18.66636 16.25054,-29.99866 0.66614,-1.33243 0.25161,-1.99873 -1.24359,-1.99889 l -77.75083,0 c -1.33268,1.6e-4 -1.66583,0.66646 -0.99945,1.99889 z"
     id="path2819"
     style="font-size:250px;font-style:normal;font-variant:normal;font-weight:normal;font-stretch:normal;text-align:center;text-anchor:middle;fill:#000000;fill-opacity:1;stroke:none;font-family:'Rounded M+ 1m medium';-inkscape-font-specification:'Rounded M+ 1m medium,'" /><path
     inkscape:connector-curvature="0"
     d="m 699.67611,69.82492 0,182.25021 c -5e-5,3.49938 -1.20803,6.45697 -3.62395,8.87296 -2.416,2.41599 -5.37365,3.62389 -8.87295,3.62399 -3.49936,-1e-4 -6.45828,-1.208 -8.87676,-3.62399 -2.41853,-2.41599 -3.62779,-5.37358 -3.62777,-8.87296 l 0,-190.74932 c -2e-5,-3.83484 1.41777,-7.16886 4.25338,-10.00209 2.83555,-2.83285 6.1683,-4.24936 9.99828,-4.24955 l 55.99952,0 c 2.83294,1.9e-4 5.25017,1.0009 7.2517,3.00215 2.00135,2.00163 3.00206,4.41886 3.00216,7.25171 l 0,7.49966 c -10e-5,1.99907 -0.25186,3.83266 -0.7553,5.50077 -1e-4,0.33078 0.0838,0.49608 0.25177,0.49591 l 42.99909,0 c 1.33245,1.7e-4 1.99875,-0.66613 1.99889,-1.99889 l 0,-18.24944 c -1.4e-4,-3.83483 1.33372,-7.04425 4.0016,-9.62826 2.66758,-2.58361 5.83504,-3.8755 9.50237,-3.87571 3.66702,2.1e-4 6.8332,1.2921 9.49855,3.87571 2.66503,2.58401 3.99763,5.79343 3.9978,9.62826 l 0,18.24944 c -1.7e-4,1.33276 0.66866,1.99906 2.00652,1.99889 l 56.99896,0 c 3.33126,1.7e-4 6.08038,1.08355 8.24735,3.25011 2.1665,2.16691 3.24986,4.91729 3.2501,8.25115 -2.4e-4,3.3342 -1.0836,6.08458 -3.2501,8.25116 -2.16697,2.16689 -4.91609,3.25025 -8.24735,3.25011 l -77.49906,0 c -1.50059,1.4e-4 -2.25082,0.75037 -2.25067,2.25066 -1.5e-4,10.49814 -0.25192,20.41376 -0.7553,29.74689 -1.5e-4,1.16487 0.66614,1.74723 1.9989,1.74712 l 62.00382,0 c 3.83481,1.1e-4 7.16884,1.4586 10.0021,4.37544 2.83281,2.91707 4.24932,6.29306 4.24955,10.12798 -0.16807,25.49741 -1.04417,45.95552 -2.62831,61.37441 -1.58459,15.41896 -4.1684,27.21142 -7.75144,35.37738 -3.58346,8.16597 -7.66644,13.54085 -12.24893,16.12464 -4.58292,2.58378 -10.79066,3.87568 -18.62328,3.87568 -7.83299,0 -18.2496,-0.501 -31.24987,-1.50299 -3.49948,-0.1678 -6.41644,-1.5017 -8.75088,-4.00159 -2.33473,-2.49989 -3.5834,-5.49948 -3.74602,-8.99876 -0.16798,-3.16879 0.87342,-5.87718 3.12423,-8.12537 2.25051,-2.24809 5.04158,-3.20678 8.37323,-2.87619 11.33197,0.8341 19.58185,1.2512 24.74964,1.2512 4.99959,0 8.95796,-1.87429 11.8751,-5.62286 2.91677,-3.74854 5.33401,-11.70723 7.25171,-23.87609 1.91732,-12.16878 3.04138,-29.58532 3.37219,-52.24969 -2.1e-4,-1.33251 -0.75043,-1.9988 -2.25066,-1.99889 l -49.49931,0 c -1.33275,9e-5 -2.16689,0.75031 -2.50243,2.25066 -2.83318,23.8342 -8.12414,43.5421 -15.87289,59.12375 -7.74902,15.58172 -18.87389,29.87279 -33.37465,42.87323 -3.00098,2.50239 -6.3757,3.66969 -10.12417,3.50189 -3.74865,-0.1679 -7.03944,-1.58439 -9.87239,-4.24958 -2.67036,-2.50249 -3.92157,-5.54528 -3.75364,-9.12856 0.16776,-3.58329 1.6682,-6.54218 4.50132,-8.87677 17.16597,-14.83144 28.83252,-31.91357 34.9997,-51.24641 6.16695,-19.33272 9.33441,-48.9982 9.50238,-88.99652 -1.3e-4,-1.50029 -0.66643,-2.25052 -1.9989,-2.25066 l -29.50275,0 c -1.33269,1.4e-4 -2.33214,0.75037 -2.99834,2.25066 -5.834,13.00057 -10.75239,23.08404 -14.75518,30.25043 -0.82914,1.3327 -0.74522,2.58138 0.25177,3.74601 12.83249,16.99832 19.24878,34.49752 19.24888,52.49765 -10e-5,22.17096 -9.91572,34.00409 -29.74689,35.49942 -3.16879,0.16788 -6.0031,-0.74765 -8.50293,-2.74657 -2.49994,-1.99886 -4.08303,-4.58267 -4.74928,-7.75143 -0.49849,-2.66516 0.12711,-5.03916 1.87683,-7.12201 1.74961,-2.08277 4.04096,-3.37594 6.87406,-3.87953 3.66711,-0.82901 6.20895,-2.61936 7.62555,-5.37107 1.41644,-2.75161 2.1247,-7.46146 2.12477,-14.12958 -7e-5,-12.16621 -4.41746,-24.24857 -13.25221,-36.2471 -5.66611,-7.66486 -6.33241,-15.49767 -1.99889,-23.49844 8.16845,-15.16703 15.08573,-31.08441 20.75187,-47.75219 0.33053,-1.16457 -0.17047,-1.74695 -1.50299,-1.74712 l -27.00031,0 c -1.33264,1.7e-4 -1.99894,0.66647 -1.99889,1.99889 z"
     id="path2821"
     style="font-size:250px;font-style:normal;font-variant:normal;font-weight:normal;font-stretch:normal;text-align:center;text-anchor:middle;fill:#000000;fill-opacity:1;stroke:none;font-family:'Rounded M+ 1m medium';-inkscape-font-specification:'Rounded M+ 1m medium,'" /><path
     inkscape:connector-curvature="0"
     d="m 1137.5481,236.32809 c 2.253,2.32959 3.3796,5.07738 3.3798,8.24357 -2e-4,3.16619 -1.1255,5.91657 -3.376,8.25116 -2.2509,2.33459 -5.0419,3.50189 -8.3732,3.50189 l -199.00428,0 c -3.33151,0 -6.12258,-1.1673 -8.37323,-3.50189 -2.25067,-2.33459 -3.376,-5.08497 -3.37598,-8.25116 -2e-5,-3.16619 1.12531,-5.91528 3.37598,-8.24737 2.25065,-2.33199 5.04172,-3.49798 8.37323,-3.49798 l 18.00529,0 c 1.33256,0 1.99885,-0.7503 1.9989,-2.25069 l 0,-136.00104 c -5e-5,-3.66703 1.29186,-6.79252 3.87571,-9.37649 2.58376,-2.58365 5.70798,-3.87555 9.37268,-3.87571 3.66457,1.6e-4 6.78879,1.29206 9.37267,3.87571 2.58374,2.58397 3.87564,5.70946 3.87571,9.37649 l 0,136.00104 c -7e-5,1.50039 0.66623,2.25069 1.99893,2.25069 l 43.50259,0 c 1.5004,0 2.2506,-0.7503 2.2507,-2.25069 l 0,-172.00401 c -10e-5,-3.82974 1.2918,-6.99466 3.8757,-9.49474 2.5836,-2.49969 5.7091,-3.74963 9.3765,-3.74983 3.8298,2e-4 7.0367,1.2921 9.6206,3.87572 2.5837,2.584 3.8756,5.70695 3.8758,9.36885 l 0,45.24975 c -2e-4,1.33783 0.75,2.00666 2.2505,2.00652 l 67.2529,0 c 3.3313,1.4e-4 6.0803,1.08351 8.2473,3.25011 2.1665,2.16687 3.2499,4.91599 3.2501,8.24735 -2e-4,3.33161 -1.0836,6.08072 -3.2501,8.24734 -2.167,2.16685 -4.916,3.25022 -8.2473,3.25011 l -67.2529,0 c -1.5005,1.1e-4 -2.2507,0.75034 -2.2505,2.25066 l 0,99.50217 c -2e-4,1.50039 0.75,2.25069 2.2505,2.25069 l 75.752,0 c 3.3313,0 6.1211,1.16729 8.3694,3.50178 z"
     id="path2823"
     style="font-size:250px;font-style:normal;font-variant:normal;font-weight:normal;font-stretch:normal;text-align:center;text-anchor:middle;fill:#000000;fill-opacity:1;stroke:none;font-family:'Rounded M+ 1m medium';-inkscape-font-specification:'Rounded M+ 1m medium,'" /><path
     inkscape:connector-curvature="0"
     d="m 1205.9225,255.57701 c -10e-5,2.83299 -0.9995,5.24898 -2.9984,7.24787 -1.9989,1.99889 -4.4149,2.99839 -7.2479,2.99839 l -3.2501,0 c -3.6673,0 -6.7928,-1.29189 -9.3765,-3.87568 -2.5838,-2.58389 -3.8757,-5.79078 -3.8757,-9.62066 l 0,-191.00112 c 0,-3.83484 1.3758,-7.16886 4.1275,-10.00209 2.7515,-2.83285 6.0424,-4.24936 9.8723,-4.24955 l 179.5037,0 c 3.1635,1.9e-4 5.8705,1.08355 8.1214,3.2501 2.2505,2.16694 3.3758,4.83339 3.376,7.99939 -2e-4,3.16637 -1.1255,5.83283 -3.376,7.99939 -2.2509,2.16691 -4.9579,3.25027 -8.1214,3.2501 l -164.5043,0 c -1.5005,1.7e-4 -2.2507,0.7504 -2.2506,2.25067 l 0,157.50056 c -10e-5,1.33264 0.7501,1.99893 2.2506,1.99893 l 166.9991,0 c 3.1685,0 5.8782,1.1253 8.1291,3.37599 2.2504,2.25059 3.3757,4.95908 3.376,8.12527 -3e-4,3.16618 -1.1256,5.79067 -3.376,7.87346 -2.2509,2.08279 -4.9606,3.12419 -8.1291,3.12419 l -167.7467,0 c -1.0021,0 -1.5031,0.585 -1.503,1.75479 z m 17.5017,-54.00062 c 22.1657,-14.17021 43.0829,-31.42018 62.7515,-51.74997 0.834,-0.83404 0.7501,-1.75211 -0.2518,-2.7542 -14.6637,-12.66463 -30.6624,-24.83091 -47.9963,-36.49887 -2.6704,-1.83091 -4.2128,-4.37149 -4.6272,-7.62173 -0.4146,-3.24997 0.4614,-6.04231 2.6283,-8.37704 2.3294,-2.66504 5.2451,-4.24813 8.7471,-4.74928 3.5018,-0.50085 6.6692,0.24811 9.5024,2.24684 18.1628,12.33428 34.2455,24.50056 48.2481,36.49888 1.1646,0.83426 2.164,0.75288 2.9983,-0.24414 11.9983,-14.3329 22.6641,-28.91769 31.9975,-43.7544 2.0038,-3.16347 4.7555,-5.20434 8.255,-6.12256 3.4992,-0.9179 6.8319,-0.46014 9.9982,1.37328 3.166,1.83375 5.1662,4.50021 6.0005,7.99939 0.834,3.49948 0.333,6.74959 -1.5029,9.75033 -9.9997,15.83359 -21.749,31.8349 -35.2476,48.00395 -1.0022,1.16484 -1.0022,2.24821 0,3.25011 14.1649,13.16327 29.2481,28.24651 45.2497,45.24975 2.3344,2.49739 3.4597,5.49573 3.376,8.99502 -0.084,3.49937 -1.4587,6.3324 -4.1237,8.49911 -2.6705,2.33461 -5.7553,3.37729 -9.2544,3.12803 -3.4996,-0.2492 -6.4165,-1.62502 -8.7509,-4.12748 -14.496,-15.49774 -28.829,-29.91213 -42.9991,-43.24323 -0.9971,-1.00191 -1.9965,-1.00191 -2.9983,0 -21.4997,22.1659 -42.9993,40.16354 -64.4987,53.993 -3.3316,2.16676 -6.8729,2.91698 -10.6238,2.25067 -3.7512,-0.66628 -6.8754,-2.41594 -9.3727,-5.24901 -2.1668,-2.49731 -3.001,-5.45496 -2.5025,-8.87295 0.4984,-3.41791 2.1642,-6.04241 4.9973,-7.8735 z"
     id="path2825"
     style="font-size:250px;font-style:normal;font-variant:normal;font-weight:normal;font-stretch:normal;text-align:center;text-anchor:middle;fill:#000000;fill-opacity:1;stroke:none;font-family:'Rounded M+ 1m medium';-inkscape-font-specification:'Rounded M+ 1m medium,'" /><path
     inkscape:connector-curvature="0"
     d="m 1447.6741,141.82322 0,109.00071 c -10e-5,3.66719 -1.25,6.75067 -3.7499,9.25056 -2.4999,2.49989 -5.5834,3.74989 -9.2506,3.74989 -3.6672,0 -6.7508,-1.25 -9.2505,-3.74989 -2.5,-2.49989 -3.7499,-5.58337 -3.7499,-9.25056 l 0,-190.74934 c 0,-3.83483 1.3758,-7.16886 4.1275,-10.00208 2.7516,-2.83285 6.0424,-4.24937 9.8723,-4.24957 l 71.7542,0 c 3.8299,2e-4 7.1614,1.41672 9.9945,4.24957 2.8329,2.83322 4.2495,6.16725 4.2496,10.00208 l 0,65.25395 c -10e-5,3.83006 -1.4167,7.16153 -4.2496,9.99446 -2.8331,2.83315 -6.1646,4.24966 -9.9945,4.24955 l -57.5024,0 c -1.5005,1.1e-4 -2.2508,0.75033 -2.2507,2.25067 z m 0,-72.50183 0,13.75574 c -10e-5,1.50059 0.7502,2.25082 2.2507,2.25066 l 43.9985,0 c 1.3325,1.6e-4 1.9988,-0.75007 1.9989,-2.25066 l 0,-13.75574 c -10e-5,-1.49519 -0.6664,-2.24286 -1.9989,-2.24303 l -43.9985,0 c -1.5005,1.7e-4 -2.2508,0.74784 -2.2507,2.24303 z m 0,35.50705 0,13.99988 c -10e-5,1.33271 0.7502,1.99901 2.2507,1.99889 l 43.9985,0 c 1.3325,1.2e-4 1.9988,-0.66618 1.9989,-1.99889 l 0,-13.99988 c -10e-5,-1.33755 -0.6664,-2.00638 -1.9989,-2.00652 l -43.9985,0 c -1.5005,1.4e-4 -2.2508,0.66897 -2.2507,2.00652 z m 87.5011,20.5001 0,-65.25395 c -10e-5,-3.83483 1.4164,-7.16886 4.2496,-10.00208 2.8329,-2.83285 6.1669,-4.24937 10.002,-4.24957 l 74.249,0 c 3.8297,2e-4 7.1205,1.41672 9.8724,4.24957 2.7515,2.83322 4.1273,6.16725 4.1275,10.00208 l 0,166.50322 c -2e-4,16.49975 -1.8758,26.66591 -5.6267,30.4984 -3.7513,3.83248 -13.7088,5.74867 -29.8727,5.74867 -3.6674,0 -9.8344,-0.2492 -18.5012,-0.74759 -4.0031,-0.1679 -7.3791,-1.6684 -10.128,-4.50139 -2.7493,-2.83308 -4.2891,-6.25097 -4.6195,-10.25385 l 0,-1.99889 c -2e-4,-1.3326 -0.7504,-1.9989 -2.2507,-1.9989 l -64.0028,0 c -1.1649,0 -1.7472,0.5824 -1.7471,1.7471 -10e-5,3.00088 -1.0428,5.54277 -3.128,7.62556 -2.0855,2.0828 -4.626,3.12419 -7.6218,3.12419 l -1.7547,0 c -3.4994,0 -6.4571,-1.20789 -8.873,-3.62388 -2.4161,-2.41599 -3.624,-5.37368 -3.624,-8.87297 l 0,-75.2484 c 0,-3.83495 1.4165,-7.16897 4.2496,-10.00209 2.833,-2.83295 6.167,-4.24948 10.0021,-4.24957 l 78.9945,0 c 3.8348,9e-5 7.1688,1.41662 10.002,4.24957 2.8329,2.83312 4.2494,6.16714 4.2496,10.00209 l 0,69.49583 c -2e-4,1.50049 0.6661,2.25069 1.9989,2.25069 8.0005,0.3357 12.0847,0.5036 12.2527,0.5035 6.6679,10e-5 10.6682,-0.6256 12.001,-1.8768 1.3324,-1.25119 1.9987,-5.04298 1.9989,-11.37536 l 0,-85.2505 c -2e-4,-1.50034 -0.7504,-2.25056 -2.2506,-2.25067 l -59.9974,0 c -3.8351,1.1e-4 -7.1691,-1.4164 -10.002,-4.24955 -2.8332,-2.83293 -4.2497,-6.1644 -4.2496,-9.99446 z m 23.2467,96.49618 0,-12.00099 c -2e-4,-1.33256 -0.7504,-1.99886 -2.2507,-1.99889 l -52.9936,0 c -1.5005,3e-5 -2.2507,0.66633 -2.2506,1.99889 l 0,12.00099 c -10e-5,1.33262 0.7501,1.99891 2.2506,1.99889 l 52.9936,0 c 1.5003,2e-5 2.2505,-0.66627 2.2507,-1.99889 z m 0,-35.00352 0,-10.74977 c -2e-4,-1.50037 -0.7504,-2.25059 -2.2507,-2.25066 l -52.9936,0 c -1.5005,7e-5 -2.2507,0.75029 -2.2506,2.25066 l 0,10.74977 c -10e-5,1.33774 0.7501,2.00658 2.2506,2.00653 l 52.9936,0 c 1.5003,5e-5 2.2505,-0.66879 2.2507,-2.00653 z m 2.5024,-117.49981 0,13.75574 c -10e-5,1.50059 0.7501,2.25082 2.2507,2.25066 l 46.2492,0 c 1.5002,1.6e-4 2.2504,-0.75007 2.2506,-2.25066 l 0,-13.75574 c -2e-4,-1.49519 -0.7504,-2.24286 -2.2506,-2.24303 l -46.2492,0 c -1.5006,1.7e-4 -2.2508,0.74784 -2.2507,2.24303 z m 0,35.50705 0,13.99988 c -10e-5,1.33271 0.7501,1.99901 2.2507,1.99889 l 46.2492,0 c 1.5002,1.2e-4 2.2504,-0.66618 2.2506,-1.99889 l 0,-13.99988 c -2e-4,-1.33755 -0.7504,-2.00638 -2.2506,-2.00652 l -46.2492,0 c -1.5006,1.4e-4 -2.2508,0.66897 -2.2507,2.00652 z"
     id="path2827"
     style="font-size:250px;font-style:normal;font-variant:normal;font-weight:normal;font-stretch:normal;text-align:center;text-anchor:middle;fill:#000000;fill-opacity:1;stroke:none;font-family:'Rounded M+ 1m medium';-inkscape-font-specification:'Rounded M+ 1m medium,'" /></svg>