<?xml version="1.0" encoding="UTF-8" standalone="no"?>
<!-- Created with Inkscape (http://www.inkscape.org/) -->

<svg
   xmlns:svg="http://www.w3.org/2000/svg"
   xmlns="http://www.w3.org/2000/svg"
   version="1.1"
   width="1800"
   height="300"
   id="svg5338">
  <defs
     id="defs5340" />
  <g
     transform="translate(0,-772.36217)"
     id="layer1">
    <rect
       width="1800"
       height="300"
       rx="50"
       ry="50"
       x="0"
       y="0"
       transform="translate(0,772.36217)"
       id="rect5348"
       style="color:#000000;fill:#000000;fill-opacity:1;stroke:none;stroke-width:99;marker:none;visibility:visible;display:inline;overflow:visible;enable-background:accumulate" />
    <rect
       width="1770"
       height="270"
       rx="50"
       ry="50"
       x="15"
       y="15"
       transform="translate(0,772.36217)"
       id="rect5860"
       style="color:#000000;fill:#ffffff;fill-opacity:1;fill-rule:nonzero;stroke:none;stroke-width:99;marker:none;visibility:visible;display:inline;overflow:visible;enable-background:accumulate" />
    <g
       id="text2814"
       style="font-size:250px;font-style:normal;font-weight:normal;text-align:center;text-anchor:middle;fill:#000000;fill-opacity:1;stroke:none">
      <path
         d="m 264.61639,853.3631 c -2.24818,-2.16659 -3.37224,-4.91698 -3.37219,-8.25119 -5e-5,-3.33388 1.12528,-6.08427 3.37601,-8.25119 2.25061,-2.16657 4.95777,-3.24994 8.12149,-3.25012 l 122.00165,0 c 3.16855,1.8e-4 5.87825,1.08355 8.12912,3.25012 2.25047,2.16692 3.37581,4.91731 3.376,8.25119 -1.9e-4,3.33421 -1.12553,6.0846 -3.376,8.25119 -2.25087,2.1669 -4.96057,3.25028 -8.12912,3.25012 l -122.00165,0 c -3.16372,1.6e-4 -5.87215,-1.08322 -8.12531,-3.25012 z m 69.12995,170.2499 c -29.33258,0 -52.49921,-4.9171 -69.49997,-14.7514 -17.00088,-9.83427 -25.50128,-22.83348 -25.50125,-38.99765 -3e-5,-15.00441 9.6664,-32.75545 28.99933,-53.25317 2.33453,-2.50234 5.2515,-3.83621 8.75091,-4.00162 3.49928,-0.1652 6.58155,0.83552 9.24683,3.00217 2.50236,1.999 3.83623,4.6235 4.00161,7.87353 0.16523,3.25021 -0.8355,6.04257 -3.00216,8.37708 -14.16531,15.1673 -21.24792,27.00048 -21.24787,35.49957 -5e-5,9.83178 6.00046,17.70658 18.00156,23.62442 12.00095,5.91789 28.75127,8.87682 50.25101,8.8768 22.50148,2e-5 46.16783,-2.75165 70.99914,-8.255 3.16854,-0.66628 6.12748,-0.16528 8.8768,1.50299 2.74892,1.66831 4.54055,4.16821 5.37491,7.49968 0.83394,3.3315 0.33421,6.4151 -1.49917,9.2507 -1.83381,2.8355 -4.33498,4.5865 -7.50351,5.2528 -26.49961,5.6661 -51.91564,8.4991 -76.24817,8.4991 z"
         id="path2835"
         style="font-variant:normal;font-stretch:normal;font-family:'Rounded M+ 1m medium';-inkscape-font-specification:'Rounded M+ 1m medium,'" />
      <path
         d="m 639.61639,853.3631 c -2.24818,-2.16659 -3.37224,-4.91698 -3.37219,-8.25119 -5e-5,-3.33388 1.12528,-6.08427 3.37601,-8.25119 2.25061,-2.16657 4.95777,-3.24994 8.12149,-3.25012 l 122.00165,0 c 3.16855,1.8e-4 5.87825,1.08355 8.12912,3.25012 2.25047,2.16692 3.37581,4.91731 3.376,8.25119 -1.9e-4,3.33421 -1.12553,6.0846 -3.376,8.25119 -2.25087,2.1669 -4.96057,3.25028 -8.12912,3.25012 l -122.00165,0 c -3.16372,1.6e-4 -5.87215,-1.08322 -8.12531,-3.25012 z m 69.12995,170.2499 c -29.33258,0 -52.49921,-4.9171 -69.49997,-14.7514 -17.00088,-9.83427 -25.50128,-22.83348 -25.50125,-38.99765 -3e-5,-15.00441 9.6664,-32.75545 28.99933,-53.25317 2.33453,-2.50234 5.2515,-3.83621 8.75091,-4.00162 3.49928,-0.1652 6.58155,0.83552 9.24683,3.00217 2.50236,1.999 3.83623,4.6235 4.00161,7.87353 0.16523,3.25021 -0.8355,6.04257 -3.00216,8.37708 -14.16531,15.1673 -21.24792,27.00048 -21.24787,35.49957 -5e-5,9.83178 6.00046,17.70658 18.00156,23.62442 12.00095,5.91789 28.75127,8.87682 50.25101,8.8768 22.50148,2e-5 46.16783,-2.75165 70.99914,-8.255 3.16854,-0.66628 6.12748,-0.16528 8.8768,1.50299 2.74892,1.66831 4.54055,4.16821 5.37491,7.49968 0.83394,3.3315 0.33421,6.4151 -1.49917,9.2507 -1.83381,2.8355 -4.33498,4.5865 -7.50351,5.2528 -26.49961,5.6661 -51.91564,8.4991 -76.24817,8.4991 z"
         id="path2837"
         style="font-variant:normal;font-stretch:normal;font-family:'Rounded M+ 1m medium';-inkscape-font-specification:'Rounded M+ 1m medium,'" />
      <path
         d="m 1054.9988,1004.86 c 12.329,0 20.7861,-2.2914 25.3715,-6.8741 4.5852,-4.5827 6.9592,-13.12507 7.1221,-25.62714 -2e-4,-1.5004 -0.6665,-2.49985 -1.9989,-2.99835 -9.664,-4.1656 -18.9973,-6.24842 -27.9999,-6.24847 -10.9966,5e-5 -18.954,1.58315 -23.8724,4.7493 -4.9185,3.16624 -7.3777,7.99945 -7.3776,14.49966 -10e-5,7.16657 2.4998,12.70805 7.4997,16.62445 4.9997,3.91645 12.0849,5.87465 21.2555,5.87465 z m 32.4936,-117.24855 0,-23.00262 c -2e-4,-1.5003 -0.6665,-2.25052 -1.9989,-2.25068 l -87.99747,0 c -3.16878,1.6e-4 -5.83652,-1.08322 -8.00323,-3.25012 -2.16678,-2.16659 -3.25015,-4.83306 -3.25012,-7.99942 -3e-5,-3.16603 1.08334,-5.8325 3.25012,-7.99942 2.16671,-2.16657 4.83445,-3.24995 8.00323,-3.25012 l 87.99747,0 c 1.3324,1.7e-4 1.9987,-0.75005 1.9989,-2.25067 l 0,-11.4975 c -2e-4,-3.49916 1.2091,-6.45682 3.6277,-8.87298 2.4184,-2.41578 5.3774,-3.62377 8.8768,-3.62397 3.4993,2e-4 6.4569,1.20819 8.873,3.62397 2.4159,2.41616 3.6238,5.37382 3.624,8.87298 l 0,11.4975 c -2e-4,1.50062 0.6661,2.25084 1.9989,2.25067 l 53.0014,0 c 3.1685,1.7e-4 5.8363,1.08355 8.0032,3.25012 2.1666,2.16692 3.2499,4.83339 3.2502,7.99942 -3e-4,3.16636 -1.0836,5.83283 -3.2502,7.99942 -2.1669,2.1669 -4.8347,3.25028 -8.0032,3.25012 l -53.0014,0 c -1.3328,1.6e-4 -1.9991,0.75038 -1.9989,2.25068 l 0,23.00262 c -2e-4,1.50057 0.6661,2.2508 1.9989,2.25067 l 44.2505,0 c 3.1685,1.3e-4 5.8363,1.0835 8.0032,3.25012 2.1666,2.16687 3.2499,4.83334 3.2501,7.99942 -2e-4,3.16631 -1.0835,5.83278 -3.2501,7.99942 -2.1669,2.16685 -4.8347,3.25023 -8.0032,3.25013 l -44.2505,0 c -1.3328,10e-5 -1.9991,0.75032 -1.9989,2.25067 l 0,41.00036 c -2e-4,1.50051 0.5848,2.58388 1.7548,3.25013 16.1639,9.33333 32.913,21.33182 50.2471,35.99548 2.4972,2.16676 3.8298,4.8752 3.9979,8.12535 0.1676,3.2501 -0.8319,6.1251 -2.9984,8.625 -2.167,2.4999 -4.9173,3.8338 -8.2512,4.0016 -3.3342,0.1678 -6.2499,-0.8316 -8.7471,-2.9983 -12.6701,-10.8338 -24.254,-19.91783 -34.7519,-27.25225 -1.1649,-0.83412 -1.9151,-0.58235 -2.2507,0.75531 -1.999,14.66374 -7.4566,25.20374 -16.3726,31.62004 -8.9164,6.4163 -22.2907,9.6245 -40.123,9.6245 -17.0035,0 -30.421,-3.9991 -40.2527,-11.9973 -9.8318,-7.9981 -14.74767,-18.9984 -14.74763,-33.0009 -4e-5,-12.1663 4.37413,-22.16588 13.12253,-29.99878 8.7483,-7.83277 22.7076,-11.74919 41.8778,-11.74927 9.9995,8e-5 20.0804,1.66583 30.2429,4.99726 1.5003,0.33576 2.2505,-0.0813 2.2507,-1.25122 l 0,-29.74701 c -2e-4,-1.50035 -0.6665,-2.25057 -1.9989,-2.25067 l -79.2466,0 c -3.1687,10e-5 -5.8365,-1.08328 -8.00319,-3.25013 -2.16678,-2.16664 -3.25016,-4.83311 -3.25012,-7.99942 -4e-5,-3.16608 1.08334,-5.83255 3.25012,-7.99942 2.16669,-2.16662 4.83449,-3.24999 8.00319,-3.25012 l 79.2466,0 c 1.3324,1.3e-4 1.9987,-0.7501 1.9989,-2.25067 z"
         id="path2839"
         style="font-variant:normal;font-stretch:normal;font-family:'Rounded M+ 1m medium';-inkscape-font-specification:'Rounded M+ 1m medium,'" />
      <path
         d="m 1504.744,893.11224 c 2.8328,-1.50032 5.7918,-1.79278 8.8768,-0.87738 3.0846,0.91565 5.3772,2.78994 6.8779,5.62287 2.4971,4.50145 6.2457,11.41876 11.2457,20.75195 1.5002,2.83314 1.7927,5.66619 0.8774,8.49915 -0.9158,2.83313 -2.79,4.91595 -5.6229,6.24847 -2.6705,1.33777 -5.5468,1.54757 -8.6288,0.62942 -3.0825,-0.91799 -5.3739,-2.70962 -6.8741,-5.3749 -1.3328,-2.33451 -3.2491,-5.7512 -5.7488,-10.2501 -2.5,-4.4987 -4.3349,-7.91539 -5.5046,-10.25009 -1.5006,-2.66509 -1.7918,-5.49814 -0.8736,-8.49914 0.918,-3.00078 2.7096,-5.16753 5.375,-6.50025 z m 65.628,25.49744 c -1.0836,3.00099 -3.0418,5.16773 -5.8746,6.50024 -2.8333,1.33269 -5.7922,1.45731 -8.8768,0.37384 -3.0851,-1.08328 -5.3777,-3.04149 -6.8779,-5.87463 -1.165,-2.3345 -3.0812,-5.75119 -5.7488,-10.25009 -2.6679,-4.49869 -4.5842,-7.83146 -5.7487,-9.99832 -1.5007,-2.83293 -1.7919,-5.70794 -0.8736,-8.62503 0.9179,-2.91685 2.7934,-5.12556 5.6267,-6.62613 2.8328,-1.50032 5.7905,-1.83347 8.873,-0.99945 3.082,0.83427 5.4573,2.66787 7.1258,5.50079 3.8298,6.83097 7.7462,13.91358 11.7493,21.24786 1.5002,2.83315 1.7087,5.75012 0.6256,8.75092 z m -105.3772,-58.74634 c 0.1677,1.6e-4 0.2516,-0.0838 0.2518,-0.25177 -2e-4,-0.16769 -0.168,-0.25161 -0.5036,-0.25177 -33.1676,1.33276 -67.3345,2.1669 -102.5009,2.50244 -3.1637,1.6e-4 -5.9128,-1.16714 -8.2473,-3.50189 -2.3347,-2.33444 -3.502,-5.16748 -3.5019,-8.49914 -10e-5,-3.33134 1.1253,-6.12242 3.376,-8.37326 2.2506,-2.2505 4.9603,-3.37584 8.1291,-3.37601 60.6638,-0.33552 120.7452,-1.83597 180.2444,-4.50134 3.3364,-0.16767 6.2127,0.87374 8.6289,3.12423 2.4157,2.25085 3.7076,4.96055 3.8757,8.12912 0.1676,3.33167 -0.8318,6.24737 -2.9983,8.7471 -2.167,2.50006 -4.9187,3.99923 -8.255,4.49753 -37.9997,4.99995 -66.4153,15.04149 -85.2471,30.12467 -18.832,15.08342 -28.2479,33.37487 -28.2478,54.87442 -10e-5,19.00233 6.0411,33.8364 18.1236,44.50225 12.0823,10.66591 28.1231,15.99888 48.1224,15.99888 5.4981,0 11.8305,-0.4171 18.9972,-1.2513 3.3364,-0.3306 6.3373,0.5456 9.0027,2.6284 2.665,2.0828 4.1654,4.7086 4.5013,7.8773 0.3304,3.3315 -0.5037,6.3718 -2.5024,9.121 -1.9991,2.7491 -4.6643,4.2915 -7.9956,4.6272 -7.5024,1.002 -15.2539,1.503 -23.2544,1.503 -28.4985,0 -51.1221,-7.3751 -67.8711,-22.1253 -16.7491,-14.7501 -25.1237,-34.87643 -25.1236,-60.37899 -10e-5,-18.49865 5.3748,-35.04044 16.1247,-49.6254 10.7497,-14.58473 26.3735,-26.62517 46.8712,-36.12137 z"
         id="path2841"
         style="font-variant:normal;font-stretch:normal;font-family:'Rounded M+ 1m medium';-inkscape-font-specification:'Rounded M+ 1m medium,'" />
    </g>
  </g>
</svg>
