<?xml version="1.0" encoding="UTF-8" standalone="no"?>
<!-- Created with Inkscape (http://www.inkscape.org/) -->

<svg
   xmlns:svg="http://www.w3.org/2000/svg"
   xmlns="http://www.w3.org/2000/svg"
   version="1.2"
   width="599.38263"
   height="180.0625"
   id="svg1890">
  <defs
     id="defs1893" />
  <path
     d="m 54.050699,0 c -1.724798,7.83e-4 -3.416587,0.97634 -4.28125,2.46875 L 0.64444871,87.5625 c -0.85926495,1.4935 -0.85926495,3.44399 0,4.9375 L 49.769449,177.59375 c 0.864663,1.49241 2.556452,2.46797 4.28125,2.46875 l 491.281251,0 c 1.7248,-7.8e-4 3.41659,-0.97634 4.28125,-2.46875 L 598.7382,92.5 c 0.85926,-1.49351 0.85926,-3.44399 0,-4.9375 L 549.6132,2.46875 C 548.74854,0.97634 547.05675,7.83e-4 545.33195,0 L 54.050699,0 z"
     id="path4156-6"
     style="font-size:medium;font-style:normal;font-variant:normal;font-weight:normal;font-stretch:normal;text-indent:0;text-align:start;text-decoration:none;line-height:normal;letter-spacing:normal;word-spacing:normal;text-transform:none;direction:ltr;block-progression:tb;writing-mode:lr-tb;text-anchor:start;color:#000000;fill:#ffffff;fill-opacity:1;fill-rule:nonzero;stroke:none;stroke-width:9.89999962;marker:none;visibility:visible;display:inline;overflow:visible;enable-background:accumulate;font-family:Bitstream Vera Sans;-inkscape-font-specification:Bitstream Vera Sans" />
  <path
     d="m 56.175699,3.78125 c -1.685112,7.37e-4 -3.338346,0.950729 -4.1875,2.40625 L 4.9881987,87.59375 c -0.8555934,1.47199 -0.8555934,3.40301 0,4.875 L 51.988199,173.875 c 0.849154,1.45552 2.502388,2.40551 4.1875,2.40625 l 487.031251,0 c 1.68511,-7.4e-4 3.33835,-0.95073 4.1875,-2.40625 l 47,-81.40625 c 0.8556,-1.47199 0.8556,-3.40302 0,-4.875 l -47,-81.40625 c -0.84915,-1.455521 -2.50239,-2.405513 -4.1875,-2.40625 l -487.031251,0 z"
     id="path4156-9-5"
     style="font-size:medium;font-style:normal;font-variant:normal;font-weight:normal;font-stretch:normal;text-indent:0;text-align:start;text-decoration:none;line-height:normal;letter-spacing:normal;word-spacing:normal;text-transform:none;direction:ltr;block-progression:tb;writing-mode:lr-tb;text-anchor:start;color:#000000;fill:#0066b3;fill-opacity:1;fill-rule:nonzero;stroke:none;stroke-width:9.69999981;marker:none;visibility:visible;display:inline;overflow:visible;enable-background:accumulate;font-family:Bitstream Vera Sans;-inkscape-font-specification:Bitstream Vera Sans" />
  <path
     d="m 86.081949,13.21875 c -3.6575,0 -5.3921,2.481559 -6.625,6.6875 L 58.613199,83.6875 c -0.8747,2.839696 -1.74095,5.71158 0.09375,11.84375 l 20.75,64.625 c 0.6165,3.70033 2.9676,6.6875 6.625,6.6875 l 427.250001,0 c 3.65746,0 5.97729,-2.98717 6.59375,-6.6875 l 20.75,-64.625 c 1.83469,-6.13217 0.99996,-9.004054 0.125,-11.84375 l -20.875,-63.78125 c -1.23292,-4.205941 -2.93629,-6.6875 -6.59375,-6.6875 l -427.250001,0 z"
     id="rect3644-5-3-5"
     style="color:#000000;fill:#ffffff;fill-opacity:1;fill-rule:nonzero;stroke:none;stroke-width:0;marker:none;visibility:visible;display:inline;overflow:visible;enable-background:accumulate" />
  <g
     transform="translate(13.640186,-11.218751)"
     id="g3711">
    <g
       transform="matrix(1.1148233,0,0,1.1148233,-39.798194,-13.20472)"
       id="g3674">
      <path
         d="m 187.18112,71.462479 c 0.5996,0.575293 0.89944,1.287878 0.89951,2.137756 -7e-5,0.849949 -0.29991,1.562534 -0.89951,2.137756 -0.59974,0.57529 -1.29935,0.862917 -2.09884,0.862885 l -63.00202,0 c -0.79956,3.2e-5 -1.49918,-0.287595 -2.09885,-0.862885 -0.59967,-0.575222 -0.8995,-1.287807 -0.8995,-2.137756 0,-0.849878 0.29983,-1.562463 0.8995,-2.137756 0.59967,-0.575218 1.29929,-0.862846 2.09885,-0.862885 l 26.55029,0 c 0.39975,3.9e-5 0.59964,-0.224265 0.59967,-0.672912 l 0,-1.876832 c -3e-5,-0.450092 -0.19992,-0.675159 -0.59967,-0.675201 l -21.44851,0 c -0.8011,4.2e-5 -1.47668,-0.262409 -2.02675,-0.787353 -0.55009,-0.52486 -0.82513,-1.18709 -0.82512,-1.986695 -10e-6,-0.799515 0.27503,-1.461746 0.82512,-1.986694 0.55007,-0.524855 1.22565,-0.787306 2.02675,-0.787354 l 21.44851,0 c 0.39975,4.8e-5 0.59964,-0.225019 0.59967,-0.675201 l 0,-1.874542 c -3e-5,-0.450084 -0.19992,-0.675151 -0.59967,-0.675202 l -23.84948,0 c -0.84993,5.1e-5 -1.57472,-0.300165 -2.17438,-0.90065 -0.59968,-0.600381 -0.89951,-1.325554 -0.89951,-2.175522 0,-0.84986 0.29983,-1.58724 0.89951,-2.212143 0.59966,-0.62479 1.32445,-0.937214 2.17438,-0.937271 l 23.84948,0 c 0.39975,5.7e-5 0.59964,-0.199833 0.59967,-0.59967 -3e-5,-1.1001 0.40013,-2.05034 1.20049,-2.850723 0.80029,-0.800263 1.77571,-1.200424 2.92625,-1.200486 l 0.44861,0 c 1.15048,6.2e-5 2.12589,0.400223 2.92626,1.200486 0.80028,0.800383 1.20044,1.750623 1.20048,2.850723 -4e-5,0.399837 0.19985,0.599727 0.59967,0.59967 l 23.84949,0 c 0.84985,5.7e-5 1.57464,0.312481 2.17438,0.937271 0.5996,0.624903 0.89943,1.362283 0.8995,2.212143 -7e-5,0.849968 -0.2999,1.575141 -0.8995,2.175522 -0.59974,0.600485 -1.32453,0.900701 -2.17438,0.90065 l -23.84949,0 c -0.39982,5.1e-5 -0.59971,0.225118 -0.59967,0.675202 l 0,1.874542 c -4e-5,0.450182 0.19985,0.675249 0.59967,0.675201 l 21.44852,0 c 0.80102,4.8e-5 1.4766,0.262499 2.02675,0.787354 0.55001,0.524948 0.82505,1.187179 0.82512,1.986694 -7e-5,0.799605 -0.27511,1.461835 -0.82512,1.986695 -0.55015,0.524944 -1.22573,0.787395 -2.02675,0.787353 l -21.44852,0 c -0.39982,4.2e-5 -0.59971,0.225109 -0.59967,0.675201 l 0,1.876832 c -4e-5,0.448647 0.19985,0.672951 0.59967,0.672912 l 26.5503,0 c 0.79949,3.9e-5 1.4991,0.287667 2.09884,0.862885 z m -17.99927,36.637111 c 1.49989,10e-6 2.3746,-0.0874 2.62413,-0.26207 0.24943,-0.17471 0.37417,-0.78697 0.37423,-1.83677 l 0,-1.19934 c -6e-5,-0.45013 -0.22436,-0.6752 -0.67292,-0.6752 l -35.85205,0 c -0.44862,0 -0.67293,0.22507 -0.67291,0.6752 l 0,6.07452 c -2e-5,1.15051 -0.40018,2.12555 -1.20048,2.92511 -0.80035,0.79956 -1.75059,1.19934 -2.85073,1.19934 -1.15052,0 -2.13815,-0.41237 -2.96287,-1.2371 -0.82475,-0.82475 -1.23712,-1.78719 -1.23711,-2.88735 l 0,-27.225494 c -1e-5,-1.150486 0.42495,-2.150698 1.27487,-3.00064 0.8499,-0.849886 1.85012,-1.274842 3.00064,-1.274872 l 45.14923,0 c 1.15046,3e-5 2.15067,0.424986 3.00064,1.274872 0.84986,0.849942 1.27481,1.850154 1.27488,3.00064 l 0,22.350314 c -7e-5,4.04968 -0.55015,6.53724 -1.65024,7.46269 -1.10022,0.92544 -4.00015,1.38816 -8.6998,1.38817 -1.10021,-10e-6 -3.64995,-0.0755 -7.64923,-0.22659 -0.95067,-0.0488 -1.76358,-0.41085 -2.43874,-1.08605 -0.67524,-0.6752 -1.03726,-1.48812 -1.08604,-2.43874 -0.0504,-0.90026 0.26164,-1.67541 0.93613,-2.32543 0.67439,-0.65003 1.46174,-0.94986 2.36206,-0.89951 3.30042,0.14954 5.62586,0.22431 6.97631,0.2243 z m -34.19952,-21.823879 0,2.098846 c -2e-5,0.401327 0.22429,0.60198 0.67291,0.60196 l 35.85205,0 c 0.44856,2e-5 0.67286,-0.200633 0.67292,-0.60196 l 0,-2.098846 c -6e-5,-0.450111 -0.22436,-0.675178 -0.67292,-0.675201 l -35.85205,0 c -0.44862,2.3e-5 -0.67293,0.22509 -0.67291,0.675201 z m 0.67291,12.075806 35.85205,0 c 0.44856,1.1e-5 0.67286,-0.200642 0.67292,-0.60196 l 0,-2.32315 c -6e-5,-0.399766 -0.22436,-0.599656 -0.67292,-0.599671 l -35.85205,0 c -0.44862,1.5e-5 -0.67293,0.199905 -0.67291,0.599671 l 0,2.32315 c -2e-5,0.401318 0.22429,0.601971 0.67291,0.60196 z"
         id="path3629"
         style="font-size:75px;font-style:normal;font-weight:normal;text-align:center;text-anchor:middle;fill:#0066b3;fill-opacity:1;stroke:none;font-family:'Rounded M+ 1m medium';-inkscape-font-specification:'Rounded M+ 1m medium'" />
      <path
         d="m 225.33145,110.27626 0,0.59967 c -1e-5,1.10016 -0.375,2.03781 -1.12495,2.81296 -0.74998,0.77514 -1.67505,1.16271 -2.7752,1.16272 -1.10016,-10e-6 -2.03781,-0.38758 -2.81295,-1.16272 -0.77516,-0.77515 -1.16273,-1.7128 -1.16272,-2.81296 l 0,-40.800475 c -1e-5,-1.100119 0.38756,-2.03777 1.16272,-2.812958 0.77514,-0.775104 1.71279,-1.162677 2.81295,-1.16272 1.10015,4.3e-5 2.02522,0.387616 2.7752,1.16272 0.74995,0.775188 1.12494,1.712839 1.12495,2.812958 l 0,31.800845 c -1e-5,0.39978 0.19988,0.59967 0.59967,0.59967 l 17.8505,0 c 0.4501,0 0.67516,-0.19989 0.6752,-0.59967 l 0,-48.900607 c -4e-5,-1.100102 0.41233,-2.062549 1.2371,-2.887345 0.82471,-0.824677 1.78715,-1.237046 2.88735,-1.237106 1.10012,6e-5 2.06257,0.412429 2.88734,1.237106 0.8247,0.824796 1.23707,1.787243 1.23711,2.887345 l 0,48.900607 c -4e-5,0.39978 0.22502,0.59967 0.6752,0.59967 l 17.85049,0 c 0.39972,0 0.59961,-0.19989 0.59968,-0.59967 l 0,-31.800845 c -7e-5,-1.100119 0.37492,-2.03777 1.12495,-2.812958 0.74991,-0.775104 1.67497,-1.162677 2.77519,-1.16272 1.10009,4.3e-5 2.03775,0.387616 2.81296,1.16272 0.77508,0.775188 1.16265,1.712839 1.16272,2.812958 l 0,40.800475 c -7e-5,1.10016 -0.38764,2.03781 -1.16272,2.81296 -0.77521,0.77514 -1.71287,1.16271 -2.81296,1.16272 -1.10022,-10e-6 -2.02528,-0.38758 -2.77519,-1.16272 -0.75003,-0.77515 -1.12502,-1.7128 -1.12495,-2.81296 l 0,-0.59967 c -7e-5,-0.45013 -0.19996,-0.6752 -0.59968,-0.6752 l -45.30029,0 c -0.39979,0 -0.59968,0.22507 -0.59967,0.6752 z"
         id="path3631"
         style="font-size:75px;font-style:normal;font-weight:normal;text-align:center;text-anchor:middle;fill:#0066b3;fill-opacity:1;stroke:none;font-family:'Rounded M+ 1m medium';-inkscape-font-specification:'Rounded M+ 1m medium'" />
      <path
         d="m 315.7305,52.600327 c 0.75072,-0.649968 1.6384,-0.949803 2.66304,-0.899506 1.02462,0.05041 1.88712,0.425014 2.58751,1.12381 2.29948,2.400261 4.8744,5.175832 7.72476,8.326721 0.65,0.6989 0.93763,1.535844 0.86289,2.510834 -0.0748,0.975081 -0.46237,1.787611 -1.16272,2.437591 -0.74923,0.650067 -1.59914,0.925107 -2.54975,0.825119 -0.95064,-0.0999 -1.75096,-0.499301 -2.40097,-1.198196 -1.74867,-1.9012 -4.37318,-4.651594 -7.87353,-8.25119 -0.65004,-0.700326 -0.96246,-1.525445 -0.93728,-2.475357 0.0252,-0.949805 0.38719,-1.749746 1.08605,-2.399826 z m 9.375,54.750823 c -2.14998,2.14996 -4.64937,4.27475 -7.49817,6.37436 -0.80109,0.59966 -1.70136,0.78697 -2.70081,0.5619 -0.99945,-0.22507 -1.74942,-0.78697 -2.2499,-1.68571 -0.5005,-0.95063 -0.62562,-1.93863 -0.37537,-2.96402 0.25024,-1.02539 0.8255,-1.8631 1.72577,-2.51312 2.04925,-1.44958 4.2488,-3.24936 6.59866,-5.39933 0.25023,-0.19988 0.37536,-0.52489 0.37537,-0.97503 l 0,-16.948702 c -10e-6,-0.450108 -0.1999,-0.675175 -0.59967,-0.675201 l -5.17502,0 c -0.95063,2.6e-5 -1.75095,-0.312397 -2.40097,-0.937271 -0.65003,-0.62482 -0.97504,-1.412554 -0.97504,-2.363205 0,-0.950592 0.32501,-1.763122 0.97504,-2.437592 0.65002,-0.674406 1.45034,-1.011624 2.40097,-1.011657 l 9.22394,0 c 1.15049,3.3e-5 2.15071,0.424989 3.00064,1.274871 0.84989,0.849946 1.27485,1.849395 1.27487,2.998353 l 0,18.450164 c -2e-5,0.39979 0.1251,0.800333 0.37537,1.20163 1.24967,2.04926 2.81217,3.58658 4.6875,4.61197 1.87527,1.02539 4.66305,1.77536 8.36334,2.24991 3.70022,0.47455 8.97518,0.71182 15.82489,0.71182 l 17.77496,0 c 0.9002,0 1.67535,0.35019 2.32544,1.05057 0.64996,0.70038 0.94979,1.5007 0.89951,2.40097 -0.0504,0.94909 -0.42579,1.73606 -1.1261,2.36091 -0.70045,0.62485 -1.52519,0.93727 -2.47421,0.93728 l -17.77497,0 c -9.19956,-1e-5 -16.16214,-0.52491 -20.88775,-1.57471 -4.72567,-1.04981 -8.28783,-2.92435 -10.6865,-5.62363 -0.30061,-0.35095 -0.60121,-0.37613 -0.90179,-0.0755 z m 51.60141,-54.224395 c -7e-5,2.249199 -0.90034,3.92385 -2.70081,5.023956 -2.40027,1.499989 -5.4505,3.174639 -9.15069,5.023956 -0.0489,0.0504 -0.0733,0.113343 -0.0732,0.188828 -6e-5,0.07558 0.0243,0.113342 0.0732,0.113296 l 7.57599,0 c 1.15044,4.6e-5 2.15066,0.425003 3.00064,1.274872 0.84984,0.849958 1.2748,1.849408 1.27487,2.998352 l 0,27.976227 c -7e-5,3.948984 -0.40023,6.348808 -1.20049,7.199478 -0.80039,0.85068 -3.0255,1.27602 -6.67533,1.27602 -0.39985,0 -1.54959,-0.0503 -3.44925,-0.15107 -0.90033,-0.0503 -1.66289,-0.37536 -2.28768,-0.97503 -0.6249,-0.59967 -0.9625,-1.34963 -1.0128,-2.24991 -0.0504,-0.79955 0.21204,-1.499548 0.78735,-2.099991 0.5752,-0.600423 1.28779,-0.875462 2.13776,-0.825119 0.99939,0.05036 1.89966,0.07554 2.70081,0.07553 0.64996,1.1e-5 1.02494,-0.09993 1.12495,-0.299836 0.0999,-0.199878 0.14986,-0.875079 0.14992,-2.025604 l 0,-3.224945 c -6e-5,-0.399763 -0.20072,-0.599653 -0.60196,-0.59967 l -9.44824,0 c -0.39983,1.7e-5 -0.59972,0.199907 -0.59967,0.59967 l 0,7.875825 c -5e-5,0.99946 -0.36283,1.86158 -1.08834,2.58636 -0.7256,0.7248 -1.5881,1.0872 -2.58751,1.08719 -0.99949,1e-5 -1.862,-0.36239 -2.58751,-1.08719 -0.72559,-0.72478 -1.08837,-1.5869 -1.08833,-2.58636 l 0,-7.875825 c -4e-5,-0.399763 -0.19993,-0.599653 -0.59967,-0.59967 l -8.84857,0 c -0.40134,1.7e-5 -0.60199,0.199907 -0.60196,0.59967 l 0,8.175665 c -3e-5,1.04981 -0.36243,1.93711 -1.08719,2.66189 -0.72482,0.7248 -1.61212,1.08719 -2.6619,1.08719 -1.04983,0 -1.93713,-0.36239 -2.66189,-1.08719 -0.72482,-0.72478 -1.08721,-1.61208 -1.08719,-2.66189 l 0,-32.851416 c -2e-5,-1.148944 0.41234,-2.148394 1.23711,-2.998352 0.82471,-0.849869 1.81233,-1.274826 2.96287,-1.274872 l 7.19834,0 c 0.10067,4.6e-5 0.16361,-0.05031 0.18882,-0.151062 0.0251,-0.100662 0.0125,-0.17543 -0.0378,-0.224304 -0.30064,-0.199844 -0.76336,-0.487472 -1.38817,-0.862884 -0.62488,-0.375319 -1.08761,-0.662947 -1.38817,-0.862885 -0.79959,-0.549268 -1.23676,-1.286648 -1.31149,-2.212143 -0.0748,-0.925394 0.21283,-1.738306 0.86288,-2.438736 0.0992,-0.09913 0.12395,-0.186104 0.0744,-0.260925 -0.0496,-0.07472 -0.12477,-0.112099 -0.22545,-0.112152 l -6.37436,0 c -0.84994,5.3e-5 -1.58732,-0.324959 -2.21214,-0.975037 -0.62487,-0.64997 -0.9373,-1.40032 -0.93727,-2.251053 -3e-5,-0.85062 0.3124,-1.588382 0.93727,-2.213287 0.62482,-0.624788 1.3622,-0.937212 2.21214,-0.937271 l 38.25073,0 c 0.84985,5.9e-5 1.59982,0.312483 2.24991,0.937271 0.64996,0.624905 0.97497,1.363048 0.97504,2.214432 z m -35.77652,16.9487 0,4.199981 c -3e-5,0.399815 0.20062,0.599705 0.60196,0.599671 l 8.84857,0 c 0.39974,3.4e-5 0.59963,-0.199856 0.59967,-0.599671 l 0,-4.199981 c -4e-5,-0.399741 -0.19993,-0.599631 -0.59967,-0.599671 l -8.84857,0 c -0.40134,4e-5 -0.60199,0.19993 -0.60196,0.599671 z m 0.60196,16.049194 8.84857,0 c 0.39974,2.3e-5 0.59963,-0.199867 0.59967,-0.59967 l 0,-4.348755 c -4e-5,-0.399752 -0.19993,-0.599642 -0.59967,-0.599671 l -8.84857,0 c -0.40134,2.9e-5 -0.60199,0.199919 -0.60196,0.599671 l 0,4.348755 c -3e-5,0.399803 0.20062,0.599693 0.60196,0.59967 z m 27.4498,-0.59967 0,-4.348755 c -6e-5,-0.399752 -0.20072,-0.599642 -0.60196,-0.599671 l -9.44824,0 c -0.39983,2.9e-5 -0.59972,0.199919 -0.59967,0.599671 l 0,4.348755 c -5e-5,0.399803 0.19984,0.599693 0.59967,0.59967 l 9.44824,0 c 0.40124,2.3e-5 0.6019,-0.199867 0.60196,-0.59967 z m 0,-11.249543 0,-4.199981 c -6e-5,-0.399741 -0.20072,-0.599631 -0.60196,-0.599671 l -9.44824,0 c -0.39983,4e-5 -0.59972,0.19993 -0.59967,0.599671 l 0,4.199981 c -5e-5,0.399815 0.19984,0.599705 0.59967,0.599671 l 9.44824,0 c 0.40124,3.4e-5 0.6019,-0.199856 0.60196,-0.599671 z M 354.88074,61.59996 c 2.85029,-1.3 5.97529,-2.949473 9.375,-4.948425 0.0503,-0.0503 0.0755,-0.112862 0.0755,-0.187683 -6e-5,-0.07472 -0.0504,-0.112099 -0.15106,-0.112152 l -17.54837,0 c -0.10075,5.3e-5 -0.16369,0.03744 -0.18883,0.112152 -0.0252,0.07482 -0.0126,0.137382 0.0378,0.187683 2.30099,1.449636 4.75078,3.074696 7.3494,4.875183 0.30055,0.199938 0.65074,0.224352 1.05057,0.07324 z"
         id="path3633"
         style="font-size:75px;font-style:normal;font-weight:normal;text-align:center;text-anchor:middle;fill:#0066b3;fill-opacity:1;stroke:none;font-family:'Rounded M+ 1m medium';-inkscape-font-specification:'Rounded M+ 1m medium'" />
      <path
         d="m 444.95563,61.224594 c -4.89964,4.8e-5 -9.52457,2.400253 -13.87482,7.200623 -4.35031,4.800451 -7.05035,10.800964 -8.10013,18.001556 -0.14956,1.049827 -0.6119,1.924536 -1.38702,2.62413 -0.77517,0.699635 -1.68764,1.049443 -2.73743,1.049424 -1.04982,1.9e-5 -1.92491,-0.362377 -2.62527,-1.087189 -0.7004,-0.724772 -1.05058,-1.612069 -1.05057,-2.661896 l 0,-30.301666 c -10e-6,-1.049751 0.37497,-1.949637 1.12495,-2.699661 0.74996,-0.749913 1.65022,-1.124898 2.70081,-1.124955 1.05055,5.7e-5 1.95082,0.362835 2.7008,1.088333 0.74995,0.725611 1.12494,1.61329 1.12496,2.663041 l 0,12.89978 c -2e-5,0.09922 0.0244,0.148813 0.0732,0.148773 0.10069,4e-5 0.15104,-0.02437 0.15106,-0.07324 2.65043,-4.949906 5.91314,-8.724927 9.78814,-11.325073 3.87493,-2.600044 8.16226,-3.900091 12.86201,-3.900147 5.99971,5.6e-5 10.6872,2.12484 14.0625,6.374359 3.37518,4.249618 5.0628,10.249368 5.06287,17.999268 -7e-5,11.550923 -3.12506,20.138561 -9.375,25.762936 -6.25005,5.62439 -16.07518,8.63724 -29.47541,9.03855 -0.95064,0.0488 -1.80094,-0.27657 -2.55088,-0.97619 -0.75,-0.69961 -1.14939,-1.54915 -1.1982,-2.5486 -0.0504,-0.95062 0.24946,-1.77612 0.8995,-2.4765 0.65001,-0.70037 1.47474,-1.07497 2.47422,-1.12381 11.10073,-0.35094 19.03834,-2.70118 23.81286,-7.050699 4.77443,-4.349503 7.16166,-11.224725 7.16172,-20.625687 -6e-5,-5.549585 -0.99989,-9.749563 -2.9995,-12.599945 -1.99972,-2.850295 -4.87485,-4.275465 -8.62541,-4.275513 z"
         id="path3635"
         style="font-size:75px;font-style:normal;font-weight:normal;text-align:center;text-anchor:middle;fill:#0066b3;fill-opacity:1;stroke:none;font-family:'Rounded M+ 1m medium';-inkscape-font-specification:'Rounded M+ 1m medium'" />
    </g>
    <g
       transform="translate(-41.79971,2.6124819)"
       id="text2823-7"
       style="font-size:51.82477951px;font-style:normal;font-weight:normal;text-align:center;text-anchor:middle;fill:#0066b3;fill-opacity:1;stroke:#0066b3;stroke-width:1.29561949;stroke-miterlimit:4;stroke-opacity:1;font-family:'Rounded M+ 1m medium';-inkscape-font-specification:'Rounded M+ 1m medium'">
      <path
         d="m 206.73674,156.25893 -4.46381,0 -3.68948,-9.81584 -13.39144,0 -3.62116,9.81584 -4.44104,0 13.20925,-33.54693 3.30231,0 z m -9.31479,-13.11815 -3.37064,-8.85931 c -0.92618,-2.47481 -1.6246,-4.7143 -2.09526,-6.71849 l -0.13665,0 c -0.5466,2.12565 -1.2602,4.36515 -2.1408,6.71849 l -3.30232,8.85931 z"
         id="path3681"
         style="font-size:46.64229965px;font-variant:normal;font-stretch:normal;fill:#0066b3;stroke:#0066b3;font-family:IPAPGothic;-inkscape-font-specification:IPAPGothic" />
      <path
         d="m 220.85697,132.36841 c 3.27952,3e-5 6.04283,1.1008 8.28994,3.30231 2.3078,2.30784 3.46171,5.34445 3.46173,9.10983 -2e-5,3.62875 -1.13116,6.58185 -3.39341,8.8593 -2.21674,2.20154 -5.00283,3.30231 -8.35826,3.30231 -3.35546,0 -6.11877,-1.08558 -8.28994,-3.25676 -2.27746,-2.27745 -3.41619,-5.29128 -3.41619,-9.0415 0,-3.67428 1.15391,-6.66534 3.46174,-8.97318 2.20153,-2.20151 4.94966,-3.30228 8.24439,-3.30231 z m 0,3.07457 c -1.94344,2e-5 -3.5908,0.69844 -4.94208,2.09526 -1.71569,1.7157 -2.57353,4.09943 -2.57353,7.15121 0,3.00625 0.84266,5.35203 2.52798,7.03734 1.36646,1.36648 3.029,2.04971 4.98763,2.04971 2.00414,0 3.68187,-0.69842 5.03318,-2.09526 1.68529,-1.68531 2.52795,-4.06905 2.52797,-7.15121 -2e-5,-2.89995 -0.85786,-5.23054 -2.57352,-6.99179 -1.39686,-1.39682 -3.0594,-2.09524 -4.98763,-2.09526 z"
         id="path3683"
         style="font-size:46.64229965px;font-variant:normal;font-stretch:normal;fill:#0066b3;stroke:#0066b3;font-family:IPAPGothic;-inkscape-font-specification:IPAPGothic" />
      <path
         d="m 257.77453,133.02887 -11.27341,27.23838 c -1.4424,3.47691 -3.93241,5.21536 -7.47005,5.21537 l -0.52382,0 -0.9793,-3.64393 0.75156,0 c 2.53556,0 4.24365,-1.13114 5.12427,-3.39341 l 1.50312,-3.73502 -9.61086,-21.68139 4.53214,0 5.12427,13.04983 c 0.80469,2.11045 1.39683,3.75781 1.77642,4.94208 l 0.13665,0 c 0.6073,-1.88269 1.18426,-3.53005 1.73086,-4.94208 l 4.85098,-13.04983 z"
         id="path3685"
         style="font-size:46.64229965px;font-variant:normal;font-stretch:normal;fill:#0066b3;stroke:#0066b3;font-family:IPAPGothic;-inkscape-font-specification:IPAPGothic" />
      <path
         d="m 280.98181,156.25893 -3.55284,0 c -0.53142,-1.1691 -0.87304,-2.36856 -1.02485,-3.59839 l -0.13665,0 c -1.76125,2.82405 -4.38791,4.23607 -7.88,4.23607 -2.39892,0 -4.35753,-0.75915 -5.87583,-2.27745 -1.33611,-1.33611 -2.00417,-2.96828 -2.00416,-4.89653 -10e-6,-4.79783 4.13737,-7.31821 12.41213,-7.56116 l 3.12012,-0.0911 0,-1.20705 c -2e-5,-1.62457 -0.4707,-2.89994 -1.41203,-3.82612 -0.95654,-0.9717 -2.19396,-1.45755 -3.71225,-1.45758 -2.61149,3e-5 -4.5701,1.26781 -5.87584,3.80336 l -3.46173,-1.59422 c 2.1408,-3.55281 5.28369,-5.32923 9.42867,-5.32925 2.83921,2e-5 5.03316,0.79713 6.58185,2.39133 1.42718,1.42722 2.14078,3.44657 2.14081,6.05803 l 0,8.54046 c -3e-5,2.89997 0.41751,5.16983 1.2526,6.8096 z m -4.85099,-11.38728 -2.57352,0.0455 c -5.99731,0.13666 -8.99596,1.75366 -8.99595,4.85099 -1e-5,1.09318 0.35679,1.99657 1.0704,2.71017 0.88061,0.86543 2.03452,1.29815 3.46174,1.29815 1.98896,0 3.71223,-0.72878 5.16982,-2.18636 1.24499,-1.29055 1.8675,-2.84681 1.86751,-4.66878 z"
         id="path3687"
         style="font-size:46.64229965px;font-variant:normal;font-stretch:normal;fill:#0066b3;stroke:#0066b3;font-family:IPAPGothic;-inkscape-font-specification:IPAPGothic" />
      <path
         d="m 320.26792,156.25893 -4.00832,0 0,-14.55295 c -3e-5,-3.9172 -1.51833,-5.87581 -4.55491,-5.87584 -1.44242,3e-5 -2.76334,0.66808 -3.96277,2.00417 -0.85028,0.94136 -1.44242,2.12564 -1.77642,3.55283 l 0,14.87179 -4.00832,0 0,-14.5985 c -2e-5,-3.88684 -1.43482,-5.83026 -4.30439,-5.83029 -1.51832,3e-5 -2.85443,0.66808 -4.00833,2.00417 -1.24502,1.38167 -1.86752,2.71778 -1.86751,4.00832 l 0,14.4163 -4.00832,0 0,-23.23006 3.73502,0 0,4.00833 c 1.53348,-2.97586 3.84889,-4.46379 6.94624,-4.46382 3.3858,3e-5 5.64048,1.61702 6.76405,4.85098 1.68529,-3.23396 4.10699,-4.85095 7.26508,-4.85098 2.55072,3e-5 4.5397,0.90342 5.96694,2.71018 1.21461,1.48795 1.82193,3.59839 1.82196,6.33132 z"
         id="path3689"
         style="font-size:46.64229965px;font-variant:normal;font-stretch:normal;fill:#0066b3;stroke:#0066b3;font-family:IPAPGothic;-inkscape-font-specification:IPAPGothic" />
      <path
         d="m 347.30133,156.25893 -3.55284,0 c -0.53142,-1.1691 -0.87304,-2.36856 -1.02485,-3.59839 l -0.13665,0 c -1.76125,2.82405 -4.38791,4.23607 -7.88,4.23607 -2.39892,0 -4.35754,-0.75915 -5.87583,-2.27745 -1.33611,-1.33611 -2.00417,-2.96828 -2.00416,-4.89653 -10e-6,-4.79783 4.13737,-7.31821 12.41213,-7.56116 l 3.12012,-0.0911 0,-1.20705 c -2e-5,-1.62457 -0.4707,-2.89994 -1.41203,-3.82612 -0.95654,-0.9717 -2.19396,-1.45755 -3.71225,-1.45758 -2.61149,3e-5 -4.5701,1.26781 -5.87584,3.80336 l -3.46173,-1.59422 c 2.1408,-3.55281 5.28369,-5.32923 9.42867,-5.32925 2.83921,2e-5 5.03316,0.79713 6.58185,2.39133 1.42718,1.42722 2.14078,3.44657 2.1408,6.05803 l 0,8.54046 c -2e-5,2.89997 0.41752,5.16983 1.25261,6.8096 z m -4.85099,-11.38728 -2.57352,0.0455 c -5.99731,0.13666 -8.99596,1.75366 -8.99595,4.85099 -1e-5,1.09318 0.35679,1.99657 1.0704,2.71017 0.88061,0.86543 2.03452,1.29815 3.46173,1.29815 1.98897,0 3.71224,-0.72878 5.16983,-2.18636 1.24499,-1.29055 1.8675,-2.84681 1.86751,-4.66878 z"
         id="path3691"
         style="font-size:46.64229965px;font-variant:normal;font-stretch:normal;fill:#0066b3;stroke:#0066b3;font-family:IPAPGothic;-inkscape-font-specification:IPAPGothic" />
      <path
         d="m 399.84224,156.25893 -3.64393,0 0,-4.05388 c -2.18637,3.15808 -4.94968,4.73711 -8.28994,4.73711 -2.7785,0 -5.12428,-0.9793 -7.03734,-2.93792 -2.30782,-2.29263 -3.46173,-5.42792 -3.46173,-9.40589 0,-3.90202 1.11595,-6.99936 3.34786,-9.29202 1.92824,-1.95859 4.31197,-2.93789 7.15121,-2.93792 3.06696,3e-5 5.72399,1.29058 7.9711,3.87168 l 0,-14.46185 3.96277,0 z m -3.96277,-9.04151 0,-5.78473 c -2e-5,-1.53347 -0.94896,-3.01382 -2.84682,-4.44104 -1.33613,-0.9717 -2.80129,-1.45755 -4.39549,-1.45757 -1.79161,2e-5 -3.30991,0.62252 -4.55491,1.86751 -1.65496,1.65497 -2.48244,4.01593 -2.48243,7.08289 -1e-5,2.76332 0.68323,5.018 2.04971,6.76404 1.32091,1.65496 2.96827,2.48243 4.94208,2.48243 2.30781,0 4.27401,-1.13113 5.89861,-3.39341 0.92615,-1.26019 1.38923,-2.30022 1.38925,-3.12012 z"
         id="path3693"
         style="font-size:46.64229965px;font-variant:normal;font-stretch:normal;fill:#0066b3;stroke:#0066b3;font-family:IPAPGothic;-inkscape-font-specification:IPAPGothic" />
      <path
         d="m 418.26685,132.36841 c 3.27952,3e-5 6.04283,1.1008 8.28994,3.30231 2.3078,2.30784 3.46171,5.34445 3.46174,9.10983 -3e-5,3.62875 -1.13117,6.58185 -3.39341,8.8593 -2.21675,2.20154 -5.00283,3.30231 -8.35827,3.30231 -3.35546,0 -6.11877,-1.08558 -8.28994,-3.25676 -2.27746,-2.27745 -3.41618,-5.29128 -3.41618,-9.0415 0,-3.67428 1.15391,-6.66534 3.46173,-8.97318 2.20153,-2.20151 4.94966,-3.30228 8.24439,-3.30231 z m 0,3.07457 c -1.94344,2e-5 -3.5908,0.69844 -4.94208,2.09526 -1.71569,1.7157 -2.57353,4.09943 -2.57352,7.15121 -1e-5,3.00625 0.84265,5.35203 2.52797,7.03734 1.36647,1.36648 3.02901,2.04971 4.98763,2.04971 2.00415,0 3.68187,-0.69842 5.03318,-2.09526 1.6853,-1.68531 2.52795,-4.06905 2.52798,-7.15121 -3e-5,-2.89995 -0.85787,-5.23054 -2.57353,-6.99179 -1.39686,-1.39682 -3.0594,-2.09524 -4.98763,-2.09526 z"
         id="path3695"
         style="font-size:46.64229965px;font-variant:normal;font-stretch:normal;fill:#0066b3;stroke:#0066b3;font-family:IPAPGothic;-inkscape-font-specification:IPAPGothic" />
      <path
         d="m 449.26304,132.57338 -0.70601,3.96278 c -0.51624,-0.10626 -0.97932,-0.15941 -1.38925,-0.15943 -1.79161,2e-5 -3.27196,0.84268 -4.44104,2.52798 -1.45758,2.12564 -2.18636,3.99315 -2.18636,5.60254 l 0,11.75168 -4.00832,0 0,-23.23006 3.78058,0 -0.1822,6.9007 0.0911,0 c 1.71567,-5.04075 4.21328,-7.56113 7.49283,-7.56116 0.53139,3e-5 1.04761,0.0683 1.54867,0.20497 z"
         id="path3697"
         style="font-size:46.64229965px;font-variant:normal;font-stretch:normal;fill:#0066b3;stroke:#0066b3;font-family:IPAPGothic;-inkscape-font-specification:IPAPGothic" />
      <path
         d="m 458.32732,128.08679 -4.57769,0 0,-4.66878 4.57769,0 z m -0.29607,28.17214 -4.00832,0 0,-23.23006 4.00832,0 z"
         id="path3699"
         style="font-size:46.64229965px;font-variant:normal;font-stretch:normal;fill:#0066b3;stroke:#0066b3;font-family:IPAPGothic;-inkscape-font-specification:IPAPGothic" />
    </g>
  </g>
</svg>
