<?xml version="1.0" encoding="UTF-8" standalone="no"?>
<!-- Created with Inkscape (http://www.inkscape.org/) -->
<svg
   xmlns:dc="http://purl.org/dc/elements/1.1/"
   xmlns:cc="http://creativecommons.org/ns#"
   xmlns:rdf="http://www.w3.org/1999/02/22-rdf-syntax-ns#"
   xmlns:svg="http://www.w3.org/2000/svg"
   xmlns="http://www.w3.org/2000/svg"
   xmlns:sodipodi="http://sodipodi.sourceforge.net/DTD/sodipodi-0.dtd"
   xmlns:inkscape="http://www.inkscape.org/namespaces/inkscape"
   width="300"
   height="450"
   id="svg4203"
   sodipodi:version="0.32"
   inkscape:version="0.46"
   version="1.0"
   sodipodi:docbase="D:\Documents and Settings\Administrator\デスクトップ\看板\sign\西日本\svg"
   sodipodi:docname="Japanese Road sign (Emergency telephone).svg"
   inkscape:output_extension="org.inkscape.output.svg.inkscape">
  <defs
     id="defs4205">
    <inkscape:perspective
       sodipodi:type="inkscape:persp3d"
       inkscape:vp_x="0 : 315 : 1"
       inkscape:vp_y="0 : 1000 : 0"
       inkscape:vp_z="1500 : 315 : 1"
       inkscape:persp3d-origin="750 : 210 : 1"
       id="perspective9" />
    <inkscape:perspective
       id="perspective3163"
       inkscape:persp3d-origin="372.04724 : 350.78739 : 1"
       inkscape:vp_z="744.09448 : 526.18109 : 1"
       inkscape:vp_y="0 : 1000 : 0"
       inkscape:vp_x="0 : 526.18109 : 1"
       sodipodi:type="inkscape:persp3d" />
    <inkscape:perspective
       id="perspective2395"
       inkscape:persp3d-origin="372.04724 : 350.78739 : 1"
       inkscape:vp_z="744.09448 : 526.18109 : 1"
       inkscape:vp_y="0 : 1000 : 0"
       inkscape:vp_x="0 : 526.18109 : 1"
       sodipodi:type="inkscape:persp3d" />
    <inkscape:perspective
       id="perspective3843"
       inkscape:persp3d-origin="227.5 : 145 : 1"
       inkscape:vp_z="455 : 217.5 : 1"
       inkscape:vp_y="0 : 1000 : 0"
       inkscape:vp_x="0 : 217.5 : 1"
       sodipodi:type="inkscape:persp3d" />
    <inkscape:perspective
       id="perspective2404"
       inkscape:persp3d-origin="372.04724 : 350.78739 : 1"
       inkscape:vp_z="744.09448 : 526.18109 : 1"
       inkscape:vp_y="0 : 1000 : 0"
       inkscape:vp_x="0 : 526.18109 : 1"
       sodipodi:type="inkscape:persp3d" />
    <inkscape:perspective
       id="perspective2401"
       inkscape:persp3d-origin="372.04724 : 350.78739 : 1"
       inkscape:vp_z="744.09448 : 526.18109 : 1"
       inkscape:vp_y="0 : 1000 : 0"
       inkscape:vp_x="0 : 526.18109 : 1"
       sodipodi:type="inkscape:persp3d" />
    <inkscape:perspective
       id="perspective2403"
       inkscape:persp3d-origin="372.04724 : 350.78739 : 1"
       inkscape:vp_z="744.09448 : 526.18109 : 1"
       inkscape:vp_y="0 : 1000 : 0"
       inkscape:vp_x="0 : 526.18109 : 1"
       sodipodi:type="inkscape:persp3d" />
    <inkscape:perspective
       id="perspective2405"
       inkscape:persp3d-origin="372.04724 : 350.78739 : 1"
       inkscape:vp_z="744.09448 : 526.18109 : 1"
       inkscape:vp_y="0 : 1000 : 0"
       inkscape:vp_x="0 : 526.18109 : 1"
       sodipodi:type="inkscape:persp3d" />
  </defs>
  <sodipodi:namedview
     id="base"
     pagecolor="#ffffff"
     bordercolor="#666666"
     borderopacity="1.0"
     gridtolerance="10000"
     guidetolerance="10"
     objecttolerance="10"
     inkscape:pageopacity="0.0"
     inkscape:pageshadow="2"
     inkscape:zoom="1.1288889"
     inkscape:cx="150"
     inkscape:cy="225"
     inkscape:document-units="px"
     inkscape:current-layer="layer1"
     width="1500px"
     height="630px"
     inkscape:window-width="1024"
     inkscape:window-height="712"
     inkscape:window-x="-4"
     inkscape:window-y="-4"
     showgrid="false"
     showguides="true"
     inkscape:guide-bbox="true" />
  <metadata
     id="metadata4208">
    <rdf:RDF>
      <cc:Work
         rdf:about="">
        <dc:format>image/svg+xml</dc:format>
        <dc:type
           rdf:resource="http://purl.org/dc/dcmitype/StillImage" />
      </cc:Work>
    </rdf:RDF>
  </metadata>
  <g
     inkscape:label="sign"
     inkscape:groupmode="layer"
     id="layer1"
     transform="translate(0,46.915421)">
    <rect
       style="fill:#005d35;fill-opacity:1;stroke:none;stroke-width:1;stroke-linecap:butt;stroke-linejoin:round;stroke-miterlimit:4;stroke-dasharray:none;stroke-opacity:1"
       id="rect_bg"
       width="300"
       height="450"
       x="0"
       y="-46.915421" />
    <rect
       style="opacity:1;fill:#ffffff;fill-opacity:1;fill-rule:nonzero;stroke:none;stroke-width:0.01;stroke-linecap:butt;stroke-linejoin:miter;marker:none;marker-start:none;marker-mid:none;marker-end:none;stroke-miterlimit:4;stroke-dasharray:none;stroke-dashoffset:0;stroke-opacity:1;visibility:visible;display:inline;overflow:visible;enable-background:accumulate"
       id="rect3169"
       width="242.93675"
       height="247.48903"
       x="28.564743"
       y="6.7735524" />
    <path
       style="font-size:67px;font-style:normal;font-variant:normal;font-weight:normal;font-stretch:normal;text-align:start;line-height:125%;writing-mode:lr-tb;text-anchor:start;fill:#ffffff;fill-opacity:1;fill-rule:nonzero;stroke:none;stroke-width:0.01;stroke-linecap:butt;stroke-linejoin:miter;stroke-miterlimit:4;stroke-dashoffset:0;stroke-opacity:1;marker:none;marker-start:none;marker-mid:none;marker-end:none;visibility:visible;display:inline;overflow:visible;enable-background:accumulate;font-family:GD-HighwayGothicJA-OTF;-inkscape-font-specification:GD-HighwayGothicJA-OTF"
       d="M 53.077428,299.94434 L 53.077428,364.9335 L 59.442346,364.9335 L 59.442346,349.6577 L 77.264116,349.6577 L 77.264116,343.49378 L 59.442346,343.49378 L 59.442346,334.58289 L 77.264116,334.58289 L 77.264116,328.21797 L 59.442346,328.21797 L 59.442346,318.77109 L 77.264116,318.77109 L 77.264116,312.67417 L 59.442346,312.67417 L 59.442346,299.94434 L 53.077428,299.94434 z M 37.33263,299.94434 L 37.33263,312.67417 L 19.041866,312.67417 L 19.041866,318.77109 L 37.33263,318.77109 L 37.33263,328.21797 L 19.041866,328.21797 L 19.041866,334.58289 L 37.33263,334.58289 L 37.33263,340.41182 L 17.567885,344.02977 L 18.505873,350.19369 L 37.265631,346.70973 C 36.800803,349.74704 35.619945,352.51633 33.723051,355.01763 C 31.826121,357.51893 30.193018,359.41724 28.82374,360.71255 L 33.312682,364.9335 C 34.386716,363.91238 35.707673,362.46321 37.275555,360.586 C 38.843393,358.70878 40.243756,356.50029 41.476649,353.96053 C 42.709489,351.42077 43.360456,348.64651 43.429552,345.63775 L 43.429552,299.94434 L 37.33263,299.94434 z M 145.93909,308.65422 L 136.02322,308.65422 L 138.56919,302.02131 L 132.67327,299.67634 L 129.32331,308.65422 L 118.46945,308.65422 L 118.46945,299.67634 L 112.37253,299.67634 L 112.37253,308.65422 L 101.51867,308.65422 L 98.16871,299.67634 L 92.272786,302.02131 L 94.818753,308.65422 L 84.835881,308.65422 L 84.835881,319.50808 L 91.2008,319.50808 L 91.2008,314.75115 L 139.77517,314.75115 L 139.77517,319.50808 L 145.93909,319.50808 L 145.93909,308.65422 z M 141.24916,339.94282 L 118.46945,339.94282 L 118.46945,336.32487 L 136.15722,336.32487 L 136.15722,318.3691 L 94.684755,318.3691 L 94.684755,336.32487 L 112.37253,336.32487 L 112.37253,339.94282 L 89.59282,339.94282 L 89.59282,363.52652 L 95.957738,363.52652 L 95.957738,346.10674 L 112.37253,346.10674 L 112.37253,364.7325 L 118.46945,364.7325 L 118.46945,346.10674 L 134.88424,346.10674 L 134.88424,356.22361 C 134.88418,356.57955 134.88418,356.83917 134.88424,357.00248 C 134.88418,357.16579 134.88418,357.30816 134.88424,357.4296 C 134.79346,357.4296 134.72366,357.4296 134.67486,357.4296 C 134.62596,357.4296 134.53942,357.4296 134.41524,357.4296 L 129.25631,357.4296 L 129.25631,363.79451 L 134.41524,363.79451 C 137.68977,363.5963 139.68299,362.56898 140.39492,360.71255 C 141.10672,358.85612 141.39147,357.3598 141.24916,356.22361 L 141.24916,339.94282 z M 130.0603,324.46602 L 130.0603,330.16095 L 100.78168,330.16095 L 100.78168,324.46602 L 130.0603,324.46602 z M 150.89789,308.98922 L 179.37253,308.98922 L 179.37253,311.33419 L 152.23788,311.33419 L 152.23788,326.409 L 158.2678,326.409 L 158.2678,317.36411 L 179.37253,317.36411 L 179.37253,326.409 L 185.40245,326.409 L 185.40245,317.36411 L 206.50718,317.36411 L 206.50718,326.409 L 212.5371,326.409 L 212.5371,311.33419 L 185.40245,311.33419 L 185.40245,308.98922 L 213.87708,308.98922 L 213.87708,302.9593 L 150.89789,302.9593 L 150.89789,308.98922 z M 161.28276,320.37907 L 161.28276,326.409 L 176.35757,326.409 L 176.35757,320.37907 L 161.28276,320.37907 z M 188.41741,320.37907 L 188.41741,326.409 L 203.49222,326.409 L 203.49222,320.37907 L 188.41741,320.37907 z M 212.8721,363.92851 L 212.8721,357.89859 L 188.08241,357.89859 C 187.23791,357.89161 186.58187,357.65432 186.11431,357.18672 C 185.64668,356.71913 185.40939,356.06309 185.40245,355.21862 L 185.40245,353.87864 L 209.85713,353.87864 L 209.85713,328.41897 L 154.58285,328.41897 L 154.58285,353.87864 L 179.37253,353.87864 L 179.37253,355.55362 C 179.42833,357.95442 180.2379,359.93648 181.80125,361.49979 C 183.36452,363.0631 185.34658,363.87267 187.74742,363.92851 L 212.8721,363.92851 z M 160.61277,334.44889 L 179.37253,334.44889 L 179.37253,338.13384 L 160.61277,338.13384 L 160.61277,334.44889 z M 203.82721,334.44889 L 203.82721,338.13384 L 185.40245,338.13384 L 185.40245,334.44889 L 203.82721,334.44889 z M 179.37253,344.16377 L 179.37253,347.84872 L 160.61277,347.84872 L 160.61277,344.16377 L 179.37253,344.16377 z M 185.40245,347.84872 L 185.40245,344.16377 L 203.82721,344.16377 L 203.82721,347.84872 L 185.40245,347.84872 z M 255.68541,303.89729 L 245.70254,303.89729 L 245.70254,310.2622 L 255.68541,310.2622 C 256.09294,310.26504 256.61777,310.25946 257.25989,310.24545 C 257.90192,310.23154 258.62774,310.19246 259.43736,310.12821 L 259.43736,320.17808 L 245.70254,320.17808 L 245.70254,326.60999 L 259.43736,326.60999 L 259.43736,336.72686 L 245.90353,336.72686 L 245.90353,363.79451 L 277.92912,363.79451 L 277.92912,336.72686 L 265.53428,336.72686 L 265.53428,326.60999 L 281.41308,326.60999 L 281.41308,320.17808 L 265.53428,320.17808 L 265.53428,309.52521 C 267.95318,309.20283 270.45168,308.70871 273.02981,308.04286 C 275.60782,307.3771 278.02258,306.46424 280.27409,305.30427 L 277.39313,299.60934 C 274.31948,301.22435 270.78528,302.34938 266.79051,302.98442 C 262.79564,303.61957 259.09394,303.92386 255.68541,303.89729 L 255.68541,303.89729 z M 241.34759,339.74182 L 220.97985,339.74182 L 220.97985,363.79451 L 241.34759,363.79451 L 241.34759,339.74182 z M 234.98267,346.10674 L 234.98267,357.63059 L 227.14377,357.63059 L 227.14377,346.10674 L 234.98267,346.10674 z M 271.7652,343.02478 L 271.7652,357.63059 L 252.13445,357.63059 L 252.13445,343.02478 L 271.7652,343.02478 z M 222.25284,329.89295 L 222.25284,336.25787 L 241.41459,336.25787 L 241.41459,329.89295 L 222.25284,329.89295 z M 222.25284,320.17808 L 222.25284,326.60999 L 241.41459,326.60999 L 241.41459,320.17808 L 222.25284,320.17808 z M 218.03189,310.5302 L 218.03189,316.69412 L 241.41459,316.69412 L 241.41459,310.5302 L 218.03189,310.5302 z M 222.25284,301.68631 L 222.25284,308.11823 L 241.41459,308.11823 L 241.41459,301.68631 L 222.25284,301.68631 z"
       id="text2408" />
    <path
       style="font-size:230px;font-style:normal;font-variant:normal;font-weight:normal;font-stretch:normal;text-align:start;line-height:125%;writing-mode:lr-tb;text-anchor:start;fill:#000000;fill-opacity:1;fill-rule:nonzero;stroke:none;stroke-width:0.01;stroke-linecap:butt;stroke-linejoin:miter;stroke-miterlimit:4;stroke-dashoffset:0;stroke-opacity:1;marker:none;marker-start:none;marker-mid:none;marker-end:none;visibility:visible;display:inline;overflow:visible;enable-background:accumulate;font-family:GD-HighwayGothicJA-OTF;-inkscape-font-specification:GD-HighwayGothicJA-OTF"
       d="M 100.92796,29.908414 C 101.69455,29.439021 102.34621,29.055693 102.88293,28.758429 C 103.41952,28.461533 104.07118,28.308202 104.83791,28.298435 L 121.85769,84.417713 L 121.1677,84.417713 C 116.70184,86.21948 114.01855,89.286104 113.11781,93.617594 C 112.21691,97.949322 112.98357,102.39593 115.41778,106.95742 L 133.35755,138.69701 L 134.04754,139.617 L 151.98731,171.1266 C 154.56028,175.27616 157.92398,178.07446 162.07842,179.52148 C 166.23261,180.96858 170.22881,180.31692 174.06702,177.56651 L 174.75701,176.64653 L 213.85651,220.57596 C 213.4203,221.02636 212.96989,221.44802 212.50528,221.84094 C 212.04032,222.23384 211.41741,222.6555 210.63655,223.10593 C 208.20437,225.07083 203.17851,226.86537 195.55896,228.48956 C 187.93909,230.11372 178.97773,229.43793 168.67486,226.46218 C 158.37172,223.48641 147.97928,216.08108 137.49749,204.24617 C 133.81744,199.6576 129.6775,193.78274 125.07765,186.62158 C 120.47763,179.46047 116.33768,172.78488 112.65781,166.5948 C 108.97779,160.40481 106.67782,156.47215 105.7579,154.79681 C 104.7484,153.14998 102.5251,149.18608 99.087987,142.90511 C 95.650747,136.62427 91.996352,129.62783 88.12479,121.91574 C 84.253122,114.20384 81.160944,107.37777 78.848248,101.43749 C 74.116231,86.784535 73.128096,74.333474 75.88384,64.084272 C 78.639501,53.835366 82.711296,45.847946 88.099236,40.121986 C 93.48707,34.39637 97.763308,30.99185 100.92796,29.908414 L 100.92796,29.908414 z M 186.25686,166.98665 C 186.25671,166.88128 186.65921,166.45962 187.46435,165.72166 C 188.26919,164.9838 189.47667,164.56214 191.0868,164.45668 C 191.48914,164.46152 192.17913,164.68194 193.15678,165.11793 C 194.1341,165.55401 195.05409,166.17691 195.91674,166.98665 C 197.8176,168.92747 201.19656,172.5847 206.05364,177.95836 C 210.91037,183.33209 215.49895,188.43745 219.81939,193.27446 C 224.13945,198.11151 226.4451,200.69542 226.73634,201.02621 C 227.09552,201.07893 227.81426,202.0085 228.89256,203.81493 C 229.97048,205.62137 229.25174,207.98842 226.73634,210.91608 C 224.80993,212.07086 223.14245,213.26876 221.73391,214.50979 C 220.32499,215.75081 219.00251,217.00621 217.76646,218.27599 L 177.97697,174.34655 L 186.25686,166.98665 z M 119.55772,22.548509 C 119.93618,22.510368 120.44409,22.357037 121.08146,22.088515 C 121.71865,21.820373 122.28406,21.667042 122.77768,21.628521 C 125.13026,21.839543 126.69232,22.682865 127.46387,24.158489 C 128.23522,25.634488 128.5898,26.47781 128.52761,26.688456 C 128.64819,27.103208 129.58238,30.414027 131.33017,36.620923 C 133.07776,42.82817 134.91489,49.444126 136.84157,56.468812 C 138.76805,63.49381 140.06,68.440161 140.71745,71.307881 C 141.24921,74.460895 140.76047,76.607532 139.25121,77.747799 C 137.74175,78.888335 136.85052,79.424994 136.5775,79.357778 L 125.99764,82.577736 L 108.97786,25.768468 C 110.52547,25.433239 112.08753,25.011577 113.66405,24.503481 C 115.24041,23.995759 117.20496,23.344103 119.55772,22.548509 L 119.55772,22.548509 z"
       id="text2413" />
  </g>
</svg>
