<?xml version="1.0" encoding="UTF-8" standalone="no"?>
<!-- Created with Inkscape (http://www.inkscape.org/) -->
<svg
   xmlns:dc="http://purl.org/dc/elements/1.1/"
   xmlns:cc="http://creativecommons.org/ns#"
   xmlns:rdf="http://www.w3.org/1999/02/22-rdf-syntax-ns#"
   xmlns:svg="http://www.w3.org/2000/svg"
   xmlns="http://www.w3.org/2000/svg"
   xmlns:sodipodi="http://sodipodi.sourceforge.net/DTD/sodipodi-0.dtd"
   xmlns:inkscape="http://www.inkscape.org/namespaces/inkscape"
   width="500"
   height="280"
   id="svg4203"
   sodipodi:version="0.32"
   inkscape:version="0.46"
   version="1.0"
   sodipodi:docbase="D:\Documents and Settings\Administrator\デスクトップ\看板\sign\西日本\svg"
   sodipodi:docname="Japanese Road sign (Direction and Lane B).svg"
   inkscape:output_extension="org.inkscape.output.svg.inkscape">
  <defs
     id="defs4205">
    <inkscape:perspective
       sodipodi:type="inkscape:persp3d"
       inkscape:vp_x="0 : 315 : 1"
       inkscape:vp_y="0 : 1000 : 0"
       inkscape:vp_z="1500 : 315 : 1"
       inkscape:persp3d-origin="750 : 210 : 1"
       id="perspective9" />
    <inkscape:perspective
       id="perspective3163"
       inkscape:persp3d-origin="372.04724 : 350.78739 : 1"
       inkscape:vp_z="744.09448 : 526.18109 : 1"
       inkscape:vp_y="0 : 1000 : 0"
       inkscape:vp_x="0 : 526.18109 : 1"
       sodipodi:type="inkscape:persp3d" />
    <inkscape:perspective
       id="perspective2395"
       inkscape:persp3d-origin="372.04724 : 350.78739 : 1"
       inkscape:vp_z="744.09448 : 526.18109 : 1"
       inkscape:vp_y="0 : 1000 : 0"
       inkscape:vp_x="0 : 526.18109 : 1"
       sodipodi:type="inkscape:persp3d" />
    <inkscape:perspective
       id="perspective3226"
       inkscape:persp3d-origin="372.04724 : 350.78739 : 1"
       inkscape:vp_z="744.09448 : 526.18109 : 1"
       inkscape:vp_y="0 : 1000 : 0"
       inkscape:vp_x="0 : 526.18109 : 1"
       sodipodi:type="inkscape:persp3d" />
  </defs>
  <sodipodi:namedview
     id="base"
     pagecolor="#ffffff"
     bordercolor="#666666"
     borderopacity="1.0"
     gridtolerance="10000"
     guidetolerance="10"
     objecttolerance="10"
     inkscape:pageopacity="0.0"
     inkscape:pageshadow="2"
     inkscape:zoom="1.196"
     inkscape:cx="250"
     inkscape:cy="140"
     inkscape:document-units="px"
     inkscape:current-layer="layer1"
     width="1500px"
     height="630px"
     inkscape:window-width="1024"
     inkscape:window-height="712"
     inkscape:window-x="-4"
     inkscape:window-y="-4"
     showgrid="false" />
  <metadata
     id="metadata4208">
    <rdf:RDF>
      <cc:Work
         rdf:about="">
        <dc:format>image/svg+xml</dc:format>
        <dc:type
           rdf:resource="http://purl.org/dc/dcmitype/StillImage" />
      </cc:Work>
    </rdf:RDF>
  </metadata>
  <g
     inkscape:label="sign"
     inkscape:groupmode="layer"
     id="layer1">
    <rect
       style="fill:#005d35;fill-opacity:1;stroke:none;stroke-width:1;stroke-linecap:butt;stroke-linejoin:round;stroke-miterlimit:4;stroke-dasharray:none;stroke-opacity:1"
       id="rect_bg"
       width="500"
       height="280"
       x="0"
       y="5.3290705e-15" />
    <path
       style="font-size:144px;font-style:normal;font-variant:normal;font-weight:normal;font-stretch:normal;text-align:start;line-height:125%;writing-mode:lr-tb;text-anchor:start;fill:#ffffff;fill-opacity:1;stroke:none;stroke-width:1px;stroke-linecap:butt;stroke-linejoin:miter;stroke-opacity:1;font-family:GD-HighwayGothicJA-OTF;-inkscape-font-specification:GD-HighwayGothicJA-OTF"
       d="M 260.49991,192.81591 L 235.07319,192.81591 L 235.07319,220.54419 L 194.63154,220.54419 L 247.78655,267.12332 L 300.94156,220.54419 L 260.49991,220.54419 L 260.49991,192.81591 z"
       id="text2401" />
    <path
       style="font-size:80px;font-style:normal;font-variant:normal;font-weight:normal;font-stretch:normal;text-align:start;line-height:125%;writing-mode:lr-tb;text-anchor:start;fill:#ffffff;fill-opacity:1;stroke:none;stroke-width:1px;stroke-linecap:butt;stroke-linejoin:miter;stroke-opacity:1;font-family:GD-HighwayGothicJA-OTF;-inkscape-font-specification:GD-HighwayGothicJA-OTF"
       d="M 135.29128,37.931424 L 135.29128,45.131331 L 165.21089,45.131331 C 161.67424,51.951286 157.14764,58.351197 151.63106,64.331084 C 146.11445,70.31103 140.18787,75.270961 133.85129,79.210893 L 137.45125,85.370813 C 143.70616,81.505874 149.53607,76.815939 154.94102,71.300994 C 160.34592,65.786093 164.99586,59.836176 168.89084,53.451224 L 168.89084,82.330853 L 148.09111,82.330853 L 148.09111,89.53076 L 168.89084,89.53076 L 168.89084,101.53061 L 176.09075,101.53061 L 176.09075,89.53076 L 196.89048,89.53076 L 196.89048,82.330853 L 176.09075,82.330853 L 176.09075,53.451224 C 179.98565,59.836176 184.63559,65.786093 190.04057,71.300994 C 195.44544,76.815939 201.27536,81.505874 207.53035,85.370813 L 211.1303,79.210893 C 204.79364,75.270963 198.86706,70.311032 193.35053,64.331084 C 187.83388,58.351195 183.30727,51.951284 179.7707,45.131331 L 209.69032,45.131331 L 209.69032,37.931424 L 176.09075,37.931424 L 176.09075,24.731594 L 168.89084,24.731594 L 168.89084,37.931424 L 135.29128,37.931424 z"
       id="path3257" />
    <path
       id="path3255"
       style="font-size:80px;font-style:normal;font-variant:normal;font-weight:normal;font-stretch:normal;text-align:start;line-height:125%;writing-mode:lr-tb;text-anchor:start;fill:#ffffff;fill-opacity:1;stroke:none;stroke-width:1px;stroke-linecap:butt;stroke-linejoin:miter;stroke-opacity:1;font-family:GD-HighwayGothicJA-OTF;-inkscape-font-specification:GD-HighwayGothicJA-OTF"
       d="M 316.05439,29.131537 L 316.05439,60.81113 L 335.33409,60.81113 L 335.33409,102.0106 L 342.61399,102.0106 L 342.61399,60.81113 L 361.89375,60.81113 L 361.89375,29.131537 L 343.49399,29.131537 C 343.61229,28.564943 343.69559,28.058284 343.74399,27.611557 C 343.79229,27.164962 343.81559,26.8183 343.81399,26.57157 L 343.81399,24.331599 L 336.45409,24.331599 L 336.45409,26.57157 C 336.47739,26.613303 336.43069,26.889966 336.31409,27.401559 C 336.19739,27.913285 335.87069,28.409944 335.33409,28.891541 C 335.25409,28.971604 335.17409,29.051603 335.09409,29.131537 L 316.05439,29.131537 z M 354.53385,36.811439 L 354.53385,41.291381 L 323.41429,41.291381 L 323.41429,36.811439 L 354.53385,36.811439 z M 316.05439,66.731053 L 316.05439,74.330956 L 324.85429,74.330956 C 324.59089,78.940911 323.77759,82.940855 322.41429,86.330801 C 321.05089,89.720761 319.03759,92.68072 316.37439,95.210687 L 315.25439,96.650668 L 320.61429,102.0106 L 321.73429,100.57062 C 325.40089,96.948993 328.10749,92.732384 329.85419,87.920779 C 331.60079,83.109184 332.46739,77.352598 332.45419,70.651003 L 332.45419,66.731053 L 316.05439,66.731053 z M 345.49395,66.731053 L 345.49395,70.651003 C 345.48055,77.3526 346.34715,83.109186 348.09385,87.92078 C 349.84045,92.732385 352.54715,96.948993 356.21375,100.57062 L 357.65375,102.0106 L 362.69375,96.650668 L 361.57375,95.210687 C 358.91035,92.680721 356.89705,89.720763 355.53385,86.330801 C 354.17045,82.940854 353.35705,78.940909 353.09385,74.330956 L 361.89375,74.330956 L 361.89375,66.731053 L 345.49395,66.731053 z M 306.21449,61.371122 L 306.21449,63.371097 L 297.49459,63.371097 C 299.83459,60.999492 302.27449,58.122865 304.81449,54.741207 C 307.35449,51.359627 309.87439,47.543013 312.37439,43.291355 L 305.89449,39.291407 C 305.32949,40.289779 304.75949,41.253099 304.18449,42.181369 C 303.60949,43.109742 303.05949,44.013063 302.53449,44.891335 L 297.41459,39.931398 C 299.43959,36.638165 300.90949,33.304878 301.82449,29.931527 C 302.73949,26.558303 303.18949,24.664996 303.17449,24.2516 L 294.85459,24.2516 C 294.91629,24.591664 294.59299,26.23164 293.88459,29.171536 C 293.17629,32.11156 291.71299,35.03152 289.49469,37.931424 L 287.25469,40.731388 L 298.13459,51.131254 C 294.88629,55.326237 292.16299,58.376195 289.96469,60.281136 C 287.76639,62.186144 286.38309,63.216129 285.81479,63.371097 L 285.57479,63.371097 L 285.57479,70.651003 L 297.41459,70.651003 L 297.41459,102.0106 L 305.01449,102.0106 L 305.01449,85.290814 L 313.25439,85.290814 L 313.25439,78.010908 L 305.01449,78.010908 L 305.01449,70.651003 L 313.81439,70.651003 L 313.81439,61.371122 L 306.21449,61.371122 z M 285.81479,74.330956 L 285.81479,97.770654 L 293.17469,97.770654 L 293.17469,74.330956 L 285.81479,74.330956 z M 354.53385,53.211227 L 323.41429,53.211227 L 323.41429,48.651286 L 354.53385,48.651286 L 354.53385,53.211227 z" />
    <path
       style="font-size:45px;font-style:normal;font-variant:normal;font-weight:normal;font-stretch:normal;text-align:start;line-height:125%;writing-mode:lr-tb;text-anchor:start;fill:#ffffff;fill-opacity:1;stroke:none;stroke-width:1px;stroke-linecap:butt;stroke-linejoin:miter;stroke-opacity:1;font-family:GD-HighwayGothicJA-OTF;-inkscape-font-specification:GD-HighwayGothicJA-OTF"
       d="M 72.258358,135.71242 L 72.258358,141.47235 L 59.568521,141.47235 L 59.568521,177.65188 L 52.548612,177.65188 L 52.548612,141.47235 L 39.858775,141.47235 L 39.858775,135.71242 L 72.258358,135.71242 z M 104.70272,135.71242 L 111.72263,135.71242 L 111.72263,177.65188 L 104.70272,177.65188 L 104.70272,158.61713 L 86.252958,158.61713 L 86.252958,177.65188 L 79.278048,177.65188 L 79.278048,135.71242 L 86.252958,135.71242 L 86.252958,152.9022 L 104.70272,152.9022 L 104.70272,135.71242 z M 150.23915,168.112 C 150.18568,170.43885 150.29255,172.31008 150.55977,173.72568 C 150.82692,175.14129 151.57504,176.45002 152.80412,177.65188 L 145.15422,177.65188 C 144.64888,177.35751 144.16326,176.76501 143.69736,175.8744 C 143.2314,174.98379 142.98203,173.67131 142.94925,171.93695 C 142.94922,171.87807 142.94922,171.43085 142.94925,170.59531 C 142.94922,169.75976 142.94922,168.88922 142.94925,167.98367 C 142.94922,167.07813 142.94922,166.49092 142.94925,166.22203 C 142.88922,164.13331 142.28923,162.50584 141.14927,161.33959 C 140.00926,160.17337 138.68928,159.58088 137.18932,159.56211 L 127.64944,159.56211 L 127.64944,177.65188 L 120.67453,177.65188 L 120.67453,135.71242 L 138.4943,135.71242 C 141.79892,135.71902 144.70701,136.66213 147.21856,138.54176 C 149.73006,140.42146 151.05192,143.19829 151.18414,146.87228 C 151.11848,149.48227 150.33849,151.61974 148.84417,153.28469 C 147.34978,154.94969 145.53481,156.14217 143.39924,156.86215 C 146.40105,157.91871 148.31727,159.51807 149.14792,161.66021 C 149.9785,163.80238 150.34224,165.95298 150.23915,168.112 L 150.23915,168.112 z M 137.50432,141.47235 C 135.65932,141.47238 133.74685,141.47238 131.76689,141.47235 C 129.7869,141.47238 128.41442,141.47238 127.64944,141.47235 L 127.64944,153.84719 C 128.63098,153.84721 130.09908,153.84721 132.05376,153.84719 C 134.00841,153.84721 135.82526,153.84721 137.50432,153.84719 C 139.03052,153.84158 140.4555,153.30159 141.77926,152.22721 C 143.10297,151.15287 143.80796,149.57789 143.89423,147.50227 C 143.82764,145.43982 143.16203,143.91734 141.89738,142.93483 C 140.63269,141.95237 139.16833,141.46488 137.50432,141.47235 L 137.50432,141.47235 z M 183.96531,135.71242 L 190.98522,135.71242 L 190.98522,164.91704 C 190.99518,166.99841 190.44519,169.08061 189.33524,171.16363 C 188.22522,173.24666 186.49524,174.99219 184.1453,176.40023 C 181.79531,177.80826 178.76535,178.54047 175.05542,178.59687 C 171.36017,178.54048 168.34077,177.80826 165.9972,176.40023 C 163.65361,174.99219 161.92753,173.24666 160.81894,171.16363 C 159.71033,169.08061 159.1609,166.99841 159.17063,164.91704 L 159.17063,135.71242 L 166.14554,135.71242 L 166.14554,164.91704 C 166.21021,167.33577 167.08207,169.25949 168.76113,170.68822 C 170.44015,172.11695 172.53825,172.84819 175.05542,172.88194 C 177.59224,172.84819 179.69596,172.11695 181.36659,170.68822 C 183.03716,169.25949 183.9034,167.33577 183.96531,164.91704 L 183.96531,135.71242 z M 252.87359,135.71242 L 252.87359,141.47235 L 240.18376,141.47235 L 240.18376,177.65188 L 233.16385,177.65188 L 233.16385,141.47235 L 220.47401,141.47235 L 220.47401,135.71242 L 252.87359,135.71242 z M 289.4579,168.112 C 289.40443,170.43885 289.5113,172.31008 289.77852,173.72568 C 290.04567,175.14129 290.79379,176.45002 292.02287,177.65188 L 284.37297,177.65188 C 283.86763,177.35751 283.38201,176.76501 282.91611,175.8744 C 282.45015,174.98379 282.20078,173.67131 282.168,171.93695 C 282.16797,171.87807 282.16797,171.43085 282.168,170.59531 C 282.16797,169.75976 282.16797,168.88922 282.168,167.98367 C 282.16797,167.07813 282.16797,166.49092 282.168,166.22203 C 282.10797,164.13331 281.50798,162.50584 280.36802,161.33959 C 279.22801,160.17337 277.90803,159.58088 276.40807,159.56211 L 266.86819,159.56211 L 266.86819,177.65188 L 259.89328,177.65188 L 259.89328,135.71242 L 277.71305,135.71242 C 281.01767,135.71902 283.92576,136.66213 286.43731,138.54176 C 288.94881,140.42146 290.27067,143.19829 290.40289,146.87228 C 290.33723,149.48227 289.55724,151.61974 288.06292,153.28469 C 286.56853,154.94969 284.75356,156.14217 282.61799,156.86215 C 285.6198,157.91871 287.53602,159.51807 288.36667,161.66021 C 289.19725,163.80238 289.56099,165.95298 289.4579,168.112 L 289.4579,168.112 z M 276.72307,141.47235 C 274.87807,141.47238 272.9656,141.47238 270.98564,141.47235 C 269.00565,141.47238 267.63317,141.47238 266.86819,141.47235 L 266.86819,153.84719 C 267.84973,153.84721 269.31783,153.84721 271.27251,153.84719 C 273.22716,153.84721 275.04401,153.84721 276.72307,153.84719 C 278.24927,153.84158 279.67425,153.30159 280.99801,152.22721 C 282.32172,151.15287 283.02671,149.57789 283.11298,147.50227 C 283.04639,145.43982 282.38078,143.91734 281.11613,142.93483 C 279.85144,141.95237 278.38708,141.46488 276.72307,141.47235 L 276.72307,141.47235 z M 327.324,177.65188 L 324.12904,168.112 L 306.98426,168.112 L 303.78931,177.65188 L 296.4994,177.65188 L 311.43921,135.71242 L 319.6741,135.71242 L 334.65891,177.65188 L 327.324,177.65188 z M 309.05424,162.39708 L 322.05907,162.39708 L 315.57915,143.18232 L 309.05424,162.39708 z M 370.56619,141.47235 L 348.60647,141.47235 L 348.60647,152.9022 L 367.68623,152.9022 L 367.68623,158.61713 L 348.60647,158.61713 L 348.60647,177.65188 L 341.63156,177.65188 L 341.63156,135.71242 L 370.56619,135.71242 L 370.56619,141.47235 z M 406.51346,141.47235 L 384.55374,141.47235 L 384.55374,152.9022 L 403.63349,152.9022 L 403.63349,158.61713 L 384.55374,158.61713 L 384.55374,177.65188 L 377.57883,177.65188 L 377.57883,135.71242 L 406.51346,135.71242 L 406.51346,141.47235 z M 420.501,177.65188 L 413.52609,177.65188 L 413.52609,135.71242 L 420.501,135.71242 L 420.501,177.65188 z M 447.25407,134.76743 C 450.75289,134.81692 453.71007,135.53302 456.12562,136.91574 C 458.54111,138.29853 460.39164,140.05129 461.67722,142.174 C 462.96272,144.29678 463.65993,146.49286 463.76886,148.76225 L 456.47895,148.76225 C 456.33361,146.74387 455.51049,144.88577 454.00961,143.18795 C 452.50866,141.49019 450.25682,140.58833 447.25407,140.48236 C 443.84253,140.54333 441.09194,142.01893 439.0023,144.90918 C 436.91263,147.79948 435.83827,151.7388 435.77922,156.72715 C 435.83827,161.6921 436.91263,165.61079 439.0023,168.48325 C 441.09194,171.35571 443.84253,172.82194 447.25407,172.88194 C 450.25682,172.78257 452.50866,171.86758 454.00961,170.13698 C 455.51049,168.40638 456.33361,166.45641 456.47895,164.28705 L 463.76886,164.28705 C 463.65993,166.6737 462.96272,168.95033 461.67722,171.11697 C 460.39164,173.2836 458.54111,175.06025 456.12562,176.4469 C 453.71007,177.83354 450.75289,178.5502 447.25407,178.59687 C 443.40604,178.5377 440.0572,177.49105 437.20753,175.45691 C 434.35783,173.42277 432.14564,170.75614 430.57095,167.45701 C 428.99624,164.1579 428.19736,160.58128 428.17431,156.72715 C 428.19737,152.84361 428.99624,149.24588 430.57095,145.93395 C 432.14564,142.62208 434.35783,139.94768 437.20753,137.91072 C 440.0572,135.87384 443.40604,134.82608 447.25407,134.76743 L 447.25407,134.76743 z"
       id="text3236" />
  </g>
</svg>
