<?xml version="1.0" encoding="UTF-8" standalone="no"?>
<!-- Created with Inkscape (http://www.inkscape.org/) -->

<svg
   xmlns:dc="http://purl.org/dc/elements/1.1/"
   xmlns:cc="http://creativecommons.org/ns#"
   xmlns:rdf="http://www.w3.org/1999/02/22-rdf-syntax-ns#"
   xmlns:svg="http://www.w3.org/2000/svg"
   xmlns="http://www.w3.org/2000/svg"
   xmlns:sodipodi="http://sodipodi.sourceforge.net/DTD/sodipodi-0.dtd"
   xmlns:inkscape="http://www.inkscape.org/namespaces/inkscape"
   version="1.1"
   width="1005.4"
   height="1005.4"
   id="svg2"
   xml:space="preserve"
   inkscape:version="0.48.4 r9939"
   sodipodi:docname="AJAX1.svg"><sodipodi:namedview
     pagecolor="#ffffff"
     bordercolor="#666666"
     borderopacity="1"
     objecttolerance="10"
     gridtolerance="10"
     guidetolerance="10"
     inkscape:pageopacity="0"
     inkscape:pageshadow="2"
     inkscape:window-width="1280"
     inkscape:window-height="1004"
     id="namedview28"
     showgrid="false"
     fit-margin-top="0.2"
     fit-margin-left="0.2"
     fit-margin-right="0.2"
     fit-margin-bottom="0.2"
     inkscape:zoom="0.36488852"
     inkscape:cx="169.1864"
     inkscape:cy="57.518261"
     inkscape:window-x="-8"
     inkscape:window-y="-8"
     inkscape:window-maximized="1"
     inkscape:current-layer="svg2" /><metadata
     id="metadata8"><rdf:RDF><cc:Work
         rdf:about=""><dc:format>image/svg+xml</dc:format><dc:type
           rdf:resource="http://purl.org/dc/dcmitype/StillImage" /></cc:Work></rdf:RDF></metadata><defs
     id="defs6" /><path
     inkscape:connector-curvature="0"
     style="fill:#ffffff;fill-opacity:1;stroke:#ed1c23;stroke-width:5;stroke-miterlimit:4;stroke-opacity:1;stroke-dasharray:none"
     d="M 2.7,502.70001 C 2.7,226.55763 226.55763,2.7 502.7,2.7 c 276.14238,0 500,223.85763 500,500.00001 0,276.14237 -223.85762,499.99999 -500,499.99999 -276.14237,0 -500,-223.85762 -500,-499.99999 z"
     id="path3854" /><path
     id="path14622"
     d="M 968.075,502.70001 C 968.075,245.68049 759.71952,37.325 502.7,37.325 245.68047,37.325 37.325,245.68049 37.325,502.70001 37.325,759.71953 245.68047,968.075 502.7,968.075 c 257.01952,0 465.375,-208.35547 465.375,-465.37499 z"
     style="fill:#ed1c23;fill-opacity:1;stroke:none"
     inkscape:connector-curvature="0" /><path
     id="path15520"
     d="m 835.55,502.7 c 0,-183.82797 -149.02204,-332.85 -332.85,-332.85 -183.82798,0 -332.85,149.02203 -332.85,332.85 0,183.82797 149.02202,332.84999 332.85,332.84999 183.82796,0 332.85,-149.02202 332.85,-332.84999 z"
     style="fill:#ffffff;fill-opacity:1;stroke:none"
     inkscape:connector-curvature="0" /><path
     style="fill:#ed1c23;fill-opacity:1;stroke:none"
     d="M 783.75726,851.49809 851.49809,783.75726 221.64272,153.9019 153.90189,221.64273 z"
     id="path3011"
     inkscape:connector-curvature="0"
     sodipodi:nodetypes="ccccc" /><path
     inkscape:connector-curvature="0"
     d="m 254.42851,576.46522 c -10.50178,0 -19.10851,-8.52776 -19.10851,-19.1085 l 0,-171.93706 c 0,-10.58075 8.60673,-19.10851 19.10851,-19.10851 l 335.70169,0 c 10.62022,0 19.18746,8.52776 19.18746,19.10851 l 0,43.94166 c 0,8.84361 7.26439,16.02904 16.02904,16.02904 l 51.67982,0 c 6.04049,0 13.2654,4.77712 15.63423,10.89658 2.44778,6.11946 16.85812,34.03209 19.22694,39.36194 2.44779,5.32985 4.50077,10.02802 10.02802,10.02802 l 10.2649,0 c 6.71166,0 11.40983,9.19893 12.19944,12.15996 0.83067,3.07947 13.69969,56.77278 13.69969,56.77278 0,2.56781 2.13194,4.65869 4.65869,4.65869 l 2.6436,0 c 2.60571,0 4.69817,2.05298 4.69817,4.6192 l 0,17.9241 -44.6918,0 0,0.28426 c 0,20.41135 -16.58176,36.99311 -37.03259,36.99311 -20.45084,0 -37.07208,-16.58176 -37.07208,-36.99311 l 0,-0.28426 -215.79977,0 0,0.28426 c 0,20.41135 -16.62124,36.99311 -37.11156,36.99311 -20.45083,0 -36.95364,-16.58176 -36.95364,-36.99311 l 0,-0.28426 -63.44497,0 c -5.60621,0 -10.18594,-4.57973 -10.18594,-10.18594 l 0,-15.12099 -33.36092,-0.0316 z"
     style="fill:#ffffff;fill-opacity:1;fill-rule:nonzero;stroke:#ffffff;stroke-width:20;stroke-miterlimit:4;stroke-opacity:1;stroke-dasharray:none"
     id="path3345"
     sodipodi:nodetypes="cssssssssccssccsssccsssccssscssccc" /><path
     id="path14427"
     style="fill:#0066b3;fill-opacity:1;fill-rule:nonzero;stroke:none"
     d="m 254.42851,576.46522 c -10.50178,0 -19.10851,-8.52776 -19.10851,-19.1085 l 0,-171.93706 c 0,-10.58075 8.60673,-19.10851 19.10851,-19.10851 l 335.70169,0 c 10.62022,0 19.18746,8.52776 19.18746,19.10851 l 0,43.94166 c 0,8.84361 7.26439,16.02904 16.02904,16.02904 l 51.67982,0 c 6.04049,0 13.2654,4.77712 15.63423,10.89658 2.44778,6.11946 16.85812,34.03209 19.22694,39.36194 2.44779,5.32985 4.50077,10.02802 10.02802,10.02802 l 10.2649,0 c 6.71166,0 11.40983,9.19893 12.19944,12.15996 0.83067,3.07947 13.69969,56.77278 13.69969,56.77278 0,2.56781 2.13194,4.65869 4.65869,4.65869 l 2.6436,0 c 2.60571,0 4.69817,2.05298 4.69817,4.6192 l 0,17.9241 -44.6918,0 0,0.28426 c 0,20.41135 -16.58176,36.99311 -37.03259,36.99311 -20.45084,0 -37.07208,-16.58176 -37.07208,-36.99311 l 0,-0.28426 -215.79977,0 0,0.28426 c 0,20.41135 -16.62124,36.99311 -37.11156,36.99311 -20.45083,0 -36.95364,-16.58176 -36.95364,-36.99311 l 0,-0.28426 -63.44497,0 c -5.60621,0 -10.18594,-4.57973 -10.18594,-10.18594 l 0,-15.12099 -33.36092,-0.0316 z m 423.38761,-113.7035 -4.77712,0 0,37.46689 26.53081,0 -10.14645,-24.04356 c -2.56465,-7.69867 -5.96154,-12.79164 -11.60724,-13.42333 m -13.89709,0 -25.85965,0 0,37.46689 25.85965,0 0,-37.46689"
     inkscape:connector-curvature="0" /></svg>