<?xml version="1.0" encoding="UTF-8" standalone="no"?>
<!-- Created with Inkscape (http://www.inkscape.org/) -->

<svg
   xmlns:svg="http://www.w3.org/2000/svg"
   xmlns="http://www.w3.org/2000/svg"
   version="1.1"
   width="1800"
   height="300"
   id="svg5338">
  <defs
     id="defs5340" />
  <g
     transform="translate(0,-772.36217)"
     id="layer1">
    <rect
       width="1800"
       height="300"
       rx="50"
       ry="50"
       x="0"
       y="0"
       transform="translate(0,772.36217)"
       id="rect5348"
       style="color:#000000;fill:#000000;fill-opacity:1;stroke:none;stroke-width:99;marker:none;visibility:visible;display:inline;overflow:visible;enable-background:accumulate" />
    <rect
       width="1770"
       height="270"
       rx="50"
       ry="50"
       x="15"
       y="15"
       transform="translate(0,772.36217)"
       id="rect5860"
       style="color:#000000;fill:#ffffff;fill-opacity:1;fill-rule:nonzero;stroke:none;stroke-width:99;marker:none;visibility:visible;display:inline;overflow:visible;enable-background:accumulate" />
    <g
       id="text2814"
       style="font-size:250px;font-style:normal;font-weight:normal;text-align:center;text-anchor:middle;fill:#000000;fill-opacity:1;stroke:none">
      <path
         d="m 264.61639,853.3631 c -2.24818,-2.16659 -3.37224,-4.91698 -3.37219,-8.25119 -5e-5,-3.33388 1.12528,-6.08427 3.37601,-8.25119 2.25061,-2.16657 4.95777,-3.24994 8.12149,-3.25012 l 122.00165,0 c 3.16855,1.8e-4 5.87825,1.08355 8.12912,3.25012 2.25047,2.16692 3.37581,4.91731 3.376,8.25119 -1.9e-4,3.33421 -1.12553,6.0846 -3.376,8.25119 -2.25087,2.1669 -4.96057,3.25028 -8.12912,3.25012 l -122.00165,0 c -3.16372,1.6e-4 -5.87215,-1.08322 -8.12531,-3.25012 z m 69.12995,170.2499 c -29.33258,0 -52.49921,-4.9171 -69.49997,-14.7514 -17.00088,-9.83427 -25.50128,-22.83348 -25.50125,-38.99765 -3e-5,-15.00441 9.6664,-32.75545 28.99933,-53.25317 2.33453,-2.50234 5.2515,-3.83621 8.75091,-4.00162 3.49928,-0.1652 6.58155,0.83552 9.24683,3.00217 2.50236,1.999 3.83623,4.6235 4.00161,7.87353 0.16523,3.25021 -0.8355,6.04257 -3.00216,8.37708 -14.16531,15.1673 -21.24792,27.00048 -21.24787,35.49957 -5e-5,9.83178 6.00046,17.70658 18.00156,23.62442 12.00095,5.91789 28.75127,8.87682 50.25101,8.8768 22.50148,2e-5 46.16783,-2.75165 70.99914,-8.255 3.16854,-0.66628 6.12748,-0.16528 8.8768,1.50299 2.74892,1.66831 4.54055,4.16821 5.37491,7.49968 0.83394,3.3315 0.33421,6.4151 -1.49917,9.2507 -1.83381,2.8355 -4.33498,4.5865 -7.50351,5.2528 -26.49961,5.6661 -51.91564,8.4991 -76.24817,8.4991 z"
         id="path2826"
         style="font-variant:normal;font-stretch:normal;font-family:'Rounded M+ 1m medium';-inkscape-font-specification:'Rounded M+ 1m medium,'" />
      <path
         d="m 639.61639,853.3631 c -2.24818,-2.16659 -3.37224,-4.91698 -3.37219,-8.25119 -5e-5,-3.33388 1.12528,-6.08427 3.37601,-8.25119 2.25061,-2.16657 4.95777,-3.24994 8.12149,-3.25012 l 122.00165,0 c 3.16855,1.8e-4 5.87825,1.08355 8.12912,3.25012 2.25047,2.16692 3.37581,4.91731 3.376,8.25119 -1.9e-4,3.33421 -1.12553,6.0846 -3.376,8.25119 -2.25087,2.1669 -4.96057,3.25028 -8.12912,3.25012 l -122.00165,0 c -3.16372,1.6e-4 -5.87215,-1.08322 -8.12531,-3.25012 z m 69.12995,170.2499 c -29.33258,0 -52.49921,-4.9171 -69.49997,-14.7514 -17.00088,-9.83427 -25.50128,-22.83348 -25.50125,-38.99765 -3e-5,-15.00441 9.6664,-32.75545 28.99933,-53.25317 2.33453,-2.50234 5.2515,-3.83621 8.75091,-4.00162 3.49928,-0.1652 6.58155,0.83552 9.24683,3.00217 2.50236,1.999 3.83623,4.6235 4.00161,7.87353 0.16523,3.25021 -0.8355,6.04257 -3.00216,8.37708 -14.16531,15.1673 -21.24792,27.00048 -21.24787,35.49957 -5e-5,9.83178 6.00046,17.70658 18.00156,23.62442 12.00095,5.91789 28.75127,8.87682 50.25101,8.8768 22.50148,2e-5 46.16783,-2.75165 70.99914,-8.255 3.16854,-0.66628 6.12748,-0.16528 8.8768,1.50299 2.74892,1.66831 4.54055,4.16821 5.37491,7.49968 0.83394,3.3315 0.33421,6.4151 -1.49917,9.2507 -1.83381,2.8355 -4.33498,4.5865 -7.50351,5.2528 -26.49961,5.6661 -51.91564,8.4991 -76.24817,8.4991 z"
         id="path2828"
         style="font-variant:normal;font-stretch:normal;font-family:'Rounded M+ 1m medium';-inkscape-font-specification:'Rounded M+ 1m medium,'" />
      <path
         d="m 996.61865,1020.8588 c -3.25016,1.3326 -6.45831,1.4165 -9.62448,0.2518 -3.16622,-1.1648 -5.41562,-3.2895 -6.7482,-6.3744 -1.33262,-3.0848 -1.33262,-6.209 0,-9.3727 15.49781,-37.50095 28.57963,-77.33398 39.24563,-119.49918 0.3356,-1.50032 -0.1628,-2.25054 -1.4954,-2.25067 l -27.99986,0 c -3.16877,1.3e-4 -5.83652,-1.08325 -8.00324,-3.25012 -2.16677,-2.16662 -3.25014,-4.83436 -3.25012,-8.00324 -2e-5,-3.1686 1.08335,-5.83507 3.25012,-7.99942 2.16672,-2.16405 4.83447,-3.24615 8.00324,-3.24631 l 33.24886,0 c 1.5004,1.6e-4 2.4159,-0.75007 2.7466,-2.25067 2.833,-12.66971 5.3329,-25.00389 7.4997,-37.00256 0.6713,-3.33131 2.3816,-6.03974 5.1308,-8.12531 2.749,-2.08516 5.7906,-2.96127 9.1247,-2.62832 3.334,0.33335 6.0005,1.8338 7.9995,4.50134 1.9988,2.66794 2.749,5.58618 2.2506,8.75473 -2.6704,15.33017 -4.8371,26.8302 -6.5002,34.50012 -0.3358,1.5006 0.1627,2.25083 1.4953,2.25067 l 17.006,0 c 8.1633,1.6e-4 14.2872,1.6e-4 18.3716,0 4.0841,1.6e-4 8.5842,0.45792 13.5002,1.37329 4.9157,0.91568 8.3324,1.74856 10.2501,2.49863 1.9173,0.75037 4.0841,2.58397 6.5002,5.50079 2.4158,2.91712 3.915,5.54163 4.4975,7.87354 0.5822,2.33218 1.2485,6.4991 1.9989,12.50076 0.7501,6.00191 1.1252,11.5027 1.1254,16.50238 -2e-4,4.9999 -2e-4,12.49959 0,22.49909 -2e-4,31.49928 -3.7907,54.99906 -11.3716,70.49946 -7.5813,15.5003 -17.5389,23.2505 -29.8729,23.2505 -10.6661,0 -24.0836,-2.7516 -40.2527,-8.255 -3.1689,-1.1647 -5.5022,-3.2882 -7,-6.3705 -1.498,-3.0823 -1.6646,-6.2917 -0.4997,-9.62831 1.1647,-3.16364 3.2475,-5.41303 6.2485,-6.7482 3.0008,-1.33512 6.0856,-1.41777 9.2544,-0.24795 11.8305,4.16566 20.9121,6.24849 27.2446,6.24847 2.3344,2e-5 4.669,-1.41651 7.0038,-4.24957 2.3344,-2.83303 4.5012,-7.0826 6.5002,-12.74872 1.9988,-5.66606 3.5819,-13.29163 4.7493,-22.87674 1.1672,-9.585 1.7508,-20.46069 1.7509,-32.62711 -1e-4,-6.66799 -1e-4,-11.41856 0,-14.2517 -1e-4,-2.83295 -0.1667,-6.24837 -0.4997,-10.24628 -0.3333,-3.99769 -0.5838,-6.58024 -0.7515,-7.74765 -0.168,-1.16718 -0.8355,-2.75155 -2.0027,-4.75311 -1.1674,-2.00132 -2.0842,-3.12666 -2.7504,-3.37601 -0.6664,-0.2491 -2.2076,-0.6649 -4.6234,-1.24741 -2.4161,-0.58224 -4.457,-0.87343 -6.1226,-0.87356 -1.6659,1.3e-4 -4.4163,1.3e-4 -8.2512,0 l -27.0004,0 c -1.5005,1.3e-4 -2.4161,0.66643 -2.7466,1.9989 -11.1695,45.1661 -25.088,88.00002 -41.7557,128.50185 -1.3326,3.1637 -3.62397,5.4118 -6.87405,6.7444 z m 198.87545,-56.49564 c -1.6686,3.00094 -4.1684,4.91719 -7.4997,5.74875 -3.3317,0.83164 -6.5399,0.28996 -9.6245,-1.62506 -3.085,-1.91493 -5.0445,-4.54071 -5.8784,-7.87735 -8.83,-31.83484 -20.1622,-65.25155 -33.9966,-100.25025 -1.3328,-3.1635 -1.2908,-6.28773 0.1259,-9.37271 1.4163,-3.08465 3.7089,-5.20944 6.8779,-6.37436 3.3313,-1.16967 6.6221,-1.00436 9.8724,0.49591 3.2499,1.50062 5.4574,3.83521 6.6223,7.00379 14.3329,36.00069 25.9168,70.25155 34.7519,102.75268 0.8339,3.33156 0.4168,6.49776 -1.2512,9.4986 z"
         id="path2830"
         style="font-variant:normal;font-stretch:normal;font-family:'Rounded M+ 1m medium';-inkscape-font-specification:'Rounded M+ 1m medium,'" />
      <path
         d="m 1475.4929,921.11212 c -10.1676,9e-5 -21.7503,2.29145 -34.7481,6.87409 -12.9981,4.5828 -25.748,10.95842 -38.25,19.12689 -6.9987,4.49632 -14.1653,5.82892 -21.4996,3.9978 -3.3316,-0.83408 -5.9141,-2.62572 -7.7477,-5.37491 -1.8336,-2.74905 -2.4173,-5.70798 -1.7509,-8.8768 2.833,-16.83035 5.666,-34.99592 8.4991,-54.49676 0.4984,-3.49922 2.1642,-6.37422 4.9973,-8.62503 2.833,-2.25053 6.0831,-3.21056 9.7503,-2.8801 3.4993,0.16799 6.3324,1.62775 8.4992,4.37927 2.1667,2.75181 3.0008,5.87731 2.5024,9.37653 -2.6652,18.49885 -4.6641,31.74855 -5.9967,39.74914 0,0.3307 0.081,0.496 0.2442,0.49591 l 0.5035,0 c 10.8337,-7.83274 23.459,-14.16514 37.8761,-18.99719 14.4169,-4.83184 28.1257,-7.24781 41.1263,-7.24792 47.4953,1.1e-4 71.2431,19.16513 71.2433,57.49511 -2e-4,22.17106 -9.2076,39.17315 -27.6222,51.00635 -18.415,11.8332 -45.4574,17.7497 -81.1272,17.7498 -12.8328,-10e-5 -27.2472,-0.6689 -43.2434,-2.0066 -3.1688,-0.1627 -5.8366,-1.4941 -8.0033,-3.994 -2.1668,-2.4999 -3.0848,-5.4181 -2.7542,-8.7547 0.1678,-3.1636 1.461,-5.7462 3.8796,-7.7476 2.4184,-2.0015 5.2095,-2.83435 8.3732,-2.49867 17.6696,1.66327 31.5856,2.49487 41.7481,2.49477 26.0008,1e-4 45.7101,-3.99902 59.1278,-11.99718 13.4174,-7.99812 20.1261,-19.41549 20.1263,-34.25217 -2e-4,-23.3306 -15.2513,-34.99594 -45.7534,-34.99603 z m -72.1207,-76.62201 c -1.7498,-2.42089 -2.458,-5.21451 -2.1248,-8.38089 0.3331,-3.16602 1.7916,-5.66591 4.3755,-7.49969 2.5837,-1.83341 5.4574,-2.58236 8.6212,-2.24686 31.3363,3.49953 62.2532,5.49843 92.7505,5.9967 3.1686,1.9e-4 5.7944,1.08356 7.8774,3.25013 2.0826,2.16692 3.124,4.83339 3.1242,7.99942 -2e-4,3.16636 -1.0835,5.83283 -3.2501,7.99942 -2.1669,2.16691 -4.8347,3.25028 -8.0032,3.25012 -31.3316,-0.1626 -63.3318,-2.24542 -96.0007,-6.24847 -3.1637,-0.33045 -5.6204,-1.70374 -7.37,-4.11988 z"
         id="path2832"
         style="font-variant:normal;font-stretch:normal;font-family:'Rounded M+ 1m medium';-inkscape-font-specification:'Rounded M+ 1m medium,'" />
    </g>
  </g>
</svg>
