<?xml version="1.0" encoding="UTF-8" standalone="no"?>
<!-- Created with Inkscape (http://www.inkscape.org/) -->

<svg
   xmlns:svg="http://www.w3.org/2000/svg"
   xmlns="http://www.w3.org/2000/svg"
   version="1.0"
   width="1000"
   height="675"
   id="svg1890">
  <defs
     id="defs1893">
    <marker
       refX="0"
       refY="0"
       orient="auto"
       id="Arrow2Lend"
       style="overflow:visible">
      <path
         d="M 8.7185878,4.0337352 -2.2072895,0.01601326 8.7185884,-4.0017078 c -1.7454984,2.3720609 -1.7354408,5.6174519 -6e-7,8.035443 z"
         transform="matrix(-1.1,0,0,-1.1,-1.1,0)"
         id="path3864"
         style="font-size:12px;fill-rule:evenodd;stroke-width:0.625;stroke-linejoin:round" />
    </marker>
  </defs>
  <rect
     width="997.5"
     height="672.5"
     rx="33.316483"
     x="1.25"
     y="1.25"
     id="rect2385"
     style="fill:#ffffff;fill-opacity:1;fill-rule:evenodd;stroke:#0066b3;stroke-width:2.5;stroke-linecap:butt;stroke-linejoin:round;stroke-miterlimit:4;stroke-opacity:1;stroke-dasharray:none;stroke-dashoffset:0;marker:none;visibility:visible;display:inline;overflow:visible;enable-background:accumulate" />
  <rect
     width="965"
     height="640"
     rx="22.503939"
     ry="22.503939"
     x="16.978363"
     y="17.24411"
     id="rect3157"
     style="fill:#0066b3;fill-opacity:1;stroke:none;stroke-width:8;marker:none;visibility:visible;display:inline;overflow:visible;enable-background:accumulate" />
  <g
     id="text3611-3-1-9"
     style="font-size:40px;font-style:normal;font-weight:normal;text-align:center;text-anchor:middle;fill:#0066b3;fill-opacity:1;stroke:#0066b3;stroke-width:2;stroke-miterlimit:4;stroke-opacity:1;font-family:Arphic Round-Gothic Medium JIS;-inkscape-font-specification:Arphic Round-Gothic Medium JIS">
    <path
       d="m 69.716354,575.97534 c -0.703133,0.0391 -1.210945,0.25395 -1.523437,0.64453 -0.273445,0.3516 -0.390633,0.83988 -0.351563,1.46485 0.03906,0.62503 0.292961,1.05472 0.761719,1.28906 0.351554,0.15628 0.76171,0.17581 1.230469,0.0586 11.523416,-2.34371 23.535123,-2.7734 36.035158,-1.28906 0.50776,0.11722 0.93745,0.0586 1.28906,-0.17578 0.39058,-0.23434 0.64448,-0.66403 0.76172,-1.28906 0.039,-0.62497 -0.1563,-1.11325 -0.58594,-1.46485 -0.39067,-0.2734 -0.91801,-0.44918 -1.58203,-0.52734 -12.343783,-1.56246 -24.355489,-1.13277 -36.035156,1.28906 z m 1.582032,21.09375 c -5.195319,4.37501 -7.792972,8.39845 -7.792969,12.07031 -3e-6,7.1875 6.445303,10.78125 19.335937,10.78125 7.851532,0 17.539026,-0.82031 29.062496,-2.46093 0.50776,-0.15626 0.89839,-0.42969 1.17188,-0.82032 0.23432,-0.35156 0.29291,-0.80078 0.17578,-1.34765 -0.11724,-0.50782 -0.39068,-0.89844 -0.82031,-1.17188 -0.39068,-0.15625 -0.80083,-0.19531 -1.23047,-0.11718 -11.484415,1.56249 -20.937531,2.36327 -28.359376,2.40234 -10.546887,0 -15.820319,-2.42188 -15.820312,-7.26563 -7e-6,-2.81249 2.382803,-6.21092 7.148437,-10.19531 0.351549,-0.46873 0.449205,-0.93748 0.292969,-1.40625 -0.156264,-0.46873 -0.429701,-0.82029 -0.820312,-1.05469 -0.390638,-0.27342 -0.800794,-0.35154 -1.230469,-0.23437 -0.351575,0.15627 -0.722668,0.4297 -1.113281,0.82031 z"
       id="path3691"
       style="font-size:60px;fill:#0066b3;stroke:#0066b3" />
    <path
       d="m 149.9312,600.05737 c 2.03122,-6.21091 3.3984,-14.04294 4.10156,-23.49609 4.57027,0.62504 8.51558,2.63675 11.83594,6.03516 3.9062,3.9844 5.85932,8.75002 5.85937,14.29687 -5e-5,5.31251 -1.38677,9.84376 -4.16015,13.59375 -2.50005,3.39844 -5.54692,5.54687 -9.14063,6.44531 -0.82035,0.11719 -1.42582,0.33203 -1.8164,0.64453 -0.39067,0.39062 -0.56645,0.89844 -0.52735,1.52344 0.039,0.625 0.23434,1.05468 0.58594,1.28906 0.2734,0.23437 0.85934,0.2539 1.75781,0.0586 4.72652,-1.17188 8.61324,-3.61329 11.66016,-7.32422 3.43744,-4.25781 5.15619,-9.66796 5.15625,-16.23047 -6e-5,-6.71873 -2.32427,-12.42185 -6.97266,-17.10937 -4.68754,-4.68747 -10.78129,-7.03121 -18.28125,-7.03125 -7.38283,4e-5 -13.45705,2.73441 -18.22265,8.20312 -4.84376,5.62503 -7.28516,12.75393 -7.32422,21.38672 -1e-5,4.80469 1.01562,8.69141 3.04687,11.66016 1.87499,2.6953 4.2578,4.04296 7.14844,4.04296 2.92967,0 5.62498,-1.34766 8.08594,-4.04296 2.69528,-2.96875 5.09763,-7.61718 7.20703,-13.94532 z m -2.92969,-2.57812 c -1.87502,6.13282 -3.9258,10.58594 -6.15234,13.35937 -1.91408,2.46094 -3.98439,3.69141 -6.21094,3.69141 -1.75783,0 -3.28126,-1.01563 -4.57031,-3.04688 -1.40626,-2.22655 -2.10939,-5.27343 -2.10938,-9.14062 -1e-5,-8.20311 2.24609,-14.68747 6.73828,-19.45313 4.14061,-4.37496 9.23826,-6.58199 15.29297,-6.62109 0.15622,4e-5 0.332,0.0196 0.52735,0.0586 -0.62503,8.4766 -1.79691,15.52737 -3.51563,21.15235 z"
       id="path3693"
       style="font-size:60px;fill:#0066b3;stroke:#0066b3" />
    <path
       d="m 209.16948,592.323 -23.37891,0 c -0.50781,2e-5 -0.95703,0.15627 -1.34765,0.46875 -0.27344,0.27346 -0.42969,0.70314 -0.46875,1.28906 -10e-6,0.50783 0.19531,0.91799 0.58593,1.23047 0.39062,0.27345 0.80078,0.4297 1.23047,0.46875 l 13.53516,0 0,4.10156 c -2e-5,1.21095 -0.0977,2.34376 -0.29297,3.39844 -0.23439,1.28907 -0.54689,2.46094 -0.9375,3.51562 -0.39064,1.09376 -1.03517,2.22657 -1.93359,3.39844 -0.85939,1.21094 -1.79689,2.28516 -2.8125,3.22266 -0.97658,0.85937 -1.93361,1.64062 -2.8711,2.34375 -1.09376,0.74218 -2.18751,1.36718 -3.28125,1.875 -0.97657,0.39062 -1.875,0.74218 -2.69531,1.05469 -0.58594,0.15624 -0.9375,0.52733 -1.05469,1.11328 -0.11719,0.46874 -0.0586,0.89843 0.17578,1.28906 0.27344,0.46874 0.60547,0.76171 0.9961,0.87891 0.39062,0.11717 0.8789,0.0586 1.46484,-0.17579 0.74218,-0.35157 1.71874,-0.80078 2.92969,-1.34765 1.21093,-0.50782 2.44139,-1.19141 3.69141,-2.05078 1.21092,-0.82032 2.28514,-1.71876 3.22265,-2.69532 0.93749,-0.97656 1.87498,-2.08984 2.8125,-3.33984 0.97654,-1.40625 1.77733,-2.83203 2.40235,-4.27734 0.50779,-1.44531 0.89841,-2.7539 1.17187,-3.92578 0.15623,-1.09374 0.29295,-2.28515 0.41016,-3.57422 l 0.0586,0 0,-4.80469 12.24609,0 0,21.67969 c -3e-5,1.09374 0.35153,2.05077 1.05469,2.87109 0.74215,0.82031 1.75778,1.23046 3.04688,1.23047 3.86714,-10e-6 7.49995,-10e-6 10.89843,0 1.17183,-10e-6 2.18745,-0.50782 3.04688,-1.52344 0.85932,-0.97657 1.30854,-2.22657 1.34766,-3.75 l 0,-6.03515 c -6e-5,-0.46875 -0.13678,-0.89844 -0.41016,-1.28907 -0.23443,-0.27343 -0.66412,-0.42968 -1.28906,-0.46875 -0.62506,-0.039 -1.07427,0.13673 -1.34766,0.52735 -0.27349,0.39063 -0.42974,0.89844 -0.46875,1.52343 l 0,4.16016 c -5e-5,2.26562 -0.99614,3.39843 -2.98828,3.39844 -2.50005,-10e-6 -5.07817,-10e-6 -7.73438,0 -0.58597,-0.0391 -1.01566,-0.19532 -1.28906,-0.46875 -0.27347,-0.27344 -0.41019,-0.70313 -0.41015,-1.28906 l 0,-20.56641 16.99218,0 c 0.4687,2e-5 0.89838,-0.17576 1.28907,-0.52734 0.27338,-0.27342 0.42963,-0.70311 0.46875,-1.28907 -6e-5,-0.50779 -0.19537,-0.91795 -0.58594,-1.23047 -0.39068,-0.27341 -0.78131,-0.41013 -1.17188,-0.41015 l -22.85156,0 0,-12.48047 19.80469,0 c 0.4687,3e-5 0.89838,-0.17575 1.28906,-0.52734 0.27338,-0.27341 0.42963,-0.70309 0.46875,-1.28907 -5e-5,-0.50777 -0.19537,-0.91793 -0.58594,-1.23047 -0.39067,-0.2734 -0.7813,-0.41011 -1.17187,-0.41015 l -19.80469,0 0,-6.50391 c -3e-5,-0.50777 -0.17581,-0.93745 -0.52734,-1.28906 -0.3516,-0.27339 -0.76175,-0.42964 -1.23047,-0.46875 -0.50784,4e-5 -0.93753,0.15629 -1.28906,0.46875 -0.27347,0.27348 -0.41019,0.70317 -0.41016,1.28906 l 0,6.50391 -14.35547,0 c 0.74217,-1.87496 1.40623,-3.76949 1.99219,-5.6836 0.15623,-0.58589 0.0976,-1.07417 -0.17578,-1.46484 -0.23439,-0.39058 -0.60549,-0.64449 -1.11328,-0.76172 -0.46877,-0.039 -0.87893,0.0391 -1.23047,0.23438 -0.39064,0.23442 -0.66408,0.64457 -0.82032,1.23047 -0.7422,2.96879 -1.79688,5.72269 -3.16406,8.26171 -1.40626,2.61722 -3.24219,4.9805 -5.50781,7.08985 -0.625,0.50784 -0.97657,0.95706 -1.05469,1.34765 -0.11719,0.39066 0,0.85941 0.35156,1.40625 0.27344,0.50784 0.64453,0.76175 1.11329,0.76172 0.5078,3e-5 1.01561,-0.21482 1.52343,-0.64453 2.34374,-1.91403 4.45312,-4.58981 6.32813,-8.02734 0.0391,-0.11716 0.0391,-0.21481 0,-0.29297 l 16.11328,0 z"
       id="path3695"
       style="font-size:60px;fill:#0066b3;stroke:#0066b3" />
    <path
       d="m 260.43901,615.05737 0,-39.375 c -2e-5,-1.44527 -0.54689,-2.18746 -1.64062,-2.22656 -0.8594,4e-5 -1.58205,0.62504 -2.16797,1.875 -0.50783,0.9766 -1.81642,2.03129 -3.92578,3.16406 -2.14845,1.17191 -4.16017,1.77738 -6.03516,1.81641 -0.70313,-0.039 -1.23047,0.11722 -1.58203,0.46875 -0.35157,0.35159 -0.52735,0.82034 -0.52735,1.40625 0,0.58597 0.21484,0.99612 0.64454,1.23047 0.46874,0.27347 0.95702,0.41018 1.46484,0.41015 2.49999,-0.15622 5.15624,-0.99606 7.96875,-2.51953 0.8203,-0.46871 1.58201,-0.957 2.28516,-1.46484 l 0,35.21484 c -2e-5,0.625 0.15623,1.15234 0.46875,1.58203 0.27342,0.39063 0.7031,0.58594 1.28906,0.58594 0.50779,0 0.93748,-0.21485 1.28906,-0.64453 0.27342,-0.35156 0.42967,-0.85938 0.46875,-1.52344 z"
       id="path3697"
       style="font-size:60px;fill:#0066b3;stroke:#0066b3" />
    <path
       d="m 275.43901,579.02222 c -2.61719,3.78909 -3.94531,9.17971 -3.98437,16.17187 -10e-6,7.03126 1.1914,12.34376 3.57421,15.9375 2.73437,4.02344 6.01562,6.05469 9.84375,6.09375 3.78905,0 7.03123,-1.93359 9.72657,-5.80078 2.49997,-3.74999 3.74997,-9.29686 3.75,-16.64062 -3e-5,-6.91404 -1.34769,-12.24607 -4.04297,-15.9961 -2.61721,-3.55465 -5.76174,-5.33199 -9.4336,-5.33203 -3.63282,4e-5 -6.77735,1.85551 -9.43359,5.56641 z m -0.46875,16.17187 c 0,-6.0156 1.03515,-10.62497 3.10547,-13.82812 1.87499,-2.92966 4.14061,-4.3945 6.79687,-4.39453 2.49999,3e-5 4.68748,1.2305 6.5625,3.6914 2.26561,3.08597 3.39842,7.793 3.39844,14.1211 -2e-5,6.25001 -0.95705,10.9961 -2.87109,14.23828 -1.87502,3.08594 -4.2383,4.64843 -7.08985,4.6875 -2.73438,0 -5.03907,-1.52344 -6.91406,-4.57032 -1.99219,-3.28124 -2.98828,-7.92967 -2.98828,-13.94531 z"
       id="path3699"
       style="font-size:60px;fill:#0066b3;stroke:#0066b3" />
    <path
       d="m 305.43901,579.02222 c -2.61719,3.78909 -3.94531,9.17971 -3.98437,16.17187 -10e-6,7.03126 1.1914,12.34376 3.57421,15.9375 2.73437,4.02344 6.01562,6.05469 9.84375,6.09375 3.78905,0 7.03123,-1.93359 9.72657,-5.80078 2.49997,-3.74999 3.74997,-9.29686 3.75,-16.64062 -3e-5,-6.91404 -1.34769,-12.24607 -4.04297,-15.9961 -2.61721,-3.55465 -5.76174,-5.33199 -9.4336,-5.33203 -3.63282,4e-5 -6.77735,1.85551 -9.43359,5.56641 z m -0.46875,16.17187 c 0,-6.0156 1.03515,-10.62497 3.10547,-13.82812 1.87499,-2.92966 4.14061,-4.3945 6.79687,-4.39453 2.49999,3e-5 4.68748,1.2305 6.5625,3.6914 2.26561,3.08597 3.39842,7.793 3.39844,14.1211 -2e-5,6.25001 -0.95705,10.9961 -2.87109,14.23828 -1.87502,3.08594 -4.2383,4.64843 -7.08985,4.6875 -2.73438,0 -5.03907,-1.52344 -6.91406,-4.57032 -1.99219,-3.28124 -2.98828,-7.92967 -2.98828,-13.94531 z"
       id="path3701"
       style="font-size:60px;fill:#0066b3;stroke:#0066b3" />
    <path
       d="m 341.53276,589.21753 0,25.83984 c -10e-6,1.44531 0.48827,2.16797 1.46484,2.16797 1.32812,0 2.01171,-0.72266 2.05079,-2.16797 l 0,-18.6914 c 0.15623,-1.67967 0.83982,-3.02733 2.05078,-4.04297 1.21092,-1.05467 2.75388,-1.58201 4.6289,-1.58203 1.79685,2e-5 3.41795,0.70314 4.86328,2.10937 1.21091,1.21096 1.81638,3.06643 1.81641,5.56641 l 0,16.64062 c -3e-5,1.44531 0.58591,2.16797 1.75781,2.16797 1.17185,0 1.75778,-0.72266 1.75782,-2.16797 l 0,-16.64062 c -4e-5,-2.3828 0.64449,-4.29686 1.93359,-5.74219 1.2109,-1.28904 2.91012,-1.93357 5.09766,-1.93359 2.10933,2e-5 3.80855,0.58596 5.09765,1.75781 1.17183,1.05471 1.75777,2.79299 1.75781,5.21484 l 0,17.34375 c -4e-5,1.44531 0.56636,2.16797 1.69922,2.16797 1.21089,0 1.81636,-0.72266 1.81641,-2.16797 l 0,-17.34375 c -5e-5,-3.43748 -0.99614,-6.03513 -2.98828,-7.79297 -2.14848,-1.79685 -4.60942,-2.69528 -7.38281,-2.69531 -3.08598,3e-5 -5.44926,0.80081 -7.08985,2.40235 -0.70315,0.62502 -1.28909,1.36721 -1.75781,2.22656 -0.35159,-0.50779 -0.74222,-0.97654 -1.17188,-1.40625 -2.14846,-2.14841 -4.5508,-3.22263 -7.20703,-3.22266 -2.38283,3e-5 -4.51173,0.93753 -6.38672,2.8125 -0.1172,0.0391 -0.21485,0.13674 -0.29296,0.29297 l 0,-1.11328 c -2e-5,-1.3281 -0.68361,-1.99216 -2.05079,-1.99219 -0.97657,3e-5 -1.46485,0.66409 -1.46484,1.99219 z"
       id="path3703"
       style="font-size:60px;fill:#0066b3;stroke:#0066b3" />
  </g>
  <path
     d="m 623.00292,13.660406 0,645.160034"
     id="path3648"
     style="fill:none;stroke:#ffffff;stroke-width:65;stroke-linecap:butt;stroke-linejoin:miter;stroke-miterlimit:2;stroke-opacity:1;stroke-dasharray:none" />
  <path
     d="m 995.04306,553.65329 -370.09603,0 -605.282431,-69.05496 -7.326661,0.41089"
     id="path3650"
     style="fill:none;stroke:#ffffff;stroke-width:70;stroke-linecap:butt;stroke-linejoin:miter;stroke-miterlimit:4;stroke-opacity:1;stroke-dasharray:none" />
  <path
     d="m 984.73729,154.44915 -974.539609,0"
     id="path3652"
     style="fill:none;stroke:#ffffff;stroke-width:70;stroke-linecap:butt;stroke-linejoin:miter;stroke-miterlimit:4;stroke-opacity:1;stroke-dasharray:none" />
  <path
     d="m 217.41286,160.28769 0,350.89425 0,2.02244"
     id="path3654"
     style="fill:none;stroke:#ffffff;stroke-width:60;stroke-linecap:butt;stroke-linejoin:miter;stroke-miterlimit:4;stroke-opacity:1;stroke-dasharray:none" />
  <g
     transform="matrix(0.20882874,0,0,0.20882874,517.71434,277.38853)"
     id="g2821">
    <path
       d="m 502.69999,2.7 c 276.14238,0 500.00001,223.85764 500.00001,500 0,276.14238 -223.85763,500 -500.00001,500 C 226.55762,1002.7 2.7,778.84238 2.7,502.7 2.7,226.55764 226.55762,2.7 502.69999,2.7 z"
       id="path3854"
       style="fill:#ffffff;fill-opacity:1;stroke:#ffffff;stroke-width:5;stroke-miterlimit:4;stroke-opacity:1;stroke-dasharray:none" />
    <path
       d="M 755.825,855.54375 502.7,705.2 249.575,855.54375 l 506.25,0 z"
       id="path3947"
       style="fill:#0066b3;fill-opacity:1;stroke:none" />
    <path
       d="M 755.825,149.85625 502.7,300.2 249.575,149.85625 l 506.25,0 z"
       id="path3949"
       style="fill:#0066b3;fill-opacity:1;stroke:none" />
    <path
       d="m 502.7,164.85 c -186.59284,0 -337.85,151.25714 -337.85,337.85 0,186.59284 151.25716,337.85 337.85,337.85 186.59283,0 337.85,-151.25716 337.85,-337.85 0,-186.59286 -151.25717,-337.85 -337.85,-337.85 z m 0,12.00001 c 178.30841,0 325.85,147.54155 325.85,325.84999 0,178.30842 -147.54159,325.85001 -325.85,325.85001 -178.30842,0 -325.85,-147.54159 -325.85,-325.85001 0,-178.30844 147.54158,-325.84999 325.85,-325.84999 z"
       id="path4035"
       style="fill:#ffffff;fill-opacity:1;stroke:none" />
    <path
       d="M 968.075,502.7 C 968.075,245.68048 759.71952,37.325 502.7,37.325 245.68048,37.325 37.325,245.68048 37.325,502.7 c 0,257.01952 208.35548,465.375 465.375,465.375 257.01952,0 465.375,-208.35548 465.375,-465.375 z m -132.525,0 c 0,183.82796 -149.02201,332.85 -332.85,332.85 -183.82797,0 -332.85,-149.02204 -332.85,-332.85 0,-183.82797 149.02203,-332.85 332.85,-332.85 183.82799,0 332.85,149.02203 332.85,332.85 z"
       id="path4074"
       style="fill:#ed1c23;fill-opacity:1;stroke:none" />
    <path
       d="m 704.25662,511.47545 0,6.60646 c 4.37778,-5.57171 10.74545,-8.47696 19.06321,-8.47696 8.27797,0 14.64564,2.46747 19.02341,7.36262 5.8901,-4.89515 13.13332,-7.36262 21.72968,-7.36262 9.75049,0 17.1927,1.95169 22.44603,6.00949 5.61151,3.741 8.43716,9.23312 8.43716,16.31715 l 0,63.00013 -22.68482,0 0,-59.13973 c 0,-7.40242 -3.02464,-11.10362 -9.07393,-11.10362 -7.84019,0 -11.81999,3.7012 -11.81999,11.10362 l 0,59.13973 -22.60522,0 0,-59.13973 c 0,-7.40242 -3.02464,-11.10362 -9.03413,-11.10362 -7.91979,0 -11.81999,3.7012 -11.81999,11.10362 l 0,59.13973 -22.68482,0 0,-83.45627 19.02341,0"
       id="path5036"
       style="fill:#0066b3;fill-opacity:1;fill-rule:nonzero;stroke:none" />
    <path
       d="m 260.2311,412.06022 c 0.59538,-29.49027 9.7107,-53.44862 27.42078,-71.79547 19.1826,-19.89896 44.53388,-29.92804 76.09364,-29.92804 28.37593,0 51.10055,8.71575 68.13406,26.14724 17.2723,17.2723 25.94825,40.63369 25.94825,69.84537 0,38.84278 -14.12826,66.22376 -42.2654,82.26232 32.03733,17.27231 48.1157,47.47894 48.1157,90.38111 0,35.81813 -9.03413,63.63689 -27.0228,83.25727 -17.94886,18.94381 -43.49914,28.45552 -76.69061,28.45552 -34.78339,0 -61.44801,-12.05877 -80.03364,-36.17632 C 262.93736,632.02339 254.4604,601.0606 254.4604,561.70044 l 51.89651,0 c 0,25.27169 4.61656,44.97167 13.88947,59.06013 9.19333,14.44665 22.44604,21.65008 39.71834,21.65008 15.91917,0 28.33613,-5.33292 37.33046,-15.87938 9.5515,-11.18321 14.40685,-26.98299 14.40685,-47.55852 0,-21.76947 -4.85535,-37.92743 -14.40685,-48.47388 -9.6311,-11.26282 -23.95836,-16.91413 -43.10116,-16.91413 l -26.78401,0 0,-48.19529 26.78401,0 c 16.27735,0 28.65451,-4.69616 37.33046,-14.20786 9.5515,-10.18827 14.36705,-25.1523 14.36705,-44.85227 0,-13.01392 -3.97979,-23.99815 -12.05877,-32.91289 -8.19838,-9.83009 -18.90402,-14.72524 -31.95774,-14.72524 -15.3222,0 -27.26158,4.89515 -35.93753,14.72524 -8.27797,9.23312 -12.89453,22.12765 -13.84968,38.64379 l -51.85671,0"
       id="path5040"
       style="fill:#0066b3;fill-opacity:1;fill-rule:nonzero;stroke:none" />
    <path
       d="m 512.74898,491.49689 c 0.43618,-19.69997 6.52686,-35.69874 18.34684,-47.79731 12.89453,-13.33231 29.72906,-20.01836 50.70257,-20.01836 18.94381,0 33.98743,5.85029 45.25025,17.43149 11.66079,11.5414 17.51109,27.10239 17.51109,46.56358 0,25.78906 -9.43211,44.1757 -28.49532,54.96094 21.45108,11.5414 32.19652,31.67916 32.19652,60.33367 0,23.95835 -5.96969,42.46439 -17.94886,55.43852 -12.01898,12.69554 -28.9729,19.06321 -50.98115,19.06321 -23.1624,0 -40.91228,-8.03919 -53.36903,-24.15735 -11.42201,-14.96402 -17.07331,-35.57935 -17.07331,-61.92558 l 34.74359,0 c 0,16.91412 3.10424,30.04744 9.19332,39.43975 6.16868,9.7107 14.96403,14.48645 26.50543,14.48645 10.62604,0 18.82442,-3.58182 24.83391,-10.62605 6.20847,-7.44221 9.35251,-18.06826 9.35251,-31.71895 0,-14.52625 -3.14244,-25.35128 -9.35251,-32.43532 -6.44727,-7.44221 -15.95897,-11.14342 -28.69431,-11.14342 l -17.82948,0 0,-32.27612 17.82948,0 c 10.82504,0 19.103,-3.14563 24.83391,-9.47191 6.36767,-6.88504 9.5515,-16.79472 9.5515,-29.96784 0,-8.71575 -2.66487,-15.99877 -7.91979,-21.92866 -5.57171,-6.56666 -12.65574,-9.90968 -21.41128,-9.90968 -10.14848,0 -18.10806,3.34302 -23.83897,9.90968 -5.53191,6.16868 -8.59635,14.76503 -9.23312,25.74926 l -34.70379,0"
       id="path5044"
       style="fill:#0066b3;fill-opacity:1;fill-rule:nonzero;stroke:none" />
    <path
       d="m 469.05085,651.24579 0,37.20979 32.875,0 0,-37.20979 -32.875,0 z"
       id="path5046"
       style="fill:#0066b3;fill-opacity:1;fill-rule:nonzero;stroke:none" />
  </g>
  <path
     d="m 622.08686,659.26907 0,-104.39619 -404.71398,-48.62288 0,-353.23093 406.14407,0 0,-90.095342"
     id="path3656"
     style="fill:none;stroke:#000000;stroke-width:30;stroke-linecap:butt;stroke-linejoin:miter;stroke-miterlimit:4;stroke-opacity:1;stroke-dasharray:none;marker-start:none;marker-mid:none;marker-end:none" />
  <path
     d="m 566.96798,71.514748 -42.12685,0 -42.12686,-10e-7 21.06343,-36.482928 21.06343,-36.4829298 21.06342,36.4829288 21.06343,36.48293 z"
     transform="matrix(0.5506217,0,0,0.5506217,335.66789,26.333641)"
     id="path5394"
     style="color:#000000;fill:#000000;fill-opacity:1;fill-rule:evenodd;stroke:none;stroke-width:30;marker:none;visibility:visible;display:inline;overflow:visible;enable-background:accumulate" />
</svg>
