<?xml version="1.0" encoding="UTF-8" standalone="no"?>
<!-- Created with Inkscape (http://www.inkscape.org/) -->

<svg
   xmlns:dc="http://purl.org/dc/elements/1.1/"
   xmlns:cc="http://creativecommons.org/ns#"
   xmlns:rdf="http://www.w3.org/1999/02/22-rdf-syntax-ns#"
   xmlns:svg="http://www.w3.org/2000/svg"
   xmlns="http://www.w3.org/2000/svg"
   xmlns:sodipodi="http://sodipodi.sourceforge.net/DTD/sodipodi-0.dtd"
   xmlns:inkscape="http://www.inkscape.org/namespaces/inkscape"
   width="424.74252"
   height="193.65547"
   id="svg4203"
   sodipodi:version="0.32"
   inkscape:version="0.48.4 r9939"
   version="1.0"
   sodipodi:docname="Japanese_Road_sign_(Direction_and_Notice_of_exit_A).svg"
   inkscape:output_extension="org.inkscape.output.svg.inkscape">
  <defs
     id="defs4205">
    <inkscape:perspective
       sodipodi:type="inkscape:persp3d"
       inkscape:vp_x="0 : 315 : 1"
       inkscape:vp_y="0 : 1000 : 0"
       inkscape:vp_z="1500 : 315 : 1"
       inkscape:persp3d-origin="750 : 210 : 1"
       id="perspective9" />
    <inkscape:perspective
       id="perspective3163"
       inkscape:persp3d-origin="372.04724 : 350.78739 : 1"
       inkscape:vp_z="744.09448 : 526.18109 : 1"
       inkscape:vp_y="0 : 1000 : 0"
       inkscape:vp_x="0 : 526.18109 : 1"
       sodipodi:type="inkscape:persp3d" />
    <inkscape:perspective
       id="perspective2395"
       inkscape:persp3d-origin="372.04724 : 350.78739 : 1"
       inkscape:vp_z="744.09448 : 526.18109 : 1"
       inkscape:vp_y="0 : 1000 : 0"
       inkscape:vp_x="0 : 526.18109 : 1"
       sodipodi:type="inkscape:persp3d" />
    <inkscape:perspective
       id="perspective3843"
       inkscape:persp3d-origin="227.5 : 145 : 1"
       inkscape:vp_z="455 : 217.5 : 1"
       inkscape:vp_y="0 : 1000 : 0"
       inkscape:vp_x="0 : 217.5 : 1"
       sodipodi:type="inkscape:persp3d" />
    <inkscape:perspective
       sodipodi:type="inkscape:persp3d"
       inkscape:vp_x="0 : 0.5 : 1"
       inkscape:vp_y="0 : 1000 : 0"
       inkscape:vp_z="1 : 0.5 : 1"
       inkscape:persp3d-origin="0.5 : 0.33333333 : 1"
       id="perspective4438" />
    <inkscape:perspective
       sodipodi:type="inkscape:persp3d"
       inkscape:vp_x="0 : 0.5 : 1"
       inkscape:vp_y="0 : 1000 : 0"
       inkscape:vp_z="1 : 0.5 : 1"
       inkscape:persp3d-origin="0.5 : 0.33333333 : 1"
       id="perspective4410" />
    <inkscape:perspective
       sodipodi:type="inkscape:persp3d"
       inkscape:vp_x="0 : 0.5 : 1"
       inkscape:vp_y="0 : 1000 : 0"
       inkscape:vp_z="1 : 0.5 : 1"
       inkscape:persp3d-origin="0.5 : 0.33333333 : 1"
       id="perspective4388" />
    <inkscape:perspective
       sodipodi:type="inkscape:persp3d"
       inkscape:vp_x="0 : 0.5 : 1"
       inkscape:vp_y="0 : 1000 : 0"
       inkscape:vp_z="1 : 0.5 : 1"
       inkscape:persp3d-origin="0.5 : 0.33333333 : 1"
       id="perspective4366" />
    <inkscape:perspective
       sodipodi:type="inkscape:persp3d"
       inkscape:vp_x="0 : 0.5 : 1"
       inkscape:vp_y="0 : 1000 : 0"
       inkscape:vp_z="1 : 0.5 : 1"
       inkscape:persp3d-origin="0.5 : 0.33333333 : 1"
       id="perspective3570" />
    <inkscape:perspective
       sodipodi:type="inkscape:persp3d"
       inkscape:vp_x="0 : 0.5 : 1"
       inkscape:vp_y="0 : 1000 : 0"
       inkscape:vp_z="1 : 0.5 : 1"
       inkscape:persp3d-origin="0.5 : 0.33333333 : 1"
       id="perspective3503" />
    <inkscape:perspective
       sodipodi:type="inkscape:persp3d"
       inkscape:vp_x="0 : 0.5 : 1"
       inkscape:vp_y="0 : 1000 : 0"
       inkscape:vp_z="1 : 0.5 : 1"
       inkscape:persp3d-origin="0.5 : 0.33333333 : 1"
       id="perspective3472" />
    <inkscape:perspective
       sodipodi:type="inkscape:persp3d"
       inkscape:vp_x="0 : 0.5 : 1"
       inkscape:vp_y="0 : 1000 : 0"
       inkscape:vp_z="1 : 0.5 : 1"
       inkscape:persp3d-origin="0.5 : 0.33333333 : 1"
       id="perspective3401" />
    <inkscape:perspective
       id="perspective3391"
       inkscape:persp3d-origin="372.04724 : 350.78739 : 1"
       inkscape:vp_z="744.09448 : 526.18109 : 1"
       inkscape:vp_y="0 : 1000 : 0"
       inkscape:vp_x="0 : 526.18109 : 1"
       sodipodi:type="inkscape:persp3d" />
  </defs>
  <sodipodi:namedview
     id="base"
     pagecolor="#ffffff"
     bordercolor="#666666"
     borderopacity="1.0"
     gridtolerance="10000"
     guidetolerance="10"
     objecttolerance="10"
     inkscape:pageopacity="0.0"
     inkscape:pageshadow="2"
     inkscape:zoom="0.70710678"
     inkscape:cx="350.79332"
     inkscape:cy="106.29783"
     inkscape:document-units="px"
     inkscape:current-layer="layer1"
     width="1500px"
     height="630px"
     inkscape:window-width="1680"
     inkscape:window-height="988"
     inkscape:window-x="-8"
     inkscape:window-y="-8"
     showgrid="false"
     showguides="true"
     inkscape:guide-bbox="true"
     inkscape:snap-center="true"
     inkscape:window-maximized="1"
     fit-margin-top="0"
     fit-margin-left="0"
     fit-margin-right="0"
     fit-margin-bottom="0"
     inkscape:object-nodes="true" />
  <metadata
     id="metadata4208">
    <rdf:RDF>
      <cc:Work
         rdf:about="">
        <dc:format>image/svg+xml</dc:format>
        <dc:type
           rdf:resource="http://purl.org/dc/dcmitype/StillImage" />
        <dc:title></dc:title>
      </cc:Work>
    </rdf:RDF>
  </metadata>
  <g
     inkscape:label="sign"
     inkscape:groupmode="layer"
     id="layer1"
     transform="translate(479.72286,-320.38931)">
    <path
       inkscape:connector-curvature="0"
       d="m -479.72286,320.38931 0,193.65547 424.742521,0 0,-193.65547 -424.742521,0 z"
       style="fill:#005d35;fill-opacity:1;fill-rule:nonzero;stroke:none"
       id="path10781" />
    <g
       style="font-size:67.81556702px;font-style:normal;font-variant:normal;font-weight:normal;font-stretch:normal;line-height:125%;letter-spacing:0px;word-spacing:0px;fill:#ffffff;fill-opacity:1;stroke:none;font-family:GD-HighwayGothicJA-TTF;-inkscape-font-specification:GD-HighwayGothicJA-TTF"
       id="text10318">
      <path
         d="m -389.11963,414.21455 0,-18.21218 -20.0003,0 0,-6.15904 20.0003,0 0,-40.66285 6.0928,0 0,40.66285 6.09281,0 0,6.15904 -6.09281,0 0,18.21218 z m -18.07974,-56.35844 3.37753,-5.16564 10.92732,6.95374 -3.31131,5.09942 z m -21.58972,56.02731 0,-28.07988 c -1.14793,3.48793 -2.45038,6.86546 -3.90734,10.1326 l 0,0 c -1.19208,3.09056 -2.71528,6.02658 -4.56961,8.80808 l 0,0 -4.76828,-3.77489 c 1.45697,-2.33999 2.69319,-4.79035 3.70867,-7.35111 l 0,0 c 2.03092,-4.98901 3.81903,-10.08842 5.36431,-15.29823 l 0,0 -8.07959,0 0,-6.09281 12.25184,0 0,-23.0467 6.0928,0 0,23.0467 11.3909,0 0,6.09281 -11.3909,0 0,3.57621 c 3.57619,2.47246 7.4173,4.5034 11.52335,6.0928 l 0,0 -2.38414,5.62922 c -3.22303,-1.2362 -6.26943,-2.71525 -9.13921,-4.43715 l 0,0 0,24.70235 z m -10.06637,-52.4511 c -1.32453,-2.78145 -2.27377,-5.71747 -2.84773,-8.80808 l 0,0 6.09281,-0.86094 c 0.3532,2.51665 1.14791,4.87871 2.38414,7.0862 l 0,0 c 1.14791,2.51664 2.3179,4.967 3.50998,7.3511 l 0,0 -5.43054,2.71527 c -1.28038,-2.42825 -2.5166,-4.92276 -3.70866,-7.48355 z m 17.81483,3.90734 4.43715,-13.90749 5.76167,1.85434 -4.43715,13.90748 z m 13.84126,9.47034 3.37753,-5.16564 10.92732,6.95375 -3.31131,5.09941 z"
         id="path10348"
         inkscape:connector-curvature="0" />
      <path
         d="m -374.88101,366.79664 33.4442,-18.27842 33.64288,18.27842 -2.98018,5.43054 -6.15903,-3.31131 0,6.02658 -21.32482,0 0,6.42394 21.32482,0 0,6.15903 -21.32482,0 0,19.60294 28.80837,0 0,6.0928 -63.77577,0 0,-6.0928 28.80837,0 0,-19.60294 -21.65595,0 0,-6.15903 21.65595,0 0,-6.42394 -21.65595,0 0,-5.8279 -5.76167,3.11263 z m 46.49075,35.49721 9.86769,-11.72203 4.63583,3.84112 -9.86769,11.78825 z m -25.89442,0 -4.63583,3.90734 -9.8677,-11.78825 4.63583,-3.84112 z m 12.84787,-46.68943 -24.17254,13.24523 48.60998,0 z"
         id="path10350"
         inkscape:connector-curvature="0" />
      <path
         d="m -268.85296,355.14084 c 3.48787,-0.0441 6.93162,-0.52976 10.33128,-1.45698 4.41502,-1.23616 8.67556,-2.95804 12.78164,-5.16564 l 0,0 3.11263,5.49677 c -7.15248,3.97362 -14.79056,6.33568 -22.91425,7.0862 l 0,0 0,6.95374 24.90103,0 0,6.42394 -6.22525,0 0,39.60323 -6.22526,0 0,-39.60323 -12.45052,0 0,21.05991 c 0.26487,6.49017 -1.56739,12.18561 -5.49677,17.08635 l 0,0 -4.96696,-3.77489 c 2.91392,-3.88527 4.26052,-8.32242 4.0398,-13.31146 l 0,0 0,-40.39794 z m -34.50382,10.99354 25.76197,0 0,25.49706 -19.33804,0 0,22.45066 -6.42393,0 z m 19.33803,6.42393 -12.9141,0 0,12.71542 12.9141,0 z m -22.45066,-20.99368 28.8746,0 0,6.22525 -28.8746,0 z"
         id="path10352"
         inkscape:connector-curvature="0" />
    </g>
    <g
       transform="scale(1.0691562,0.93531703)"
       style="font-size:57.66387177px;font-style:normal;font-variant:normal;font-weight:normal;font-stretch:normal;line-height:125%;letter-spacing:0px;word-spacing:0px;fill:#ffffff;fill-opacity:1;stroke:none;font-family:GD-HighwayGothicJA-TTF;-inkscape-font-specification:GD-HighwayGothicJA-TTF"
       id="text10322">
      <path
         d="m -190.22559,390.95901 0,2.08356 c -0.22526,2.17746 -0.99487,4.139 -2.3088,5.88465 -1.31397,1.74572 -3.11597,2.63733 -5.40599,2.67483 l 0,0 -3.26612,0 0,6.53224 10.19254,0 0,35.70204 8.10898,0 0,-52.87732 z"
         id="path10355"
         inkscape:connector-curvature="0" />
      <path
         d="m -147.03399,443.83633 8.95366,0 -13.17709,-22.07445 11.99453,-15.26065 -9.34785,0 -11.03723,15.82378 0,-32.15437 -7.71479,0 0,53.66569 7.71479,0 0,-11.48772 3.49137,-4.50499 z"
         id="path10357"
         inkscape:connector-curvature="0" />
      <path
         d="m -98.380102,405.26236 c -2.139908,0.1502 -3.998218,0.87287 -5.574928,2.16802 -1.57678,1.29522 -2.83442,2.80627 -3.77293,4.53315 l 0,0 c -1.65185,-4.5425 -4.91797,-6.77622 -9.79835,-6.70117 l 0,0 c -1.91464,0.11266 -3.61339,0.71332 -5.09627,1.80199 -1.48291,1.08874 -2.71239,2.40269 -3.68846,3.94187 l 0,0 -0.16894,-4.50499 -7.32061,0 0,37.3351 7.7148,0 0,-23.08807 c -0.0751,-2.02722 0.52557,-3.86676 1.802,-5.51861 1.2764,-1.65181 2.98454,-2.53403 5.12442,-2.64668 l 0,0 c 1.61427,0.0376 2.78744,0.71331 3.51952,2.02724 0.73204,1.31398 1.06053,2.68425 0.98547,4.11081 l 0,0 0,25.11531 7.7148,0 0,-23.08807 c -0.0751,-2.02722 0.52555,-3.86676 1.80199,-5.51861 1.27638,-1.65181 2.98452,-2.53403 5.12443,-2.64668 l 0,0 c 1.614248,0.0376 2.787422,0.70393 3.519522,1.99909 0.73202,1.2952 1.060508,2.67486 0.985467,4.13896 l 0,0 0,25.11531 7.714795,0 0,-25.90369 c 0.150117,-3.34117 -0.694568,-6.40081 -2.534057,-9.17892 -2.139915,-2.44017 -4.824135,-3.60395 -8.052669,-3.49136 z"
         id="path10359"
         inkscape:connector-curvature="0" />
    </g>
    <g
       transform="scale(1.0656588,0.93838666)"
       style="font-size:47.87036514px;font-style:normal;font-variant:normal;font-weight:normal;font-stretch:normal;line-height:125%;letter-spacing:0px;word-spacing:0px;fill:#ffffff;fill-opacity:1;stroke:none;font-family:GD-HighwayGothicJA-TTF;-inkscape-font-specification:GD-HighwayGothicJA-TTF"
       id="text10326">
      <path
         d="m -371.27709,469.7718 -28.42303,0 0,6.77851 10.84563,0 0,37.77271 6.73177,0 0,-37.77271 10.84563,0 z"
         id="path10331"
         inkscape:connector-curvature="0" />
      <path
         d="m -350.75454,468.41609 c 5.39163,0.0935 9.53665,2.44654 12.43508,7.05901 1.52708,2.52445 2.5945,5.20469 3.20226,8.04073 0.6077,2.83609 0.91156,5.70332 0.9116,8.6017 l 0,0 c -4e-5,2.89842 -0.3039,5.77344 -0.9116,8.62508 -0.60776,2.85166 -1.67518,5.52411 -3.20226,8.01735 -2.89843,4.55018 -7.04345,6.85643 -12.43508,6.91877 l 0,0 c -5.42283,-0.0623 -9.58343,-2.36859 -12.48182,-6.91877 -1.49595,-2.49324 -2.55558,-5.16569 -3.17889,-8.01735 -0.62332,-2.85164 -0.91939,-5.72666 -0.88822,-8.62508 l 0,0 c -0.0312,-2.89838 0.2649,-5.76561 0.88822,-8.6017 0.62331,-2.83604 1.68294,-5.51628 3.17889,-8.04073 2.89839,-4.61247 7.05899,-6.96547 12.48182,-7.05901 z m -9.48992,23.70144 c -0.0312,2.18161 0.13244,4.34762 0.49086,6.49803 0.35839,2.15044 1.06741,4.19178 2.12705,6.12404 1.49593,2.74258 3.7866,4.16061 6.87201,4.25411 l 0,0 c 3.05421,-0.0935 5.36046,-1.51153 6.91877,-4.25411 0.99727,-1.93226 1.67512,-3.9736 2.03355,-6.12404 0.35838,-2.15041 0.53758,-4.31642 0.53761,-6.49803 l 0,0 c -3e-5,-2.1504 -0.17923,-4.30862 -0.53761,-6.47465 -0.35843,-2.16598 -1.03628,-4.21512 -2.03355,-6.14742 -1.55831,-2.74254 -3.86456,-4.17615 -6.91877,-4.30085 l 0,0 c -3.08541,0.1247 -5.37608,1.55831 -6.87201,4.30085 -1.05964,1.9323 -1.76866,3.98144 -2.12705,6.14742 -0.35842,2.16603 -0.52204,4.32425 -0.49086,6.47465 z"
         id="path10333"
         inkscape:connector-curvature="0" />
      <path
         d="m -322.19126,507.638 0,-37.8662 -6.77852,0 0,44.55122 25.05715,0 0,-6.68502 z"
         id="path10335"
         inkscape:connector-curvature="0" />
      <path
         d="m -292.45928,507.638 0,-37.8662 -6.77852,0 0,44.55122 25.05715,0 0,-6.68502 z"
         id="path10337"
         inkscape:connector-curvature="0" />
      <path
         d="m -223.36513,490.76183 14.5855,0 0,23.56119 -5.42281,0 -0.51424,-4.48784 c -2.11928,3.77103 -5.32934,5.71888 -9.63017,5.84355 l 0,0 c -5.29816,-0.0935 -9.30294,-2.39976 -12.01434,-6.91877 -1.37129,-2.33741 -2.35301,-4.84624 -2.94515,-7.52649 -0.65448,-2.99188 -0.96613,-6.03053 -0.93497,-9.11594 l 0,0 c -0.0312,-2.89838 0.26491,-5.76561 0.88822,-8.6017 0.62331,-2.83604 1.68294,-5.51628 3.1789,-8.04073 2.89839,-4.61247 7.05899,-6.96547 12.48182,-7.05901 l 0,0 c 4.0515,-0.0935 7.57321,1.2155 10.56514,3.92687 2.80487,3.11659 4.12941,6.77855 3.97361,10.98587 l 0,0 -6.77852,0 c -2e-5,-5.20462 -2.58677,-7.91603 -7.76023,-8.13422 l 0,0 c -3.08541,0.1247 -5.37608,1.55831 -6.87202,4.30085 -1.05964,1.9323 -1.76865,3.98144 -2.12705,6.14742 -0.35841,2.16603 -0.52203,4.32425 -0.49086,6.47465 l 0,0 c -0.0312,2.18161 0.13245,4.34762 0.49086,6.49803 0.3584,2.15044 1.06741,4.19178 2.12705,6.12404 1.49594,2.74258 3.78661,4.16061 6.87202,4.25411 l 0,0 c 1.62059,0.0935 3.13991,-0.28828 4.55797,-1.14534 1.41801,-0.85705 2.43089,-2.05693 3.03864,-3.59963 0.60771,-1.54269 0.89599,-3.12434 0.86485,-4.74496 l 0,0 0,-2.66466 -8.13422,0 z"
         id="path10339"
         inkscape:connector-curvature="0" />
      <path
         d="m -179.60864,514.32302 7.15251,0 -12.52857,-44.55122 -7.433,0 -12.52857,44.55122 7.10576,0 2.52441,-9.72366 13.18305,0 z m -14.02452,-16.50218 4.95533,-18.88636 4.86184,18.88636 z"
         id="path10341"
         inkscape:connector-curvature="0" />
      <path
         d="m -140.80745,469.7718 -28.42303,0 0,6.77851 10.84563,0 0,37.77271 6.73177,0 0,-37.77271 10.84563,0 z"
         id="path10343"
         inkscape:connector-curvature="0" />
      <path
         d="m -129.40085,507.638 0,-13.18305 15.89445,0 0,-6.73177 -15.89445,0 0,-11.17287 17.95138,0 0,-6.77851 -24.7299,0 0,44.55122 25.38438,0 0,-6.68502 z"
         id="path10345"
         inkscape:connector-curvature="0" />
    </g>
  </g>
</svg>
