<?xml version="1.0" encoding="UTF-8" standalone="no"?>
<!-- Created with Inkscape (http://www.inkscape.org/) -->

<svg
   xmlns:osb="http://www.openswatchbook.org/uri/2009/osb"
   xmlns:dc="http://purl.org/dc/elements/1.1/"
   xmlns:cc="http://creativecommons.org/ns#"
   xmlns:rdf="http://www.w3.org/1999/02/22-rdf-syntax-ns#"
   xmlns:svg="http://www.w3.org/2000/svg"
   xmlns="http://www.w3.org/2000/svg"
   xmlns:xlink="http://www.w3.org/1999/xlink"
   xmlns:sodipodi="http://sodipodi.sourceforge.net/DTD/sodipodi-0.dtd"
   xmlns:inkscape="http://www.inkscape.org/namespaces/inkscape"
   version="1.1"
   width="1800.4003"
   height="300.40027"
   id="svg2"
   xml:space="preserve"
   inkscape:version="0.48.4 r9939"
   sodipodi:docname="Ajax.svg"><sodipodi:namedview
     pagecolor="#ffffff"
     bordercolor="#666666"
     borderopacity="1"
     objecttolerance="10"
     gridtolerance="10"
     guidetolerance="10"
     inkscape:pageopacity="0"
     inkscape:pageshadow="2"
     inkscape:window-width="1280"
     inkscape:window-height="1001"
     id="namedview28"
     showgrid="false"
     fit-margin-top="0.2"
     fit-margin-left="0.2"
     fit-margin-right="0.2"
     fit-margin-bottom="0.2"
     inkscape:zoom="0.40989584"
     inkscape:cx="913.57296"
     inkscape:cy="8.2990351"
     inkscape:window-x="-8"
     inkscape:window-y="-8"
     inkscape:window-maximized="1"
     inkscape:current-layer="svg2" /><metadata
     id="metadata8"><rdf:RDF><cc:Work
         rdf:about=""><dc:format>image/svg+xml</dc:format><dc:type
           rdf:resource="http://purl.org/dc/dcmitype/StillImage" /><dc:title /></cc:Work></rdf:RDF></metadata><defs
     id="defs6"><linearGradient
       id="linearGradient15703"
       osb:paint="solid"><stop
         style="stop-color:#ffffff;stop-opacity:1;"
         offset="0"
         id="stop15705" /></linearGradient><linearGradient
       inkscape:collect="always"
       xlink:href="#linearGradient15703"
       id="linearGradient15707"
       x1="-37.125"
       y1="465.375"
       x2="967.87512"
       y2="465.375"
       gradientUnits="userSpaceOnUse"
       gradientTransform="translate(961.6578,56.04101)" /></defs><g
     id="g2991"
     transform="matrix(34.167339,0,0,34.167339,14.96955,-265.98947)" /><path
     style="font-size:medium;font-style:normal;font-variant:normal;font-weight:normal;font-stretch:normal;text-indent:0;text-align:start;text-decoration:none;line-height:normal;letter-spacing:normal;word-spacing:normal;text-transform:none;direction:ltr;block-progression:tb;writing-mode:lr-tb;text-anchor:start;baseline-shift:baseline;color:#000000;fill:#000000;fill-opacity:1;fill-rule:nonzero;stroke:none;stroke-width:30;marker:none;visibility:visible;display:inline;overflow:visible;enable-background:accumulate;font-family:Sans;-inkscape-font-specification:Sans"
     d="m 1743.544,300.20026 c 31.1185,0 56.6563,-25.5377 56.6563,-56.6563 l 0,-186.68776 C 1800.2003,25.7364 1774.6619,0.2 1743.544,0.2 L 56.8563,0.2 C 25.7386,0.2 0.2,25.7364 0.2,56.8562 l 0,186.68776 c 0,31.1186 25.5377,56.6563 56.6563,56.6563 z"
     id="path14428"
     inkscape:connector-curvature="0"
     sodipodi:nodetypes="sssssssss" /><path
     inkscape:connector-curvature="0"
     d="m 56.8668,285.20026 c -23.012,0 -41.6668,-18.6548 -41.6668,-41.6668 l 0,-186.66706 c 0,-23.014 18.6548,-41.6668 41.6668,-41.6668 l 1686.6669,0 c 23.0119,0 41.6666,18.6528 41.6666,41.6668 l 0,186.66706 c 0,23.012 -18.6547,41.6668 -41.6666,41.6668 z"
     style="fill:#ffffff;fill-opacity:1;fill-rule:nonzero;stroke:none"
     id="path14430"
     sodipodi:nodetypes="sssssssss" /><path
     inkscape:connector-curvature="0"
     d="m 393.35188,230.57181 c 0.6713,-3.33658 2.3815,-5.96238 5.1308,-7.87739 2.749,-1.91496 5.7054,-2.62322 8.8692,-2.12479 30.66999,4.99984 61.17228,12.41567 91.50687,22.24742 3.16339,1.002 5.45349,2.91951 6.87029,5.75263 1.4163,2.83301 1.6261,5.83393 0.6294,9.00274 -0.8344,3.00082 -2.7099,5.20953 -5.62669,6.62614 -2.9172,1.4165 -5.8761,1.70771 -8.8768,0.8736 -29.00199,-8.83494 -58.58618,-15.75228 -88.75267,-20.75211 -3.3316,-0.4985 -5.9562,-2.12351 -7.8736,-4.87522 -1.9176,-2.75162 -2.5432,-5.70933 -1.8768,-8.87302 z m -83.49607,-84.75538 c 0.4984,-0.82896 1.3313,-2.11961 2.4986,-3.87194 1.1673,-1.75211 2.0002,-3.04276 2.4987,-3.87194 0.8341,-1.16973 0.8341,-2.33704 0,-3.5019 -8.33139,-13.33613 -15.66319,-24.92014 -21.99559,-34.752071 -4.6692,-6.998591 -4.7531,-14.165168 -0.2517,-21.499756 1.6682,-2.497193 3.9596,-3.787839 6.874,-3.87193 2.9145,-0.0838 5.2058,1.122966 6.8741,3.620159 0.1678,0.168021 0.3764,0.502443 0.6256,1.003275 0.2492,0.501163 0.4578,0.833044 0.6257,0.995645 0.3356,0.335852 0.7527,0.503703 1.2512,0.503543 0.49839,1.6e-4 0.83149,-0.167691 0.99939,-0.503543 4.5013,-9.165327 9.0001,-19.081038 13.4964,-29.747164 1.3377,-2.832864 3.4637,-4.875015 6.3782,-6.126441 2.9144,-1.251027 5.7894,-1.292987 8.62499,-0.125881 2.8356,1.167496 4.8357,3.251607 6.0005,6.252322 1.1647,3.001096 1.0808,5.918081 -0.2517,8.750956 -7.3345,16.332244 -14.25179,30.581468 -20.75199,42.747726 -0.6663,1.33274 -0.6663,2.50005 0,3.5019 0.5035,0.8343 1.297,2.12622 2.3804,3.87575 1.0833,1.74982 1.8742,3.04174 2.3727,3.87576 0.8341,1.16489 1.5844,1.24881 2.2507,0.25178 6.0017,-10.0046 12.83509,-22.338841 20.50019,-37.002767 1.3325,-2.832885 3.4573,-4.708454 6.3743,-5.626709 2.9169,-0.917895 5.7919,-0.626703 8.62509,0.873574 2.8329,1.500628 4.7072,3.70935 5.6228,6.626165 0.9155,2.917145 0.6256,5.79217 -0.8697,8.625074 -4.1708,7.66519 -8.83749,16.082993 -13.99989,25.253433 -0.168,0.16289 -0.1273,0.41212 0.122,0.74768 0.2492,0.33583 0.5416,0.41975 0.8774,0.25177 3.8299,-1.00186 7.49579,-0.50214 10.99779,1.49918 3.5018,2.00159 5.7512,4.9173 6.7482,8.74715 3.1686,11.66806 5.7524,22.25261 7.7514,31.7537 0.3305,1.6684 1.1647,2.16685 2.5025,1.49537 15.83339,-6.16448 30.24779,-13.07929 43.24338,-20.74443 1.1697,-0.66619 1.2536,-1.50035 0.2518,-2.50245 -8.3315,-6.99862 -16.83059,-15.4978 -25.49749,-25.49757 -1.0021,-1.00186 -1.9202,-1.00186 -2.7542,0 l -4.7455,4.74551 c -2.3347,2.16688 -5.16899,3.08369 -8.50289,2.75041 -3.3342,-0.33303 -5.9167,-1.91613 -7.7477,-4.74932 -1.999,-2.83293 -2.8319,-6.08307 -2.4986,-9.75042 0.333,-3.667069 1.7483,-6.749355 4.2457,-9.246878 13.33609,-13.336079 24.41909,-27.587853 33.24889,-42.755341 1.8361,-3.331328 4.54579,-5.82996 8.12919,-7.495919 3.5831,-1.665559 7.2083,-2.165291 10.8757,-1.499188 3.3313,0.666504 5.7053,2.416193 7.122,5.249047 1.4164,2.833265 1.3744,5.66632 -0.1259,8.499194 -0.1629,0.498643 -0.4948,1.164946 -0.9956,1.998911 -0.5012,0.834344 -0.8356,1.500647 -1.0033,1.99891 -0.3307,0.335882 -0.3714,0.712264 -0.122,1.129156 0.249,0.417262 0.6229,0.625803 1.1215,0.625613 l 59.75338,0 c 2.83279,1.9e-4 5.29079,1.083566 7.37379,3.250137 2.0826,2.166941 3.124,4.666854 3.1242,7.499739 -2e-4,7.497358 -1.6659,14.079012 -4.9972,19.744972 -9.17079,16.001607 -20.58689,30.418677 -34.24838,43.251267 -1.0021,1.0021 -0.9208,1.83626 0.2442,2.50245 12.16609,7.16669 26.33389,14.24933 42.50328,21.24797 3.1635,1.3327 5.4128,3.49946 6.7482,6.50028 1.33494,3.00099 1.41759,6.08583 0.248,9.2545 -0.9972,3.16375 -2.9541,5.41188 -5.8708,6.74443 -2.9172,1.33266 -5.8762,1.33266 -8.8768,0 -21.00139,-8.99758 -38.91778,-18.49621 -53.74908,-28.49594 -1.1649,-0.83405 -2.3322,-0.83405 -3.5019,0 -8.16359,5.49837 -15.66329,10.08111 -22.49909,13.74824 -0.3307,0.16793 -0.4961,0.41842 -0.4959,0.75151 -2e-4,0.33322 0.1652,0.58372 0.4959,0.75149 20.33469,6.50035 39.33439,14.00007 56.99918,22.49921 3.0007,1.33265 5.0848,3.58206 6.2523,6.74822 1.1671,3.16627 1.0844,6.33375 -0.248,9.50247 -1.17,2.99585 -3.2961,4.99477 -6.3781,5.99673 -3.0825,1.00204 -6.1241,0.83672 -9.12479,-0.49591 -15.6659,-7.50224 -31.66469,-14.00251 -47.99649,-19.50083 -3.6673,-1.33256 -6.2931,-3.70785 -7.87739,-7.1259 -1.5845,-3.41792 -1.7103,-6.96052 -0.3776,-10.62779 l 0.9994,-2.99838 c 0.1677,-0.33562 0.085,-0.62808 -0.2479,-0.87738 -0.3333,-0.24916 -0.6677,-0.28985 -1.0033,-0.12208 -7.1667,3.49944 -15.915,7.33196 -26.24509,11.49756 -2.6704,1.00207 -5.2555,0.87745 -7.7553,-0.37384 -2.5,-1.25116 -4.1645,-3.20937 -4.9934,-5.87466 -0.3358,-1.16469 -1.0046,-1.58177 -2.0065,-1.25122 l -1.2436,0.25177 c -2.3347,0.49852 -4.4608,0.12341 -6.3782,-1.12535 -1.9176,-1.24861 -3.1256,-3.04026 -3.624,-5.37494 -0.3358,-0.83407 -0.91809,-1.25114 -1.74709,-1.25122 l -13.504,0.99945 c -1.5005,8e-5 -2.2508,0.75031 -2.2507,2.25068 l 0,85.25133 c -1e-4,3.49932 -1.25,6.49894 -3.7499,8.99885 -2.4999,2.49991 -5.4995,3.74992 -8.99879,3.74992 -3.4994,0 -6.499,-1.25001 -8.9989,-3.74992 -2.4999,-2.49991 -3.7499,-5.49953 -3.7498,-8.99885 l 0,-83.50419 c -1e-4,-1.33252 -0.7503,-1.99883 -2.2507,-1.99891 l -18.99719,1.25123 c -3.0009,0.16792 -5.5847,-0.74888 -7.7515,-2.75041 -2.1667,-2.00138 -3.334,-4.50128 -3.5019,-7.49973 -0.1678,-2.99828 0.7897,-5.6228 2.8725,-7.87358 2.0828,-2.25059 4.6247,-3.45985 7.6256,-3.62779 l 6.752,-0.49592 c 1.3326,1e-4 2.4159,-0.58482 3.25009,-1.75477 z M 419.35287,90.319925 c 9.0025,11.500255 18.5876,21.250655 28.75519,29.251255 0.9967,0.83427 2.1615,0.75035 3.4942,-0.25177 11.3371,-9.83166 21.2553,-22.165909 29.75469,-37.002756 0.3304,-0.330452 0.3711,-0.704294 0.1221,-1.121526 -0.2495,-0.416912 -0.6233,-0.625453 -1.1216,-0.625613 l -54.25258,0 c -1.3327,1.6e-4 -2.4161,0.583813 -3.2501,1.750949 -0.8343,1.167466 -2.083,2.750574 -3.746,4.749325 -0.67159,1.002155 -0.59019,2.08553 0.2441,3.250136 z M 359.1036,142.32216 c -1.5006,-6.50018 -3.4155,-13.66675 -5.745,-21.49975 -0.1679,-0.33558 -0.4184,-0.50342 -0.7515,-0.50355 -0.3332,1.3e-4 -0.6676,0.16797 -1.0032,0.50355 -5.1677,8.4993 -9.9997,16.33218 -14.4959,23.49866 -0.66629,0.997 -0.3332,1.49546 0.9995,1.49536 l 19.2489,-1.24359 c 0.4984,10e-5 0.9562,-0.2504 1.3733,-0.75151 0.417,-0.50089 0.5416,-1.00062 0.3739,-1.49917 z m -54.37468,108.74993 c -2.416,1.66321 -5.0405,2.24561 -7.8736,1.74711 -2.833,-0.4984 -5.0824,-1.95561 -6.7482,-4.37163 -1.6657,-2.41601 -2.2494,-4.95912 -1.7509,-7.62943 3.0009,-16.16421 5.2515,-32.58018 6.752,-49.24799 0.3306,-2.83301 1.5373,-5.16635 3.6201,-7.00001 2.0829,-1.83354 4.5408,-2.66642 7.3739,-2.49864 2.833,0.16791 5.25019,1.45983 7.25169,3.87575 2.0014,2.41604 2.8343,5.04057 2.4986,7.87358 -1.5005,17.33411 -3.7486,34.16717 -6.74439,50.49922 -0.5035,2.83302 -1.9633,5.08373 -4.3792,6.75204 z m 54.12288,-14.25178 c -0.3307,-5.16762 -1.1216,-13.54349 -2.3727,-25.12753 -1.2513,-11.58397 -1.877,-17.54129 -1.8769,-17.87195 -0.3307,-3.00085 0.3789,-5.66734 2.1286,-7.99946 1.7496,-2.332 4.041,-3.66588 6.8741,-4.00164 2.83299,-0.33563 5.41679,0.33067 7.75149,1.99891 2.3345,1.66837 3.6671,3.91904 3.9978,6.75206 1.0019,8.49923 2.5023,23.24946 4.5013,44.2507 0.3356,2.83312 -0.4973,5.45763 -2.4986,7.87355 -2.0016,2.41601 -4.4188,3.70791 -7.2517,3.87582 -3.001,0.1678 -5.5429,-0.66511 -7.62559,-2.49872 -2.0829,-1.83361 -3.2922,-4.25082 -3.6278,-7.25174 z"
     id="path2817"
     style="font-size:250px;font-style:normal;font-variant:normal;font-weight:normal;font-stretch:normal;text-align:center;text-anchor:middle;fill:#000000;fill-opacity:1;stroke:none;font-family:'Rounded M+ 1m medium';-inkscape-font-specification:'Rounded M+ 1m medium,'" /><path
     inkscape:connector-curvature="0"
     d="m 1313.3569,181.628 0,-56.49582 c -10e-5,-3.83494 1.4164,-7.16899 4.2495,-10.00217 2.833,-2.83292 6.1645,-4.24945 9.9945,-4.24958 l 53.5049,0 c 1.5003,1.3e-4 2.2505,-0.66617 2.2507,-1.99891 l 0,-59.250046 c -2e-4,-3.834861 1.3744,-7.08499 4.1236,-9.750398 2.7491,-2.665007 5.9572,-3.997601 9.6245,-3.997811 3.6671,2.1e-4 6.8753,1.332804 9.6245,3.997811 2.749,2.665408 4.1236,5.915537 4.1237,9.750398 l 0,9.246845 c -10e-5,1.332794 0.7501,1.999096 2.2507,1.998906 l 82.7484,0 c 3.1685,1.9e-4 5.8362,1.083563 8.0032,3.250139 2.1665,2.166926 3.2499,4.834674 3.2501,8.003252 -2e-4,3.168919 -1.0836,5.835397 -3.2501,7.999443 -2.167,2.164376 -4.8347,3.246479 -8.0032,3.246319 l -82.7484,0 c -1.5006,1.6e-4 -2.2508,0.669002 -2.2507,2.006535 l 0,23.498607 c -10e-5,1.33274 0.7501,1.99904 2.2507,1.99891 l 68.5043,0 c 3.8297,1.3e-4 7.1612,1.41666 9.9945,4.24958 2.8328,2.83318 4.2494,6.16723 4.2496,10.00217 l 0,56.49582 c -2e-4,3.83511 -1.4168,7.16916 -4.2496,10.00217 -2.8333,2.8331 -6.1648,4.24963 -9.9945,4.24958 l -141.5024,0 -12.5045,0 c -3.83,5e-5 -7.1615,-1.41648 -9.9945,-4.24958 -2.8331,-2.83301 -4.2496,-6.16706 -4.2495,-10.00217 z m 26.7485,-46.24952 0,36.49913 c 0,1.33268 0.7502,1.99898 2.2507,1.99891 l 124.4964,0 c 1.5003,7e-5 2.2505,-0.66623 2.2507,-1.99891 l 0,-36.49913 c -2e-4,-1.33249 -0.7504,-1.9988 -2.2507,-1.99891 l -124.4964,0 c -1.5005,1.1e-4 -2.2507,0.66642 -2.2507,1.99891 z m 2.5025,89.00477 c -7.3344,12.66482 -14.3356,23.41465 -21.0037,32.24958 -2.1668,2.83301 -5.0418,4.54071 -8.625,5.12311 -3.5833,0.5824 -6.8754,-0.042 -9.8762,-1.873 -2.8331,-1.83621 -4.5828,-4.33732 -5.2491,-7.50352 -0.6663,-3.16621 0,-6.16592 1.9989,-8.99893 7.6701,-10.49803 14.5035,-20.74691 20.5002,-30.74654 1.6683,-3.00087 4.1694,-4.9184 7.5035,-5.75258 3.334,-0.83411 6.5829,-0.50096 9.7466,0.99945 3.0007,1.50049 5.0009,3.87577 6.0004,7.12587 0.9994,3.25016 0.6675,6.37568 -0.9956,9.37656 z m 48.3703,34.99609 c -2.2482,2.8331 -5.122,4.50011 -8.6212,5.00111 -3.4994,0.501 -6.625,-0.3739 -9.3765,-2.62451 -2.7518,-2.2507 -4.3768,-5.12571 -4.8752,-8.62502 -0.4985,-4.16571 -2.0829,-13.91604 -4.7531,-29.25121 -0.6664,-3.49934 0,-6.66554 2.0027,-9.49863 2.0014,-2.83302 4.7517,-4.49877 8.2512,-4.99726 3.6671,-0.50352 6.9592,0.24544 9.8762,2.24686 2.9169,2.00148 4.7085,4.83581 5.3749,8.50299 1.6631,8.82978 3.245,18.74551 4.7455,29.74704 0.5035,3.49941 -0.3714,6.66562 -2.6245,9.49863 z m 36.1252,-5.50082 c -3.9979,-11.50003 -7.8304,-21.74886 -11.4975,-30.7465 -1.3327,-3.16872 -1.2501,-6.25227 0.248,-9.25066 1.4977,-2.99833 3.915,-4.91458 7.2517,-5.74877 3.4992,-1.00196 6.832,-0.71077 9.9983,0.87357 3.1661,1.58441 5.4155,4.04235 6.7482,7.37383 3.1686,7.83289 7.0036,18.16568 11.5051,30.99831 1.1646,3.16871 0.9141,6.25362 -0.7514,9.25453 -1.666,3.00081 -4.1659,4.91711 -7.4997,5.74871 -3.3342,0.83161 -6.5437,0.45651 -9.6283,-1.1253 -3.085,-1.5819 -5.2098,-4.04111 -6.3744,-7.37772 z m 44.754,-46.99715 c 2.9956,-1.66827 6.2025,-2.1273 9.6207,-1.37711 3.4178,0.75026 6.1262,2.5419 8.1253,5.37492 8.6668,12.66994 15.668,23.33589 21.0037,31.99781 1.663,2.83811 2.0368,5.88092 1.1215,9.12853 -0.9157,3.2476 -2.79,5.70551 -5.6228,7.37382 -3.0011,1.6683 -6.1266,2.0434 -9.3765,1.1254 -3.2504,-0.9181 -5.791,-2.79371 -7.6218,-5.62672 -4.1709,-6.83092 -11.0883,-17.41285 -20.752,-31.746 -1.8363,-2.66518 -2.4199,-5.62285 -1.7509,-8.87301 0.6686,-3.2501 2.4196,-5.70931 5.2528,-7.37764 z"
     id="path2819"
     style="font-size:250px;font-style:normal;font-variant:normal;font-weight:normal;font-stretch:normal;text-align:center;text-anchor:middle;fill:#000000;fill-opacity:1;stroke:none;font-family:'Rounded M+ 1m medium';-inkscape-font-specification:'Rounded M+ 1m medium,'" /></svg>