<?xml version="1.0" encoding="UTF-8" standalone="no"?>
<!-- Created with Inkscape (http://www.inkscape.org/) -->

<svg
   xmlns:dc="http://purl.org/dc/elements/1.1/"
   xmlns:cc="http://creativecommons.org/ns#"
   xmlns:rdf="http://www.w3.org/1999/02/22-rdf-syntax-ns#"
   xmlns:svg="http://www.w3.org/2000/svg"
   xmlns="http://www.w3.org/2000/svg"
   xmlns:sodipodi="http://sodipodi.sourceforge.net/DTD/sodipodi-0.dtd"
   xmlns:inkscape="http://www.inkscape.org/namespaces/inkscape"
   id="svg1890"
   sodipodi:version="0.32"
   inkscape:version="0.48.4 r9939"
   width="500.34357"
   height="500.34357"
   version="1.0"
   sodipodi:docname="AJAX1.svg"
   inkscape:output_extension="org.inkscape.output.svg.inkscape">
  <metadata
     id="metadata1895">
    <rdf:RDF>
      <cc:Work
         rdf:about="">
        <dc:format>image/svg+xml</dc:format>
        <dc:type
           rdf:resource="http://purl.org/dc/dcmitype/StillImage" />
      </cc:Work>
    </rdf:RDF>
  </metadata>
  <defs
     id="defs1893">
    <inkscape:perspective
       sodipodi:type="inkscape:persp3d"
       inkscape:vp_x="0 : 235 : 1"
       inkscape:vp_y="0 : 1000 : 0"
       inkscape:vp_z="470 : 235 : 1"
       inkscape:persp3d-origin="235 : 156.66667 : 1"
       id="perspective10" />
    <inkscape:perspective
       id="perspective2390"
       inkscape:persp3d-origin="372.04724 : 350.78739 : 1"
       inkscape:vp_z="744.09448 : 526.18109 : 1"
       inkscape:vp_y="0 : 1000 : 0"
       inkscape:vp_x="0 : 526.18109 : 1"
       sodipodi:type="inkscape:persp3d" />
    <inkscape:perspective
       id="perspective3168"
       inkscape:persp3d-origin="372.04724 : 350.78739 : 1"
       inkscape:vp_z="744.09448 : 526.18109 : 1"
       inkscape:vp_y="0 : 1000 : 0"
       inkscape:vp_x="0 : 526.18109 : 1"
       sodipodi:type="inkscape:persp3d" />
    <inkscape:perspective
       id="perspective2400"
       inkscape:persp3d-origin="372.04724 : 350.78739 : 1"
       inkscape:vp_z="744.09448 : 526.18109 : 1"
       inkscape:vp_y="0 : 1000 : 0"
       inkscape:vp_x="0 : 526.18109 : 1"
       sodipodi:type="inkscape:persp3d" />
    <inkscape:perspective
       id="perspective2391"
       inkscape:persp3d-origin="372.04724 : 350.78739 : 1"
       inkscape:vp_z="744.09448 : 526.18109 : 1"
       inkscape:vp_y="0 : 1000 : 0"
       inkscape:vp_x="0 : 526.18109 : 1"
       sodipodi:type="inkscape:persp3d" />
  </defs>
  <sodipodi:namedview
     inkscape:window-height="1004"
     inkscape:window-width="1280"
     inkscape:pageshadow="2"
     inkscape:pageopacity="0.0"
     guidetolerance="10.0"
     gridtolerance="10.0"
     objecttolerance="10.0"
     borderopacity="1.0"
     bordercolor="#666666"
     pagecolor="#ffffff"
     id="base"
     inkscape:zoom="1.2451783"
     inkscape:cx="214.69899"
     inkscape:cy="246.78383"
     inkscape:window-x="-8"
     inkscape:window-y="-8"
     inkscape:current-layer="svg1890"
     showgrid="false"
     fit-margin-top="0.2"
     fit-margin-left="0.2"
     fit-margin-right="0.2"
     fit-margin-bottom="0.2"
     inkscape:window-maximized="1"
     showguides="true"
     inkscape:guide-bbox="true" />
  <path
     style="fill:#fcdc0f;fill-opacity:1;fill-rule:nonzero;stroke:none"
     d="m 496.8946,242.33616 c 4.33196,4.33195 4.33196,11.33928 0,15.67124 L 258.00741,496.89459 c -4.33196,4.33196 -11.33929,4.33196 -15.67125,0 L 3.4489786,258.0074 c -4.3319698,-4.33197 -4.3319698,-11.33928 -10e-6,-15.67124 L 242.33617,3.4489588 c 4.33195,-4.33194972 11.33929,-4.33194372 15.67125,10e-6 z"
     id="path5216"
     inkscape:connector-curvature="0"
     sodipodi:nodetypes="sssssssss" />
  <path
     style="fill:#000000;fill-opacity:1;fill-rule:nonzero;stroke:none"
     d="M 250.17179,12.231763 12.231779,250.17177 250.17179,488.1118 488.11181,250.17178 z m 16.73435,30.875126 190.33054,190.330551 c 9.25965,9.25963 9.25965,24.20902 1e-5,33.46868 L 266.90615,457.23668 c -9.25965,9.25963 -24.20908,9.25963 -33.46871,0 L 43.106879,266.90612 c -9.25963,-9.25964 -9.25964,-24.20905 0,-33.46869 L 233.43744,43.106869 c 9.25965,-9.259653 24.20905,-9.25963 33.4687,2e-5 z"
     id="path17826"
     inkscape:connector-curvature="0"
     sodipodi:nodetypes="cccccsssssssss" />
  <path
     inkscape:connector-curvature="0"
     d="m 376.8417,313.1118 -253.33992,0 0,-128.96182 253.33992,128.96182"
     style="fill:#000000;fill-opacity:1;fill-rule:nonzero;stroke:none"
     id="path41534"
     sodipodi:nodetypes="cccc" />
  <path
     inkscape:connector-curvature="0"
     d="m 342.92601,213.0708 -73.91564,19.97944 c -2.50771,0.63639 -3.98767,3.20656 -3.26822,5.6526 0.63635,2.50772 3.20655,3.98768 5.63204,3.30937 l 73.99787,-19.91777 c 2.44603,-0.67748 3.90543,-3.22711 3.24769,-5.67316 -0.63639,-2.56939 -3.18603,-3.96711 -5.69374,-3.35048"
     style="fill:#000000;fill-opacity:1;fill-rule:nonzero;stroke:none"
     id="path41538" />
  <path
     inkscape:connector-curvature="0"
     d="m 285.37213,203.57444 c 0.22536,-2.67216 1.41908,-5.05653 3.43266,-6.78314 2.03496,-1.70607 4.64545,-2.54882 7.27647,-2.32274 2.63103,0.186 5.05651,1.46024 6.74204,3.45324 1.7266,2.01438 2.58992,4.60431 2.36381,7.25591 -0.43248,5.44705 -5.22095,9.55807 -10.72967,9.10584 -2.63107,-0.20568 -5.03597,-1.4191 -6.76261,-3.43268 -1.72661,-2.05549 -2.56935,-4.60431 -2.3227,-7.27643 m 8.36586,19.95887 c 5.11817,0.41109 10.0925,-1.19222 13.99794,-4.50154 3.88486,-3.35048 6.2898,-7.95478 6.7009,-13.13462 0.41112,-5.07707 -1.19217,-10.11305 -4.54264,-14.01851 -3.30933,-3.90544 -7.97531,-6.26924 -13.09352,-6.68037 -10.56524,-0.8419 -19.83552,7.05035 -20.71941,17.61562 -0.41109,5.13875 1.21193,10.09247 4.54268,14.01848 3.3299,3.90543 7.9753,6.2898 13.11405,6.70094"
     style="fill:#000000;fill-opacity:1;fill-rule:nonzero;stroke:none"
     id="path41542" />
  <path
     inkscape:connector-curvature="0"
     d="m 309.33922,251.03582 c 0.22537,-2.67213 1.43882,-5.05651 3.47378,-6.78314 2.01439,-1.70604 4.56321,-2.54879 7.2559,-2.34324 2.65159,0.22706 5.03597,1.4602 6.74204,3.47378 1.74717,1.99381 2.58992,4.58377 2.34324,7.23536 -0.4111,5.44706 -5.24152,9.5786 -10.68857,9.14695 -2.6516,-0.24675 -5.05651,-1.45857 -6.78314,-3.47381 -1.72661,-2.03492 -2.56937,-4.58374 -2.34325,-7.2559 m 8.3864,19.95889 c 5.09765,0.4522 10.09251,-1.1922 14.03905,-4.5221 3.8849,-3.28879 6.24871,-7.99588 6.68036,-13.13462 0.39137,-5.07707 -1.23331,-10.05137 -4.58374,-13.95683 -3.30936,-3.90545 -7.97534,-6.31035 -13.05241,-6.72148 -10.56527,-0.8419 -19.87666,7.05036 -20.71941,17.61563 -0.41109,5.11817 1.19221,10.11303 4.50153,14.01847 3.35048,3.90543 8.01646,6.26928 13.13462,6.70093"
     style="fill:#000000;fill-opacity:1;fill-rule:nonzero;stroke:none"
     id="path41546" />
  <path
     inkscape:connector-curvature="0"
     d="m 201.05566,136.48302 c -0.9669,0.0821 -3.22713,-0.0821 -4.09043,1.58192 l -2.50769,4.72764 c -0.86332,1.6444 -0.22537,3.00101 1.46019,2.93934 1.62303,-0.017 3.00106,-0.0658 3.00106,-0.0658 l -24.3371,46.20757 c -1.39775,2.67217 -0.36999,5.94039 2.28161,7.31757 2.63102,1.39772 5.91982,0.38971 7.297,-2.26103 l 27.99588,-53.07292 c 1.33523,-2.63105 0.34861,-5.91985 -2.30217,-7.31757 0,0 -7.76976,-0.16461 -8.79753,-0.0658"
     style="fill:#000000;fill-opacity:1;fill-rule:nonzero;stroke:none"
     id="path41550" />
  <path
     inkscape:connector-curvature="0"
     d="m 244.03607,177.81906 c 2.54882,-4.85099 1.76775,-10.33916 -1.7677,-12.1891 -3.47381,-1.8294 -8.44811,0.59692 -11.01746,5.44707 l -13.8335,26.22813 c -2.56935,4.85096 -1.80884,10.33916 1.72661,12.23021 3.51491,1.82937 8.46867,-0.61664 11.03802,-5.42653 l 13.85403,-26.28978 z m -5.71427,31.28464 c -5.13874,9.66086 -15.97119,14.12129 -24.13152,9.78416 -8.16032,-4.29596 -10.6269,-15.76564 -5.50872,-25.4676 l 14.45013,-27.35863 c 5.09764,-9.70195 15.99176,-14.12129 24.11098,-9.80472 8.13976,4.29598 10.64747,15.74511 5.50872,25.44702 L 238.3218,209.1037"
     style="fill:#000000;fill-opacity:1;fill-rule:nonzero;stroke:none"
     id="path41554" />
  <path
     id="path51001"
     style="fill:#ffffff;fill-opacity:1;fill-rule:nonzero;stroke:none"
     d="m 159.47298,238.72342 97.30719,49.12634 -2.52824,4.95376 31.96294,0.53444 -19.40389,-25.44707 -2.48716,4.9743 -97.28663,-49.12634 z"
     inkscape:connector-curvature="0"
     sodipodi:nodetypes="cccccccc" />
</svg>
