<?xml version="1.0" encoding="UTF-8" standalone="no"?>
<!-- Created with Inkscape (http://www.inkscape.org/) -->

<svg
   xmlns:osb="http://www.openswatchbook.org/uri/2009/osb"
   xmlns:dc="http://purl.org/dc/elements/1.1/"
   xmlns:cc="http://creativecommons.org/ns#"
   xmlns:rdf="http://www.w3.org/1999/02/22-rdf-syntax-ns#"
   xmlns:svg="http://www.w3.org/2000/svg"
   xmlns="http://www.w3.org/2000/svg"
   xmlns:xlink="http://www.w3.org/1999/xlink"
   xmlns:sodipodi="http://sodipodi.sourceforge.net/DTD/sodipodi-0.dtd"
   xmlns:inkscape="http://www.inkscape.org/namespaces/inkscape"
   version="1.1"
   width="625.40002"
   height="1090.4"
   id="svg2"
   xml:space="preserve"
   inkscape:version="0.48.4 r9939"
   sodipodi:docname="AJAX1.svg"><sodipodi:namedview
     pagecolor="#ffffff"
     bordercolor="#666666"
     borderopacity="1"
     objecttolerance="10"
     gridtolerance="10"
     guidetolerance="10"
     inkscape:pageopacity="0"
     inkscape:pageshadow="2"
     inkscape:window-width="1280"
     inkscape:window-height="1004"
     id="namedview28"
     showgrid="false"
     fit-margin-top="0.2"
     fit-margin-left="0.2"
     fit-margin-right="0.2"
     fit-margin-bottom="0.2"
     inkscape:zoom="0.35355339"
     inkscape:cx="435.81383"
     inkscape:cy="70.966123"
     inkscape:window-x="-8"
     inkscape:window-y="-8"
     inkscape:window-maximized="1"
     inkscape:current-layer="svg2" /><metadata
     id="metadata8"><rdf:RDF><cc:Work
         rdf:about=""><dc:format>image/svg+xml</dc:format><dc:type
           rdf:resource="http://purl.org/dc/dcmitype/StillImage" /></cc:Work></rdf:RDF></metadata><defs
     id="defs6"><linearGradient
       id="linearGradient15703"
       osb:paint="solid"><stop
         style="stop-color:#ffffff;stop-opacity:1;"
         offset="0"
         id="stop15705" /></linearGradient><linearGradient
       inkscape:collect="always"
       xlink:href="#linearGradient15703"
       id="linearGradient15707"
       x1="-37.125"
       y1="465.375"
       x2="967.87512"
       y2="465.375"
       gradientUnits="userSpaceOnUse"
       gradientTransform="translate(961.6578,56.04101)" /></defs><g
     id="g2991"
     transform="matrix(34.167339,0,0,34.167339,-187.5308,261.51028)" /><path
     style="font-size:medium;font-style:normal;font-variant:normal;font-weight:normal;font-stretch:normal;text-indent:0;text-align:start;text-decoration:none;line-height:normal;letter-spacing:normal;word-spacing:normal;text-transform:none;direction:ltr;block-progression:tb;writing-mode:lr-tb;text-anchor:start;baseline-shift:baseline;color:#000000;fill:#0066b3;fill-opacity:1;fill-rule:nonzero;stroke:none;stroke-width:60;marker:none;visibility:visible;display:inline;overflow:visible;enable-background:accumulate;font-family:Sans;-inkscape-font-specification:Sans"
     d="m 0.2,1003.5437 c 0,47.5318 39.1245,86.6563 86.65625,86.6563 l 451.6875,0 c 47.53291,0 86.65625,-39.1258 86.65625,-86.6563 l 0,-916.6874 C 625.2,39.3258 586.07664,0.2 538.54375,0.2 l -451.6875,0 C 39.32454,0.2 0.2,39.3245 0.2,86.8563 z"
     id="path3967"
     inkscape:connector-curvature="0"
     sodipodi:nodetypes="sssssssss" /><path
     sodipodi:nodetypes="sssssssss"
     inkscape:connector-curvature="0"
     id="path4012"
     d="m 30.2,1003.5437 c 0,31.1185 25.53771,56.6563 56.65625,56.6563 l 451.6875,0 c 31.11981,0 56.65625,-25.5386 56.65625,-56.6563 l 0,-916.6874 C 595.2,55.7386 569.66355,30.2 538.54375,30.2 l -451.6875,0 C 55.73772,30.2 30.2,55.7377 30.2,86.8563 z"
     style="font-size:medium;font-style:normal;font-variant:normal;font-weight:normal;font-stretch:normal;text-indent:0;text-align:start;text-decoration:none;line-height:normal;letter-spacing:normal;word-spacing:normal;text-transform:none;direction:ltr;block-progression:tb;writing-mode:lr-tb;text-anchor:start;baseline-shift:baseline;color:#000000;fill:#ffffff;fill-opacity:1;fill-rule:nonzero;stroke:none;stroke-width:30;marker:none;visibility:visible;display:inline;overflow:visible;enable-background:accumulate;font-family:Sans;-inkscape-font-specification:Sans" /><path
     sodipodi:nodetypes="sssssssss"
     id="path4014"
     style="fill:#0066b3;fill-opacity:1;fill-rule:nonzero;stroke:none"
     d="M 45.2,86.8668 C 45.2,63.8548 63.8548,45.2 86.86676,45.2 l 451.66688,0 c 23.01392,0 41.66674,18.6548 41.66674,41.6668 l 0,916.6665 c 0,23.0119 -18.65282,41.6667 -41.66674,41.6667 l -451.66688,0 C 63.8548,1045.2 45.2,1026.5452 45.2,1003.5333 z"
     inkscape:connector-curvature="0" /><path
     sodipodi:nodetypes="ccccccsssscccccc"
     inkscape:connector-curvature="0"
     id="path4055"
     d="m 312.65017,131.7632 c 1.1942,-0.005 2.3847,0.75309 3.3125,2.3125 l 175.0301,297.53005 c 11.8436,25.74012 23.7684,49.53581 7.9375,65.40625 -15.8705,15.87044 -41.6534,1.92699 -51.5625,-5.96875 -9.8697,-7.93522 -73.2188,-53.53125 -73.2188,-53.53125 l 0,514.625 c 0,3.55308 -3.0012,6.5 -6.5937,6.5 l -109.71,0 c -3.5926,0 -6.5938,-2.94692 -6.5938,-6.5 l 0,-514.625 c 0,0 -63.3491,45.59603 -73.2187,53.53125 -9.9092,7.89574 -35.6921,21.83919 -51.5625,5.96875 -15.831,-15.87044 -3.9062,-39.66613 7.9375,-65.40625 L 309.33767,134.0757 c 0.9277,-1.55941 2.1182,-2.31744 3.3125,-2.3125 z"
     style="fill:#ffffff;fill-opacity:1;fill-rule:nonzero;stroke:none" /></svg>