<?xml version="1.0" encoding="UTF-8" standalone="no"?>
<!-- Created with Inkscape (http://www.inkscape.org/) -->

<svg
   xmlns:svg="http://www.w3.org/2000/svg"
   xmlns="http://www.w3.org/2000/svg"
   version="1.2"
   width="1200"
   height="500"
   id="svg5338">
  <defs
     id="defs5340" />
  <g
     transform="translate(0,-772.36217)"
     id="layer1">
    <rect
       width="1200"
       height="500"
       rx="50"
       ry="50"
       x="0"
       y="0"
       transform="translate(0,772.36217)"
       id="rect5348"
       style="color:#000000;fill:#000000;fill-opacity:1;stroke:none;stroke-width:99;marker:none;visibility:visible;display:inline;overflow:visible;enable-background:accumulate" />
    <rect
       width="1170"
       height="470"
       rx="50"
       ry="50"
       x="15"
       y="15"
       transform="translate(0,772.36217)"
       id="rect5860"
       style="color:#000000;fill:#ffffff;fill-opacity:1;fill-rule:nonzero;stroke:none;stroke-width:99;marker:none;visibility:visible;display:inline;overflow:visible;enable-background:accumulate" />
  </g>
  <path
     d="m 187.64141,321.05302 c -1.79855,-1.73326 -2.6978,-3.93358 -2.69775,-6.60095 -5e-5,-2.6671 0.90022,-4.86741 2.7008,-6.60095 1.80049,-1.73326 3.96622,-2.59995 6.4972,-2.6001 l 97.60131,0 c 2.53485,1.5e-4 4.70261,0.86684 6.5033,2.6001 1.80038,1.73354 2.70065,3.93385 2.70081,6.60095 -1.6e-4,2.66737 -0.90043,4.86769 -2.70081,6.60095 -1.80069,1.73353 -3.96845,2.60023 -6.5033,2.6001 l -97.60131,0 c -2.53098,1.3e-4 -4.69772,-0.86657 -6.50025,-2.6001 z m 55.30396,136.19996 c -23.46606,-10e-6 -41.99937,-3.93372 -55.59998,-11.80115 -13.6007,-7.86742 -20.40102,-18.26678 -20.401,-31.19812 -2e-5,-12.00354 7.73312,-26.20437 23.19946,-42.60254 1.86763,-2.00187 4.2012,-3.06897 7.00074,-3.2013 2.79942,-0.13216 5.26523,0.66842 7.39746,2.40174 2.00188,1.5992 3.06898,3.6988 3.20129,6.29883 0.13218,2.60016 -0.6684,4.83405 -2.40173,6.70166 -11.33225,12.13384 -16.99834,21.60038 -16.99829,28.39965 -5e-5,7.86543 4.80036,14.16527 14.40124,18.89954 9.60076,4.73431 23.00102,7.10145 40.20081,7.10144 18.00118,1e-5 36.93427,-2.20132 56.79931,-6.604 2.53484,-0.53302 4.90198,-0.13223 7.10144,1.20239 2.19914,1.33465 3.63244,3.33457 4.29993,5.99976 0.66715,2.66521 0.26737,5.13204 -1.19934,7.40051 -1.46705,2.26847 -3.46798,3.66923 -6.00281,4.20227 -21.19968,4.53287 -41.53251,6.79931 -60.99853,6.79932 z"
     id="path2883"
     style="font-size:200px;font-style:normal;font-weight:normal;text-align:center;text-anchor:middle;fill:#000000;fill-opacity:1;stroke:none;font-family:'Rounded M+ 1m medium';-inkscape-font-specification:'Rounded M+ 1m medium'" />
  <path
     d="m 417.64141,321.05302 c -1.79855,-1.73326 -2.6978,-3.93358 -2.69775,-6.60095 -5e-5,-2.6671 0.90022,-4.86741 2.7008,-6.60095 1.80049,-1.73326 3.96622,-2.59995 6.4972,-2.6001 l 97.60131,0 c 2.53485,1.5e-4 4.70261,0.86684 6.5033,2.6001 1.80038,1.73354 2.70065,3.93385 2.70081,6.60095 -1.6e-4,2.66737 -0.90043,4.86769 -2.70081,6.60095 -1.80069,1.73353 -3.96845,2.60023 -6.5033,2.6001 l -97.60131,0 c -2.53098,1.3e-4 -4.69772,-0.86657 -6.50025,-2.6001 z m 55.30396,136.19996 c -23.46606,-10e-6 -41.99937,-3.93372 -55.59998,-11.80115 -13.6007,-7.86742 -20.40102,-18.26678 -20.401,-31.19812 -2e-5,-12.00354 7.73312,-26.20437 23.19946,-42.60254 1.86763,-2.00187 4.2012,-3.06897 7.00074,-3.2013 2.79942,-0.13216 5.26523,0.66842 7.39746,2.40174 2.00188,1.5992 3.06898,3.6988 3.20129,6.29883 0.13218,2.60016 -0.6684,4.83405 -2.40173,6.70166 -11.33225,12.13384 -16.99834,21.60038 -16.99829,28.39965 -5e-5,7.86543 4.80036,14.16527 14.40124,18.89954 9.60076,4.73431 23.00102,7.10145 40.20081,7.10144 18.00118,1e-5 36.93427,-2.20132 56.79931,-6.604 2.53484,-0.53302 4.90198,-0.13223 7.10144,1.20239 2.19914,1.33465 3.63244,3.33457 4.29993,5.99976 0.66715,2.66521 0.26737,5.13204 -1.19934,7.40051 -1.46705,2.26847 -3.46798,3.66923 -6.00281,4.20227 -21.19968,4.53287 -41.53251,6.79931 -60.99853,6.79932 z"
     id="path2885"
     style="font-size:200px;font-style:normal;font-weight:normal;text-align:center;text-anchor:middle;fill:#000000;fill-opacity:1;stroke:none;font-family:'Rounded M+ 1m medium';-inkscape-font-specification:'Rounded M+ 1m medium'" />
  <path
     d="m 709.94732,442.25053 c 9.86319,10e-6 16.62893,-1.83308 20.29724,-5.49926 3.66811,-3.66617 5.56732,-10.50006 5.69763,-20.50171 -10e-5,-1.20033 -0.53314,-1.99989 -1.59912,-2.39868 -7.73121,-3.33248 -15.19784,-4.99874 -22.3999,-4.99878 -8.79727,4e-5 -15.16323,1.26652 -19.0979,3.79944 -3.93479,2.53299 -5.90216,6.39956 -5.9021,11.59973 -6e-5,5.73325 1.99986,10.16643 5.99976,13.29956 3.99977,3.13314 9.66789,4.69971 17.00439,4.6997 z m 25.99487,-93.79882 0,-18.4021 c -10e-5,-1.20024 -0.53314,-1.80042 -1.59912,-1.80054 l -70.39795,0 c -2.53502,1.2e-4 -4.66921,-0.86658 -6.40259,-2.6001 -1.73342,-1.73327 -2.60012,-3.86645 -2.60009,-6.39954 -3e-5,-2.53282 0.86667,-4.666 2.60009,-6.39953 1.73338,-1.73326 3.86757,-2.59996 6.40259,-2.6001 l 70.39795,0 c 1.06598,1.4e-4 1.59902,-0.60004 1.59912,-1.80054 l 0,-9.19799 c -10e-5,-2.79933 0.9673,-5.16546 2.90222,-7.09839 1.93471,-1.93262 4.30185,-2.89901 7.10144,-2.89917 2.79937,1.6e-4 5.16549,0.96655 7.09839,2.89917 1.93266,1.93293 2.89905,4.29906 2.89917,7.09839 l 0,9.19799 c -1.2e-4,1.2005 0.53292,1.80068 1.59912,1.80054 l 42.40113,0 c 2.53482,1.4e-4 4.66901,0.86684 6.40258,2.6001 1.73323,1.73353 2.59993,3.86671 2.6001,6.39953 -1.7e-4,2.53309 -0.86687,4.66627 -2.6001,6.39954 -1.73357,1.73352 -3.86776,2.60022 -6.40258,2.6001 l -42.40113,0 c -1.0662,1.2e-4 -1.59924,0.6003 -1.59912,1.80054 l 0,18.4021 c -1.2e-4,1.20045 0.53292,1.80063 1.59912,1.80053 l 35.40039,0 c 2.53483,1e-4 4.66903,0.8668 6.40259,2.6001 1.73323,1.73349 2.59993,3.86667 2.6001,6.39954 -1.7e-4,2.53304 -0.86687,4.66622 -2.6001,6.39953 -1.73356,1.73348 -3.86776,2.60018 -6.40259,2.6001 l -35.40039,0 c -1.0662,8e-5 -1.59924,0.60026 -1.59912,1.80054 l 0,32.80029 c -1.2e-4,1.2004 0.46782,2.0671 1.40381,2.6001 12.93118,7.46667 26.33042,17.06545 40.19776,28.79639 1.99771,1.73341 3.06379,3.90015 3.19824,6.50024 0.13411,2.6001 -0.66545,4.90011 -2.39868,6.90002 -1.73357,1.99992 -3.93388,3.06702 -6.60096,3.2013 -2.66739,0.13427 -4.99995,-0.66529 -6.99768,-2.39868 -10.13604,-8.66699 -19.40321,-15.93423 -27.80151,-21.80176 -0.93193,-0.6673 -1.53211,-0.46588 -1.80054,0.60425 -1.59924,11.73096 -5.96528,20.16296 -13.09814,25.29602 -7.13308,5.13304 -17.83253,7.69957 -32.09839,7.69958 -13.60277,-10e-6 -24.33681,-3.19927 -32.20215,-9.59778 -7.86543,-6.39851 -11.79813,-15.19875 -11.79809,-26.40075 -4e-5,-9.73304 3.49931,-17.73271 10.49804,-23.99903 6.99865,-6.26622 18.16604,-9.39935 33.5022,-9.39941 7.99959,6e-5 16.06436,1.33266 24.19434,3.9978 1.20025,0.26861 1.80043,-0.065 1.80053,-1.00097 l 0,-23.79761 c -10e-5,-1.20028 -0.53314,-1.80046 -1.59912,-1.80054 l -63.39722,0 c -2.53503,8e-5 -4.66922,-0.86662 -6.40258,-2.6001 -1.73343,-1.73331 -2.60013,-3.86649 -2.6001,-6.39953 -3e-5,-2.53287 0.86667,-4.66605 2.6001,-6.39954 1.73336,-1.7333 3.86756,-2.6 6.40258,-2.6001 l 63.39722,0 c 1.06598,1e-4 1.59902,-0.60008 1.59912,-1.80053 z"
     id="path2887"
     style="font-size:200px;font-style:normal;font-weight:normal;text-align:center;text-anchor:middle;fill:#000000;fill-opacity:1;stroke:none;font-family:'Rounded M+ 1m medium';-inkscape-font-specification:'Rounded M+ 1m medium'" />
  <path
     d="m 999.74346,352.85234 c 2.26634,-1.20026 4.63344,-1.43423 7.10144,-0.7019 2.4677,0.73251 4.3018,2.23194 5.5023,4.49829 1.9978,3.60116 4.9966,9.13501 8.9966,16.60156 1.2002,2.26651 1.4342,4.53295 0.7019,6.79932 -0.7326,2.2665 -2.232,3.93276 -4.4983,4.99878 -2.1364,1.07021 -4.4374,1.23806 -6.9031,0.50354 -2.4659,-0.7344 -4.299,-2.1677 -5.4992,-4.29993 -1.0662,-1.86761 -2.5992,-4.60096 -4.599,-8.20007 -2.00008,-3.59896 -3.46797,-6.33232 -4.40371,-8.20008 -1.20049,-2.13207 -1.43344,-4.39851 -0.69885,-6.79931 0.73432,-2.40063 2.16763,-4.13402 4.29992,-5.2002 z m 52.50244,20.39795 c -0.8669,2.40079 -2.4334,4.13419 -4.6997,5.2002 -2.2666,1.06615 -4.6338,1.16584 -7.1014,0.29907 -2.4681,-0.86663 -4.3022,-2.4332 -5.5024,-4.69971 -0.9319,-1.8676 -2.4649,-4.60095 -4.599,-8.20007 -2.1343,-3.59896 -3.6673,-6.26517 -4.599,-7.99866 -1.2005,-2.26635 -1.4334,-4.56635 -0.6988,-6.90002 0.7343,-2.33348 2.2347,-4.10045 4.5013,-5.30091 2.2663,-1.20025 4.6324,-1.46677 7.0984,-0.79956 2.4657,0.66742 4.3659,2.1343 5.7007,4.40064 3.0638,5.46477 6.1969,11.13086 9.3994,16.99829 1.2002,2.26652 1.367,4.60009 0.5005,7.00073 z m -84.30175,-46.99707 c 0.13417,1.2e-4 0.20131,-0.067 0.20141,-0.20142 -1e-4,-0.13415 -0.13438,-0.20129 -0.40283,-0.20141 -26.5341,1.0662 -53.86765,1.73352 -82.00073,2.00195 -2.53095,1.2e-4 -4.73025,-0.93371 -6.5979,-2.80151 -1.86769,-1.86755 -2.80153,-4.13399 -2.80152,-6.79932 -10e-6,-2.66507 0.90026,-4.89794 2.70081,-6.69861 1.80052,-1.80039 3.96828,-2.70066 6.5033,-2.7008 48.53101,-0.26842 96.59615,-1.46877 144.19551,-3.60108 2.6691,-0.13413 4.9702,0.699 6.9031,2.49939 1.9326,1.80068 2.9662,3.96844 3.1006,6.5033 0.1341,2.66533 -0.6655,4.99789 -2.3987,6.99768 -1.7335,2.00004 -3.9349,3.19938 -6.604,3.59802 -30.3997,3.99996 -53.13222,12.03319 -68.19761,24.09973 -15.0656,12.06674 -22.59835,26.69991 -22.59827,43.89954 -8e-5,15.20186 4.83288,27.06912 14.4989,35.60181 9.66583,8.53272 22.49846,12.79908 38.49793,12.79907 4.39846,1e-5 9.46435,-0.33365 15.19775,-1.00098 2.6691,-0.26448 5.0698,0.43641 7.2022,2.10266 2.132,1.66627 3.3323,3.76689 3.601,6.30188 0.2644,2.6652 -0.403,5.09745 -2.0019,7.29675 -1.5993,2.1993 -3.7315,3.43322 -6.3965,3.70179 -6.0019,0.80158 -12.20311,1.20238 -18.60353,1.20239 -22.79877,-10e-6 -40.89771,-5.90007 -54.29688,-17.7002 -13.39931,-11.80011 -20.09893,-27.90117 -20.09887,-48.30322 -6e-5,-14.79892 4.29986,-28.03235 12.89978,-39.70032 8.59977,-11.66778 21.09874,-21.30013 37.49695,-28.89709 z"
     id="path2889"
     style="font-size:200px;font-style:normal;font-weight:normal;text-align:center;text-anchor:middle;fill:#000000;fill-opacity:1;stroke:none;font-family:'Rounded M+ 1m medium';-inkscape-font-specification:'Rounded M+ 1m medium'" />
  <g
     transform="translate(733.28814,8.1186441)"
     id="flowRoot2828"
     style="font-size:200px;font-style:normal;font-weight:normal;text-align:center;text-anchor:middle;fill:#000000;fill-opacity:1;stroke:none;font-family:'Rounded M+ 1m medium';-inkscape-font-specification:'Rounded M+ 1m medium'">
    <path
       d="m -444.59644,209.05986 c -4e-5,2.26643 -0.7996,4.19921 -2.39868,5.79834 -1.59916,1.59911 -3.53193,2.39867 -5.79834,2.39868 l -2.60009,0 c -2.93379,-1e-5 -5.43419,-1.03354 -7.50123,-3.10058 -2.06707,-2.06707 -3.1006,-4.63258 -3.10058,-7.69654 l 0,-152.801509 c -2e-5,-3.067885 1.10065,-5.735119 3.302,-8.001709 2.20131,-2.266283 4.83396,-3.399501 7.89795,-3.399658 l 143.60352,0 c 2.53074,1.57e-4 4.69647,0.866855 6.49719,2.600098 1.80035,1.733551 2.70062,3.866727 2.7008,6.399536 -1.8e-4,2.533104 -0.90045,4.666281 -2.7008,6.399536 -1.80072,1.733538 -3.96645,2.600237 -6.49719,2.600098 l -131.60401,0 c -1.2004,1.39e-4 -1.80058,0.600317 -1.80054,1.800537 l 0,126.000981 c -4e-5,1.06609 0.60014,1.59913 1.80054,1.59912 l 133.59986,0 c 2.53481,1e-5 4.70257,0.90027 6.50329,2.7008 1.80035,1.80054 2.70062,3.96729 2.70081,6.50025 -1.9e-4,2.53295 -0.90046,4.63256 -2.70081,6.29882 -1.80072,1.66626 -3.96848,2.49939 -6.50329,2.49939 l -134.198,0 c -0.80164,0 -1.20244,0.46793 -1.2024,1.40381 z m 14.00147,-43.20068 c 17.73267,-11.33622 34.46646,-25.13625 50.20142,-41.40015 0.66721,-0.66724 0.60007,-1.4017 -0.20142,-2.20337 -11.73105,-10.13175 -24.53011,-19.86481 -38.39722,-29.199215 -2.13629,-1.464736 -3.37022,-3.497205 -3.70178,-6.097412 -0.33169,-2.599983 0.3692,-4.833868 2.10266,-6.701661 1.86354,-2.13204 4.1961,-3.398518 6.99768,-3.799438 2.80144,-0.400674 5.33541,0.198487 7.60193,1.797485 14.53034,9.867462 27.39654,19.600525 38.59863,29.199221 0.93169,0.66741 1.73125,0.6023 2.39869,-0.19531 9.59866,-11.466372 18.13137,-23.134248 25.59814,-35.003667 1.60304,-2.530795 3.80437,-4.163483 6.604,-4.898071 2.79933,-0.734324 5.46554,-0.368113 7.99866,1.098633 2.5328,1.467007 4.13293,3.600184 4.80042,6.399536 0.66715,2.799601 0.26635,5.399696 -1.2024,7.800293 -7.99983,12.666933 -17.39923,25.468026 -28.19824,38.403316 -0.80173,0.93188 -0.80173,1.79858 0,2.6001 11.33205,10.53067 23.39869,22.5973 36.19995,36.19995 1.8675,1.99792 2.76777,4.3966 2.70081,7.19605 -0.0673,2.79951 -1.16696,5.06594 -3.29895,6.79931 -2.1364,1.8677 -4.60425,2.70185 -7.40357,2.50245 -2.79964,-0.19936 -5.13321,-1.30003 -7.00073,-3.30201 -11.59682,-12.39823 -23.06328,-23.9298 -34.39941,-34.59472 -0.79765,-0.80154 -1.59721,-0.80154 -2.39868,0 -17.19982,17.73279 -34.39951,32.13097 -51.59913,43.19458 -2.66526,1.73341 -5.49831,2.33359 -8.49914,1.80053 -3.00095,-0.53302 -5.50034,-1.93276 -7.49817,-4.19921 -1.73345,-1.99787 -2.40077,-4.36399 -2.00195,-7.09839 0.39871,-2.73435 1.73131,-4.83396 3.9978,-6.29883 z"
       id="path2896" />
    <path
       d="m 101.40576,152.85869 -8.599852,0 c -3.068109,5e-5 -5.735343,-1.13317 -8.001709,-3.39966 -2.266507,-2.26638 -3.399725,-4.93362 -3.399658,-8.00171 l 0,-40.39917 c -6.7e-5,-3.067929 1.133151,-5.735163 3.399658,-8.001705 2.266366,-2.266331 4.9336,-3.399549 8.001709,-3.399659 l 37.200932,0 c 3.06791,1.1e-4 5.73514,1.133328 8.0017,3.399659 2.26632,2.266542 3.39954,4.933776 3.39966,8.001705 l 0,40.39917 c -1.2e-4,3.06809 -1.13334,5.73533 -3.39966,8.00171 -2.26656,2.26649 -4.93379,3.39971 -8.0017,3.39966 z m 0,-45.40405 0,27.6001 c -9e-5,1.20042 0.60009,1.8006 1.80054,1.80053 l 17.60254,0 c 1.06597,7e-5 1.59901,-0.60011 1.59912,-1.80053 l 0,-27.6001 c -1.1e-4,-1.1962 -0.53315,-1.79434 -1.59912,-1.79444 l -17.60254,0 c -1.20045,1e-4 -1.80063,0.59824 -1.80054,1.79444 z m -72.796629,71.80176 8.996582,-2.99683 c 1.200334,-0.53302 1.800512,-1.26747 1.800537,-2.20337 l 0,-70.00122 c -2.5e-5,-1.19619 -0.600203,-1.79434 -1.800537,-1.79443 l -8.197022,0 c -2.535006,9e-5 -4.669199,-0.86661 -6.402587,-2.600101 -1.733406,-1.733298 -2.600104,-3.867491 -2.600098,-6.402588 -6e-6,-2.534885 0.866692,-4.669079 2.600098,-6.402588 1.733388,-1.733285 3.867581,-2.599983 6.402587,-2.600098 l 8.197022,0 c 1.200334,1.15e-4 1.800512,-0.532925 1.800537,-1.599121 l 0,-31.396484 c -2.5e-5,-2.933606 1.033503,-5.400441 3.100586,-7.400513 2.067027,-1.999761 4.567431,-2.99972 7.501221,-2.999878 2.933718,1.58e-4 5.400553,1.000117 7.400512,2.999878 1.999874,2.000072 2.999832,4.466907 2.999878,7.400513 l 0,31.396484 c -4.6e-5,1.066196 0.532994,1.599236 1.599121,1.599121 l 6.396485,0 c 2.534937,1.15e-4 4.669131,0.866813 6.402588,2.600098 1.733336,1.733509 2.600034,3.867703 2.600097,6.402588 -6.3e-5,2.535097 -0.866761,4.66929 -2.600097,6.402588 -1.733457,1.733491 -3.867651,2.600191 -6.402588,2.600101 l -6.396485,0 c -1.066127,9e-5 -1.599167,0.59824 -1.599121,1.79443 l 0,62.00562 c -4.6e-5,1.06611 0.465855,1.39875 1.397705,0.99792 0.931755,-0.40077 2.264355,-0.96737 3.997803,-1.69983 1.733345,-0.73239 3.000841,-1.30001 3.80249,-1.70288 2.534936,-1.20032 5.06891,-1.13318 7.601929,0.20142 2.532894,1.33467 3.931615,3.40172 4.196167,6.20117 l 0.604248,4.19922 c 0.264418,1.0661 0.797458,1.532 1.599121,1.3977 21.06518,-5.20016 38.73077,-10.9985 52.99683,-17.39502 2.1361,-0.93583 4.20417,-0.87072 6.20422,0.19531 1.99979,1.06612 3.19913,2.66728 3.59802,4.80347 0.39863,2.66524 0.0314,5.23176 -1.10168,7.69959 -1.13335,2.46788 -2.90032,4.23484 -5.30091,5.3009 -13.9975,6.53078 -31.26433,12.46339 -51.800533,17.79785 -2.933827,0.8016 -5.667182,0.3357 -8.200073,-1.3977 -2.533022,-1.73339 -4.06602,-4.13411 -4.598999,-7.20215 l -0.598144,-3.80249 c -0.268615,-1.06606 -0.868794,-1.39769 -1.800537,-0.99488 -12.801153,6.13202 -26.733431,11.59873 -41.796875,16.40015 -2.270523,0.66325 -4.405734,0.39571 -6.40564,-0.80261 -1.999927,-1.19832 -3.199267,-2.99784 -3.598023,-5.39856 -0.398769,-2.53498 0.101719,-4.90213 1.501465,-7.10144 1.39973,-2.19928 3.367095,-3.69973 5.9021,-4.50134 z M 156.40454,161.85527 c -4.53301,-22.93288 -7.33249,-51.19823 -8.39844,-84.79614 -1.3e-4,-1.200235 -0.53317,-1.800413 -1.59912,-1.800537 l -64.001462,0 c -2.53099,1.24e-4 -4.66315,-0.866574 -6.396485,-2.600098 -1.733458,-1.73327 -2.600156,-3.866446 -2.600097,-6.399536 -5.9e-5,-2.532823 0.866639,-4.666 2.600097,-6.399536 1.733335,-1.733257 3.865495,-2.599956 6.396485,-2.600098 l 63.403322,0 c 1.19615,1.42e-4 1.7943,-0.600036 1.79443,-1.800537 -1.3e-4,-1.065936 -0.0327,-2.699642 -0.0977,-4.901123 -0.0652,-2.201183 -0.0978,-3.902028 -0.0977,-5.102539 -1.3e-4,-2.799322 0.99982,-5.199019 2.99988,-7.199096 1.99978,-1.999756 4.39947,-2.999714 7.19909,-2.999878 2.79934,1.64e-4 5.2326,1.033691 7.29981,3.100586 2.0669,2.067216 3.10043,4.500482 3.10058,7.299804 l 0,10.003662 c -1.5e-4,1.066224 0.60003,1.599263 1.80054,1.599121 l 7.99561,0 c 0.9357,1.42e-4 1.26936,-0.532897 1.00097,-1.599121 -0.26465,-0.80145 -0.79667,-2.202206 -1.59607,-4.20227 -0.79972,-1.999769 -1.40091,-3.532767 -1.80358,-4.598999 -0.93197,-2.400561 -0.93095,-4.767706 0.003,-7.101441 0.93367,-2.333415 2.59891,-3.966104 4.99572,-4.898071 2.40055,-1.065915 4.80127,-1.099484 7.20215,-0.100708 2.40054,0.999106 4.0668,2.698933 4.99878,5.099487 1.46874,3.60123 3.53579,9.135079 6.20117,16.601563 0.1341,0.533183 0.6,0.799702 1.39771,0.79956 1.86749,1.42e-4 3.43507,0.666442 4.70276,1.998902 1.2673,1.332739 1.90105,2.932876 1.90124,4.800415 l 0,2.197266 c -1.9e-4,2.535123 -0.86689,4.669317 -2.60009,6.402587 -1.73359,1.733524 -3.86778,2.600222 -6.40259,2.600098 l -27.39868,0 c -1.20052,1.24e-4 -1.8007,0.533164 -1.80054,1.599121 0.66716,18.933209 2.0669,37.266116 4.19922,54.998776 0.13412,0.26863 0.46777,0.20149 1.00097,-0.20141 3.06788,-7.59677 6.40039,-17.39494 9.99756,-29.39453 0.66715,-2.534898 2.1676,-4.402572 4.50135,-5.603031 2.3334,-1.200254 4.70054,-1.334532 7.10144,-0.402832 2.53481,0.935974 4.43503,2.570698 5.70068,4.904173 1.26527,2.33367 1.49924,4.76592 0.7019,7.29675 -6.40073,22.13549 -13.9345,40.53554 -22.60131,55.2002 -0.66749,1.06612 -0.86687,2.13423 -0.59815,3.20435 1.19612,5.4647 2.42802,10.13084 3.69568,13.99841 1.26733,3.86761 2.36799,6.63453 3.302,8.30078 0.93367,1.66627 1.73424,2.4994 2.40173,2.49939 2.13199,1e-5 3.86539,-8.40046 5.2002,-25.20142 0.26431,-2.13212 1.26325,-3.76481 2.99683,-4.89807 1.73321,-1.13318 3.60089,-1.30102 5.60302,-0.50354 5.33021,2.26648 7.79603,6.20121 7.39746,11.8042 -2.53518,28.26335 -8.66921,42.395 -18.40209,42.39502 -11.33236,-2e-5 -20.46525,-9.1329 -27.39869,-27.39868 -0.13442,-0.26447 -0.36737,-0.43029 -0.69885,-0.49744 -0.33177,-0.0671 -0.63186,0.0315 -0.90027,0.29602 -7.19822,8.00375 -15.26502,15.271 -24.20044,21.80176 -2.26656,1.73339 -4.83308,2.4007 -7.69958,2.00195 -2.86673,-0.39877 -5.30102,-1.66627 -7.30286,-3.80249 -1.72943,-1.86361 -2.42829,-4.09546 -2.09656,-6.69555 0.33152,-2.6001 1.56545,-4.6346 3.70179,-6.10352 12.6667,-8.80125 23.13219,-18.80084 31.39648,-29.99878 0.80145,-0.93177 1.06797,-1.93274 0.79956,-3.00293 z"
       id="path2898" />
  </g>
</svg>
