<?xml version="1.0" encoding="UTF-8" standalone="no"?>
<!-- Created with Inkscape (http://www.inkscape.org/) -->

<svg
   xmlns:svg="http://www.w3.org/2000/svg"
   xmlns="http://www.w3.org/2000/svg"
   xmlns:xlink="http://www.w3.org/1999/xlink"
   version="1.1"
   width="625"
   height="1150"
   id="svg2"
   xml:space="preserve"><defs
     id="defs6"><linearGradient
       id="linearGradient15703"><stop
         id="stop15705"
         style="stop-color:#ffffff;stop-opacity:1"
         offset="0" /></linearGradient><linearGradient
       x1="-37.125"
       y1="465.375"
       x2="967.87512"
       y2="465.375"
       id="linearGradient15707"
       xlink:href="#linearGradient15703"
       gradientUnits="userSpaceOnUse"
       gradientTransform="translate(961.6578,56.04101)" /></defs><g
     transform="matrix(34.167339,0,0,34.167339,44.9692,29.01028)"
     id="g2991" /><rect
     width="625"
     height="1150"
     rx="50"
     ry="50"
     x="0"
     y="0"
     id="rect2873"
     style="color:#000000;fill:#0566ae;fill-opacity:1;fill-rule:nonzero;stroke:none;stroke-width:3;marker:none;visibility:visible;display:inline;overflow:visible;enable-background:accumulate" /><rect
     width="605"
     height="1130"
     rx="40"
     ry="40"
     x="10"
     y="10"
     id="rect2874"
     style="color:#000000;fill:#ffffff;fill-opacity:1;fill-rule:nonzero;stroke:none;stroke-width:3;marker:none;visibility:visible;display:inline;overflow:visible;enable-background:accumulate" /><rect
     width="565"
     height="1090"
     rx="30"
     ry="30"
     x="30"
     y="30"
     id="rect2875"
     style="color:#000000;fill:#0566ae;fill-opacity:1;fill-rule:nonzero;stroke:none;stroke-width:3;marker:none;visibility:visible;display:inline;overflow:visible;enable-background:accumulate" /><rect
     width="545"
     height="1070"
     rx="20"
     ry="20"
     x="40"
     y="40"
     id="rect2875-8"
     style="color:#000000;fill:#ffffff;fill-opacity:1;fill-rule:nonzero;stroke:none;stroke-width:3;marker:none;visibility:visible;display:inline;overflow:visible;enable-background:accumulate" /><g
     transform="translate(-651.22881,217.18067)"
     id="g3833"><path
       d="m 817.5,699.43856 0,28.57786 299.9232,0.28867 -111.7135,-109.6928 -81.98089,0 81.40359,81.4036 L 817.5,699.43856 z"
       id="path3807"
       style="fill:#0566ae;fill-opacity:1;stroke:none" /><path
       d="m 817.5,770.34588 0,-28.57786 299.9232,-0.28867 -111.7135,109.6928 -81.98089,0 81.40359,-81.4036 -187.6324,0.57733 z"
       id="path3807-5"
       style="fill:#0566ae;fill-opacity:1;stroke:none" /></g><g
     id="g2857"><rect
       width="475"
       height="475"
       rx="30"
       ry="30"
       x="77.061226"
       y="71.479752"
       id="rect3726"
       style="color:#000000;fill:#0566ae;fill-opacity:1;fill-rule:nonzero;stroke:none;stroke-width:3;marker:none;visibility:visible;display:inline;overflow:visible;enable-background:accumulate" /><g
       transform="matrix(1.2187678,0,0,1.2187678,-781.52809,-0.9345745)"
       id="g4071"
       style="fill:#ffffff"><path
         d="m 730.84149,309.17418 0.10206,-56.13222 13.36967,-64.90925 c 0.96918,-4.82284 5.08437,-6.45753 8.47086,-6.73588 l 284.13112,0.10207 c 13.9837,0 30.5155,15.09578 30.5155,30.41345 l 0.2041,97.15977 -336.79331,0.10206 z"
         id="path3947"
         style="fill:#ffffff;stroke:none" /><path
         d="m 778.91108,283.76159 -32.65875,0 0,-26.12699 13.87997,-60.21457 18.77878,0 0,86.34156 z"
         id="path3949"
         style="fill:#0566ae;fill-opacity:1;stroke:none" /><rect
         width="53.479053"
         height="45.313934"
         x="793.60748"
         y="197.62415"
         id="rect3953"
         style="color:#000000;fill:#0566ae;fill-opacity:1;stroke:none;stroke-width:1;marker:none;visibility:visible;display:inline;overflow:visible;enable-background:accumulate" /><rect
         width="53.479053"
         height="45.313934"
         x="861.37439"
         y="197.62415"
         id="rect3953-6"
         style="color:#000000;fill:#0566ae;fill-opacity:1;stroke:none;stroke-width:1;marker:none;visibility:visible;display:inline;overflow:visible;enable-background:accumulate" /><rect
         width="53.479053"
         height="45.313934"
         x="930.77423"
         y="197.62415"
         id="rect3953-7"
         style="color:#000000;fill:#0566ae;fill-opacity:1;stroke:none;stroke-width:1;marker:none;visibility:visible;display:inline;overflow:visible;enable-background:accumulate" /><path
         d="m 1051.6116,242.52993 -52.66222,0 0,-44.90578 36.74112,0 c 5.7241,0 15.5129,6.21045 15.5129,15.51291 l 0.4082,29.39287 z"
         id="path3999"
         style="fill:#0566ae;fill-opacity:1;stroke:none" /><path
         d="m 818.91801,318.05328 a 26.126995,26.126995 0 1 1 -52.25399,0 26.126995,26.126995 0 1 1 52.25399,0 z"
         transform="translate(8.981155,-6.5317491)"
         id="path4001"
         style="color:#000000;fill:#ffffff;stroke:#ffffff;stroke-width:1;stroke-linecap:round;stroke-linejoin:bevel;stroke-miterlimit:4;stroke-opacity:1;stroke-dasharray:none;stroke-dashoffset:261;marker:none;visibility:visible;display:inline;overflow:visible;enable-background:accumulate" /><path
         d="m 818.91801,318.05328 a 26.126995,26.126995 0 1 1 -52.25399,0 26.126995,26.126995 0 1 1 52.25399,0 z"
         transform="translate(182.88898,-6.5317486)"
         id="path4001-3"
         style="color:#000000;fill:#ffffff;stroke:#ffffff;stroke-width:1;stroke-linecap:round;stroke-linejoin:bevel;stroke-miterlimit:4;stroke-opacity:1;stroke-dasharray:none;stroke-dashoffset:261;marker:none;visibility:visible;display:inline;overflow:visible;enable-background:accumulate" /></g></g><g
     transform="matrix(1.2496166,0,0,1.2496166,-805.29243,-35.54832)"
     id="g4081"
     style="fill:#0566ae;fill-opacity:1"><g
       id="g4055"
       style="fill:#0566ae;fill-opacity:1"><path
         d="m 836.55315,571.25342 -0.0884,0 c -1.3457,0.29307 -2.60421,0.0733 -3.77552,-0.65941 -1.17146,-0.73268 -1.90369,-1.77182 -2.19669,-3.11745 -4.56768,-18.67965 -10.21821,-36.657 -16.95162,-53.93212 -0.40928,-1.17044 -0.33602,-2.31189 0.2198,-3.42437 0.55571,-1.11235 1.41973,-1.84458 2.59206,-2.19668 1.2866,-0.40917 2.53036,-0.3359 3.73129,0.2198 1.20081,0.55582 2.03535,1.44843 2.50361,2.67784 6.79238,16.68898 12.67701,34.90043 17.65392,54.63442 0.35196,1.28844 0.16209,2.50361 -0.56961,3.64551 -0.73186,1.1419 -1.77145,1.85939 -3.11879,2.15246 z m -43.82923,-58.41128 c -2.22486,19.32304 -7.81732,37.56308 -16.77739,54.7202 -0.64334,1.23125 -1.62396,2.06624 -2.94187,2.50495 -1.31794,0.43871 -2.62112,0.36499 -3.90954,-0.22115 -1.17051,-0.58435 -1.96081,-1.506 -2.37093,-2.76496 -0.41012,-1.25894 -0.32211,-2.47456 0.26403,-3.64685 8.37394,-16.10277 13.70282,-33.17143 15.98664,-51.20603 0.17511,-1.28837 0.7751,-2.37175 1.79997,-3.25013 1.02483,-0.87825 2.21051,-1.25889 3.55706,-1.1419 1.34648,0.11711 2.4446,0.65858 3.29436,1.62439 0.84969,0.96595 1.21558,2.09311 1.09767,3.38148 z"
         id="path4041"
         style="font-size:87.83537292px;font-style:normal;font-variant:normal;font-weight:normal;font-stretch:normal;text-align:center;text-anchor:middle;fill:#0566ae;fill-opacity:1;stroke:none;font-family:'Rounded M+ 1m medium';-inkscape-font-specification:'Rounded M+ 1m medium,'" /><path
         d="m 988.43636,549.29457 c -8.95834,8.315 -19.02995,15.40051 -30.21485,21.25655 -1.05435,0.58435 -2.16677,0.68621 -3.33725,0.30558 -1.17051,-0.38063 -2.04882,-1.09767 -2.63495,-2.15112 -0.58616,-1.05344 -0.68891,-2.13682 -0.30826,-3.25013 0.38062,-1.11331 1.09811,-1.96214 2.15246,-2.5465 11.30106,-6.09013 21.08004,-13.1609 29.33698,-21.21232 8.25685,-8.05136 14.66911,-16.64466 19.23681,-25.77993 0.234,-0.46814 0.088,-0.70224 -0.4396,-0.70229 l -40.05242,0 c -1.1723,5e-5 -2.18286,-0.41007 -3.03167,-1.23036 -0.84885,-0.82019 -1.27326,-1.816 -1.27325,-2.98745 -10e-6,-1.17132 0.4244,-2.18143 1.27325,-3.03033 0.84881,-0.84877 1.85937,-1.27318 3.03167,-1.27324 l 46.72692,0 c 1.1722,6e-5 2.1827,0.42447 3.0316,1.27324 0.8488,0.8489 1.2732,1.85945 1.2733,3.03167 -10e-5,3.04514 -0.5853,5.76765 -1.7558,8.16756 -3.8064,7.73067 -9.0477,15.31386 -15.72391,22.7496 -0.3521,0.46822 -0.3521,0.84886 0,1.1419 8.08081,7.43758 15.31291,14.34706 21.69611,20.72848 0.8774,0.87922 1.3018,1.9483 1.2733,3.20725 -0.029,1.25895 -0.4826,2.32759 -1.3617,3.2059 -0.8793,0.87832 -1.9189,1.30274 -3.1188,1.27325 -1.2001,-0.0295 -2.2396,-0.48294 -3.1188,-1.36036 -5.7971,-5.85605 -12.9988,-12.79502 -21.60501,-20.81695 -0.35209,-0.23407 -0.70413,-0.23407 -1.05613,0 z"
         id="path4043"
         style="font-size:87.83537292px;font-style:normal;font-variant:normal;font-weight:normal;font-stretch:normal;text-align:center;text-anchor:middle;fill:#0566ae;fill-opacity:1;stroke:none;font-family:'Rounded M+ 1m medium';-inkscape-font-specification:'Rounded M+ 1m medium,'" /><path
         d="M 828.375,504.03125 A 3.0003,3.0003 0 0 0 826.0625,508.5 c 2.04438,3.77798 3.69394,6.82063 5.5625,11.84375 a 3.0003,3.0003 0 1 0 5.625,-2.0625 c -1.99098,-5.35222 -3.84847,-8.85349 -5.90625,-12.65625 a 3.0003,3.0003 0 0 0 -2.96875,-1.59375 z"
         id="path4047"
         style="font-size:medium;font-style:normal;font-variant:normal;font-weight:normal;font-stretch:normal;text-indent:0;text-align:start;text-decoration:none;line-height:normal;letter-spacing:normal;word-spacing:normal;text-transform:none;direction:ltr;block-progression:tb;writing-mode:lr-tb;text-anchor:start;color:#000000;fill:#0566ae;fill-opacity:1;fill-rule:nonzero;stroke:none;stroke-width:6;marker:none;visibility:visible;display:inline;overflow:visible;enable-background:accumulate;font-family:Bitstream Vera Sans;-inkscape-font-specification:Bitstream Vera Sans" /><path
         d="m 835.5625,501.15625 a 3.0003,3.0003 0 0 0 -2.53125,4.5 c 2.38139,4.29945 4.57734,6.55197 6.78125,11.9375 a 3.0060567,3.0060567 0 1 0 5.5625,-2.28125 c -2.50915,-6.13143 -5.08248,-8.93127 -7.09375,-12.5625 a 3.0003,3.0003 0 0 0 -2.71875,-1.59375 z"
         id="path4049"
         style="font-size:medium;font-style:normal;font-variant:normal;font-weight:normal;font-stretch:normal;text-indent:0;text-align:start;text-decoration:none;line-height:normal;letter-spacing:normal;word-spacing:normal;text-transform:none;direction:ltr;block-progression:tb;writing-mode:lr-tb;text-anchor:start;color:#000000;fill:#0566ae;fill-opacity:1;fill-rule:nonzero;stroke:none;stroke-width:6;marker:none;visibility:visible;display:inline;overflow:visible;enable-background:accumulate;font-family:Bitstream Vera Sans;-inkscape-font-specification:Bitstream Vera Sans" /></g><path
       d="m 796.52543,606.67731 c -7.69539,1.35162 -13.78956,4.61179 -18.28252,9.78052 -4.49301,5.16882 -6.73951,11.54173 -6.73949,19.11875 -2e-5,4.99223 1.04234,9.32389 3.12708,12.99499 2.0847,3.67112 4.1255,5.50668 6.12241,5.50667 0.93926,10e-6 1.90857,-0.39659 2.90794,-1.1898 0.99931,-0.79318 2.11561,-2.27651 3.3489,-4.44997 1.23324,-2.17343 2.42258,-4.93394 3.56805,-8.28152 1.14539,-3.34753 2.30561,-7.85531 3.48065,-13.52334 1.17497,-5.66796 2.20254,-12.11481 3.08272,-19.34057 -4e-5,-0.17561 -0.0588,-0.33694 -0.17612,-0.48398 -0.11745,-0.14694 -0.26399,-0.19085 -0.43962,-0.13175 z m -15.77252,56.21214 c -4.52259,0 -8.66335,-2.64309 -12.42228,-7.92928 -3.75896,-5.28618 -5.63843,-11.74737 -5.63842,-19.38359 -1e-5,-11.21945 3.81764,-20.33852 11.45296,-27.35725 7.63528,-7.01861 17.62104,-10.52794 29.95731,-10.52801 9.92701,7e-5 18.13548,3.1128 24.62542,9.33822 6.4898,6.22553 9.73473,14.12612 9.73482,23.70181 -9e-5,9.16167 -2.12917,16.67956 -6.38726,22.55369 -4.25824,5.87415 -10.08801,9.60441 -17.48933,11.1908 -1.17417,0.23482 -2.26044,-4.5e-4 -3.25883,-0.70581 -0.9985,-0.70536 -1.6447,-1.67467 -1.93863,-2.90794 -0.23487,-1.11495 -0.0292,-2.14252 0.61708,-3.08271 0.64616,-0.94018 1.52674,-1.55726 2.64175,-1.85124 5.46359,-1.46808 9.6635,-4.346 12.59974,-8.63376 2.9361,-4.28772 4.40419,-9.80873 4.40426,-16.56303 -7e-5,-6.63772 -2.09958,-12.21833 -6.29852,-16.74184 -4.19908,-4.52341 -9.58789,-7.1078 -16.16644,-7.75317 -0.47148,-0.11825 -0.76546,0.11657 -0.88193,0.70447 -1.35162,11.10122 -2.95235,20.45511 -4.8022,28.06171 -1.84994,7.60664 -3.92032,13.36292 -6.21114,17.26884 -2.2909,3.90594 -4.58176,6.65211 -6.87258,8.2385 -2.29089,1.58639 -4.84615,2.37959 -7.66578,2.37959 z"
       id="path4062"
       style="font-size:88.10674286px;font-style:normal;font-weight:normal;text-align:center;text-anchor:middle;fill:#0566ae;fill-opacity:1;stroke:none;font-family:'Rounded M+ 1m medium';-inkscape-font-specification:'Rounded M+ 1m medium'" /><path
       d="m 902.17252,606.05888 c -5.75588,6e-5 -11.18905,2.81971 -16.29953,8.45898 -5.11055,5.63936 -8.28244,12.6885 -9.51568,21.14745 -0.17569,1.23329 -0.71883,2.26086 -1.62941,3.08271 -0.91063,0.8219 -1.98257,1.23284 -3.21581,1.23282 -1.23329,2e-5 -2.26131,-0.42571 -3.08406,-1.27719 -0.82279,-0.85143 -1.23418,-1.89378 -1.23416,-3.12707 l 0,-35.59709 c -2e-5,-1.2332 0.4405,-2.29034 1.32155,-3.17144 0.88101,-0.88097 1.9386,-1.32148 3.17278,-1.32155 1.23414,7e-5 2.29174,0.42624 3.17279,1.27853 0.88101,0.85241 1.32153,1.89522 1.32155,3.12842 l 0,15.1541 c -2e-5,0.11657 0.0287,0.17482 0.086,0.17478 0.11828,4e-5 0.17744,-0.0286 0.17746,-0.0861 3.11361,-5.81493 6.9465,-10.24966 11.49868,-13.3042 4.5521,-3.05442 9.58867,-4.58166 15.10973,-4.58172 7.0482,6e-5 12.55486,2.49617 16.52002,7.48832 3.96501,4.99226 5.94756,12.04051 5.94763,21.14476 -7e-5,13.56952 -3.67118,23.6579 -11.01334,30.26518 -7.34229,6.60729 -18.88442,10.14665 -34.62642,10.61809 -1.11678,0.0574 -2.11567,-0.3249 -2.99668,-1.14678 -0.88105,-0.82188 -1.35025,-1.81987 -1.40759,-2.99398 -0.0592,-1.11675 0.29306,-2.08651 1.0567,-2.90929 0.7636,-0.82277 1.73246,-1.26284 2.9066,-1.3202 13.04066,-0.41228 22.36543,-3.17323 27.97432,-8.28286 5.60879,-5.10961 8.41321,-13.18632 8.41327,-24.23016 -6e-5,-6.51942 -1.17462,-11.45337 -3.52368,-14.80187 -2.34917,-3.34841 -5.72676,-5.02263 -10.13276,-5.02269 z"
       id="path4064"
       style="font-size:88.10674286px;font-style:normal;font-weight:normal;text-align:center;text-anchor:middle;fill:#0566ae;fill-opacity:1;stroke:none;font-family:'Rounded M+ 1m medium';-inkscape-font-specification:'Rounded M+ 1m medium'" /><path
       d="m 1013.0198,589.49585 c 0.9983,-0.29391 1.9529,-0.22041 2.8635,0.22048 0.9106,0.44103 1.5424,1.16074 1.8956,2.15911 0.2939,0.76369 0.7049,1.93825 1.2329,3.52368 0.5278,1.58556 0.9092,2.76012 1.1441,3.52367 0.2939,0.94115 0.206,1.86654 -0.2636,2.77619 -0.4697,0.90978 -1.2037,1.51162 -2.2021,1.80554 -0.9393,0.29403 -1.8643,0.2062 -2.7748,-0.26351 -0.9107,-0.46958 -1.513,-1.20362 -1.8069,-2.20213 -0.1757,-0.52873 -0.9689,-2.84917 -2.3796,-6.96131 -0.294,-0.93922 -0.2205,-1.86417 0.2205,-2.77485 0.4409,-0.91053 1.131,-1.51283 2.0704,-1.80687 z m 8.8112,0.48398 c 0.4695,-0.91054 1.2036,-1.51238 2.2021,-1.80553 0.9984,-0.29301 1.9677,-0.21951 2.9079,0.22048 0.9402,0.44014 1.5859,1.1594 1.9373,2.15777 0.1183,0.41235 0.9115,2.8502 2.3796,7.31354 0.2939,0.99851 0.2061,1.96782 -0.2635,2.90795 -0.4697,0.94024 -1.2038,1.52774 -2.2021,1.76251 -0.9985,0.29403 -1.9531,0.17662 -2.8636,-0.35224 -0.9107,-0.52873 -1.513,-1.29235 -1.8069,-2.29086 -0.294,-0.82271 -0.7054,-2.02729 -1.2341,-3.61375 -0.5289,-1.58633 -0.9403,-2.76044 -1.2342,-3.52234 -0.3514,-0.94101 -0.2922,-1.86685 0.1775,-2.77753 z m -32.07208,54.14177 c -7.04829,1e-5 -10.57242,2.43786 -10.57238,7.31354 -4e-5,5.58017 3.52409,8.37025 10.57238,8.37025 2.99707,0 5.21488,-0.80753 6.65344,-2.42261 1.43846,-1.61507 2.15771,-4.18467 2.15777,-7.7088 l 0,-2.46833 c -6e-5,-0.52878 -0.2053,-0.88101 -0.61574,-1.0567 -2.7014,-1.35155 -5.43322,-2.02734 -8.19547,-2.02735 z m 0.44096,23.61308 c -6.28467,-10e-6 -11.15992,-1.42418 -14.62575,-4.27251 -3.4659,-2.84834 -5.19883,-6.85735 -5.1988,-12.02703 -3e-5,-4.81653 1.71811,-8.59026 5.15443,-11.32121 3.43626,-2.7309 8.3263,-4.09636 14.67012,-4.09639 2.58479,3e-5 5.11047,0.38184 7.57705,1.14543 0.52875,0.11654 0.79314,-0.0304 0.7932,-0.44096 l 0,-18.85659 c -6e-5,-0.52875 -0.26445,-0.79315 -0.7932,-0.7932 l -20.79252,0 c -1.11678,5e-5 -2.05652,-0.38131 -2.81921,-1.14408 -0.76276,-0.76268 -1.14412,-1.70242 -1.14409,-2.81921 -3e-5,-1.1167 0.38133,-2.05689 1.14409,-2.82056 0.76269,-0.76357 1.70243,-1.14538 2.81921,-1.14543 l 20.79252,0 c 0.52875,5e-5 0.79314,-0.26435 0.7932,-0.7932 l 0,-9.77918 c -6e-5,-1.2332 0.42612,-2.27556 1.27853,-3.12708 0.85234,-0.85139 1.89514,-1.27711 3.12844,-1.27718 1.2332,7e-5 2.2755,0.42579 3.1271,1.27718 0.8514,0.85152 1.2771,1.89388 1.2771,3.12708 l 0,9.77918 c 0,0.52885 0.2348,0.79325 0.7045,0.7932 l 12.952,0 c 1.1167,5e-5 2.0568,0.38186 2.8205,1.14543 0.7636,0.76367 1.1454,1.70386 1.1455,2.82056 -10e-5,1.11679 -0.3819,2.05653 -1.1455,2.81921 -0.7637,0.76277 -1.7038,1.14413 -2.8205,1.14408 l -12.952,0 c -0.4697,5e-5 -0.7045,0.26445 -0.7045,0.7932 l 0,23.70181 c 0,0.46967 0.2052,0.85148 0.6158,1.14543 3.1727,2.29088 7.343,5.99157 12.511,11.10208 0.8227,0.82098 1.2341,1.83377 1.2341,3.03834 0,1.20459 -0.411,2.21782 -1.2328,3.0397 -0.8219,0.82188 -1.8352,1.21848 -3.0397,1.18979 -1.2046,-0.0287 -2.2183,-0.4544 -3.041,-1.27718 -3.1119,-3.11363 -5.3436,-5.2575 -6.6951,-6.43162 -0.1166,-0.1183 -0.2484,-0.14787 -0.3953,-0.0887 -0.147,0.0592 -0.2205,0.147 -0.2205,0.2635 -1.1759,9.45742 -6.8152,14.18613 -16.91792,14.18614 z m -30.57171,-0.44097 c -1.23327,0.17746 -2.3787,-0.0865 -3.43629,-0.79185 -1.0576,-0.70537 -1.70381,-1.67468 -1.93863,-2.90794 -2.23171,-9.57393 -3.34756,-20.23458 -3.34756,-31.98199 0,-11.74734 1.11585,-22.40889 3.34756,-31.98467 0.23482,-1.2332 0.88103,-2.20207 1.93863,-2.9066 1.05759,-0.7044 2.20302,-0.9688 3.43629,-0.79319 1.1741,0.11837 2.08426,0.66196 2.73049,1.63076 0.64619,0.96892 0.85188,2.01173 0.61708,3.12842 -2.17257,9.63314 -3.25885,19.94156 -3.25884,30.92528 -10e-6,10.98379 1.08627,21.29221 3.25884,30.92529 0.2348,1.11495 0.0291,2.15731 -0.61708,3.12708 -0.64623,0.96975 -1.55639,1.51289 -2.73049,1.62941 z"
       id="path4066"
       style="font-size:88.10674286px;font-style:normal;font-weight:normal;text-align:center;text-anchor:middle;fill:#0566ae;fill-opacity:1;stroke:none;font-family:'Rounded M+ 1m medium';-inkscape-font-specification:'Rounded M+ 1m medium'" /></g></svg>