<?xml version="1.0" encoding="UTF-8" standalone="no"?>
<!-- Created with Inkscape (http://www.inkscape.org/) -->

<svg
   xmlns:osb="http://www.openswatchbook.org/uri/2009/osb"
   xmlns:dc="http://purl.org/dc/elements/1.1/"
   xmlns:cc="http://creativecommons.org/ns#"
   xmlns:rdf="http://www.w3.org/1999/02/22-rdf-syntax-ns#"
   xmlns:svg="http://www.w3.org/2000/svg"
   xmlns="http://www.w3.org/2000/svg"
   xmlns:xlink="http://www.w3.org/1999/xlink"
   xmlns:sodipodi="http://sodipodi.sourceforge.net/DTD/sodipodi-0.dtd"
   xmlns:inkscape="http://www.inkscape.org/namespaces/inkscape"
   version="1.1"
   width="1200.4003"
   height="600.40015"
   id="svg2"
   xml:space="preserve"
   inkscape:version="0.48.4 r9939"
   sodipodi:docname="Ajax.svg"><sodipodi:namedview
     pagecolor="#ffffff"
     bordercolor="#666666"
     borderopacity="1"
     objecttolerance="10"
     gridtolerance="10"
     guidetolerance="10"
     inkscape:pageopacity="0"
     inkscape:pageshadow="2"
     inkscape:window-width="1280"
     inkscape:window-height="1001"
     id="namedview28"
     showgrid="false"
     fit-margin-top="0.2"
     fit-margin-left="0.2"
     fit-margin-right="0.2"
     fit-margin-bottom="0.2"
     inkscape:zoom="0.40989584"
     inkscape:cx="521.91755"
     inkscape:cy="28.981429"
     inkscape:window-x="-8"
     inkscape:window-y="-8"
     inkscape:window-maximized="1"
     inkscape:current-layer="svg2" /><metadata
     id="metadata8"><rdf:RDF><cc:Work
         rdf:about=""><dc:format>image/svg+xml</dc:format><dc:type
           rdf:resource="http://purl.org/dc/dcmitype/StillImage" /><dc:title /></cc:Work></rdf:RDF></metadata><defs
     id="defs6"><linearGradient
       id="linearGradient15703"
       osb:paint="solid"><stop
         style="stop-color:#ffffff;stop-opacity:1;"
         offset="0"
         id="stop15705" /></linearGradient><linearGradient
       inkscape:collect="always"
       xlink:href="#linearGradient15703"
       id="linearGradient15707"
       x1="-37.125"
       y1="465.375"
       x2="967.87512"
       y2="465.375"
       gradientUnits="userSpaceOnUse"
       gradientTransform="translate(961.6578,56.04101)" /></defs><g
     id="g2991"
     transform="matrix(34.167339,0,0,34.167339,14.96955,34.01042)" /><path
     style="font-size:medium;font-style:normal;font-variant:normal;font-weight:normal;font-stretch:normal;text-indent:0;text-align:start;text-decoration:none;line-height:normal;letter-spacing:normal;word-spacing:normal;text-transform:none;direction:ltr;block-progression:tb;writing-mode:lr-tb;text-anchor:start;baseline-shift:baseline;color:#000000;fill:#000000;fill-opacity:1;fill-rule:nonzero;stroke:none;stroke-width:30;marker:none;visibility:visible;display:inline;overflow:visible;enable-background:accumulate;font-family:Sans;-inkscape-font-specification:Sans"
     d="m 1143.544,600.20016 c 31.1185,0 56.6563,-25.5377 56.6563,-56.6563 l 0,-486.68766 C 1200.2003,25.7364 1174.6619,0.2 1143.544,0.2 L 56.8563,0.2 C 25.7386,0.2 0.2,25.7364 0.2,56.8562 l 0,486.68766 c 0,31.1186 25.5377,56.6563 56.6563,56.6563 z"
     id="path14428"
     inkscape:connector-curvature="0"
     sodipodi:nodetypes="sssssssss" /><path
     inkscape:connector-curvature="0"
     d="m 56.8668,585.20016 c -23.012,0 -41.6668,-18.6548 -41.6668,-41.6668 l 0,-486.66696 c 0,-23.014 18.6548,-41.6668 41.6668,-41.6668 l 1086.6669,0 c 23.0119,0 41.6666,18.6528 41.6666,41.6668 l 0,486.66696 c 0,23.012 -18.6547,41.6668 -41.6666,41.6668 z"
     style="fill:#ffffff;fill-opacity:1;fill-rule:nonzero;stroke:none"
     id="path14430"
     sodipodi:nodetypes="sssssssss" /><path
     id="path14427"
     style="fill:#000000;fill-opacity:1;fill-rule:nonzero;stroke:none"
     d="m 190.6282,421.8901 c -17.32473,0 -31.5232,-14.06819 -31.5232,-31.52317 l 0,-283.64356 c 0,-17.454997 14.19847,-31.523187 31.5232,-31.523187 l 553.80512,0 c 17.52003,0 31.65336,14.06819 31.65336,31.523187 l 0,72.4903 c 0,14.58925 11.98404,26.44302 26.44308,26.44302 l 85.25582,0 c 9.96498,0 21.88386,7.88078 25.79175,17.97601 4.03803,10.09525 27.81076,56.14254 31.71856,64.93517 4.03812,8.79262 7.42491,16.54316 16.54313,16.54316 l 16.93395,0 c 11.07216,0 18.82278,15.17542 20.12535,20.06021 1.37038,5.08019 22.60038,93.65773 22.60038,93.65773 0,4.23609 3.517,7.68541 7.6854,7.68541 l 4.3611,0 c 4.2987,0 7.7506,3.38679 7.7506,7.62027 l 0,29.56927 -73.72792,0 0,0.46895 c 0,33.67247 -27.35474,61.02731 -61.09236,61.02731 -33.73767,0 -61.15761,-27.35484 -61.15761,-61.02731 l 0,-0.46895 -356.00361,0 0,0.46895 c 0,33.67247 -27.41996,61.02731 -61.22272,61.02731 -33.73762,0 -60.9622,-27.35484 -60.9622,-61.02731 l 0,-0.46895 -104.6648,0 c -9.24853,0 -16.80368,-7.55515 -16.80368,-16.80367 l 0,-24.94502 -55.03531,-0.0521 z m 698.46004,-187.57598 -7.88085,0 0,61.8089 43.76776,0 -16.73851,-39.66453 c -4.2309,-12.70044 -9.83475,-21.10228 -19.1484,-22.14437 m -22.92597,0 -42.66053,0 0,61.8089 42.66053,0 0,-61.8089"
     inkscape:connector-curvature="0" /></svg>