<?xml version="1.0" encoding="UTF-8" standalone="no"?>
<!-- Created with Inkscape (http://www.inkscape.org/) -->

<svg
   xmlns:svg="http://www.w3.org/2000/svg"
   xmlns="http://www.w3.org/2000/svg"
   version="1.2"
   width="450"
   height="450"
   id="svg1890">
  <defs
     id="defs1893" />
  <rect
     width="447.5"
     height="447.5"
     rx="33.316483"
     x="1.25"
     y="1.25"
     id="rect2385"
     style="fill:#ffffff;fill-opacity:1;fill-rule:evenodd;stroke:#0066b3;stroke-width:2.5;stroke-linecap:butt;stroke-linejoin:round;stroke-miterlimit:4;stroke-opacity:1;stroke-dasharray:none;stroke-dashoffset:0;marker:none;visibility:visible;display:inline;overflow:visible;enable-background:accumulate" />
  <rect
     width="415"
     height="415"
     rx="22.503939"
     ry="22.503939"
     x="16.978363"
     y="17.24411"
     id="rect3157"
     style="fill:#0066b3;fill-opacity:1;fill-rule:evenodd;stroke:none;stroke-width:1.25;marker:none;visibility:visible;display:inline;overflow:visible;enable-background:accumulate" />
  <rect
     width="37.5"
     height="285"
     x="127.75423"
     y="45.8983"
     id="rect2840"
     style="color:#000000;fill:#ffffff;fill-opacity:1;fill-rule:evenodd;stroke:none;stroke-width:30;marker:none;visibility:visible;display:inline;overflow:visible;enable-background:accumulate" />
  <g
     transform="matrix(0.74312463,0,0,0.74312463,409.8137,23.045536)"
     id="g3622">
    <g
       id="g3707"
       style="fill:#ffffff;fill-opacity:1">
      <g
         id="g3673"
         style="fill:#ffffff;fill-opacity:1">
        <rect
           width="177.33049"
           height="352.75418"
           rx="20"
           ry="20"
           x="-267.90253"
           y="31.461864"
           id="rect3647"
           style="color:#000000;fill:#ffffff;fill-opacity:1;fill-rule:evenodd;stroke:none;stroke-width:30;marker:none;visibility:visible;display:inline;overflow:visible;enable-background:accumulate" />
        <path
           d="m -253.13688,42.653291 20.36733,0"
           id="path3649"
           style="fill:#ffffff;fill-opacity:1;stroke:#0066b3;stroke-width:10;stroke-linecap:round;stroke-linejoin:miter;stroke-miterlimit:4;stroke-opacity:1;stroke-dasharray:none" />
      </g>
    </g>
    <path
       d="m -105.33769,42.653287 -20.36733,0"
       id="path3649-5"
       style="fill:none;stroke:#0066b3;stroke-width:10;stroke-linecap:round;stroke-linejoin:miter;stroke-miterlimit:4;stroke-opacity:1;stroke-dasharray:none" />
    <path
       d="m -228.61295,189.38124 -27.84921,-47.38523 c 56.37794,-22.09285 98.38271,-21.52508 156.28812,0 l -28.68053,47.38523 c -34.39285,-4.56022 -67.58201,-4.30569 -99.75838,0 z"
       id="path3712"
       style="fill:#0066b3;fill-opacity:1;stroke:#0066b3;stroke-width:2;stroke-linecap:butt;stroke-linejoin:miter;stroke-miterlimit:4;stroke-opacity:1;stroke-dasharray:none" />
    <path
       d="m -125.94495,202.68235 25.77091,-42.39731 0,150.46889 -25.77091,-33.25279 0,-74.81879 z"
       id="path3714"
       style="fill:#0066b3;fill-opacity:1;stroke:#0066b3;stroke-width:2;stroke-linecap:butt;stroke-linejoin:bevel;stroke-miterlimit:4;stroke-opacity:1;stroke-dasharray:none" />
    <path
       d="m -229.85993,289.13962 c 34.63833,2.77107 68.16823,2.77107 100.5897,0 l 29.09619,38.24071 c -51.94245,9.10801 -104.48439,8.62409 -157.5351,0 l 27.84921,-38.24071 z"
       id="path3716"
       style="fill:#0066b3;fill-opacity:1;stroke:#0066b3;stroke-width:2;stroke-linecap:butt;stroke-linejoin:miter;stroke-miterlimit:4;stroke-opacity:1;stroke-dasharray:none" />
    <path
       d="m -232.17404,202.68235 -25.77091,-42.39731 0,150.46889 25.77091,-33.25279 0,-74.81879 z"
       id="path3714-1"
       style="fill:#0066b3;fill-opacity:1;stroke:#0066b3;stroke-width:2;stroke-linecap:butt;stroke-linejoin:bevel;stroke-miterlimit:4;stroke-opacity:1;stroke-dasharray:none" />
  </g>
  <g
     id="g2848">
    <path
       d="m 83.43956,410.7579 0,-20.72021 c -3.6e-5,-0.42641 -0.240107,-0.63963 -0.720215,-0.63965 l -27.76123,0 c -1.012376,2e-5 -1.892095,-0.37352 -2.639161,-1.1206 -0.747074,-0.74705 -1.120608,-1.62718 -1.120605,-2.64039 -3e-6,-1.01316 0.360104,-1.87985 1.080322,-2.60009 0.72021,-0.72019 1.613357,-1.0803 2.679444,-1.08033 l 27.76123,0 c 0.480108,3e-5 0.720179,-0.24004 0.720215,-0.72021 l 0,-27.83936 c -3.6e-5,-0.42637 -0.240107,-0.63959 -0.720215,-0.63964 l -24.641113,0 c -1.012379,5e-5 -1.878671,-0.34663 -2.598877,-1.04004 -0.720222,-0.69331 -1.080329,-1.54658 -1.080322,-2.55982 -7e-6,-1.01312 0.3601,-1.86639 1.080322,-2.55981 0.720206,-0.6933 1.586498,-1.03998 2.598877,-1.04004 l 59.521488,0 c 1.0123,6e-5 1.87859,0.34674 2.59887,1.04004 0.72014,0.69342 1.08025,1.54669 1.08033,2.55981 -8e-5,1.01324 -0.36019,1.86651 -1.08033,2.55982 -0.72028,0.69341 -1.58657,1.04009 -2.59887,1.04004 l -24.641117,0 c -0.480188,5e-5 -0.720259,0.21327 -0.720215,0.63964 l 0,27.83936 c -4.4e-5,0.48017 0.240027,0.72024 0.720215,0.72021 l 27.761227,0 c 1.06601,3e-5 1.95916,0.36014 2.67945,1.08033 0.72014,0.72024 1.08024,1.58693 1.08032,2.60009 -8e-5,1.01321 -0.37361,1.89334 -1.12061,2.64039 -0.74714,0.74708 -1.62686,1.12062 -2.63916,1.1206 l -27.761227,0 c -0.480188,2e-5 -0.720259,0.21324 -0.720215,0.63965 l 0,20.72021 c -4.4e-5,1.22721 -0.439904,2.26725 -1.31958,3.12012 -0.879762,0.85286 -1.906373,1.27929 -3.079834,1.2793 -1.173541,-1e-5 -2.200152,-0.42644 -3.079834,-1.2793 -0.879756,-0.85287 -1.319616,-1.89291 -1.31958,-3.12012 z M 67.51915,358.51669 c 2.399066,3.84119 4.746069,7.97449 7.041015,12.39991 0.5322,1.01403 0.611545,2.05447 0.238038,3.12133 -0.373562,1.06693 -1.066921,1.84045 -2.080079,2.32056 -1.013207,0.48017 -2.039817,0.55993 -3.079834,0.23926 -1.040059,-0.32061 -1.826191,-0.98711 -2.358398,-1.99951 -2.241228,-4.26754 -4.561376,-8.3748 -6.960449,-12.32178 -0.587577,-0.90653 -0.734468,-1.90629 -0.440674,-2.99927 0.29377,-1.09289 0.920804,-1.87942 1.881103,-2.35962 1.012355,-0.5338 2.078435,-0.65384 3.198243,-0.36011 1.119773,0.29384 1.973451,0.94691 2.561035,1.95923 z m 35.43945,17.8418 c -0.96034,-0.48011 -1.57354,-1.25363 -1.8396,-2.32056 -0.26616,-1.06686 -0.10625,-2.05359 0.47974,-2.9602 2.66596,-4.21383 4.9324,-8.26737 6.79932,-12.16065 0.48008,-1.06603 1.24017,-1.79926 2.28027,-2.1997 1.03997,-0.40034 2.09385,-0.36047 3.16162,0.11963 1.0123,0.48019 1.71868,1.25371 2.11914,2.32055 0.40032,1.06694 0.36045,2.10658 -0.11963,3.1189 -1.97435,4.1602 -4.32135,8.32035 -7.04101,12.48047 -0.63971,1.01403 -1.51943,1.66751 -2.63916,1.96045 -1.11985,0.293 -2.18675,0.17337 -3.20069,-0.35889 z"
       id="path2836"
       style="font-size:80px;font-style:normal;font-weight:normal;text-align:center;text-anchor:middle;fill:#ffffff;fill-opacity:1;stroke:none;font-family:'Rounded M+ 1m medium';-inkscape-font-specification:'Rounded M+ 1m medium'" />
    <path
       d="m 144.31847,356.11679 c 4.694,-3.25352 8.72068,-6.93353 12.08007,-11.04004 0.69334,-0.8528 1.56004,-1.37241 2.6001,-1.55884 1.04002,-0.18629 2.01333,-0.0129 2.91992,0.52002 0.90655,0.53311 1.45343,1.29279 1.64063,2.27906 0.18715,0.98638 -0.0399,1.87994 -0.68115,2.68066 -4.26597,5.43951 -9.3856,10.15955 -15.35889,14.16016 -0.85287,0.58598 -1.77288,0.73246 -2.76001,0.43945 -0.98715,-0.29292 -1.69393,-0.91955 -2.12036,-1.87988 -0.48015,-1.01233 -0.56031,-2.03853 -0.24048,-3.07862 0.31982,-1.03999 0.95987,-1.88064 1.92017,-2.52197 z m 4.88037,27.76123 c -1.01401,1.22561 -2.18751,2.50572 -3.52051,3.84033 -0.74545,0.74547 -1.63819,0.95827 -2.67822,0.63843 -1.04005,-0.3198 -1.69353,-1.01276 -1.96045,-2.07886 l 0,-0.0806 c -0.74708,-2.77342 0.026,-5.14646 2.31933,-7.11914 5.22623,-4.31963 9.5996,-9.2 13.12012,-14.64112 0.58592,-0.90653 1.38589,-1.47985 2.3999,-1.71997 1.01398,-0.24002 1.97426,-0.0931 2.88086,0.44068 0.90655,0.58598 1.4929,1.38594 1.75904,2.3999 0.26608,1.01404 0.13303,1.97432 -0.39917,2.88086 -1.54788,2.50655 -3.12177,4.77298 -4.72168,6.79931 -0.26532,0.37276 -0.39797,0.74629 -0.39795,1.12061 l 0,34.55811 c -2e-5,1.17349 -0.40041,2.17366 -1.20118,3.00048 -0.80079,0.82682 -1.78753,1.24023 -2.9602,1.24024 -1.1727,-1e-5 -2.17246,-0.41342 -2.99927,-1.24024 -0.82683,-0.82682 -1.24024,-1.82699 -1.24023,-3.00048 l 0,-26.87989 c -1e-5,-0.10577 -0.0399,-0.18552 -0.11963,-0.23926 -0.0798,-0.0537 -0.17335,-0.0268 -0.28076,0.0806 z m 23.9209,-38.16162 34.63867,0 c 1.01392,6e-5 1.88103,0.36017 2.60132,1.08032 0.72014,0.72028 1.08024,1.61424 1.08032,2.68189 -8e-5,1.01242 -0.34675,1.87872 -1.04004,2.59887 -0.69343,0.72027 -1.57397,1.08038 -2.6416,1.08033 l -34.63867,0 c -1.01404,5e-5 -1.88114,-0.36006 -2.60132,-1.08033 -0.72025,-0.72015 -1.08036,-1.58645 -1.08032,-2.59887 -4e-5,-1.06765 0.36007,-1.96161 1.08032,-2.68189 0.72018,-0.72015 1.58728,-1.08026 2.60132,-1.08032 z m -5.80079,26.96045 c -0.71943,-0.69332 -1.07913,-1.57304 -1.0791,-2.63916 -3e-5,-1.06604 0.35967,-1.94576 1.0791,-2.63916 0.71938,-0.69332 1.58607,-1.04 2.6001,-1.04004 l 41.44043,0 c 1.0123,4e-5 1.87859,0.34672 2.59888,1.04004 0.72014,0.6934 1.08024,1.57312 1.08032,2.63916 -8e-5,1.06612 -0.36018,1.94584 -1.08032,2.63916 -0.72029,0.69339 -1.58658,1.04007 -2.59888,1.04004 l -8.23974,0 c -0.4265,3e-5 -0.63972,0.2401 -0.63965,0.72021 l 0,28.08106 c -7e-5,5.27995 -0.61367,8.54654 -1.84082,9.7998 -1.22728,1.25325 -4.42714,1.87988 -9.59961,1.87989 -1.76112,-1e-5 -4.58827,-0.0798 -8.48145,-0.23926 -1.06612,-0.0537 -1.9727,-0.46713 -2.71972,-1.24024 -0.74712,-0.77311 -1.14669,-1.69352 -1.19873,-2.76123 -0.0538,-1.01237 0.2795,-1.87866 0.99975,-2.59887 0.72017,-0.72022 1.61332,-1.05347 2.67944,-0.99976 2.29325,0.1058 4.74686,0.15869 7.36084,0.15869 1.9189,0 3.06513,-0.18676 3.43873,-0.5603 0.37347,-0.37353 0.56024,-1.57348 0.5603,-3.59985 l 0,-27.91993 c -6e-5,-0.48011 -0.24013,-0.72018 -0.72022,-0.72021 l -23.03955,0 c -1.01403,3e-5 -1.88072,-0.34665 -2.6001,-1.04004 z"
       id="path2838"
       style="font-size:80px;font-style:normal;font-weight:normal;text-align:center;text-anchor:middle;fill:#ffffff;fill-opacity:1;stroke:none;font-family:'Rounded M+ 1m medium';-inkscape-font-specification:'Rounded M+ 1m medium'" />
    <path
       d="m 279.83849,342.75742 c 4.96088,1.22727 10.18792,3.04042 15.68115,5.43945 0.96022,0.42649 1.62672,1.13328 1.99951,2.12036 0.37265,0.9872 0.3458,1.96091 -0.0806,2.92114 -0.4265,0.96034 -1.14631,1.61342 -2.15942,1.95923 -1.01325,0.34592 -1.99998,0.30564 -2.96021,-0.12085 -5.01308,-2.23953 -10.0798,-3.99896 -15.20019,-5.27832 -0.96034,-0.26687 -1.66712,-0.82717 -2.12036,-1.68091 -0.45334,-0.85361 -0.49281,-1.73374 -0.11841,-2.64038 0.42638,-1.0123 1.10632,-1.78542 2.03979,-2.31933 0.93339,-0.53379 1.90628,-0.66726 2.91871,-0.40039 z m 10.80078,45.28076 0,16.64062 c -7e-5,0.47852 0.24001,0.71778 0.72021,0.71778 l 10.40039,0 c 1.06601,0 1.94573,0.34668 2.63916,1.04003 0.69328,0.69337 1.03996,1.57349 1.04004,2.64039 -8e-5,1.06689 -0.34676,1.94701 -1.04004,2.64038 -0.69343,0.69335 -1.57315,1.04003 -2.63916,1.04004 l -31.44043,0 c -1.01404,-1e-5 -1.88114,-0.34669 -2.60132,-1.04004 -0.72025,-0.69337 -1.08036,-1.57349 -1.08032,-2.64038 -4e-5,-1.0669 0.36007,-1.94702 1.08032,-2.64039 0.72018,-0.69335 1.58728,-1.04003 2.60132,-1.04003 l 10.79834,0 c 0.48009,0 0.72016,-0.23926 0.72022,-0.71778 l 0,-16.64062 c -6e-5,-0.48013 -0.24013,-0.7202 -0.72022,-0.72022 l -8.63769,0 c -1.01404,2e-5 -1.88115,-0.33323 -2.60132,-0.99975 -0.72026,-0.66648 -1.08036,-1.50673 -1.08032,-2.52076 -4e-5,-1.01397 0.36006,-1.88067 1.08032,-2.60009 0.72017,-0.71938 1.58728,-1.07908 2.60132,-1.0791 l 8.63769,0 c 0.48009,2e-5 0.72016,-0.21319 0.72022,-0.63965 l 0,-13.60108 c -6e-5,-0.4801 -0.24013,-0.72017 -0.72022,-0.72021 l -10.15869,0 c -1.06612,4e-5 -1.95927,-0.36007 -2.67944,-1.08032 -0.72026,-0.72017 -1.08036,-1.58687 -1.08032,-2.6001 -4e-5,-1.01314 0.37308,-1.89286 1.11938,-2.63916 0.74622,-0.74621 1.62634,-1.11934 2.64038,-1.11939 l 30.15869,0 c 1.01393,5e-5 1.88103,0.35975 2.60132,1.0791 0.72014,0.71945 1.08025,1.61301 1.08032,2.68067 -7e-5,1.01241 -0.34675,1.87871 -1.04004,2.59888 -0.69343,0.72025 -1.57396,1.08036 -2.6416,1.08032 l -9.7583,0 c -0.4802,4e-5 -0.72028,0.24011 -0.72021,0.72021 l 0,13.60108 c -7e-5,0.42646 0.24001,0.63967 0.72021,0.63965 l 8.32031,0 c 1.0123,2e-5 1.85174,0.35972 2.51831,1.0791 0.66643,0.71942 0.99969,1.58612 0.99976,2.60009 -7e-5,1.01403 -0.33333,1.85428 -0.99976,2.52076 -0.66657,0.66652 -1.50601,0.99977 -2.51831,0.99975 l -8.32031,0 c -0.4802,2e-5 -0.72028,0.24009 -0.72021,0.72022 z m -56.56006,-4.79981 0,-33.52051 c -1e-5,-1.22715 0.43985,-2.29404 1.31958,-3.20068 0.87971,-0.90651 1.93318,-1.3598 3.1604,-1.35986 l 24.47998,0 c 0.90654,6e-5 1.69308,0.34674 2.35962,1.04004 0.66646,0.69342 0.99972,1.49338 0.99975,2.3999 -3e-5,0.90663 -0.33329,1.69317 -0.99975,2.35962 -0.66654,0.66656 -1.45308,0.99981 -2.35962,0.99975 l -4.96094,0 c -0.42646,6e-5 -0.63968,0.21409 -0.63965,0.64209 l 0,4.07959 c -3e-5,0.4802 0.21319,0.72027 0.63965,0.72022 l 4.24072,0 c 0.85283,5e-5 1.58607,0.29342 2.19971,0.88013 0.61357,0.5868 0.92037,1.3066 0.92041,2.15942 -4e-5,0.85291 -0.30684,1.58615 -0.92041,2.19971 -0.61364,0.61365 -1.34688,0.92045 -2.19971,0.92041 l -4.24072,0 c -0.42646,4e-5 -0.63968,0.24011 -0.63965,0.72021 l 0,3.99903 c -3e-5,0.42647 0.21319,0.63968 0.63965,0.63964 l 4.24072,0 c 0.85283,4e-5 1.58607,0.30685 2.19971,0.92041 0.61357,0.61365 0.92037,1.34688 0.92041,2.19971 -4e-5,0.8529 -0.30684,1.58614 -0.92041,2.19971 -0.61364,0.61364 -1.34688,0.92044 -2.19971,0.92041 l -4.24072,0 c -0.42646,3e-5 -0.63968,0.21325 -0.63965,0.63965 l 0,4.47998 c -3e-5,0.42646 0.21319,0.63967 0.63965,0.63965 l 4.00147,0 c 1.22555,2e-5 2.29163,0.45372 3.19824,1.36108 0.90654,0.90741 1.35982,1.9739 1.35986,3.19946 l 0,1.84082 c -4e-5,7.99969 -0.2397,13.91969 -0.71899,17.76001 -0.47937,3.84033 -1.18575,6.3737 -2.11914,7.6001 -0.93347,1.22639 -2.38732,1.83959 -4.36157,1.8396 -1.54626,-1e-5 -3.38626,-0.0798 -5.52002,-0.23926 -1.0124,-0.0537 -1.86526,-0.45411 -2.5586,-1.20117 -0.69338,-0.74707 -1.06692,-1.65365 -1.1206,-2.71973 -0.0537,-0.96028 0.26609,-1.76025 0.95947,-2.3999 0.69333,-0.63965 1.52016,-0.90657 2.48047,-0.80078 1.59991,0.10742 2.58623,0.16113 2.95898,0.16113 0.53383,0 0.90736,-0.0802 1.12061,-0.24048 0.21318,-0.16031 0.41338,-0.62703 0.60058,-1.40014 0.18715,-0.77311 0.30678,-2.03939 0.35889,-3.79883 -3e-5,-0.10742 -0.0664,-0.22786 -0.19897,-0.36133 -0.13268,-0.13346 -0.25272,-0.17333 -0.36011,-0.11963 -0.96032,0.15951 -1.84044,-0.0407 -2.64038,-0.60058 -0.8,-0.55989 -1.27973,-1.31998 -1.43921,-2.28028 -0.21324,-1.01236 -0.66653,-3.11847 -1.35986,-6.31836 -0.10745,-0.58755 -8.4e-4,-1.13442 0.31982,-1.64062 0.32061,-0.50617 0.7739,-0.81256 1.35986,-0.91919 0.58591,-0.10659 1.15924,0.0134 1.71997,0.36011 0.56068,0.34669 0.89394,0.813 0.99976,1.39892 0.74704,3.4131 1.25404,5.94646 1.521,7.6001 -4e-5,0.0537 0.0264,0.0806 0.0793,0.0806 0.0529,10e-6 0.0793,-0.0268 0.0794,-0.0806 l 0,-10.48096 c -3e-5,-0.48012 -0.21325,-0.72019 -0.63965,-0.72021 l -19.59961,0 c -1.22722,2e-5 -2.28069,-0.45327 -3.1604,-1.35987 -0.87973,-0.90655 -1.31959,-1.97263 -1.31958,-3.19824 z m 8.32031,-30.63965 0,4.07959 c -1e-5,0.4802 0.24006,0.72027 0.72022,0.72022 l 5.67871,0 c 0.42641,5e-5 0.63962,-0.24002 0.63965,-0.72022 l 0,-4.07959 c -3e-5,-0.428 -0.21324,-0.64203 -0.63965,-0.64209 l -5.67871,0 c -0.48016,6e-5 -0.72023,0.21409 -0.72022,0.64209 z m 0,11.67969 0,3.99903 c -1e-5,0.42647 0.24006,0.63968 0.72022,0.63964 l 5.67871,0 c 0.42641,4e-5 0.63962,-0.21317 0.63965,-0.63964 l 0,-3.99903 c -3e-5,-0.4801 -0.21324,-0.72017 -0.63965,-0.72021 l -5.67871,0 c -0.48016,4e-5 -0.72023,0.24011 -0.72022,0.72021 z m 0,11.51856 0,4.47998 c -1e-5,0.42646 0.24006,0.63967 0.72022,0.63965 l 5.67871,0 c 0.42641,2e-5 0.63962,-0.21319 0.63965,-0.63965 l 0,-4.47998 c -3e-5,-0.4264 -0.21324,-0.63962 -0.63965,-0.63965 l -5.67871,0 c -0.48016,3e-5 -0.72023,0.21325 -0.72022,0.63965 z m -3.60107,17.36084 c -0.58595,6.29395 -1.30617,11.60075 -2.16065,15.92041 -0.15951,0.74706 -0.57252,1.33382 -1.23901,1.76025 -0.66651,0.42643 -1.3733,0.53304 -2.12036,0.31982 -0.74708,-0.21321 -1.33383,-0.65348 -1.76026,-1.3208 -0.42643,-0.66732 -0.5599,-1.40055 -0.40039,-2.1997 1.12142,-5.43945 1.89534,-10.50618 2.32178,-15.2002 0.10579,-0.74705 0.43863,-1.34723 0.99854,-1.80054 0.55988,-0.45327 1.18651,-0.65305 1.87988,-0.59936 0.74706,0.0537 1.37409,0.40041 1.8811,1.04004 0.50699,0.63966 0.70678,1.33302 0.59937,2.08008 z m 4.96093,16.47949 c -0.69337,0.0537 -1.29355,-0.13265 -1.80053,-0.55908 -0.50702,-0.42644 -0.78737,-0.98633 -0.84107,-1.67969 -0.15952,-3.94694 -0.45248,-8.69384 -0.8789,-14.24072 -0.0537,-0.69335 0.11961,-1.30655 0.52002,-1.8396 0.40037,-0.53303 0.94725,-0.8264 1.64062,-0.88013 0.63963,-0.1074 1.23941,0.0391 1.79932,0.43945 0.55988,0.40041 0.86668,0.94728 0.92041,1.64063 0.42641,4.37338 0.77309,9.17318 1.04004,14.39941 0.0537,0.69336 -0.15953,1.29354 -0.63965,1.80054 -0.48016,0.507 -1.06691,0.81339 -1.76026,0.91919 z m 3.15918,-18.55957 c 0.40037,-0.53384 0.92039,-0.85407 1.56006,-0.9607 0.63963,-0.10659 1.22638,0.0269 1.76026,0.4004 0.53383,0.37355 0.85365,0.88014 0.95947,1.51977 0.58754,3.36102 1.09454,6.98813 1.521,10.88135 0.0537,0.69336 -0.10623,1.29313 -0.47974,1.79931 -0.37356,0.50619 -0.90701,0.813 -1.60034,0.92042 -0.63967,0.10579 -1.213,-0.0411 -1.71997,-0.44068 -0.50702,-0.39957 -0.81342,-0.91918 -0.91919,-1.55884 -0.21487,-1.65364 -0.72187,-5.25389 -1.521,-10.80078 -0.10744,-0.63963 0.039,-1.22638 0.43945,-1.76025 z"
       id="path2840"
       style="font-size:80px;font-style:normal;font-weight:normal;text-align:center;text-anchor:middle;fill:#ffffff;fill-opacity:1;stroke:none;font-family:'Rounded M+ 1m medium';-inkscape-font-specification:'Rounded M+ 1m medium'" />
    <path
       d="m 351.43956,411.55869 0,-4.72168 c -4e-5,-0.42644 -0.24011,-0.63965 -0.72021,-0.63965 l -27.83936,0 c -0.90658,0 -1.70655,-0.34668 -2.3999,-1.04004 -0.69337,-0.69336 -1.04005,-1.49332 -1.04004,-2.3999 -10e-6,-0.90657 0.34667,-1.69311 1.04004,-2.35962 0.69335,-0.6665 1.49332,-0.99975 2.3999,-0.99976 l 27.83936,0 c 0.4801,1e-5 0.72017,-0.24006 0.72021,-0.72021 l 0,-4.64112 c -4e-5,-0.42642 -0.24011,-0.63963 -0.72021,-0.63965 l -16.32081,0 -3.59863,0 c -1.22723,2e-5 -2.29412,-0.45327 -3.20068,-1.35986 -0.90659,-0.90656 -1.35988,-1.97345 -1.35987,-3.20068 l 0,-22.15821 c -10e-6,-1.22717 0.45328,-2.28063 1.35987,-3.1604 0.90656,-0.87967 1.97345,-1.31953 3.20068,-1.31958 l 19.91944,0 c 0.4801,5e-5 0.72017,-0.24002 0.72021,-0.72021 l 0,-4.24072 c -4e-5,-0.42638 -0.24011,-0.6396 -0.72021,-0.63965 l -27.04102,0 c -0.90658,5e-5 -1.70655,-0.34663 -2.3999,-1.04004 -0.69337,-0.69331 -1.04005,-1.49327 -1.04004,-2.3999 -10e-6,-0.90652 0.34667,-1.70649 1.04004,-2.39991 0.69335,-0.6933 1.49332,-1.03998 2.3999,-1.04004 l 27.04102,0 c 0.4801,6e-5 0.72017,-0.21315 0.72021,-0.63964 l 0,-2.32178 c -4e-5,-1.22552 0.43982,-2.26516 1.31958,-3.1189 0.87968,-0.85361 1.90629,-1.28045 3.07983,-1.28051 1.17347,6e-5 2.20008,0.4269 3.07984,1.28051 0.87967,0.85374 1.31953,1.89338 1.31958,3.1189 l 0,2.32178 c -5e-5,0.42649 0.24003,0.6397 0.72021,0.63964 l 27.04102,0 c 0.9065,6e-5 1.70647,0.34674 2.3999,1.04004 0.69328,0.69342 1.03996,1.49339 1.04004,2.39991 -8e-5,0.90663 -0.34676,1.70659 -1.04004,2.3999 -0.69343,0.69341 -1.4934,1.04009 -2.3999,1.04004 l -27.04102,0 c -0.48018,5e-5 -0.72026,0.21327 -0.72021,0.63965 l 0,4.24072 c -5e-5,0.48019 0.24003,0.72026 0.72021,0.72021 l 19.91944,0 c 1.22714,5e-5 2.29404,0.43991 3.20068,1.31958 0.90651,0.87977 1.35979,1.93323 1.35986,3.1604 l 0,22.15821 c -7e-5,1.22723 -0.45335,2.29412 -1.35986,3.20068 -0.90664,0.90659 -1.97354,1.35988 -3.20068,1.35986 l -19.91944,0 c -0.48018,2e-5 -0.72026,0.21323 -0.72021,0.63965 l 0,4.64112 c -5e-5,0.48015 0.24003,0.72022 0.72021,0.72021 l 27.83936,0 c 0.9065,1e-5 1.70647,0.33326 2.3999,0.99976 0.69328,0.66651 1.03996,1.45305 1.04004,2.35962 -8e-5,0.90658 -0.34676,1.70654 -1.04004,2.3999 -0.69343,0.69336 -1.4934,1.04004 -2.3999,1.04004 l -27.83936,0 c -0.48018,0 -0.72026,0.21321 -0.72021,0.63965 l 0,4.72168 c -5e-5,1.22558 -0.43991,2.26521 -1.31958,3.11889 -0.87976,0.85367 -1.90637,1.28051 -3.07984,1.28052 -1.17354,-10e-6 -2.20015,-0.42685 -3.07983,-1.28052 -0.87976,-0.85368 -1.31962,-1.89331 -1.31958,-3.11889 z m 25.83984,-25.28077 0,-5.0415 c -6e-5,-0.42641 -0.24013,-0.63962 -0.72021,-0.63965 l -15.60059,0 c -0.48018,3e-5 -0.72026,0.21324 -0.72021,0.63965 l 0,5.0415 c -5e-5,0.48017 0.24003,0.72024 0.72021,0.72022 l 15.60059,0 c 0.48008,2e-5 0.72015,-0.24005 0.72021,-0.72022 z m -0.72021,-17.68066 -15.60059,0 c -0.48018,4e-5 -0.72026,0.21325 -0.72021,0.63965 l 0,4.64111 c -5e-5,0.42647 0.24003,0.63968 0.72021,0.63965 l 15.60059,0 c 0.48008,3e-5 0.72015,-0.21318 0.72021,-0.63965 l 0,-4.64111 c -6e-5,-0.4264 -0.24013,-0.63961 -0.72021,-0.63965 z m -42.16065,0.63965 0,4.64111 c -1e-5,0.42647 0.24006,0.63968 0.72022,0.63965 l 15.60059,0 c 0.4801,3e-5 0.72017,-0.21318 0.72021,-0.63965 l 0,-4.64111 c -4e-5,-0.4264 -0.24011,-0.63961 -0.72021,-0.63965 l -15.60059,0 c -0.48016,4e-5 -0.72023,0.21325 -0.72022,0.63965 z m 0.72022,17.76123 15.60059,0 c 0.4801,2e-5 0.72017,-0.24005 0.72021,-0.72022 l 0,-5.0415 c -4e-5,-0.42641 -0.24011,-0.63962 -0.72021,-0.63965 l -15.60059,0 c -0.48016,3e-5 -0.72023,0.21324 -0.72022,0.63965 l 0,5.0415 c -1e-5,0.48017 0.24006,0.72024 0.72022,0.72022 z"
       id="path2842"
       style="font-size:80px;font-style:normal;font-weight:normal;text-align:center;text-anchor:middle;fill:#ffffff;fill-opacity:1;stroke:none;font-family:'Rounded M+ 1m medium';-inkscape-font-specification:'Rounded M+ 1m medium'" />
  </g>
</svg>
