<?xml version="1.0" encoding="UTF-8" standalone="no"?>
<!-- Created with Inkscape (http://www.inkscape.org/) -->

<svg
   xmlns:svg="http://www.w3.org/2000/svg"
   xmlns="http://www.w3.org/2000/svg"
   version="1.1"
   width="1200"
   height="300"
   id="svg5338">
  <defs
     id="defs5340" />
  <g
     transform="translate(0,-772.36217)"
     id="layer1">
    <rect
       width="1200"
       height="300"
       rx="50"
       ry="50"
       x="0"
       y="0"
       transform="translate(0,772.36217)"
       id="rect5348"
       style="color:#000000;fill:#000000;fill-opacity:1;stroke:none;stroke-width:99;marker:none;visibility:visible;display:inline;overflow:visible;enable-background:accumulate" />
    <rect
       width="1170"
       height="270"
       rx="50"
       ry="50"
       x="15"
       y="15"
       transform="translate(0,772.36217)"
       id="rect5860"
       style="color:#000000;fill:#ffffff;fill-opacity:1;fill-rule:nonzero;stroke:none;stroke-width:99;marker:none;visibility:visible;display:inline;overflow:visible;enable-background:accumulate" />
    <g
       id="text2814"
       style="font-size:250px;font-style:normal;font-weight:normal;text-align:center;text-anchor:middle;fill:#000000;fill-opacity:1;stroke:none;font-family:'Rounded M+ 1m medium';-inkscape-font-specification:'Rounded M+ 1m medium'">
      <path
         d="m 296.07257,854.36145 c -2.16681,2.49751 -4.87524,3.87207 -8.1253,4.12369 -3.25018,0.25192 -6.12646,-0.70557 -8.62885,-2.87247 -5.83399,-5.16748 -13.4176,-11.41849 -22.75085,-18.75305 -2.49738,-1.99873 -3.9546,-4.62323 -4.37165,-7.87354 -0.41709,-3.24993 0.45774,-6.12621 2.62451,-8.62884 2.16672,-2.66501 4.91712,-4.16418 8.25119,-4.49753 3.33401,-0.33295 6.33363,0.49992 8.99888,2.49863 10.83368,8.50441 18.41729,14.6715 22.75085,18.50128 2.66513,2.16692 4.08166,4.95928 4.24957,8.37707 0.16778,3.41814 -0.83167,6.45972 -2.99835,9.12476 z m -6.75201,58.74634 c -2.16681,2.50254 -4.87524,3.87837 -8.12531,4.1275 -3.25017,0.24932 -6.12391,-0.70944 -8.62121,-2.87628 -10.50317,-9.33319 -19.58723,-16.9168 -27.2522,-22.75086 -2.50246,-1.99878 -3.92025,-4.58132 -4.25339,-7.74765 -0.33316,-3.16606 0.50226,-6.00038 2.50626,-8.50296 2.16673,-2.49721 4.87389,-3.95443 8.12149,-4.37164 3.24755,-0.41693 6.20648,0.37398 8.8768,2.37274 8.66695,6.33253 17.74846,13.75084 27.24457,22.25495 2.67022,2.32962 4.12998,5.16139 4.37927,8.49533 0.24916,3.33415 -0.7096,6.33377 -2.87628,8.99887 z m 10.49804,47.25647 c -7.49721,21.83027 -16.91187,41.99474 -28.24402,60.49344 -1.83618,3.0009 -4.50392,4.9184 -8.00323,5.7526 -3.49938,0.8341 -6.7495,0.2505 -9.75037,-1.751 -3.00091,-2.0014 -4.83451,-4.7518 -5.50079,-8.2511 -0.66632,-3.4994 -0.0814,-6.7495 1.75476,-9.7504 10.16232,-16.83043 19.15991,-35.32915 26.9928,-55.49623 1.16979,-3.16868 3.21319,-5.41935 6.13022,-6.75201 2.91691,-1.33253 5.95722,-1.41646 9.12094,-0.25177 3.16867,1.33775 5.50327,3.54773 7.00378,6.62994 1.50038,3.08233 1.66568,6.20784 0.49591,9.37653 z m 61.00464,-152.50397 c 18.66644,3.83524 38.5003,9.7531 59.50165,17.7536 3.16346,1.33279 5.41159,3.45757 6.74438,6.37436 1.33241,2.91715 1.41633,5.95873 0.25177,9.12476 -1.16495,3.16636 -3.24777,5.41576 -6.24847,6.7482 -3.00108,1.33276 -6.0859,1.41668 -9.25445,0.25177 -18.99736,-7.33422 -38.66338,-13.16816 -58.99811,-17.50183 -3.16378,-0.66612 -5.49583,-2.37383 -6.99616,-5.12314 -1.50056,-2.74894 -1.75233,-5.62395 -0.75531,-8.62503 1.16973,-3.33639 3.25382,-5.83756 6.25229,-7.50351 2.99823,-1.66555 6.1657,-2.16528 9.50241,-1.49918 z m 38.7497,141.50238 0,52.00193 c -1.7e-4,1.4954 0.75005,2.2431 2.25067,2.2431 l 55.0003,0 c 3.33127,0 6.12236,1.1253 8.37326,3.376 2.25044,2.2506 3.37577,4.9591 3.37601,8.1253 -2.4e-4,3.1662 -1.12557,5.8746 -3.37601,8.1253 -2.2509,2.2506 -5.04199,3.376 -8.37326,3.376 l -143.75305,0 c -3.33158,0 -6.0807,-1.0834 -8.24737,-3.2501 -2.16683,-2.1668 -3.2502,-4.9172 -3.25013,-8.2512 -7e-5,-3.3341 1.0833,-6.0845 3.25013,-8.2512 2.16667,-2.1668 4.91579,-3.2501 8.24737,-3.2501 l 56.99921,0 c 1.33246,0 1.99876,-0.7477 1.9989,-2.2431 l 0,-52.00193 c -1.4e-4,-1.50038 -0.66644,-2.25061 -1.9989,-2.25067 l -44.7464,0 c -3.16884,6e-5 -5.83658,-1.04135 -8.00324,-3.12424 -2.16683,-2.08275 -3.2502,-4.70853 -3.25012,-7.87735 -8e-5,-3.16866 1.08329,-5.87709 3.25012,-8.1253 2.16666,-2.24804 4.8344,-3.37211 8.00324,-3.37219 l 44.7464,0 c 1.33246,8e-5 1.99876,-0.66622 1.9989,-1.99891 l 0,-42.50335 c -1.4e-4,-1.50032 -0.66644,-2.25054 -1.9989,-2.25067 l -53.74909,0 c -3.33158,1.3e-4 -6.12267,-1.12521 -8.37326,-3.37601 -2.25074,-2.25053 -3.37608,-4.95897 -3.376,-8.12531 -8e-5,-3.16605 1.16595,-5.91517 3.49807,-8.24737 2.33197,-2.3319 5.08237,-3.49792 8.25119,-3.49808 l 137.49695,0 c 3.16852,1.6e-4 5.87822,1.12422 8.12912,3.37219 2.25044,2.24828 3.37577,5.04064 3.37601,8.37708 -2.4e-4,3.1638 -1.12557,5.87096 -3.37601,8.12149 -2.2509,2.2508 -4.9606,3.37614 -8.12912,3.37601 l -51.99432,0 c -1.50062,1.3e-4 -2.25084,0.75035 -2.25067,2.25067 l 0,42.50335 c -1.7e-4,1.33269 0.75005,1.99899 2.25067,1.99891 l 42.7475,0 c 3.16852,8e-5 5.87695,1.12415 8.1253,3.37219 2.2479,2.24821 3.37197,4.95664 3.37219,8.1253 -2.2e-4,3.16882 -1.12429,5.7946 -3.37219,7.87735 -2.24835,2.08289 -4.95678,3.1243 -8.1253,3.12424 l -42.7475,0 c -1.50062,6e-5 -2.25084,0.75029 -2.25067,2.25067 z"
         id="path2819" />
      <path
         d="m 753.56921,864.11182 43.25104,0 c 0.49839,1.4e-4 0.8735,-0.25035 1.12534,-0.7515 0.2517,-0.50085 0.20974,-0.91665 -0.12589,-1.2474 -2.49742,-4.1655 -5.57969,-9.16529 -9.24682,-14.99939 -0.83421,-1.16968 -1.83366,-1.7546 -2.99836,-1.75477 l -24.25384,0 c -3.00093,1.7e-4 -5.58474,-1.0832 -7.75147,-3.25012 -2.16677,-2.16657 -3.25014,-4.74912 -3.25012,-7.74765 -2e-5,-2.99817 1.08335,-5.54003 3.25012,-7.62558 2.16673,-2.08518 4.75054,-3.12786 7.75147,-3.12805 l 76.75171,0 c 1.50033,1.9e-4 2.25056,-0.74749 2.25067,-2.24304 l 0,-4.75311 c -1.1e-4,-3.667 1.37445,-6.87516 4.12369,-9.62449 2.749,-2.74891 5.95716,-4.12347 9.62448,-4.12368 3.66706,2.1e-4 6.87522,1.37477 9.62448,4.12368 2.74899,2.74933 4.12355,5.95749 4.12369,9.62449 l 0,4.75311 c -1.4e-4,1.49555 0.75008,2.24323 2.25067,2.24304 l 76.75171,0 c 3.00067,1.9e-4 5.58449,1.04287 7.75146,3.12805 2.16652,2.08555 3.2499,4.62741 3.25012,7.62558 -2.2e-4,2.99853 -1.0836,5.58108 -3.25012,7.74765 -2.16697,2.16692 -4.75079,3.25029 -7.75146,3.25012 l -24.25385,0 c -1.49555,1.7e-4 -2.495,0.66647 -2.99835,1.99891 -1.99909,4.00305 -4.74821,9.00538 -8.24738,15.00702 -0.33587,0.33075 -0.37783,0.70459 -0.12588,1.12152 0.25159,0.41722 0.6267,0.62575 1.12534,0.62561 l 42.25158,0 c 2.83282,1.4e-4 5.33272,1.04156 7.4997,3.12423 2.16651,2.08297 3.24988,4.5409 3.25012,7.37381 -2.4e-4,2.83319 -1.08361,5.33308 -3.25012,7.4997 -2.16698,2.16687 -4.66688,3.25025 -7.4997,3.25012 l -201.00403,0 c -2.83307,1.3e-4 -5.33296,-1.08325 -7.49969,-3.25012 -2.16676,-2.16662 -3.25014,-4.66651 -3.25012,-7.4997 -2e-5,-2.83291 1.08336,-5.29084 3.25012,-7.37381 2.16673,-2.08267 4.66662,-3.12409 7.49969,-3.12423 z m 64.25476,-16.99829 c 1.99882,3.33166 4.83186,8.33145 8.49915,14.99939 0.49836,1.33274 1.58173,1.99904 3.25012,1.9989 l 49.49951,0 c 1.33245,1.4e-4 2.41583,-0.50085 3.25013,-1.50299 2.33444,-3.33135 5.50063,-8.49645 9.49859,-15.4953 0.33553,-0.33553 0.37749,-0.71192 0.12589,-1.12916 -0.25194,-0.4169 -0.62705,-0.62544 -1.12534,-0.62561 l -71.99859,0 c -0.50363,1.7e-4 -0.88002,0.20871 -1.12916,0.62561 -0.24931,0.41724 -0.20608,0.79363 0.1297,1.12916 z m 23.75031,118.24798 -48.00415,0 -13.4964,0 c -3.83509,5e-5 -7.12717,-1.41648 -9.87625,-4.24957 -2.74916,-2.833 -4.12373,-6.16704 -4.12369,-10.00214 l 0,-43.49518 c -4e-5,-3.83493 1.37453,-7.12701 4.12369,-9.87625 2.74908,-2.74901 6.04116,-4.12357 9.87625,-4.12368 l 147.995,0 c 3.83484,1.1e-4 7.12692,1.37467 9.87625,4.12368 2.74891,2.74924 4.12347,6.04132 4.12368,9.87625 l 0,43.49518 c -2.1e-4,3.8351 -1.37477,7.16914 -4.12368,10.00214 -2.74933,2.83309 -6.04141,4.24962 -9.87625,4.24957 l -69.24439,0 c -0.33582,5e-5 -0.54563,0.12466 -0.62942,0.37384 -0.0841,0.24927 -0.0421,0.45781 0.12588,0.62561 7.16641,4.33354 14.91532,9.66648 23.24677,15.99884 2.50228,1.83617 3.87812,4.29538 4.1275,7.37763 0.24907,3.08229 -0.70969,5.7068 -2.87628,7.87353 -2.1669,2.33461 -4.87534,3.62654 -8.12531,3.87574 -3.25026,0.2492 -6.124,-0.6256 -8.62121,-2.62452 -5.66623,-4.33348 -12.91669,-9.33327 -21.75141,-14.99939 -3.00101,-1.83611 -4.66803,-4.50385 -5.00107,-8.00323 -0.33326,-3.49931 0.66746,-6.49766 3.00217,-8.99506 0.33049,-0.67134 0.0813,-1.17234 -0.74768,-1.50299 z m -48.00415,-51.75018 0,4.50134 c -7e-5,1.50054 0.66623,2.25076 1.9989,2.25067 l 117.0044,0 c 1.33241,9e-5 1.99871,-0.75013 1.9989,-2.25067 l 0,-4.50134 c -1.9e-4,-1.3325 -0.66649,-1.9988 -1.9989,-1.9989 l -117.0044,0 c -1.33267,10e-5 -1.99897,0.6664 -1.9989,1.9989 z m 0,25.7492 0,5.75257 c -7e-5,1.50051 0.66623,2.25073 1.9989,2.25067 l 117.0044,0 c 1.33241,6e-5 1.99871,-0.75016 1.9989,-2.25067 l 0,-5.75257 c -1.9e-4,-1.50037 -0.66649,-2.25059 -1.9989,-2.25067 l -117.0044,0 c -1.33267,8e-5 -1.99897,0.7503 -1.9989,2.25067 z m -10.24628,53.49732 c -5.16769,9.99965 -11.584,19.41685 -19.24896,28.25165 -2.16678,2.6652 -5.0011,4.2063 -8.50296,4.6234 -3.50192,0.4171 -6.75331,-0.2899 -9.75418,-2.121 -2.66522,-1.6683 -4.16439,-4.0435 -4.49753,-7.1258 -0.33316,-3.0823 0.49971,-5.7907 2.49863,-8.1253 6.50022,-7.5022 12.33416,-15.75216 17.50183,-24.74978 1.66826,-2.83301 4.00158,-4.83319 6.99997,-6.00052 2.99831,-1.16726 5.99793,-1.16599 8.99887,0.004 3.00084,1.33263 5.1269,3.49811 6.37817,6.49643 1.25117,2.99837 1.12655,5.91407 -0.37384,8.7471 z m 15.24353,-12.24518 c 2.67022,-2.67025 5.83896,-4.0054 9.50623,-4.00543 3.66711,3e-5 6.83331,1.3339 9.49859,4.00162 2.66512,2.66777 3.99771,5.83524 3.99781,9.50241 l 0,6.24847 c -10e-5,6.66806 0.45894,10.66846 1.3771,12.00106 0.91798,1.3326 3.79299,2.1667 8.62503,2.5024 6.00169,0.4985 13.91845,0.7477 23.75031,0.7477 8.8347,0 16.75146,-0.2492 23.7503,-0.7477 7.16639,-0.5035 11.79107,-1.255 13.87406,-2.2545 2.08266,-0.9994 3.54114,-3.4141 4.37546,-7.2441 0.83397,-3.5044 2.54296,-6.25606 5.12695,-8.25498 2.58364,-1.99888 5.5413,-2.7491 8.87298,-2.25067 3.49917,0.50356 6.37418,2.12989 8.62504,4.879 2.25047,2.74913 3.12404,5.87335 2.62069,9.37275 -1.49555,10.6658 -4.40998,17.5819 -8.74328,20.7481 -4.33368,3.1662 -12.75144,5.1663 -25.2533,6.0005 -8.00084,0.6663 -18.66673,0.9994 -31.99768,0.9995 -12.67,-10e-5 -23.33842,-0.2493 -32.00531,-0.7477 -13.33118,-0.8342 -21.66374,-2.959 -24.99771,-6.3744 -3.33411,-3.4154 -5.00114,-12.0404 -5.00107,-25.87507 l 0,-9.75036 c -7e-5,-3.66717 1.33253,-6.83337 3.9978,-9.4986 z m 129.50135,-6.50024 c 3.16854,-1.50041 6.54454,-1.83356 10.12802,-0.99945 3.58306,0.83418 6.45806,2.66778 8.62503,5.50079 6.83062,9.16547 13.41478,19.16505 19.7525,29.99873 1.66297,2.6653 2.03681,5.5809 1.12152,8.7471 -0.91576,3.1662 -2.87397,5.4169 -5.87463,6.7521 -3.00113,1.3351 -6.12663,1.5017 -9.37653,0.4997 -3.25034,-1.002 -5.707,-2.9195 -7.36999,-5.7526 -6.002,-9.9996 -12.83539,-19.91522 -20.50019,-29.74698 -1.83633,-2.50242 -2.42125,-5.29478 -1.75476,-8.37708 0.66611,-3.08224 2.41578,-5.28968 5.24903,-6.62231 z"
         id="path2821" />
    </g>
  </g>
</svg>
