<?xml version="1.0" encoding="UTF-8" standalone="no"?>
<!-- Created with Inkscape (http://www.inkscape.org/) -->

<svg
   xmlns:svg="http://www.w3.org/2000/svg"
   xmlns="http://www.w3.org/2000/svg"
   version="1.1"
   width="560"
   height="330"
   id="svg2">
  <defs
     id="defs4" />
  <g
     id="layer1">
    <rect
       width="560"
       height="330"
       x="0"
       y="0"
       id="rect2832"
       style="color:#000000;fill:#ffffff;fill-opacity:1;fill-rule:nonzero;stroke:none;stroke-width:1;marker:none;visibility:visible;display:inline;overflow:visible;enable-background:accumulate" />
    <rect
       width="530"
       height="300"
       rx="5"
       ry="5"
       x="15"
       y="15"
       id="rect2830"
       style="color:#000000;fill:#ffffff;fill-opacity:1;fill-rule:nonzero;stroke:#0566ae;stroke-width:6;stroke-linecap:round;stroke-linejoin:round;stroke-miterlimit:4;stroke-opacity:1;stroke-dasharray:none;stroke-dashoffset:261;marker:none;visibility:visible;display:inline;overflow:visible;enable-background:accumulate" />
    <g
       id="text3606"
       style="font-size:150px;font-style:normal;font-weight:normal;text-align:center;text-anchor:middle;fill:#0566ae;fill-opacity:1;stroke:none;font-family:'Rounded M+ 1m medium';-inkscape-font-specification:'Rounded M+ 1m medium'">
      <path
         d="m 90.033691,116.77333 c -3e-5,15.29851 -0.899535,28.0228 -2.698516,38.17291 -1.799038,10.15016 -4.79815,19.52515 -8.997345,28.125 -0.900287,1.90124 -2.400988,2.97622 -4.502106,3.22495 -2.101148,0.24871 -3.850566,-0.42649 -5.248261,-2.02561 l -0.59967,-0.89721 c -3.601079,-4.10157 -4.301457,-8.75244 -2.101135,-13.95264 3.100576,-7.49815 5.275714,-15.89734 6.525421,-25.1976 1.24968,-9.30019 1.874527,-22.10001 1.874542,-38.39951 l 0,-17.701718 c -1.5e-5,-2.300932 0.849899,-4.301357 2.549744,-6.001281 1.69981,-1.699731 3.700235,-2.549645 6.001281,-2.549744 l 39.747624,0 c 0.79949,9.9e-5 1.19927,-0.399681 1.19934,-1.199341 l 0,-16.950989 c -7e-5,-2.297854 0.80026,-4.221985 2.40097,-5.772399 1.60058,-1.550169 3.50106,-2.325315 5.70144,-2.32544 l 1.49689,0 c 1.80046,1.25e-4 3.35075,0.624972 4.65088,1.874542 1.29997,1.249817 1.94999,2.774932 1.95007,4.575348 -8e-5,0.698971 0.30052,1.048397 0.9018,1.048279 l 43.79883,0 c 1.59899,1.18e-4 2.97381,0.575374 4.12445,1.725769 1.15038,1.150628 1.72563,2.525443 1.72577,4.124451 -1.4e-4,1.599231 -0.57539,2.94887 -1.72577,4.048919 -1.15064,1.100266 -2.52546,1.650345 -4.12445,1.650239 l -43.50129,0 c -0.79964,1.06e-4 -1.19942,0.45024 -1.19934,1.350402 l 0,4.202271 c -8e-5,0.900368 0.3997,1.350502 1.19934,1.350403 l 52.50092,0 c 1.8004,9.9e-5 3.35069,0.624946 4.65088,1.874542 1.29991,1.249791 1.94993,2.774905 1.95007,4.575348 -1.4e-4,4.797451 -1.04994,8.946312 -3.14941,12.446594 -2.20046,3.701855 -4.65101,7.302925 -7.35169,10.803225 -0.19849,0.39985 0.001,0.69892 0.59967,0.89721 2.09948,0.20149 3.79931,1.10176 5.09949,2.70081 1.29991,1.59919 1.85075,3.44855 1.65253,5.5481 -0.20156,2.40179 -0.4518,4.40298 -0.75073,6.00357 -0.29921,1.6007 -0.84929,3.10063 -1.65024,4.49981 -0.80122,1.39928 -1.55119,2.49868 -2.24991,3.29819 -0.69899,0.79961 -1.99903,1.5244 -3.90015,2.17438 -1.90137,0.65007 -3.62637,1.12538 -5.17502,1.42593 -1.54889,0.30064 -4.09863,0.55089 -7.64923,0.75073 -3.55083,0.19994 -6.77577,0.29988 -9.67483,0.29984 -2.89928,4e-5 -7.10002,4e-5 -12.60224,0 -18.10005,4e-5 -28.77509,-0.47527 -32.02514,-1.42593 -3.25018,-0.95058 -4.87524,-4.07482 -4.87519,-9.37272 l 0,-7.6538 c -5e-5,-0.7995 -0.39983,-1.19928 -1.19934,-1.19934 l -16.049191,1.19934 c -1.599159,0.10076 -3.023566,-0.37378 -4.273224,-1.42365 -1.249729,-1.04974 -1.92493,-2.42456 -2.025604,-4.12445 -0.100742,-1.69976 0.398983,-3.17452 1.499176,-4.42429 1.100122,-1.24962 2.449761,-1.92482 4.04892,-2.0256 l 16.799923,-1.3504 c 0.79951,7e-5 1.19929,-0.45006 1.19934,-1.35041 l 0,-9.750362 c -5e-5,-0.900183 -0.39983,-1.350316 -1.19934,-1.350403 l -24.000546,0 c -0.9003,8.7e-5 -1.350433,0.45022 -1.350403,1.350403 z m 92.102049,-24.453735 -48.4497,0 c -0.90035,8.7e-5 -1.35048,0.45022 -1.35041,1.350403 l 0,8.551022 c -7e-5,0.79964 0.45006,1.19942 1.35041,1.19934 l 30.6015,-2.39868 c 1.59901,-0.10063 3.02342,0.37392 4.27322,1.42365 1.24958,1.04988 1.92479,2.42469 2.0256,4.12445 0.1006,1.6999 -0.39912,3.17542 -1.49917,4.42657 -1.10027,1.25129 -2.45143,1.92573 -4.0535,2.02332 l -31.34765,2.40326 c -0.90035,6e-5 -1.35048,0.45019 -1.35041,1.3504 l 0,4.04663 c -7e-5,1.9013 0.87502,3.00222 2.62528,3.30277 1.7501,0.30065 7.77503,0.45095 18.0748,0.45089 12.89967,6e-5 20.7999,-0.47525 23.70071,-1.42593 2.90058,-0.95057 4.55081,-3.92526 4.95071,-8.9241 -1.2e-4,-0.90021 -0.30072,-1.60058 -0.90179,-2.10114 l -1.19934,-0.90179 c -1.80066,-1.40069 -2.80087,-3.30041 -3.00064,-5.69916 -0.20001,-2.39861 0.40042,-4.49821 1.8013,-6.298828 0.9978,-1.299969 2.39703,-3.25004 4.19769,-5.85022 0.50037,-0.701819 0.35083,-1.05277 -0.44861,-1.052857 z M 90.935486,174.9734 c 7.998617,-2.90221 13.973194,-6.27821 17.923734,-10.12802 3.95045,-3.84977 6.57572,-8.72419 7.87583,-14.62326 0.50043,-2.09958 1.55099,-3.87494 3.1517,-5.32608 1.60058,-1.45107 3.45071,-2.12627 5.55038,-2.0256 2.20025,0.10074 4.00003,0.97583 5.39933,2.62527 1.39915,1.64951 1.94923,3.52405 1.65023,5.62363 -1.40082,9.30177 -4.67612,16.85258 -9.82589,22.65243 -5.1499,5.79987 -13.07455,10.70022 -23.773959,14.70108 -2.099647,0.79955 -4.224431,0.79955 -6.374359,0 -2.149995,-0.79957 -3.775817,-2.20032 -4.877472,-4.20227 -1.001004,-1.69983 -1.17648,-3.4996 -0.526428,-5.39932 0.649995,-1.89972 1.925629,-3.199 3.826904,-3.89786 z m 60.598754,-29.77752 c 1.50137,-1.55026 3.35226,-2.32541 5.55267,-2.32544 2.20022,3e-5 4.07476,0.77518 5.62363,2.32544 1.54866,1.55032 2.32305,3.42563 2.32315,5.62591 l 0,18.59894 c -1e-4,3.10059 0.40044,4.90113 1.20163,5.40161 0.80098,0.50049 3.65056,0.75074 8.54874,0.75073 5.40149,1e-5 8.72714,-0.67519 9.97696,-2.0256 1.24956,-1.3504 2.0743,-5.42525 2.47421,-12.22458 0.10058,-2.00193 0.92608,-3.70252 2.4765,-5.10177 1.55016,-1.39921 3.32476,-1.99964 5.32379,-1.8013 2.09947,0.20144 3.84966,1.05211 5.25055,2.55203 1.40062,1.49996 2.05064,3.29973 1.95008,5.39932 -0.20156,4.50135 -0.47698,8.12684 -0.82627,10.87646 -0.34957,2.74964 -0.99959,5.19944 -1.95007,7.3494 -0.95076,2.14996 -1.90062,3.72467 -2.84958,4.72412 -0.94923,0.99944 -2.59871,1.82418 -4.94843,2.47421 -2.34998,0.65002 -4.65024,1.02538 -6.90078,1.1261 -2.2508,0.1007 -5.57645,0.15105 -9.97696,0.15107 -4.99889,-2e-5 -8.87309,-0.12514 -11.62262,-0.37537 -2.74974,-0.25026 -5.17512,-0.6508 -7.27616,-1.20163 -2.10123,-0.55085 -3.55157,-1.52589 -4.35104,-2.92511 -0.79965,-1.39924 -1.37414,-2.97394 -1.72348,-4.72412 -0.34952,-1.75018 -0.52423,-4.22439 -0.52414,-7.42264 l 0,-21.60187 c -9e-5,-2.20028 0.74912,-4.07559 2.24762,-5.62591 z"
         id="path3619" />
      <path
         d="m 331.38501,75.972855 c -3.59814,30.297925 -12.27275,53.697255 -26.02386,70.198055 -13.75131,16.50087 -34.52613,28.60108 -62.32453,36.30066 -2.30106,0.60119 -4.47619,0.35171 -6.52542,-0.74844 -2.04928,-1.10016 -3.47369,-2.80075 -4.27322,-5.10178 -0.80264,-2.0996 -0.70346,-4.14962 0.29754,-6.15005 1.00095,-2.00042 2.6016,-3.2997 4.80194,-3.89786 24.29805,-6.9 42.37206,-17.37515 54.22211,-31.42548 11.84988,-14.05023 19.37551,-34.27574 22.5769,-60.67657 0.29897,-2.300919 1.34878,-4.201399 3.14942,-5.701447 1.80043,-1.499827 3.84968,-2.149088 6.14776,-1.947784 l 0.45319,0 c 2.29786,0.198476 4.19681,1.197925 5.69687,2.998352 1.49982,1.800644 2.10025,3.851423 1.8013,6.152344 z"
         id="path3621" />
      <path
         d="m 482.2868,168.37245 0,-40.2008 c -1.2e-4,-0.90022 -0.3999,-1.35035 -1.19934,-1.35041 l -34.95025,0 c -2.30111,6e-5 -4.30154,-0.84986 -6.00128,-2.54974 -1.69991,-1.69977 -2.54983,-3.7002 -2.54975,-6.00128 l 0,-49.64905 c -8e-5,-2.300913 0.84984,-4.301338 2.54975,-6.001282 1.69974,-1.699711 3.70017,-2.549625 6.00128,-2.549743 l 43.79883,0 c 2.30089,1.18e-4 4.30131,0.850032 6.00128,2.549743 1.69969,1.699944 2.5496,3.700369 2.54974,6.001282 l 0,99.75128 c -1.4e-4,9.8999 -1.15065,16.02478 -3.45154,18.37464 -2.30116,2.34984 -8.30091,3.52476 -17.99927,3.52478 -0.39989,-2e-5 -6.10057,-0.19991 -17.10205,-0.59967 -1.999,-0.10072 -3.69882,-0.85069 -5.09948,-2.24991 -1.40085,-1.39924 -2.15082,-3.04948 -2.24991,-4.95072 -0.0993,-1.90124 0.50116,-3.50189 1.8013,-4.80194 1.29995,-1.30004 2.89907,-1.89971 4.79736,-1.79901 7.50111,0.29908 12.45259,0.44861 14.85443,0.44861 3.89698,0 6.24607,-0.3746 7.04727,-1.12381 0.80097,-0.7492 1.20151,-3.02352 1.20163,-6.82297 z m -29.25109,-93.90106 0,11.997986 c -10e-5,0.900359 0.45004,1.350493 1.3504,1.350402 l 26.70135,0 c 0.79944,9.1e-5 1.19922,-0.450043 1.19934,-1.350402 l 0,-11.997986 c -1.2e-4,-0.799456 -0.3999,-1.199236 -1.19934,-1.199341 l -26.70135,0 c -0.90036,1.05e-4 -1.3505,0.399885 -1.3504,1.199341 z m 1.3504,39.60114 26.70135,0 c 0.79944,6e-5 1.19922,-0.39972 1.19934,-1.19935 l 0,-12.15362 c -1.2e-4,-0.900191 -0.3999,-1.350325 -1.19934,-1.350404 l -26.70135,0 c -0.90036,7.9e-5 -1.3505,0.450213 -1.3504,1.350404 l 0,12.15362 c -10e-5,0.79963 0.45004,1.19941 1.3504,1.19935 z m -68.1015,14.09912 0,54.74853 c -3e-5,2.20031 -0.77518,4.07562 -2.32544,5.62592 -1.55032,1.55028 -3.47521,2.32542 -5.77469,2.32544 -2.29952,-2e-5 -4.22441,-0.77516 -5.77469,-2.32544 -1.5503,-1.5503 -2.32545,-3.42561 -2.32544,-5.62592 l 0,-114.29901 c -10e-6,-2.300913 0.8499,-4.301338 2.54974,-6.001282 1.69982,-1.699711 3.70024,-2.549625 6.00129,-2.549743 l 42.30194,0 c 2.29791,1.18e-4 4.29681,0.850032 5.9967,2.549743 1.69976,1.699944 2.54967,3.700369 2.54974,6.001282 l 0,49.64905 c -7e-5,2.30108 -0.84998,4.30151 -2.54974,6.00128 -1.69989,1.69988 -3.69879,2.5498 -5.9967,2.54974 l -33.45337,0 c -0.79959,6e-5 -1.19937,0.45019 -1.19934,1.35041 z m 0,-53.70026 0,11.997986 c -3e-5,0.900359 0.39975,1.350493 1.19934,1.350402 l 25.19989,0 c 0.90021,9.1e-5 1.35035,-0.450043 1.3504,-1.350402 l 0,-11.997986 c -5e-5,-0.799456 -0.45019,-1.199236 -1.3504,-1.199341 l -25.19989,0 c -0.79959,1.05e-4 -1.19937,0.399885 -1.19934,1.199341 z m 0,26.24817 0,12.15362 c -3e-5,0.79963 0.39975,1.19941 1.19934,1.19935 l 25.19989,0 c 0.90021,6e-5 1.35035,-0.39972 1.3504,-1.19935 l 0,-12.15362 c -5e-5,-0.900191 -0.45019,-1.350325 -1.3504,-1.350404 l -25.19989,0 c -0.79959,7.9e-5 -1.19937,0.450213 -1.19934,1.350404 z"
         id="path3623" />
    </g>
    <g
       transform="scale(0.93985793,1.0639906)"
       id="text3614"
       style="font-size:70.7105484px;font-style:normal;font-weight:normal;text-align:center;text-anchor:middle;fill:#0566ae;fill-opacity:1;stroke:#0566ae;stroke-width:2.82842207;stroke-miterlimit:4;stroke-opacity:1;font-family:IPAPGothic;-inkscape-font-specification:IPAPGothic">
      <path
         d="m 147.42762,212.12135 -18.67891,0 0,45.05726 -6.28385,0 0,-45.05726 -18.09196,0 0,-5.45521 43.05472,0 z"
         id="path3626"
         style="fill:#0566ae;stroke:#0566ae" />
      <path
         d="m 168.31623,220.96017 c 4.97181,3e-5 9.16104,1.66882 12.5677,5.00636 3.49866,3.49873 5.24801,8.10227 5.24805,13.81065 -4e-5,5.50126 -1.71486,9.97821 -5.14447,13.43086 -3.36063,3.33758 -7.58438,5.00637 -12.67128,5.00637 -5.08694,0 -9.27617,-1.64577 -12.56769,-4.93731 -3.45267,-3.45266 -5.179,-8.02168 -5.179,-13.70708 0,-5.57027 1.74935,-10.10476 5.24805,-13.60349 3.33756,-3.33754 7.50377,-5.00633 12.49864,-5.00636 z m 0,4.66109 c -2.94629,4e-5 -5.44371,1.05885 -7.49228,3.17645 -2.60102,2.60104 -3.90152,6.21482 -3.90151,10.84137 -1e-5,4.55753 1.27748,8.11377 3.83246,10.66873 2.07158,2.0716 4.59202,3.1074 7.56133,3.10739 3.03832,1e-5 5.58178,-1.05881 7.63039,-3.17645 2.55494,-2.55496 3.83242,-6.16874 3.83245,-10.84136 -3e-5,-4.39637 -1.30053,-7.92959 -3.9015,-10.59968 -2.11767,-2.1176 -4.63811,-3.17641 -7.56134,-3.17645 z"
         id="path3628"
         style="fill:#0566ae;stroke:#0566ae" />
      <path
         d="m 215.30698,221.27091 -1.07033,6.00763 c -0.78263,-0.16109 -1.48467,-0.24165 -2.10612,-0.24168 -2.71612,3e-5 -4.96035,1.27751 -6.7327,3.83245 -2.20972,3.22251 -3.31457,6.05369 -3.31455,8.49355 l 0,17.81575 -6.07669,0 0,-35.21717 5.73142,0 -0.27621,10.46157 0.1381,0 c 2.60099,-7.64186 6.38741,-11.46281 11.35927,-11.46284 0.80559,3e-5 1.5882,0.10361 2.34781,0.31074 z"
         id="path3630"
         style="fill:#0566ae;stroke:#0566ae" />
      <path
         d="m 250.90394,257.17861 -5.38615,0 c -0.80565,-1.77237 -1.32355,-3.59077 -1.5537,-5.45521 l -0.20716,0 c -2.67008,4.2813 -6.65215,6.42195 -11.94621,6.42195 -3.63682,0 -6.60611,-1.15088 -8.90788,-3.45266 -2.02556,-2.02556 -3.03834,-4.49996 -3.03834,-7.42323 0,-7.27359 6.27233,-11.09453 18.81702,-11.46284 l 4.73014,-0.13811 0,-1.82991 c -2e-5,-2.46287 -0.71357,-4.39636 -2.14065,-5.80047 -1.45014,-1.47311 -3.32608,-2.20967 -5.62784,-2.20971 -3.95907,4e-5 -6.92836,1.92202 -8.90787,5.76595 l -5.24805,-2.41686 c 3.2455,-5.38612 8.01017,-8.0792 14.29403,-8.07924 4.30429,4e-5 7.63036,1.20847 9.9782,3.6253 2.16363,2.1637 3.24547,5.22506 3.2455,9.18409 l 0,12.94748 c -3e-5,4.3964 0.63295,7.83755 1.89896,10.32347 z m -7.35417,-17.26332 -3.90151,0.0691 c -9.09203,0.20718 -13.63803,2.65857 -13.63802,7.35418 -1e-5,1.65728 0.54091,3.02684 1.62275,4.10867 1.33502,1.31201 3.08437,1.96802 5.24805,1.96801 3.01531,1e-5 5.62782,-1.10484 7.83755,-3.31455 1.88743,-1.9565 2.83115,-4.31582 2.83118,-7.07796 z"
         id="path3632"
         style="fill:#0566ae;stroke:#0566ae" />
      <path
         d="m 291.74895,257.17861 -6.07668,0 0,-21.85536 c -3e-5,-5.98459 -2.47444,-8.9769 -7.42323,-8.97693 -4.99487,3e-5 -8.65469,2.99234 -10.97947,8.97693 l 0,21.85536 -6.07669,0 0,-35.21717 5.66237,0 0,6.3529 c 3.31454,-4.69559 7.5383,-7.0434 12.67128,-7.04343 8.14825,3e-5 12.22239,4.56905 12.22242,13.70707 z"
         id="path3634"
         style="fill:#0566ae;stroke:#0566ae" />
      <path
         d="m 318.85235,220.96017 c 4.97181,3e-5 9.16104,1.66882 12.5677,5.00636 3.49866,3.49873 5.24801,8.10227 5.24805,13.81065 -4e-5,5.50126 -1.71486,9.97821 -5.14447,13.43086 -3.36062,3.33758 -7.58438,5.00637 -12.67128,5.00637 -5.08694,0 -9.27616,-1.64577 -12.56769,-4.93731 -3.45267,-3.45266 -5.179,-8.02168 -5.179,-13.70708 0,-5.57027 1.74935,-10.10476 5.24805,-13.60349 3.33756,-3.33754 7.50377,-5.00633 12.49864,-5.00636 z m 0,4.66109 c -2.94629,4e-5 -5.44371,1.05885 -7.49228,3.17645 -2.60101,2.60104 -3.90152,6.21482 -3.90151,10.84137 -10e-6,4.55753 1.27748,8.11377 3.83246,10.66873 2.07158,2.0716 4.59202,3.1074 7.56133,3.10739 3.03832,1e-5 5.58178,-1.05881 7.63039,-3.17645 2.55494,-2.55496 3.83242,-6.16874 3.83246,-10.84136 -4e-5,-4.39637 -1.30054,-7.92959 -3.90151,-10.59968 -2.11766,-2.1176 -4.63811,-3.17641 -7.56134,-3.17645 z"
         id="path3636"
         style="fill:#0566ae;stroke:#0566ae" />
      <path
         d="m 395.81223,257.17861 -6.07669,0 0,-22.06252 c -5e-5,-5.93855 -2.30182,-8.90784 -6.90533,-8.90787 -2.18672,3e-5 -4.18927,1.01281 -6.00763,3.03834 -1.28903,1.42713 -2.18672,3.22251 -2.69308,5.38616 l 0,22.54589 -6.07669,0 0,-22.13158 c -2e-5,-5.89251 -2.1752,-8.83878 -6.52553,-8.83881 -2.30179,3e-5 -4.32735,1.01281 -6.07669,3.03834 -1.88747,2.09464 -2.83119,4.1202 -2.83118,6.07669 l 0,21.85536 -6.07669,0 0,-35.21717 5.66237,0 0,6.07669 c 2.32478,-4.51145 5.83498,-6.76719 10.53062,-6.76722 5.13293,3e-5 8.55107,2.45142 10.25441,7.35417 2.55494,-4.90275 6.22627,-7.35414 11.014,-7.35417 3.86694,3e-5 6.88226,1.36959 9.04598,4.10867 1.84136,2.25577 2.76207,5.45523 2.76213,9.5984 z"
         id="path3638"
         style="fill:#0566ae;stroke:#0566ae" />
      <path
         d="m 423.12278,220.96017 c 4.97181,3e-5 9.16104,1.66882 12.5677,5.00636 3.49866,3.49873 5.24801,8.10227 5.24805,13.81065 -4e-5,5.50126 -1.71486,9.97821 -5.14447,13.43086 -3.36062,3.33758 -7.58438,5.00637 -12.67128,5.00637 -5.08694,0 -9.27616,-1.64577 -12.56769,-4.93731 -3.45267,-3.45266 -5.179,-8.02168 -5.179,-13.70708 0,-5.57027 1.74935,-10.10476 5.24805,-13.60349 3.33757,-3.33754 7.50378,-5.00633 12.49864,-5.00636 z m 0,4.66109 c -2.94629,4e-5 -5.44371,1.05885 -7.49227,3.17645 -2.60102,2.60104 -3.90152,6.21482 -3.90151,10.84137 -10e-6,4.55753 1.27747,8.11377 3.83245,10.66873 2.07158,2.0716 4.59203,3.1074 7.56133,3.10739 3.03832,1e-5 5.58178,-1.05881 7.63039,-3.17645 2.55494,-2.55496 3.83243,-6.16874 3.83246,-10.84136 -3e-5,-4.39637 -1.30054,-7.92959 -3.90151,-10.59968 -2.11766,-2.1176 -4.6381,-3.17641 -7.56134,-3.17645 z"
         id="path3640"
         style="fill:#0566ae;stroke:#0566ae" />
      <path
         d="m 481.36922,257.17861 -6.07668,0 0,-21.85536 c -3e-5,-5.98459 -2.47444,-8.9769 -7.42323,-8.97693 -4.99487,3e-5 -8.65469,2.99234 -10.97947,8.97693 l 0,21.85536 -6.07669,0 0,-35.21717 5.66237,0 0,6.3529 c 3.31454,-4.69559 7.5383,-7.0434 12.67128,-7.04343 8.14825,3e-5 12.22239,4.56905 12.22242,13.70707 z"
         id="path3642"
         style="fill:#0566ae;stroke:#0566ae" />
    </g>
  </g>
</svg>
