<?xml version="1.0" encoding="UTF-8" standalone="no"?>
<!-- Created with Inkscape (http://www.inkscape.org/) -->
<svg
   xmlns:dc="http://purl.org/dc/elements/1.1/"
   xmlns:cc="http://creativecommons.org/ns#"
   xmlns:rdf="http://www.w3.org/1999/02/22-rdf-syntax-ns#"
   xmlns:svg="http://www.w3.org/2000/svg"
   xmlns="http://www.w3.org/2000/svg"
   xmlns:sodipodi="http://sodipodi.sourceforge.net/DTD/sodipodi-0.dtd"
   xmlns:inkscape="http://www.inkscape.org/namespaces/inkscape"
   width="480"
   height="390"
   id="svg4203"
   sodipodi:version="0.32"
   inkscape:version="0.46"
   version="1.0"
   sodipodi:docbase="D:\Documents and Settings\Administrator\デスクトップ\看板\sign\西日本\svg"
   sodipodi:docname="Japanese Road sign (Exit A).svg"
   inkscape:output_extension="org.inkscape.output.svg.inkscape">
  <defs
     id="defs4205">
    <inkscape:perspective
       sodipodi:type="inkscape:persp3d"
       inkscape:vp_x="0 : 315 : 1"
       inkscape:vp_y="0 : 1000 : 0"
       inkscape:vp_z="1500 : 315 : 1"
       inkscape:persp3d-origin="750 : 210 : 1"
       id="perspective9" />
    <inkscape:perspective
       id="perspective3163"
       inkscape:persp3d-origin="372.04724 : 350.78739 : 1"
       inkscape:vp_z="744.09448 : 526.18109 : 1"
       inkscape:vp_y="0 : 1000 : 0"
       inkscape:vp_x="0 : 526.18109 : 1"
       sodipodi:type="inkscape:persp3d" />
    <inkscape:perspective
       id="perspective2395"
       inkscape:persp3d-origin="372.04724 : 350.78739 : 1"
       inkscape:vp_z="744.09448 : 526.18109 : 1"
       inkscape:vp_y="0 : 1000 : 0"
       inkscape:vp_x="0 : 526.18109 : 1"
       sodipodi:type="inkscape:persp3d" />
    <inkscape:perspective
       id="perspective3843"
       inkscape:persp3d-origin="227.5 : 145 : 1"
       inkscape:vp_z="455 : 217.5 : 1"
       inkscape:vp_y="0 : 1000 : 0"
       inkscape:vp_x="0 : 217.5 : 1"
       sodipodi:type="inkscape:persp3d" />
    <inkscape:perspective
       id="perspective2404"
       inkscape:persp3d-origin="372.04724 : 350.78739 : 1"
       inkscape:vp_z="744.09448 : 526.18109 : 1"
       inkscape:vp_y="0 : 1000 : 0"
       inkscape:vp_x="0 : 526.18109 : 1"
       sodipodi:type="inkscape:persp3d" />
  </defs>
  <sodipodi:namedview
     id="base"
     pagecolor="#ffffff"
     bordercolor="#666666"
     borderopacity="1.0"
     gridtolerance="10000"
     guidetolerance="10"
     objecttolerance="10"
     inkscape:pageopacity="0.0"
     inkscape:pageshadow="2"
     inkscape:zoom="1.3025641"
     inkscape:cx="240"
     inkscape:cy="195"
     inkscape:document-units="px"
     inkscape:current-layer="layer1"
     width="1500px"
     height="630px"
     inkscape:window-width="1024"
     inkscape:window-height="712"
     inkscape:window-x="-4"
     inkscape:window-y="-4"
     showgrid="false"
     showguides="true"
     inkscape:guide-bbox="true" />
  <metadata
     id="metadata4208">
    <rdf:RDF>
      <cc:Work
         rdf:about="">
        <dc:format>image/svg+xml</dc:format>
        <dc:type
           rdf:resource="http://purl.org/dc/dcmitype/StillImage" />
      </cc:Work>
    </rdf:RDF>
  </metadata>
  <g
     inkscape:label="sign"
     inkscape:groupmode="layer"
     id="layer1">
    <rect
       style="fill:#005d35;fill-opacity:1;stroke:none;stroke-width:1;stroke-linecap:butt;stroke-linejoin:round;stroke-miterlimit:4;stroke-dasharray:none;stroke-opacity:1"
       id="rect_bg"
       width="480"
       height="130"
       x="0"
       y="260" />
    <rect
       style="opacity:1;fill:#ffffff;fill-opacity:1;fill-rule:nonzero;stroke:none;stroke-width:0.01;stroke-linecap:butt;stroke-linejoin:miter;marker:none;marker-start:none;marker-mid:none;marker-end:none;stroke-miterlimit:4;stroke-dasharray:none;stroke-dashoffset:0;stroke-opacity:1;visibility:visible;display:inline;overflow:visible;enable-background:accumulate"
       id="rect3169"
       width="176"
       height="122"
       x="4"
       y="264" />
    <rect
       y="-4.0412118e-14"
       x="0"
       height="240"
       width="480"
       id="rect2401"
       style="fill:#005d35;fill-opacity:1;stroke:none;stroke-width:1;stroke-linecap:butt;stroke-linejoin:round;stroke-miterlimit:4;stroke-dasharray:none;stroke-opacity:1" />
    <path
       style="font-size:26px;font-style:normal;font-variant:normal;font-weight:normal;font-stretch:normal;text-align:start;line-height:125%;writing-mode:lr-tb;text-anchor:start;fill:#ffffff;fill-opacity:1;fill-rule:nonzero;stroke:none;stroke-width:1;stroke-linecap:butt;stroke-linejoin:round;marker:none;marker-start:none;marker-mid:none;marker-end:none;stroke-miterlimit:4;stroke-dashoffset:0;stroke-opacity:1;visibility:visible;display:inline;overflow:visible;enable-background:accumulate;font-family:GD-HighwayGothicJA-OTF;-inkscape-font-specification:GD-HighwayGothicJA-OTF"
       d="M 312.36006,89.065524 L 312.36006,120.16498 L 279.89929,120.16498 L 279.89929,77.651924 L 322.41237,77.651924 L 322.41237,35.452957 L 312.36006,35.452957 L 312.36006,67.704271 L 279.89929,67.704271 L 279.89929,29.903214 L 269.84695,29.903214 L 269.84695,67.704271 L 236.96737,67.704271 L 236.96737,35.452957 L 227.33386,35.452957 L 227.33386,77.651924 L 269.84695,77.651924 L 269.84695,120.16498 L 236.96737,120.16498 L 236.96737,89.065524 L 227.33386,89.065524 L 227.33386,129.7985 L 322.41237,129.7985 L 322.41237,89.065524 L 312.36006,89.065524 z"
       id="path2448" />
    <path
       id="path2446"
       style="font-size:26px;font-style:normal;font-variant:normal;font-weight:normal;font-stretch:normal;text-align:start;line-height:125%;writing-mode:lr-tb;text-anchor:start;fill:#ffffff;fill-opacity:1;fill-rule:nonzero;stroke:none;stroke-width:1;stroke-linecap:butt;stroke-linejoin:round;marker:none;marker-start:none;marker-mid:none;marker-end:none;stroke-miterlimit:4;stroke-dashoffset:0;stroke-opacity:1;visibility:visible;display:inline;overflow:visible;enable-background:accumulate;font-family:GD-HighwayGothicJA-OTF;-inkscape-font-specification:GD-HighwayGothicJA-OTF"
       d="M 338.72393,34.615271 L 338.72393,129.90321 L 434.01187,129.90321 L 434.01187,34.615271 L 338.72393,34.615271 zM 348.14801,44.039357 L 424.58778,44.039357 L 424.58778,120.47912 L 348.14801,120.47912 L 348.14801,44.039357 z" />
    <path
       style="font-size:15px;font-style:normal;font-variant:normal;font-weight:normal;font-stretch:normal;text-align:start;line-height:125%;writing-mode:lr-tb;text-anchor:start;fill:#ffffff;fill-opacity:1;fill-rule:nonzero;stroke:none;stroke-width:1;stroke-linecap:butt;stroke-linejoin:round;marker:none;marker-start:none;marker-mid:none;marker-end:none;stroke-miterlimit:4;stroke-dashoffset:0;stroke-opacity:1;visibility:visible;display:inline;overflow:visible;enable-background:accumulate;font-family:GD-HighwayGothicJA-OTF;-inkscape-font-specification:GD-HighwayGothicJA-OTF"
       d="M 263.70807,195.06381 L 290.26387,195.06381 L 290.26387,201.87712 L 255.39261,201.87712 L 255.39261,151.87712 L 289.51278,151.87712 L 289.51278,158.74406 L 263.70807,158.74406 L 263.70807,172.37066 L 286.45484,172.37066 L 286.45484,179.18398 L 263.70807,179.18398 L 263.70807,195.06381 z M 339.60138,201.87712 L 329.35458,201.87712 L 317.98118,183.10029 L 306.60778,201.87712 L 296.41467,201.87712 L 313.6357,176.55523 L 297.5413,151.87712 L 307.35887,151.87712 L 317.98118,170.27841 L 328.6035,151.87712 L 338.47475,151.87712 L 322.38035,176.55523 L 339.60138,201.87712 z M 356.33601,201.87712 L 348.02055,201.87712 L 348.02055,151.87712 L 356.33601,151.87712 L 356.33601,201.87712 z M 403.35961,151.87712 L 403.35961,158.74406 L 388.23087,158.74406 L 388.23087,201.87712 L 379.86178,201.87712 L 379.86178,158.74406 L 364.73301,158.74406 L 364.73301,151.87712 L 403.35961,151.87712 z"
       id="text3207" />
    <path
       style="font-size:48px;font-style:normal;font-variant:normal;font-weight:normal;font-stretch:normal;text-align:start;line-height:125%;writing-mode:lr-tb;text-anchor:start;fill:#005d35;fill-opacity:1;fill-rule:nonzero;stroke:none;stroke-width:1;stroke-linecap:butt;stroke-linejoin:round;marker:none;marker-start:none;marker-mid:none;marker-end:none;stroke-miterlimit:4;stroke-dashoffset:0;stroke-opacity:1;visibility:visible;display:inline;overflow:visible;enable-background:accumulate;font-family:GD-HighwayGothicJA-OTF;-inkscape-font-specification:GD-HighwayGothicJA-OTF"
       d="M 108.44122,333.97995 L 108.44122,342.2806 L 101.0556,342.2806 L 101.0556,355.67929 L 90.924877,355.67929 L 90.924877,342.2806 L 63.212457,342.2806 L 63.212457,332.14987 L 89.029452,295.67929 L 101.0556,295.67929 L 101.0556,333.97995 L 108.44122,333.97995 z M 71.251673,333.97995 L 90.924877,333.97995 L 90.924877,306.33289 L 71.251673,333.97995 z"
       id="text2416" />
    <path
       style="font-size:90px;font-style:normal;font-variant:normal;font-weight:normal;font-stretch:normal;text-align:start;line-height:125%;writing-mode:lr-tb;text-anchor:start;fill:#ffffff;fill-opacity:1;fill-rule:nonzero;stroke:none;stroke-width:1;stroke-linecap:butt;stroke-linejoin:round;marker:none;marker-start:none;marker-mid:none;marker-end:none;stroke-miterlimit:4;stroke-dashoffset:0;stroke-opacity:1;visibility:visible;display:inline;overflow:visible;enable-background:accumulate;font-family:GD-HighwayGothicJA-OTF;-inkscape-font-specification:GD-HighwayGothicJA-OTF"
       d="M 35.521667,35.378003 L 53.122512,109.89982 L 73.789378,90.135463 L 173.17766,193.11082 L 187.81478,178.99317 L 88.426465,76.017799 L 109.09336,56.253484 L 35.521667,35.378003 z"
       id="text2420" />
    <path
       id="path2440"
       style="font-size:45px;font-style:normal;font-variant:normal;font-weight:normal;font-stretch:normal;text-align:start;line-height:125%;writing-mode:lr-tb;text-anchor:start;fill:#ffffff;fill-opacity:1;fill-rule:nonzero;stroke:none;stroke-width:1;stroke-linecap:butt;stroke-linejoin:round;marker:none;marker-start:none;marker-mid:none;marker-end:none;stroke-miterlimit:4;stroke-dashoffset:0;stroke-opacity:1;visibility:visible;display:inline;overflow:visible;enable-background:accumulate;font-family:GD-HighwayGothicJA-OTF;-inkscape-font-specification:GD-HighwayGothicJA-OTF"
       d="M 278.74065,276.43523 L 278.74065,286.62971 L 270.44996,286.62971 L 270.44996,292.15684 L 278.74065,292.15684 L 278.74065,293.99921 C 278.71259,296.02396 278.27738,298.53884 277.43507,301.54384 C 276.59272,304.5489 275.51155,307.56419 274.19157,310.58968 C 272.87158,313.61521 271.48108,316.17102 270.02007,318.25714 L 274.62601,321.26635 C 275.3348,320.27736 276.03592,319.16938 276.72939,317.9424 C 277.42283,316.71545 278.09324,315.40786 278.74065,314.01968 L 278.74065,335.39122 L 284.26777,335.39122 L 284.26777,305.54475 L 287.15415,308.92244 L 291.3302,305.36051 L 284.26777,296.94701 L 284.26777,292.15684 L 290.40902,292.15684 L 290.40902,286.62971 L 284.26777,286.62971 L 284.26777,276.43523 L 278.74065,276.43523 z M 302.69151,276.12818 L 297.16439,276.12818 L 297.16439,281.04117 L 292.25139,281.04117 L 292.25139,286.5683 L 297.16439,286.5683 L 297.16439,290.86717 L 292.25139,290.86717 L 292.25139,296.3943 L 306.99038,296.3943 L 306.99038,300.38611 L 292.25139,300.38611 L 292.25139,324.9511 L 327.2565,324.9511 L 327.2565,300.38611 L 312.51751,300.38611 L 312.51751,296.3943 L 327.2565,296.3943 L 327.2565,290.86717 L 322.34351,290.86717 L 322.34351,286.5683 L 327.2565,286.5683 L 327.2565,281.04117 L 322.34351,281.04117 L 322.34351,276.12818 L 316.81638,276.12818 L 316.81638,281.04117 L 302.69151,281.04117 L 302.69151,276.12818 z M 321.72937,319.42398 L 312.51751,319.42398 L 312.51751,315.43217 L 321.72937,315.43217 L 321.72937,319.42398 z M 297.77851,319.42398 L 297.77851,315.43217 L 306.99038,315.43217 L 306.99038,319.42398 L 297.77851,319.42398 z M 321.72937,305.91323 L 321.72937,309.90504 L 312.51751,309.90504 L 312.51751,305.91323 L 321.72937,305.91323 z M 297.77851,305.91323 L 306.99038,305.91323 L 306.99038,309.90504 L 297.77851,309.90504 L 297.77851,305.91323 z M 302.69151,290.86717 L 302.69151,286.5683 L 316.81638,286.5683 L 316.81638,290.86717 L 302.69151,290.86717 z M 316.26368,328.8815 C 317.65691,330.43984 319.24596,331.77556 321.03082,332.88866 C 322.81556,334.00175 324.91126,334.93829 327.31791,335.69829 L 328.97606,330.41681 C 327.10803,329.78349 325.45502,329.05422 324.01699,328.22899 C 322.57887,327.40376 321.32503,326.41349 320.25548,325.25815 L 316.26368,328.8815 z M 303.24423,328.8815 L 299.25242,325.25815 C 298.18278,326.41349 296.92895,327.40376 295.4909,328.22899 C 294.0528,329.05422 292.39978,329.78349 290.53184,330.41681 L 292.18997,335.69829 C 294.59655,334.93829 296.69225,334.00175 298.47708,332.88866 C 300.26185,331.77556 301.8509,330.43984 303.24423,328.8815 L 303.24423,328.8815 z" />
    <path
       id="path2422"
       style="font-size:45px;font-style:normal;font-variant:normal;font-weight:normal;font-stretch:normal;text-align:start;line-height:125%;writing-mode:lr-tb;text-anchor:start;fill:#ffffff;fill-opacity:1;fill-rule:nonzero;stroke:none;stroke-width:1;stroke-linecap:butt;stroke-linejoin:round;marker:none;marker-start:none;marker-mid:none;marker-end:none;stroke-miterlimit:4;stroke-dashoffset:0;stroke-opacity:1;visibility:visible;display:inline;overflow:visible;enable-background:accumulate;font-family:GD-HighwayGothicJA-OTF;-inkscape-font-specification:GD-HighwayGothicJA-OTF"
       d="M 364.54088,311.74741 L 364.54088,317.27454 L 407.22258,317.27454 L 407.22258,311.74741 L 400.46718,311.74741 L 400.46718,295.4731 L 405.38018,295.4731 L 405.38018,289.94599 L 374.36688,289.94599 L 374.36688,288.04219 C 378.03238,287.60852 382.06258,286.75641 386.45748,285.4859 C 390.85228,284.21547 394.80568,282.54966 398.31778,280.48847 L 395.55418,275.7597 C 393.08168,277.20029 390.22038,278.4475 386.97008,279.50131 C 383.71978,280.55523 380.54448,281.37027 377.44438,281.94643 C 374.34408,282.52271 371.78298,282.8146 369.76088,282.82213 L 368.83978,282.82213 L 368.83978,311.74741 L 364.54088,311.74741 z M 356.25018,310.82623 L 356.25018,311.56317 C 356.30178,311.76412 356.23278,312.96582 356.04318,315.16832 C 355.85368,317.37083 355.23418,319.98275 354.1849,323.0041 C 353.13558,326.02544 351.34704,328.86482 348.81928,331.52224 L 352.68826,335.7597 C 355.77778,332.37329 357.96438,328.84927 359.24798,325.18765 C 360.53158,321.52603 361.28978,318.39324 361.52258,315.78926 C 361.75528,313.18531 361.84018,311.77662 361.77728,311.56317 L 361.77728,310.82623 L 356.25018,310.82623 z M 352.3812,276.61947 L 349.24916,281.164 L 358.58388,287.61231 L 361.71588,283.06778 L 352.3812,276.61947 z M 352.3812,292.89378 L 349.24916,297.43831 L 358.58388,303.88662 L 361.71588,299.3421 L 352.3812,292.89378 z M 364.47948,329.92551 L 366.87458,335.45263 C 369.13778,334.33057 371.35128,332.64429 373.51478,330.39378 C 375.67828,328.14327 377.47718,325.42832 378.91138,322.24894 L 373.75278,319.91528 C 373.05158,321.40709 371.93588,323.15222 370.40578,325.15068 C 368.87558,327.14915 366.90008,328.74076 364.47948,329.92551 L 364.47948,329.92551 z M 407.34538,329.92551 C 404.92468,328.74076 402.94918,327.14915 401.41908,325.15068 C 399.88888,323.15222 398.77318,321.40709 398.07208,319.91528 L 392.91348,322.24894 C 394.34768,325.42832 396.14648,328.14327 398.31008,330.39378 C 400.47358,332.64429 402.68698,334.33057 404.95028,335.45263 L 407.34538,329.92551 z M 374.36688,311.74741 L 374.36688,295.4731 L 394.94008,295.4731 L 394.94008,311.74741 L 374.36688,311.74741 z" />
    <path
       style="font-size:32px;font-style:normal;font-variant:normal;font-weight:normal;font-stretch:normal;text-align:start;line-height:125%;writing-mode:lr-tb;text-anchor:start;fill:#ffffff;fill-opacity:1;fill-rule:nonzero;stroke:none;stroke-width:1;stroke-linecap:butt;stroke-linejoin:round;stroke-miterlimit:4;stroke-dashoffset:0;stroke-opacity:1;marker:none;marker-start:none;marker-mid:none;marker-end:none;visibility:visible;display:inline;overflow:visible;enable-background:accumulate;font-family:GD-HighwayGothicJA-OTF;-inkscape-font-specification:GD-HighwayGothicJA-OTF"
       d="M 258.79578,346.46482 L 248.61991,364.19259 L 248.61991,376.28844 L 243.65997,376.28844 L 243.65997,364.19259 L 233.4841,346.46482 L 239.11603,346.46482 L 246.12394,360.48064 L 253.13185,346.46482 L 258.79578,346.46482 z M 273.14146,376.96043 C 270.23083,376.92309 267.74019,375.92577 265.66956,373.96847 C 263.59892,372.01116 262.51627,369.31787 262.4216,365.88857 C 262.51627,362.47463 263.59892,359.79066 265.66956,357.83668 C 267.74019,355.88272 270.23082,354.88673 273.14146,354.84871 C 276.06741,354.88673 278.56738,355.88272 280.64137,357.83668 C 282.71532,359.79066 283.7993,362.47463 283.89333,365.88857 C 283.7993,369.31787 282.71532,372.01116 280.64137,373.96847 C 278.56738,375.92577 276.06741,376.92309 273.14146,376.96043 L 273.14146,376.96043 z M 278.90139,365.88857 C 278.81737,363.10595 278.16938,361.12731 276.95742,359.95265 C 275.74542,358.77801 274.47343,358.20735 273.14146,358.24067 C 271.80947,358.20735 270.53749,358.77801 269.32551,359.95265 C 268.11352,361.12731 267.46553,363.10595 267.38154,365.88857 C 267.46553,368.68654 268.11352,370.67451 269.32551,371.8525 C 270.53749,373.03048 271.80947,373.60247 273.14146,373.56847 C 274.47343,373.60247 275.74541,373.03048 276.95741,371.8525 C 278.16938,370.67451 278.81737,368.68654 278.90139,365.88857 L 278.90139,365.88857 z M 302.39591,376.28844 L 295.96399,367.00856 L 293.11603,369.95252 L 293.11603,376.28844 L 288.38009,376.28844 L 288.38009,346.46482 L 293.11603,346.46482 L 293.11603,364.86459 L 301.72392,355.52071 L 307.35585,355.52071 L 298.87596,364.0966 L 308.28383,376.28844 L 302.39591,376.28844 z M 321.95396,376.96043 C 319.04333,376.92309 316.55269,375.92577 314.48206,373.96847 C 312.41142,372.01116 311.32877,369.31787 311.2341,365.88857 C 311.32877,362.47463 312.41142,359.79066 314.48206,357.83668 C 316.55269,355.88272 319.04332,354.88673 321.95396,354.84871 C 324.87991,354.88673 327.37988,355.88272 329.45387,357.83668 C 331.52782,359.79066 332.6118,362.47463 332.70583,365.88857 C 332.6118,369.31787 331.52782,372.01116 329.45387,373.96847 C 327.37988,375.92577 324.87991,376.92309 321.95396,376.96043 L 321.95396,376.96043 z M 327.71389,365.88857 C 327.62987,363.10595 326.98188,361.12731 325.76992,359.95265 C 324.55792,358.77801 323.28593,358.20735 321.95396,358.24067 C 320.62197,358.20735 319.34999,358.77801 318.13801,359.95265 C 316.92602,361.12731 316.27803,363.10595 316.19404,365.88857 C 316.27803,368.68654 316.92602,370.67451 318.13801,371.8525 C 319.34999,373.03048 320.62197,373.60247 321.95396,373.56847 C 323.28593,373.60247 324.55791,373.03048 325.76991,371.8525 C 326.98188,370.67451 327.62987,368.68654 327.71389,365.88857 L 327.71389,365.88857 z M 348.48845,354.84871 C 350.66573,354.91007 352.40704,355.57939 353.71238,356.85669 C 355.01767,358.13402 355.687,359.65133 355.72035,361.40863 L 355.72035,376.28844 L 350.98441,376.28844 L 350.98441,362.30462 C 350.9944,361.34664 350.6944,360.47865 350.08442,359.70065 C 349.47442,358.92268 348.49443,358.51068 347.14446,358.46467 C 345.73714,358.48735 344.52782,358.94601 343.51651,359.84065 C 342.50518,360.73532 341.97585,361.92997 341.92853,363.4246 L 341.92853,376.28844 L 337.19259,376.28844 L 337.19259,346.46482 L 341.92853,346.46482 L 341.92853,358.33667 C 342.68384,357.21137 343.63716,356.35005 344.78849,355.7527 C 345.9398,355.1554 347.17312,354.85407 348.48845,354.84871 L 348.48845,354.84871 z M 379.88185,376.28844 C 379.39472,376.28844 378.74762,376.28844 377.94054,376.28844 C 377.13342,376.28844 376.40099,376.28844 375.74324,376.28844 C 375.08545,376.28844 374.73701,376.28844 374.69792,376.28844 L 374.02592,373.56847 C 373.26192,374.75979 372.21393,375.62511 370.88196,376.16444 C 369.54997,376.70376 368.10199,376.96909 366.53802,376.96043 C 364.69337,376.94709 363.19073,376.41377 362.03008,375.36045 C 360.86942,374.30713 360.27077,372.81382 360.2341,370.88051 C 360.2701,368.9692 360.98209,367.50389 362.37008,366.48456 C 363.75805,365.46525 365.60603,364.74393 367.914,364.32059 C 370.14263,363.90994 371.72527,363.49928 372.66194,363.08861 C 373.59858,362.67796 374.05324,362.0433 374.02592,361.18463 C 374.06258,360.55799 373.81325,359.92333 373.27793,359.28066 C 372.74259,358.63801 371.70127,358.29135 370.15397,358.24067 C 368.50532,358.27269 367.39467,358.65668 366.82202,359.39266 C 366.24935,360.12866 365.93069,361.02465 365.86603,362.08062 L 361.13009,362.08062 C 361.32209,359.70733 362.29007,357.91002 364.03405,356.68869 C 365.77802,355.46739 367.818,354.85407 370.15397,354.84871 C 372.5006,354.85673 374.50324,355.40073 376.1619,356.48069 C 377.82052,357.5607 378.68718,359.12867 378.76186,361.18463 C 378.76184,362.13476 378.76184,363.34916 378.76186,364.82785 C 378.76184,366.30655 378.76184,367.7248 378.76186,369.0826 C 378.76184,370.44042 378.76184,371.41305 378.76186,372.00049 C 378.75251,372.73915 378.82718,373.46981 378.98586,374.19247 C 379.1445,374.91512 379.44317,375.61378 379.88185,376.28844 L 379.88185,376.28844 z M 368.58599,373.56847 C 370.19863,373.52714 371.50128,373.04981 372.49394,372.13649 C 373.48658,371.22317 373.99724,370.12186 374.02592,368.83253 L 374.02592,365.08858 C 373.69858,365.47659 373.19325,365.81258 372.50994,366.09657 C 371.82661,366.38057 370.81729,366.68457 369.48198,367.00856 C 368.22532,367.34123 367.20267,367.77989 366.41402,368.32454 C 365.62536,368.86921 365.2187,369.63586 365.19404,370.62451 C 365.17937,371.64317 365.4327,372.38982 365.95403,372.86448 C 366.47535,373.33914 367.35267,373.57381 368.58599,373.56847 L 368.58599,373.56847 z M 408.16028,354.84871 C 410.32823,354.91007 412.0322,355.57939 413.27222,356.85669 C 414.51217,358.13402 415.14416,359.65133 415.16819,361.40863 L 415.16819,376.28844 L 410.43225,376.28844 L 410.43225,362.30462 C 410.43556,361.34664 410.14089,360.47865 409.54826,359.70065 C 408.95558,358.92268 408.04492,358.51068 406.8163,358.46467 C 405.52563,358.48735 404.41897,358.94601 403.49634,359.84065 C 402.57367,360.73532 402.09101,361.92997 402.04836,363.4246 L 402.04836,376.28844 L 397.31242,376.28844 L 397.31242,362.30462 C 397.31574,361.34664 397.02108,360.47865 396.42843,359.70065 C 395.83576,358.92268 394.92511,358.51068 393.69647,358.46467 C 392.40581,358.48735 391.29916,358.94601 390.37651,359.84065 C 389.45385,360.73532 388.97119,361.92997 388.92853,363.4246 L 388.92853,376.28844 L 384.19259,376.28844 L 384.19259,355.52071 L 388.70453,355.52071 L 388.83253,358.33667 C 389.52318,357.21137 390.41383,356.35005 391.5045,355.7527 C 392.59514,355.1554 393.77379,354.85407 395.04045,354.84871 C 396.63842,354.87273 397.9944,355.24873 399.1084,355.9767 C 400.22237,356.70471 401.01035,357.6407 401.47237,358.78466 C 402.225,357.5847 403.18366,356.63271 404.34833,355.9287 C 405.51296,355.22473 406.78361,354.86473 408.16028,354.84871 L 408.16028,354.84871 z M 439.38185,376.28844 C 438.89472,376.28844 438.24762,376.28844 437.44054,376.28844 C 436.63342,376.28844 435.90099,376.28844 435.24324,376.28844 C 434.58545,376.28844 434.23701,376.28844 434.19792,376.28844 L 433.52592,373.56847 C 432.76192,374.75979 431.71393,375.62511 430.38196,376.16444 C 429.04997,376.70376 427.60199,376.96909 426.03802,376.96043 C 424.19337,376.94709 422.69073,376.41377 421.53008,375.36045 C 420.36942,374.30713 419.77077,372.81382 419.7341,370.88051 C 419.7701,368.9692 420.48209,367.50389 421.87008,366.48456 C 423.25805,365.46525 425.10603,364.74393 427.414,364.32059 C 429.64263,363.90994 431.22527,363.49928 432.16194,363.08861 C 433.09858,362.67796 433.55324,362.0433 433.52592,361.18463 C 433.56258,360.55799 433.31325,359.92333 432.77793,359.28066 C 432.24259,358.63801 431.20127,358.29135 429.65397,358.24067 C 428.00532,358.27269 426.89467,358.65668 426.32202,359.39266 C 425.74935,360.12866 425.43069,361.02465 425.36603,362.08062 L 420.63009,362.08062 C 420.82209,359.70733 421.79007,357.91002 423.53405,356.68869 C 425.27802,355.46739 427.318,354.85407 429.65397,354.84871 C 432.0006,354.85673 434.00324,355.40073 435.6619,356.48069 C 437.32052,357.5607 438.18718,359.12867 438.26186,361.18463 C 438.26184,362.13476 438.26184,363.34916 438.26186,364.82785 C 438.26184,366.30655 438.26184,367.7248 438.26186,369.0826 C 438.26184,370.44042 438.26184,371.41305 438.26186,372.00049 C 438.25251,372.73915 438.32718,373.46981 438.48586,374.19247 C 438.6445,374.91512 438.94317,375.61378 439.38185,376.28844 L 439.38185,376.28844 z M 428.08599,373.56847 C 429.69863,373.52714 431.00128,373.04981 431.99394,372.13649 C 432.98658,371.22317 433.49724,370.12186 433.52592,368.83253 L 433.52592,365.08858 C 433.19858,365.47659 432.69325,365.81258 432.00994,366.09657 C 431.32661,366.38057 430.31729,366.68457 428.98198,367.00856 C 427.72532,367.34123 426.70267,367.77989 425.91402,368.32454 C 425.12536,368.86921 424.7187,369.63586 424.69404,370.62451 C 424.67937,371.64317 424.9327,372.38982 425.45403,372.86448 C 425.97535,373.33914 426.85267,373.57381 428.08599,373.56847 L 428.08599,373.56847 z"
       id="text2451" />
  </g>
</svg>
