<?xml version="1.0" encoding="UTF-8" standalone="no"?>
<!-- Created with Inkscape (http://www.inkscape.org/) -->

<svg
   xmlns:osb="http://www.openswatchbook.org/uri/2009/osb"
   xmlns:dc="http://purl.org/dc/elements/1.1/"
   xmlns:cc="http://creativecommons.org/ns#"
   xmlns:rdf="http://www.w3.org/1999/02/22-rdf-syntax-ns#"
   xmlns:svg="http://www.w3.org/2000/svg"
   xmlns="http://www.w3.org/2000/svg"
   xmlns:sodipodi="http://sodipodi.sourceforge.net/DTD/sodipodi-0.dtd"
   xmlns:inkscape="http://www.inkscape.org/namespaces/inkscape"
   version="1.1"
   width="1005.4"
   height="1005.4"
   id="svg2"
   xml:space="preserve"
   inkscape:version="0.48.4 r9939"
   sodipodi:docname="AJAX1.svg"><sodipodi:namedview
     pagecolor="#ffffff"
     bordercolor="#666666"
     borderopacity="1"
     objecttolerance="10"
     gridtolerance="10"
     guidetolerance="10"
     inkscape:pageopacity="0"
     inkscape:pageshadow="2"
     inkscape:window-width="1280"
     inkscape:window-height="1004"
     id="namedview28"
     showgrid="false"
     fit-margin-top="0.2"
     fit-margin-left="0.2"
     fit-margin-right="0.2"
     fit-margin-bottom="0.2"
     inkscape:zoom="0.5"
     inkscape:cx="519.30703"
     inkscape:cy="557.44806"
     inkscape:window-x="-8"
     inkscape:window-y="-8"
     inkscape:window-maximized="1"
     inkscape:current-layer="svg2" /><metadata
     id="metadata8"><rdf:RDF><cc:Work
         rdf:about=""><dc:format>image/svg+xml</dc:format><dc:type
           rdf:resource="http://purl.org/dc/dcmitype/StillImage" /></cc:Work></rdf:RDF></metadata><defs
     id="defs6"><linearGradient
       id="linearGradient15703"
       osb:paint="solid"><stop
         style="stop-color:#ffffff;stop-opacity:1;"
         offset="0"
         id="stop15705" /></linearGradient></defs><path
     inkscape:connector-curvature="0"
     style="fill:#ffffff;fill-opacity:1;stroke:#0066b3;stroke-width:5;stroke-miterlimit:4;stroke-opacity:1;stroke-dasharray:none"
     d="m 2.69998,502.7 c 0,-276.1424 223.85772,-500 500.0001,-500 276.14238,0 500.00002,223.8576 500.00002,500 0,276.1423 -223.85764,500.0001 -500.00002,500.0001 C 226.5577,1002.7001 2.69998,778.8423 2.69998,502.7 z"
     id="path3854" /><path
     id="path14622"
     d="m 37.325,502.7 c 0,257.0196 208.35548,465.375 465.375,465.375 257.01958,0 465.37508,-208.3554 465.37508,-465.375 C 968.07508,245.6804 759.71958,37.325 502.7,37.325 245.68048,37.325 37.325,245.6804 37.325,502.7 z"
     style="fill:#0066b3;fill-opacity:1;stroke:none"
     inkscape:connector-curvature="0"
     sodipodi:nodetypes="sssss" /><g
     id="g4378"
     transform="matrix(0,39.478707,39.478707,0,502.7,968.075)" /><g
     id="g3982"
     transform="matrix(0,39.480395,39.480395,0,196.70736,790.76854)"><path
       d="m 0,0 -7.449,0 c 0,0 0.579,-1.28 0.724,-1.541 0.127,-0.225 0.336,-0.69 0.016,-1.018 -0.32,-0.329 -0.697,-0.132 -1.214,0.114 l -5.857,3.35599999 c -0.103,0.06 -0.103,0.15700001 0,0.21600001 l 5.857,3.357 C -7.406,4.73 -7.029,4.926 -6.709,4.598 -6.389,4.27 -6.598,3.805 -6.725,3.579 -6.87,3.318 -7.449,2.038 -7.449,2.038 L 0,2.038 0,0"
       style="fill:#ffffff;fill-opacity:1;fill-rule:nonzero;stroke:none"
       id="path3984"
       inkscape:connector-curvature="0" /></g><path
     inkscape:connector-curvature="0"
     d="m 306.85734,190.58758 294.01082,0 c 0,0 -22.81967,-50.45595 -28.54433,-60.76033 -4.97453,-8.92257 -13.22593,-27.32043 -0.66958,-40.269999 12.6732,-12.91009 27.59679,-5.21142 48.00816,4.50076 L 850.93825,226.63318 c 3.98783,2.28986 3.98783,6.11946 0,8.48828 L 619.66241,367.61767 c -20.41137,9.79114 -35.33496,17.45033 -48.00816,4.54024 -12.55477,-12.94957 -4.30337,-31.34743 0.66958,-40.19104 5.72466,-10.2649 28.54433,-60.79981 28.54433,-60.79981 l -294.01082,0 0,-80.57948"
     style="fill:#ffffff;fill-opacity:1;fill-rule:nonzero;stroke:none"
     id="path3988" /><g
     id="g3990"
     transform="matrix(0,39.480395,39.480395,0,501.89049,720.92773)"><path
       inkscape:connector-curvature="0"
       d="M 0,0 C 0,0.099 0.058,0.189 0.18,0.275 0.469,0.494 0.721,0.719 0.94,0.95 1.011,1.027 1.089,1.064 1.179,1.064 1.424,1.064 1.547,0.96 1.547,0.749 1.547,0.674 1.512,0.591 1.441,0.503 1.204,0.226 0.927,-0.017 0.605,-0.227 0.508,-0.294 0.419,-0.329 0.339,-0.329 0.113,-0.329 0,-0.219 0,0 m 0.32,-2.262 c 0.084,0 0.181,-0.036 0.292,-0.107 0.294,-0.214 0.561,-0.447 0.801,-0.696 0.091,-0.099 0.134,-0.197 0.134,-0.293 0,-0.212 -0.106,-0.32 -0.321,-0.32 -0.093,0 -0.189,0.054 -0.286,0.161 -0.223,0.248 -0.474,0.468 -0.754,0.66 C 0.062,-2.777 0,-2.696 0,-2.611 c 0,0.233 0.106,0.349 0.32,0.349 m -2.122,2.257 -0.214,0 c -0.105,0 -0.158,-0.073 -0.158,-0.215 l 0,-2.095 c 0,-0.144 0.053,-0.214 0.158,-0.214 l 0.214,0 0,2.524 z m 0.563,-2.524 0.217,0 c 0.108,0 0.163,0.07 0.163,0.214 l 0,2.095 c 0,0.142 -0.055,0.215 -0.163,0.215 l -0.217,0 0,-2.524 z m -2.017,1.449 c 0.159,-0.044 0.331,-0.1 0.517,-0.161 l 0,1.073 c 0,0.536 0.223,0.804 0.671,0.804 l 1.1,0 c 0.448,0 0.675,-0.268 0.675,-0.804 l 0,-0.764 1.546,0 c 0.499,0 0.752,-0.26 0.752,-0.78 l 0,-0.47 c 0,-0.268 -0.113,-0.4 -0.336,-0.4 -0.224,0 -0.336,0.132 -0.336,0.4 l 0,0.415 c 0,0.089 -0.044,0.133 -0.133,0.133 l -1.493,0 0,-0.735 c 0,-0.536 -0.227,-0.803 -0.675,-0.803 l -1.1,0 c -0.448,0 -0.671,0.267 -0.671,0.803 l 0,0.456 c -0.186,0.056 -0.358,0.102 -0.517,0.133 l 0,-1.657 c 0,-0.142 0.071,-0.213 0.212,-0.213 l 2.159,0 c 0.874,0 1.715,-0.24 2.521,-0.721 0.175,-0.106 0.261,-0.217 0.261,-0.329 0,-0.231 -0.108,-0.348 -0.322,-0.348 -0.126,0 -0.242,0.039 -0.349,0.114 -0.6,0.388 -1.303,0.582 -2.111,0.582 l -2.212,0 c -0.528,0 -0.792,0.287 -0.792,0.862 l 0,4.334 c 0,0.254 0.106,0.381 0.318,0.381 0.21,0 0.315,-0.127 0.315,-0.381 l 0,-1.924"
       style="fill:#ffffff;fill-opacity:1;fill-rule:nonzero;stroke:none"
       id="path3992" /></g><g
     id="g3994"
     transform="matrix(0,39.480395,39.480395,0,501.89049,720.92773)"><path
       inkscape:connector-curvature="0"
       d="M 0,0 C 0,0.099 0.058,0.189 0.18,0.275 0.469,0.494 0.721,0.719 0.94,0.95 1.011,1.027 1.089,1.064 1.179,1.064 1.424,1.064 1.547,0.96 1.547,0.749 1.547,0.674 1.512,0.591 1.441,0.503 1.204,0.226 0.927,-0.017 0.605,-0.227 0.508,-0.294 0.419,-0.329 0.339,-0.329 0.113,-0.329 0,-0.219 0,0 z"
       style="fill:none;stroke:#ffffff;stroke-width:0.074;stroke-linecap:butt;stroke-linejoin:miter;stroke-miterlimit:4;stroke-opacity:1;stroke-dasharray:none"
       id="path3996" /><g
       id="g3998"
       transform="translate(0.32,-2.262)"><path
         inkscape:connector-curvature="0"
         d="M 0,0 C 0.084,0 0.181,-0.036 0.292,-0.107 0.586,-0.321 0.853,-0.554 1.093,-0.803 1.184,-0.902 1.227,-1 1.227,-1.096 c 0,-0.212 -0.106,-0.32 -0.321,-0.32 -0.093,0 -0.189,0.054 -0.286,0.161 -0.223,0.248 -0.474,0.468 -0.754,0.66 -0.124,0.08 -0.186,0.161 -0.186,0.246 C -0.32,-0.116 -0.214,0 0,0 z"
         style="fill:none;stroke:#ffffff;stroke-width:0.074;stroke-linecap:butt;stroke-linejoin:miter;stroke-miterlimit:4;stroke-opacity:1;stroke-dasharray:none"
         id="path4000" /><g
         id="g4002"
         transform="translate(-2.122,2.257)"><path
           inkscape:connector-curvature="0"
           d="m 0,0 -0.214,0 c -0.105,0 -0.158,-0.073 -0.158,-0.215 l 0,-2.095 c 0,-0.144 0.053,-0.214 0.158,-0.214 L 0,-2.524 0,0 z"
           style="fill:none;stroke:#ffffff;stroke-width:0.074;stroke-linecap:butt;stroke-linejoin:miter;stroke-miterlimit:4;stroke-opacity:1;stroke-dasharray:none"
           id="path4004" /><g
           id="g4006"
           transform="translate(0.563,-2.524)"><path
             inkscape:connector-curvature="0"
             d="M 0,0 0.217,0 C 0.325,0 0.38,0.07 0.38,0.214 l 0,2.095 c 0,0.142 -0.055,0.215 -0.163,0.215 L 0,2.524 0,0 z"
             style="fill:none;stroke:#ffffff;stroke-width:0.074;stroke-linecap:butt;stroke-linejoin:miter;stroke-miterlimit:4;stroke-opacity:1;stroke-dasharray:none"
             id="path4008" /><g
             id="g4010"
             transform="translate(-2.017,1.449)"><path
               inkscape:connector-curvature="0"
               d="m 0,0 c 0.159,-0.044 0.331,-0.1 0.517,-0.161 l 0,1.073 c 0,0.536 0.223,0.804 0.671,0.804 l 1.1,0 c 0.448,0 0.675,-0.268 0.675,-0.804 l 0,-0.764 1.546,0 c 0.499,0 0.752,-0.26 0.752,-0.78 l 0,-0.47 c 0,-0.268 -0.113,-0.4 -0.336,-0.4 -0.224,0 -0.336,0.132 -0.336,0.4 l 0,0.415 c 0,0.089 -0.044,0.133 -0.133,0.133 l -1.493,0 0,-0.735 c 0,-0.536 -0.227,-0.803 -0.675,-0.803 l -1.1,0 c -0.448,0 -0.671,0.267 -0.671,0.803 l 0,0.456 C 0.331,-0.777 0.159,-0.731 0,-0.7 L 0,-2.357 C 0,-2.499 0.071,-2.57 0.212,-2.57 l 2.159,0 c 0.874,0 1.715,-0.24 2.521,-0.721 0.175,-0.106 0.261,-0.217 0.261,-0.329 0,-0.231 -0.108,-0.348 -0.322,-0.348 -0.126,0 -0.242,0.039 -0.349,0.114 -0.6,0.388 -1.303,0.582 -2.111,0.582 l -2.212,0 c -0.528,0 -0.792,0.287 -0.792,0.862 l 0,4.334 c 0,0.254 0.106,0.381 0.318,0.381 C -0.105,2.305 0,2.178 0,1.924 L 0,0 z"
               style="fill:none;stroke:#ffffff;stroke-width:0.074;stroke-linecap:butt;stroke-linejoin:miter;stroke-miterlimit:4;stroke-opacity:1;stroke-dasharray:none"
               id="path4012" /></g></g></g></g></g><g
     id="g4014"
     transform="matrix(0,39.480395,39.480395,0,728.74516,672.12996)"><path
       inkscape:connector-curvature="0"
       d="m 0,0 c 0.236,0.186 0.492,0.339 0.768,0.46 0.142,0.049 0.273,0.074 0.394,0.074 0.25,0 0.374,-0.121 0.374,-0.361 0,-0.156 -0.087,-0.265 -0.261,-0.328 C 0.995,-0.275 0.723,-0.419 0.46,-0.588 0.372,-0.646 0.294,-0.675 0.227,-0.675 c -0.251,0 -0.375,0.124 -0.375,0.373 0,0.121 0.049,0.222 0.148,0.302 m -1.38,1.373 -1.14,0 c -0.276,0 -0.414,0.118 -0.414,0.352 0,0.234 0.138,0.351 0.414,0.351 l 1.14,0 0,0.756 c 0,0.268 0.111,0.402 0.335,0.402 0.223,0 0.336,-0.134 0.336,-0.402 l 0,-0.756 3.127,0 c 0.52,0 0.778,-0.276 0.778,-0.829 l 0,-0.534 c 0,-0.266 -0.111,-0.4 -0.336,-0.4 -0.223,0 -0.335,0.134 -0.335,0.4 l 0,0.482 c 0,0.109 -0.055,0.17 -0.16,0.178 l -3.074,0 0,-2.154 c 0,-0.267 -0.113,-0.401 -0.336,-0.401 -0.224,0 -0.335,0.134 -0.335,0.401 l 0,2.154 z M 0.206,-2.51 c 0.159,-0.134 0.235,-0.264 0.235,-0.39 0,-0.213 -0.11,-0.321 -0.329,-0.321 -0.101,0 -0.203,0.047 -0.3,0.141 -0.679,0.576 -1.504,1.051 -2.472,1.425 -0.183,0.059 -0.274,0.162 -0.274,0.313 0,0.223 0.116,0.335 0.347,0.335 0.072,0 0.161,-0.019 0.268,-0.055 0.42,-0.154 0.859,-0.353 1.314,-0.593 l 3.853,0 c 0.277,0 0.415,-0.117 0.415,-0.35 0,-0.235 -0.138,-0.351 -0.415,-0.351 L 0,-2.356 0.206,-2.51"
       style="fill:#ffffff;fill-opacity:1;fill-rule:nonzero;stroke:none"
       id="path4016" /></g><g
     id="g4018"
     transform="matrix(0,39.480395,39.480395,0,728.74516,672.12996)"><path
       inkscape:connector-curvature="0"
       d="m 0,0 c 0.236,0.186 0.492,0.339 0.768,0.46 0.142,0.049 0.273,0.074 0.394,0.074 0.25,0 0.374,-0.121 0.374,-0.361 0,-0.156 -0.087,-0.265 -0.261,-0.328 C 0.995,-0.275 0.723,-0.419 0.46,-0.588 0.372,-0.646 0.294,-0.675 0.227,-0.675 c -0.251,0 -0.375,0.124 -0.375,0.373 0,0.121 0.049,0.222 0.148,0.302 z"
       style="fill:none;stroke:#ffffff;stroke-width:0.074;stroke-linecap:butt;stroke-linejoin:miter;stroke-miterlimit:4;stroke-opacity:1;stroke-dasharray:none"
       id="path4020" /><g
       id="g4022"
       transform="translate(-1.38,1.373)"><path
         inkscape:connector-curvature="0"
         d="m 0,0 -1.14,0 c -0.276,0 -0.414,0.118 -0.414,0.352 0,0.234 0.138,0.351 0.414,0.351 l 1.14,0 0,0.756 c 0,0.268 0.111,0.402 0.335,0.402 0.223,0 0.336,-0.134 0.336,-0.402 l 0,-0.756 3.127,0 c 0.52,0 0.778,-0.276 0.778,-0.829 l 0,-0.534 c 0,-0.266 -0.111,-0.4 -0.336,-0.4 -0.223,0 -0.335,0.134 -0.335,0.4 l 0,0.482 c 0,0.109 -0.055,0.17 -0.16,0.178 l -3.074,0 0,-2.154 C 0.671,-2.421 0.558,-2.555 0.335,-2.555 0.111,-2.555 0,-2.421 0,-2.154 L 0,0 z"
         style="fill:none;stroke:#ffffff;stroke-width:0.074;stroke-linecap:butt;stroke-linejoin:miter;stroke-miterlimit:4;stroke-opacity:1;stroke-dasharray:none"
         id="path4024" /><g
         id="g4026"
         transform="translate(1.586,-3.883)"><path
           inkscape:connector-curvature="0"
           d="m 0,0 c 0.159,-0.134 0.235,-0.264 0.235,-0.39 0,-0.213 -0.11,-0.321 -0.329,-0.321 -0.101,0 -0.203,0.047 -0.3,0.141 -0.679,0.576 -1.504,1.051 -2.472,1.425 -0.183,0.059 -0.274,0.162 -0.274,0.313 0,0.223 0.116,0.335 0.347,0.335 0.072,0 0.161,-0.019 0.268,-0.055 0.42,-0.154 0.859,-0.353 1.314,-0.593 l 3.853,0 c 0.277,0 0.415,-0.117 0.415,-0.35 0,-0.235 -0.138,-0.351 -0.415,-0.351 l -2.848,0 L 0,0 z"
           style="fill:none;stroke:#ffffff;stroke-width:0.074;stroke-linecap:butt;stroke-linejoin:miter;stroke-miterlimit:4;stroke-opacity:1;stroke-dasharray:none"
           id="path4028" /></g></g></g></svg>