<?xml version="1.0" encoding="UTF-8" standalone="no"?>
<!-- Created with Inkscape (http://www.inkscape.org/) -->

<svg
   xmlns:osb="http://www.openswatchbook.org/uri/2009/osb"
   xmlns:dc="http://purl.org/dc/elements/1.1/"
   xmlns:cc="http://creativecommons.org/ns#"
   xmlns:rdf="http://www.w3.org/1999/02/22-rdf-syntax-ns#"
   xmlns:svg="http://www.w3.org/2000/svg"
   xmlns="http://www.w3.org/2000/svg"
   xmlns:xlink="http://www.w3.org/1999/xlink"
   xmlns:sodipodi="http://sodipodi.sourceforge.net/DTD/sodipodi-0.dtd"
   xmlns:inkscape="http://www.inkscape.org/namespaces/inkscape"
   version="1.1"
   width="1800.4003"
   height="300.40027"
   id="svg2"
   xml:space="preserve"
   inkscape:version="0.48.4 r9939"
   sodipodi:docname="Ajax.svg"><sodipodi:namedview
     pagecolor="#ffffff"
     bordercolor="#666666"
     borderopacity="1"
     objecttolerance="10"
     gridtolerance="10"
     guidetolerance="10"
     inkscape:pageopacity="0"
     inkscape:pageshadow="2"
     inkscape:window-width="1280"
     inkscape:window-height="1001"
     id="namedview28"
     showgrid="false"
     fit-margin-top="0.2"
     fit-margin-left="0.2"
     fit-margin-right="0.2"
     fit-margin-bottom="0.2"
     inkscape:zoom="0.40989584"
     inkscape:cx="1162.8928"
     inkscape:cy="99.651895"
     inkscape:window-x="-8"
     inkscape:window-y="-8"
     inkscape:window-maximized="1"
     inkscape:current-layer="svg2"
     showguides="true"
     inkscape:guide-bbox="true" /><metadata
     id="metadata8"><rdf:RDF><cc:Work
         rdf:about=""><dc:format>image/svg+xml</dc:format><dc:type
           rdf:resource="http://purl.org/dc/dcmitype/StillImage" /><dc:title /></cc:Work></rdf:RDF></metadata><defs
     id="defs6"><linearGradient
       id="linearGradient15703"
       osb:paint="solid"><stop
         style="stop-color:#ffffff;stop-opacity:1;"
         offset="0"
         id="stop15705" /></linearGradient><linearGradient
       inkscape:collect="always"
       xlink:href="#linearGradient15703"
       id="linearGradient15707"
       x1="-37.125"
       y1="465.375"
       x2="967.87512"
       y2="465.375"
       gradientUnits="userSpaceOnUse"
       gradientTransform="translate(961.6578,56.04101)" /></defs><g
     id="g2991"
     transform="matrix(34.167339,0,0,34.167339,15.76955,-266.78951)" /><path
     style="font-size:medium;font-style:normal;font-variant:normal;font-weight:normal;font-stretch:normal;text-indent:0;text-align:start;text-decoration:none;line-height:normal;letter-spacing:normal;word-spacing:normal;text-transform:none;direction:ltr;block-progression:tb;writing-mode:lr-tb;text-anchor:start;baseline-shift:baseline;color:#000000;fill:#000000;fill-opacity:1;fill-rule:nonzero;stroke:none;stroke-width:30;marker:none;visibility:visible;display:inline;overflow:visible;enable-background:accumulate;font-family:Sans;-inkscape-font-specification:Sans"
     d="m 1743.544,300.20026 c 31.1185,0 56.6563,-25.5377 56.6563,-56.6563 l 0,-186.68776 C 1800.2003,25.7364 1774.6619,0.2 1743.544,0.2 L 56.8563,0.2 C 25.7386,0.2 0.2,25.7364 0.2,56.8562 l 0,186.68776 c 0,31.1186 25.5377,56.6563 56.6563,56.6563 z"
     id="path14428"
     inkscape:connector-curvature="0"
     sodipodi:nodetypes="sssssssss" /><path
     inkscape:connector-curvature="0"
     d="m 56.8668,285.20026 c -23.012,0 -41.6668,-18.6548 -41.6668,-41.6668 l 0,-186.66706 c 0,-23.014 18.6548,-41.6668 41.6668,-41.6668 l 1686.6669,0 c 23.0119,0 41.6666,18.6528 41.6666,41.6668 l 0,186.66706 c 0,23.012 -18.6547,41.6668 -41.6666,41.6668 z"
     style="fill:#ffffff;fill-opacity:1;fill-rule:nonzero;stroke:none"
     id="path14430"
     sodipodi:nodetypes="sssssssss" /><path
     inkscape:connector-curvature="0"
     d="m 217.72652,247.20396 c -4e-5,3.6621 -0.95344,6.7431 -2.86018,9.24301 -1.90682,2.49988 -4.21468,3.74983 -6.9236,3.74984 l -0.18598,0 c -2.70898,-1e-5 -5.04784,-1.33261 -7.01659,-3.9978 -1.96881,-2.66522 -2.95319,-5.8314 -2.95317,-9.49859 l 0,-187.248226 c -2e-5,-3.83486 1.04636,-7.16891 3.13915,-10.00213 2.09274,-2.83286 4.55371,-4.24939 7.38292,-4.24957 l 111.91604,0 c 2.82903,1.8e-4 5.29,1.41671 7.38292,4.24957 2.09261,2.83322 3.13899,6.16727 3.13915,10.00213 l 0,187.248226 c -1.6e-4,3.66719 -0.98455,6.83337 -2.95317,9.49859 -1.96893,2.66519 -4.30779,3.99779 -7.01659,3.9978 l -0.18598,0 c -2.70909,-1e-5 -5.01696,-1.24996 -6.9236,-3.74984 -1.90693,-2.49991 -2.86032,-5.58091 -2.86018,-9.24301 -1.4e-4,-1.33769 -0.43222,-2.00654 -1.29623,-2.00653 l -90.48867,0 c -0.86421,-1e-5 -1.29628,0.66884 -1.29624,2.00653 z m 0,-176.750176 0,58.746326 c -4e-5,1.50057 0.49403,2.25078 1.48222,2.25068 l 90.1167,0 c 0.98801,10e-5 1.48208,-0.75011 1.48222,-2.25068 l 0,-58.746326 c -1.4e-4,-1.50028 -0.49421,-2.2505 -1.48222,-2.25068 l -90.1167,0 c -0.98819,1.8e-4 -1.48226,0.7504 -1.48222,2.25068 z m 0,85.746756 0,64.49891 c -4e-5,1.33261 0.49403,1.99891 1.48222,1.99889 l 90.1167,0 c 0.98801,2e-5 1.48208,-0.66628 1.48222,-1.99889 l 0,-64.49891 c -1.4e-4,-1.50036 -0.49421,-2.25059 -1.48222,-2.25067 l -90.1167,0 c -0.98819,8e-5 -1.48226,0.75031 -1.48222,2.25067 z"
     id="path2817"
     style="font-size:214.86882019px;font-style:normal;font-variant:normal;font-weight:normal;font-stretch:normal;text-align:center;text-anchor:middle;fill:#000000;fill-opacity:1;stroke:none;font-family:'Rounded M+ 1m medium';-inkscape-font-specification:'Rounded M+ 1m medium,'" /><path
     inkscape:connector-curvature="0"
     d="m 388.36777,242.19908 c -4e-5,3.66719 -0.89237,6.75073 -2.67701,9.25064 -1.78471,2.49989 -4.03152,3.74982 -6.74044,3.74985 -2.58498,-3e-5 -4.80079,-1.24996 -6.64744,-3.74985 -1.84669,-2.49991 -2.77002,-5.49953 -2.77001,-8.99887 l 0,-180.503836 c -10e-6,-3.82978 1.04637,-7.16128 3.13915,-9.99452 2.09275,-2.83286 4.5556,-4.24937 7.38856,-4.24957 l 29.72893,0 c 2.83288,2e-4 5.29572,1.41671 7.38855,4.24957 2.09271,2.83324 3.13909,6.16474 3.13915,9.99452 l 0,105.003346 c -6e-5,0.33576 0.092,0.58627 0.27616,0.7515 0.18404,0.16536 0.40008,0.0827 0.64811,-0.24796 7.26262,-11.83565 13.54092,-24.83613 18.8349,-39.00147 0.49211,-1.33248 0.18403,-1.99879 -0.92427,-1.9989 l -4.98206,0 c -1.97261,1.1e-4 -3.69717,-0.95865 -5.17369,-2.87628 -1.47664,-1.9174 -2.21494,-4.29268 -2.21486,-7.12585 -8e-5,-2.83292 0.73822,-5.20821 2.21486,-7.12586 1.47652,-1.91739 3.20108,-2.87615 5.17369,-2.87628 l 19.57319,0 c 1.10828,1.3e-4 1.66247,-0.75009 1.66257,-2.25067 l 0,-8.750906 c -10e-5,-1.50031 -0.55429,-2.25053 -1.66257,-2.25068 l -18.8349,0 c -1.72464,1.5e-4 -3.20216,-0.79077 -4.43257,-2.37273 -1.23056,-1.58169 -1.8458,-3.5399 -1.84573,-5.87465 -7e-5,-2.33443 0.61517,-4.33461 1.84573,-6.00051 1.23041,-1.66559 2.70793,-2.49846 4.43257,-2.49863 l 18.8349,0 c 1.10828,1.7e-4 1.66247,-0.75006 1.66257,-2.25067 l 0,-8.24737 c -10e-5,-1.33243 -0.55429,-1.99873 -1.66257,-1.99891 l -19.20686,0 c -2.09285,1.8e-4 -3.90852,-1.08319 -5.44702,-3.25012 -1.53865,-2.16657 -2.30794,-4.66773 -2.30786,-7.50351 -8e-5,-2.8354 0.76921,-5.2946 2.30786,-7.37763 1.5385,-2.08262 3.35417,-3.12403 5.44702,-3.12423 l 29.3626,0 c 2.83283,2e-4 5.29568,1.41673 7.38855,4.24957 2.09265,2.83324 3.13904,6.16729 3.13916,10.00214 l 0,55.252066 c -1.2e-4,3.83008 -1.04651,7.16286 -3.13916,9.99832 -2.09287,2.83571 -4.55572,4.2535 -7.38855,4.25339 l -1.47658,0 c -1.10848,1.1e-4 -1.84677,0.58249 -2.21488,1.74713 -1.47669,5.3356 -2.46202,8.66964 -2.95598,10.00214 -0.49418,1.3327 -0.24715,1.999 0.74111,1.9989 l 24.74687,0 c 1.10449,1e-4 1.84278,-0.6662 2.21487,-1.9989 0.36808,-1.16974 0.79828,-2.92068 1.2906,-5.25283 0.49207,-2.33195 0.92415,-4.08289 1.29624,-5.25285 0.36807,-0.82894 0.18209,-1.24348 -0.55794,-1.24359 -1.72469,1.1e-4 -3.20222,-0.83403 -4.43257,-2.50244 -1.23062,-1.66818 -1.84586,-3.66962 -1.84574,-6.00433 l 0,-1.49536 c -1.2e-4,-2.83292 0.73911,-5.20821 2.2177,-7.12586 1.47833,-1.91739 3.20196,-2.87615 5.17086,-2.87628 l 21.04978,0 c 1.10822,1.3e-4 1.6624,-0.75009 1.66256,-2.25067 l 0,-8.750906 c -1.6e-4,-1.50031 -0.55434,-2.25053 -1.66256,-2.25068 l -20.31149,0 c -1.72468,1.5e-4 -3.20221,-0.79077 -4.43256,-2.37273 -1.23062,-1.58169 -1.84586,-3.5399 -1.84574,-5.87465 -1.2e-4,-2.33443 0.61512,-4.33461 1.84574,-6.00051 1.23035,-1.66559 2.70788,-2.49846 4.43256,-2.49863 l 20.31149,0 c 1.10822,1.7e-4 1.6624,-0.75006 1.66256,-2.25067 l 0,-8.24737 c -1.6e-4,-1.33243 -0.55434,-1.99873 -1.66256,-1.99891 l -20.49747,0 c -2.09289,1.8e-4 -3.93956,-1.08319 -5.54001,-3.25012 -1.60069,-2.16657 -2.40098,-4.66773 -2.40086,-7.50351 -1.2e-4,-2.8354 0.80017,-5.2946 2.40086,-7.37763 1.60045,-2.08262 3.44712,-3.12403 5.54001,-3.12423 l 31.02517,0 c 2.83277,2e-4 5.29562,1.41673 7.38856,4.24957 2.09259,2.83324 3.13897,6.16729 3.13915,10.00214 l 0,55.252066 c -1.8e-4,3.83008 -1.04656,7.16286 -3.13915,9.99832 -2.09294,2.83571 -4.55579,4.2535 -7.38856,4.25339 l -10.70805,0 c -0.9883,1.1e-4 -1.72847,0.7478 -2.22051,2.24304 -0.98454,4.33361 -1.72284,7.50235 -2.21488,9.50623 -0.24436,1.3327 0.0637,1.999 0.92427,1.9989 l 17.35832,0 c 1.96861,1e-4 3.69223,0.99954 5.17086,2.99836 1.47829,1.99898 2.21752,4.33231 2.2177,6.99997 -1.8e-4,2.66782 -0.73941,5.00114 -2.2177,6.99996 -1.47863,1.99898 -3.20225,2.99844 -5.17086,2.99836 l -20.68344,0 c -0.98454,8e-5 -1.47674,0.66637 -1.47659,1.99889 l 0,8.49915 c -1.5e-4,1.33776 0.49205,2.0066 1.47659,2.00653 l 19.02087,0 c 1.7244,7e-5 3.20192,0.83295 4.43257,2.49863 1.23032,1.66582 1.84556,3.66598 1.84573,6.00052 -1.7e-4,2.33464 -0.61541,4.33482 -1.84573,6.00052 -1.23065,1.6658 -2.70817,2.49868 -4.43257,2.49862 l -19.02087,0 c -0.98454,6e-5 -1.47674,0.66635 -1.47659,1.9989 l 0,8.24737 c -1.5e-4,1.5005 0.49205,2.25071 1.47659,2.25068 l 19.02087,0 c 1.7244,3e-5 3.20192,0.79223 4.43257,2.37655 1.23032,1.58441 1.84556,3.54262 1.84573,5.87465 -1.7e-4,2.33207 -0.61541,4.33224 -1.84573,6.00051 -1.23065,1.66832 -2.70817,2.50246 -4.43257,2.50244 l -19.02087,0 c -0.98454,2e-5 -1.47674,0.66633 -1.47659,1.99891 l 0,8.24737 c -1.5e-4,1.50046 0.49205,2.25067 1.47659,2.25067 l 22.89832,0 c 2.09259,0 3.93926,1.04142 5.54,3.12423 1.6004,2.08283 2.40069,4.54076 2.40086,7.37382 -1.7e-4,2.83304 -0.80046,5.33294 -2.40086,7.49969 -1.60074,2.16674 -3.44741,3.25011 -5.54,3.25012 l -71.4678,0 c -0.61627,-1e-5 -0.92436,0.41706 -0.92427,1.25122 -9e-5,2.33459 -0.64633,4.37672 -1.93872,6.12641 -1.29257,1.74965 -2.80109,2.62449 -4.52556,2.62451 l -3.13915,0 c -2.70528,-2e-5 -5.0122,-1.29193 -6.92078,-3.87574 -1.90874,-2.58383 -2.86307,-5.70934 -2.863,-9.37652 l 0,-60.74524 c -7e-5,-0.33565 -0.0931,-0.50349 -0.27896,-0.50354 -0.18606,5e-5 -0.33917,0.084 -0.45933,0.25177 -0.24805,0.4985 -0.64913,1.33138 -1.20324,2.49863 -0.55427,1.16734 -0.95347,2.08414 -1.19761,2.7504 -0.98446,2.16679 -2.40093,3.37477 -4.24941,3.62395 -1.84861,0.24927 -3.44919,-0.45772 -4.80172,-2.12096 -0.49225,-0.33565 -0.73835,-0.25173 -0.73829,0.25177 l 0,30.49468 c -6e-5,3.83505 -1.04644,7.1691 -3.13915,10.00214 -2.09283,2.83306 -4.55567,4.24957 -7.38855,4.24957 l -19.94516,0 c -0.98442,0 -1.47662,0.6663 -1.47658,1.99891 z m 92.88953,-13.00049 0,-8.24737 c -1.3e-4,-1.33258 -0.55432,-1.99889 -1.66257,-1.99891 l -25.47953,0 c -0.98824,2e-5 -1.48231,0.66633 -1.48222,1.99891 l 0,8.24737 c -9e-5,1.50046 0.49398,2.25067 1.48222,2.25067 l 25.47953,0 c 1.10825,0 1.66244,-0.75021 1.66257,-2.25067 z m 0,-29.25111 0,-8.24737 c -1.3e-4,-1.33255 -0.55432,-1.99884 -1.66257,-1.9989 l -25.47953,0 c -0.98824,6e-5 -1.48231,0.66635 -1.48222,1.9989 l 0,8.24737 c -9e-5,1.5005 0.49398,2.25071 1.48222,2.25068 l 25.47953,0 c 1.10825,3e-5 1.66244,-0.75018 1.66257,-2.25068 z m -27.1421,-27.24456 25.47953,0 c 1.10825,7e-5 1.66244,-0.66877 1.66257,-2.00653 l 0,-8.49915 c -1.3e-4,-1.33252 -0.55432,-1.99881 -1.66257,-1.99889 l -25.47953,0 c -0.98824,8e-5 -1.48231,0.66637 -1.48222,1.99889 l 0,8.49915 c -9e-5,1.33776 0.49398,2.0066 1.48222,2.00653 z m -65.74743,-101.005546 0,56.503286 c -4e-5,1.33271 0.55415,1.99901 1.66257,1.99891 l 11.26599,0 c 0.98435,1e-4 1.47654,-0.6662 1.47659,-1.99891 l 0,-56.503286 c -5e-5,-1.33244 -0.49224,-1.99873 -1.47659,-1.9989 l -11.26599,0 c -1.10842,1.7e-4 -1.66261,0.66646 -1.66257,1.9989 z m 0,82.000726 0,63.25531 c -4e-5,1.33262 0.55415,1.99892 1.66257,1.9989 l 11.26599,0 c 0.98435,2e-5 1.47654,-0.66628 1.47659,-1.9989 l 0,-63.25531 c -5e-5,-1.50036 -0.49224,-2.25058 -1.47659,-2.25067 l -11.26599,0 c -1.10842,9e-5 -1.66261,0.75031 -1.66257,2.25067 z"
     id="path2819"
     style="font-size:214.86882019px;font-style:normal;font-variant:normal;font-weight:normal;font-stretch:normal;text-align:center;text-anchor:middle;fill:#000000;fill-opacity:1;stroke:none;font-family:'Rounded M+ 1m medium';-inkscape-font-specification:'Rounded M+ 1m medium,'" /><path
     inkscape:connector-curvature="0"
     d="m 647.4688,145.70249 0,8.99506 c -1.1e-4,3.83513 -1.04743,7.16916 -3.14197,10.00214 -2.09475,2.83312 -4.55665,4.24964 -7.38574,4.24957 l -6.65026,0 c -2.82927,7e-5 -5.29118,-1.41645 -7.38574,-4.24957 -2.09472,-2.83298 -3.14205,-6.16701 -3.14197,-10.00214 l 0,-8.99506 c -8e-5,-3.83494 1.04725,-7.16898 3.14197,-10.00213 2.09456,-2.83294 4.55647,-4.24947 7.38574,-4.24957 l 6.65026,0 c 2.82909,10e-5 5.29099,1.41663 7.38574,4.24957 2.09454,2.83315 3.14186,6.16719 3.14197,10.00213 z"
     id="path2821"
     style="font-size:214.86882019px;font-style:normal;font-variant:normal;font-weight:normal;font-stretch:normal;text-align:center;text-anchor:middle;fill:#000000;fill-opacity:1;stroke:none;font-family:'Rounded M+ 1m medium';-inkscape-font-specification:'Rounded M+ 1m medium,'" /><path
     inkscape:connector-curvature="0"
     d="m 747.3749,154.69755 c -1.6006,3.49944 -3.38527,7.16663 -5.35404,11.00158 -1.35636,2.50252 -3.11192,3.50325 -5.26666,3.00217 -2.15478,-0.50092 -3.66236,-2.16795 -4.52275,-5.00106 l -0.55231,-2.25068 c -2.34075,-8.49905 -1.54046,-16.74896 2.40086,-24.74975 5.29389,-10.83363 9.97162,-22.41758 14.03318,-34.7519 6.40226,-22.496366 10.71178,-40.163486 12.92857,-53.001386 0.49216,-3.33132 1.84663,-5.99651 4.06342,-7.99561 2.21671,-1.9987 4.55558,-2.665 7.01659,-1.9989 2.58491,0.6665 4.58563,2.45813 6.00214,5.37491 1.41642,2.91716 1.87856,6.12532 1.38641,9.62448 -2.83298,18.33105 -6.65031,35.66502 -11.45197,52.001936 -0.36825,1.1649 -0.55235,2.49749 -0.55231,3.99782 l 0,139.74761 c -4e-5,3.66718 -0.95438,6.75072 -2.863,9.25064 -1.90869,2.49988 -4.2175,3.74983 -6.92641,3.74985 -2.70898,-2e-5 -4.98679,-1.24997 -6.83343,-3.74985 -1.8467,-2.49992 -2.77003,-5.58346 -2.77001,-9.25064 l 0,-94.49768 c -0.12401,-0.33561 -0.3701,-0.50346 -0.73828,-0.50354 z m 101.10654,104.25568 c -1.90502,2.49733 -4.21195,3.74601 -6.92078,3.74603 -2.70906,-2e-5 -4.98687,-1.24997 -6.83343,-3.74985 -1.84678,-2.49992 -2.77011,-5.58346 -2.77001,-9.25064 l 0,-114.74609 c -10e-5,-0.16774 -0.0921,-0.25167 -0.27615,-0.25177 -0.18421,1e-4 -0.33825,0.084 -0.46214,0.25177 -9.72751,28.49841 -23.45635,56.99671 -41.18654,85.495 -1.72087,2.83306 -3.96674,4.24958 -6.73763,4.24957 -2.77099,1e-5 -5.07886,-1.33258 -6.92359,-3.9978 -1.97258,-2.83303 -2.89686,-6.20777 -2.77282,-10.12422 0.12394,-3.91638 1.17032,-7.29112 3.13914,-10.12421 20.55939,-30.33439 35.82681,-60.75021 45.80229,-91.24755 0.49209,-1.33755 0.18401,-2.0064 -0.92428,-2.00653 l -35.82688,0 c -2.3408,1.3e-4 -4.34151,-1.12393 -6.00215,-3.3722 -1.66074,-2.24798 -2.49108,-5.040336 -2.49103,-8.377056 -5e-5,-3.16351 0.79929,-5.87068 2.39804,-8.1215 1.59864,-2.25052 3.63035,-3.37585 6.09514,-3.376 l 44.50604,0 c 1.10827,1.5e-4 1.66246,-0.66614 1.66256,-1.99891 l 0,-30.99823 c -10e-5,-3.667 0.92323,-6.7925 2.77001,-9.37652 1.84656,-2.58362 4.12437,-3.87553 6.83343,-3.87574 2.70883,2.1e-4 5.01669,1.29212 6.9236,3.87574 1.90666,2.58402 2.86005,5.70952 2.86017,9.37652 l 0,30.99823 c -1.2e-4,1.33277 0.49395,1.99906 1.48223,1.99891 l 43.20976,0 c 2.46463,1.5e-4 4.52729,1.12548 6.18814,3.376 1.66051,2.25082 2.49084,4.95926 2.49102,8.1253 -1.8e-4,3.16635 -0.86146,5.915466 -2.58402,8.247376 -1.72281,2.3322 -3.75453,3.49821 -6.09514,3.49808 l -33.42599,0 c -1.10851,1.3e-4 -1.4166,0.66898 -0.92428,2.00653 8.99087,28.99688 22.34959,57.57911 40.07627,85.74677 2.09265,3.16878 3.23102,6.87794 3.4153,11.12747 0.18392,4.24959 -0.52239,8.12405 -2.11904,11.62338 l -0.55797,0.74768 c -1.35273,3.00091 -3.32153,4.62598 -5.90632,4.87519 -2.58513,0.24924 -4.67786,-0.95875 -6.27829,-3.62397 -16.25384,-27.83198 -29.0584,-56.2489 -38.41372,-85.25085 -0.2481,-0.16774 -0.43408,-0.16774 -0.55795,0 l 0,115.24963 c -1.2e-4,3.66718 -0.95445,6.752 -2.86299,9.25446 z"
     id="path2823"
     style="font-size:214.86882019px;font-style:normal;font-variant:normal;font-weight:normal;font-stretch:normal;text-align:center;text-anchor:middle;fill:#000000;fill-opacity:1;stroke:none;font-family:'Rounded M+ 1m medium';-inkscape-font-specification:'Rounded M+ 1m medium,'" /><path
     inkscape:connector-curvature="0"
     d="m 956.42427,247.20396 c -8e-5,3.6621 -0.9535,6.7431 -2.86016,9.24301 -1.90683,2.49988 -4.21469,3.74983 -6.92367,3.74984 l -0.18599,0 c -2.70898,-1e-5 -5.04779,-1.33261 -7.01659,-3.9978 -1.9688,-2.66522 -2.95316,-5.8314 -2.95316,-9.49859 l 0,-187.248226 c 0,-3.83486 1.04642,-7.16891 3.13915,-10.00213 2.09274,-2.83286 4.55376,-4.24939 7.38298,-4.24957 l 111.91597,0 c 2.8291,1.8e-4 5.2901,1.41671 7.383,4.24957 2.0926,2.83322 3.139,6.16727 3.1392,10.00213 l 0,187.248226 c -2e-4,3.66719 -0.9846,6.83337 -2.9532,9.49859 -1.969,2.66519 -4.3079,3.99779 -7.0166,3.9978 l -0.186,0 c -2.7091,-1e-5 -5.017,-1.24996 -6.9236,-3.74984 -1.9069,-2.49991 -2.8603,-5.58091 -2.8602,-9.24301 -10e-5,-1.33769 -0.4322,-2.00654 -1.2962,-2.00653 l -90.48875,0 c -0.86421,-1e-5 -1.29626,0.66884 -1.29618,2.00653 z m 0,-176.750176 0,58.746326 c -8e-5,1.50057 0.49403,2.25078 1.48217,2.25068 l 90.11676,0 c 0.988,10e-5 1.4821,-0.75011 1.4822,-2.25068 l 0,-58.746326 c -10e-5,-1.50028 -0.4942,-2.2505 -1.4822,-2.25068 l -90.11676,0 c -0.98814,1.8e-4 -1.48225,0.7504 -1.48217,2.25068 z m 0,85.746756 0,64.49891 c -8e-5,1.33261 0.49403,1.99891 1.48217,1.99889 l 90.11676,0 c 0.988,2e-5 1.4821,-0.66628 1.4822,-1.99889 l 0,-64.49891 c -10e-5,-1.50036 -0.4942,-2.25059 -1.4822,-2.25067 l -90.11676,0 c -0.98814,8e-5 -1.48225,0.75031 -1.48217,2.25067 z"
     id="path2825"
     style="font-size:214.86882019px;font-style:normal;font-variant:normal;font-weight:normal;font-stretch:normal;text-align:center;text-anchor:middle;fill:#000000;fill-opacity:1;stroke:none;font-family:'Rounded M+ 1m medium';-inkscape-font-specification:'Rounded M+ 1m medium,'" /><path
     inkscape:connector-curvature="0"
     d="m 1124.8507,178.07401 c -2.5851,0.58498 -4.9239,-0.0393 -7.0166,-1.87302 -2.0928,-1.83352 -3.3552,-4.41734 -3.7873,-7.75146 -0.4321,-3.33396 0.09,-6.33358 1.5668,-8.99887 11.6961,-22.99997 21.5456,-46.24925 29.5486,-69.747916 0.4921,-1.33245 0.1859,-1.99875 -0.9187,-1.9989 l -24.5665,0 c -2.0928,1.5e-4 -3.9085,-1.04253 -5.447,-3.12805 -1.5387,-2.08521 -2.3079,-4.54442 -2.3079,-7.37763 0,-2.83288 0.7692,-5.33278 2.3079,-7.49969 1.5385,-2.16658 3.3542,-3.24995 5.447,-3.25012 l 31.0252,0 c 1.1083,1.7e-4 1.8484,-0.66613 2.2205,-1.99891 2.4608,-8.99741 3.8154,-13.9972 4.0634,-14.99938 0.9843,-3.49916 2.584,-6.12367 4.7989,-7.87354 2.2148,-1.74947 4.6147,-2.29117 7.1997,-1.62506 2.3407,0.6665 4.1263,2.54078 5.3569,5.62286 1.2304,3.08247 1.4155,6.20797 0.5551,9.37652 -0.248,0.83434 -0.6482,2.33479 -1.2004,4.50135 -0.5524,2.16693 -1.0145,3.83268 -1.3864,4.99725 -0.2443,1.33278 0.1258,1.99908 1.1103,1.99891 l 69.2528,0 c 2.0927,1.7e-4 3.9083,1.08354 5.447,3.25012 1.5385,2.16691 2.3077,4.66681 2.3079,7.49969 -2e-4,2.83321 -0.7694,5.29242 -2.3079,7.37763 -1.5387,2.08552 -3.3543,3.1282 -5.447,3.12805 l -75.5311,0 c -1.1085,1.5e-4 -1.8468,0.66645 -2.2149,1.9989 -0.6163,2.1669 -1.3245,4.5409 -2.1247,7.12204 -0.8004,2.58142 -1.7547,5.539066 -2.863,8.872986 -1.1085,3.33417 -2.0328,6.08456 -2.7729,8.25119 l 0,0.50354 0.372,0 c 8.0028,-4.50122 15.2655,-6.75189 21.7881,-6.75202 14.8973,1.3e-4 25.1168,9.66656 30.6588,28.99933 0.492,1.16485 1.1083,1.66586 1.8486,1.50299 10.0954,-3.00078 20.5593,-5.41931 31.3914,-7.25555 2.2166,-0.3305 4.2174,0.421 6.0022,2.25449 1.7845,1.8337 2.7389,4.25094 2.863,7.25173 0.2478,2.9959 -0.3364,5.74375 -1.7528,8.24356 -1.4166,2.49999 -3.2332,3.91778 -5.4498,4.25338 -10.588,1.99899 -20.2515,4.24967 -28.9906,6.75202 -1.2325,0.33069 -1.7266,1.24621 -1.4823,2.74658 0.8641,8.16861 1.4183,17.66975 1.6626,28.50343 0.1239,3.66723 -0.7374,6.75078 -2.584,9.25063 -1.8468,2.49994 -4.1246,3.74989 -6.8334,3.74985 -2.7091,4e-5 -5.0179,-1.24991 -6.9265,-3.74985 -1.9087,-2.49985 -2.9232,-5.5834 -3.0433,-9.25063 -0.2481,-9.99955 -0.4942,-17.25001 -0.7382,-21.75141 -10e-5,-1.50037 -0.5543,-2.08275 -1.6626,-1.74713 -24.1327,10.66595 -36.199,22.83228 -36.1989,36.49902 -10e-5,3.99783 0.5541,7.41326 1.6626,10.24628 1.1083,2.83307 3.201,5.49954 6.2783,7.99942 3.0771,2.49991 7.7247,4.37547 13.943,5.62667 6.2181,1.25123 14.0049,1.87685 23.3604,1.87684 10.9597,1e-5 23.3942,-1.33513 37.3035,-4.00544 2.2166,-0.33058 4.2483,0.42091 6.0951,2.2545 1.8465,1.8336 2.8319,4.25085 2.956,7.25173 0.2478,3.16366 -0.3364,6.0374 -1.7527,8.62122 -1.4167,2.58381 -3.2952,4.04357 -5.6358,4.37927 -12.3088,2.16673 -25.2975,3.25012 -38.9661,3.25013 -22.9002,-1e-5 -39.3981,-3.62525 -49.4937,-10.87571 -10.0956,-7.25046 -15.1434,-18.62715 -15.1434,-34.1301 0,-25.99583 17.4221,-46.24422 52.2665,-60.74524 1.1083,-0.3356 1.4164,-1.25366 0.9243,-2.7542 -1.6007,-5.16755 -3.7244,-8.75082 -6.3713,-10.74983 -2.6471,-1.99879 -5.9412,-2.99823 -9.8824,-2.99835 -5.7861,1.2e-4 -12.6186,3.74996 -20.4974,11.24955 -7.879,7.49978 -15.8818,18.33224 -24.0086,32.4974 -1.6006,2.83312 -3.6934,4.54209 -6.2783,5.12695 z"
     id="path2827"
     style="font-size:214.86882019px;font-style:normal;font-variant:normal;font-weight:normal;font-stretch:normal;text-align:center;text-anchor:middle;fill:#000000;fill-opacity:1;stroke:none;font-family:'Rounded M+ 1m medium';-inkscape-font-specification:'Rounded M+ 1m medium,'" /><path
     inkscape:connector-curvature="0"
     d="m 1337.597,228.45091 c 8.247,-12.50201 15.1416,-26.33664 20.6834,-41.50391 0.9844,-2.83299 2.5841,-4.8319 4.799,-5.9967 2.2148,-1.1647 4.4306,-1.1647 6.6475,0 2.2166,1.33265 3.7871,3.45743 4.7115,6.37435 0.9241,2.91703 0.8922,5.79204 -0.096,8.62503 -5.7863,16.99833 -13.6031,32.9997 -23.4506,48.00415 -1.7247,2.49735 -3.8184,3.82996 -6.2812,3.99781 -2.4629,0.16784 -4.6167,-0.83161 -6.4614,-2.99835 -1.7246,-2.16675 -2.648,-4.87518 -2.77,-8.1253 -0.1222,-3.25013 0.617,-6.04248 2.2176,-8.37708 z m 80.6993,-40.00092 c 0.3718,-3.00084 1.5422,-5.41808 3.5111,-7.25174 1.9687,-1.83353 4.1535,-2.49984 6.5545,-1.9989 2.4007,0.50106 4.2793,2.00023 5.6358,4.49753 7.5068,13.66683 14.7075,28.66875 21.6021,45.0058 1.2321,2.99582 1.5713,6.16073 1.0173,9.49478 -0.5544,3.33405 -1.8779,6.00051 -3.9705,7.99942 -1.969,1.83613 -4.0927,2.37909 -6.3713,1.62887 -2.2789,-0.75022 -4.0325,-2.54186 -5.261,-5.3749 -6.6504,-16.00137 -13.7309,-31.16859 -21.2414,-45.50171 -1.3527,-2.66516 -1.845,-5.4982 -1.4766,-8.49915 z m -106.9227,-121.749866 0,182.250966 c 0,3.49933 -0.8933,6.457 -2.6798,8.87299 -1.7866,2.41595 -3.9724,3.62394 -6.5573,3.62396 -2.585,-2e-5 -4.7698,-1.20801 -6.5544,-3.62396 -1.7847,-2.41599 -2.6771,-5.37366 -2.6771,-8.87299 l 0,-190.750126 c 0,-3.83485 1.0464,-7.16889 3.1391,-10.00213 2.0928,-2.83285 4.5557,-4.24937 7.3886,-4.24957 l 40.995,0 c 2.0926,2e-4 3.8783,1.00092 5.3568,3.00217 1.4784,2.00164 2.2177,4.41888 2.2177,7.25174 0,7.49733 -0.8624,14.24679 -2.5868,20.24841 -1.3564,5.49841 -2.8349,10.6635 -4.4354,15.4953 -0.1203,0.168 -0.088,0.33585 0.096,0.50354 0.1841,0.168 0.3983,0.168 0.6426,0 13.5446,-12.33402 25.733,-26.41787 36.5651,-42.25159 4.5574,-6.66788 10.0373,-10.00193 16.4397,-10.00213 6.4022,2e-4 11.8801,3.33425 16.4341,10.00213 10.9596,15.50311 22.9639,29.25381 36.0128,41.25214 2.2166,1.99905 3.8171,4.66552 4.8018,7.99942 0.9841,3.334176 1.1063,6.750866 0.3663,10.250086 -0.6127,2.83318 -1.9662,4.83335 -4.0606,6.00052 -2.0948,1.16742 -4.0646,0.91692 -5.9092,-0.75149 -0.4924,-0.49833 -1.7848,-1.70632 -3.8774,-3.62397 -2.093,-1.91739 -3.6935,-3.3746 -4.8017,-4.37164 -0.1242,-0.16771 -0.2782,-0.16899 -0.4622,-0.004 -0.1842,0.16544 -0.2763,0.33201 -0.2761,0.49972 -2e-4,2.50257 -0.6464,4.62864 -1.9387,6.37818 -1.2927,1.7498 -2.8632,2.62464 -4.7116,2.62451 l -20.3115,0 c -1.1085,1.3e-4 -1.6627,0.75035 -1.6625,2.25068 l 0,24.49798 c -2e-4,1.33269 0.554,1.999 1.6625,1.9989 l 36.3792,0 c 2.2166,1e-4 4.1252,1.08347 5.726,3.25013 1.6004,2.16683 2.4007,4.75065 2.4009,7.75146 -2e-4,3.00097 -0.8005,5.58479 -2.4009,7.75146 -1.6008,2.16682 -3.5094,3.25019 -5.726,3.25012 l -36.3792,0 c -1.1085,7e-5 -1.6627,0.66637 -1.6625,1.99891 l 0,56.74744 c -2e-4,16.66768 -1.1396,26.87579 -3.4182,30.62438 -2.2789,3.74855 -8.6501,5.62285 -19.1138,5.62286 -4.1857,-1e-5 -8.4332,-0.16532 -12.7426,-0.49591 -2.4611,-0.16787 -4.5539,-1.45977 -6.2783,-3.87573 -1.7247,-2.41599 -2.648,-5.20708 -2.77,-8.37326 -0.1222,-3.1662 0.617,-5.83267 2.2176,-7.99942 1.6005,-2.16674 3.5693,-3.16874 5.9064,-3.00599 3.573,0.33571 7.0202,0.50356 10.3417,0.50354 3.2011,2e-5 5.0787,-0.54168 5.633,-1.62506 0.5541,-1.08336 0.8311,-4.87517 0.8313,-11.37541 l 0,-56.74744 c -2e-4,-1.33254 -0.4923,-1.99884 -1.4766,-1.99891 l -39.338,0 c -1.1084,7e-5 -1.5386,0.7503 -1.2906,2.25068 0.3682,3.99787 0.5523,7.99567 0.5523,11.9934 0,11.33733 -1.7537,19.88098 -5.261,25.63095 -3.5074,5.75005 -8.9563,9.03958 -16.3467,9.86862 -2.3371,0.16787 -4.3978,-0.74765 -6.1825,-2.74658 -1.7847,-1.99887 -2.9231,-4.58269 -3.4153,-7.75146 -0.372,-2.66516 0.088,-5.03918 1.3808,-7.12204 1.2924,-2.08279 2.985,-3.37596 5.0779,-3.87954 2.7089,-0.82902 4.5866,-2.61938 5.633,-5.37111 1.0463,-2.75161 1.5695,-7.46148 1.5695,-14.12963 0,-12.16626 -3.2613,-24.24867 -9.7838,-36.24725 -4.1856,-7.66489 -4.6777,-15.49773 -1.4766,-23.49854 6.0304,-15.167086 11.1382,-31.084526 15.3239,-47.752376 0.2478,-1.16458 -0.1204,-1.74696 -1.1047,-1.74713 l -19.9452,0 c -0.9843,1.7e-4 -1.4765,0.66647 -1.4765,1.9989 z m 86.2393,-8.49916 c -8.003,12.33437 -16.19,23.3334 -24.5609,32.99714 -0.2444,0.33584 -0.3364,0.67027 -0.2762,1.00326 0.06,0.33331 0.2141,0.49988 0.4622,0.49974 l 51.1563,0 c 0.244,1.4e-4 0.4281,-0.16643 0.5523,-0.49974 0.1238,-0.33299 0.062,-0.66742 -0.186,-1.00326 -8.4952,-9.66374 -16.8663,-20.66277 -25.1132,-32.99714 -0.7403,-1.0018 -1.4185,-1.0018 -2.0345,0 z m -56.1384,47.500616 -0.186,-1.25122 c -0.1241,-0.33556 -0.3401,-0.5034 -0.6481,-0.50354 -0.3082,1.4e-4 -0.5223,0.16798 -0.6425,0.50354 -2.0929,6.50037 -4.3716,12.75138 -6.8362,18.75306 -0.4923,1.16486 -0.4303,2.32962 0.186,3.49426 6.1542,11.33738 10.2176,22.1711 12.1902,32.50121 0.1202,0.16793 0.3043,0.25185 0.5524,0.25177 l 0,-1.9989 c -10e-5,-3.83495 1.0153,-7.169 3.0461,-10.00213 2.0307,-2.83295 4.4626,-4.24948 7.2956,-4.24957 l 31.0251,0 c 0.9843,9e-5 1.4764,-0.66621 1.4766,-1.99891 l 0,-24.49798 c -2e-4,-1.50032 -0.4923,-2.25055 -1.4766,-2.25067 l -19.3928,0 c -1.9689,1.2e-4 -3.5995,-0.87471 -4.8919,-2.62451 -1.2926,-1.74955 -1.9388,-3.95953 -1.9387,-6.62995 -10e-5,-0.66617 -0.2462,-0.83147 -0.7383,-0.49591 -1.6007,1.66334 -4.1256,3.99539 -7.5746,6.99615 -2.0928,1.99903 -4.3697,2.33218 -6.8305,0.99946 -2.4612,-1.33248 -3.9997,-3.66453 -4.6158,-6.99616 z"
     id="path2829"
     style="font-size:214.86882019px;font-style:normal;font-variant:normal;font-weight:normal;font-stretch:normal;text-align:center;text-anchor:middle;fill:#000000;fill-opacity:1;stroke:none;font-family:'Rounded M+ 1m medium';-inkscape-font-specification:'Rounded M+ 1m medium,'" /><path
     inkscape:connector-curvature="0"
     d="m 1520.237,185.19987 c -11.6962,-11.00153 -18.9598,-18.58513 -21.7908,-22.75086 -2.8311,-4.16556 -4.2467,-9.91557 -4.2467,-17.25006 0,-7.66489 1.5086,-13.66414 4.5256,-17.99773 3.017,-4.33338 10.5578,-11.83307 22.6221,-22.49909 18.8349,-16.336916 38.8401,-35.588406 60.0159,-57.754516 2.0926,-2.16655 4.4625,-3.08335 7.1096,-2.7504 2.6468,0.33336 4.8325,1.8338 6.5573,4.50135 1.7243,2.66793 2.4636,5.70951 2.2177,9.12476 -0.2463,3.4156 -1.4158,6.20668 -3.5083,8.37326 -21.4238,22.50177 -41.553,41.918556 -60.3879,58.250416 -7.3867,6.50035 -12.0654,10.91777 -14.036,13.25226 -1.9707,2.33469 -2.956,4.83459 -2.9559,7.49969 -10e-5,2.50254 0.8922,4.91978 2.677,7.25174 1.7846,2.33214 6.0021,6.49906 12.6524,12.50077 22.6521,20.83338 45.2442,43.99875 67.7764,69.49615 1.9686,2.3346 3.014,5.21088 3.1363,8.62885 0.1219,3.41796 -0.7394,6.37562 -2.584,8.87298 -1.969,2.66519 -4.3078,4.03975 -7.0166,4.12369 -2.7092,0.0839 -5.11,-1.04143 -7.2026,-3.37601 -21.668,-24.33267 -43.5218,-46.83174 -65.5615,-67.49725 z"
     id="path2831"
     style="font-size:214.86882019px;font-style:normal;font-variant:normal;font-weight:normal;font-stretch:normal;text-align:center;text-anchor:middle;fill:#000000;fill-opacity:1;stroke:none;font-family:'Rounded M+ 1m medium';-inkscape-font-specification:'Rounded M+ 1m medium,'" /></svg>