<?xml version="1.0" encoding="UTF-8" standalone="no"?>
<!-- Created with Inkscape (http://www.inkscape.org/) -->

<svg
   xmlns:svg="http://www.w3.org/2000/svg"
   xmlns="http://www.w3.org/2000/svg"
   xmlns:xlink="http://www.w3.org/1999/xlink"
   version="1.1"
   width="950"
   height="625"
   id="svg2"
   xml:space="preserve"><defs
     id="defs6"><linearGradient
       id="linearGradient15703"><stop
         id="stop15705"
         style="stop-color:#ffffff;stop-opacity:1"
         offset="0" /></linearGradient><linearGradient
       x1="-37.125"
       y1="465.375"
       x2="967.87512"
       y2="465.375"
       id="linearGradient15707"
       xlink:href="#linearGradient15703"
       gradientUnits="userSpaceOnUse"
       gradientTransform="translate(961.6578,56.04101)" /></defs><g
     transform="matrix(0,-1,1,0,0,625)"
     id="g2861"><rect
       width="625"
       height="950"
       rx="50"
       ry="50"
       x="0"
       y="0"
       id="rect2873"
       style="color:#000000;fill:#0566ae;fill-opacity:1;fill-rule:nonzero;stroke:none;stroke-width:3;marker:none;visibility:visible;display:inline;overflow:visible;enable-background:accumulate" /><rect
       width="605"
       height="930"
       rx="40"
       ry="40"
       x="10"
       y="10"
       id="rect2874"
       style="color:#000000;fill:#ffffff;fill-opacity:1;fill-rule:nonzero;stroke:none;stroke-width:3;marker:none;visibility:visible;display:inline;overflow:visible;enable-background:accumulate" /><rect
       width="565"
       height="890"
       rx="30"
       ry="30"
       x="30"
       y="30"
       id="rect2875"
       style="color:#000000;fill:#0566ae;fill-opacity:1;fill-rule:nonzero;stroke:none;stroke-width:3;marker:none;visibility:visible;display:inline;overflow:visible;enable-background:accumulate" /><rect
       width="545"
       height="870"
       rx="20"
       ry="20"
       x="40"
       y="40"
       id="rect2875-8"
       style="color:#000000;fill:#ffffff;fill-opacity:1;fill-rule:nonzero;stroke:none;stroke-width:3;marker:none;visibility:visible;display:inline;overflow:visible;enable-background:accumulate" /><g
       transform="matrix(0,1,-1,0,1051.125,-232.56938)"
       id="g3833"><path
         d="m 817.5,699.43856 0,28.57786 299.9232,0.28867 -111.7135,-109.6928 -81.98089,0 81.40359,81.4036 L 817.5,699.43856 z"
         id="path3807"
         style="fill:#0566ae;fill-opacity:1;stroke:none" /><path
         d="m 817.5,770.34588 0,-28.57786 299.9232,-0.28867 -111.7135,109.6928 -81.98089,0 81.40359,-81.4036 -187.6324,0.57733 z"
         id="path3807-5"
         style="fill:#0566ae;fill-opacity:1;stroke:none" /></g></g><g
     transform="matrix(34.167339,0,0,34.167339,44.9692,29.01028)"
     id="g2991" /><g
     transform="translate(1.0888672e-7,-0.7796108)"
     id="g2838"><rect
       width="475"
       height="475"
       rx="30"
       ry="30"
       x="77.061226"
       y="71.479752"
       id="rect3726-8"
       style="color:#000000;fill:#0566ae;fill-opacity:1;fill-rule:nonzero;stroke:none;stroke-width:3;marker:none;visibility:visible;display:inline;overflow:visible;enable-background:accumulate" /><g
       transform="translate(-8,0)"
       id="g3876"><path
         d="m 215.54772,366.22493 172.27492,-172.27489 76.3397,0 c 30.0265,0 51.0294,22.32005 51.0294,47.76342 0,25.72054 -17.7276,50.62106 -51.0293,50.62106 l -34.2917,0 -173.70371,172.47899 -77.56451,0.20412 c -22.55386,0.0593 -49.19224,-19.63921 -49.19224,-49.80459 0,-21.88911 18.31183,-48.98811 49.80459,-48.98811 l 36.33285,0 z"
         id="path3853"
         style="fill:#ffffff;stroke:none" /><path
         d="m 225.34535,391.12722 172.88719,-172.88724 66.7464,0 c 16.0852,0 25.9228,14.93766 25.9228,25.10642 0,11.04323 -11.1623,24.69817 -25.3105,24.69817 l -46.3346,0 -172.98929,172.17282 -65.41955,0 c -17.05153,0 -26.53523,-12.19116 -26.53523,-25.00435 0,-13.17482 12.00377,-25.17391 26.73935,-24.90229 l 44.29343,0.81647 z"
         id="path3855"
         style="fill:#0566ae;fill-opacity:1;stroke:none" /><path
         d="m 268.61818,320.50268 50.62106,-50.21282 4.49058,-50.62106 c 0.4247,-7.04074 -4.79348,-14.5214 -15.30879,-17.14584 -11.58948,-1.05056 -22.99242,-0.91515 -32.45463,0 -9.1821,0.34405 -18.55043,9.0932 -18.37054,17.55408 l 11.02232,100.42564 z"
         id="path3872"
         style="fill:#ffffff;stroke:none" /><path
         d="m 936.69365,168.63951 a 19.799364,19.799364 0 1 1 -39.59873,0 19.799364,19.799364 0 1 1 39.59873,0 z"
         transform="translate(-625.61909,6.9399834)"
         id="path3874"
         style="color:#000000;fill:#ffffff;fill-opacity:1;fill-rule:nonzero;stroke:none;stroke-width:3;marker:none;visibility:visible;display:inline;overflow:visible;enable-background:accumulate" /></g></g></svg>