<?xml version="1.0" encoding="UTF-8" standalone="no"?>
<!-- Created with Inkscape (http://www.inkscape.org/) -->

<svg
   xmlns:dc="http://purl.org/dc/elements/1.1/"
   xmlns:cc="http://creativecommons.org/ns#"
   xmlns:rdf="http://www.w3.org/1999/02/22-rdf-syntax-ns#"
   xmlns:svg="http://www.w3.org/2000/svg"
   xmlns="http://www.w3.org/2000/svg"
   xmlns:sodipodi="http://sodipodi.sourceforge.net/DTD/sodipodi-0.dtd"
   xmlns:inkscape="http://www.inkscape.org/namespaces/inkscape"
   version="1.1"
   width="1005.4"
   height="1005.4"
   id="svg2"
   xml:space="preserve"
   inkscape:version="0.48.4 r9939"
   sodipodi:docname="AJAX1.svg"><sodipodi:namedview
     pagecolor="#ffffff"
     bordercolor="#666666"
     borderopacity="1"
     objecttolerance="10"
     gridtolerance="10"
     guidetolerance="10"
     inkscape:pageopacity="0"
     inkscape:pageshadow="2"
     inkscape:window-width="1280"
     inkscape:window-height="1004"
     id="namedview28"
     showgrid="false"
     fit-margin-top="0.2"
     fit-margin-left="0.2"
     fit-margin-right="0.2"
     fit-margin-bottom="0.2"
     inkscape:zoom="0.51603029"
     inkscape:cx="450.5816"
     inkscape:cy="416.81802"
     inkscape:window-x="-8"
     inkscape:window-y="-8"
     inkscape:window-maximized="1"
     inkscape:current-layer="svg2" /><metadata
     id="metadata8"><rdf:RDF><cc:Work
         rdf:about=""><dc:format>image/svg+xml</dc:format><dc:type
           rdf:resource="http://purl.org/dc/dcmitype/StillImage" /></cc:Work></rdf:RDF></metadata><defs
     id="defs6" /><path
     inkscape:connector-curvature="0"
     style="fill:#ffffff;fill-opacity:1;stroke:#ed1c23;stroke-width:5;stroke-miterlimit:4;stroke-opacity:1;stroke-dasharray:none"
     d="M 2.7,502.70001 C 2.7,226.55763 226.55763,2.7 502.7,2.7 c 276.14238,0 500,223.85763 500,500.00001 0,276.14237 -223.85762,499.99999 -500,499.99999 -276.14237,0 -500,-223.85762 -500,-499.99999 z"
     id="path3854" /><path
     id="path14622"
     d="M 968.075,502.70001 C 968.075,245.68049 759.71952,37.325 502.7,37.325 245.68047,37.325 37.325,245.68049 37.325,502.70001 37.325,759.71953 245.68047,968.075 502.7,968.075 c 257.01952,0 465.375,-208.35547 465.375,-465.37499 z"
     style="fill:#ed1c23;fill-opacity:1;stroke:none"
     inkscape:connector-curvature="0" /><path
     id="path15520"
     d="m 835.55,502.7 c 0,-183.82797 -149.02204,-332.85 -332.85,-332.85 -183.82798,0 -332.85,149.02203 -332.85,332.85 0,183.82797 149.02202,332.84999 332.85,332.84999 183.82796,0 332.85,-149.02202 332.85,-332.84999 z"
     style="fill:#ffffff;fill-opacity:1;stroke:none"
     inkscape:connector-curvature="0" /><path
     style="fill:#ed1c23;fill-opacity:1;stroke:none"
     d="M 783.75726,851.49809 851.49809,783.75726 221.64272,153.9019 153.90189,221.64273 z"
     id="path3011"
     inkscape:connector-curvature="0"
     sodipodi:nodetypes="ccccc" /><path
     style="fill:#ffffff;fill-opacity:1;fill-rule:nonzero;stroke:#ffffff;stroke-width:20;stroke-miterlimit:4;stroke-opacity:1;stroke-dasharray:none"
     d="m 494.544,303.8875 c -14.0637,-0.22455 -29.32635,20.33197 -35.40625,31.59375 -6.8696,12.94957 -0.8291,16.40343 0,23.3125 0.9064,6.86958 9.5,8.5625 9.5,8.5625 0,0 0.024,4.34002 -5.1875,6.90625 -5.1325,2.6057 -2.5835,2.62489 -14.625,12.96875 -12.0416,10.2649 -44.8217,87.88312 -49.125,98.1875 -4.3429,10.30438 -3.44945,13.76647 -0.84375,23.28125 2.5662,9.43581 7.78125,10.3125 7.78125,10.3125 l -6.9375,6.03125 -21.53125,-11.15625 -82.6875,0 0,11.15625 10.3125,10.34375 0,11.90625 c -33.4004,8.6462 -58.25,38.93796 -58.25,75.0625 0,42.83622 34.88245,77.75 77.71875,77.75 32.4923,0 60.36155,-20.09059 71.96875,-48.4375 l 49.5,0 70.9375,0 88.09375,0 c 10.57871,26.97954 36.86511,46.125 67.5625,46.125 40.0331,0 72.5,-32.47512 72.5,-72.46875 0,-39.99362 -32.4669,-72.59375 -72.5,-72.59375 -6.7907,0 -13.2852,1.01286 -19.5625,2.75 l -38.84375,-93.4375 -34.09375,0 c -4.9351,0 -8.8125,3.83141 -8.8125,8.6875 0,4.89557 -12.89025,8.30198 -9.96875,2.0625 0.9081,-1.8161 1.3125,-3.84671 1.3125,-5.78125 0,-4.57972 -2.2329,-8.96836 -6.0625,-11.21875 0,0 -35.8346,-20.42876 -41.125,-23.46875 -1.066,-2.05298 -3.1871,-7.08128 -5.4375,-12.6875 0.2369,-1.26337 0.2829,-2.27945 0.125,-3.1875 -1.7371,-7.69867 -3.4659,-18.0845 -10.375,-24.125 -6.9091,-6.0405 -10.3227,-14.66075 -8.625,-17.1875 1.7766,-2.56464 5.17175,-3.41911 10.34375,-5.15625 5.1719,-1.73713 8.64235,-13.7738 12.90625,-18.90625 4.3034,-5.21141 -1.6912,-5.22416 0.875,-12.09375 2.6452,-6.90906 9.46875,-2.6347 9.46875,-12.9375 0,-11.33087 -9.45295,-12.90987 -24.96875,-20.6875 -1.9296,-0.96727 -3.9284,-1.43667 -5.9375,-1.46875 z"
     id="path15289"
     inkscape:connector-curvature="0"
     sodipodi:nodetypes="sccccccccccccccssccccsssccsscsccccscsccsss" /><path
     inkscape:connector-curvature="0"
     style="fill:#0566ae;fill-opacity:1;fill-rule:nonzero;stroke:none"
     d="m 494.55925,303.8875 c -14.0637,-0.22455 -29.3263,20.33197 -35.4062,31.59375 -6.8696,12.94957 -0.8291,16.40343 0,23.3125 0.9064,6.86958 9.5,8.5625 9.5,8.5625 0,0 0.024,4.34002 -5.1875,6.90625 -5.1325,2.6057 -2.5835,2.62489 -14.625,12.96875 -12.0416,10.2649 -44.8217,87.88312 -49.125,98.1875 -4.3429,10.30438 -3.4495,13.76647 -0.8438,23.28125 2.5662,9.43581 7.7813,10.3125 7.7813,10.3125 l -6.9375,6.03125 -21.5313,-11.15625 -82.6875,0 0,11.15625 10.3125,10.34375 0,11.90625 c -33.4004,8.6462 -58.25,38.93796 -58.25,75.0625 0,42.83622 34.8825,77.75 77.7188,77.75 32.4923,0 60.3615,-20.09059 71.9687,-48.4375 l 120.4375,0 0,-0.90625 c 8.9226,-0.39481 12.1385,-2.52689 19.7188,-8.84375 5.9615,-4.97453 8.944,-10.91113 9.0625,-11.1875 0.7501,-1.42129 0.6761,-2.96035 0.125,-4.34375 l 7.7812,4.34375 c 2.9215,1.53816 6.9996,-0.31675 9.25,-4.34375 1.8161,-3.31635 1.5365,-7.04077 -0.4375,-9.09375 2.6452,0.39481 5.6757,-1.47978 7.5313,-4.71875 1.8161,-3.43479 1.5052,-7.22171 -0.4688,-9.15625 2.6847,0.3948 5.7777,-1.48958 7.5938,-4.6875 2.1698,-3.98751 1.5153,-8.50631 -1.4063,-10.125 l -19.6562,-10.71875 c -2.9216,-1.61711 -6.9684,0.35126 -9.2188,4.21875 -1.8161,3.4348 -1.5135,7.10327 0.5,9.15625 -2.7241,-0.31584 -5.8171,1.46332 -7.5937,4.78125 -1.8951,3.39531 -1.5218,7.07202 0.5312,9.125 -2.7636,-0.28426 -5.8566,1.48136 -7.5937,4.71875 -2.211,3.94804 -1.6173,8.41255 1.3437,10.03125 l 6.2813,3.53125 c -1.5793,0.22109 -3.0312,1.08368 -3.7813,2.625 0,0.0632 -2.2049,4.33823 -6.4687,7.8125 -3.4348,2.92155 -5.3928,4.54424 -7.4063,5.53125 l -3.4687,-22.78125 c -1.066,-8.21192 -7.0579,-14.62796 -14.875,-16.5625 6.4353,-11.80464 22.394,-40.59646 26.5,-44.03125 5.2114,-4.26388 10.3437,-2.59375 10.3437,-2.59375 l 91.6563,-0.84375 c 1.4212,3.19791 2.7596,6.45011 4.0625,9.6875 -21.9906,12.4758 -36.8125,35.98719 -36.8125,63.03125 0,39.99363 32.5688,72.46875 72.5625,72.46875 40.0331,0 72.5,-32.47512 72.5,-72.46875 0,-39.99362 -32.4669,-72.59375 -72.5,-72.59375 -6.7907,0 -13.2852,1.01286 -19.5625,2.75 l -38.8438,-93.4375 -34.0937,0 c -4.9351,0 -8.8125,3.83141 -8.8125,8.6875 0,4.89557 3.8774,8.8125 8.8125,8.8125 l 22.375,0 c 1.0659,2.64677 5.8311,14.04838 12.1875,29.40625 -6.3169,-1.65818 -14.2149,-3.6857 -17.5313,-4.59375 -6.0405,-1.73713 -30.2076,-3.4375 -37.9062,-3.4375 -7.7777,0 -34.4824,2.56736 -41.3125,3.4375 -6.9091,0.86857 -15.5625,5.1875 -15.5625,5.1875 l -31,-20.75 c 0,0 7.77,-24.11846 15.4687,-33.59375 2.2899,-2.76363 5.381,-6.46309 8.5,-10.6875 l 3.3438,6.625 47.1875,27.0625 c 5.6062,3.19791 12.5472,0.83323 15.4687,-5.40625 0.9081,-1.8161 1.3125,-3.84671 1.3125,-5.78125 0,-4.57972 -2.2329,-8.96836 -6.0625,-11.21875 0,0 -35.8346,-20.42876 -41.125,-23.46875 -1.066,-2.05298 -3.1871,-7.08128 -5.4375,-12.6875 0.2369,-1.26337 0.2829,-2.27945 0.125,-3.1875 -1.7371,-7.69867 -3.4659,-18.0845 -10.375,-24.125 -6.9091,-6.0405 -10.3227,-14.66075 -8.625,-17.1875 1.7766,-2.56464 5.1718,-3.41911 10.3438,-5.15625 5.1719,-1.73713 8.6423,-13.7738 12.9062,-18.90625 4.3034,-5.21141 -1.6912,-5.22416 0.875,-12.09375 2.6452,-6.90906 9.4688,-2.6347 9.4688,-12.9375 0,-11.33087 -9.453,-12.90987 -24.9688,-20.6875 -1.9296,-0.96727 -3.9284,-1.43667 -5.9375,-1.46875 z m 177.75,170.4375 c -7.2449,0.19233 -18.1993,3.04305 -21.375,6.21875 -4.6982,4.65869 -11.7015,12.9496 -6.6875,19.1875 7.9356,9.79113 9.9343,9.77674 19.0938,7.25 9.1594,-2.52675 17.0874,-28.18866 15.4687,-31.03125 -0.6909,-1.2461 -3.2069,-1.71242 -6.5,-1.625 z m -347.0312,87.90625 c 25.07,0 46.5445,15.45683 55.625,37.25 l -61.2813,0 c -10.9756,0 -19.8437,8.83696 -19.8437,19.8125 l -7.3438,13.375 -26.3125,0 c -0.5922,-3.35583 -0.9687,-6.75926 -0.9687,-10.3125 0,-33.16352 27.0009,-60.125 60.125,-60.125 z m 348.0625,6.90625 c 30.9131,0 56.0625,25.1954 56.0625,56.1875 0,30.87366 -25.1494,56.09375 -56.0625,56.09375 -30.9921,0 -56.1563,-25.22009 -56.1563,-56.09375 0,-20.25343 10.7522,-37.91115 26.7813,-47.78125 6.3168,15.23943 12.0453,29.00503 15.875,38.125 -1.5398,2.44778 -2.5313,5.27907 -2.5313,8.4375 0,8.56724 6.941,15.46875 15.4688,15.46875 8.6067,0 15.5625,-6.90151 15.5625,-15.46875 0,-7.46179 -5.285,-13.72672 -12.3125,-15.1875 l -15.8125,-38.15625 c 4.1849,-1.02649 8.5847,-1.625 13.125,-1.625 z m -212.4688,2.40625 11.2188,2.625 -15.9063,25.3125 -17.5937,0 1.6562,-8.15625 20.625,-19.78125 z m -188.0625,80.125 104.9375,0 c -10.2254,18.35838 -29.9649,30.84375 -52.4687,30.84375 -22.5039,0 -42.1249,-12.48537 -52.4688,-30.84375 z"
     id="path15341" /><rect
     style="fill:#ffffff;fill-opacity:1;stroke:none"
     id="rect15380"
     width="22.04328"
     height="35.850609"
     x="96.711731"
     y="876.0932"
     transform="matrix(0.821758,-0.56983663,0.56983663,0.821758,0,0)"
     inkscape:transform-center-x="14.049563"
     inkscape:transform-center-y="-13.807329" /></svg>