<?xml version="1.0" encoding="UTF-8" standalone="no"?>
<!-- Created with Inkscape (http://www.inkscape.org/) -->

<svg
   xmlns:svg="http://www.w3.org/2000/svg"
   xmlns="http://www.w3.org/2000/svg"
   version="1.0"
   width="500"
   height="140"
   id="svg4203">
  <rect
     width="497.5"
     height="137.5"
     x="2.5"
     y="2.5"
     id="rect2870"
     style="color:#000000;fill:#0066b3;fill-opacity:1;fill-rule:nonzero;stroke:#ffffff;stroke-width:5;stroke-linecap:round;stroke-linejoin:round;stroke-miterlimit:4;stroke-opacity:1;stroke-dasharray:none;stroke-dashoffset:261;marker:none;visibility:visible;display:inline;overflow:visible;enable-background:accumulate" />
  <path
     d="m 0,140 500,0"
     id="path3646"
     style="fill:none;stroke:#ffffff;stroke-width:5;stroke-linecap:butt;stroke-linejoin:miter;stroke-miterlimit:4;stroke-opacity:1;stroke-dasharray:none" />
  <path
     d="m 144.28439,38.333672 c -0.0483,-0.0483 -0.0963,-0.04867 -0.14392,-0.0011 -0.0476,0.04765 -0.13147,0.143595 -0.25158,0.287842 -0.12013,0.144327 -0.20436,0.24064 -0.25269,0.28894 -0.57569,0.624063 -1.2594,0.803872 -2.05115,0.539429 -0.79175,-0.264365 -1.30774,-0.804526 -1.54797,-1.620484 -0.57569,-2.44771 0.0242,-4.63179 1.79956,-6.552246 2.20751,-2.447704 4.17553,-5.039742 5.90405,-7.776123 1.1997,-1.823673 2.83153,-2.735538 4.89551,-2.735595 2.11229,5.7e-5 3.8408,0.864314 5.18555,2.592773 1.58347,2.064018 3.09519,3.815969 4.53515,5.255859 0.0483,0.04839 0.12046,0.04839 0.21643,0 0.0959,-0.04829 0.1439,-0.09663 0.14392,-0.145019 -2e-5,-0.959422 0.35996,-1.799143 1.07996,-2.519165 0.71994,-0.719918 1.55967,-1.079903 2.51917,-1.079956 l 3.38378,0 c 0.38376,5.3e-5 0.47971,-0.191841 0.28785,-0.575684 -0.0952,-0.19184 -0.23881,-0.467963 -0.43067,-0.828369 -0.19192,-0.360296 -0.33621,-0.636419 -0.43286,-0.828369 -0.38382,-0.767522 -0.40762,-1.535465 -0.0714,-2.303833 0.33615,-0.768252 0.9122,-1.248354 1.72815,-1.440308 1.05612,-0.240174 2.07601,-0.132142 3.05969,0.324097 0.98361,0.456358 1.71566,1.140073 2.19617,2.051147 0.62398,1.104549 1.15206,2.113093 1.58423,3.025635 0.14351,0.383843 0.43135,0.575737 0.86352,0.575684 l 7.12793,0 c 0.43208,5.3e-5 0.71992,-0.168403 0.86353,-0.505371 0.52876,-0.959418 1.00923,-1.919256 1.4414,-2.879517 0.43208,-0.960147 1.1158,-1.692202 2.05115,-2.196167 0.93525,-0.503846 1.90754,-0.659852 2.91687,-0.468017 0.91108,0.145079 1.58271,0.625547 2.01489,1.441406 0.43208,0.815975 0.45625,1.631892 0.0725,2.447754 -0.0967,0.19195 -0.22894,0.467706 -0.3966,0.82727 -0.16778,0.359674 -0.29999,0.635431 -0.39661,0.827271 -0.0953,0.09673 -0.10699,0.205132 -0.0352,0.325195 0.0717,0.120171 0.17939,0.180229 0.323,0.180176 l 9.21753,0 c 0.86419,5.3e-5 1.59625,0.312065 2.19617,0.936035 0.59978,0.624075 0.89971,1.367849 0.89978,2.231323 -7e-5,0.863575 -0.3,1.59563 -0.89978,2.196167 -0.59992,0.600634 -1.33198,0.900926 -2.19617,0.900879 l -11.15991,0 c -0.43218,4.7e-5 -0.64825,0.216112 -0.64819,0.648193 l 0,3.095948 c -6e-5,0.383832 0.21601,0.575726 0.64819,0.575683 l 7.34326,0 c 1.10443,4.3e-5 2.06463,0.408002 2.88062,1.223877 0.81585,0.815959 1.22381,1.776163 1.22387,2.880616 l 0,6.479736 c -6e-5,0.287141 0.12005,0.430696 0.36036,0.430664 0.81585,3.2e-5 1.49956,0.276155 2.05114,0.828369 0.55145,0.552277 0.8272,1.212188 0.82727,1.979736 l 0,0.648194 c -7e-5,0.767606 -0.27582,1.427517 -0.82727,1.979736 -0.55158,0.552272 -1.23529,0.828395 -2.05114,0.828369 -0.24031,2.6e-5 -0.36042,0.144313 -0.36036,0.432862 l 0,6.840087 c -6e-5,1.103045 -0.40802,2.062517 -1.22387,2.878418 -0.81599,0.815933 -1.77619,1.223892 -2.88062,1.223877 l -5.40088,0 c -0.0953,1.5e-5 -0.17876,0.06007 -0.25049,0.180176 -0.0718,0.120131 -0.0843,0.22853 -0.0374,0.325195 3.07318,4.0796 6.88983,7.799567 11.44995,11.159913 0.81585,0.624025 1.35565,1.416139 1.61939,2.376342 0.2636,0.960205 0.17937,1.895873 -0.25269,2.807007 -0.38386,0.815915 -1.00788,1.331906 -1.87207,1.547974 -0.86432,0.21606 -1.6319,0.06042 -2.30273,-0.466919 -4.03278,-3.216797 -7.53741,-6.673093 -10.51392,-10.368897 -0.0469,-0.09521 -0.13042,-0.131096 -0.25049,-0.107666 -0.12017,0.02344 -0.18023,0.0835 -0.18017,0.180176 l 0,9.575684 c -6e-5,1.007808 -0.36004,1.871699 -1.07996,2.591675 -0.72002,0.719964 -1.58391,1.079949 -2.59167,1.079956 -1.00787,-7e-6 -1.87176,-0.359992 -2.59168,-1.079956 -0.72002,-0.719976 -1.08,-1.583867 -1.07995,-2.591675 l 0,-16.631104 c -5e-5,-0.385239 -0.21612,-0.577866 -0.6482,-0.577881 l -4.31982,0 c -0.43217,1.5e-5 -0.64824,0.192642 -0.6482,0.577881 l 0,16.631104 c -4e-5,1.007808 -0.36002,1.871699 -1.07995,2.591675 -0.72001,0.719964 -1.58427,1.079949 -2.59278,1.079956 -1.00858,-7e-6 -1.87283,-0.359992 -2.59277,-1.079956 -0.72,-0.719976 -1.07999,-1.583867 -1.07995,-2.591675 l 0,-8.857178 c -4e-5,-0.09521 -0.048,-0.166986 -0.14393,-0.215332 -0.096,-0.04833 -0.16812,-0.02416 -0.21643,0.07251 -2.15921,3.02344 -4.87063,6.071045 -8.13427,9.142822 -0.76907,0.67236 -1.64541,0.900509 -2.62903,0.684448 -0.98367,-0.216068 -1.69155,-0.803836 -2.12366,-1.763305 l -0.79101,-1.727051 c -0.14504,-0.385254 -0.43362,-0.481933 -0.86573,-0.290039 -3.88771,1.584959 -8.08741,3.001462 -12.59912,4.249511 -0.81592,0.24023 -1.59595,0.108028 -2.34009,-0.396606 -0.74414,-0.504642 -1.16455,-1.188357 -1.26123,-2.051147 -0.14355,-0.912599 0.0608,-1.753052 0.61304,-2.521363 0.55224,-0.768309 1.28393,-1.271848 2.19507,-1.51062 l 5.18555,-1.511719 c 0.38377,-0.09667 0.57567,-0.361079 0.57568,-0.793213 l 0,-19.368896 c -1e-5,-0.383765 -0.19191,-0.575659 -0.57568,-0.575684 l -4.53736,0 c -0.8628,2.5e-5 -1.6062,-0.311986 -2.23022,-0.936035 -0.62403,-0.623997 -0.93604,-1.367771 -0.93604,-2.231323 0,-0.863497 0.31201,-1.60727 0.93604,-2.231323 0.62402,-0.623993 1.36742,-0.936004 2.23022,-0.936035 l 4.53736,0 c 0.38377,3.1e-5 0.57567,-0.191864 0.57568,-0.575684 l 0,-5.83374 c -1e-5,-0.432091 -0.19191,-0.648156 -0.57568,-0.648194 l -2.01709,0 c -0.5757,3.8e-5 -1.06752,-0.191856 -1.47547,-0.575683 -0.40796,-0.38375 -0.61194,-0.863486 -0.61194,-1.439209 0,-0.0483 -0.0242,-0.09591 -0.0725,-0.142822 z m 35.2815,20.014892 4.31982,0 c 0.43208,2e-5 0.64815,-0.191874 0.6482,-0.575683 l 0,-4.392334 c -5e-5,-0.432104 -0.21612,-0.648168 -0.6482,-0.648194 l -4.31982,0 c -0.43217,2.6e-5 -0.64824,0.21609 -0.6482,0.648194 l 0,4.392334 c -4e-5,0.383809 0.21603,0.575703 0.6482,0.575683 z m -0.6482,-26.567139 0,3.095948 c -4e-5,0.383832 0.21603,0.575726 0.6482,0.575683 l 4.31982,0 c 0.43208,4.3e-5 0.64815,-0.191851 0.6482,-0.575683 l 0,-3.095948 c -5e-5,-0.432081 -0.21612,-0.648146 -0.6482,-0.648193 l -4.31982,0 c -0.43217,4.7e-5 -0.64824,0.216112 -0.6482,0.648193 z m 4.96802,9.430665 -4.31982,0 c -0.43217,3.7e-5 -0.64824,0.216101 -0.6482,0.648193 l 0,3.959473 c -4e-5,0.432161 0.21603,0.648225 0.6482,0.648193 l 4.31982,0 c 0.43208,3.2e-5 0.64815,-0.216032 0.6482,-0.648193 l 0,-3.959473 c -5e-5,-0.432092 -0.21612,-0.648156 -0.6482,-0.648193 z m 13.03198,16.560791 0,-4.392334 c -6e-5,-0.432104 -0.21612,-0.648168 -0.64819,-0.648194 l -4.177,0 c -0.38384,2.6e-5 -0.57574,0.21609 -0.57568,0.648194 l 0,4.392334 c -6e-5,0.383809 0.19184,0.575703 0.57568,0.575683 l 4.177,0 c 0.43207,2e-5 0.64813,-0.191874 0.64819,-0.575683 z m -0.64819,-16.560791 -4.177,0 c -0.38384,3.7e-5 -0.57574,0.216101 -0.57568,0.648193 l 0,3.959473 c -6e-5,0.432161 0.19184,0.648225 0.57568,0.648193 l 4.177,0 c 0.43207,3.2e-5 0.64813,-0.216032 0.64819,-0.648193 l 0,-3.959473 c -6e-5,-0.432092 -0.21612,-0.648156 -0.64819,-0.648193 z m -31.177,-9.648194 -2.66309,4.392334 c -0.19192,0.240277 -0.28786,0.576458 -0.28784,1.008545 -2e-5,1.007853 -0.3362,1.847574 -1.00854,2.519165 -0.67239,0.671669 -1.51248,1.007484 -2.52027,1.007446 l -1.79956,0 c -0.38381,3.8e-5 -0.5757,0.216103 -0.57568,0.648194 l 0,5.83374 c -2e-5,0.38382 0.19187,0.575715 0.57568,0.575684 l 2.23242,0 c 0.86277,3.1e-5 1.59446,0.312042 2.19507,0.936035 0.60056,0.624053 0.90086,1.367826 0.90088,2.231323 -2e-5,0.863552 -0.30032,1.607326 -0.90088,2.231323 -0.60061,0.624049 -1.3323,0.93606 -2.19507,0.936035 l -2.23242,0 c -0.38381,2.5e-5 -0.5757,0.191919 -0.57568,0.575684 l 0,16.848633 c -2e-5,0.432135 0.19187,0.552253 0.57568,0.360351 l 4.10449,-1.72705 c 0.624,-0.240226 1.21177,-0.192252 1.76331,0.14392 0.55149,0.33619 0.85141,0.816292 0.89978,1.440308 -3e-5,0.09522 0.0479,0.142829 0.14392,0.142822 0.0959,7e-6 0.16807,-0.02416 0.21643,-0.07251 2.20749,-2.351065 4.07956,-4.6787 5.61621,-6.982911 0.0952,-0.09667 0.1069,-0.205064 0.0352,-0.325195 -0.0718,-0.120103 -0.17948,-0.180161 -0.323,-0.180176 l -2.01709,0 c -0.81595,1.5e-5 -1.50003,-0.287827 -2.05225,-0.863525 -0.55227,-0.575668 -0.82839,-1.247664 -0.82836,-2.015991 -3e-5,-0.768293 0.27609,-1.440289 0.82836,-2.015991 0.55222,-0.575664 1.2363,-0.863506 2.05225,-0.863526 l 3.67163,0 c 0.4321,2e-5 0.64816,-0.191874 0.6482,-0.575683 l 0,-4.392334 c -4e-5,-0.432104 -0.2161,-0.648168 -0.6482,-0.648194 l -4.1748,0 c -0.86429,2.6e-5 -1.59634,-0.2999 -2.19617,-0.89978 -0.59988,-0.599826 -0.89981,-1.331881 -0.89978,-2.196167 -3e-5,-0.864228 0.2999,-1.608368 0.89978,-2.232422 0.59983,-0.623992 1.33188,-0.936003 2.19617,-0.936035 l 4.1748,0 c 0.4321,3.2e-5 0.64816,-0.216032 0.6482,-0.648193 l 0,-3.959473 c -4e-5,-0.432092 -0.2161,-0.648156 -0.6482,-0.648193 l -3.67163,0 c -0.81595,3.7e-5 -1.50003,-0.287805 -2.05225,-0.863526 -0.55227,-0.575645 -0.82839,-1.247641 -0.82836,-2.015991 -3e-5,-0.76827 0.27609,-1.440266 0.82836,-2.015991 0.55222,-0.575641 1.2363,-0.863483 2.05225,-0.863526 l 3.67163,0 c 0.4321,4.3e-5 0.64816,-0.191851 0.6482,-0.575683 l 0,-3.095948 c -4e-5,-0.432081 -0.2161,-0.648146 -0.6482,-0.648193 l -5.83154,0 0,0.07031 c 0.0483,0.04839 0.0725,0.108445 0.0725,0.180175 -3e-5,0.07183 -0.0242,0.131883 -0.0725,0.180176 z m -12.59912,-5.03833 c -1.39308,2.591358 -2.97731,5.063279 -4.75269,7.415772 -0.24024,0.335493 -0.1443,0.503217 0.28784,0.503173 l 10.22388,0 c 0.0967,4.4e-5 0.18089,-0.0721 0.25269,-0.21643 0.0718,-0.144243 0.0835,-0.239824 0.0351,-0.286743 -1.77541,-2.063919 -3.57497,-4.56001 -5.39868,-7.488282 -0.19191,-0.288522 -0.40797,-0.264352 -0.64819,0.07251 z m -5.97656,32.686524 c 0.43211,2.160661 0.93602,4.920424 1.51171,8.279296 0.14355,0.769054 0.0114,1.48939 -0.3966,2.161011 -0.40797,0.671639 -0.99574,1.103401 -1.76331,1.295288 -0.67237,0.191902 -1.32056,0.08387 -1.94458,-0.324096 -0.62403,-0.407951 -0.98365,-0.971549 -1.07886,-1.690796 -0.48047,-2.736316 -0.98438,-5.496079 -1.51171,-8.279297 -0.14503,-0.769025 -0.0253,-1.465557 0.35925,-2.0896 0.38452,-0.624003 0.93639,-1.056131 1.65564,-1.296387 0.72069,-0.191873 1.39306,-0.09556 2.01709,0.288941 0.62401,0.384542 1.0078,0.936421 1.15137,1.65564 z m 10.58422,5.976562 c 0.57567,-3.071761 0.98363,-5.351788 1.22388,-6.840088 0.0952,-0.672342 0.44309,-1.200418 1.0437,-1.584228 0.60057,-0.383767 1.23631,-0.503884 1.90723,-0.360352 0.72068,0.145042 1.27292,0.517478 1.65674,1.11731 0.38376,0.599874 0.52805,1.259419 0.43286,1.978637 -0.2886,1.823748 -0.69656,4.127945 -1.22388,6.912598 -0.14504,0.672375 -0.51748,1.212535 -1.11731,1.620483 -0.59987,0.407969 -1.23562,0.516002 -1.90723,0.324097 -0.67165,-0.191884 -1.21144,-0.588124 -1.61938,-1.188721 -0.40798,-0.600574 -0.54018,-1.260485 -0.39661,-1.979736 z"
     id="path2872"
     style="font-size:72px;font-style:normal;font-weight:normal;text-align:center;text-anchor:middle;fill:#ffffff;fill-opacity:1;stroke:none;font-family:'Rounded M+ 1p medium';-inkscape-font-specification:'Rounded M+ 1p medium'" />
  <path
     d="m 285.90915,75.557549 c 4.75194,-6.624014 7.12792,-15.648175 7.12793,-27.07251 l 0,-11.01709 c -10e-6,-0.143514 -0.048,-0.263264 -0.14392,-0.359253 -0.096,-0.09591 -0.21571,-0.119709 -0.35925,-0.07141 -1.4883,0.670939 -2.83302,1.222452 -4.03418,1.654541 -0.8628,0.336953 -1.71424,0.301431 -2.55433,-0.106568 -0.84009,-0.407918 -1.35608,-1.068196 -1.54797,-1.980834 -0.24024,-0.912555 -0.14429,-1.788531 0.28784,-2.62793 0.43213,-0.83931 1.10376,-1.451614 2.01489,-1.836914 8.49608,-3.311962 16.00853,-6.887642 22.53736,-10.727051 2.35104,-1.391543 4.91891,-2.087343 7.70361,-2.087402 l 1.15137,0 c 2.73629,5.9e-5 5.28072,0.695859 7.6333,2.087402 6.67085,3.839409 14.20673,7.415089 22.60767,10.727051 0.91106,0.3853 1.58269,0.997604 2.01489,1.836914 0.43206,0.839399 0.528,1.715375 0.28784,2.62793 -0.19196,0.912638 -0.70795,1.572916 -1.54797,1.980834 -0.84016,0.407999 -1.6916,0.443521 -2.55432,0.106568 -0.48054,-0.191855 -1.18879,-0.479696 -2.12476,-0.863526 -0.9361,-0.383748 -1.64435,-0.671589 -2.12476,-0.863525 -0.14361,-0.0483 -0.28753,-0.03658 -0.43176,0.03516 -0.14435,0.07182 -0.21649,0.180217 -0.21643,0.325196 l 0,19.439209 c -6e-5,1.104512 -0.39593,2.064717 -1.18762,2.880615 -0.79181,0.815936 -1.73993,1.223894 -2.84436,1.223877 l -37.15137,0 c -0.38381,1.7e-5 -0.62404,0.191912 -0.7207,0.575683 l -0.43067,2.375245 c -0.0967,0.432143 0.071,0.648207 0.50318,0.648193 l 39.95947,0 c 1.10443,1.4e-5 2.05255,0.407973 2.84436,1.223877 0.79169,0.81593 1.18756,1.776134 1.18762,2.880615 l 0,12.744141 c -6e-5,1.104488 -0.37176,2.016719 -1.11511,2.736694 -0.74347,0.719965 -1.64325,1.079949 -2.69934,1.079956 l -1.3689,0 c -0.67242,-7e-6 -1.26055,-0.240241 -1.7644,-0.720703 -0.50396,-0.480474 -0.75592,-1.056157 -0.75586,-1.727051 -6e-5,-0.288578 -0.12017,-0.432865 -0.36035,-0.432861 l -31.31983,0 c -0.24025,-4e-6 -0.36037,0.144283 -0.36035,0.432861 -2e-5,0.670894 -0.25197,1.246577 -0.75586,1.727051 -0.50393,0.480462 -1.09133,0.720696 -1.7622,0.720703 l -1.29639,0 c -1.05617,-7e-6 -1.94423,-0.359991 -2.66419,-1.079956 -0.71998,-0.719975 -1.07997,-1.608036 -1.07995,-2.664185 l 0,-10.081054 c -2e-5,-0.04833 -0.0363,-0.0725 -0.10877,-0.07251 -0.0725,7e-6 -0.10878,0.02418 -0.10876,0.07251 -1.29494,3.887698 -3.02272,7.271484 -5.18335,10.151367 -0.62403,0.817379 -1.43995,1.213985 -2.44776,1.189819 -1.00781,-0.02417 -1.87207,-0.42078 -2.59277,-1.189819 -0.71924,-0.81592 -1.09094,-1.787843 -1.11511,-2.915771 -0.0242,-1.127929 0.29992,-2.123289 0.97229,-2.986084 z m 18.14282,-4.537354 0,4.895508 c -2e-5,0.432131 0.19261,0.648195 0.57788,0.648193 l 30.81446,0 c 0.43207,2e-6 0.64813,-0.216062 0.64819,-0.648193 l 0,-4.895508 c -6e-5,-0.383781 -0.21612,-0.575676 -0.64819,-0.575684 l -30.81446,0 c -0.38527,8e-6 -0.5779,0.191903 -0.57788,0.575684 z m 29.88062,-16.343262 0,-2.953125 c -6e-5,-0.383762 -0.21612,-0.575656 -0.6482,-0.575683 l -32.25586,0 c -0.3838,2.7e-5 -0.5757,0.191921 -0.57568,0.575683 l 0,0.287842 c -2e-5,0.33694 -0.0121,0.793239 -0.0362,1.368897 -0.0242,0.575708 -0.0363,1.007836 -0.0363,1.296386 -2e-5,0.432153 0.19188,0.648217 0.57568,0.648194 l 32.32837,0 c 0.43208,2.3e-5 0.64814,-0.216041 0.6482,-0.648194 z m 0,-9.360351 0,-2.953125 c -6e-5,-0.383753 -0.21612,-0.575647 -0.6482,-0.575684 l -32.25586,0 c -0.3838,3.7e-5 -0.5757,0.191931 -0.57568,0.575684 l 0,2.953125 c -2e-5,0.432161 0.19188,0.648226 0.57568,0.648193 l 32.25586,0 c 0.43208,3.3e-5 0.64814,-0.216032 0.6482,-0.648193 z M 317.01364,24.220634 c -2.30423,1.536674 -4.68021,2.976614 -7.12793,4.319825 -0.0484,0.04839 -0.0605,0.108448 -0.0362,0.180175 0.0241,0.07183 0.0838,0.107716 0.17907,0.107666 l 14.97657,0 c 0.0952,5e-5 0.15486,-0.03584 0.17907,-0.107666 0.0241,-0.07173 0.012,-0.131786 -0.0362,-0.180175 -2.4478,-1.343211 -4.82377,-2.783151 -7.12793,-4.319825 -0.33549,-0.240179 -0.67094,-0.240179 -1.00635,0 z m -11.52026,6.767579 c -3.55227,1.823776 -7.03273,3.47978 -10.44141,4.968017 -0.0469,0.04838 -0.0703,0.09636 -0.0703,0.143921 -1e-5,0.04765 0.0476,0.07145 0.14282,0.07141 l 44.78467,0 c 0.0952,4.3e-5 0.14276,-0.02376 0.14282,-0.07141 -6e-5,-0.04756 -0.0235,-0.09554 -0.0703,-0.143921 -4.03277,-1.775346 -7.60918,-3.478958 -10.72925,-5.11084 -0.24028,-0.09663 -0.3604,-0.02485 -0.36035,0.215332 -5e-5,0.815965 -0.26409,1.487961 -0.79211,2.015992 -0.52813,0.528121 -1.20012,0.792158 -2.016,0.792114 l -17.56713,0 c -0.76761,4.4e-5 -1.40335,-0.251908 -1.90723,-0.75586 -0.50393,-0.50386 -0.75589,-1.140334 -0.75586,-1.909423 -3e-5,-0.238722 -0.12014,-0.3105 -0.36035,-0.215332 z"
     id="path2874"
     style="font-size:72px;font-style:normal;font-weight:normal;text-align:center;text-anchor:middle;fill:#ffffff;fill-opacity:1;stroke:none;font-family:'Rounded M+ 1p medium';-inkscape-font-specification:'Rounded M+ 1p medium'" />
  <g
     id="text3724"
     style="font-size:40px;font-style:normal;font-weight:normal;text-align:center;text-anchor:middle;fill:#ffffff;fill-opacity:1;stroke:#ffffff;stroke-width:1;stroke-miterlimit:4;stroke-opacity:1;font-family:IPAGothic;-inkscape-font-specification:IPAGothic">
    <path
       d="m 178.65604,123.34361 -4.55078,0 -10.83985,-14.27734 -3.16406,3.06641 0,11.21093 -3.51563,0 0,-28.574216 3.51563,0 0,13.652346 12.67578,-13.652346 4.72656,0 -11.97265,12.128906 z"
       id="path2832"
       style="fill:#ffffff;stroke:#ffffff;font-family:IPAPGothic;-inkscape-font-specification:IPAPGothic" />
    <path
       d="m 198.36307,123.34361 -3.04688,0 c -0.45574,-1.0026 -0.74871,-2.03124 -0.8789,-3.08593 l -0.11719,0 c -1.51043,2.42187 -3.76303,3.63281 -6.75781,3.63281 -2.0573,0 -3.73699,-0.65104 -5.03907,-1.95313 -1.14583,-1.14583 -1.71875,-2.54557 -1.71875,-4.19922 0,-4.11457 3.54818,-6.27603 10.64454,-6.48437 l 2.67578,-0.0781 0,-1.03515 c -2e-5,-1.39322 -0.40366,-2.48697 -1.21094,-3.28125 -0.82033,-0.83332 -1.88152,-1.24998 -3.18359,-1.25 -2.2396,2e-5 -3.91928,1.08725 -5.03907,3.26172 l -2.96875,-1.36719 c 1.83594,-3.04686 4.53125,-4.57029 8.08594,-4.57031 2.43488,2e-5 4.31639,0.68361 5.64453,2.05078 1.22394,1.22397 1.83592,2.95574 1.83594,5.19531 l 0,7.32422 c -2e-5,2.48698 0.35805,4.43359 1.07422,5.83984 z m -4.16016,-9.76562 -2.20703,0.0391 c -5.14324,0.1172 -7.71485,1.50392 -7.71484,4.16016 -1e-5,0.9375 0.30598,1.71224 0.91797,2.32422 0.7552,0.74219 1.74478,1.11328 2.96875,1.11328 1.70571,0 3.18358,-0.625 4.43359,-1.875 1.06769,-1.10677 1.60155,-2.4414 1.60156,-4.00391 z"
       id="path2834"
       style="fill:#ffffff;stroke:#ffffff;font-family:IPAPGothic;-inkscape-font-specification:IPAPGothic" />
    <path
       d="m 232.05447,123.34361 -3.4375,0 0,-12.48047 c -2e-5,-3.35935 -1.30211,-5.03904 -3.90625,-5.03906 -1.237,2e-5 -2.36981,0.57294 -3.39843,1.71875 -0.72919,0.80731 -1.237,1.82293 -1.52344,3.04688 l 0,12.7539 -3.4375,0 0,-12.51953 c -2e-5,-3.33332 -1.23048,-4.99998 -3.69141,-5 -1.30209,2e-5 -2.44792,0.57294 -3.4375,1.71875 -1.06771,1.18491 -1.60157,2.33074 -1.60156,3.4375 l 0,12.36328 -3.4375,0 0,-19.92187 3.20313,0 0,3.4375 c 1.31509,-2.55207 3.30077,-3.82811 5.95703,-3.82813 2.90363,2e-5 4.83722,1.38674 5.80078,4.16016 1.44529,-2.77342 3.52211,-4.16014 6.23047,-4.16016 2.18747,2e-5 3.8932,0.77476 5.11718,2.32422 1.04164,1.27606 1.56247,3.08595 1.5625,5.42969 z"
       id="path2836"
       style="fill:#ffffff;stroke:#ffffff;font-family:IPAPGothic;-inkscape-font-specification:IPAPGothic" />
    <path
       d="m 255.23807,123.34361 -3.04688,0 c -0.45574,-1.0026 -0.74871,-2.03124 -0.8789,-3.08593 l -0.11719,0 c -1.51043,2.42187 -3.76303,3.63281 -6.75781,3.63281 -2.0573,0 -3.73699,-0.65104 -5.03907,-1.95313 -1.14583,-1.14583 -1.71875,-2.54557 -1.71875,-4.19922 0,-4.11457 3.54818,-6.27603 10.64454,-6.48437 l 2.67578,-0.0781 0,-1.03515 c -2e-5,-1.39322 -0.40366,-2.48697 -1.21094,-3.28125 -0.82033,-0.83332 -1.88152,-1.24998 -3.18359,-1.25 -2.2396,2e-5 -3.91928,1.08725 -5.03907,3.26172 l -2.96875,-1.36719 c 1.83594,-3.04686 4.53125,-4.57029 8.08594,-4.57031 2.43488,2e-5 4.31639,0.68361 5.64453,2.05078 1.22394,1.22397 1.83592,2.95574 1.83594,5.19531 l 0,7.32422 c -2e-5,2.48698 0.35805,4.43359 1.07422,5.83984 z m -4.16016,-9.76562 -2.20703,0.0391 c -5.14324,0.1172 -7.71485,1.50392 -7.71484,4.16016 -1e-5,0.9375 0.30598,1.71224 0.91797,2.32422 0.7552,0.74219 1.74478,1.11328 2.96875,1.11328 1.70571,0 3.18358,-0.625 4.43359,-1.875 1.06769,-1.10677 1.60155,-2.4414 1.60156,-4.00391 z"
       id="path2838"
       style="fill:#ffffff;stroke:#ffffff;font-family:IPAPGothic;-inkscape-font-specification:IPAPGothic" />
    <path
       d="m 277.81619,123.34361 -4.16015,0 -6.83594,-9.6875 -2.28516,2.20703 0,7.48047 -3.35937,0 0,-29.57031 3.35937,0 0,18.92578 8.39844,-9.27734 4.31641,0 -8.28125,8.28125 z"
       id="path2840"
       style="fill:#ffffff;stroke:#ffffff;font-family:IPAPGothic;-inkscape-font-specification:IPAPGothic" />
    <path
       d="m 298.77322,123.34361 -3.20312,0 0,-3.63281 c -1.96616,2.68229 -4.35548,4.02344 -7.16797,4.02344 -2.3047,0 -4.10157,-0.78125 -5.39062,-2.34375 -1.01563,-1.26302 -1.52345,-3.0664 -1.52344,-5.41016 l 0,-12.55859 3.4375,0 0,12.4414 c -10e-6,3.3073 1.38671,4.96094 4.16015,4.96094 2.79947,0 4.8828,-1.71874 6.25,-5.15625 l 0,-12.24609 3.4375,0 z"
       id="path2842"
       style="fill:#ffffff;stroke:#ffffff;font-family:IPAPGothic;-inkscape-font-specification:IPAPGothic" />
    <path
       d="m 316.8201,103.03111 -0.60547,3.39844 c -0.44272,-0.0911 -0.83986,-0.1367 -1.19141,-0.13672 -1.53647,2e-5 -2.806,0.72267 -3.80859,2.16797 -1.25001,1.82293 -1.87501,3.42449 -1.875,4.80469 l 0,10.07812 -3.4375,0 0,-19.92187 3.24219,0 -0.15625,5.91797 0.0781,0 c 1.47135,-4.3229 3.61327,-6.48436 6.42578,-6.48438 0.45572,2e-5 0.89843,0.0586 1.32813,0.17578 z"
       id="path2844"
       style="fill:#ffffff;stroke:#ffffff;font-family:IPAPGothic;-inkscape-font-specification:IPAPGothic" />
    <path
       d="m 336.95682,123.34361 -3.04688,0 c -0.45574,-1.0026 -0.74871,-2.03124 -0.8789,-3.08593 l -0.11719,0 c -1.51043,2.42187 -3.76303,3.63281 -6.75781,3.63281 -2.0573,0 -3.73699,-0.65104 -5.03907,-1.95313 -1.14583,-1.14583 -1.71875,-2.54557 -1.71875,-4.19922 0,-4.11457 3.54818,-6.27603 10.64454,-6.48437 l 2.67578,-0.0781 0,-1.03515 c -2e-5,-1.39322 -0.40366,-2.48697 -1.21094,-3.28125 -0.82033,-0.83332 -1.88152,-1.24998 -3.18359,-1.25 -2.2396,2e-5 -3.91928,1.08725 -5.03907,3.26172 l -2.96875,-1.36719 c 1.83594,-3.04686 4.53125,-4.57029 8.08594,-4.57031 2.43488,2e-5 4.31639,0.68361 5.64453,2.05078 1.22394,1.22397 1.83592,2.95574 1.83594,5.19531 l 0,7.32422 c -2e-5,2.48698 0.35805,4.43359 1.07422,5.83984 z m -4.16016,-9.76562 -2.20703,0.0391 c -5.14324,0.1172 -7.71485,1.50392 -7.71484,4.16016 -1e-5,0.9375 0.30598,1.71224 0.91797,2.32422 0.7552,0.74219 1.74478,1.11328 2.96875,1.11328 1.70571,0 3.18358,-0.625 4.43359,-1.875 1.06769,-1.10677 1.60155,-2.4414 1.60156,-4.00391 z"
       id="path2846"
       style="fill:#ffffff;stroke:#ffffff;font-family:IPAPGothic;-inkscape-font-specification:IPAPGothic" />
  </g>
  <g
     id="text2841"
     style="font-size:72px;font-style:normal;font-weight:normal;text-align:center;text-anchor:middle;fill:#ffffff;fill-opacity:1;stroke:none;font-family:'Rounded M+ 1mn medium';-inkscape-font-specification:'Rounded M+ 1mn medium'">
    <path
       d="m 381.84689,33.315392 -0.14502,0 -9.21533,5.113037 c -0.67237,0.383828 -1.35645,0.383462 -2.05224,-0.0011 -0.69581,-0.384481 -1.04371,-0.9847 -1.04371,-1.800659 0,-2.35103 1.00781,-4.102982 3.02344,-5.25586 l 6.11939,-3.599121 c 2.30418,-1.344674 4.7761,-2.017037 7.41577,-2.017089 1.10447,5.2e-5 2.05259,0.396292 2.84436,1.18872 0.79172,0.792531 1.18759,1.740284 1.18762,2.843262 l 0,44.496826 c -3e-5,1.104495 -0.3959,2.052614 -1.18762,2.84436 -0.79177,0.791749 -1.73953,1.187623 -2.84326,1.187623 -1.10378,0 -2.0519,-0.395874 -2.84436,-1.187623 -0.7925,-0.791746 -1.18874,-1.739865 -1.18872,-2.84436 l 0,-40.895508 c -2e-5,-0.04829 -0.0235,-0.07246 -0.0703,-0.07251 z"
       id="path2827" />
    <path
       d="m 431.88522,63.196007 c -3e-5,10.560063 -5.376,15.840087 -16.12793,15.840088 -2.92677,-10e-7 -5.7107,-0.40796 -8.3518,-1.223877 -0.95948,-0.288574 -1.72706,-0.852904 -2.30274,-1.692993 -0.57569,-0.840085 -0.86353,-1.788204 -0.86352,-2.844361 -1e-5,-0.767572 0.32372,-1.35534 0.97119,-1.763305 0.64745,-0.407952 1.33154,-0.467645 2.05224,-0.179078 2.39941,0.959479 4.91894,1.439215 7.5586,1.439209 5.99998,6e-6 8.99997,-3.312002 9,-9.936035 -3e-5,-3.071759 -0.7438,-5.339701 -2.23132,-6.803833 -1.48757,-1.464087 -4.00747,-2.292089 -7.5597,-2.484009 -0.86427,-0.04831 -1.60841,-0.384496 -2.23242,-1.008545 -0.62403,-0.623997 -0.93604,-1.368136 -0.93603,-2.232421 -10e-6,-0.864229 0.32408,-1.596284 0.97229,-2.196167 0.64818,-0.599823 1.4044,-0.947357 2.26867,-1.042603 3.26366,-0.191863 5.62755,-1.00778 7.09168,-2.447754 1.46409,-1.439906 2.19614,-3.600548 2.19616,-6.481933 -2e-5,-4.606889 -2.52028,-6.910354 -7.56079,-6.910401 -2.44776,4.7e-5 -4.96729,0.528123 -7.55859,1.584229 -0.72071,0.287154 -1.40516,0.238815 -2.05335,-0.14502 -0.64819,-0.383743 -0.97229,-0.959426 -0.97229,-1.727051 0,-1.007764 0.27612,-1.931713 0.82837,-2.77185 0.55224,-0.840037 1.3081,-1.428537 2.26758,-1.765503 2.78466,-0.91108 5.76122,-1.366646 8.92969,-1.366699 4.46336,5.3e-5 7.89512,1.067923 10.29529,3.203613 2.40011,2.13579 3.60019,5.099898 3.60022,8.892334 -3e-5,6.719273 -2.83231,10.990753 -8.49683,12.814453 -0.0952,2.8e-5 -0.14284,0.04837 -0.14282,0.14502 -2e-5,0.04837 0.0234,0.07254 0.0703,0.07251 6.19187,1.199734 9.28781,5.543724 9.28784,13.031983 z"
       id="path2829" />
  </g>
  <g
     transform="translate(14,-2)"
     id="text3863-8-7"
     style="font-size:40px;font-style:normal;font-weight:normal;text-align:center;text-anchor:middle;fill:#ffffff;fill-opacity:1;stroke:#ffffff;stroke-opacity:1;font-family:IPAGothic;-inkscape-font-specification:IPAGothic">
    <path
       d="m 424.60364,49.830589 3.125,0 0,13.359375 8.125,-13.359375 3.86719,0 -6.67969,10.800782 7.69531,17.207031 -3.88672,0 -5.8789,-14.570313 -3.24219,4.882813 0,9.6875 -3.125,0 z"
       id="path3868-8-0" />
    <path
       d="m 446.02942,58.834496 0.44922,1.484375 c 1.1328,-1.497375 2.3177,-2.246072 3.55469,-2.246094 1.23697,2.2e-5 2.194,0.748719 2.87109,2.246094 1.18488,-1.497375 2.48696,-2.246072 3.90625,-2.246094 2.29165,2.2e-5 3.43748,1.601582 3.4375,4.804687 l 0,14.960938 -2.87109,0 0,-14.414063 c -2e-5,-1.861961 -0.46877,-2.792949 -1.40625,-2.792968 -0.84637,1.9e-5 -1.52997,0.468768 -2.05079,1.40625 -0.29949,0.585954 -0.44923,1.223974 -0.44921,1.914062 l 0,13.886719 -2.79297,0 0,-14.453125 c -1e-5,-1.835919 -0.48178,-2.753887 -1.44532,-2.753906 -1.62761,1.9e-5 -2.44141,1.093768 -2.4414,3.28125 l 0,13.925781 -2.8711,0 0,-19.003906 z"
       id="path3870-5-8" />
  </g>
  <path
     d="m 24.605003,66.59653 c 0.002,0.41062 0.271119,0.82296 0.814439,1.13643 l 46.2777,26.89536 c 0.792596,0.67806 1.842486,1.09855 2.95469,1.09855 2.51843,0 4.56464,-2.04621 4.564636,-4.56464 6e-6,-1.02271 -0.334321,-1.95438 -0.871246,-2.69585 0.01027,-0.0359 0.01263,-0.0853 0.01258,-0.12628 l -3.85753,-6.62283 c 0,0 -33.275779,0 40.311888,1e-5 2.10933,-1e-5 3.84489,-1.74188 3.84523,-3.85089 -1e-5,-3.75652 -1e-5,-11.26954 -1e-5,-11.26954 1e-5,-3.75651 0,-7.51302 0,-11.26954 0,-2.10935 -1.73556,-3.85122 -3.84522,-3.85089 l -40.311871,0 3.857526,-6.62282 c 2.8e-5,-0.0409 -0.002,-0.0905 -0.0126,-0.12628 0.536939,-0.74146 0.87126,-1.67313 0.871258,-2.69585 -2e-6,-2.51843 -2.046207,-4.56463 -4.564638,-4.56463 -1.112204,0 -2.162091,0.42049 -2.954692,1.09854 L 25.419455,65.46011 c -0.543327,0.31346 -0.811911,0.72578 -0.814451,1.13642 z"
     id="path13506-80"
     style="fill:#ffffff;fill-opacity:1;fill-rule:nonzero;stroke:none" />
</svg>
