<?xml version="1.0" encoding="UTF-8" standalone="no"?>
<!-- Created with Inkscape (http://www.inkscape.org/) -->

<svg
   xmlns:dc="http://purl.org/dc/elements/1.1/"
   xmlns:cc="http://creativecommons.org/ns#"
   xmlns:rdf="http://www.w3.org/1999/02/22-rdf-syntax-ns#"
   xmlns:svg="http://www.w3.org/2000/svg"
   xmlns="http://www.w3.org/2000/svg"
   xmlns:sodipodi="http://sodipodi.sourceforge.net/DTD/sodipodi-0.dtd"
   xmlns:inkscape="http://www.inkscape.org/namespaces/inkscape"
   id="svg1890"
   sodipodi:version="0.32"
   inkscape:version="0.48.4 r9939"
   width="500.34357"
   height="500.34357"
   version="1.0"
   sodipodi:docname="AJAX1.svg"
   inkscape:output_extension="org.inkscape.output.svg.inkscape">
  <metadata
     id="metadata1895">
    <rdf:RDF>
      <cc:Work
         rdf:about="">
        <dc:format>image/svg+xml</dc:format>
        <dc:type
           rdf:resource="http://purl.org/dc/dcmitype/StillImage" />
      </cc:Work>
    </rdf:RDF>
  </metadata>
  <defs
     id="defs1893">
    <inkscape:perspective
       sodipodi:type="inkscape:persp3d"
       inkscape:vp_x="0 : 235 : 1"
       inkscape:vp_y="0 : 1000 : 0"
       inkscape:vp_z="470 : 235 : 1"
       inkscape:persp3d-origin="235 : 156.66667 : 1"
       id="perspective10" />
    <inkscape:perspective
       id="perspective2390"
       inkscape:persp3d-origin="372.04724 : 350.78739 : 1"
       inkscape:vp_z="744.09448 : 526.18109 : 1"
       inkscape:vp_y="0 : 1000 : 0"
       inkscape:vp_x="0 : 526.18109 : 1"
       sodipodi:type="inkscape:persp3d" />
    <inkscape:perspective
       id="perspective3168"
       inkscape:persp3d-origin="372.04724 : 350.78739 : 1"
       inkscape:vp_z="744.09448 : 526.18109 : 1"
       inkscape:vp_y="0 : 1000 : 0"
       inkscape:vp_x="0 : 526.18109 : 1"
       sodipodi:type="inkscape:persp3d" />
    <inkscape:perspective
       id="perspective2400"
       inkscape:persp3d-origin="372.04724 : 350.78739 : 1"
       inkscape:vp_z="744.09448 : 526.18109 : 1"
       inkscape:vp_y="0 : 1000 : 0"
       inkscape:vp_x="0 : 526.18109 : 1"
       sodipodi:type="inkscape:persp3d" />
    <inkscape:perspective
       id="perspective2391"
       inkscape:persp3d-origin="372.04724 : 350.78739 : 1"
       inkscape:vp_z="744.09448 : 526.18109 : 1"
       inkscape:vp_y="0 : 1000 : 0"
       inkscape:vp_x="0 : 526.18109 : 1"
       sodipodi:type="inkscape:persp3d" />
  </defs>
  <sodipodi:namedview
     inkscape:window-height="1004"
     inkscape:window-width="1280"
     inkscape:pageshadow="2"
     inkscape:pageopacity="0.0"
     guidetolerance="10.0"
     gridtolerance="10.0"
     objecttolerance="10.0"
     borderopacity="1.0"
     bordercolor="#666666"
     pagecolor="#ffffff"
     id="base"
     inkscape:zoom="1.2451783"
     inkscape:cx="187.20017"
     inkscape:cy="267.55114"
     inkscape:window-x="-8"
     inkscape:window-y="-8"
     inkscape:current-layer="svg1890"
     showgrid="false"
     fit-margin-top="0.2"
     fit-margin-left="0.2"
     fit-margin-right="0.2"
     fit-margin-bottom="0.2"
     inkscape:window-maximized="1"
     showguides="true"
     inkscape:guide-bbox="true" />
  <path
     style="fill:#fcdc0f;fill-opacity:1;fill-rule:nonzero;stroke:none"
     d="m 496.8946,242.33616 c 4.33196,4.33195 4.33196,11.33928 0,15.67124 L 258.00741,496.89459 c -4.33196,4.33196 -11.33929,4.33196 -15.67125,0 L 3.4489761,258.0074 c -4.3319683,-4.33197 -4.3319653,-11.33928 -8e-6,-15.67124 L 242.33617,3.4489582 c 4.33195,-4.33194892 11.33929,-4.33194292 15.67125,1e-5 z"
     id="path5216"
     inkscape:connector-curvature="0"
     sodipodi:nodetypes="sssssssss" />
  <path
     style="fill:#000000;fill-opacity:1;fill-rule:nonzero;stroke:none"
     d="M 250.17179,12.231763 12.231779,250.17177 250.17179,488.1118 488.11181,250.17178 z m 16.73435,30.875126 190.33054,190.330551 c 9.25965,9.25963 9.25965,24.20902 1e-5,33.46868 L 266.90615,457.23668 c -9.25965,9.25963 -24.20908,9.25963 -33.46871,0 L 43.106879,266.90612 c -9.25963,-9.25964 -9.25964,-24.20905 0,-33.46869 L 233.43744,43.106869 c 9.25965,-9.259653 24.20905,-9.25963 33.4687,2e-5 z"
     id="path17826"
     inkscape:connector-curvature="0"
     sodipodi:nodetypes="cccccsssssssss" />
  <path
     inkscape:connector-curvature="0"
     d="m 420.08005,255.23321 c -6.49636,16.84168 -14.13315,24.47845 -16.27145,23.66387 -2.0772,-0.77386 -2.64742,-11.58756 3.80821,-28.46994 6.17052,-15.96598 13.35929,-23.64351 15.88452,-23.72497 0.67204,0.48875 1.03861,0.77386 1.07934,0.83495 1.44589,2.83072 1.20151,12.93165 -4.50062,27.69609 m -42.90857,17.53406 c -4.48023,-3.33981 -6.17051,-15.09028 0.69241,-32.90945 7.18877,-18.7356 13.03345,-25.43561 21.58665,-24.88575 6.67965,0.46838 15.61978,5.90579 20.87389,9.44926 -5.39666,3.33981 -11.54683,13.74621 -15.82343,24.80428 -4.31733,11.26172 -6.7611,23.41948 -4.78571,29.38636 -7.57569,-1.07933 -18.93923,-3.13618 -22.54381,-5.8447 m -35.74015,-47.61281 c -4.82646,12.56506 -6.98512,26.8204 -3.48238,33.78515 -8.32918,-1.07933 -21.54591,-3.33983 -25.63923,-6.43526 -6.04834,-4.58208 -5.60032,-19.99821 1.07933,-37.38973 6.96475,-18.10426 13.44075,-29.14196 24.29517,-28.51067 7.82006,0.50913 18.40974,7.2295 23.88787,11.09881 -7.27023,2.76959 -15.27358,14.82554 -20.14076,27.4517 m -62.0107,-23.90825 c -5.3763,13.97024 -8.12554,29.7733 -4.64316,37.0639 -8.22738,-0.77388 -21.5052,-2.70852 -25.45597,-5.90579 -4.76534,-3.88967 -5.92615,-18.32829 2.72889,-40.8721 7.71823,-19.99819 14.66262,-32.37997 25.43558,-32.13559 7.7997,0.16302 18.18573,7.24985 23.41948,11.20062 -7.47387,3.01399 -16.08816,16.63801 -21.48482,30.64896 m -60.32044,-23.23619 c -6.04833,15.82343 -9.51035,33.56113 -6.08906,41.17756 -8.08482,-0.48875 -21.50518,-1.87355 -25.29303,-5.21339 -4.54135,-4.09331 -5.05046,-19.99819 4.66352,-45.33195 8.45139,-21.9125 16.23073,-36.49365 26.92223,-36.7584 7.90152,-0.16284 18.08389,7.3924 22.95108,11.445 -7.65714,3.25836 -17.02495,18.79668 -23.15474,34.68118 m -37.89881,24.49882 c -7.75898,-14.37752 -23.43985,-43.37695 -24.7432,-45.71889 2.36232,-0.95715 31.68757,-13.15564 48.28486,-20.01858 -5.4985,6.70001 -10.38603,17.2897 -15.49759,30.64897 -5.31521,13.74622 -8.04407,26.06691 -8.04407,35.0885 m 243.90876,21.09789 c -0.0408,0 -0.0408,0 -0.0814,-0.0212 -4.39878,-3.238 -16.31218,-11.36354 -25.35413,-11.97447 -0.40729,-0.062 -0.79423,-0.062 -1.22189,-0.062 -3.9304,-2.93253 -18.61339,-13.21672 -29.08087,-14.01096 -0.77388,-0.0799 -1.5681,-0.0799 -2.36232,-0.0179 -2.66779,-2.11794 -17.90062,-13.62403 -29.12161,-14.31643 -0.79423,-0.062 -1.58845,-0.062 -2.32158,0 -4.969,-3.74711 -17.69698,-12.74834 -27.24806,-13.13527 -0.85533,-0.0408 -1.71064,0 -2.50486,0.0814 -3.13618,-2.62705 -17.35079,-13.9295 -28.24594,-14.17388 -0.32584,0 -0.6313,0 -0.95713,0.0196 -4.13406,-3.462 -17.18788,-13.8073 -27.2277,-13.76657 -0.93677,0 -1.87355,0.0814 -2.8307,0.26473 -3.5842,-3.19727 -16.73984,-14.21459 -27.28877,-13.99059 -1.18117,0.0196 -2.30123,0.16284 -3.38056,0.44804 -0.36657,-0.1434 -0.81459,-0.18329 -1.24225,0.0196 l -60.87027,25.25231 0,-0.77386 -15.53832,0 0,196.66252 15.53832,0 0,-191.16404 28.75503,53.19277 c 0.0814,0.10103 0.18329,0.224 0.26474,0.32584 0.67204,1.64953 1.54772,3.01398 2.68816,3.99149 5.31521,4.74498 22.3605,5.92613 28.97905,6.23161 0.65168,1.54773 1.52735,2.81034 2.56596,3.74712 4.86718,4.15443 20.79243,5.74287 28.10337,6.21126 0.59059,0.95715 1.26263,1.731 2.05685,2.38268 5.55958,4.52098 22.93071,6.33345 29.44745,6.86292 0.73313,1.42553 1.64953,2.62707 2.74925,3.48238 4.96898,3.9304 20.6906,6.00761 28.16446,6.84256 0.73313,1.18116 1.62917,2.17902 2.68814,2.99363 5.7225,4.35805 23.90825,6.7611 30.0584,7.4535 0.79422,1.26261 1.73101,2.34194 2.83071,3.15654 5.47811,4.03222 23.114,6.67963 29.9362,7.55532 0.65167,0.83495 1.30335,1.54772 2.0772,2.09758 6.15016,4.60243 26.94257,6.88328 29.28453,7.14803 0.63131,0.062 1.20151,-0.22402 1.56808,-0.69241 5.6614,-2.11793 12.6058,-13.44074 17.24896,-25.49669 5.55959,-14.54044 8.02371,-30.46568 1.87356,-32.828"
     style="fill:#000000;fill-opacity:1;fill-rule:nonzero;stroke:none"
     id="path41854" />
</svg>
