<?xml version="1.0" encoding="UTF-8" standalone="no"?>
<!-- Created with Inkscape (http://www.inkscape.org/) -->

<svg
   xmlns:dc="http://purl.org/dc/elements/1.1/"
   xmlns:cc="http://creativecommons.org/ns#"
   xmlns:rdf="http://www.w3.org/1999/02/22-rdf-syntax-ns#"
   xmlns:svg="http://www.w3.org/2000/svg"
   xmlns="http://www.w3.org/2000/svg"
   xmlns:sodipodi="http://sodipodi.sourceforge.net/DTD/sodipodi-0.dtd"
   xmlns:inkscape="http://www.inkscape.org/namespaces/inkscape"
   id="svg1890"
   sodipodi:version="0.32"
   inkscape:version="0.48.2 r9819"
   width="450"
   height="450"
   version="1.0"
   sodipodi:docname="AJAX1.svg"
   inkscape:output_extension="org.inkscape.output.svg.inkscape">
  <metadata
     id="metadata1895">
    <rdf:RDF>
      <cc:Work
         rdf:about="">
        <dc:format>image/svg+xml</dc:format>
        <dc:type
           rdf:resource="http://purl.org/dc/dcmitype/StillImage" />
      </cc:Work>
    </rdf:RDF>
  </metadata>
  <defs
     id="defs1893">
    <inkscape:perspective
       sodipodi:type="inkscape:persp3d"
       inkscape:vp_x="0 : 235 : 1"
       inkscape:vp_y="0 : 1000 : 0"
       inkscape:vp_z="470 : 235 : 1"
       inkscape:persp3d-origin="235 : 156.66667 : 1"
       id="perspective10" />
    <inkscape:perspective
       id="perspective2390"
       inkscape:persp3d-origin="372.04724 : 350.78739 : 1"
       inkscape:vp_z="744.09448 : 526.18109 : 1"
       inkscape:vp_y="0 : 1000 : 0"
       inkscape:vp_x="0 : 526.18109 : 1"
       sodipodi:type="inkscape:persp3d" />
    <inkscape:perspective
       id="perspective3168"
       inkscape:persp3d-origin="372.04724 : 350.78739 : 1"
       inkscape:vp_z="744.09448 : 526.18109 : 1"
       inkscape:vp_y="0 : 1000 : 0"
       inkscape:vp_x="0 : 526.18109 : 1"
       sodipodi:type="inkscape:persp3d" />
  </defs>
  <sodipodi:namedview
     inkscape:window-height="1004"
     inkscape:window-width="1280"
     inkscape:pageshadow="2"
     inkscape:pageopacity="0.0"
     guidetolerance="10.0"
     gridtolerance="10.0"
     objecttolerance="10.0"
     borderopacity="1.0"
     bordercolor="#666666"
     pagecolor="#ffffff"
     id="base"
     inkscape:zoom="1.0808511"
     inkscape:cx="225"
     inkscape:cy="225"
     inkscape:window-x="-8"
     inkscape:window-y="-8"
     inkscape:current-layer="svg1890"
     showgrid="false"
     fit-margin-top="0"
     fit-margin-left="0"
     fit-margin-right="0"
     fit-margin-bottom="0"
     inkscape:window-maximized="1" />
  <rect
     style="fill:#ffffff;fill-opacity:1;fill-rule:evenodd;stroke:#0066b3;stroke-width:2.5;stroke-linecap:butt;stroke-linejoin:round;stroke-miterlimit:4;stroke-opacity:1;stroke-dasharray:none;stroke-dashoffset:0;marker:none;visibility:visible;display:inline;overflow:visible;enable-background:accumulate"
     id="rect2385"
     width="447.5"
     height="447.5"
     x="1.25"
     y="1.25"
     rx="33.316483" />
  <rect
     style="fill:#0066b3;fill-opacity:1;fill-rule:evenodd;stroke:none;stroke-width:1.25;marker:none;visibility:visible;display:inline;overflow:visible;enable-background:accumulate"
     id="rect3157"
     width="415"
     height="415"
     x="16.978363"
     y="17.24411"
     rx="22.503939"
     ry="22.503939" />
  <path
     style="fill:#ffffff;fill-opacity:1;fill-rule:evenodd;stroke:none;stroke-width:3;marker:none;visibility:visible;display:inline;overflow:visible;enable-background:accumulate"
     d="m 93.73587,126.84827 c 0,0 28.87281,-49.873017 41.72219,-49.873017 42.71724,0 91.97822,0 128.84351,0 10.45688,0 36.90603,49.873017 36.90603,49.873017 0,0 11.96953,10.61282 11.96953,23.43298 0,20.53902 0,28.86834 0,49.55275 0,13.70774 -11.96953,18.78061 -11.96953,18.78061 0,0 0,7.75439 0,15.95937 0,5.64601 -7.3219,9.9746 -15.95936,9.9746 -7.64194,0 -13.96444,-3.33012 -13.96444,-9.9746 0,-6.87067 0,-21.94413 0,-21.94413 l -145.62921,0 c 0,0 0,11.42251 0,19.94921 0,8.07062 -5.89382,11.96952 -11.96952,11.96952 -10.14093,0 -15.95936,-5.57541 -15.95936,-11.96952 0,-9.18072 0,-13.96445 0,-13.96445 0,0 -15.959367,-4.20107 -15.959367,-17.45555 0,-20.58983 0,-37.8834 0,-52.03908 0,-11.9522 11.969527,-22.27171 11.969527,-22.27171 z"
     id="path3174"
     sodipodi:nodetypes="csscsscsssccssscssc"
     inkscape:connector-curvature="0" />
  <path
     style="fill:#0066b3;fill-opacity:1;fill-rule:evenodd;stroke:none;stroke-width:3;marker:none;visibility:visible;display:inline;overflow:visible;enable-background:accumulate"
     d="m 111.69015,126.84827 c 3.31659,-18.07555 20.69494,-40.895875 27.34459,-40.895875 33.33959,0 87.98722,0 121.36256,0 6.37617,0 22.55045,24.171805 24.85094,40.895875 0,0 -173.55809,0 -173.55809,0 z"
     id="path3176"
     sodipodi:nodetypes="cssss"
     inkscape:connector-curvature="0" />
  <rect
     style="fill:#0066b3;fill-opacity:1;fill-rule:evenodd;stroke:none;stroke-width:3;marker:none;visibility:visible;display:inline;overflow:visible;enable-background:accumulate"
     id="rect3178"
     width="12.468254"
     height="23.939047"
     x="291.23291"
     y="153.77969"
     rx="6.234127"
     ry="6.234127" />
  <rect
     style="fill:#0066b3;fill-opacity:1;fill-rule:evenodd;stroke:none;stroke-width:3;marker:none;visibility:visible;display:inline;overflow:visible;enable-background:accumulate"
     id="rect3184"
     width="63.338726"
     height="30.921265"
     x="169.5428"
     y="164.75174"
     rx="3.4974601"
     ry="3.4974604" />
  <rect
     style="fill:#0066b3;fill-opacity:1;fill-rule:evenodd;stroke:none;stroke-width:3;marker:none;visibility:visible;display:inline;overflow:visible;enable-background:accumulate"
     id="rect3186"
     width="197.99588"
     height="7.979682"
     x="102.21437"
     y="189.68828"
     ry="3.989841"
     rx="3.989841" />
  <path
     style="fill:#ffffff;fill-opacity:1;fill-rule:evenodd;stroke:none;stroke-width:3;marker:none;visibility:visible;display:inline;overflow:visible;enable-background:accumulate"
     d="m 170.54031,246.5435 16.95682,0 -106.728247,114.70793 -37.90349,0 L 170.54031,246.5435 z"
     id="path3188"
     sodipodi:nodetypes="ccccc"
     inkscape:connector-curvature="0" />
  <path
     style="fill:#ffffff;fill-opacity:1;fill-rule:evenodd;stroke:none;stroke-width:3;marker:none;visibility:visible;display:inline;overflow:visible;enable-background:accumulate"
     d="m 306.19491,247.54096 13.96444,0 98.74853,108.72317 -29.9238,0 -82.78917,-108.72317 z"
     id="path3190"
     sodipodi:nodetypes="ccccc"
     inkscape:connector-curvature="0" />
  <path
     style="fill:#ffffff;fill-opacity:1;fill-rule:evenodd;stroke:none;stroke-width:3;marker:none;visibility:visible;display:inline;overflow:visible;enable-background:accumulate"
     d="m 136.62666,264.49779 10.97206,-7.97969 196.49968,0 9.9746,7.97969 -217.44634,0 z"
     id="path3192"
     sodipodi:nodetypes="ccccc"
     inkscape:connector-curvature="0" />
  <path
     style="fill:#ffffff;fill-opacity:1;fill-rule:evenodd;stroke:none;stroke-width:3;marker:none;visibility:visible;display:inline;overflow:visible;enable-background:accumulate"
     d="m 101.71555,294.42159 15.95936,-12.96698 251.35997,0 12.967,12.96698 -280.28633,0 z"
     id="path3194"
     sodipodi:nodetypes="ccccc"
     inkscape:connector-curvature="0" />
  <path
     style="fill:#ffffff;fill-opacity:1;fill-rule:evenodd;stroke:none;stroke-width:3;marker:none;visibility:visible;display:inline;overflow:visible;enable-background:accumulate"
     d="m 51.842533,335.31747 22.94159,-17.95429 327.166957,0 19.9492,17.95429 -370.057747,0 z"
     id="path3196"
     sodipodi:nodetypes="ccccc"
     inkscape:connector-curvature="0" />
  <rect
     ry="6.234127"
     rx="6.234127"
     y="153.77969"
     x="92.738358"
     height="23.939047"
     width="12.468254"
     id="rect3198"
     style="fill:#0066b3;fill-opacity:1;fill-rule:evenodd;stroke:none;stroke-width:3;marker:none;visibility:visible;display:inline;overflow:visible;enable-background:accumulate" />
</svg>
