<?xml version="1.0" encoding="UTF-8" standalone="no"?>
<!-- Created with Inkscape (http://www.inkscape.org/) -->

<svg
   xmlns:osb="http://www.openswatchbook.org/uri/2009/osb"
   xmlns:dc="http://purl.org/dc/elements/1.1/"
   xmlns:cc="http://creativecommons.org/ns#"
   xmlns:rdf="http://www.w3.org/1999/02/22-rdf-syntax-ns#"
   xmlns:svg="http://www.w3.org/2000/svg"
   xmlns="http://www.w3.org/2000/svg"
   xmlns:xlink="http://www.w3.org/1999/xlink"
   xmlns:sodipodi="http://sodipodi.sourceforge.net/DTD/sodipodi-0.dtd"
   xmlns:inkscape="http://www.inkscape.org/namespaces/inkscape"
   version="1.1"
   width="1090.4"
   height="625.40002"
   id="svg2"
   xml:space="preserve"
   inkscape:version="0.48.4 r9939"
   sodipodi:docname="AJAX1.svg"><sodipodi:namedview
     pagecolor="#ffffff"
     bordercolor="#666666"
     borderopacity="1"
     objecttolerance="10"
     gridtolerance="10"
     guidetolerance="10"
     inkscape:pageopacity="0"
     inkscape:pageshadow="2"
     inkscape:window-width="1280"
     inkscape:window-height="1004"
     id="namedview28"
     showgrid="false"
     fit-margin-top="0.2"
     fit-margin-left="0.2"
     fit-margin-right="0.2"
     fit-margin-bottom="0.2"
     inkscape:zoom="0.35355339"
     inkscape:cx="668.31383"
     inkscape:cy="-161.5339"
     inkscape:window-x="-8"
     inkscape:window-y="-8"
     inkscape:window-maximized="1"
     inkscape:current-layer="svg2" /><metadata
     id="metadata8"><rdf:RDF><cc:Work
         rdf:about=""><dc:format>image/svg+xml</dc:format><dc:type
           rdf:resource="http://purl.org/dc/dcmitype/StillImage" /></cc:Work></rdf:RDF></metadata><defs
     id="defs6"><linearGradient
       id="linearGradient15703"
       osb:paint="solid"><stop
         style="stop-color:#ffffff;stop-opacity:1;"
         offset="0"
         id="stop15705" /></linearGradient><linearGradient
       inkscape:collect="always"
       xlink:href="#linearGradient15703"
       id="linearGradient15707"
       x1="-37.125"
       y1="465.375"
       x2="967.87512"
       y2="465.375"
       gradientUnits="userSpaceOnUse"
       gradientTransform="translate(961.6578,56.04101)" /></defs><g
     id="g2991"
     transform="matrix(34.167339,0,0,34.167339,44.9692,29.01028)" /><path
     style="font-size:medium;font-style:normal;font-variant:normal;font-weight:normal;font-stretch:normal;text-indent:0;text-align:start;text-decoration:none;line-height:normal;letter-spacing:normal;word-spacing:normal;text-transform:none;direction:ltr;block-progression:tb;writing-mode:lr-tb;text-anchor:start;baseline-shift:baseline;color:#000000;fill:#0066b3;fill-opacity:1;fill-rule:nonzero;stroke:none;stroke-width:60;marker:none;visibility:visible;display:inline;overflow:visible;enable-background:accumulate;font-family:Sans;-inkscape-font-specification:Sans"
     d="m 1003.5437,625.2 c 47.5318,0 86.6563,-39.1245 86.6563,-86.65625 l 0,-451.6875 C 1090.2,39.32334 1051.0742,0.2 1003.5437,0.2 L 86.8563,0.2 C 39.3258,0.2 0.2,39.32336 0.2,86.85625 l 0,451.6875 C 0.2,586.07546 39.3245,625.2 86.8563,625.2 z"
     id="path3967"
     inkscape:connector-curvature="0"
     sodipodi:nodetypes="sssssssss" /><path
     sodipodi:nodetypes="sssssssss"
     inkscape:connector-curvature="0"
     id="path4012"
     d="m 1003.5437,595.2 c 31.1185,0 56.6563,-25.53771 56.6563,-56.65625 l 0,-451.6875 C 1060.2,55.73644 1034.6614,30.2 1003.5437,30.2 l -916.6874,0 C 55.7386,30.2 30.2,55.73645 30.2,86.85625 l 0,451.6875 C 30.2,569.66228 55.7377,595.2 86.8563,595.2 z"
     style="font-size:medium;font-style:normal;font-variant:normal;font-weight:normal;font-stretch:normal;text-indent:0;text-align:start;text-decoration:none;line-height:normal;letter-spacing:normal;word-spacing:normal;text-transform:none;direction:ltr;block-progression:tb;writing-mode:lr-tb;text-anchor:start;baseline-shift:baseline;color:#000000;fill:#ffffff;fill-opacity:1;fill-rule:nonzero;stroke:none;stroke-width:30;marker:none;visibility:visible;display:inline;overflow:visible;enable-background:accumulate;font-family:Sans;-inkscape-font-specification:Sans" /><path
     sodipodi:nodetypes="sssssssss"
     id="path4014"
     style="fill:#0066b3;fill-opacity:1;fill-rule:nonzero;stroke:none"
     d="M 86.8668,580.2 C 63.8548,580.2 45.2,561.5452 45.2,538.53324 l 0,-451.66688 c 0,-23.01392 18.6548,-41.66674 41.6668,-41.66674 l 916.6665,0 c 23.0119,0 41.6667,18.65282 41.6667,41.66674 l 0,451.66688 c 0,23.01196 -18.6548,41.66676 -41.6667,41.66676 z"
     inkscape:connector-curvature="0" /><path
     sodipodi:nodetypes="ccccccsssscccccc"
     inkscape:connector-curvature="0"
     id="path4055"
     d="m 131.7632,312.74983 c -0.005,-1.1942 0.75309,-2.3847 2.3125,-3.3125 l 297.53005,-175.0301 c 25.74012,-11.8436 49.53581,-23.7684 65.40625,-7.9375 15.87044,15.8705 1.92699,41.6534 -5.96875,51.5625 -7.93522,9.8697 -53.53125,73.2188 -53.53125,73.2188 l 514.625,0 c 3.55308,0 6.5,3.0012 6.5,6.5937 l 0,109.71 c 0,3.5926 -2.94692,6.5938 -6.5,6.5938 l -514.625,0 c 0,0 45.59603,63.3491 53.53125,73.2187 7.89574,9.9092 21.83919,35.6921 5.96875,51.5625 -15.87044,15.831 -39.66613,3.9062 -65.40625,-7.9375 L 134.0757,316.06233 c -1.55941,-0.9277 -2.31744,-2.1182 -2.3125,-3.3125 z"
     style="fill:#ffffff;fill-opacity:1;fill-rule:nonzero;stroke:none" /></svg>