<?xml version="1.0" encoding="UTF-8" standalone="no"?>
<!-- Created with Inkscape (http://www.inkscape.org/) -->

<svg
   xmlns:dc="http://purl.org/dc/elements/1.1/"
   xmlns:cc="http://creativecommons.org/ns#"
   xmlns:rdf="http://www.w3.org/1999/02/22-rdf-syntax-ns#"
   xmlns:svg="http://www.w3.org/2000/svg"
   xmlns="http://www.w3.org/2000/svg"
   xmlns:sodipodi="http://sodipodi.sourceforge.net/DTD/sodipodi-0.dtd"
   xmlns:inkscape="http://www.inkscape.org/namespaces/inkscape"
   id="svg1890"
   sodipodi:version="0.32"
   inkscape:version="0.48.4 r9939"
   width="500.34357"
   height="500.34357"
   version="1.0"
   sodipodi:docname="AJAX1.svg"
   inkscape:output_extension="org.inkscape.output.svg.inkscape">
  <metadata
     id="metadata1895">
    <rdf:RDF>
      <cc:Work
         rdf:about="">
        <dc:format>image/svg+xml</dc:format>
        <dc:type
           rdf:resource="http://purl.org/dc/dcmitype/StillImage" />
      </cc:Work>
    </rdf:RDF>
  </metadata>
  <defs
     id="defs1893">
    <inkscape:perspective
       sodipodi:type="inkscape:persp3d"
       inkscape:vp_x="0 : 235 : 1"
       inkscape:vp_y="0 : 1000 : 0"
       inkscape:vp_z="470 : 235 : 1"
       inkscape:persp3d-origin="235 : 156.66667 : 1"
       id="perspective10" />
    <inkscape:perspective
       id="perspective2390"
       inkscape:persp3d-origin="372.04724 : 350.78739 : 1"
       inkscape:vp_z="744.09448 : 526.18109 : 1"
       inkscape:vp_y="0 : 1000 : 0"
       inkscape:vp_x="0 : 526.18109 : 1"
       sodipodi:type="inkscape:persp3d" />
    <inkscape:perspective
       id="perspective3168"
       inkscape:persp3d-origin="372.04724 : 350.78739 : 1"
       inkscape:vp_z="744.09448 : 526.18109 : 1"
       inkscape:vp_y="0 : 1000 : 0"
       inkscape:vp_x="0 : 526.18109 : 1"
       sodipodi:type="inkscape:persp3d" />
    <inkscape:perspective
       id="perspective2400"
       inkscape:persp3d-origin="372.04724 : 350.78739 : 1"
       inkscape:vp_z="744.09448 : 526.18109 : 1"
       inkscape:vp_y="0 : 1000 : 0"
       inkscape:vp_x="0 : 526.18109 : 1"
       sodipodi:type="inkscape:persp3d" />
    <inkscape:perspective
       id="perspective2391"
       inkscape:persp3d-origin="372.04724 : 350.78739 : 1"
       inkscape:vp_z="744.09448 : 526.18109 : 1"
       inkscape:vp_y="0 : 1000 : 0"
       inkscape:vp_x="0 : 526.18109 : 1"
       sodipodi:type="inkscape:persp3d" />
  </defs>
  <sodipodi:namedview
     inkscape:window-height="1004"
     inkscape:window-width="1280"
     inkscape:pageshadow="2"
     inkscape:pageopacity="0.0"
     guidetolerance="10.0"
     gridtolerance="10.0"
     objecttolerance="10.0"
     borderopacity="1.0"
     bordercolor="#666666"
     pagecolor="#ffffff"
     id="base"
     inkscape:zoom="1.2451783"
     inkscape:cx="187.20017"
     inkscape:cy="267.55114"
     inkscape:window-x="-8"
     inkscape:window-y="-8"
     inkscape:current-layer="svg1890"
     showgrid="false"
     fit-margin-top="0.2"
     fit-margin-left="0.2"
     fit-margin-right="0.2"
     fit-margin-bottom="0.2"
     inkscape:window-maximized="1"
     showguides="true"
     inkscape:guide-bbox="true" />
  <path
     style="fill:#fcdc0f;fill-opacity:1;fill-rule:nonzero;stroke:none"
     d="m 496.8946,242.33616 c 4.33196,4.33195 4.33196,11.33928 0,15.67124 L 258.00741,496.89459 c -4.33196,4.33196 -11.33929,4.33196 -15.67125,0 L 3.4489759,258.0074 c -4.33196802,-4.33197 -4.33196502,-11.33928 -8e-6,-15.67124 L 242.33617,3.4489586 c 4.33195,-4.33194945 11.33929,-4.33194345 15.67125,1e-5 z"
     id="path5216"
     inkscape:connector-curvature="0"
     sodipodi:nodetypes="sssssssss" />
  <path
     style="fill:#000000;fill-opacity:1;fill-rule:nonzero;stroke:none"
     d="M 250.17179,12.231763 12.231779,250.17177 250.17179,488.1118 488.11181,250.17178 z m 16.73435,30.875126 190.33054,190.330551 c 9.25965,9.25963 9.25965,24.20902 1e-5,33.46868 L 266.90615,457.23668 c -9.25965,9.25963 -24.20908,9.25963 -33.46871,0 L 43.106879,266.90612 c -9.25963,-9.25964 -9.25964,-24.20905 0,-33.46869 L 233.43744,43.106869 c 9.25965,-9.259653 24.20905,-9.25963 33.4687,2e-5 z"
     id="path17826"
     inkscape:connector-curvature="0"
     sodipodi:nodetypes="cccccsssssssss" />
  <path
     inkscape:connector-curvature="0"
     d="m 288.63285,216.69352 c 2.91695,-0.81594 9.91359,-5.83394 8.03695,-9.70961 -2.38661,-5.07921 -10.74994,-8.42455 -15.42117,-10.52557 -2.16221,-0.97912 -9.54643,-4.93641 -11.76985,-2.89657 -2.10102,1.89705 7.52701,11.25991 10.11758,15.09479 2.01944,3.03937 4.34485,9.36284 9.03649,8.03696 m -54.01486,44.32563 c 7.4046,-4.32444 23.5805,-12.99375 18.46052,-20.96951 -9.60763,-14.8908 -26.86465,-24.47804 -27.10943,-22.56059 -1.57066,11.1579 4.69164,18.66451 5.79315,22.56059 1.83585,6.83346 1.59107,14.17686 2.85576,20.96951 m -11.05592,9.38325 -19.99037,10.26036 c 1.10151,1.89706 3.69209,7.46581 -0.95874,9.87281 -4.79362,2.4478 -17.13461,4.58964 -21.96902,2.81497 1.26469,7.30261 1.79504,15.09479 2.99856,21.72426 1.75425,9.64843 6.2623,21.05111 13.21813,25.15118 1.2443,0.77513 3.8145,0.34759 5.16079,0.65274 1.20349,0.26599 4.32444,-4.28365 5.56875,-4.58963 5.22198,-1.52907 10.83152,-1.2239 12.4634,-8.22054 1.63186,-6.83344 -1.75427,-32.00502 3.5085,-57.66615 m 82.83774,70.94548 c 2.10104,-1.12109 0.89752,-5.36476 3.50852,-5.83392 3.7125,-0.61195 6.56828,-4.03887 4.71202,-6.48669 -12.97335,-21.0715 -32.67817,-62.80654 -37.94094,-63.92846 -1.3871,-0.30678 -2.63139,-0.69353 -6.3235,0.54995 -10.07679,3.46772 -27.2522,12.66738 -31.22987,19.60282 -5.99714,10.58674 -2.7334,38.12453 -3.34535,56.09549 l 70.61912,0 z m 56.11588,-0.24478 0,9.24047 c 0,0 -222.46449,-0.0409 -224.68791,0 1.2443,-18.50131 10.56635,-34.65682 19.23565,-50.75112 4.28365,-8.03695 6.09911,-11.46388 15.38036,-12.07583 0,0 4.32446,0.42918 6.2011,2.85577 0.73434,-4.81401 10.23998,-14.31964 15.23759,-16.84905 4.34484,-2.28462 7.2618,2.34582 8.36331,4.50803 l 18.95008,-9.56683 c 2.32541,-22.03021 -10.40316,-39.6136 -16.52266,-59.23682 -1.83585,-5.56875 -1.42789,-12.76938 2.2846,-17.72618 3.7329,-4.32446 10.74994,-6.99664 9.50564,-11.97384 -1.87665,-4.32444 -8.6897,-4.93639 -11.79024,-8.6285 -0.59157,-1.26471 -1.67267,-5.77274 -1.67267,-5.77274 -8.01655,-4.99761 -9.42404,-12.19822 -4.50805,-19.64363 6.81305,-8.64888 21.45907,-10.70913 27.61939,-0.81592 5.01799,8.07775 -1.61148,21.25509 5.16079,22.47899 13.01414,1.87664 11.46387,-3.05976 23.94766,1.4491 17.76697,6.40507 48.65008,18.41971 61.92942,29.92439 12.78977,11.15791 -19.21526,30.96472 -22.07102,34.47324 0.59155,4.52843 19.35804,61.48065 21.21429,63.33689 9.93401,10.93352 13.6465,25.9875 23.29493,44.12166 0.24478,0.22518 0.46916,0.42917 0.63234,0.65274 l 22.2954,0"
     style="fill:#000000;fill-opacity:1;fill-rule:nonzero;stroke:none"
     id="path41806"
     sodipodi:nodetypes="cccccccccccccccccccccccccccccccccccccccccccccccccccccc" />
</svg>
