<?xml version="1.0" encoding="UTF-8" standalone="no"?>
<!-- Created with Inkscape (http://www.inkscape.org/) -->

<svg
   xmlns:svg="http://www.w3.org/2000/svg"
   xmlns="http://www.w3.org/2000/svg"
   version="1.2"
   width="450"
   height="675"
   id="svg1890">
  <defs
     id="defs1893" />
  <rect
     width="447.5"
     height="672.5"
     rx="33.316483"
     x="1.25"
     y="1.25"
     id="rect2385"
     style="fill:#ffffff;fill-opacity:1;fill-rule:evenodd;stroke:#0066b3;stroke-width:2.5;stroke-linecap:butt;stroke-linejoin:round;stroke-miterlimit:4;stroke-opacity:1;stroke-dasharray:none;stroke-dashoffset:0;marker:none;visibility:visible;display:inline;overflow:visible;enable-background:accumulate" />
  <rect
     width="415"
     height="640"
     rx="22.503939"
     ry="22.503939"
     x="16.978363"
     y="17.24411"
     id="rect3157"
     style="fill:#0066b3;fill-opacity:1;fill-rule:evenodd;stroke:none;stroke-width:1.25;marker:none;visibility:visible;display:inline;overflow:visible;enable-background:accumulate" />
  <path
     d="m 322.24576,46.321195 0,457.068635 -123.94068,0 0,-62.92373 c -0.0566,-11.68789 -13.35065,-17.34593 -22.16631,-22.16631 l -43.28051,-19.3301 c -12.23793,-6.61734 -25.89844,-17.22652 -25.12521,-34.77477 l 0,-180.19068 c -0.0651,-16.22993 9.25954,-24.46213 17.16102,-29.55509 l 54.34322,-25.74152 c 15.76998,-5.91062 19.23072,-20.56239 19.06779,-32.415257 l 0,-50.529661 123.94068,0.558483 z"
     id="path2846"
     style="fill:#ffffff;stroke:#ffffff;stroke-width:1px;stroke-linecap:butt;stroke-linejoin:miter;stroke-opacity:1" />
  <path
     d="m 136.35077,580.87805 -4.86145,0 c -0.54024,4e-5 -0.81032,0.23991 -0.81024,0.71961 l 0,6.83899 c -8e-5,0.47976 0.27,0.71963 0.81024,0.7196 l 4.86145,0 c 1.13883,3e-5 2.0983,0.39005 2.87842,1.17004 0.77994,0.78006 1.16995,1.73999 1.17004,2.8798 -9e-5,1.13985 -0.3901,2.09978 -1.17004,2.87979 -0.78012,0.78005 -1.73959,1.17006 -2.87842,1.17004 l -4.86145,0 c -0.54024,2e-5 -0.81032,0.23989 -0.81024,0.7196 l 0,16.56189 c -8e-5,2.27967 -0.0298,4.04938 -0.0893,5.30915 -0.0596,1.25976 -0.28434,2.47467 -0.67428,3.64471 -0.39009,1.17004 -0.82497,1.99493 -1.30463,2.47467 -0.47981,0.47973 -1.3047,0.91461 -2.47467,1.30463 -1.17011,0.39001 -2.43034,0.61523 -3.78067,0.67566 -1.35047,0.0604 -3.19571,0.0906 -5.53574,0.0906 -2.27972,-10e-6 -4.2893,-0.0604 -6.02874,-0.18128 -1.14081,-0.0586 -2.10119,-0.50812 -2.88117,-1.34857 -0.78008,-0.84046 -1.20031,-1.83014 -1.26068,-2.96906 -0.0587,-1.08032 0.30161,-1.99539 1.08078,-2.7452 0.77906,-0.74982 1.70878,-1.09543 2.78916,-1.03684 2.88018,0.12085 4.44024,0.18128 4.68017,0.18127 2.76117,10e-6 4.38165,-0.22521 4.86145,-0.67565 0.47967,-0.45044 0.71954,-1.93543 0.71961,-4.45496 l 0,-16.83106 c -7e-5,-0.47971 -0.23994,-0.71958 -0.71961,-0.7196 l -33.21167,0 c -1.13895,2e-5 -2.09842,-0.38999 -2.87842,-1.17004 -0.78006,-0.78001 -1.17007,-1.73994 -1.17004,-2.87979 -3e-5,-1.13981 0.38998,-2.09974 1.17004,-2.8798 0.78,-0.77999 1.73947,-1.17001 2.87842,-1.17004 l 33.21167,0 c 0.47967,3e-5 0.71954,-0.23984 0.71961,-0.7196 l 0,-6.83899 c -7e-5,-0.4797 -0.23994,-0.71957 -0.71961,-0.71961 l -30.06134,0 c -1.13895,4e-5 -2.09842,-0.40508 -2.87842,-1.21536 -0.78006,-0.8102 -1.17007,-1.78524 -1.17004,-2.92511 -3e-5,-1.13979 0.38998,-2.08507 1.17004,-2.83585 0.78,-0.75068 1.73947,-1.12605 2.87842,-1.1261 l 15.47974,0 c 0.47968,5e-5 0.71955,-0.26911 0.7196,-0.80749 l 0,-8.37158 c -5e-5,-0.47968 -0.23992,-0.71955 -0.7196,-0.71961 l -15.57038,0 c -1.07852,6e-5 -2.00778,-0.38995 -2.78778,-1.17004 -0.78006,-0.77997 -1.17007,-1.71015 -1.17004,-2.79053 -3e-5,-1.08026 0.38998,-2.01043 1.17004,-2.79053 0.78,-0.77996 1.70926,-1.16997 2.78778,-1.17004 l 15.57038,0 c 0.47968,7e-5 0.71955,-0.2398 0.7196,-0.7196 l 0,-3.32886 c -5e-5,-1.38055 0.48014,-2.55059 1.44058,-3.51013 0.96034,-0.9594 2.13038,-1.43914 3.51014,-1.43921 1.37964,7e-5 2.54968,0.47981 3.51013,1.43921 0.96032,0.95954 1.44052,2.12958 1.44058,3.51013 l 0,3.32886 c -6e-5,0.4798 0.23981,0.71967 0.7196,0.7196 l 15.57038,0 c 1.08024,7e-5 2.01042,0.39008 2.79053,1.17004 0.77994,0.7801 1.16996,1.71027 1.17004,2.79053 -8e-5,1.08038 -0.3901,2.01056 -1.17004,2.79053 -0.78011,0.78009 -1.71029,1.1701 -2.79053,1.17004 l -15.57038,0 c -0.47979,6e-5 -0.71966,0.23993 -0.7196,0.71961 l 0,8.37158 c -6e-5,0.53838 0.23981,0.80754 0.7196,0.80749 l 19.53095,0 c 1.13883,5e-5 2.0983,0.37542 2.87842,1.1261 0.77994,0.75078 1.16995,1.69606 1.17004,2.83585 -9e-5,1.13987 -0.3901,2.11491 -1.17004,2.92511 -0.78012,0.81028 -1.73959,1.2154 -2.87842,1.21536 z M 61.470703,561.88544 c 5.460197,-3.71881 10.019517,-7.85791 13.677977,-12.4173 0.78001,-0.96123 1.75504,-1.54671 2.92511,-1.75644 1.17002,-0.20958 2.26545,-0.0146 3.28629,0.58502 1.02078,0.59974 1.63602,1.45485 1.8457,2.56531 0.20963,1.1106 -0.0453,2.11539 -0.76492,3.01437 -4.80105,6.11945 -10.56154,11.4295 -17.2815,15.93018 -0.95948,0.66106 -2.009131,0.82631 -3.148954,0.49576 -1.139838,-0.33046 -1.949621,-1.03587 -2.429351,-2.11624 -0.540166,-1.13887 -0.630346,-2.29335 -0.270539,-3.46344 0.359797,-1.16999 1.079858,-2.11573 2.160187,-2.83722 z m 4.320377,33.3023 c -1.20119,1.32022 -2.101148,2.27969 -2.699893,2.87842 -0.840463,0.84048 -1.860817,1.11056 -3.061066,0.81024 -1.200261,-0.30027 -1.950535,-1.05008 -2.250824,-2.24945 -0.419315,-1.43918 -0.389103,-2.89395 0.09064,-4.36432 0.479732,-1.4703 1.320185,-2.68521 2.521362,-3.64471 5.698231,-4.68014 10.617351,-10.17055 14.757381,-16.47125 0.66099,-1.01985 1.56141,-1.66484 2.70127,-1.93497 1.1398,-0.27003 2.21967,-0.10478 3.23959,0.49576 1.01987,0.65923 1.69507,1.55873 2.0256,2.69852 0.33048,1.13987 0.19544,2.21974 -0.40512,3.23959 -1.73953,2.88029 -3.86996,5.88047 -6.39129,9.00055 -0.35891,0.36075 -0.53836,0.81119 -0.53833,1.35132 l 0,37.07885 c -3e-5,1.32019 -0.45001,2.43027 -1.34995,3.33023 -0.89998,0.89996 -2.01006,1.34994 -3.33023,1.34995 -1.32021,-1e-5 -2.44539,-0.44999 -3.37555,-1.34995 -0.93019,-0.89996 -1.39528,-2.01004 -1.39526,-3.33023 l 0,-28.71002 c -2e-5,-0.11899 -0.0751,-0.20871 -0.22522,-0.26916 -0.15016,-0.0604 -0.25453,-0.0302 -0.31311,0.0906 z m 31.31927,6.21003 c 2.40047,2.21925 5.2505,5.06929 8.55011,8.55011 0.8404,0.89905 1.23042,1.96381 1.17005,3.19427 -0.0605,1.23048 -0.54022,2.23572 -1.43921,3.01575 -0.84051,0.78003 -1.84576,1.15494 -3.01575,1.12472 -1.17009,-0.0302 -2.17534,-0.46554 -3.01575,-1.306 -2.69902,-2.94066 -5.51884,-5.76048 -8.45947,-8.45947 -0.84049,-0.84044 -1.27582,-1.83058 -1.306,-2.97043 -0.0302,-1.13981 0.37487,-2.12995 1.21536,-2.97043 0.84042,-0.84043 1.87542,-1.29041 3.10501,-1.34994 1.22952,-0.0595 2.29473,0.33098 3.19565,1.17142 z"
     id="path2853"
     style="font-size:90px;font-style:normal;font-weight:normal;text-align:center;text-anchor:middle;fill:#ffffff;fill-opacity:1;stroke:none;font-family:'Rounded M+ 1m medium';-inkscape-font-specification:'Rounded M+ 1m medium'" />
  <path
     d="m 187.19879,552.70636 c 0.90087,-0.77996 1.96609,-1.13976 3.19565,-1.07941 1.22954,0.0605 2.26454,0.51002 3.10501,1.34857 2.76121,2.88032 5.85112,6.211 9.26972,9.99207 0.78,0.83868 1.12515,1.84301 1.03546,3.013 -0.0898,1.1701 -0.55484,2.14513 -1.39527,2.92511 -0.89907,0.78008 -1.93361,1.11013 -3.10363,0.99014 -1.17007,-0.11988 -2.1451,-0.59916 -2.92511,-1.43783 -3.18056,-3.48078 -6.30067,-6.78125 -9.36036,-9.90143 -0.78003,-0.84039 -1.15494,-1.83053 -1.12472,-2.97043 0.0302,-1.13976 0.46462,-2.09969 1.30325,-2.87979 z m 12.06024,66.15143 c -2.45912,2.34009 -5.30915,4.73968 -8.55011,7.19879 -1.0199,0.7196 -2.09977,0.94436 -3.23959,0.67429 -1.13984,-0.27009 -2.01005,-0.94438 -2.61063,-2.02286 -0.59876,-1.14075 -0.74844,-2.32636 -0.44906,-3.55683 0.29937,-1.23046 0.95992,-2.23571 1.98166,-3.01574 2.39867,-1.67908 4.70854,-3.5083 6.92962,-5.48767 0.4193,-0.42114 0.62896,-0.87158 0.62897,-1.35132 l 0,-21.14868 c -1e-5,-0.54013 -0.27009,-0.81021 -0.81024,-0.81025 l -5.21851,0 c -1.14075,4e-5 -2.11624,-0.38998 -2.92648,-1.17004 -0.81025,-0.78 -1.21537,-1.73993 -1.21536,-2.87979 -1e-5,-1.1398 0.40511,-2.09973 1.21536,-2.87979 0.81024,-0.77999 1.78573,-1.17001 2.92648,-1.17005 l 10.16785,0 c 1.3806,4e-5 2.58085,0.50999 3.60077,1.52985 1.01987,1.01993 1.52982,2.21927 1.52984,3.59802 l 0,13.41156 c -2e-5,0.11904 0.0302,0.17855 0.0906,0.17853 0.0604,2e-5 0.11991,-0.0293 0.17853,-0.0879 3.0615,-6.90122 4.59226,-17.0718 4.59228,-30.51178 l 0,-14.21906 c -2e-5,-1.38054 0.50992,-2.5808 1.52985,-3.60076 1.01987,-1.01983 2.21921,-1.52978 3.59802,-1.52985 l 14.31244,0 c 1.37874,7e-5 2.57808,0.51002 3.59802,1.52985 1.01985,1.01996 1.5298,2.22022 1.52985,3.60076 l 0,17.46003 c -5e-5,1.38066 -0.51,2.58091 -1.52985,3.60077 -1.01994,1.01994 -2.21928,1.52989 -3.59802,1.52984 l -10.0827,0 c -0.53837,5e-5 -0.80753,0.23991 -0.8075,0.71961 -0.18131,3.18058 -0.27194,4.83036 -0.27191,4.94934 -3e-5,0.5402 0.21054,0.81028 0.63172,0.81024 l 10.97809,0 c 1.38056,4e-5 2.58082,0.50998 3.60076,1.52985 1.01985,1.01993 1.5298,2.22018 1.52985,3.60076 l 0,19.888 c -5e-5,1.38063 -0.51,2.58089 -1.52985,3.60077 -1.01994,1.01991 -2.2202,1.52986 -3.60076,1.52985 l -11.06873,0 -2.96906,0 c -1.38064,10e-6 -2.5809,-0.50994 -3.60076,-1.52985 -1.01993,-1.01988 -1.52988,-2.22014 -1.52985,-3.60077 l 0,-0.62896 c -3e-5,-0.47973 -0.18039,-0.89995 -0.54108,-1.26068 l -4.4989,-4.22974 c -0.23989,-0.119 -0.42025,-0.0284 -0.54108,0.27191 l 0,5.12787 c -2e-5,0.54017 0.11992,1.02082 0.35981,1.44196 1.49961,2.45911 3.38971,4.31854 5.67032,5.5783 2.28054,1.25977 5.64052,2.15974 10.07995,2.69989 4.43935,0.54017 10.76976,0.81025 18.99124,0.81025 l 23.31024,0 c 1.07841,0 2.00767,0.42022 2.78779,1.26068 0.77994,0.84045 1.14066,1.80084 1.08215,2.88116 -0.0605,1.13891 -0.51095,2.08328 -1.35132,2.8331 -0.84054,0.74981 -1.83022,1.12472 -2.96905,1.12473 l -23.40088,0 c -10.79961,-10e-6 -19.01967,-0.59968 -24.66019,-1.79901 -5.64059,-1.19935 -9.90008,-3.32978 -12.77847,-6.3913 -0.36074,-0.41931 -0.72146,-0.44861 -1.08216,-0.0879 z m 17.6413,-26.01013 0,12.68921 c -4e-5,0.47975 0.23983,0.71961 0.7196,0.7196 l 6.11939,0 c 0.54012,10e-6 0.8102,-0.23985 0.81024,-0.7196 l 0,-12.68921 c -4e-5,-0.54014 -0.27012,-0.81022 -0.81024,-0.81025 l -6.11939,0 c -0.47977,3e-5 -0.71964,0.27011 -0.7196,0.81025 z m 6.47919,-34.74152 -5.94086,0 c -0.47977,6e-5 -0.71964,0.27014 -0.7196,0.81024 l 0,10.07996 c -4e-5,0.54021 0.23983,0.81029 0.7196,0.81024 l 5.94086,0 c 0.47969,5e-5 0.71956,-0.27003 0.7196,-0.81024 l 0,-10.07996 c -4e-5,-0.5401 -0.23991,-0.81018 -0.7196,-0.81024 z m 37.80121,25.65033 -5.94086,0 c -0.47981,4e-5 -0.71968,0.2399 -0.71961,0.7196 l 0,7.56134 c -7e-5,0.47977 0.2398,0.71964 0.71961,0.71961 l 5.58105,0 c 1.13884,3e-5 2.0832,0.39004 2.8331,1.17004 0.74973,0.78006 1.12464,1.73999 1.12473,2.87979 -9e-5,1.13986 -0.375,2.09979 -1.12473,2.8798 -0.7499,0.78004 -1.69426,1.17006 -2.8331,1.17004 l -5.58105,0 c -0.47981,2e-5 -0.71968,0.23989 -0.71961,0.7196 l 0,9.09119 c -7e-5,1.25977 -0.46516,2.33964 -1.39526,3.23959 -0.93025,0.89997 -2.02522,1.34995 -3.28491,1.34995 -1.25984,0 -2.3397,-0.44998 -3.2396,-1.34995 -0.90002,-0.89995 -1.35001,-1.97982 -1.34994,-3.23959 l 0,-9.09119 c -7e-5,-0.47971 -0.27015,-0.71958 -0.81024,-0.7196 l -5.49042,0 c -1.1408,2e-5 -2.10119,-0.39 -2.88116,-1.17004 -0.78009,-0.78001 -1.1701,-1.73994 -1.17005,-2.8798 -5e-5,-1.1398 0.38996,-2.09973 1.17005,-2.87979 0.77997,-0.78 1.74036,-1.17001 2.88116,-1.17004 l 5.49042,0 c 0.54009,3e-5 0.81017,-0.23984 0.81024,-0.71961 l 0,-7.56134 c -7e-5,-0.4797 -0.27015,-0.71956 -0.81024,-0.7196 l -6.66046,0 c -1.14081,4e-5 -2.08609,-0.38998 -2.83585,-1.17004 -0.74987,-0.77999 -1.12478,-1.73992 -1.12473,-2.8798 -5e-5,-1.13978 0.37486,-2.09971 1.12473,-2.87979 0.74976,-0.77998 1.69504,-1.17 2.83585,-1.17004 l 1.43921,0 c 0.18121,4e-5 0.36157,-0.075 0.54107,-0.22522 0.17939,-0.1501 0.23889,-0.3149 0.17853,-0.49439 -0.65924,-4.80097 -1.46856,-9.39142 -2.42798,-13.77136 -6e-5,-0.23981 -0.1502,-0.35974 -0.45044,-0.3598 -0.66107,6e-5 -1.21633,-0.2247 -1.6658,-0.67429 -0.44958,-0.44946 -0.67434,-1.00473 -0.67429,-1.6658 l 0,-1.70837 c -5e-5,-1.14068 0.37486,-2.10107 1.12473,-2.88117 0.74976,-0.77996 1.69504,-1.16997 2.83585,-1.17004 l 5.85021,0 c 0.47968,7e-5 0.71954,-0.27001 0.71961,-0.81024 -7e-5,-1.2597 0.44992,-2.33956 1.34994,-3.2396 0.8999,-0.89989 1.97976,-1.34987 3.2396,-1.34994 1.32012,7e-5 2.43019,0.45005 3.33023,1.34994 0.89989,0.90004 1.34987,2.01011 1.34994,3.33024 -7e-5,0.4798 0.20958,0.71967 0.62897,0.7196 l 5.67169,0 c 1.13884,7e-5 2.0832,0.39008 2.8331,1.17004 0.74973,0.7801 1.12464,1.74049 1.12473,2.88117 l 0,2.15881 c -9e-5,0.54022 -0.17999,0.99021 -0.53971,1.34995 -0.35988,0.35986 -0.80986,0.53976 -1.34994,0.5397 -0.23995,6e-5 -0.35989,0.0907 -0.3598,0.27191 -0.83871,4.6784 -1.97854,9.32836 -3.4195,13.94989 -0.1191,0.41936 0.0613,0.62901 0.54108,0.62897 l 1.52985,0 c 1.13883,4e-5 2.11341,0.39006 2.92373,1.17004 0.81016,0.78008 1.21528,1.74001 1.21536,2.87979 -8e-5,1.13988 -0.4052,2.09981 -1.21536,2.8798 -0.81032,0.78006 -1.7849,1.17008 -2.92373,1.17004 z m -15.39185,-22.23084 c 1.01983,4.9201 1.79986,9.36041 2.34009,13.32093 0.12078,0.5402 0.39086,0.81028 0.81024,0.81024 l 0.99152,0 c 0.54009,4e-5 0.86968,-0.23982 0.98876,-0.71961 1.44097,-4.91999 2.52129,-9.3905 3.24097,-13.41156 0.0603,-0.17938 3.9e-4,-0.34417 -0.1799,-0.49438 -0.18043,-0.15009 -0.36033,-0.22516 -0.5397,-0.22522 l -7.02027,0 c -0.54022,6e-5 -0.75079,0.23993 -0.63171,0.7196 z"
     id="path2855"
     style="font-size:90px;font-style:normal;font-weight:normal;text-align:center;text-anchor:middle;fill:#ffffff;fill-opacity:1;stroke:none;font-family:'Rounded M+ 1m medium';-inkscape-font-specification:'Rounded M+ 1m medium'" />
  <path
     d="m 312.56982,558.28741 c -0.78003,-0.77996 -1.17005,-1.7701 -1.17004,-2.97042 -1e-5,-1.20019 0.39001,-2.19034 1.17004,-2.97043 0.78003,-0.77996 1.76971,-1.16998 2.96906,-1.17005 l 31.50055,0 c 1.20113,7e-5 2.19173,0.39009 2.9718,1.17005 0.77998,0.78009 1.17,1.77024 1.17004,2.97043 -4e-5,1.20032 -0.39006,2.19046 -1.17004,2.97042 -0.78007,0.7801 -1.77067,1.17011 -2.9718,1.17005 l -31.50055,0 c -1.19935,6e-5 -2.18903,-0.38995 -2.96906,-1.17005 z m 11.87897,41.58051 c -0.41933,10.07997 -1.85854,18.20984 -4.31763,24.38965 -0.48158,1.19933 -1.35224,2.02422 -2.61199,2.47467 -1.25978,0.45043 -2.45958,0.3456 -3.5994,-0.31448 -1.13984,-0.66011 -1.94962,-1.63514 -2.42935,-2.92511 -0.47974,-1.28998 -0.47974,-2.56485 0,-3.82462 2.64037,-7.26012 3.96056,-18.0908 3.96057,-32.49207 l 0,-15.20782 c -10e-6,-1.38057 0.50994,-2.58082 1.52984,-3.60077 1.01989,-1.01984 2.21923,-1.52979 3.59803,-1.52985 l 23.76068,0 c 1.38057,6e-5 2.56572,0.51001 3.55545,1.52985 0.98964,1.01995 1.48448,2.2202 1.48453,3.60077 l 0,21.95892 c -5e-5,1.38064 -0.49489,2.5809 -1.48453,3.60077 -0.98973,1.01992 -2.17488,1.52987 -3.55545,1.52985 l -19.08051,0 c -0.54018,2e-5 -0.81026,0.2701 -0.81024,0.81024 z m 0.27191,-24.3924 0,14.94141 c -2e-5,0.47977 0.23985,0.71964 0.71961,0.71961 l 14.66949,0 c 0.54013,3e-5 0.81021,-0.23984 0.81024,-0.71961 l 0,-14.94141 c -3e-5,-0.47969 -0.27011,-0.71955 -0.81024,-0.7196 l -14.66949,0 c -0.47976,5e-5 -0.71963,0.23991 -0.71961,0.7196 z m 39.96003,-12.86773 c -0.12091,5.09954 -0.24085,8.93926 -0.35981,11.51916 -6e-5,0.47979 0.23981,0.71965 0.71961,0.71961 l 23.12896,0 c 1.14067,4e-5 2.13081,0.42027 2.97043,1.26068 0.83946,0.8405 1.25922,1.86039 1.25931,3.05969 -9e-5,1.14079 -0.41985,2.13093 -1.25931,2.97043 -0.83962,0.83958 -1.82976,1.25934 -2.97043,1.25931 l -3.77929,0 c -0.47982,3e-5 -0.71968,0.27012 -0.71961,0.81024 l 0,39.14978 c -7e-5,1.25976 -0.46516,2.33962 -1.39526,3.23959 -0.93025,0.89996 -2.02522,1.34994 -3.28491,1.34995 -1.25984,-10e-6 -2.3397,-0.44999 -3.2396,-1.34995 -0.90003,-0.89997 -1.35001,-1.97983 -1.34994,-3.23959 l 0,-39.14978 c -7e-5,-0.54012 -0.23994,-0.81021 -0.71961,-0.81024 l -9.18182,0 c -0.54022,3e-5 -0.8103,0.2399 -0.81024,0.7196 -0.83868,9.29996 -2.26324,16.91988 -4.27368,22.8598 -2.01055,5.93995 -4.87615,11.34064 -8.5968,16.20209 -0.78008,0.95947 -1.78487,1.51428 -3.01438,1.66443 -1.22959,0.15014 -2.3241,-0.19501 -3.28354,-1.03546 -0.96134,-0.78003 -1.50196,-1.79993 -1.62185,-3.05969 -0.11997,-1.25977 0.18078,-2.3703 0.90225,-3.33161 4.25899,-5.8795 7.27336,-13.03434 9.04312,-21.46454 1.76967,-8.43014 2.71495,-20.65516 2.83585,-36.67511 -5e-5,-1.43914 0.48014,-2.69891 1.44058,-3.77929 0.96033,-1.08026 2.16013,-1.67993 3.59939,-1.79901 8.58026,-0.90082 16.35034,-2.37115 23.31025,-4.41101 1.13883,-0.36065 2.23334,-0.25582 3.28353,0.31448 1.05003,0.57044 1.72523,1.426 2.02561,2.56668 0.30021,1.19941 0.16517,2.33924 -0.40512,3.41949 -0.57046,1.08039 -1.45531,1.79999 -2.65457,2.15882 -6.11946,1.79999 -13.07929,3.15039 -20.87952,4.05121 -0.4798,0.11907 -0.71966,0.38915 -0.7196,0.81024 z"
     id="path2857"
     style="font-size:90px;font-style:normal;font-weight:normal;text-align:center;text-anchor:middle;fill:#ffffff;fill-opacity:1;stroke:none;font-family:'Rounded M+ 1m medium';-inkscape-font-specification:'Rounded M+ 1m medium'" />
</svg>
