<?xml version="1.0" encoding="UTF-8" standalone="no"?>
<!-- Created with Inkscape (http://www.inkscape.org/) -->
<svg
   xmlns:dc="http://purl.org/dc/elements/1.1/"
   xmlns:cc="http://creativecommons.org/ns#"
   xmlns:rdf="http://www.w3.org/1999/02/22-rdf-syntax-ns#"
   xmlns:svg="http://www.w3.org/2000/svg"
   xmlns="http://www.w3.org/2000/svg"
   xmlns:sodipodi="http://sodipodi.sourceforge.net/DTD/sodipodi-0.dtd"
   xmlns:inkscape="http://www.inkscape.org/namespaces/inkscape"
   width="480"
   height="480"
   id="svg4203"
   sodipodi:version="0.32"
   inkscape:version="0.46"
   version="1.0"
   sodipodi:docbase="D:\Documents and Settings\Administrator\デスクトップ\看板\sign\西日本\svg"
   sodipodi:docname="Japanese Road sign (Direction of entrance).svg"
   inkscape:output_extension="org.inkscape.output.svg.inkscape">
  <defs
     id="defs4205">
    <inkscape:perspective
       sodipodi:type="inkscape:persp3d"
       inkscape:vp_x="0 : 315 : 1"
       inkscape:vp_y="0 : 1000 : 0"
       inkscape:vp_z="1500 : 315 : 1"
       inkscape:persp3d-origin="750 : 210 : 1"
       id="perspective9" />
    <inkscape:perspective
       id="perspective3163"
       inkscape:persp3d-origin="372.04724 : 350.78739 : 1"
       inkscape:vp_z="744.09448 : 526.18109 : 1"
       inkscape:vp_y="0 : 1000 : 0"
       inkscape:vp_x="0 : 526.18109 : 1"
       sodipodi:type="inkscape:persp3d" />
  </defs>
  <sodipodi:namedview
     id="base"
     pagecolor="#ffffff"
     bordercolor="#666666"
     borderopacity="1.0"
     gridtolerance="10000"
     guidetolerance="10"
     objecttolerance="10"
     inkscape:pageopacity="0.0"
     inkscape:pageshadow="2"
     inkscape:zoom="1.0583333"
     inkscape:cx="240"
     inkscape:cy="240"
     inkscape:document-units="px"
     inkscape:current-layer="layer1"
     width="1500px"
     height="630px"
     inkscape:window-width="1024"
     inkscape:window-height="712"
     inkscape:window-x="-4"
     inkscape:window-y="-4"
     showgrid="false" />
  <metadata
     id="metadata4208">
    <rdf:RDF>
      <cc:Work
         rdf:about="">
        <dc:format>image/svg+xml</dc:format>
        <dc:type
           rdf:resource="http://purl.org/dc/dcmitype/StillImage" />
      </cc:Work>
    </rdf:RDF>
  </metadata>
  <g
     inkscape:label="sign"
     inkscape:groupmode="layer"
     id="layer1">
    <rect
       style="fill:#005d35;fill-opacity:1;stroke:none;stroke-width:1;stroke-linecap:butt;stroke-linejoin:round;stroke-miterlimit:4;stroke-dasharray:none;stroke-opacity:1"
       id="rect_bg"
       width="480"
       height="480"
       x="0"
       y="-2.259434e-14" />
    <rect
       style="opacity:1;fill:#ffffff;fill-opacity:1;fill-rule:nonzero;stroke:none;stroke-width:0.01;stroke-linecap:butt;stroke-linejoin:miter;marker:none;marker-start:none;marker-mid:none;marker-end:none;stroke-miterlimit:4;stroke-dasharray:none;stroke-dashoffset:0;stroke-opacity:1;visibility:visible;display:inline;overflow:visible;enable-background:accumulate"
       id="rect3169"
       width="472.44095"
       height="245.6693"
       x="3.7795277"
       y="3.7795279" />
    <path
       style="fill:#ffffff;fill-opacity:1;fill-rule:evenodd;stroke:none;stroke-width:1px;stroke-linecap:butt;stroke-linejoin:miter;stroke-opacity:1"
       d="M 92.59842,366.61417 L 287.24409,366.61417 L 287.24409,308.0315 L 393.07086,393.07087 L 92.59842,393.07087"
       id="path3171" />
    <path
       id="path3218"
       style="font-size:80px;font-style:normal;font-variant:normal;font-weight:normal;font-stretch:normal;text-align:start;line-height:125%;writing-mode:lr-tb;text-anchor:start;fill:#005d35;fill-opacity:1;fill-rule:nonzero;stroke:none;stroke-width:1;stroke-linecap:butt;stroke-linejoin:round;marker:none;marker-start:none;marker-mid:none;marker-end:none;stroke-miterlimit:4;stroke-dashoffset:0;stroke-opacity:1;visibility:visible;display:inline;overflow:visible;enable-background:accumulate;font-family:GD-HighwayGothicJA-OTF;-inkscape-font-specification:GD-HighwayGothicJA-OTF"
       d="M 48.776312,131.96348 L 47.896322,131.96348 L 48.456312,139.64338 L 49.016312,139.32339 C 50.848382,139.3456 53.513032,138.99894 57.010282,138.2834 C 60.507502,137.56785 64.404732,135.87009 68.701982,133.19013 C 72.999182,130.51017 77.263812,126.23467 81.495892,120.36363 L 81.815882,120.36363 L 81.815882,140.52337 L 89.175792,140.52337 L 89.175792,120.36363 L 89.575782,120.36363 C 93.809762,126.23467 98.070442,130.51017 102.35784,133.19013 C 106.64514,135.87009 110.51471,137.56785 113.96658,138.2834 C 117.41832,138.99894 120.00791,139.3456 121.73537,139.32339 L 122.53536,139.64338 L 123.09535,131.96348 L 122.29536,131.96348 C 120.31198,132.04515 117.15869,131.42182 112.83548,130.0935 C 108.51214,128.76519 103.87887,125.5219 98.935662,120.36363 L 117.17543,120.36363 L 117.17543,83.724103 L 89.175792,83.724103 L 89.175792,77.484183 L 123.41535,77.484183 L 123.41535,69.884281 L 89.175792,69.884281 L 89.175792,62.844372 L 81.815882,62.844372 L 81.815882,69.884281 L 47.656322,69.884281 L 47.656322,77.484183 L 81.815882,77.484183 L 81.815882,83.724103 L 53.816252,83.724103 L 53.816252,120.36363 L 72.136012,120.36363 C 67.192722,125.5219 62.559452,128.76519 58.236192,130.0935 C 53.912902,131.42182 50.759612,132.04515 48.776312,131.96348 L 48.776312,131.96348 z M 109.81552,91.084008 L 109.81552,97.883921 L 89.175792,97.883921 L 89.175792,91.084008 L 109.81552,91.084008 z M 109.81552,113.08372 L 89.175792,113.08372 L 89.175792,105.48382 L 109.81552,105.48382 L 109.81552,113.08372 z M 61.176152,113.08372 L 61.176152,105.48382 L 81.815882,105.48382 L 81.815882,113.08372 L 61.176152,113.08372 z M 61.176152,91.084008 L 81.815882,91.084008 L 81.815882,97.883921 L 61.176152,97.883921 L 61.176152,91.084008 z" />
    <path
       id="path3208"
       style="font-size:80px;font-style:normal;font-variant:normal;font-weight:normal;font-stretch:normal;text-align:start;line-height:125%;writing-mode:lr-tb;text-anchor:start;fill:#005d35;fill-opacity:1;fill-rule:nonzero;stroke:none;stroke-width:1;stroke-linecap:butt;stroke-linejoin:round;marker:none;marker-start:none;marker-mid:none;marker-end:none;stroke-miterlimit:4;stroke-dashoffset:0;stroke-opacity:1;visibility:visible;display:inline;overflow:visible;enable-background:accumulate;font-family:GD-HighwayGothicJA-OTF;-inkscape-font-specification:GD-HighwayGothicJA-OTF"
       d="M 177.79137,64.764347 C 174.88138,70.282671 171.30143,75.345934 167.0515,79.954151 C 162.80155,84.562473 158.06161,88.485752 152.83169,91.724 L 156.43164,97.723923 C 160.68491,95.243992 164.65819,92.284033 168.35149,88.844037 L 179.95134,102.28386 C 176.06303,106.00884 171.85976,109.47879 167.3415,112.69373 C 162.82321,115.9087 158.03995,118.83866 152.99169,121.48362 L 156.19165,127.88353 C 160.75491,125.51857 165.10818,122.92861 169.25148,120.11363 C 173.39473,117.29868 177.30801,114.28872 180.99133,111.08375 L 180.99133,139.48339 L 226.19074,139.48339 L 226.19074,98.283916 L 193.63116,98.283916 C 197.76106,93.432349 201.44101,88.295754 204.67102,82.874113 C 207.90092,77.452572 210.62088,71.815984 212.83092,65.964332 L 185.23127,65.964332 C 185.31457,65.7644 185.4079,65.564402 185.51127,65.364338 C 185.61457,65.164408 185.7079,64.964411 185.79126,64.764347 L 177.79137,64.764347 z M 181.31132,73.164239 L 201.71106,73.164239 C 199.51104,77.447573 197.03107,81.580849 194.27116,85.564079 C 191.51115,89.547403 188.47119,93.360684 185.15127,97.003932 L 173.55142,83.564105 C 174.98971,81.960843 176.35303,80.287533 177.64137,78.54417 C 178.92966,76.800914 180.15297,75.007606 181.31132,73.164239 L 181.31132,73.164239 z M 188.19123,105.48382 L 218.99084,105.48382 L 218.99084,132.28348 L 188.19123,132.28348 L 188.19123,105.48382 z" />
    <path
       id="path3202"
       style="font-size:80px;font-style:normal;font-variant:normal;font-weight:normal;font-stretch:normal;text-align:start;line-height:125%;writing-mode:lr-tb;text-anchor:start;fill:#005d35;fill-opacity:1;fill-rule:nonzero;stroke:none;stroke-width:1;stroke-linecap:butt;stroke-linejoin:round;marker:none;marker-start:none;marker-mid:none;marker-end:none;stroke-miterlimit:4;stroke-dashoffset:0;stroke-opacity:1;visibility:visible;display:inline;overflow:visible;enable-background:accumulate;font-family:GD-HighwayGothicJA-OTF;-inkscape-font-specification:GD-HighwayGothicJA-OTF"
       d="M 287.87035,63.084369 L 287.87035,70.124278 L 254.35078,70.124278 L 254.35078,77.72418 L 328.98982,77.72418 L 328.98982,70.124278 L 295.47025,70.124278 L 295.47025,63.084369 L 287.87035,63.084369 z M 264.75064,80.204148 L 264.75064,103.64385 L 318.58995,103.64385 L 318.58995,80.204148 L 264.75064,80.204148 z M 311.23005,87.564054 L 311.23005,96.283941 L 272.43054,96.283941 L 272.43054,87.564054 L 311.23005,87.564054 z M 268.75059,117.64367 L 268.75059,139.32339 L 314.67,139.32339 L 314.67,117.64367 L 268.75059,117.64367 z M 307.3101,124.92357 L 307.3101,131.96348 L 276.0305,131.96348 L 276.0305,124.92357 L 307.3101,124.92357 z M 255.47076,106.68381 L 255.47076,140.76337 L 262.83067,140.76337 L 262.83067,113.96371 L 320.58992,113.96371 L 320.58992,140.76337 L 327.86983,140.76337 L 327.86983,106.68381 L 255.47076,106.68381 z" />
    <path
       id="path3190"
       style="font-size:80px;font-style:normal;font-variant:normal;font-weight:normal;font-stretch:normal;text-align:start;line-height:125%;writing-mode:lr-tb;text-anchor:start;fill:#005d35;fill-opacity:1;fill-rule:nonzero;stroke:none;stroke-width:1;stroke-linecap:butt;stroke-linejoin:round;marker:none;marker-start:none;marker-mid:none;marker-end:none;stroke-miterlimit:4;stroke-dashoffset:0;stroke-opacity:1;visibility:visible;display:inline;overflow:visible;enable-background:accumulate;font-family:GD-HighwayGothicJA-OTF;-inkscape-font-specification:GD-HighwayGothicJA-OTF"
       d="M 376.28364,120.44363 L 376.84364,127.72354 C 377.99324,127.67218 379.87174,127.16157 382.47924,126.1917 C 385.08654,125.22185 387.92504,123.62088 390.99464,121.3888 C 394.06424,119.15675 396.86714,116.12173 399.40344,112.28374 L 399.40344,127.88353 L 407.00334,127.88353 L 407.00334,111.88374 C 409.46394,115.82741 412.23134,118.9444 415.30544,121.23473 C 418.37944,123.52508 421.23564,125.16654 423.87424,126.15911 C 426.51264,127.1517 428.40894,127.67317 429.56304,127.72354 L 430.12304,120.44363 C 429.05794,120.39031 426.80804,119.45699 423.37314,117.64367 C 419.93814,115.83037 416.66814,112.73708 413.56324,108.36379 L 427.00304,108.36379 L 427.00304,83.884101 L 407.00334,83.884101 L 407.00334,77.164187 L 430.36304,77.164187 L 430.36304,69.564285 L 407.00334,69.564285 L 407.00334,63.084369 L 399.40344,63.084369 L 399.40344,69.564285 L 376.04364,69.564285 L 376.04364,77.164187 L 399.40344,77.164187 L 399.40344,83.884101 L 379.40364,83.884101 L 379.40364,108.36379 L 393.00354,108.36379 C 389.92684,112.73708 386.64024,115.83037 383.14364,117.64367 C 379.64694,119.45699 377.36034,120.39031 376.28364,120.44363 L 376.28364,120.44363 z M 419.64314,91.244006 L 419.64314,101.08388 L 407.00334,101.08388 L 407.00334,91.244006 L 419.64314,91.244006 z M 387.00354,101.08388 L 387.00354,91.244006 L 399.40344,91.244006 L 399.40344,101.08388 L 387.00354,101.08388 z M 358.92391,63.324366 L 355.24396,70.124278 C 357.2456,71.735983 359.10224,73.212629 360.81384,74.55422 C 362.52554,75.895927 364.80214,77.512572 367.64384,79.404159 L 370.76374,72.364249 C 370.64044,72.307643 369.40704,71.440988 367.06384,69.764282 C 364.72044,68.0877 362.00724,65.941063 358.92391,63.324366 L 358.92391,63.324366 z M 370.12374,121.24362 L 370.12374,93.483977 L 355.16396,93.483977 L 355.16396,101.08388 L 362.76384,101.08388 L 362.76384,121.24362 C 362.83714,122.50695 362.49054,123.96026 361.72384,125.60356 C 360.95724,127.24688 359.33054,129.18019 356.84394,131.40349 L 353.80398,133.96346 L 355.72395,136.76342 L 358.28392,140.12338 L 361.64384,137.08342 C 363.48384,135.4701 365.00384,133.89679 366.20384,132.36348 C 369.54544,134.88177 372.92204,136.76508 376.33364,138.0134 C 379.74524,139.26171 383.30194,139.88504 387.00354,139.88338 L 432.36304,139.88338 L 432.36304,132.28348 L 387.00354,132.28348 C 384.70524,132.37848 382.14194,132.00848 379.31364,131.17349 C 376.48534,130.33851 373.26204,128.46853 369.64374,125.56356 C 369.96374,124.20359 370.12374,122.76361 370.12374,121.24362 L 370.12374,121.24362 z" />
    <path
       style="font-size:48px;font-style:normal;font-variant:normal;font-weight:normal;font-stretch:normal;text-align:start;line-height:125%;writing-mode:lr-tb;text-anchor:start;fill:#005d35;fill-opacity:1;fill-rule:nonzero;stroke:none;stroke-width:1;stroke-linecap:butt;stroke-linejoin:round;stroke-miterlimit:4;stroke-dashoffset:0;stroke-opacity:1;marker:none;marker-start:none;marker-mid:none;marker-end:none;visibility:visible;display:inline;overflow:visible;enable-background:accumulate;font-family:GD-HighwayGothicJA-OTF;-inkscape-font-specification:GD-HighwayGothicJA-OTF"
       d="M 88.802704,181.77077 L 88.802704,188.58668 L 77.954844,188.58668 L 77.954844,226.50619 L 71.186931,226.50619 L 71.186931,188.58668 L 60.291071,188.58668 L 60.291071,181.77077 L 88.802704,181.77077 z M 110.1501,180.42678 C 106.4242,180.48105 103.3321,181.57792 100.87377,183.71741 C 98.415425,185.85697 96.578414,188.71382 95.362732,192.28796 C 94.147041,195.86217 93.540235,199.82833 93.542312,204.18648 C 93.540235,208.51325 94.147041,212.4569 95.362732,216.01744 C 96.578414,219.57799 98.415426,222.42654 100.87377,224.5631 C 103.3321,226.69966 106.4242,227.79535 110.1501,227.85017 C 113.87595,227.79535 116.96806,226.69967 119.42642,224.5631 C 121.88473,222.42654 123.72174,219.57799 124.93746,216.01744 C 126.15311,212.4569 126.75992,208.51325 126.75788,204.18648 C 126.75992,199.82833 126.15311,195.86217 124.93746,192.28796 C 123.72174,188.71382 121.88473,185.85697 119.42642,183.71741 C 116.96806,181.57792 113.87595,180.48105 110.1501,180.42678 L 110.1501,180.42678 z M 100.64622,204.18648 C 100.68221,198.58557 101.5462,194.35563 103.23819,191.49664 C 104.93015,188.63771 107.23412,187.20373 110.1501,187.1947 C 113.06604,187.20373 115.37001,188.63771 117.06201,191.49664 C 118.75396,194.35563 119.61795,198.58557 119.65398,204.18648 C 119.61795,209.76242 118.75396,213.97036 117.06201,216.81032 C 115.37001,219.65028 113.06604,221.07426 110.1501,221.08226 C 107.23412,221.07426 104.93015,219.65028 103.23819,216.81032 C 101.5462,213.97036 100.68221,209.76242 100.64622,204.18648 L 100.64622,204.18648 z M 159.04472,181.77077 L 167.54061,181.77077 L 167.54061,226.50619 L 160.7247,226.50619 L 160.7247,196.69857 L 153.28479,226.50619 L 147.14087,226.50619 L 139.70097,196.69857 L 139.70097,226.50619 L 132.93305,226.50619 L 132.93305,181.77077 L 141.38094,181.77077 L 150.21283,217.00231 L 159.04472,181.77077 z M 181.13847,219.73828 L 199.81023,219.73828 L 199.81023,226.50619 L 174.37055,226.50619 L 174.37055,181.77077 L 199.13823,181.77077 L 199.13823,188.58668 L 181.13847,188.58668 L 181.13847,199.77053 L 197.07426,199.77053 L 197.07426,206.53845 L 181.13847,206.53845 L 181.13847,219.73828 z M 212.07597,226.50619 L 205.30805,226.50619 L 205.30805,181.77077 L 212.07597,181.77077 L 212.07597,226.50619 z M 249.57597,219.73828 L 268.24773,219.73828 L 268.24773,226.50619 L 242.80805,226.50619 L 242.80805,181.77077 L 267.57573,181.77077 L 267.57573,188.58668 L 249.57597,188.58668 L 249.57597,199.77053 L 265.51176,199.77053 L 265.51176,206.53845 L 249.57597,206.53845 L 249.57597,219.73828 z M 303.60117,226.50619 L 295.77727,226.50619 L 287.95337,210.3784 L 280.17747,226.50619 L 272.35357,226.50619 L 284.59341,203.85048 L 273.07356,181.77077 L 280.84946,181.77077 L 287.95337,197.37057 L 295.10528,181.77077 L 302.88118,181.77077 L 291.36133,203.85048 L 303.60117,226.50619 z M 324.93135,181.77077 C 327.60929,181.79881 330.05326,183.01479 332.26325,185.41872 C 334.4732,187.82272 335.64518,191.24668 335.77921,195.69059 C 335.64518,200.13255 334.4732,203.5485 332.26325,205.93845 C 330.05326,208.32844 327.60929,209.53642 324.93135,209.56241 L 315.76347,209.56241 L 315.76347,226.50619 L 308.99555,226.50619 L 308.99555,181.77077 L 324.93135,181.77077 z M 323.58737,202.7945 C 325.28332,202.75352 326.60731,202.07953 327.55931,200.77252 C 328.51128,199.46556 328.99527,197.77158 329.0113,195.69059 C 328.99527,193.60964 328.51128,191.91567 327.55931,190.60865 C 326.6073,189.3017 325.28332,188.62771 323.58737,188.58668 L 315.76347,188.58668 L 315.76347,202.7945 L 323.58737,202.7945 z M 376.60311,181.77077 L 383.70702,181.77077 L 374.53913,226.50619 L 368.10722,226.50619 L 362.15529,196.36258 L 356.20337,226.50619 L 349.77145,226.50619 L 340.60357,181.77077 L 347.75548,181.77077 L 353.5154,213.45036 L 359.27533,181.77077 L 365.03526,181.77077 L 370.79518,213.45036 L 376.60311,181.77077 z M 419.00742,181.77077 L 406.76758,208.69842 L 406.76758,226.50619 L 399.99966,226.50619 L 399.99966,208.69842 L 387.75982,181.77077 L 395.58372,181.77077 L 403.35962,201.78651 L 411.18352,181.77077 L 419.00742,181.77077 z"
       id="text3224" />
  </g>
</svg>
