<?xml version="1.0" encoding="UTF-8" standalone="no"?>
<!-- Created with Inkscape (http://www.inkscape.org/) -->
<svg
   xmlns:dc="http://purl.org/dc/elements/1.1/"
   xmlns:cc="http://creativecommons.org/ns#"
   xmlns:rdf="http://www.w3.org/1999/02/22-rdf-syntax-ns#"
   xmlns:svg="http://www.w3.org/2000/svg"
   xmlns="http://www.w3.org/2000/svg"
   xmlns:sodipodi="http://sodipodi.sourceforge.net/DTD/sodipodi-0.dtd"
   xmlns:inkscape="http://www.inkscape.org/namespaces/inkscape"
   width="350"
   height="270"
   id="svg4203"
   sodipodi:version="0.32"
   inkscape:version="0.46"
   version="1.0"
   sodipodi:docbase="D:\Documents and Settings\Administrator\デスクトップ\看板\sign\西日本\svg"
   sodipodi:docname="Japanese Road sign (Direction and Exit A).svg"
   inkscape:output_extension="org.inkscape.output.svg.inkscape">
  <defs
     id="defs4205">
    <inkscape:perspective
       sodipodi:type="inkscape:persp3d"
       inkscape:vp_x="0 : 315 : 1"
       inkscape:vp_y="0 : 1000 : 0"
       inkscape:vp_z="1500 : 315 : 1"
       inkscape:persp3d-origin="750 : 210 : 1"
       id="perspective9" />
    <inkscape:perspective
       id="perspective3163"
       inkscape:persp3d-origin="372.04724 : 350.78739 : 1"
       inkscape:vp_z="744.09448 : 526.18109 : 1"
       inkscape:vp_y="0 : 1000 : 0"
       inkscape:vp_x="0 : 526.18109 : 1"
       sodipodi:type="inkscape:persp3d" />
    <inkscape:perspective
       id="perspective2395"
       inkscape:persp3d-origin="372.04724 : 350.78739 : 1"
       inkscape:vp_z="744.09448 : 526.18109 : 1"
       inkscape:vp_y="0 : 1000 : 0"
       inkscape:vp_x="0 : 526.18109 : 1"
       sodipodi:type="inkscape:persp3d" />
    <inkscape:perspective
       id="perspective3843"
       inkscape:persp3d-origin="227.5 : 145 : 1"
       inkscape:vp_z="455 : 217.5 : 1"
       inkscape:vp_y="0 : 1000 : 0"
       inkscape:vp_x="0 : 217.5 : 1"
       sodipodi:type="inkscape:persp3d" />
  </defs>
  <sodipodi:namedview
     id="base"
     pagecolor="#ffffff"
     bordercolor="#666666"
     borderopacity="1.0"
     gridtolerance="10000"
     guidetolerance="10"
     objecttolerance="10"
     inkscape:pageopacity="0.0"
     inkscape:pageshadow="2"
     inkscape:zoom="1.7085714"
     inkscape:cx="175"
     inkscape:cy="135"
     inkscape:document-units="px"
     inkscape:current-layer="layer1"
     width="1500px"
     height="630px"
     inkscape:window-width="1024"
     inkscape:window-height="712"
     inkscape:window-x="-4"
     inkscape:window-y="-4"
     showgrid="false"
     showguides="true"
     inkscape:guide-bbox="true" />
  <metadata
     id="metadata4208">
    <rdf:RDF>
      <cc:Work
         rdf:about="">
        <dc:format>image/svg+xml</dc:format>
        <dc:type
           rdf:resource="http://purl.org/dc/dcmitype/StillImage" />
      </cc:Work>
    </rdf:RDF>
  </metadata>
  <g
     inkscape:label="sign"
     inkscape:groupmode="layer"
     id="layer1">
    <rect
       style="fill:#005d35;fill-opacity:1;stroke:none;stroke-width:1;stroke-linecap:butt;stroke-linejoin:round;stroke-miterlimit:4;stroke-dasharray:none;stroke-opacity:1"
       id="rect_bg"
       width="350"
       height="90"
       x="0"
       y="180" />
    <rect
       style="opacity:1;fill:#ffffff;fill-opacity:1;fill-rule:nonzero;stroke:none;stroke-width:0.01;stroke-linecap:butt;stroke-linejoin:miter;marker:none;marker-start:none;marker-mid:none;marker-end:none;stroke-miterlimit:4;stroke-dasharray:none;stroke-dashoffset:0;stroke-opacity:1;visibility:visible;display:inline;overflow:visible;enable-background:accumulate"
       id="rect3169"
       width="132"
       height="84"
       x="3"
       y="183" />
    <rect
       y="0"
       x="0"
       height="170"
       width="350"
       id="rect2401"
       style="fill:#005d35;fill-opacity:1;stroke:none;stroke-width:1;stroke-linecap:butt;stroke-linejoin:round;stroke-miterlimit:4;stroke-dasharray:none;stroke-opacity:1" />
    <path
       style="font-size:45px;font-style:normal;font-variant:normal;font-weight:normal;font-stretch:normal;text-align:start;line-height:125%;writing-mode:lr-tb;text-anchor:start;fill:#ffffff;fill-opacity:1;fill-rule:nonzero;stroke:none;stroke-width:1;stroke-linecap:butt;stroke-linejoin:round;stroke-miterlimit:4;stroke-dashoffset:0;stroke-opacity:1;marker:none;marker-start:none;marker-mid:none;marker-end:none;visibility:visible;display:inline;overflow:visible;enable-background:accumulate;font-family:GD-HighwayGothicJA-OTF;-inkscape-font-specification:GD-HighwayGothicJA-OTF"
       d="M 66.695302,65.266685 L 66.695302,72.736589 L 60.62038,72.736589 L 60.62038,76.786536 L 66.695302,76.786536 L 66.695302,78.136519 C 66.674739,79.620135 66.355854,81.462887 65.738647,83.66478 C 65.121427,85.866714 64.329215,88.076127 63.36201,90.293028 C 62.394797,92.509956 61.375923,94.382708 60.305384,95.91129 L 63.68034,98.116262 C 64.199703,97.39159 64.713446,96.579726 65.221571,95.680667 C 65.729683,94.781625 66.220926,93.823514 66.695302,92.80633 L 66.695302,108.46613 L 70.745249,108.46613 L 70.745249,86.59641 L 72.860222,89.071378 L 75.920183,86.461412 L 70.745249,80.296491 L 70.745249,76.786536 L 75.245192,76.786536 L 75.245192,72.736589 L 70.745249,72.736589 L 70.745249,65.266685 L 66.695302,65.266685 z M 84.245076,65.041688 L 80.195128,65.041688 L 80.195128,68.641641 L 76.595174,68.641641 L 76.595174,72.691589 L 80.195128,72.691589 L 80.195128,75.841549 L 76.595174,75.841549 L 76.595174,79.891496 L 87.395035,79.891496 L 87.395035,82.816459 L 76.595174,82.816459 L 76.595174,100.81623 L 102.24484,100.81623 L 102.24484,82.816459 L 91.444983,82.816459 L 91.444983,79.891496 L 102.24484,79.891496 L 102.24484,75.841549 L 98.64489,75.841549 L 98.64489,72.691589 L 102.24484,72.691589 L 102.24484,68.641641 L 98.64489,68.641641 L 98.64489,65.041688 L 94.594942,65.041688 L 94.594942,68.641641 L 84.245076,68.641641 L 84.245076,65.041688 z M 98.194896,96.766279 L 91.444983,96.766279 L 91.444983,93.841317 L 98.194896,93.841317 L 98.194896,96.766279 z M 80.645122,96.766279 L 80.645122,93.841317 L 87.395035,93.841317 L 87.395035,96.766279 L 80.645122,96.766279 z M 98.194896,86.866407 L 98.194896,89.791369 L 91.444983,89.791369 L 91.444983,86.866407 L 98.194896,86.866407 z M 80.645122,86.866407 L 87.395035,86.866407 L 87.395035,89.791369 L 80.645122,89.791369 L 80.645122,86.866407 z M 84.245076,75.841549 L 84.245076,72.691589 L 94.594942,72.691589 L 94.594942,75.841549 L 84.245076,75.841549 z M 94.189948,103.69619 C 95.210836,104.83805 96.375195,105.81679 97.683028,106.6324 C 98.990784,107.44801 100.52639,108.13425 102.28984,108.69113 L 103.50483,104.82118 C 102.13605,104.35712 100.92482,103.82275 99.871124,103.21807 C 98.817348,102.61339 97.898611,101.88778 97.11491,101.04122 L 94.189948,103.69619 z M 84.65007,103.69619 L 81.725108,101.04122 C 80.941346,101.88778 80.022608,102.61339 78.968892,103.21807 C 77.915137,103.82275 76.703904,104.35712 75.33519,104.82118 L 76.550175,108.69113 C 78.31357,108.13425 79.849174,107.44801 81.15699,106.6324 C 82.464762,105.81679 83.629121,104.83805 84.65007,103.69619 L 84.65007,103.69619 z M 116.64524,91.141352 L 116.64524,95.191299 L 147.91984,95.191299 L 147.91984,91.141352 L 142.9699,91.141352 L 142.9699,79.216505 L 146.56985,79.216505 L 146.56985,75.166557 L 123.84515,75.166557 L 123.84515,73.771575 C 126.53103,73.453797 129.48411,72.829431 132.70441,71.898474 C 135.92465,70.967582 138.82148,69.746974 141.39492,68.236647 L 139.36995,64.771691 C 137.55827,65.827272 135.46163,66.741147 133.08003,67.513322 C 130.69836,68.285569 128.37173,68.882783 126.10012,69.304965 C 123.82846,69.727217 121.95182,69.941103 120.47019,69.946625 L 119.7952,69.946625 L 119.7952,91.141352 L 116.64524,91.141352 z M 110.57032,90.46636 L 110.57032,91.006353 C 110.60809,91.153586 110.55753,92.03413 110.41865,93.647986 C 110.27976,95.261863 109.82587,97.175725 109.057,99.389579 C 108.28812,101.60344 106.97758,103.68397 105.12539,105.63117 L 107.96035,108.73613 C 110.2242,106.25477 111.8264,103.67258 112.76695,100.98956 C 113.70749,98.306542 114.26304,96.011018 114.4336,94.10298 C 114.60414,92.194961 114.66636,91.162753 114.62026,91.006353 L 114.62026,90.46636 L 110.57032,90.46636 z M 107.73535,65.401683 L 105.44038,68.73164 L 112.28029,73.456579 L 114.57526,70.126622 L 107.73535,65.401683 z M 107.73535,77.32653 L 105.44038,80.656487 L 112.28029,85.381426 L 114.57526,82.051469 L 107.73535,77.32653 z M 116.60024,104.46118 L 118.35522,108.51113 C 120.01362,107.68895 121.63547,106.45334 123.22078,104.8043 C 124.80605,103.15526 126.12416,101.16591 127.1751,98.836253 L 123.39515,97.126275 C 122.88139,98.21939 122.0639,99.498123 120.94268,100.96247 C 119.82143,102.42683 118.37395,103.59307 116.60024,104.46118 L 116.60024,104.46118 z M 148.00983,104.46118 C 146.23606,103.59307 144.78858,102.42683 143.66739,100.96247 C 142.54612,99.498123 141.72863,98.21939 141.21492,97.126275 L 137.43497,98.836253 C 138.48586,101.16591 139.80397,103.15526 141.38929,104.8043 C 142.97455,106.45334 144.5964,107.68895 146.25486,108.51113 L 148.00983,104.46118 z M 123.84515,91.141352 L 123.84515,79.216505 L 138.91995,79.216505 L 138.91995,91.141352 L 123.84515,91.141352 z"
       id="text3194" />
    <path
       style="font-size:45px;font-style:normal;font-variant:normal;font-weight:normal;font-stretch:normal;text-align:start;line-height:125%;writing-mode:lr-tb;text-anchor:start;fill:#ffffff;fill-opacity:1;fill-rule:nonzero;stroke:none;stroke-width:1;stroke-linecap:butt;stroke-linejoin:round;stroke-miterlimit:4;stroke-dashoffset:0;stroke-opacity:1;marker:none;marker-start:none;marker-mid:none;marker-end:none;visibility:visible;display:inline;overflow:visible;enable-background:accumulate;font-family:GD-HighwayGothicJA-OTF;-inkscape-font-specification:GD-HighwayGothicJA-OTF"
       d="M 228.49267,108.01613 L 233.21761,108.01613 C 234.46912,108.00207 235.45348,107.63645 236.17069,106.91927 C 236.88783,106.20209 237.25345,105.21773 237.26756,103.96619 L 237.26756,75.391554 L 242.44249,75.391554 L 242.44249,71.341607 L 226.69269,71.341607 L 226.69269,67.066662 L 200.59303,67.066662 L 200.59303,96.766279 L 226.69269,96.766279 L 226.69269,75.391554 L 233.21761,75.391554 L 233.21761,103.96619 L 228.49267,103.96619 L 228.49267,108.01613 z M 222.64274,71.116609 L 222.64274,79.891496 L 215.66783,79.891496 L 215.66783,71.116609 L 222.64274,71.116609 z M 204.64298,71.116609 L 211.61789,71.116609 L 211.61789,79.891496 L 204.64298,79.891496 L 204.64298,71.116609 z M 222.64274,92.716331 L 215.66783,92.716331 L 215.66783,83.941444 L 222.64274,83.941444 L 222.64274,92.716331 z M 204.64298,92.716331 L 204.64298,83.941444 L 211.61789,83.941444 L 211.61789,92.716331 L 204.64298,92.716331 z M 245.59303,67.066662 L 245.59303,108.01613 L 286.5425,108.01613 L 286.5425,67.066662 L 245.59303,67.066662 z M 249.64298,71.116609 L 264.04279,71.116609 L 264.04279,85.516424 L 249.64298,85.516424 L 249.64298,71.116609 z M 282.49255,71.116609 L 282.49255,85.516424 L 268.09274,85.516424 L 268.09274,71.116609 L 282.49255,71.116609 z M 249.64298,103.96619 L 249.64298,89.566372 L 264.04279,89.566372 L 264.04279,103.96619 L 249.64298,103.96619 z M 282.49255,103.96619 L 268.09274,103.96619 L 268.09274,89.566372 L 282.49255,89.566372 L 282.49255,103.96619 z"
       id="text3198" />
    <path
       style="font-size:26px;font-style:normal;font-variant:normal;font-weight:normal;font-stretch:normal;text-align:start;line-height:125%;writing-mode:lr-tb;text-anchor:start;fill:#ffffff;fill-opacity:1;fill-rule:nonzero;stroke:none;stroke-width:1;stroke-linecap:butt;stroke-linejoin:round;stroke-miterlimit:4;stroke-dashoffset:0;stroke-opacity:1;marker:none;marker-start:none;marker-mid:none;marker-end:none;visibility:visible;display:inline;overflow:visible;enable-background:accumulate;font-family:GD-HighwayGothicJA-OTF;-inkscape-font-specification:GD-HighwayGothicJA-OTF"
       d="M 50.950374,122.81037 L 44.320459,137.39618 L 44.320459,147.04205 L 40.654506,147.04205 L 40.654506,137.39618 L 34.024592,122.81037 L 38.262537,122.81037 L 42.474483,133.65223 L 46.712428,122.81037 L 50.950374,122.81037 z M 60.294249,147.58805 C 59.166146,147.59254 58.056828,147.27733 56.966292,146.64243 C 55.875747,146.00752 54.968648,145.02596 54.244993,143.69773 C 53.521334,142.3695 53.145784,140.66765 53.118342,138.59216 C 53.145785,136.5252 53.521335,134.82944 54.244994,133.50489 C 54.968648,132.18037 55.875747,131.20105 56.966292,130.56693 C 58.056828,129.93284 59.166146,129.61796 60.294249,129.62228 C 61.422336,129.61796 62.531654,129.93284 63.622206,130.56693 C 64.712735,131.20105 65.619833,132.18037 66.343504,133.50489 C 67.067146,134.82944 67.442697,136.5252 67.470157,138.59216 C 67.442697,140.66765 67.067147,142.3695 66.343504,143.69773 C 65.619833,145.02596 64.712735,146.00752 63.622206,146.64243 C 62.531654,147.27733 61.422336,147.59254 60.294249,147.58805 L 60.294249,147.58805 z M 60.294249,144.46809 C 61.406267,144.45238 62.263172,143.9313 62.864966,142.90486 C 63.466738,141.87841 63.771151,140.44085 63.778204,138.59216 C 63.771151,136.75594 63.466738,135.32596 62.864966,134.30222 C 62.263171,133.27849 61.406267,132.7585 60.294249,132.74224 C 59.182215,132.7585 58.32531,133.27849 57.723532,134.30222 C 57.121743,135.32596 56.817331,136.75594 56.810294,138.59216 C 56.817331,140.44085 57.121743,141.87842 57.723533,142.90486 C 58.32531,143.9313 59.182215,144.45238 60.294249,144.46809 L 60.294249,144.46809 z M 79.240906,147.04205 L 75.106959,139.78815 L 73.546979,141.81612 L 73.546979,147.04205 L 70.063024,147.04205 L 70.063024,122.81037 L 73.546979,122.81037 L 73.546979,137.31818 L 78.512915,130.16827 L 82.724861,130.16827 L 77.316931,137.05818 L 83.270854,147.04205 L 79.240906,147.04205 z M 92.337218,147.58805 C 91.209114,147.59254 90.099796,147.27733 89.009261,146.64243 C 87.918715,146.00752 87.011617,145.02596 86.287962,143.69773 C 85.564303,142.3695 85.188753,140.66765 85.16131,138.59216 C 85.188753,136.5252 85.564304,134.82944 86.287962,133.50489 C 87.011617,132.18037 87.918715,131.20105 89.009261,130.56693 C 90.099796,129.93284 91.209114,129.61796 92.337218,129.62228 C 93.465305,129.61796 94.574623,129.93284 95.665175,130.56693 C 96.755703,131.20105 97.662802,132.18037 98.386473,133.50489 C 99.110115,134.82944 99.485666,136.5252 99.513126,138.59216 C 99.485666,140.66765 99.110116,142.3695 98.386473,143.69773 C 97.662802,145.02596 96.755703,146.00752 95.665175,146.64243 C 94.574623,147.27733 93.465305,147.59254 92.337218,147.58805 L 92.337218,147.58805 z M 92.337218,144.46809 C 93.449236,144.45238 94.306141,143.9313 94.907935,142.90486 C 95.509707,141.87841 95.81412,140.44085 95.821173,138.59216 C 95.81412,136.75594 95.509707,135.32596 94.907934,134.30222 C 94.30614,133.27849 93.449236,132.7585 92.337218,132.74224 C 91.225183,132.7585 90.368279,133.27849 89.766501,134.30222 C 89.164712,135.32596 88.8603,136.75594 88.853263,138.59216 C 88.8603,140.44085 89.164712,141.87842 89.766501,142.90486 C 90.368279,143.9313 91.225184,144.45238 92.337218,144.46809 L 92.337218,144.46809 z M 109.4379,129.62228 C 111.08941,129.64179 112.32981,130.15529 113.1591,131.16276 C 113.98837,132.17026 114.40328,133.55474 114.40383,135.3162 L 114.40383,147.04205 L 110.91988,147.04205 L 110.91988,135.6802 C 110.91879,134.91701 110.73246,134.27244 110.36089,133.74647 C 109.9893,133.22053 109.43897,132.94646 108.70991,132.92424 C 107.85191,132.9405 107.12392,133.27849 106.52594,133.93822 C 105.92794,134.59797 105.61594,135.48196 105.58995,136.59019 L 105.58995,147.04205 L 102.10599,147.04205 L 102.10599,122.81037 L 105.58995,122.81037 L 105.58995,132.09225 C 106.10289,131.35235 106.68897,130.75869 107.34818,130.31127 C 108.00737,129.86387 108.70394,129.63421 109.4379,129.62228 L 109.4379,129.62228 z M 130.41698,147.04205 L 126.56903,147.04205 L 126.28303,145.11808 C 125.77874,145.82386 125.15583,146.40777 124.41431,146.86981 C 123.67277,147.33184 122.79636,147.57125 121.78509,147.58805 C 119.9819,147.55879 118.72634,147.0713 118.01839,146.12557 C 117.31044,145.17983 116.97136,143.95134 117.00115,142.44011 C 117.03582,140.97168 117.56448,139.78111 118.58713,138.86841 C 119.60978,137.95572 120.91843,137.31764 122.51308,136.95418 C 124.03568,136.60536 125.01392,136.25653 125.4478,135.9077 C 125.88165,135.55888 126.0734,135.11905 126.02304,134.58821 C 126.05011,134.09423 125.90495,133.63924 125.58754,133.22323 C 125.27012,132.80725 124.61796,132.58625 123.63107,132.56024 C 122.63657,132.57867 121.95408,132.86033 121.58359,133.40523 C 121.21309,133.95015 121.0376,134.64781 121.0571,135.4982 L 117.57315,135.4982 C 117.60781,133.56991 118.18197,132.10959 119.29562,131.11726 C 120.40927,130.12495 121.85442,129.62663 123.63107,129.62228 C 125.47974,129.62934 126.91731,130.02475 127.94376,130.80851 C 128.97019,131.59231 129.49127,132.72221 129.50699,134.19822 C 129.50698,135.75062 129.50698,137.41677 129.50699,139.19665 C 129.50698,140.97655 129.50698,142.3697 129.50699,143.3761 C 129.51077,144.26821 129.59419,144.99295 129.75724,145.55032 C 129.92027,146.10769 130.14018,146.60493 130.41698,147.04205 L 130.41698,147.04205 z M 122.90308,144.46809 C 123.67006,144.46484 124.37205,144.19834 125.00905,143.6686 C 125.64603,143.13886 125.98403,142.36537 126.02304,141.34813 C 126.02303,140.88664 126.02303,140.39264 126.02304,139.86615 C 126.02303,139.33966 126.02303,138.81967 126.02304,138.30617 C 125.71591,138.62521 125.27066,138.89062 124.6873,139.10241 C 124.10393,139.3142 123.50919,139.50811 122.90308,139.68415 C 121.99579,139.95823 121.36638,140.30706 121.01485,140.73063 C 120.66331,141.15422 120.4954,141.72404 120.51111,142.44011 C 120.50677,143.17298 120.69744,143.69622 121.0831,144.00984 C 121.46876,144.32346 122.07542,144.47621 122.90308,144.46809 L 122.90308,144.46809 z M 148.43697,129.62228 C 150.09227,129.64179 151.30558,130.15529 152.07693,131.16276 C 152.84823,132.17026 153.22956,133.55474 153.22091,135.3162 L 153.22091,147.04205 L 149.73696,147.04205 L 149.73696,135.6802 C 149.74506,134.91701 149.59232,134.27244 149.27871,133.74647 C 148.96507,133.22053 148.44183,132.94646 147.70898,132.92424 C 146.86235,132.9405 146.13761,133.27849 145.53476,133.93822 C 144.93188,134.59797 144.61664,135.48196 144.58902,136.59019 L 144.58902,147.04205 L 141.10507,147.04205 L 141.10507,135.6802 C 141.11156,134.91701 140.95556,134.27244 140.63708,133.74647 C 140.31857,133.22053 139.79858,132.94646 139.0771,132.92424 C 138.2191,132.9405 137.49111,133.27849 136.89312,133.93822 C 136.29513,134.59797 135.98313,135.48196 135.95714,136.59019 L 135.95714,147.04205 L 132.47318,147.04205 L 132.47318,130.16827 L 135.77514,130.16827 L 135.85314,132.19624 C 136.37042,131.40652 136.97383,130.78253 137.66336,130.32427 C 138.35289,129.86604 139.0668,129.63204 139.80509,129.62228 C 140.9951,129.62771 141.94951,129.88987 142.6683,130.40877 C 143.38707,130.92769 143.90598,131.67085 144.22503,132.63824 C 144.74176,131.75047 145.36575,131.03007 146.09701,130.47702 C 146.82823,129.924 147.60822,129.63908 148.43697,129.62228 L 148.43697,129.62228 z M 169.21386,147.04205 L 165.36591,147.04205 L 165.07991,145.11808 C 164.57561,145.82386 163.95271,146.40777 163.21118,146.86981 C 162.46964,147.33184 161.59324,147.57125 160.58197,147.58805 C 158.77878,147.55879 157.52321,147.0713 156.81527,146.12557 C 156.10732,145.17983 155.76824,143.95134 155.79803,142.44011 C 155.83269,140.97168 156.36135,139.78111 157.38401,138.86841 C 158.40666,137.95572 159.71531,137.31764 161.30996,136.95418 C 162.83256,136.60536 163.81079,136.25653 164.24467,135.9077 C 164.67853,135.55888 164.87028,135.11905 164.81991,134.58821 C 164.84699,134.09423 164.70182,133.63924 164.38442,133.22323 C 164.067,132.80725 163.41484,132.58625 162.42794,132.56024 C 161.43345,132.57867 160.75096,132.86033 160.38047,133.40523 C 160.00997,133.95015 159.83447,134.64781 159.85398,135.4982 L 156.37002,135.4982 C 156.40469,133.56991 156.97885,132.10959 158.0925,131.11726 C 159.20615,130.12495 160.65129,129.62663 162.42794,129.62228 C 164.27662,129.62934 165.71418,130.02475 166.74064,130.80851 C 167.76707,131.59231 168.28815,132.72221 168.30387,134.19822 C 168.30385,135.75062 168.30385,137.41677 168.30387,139.19665 C 168.30385,140.97655 168.30385,142.3697 168.30387,143.3761 C 168.30765,144.26821 168.39106,144.99295 168.55412,145.55032 C 168.71714,146.10769 168.93705,146.60493 169.21386,147.04205 L 169.21386,147.04205 z M 161.69995,144.46809 C 162.46694,144.46484 163.16893,144.19834 163.80593,143.6686 C 164.44291,143.13886 164.7809,142.36537 164.81991,141.34813 C 164.8199,140.88664 164.8199,140.39264 164.81991,139.86615 C 164.8199,139.33966 164.8199,138.81967 164.81991,138.30617 C 164.51278,138.62521 164.06754,138.89062 163.48418,139.10241 C 162.9008,139.3142 162.30606,139.50811 161.69995,139.68415 C 160.79267,139.95823 160.16326,140.30706 159.81173,140.73063 C 159.46019,141.15422 159.29227,141.72404 159.30798,142.44011 C 159.30365,143.17298 159.49431,143.69622 159.87998,144.00984 C 160.26563,144.32346 160.87229,144.47621 161.69995,144.46809 L 161.69995,144.46809 z"
       id="text3202" />
    <path
       style="font-size:26px;font-style:normal;font-variant:normal;font-weight:normal;font-stretch:normal;text-align:start;line-height:125%;writing-mode:lr-tb;text-anchor:start;fill:#ffffff;fill-opacity:1;fill-rule:nonzero;stroke:none;stroke-width:1;stroke-linecap:butt;stroke-linejoin:round;marker:none;marker-start:none;marker-mid:none;marker-end:none;stroke-miterlimit:4;stroke-dashoffset:0;stroke-opacity:1;visibility:visible;display:inline;overflow:visible;enable-background:accumulate;font-family:GD-HighwayGothicJA-OTF;-inkscape-font-specification:GD-HighwayGothicJA-OTF"
       d="M 283.1954,213.87176 L 283.1954,224.75657 L 271.83413,224.75657 L 271.83413,209.877 L 286.71371,209.877 L 286.71371,195.10736 L 283.1954,195.10736 L 283.1954,206.39532 L 271.83413,206.39532 L 271.83413,193.16495 L 268.31581,193.16495 L 268.31581,206.39532 L 256.80796,206.39532 L 256.80796,195.10736 L 253.43623,195.10736 L 253.43623,209.877 L 268.31581,209.877 L 268.31581,224.75657 L 256.80796,224.75657 L 256.80796,213.87176 L 253.43623,213.87176 L 253.43623,228.1283 L 286.71371,228.1283 L 286.71371,213.87176 L 283.1954,213.87176 z M 290.04927,194.81417 L 290.04927,228.16495 L 323.40005,228.16495 L 323.40005,194.81417 L 290.04927,194.81417 z M 293.3477,198.1126 L 320.10162,198.1126 L 320.10162,224.86652 L 293.3477,224.86652 L 293.3477,198.1126 z"
       id="text3203" />
    <path
       style="font-size:15px;font-style:normal;font-variant:normal;font-weight:normal;font-stretch:normal;text-align:start;line-height:125%;writing-mode:lr-tb;text-anchor:start;fill:#ffffff;fill-opacity:1;fill-rule:nonzero;stroke:none;stroke-width:1;stroke-linecap:butt;stroke-linejoin:round;marker:none;marker-start:none;marker-mid:none;marker-end:none;stroke-miterlimit:4;stroke-dashoffset:0;stroke-opacity:1;visibility:visible;display:inline;overflow:visible;enable-background:accumulate;font-family:GD-HighwayGothicJA-OTF;-inkscape-font-specification:GD-HighwayGothicJA-OTF"
       d="M 269.2813,253.45688 L 278.57583,253.45688 L 278.57583,255.84154 L 266.37089,255.84154 L 266.37089,238.34154 L 278.31295,238.34154 L 278.31295,240.74497 L 269.2813,240.74497 L 269.2813,245.51428 L 277.24267,245.51428 L 277.24267,247.89894 L 269.2813,247.89894 L 269.2813,253.45688 z M 295.84396,255.84154 L 292.25758,255.84154 L 288.27689,249.26965 L 284.2962,255.84154 L 280.72861,255.84154 L 286.75597,246.97888 L 281.12293,238.34154 L 284.55908,238.34154 L 288.27689,244.78199 L 291.9947,238.34154 L 295.44964,238.34154 L 289.8166,246.97888 L 295.84396,255.84154 z M 301.70108,255.84154 L 298.79067,255.84154 L 298.79067,238.34154 L 301.70108,238.34154 L 301.70108,255.84154 z M 318.15934,238.34154 L 318.15934,240.74497 L 312.86428,240.74497 L 312.86428,255.84154 L 309.9351,255.84154 L 309.9351,240.74497 L 304.64003,240.74497 L 304.64003,238.34154 L 318.15934,238.34154 z"
       id="text3207" />
    <path
       style="font-size:48px;font-style:normal;font-variant:normal;font-weight:normal;font-stretch:normal;text-align:start;line-height:125%;writing-mode:lr-tb;text-anchor:start;fill:#005d35;fill-opacity:1;fill-rule:nonzero;stroke:none;stroke-width:1;stroke-linecap:butt;stroke-linejoin:round;stroke-miterlimit:4;stroke-dashoffset:0;stroke-opacity:1;marker:none;marker-start:none;marker-mid:none;marker-end:none;visibility:visible;display:inline;overflow:visible;enable-background:accumulate;font-family:GD-HighwayGothicJA-OTF;-inkscape-font-specification:GD-HighwayGothicJA-OTF"
       d="M 81.073698,228.18838 L 81.073698,234.2843 L 75.649768,234.2843 L 75.649768,244.12417 L 68.209864,244.12417 L 68.209864,234.2843 L 47.858126,234.2843 L 47.858126,226.84439 L 66.817882,200.06074 L 75.649768,200.06074 L 75.649768,228.18838 L 81.073698,228.18838 z M 53.76205,228.18838 L 68.209864,228.18838 L 68.209864,207.88464 L 53.76205,228.18838 z"
       id="text2416" />
    <path
       style="font-size:90px;font-style:normal;font-variant:normal;font-weight:normal;font-stretch:normal;text-align:start;line-height:125%;writing-mode:lr-tb;text-anchor:start;fill:#ffffff;fill-opacity:1;fill-rule:nonzero;stroke:none;stroke-width:1;stroke-linecap:butt;stroke-linejoin:round;marker:none;marker-start:none;marker-mid:none;marker-end:none;stroke-miterlimit:4;stroke-dashoffset:0;stroke-opacity:1;visibility:visible;display:inline;overflow:visible;enable-background:accumulate;font-family:GD-HighwayGothicJA-OTF;-inkscape-font-specification:GD-HighwayGothicJA-OTF"
       d="M 145.34354,188.65665 L 155.6472,224.72945 L 165.3137,214.58797 L 216.29021,262.73194 L 223.13371,255.49073 L 172.15718,207.34676 L 181.82369,197.2053 L 145.34354,188.65665 z"
       id="text2420" />
    <path
       style="font-size:26px;font-style:normal;font-variant:normal;font-weight:normal;font-stretch:normal;text-align:start;line-height:125%;writing-mode:lr-tb;text-anchor:start;fill:#ffffff;fill-opacity:1;fill-rule:nonzero;stroke:none;stroke-width:1;stroke-linecap:butt;stroke-linejoin:round;stroke-miterlimit:4;stroke-dashoffset:0;stroke-opacity:1;marker:none;marker-start:none;marker-mid:none;marker-end:none;visibility:visible;display:inline;overflow:visible;enable-background:accumulate;font-family:GD-HighwayGothicJA-OTF;-inkscape-font-specification:GD-HighwayGothicJA-OTF"
       d="M 207.53444,122.81037 L 212.13638,122.81037 L 212.13638,147.04205 L 208.44443,147.04205 L 208.44443,130.89626 L 204.41448,147.04205 L 201.08652,147.04205 L 197.05658,130.89626 L 197.05658,147.04205 L 193.39062,147.04205 L 193.39062,122.81037 L 197.96656,122.81037 L 202.7505,141.89412 L 207.53444,122.81037 z M 228.49777,147.04205 L 224.64982,147.04205 L 224.36383,145.11808 C 223.85953,145.82386 223.23662,146.40777 222.4951,146.86981 C 221.75356,147.33184 220.87716,147.57125 219.86588,147.58805 C 218.06269,147.55879 216.80713,147.0713 216.09918,146.12557 C 215.39123,145.17983 215.05215,143.95134 215.08195,142.44011 C 215.11661,140.97168 215.64527,139.78111 216.66793,138.86841 C 217.69058,137.95572 218.99922,137.31764 220.59387,136.95418 C 222.11647,136.60536 223.09471,136.25653 223.52859,135.9077 C 223.96245,135.55888 224.15419,135.11905 224.10383,134.58821 C 224.1309,134.09423 223.98574,133.63924 223.66834,133.22323 C 223.35091,132.80725 222.69876,132.58625 221.71186,132.56024 C 220.71737,132.57867 220.03488,132.86033 219.66439,133.40523 C 219.29389,133.95015 219.11839,134.64781 219.13789,135.4982 L 215.65394,135.4982 C 215.6886,133.56991 216.26276,132.10959 217.37642,131.11726 C 218.49006,130.12495 219.93521,129.62663 221.71186,129.62228 C 223.56054,129.62934 224.9981,130.02475 226.02455,130.80851 C 227.05099,131.59231 227.57206,132.72221 227.58778,134.19822 C 227.58777,135.75062 227.58777,137.41677 227.58778,139.19665 C 227.58777,140.97655 227.58777,142.3697 227.58778,143.3761 C 227.59156,144.26821 227.67498,144.99295 227.83803,145.55032 C 228.00106,146.10769 228.22097,146.60493 228.49777,147.04205 L 228.49777,147.04205 z M 220.98387,144.46809 C 221.75085,144.46484 222.45284,144.19834 223.08984,143.6686 C 223.72682,143.13886 224.06482,142.36537 224.10383,141.34813 C 224.10382,140.88664 224.10382,140.39264 224.10383,139.86615 C 224.10382,139.33966 224.10382,138.81967 224.10383,138.30617 C 223.7967,138.62521 223.35145,138.89062 222.7681,139.10241 C 222.18472,139.3142 221.58998,139.50811 220.98387,139.68415 C 220.07658,139.95823 219.44718,140.30706 219.09564,140.73063 C 218.7441,141.15422 218.57619,141.72404 218.5919,142.44011 C 218.58756,143.17298 218.77823,143.69622 219.16389,144.00984 C 219.54955,144.32346 220.15621,144.47621 220.98387,144.46809 L 220.98387,144.46809 z M 237.15789,144.46809 C 238.15995,144.4383 238.87277,144.13388 239.29636,143.55485 C 239.71993,142.97582 239.92576,142.30091 239.91385,141.53012 L 243.39781,141.53012 C 243.40104,143.0679 242.88755,144.4448 241.85733,145.66082 C 240.82708,146.87685 239.2606,147.51925 237.15789,147.58805 C 236.08933,147.59254 235.0227,147.27733 233.958,146.64243 C 232.8933,146.00752 232.00192,145.02596 231.28389,143.69773 C 230.56585,142.3695 230.19254,140.66765 230.16398,138.59216 C 230.19254,136.5252 230.56585,134.82944 231.28389,133.50489 C 232.00192,132.18037 232.8933,131.20105 233.958,130.56693 C 235.0227,129.93284 236.08933,129.61796 237.15789,129.62228 C 239.2606,129.69108 240.82708,130.33349 241.85733,131.5495 C 242.88755,132.76554 243.40104,134.14244 243.39781,135.6802 L 239.91385,135.6802 C 239.92576,134.90943 239.71993,134.23452 239.29636,133.65548 C 238.87277,133.07645 238.15995,132.77204 237.15789,132.74224 C 236.05344,132.7585 235.22686,133.27849 234.67817,134.30222 C 234.12946,135.32596 233.85538,136.75594 233.85593,138.59216 C 233.85538,140.44085 234.12946,141.87842 234.67817,142.90486 C 235.22686,143.9313 236.05344,144.45238 237.15789,144.46809 L 237.15789,144.46809 z M 253.37416,129.62228 C 255.02567,129.64179 256.26607,130.15529 257.09536,131.16276 C 257.92463,132.17026 258.33954,133.55474 258.34009,135.3162 L 258.34009,147.04205 L 254.85614,147.04205 L 254.85614,135.6802 C 254.85505,134.91701 254.66872,134.27244 254.29715,133.74647 C 253.92556,133.22053 253.37523,132.94646 252.64617,132.92424 C 251.78817,132.9405 251.06018,133.27849 250.4622,133.93822 C 249.8642,134.59797 249.5522,135.48196 249.52621,136.59019 L 249.52621,147.04205 L 246.04225,147.04205 L 246.04225,122.81037 L 249.52621,122.81037 L 249.52621,132.09225 C 250.03915,131.35235 250.62523,130.75869 251.28444,130.31127 C 251.94363,129.86387 252.6402,129.63421 253.37416,129.62228 L 253.37416,129.62228 z M 264.81136,126.86631 L 261.32741,126.86631 L 261.32741,122.81037 L 264.81136,122.81037 L 264.81136,126.86631 z M 261.32741,147.04205 L 261.32741,130.16827 L 264.81136,130.16827 L 264.81136,147.04205 L 261.32741,147.04205 z M 277.73328,122.81037 L 281.21724,122.81037 L 281.21724,147.04205 L 278.27927,147.04205 L 277.91528,145.01408 C 277.35573,145.97444 276.71983,146.64718 276.00755,147.0323 C 275.29526,147.41742 274.58786,147.60267 273.88533,147.58805 C 272.25168,147.58046 270.78703,146.81564 269.49139,145.29358 C 268.19574,143.77151 267.51108,141.53771 267.43741,138.59216 C 267.51108,135.65908 268.19574,133.43287 269.49139,131.9135 C 270.78703,130.39416 272.25168,129.63042 273.88533,129.62228 C 274.53477,129.61254 275.19885,129.76854 275.87756,130.09027 C 276.55625,130.41203 277.17482,130.95802 277.73328,131.72825 L 277.73328,122.81037 z M 274.43132,144.46809 C 275.53576,144.41826 276.36233,143.82893 276.91104,142.70011 C 277.45973,141.57129 277.73381,140.20198 277.73328,138.59216 C 277.73381,136.99482 277.45973,135.63308 276.91104,134.50697 C 276.36233,133.38087 275.53576,132.79262 274.43132,132.74224 C 273.32687,132.79262 272.5003,133.38087 271.95161,134.50697 C 271.4029,135.63308 271.12882,136.99482 271.12937,138.59216 C 271.12882,140.20198 271.4029,141.57129 271.95161,142.70011 C 272.5003,143.82893 273.32687,144.41825 274.43132,144.46809 L 274.43132,144.46809 z M 297.2048,147.04205 L 293.35685,147.04205 L 293.07086,145.11808 C 292.56656,145.82386 291.94365,146.40777 291.20213,146.86981 C 290.46059,147.33184 289.58419,147.57125 288.57292,147.58805 C 286.76973,147.55879 285.51416,147.0713 284.80621,146.12557 C 284.09826,145.17983 283.75918,143.95134 283.78898,142.44011 C 283.82364,140.97168 284.3523,139.78111 285.37496,138.86841 C 286.39761,137.95572 287.70625,137.31764 289.30091,136.95418 C 290.8235,136.60536 291.80174,136.25653 292.23562,135.9077 C 292.66948,135.55888 292.86122,135.11905 292.81086,134.58821 C 292.83793,134.09423 292.69277,133.63924 292.37537,133.22323 C 292.05794,132.80725 291.40579,132.58625 290.41889,132.56024 C 289.4244,132.57867 288.74191,132.86033 288.37142,133.40523 C 288.00092,133.95015 287.82542,134.64781 287.84492,135.4982 L 284.36097,135.4982 C 284.39563,133.56991 284.96979,132.10959 286.08345,131.11726 C 287.1971,130.12495 288.64224,129.62663 290.41889,129.62228 C 292.26757,129.62934 293.70513,130.02475 294.73159,130.80851 C 295.75802,131.59231 296.27909,132.72221 296.29482,134.19822 C 296.2948,135.75062 296.2948,137.41677 296.29482,139.19665 C 296.2948,140.97655 296.2948,142.3697 296.29482,143.3761 C 296.29859,144.26821 296.38201,144.99295 296.54506,145.55032 C 296.70809,146.10769 296.928,146.60493 297.2048,147.04205 L 297.2048,147.04205 z M 289.6909,144.46809 C 290.45788,144.46484 291.15987,144.19834 291.79687,143.6686 C 292.43386,143.13886 292.77185,142.36537 292.81086,141.34813 C 292.81085,140.88664 292.81085,140.39264 292.81086,139.86615 C 292.81085,139.33966 292.81085,138.81967 292.81086,138.30617 C 292.50373,138.62521 292.05849,138.89062 291.47513,139.10241 C 290.89175,139.3142 290.29701,139.50811 289.6909,139.68415 C 288.78361,139.95823 288.15421,140.30706 287.80267,140.73063 C 287.45113,141.15422 287.28322,141.72404 287.29893,142.44011 C 287.29459,143.17298 287.48526,143.69622 287.87092,144.00984 C 288.25658,144.32346 288.86324,144.47621 289.6909,144.46809 L 289.6909,144.46809 z"
       id="text3206" />
    <g
       id="g3846"
       transform="matrix(0.119327,0,0,0.119327,53.974643,6.8894377)">
      <path
         style="fill:#0140ff;fill-opacity:1;stroke:#ffffff;stroke-width:16.76066208;stroke-linecap:butt;stroke-linejoin:round;stroke-miterlimit:4;stroke-dasharray:none;stroke-opacity:1"
         id="plate"
         d="M 226.99991,425.39429 C 252.11645,425.39429 275.26756,415.76966 293.19578,399.78937 C 362.13553,330.75326 413.14928,244.91516 439.46426,150.46104 C 442.20297,142.16307 443.99982,131.7287 443.99982,120.87729 C 443.99982,76.02669 413.30428,38.28204 369.9794,27.07436 C 323.9411,15.75291 277.71818,9.99998 226.99992,9.99998 C 176.28166,9.99998 130.05873,15.75291 84.02044,27.07436 C 40.69555,38.28204 10.00001,76.02669 10.00001,120.87729 C 10.00001,131.7287 11.79686,142.16307 14.53557,150.46104 C 40.85055,244.91516 91.86431,330.75326 160.80406,399.78937 C 178.73227,415.76966 201.88339,425.39429 226.99991,425.39429 z" />
      <path
         style="font-size:268.1706543px;font-style:normal;font-variant:normal;font-weight:normal;font-stretch:normal;text-align:start;line-height:125%;writing-mode:lr-tb;text-anchor:start;fill:#ffffff;fill-opacity:1;stroke:none;stroke-width:1px;stroke-linecap:butt;stroke-linejoin:miter;stroke-opacity:1;font-family:GD-HighwayGothicJA-OTF;-inkscape-font-specification:GD-HighwayGothicJA-OTF"
         d="M 124.82198,64.751907 L 160.75639,64.751907 L 160.75639,310.9294 L 119.19047,310.9294 L 119.19047,140.64323 L 56.439345,140.64323 L 56.439345,114.09467 L 73.602045,114.09467 C 85.546995,113.81344 95.297015,111.00927 102.85213,105.68217 C 110.40706,100.35543 115.96573,94.194208 119.52816,87.198491 C 123.09037,80.203178 124.85498,74.061826 124.82198,68.774415 L 124.82198,64.751907 z"
         id="path3872" />
      <path
         id="path3870"
         style="font-size:268.1706543px;font-style:normal;font-variant:normal;font-weight:normal;font-stretch:normal;text-align:start;line-height:125%;writing-mode:lr-tb;text-anchor:start;fill:#ffffff;fill-opacity:1;stroke:none;stroke-width:1px;stroke-linecap:butt;stroke-linejoin:miter;stroke-opacity:1;font-family:GD-HighwayGothicJA-OTF;-inkscape-font-specification:GD-HighwayGothicJA-OTF"
         d="M 286.80067,154.05159 C 315.14802,154.76684 336.15443,162.7895 349.81996,178.1196 C 363.48511,193.44991 370.27868,211.797 370.20067,233.16091 C 370.2584,246.76961 367.19269,259.89654 361.00352,272.54176 C 354.81397,285.187 345.15334,295.61241 332.0216,303.818 C 318.88953,312.02356 301.93873,316.2712 281.16915,316.56091 C 264.95611,316.52736 250.51979,313.77865 237.86015,308.31477 C 225.20035,302.85085 215.05471,294.87288 207.42317,284.38085 C 198.9647,273.33014 193.02033,260.30169 189.59005,245.29548 C 186.15972,230.28935 184.50603,211.22715 184.62896,188.10882 C 184.93021,157.94345 189.78039,133.65282 199.17951,115.23686 C 208.57856,96.821251 220.71891,83.455943 235.60059,75.140897 C 250.48212,66.826279 266.29735,62.737563 283.04632,62.874737 C 311.23726,63.67388 331.61794,70.657395 344.18845,83.825302 C 356.75859,96.993619 362.92643,111.55285 362.69198,127.50303 L 321.12607,127.50303 C 321.03094,119.55316 317.66768,112.592 311.03627,106.61951 C 304.40458,100.64739 295.0746,97.5076 283.04632,97.200139 C 266.39192,96.915402 253.24057,103.11676 243.59222,115.80424 C 233.94372,128.49206 228.77033,149.37556 228.07205,178.4548 C 234.79292,171.21999 243.07257,165.37618 252.91104,160.92336 C 262.74932,156.4708 274.04585,154.18021 286.80067,154.05159 L 286.80067,154.05159 z M 278.48748,282.50368 C 290.82305,282.47575 301.81789,278.30799 311.47205,270.00038 C 321.12591,261.69281 326.22108,249.413 326.75758,233.16091 C 326.22108,216.42288 321.12591,204.37771 311.47205,197.02538 C 301.81789,189.67323 290.82305,186.07532 278.48748,186.23165 C 266.02319,186.07532 254.95013,189.67323 245.26827,197.02538 C 235.58624,204.37772 230.4799,216.42288 229.94922,233.16091 C 230.4799,249.413 235.58625,261.69281 245.26827,270.00037 C 254.95013,278.30798 266.02319,282.47574 278.48748,282.50368 L 278.48748,282.50368 z" />
    </g>
  </g>
</svg>
