<?xml version="1.0" encoding="UTF-8" standalone="no"?>
<!-- Created with Inkscape (http://www.inkscape.org/) -->

<svg
   xmlns:dc="http://purl.org/dc/elements/1.1/"
   xmlns:cc="http://creativecommons.org/ns#"
   xmlns:rdf="http://www.w3.org/1999/02/22-rdf-syntax-ns#"
   xmlns:svg="http://www.w3.org/2000/svg"
   xmlns="http://www.w3.org/2000/svg"
   xmlns:sodipodi="http://sodipodi.sourceforge.net/DTD/sodipodi-0.dtd"
   xmlns:inkscape="http://www.inkscape.org/namespaces/inkscape"
   version="1.1"
   width="434.75"
   height="487.96875"
   id="svg2"
   xml:space="preserve"
   inkscape:version="0.48.4 r9939"
   sodipodi:docname="AJAX1.svg"><sodipodi:namedview
     pagecolor="#ffffff"
     bordercolor="#666666"
     borderopacity="1"
     objecttolerance="10"
     gridtolerance="10"
     guidetolerance="10"
     inkscape:pageopacity="0"
     inkscape:pageshadow="2"
     inkscape:window-width="1280"
     inkscape:window-height="1004"
     id="namedview25"
     showgrid="false"
     inkscape:zoom="1.0334729"
     inkscape:cx="82.550466"
     inkscape:cy="150.87623"
     inkscape:window-x="-8"
     inkscape:window-y="-8"
     inkscape:window-maximized="1"
     inkscape:current-layer="g3818"
     fit-margin-top="0"
     fit-margin-left="0"
     fit-margin-right="0"
     fit-margin-bottom="0" /><metadata
     id="metadata8"><rdf:RDF><cc:Work
         rdf:about=""><dc:format>image/svg+xml</dc:format><dc:type
           rdf:resource="http://purl.org/dc/dcmitype/StillImage" /><dc:title /></cc:Work></rdf:RDF></metadata><defs
     id="defs6" /><g
     transform="matrix(1.25,0,0,-1.25,-80.878333,530.92715)"
     id="g10"><g
       transform="scale(0.1,0.1)"
       id="g12"><g
         id="g3033"
         transform="matrix(8,0,0,-8,437.32585,4042.8659)"><g
           id="g3818"
           transform="translate(26.212602,-25.584426)"><path
             style="fill:#0066b3;fill-opacity:1;fill-rule:nonzero;stroke:none"
             d="m 217.375,0.01550993 c 15.55512,0 22.73647,12.75861007 24.96875,16.65625007 l 185.75,317.15625 c 3.33071,6.66142 6.65625,17.74016 6.65625,25.5 l 0,104.25 c 0,13.32283 -11.08341,24.40625 -24.40625,24.40625 l -385.9375,0 C 11.08341,487.98426 -2.4999997e-7,476.90084 -2.4999997e-7,463.57801 l 0,-104.25 c 0,-7.75984 3.32554004999997,-18.83858 6.65625004999997,-25.5 L 192.40625,16.67176 C 194.63853,12.77412 201.81988,0.01550993 217.375,0.01550993 z"
             id="path3820"
             inkscape:connector-curvature="0"
             sodipodi:nodetypes="sccssssssccs" /><g
             id="g3930"
             transform="translate(10.536,10.511255)"><path
               style="fill:none;stroke:#ffffff;stroke-width:11;stroke-miterlimit:4;stroke-opacity:1;stroke-dasharray:none"
               d="m 206.839,5.566758 c -4.99606,0 -7.76304,3.31644 -11.09375,8.3125 L 9.4327498,332.75426 c -2.23229,3.86221 -3.90625,10.50836 -3.90625,14.9375 l 0,105.40625 c 0,4.42913 3.88337,8.3125 8.3125002,8.3125 l 386,0 c 4.42913,0 8.3125,-3.88337 8.3125,-8.3125 l 0,-105.40625 c 0,-4.42914 -1.67396,-11.07529 -3.90625,-14.9375 L 217.93275,13.879258 c -3.33071,-4.99606 -6.09769,-8.3125 -11.09375,-8.3125 z"
               id="path3932"
               inkscape:connector-curvature="0"
               sodipodi:nodetypes="sccssssssccs" /></g><path
             id="path3107"
             d="m 246.59274,297.15561 c 0,4.43613 1.10909,4.99064 1.10909,4.99064 l 7.20873,-3.32709 0,-11.64486 c -6.65421,0 -8.31776,3.88162 -8.31776,9.98131 m -90.38628,-59.88785 c -4.43614,3.88162 -7.76324,7.20872 -7.76324,11.64486 l 6.65421,3.3271 1.66355,-2.77258 -0.55447,-12.19938 z m 82.06853,78.74142 c 0,0 -4.43615,-11.09033 -5.54518,-17.19002 -0.55447,-6.65421 1.66356,-16.081 5.54518,-21.62617 -18.29906,-2.77258 -31.05296,-9.98131 -39.37072,-23.28972 -7.20872,6.6542 -3.88161,29.38941 9.98131,60.44237 l -3.88162,0 c 0,0 -1.66354,5.54517 0,11.09033 9.42679,13.30842 7.20873,16.081 7.20873,38.26168 0,9.42681 -1.1091,18.29908 7.76324,23.84424 16.08099,12.19938 2.21806,8.87227 -12.19939,8.87227 -11.09033,0 -12.75388,2.21808 -12.75388,-7.20871 -0.55447,-10.53583 -6.09969,-26.61683 -7.76324,-35.4891 2.21806,-18.29906 -2.7726,-28.83489 -14.97196,-36.04362 -4.43615,16.63553 -34.38007,51.5701 -38.26168,58.77882 4.43612,8.87227 8.31775,17.74455 2.77258,18.85358 -2.21807,0.55447 -9.42679,-7.76324 -13.3084,-10.53582 -11.64487,-9.98131 -11.64487,-15.52648 -7.76324,-19.40809 3.32709,-6.65421 6.65419,-11.64487 12.19936,-21.07166 6.0997,-9.9813 14.41745,-24.95326 14.41745,-24.95326 l -6.65421,-7.76324 6.65421,-19.96263 c 0,0 -21.62617,-6.09969 -28.83489,-13.30841 l 4.43614,-29.3894 c 0,-3.32711 2.21806,-6.6542 12.75388,-7.76324 7.76324,-28.83489 28.8349,-41.58879 41.03428,-45.4704 l 0.55447,-5.54518 c -9.98132,-7.20872 -13.86293,-19.9626 -12.19938,-28.28036 2.77259,-20.51714 17.19002,-21.62617 26.61683,-22.73521 9.42678,1.10903 18.85357,0.55452 22.73518,16.63552 0,0 10.53584,2.21806 10.53584,6.65421 0,1.10909 -9.42679,2.77258 -9.42679,2.77258 0,16.63551 -12.19938,26.0623 -21.62617,26.0623 l -0.55447,8.87227 c 9.42679,1.66356 20.51713,16.08099 22.18069,31.60747 7.76322,21.07165 17.74454,27.17135 31.60746,37.15265 2.77259,-10.53582 17.19004,-18.85358 22.7352,-18.85358 l 0.55447,-5.54517 c -18.29906,-3.3271 -16.081,-36.04362 -1.66355,-40.47975 l -14.41745,-5.54517 6.0997,-9.42679 11.09035,7.20872 2.21806,-10.53581 9.98131,0.55447 -3.3271,13.86291 c 8.31775,-1.66355 25.50778,6.65421 24.95327,13.86293 0,1.66355 -2.21807,1.10909 -2.7726,2.21806 l 0,12.19939 c 0,13.30841 -6.65419,18.29906 -18.29906,18.29906 l 0,4.43614 c 21.07166,9.9813 23.28972,38.8162 48.24299,46.57944 13.86293,0 7.20872,13.30841 1.66354,13.30841 -12.75388,0 -15.52647,-9.4268 -34.38005,-9.4268 11.64487,37.70717 10.53582,39.92523 4.43614,42.69783 0,0 2.77258,23.84423 0,38.81619 23.28972,13.86293 11.64486,13.3084 -1.66356,13.3084 -7.20871,0 -11.64485,-1.66355 -11.64485,-8.87227 -3.88163,-19.40809 -2.21807,-27.72585 -6.65421,-42.69781 -3.88161,1.66355 -4.99064,0 -8.87227,0 0,0 -3.88161,9.42679 -7.20872,16.63551 -3.3271,7.20873 -15.52648,14.97197 -12.75389,21.07166 5.54516,10.53582 4.43613,17.74454 -1.66356,13.3084 0,0 -11.09034,-8.87227 -12.19937,-14.41743 -0.55447,-5.54518 3.3271,-12.7539 7.76324,-27.72587 2.77258,-7.20872 6.65421,-10.53582 6.65421,-10.53582 l -9.42681,-8.31775 0.55447,-9.42681 -4.43612,-3.32709 0.55447,-6.09969"
             style="fill:#ffffff;fill-opacity:1;fill-rule:nonzero;stroke:none"
             inkscape:connector-curvature="0" /><path
             id="path3109"
             d="m 63.602101,350.38925 c -1.10909,2.77258 0.55447,4.99065 3.3271,4.99065 l 40.479759,0 c 1.66355,0 3.32709,-1.1091 3.88161,-2.77258 l 6.09969,-17.74455 c 1.1091,-2.77259 -0.55447,-4.99066 -3.32711,-4.99066 l -40.479749,0 c -1.10909,0 -2.77258,1.1091 -3.32709,2.21807 l -6.65421,18.29907"
             style="fill:#ffffff;fill-opacity:1;fill-rule:nonzero;stroke:none"
             inkscape:connector-curvature="0" /><path
             id="path3111"
             d="m 370.80459,350.38925 c 1.10956,2.77258 0,4.99065 -3.32713,4.99065 l -40.47974,0 c -1.1091,0 -2.77258,-1.1091 -3.3271,-2.77258 l -6.65421,-17.74455 c -1.10909,-2.77259 0.55447,-4.99066 3.3271,-4.99066 l 40.4797,0 c 1.66356,0 3.32712,1.1091 3.88159,2.21807 l 6.09979,18.29907"
             style="fill:#ffffff;fill-opacity:1;fill-rule:nonzero;stroke:none"
             inkscape:connector-curvature="0" /><path
             id="path3113"
             d="m 389.6581,447.98426 c 3.32713,0 4.43622,-2.21807 3.8816,-4.99066 l -6.6541,-17.74455 c -0.55463,-1.66354 -2.21803,-2.77258 -3.8816,-2.77258 l -331.601279,0 c -1.66355,0 -3.3271,1.1091 -3.3271,2.77258 l -6.65421,17.74455 c -1.10909,2.77259 0.55447,4.99066 3.32711,4.99066 l 344.909579,0"
             style="fill:#ffffff;fill-opacity:1;fill-rule:nonzero;stroke:none"
             inkscape:connector-curvature="0" /></g></g></g></g></svg>