<?xml version="1.0" encoding="UTF-8" standalone="no"?>
<!-- Created with Inkscape (http://www.inkscape.org/) -->

<svg
   xmlns:osb="http://www.openswatchbook.org/uri/2009/osb"
   xmlns:dc="http://purl.org/dc/elements/1.1/"
   xmlns:cc="http://creativecommons.org/ns#"
   xmlns:rdf="http://www.w3.org/1999/02/22-rdf-syntax-ns#"
   xmlns:svg="http://www.w3.org/2000/svg"
   xmlns="http://www.w3.org/2000/svg"
   xmlns:sodipodi="http://sodipodi.sourceforge.net/DTD/sodipodi-0.dtd"
   xmlns:inkscape="http://www.inkscape.org/namespaces/inkscape"
   version="1.1"
   width="1005.4"
   height="1005.4"
   id="svg2"
   xml:space="preserve"
   inkscape:version="0.48.4 r9939"
   sodipodi:docname="AJAX1.svg"><sodipodi:namedview
     pagecolor="#ffffff"
     bordercolor="#666666"
     borderopacity="1"
     objecttolerance="10"
     gridtolerance="10"
     guidetolerance="10"
     inkscape:pageopacity="0"
     inkscape:pageshadow="2"
     inkscape:window-width="1280"
     inkscape:window-height="1004"
     id="namedview28"
     showgrid="false"
     fit-margin-top="0.2"
     fit-margin-left="0.2"
     fit-margin-right="0.2"
     fit-margin-bottom="0.2"
     inkscape:zoom="0.5"
     inkscape:cx="519.30703"
     inkscape:cy="397.44816"
     inkscape:window-x="-8"
     inkscape:window-y="-8"
     inkscape:window-maximized="1"
     inkscape:current-layer="svg2" /><metadata
     id="metadata8"><rdf:RDF><cc:Work
         rdf:about=""><dc:format>image/svg+xml</dc:format><dc:type
           rdf:resource="http://purl.org/dc/dcmitype/StillImage" /></cc:Work></rdf:RDF></metadata><defs
     id="defs6"><linearGradient
       id="linearGradient15703"
       osb:paint="solid"><stop
         style="stop-color:#ffffff;stop-opacity:1;"
         offset="0"
         id="stop15705" /></linearGradient></defs><path
     inkscape:connector-curvature="0"
     style="fill:#ffffff;fill-opacity:1;stroke:#0066b3;stroke-width:5;stroke-miterlimit:4;stroke-opacity:1;stroke-dasharray:none"
     d="m 2.69998,502.7 c 0,-276.1424 223.85772,-500 500.0001,-500 276.14238,0 500.00002,223.8576 500.00002,500 0,276.1423 -223.85764,500.0001 -500.00002,500.0001 C 226.5577,1002.7001 2.69998,778.8423 2.69998,502.7 z"
     id="path3854" /><path
     id="path14622"
     d="m 37.325,502.7 c 0,257.0196 208.35548,465.375 465.375,465.375 257.01958,0 465.37508,-208.3554 465.37508,-465.375 C 968.07508,245.6804 759.71958,37.325 502.7,37.325 245.68048,37.325 37.325,245.6804 37.325,502.7 z"
     style="fill:#0066b3;fill-opacity:1;stroke:none"
     inkscape:connector-curvature="0"
     sodipodi:nodetypes="sssss" /><path
     inkscape:connector-curvature="0"
     d="m 733.09525,699.62915 c -24.75315,0 -47.96663,-9.71176 -65.53465,-27.12187 -17.41011,-17.48907 -27.12187,-40.86046 -27.12187,-65.45569 l 70.19314,0 c 0,12.31735 10.02759,22.34494 22.46338,22.34494 12.35684,0 22.38443,-10.02759 22.38443,-22.34494 0,-11.44883 -8.48792,-20.72633 -19.50248,-22.18704 l -28.02988,-66.91641 c 8.09313,-2.32766 16.5021,-3.5136 25.14793,-3.5136 24.71367,0 48.00611,9.59332 65.49518,27.08239 17.48907,17.48907 27.12187,40.74203 27.12187,65.53466 0,51.00648 -41.57108,92.57756 -92.61705,92.57756 M 579.04934,595.12902 c -1.73706,-8.40897 -5.40858,-16.26523 -10.61977,-22.93713 l 80.29969,-149.66378 35.72823,85.4714 c -33.12264,16.30471 -56.96778,48.79568 -61.11304,87.12951 l -44.29511,0 z m -50.059,56.80986 0,-29.25373 c 6.35607,-2.40662 10.89612,-8.44844 10.89612,-15.63356 l 28.58259,0 c 0,22.93712 -17.29168,42.00534 -39.47871,44.88729 m -11.88309,0 c -9.86968,-1.26332 -18.98926,-5.68494 -26.13491,-12.83059 -8.56688,-8.56687 -13.30432,-20.0157 -13.30432,-32.0567 0,-12.19893 4.73744,-23.52931 13.30432,-32.09619 4.65849,-4.69797 10.22499,-8.21157 16.22575,-10.3829 l 0,30.55652 -27.75353,0 0,11.92257 26.80604,0 c 0,7.18512 4.50058,13.22536 10.85665,15.63356 l 0,29.25373 z m 5.96128,-61.78418 c -1.38017,0 -2.68455,0.22108 -3.94787,0.5527 l 0,-28.81946 c 1.26332,-0.15791 2.6056,-0.25266 3.94787,-0.25266 12.08049,0 23.48983,4.73745 32.05671,13.30432 5.72441,5.68494 9.67229,12.59371 11.6857,20.17362 l -31.85932,0 c -3.03828,-3.07933 -7.26408,-4.97431 -11.88309,-4.97431 M 362.23228,470.43947 c 6.1192,-19.38405 10.54081,-37.89956 13.58067,-54.63853 l 256.29577,0 -77.14139,143.66301 c -9.39593,-6.35607 -20.37102,-9.79072 -31.8988,-9.79072 -4.46109,0 -8.76427,0.59376 -12.87006,1.54125 l 0,-33.39899 2.95933,0 0,-11.88309 -33.71482,0 0,11.88309 12.90954,0 0,40.89995 c -5.92181,3.82943 -11.05404,8.60635 -15.23878,14.21233 L 362.2307,470.44105 z M 718.725,589.94151 c -1.73706,1.42124 -3.15829,3.27674 -4.42161,5.17171 l -72.95665,0 c 2.56769,-20.17362 11.60674,-38.926 26.21386,-53.61208 7.06669,-7.06669 15.12035,-12.7911 23.76618,-17.17324 l 27.39822,65.61361 z m -353.88713,17.09428 c 0,51.00649 -41.5316,92.57757 -92.53809,92.57757 -24.71367,0 -48.04558,-9.71176 -65.49517,-27.12187 -17.48907,-17.48907 -27.12187,-40.86046 -27.12187,-65.4557 0,-24.79262 9.6328,-48.04558 27.12187,-65.53465 17.44959,-17.48907 40.7815,-27.08239 65.49517,-27.08239 16.97585,0 33.24108,4.57953 47.45341,13.14641 -10.34342,20.33153 -22.85817,40.54463 -38.018,59.65232 -3.11723,-1.61705 -6.55346,-2.64349 -10.30394,-2.64349 -12.43579,0 -22.46338,9.98811 -22.46338,22.46338 0,12.31736 10.02759,22.34495 22.46338,22.34495 12.35684,0 22.42391,-10.02759 22.42391,-22.34495 0,-2.01183 -0.35689,-3.78995 -0.78958,-5.48754 16.42315,-20.33153 29.92486,-41.68951 41.09734,-63.28436 1.18436,1.02644 2.44768,2.13185 3.59256,3.23725 17.48907,17.48907 27.08239,40.74202 27.08239,65.53465 m 446.30679,-78.16784 c -20.84476,-20.80528 -48.55881,-32.37254 -78.04941,-32.37254 -11.13299,0 -21.91068,1.73707 -32.01723,4.85588 l -41.01837,-97.90719 -0.43269,-1.1433 21.55537,-40.18933 c 16.81793,-0.71061 31.18818,-4.10578 32.09619,-8.68531 1.97394,-9.98812 -13.8965,-21.83173 -13.8965,-21.83173 -43.5845,-1.97393 -75.2859,0 -69.32461,21.83173 6.27711,4.77692 18.1602,7.50095 31.03026,8.5274 l -19.38404,36.00458 -263.08611,0 c 1.93604,-14.25181 2.76351,-26.72709 2.76351,-36.59676 l 0,-4.22422 -3.11724,-2.64666 c -14.88347,-12.75162 -26.60865,-29.80642 -26.60865,-38.80757 0,-3.35569 1.22226,-4.8164 2.6056,-5.84284 9.04062,-6.90878 36.75467,-3.75048 53.53312,0.59376 l 4.61901,-17.21272 c -5.01379,-1.30122 -49.5063,-12.51475 -69.04825,2.48874 -6.19816,4.85588 -9.59333,11.76465 -9.59333,19.97622 0,17.60751 17.44959,38.21539 29.72747,49.54578 -0.67272,32.09619 -9.75125,88.51126 -35.92563,146.22913 -16.66001,-9.67228 -35.53083,-14.96243 -55.27019,-14.96243 -60.91564,0 -110.42194,49.58526 -110.42194,110.54038 0,29.45112 11.44882,57.16517 32.33306,78.0494 20.84476,20.84476 48.55881,32.33307 78.08888,32.33307 29.4906,0 57.20465,-11.48831 78.04941,-32.33307 20.88423,-20.88423 32.33306,-48.59828 32.33306,-78.0494 0,-29.53007 -11.44883,-57.32308 -32.33306,-78.16784 -2.5677,-2.56454 -5.25067,-4.93484 -8.09314,-7.26408 5.17171,-11.133 9.71176,-22.14756 13.69911,-32.92524 l 112.75119,100.59174 c -1.85392,5.60598 -2.92142,11.56726 -2.92142,17.76542 0,15.23878 6.00076,29.64851 16.77845,40.4262 10.85664,10.85664 25.18741,16.73897 40.50515,16.73897 0.98539,0 1.97394,-0.0632 2.95932,-0.12633 l 0,20.17362 -10.89612,0 0,11.88309 35.64927,0 0,-11.88309 -6.90877,0 0,-23.96358 c 7.26408,-2.80457 13.93598,-7.10617 19.6604,-12.83058 10.81716,-10.77769 16.77845,-25.18741 16.77845,-40.42619 l 42.32117,0 c 0,29.45111 11.4883,57.16516 32.29358,78.0494 20.92372,20.84476 48.63777,32.33306 78.16784,32.33306 29.4906,0 57.20465,-11.4883 78.04941,-32.33306 20.88423,-20.88424 32.37254,-48.59829 32.37254,-78.0494 0,-29.53008 -11.48831,-57.32309 -32.37254,-78.16784"
     style="fill:#ffffff;fill-opacity:1;fill-rule:nonzero;stroke:none"
     id="path4536" /></svg>