<?xml version="1.0" encoding="UTF-8" standalone="no"?>
<!-- Created with Inkscape (http://www.inkscape.org/) -->

<svg
   xmlns:svg="http://www.w3.org/2000/svg"
   xmlns="http://www.w3.org/2000/svg"
   version="1.1"
   width="1500"
   height="350"
   id="svg2">
  <defs
     id="defs4" />
  <g
     id="layer1">
    <rect
       width="1500"
       height="350"
       rx="175"
       ry="175"
       x="0"
       y="0"
       id="rect3687-3"
       style="color:#000000;fill:#ffffff;fill-opacity:1;fill-rule:nonzero;stroke:none;stroke-width:2;marker:none;visibility:visible;display:inline;overflow:visible;enable-background:accumulate" />
    <rect
       width="1470"
       height="320"
       rx="160"
       ry="160"
       x="15"
       y="15"
       id="rect3687-0"
       style="color:#000000;fill:#ffffff;fill-opacity:1;fill-rule:nonzero;stroke:#0566ae;stroke-width:5;stroke-miterlimit:4;stroke-opacity:1;stroke-dasharray:none;marker:none;visibility:visible;display:inline;overflow:visible;enable-background:accumulate" />
    <rect
       width="1440"
       height="290"
       rx="145"
       ry="145"
       x="30"
       y="30"
       id="rect3687-9"
       style="color:#000000;fill:#ffffff;fill-opacity:1;fill-rule:nonzero;stroke:#0566ae;stroke-width:5;stroke-miterlimit:4;stroke-opacity:1;stroke-dasharray:none;marker:none;visibility:visible;display:inline;overflow:visible;enable-background:accumulate" />
    <g
       id="text2818"
       style="font-size:150px;font-style:normal;font-weight:normal;text-align:center;text-anchor:middle;fill:#0566ae;fill-opacity:1;stroke:none;font-family:'Rounded M+ 1m medium';-inkscape-font-specification:'Rounded M+ 1m medium'">
      <path
         d="m 296.48364,179.42163 c -3e-5,2.19726 -0.77442,4.04586 -2.32315,5.54581 -1.5488,1.49993 -3.42334,2.24989 -5.62362,2.24991 l -0.15107,0 c -2.20034,-2e-5 -4.10006,-0.79958 -5.69915,-2.39869 -1.59915,-1.59912 -2.39871,-3.49884 -2.39869,-5.69915 l 0,-112.348941 c -2e-5,-2.300915 0.8499,-4.30134 2.54975,-6.001282 1.6998,-1.699713 3.6987,-2.549627 5.9967,-2.549744 l 90.90271,0 c 2.29785,1.17e-4 4.29675,0.850031 5.99671,2.549744 1.6997,1.699942 2.54961,3.700367 2.54974,6.001282 l 0,112.348941 c -1.3e-4,2.20031 -0.79969,4.10003 -2.39868,5.69915 -1.59925,1.59911 -3.49897,2.39867 -5.69916,2.39869 l -0.15106,0 c -2.20044,-2e-5 -4.07498,-0.74998 -5.62363,-2.24991 -1.54888,-1.49995 -2.32326,-3.34855 -2.32315,-5.54581 -1.1e-4,-0.80261 -0.35106,-1.20392 -1.05286,-1.20392 l -73.49853,0 c -0.70194,0 -1.05289,0.40131 -1.05286,1.20392 z m 0,-106.050109 0,35.247799 c -3e-5,0.90034 0.40127,1.35047 1.20392,1.35041 l 73.19641,0 c 0.8025,6e-5 1.20381,-0.45007 1.20392,-1.35041 l 0,-35.247799 c -1.1e-4,-0.900166 -0.40142,-1.3503 -1.20392,-1.350403 l -73.19641,0 c -0.80265,1.03e-4 -1.20395,0.450237 -1.20392,1.350403 z m 0,51.448059 0,38.69934 c -3e-5,0.79957 0.40127,1.19935 1.20392,1.19934 l 73.19641,0 c 0.8025,1e-5 1.20381,-0.39977 1.20392,-1.19934 l 0,-38.69934 c -1.1e-4,-0.90022 -0.40142,-1.35035 -1.20392,-1.3504 l -73.19641,0 c -0.80265,5e-5 -1.20395,0.45018 -1.20392,1.3504 z"
         id="path3682" />
      <path
         d="m 447.5365,166.37079 c 8.30073,-2.0996 17.8512,-4.89958 28.65143,-8.39996 1.69976,-0.60118 3.32405,-0.45165 4.87289,0.4486 1.5487,0.90029 2.57332,2.25069 3.07388,4.05121 0.50042,1.89821 0.27535,3.72239 -0.6752,5.47257 -0.95069,1.75019 -2.3751,2.92587 -4.27322,3.52707 -18.60052,6.19811 -37.20096,10.94817 -55.80139,14.25018 -1.89821,0.29906 -3.64763,-0.10148 -5.24826,-1.20163 -1.60066,-1.10017 -2.60087,-2.59934 -3.00064,-4.49753 -0.39979,-1.80054 -0.0748,-3.47595 0.97503,-5.02624 1.0498,-1.5503 2.47497,-2.47498 4.27552,-2.77405 1.89818,-0.30212 4.74851,-0.85296 8.55102,-1.65253 0.90025,-0.19836 1.35038,-0.69732 1.3504,-1.49689 l 0,-104.70428 c -2e-5,-2.197153 0.77437,-4.07093 2.32315,-5.621338 1.54875,-1.550175 3.47364,-2.325321 5.77469,-2.32544 2.301,1.19e-4 4.22589,0.775265 5.77469,2.32544 1.54873,1.550408 2.32312,3.424185 2.32315,5.621338 l 0,34.204101 c -3e-5,0.897293 0.40127,1.345901 1.20392,1.345825 l 26.9989,0 c 1.99884,7.6e-5 3.64831,0.650104 4.94843,1.950074 1.29997,1.30012 1.95,2.95036 1.95007,4.95071 -7e-5,2.0005 -0.6501,3.65073 -1.95007,4.95072 -1.30012,1.30011 -2.94959,1.95013 -4.94843,1.95007 l -26.9989,0 c -0.80265,6e-5 -1.20395,0.39984 -1.20392,1.19934 l 0,50.39978 c -3e-5,0.30214 0.10067,0.57756 0.30213,0.82627 0.20137,0.24872 0.45162,0.32425 0.75073,0.22659 z m 58.49762,18.75 c -6.99777,-0.5005 -11.34729,-1.92567 -13.04855,-4.27551 -1.70144,-2.34986 -2.55212,-8.22449 -2.55204,-17.62391 l 0,-98.85406 c -8e-5,-2.297861 0.77507,-4.196815 2.32544,-5.696869 1.55021,-1.499821 3.42551,-2.24979 5.62592,-2.249909 2.30093,1.19e-4 4.22659,0.775265 5.77698,2.32544 1.55019,1.550408 2.32534,3.424185 2.32543,5.621338 l 0,35.549926 c -9e-5,0.302204 0.12503,0.528034 0.37537,0.677494 0.25015,0.14961 0.47445,0.17402 0.67291,0.0732 9.39931,-5.898969 19.34956,-13.947972 29.85077,-24.147035 1.40063,-1.400657 3.15081,-2.101034 5.25055,-2.101135 2.09948,1.01e-4 3.7993,0.749306 5.09949,2.247619 1.40062,1.501562 2.10099,3.276921 2.10113,5.326081 -1.4e-4,2.049346 -0.75087,3.774351 -2.25219,5.175018 -13.59876,13.000562 -26.89831,23.150702 -39.89868,30.450442 -0.79966,0.50054 -1.19944,1.10021 -1.19935,1.79901 l 0,41.55121 c -9e-5,4.59901 0.1998,7.34864 0.59968,8.2489 0.39968,0.90027 1.74855,1.49994 4.04663,1.79901 2.7007,0.30213 5.65174,0.45319 8.85315,0.45319 3.19812,0 6.198,-0.15106 8.99963,-0.45319 3.50024,-0.49743 5.6502,-2.12173 6.44989,-4.87289 0.79943,-2.75115 1.44946,-11.52571 1.95007,-26.3237 0.10058,-2.00192 0.90091,-3.65292 2.40097,-4.95301 1.49981,-1.3 3.19887,-1.84932 5.0972,-1.64795 2.00182,0.19841 3.70241,1.07274 5.10178,2.62299 1.39909,1.55033 2.04835,3.37528 1.94778,5.47485 -0.29921,7.00076 -0.57387,12.65109 -0.82397,16.95099 -0.25039,4.29994 -0.7257,8.17491 -1.42594,11.62491 -0.70051,3.45001 -1.37572,5.97534 -2.0256,7.57599 -0.65016,1.60064 -1.74956,3.00063 -3.29819,4.19998 -1.5489,1.19933 -3.07325,1.97448 -4.57306,2.32544 -1.50006,0.35094 -3.70114,0.67595 -6.60324,0.97504 -4.9989,0.50047 -9.49871,0.75072 -13.49945,0.75073 -3.50047,-1e-5 -8.05064,-0.1999 -13.65051,-0.59967 z"
         id="path3684" />
      <path
         d="m 614.63397,70.071045 c -8.89897,10.199069 -20.54904,19.448938 -34.95025,27.749634 -1.69985,0.998001 -3.49962,1.222305 -5.39933,0.672912 -1.89973,-0.549239 -3.3989,-1.67381 -4.49752,-3.373718 -1.00099,-1.699747 -1.27641,-3.449929 -0.82627,-5.250549 0.45013,-1.80045 1.52511,-3.19968 3.22495,-4.197693 11.99948,-7.101344 22.39986,-15.351763 31.20117,-24.751282 1.40071,-1.501349 3.07536,-2.326849 5.02396,-2.476501 1.94849,-0.14942 3.6735,0.375482 5.17501,1.574707 1.50141,1.300162 2.3765,2.925222 2.62528,4.875183 0.24866,1.950181 -0.27701,3.675949 -1.577,5.177307 z m 36.1496,-10.203552 c 1.29996,-1.599004 2.95019,-2.5481 4.95071,-2.84729 2.00033,-0.298954 3.85046,0.15118 5.55039,1.350402 11.9994,8.398546 23.19934,17.398171 33.59985,26.998902 1.50133,1.300137 2.27724,2.974788 2.32773,5.023956 0.0502,2.049338 -0.62498,3.824697 -2.0256,5.32608 -1.30019,1.498492 -2.95042,2.298051 -4.95072,2.398682 -2.00055,0.100785 -3.74997,-0.549239 -5.24826,-1.950073 -10.20214,-9.298618 -21.15336,-18.098353 -32.8537,-26.399231 -1.59921,-1.098526 -2.52389,-2.648055 -2.77405,-4.64859 -0.25033,-2.000315 0.22422,-3.75126 1.42365,-5.252838 z m -67.04865,75.599667 c -0.50051,0.30217 -1.30083,0.77824 -2.40097,1.42823 -1.10018,0.65006 -1.89897,1.12461 -2.39639,1.42364 -1.69985,1.00101 -3.5248,1.20167 -5.47485,0.60196 -1.95009,-0.59963 -3.42561,-1.75015 -4.42658,-3.45154 -1.00098,-1.70131 -1.20164,-3.50185 -0.60196,-5.40161 0.59966,-1.89967 1.75094,-3.34849 3.45383,-4.34647 17.09897,-9.80218 32.54848,-21.00212 46.34857,-33.599849 4.29987,-3.802403 9.1491,-5.703647 14.54773,-5.703735 l 3.00293,0 c 5.39848,8.8e-5 10.24772,1.901332 14.54773,5.703735 13.79994,12.597729 29.24945,23.797669 46.34857,33.599849 1.70274,0.99798 2.85402,2.4468 3.45383,4.34647 0.59953,1.89976 0.39888,3.7003 -0.60196,5.40161 -1.00112,1.70139 -2.47664,2.85191 -4.42657,3.45154 -1.95021,0.59971 -3.77516,0.39905 -5.47486,-0.60196 -0.49756,-0.29903 -1.29636,-0.77358 -2.39639,-1.42364 -1.10029,-0.64999 -1.90061,-1.12606 -2.40097,-1.42823 -0.20154,-0.19832 -0.42737,-0.22274 -0.67749,-0.0732 -0.25037,0.14958 -0.37549,0.37541 -0.37537,0.67749 l 0,44.24744 c -1.2e-4,2.20031 -0.79968,4.10079 -2.39868,5.70144 -1.59924,1.60064 -3.49896,2.40096 -5.69916,2.40097 l -1.50146,0 c -1.80065,-1e-5 -3.35094,-0.65003 -4.65088,-1.95007 -1.30016,-1.30006 -1.95018,-2.85035 -1.95007,-4.65088 -1.1e-4,-0.6012 -0.29918,-0.9018 -0.89722,-0.90179 l -64.80103,0 c -0.59818,-1e-5 -0.89725,0.30059 -0.89721,0.90179 -4e-5,1.80053 -0.65007,3.35082 -1.95008,4.65088 -1.30008,1.30004 -2.85037,1.95006 -4.65088,1.95007 l -1.50146,0 c -2.20035,-1e-5 -4.10007,-0.80033 -5.69916,-2.40097 -1.59914,-1.60065 -2.3987,-3.50113 -2.39868,-5.70144 l 0,-44.24744 c -2e-5,-0.30208 -0.12515,-0.52791 -0.37537,-0.67749 -0.25026,-0.1495 -0.47609,-0.12508 -0.67749,0.0732 z m 83.84858,31.35224 0,-26.70136 c -1.1e-4,-0.79952 -0.39989,-1.1993 -1.19934,-1.19934 l -64.19678,0 c -0.7996,4e-5 -1.19938,0.39982 -1.19934,1.19934 l 0,26.70136 c -4e-5,0.79957 0.39974,1.19934 1.19934,1.19934 l 64.19678,0 c 0.79945,0 1.19923,-0.39977 1.19934,-1.19934 z M 633.38397,97.069946 c -10.3974,10.299754 -21.49663,19.599974 -33.29773,27.900694 -0.20145,0.0977 -0.27698,0.24724 -0.22659,0.44861 0.0503,0.20147 0.1762,0.30217 0.37765,0.30212 l 68.09693,0 c 0.20131,5e-5 0.32719,-0.10065 0.37765,-0.30212 0.0503,-0.20137 -0.0253,-0.3509 -0.22659,-0.44861 -11.80124,-8.30072 -22.90048,-17.60094 -33.29773,-27.900694 -0.60127,-0.601117 -1.20247,-0.601117 -1.80359,0 z"
         id="path3686" />
      <path
         d="m 769.13379,71.119324 c -9.59783,18.200769 -22.09782,34.500196 -37.5,48.898316 -1.69985,1.50152 -3.62475,2.2019 -5.77469,2.10113 -2.14998,-0.10065 -3.97416,-0.95056 -5.47256,-2.54974 -1.50148,-1.49836 -2.20186,-3.34772 -2.10114,-5.54809 0.1007,-2.20026 0.95061,-4.00079 2.54974,-5.40162 13.29954,-12.298501 24.49948,-26.54867 33.59986,-42.750546 1.10164,-1.99879 2.6771,-3.398782 4.72641,-4.199981 2.0492,-0.800972 4.12363,-0.850563 6.22329,-0.148773 1.90119,0.698965 3.25159,2.023427 4.05121,3.973388 0.7995,1.950181 0.69879,3.825485 -0.30212,5.625916 z m 45.00275,-5.25055 c 9.10022,16.201876 20.30016,30.452045 33.59985,42.750546 1.59898,1.40083 2.44889,3.20136 2.54974,5.40162 0.10057,2.20037 -0.59981,4.04973 -2.10113,5.54809 -1.49855,1.59918 -3.34792,2.44909 -5.5481,2.54974 -2.20045,0.10077 -4.10016,-0.59961 -5.69916,-2.10113 -15.40233,-14.39812 -27.90232,-30.697547 -37.5,-48.898316 -1.00106,-1.800431 -1.10177,-3.675735 -0.30212,-5.625916 0.79947,-1.949961 2.14987,-3.274423 4.05121,-3.973388 2.09951,-0.70179 4.17394,-0.652199 6.2233,0.148773 2.04915,0.801199 3.62462,2.201191 4.72641,4.199981 z m -43.87665,35.925296 c 1.95001,-1.04973 4.0252,-1.2748 6.22558,-0.6752 2.20025,0.59974 3.82531,1.87461 4.87519,3.82461 1.04973,1.95014 1.2252,4.02534 0.52642,6.22559 -5.90216,19.10099 -12.50311,37.4512 -19.80285,55.05066 -0.0977,0.29908 -0.0466,0.54856 0.15335,0.74844 0.19984,0.1999 0.44932,0.29984 0.74844,0.29984 19.59832,-1.3977 39.09751,-3.19671 58.49762,-5.39704 0.30201,2e-5 0.52784,-0.17546 0.67749,-0.52643 0.14943,-0.35093 0.12501,-0.62559 -0.0732,-0.82397 -2.80162,-4.9011 -7.40214,-12.45115 -13.80157,-22.65015 -1.00108,-1.69979 -1.20173,-3.49956 -0.60196,-5.39932 0.59957,-1.89967 1.79967,-3.25084 3.60031,-4.0535 2.00185,-0.90022 4.0778,-1.04975 6.22787,-0.44861 2.14986,0.60125 3.77415,1.85094 4.8729,3.74909 7.90088,12.60074 16.45037,27.25069 25.6485,43.94989 1.00083,1.80053 1.15113,3.67584 0.45089,5.62591 -0.70051,1.95007 -1.9998,3.32489 -3.89785,4.12445 -2.00209,0.79955 -3.9781,0.84991 -5.92804,0.15107 -1.95021,-0.69887 -3.47456,-1.99891 -4.57306,-3.90015 -0.69898,-1.30005 -1.84949,-3.34931 -3.45154,-6.14777 -0.3999,-0.90026 -1.04993,-1.25122 -1.95007,-1.05285 -33.29782,4.40063 -66.54669,7.30132 -99.74671,8.70209 -1.90126,0.0976 -3.57668,-0.50279 -5.02624,-1.8013 -1.4496,-1.29853 -2.22475,-2.89841 -2.32544,-4.79966 -0.10072,-1.90124 0.49895,-3.55148 1.79901,-4.95071 1.30003,-1.39923 2.95103,-2.1492 4.953,-2.24991 2.79844,-0.1007 7.34708,-0.35095 13.64594,-0.75073 1.00094,0 1.70132,-0.45013 2.10113,-1.3504 8.30074,-19.4 15.70124,-39.59957 22.20154,-60.59876 0.69879,-2.20025 2.02326,-3.82531 3.97339,-4.87518 z"
         id="path3688" />
      <path
         d="m 884.48566,183.92145 c -3e-5,1.4984 -0.55011,2.79769 -1.65024,3.89786 -1.10018,1.10014 -2.39947,1.65022 -3.89786,1.65023 l -2.40326,0 c -2.20033,-1e-5 -4.05046,-0.77516 -5.55038,-2.32544 -1.49995,-1.5503 -2.24992,-3.4256 -2.24991,-5.62591 l 0,-116.999818 c -10e-6,-2.297861 0.82549,-4.297523 2.4765,-5.998993 1.65099,-1.701237 3.62547,-2.551914 5.92346,-2.552033 l 114.30359,0 c 2.29784,1.19e-4 4.29674,0.850796 5.99671,2.552033 1.69968,1.70147 2.5496,3.701132 2.54974,5.998993 l 0,116.999818 c -1.4e-4,2.20031 -0.77452,4.07561 -2.32315,5.62591 -1.54891,1.55028 -3.42345,2.32543 -5.62363,2.32544 l -2.40326,0 c -1.49854,-1e-5 -2.79782,-0.55009 -3.89786,-1.65023 -1.10028,-1.10017 -1.65036,-2.39946 -1.65023,-3.89786 -1.3e-4,-0.60121 -0.25037,-0.9018 -0.75074,-0.9018 l -98.09875,0 c -0.50051,0 -0.75076,0.30059 -0.75073,0.9018 z m 0,-114.001467 0,99.600217 c -3e-5,0.79957 0.39975,1.19935 1.19934,1.19934 l 97.20154,0 c 0.79943,1e-5 1.19921,-0.39977 1.19934,-1.19934 l 0,-99.600217 c -1.3e-4,-0.799455 -0.39991,-1.199234 -1.19934,-1.199341 l -97.20154,0 c -0.79959,1.07e-4 -1.19937,0.399886 -1.19934,1.199341 z m 92.47284,25.502014 c 1.05273,0.998004 1.57916,2.197343 1.57928,3.598023 -1.2e-4,1.40083 -0.52578,2.65129 -1.577,3.75137 -1.05144,1.10023 -2.27596,1.65031 -3.67355,1.65024 l -78.00293,0 c -1.39774,7e-5 -2.62225,-0.55001 -3.67355,-1.65024 -1.05136,-1.10008 -1.57703,-2.35054 -1.577,-3.75137 -3e-5,-1.40068 0.52564,-2.600782 1.577,-3.600312 1.0513,-0.99937 2.27581,-1.499094 3.67355,-1.499176 l 29.85077,0 c 0.9002,8.2e-5 1.35034,-0.450052 1.3504,-1.350403 l 0,-3.749084 c -6e-5,-0.900181 -0.4502,-1.350315 -1.3504,-1.350403 l -24.75128,0 c -1.39775,8.8e-5 -2.59709,-0.5004 -3.59802,-1.501465 -1.00102,-1.000886 -1.5015,-2.200989 -1.50147,-3.600311 -3e-5,-1.399137 0.50045,-2.574062 1.50147,-3.52478 1.00093,-0.950526 2.20027,-1.425836 3.59802,-1.425934 l 25.19989,0 c 0.60113,9.8e-5 0.90173,-0.298974 0.90179,-0.897217 -6e-5,-1.400657 0.49966,-2.600759 1.49918,-3.600311 0.99938,-0.999348 2.19948,-1.499072 3.60031,-1.499176 l 5.40161,0 c 1.40068,1.04e-4 2.60078,0.499828 3.60031,1.499176 0.99937,0.999552 1.4991,2.199654 1.49918,3.600311 -8e-5,0.598243 0.30051,0.897315 0.90179,0.897217 l 25.19989,0 c 1.3976,9.8e-5 2.59694,0.475408 3.59803,1.425934 1.00086,0.950718 1.50135,2.125643 1.50146,3.52478 -1.1e-4,1.399322 -0.5006,2.599425 -1.50146,3.600311 -1.00109,1.001065 -2.20043,1.501553 -3.59803,1.501465 l -24.75128,0 c -0.90035,8.8e-5 -1.35048,0.450222 -1.3504,1.350403 l 0,3.749084 c -8e-5,0.900351 0.45005,1.350485 1.3504,1.350403 l 29.85077,0 c 1.39759,8.2e-5 2.62134,0.500569 3.67127,1.501465 z m -0.97046,40.196233 1.19934,1.19934 c 1.19922,1.10172 1.77371,2.4773 1.72348,4.12674 -0.0505,1.6495 -0.67532,3.02508 -1.87454,4.12673 -3,2.60013 -5.29949,4.5502 -6.8985,5.85022 -0.60131,0.59817 -0.55248,1.09713 0.14648,1.49689 0.60109,0.3998 1.45176,0.90029 2.55203,1.50147 1.10005,0.60121 1.9492,1.1017 2.54746,1.50146 1.40064,0.79958 2.22614,2.0241 2.4765,3.67356 0.25013,1.64948 -0.22442,3.07389 -1.42364,4.27322 -1.40088,1.40077 -3.00152,2.17591 -4.80195,2.32544 -1.80064,0.14954 -3.50047,-0.27465 -5.09948,-1.27258 -7.8004,-5.00182 -15.44962,-9.55199 -22.9477,-13.65052 -0.80269,-0.39975 -1.204,-0.14951 -1.20391,0.75074 l 0,5.9967 c -9e-5,2.20033 -0.77447,4.07564 -2.32315,5.62591 -1.54885,1.55031 -3.42339,2.32545 -5.62363,2.32544 -2.20039,1e-5 -4.05052,-0.77513 -5.55039,-2.32544 -1.5,-1.55027 -2.24997,-3.42558 -2.2499,-5.62591 l 0,-4.79736 c -7e-5,-0.30211 -0.15037,-0.52794 -0.4509,-0.67749 -0.30067,-0.14952 -0.55015,-0.12358 -0.74845,0.0778 -7.60198,4.49831 -16.00194,8.64717 -25.19989,12.44659 -1.69986,0.70191 -3.42487,0.75303 -5.17501,0.15335 -1.75022,-0.59966 -3.1258,-1.70058 -4.12674,-3.30276 -0.79959,-1.39769 -0.92472,-2.89687 -0.37537,-4.49753 0.54929,-1.60063 1.62503,-2.70155 3.22723,-3.30277 12.69832,-4.79733 23.39777,-9.89682 32.09839,-15.29846 0.10064,-0.10067 0.12582,-0.22579 0.0755,-0.37537 -0.0504,-0.14949 -0.1763,-0.22426 -0.37765,-0.2243 l -11.54938,0 -6.44989,0 c -2.29802,4e-5 -4.29692,-0.84988 -5.9967,-2.54974 -1.69987,-1.69979 -2.54979,-3.70022 -2.54975,-6.00129 l 0,-11.39831 c -4e-5,-2.30097 0.84988,-4.30139 2.54975,-6.00128 1.69978,-1.69977 3.69868,-2.54968 5.9967,-2.54975 l 53.40271,0 c 2.29787,7e-5 4.29677,0.84998 5.99671,2.54975 1.69972,1.69989 2.54963,3.70031 2.54974,6.00128 l 0,17.55066 c -1.1e-4,0.0977 0.0502,0.1717 0.15106,0.22201 0.1006,0.0504 0.20131,0.0252 0.30213,-0.0755 0.79944,-0.79952 1.79889,-1.17412 2.99835,-1.12381 1.19922,0.0504 2.2002,0.47535 3.00293,1.27488 z m -61.95374,-15.00092 0,5.70373 c -5e-5,0.79961 0.45008,1.19939 1.3504,1.19935 l 37.95319,0 c 0.79947,4e-5 1.19925,-0.39974 1.19934,-1.19935 l 0,-5.70373 c -9e-5,-0.79951 -0.39987,-1.19929 -1.19934,-1.19934 l -37.95319,0 c -0.90032,5e-5 -1.35045,0.39983 -1.3504,1.19934 z m 31.5033,18.60352 11.24725,5.85021 c 0.70181,0.39981 1.45254,0.29911 2.2522,-0.30212 l 7.64923,-6.29883 c 0.50038,-0.50045 0.35084,-0.75069 -0.44861,-0.75073 l -19.20319,0 c -0.50057,4e-5 -1.04989,0.19993 -1.64794,0.59967 -0.39987,0.39982 -0.34952,0.70042 0.15106,0.9018 z"
         id="path3690" />
    </g>
    <g
       id="text2822"
       style="font-size:75px;font-style:normal;font-weight:normal;text-align:center;text-anchor:middle;fill:#0566ae;fill-opacity:1;stroke:#0566ae;stroke-width:2;stroke-miterlimit:4;stroke-opacity:1;font-family:IPAPGothic;-inkscape-font-specification:IPAPGothic">
      <path
         d="m 418.68176,279.34406 -6.59179,0 0,-25.04883 -28.67432,0 0,25.04883 -6.5918,0 0,-53.57666 6.5918,0 0,23.03466 28.67432,0 0,-23.03466 6.59179,0 z"
         id="path3702" />
      <path
         d="m 439.73889,234.04376 -7.36084,0 0,-7.50732 7.36084,0 z m -0.47607,45.3003 -6.44532,0 0,-37.35352 6.44532,0 z"
         id="path3704" />
      <path
         d="m 459.33118,248.06964 c 3.32029,-4.7607 7.59275,-7.14107 12.81738,-7.14111 4.44333,4e-5 8.23971,1.57474 11.38916,4.72412 3.66207,3.66214 5.49312,8.71584 5.49316,15.16113 -4e-5,6.29884 -1.83109,11.2671 -5.49316,14.90479 -3.14945,3.14941 -6.99466,4.72412 -11.53564,4.72412 -5.05374,0 -9.42385,-2.13623 -13.11036,-6.40869 l -0.91552,5.52978 -5.01709,0 0,-55.66406 6.37207,0 z m 0,8.60596 0,8.71582 c -2e-5,2.85646 1.57469,5.40772 4.72412,7.65381 2.14842,1.53809 4.45554,2.30713 6.92138,2.30713 2.88084,0 5.32224,-1.00097 7.32422,-3.00293 2.6611,-2.73437 3.99167,-6.53075 3.9917,-11.38916 -3e-5,-4.39451 -1.09867,-7.99558 -3.2959,-10.80323 -2.17288,-2.70992 -4.8218,-4.0649 -7.94677,-4.06494 -2.85647,4e-5 -5.54201,1.25736 -8.05664,3.77197 -2.44142,2.44144 -3.66213,4.71194 -3.66211,6.81153 z"
         id="path3706" />
      <path
         d="m 506.82874,234.04376 -7.36084,0 0,-7.50732 7.36084,0 z m -0.47608,45.3003 -6.44531,0 0,-37.35352 6.44531,0 z"
         id="path3708" />
      <path
         d="m 549.8219,241.99054 -18.12744,43.79883 c -2.31935,5.59081 -6.32326,8.38621 -12.01172,8.38623 l -0.84229,0 -1.5747,-5.85938 1.20849,0 c 4.07714,-10e-6 6.82372,-1.81885 8.23975,-5.45654 l 2.41699,-6.00586 -15.4541,-34.86328 7.2876,0 8.23974,20.98389 c 1.29393,3.39356 2.24608,6.04249 2.85645,7.94677 l 0.21973,0 c 0.97654,-3.02733 1.90427,-5.67625 2.7832,-7.94677 l 7.80029,-20.98389 z"
         id="path3710" />
      <path
         d="m 587.13879,279.34406 -5.71289,0 c -0.85452,-1.87989 -1.40384,-3.80859 -1.64795,-5.78614 l -0.21972,0 c -2.83206,4.54102 -7.05569,6.81153 -12.6709,6.81153 -3.85744,0 -7.00685,-1.22071 -9.44824,-3.66211 -2.14845,-2.14844 -3.22266,-4.77294 -3.22266,-7.87354 0,-7.71482 6.65282,-11.76755 19.9585,-12.1582 l 5.01709,-0.14649 0,-1.94091 c -3e-5,-2.61228 -0.75687,-4.66306 -2.27051,-6.15235 -1.53811,-1.56246 -3.52786,-2.34371 -5.96924,-2.34375 -4.19923,4e-5 -7.34865,2.03861 -9.44824,6.11572 l -5.56641,-2.56347 c 3.44238,-5.71286 8.49608,-8.5693 15.16113,-8.56934 4.56541,4e-5 8.09324,1.28178 10.5835,3.84522 2.29489,2.29495 3.44235,5.54202 3.44238,9.74121 l 0,13.73291 c -3e-5,4.66309 0.67135,8.31299 2.01416,10.94971 z m -7.80029,-18.31055 -4.13818,0.0732 c -9.64357,0.21975 -14.46535,2.81984 -14.46533,7.80029 -2e-5,1.75783 0.57371,3.21046 1.72119,4.35791 1.416,1.39161 3.27147,2.08741 5.5664,2.08741 3.19822,0 5.96922,-1.17187 8.31299,-3.51563 2.00193,-2.07518 3.0029,-4.57762 3.00293,-7.50732 z"
         id="path3712" />
    </g>
    <g
       id="text2822-8"
       style="font-size:75px;font-style:normal;font-weight:normal;text-align:center;text-anchor:middle;fill:#0566ae;fill-opacity:1;stroke:#0566ae;stroke-width:2;stroke-miterlimit:4;stroke-opacity:1;font-family:IPAPGothic;-inkscape-font-specification:IPAPGothic">
      <path
         d="m 733.29919,225.7674 15.60059,0 c 13.64742,5e-5 20.47115,5.127 20.47119,15.38085 -4e-5,10.83988 -6.95804,16.25979 -20.87402,16.25977 l -8.60596,0 0,21.93604 -6.5918,0 z m 6.5918,26.4038 7.36084,0 c 10.15622,3e-5 15.23434,-3.64987 15.23438,-10.9497 -4e-5,-6.76265 -4.71195,-10.144 -14.13575,-10.14405 l -8.45947,0 z"
         id="path3693" />
      <path
         d="m 809.72742,279.34406 -5.71289,0 c -0.85453,-1.87989 -1.40384,-3.80859 -1.64795,-5.78614 l -0.21973,0 c -2.83206,4.54102 -7.05569,6.81153 -12.6709,6.81153 -3.85743,0 -7.00684,-1.22071 -9.44824,-3.66211 -2.14844,-2.14844 -3.22266,-4.77294 -3.22266,-7.87354 0,-7.71482 6.65283,-11.76755 19.9585,-12.1582 l 5.01709,-0.14649 0,-1.94091 c -3e-5,-2.61228 -0.75686,-4.66306 -2.27051,-6.15235 -1.53811,-1.56246 -3.52785,-2.34371 -5.96924,-2.34375 -4.19923,4e-5 -7.34864,2.03861 -9.44824,6.11572 l -5.5664,-2.56347 c 3.44237,-5.71286 8.49607,-8.5693 15.16113,-8.56934 4.5654,4e-5 8.09323,1.28178 10.58349,3.84522 2.29489,2.29495 3.44235,5.54202 3.44239,9.74121 l 0,13.73291 c -4e-5,4.66309 0.67135,8.31299 2.01416,10.94971 z m -7.8003,-18.31055 -4.13818,0.0732 c -9.64357,0.21975 -14.46534,2.81984 -14.46533,7.80029 -10e-6,1.75783 0.57372,3.21046 1.72119,4.35791 1.416,1.39161 3.27147,2.08741 5.56641,2.08741 3.19822,0 5.96921,-1.17187 8.31298,-3.51563 2.00193,-2.07518 3.0029,-4.57762 3.00293,-7.50732 z"
         id="path3695" />
      <path
         d="m 841.11169,241.25812 -1.13525,6.37207 c -0.8301,-0.17087 -1.57473,-0.25632 -2.23389,-0.25635 -2.88088,3e-5 -5.26125,1.35501 -7.14111,4.06494 -2.34376,3.418 -3.51564,6.42092 -3.51562,9.00879 l 0,18.89649 -6.44532,0 0,-37.35352 6.0791,0 -0.29296,11.09619 0.14648,0 c 2.75877,-8.10543 6.77488,-12.15816 12.04834,-12.1582 0.85447,4e-5 1.68454,0.1099 2.49023,0.32959 z"
         id="path3697" />
      <path
         d="m 879.89343,279.34406 -7.80029,0 -12.81738,-18.16407 -4.28467,4.13819 0,14.02588 -6.29883,0 0,-55.44434 6.29883,0 0,35.48584 15.74707,-17.39502 8.09326,0 -15.52734,15.52734 z"
         id="path3699" />
    </g>
    <g
       transform="matrix(0.56175222,0,0,0.56175222,656.52629,-294.75087)"
       id="g3833">
      <path
         d="m 817.5,699.43856 0,28.57786 299.9232,0.28867 -111.7135,-109.6928 -81.98089,0 81.40359,81.4036 L 817.5,699.43856 z"
         id="path3807"
         style="fill:#0566ae;fill-opacity:1;stroke:none" />
      <path
         d="m 817.5,770.34588 0,-28.57786 299.9232,-0.28867 -111.7135,109.6928 -81.98089,0 81.40359,-81.4036 -187.6324,0.57733 z"
         id="path3807-5"
         style="fill:#0566ae;fill-opacity:1;stroke:none" />
    </g>
    <g
       id="text2822-8-7"
       style="font-size:75px;font-style:normal;font-weight:normal;text-align:center;text-anchor:middle;fill:#0566ae;fill-opacity:1;stroke:#0566ae;stroke-width:2;stroke-miterlimit:4;stroke-opacity:1;font-family:IPAPGothic;-inkscape-font-specification:IPAPGothic">
      <path
         d="m 1099.3114,249.57111 c 3.5644,-2.80759 7.4463,-4.2114 11.6455,-4.21143 5.0293,3e-5 9.2041,1.69681 12.5244,5.09033 3.1006,3.2471 4.6509,7.27542 4.6509,12.08496 0,4.37013 -1.3306,8.21534 -3.9917,11.53565 -3.3448,4.24805 -8.2886,6.37207 -14.8315,6.37207 -8.3741,0 -14.4776,-3.18603 -18.3106,-9.55811 l 5.4932,-2.85644 c 2.9052,4.63868 7.1045,6.95801 12.5976,6.95801 3.54,0 6.4941,-1.09863 8.8623,-3.2959 2.4414,-2.31933 3.6621,-5.3955 3.6621,-9.22852 0,-3.61326 -1.0742,-6.49412 -3.2226,-8.64258 -2.2461,-2.24606 -5.1758,-3.36911 -8.7891,-3.36914 -5.0781,3e-5 -8.9233,1.95315 -11.5356,5.85938 l -5.6397,-0.73242 3.4424,-29.80957 29.5532,0 0,5.63964 -24.2065,0 -2.417,18.16407 z"
         id="path3673" />
      <path
         d="m 1156.6967,224.70538 c 6.5917,6e-5 11.6576,3.05181 15.1977,9.15528 2.8076,4.83402 4.2114,11.08402 4.2114,18.75 0,7.59279 -1.4038,13.85499 -4.2114,18.78662 -3.4912,6.03027 -8.6426,9.04541 -15.4541,9.04541 -6.7871,0 -11.9263,-3.01514 -15.4175,-9.04541 -2.8076,-4.93163 -4.2114,-11.21824 -4.2114,-18.85987 0,-10.64449 2.5757,-18.39595 7.7271,-23.25439 3.2714,-3.0517 7.3242,-4.57758 12.1582,-4.57764 z m -0.2564,5.41993 c -3.9063,5e-5 -6.9824,1.97758 -9.2285,5.93261 -2.2949,4.00395 -3.4424,9.53373 -3.4424,16.58936 0,6.9092 1.123,12.35353 3.3691,16.33301 2.2705,3.90625 5.3711,5.85938 9.3018,5.85937 4.7119,1e-5 8.2031,-2.74657 10.4736,-8.23975 1.4893,-3.6865 2.2339,-8.47165 2.2339,-14.35546 0,-6.86032 -1.1475,-12.25582 -3.4424,-16.18653 -2.3193,-3.95503 -5.4077,-5.93256 -9.2651,-5.93261 z"
         id="path3675" />
      <path
         d="m 1204.0111,224.70538 c 6.5918,6e-5 11.6577,3.05181 15.1978,9.15528 2.8075,4.83402 4.2113,11.08402 4.2114,18.75 -10e-5,7.59279 -1.4039,13.85499 -4.2114,18.78662 -3.4913,6.03027 -8.6426,9.04541 -15.4541,9.04541 -6.7872,0 -11.9263,-3.01514 -15.4175,-9.04541 -2.8076,-4.93163 -4.2114,-11.21824 -4.2114,-18.85987 0,-10.64449 2.5756,-18.39595 7.727,-23.25439 3.2715,-3.0517 7.3242,-4.57758 12.1582,-4.57764 z m -0.2563,5.41993 c -3.9063,5e-5 -6.9825,1.97758 -9.2286,5.93261 -2.2949,4.00395 -3.4423,9.53373 -3.4423,16.58936 0,6.9092 1.123,12.35353 3.3691,16.33301 2.2705,3.90625 5.3711,5.85938 9.3018,5.85937 4.7118,1e-5 8.2031,-2.74657 10.4736,-8.23975 1.4892,-3.6865 2.2338,-8.47165 2.2339,-14.35546 -10e-5,-6.86032 -1.1475,-12.25582 -3.4424,-16.18653 -2.3194,-3.95503 -5.4077,-5.93256 -9.2651,-5.93261 z"
         id="path3677" />
      <path
         d="m 1286.2987,279.34406 -6.4453,0 0,-23.40088 c -10e-5,-6.2988 -2.4415,-9.44821 -7.3242,-9.44825 -2.3194,4e-5 -4.4434,1.07426 -6.3721,3.22266 -1.3672,1.5137 -2.3194,3.418 -2.8564,5.71289 l 0,23.91358 -6.4454,0 0,-23.47413 c 0,-6.24997 -2.3071,-9.37496 -6.9213,-9.375 -2.4415,4e-5 -4.5899,1.07426 -6.4454,3.22266 -2.0019,2.22171 -3.0029,4.37014 -3.0029,6.44531 l 0,23.18116 -6.4453,0 0,-37.35352 6.0059,0 0,6.44531 c 2.4658,-4.78512 6.1889,-7.17769 11.1694,-7.17773 5.4443,4e-5 9.0698,2.60013 10.8765,7.80029 2.7099,-5.20016 6.6039,-7.80025 11.6821,-7.80029 4.1015,4e-5 7.2997,1.45267 9.5947,4.35791 1.9531,2.39261 2.9296,5.78616 2.9297,10.18066 z"
         id="path3679" />
    </g>
  </g>
</svg>
