<?xml version="1.0" encoding="UTF-8" standalone="no"?>
<!-- Created with Inkscape (http://www.inkscape.org/) -->

<svg
   xmlns:svg="http://www.w3.org/2000/svg"
   xmlns="http://www.w3.org/2000/svg"
   version="1.2"
   width="1200"
   height="500"
   id="svg5338">
  <defs
     id="defs5340" />
  <g
     transform="translate(0,-772.36217)"
     id="layer1">
    <rect
       width="1200"
       height="500"
       rx="50"
       ry="50"
       x="0"
       y="0"
       transform="translate(0,772.36217)"
       id="rect5348"
       style="color:#000000;fill:#000000;fill-opacity:1;stroke:none;stroke-width:99;marker:none;visibility:visible;display:inline;overflow:visible;enable-background:accumulate" />
    <rect
       width="1170"
       height="470"
       rx="50"
       ry="50"
       x="15"
       y="15"
       transform="translate(0,772.36217)"
       id="rect5860"
       style="color:#000000;fill:#ffffff;fill-opacity:1;fill-rule:nonzero;stroke:none;stroke-width:99;marker:none;visibility:visible;display:inline;overflow:visible;enable-background:accumulate" />
  </g>
  <path
     d="m 187.64141,321.05302 c -1.79855,-1.73326 -2.6978,-3.93358 -2.69775,-6.60095 -5e-5,-2.6671 0.90022,-4.86741 2.7008,-6.60095 1.80049,-1.73326 3.96622,-2.59995 6.4972,-2.6001 l 97.60131,0 c 2.53485,1.5e-4 4.70261,0.86684 6.5033,2.6001 1.80038,1.73354 2.70065,3.93385 2.70081,6.60095 -1.6e-4,2.66737 -0.90043,4.86769 -2.70081,6.60095 -1.80069,1.73353 -3.96845,2.60023 -6.5033,2.6001 l -97.60131,0 c -2.53098,1.3e-4 -4.69772,-0.86657 -6.50025,-2.6001 z m 55.30396,136.19996 c -23.46606,-10e-6 -41.99937,-3.93372 -55.59998,-11.80115 -13.6007,-7.86742 -20.40102,-18.26678 -20.401,-31.19812 -2e-5,-12.00354 7.73312,-26.20437 23.19946,-42.60254 1.86763,-2.00187 4.2012,-3.06897 7.00074,-3.2013 2.79942,-0.13216 5.26523,0.66842 7.39746,2.40174 2.00188,1.5992 3.06898,3.6988 3.20129,6.29883 0.13218,2.60016 -0.6684,4.83405 -2.40173,6.70166 -11.33225,12.13384 -16.99834,21.60038 -16.99829,28.39965 -5e-5,7.86543 4.80036,14.16527 14.40124,18.89954 9.60076,4.73431 23.00102,7.10145 40.20081,7.10144 18.00118,1e-5 36.93427,-2.20132 56.79931,-6.604 2.53484,-0.53302 4.90198,-0.13223 7.10144,1.20239 2.19914,1.33465 3.63244,3.33457 4.29993,5.99976 0.66715,2.66521 0.26737,5.13204 -1.19934,7.40051 -1.46705,2.26847 -3.46798,3.66923 -6.00281,4.20227 -21.19968,4.53287 -41.53251,6.79931 -60.99853,6.79932 z"
     id="path2883"
     style="font-size:200px;font-style:normal;font-weight:normal;text-align:center;text-anchor:middle;fill:#000000;fill-opacity:1;stroke:none;font-family:'Rounded M+ 1m medium';-inkscape-font-specification:'Rounded M+ 1m medium'" />
  <path
     d="m 417.64141,321.05302 c -1.79855,-1.73326 -2.6978,-3.93358 -2.69775,-6.60095 -5e-5,-2.6671 0.90022,-4.86741 2.7008,-6.60095 1.80049,-1.73326 3.96622,-2.59995 6.4972,-2.6001 l 97.60131,0 c 2.53485,1.5e-4 4.70261,0.86684 6.5033,2.6001 1.80038,1.73354 2.70065,3.93385 2.70081,6.60095 -1.6e-4,2.66737 -0.90043,4.86769 -2.70081,6.60095 -1.80069,1.73353 -3.96845,2.60023 -6.5033,2.6001 l -97.60131,0 c -2.53098,1.3e-4 -4.69772,-0.86657 -6.50025,-2.6001 z m 55.30396,136.19996 c -23.46606,-10e-6 -41.99937,-3.93372 -55.59998,-11.80115 -13.6007,-7.86742 -20.40102,-18.26678 -20.401,-31.19812 -2e-5,-12.00354 7.73312,-26.20437 23.19946,-42.60254 1.86763,-2.00187 4.2012,-3.06897 7.00074,-3.2013 2.79942,-0.13216 5.26523,0.66842 7.39746,2.40174 2.00188,1.5992 3.06898,3.6988 3.20129,6.29883 0.13218,2.60016 -0.6684,4.83405 -2.40173,6.70166 -11.33225,12.13384 -16.99834,21.60038 -16.99829,28.39965 -5e-5,7.86543 4.80036,14.16527 14.40124,18.89954 9.60076,4.73431 23.00102,7.10145 40.20081,7.10144 18.00118,1e-5 36.93427,-2.20132 56.79931,-6.604 2.53484,-0.53302 4.90198,-0.13223 7.10144,1.20239 2.19914,1.33465 3.63244,3.33457 4.29993,5.99976 0.66715,2.66521 0.26737,5.13204 -1.19934,7.40051 -1.46705,2.26847 -3.46798,3.66923 -6.00281,4.20227 -21.19968,4.53287 -41.53251,6.79931 -60.99853,6.79932 z"
     id="path2885"
     style="font-size:200px;font-style:normal;font-weight:normal;text-align:center;text-anchor:middle;fill:#000000;fill-opacity:1;stroke:none;font-family:'Rounded M+ 1m medium';-inkscape-font-specification:'Rounded M+ 1m medium'" />
  <g
     transform="translate(733.28814,8.1186441)"
     id="flowRoot2828"
     style="font-size:200px;font-style:normal;font-weight:normal;text-align:center;text-anchor:middle;fill:#000000;fill-opacity:1;stroke:none;font-family:'Rounded M+ 1m medium';-inkscape-font-specification:'Rounded M+ 1m medium'">
    <path
       d="m -444.59644,209.05986 c -4e-5,2.26643 -0.7996,4.19921 -2.39868,5.79834 -1.59916,1.59911 -3.53193,2.39867 -5.79834,2.39868 l -2.60009,0 c -2.93379,-1e-5 -5.43419,-1.03354 -7.50123,-3.10058 -2.06707,-2.06707 -3.1006,-4.63258 -3.10058,-7.69654 l 0,-152.801509 c -2e-5,-3.067885 1.10065,-5.735119 3.302,-8.001709 2.20131,-2.266283 4.83396,-3.399501 7.89795,-3.399658 l 143.60352,0 c 2.53074,1.57e-4 4.69647,0.866855 6.49719,2.600098 1.80035,1.733551 2.70062,3.866727 2.7008,6.399536 -1.8e-4,2.533104 -0.90045,4.666281 -2.7008,6.399536 -1.80072,1.733538 -3.96645,2.600237 -6.49719,2.600098 l -131.60401,0 c -1.2004,1.39e-4 -1.80058,0.600317 -1.80054,1.800537 l 0,126.000981 c -4e-5,1.06609 0.60014,1.59913 1.80054,1.59912 l 133.59986,0 c 2.53481,1e-5 4.70257,0.90027 6.50329,2.7008 1.80035,1.80054 2.70062,3.96729 2.70081,6.50025 -1.9e-4,2.53295 -0.90046,4.63256 -2.70081,6.29882 -1.80072,1.66626 -3.96848,2.49939 -6.50329,2.49939 l -134.198,0 c -0.80164,0 -1.20244,0.46793 -1.2024,1.40381 z m 14.00147,-43.20068 c 17.73267,-11.33622 34.46646,-25.13625 50.20142,-41.40015 0.66721,-0.66724 0.60007,-1.4017 -0.20142,-2.20337 -11.73105,-10.13175 -24.53011,-19.86481 -38.39722,-29.199215 -2.13629,-1.464736 -3.37022,-3.497205 -3.70178,-6.097412 -0.33169,-2.599983 0.3692,-4.833868 2.10266,-6.701661 1.86354,-2.13204 4.1961,-3.398518 6.99768,-3.799438 2.80144,-0.400674 5.33541,0.198487 7.60193,1.797485 14.53034,9.867462 27.39654,19.600525 38.59863,29.199221 0.93169,0.66741 1.73125,0.6023 2.39869,-0.19531 9.59866,-11.466372 18.13137,-23.134248 25.59814,-35.003667 1.60304,-2.530795 3.80437,-4.163483 6.604,-4.898071 2.79933,-0.734324 5.46554,-0.368113 7.99866,1.098633 2.5328,1.467007 4.13293,3.600184 4.80042,6.399536 0.66715,2.799601 0.26635,5.399696 -1.2024,7.800293 -7.99983,12.666933 -17.39923,25.468026 -28.19824,38.403316 -0.80173,0.93188 -0.80173,1.79858 0,2.6001 11.33205,10.53067 23.39869,22.5973 36.19995,36.19995 1.8675,1.99792 2.76777,4.3966 2.70081,7.19605 -0.0673,2.79951 -1.16696,5.06594 -3.29895,6.79931 -2.1364,1.8677 -4.60425,2.70185 -7.40357,2.50245 -2.79964,-0.19936 -5.13321,-1.30003 -7.00073,-3.30201 -11.59682,-12.39823 -23.06328,-23.9298 -34.39941,-34.59472 -0.79765,-0.80154 -1.59721,-0.80154 -2.39868,0 -17.19982,17.73279 -34.39951,32.13097 -51.59913,43.19458 -2.66526,1.73341 -5.49831,2.33359 -8.49914,1.80053 -3.00095,-0.53302 -5.50034,-1.93276 -7.49817,-4.19921 -1.73345,-1.99787 -2.40077,-4.36399 -2.00195,-7.09839 0.39871,-2.73435 1.73131,-4.83396 3.9978,-6.29883 z"
       id="path2896" />
    <path
       d="m 101.40576,152.85869 -8.599852,0 c -3.068109,5e-5 -5.735343,-1.13317 -8.001709,-3.39966 -2.266507,-2.26638 -3.399725,-4.93362 -3.399658,-8.00171 l 0,-40.39917 c -6.7e-5,-3.067929 1.133151,-5.735163 3.399658,-8.001705 2.266366,-2.266331 4.9336,-3.399549 8.001709,-3.399659 l 37.200932,0 c 3.06791,1.1e-4 5.73514,1.133328 8.0017,3.399659 2.26632,2.266542 3.39954,4.933776 3.39966,8.001705 l 0,40.39917 c -1.2e-4,3.06809 -1.13334,5.73533 -3.39966,8.00171 -2.26656,2.26649 -4.93379,3.39971 -8.0017,3.39966 z m 0,-45.40405 0,27.6001 c -9e-5,1.20042 0.60009,1.8006 1.80054,1.80053 l 17.60254,0 c 1.06597,7e-5 1.59901,-0.60011 1.59912,-1.80053 l 0,-27.6001 c -1.1e-4,-1.1962 -0.53315,-1.79434 -1.59912,-1.79444 l -17.60254,0 c -1.20045,1e-4 -1.80063,0.59824 -1.80054,1.79444 z m -72.796629,71.80176 8.996582,-2.99683 c 1.200334,-0.53302 1.800512,-1.26747 1.800537,-2.20337 l 0,-70.00122 c -2.5e-5,-1.19619 -0.600203,-1.79434 -1.800537,-1.79443 l -8.197022,0 c -2.535006,9e-5 -4.669199,-0.86661 -6.402587,-2.600101 -1.733406,-1.733298 -2.600104,-3.867491 -2.600098,-6.402588 -6e-6,-2.534885 0.866692,-4.669079 2.600098,-6.402588 1.733388,-1.733285 3.867581,-2.599983 6.402587,-2.600098 l 8.197022,0 c 1.200334,1.15e-4 1.800512,-0.532925 1.800537,-1.599121 l 0,-31.396484 c -2.5e-5,-2.933606 1.033503,-5.400441 3.100586,-7.400513 2.067027,-1.999761 4.567431,-2.99972 7.501221,-2.999878 2.933718,1.58e-4 5.400553,1.000117 7.400512,2.999878 1.999874,2.000072 2.999832,4.466907 2.999878,7.400513 l 0,31.396484 c -4.6e-5,1.066196 0.532994,1.599236 1.599121,1.599121 l 6.396485,0 c 2.534937,1.15e-4 4.669131,0.866813 6.402588,2.600098 1.733336,1.733509 2.600034,3.867703 2.600097,6.402588 -6.3e-5,2.535097 -0.866761,4.66929 -2.600097,6.402588 -1.733457,1.733491 -3.867651,2.600191 -6.402588,2.600101 l -6.396485,0 c -1.066127,9e-5 -1.599167,0.59824 -1.599121,1.79443 l 0,62.00562 c -4.6e-5,1.06611 0.465855,1.39875 1.397705,0.99792 0.931755,-0.40077 2.264355,-0.96737 3.997803,-1.69983 1.733345,-0.73239 3.000841,-1.30001 3.80249,-1.70288 2.534936,-1.20032 5.06891,-1.13318 7.601929,0.20142 2.532894,1.33467 3.931615,3.40172 4.196167,6.20117 l 0.604248,4.19922 c 0.264418,1.0661 0.797458,1.532 1.599121,1.3977 21.06518,-5.20016 38.73077,-10.9985 52.99683,-17.39502 2.1361,-0.93583 4.20417,-0.87072 6.20422,0.19531 1.99979,1.06612 3.19913,2.66728 3.59802,4.80347 0.39863,2.66524 0.0314,5.23176 -1.10168,7.69959 -1.13335,2.46788 -2.90032,4.23484 -5.30091,5.3009 -13.9975,6.53078 -31.26433,12.46339 -51.800533,17.79785 -2.933827,0.8016 -5.667182,0.3357 -8.200073,-1.3977 -2.533022,-1.73339 -4.06602,-4.13411 -4.598999,-7.20215 l -0.598144,-3.80249 c -0.268615,-1.06606 -0.868794,-1.39769 -1.800537,-0.99488 -12.801153,6.13202 -26.733431,11.59873 -41.796875,16.40015 -2.270523,0.66325 -4.405734,0.39571 -6.40564,-0.80261 -1.999927,-1.19832 -3.199267,-2.99784 -3.598023,-5.39856 -0.398769,-2.53498 0.101719,-4.90213 1.501465,-7.10144 1.39973,-2.19928 3.367095,-3.69973 5.9021,-4.50134 z M 156.40454,161.85527 c -4.53301,-22.93288 -7.33249,-51.19823 -8.39844,-84.79614 -1.3e-4,-1.200235 -0.53317,-1.800413 -1.59912,-1.800537 l -64.001462,0 c -2.53099,1.24e-4 -4.66315,-0.866574 -6.396485,-2.600098 -1.733458,-1.73327 -2.600156,-3.866446 -2.600097,-6.399536 -5.9e-5,-2.532823 0.866639,-4.666 2.600097,-6.399536 1.733335,-1.733257 3.865495,-2.599956 6.396485,-2.600098 l 63.403322,0 c 1.19615,1.42e-4 1.7943,-0.600036 1.79443,-1.800537 -1.3e-4,-1.065936 -0.0327,-2.699642 -0.0977,-4.901123 -0.0652,-2.201183 -0.0978,-3.902028 -0.0977,-5.102539 -1.3e-4,-2.799322 0.99982,-5.199019 2.99988,-7.199096 1.99978,-1.999756 4.39947,-2.999714 7.19909,-2.999878 2.79934,1.64e-4 5.2326,1.033691 7.29981,3.100586 2.0669,2.067216 3.10043,4.500482 3.10058,7.299804 l 0,10.003662 c -1.5e-4,1.066224 0.60003,1.599263 1.80054,1.599121 l 7.99561,0 c 0.9357,1.42e-4 1.26936,-0.532897 1.00097,-1.599121 -0.26465,-0.80145 -0.79667,-2.202206 -1.59607,-4.20227 -0.79972,-1.999769 -1.40091,-3.532767 -1.80358,-4.598999 -0.93197,-2.400561 -0.93095,-4.767706 0.003,-7.101441 0.93367,-2.333415 2.59891,-3.966104 4.99572,-4.898071 2.40055,-1.065915 4.80127,-1.099484 7.20215,-0.100708 2.40054,0.999106 4.0668,2.698933 4.99878,5.099487 1.46874,3.60123 3.53579,9.135079 6.20117,16.601563 0.1341,0.533183 0.6,0.799702 1.39771,0.79956 1.86749,1.42e-4 3.43507,0.666442 4.70276,1.998902 1.2673,1.332739 1.90105,2.932876 1.90124,4.800415 l 0,2.197266 c -1.9e-4,2.535123 -0.86689,4.669317 -2.60009,6.402587 -1.73359,1.733524 -3.86778,2.600222 -6.40259,2.600098 l -27.39868,0 c -1.20052,1.24e-4 -1.8007,0.533164 -1.80054,1.599121 0.66716,18.933209 2.0669,37.266116 4.19922,54.998776 0.13412,0.26863 0.46777,0.20149 1.00097,-0.20141 3.06788,-7.59677 6.40039,-17.39494 9.99756,-29.39453 0.66715,-2.534898 2.1676,-4.402572 4.50135,-5.603031 2.3334,-1.200254 4.70054,-1.334532 7.10144,-0.402832 2.53481,0.935974 4.43503,2.570698 5.70068,4.904173 1.26527,2.33367 1.49924,4.76592 0.7019,7.29675 -6.40073,22.13549 -13.9345,40.53554 -22.60131,55.2002 -0.66749,1.06612 -0.86687,2.13423 -0.59815,3.20435 1.19612,5.4647 2.42802,10.13084 3.69568,13.99841 1.26733,3.86761 2.36799,6.63453 3.302,8.30078 0.93367,1.66627 1.73424,2.4994 2.40173,2.49939 2.13199,1e-5 3.86539,-8.40046 5.2002,-25.20142 0.26431,-2.13212 1.26325,-3.76481 2.99683,-4.89807 1.73321,-1.13318 3.60089,-1.30102 5.60302,-0.50354 5.33021,2.26648 7.79603,6.20121 7.39746,11.8042 -2.53518,28.26335 -8.66921,42.395 -18.40209,42.39502 -11.33236,-2e-5 -20.46525,-9.1329 -27.39869,-27.39868 -0.13442,-0.26447 -0.36737,-0.43029 -0.69885,-0.49744 -0.33177,-0.0671 -0.63186,0.0315 -0.90027,0.29602 -7.19822,8.00375 -15.26502,15.271 -24.20044,21.80176 -2.26656,1.73339 -4.83308,2.4007 -7.69958,2.00195 -2.86673,-0.39877 -5.30102,-1.66627 -7.30286,-3.80249 -1.72943,-1.86361 -2.42829,-4.09546 -2.09656,-6.69555 0.33152,-2.6001 1.56545,-4.6346 3.70179,-6.10352 12.6667,-8.80125 23.13219,-18.80084 31.39648,-29.99878 0.80145,-0.93177 1.06797,-1.93274 0.79956,-3.00293 z"
       id="path2898" />
  </g>
  <path
     d="m 663.21411,454.95087 c -2.60013,1.06607 -5.16665,1.13321 -7.69958,0.20141 -2.53298,-0.93181 -4.3325,-2.63163 -5.39856,-5.09948 -1.0661,-2.46786 -1.0661,-4.96724 0,-7.49817 12.39824,-30.00078 22.86373,-61.8672 31.39648,-95.59937 0.26851,-1.20025 -0.13026,-1.80043 -1.19629,-1.80054 l -22.3999,0 c -2.53502,1.1e-4 -4.66921,-0.86659 -6.40259,-2.60009 -1.73341,-1.73329 -2.60011,-3.86749 -2.6001,-6.40259 -1e-5,-2.53488 0.86669,-4.66806 2.6001,-6.39954 1.73338,-1.73124 3.86757,-2.59692 6.40259,-2.59704 l 26.59912,0 c 1.20031,1.2e-4 1.93273,-0.60006 2.19727,-1.80054 2.26638,-10.13577 4.26629,-20.00311 5.99975,-29.60205 0.53705,-2.66505 1.90525,-4.83179 4.10462,-6.50025 2.19923,-1.66813 4.6325,-2.36901 7.2998,-2.10266 2.66716,0.26669 4.80034,1.46704 6.39954,3.60108 1.59904,2.13435 2.19922,4.46894 1.80053,7.00378 -2.1363,12.26414 -3.8697,21.46416 -5.20019,27.6001 -0.26863,1.20048 0.13013,1.80066 1.19629,1.80054 l 13.60473,0 c 6.53067,1.2e-4 11.42975,1.2e-4 14.69727,0 3.26731,1.2e-4 6.86736,0.36633 10.80017,1.09863 3.93258,0.73254 6.66594,1.39884 8.20007,1.9989 1.5339,0.6003 3.26729,2.06717 5.2002,4.40064 1.93265,2.33369 3.13199,4.43329 3.59802,6.29882 0.46577,1.86575 0.99881,5.19928 1.59912,10.00061 0.60005,4.80153 0.90014,9.20216 0.90027,13.20191 -1.3e-4,3.99992 -1.3e-4,9.99967 0,17.99927 -1.3e-4,25.19942 -3.03256,43.99925 -9.09729,56.39953 -6.06498,12.40031 -14.03108,18.60046 -23.89831,18.60047 -8.53281,-1e-5 -19.26685,-2.20134 -32.20215,-6.60401 -2.53506,-0.9318 -4.40172,-2.63061 -5.59998,-5.09643 -1.19838,-2.46582 -1.33164,-5.03336 -0.39978,-7.70264 0.93174,-2.53091 2.598,-4.33043 4.99878,-5.39856 2.40065,-1.0681 4.8685,-1.13422 7.40357,-0.19836 9.46443,3.33253 16.72964,4.99879 21.79565,4.99878 1.86758,10e-6 3.73525,-1.13321 5.60303,-3.39966 1.86757,-2.26642 3.60096,-5.66608 5.20019,-10.19898 1.59901,-4.53285 2.86549,-10.6333 3.79944,-18.30139 0.93373,-7.668 1.40064,-16.36855 1.40076,-26.10168 -1.2e-4,-5.3344 -1.2e-4,-9.13485 0,-11.40137 -1.2e-4,-2.26636 -0.13338,-4.99869 -0.39978,-8.19702 -0.26664,-3.19815 -0.46703,-5.26419 -0.6012,-6.19812 -0.13439,-0.93374 -0.66845,-2.20124 -1.60217,-3.80249 -0.93395,-1.60106 -1.66739,-2.50132 -2.20032,-2.70081 -0.53315,-0.19928 -1.76606,-0.53192 -3.69873,-0.99792 -1.93288,-0.4658 -3.56557,-0.69875 -4.89807,-0.69886 -1.3327,1.1e-4 -3.53302,1.1e-4 -6.60095,0 l -21.60034,0 c -1.20043,1.1e-4 -1.93285,0.53315 -2.19727,1.59913 -8.93561,36.13287 -20.07044,70.40001 -33.40454,102.80151 -1.06612,2.53092 -2.8992,4.32942 -5.49927,5.39551 z m 159.10034,-45.19654 c -1.33482,2.40076 -3.33474,3.93375 -5.99975,4.599 -2.66539,0.66532 -5.23191,0.23197 -7.69959,-1.30005 -2.46803,-1.53194 -4.03561,-3.63257 -4.70276,-6.30188 -7.06396,-25.46786 -16.12971,-52.20124 -27.19726,-80.20019 -1.06623,-2.5308 -1.03266,-5.03019 0.10071,-7.49817 1.13307,-2.46772 2.96717,-4.16755 5.50232,-5.09949 2.66504,-0.93573 5.29769,-0.80349 7.89794,0.39673 2.59994,1.20049 4.36589,3.06817 5.29786,5.60303 11.46629,28.80055 20.73345,56.20124 27.80151,82.20215 0.66713,2.66524 0.33347,5.1982 -1.00098,7.59887 z"
     id="path2914"
     style="font-size:200px;font-style:normal;font-weight:normal;text-align:center;text-anchor:middle;fill:#000000;fill-opacity:1;stroke:none;font-family:'Rounded M+ 1m medium';-inkscape-font-specification:'Rounded M+ 1m medium'" />
  <path
     d="m 976.31348,375.1535 c -8.13406,8e-5 -17.40021,1.83316 -27.79847,5.49927 -10.39843,3.66624 -20.59841,8.76674 -30.59997,15.30151 -5.59901,3.59706 -11.33224,4.66314 -17.19971,3.19825 -2.66524,-0.66727 -4.73127,-2.10058 -6.19812,-4.29993 -1.46691,-2.19924 -1.93383,-4.56639 -1.40075,-7.10144 2.2664,-13.46428 4.53284,-27.99674 6.79931,-43.59741 0.39873,-2.79937 1.73133,-5.09938 3.9978,-6.90003 2.2664,-1.80042 4.86649,-2.56845 7.8003,-2.30407 2.79942,0.13439 5.06586,1.30219 6.79931,3.50341 1.73334,2.20145 2.40066,4.70185 2.00196,7.50122 -2.13222,14.79908 -3.73134,25.39885 -4.79737,31.79932 -5e-5,0.26456 0.0651,0.3968 0.19532,0.39673 l 0.40283,0 c 8.66693,-6.2662 18.76722,-11.33211 30.3009,-15.19775 11.53352,-3.86547 22.5005,-5.79825 32.901,-5.79834 37.99628,9e-5 56.99448,15.3321 56.99468,45.99609 -2e-4,17.73684 -7.3661,31.33852 -22.0978,40.80505 -14.73202,9.46655 -36.36591,14.19982 -64.90176,14.19983 -10.26619,-1e-5 -21.79776,-0.53508 -34.59473,-1.60522 -2.53504,-0.13022 -4.66923,-1.19528 -6.40259,-3.19519 -1.73344,-1.99992 -2.46789,-4.33452 -2.20336,-7.00379 0.13423,-2.53092 1.16877,-4.59695 3.10363,-6.19812 1.93477,-1.60114 4.16764,-2.26744 6.69861,-1.9989 14.13568,1.33058 25.26848,1.99586 33.39844,1.99585 20.80067,1e-5 36.56807,-3.19925 47.30225,-9.59778 10.73391,-6.39849 16.10091,-15.53239 16.10111,-27.40173 -2e-4,-18.66449 -12.2011,-27.99675 -36.60282,-27.99683 z m -57.69654,-61.2976 c -1.39979,-1.93672 -1.9664,-4.17162 -1.69983,-6.70472 0.26647,-2.53281 1.43326,-4.53273 3.50037,-5.99975 2.067,-1.46673 4.36599,-2.06589 6.89697,-1.79749 25.06909,2.79963 49.80254,4.39875 74.20045,4.79737 2.5348,1.4e-4 4.6355,0.86684 6.3019,2.60009 1.6661,1.73354 2.4992,3.86672 2.4994,6.39954 -2e-4,2.53309 -0.8669,4.66627 -2.6001,6.39954 -1.7336,1.73352 -3.8678,2.60022 -6.4026,2.60009 -25.06524,-0.13008 -50.6654,-1.79634 -76.80056,-4.99878 -2.53099,-0.26435 -4.49632,-1.36298 -5.896,-3.29589 z"
     id="path2916"
     style="font-size:200px;font-style:normal;font-weight:normal;text-align:center;text-anchor:middle;fill:#000000;fill-opacity:1;stroke:none;font-family:'Rounded M+ 1m medium';-inkscape-font-specification:'Rounded M+ 1m medium'" />
</svg>
