<?xml version="1.0" encoding="UTF-8" standalone="no"?>
<!-- Created with Inkscape (http://www.inkscape.org/) -->

<svg
   xmlns:svg="http://www.w3.org/2000/svg"
   xmlns="http://www.w3.org/2000/svg"
   xmlns:xlink="http://www.w3.org/1999/xlink"
   version="1.1"
   width="625"
   height="950"
   id="svg2"
   xml:space="preserve"><defs
     id="defs6"><linearGradient
       id="linearGradient15703"><stop
         id="stop15705"
         style="stop-color:#ffffff;stop-opacity:1"
         offset="0" /></linearGradient><linearGradient
       x1="-37.125"
       y1="465.375"
       x2="967.87512"
       y2="465.375"
       id="linearGradient15707"
       xlink:href="#linearGradient15703"
       gradientUnits="userSpaceOnUse"
       gradientTransform="translate(961.6578,56.04101)" /></defs><g
     transform="matrix(34.167339,0,0,34.167339,44.9692,29.01028)"
     id="g2991" /><rect
     width="625"
     height="950"
     rx="50"
     ry="50"
     x="0"
     y="0"
     id="rect2873"
     style="color:#000000;fill:#0566ae;fill-opacity:1;fill-rule:nonzero;stroke:none;stroke-width:3;marker:none;visibility:visible;display:inline;overflow:visible;enable-background:accumulate" /><rect
     width="605"
     height="930"
     rx="40"
     ry="40"
     x="10"
     y="10"
     id="rect2874"
     style="color:#000000;fill:#ffffff;fill-opacity:1;fill-rule:nonzero;stroke:none;stroke-width:3;marker:none;visibility:visible;display:inline;overflow:visible;enable-background:accumulate" /><rect
     width="565"
     height="890"
     rx="30"
     ry="30"
     x="30"
     y="30"
     id="rect2875"
     style="color:#000000;fill:#0566ae;fill-opacity:1;fill-rule:nonzero;stroke:none;stroke-width:3;marker:none;visibility:visible;display:inline;overflow:visible;enable-background:accumulate" /><rect
     width="545"
     height="870"
     rx="20"
     ry="20"
     x="40"
     y="40"
     id="rect2875-8"
     style="color:#000000;fill:#ffffff;fill-opacity:1;fill-rule:nonzero;stroke:none;stroke-width:3;marker:none;visibility:visible;display:inline;overflow:visible;enable-background:accumulate" /><g
     transform="translate(-651.22881,0)"
     id="g3833"><path
       d="m 817.5,699.43856 0,28.57786 299.9232,0.28867 -111.7135,-109.6928 -81.98089,0 81.40359,81.4036 L 817.5,699.43856 z"
       id="path3807"
       style="fill:#0566ae;fill-opacity:1;stroke:none" /><path
       d="m 817.5,770.34588 0,-28.57786 299.9232,-0.28867 -111.7135,109.6928 -81.98089,0 81.40359,-81.4036 -187.6324,0.57733 z"
       id="path3807-5"
       style="fill:#0566ae;fill-opacity:1;stroke:none" /></g><g
     id="g2843"><rect
       width="475"
       height="475"
       rx="30"
       ry="30"
       x="77.061226"
       y="71.479752"
       id="rect3726"
       style="color:#000000;fill:#0566ae;fill-opacity:1;fill-rule:nonzero;stroke:none;stroke-width:3;marker:none;visibility:visible;display:inline;overflow:visible;enable-background:accumulate" /><g
       transform="translate(-643.37728,0)"
       id="g3657"><rect
         width="25.310661"
         height="337.20154"
         x="944.65424"
         y="140.87959"
         id="rect2855"
         style="color:#000000;fill:#ffffff;fill-opacity:1;stroke:none;stroke-width:1;marker:none;visibility:visible;display:inline;overflow:visible;enable-background:accumulate" /><path
         d="m 777.68637,314.99153 -19.79936,-0.20412 15.30878,-85.52509 c 2.28184,-9.64178 10.70742,-23.70551 25.92288,-27.75993 23.68862,-6.10881 47.20798,-5.86504 69.80807,0 10.67486,3.34846 21.76416,9.33801 25.92288,29.18875 l 16.32937,85.7292 -20.41171,0 -20.81995,-73.27805 -6.93999,28.78051 c 17.75294,26.76553 28.97525,57.00046 29.3353,93.00597 l -34.56213,0.34439 -9.4696,113.62444 -26.94347,0 -11.43056,-114.10149 -34.29169,0.20411 c -0.58916,-30.78336 12.79975,-71.34926 30.20935,-93.07742 l -7.96057,-28.16816 -20.2076,71.23689 z"
         id="path3629"
         style="fill:#ffffff;fill-opacity:1;stroke:none" /><path
         d="m 852.18912,153.12662 a 25.92288,25.92288 0 1 1 -51.84576,0 25.92288,25.92288 0 1 1 51.84576,0 z"
         transform="translate(7.756452,12.042912)"
         id="path3631"
         style="color:#000000;fill:#ffffff;fill-opacity:1;stroke:none;stroke-width:1;marker:none;visibility:visible;display:inline;overflow:visible;enable-background:accumulate" /><path
         d="m 852.18912,153.12662 a 25.92288,25.92288 0 1 1 -51.84576,0 25.92288,25.92288 0 1 1 51.84576,0 z"
         transform="translate(253.10528,12.042913)"
         id="path3631-1"
         style="color:#000000;fill:#ffffff;fill-opacity:1;stroke:none;stroke-width:1;marker:none;visibility:visible;display:inline;overflow:visible;enable-background:accumulate" /><path
         d="m 1030.9957,329.48384 -21.8405,0 -5.307,-91.44449 c -0.8268,-12.87549 14.1647,-32.16475 33.6793,-37.55755 16.7895,-3.79427 47.0883,-5.96768 80.014,-0.61235 21.9047,3.94077 37.9238,23.60495 36.9451,38.57814 l -4.8988,91.44449 -21.6364,0 0,-83.27981 -6.94,0 0,231.46886 -28.5764,0 -11.0223,-143.69848 -5.307,0 -9.3894,143.69848 -29.8011,0 0,-230.24415 -5.9194,0 -10e-5,81.64686 z"
         id="path3655"
         style="fill:#ffffff;fill-opacity:1;stroke:none" /></g></g></svg>