<?xml version="1.0" encoding="UTF-8" standalone="no"?>
<!-- Created with Inkscape (http://www.inkscape.org/) -->

<svg
   xmlns:dc="http://purl.org/dc/elements/1.1/"
   xmlns:cc="http://creativecommons.org/ns#"
   xmlns:rdf="http://www.w3.org/1999/02/22-rdf-syntax-ns#"
   xmlns:svg="http://www.w3.org/2000/svg"
   xmlns="http://www.w3.org/2000/svg"
   xmlns:sodipodi="http://sodipodi.sourceforge.net/DTD/sodipodi-0.dtd"
   xmlns:inkscape="http://www.inkscape.org/namespaces/inkscape"
   id="svg1890"
   sodipodi:version="0.32"
   inkscape:version="0.48.4 r9939"
   width="500.34357"
   height="500.34357"
   version="1.0"
   sodipodi:docname="AJAX1.svg"
   inkscape:output_extension="org.inkscape.output.svg.inkscape">
  <metadata
     id="metadata1895">
    <rdf:RDF>
      <cc:Work
         rdf:about="">
        <dc:format>image/svg+xml</dc:format>
        <dc:type
           rdf:resource="http://purl.org/dc/dcmitype/StillImage" />
      </cc:Work>
    </rdf:RDF>
  </metadata>
  <defs
     id="defs1893">
    <inkscape:perspective
       sodipodi:type="inkscape:persp3d"
       inkscape:vp_x="0 : 235 : 1"
       inkscape:vp_y="0 : 1000 : 0"
       inkscape:vp_z="470 : 235 : 1"
       inkscape:persp3d-origin="235 : 156.66667 : 1"
       id="perspective10" />
    <inkscape:perspective
       id="perspective2390"
       inkscape:persp3d-origin="372.04724 : 350.78739 : 1"
       inkscape:vp_z="744.09448 : 526.18109 : 1"
       inkscape:vp_y="0 : 1000 : 0"
       inkscape:vp_x="0 : 526.18109 : 1"
       sodipodi:type="inkscape:persp3d" />
    <inkscape:perspective
       id="perspective3168"
       inkscape:persp3d-origin="372.04724 : 350.78739 : 1"
       inkscape:vp_z="744.09448 : 526.18109 : 1"
       inkscape:vp_y="0 : 1000 : 0"
       inkscape:vp_x="0 : 526.18109 : 1"
       sodipodi:type="inkscape:persp3d" />
    <inkscape:perspective
       id="perspective2400"
       inkscape:persp3d-origin="372.04724 : 350.78739 : 1"
       inkscape:vp_z="744.09448 : 526.18109 : 1"
       inkscape:vp_y="0 : 1000 : 0"
       inkscape:vp_x="0 : 526.18109 : 1"
       sodipodi:type="inkscape:persp3d" />
    <inkscape:perspective
       id="perspective2391"
       inkscape:persp3d-origin="372.04724 : 350.78739 : 1"
       inkscape:vp_z="744.09448 : 526.18109 : 1"
       inkscape:vp_y="0 : 1000 : 0"
       inkscape:vp_x="0 : 526.18109 : 1"
       sodipodi:type="inkscape:persp3d" />
  </defs>
  <sodipodi:namedview
     inkscape:window-height="1004"
     inkscape:window-width="1280"
     inkscape:pageshadow="2"
     inkscape:pageopacity="0.0"
     guidetolerance="10.0"
     gridtolerance="10.0"
     objecttolerance="10.0"
     borderopacity="1.0"
     bordercolor="#666666"
     pagecolor="#ffffff"
     id="base"
     inkscape:zoom="1"
     inkscape:cx="229.85262"
     inkscape:cy="268.6679"
     inkscape:window-x="-8"
     inkscape:window-y="-8"
     inkscape:current-layer="svg1890"
     showgrid="false"
     fit-margin-top="0.2"
     fit-margin-left="0.2"
     fit-margin-right="0.2"
     fit-margin-bottom="0.2"
     inkscape:window-maximized="1"
     showguides="true"
     inkscape:guide-bbox="true" />
  <path
     style="fill:#fcdc0f;fill-opacity:1;fill-rule:nonzero;stroke:none"
     d="m 3.44897,242.33616 c -4.33196,4.33195 -4.33196,11.33928 0,15.67124 l 238.88719,238.88719 c 4.33196,4.33196 11.33929,4.33196 15.67125,0 L 496.89459,258.0074 c 4.33197,-4.33197 4.33197,-11.33928 1e-5,-15.67124 L 258.0074,3.4489588 c -4.33195,-4.33194972 -11.33929,-4.33194372 -15.67125,10e-6 z"
     id="path5216"
     inkscape:connector-curvature="0"
     sodipodi:nodetypes="sssssssss" />
  <path
     style="fill:#000000;fill-opacity:1;fill-rule:nonzero;stroke:none"
     d="M 250.17178,12.231763 488.11179,250.17177 250.17178,488.1118 12.23176,250.17178 z M 233.43743,43.106889 43.10689,233.43744 c -9.25965,9.25963 -9.25965,24.20902 -1e-5,33.46868 l 190.33054,190.33056 c 9.25965,9.25963 24.20908,9.25963 33.46871,0 L 457.23669,266.90612 c 9.25964,-9.25964 9.25964,-24.20905 0,-33.46869 L 266.90613,43.106869 c -9.25965,-9.259653 -24.20905,-9.25963 -33.4687,2e-5 z"
     id="path17826"
     inkscape:connector-curvature="0"
     sodipodi:nodetypes="cccccsssssssss" />
  <path
     inkscape:connector-curvature="0"
     d="m 285.97426,181.83148 50.83906,6.92424 -20.56847,-46.95821 -8.0068,10.5804 c -15.5438,-8.14977 -33.02802,-13.07231 -51.7582,-13.07231 -37.05185,0 -69.83478,18.19911 -90.2807,46.01864 l 17.4638,14.52253 c 16.21785,-22.79486 42.77099,-37.78717 72.8169,-37.78717 13.60338,0 26.38974,3.18638 37.90972,8.66041 l -0.28596,0.36766 -8.12935,10.74381"
     style="fill:#000000;fill-opacity:1;fill-rule:nonzero;stroke:none"
     id="path5340" />
  <path
     inkscape:connector-curvature="0"
     d="m 300.72147,308.30615 -31.39399,40.54462 50.96162,5.69871 -5.16765,-12.2553 c 14.82891,-9.35488 27.7991,-22.03911 37.13355,-38.25695 18.54635,-32.10888 19.19997,-69.58967 5.35148,-101.20834 l -21.32422,7.84339 c 11.64253,25.4706 11.33615,55.94544 -3.65616,81.98794 -6.82212,11.78552 -15.97274,21.24252 -26.45102,28.47315 l -0.18465,-0.36766 -5.26977,-12.45956"
     style="fill:#000000;fill-opacity:1;fill-rule:nonzero;stroke:none"
     id="path5344" />
  <path
     inkscape:connector-curvature="0"
     d="m 183.41785,258.77433 -19.40423,-47.46886 -30.39313,41.32078 13.17444,1.6128 c 0.69447,17.50465 5.18808,35.11143 14.54295,51.30885 18.52593,32.10888 50.67566,51.41097 84.97007,55.23054 l 3.86042,-22.38635 c -27.86038,-2.69616 -54.10714,-18.15826 -69.14031,-44.15992 -6.80169,-11.78551 -10.39657,-24.46974 -11.43828,-37.19483 l 0.44937,0.0654 13.3787,1.67489"
     style="fill:#000000;fill-opacity:1;fill-rule:nonzero;stroke:none"
     id="path5348" />
</svg>
