<?xml version="1.0" encoding="UTF-8" standalone="no"?>
<!-- Created with Inkscape (http://www.inkscape.org/) -->

<svg
   xmlns:dc="http://purl.org/dc/elements/1.1/"
   xmlns:cc="http://creativecommons.org/ns#"
   xmlns:rdf="http://www.w3.org/1999/02/22-rdf-syntax-ns#"
   xmlns:svg="http://www.w3.org/2000/svg"
   xmlns="http://www.w3.org/2000/svg"
   xmlns:sodipodi="http://sodipodi.sourceforge.net/DTD/sodipodi-0.dtd"
   xmlns:inkscape="http://www.inkscape.org/namespaces/inkscape"
   version="1.1"
   width="1005.4"
   height="1005.4"
   id="svg2"
   xml:space="preserve"
   inkscape:version="0.48.4 r9939"
   sodipodi:docname="AJAX1.svg"><sodipodi:namedview
     pagecolor="#ffffff"
     bordercolor="#666666"
     borderopacity="1"
     objecttolerance="10"
     gridtolerance="10"
     guidetolerance="10"
     inkscape:pageopacity="0"
     inkscape:pageshadow="2"
     inkscape:window-width="1280"
     inkscape:window-height="1004"
     id="namedview28"
     showgrid="false"
     fit-margin-top="0.2"
     fit-margin-left="0.2"
     fit-margin-right="0.2"
     fit-margin-bottom="0.2"
     inkscape:zoom="0.51603029"
     inkscape:cx="423.49202"
     inkscape:cy="478.11473"
     inkscape:window-x="-8"
     inkscape:window-y="-8"
     inkscape:window-maximized="1"
     inkscape:current-layer="svg2" /><metadata
     id="metadata8"><rdf:RDF><cc:Work
         rdf:about=""><dc:format>image/svg+xml</dc:format><dc:type
           rdf:resource="http://purl.org/dc/dcmitype/StillImage" /></cc:Work></rdf:RDF></metadata><defs
     id="defs6" /><path
     inkscape:connector-curvature="0"
     style="fill:#ffffff;fill-opacity:1;stroke:#ed1c23;stroke-width:5;stroke-miterlimit:4;stroke-opacity:1;stroke-dasharray:none"
     d="M 2.7,502.70001 C 2.7,226.55763 226.55763,2.7 502.7,2.7 c 276.14238,0 500,223.85763 500,500.00001 0,276.14237 -223.85762,499.99999 -500,499.99999 -276.14237,0 -500,-223.85762 -500,-499.99999 z"
     id="path3854" /><path
     id="path14622"
     d="M 968.075,502.70001 C 968.075,245.68049 759.71952,37.325 502.7,37.325 245.68047,37.325 37.325,245.68049 37.325,502.70001 37.325,759.71953 245.68047,968.075 502.7,968.075 c 257.01952,0 465.375,-208.35547 465.375,-465.37499 z"
     style="fill:#ed1c23;fill-opacity:1;stroke:none"
     inkscape:connector-curvature="0" /><path
     id="path15520"
     d="m 835.55,502.7 c 0,-183.82797 -149.02204,-332.85 -332.85,-332.85 -183.82798,0 -332.85,149.02203 -332.85,332.85 0,183.82797 149.02202,332.84999 332.85,332.84999 183.82796,0 332.85,-149.02202 332.85,-332.84999 z"
     style="fill:#ffffff;fill-opacity:1;stroke:none"
     inkscape:connector-curvature="0" /><path
     style="fill:#ed1c23;fill-opacity:1;stroke:none"
     d="M 783.75726,851.49809 851.49809,783.75726 221.64272,153.9019 153.90189,221.64273 z"
     id="path3011"
     inkscape:connector-curvature="0"
     sodipodi:nodetypes="ccccc" /><path
     style="fill:#ffffff;fill-opacity:1;fill-rule:nonzero;stroke:#ffffff;stroke-width:20;stroke-miterlimit:4;stroke-opacity:1;stroke-dasharray:none"
     d="m 424.24688,310.85207 c -98.82314,0 -91.56224,36.64152 -109.94658,116.44237 -27.25756,15.10766 -45.1263,33.88404 -45.1263,71.52266 l 0,65.76138 c 0,18.79031 5.61815,33.82261 19.73989,41.36195 l 0,32.86919 c 0,25.43072 13.13441,35.73838 30.0689,35.73838 16.90547,0 30.06888,-7.5239 30.06888,-35.73838 l 0,-30.98703 c 12.20792,-2.84173 19.78415,14.09336 42.25714,14.09336 l 222.78363,0 c 22.47298,0 30.04921,-16.93509 42.25712,-14.09336 l 0,30.98703 c 0,28.21448 13.16342,35.73838 30.0689,35.73838 16.93448,0 30.0689,-10.30766 30.0689,-35.73838 l 0,-32.86919 c 14.12172,-7.53934 19.73988,-22.57164 19.73988,-41.36195 l 0,-65.76138 c 0,-37.63862 -17.86875,-56.415 -45.1263,-71.52266 C 672.71659,347.49359 679.97752,310.85207 581.15436,310.85207 z"
     id="path3786"
     inkscape:connector-curvature="0"
     sodipodi:nodetypes="scsscssscsscssscsscss" /><path
     sodipodi:nodetypes="scsscssscsscssscsscssscccscscccsccccccssccccccsscssccssssssssssssccccc"
     inkscape:connector-curvature="0"
     id="path3867"
     d="m 424.24688,310.85207 c -98.82314,0 -91.56224,36.64152 -109.94658,116.44237 -27.25756,15.10766 -45.1263,33.88404 -45.1263,71.52266 l 0,65.76138 c 0,18.79031 5.61815,33.82261 19.73989,41.36195 l 0,32.86919 c 0,25.43072 13.13441,35.73838 30.0689,35.73838 16.90547,0 30.06888,-7.5239 30.06888,-35.73838 l 0,-30.98703 c 12.20792,-2.84173 19.78415,14.09336 42.25714,14.09336 l 222.78363,0 c 22.47298,0 30.04921,-16.93509 42.25712,-14.09336 l 0,30.98703 c 0,28.21448 13.16342,35.73838 30.0689,35.73838 16.93448,0 30.0689,-10.30766 30.0689,-35.73838 l 0,-32.86919 c 14.12172,-7.53934 19.73988,-22.57164 19.73988,-41.36195 l 0,-65.76138 c 0,-37.63862 -17.86875,-56.415 -45.1263,-71.52266 C 672.71659,347.49359 679.97752,310.85207 581.15436,310.85207 z m -4.72839,29.05894 63.92509,0 0,67.71241 -134.39191,11.29306 c 0,-47.93272 11.28311,-79.00547 70.46682,-79.00547 z m 102.43917,0 63.9251,0 c 59.18371,0 70.4668,31.07275 70.4668,79.00547 L 521.95766,407.62342 z M 360.32177,443.36179 c 22.74119,-0.004 42.69242,3.24709 58.7606,9.68632 2.78491,1.1309 4.19572,4.2738 3.12166,7.11555 -1.15991,2.75475 -4.32575,4.11599 -7.1385,2.98392 -21.69006,-8.64005 -51.51017,-11.03868 -86.0751,-6.86305 -3.01572,0.28998 -5.69961,-1.79842 -6.10558,-4.84315 -0.34797,-2.92874 1.78153,-5.68877 4.79725,-6.03674 11.38148,-1.35924 22.30277,-2.04054 32.63967,-2.04285 z m 284.75769,0 c 10.3369,0.003 21.2582,0.68361 32.63968,2.04285 3.01572,0.34797 5.14521,3.108 4.79725,6.03674 -0.40596,3.04473 -3.08986,5.13313 -6.10559,4.84315 -34.56491,-4.17563 -64.38504,-1.777 -86.07509,6.86305 -2.81274,1.13207 -5.97859,-0.22917 -7.1385,-2.98392 -1.07407,-2.84175 0.33676,-5.98465 3.12165,-7.11555 16.06819,-6.43923 36.01941,-9.69146 58.7606,-9.68632 z m -147.52062,0.29839 5.14155,0 5.14155,0 c 21.69005,0 53.59523,12.83556 53.59548,42.87687 l 0,67.71241 -117.47361,0 0,-67.71241 c 0,-30.04131 31.90497,-42.87687 53.59503,-42.87687 z M 327.6821,469.345 c 15.25263,0 27.63584,12.36628 27.63584,27.58993 0,15.19464 -12.38321,27.52108 -27.63584,27.52108 -15.22364,0 -27.56697,-12.32644 -27.56697,-27.52108 0,-15.22365 12.34333,-27.58993 27.56697,-27.58993 z m 350.03704,0 c 15.22364,0 27.56697,12.36628 27.56697,27.58993 0,15.19464 -12.34333,27.52108 -27.56697,27.52108 -15.25263,0 -27.63584,-12.32644 -27.63584,-27.52108 0,-15.22365 12.38321,-27.58993 27.63584,-27.58993 z m -355.93605,97.29927 361.83506,0 0,23.50424 -361.83506,0 z"
     style="fill:#0066b3;fill-opacity:1;fill-rule:nonzero;stroke:none" /></svg>