<?xml version="1.0" encoding="UTF-8" standalone="no"?>
<!-- Created with Inkscape (http://www.inkscape.org/) -->

<svg
   xmlns:dc="http://purl.org/dc/elements/1.1/"
   xmlns:cc="http://creativecommons.org/ns#"
   xmlns:rdf="http://www.w3.org/1999/02/22-rdf-syntax-ns#"
   xmlns:svg="http://www.w3.org/2000/svg"
   xmlns="http://www.w3.org/2000/svg"
   xmlns:sodipodi="http://sodipodi.sourceforge.net/DTD/sodipodi-0.dtd"
   xmlns:inkscape="http://www.inkscape.org/namespaces/inkscape"
   version="1.1"
   width="1005.4"
   height="1005.4"
   id="svg2"
   xml:space="preserve"
   inkscape:version="0.48.4 r9939"
   sodipodi:docname="AJAX1.svg"><sodipodi:namedview
     pagecolor="#ffffff"
     bordercolor="#666666"
     borderopacity="1"
     objecttolerance="10"
     gridtolerance="10"
     guidetolerance="10"
     inkscape:pageopacity="0"
     inkscape:pageshadow="2"
     inkscape:window-width="1280"
     inkscape:window-height="1004"
     id="namedview28"
     showgrid="false"
     fit-margin-top="2.7"
     fit-margin-left="2.7"
     fit-margin-right="2.7"
     fit-margin-bottom="2.7"
     inkscape:zoom="0.50515648"
     inkscape:cx="593.74099"
     inkscape:cy="567.71538"
     inkscape:window-x="-8"
     inkscape:window-y="-8"
     inkscape:window-maximized="1"
     inkscape:current-layer="svg2"
     showguides="true"
     inkscape:guide-bbox="true" /><metadata
     id="metadata8"><rdf:RDF><cc:Work
         rdf:about=""><dc:format>image/svg+xml</dc:format><dc:type
           rdf:resource="http://purl.org/dc/dcmitype/StillImage" /><dc:title /></cc:Work></rdf:RDF></metadata><defs
     id="defs6" /><path
     inkscape:connector-curvature="0"
     style="fill:#ffffff;fill-opacity:1;stroke:#ed1c23;stroke-opacity:1;stroke-width:5;stroke-miterlimit:4;stroke-dasharray:none"
     d="M 2.7,502.70001 C 2.7,226.55763 226.55764,2.7 502.7,2.7 c 276.14238,0 500,223.85763 500,500.00001 0,276.14237 -223.85762,499.99999 -500,499.99999 -276.14236,0 -500,-223.85762 -500,-499.99999 z"
     id="path3854" /><path
     id="path14622"
     d="M 968.075,502.70001 C 968.075,245.68049 759.71952,37.325 502.7,37.325 245.68048,37.325 37.325,245.68049 37.325,502.70001 37.325,759.71953 245.68048,968.075 502.7,968.075 c 257.01952,0 465.375,-208.35547 465.375,-465.37499 z"
     style="fill:#ed1c23;fill-opacity:1;stroke:none"
     inkscape:connector-curvature="0" /><path
     id="path15520"
     d="m 835.55,502.7 c 0,-183.82799 -149.02204,-332.85 -332.85,-332.85 -183.82797,0 -332.84999,149.02201 -332.84999,332.85 0,183.82797 149.02202,332.84999 332.84999,332.84999 183.82796,0 332.85,-149.02202 332.85,-332.84999 z"
     style="fill:#ffffff;fill-opacity:1;stroke:none"
     inkscape:connector-curvature="0" /><path
     inkscape:connector-curvature="0"
     d="m 647.78341,302.97408 0,89.62494 c 0,10.74544 13.4915,10.74544 20.4562,10.74544 l 12.0189,0 0,18.18765 c -12.3373,0.75457 -22.0481,1.78932 -25.5104,1.78932 -33.6294,0 -40.9122,-12.89454 -40.9122,-29.49027 l 0,-90.85869 -27.4607,0 0,-19.1428 27.4607,0 0,-38.48461 33.9475,0 0,38.48461 32.4751,0 0,19.1428 -32.4751,0"
     style="fill:#0066b3;fill-opacity:1;fill-rule:nonzero;stroke:none"
     id="path5358" /><path
     inkscape:connector-curvature="0"
     d="m 486.64161,329.08151 0,48.27489 -124.2093,0 -3.8605,85.64516 c 14.0486,-10.30767 29.2914,-15.4416 45.8075,-15.4416 32.8333,0 57.4681,11.14343 74.1038,33.27106 16.9936,21.4909 25.5502,53.05066 25.5502,94.6395 0,41.66843 -8.5566,73.1884 -25.5502,94.75888 -16.6357,22.16746 -41.2705,33.27107 -74.1038,33.27107 -28.9332,0 -52.8119,-8.99433 -71.7158,-27.0626 -19.8991,-19.89896 -29.8087,-47.47892 -29.8087,-82.7001 l 51.8964,0 c 0,17.94886 4.2982,32.55472 12.8946,43.73794 9.1932,11.81997 21.4512,17.74987 36.7335,17.74987 16.2376,0 28.1372,-6.68606 35.7386,-20.17756 7.9595,-13.13332 11.9393,-32.99248 11.9393,-59.5775 0,-26.54522 -3.9798,-46.36459 -11.9393,-59.53771 -7.6014,-13.4517 -19.501,-20.17755 -35.7386,-20.17755 -24.4758,0 -41.0317,14.72524 -49.6281,44.21551 l -48.0361,0 9.6312,-210.88926 170.2953,0"
     style="fill:#0066b3;fill-opacity:1;fill-rule:nonzero;stroke:none"
     id="path5362" /><path
     inkscape:connector-curvature="0"
     d="m 679.22371,459.65853 0,32.11694 -83.2173,0 -2.4675,57.07022 c 9.3524,-6.84524 19.5805,-10.34745 30.6045,-10.34745 22.0083,0 38.4846,7.40242 49.6281,22.28685 11.3423,14.28746 17.0335,35.34056 17.0335,63.15932 0,27.81875 -5.6912,48.87185 -17.0335,63.15931 -11.1435,14.84464 -27.6198,22.24706 -49.6281,22.24706 -19.3418,0 -35.3404,-6.0095 -47.9963,-17.98867 -13.3323,-13.33232 -19.8989,-31.67916 -19.8989,-55.23953 l 34.7038,0 c 0,12.01896 2.8241,21.65006 8.5964,29.17188 6.2084,7.95958 14.3671,11.85977 24.595,11.85977 10.9047,0 18.7847,-4.45737 23.9585,-13.45169 5.2532,-8.79534 7.9197,-22.00826 7.9197,-39.75813 0,-17.74988 -2.668,-30.9628 -7.9197,-39.71835 -5.1738,-8.99432 -13.0538,-13.4915 -23.9585,-13.4915 -16.3172,0 -27.4207,9.79029 -33.1914,29.49026 l -32.1567,0 6.4472,-140.56629 113.9812,0"
     style="fill:#0066b3;fill-opacity:1;fill-rule:nonzero;stroke:none"
     id="path5366" /><path
     inkscape:connector-curvature="0"
     d="m 504.11291,706.36593 0,37.29003 32.8715,0 0,-37.29003 -32.8715,0 z"
     style="fill:#0066b3;fill-opacity:1;fill-rule:nonzero;stroke:none"
     id="path5368" /></svg>