<?xml version="1.0" encoding="UTF-8" standalone="no"?>
<!-- Created with Inkscape (http://www.inkscape.org/) -->

<svg
   xmlns:dc="http://purl.org/dc/elements/1.1/"
   xmlns:cc="http://creativecommons.org/ns#"
   xmlns:rdf="http://www.w3.org/1999/02/22-rdf-syntax-ns#"
   xmlns:svg="http://www.w3.org/2000/svg"
   xmlns="http://www.w3.org/2000/svg"
   xmlns:sodipodi="http://sodipodi.sourceforge.net/DTD/sodipodi-0.dtd"
   xmlns:inkscape="http://www.inkscape.org/namespaces/inkscape"
   width="331.7511"
   height="270.82248"
   id="svg4203"
   sodipodi:version="0.32"
   inkscape:version="0.48.4 r9939"
   version="1.0"
   sodipodi:docname="Japanese_Road_sign_(Direction_and_Notice_of_exit_A).svg"
   inkscape:output_extension="org.inkscape.output.svg.inkscape">
  <defs
     id="defs4205">
    <inkscape:perspective
       sodipodi:type="inkscape:persp3d"
       inkscape:vp_x="0 : 315 : 1"
       inkscape:vp_y="0 : 1000 : 0"
       inkscape:vp_z="1500 : 315 : 1"
       inkscape:persp3d-origin="750 : 210 : 1"
       id="perspective9" />
    <inkscape:perspective
       id="perspective3163"
       inkscape:persp3d-origin="372.04724 : 350.78739 : 1"
       inkscape:vp_z="744.09448 : 526.18109 : 1"
       inkscape:vp_y="0 : 1000 : 0"
       inkscape:vp_x="0 : 526.18109 : 1"
       sodipodi:type="inkscape:persp3d" />
    <inkscape:perspective
       id="perspective2395"
       inkscape:persp3d-origin="372.04724 : 350.78739 : 1"
       inkscape:vp_z="744.09448 : 526.18109 : 1"
       inkscape:vp_y="0 : 1000 : 0"
       inkscape:vp_x="0 : 526.18109 : 1"
       sodipodi:type="inkscape:persp3d" />
    <inkscape:perspective
       id="perspective3843"
       inkscape:persp3d-origin="227.5 : 145 : 1"
       inkscape:vp_z="455 : 217.5 : 1"
       inkscape:vp_y="0 : 1000 : 0"
       inkscape:vp_x="0 : 217.5 : 1"
       sodipodi:type="inkscape:persp3d" />
    <inkscape:perspective
       sodipodi:type="inkscape:persp3d"
       inkscape:vp_x="0 : 0.5 : 1"
       inkscape:vp_y="0 : 1000 : 0"
       inkscape:vp_z="1 : 0.5 : 1"
       inkscape:persp3d-origin="0.5 : 0.33333333 : 1"
       id="perspective4438" />
    <inkscape:perspective
       sodipodi:type="inkscape:persp3d"
       inkscape:vp_x="0 : 0.5 : 1"
       inkscape:vp_y="0 : 1000 : 0"
       inkscape:vp_z="1 : 0.5 : 1"
       inkscape:persp3d-origin="0.5 : 0.33333333 : 1"
       id="perspective4410" />
    <inkscape:perspective
       sodipodi:type="inkscape:persp3d"
       inkscape:vp_x="0 : 0.5 : 1"
       inkscape:vp_y="0 : 1000 : 0"
       inkscape:vp_z="1 : 0.5 : 1"
       inkscape:persp3d-origin="0.5 : 0.33333333 : 1"
       id="perspective4388" />
    <inkscape:perspective
       sodipodi:type="inkscape:persp3d"
       inkscape:vp_x="0 : 0.5 : 1"
       inkscape:vp_y="0 : 1000 : 0"
       inkscape:vp_z="1 : 0.5 : 1"
       inkscape:persp3d-origin="0.5 : 0.33333333 : 1"
       id="perspective4366" />
    <inkscape:perspective
       sodipodi:type="inkscape:persp3d"
       inkscape:vp_x="0 : 0.5 : 1"
       inkscape:vp_y="0 : 1000 : 0"
       inkscape:vp_z="1 : 0.5 : 1"
       inkscape:persp3d-origin="0.5 : 0.33333333 : 1"
       id="perspective3570" />
    <inkscape:perspective
       sodipodi:type="inkscape:persp3d"
       inkscape:vp_x="0 : 0.5 : 1"
       inkscape:vp_y="0 : 1000 : 0"
       inkscape:vp_z="1 : 0.5 : 1"
       inkscape:persp3d-origin="0.5 : 0.33333333 : 1"
       id="perspective3503" />
    <inkscape:perspective
       sodipodi:type="inkscape:persp3d"
       inkscape:vp_x="0 : 0.5 : 1"
       inkscape:vp_y="0 : 1000 : 0"
       inkscape:vp_z="1 : 0.5 : 1"
       inkscape:persp3d-origin="0.5 : 0.33333333 : 1"
       id="perspective3472" />
    <inkscape:perspective
       sodipodi:type="inkscape:persp3d"
       inkscape:vp_x="0 : 0.5 : 1"
       inkscape:vp_y="0 : 1000 : 0"
       inkscape:vp_z="1 : 0.5 : 1"
       inkscape:persp3d-origin="0.5 : 0.33333333 : 1"
       id="perspective3401" />
    <inkscape:perspective
       id="perspective3391"
       inkscape:persp3d-origin="372.04724 : 350.78739 : 1"
       inkscape:vp_z="744.09448 : 526.18109 : 1"
       inkscape:vp_y="0 : 1000 : 0"
       inkscape:vp_x="0 : 526.18109 : 1"
       sodipodi:type="inkscape:persp3d" />
  </defs>
  <sodipodi:namedview
     id="base"
     pagecolor="#ffffff"
     bordercolor="#666666"
     borderopacity="1.0"
     gridtolerance="10000"
     guidetolerance="10"
     objecttolerance="10"
     inkscape:pageopacity="0.0"
     inkscape:pageshadow="2"
     inkscape:zoom="0.70710678"
     inkscape:cx="-139.4709"
     inkscape:cy="79.993357"
     inkscape:document-units="px"
     inkscape:current-layer="layer1"
     width="1500px"
     height="630px"
     inkscape:window-width="1680"
     inkscape:window-height="988"
     inkscape:window-x="-8"
     inkscape:window-y="-8"
     showgrid="false"
     showguides="true"
     inkscape:guide-bbox="true"
     inkscape:snap-center="true"
     inkscape:window-maximized="1"
     fit-margin-top="0"
     fit-margin-left="0"
     fit-margin-right="0"
     fit-margin-bottom="0"
     inkscape:object-nodes="true" />
  <metadata
     id="metadata4208">
    <rdf:RDF>
      <cc:Work
         rdf:about="">
        <dc:format>image/svg+xml</dc:format>
        <dc:type
           rdf:resource="http://purl.org/dc/dcmitype/StillImage" />
        <dc:title />
      </cc:Work>
    </rdf:RDF>
  </metadata>
  <g
     inkscape:label="sign"
     inkscape:groupmode="layer"
     id="layer1"
     transform="translate(-10.541365,-216.91783)">
    <path
       inkscape:connector-curvature="0"
       d="m 11.898458,397.01378 0,89.37427 128.361622,0 0,-89.37427 -128.361622,0 z"
       style="fill:#ffffff;fill-opacity:1;fill-rule:nonzero;stroke:none"
       id="path10237" />
    <path
       inkscape:connector-curvature="0"
       d="m 140.26008,397.01378 0,89.37427 -128.361622,0 0,-89.37427 128.361622,0 z m 0,89.37427 z"
       style="fill:none;stroke:#005d35;stroke-width:2.70449281;stroke-linecap:butt;stroke-linejoin:miter;stroke-miterlimit:4;stroke-opacity:1;stroke-dasharray:none"
       id="path10239" />
    <path
       inkscape:connector-curvature="0"
       d="m 340.93537,397.01378 0,89.37427 -200.67529,0 0,-89.37427 200.67529,0 z m 0,89.37427 z"
       style="fill:#005d35;fill-opacity:1;stroke:#005d35;stroke-width:2.70449281;stroke-linecap:butt;stroke-linejoin:miter;stroke-miterlimit:4;stroke-opacity:1;stroke-dasharray:none"
       id="path10243" />
    <path
       inkscape:connector-curvature="0"
       d="m 340.93537,218.27492 0,165.73984 -329.036912,0 0,-165.73984 329.036912,0 z m 0,165.73984 z"
       style="fill:#005d35;fill-opacity:1;stroke:#005d35;stroke-width:2.71418619;stroke-linecap:butt;stroke-linejoin:miter;stroke-miterlimit:4;stroke-opacity:1;stroke-dasharray:none"
       id="path10247" />
    <g
       id="g10249"
       transform="matrix(0,9.693522,9.693522,0,94.535732,241.73325)"
       style="fill:#0066b3;fill-opacity:1">
      <path
         inkscape:connector-curvature="0"
         d="m 0,0 c -0.025,0.002 -0.05,0.003 -0.074,0.002 -0.159,0.002 -0.289,-0.037 -0.399,-0.122 -0.086,-0.055 -0.158,-0.134 -0.218,-0.24 0,0 0,0 -0.001,0 -0.12,-0.155 -0.203,-0.373 -0.262,-0.662 -0.081,-0.396 -0.126,-0.855 -0.124,-1.316 -10e-4,-0.458 0.043,-0.915 0.124,-1.31 0.059,-0.288 0.142,-0.506 0.262,-0.661 0,0 0,-10e-4 0.001,-10e-4 0.06,-0.106 0.131,-0.184 0.218,-0.24 0.11,-0.085 0.24,-0.123 0.399,-0.121 0.024,-0.002 0.049,0 0.074,0.001 0.177,-0.009 0.383,0.029 0.626,0.11 0.242,0.08 0.499,0.187 0.757,0.313 0.561,0.266 1.113,0.632 1.527,1 0.22,0.196 0.369,0.377 0.441,0.559 0.068,0.119 0.1,0.233 0.093,0.353 0.007,0.119 -0.025,0.234 -0.093,0.353 C 3.279,-1.8 3.13,-1.618 2.91,-1.422 2.496,-1.055 1.945,-0.688 1.383,-0.423 1.127,-0.296 0.869,-0.19 0.626,-0.109 0.383,-0.029 0.177,0.009 0,0"
         style="fill:#0066b3;fill-opacity:1;fill-rule:nonzero;stroke:none"
         id="path10251" />
    </g>
    <path
       id="path10255"
       style="fill:none;stroke:#ffffff;stroke-width:2;stroke-linecap:butt;stroke-linejoin:miter;stroke-miterlimit:4;stroke-opacity:1;stroke-dasharray:none"
       d="m 94.535732,241.73325 c 0.01939,-0.24234 0.02908,-0.48468 0.01939,-0.71732 0.01939,-1.54127 -0.35866,-2.80143 -1.18261,-3.86772 -0.533143,-0.83364 -1.298932,-1.53157 -2.326445,-2.11318 0,0 0,0 0,-0.01 -1.502496,-1.16322 -3.615684,-1.96778 -6.417111,-2.5397 -3.838635,-0.78518 -8.287962,-1.22138 -12.756675,-1.202 -4.439634,-0.01 -8.869573,0.41682 -12.698514,1.202 -2.791735,0.57192 -4.904922,1.37648 -6.407418,2.5397 0,0 -0.0097,0 -0.0097,0.01 -1.027513,0.58161 -1.783608,1.26985 -2.326445,2.11318 -0.823949,1.06629 -1.192303,2.32645 -1.172916,3.86772 -0.01939,0.23264 0,0.47498 0.0097,0.71732 -0.08724,1.71575 0.281112,3.71262 1.066288,6.06814 0.775481,2.34584 1.812688,4.83707 3.034072,7.338 2.578477,5.43807 6.126306,10.78889 9.693522,14.80201 1.89993,2.13257 3.654458,3.57691 5.418679,4.27484 1.153529,0.65916 2.25859,0.96935 3.421813,0.9015 1.153529,0.0678 2.268284,-0.24234 3.421813,-0.9015 1.764221,-0.69793 3.528442,-2.14227 5.428373,-4.27484 3.557522,-4.01312 7.115045,-9.35425 9.683828,-14.80201 1.231077,-2.48154 2.258591,-4.98247 3.043766,-7.338 0.775482,-2.35552 1.143836,-4.35239 1.056594,-6.06814 z"
       inkscape:connector-curvature="0" />
    <g
       transform="scale(0.94867894,1.0540974)"
       style="font-size:110.35248566px"
       id="text10273">
      <path
         d="m 176.16065,447.32861 0,-15.97492 11.84498,0 0,2.70244 -8.61949,0 0,3.54151 8.02016,0 0,2.69154 -8.02016,0 0,4.34789 8.92461,0 0,2.69154 z"
         style="font-size:22.31694984px;font-variant:normal;font-weight:bold;writing-mode:lr-tb;fill:#ffffff;fill-opacity:1;fill-rule:nonzero;stroke:none;font-family:Arial;-inkscape-font-specification:Arial-BoldMT"
         id="path9470" />
      <path
         d="m 189.4247,447.32861 5.45937,-8.33616 -4.94722,-7.63876 3.77035,0 3.2037,5.13246 3.13832,-5.13246 3.73766,0 -4.96901,7.75862 5.45937,8.2163 -3.89021,0 -3.54151,-5.52475 -3.55241,5.52475 z"
         style="font-size:22.31694984px;font-variant:normal;font-weight:bold;writing-mode:lr-tb;fill:#ffffff;fill-opacity:1;fill-rule:nonzero;stroke:none;font-family:Arial;-inkscape-font-specification:Arial-BoldMT"
         id="path9472" />
      <path
         d="m 205.83797,447.32861 0,-15.97492 3.22549,0 0,15.97492 z"
         style="font-size:22.31694984px;font-variant:normal;font-weight:bold;writing-mode:lr-tb;fill:#ffffff;fill-opacity:1;fill-rule:nonzero;stroke:none;font-family:Arial;-inkscape-font-specification:Arial-BoldMT"
         id="path9474" />
      <path
         d="m 215.73815,447.32861 0,-13.27248 -4.74018,0 0,-2.70244 12.69495,0 0,2.70244 -4.72928,0 0,13.27248 z"
         style="font-size:22.31694984px;font-variant:normal;font-weight:bold;writing-mode:lr-tb;fill:#ffffff;fill-opacity:1;fill-rule:nonzero;stroke:none;font-family:Arial;-inkscape-font-specification:Arial-BoldMT"
         id="path9476" />
    </g>
    <g
       style="font-size:40px;font-style:normal;font-variant:normal;font-weight:normal;font-stretch:normal;line-height:125%;letter-spacing:0px;word-spacing:0px;fill:#ffffff;fill-opacity:1;stroke:none;font-family:GD-HighwayGothicJA-TTF;-inkscape-font-specification:GD-HighwayGothicJA-TTF"
       id="text8805">
      <path
         d="m 183.4624,431.79962 3.82813,0 0,15.54688 -36.28907,0 0,-15.54688 3.67188,0 0,11.875 12.53906,0 0,-16.21094 -16.21094,0 0,-16.13281 3.67188,0 0,12.30469 12.53906,0 0,-14.41406 3.86719,0 0,14.41406 12.38281,0 0,-12.30469 3.82813,0 0,16.13281 -16.21094,0 0,16.21094 12.38281,0 z"
         style=""
         id="path9479" />
      <path
         d="m 190.9624,411.01837 36.36719,0 0,36.36719 -36.36719,0 z m 3.59375,3.59375 0,29.17969 29.17969,0 0,-29.17969 z"
         style=""
         id="path9481" />
    </g>
    <g
       style="font-size:40px;font-style:normal;font-variant:normal;font-weight:normal;font-stretch:normal;line-height:125%;letter-spacing:0px;word-spacing:0px;fill:#ffffff;fill-opacity:1;stroke:none;font-family:GD-HighwayGothicJA-TTF;-inkscape-font-specification:GD-HighwayGothicJA-TTF"
       id="text8809">
      <path
         d="m 248.40306,410.35291 0,1.44531 c -0.15626,1.51044 -0.69012,2.87112 -1.60156,4.08203 -0.91147,1.21096 -2.16147,1.82945 -3.75,1.85547 l 0,0 -2.26563,0 0,4.53125 7.07032,0 0,24.76562 5.625,0 0,-36.67968 z"
         style=""
         id="path9463" />
      <path
         d="m 278.364,447.03259 6.21094,0 -9.14063,-15.3125 8.32031,-10.58593 -6.48437,0 -7.65625,10.97656 0,-22.30469 -5.35156,0 0,37.22656 5.35156,0 0,-7.96875 2.42187,-3.125 z"
         style=""
         id="path9465" />
      <path
         d="m 312.114,420.27478 c -1.4844,0.10419 -2.77346,0.60549 -3.86719,1.50391 -1.09377,0.89846 -1.96617,1.94663 -2.61719,3.14453 l 0,0 c -1.14585,-3.15102 -3.41147,-4.7005 -6.79687,-4.64844 l 0,0 c -1.32814,0.0781 -2.50652,0.49481 -3.53516,1.25 -1.02865,0.75523 -1.88152,1.66669 -2.55859,2.73438 l 0,0 -0.11719,-3.125 -5.07812,0 0,25.89843 5.35156,0 0,-16.01562 c -0.0521,-1.40624 0.36457,-2.68228 1.25,-3.82813 0.88541,-1.14581 2.0703,-1.75779 3.55469,-1.83593 l 0,0 c 1.11977,0.0261 1.93358,0.4948 2.4414,1.40625 0.5078,0.91147 0.73566,1.86199 0.6836,2.85156 l 0,0 0,17.42187 5.35156,0 0,-16.01562 c -0.0521,-1.40624 0.36456,-2.68228 1.25,-3.82813 0.88539,-1.14581 2.07029,-1.75779 3.55469,-1.83593 l 0,0 c 1.11976,0.0261 1.93356,0.48829 2.4414,1.38671 0.50779,0.89846 0.73565,1.85549 0.6836,2.8711 l 0,0 0,17.42187 5.35156,0 0,-17.96875 c 0.10413,-2.31769 -0.48181,-4.44008 -1.75781,-6.36718 -1.48441,-1.69269 -3.34639,-2.49998 -5.58594,-2.42188 z"
         style=""
         id="path9467" />
    </g>
    <text
       xml:space="preserve"
       style="font-size:55.33909988px;font-style:normal;font-variant:normal;font-weight:normal;font-stretch:normal;line-height:125%;letter-spacing:0px;word-spacing:0px;fill:#005d35;fill-opacity:1;stroke:none;font-family:GD-HighwayGothicJA-TTF;-inkscape-font-specification:GD-HighwayGothicJA-TTF"
       x="49.777832"
       y="509.94724"
       id="text8813"
       sodipodi:linespacing="125%"
       transform="scale(1.1070974,0.90326291)"><tspan
         sodipodi:role="line"
         id="tspan8815"
         x="49.777832"
         y="509.94724">4</tspan></text>
    <g
       id="g8842"
       transform="translate(0,10)"
       style="fill:#ffffff;fill-opacity:1">
      <g
         transform="scale(1.0497469,0.95261057)"
         style="font-size:26.59513092px;font-style:normal;font-variant:normal;font-weight:normal;font-stretch:normal;line-height:125%;letter-spacing:0px;word-spacing:0px;fill:#ffffff;stroke:none;font-family:GD-HighwayGothicJA-TTF;-inkscape-font-specification:GD-HighwayGothicJA-TTF"
         id="text8817">
        <path
           d="m 44.902707,347.54616 -4.337292,0 -4.337292,11.08996 -4.31132,-11.08996 -4.31132,0 6.778642,14.93379 0,9.81734 3.73994,0 0,-9.81734 z"
           style=""
           id="path9484" />
        <path
           d="m 54.044782,372.86867 c 1.939218,-0.052 3.584098,-0.78781 4.934644,-2.2076 1.679495,-1.99117 2.48462,-4.31132 2.415378,-6.96045 l 0,0 c 0.06924,-2.64911 -0.735883,-4.97792 -2.415378,-6.98641 -1.350546,-1.40247 -2.995426,-2.13833 -4.934644,-2.20761 l 0,0 c -1.956549,0.0693 -3.601429,0.80514 -4.934643,2.20761 -1.696827,2.00849 -2.493295,4.3373 -2.389406,6.98641 l 0,0 c -0.103889,2.64913 0.692579,4.96928 2.389406,6.96045 1.333214,1.41979 2.978094,2.15565 4.934643,2.2076 z m 0,-3.16856 c -1.177396,-0.0346 -2.051779,-0.56272 -2.623152,-1.58428 -0.692587,-1.38516 -1.004248,-2.85689 -0.934985,-4.41521 l 0,0 c -0.06926,-1.54098 0.242398,-3.00406 0.934985,-4.38923 0.571373,-1.02155 1.445756,-1.5583 2.623152,-1.61026 l 0,0 c 1.177379,0.052 2.043105,0.58871 2.597181,1.61026 0.69257,1.38517 1.012888,2.84825 0.960957,4.38923 l 0,0 c 0.05193,1.55832 -0.268387,3.03005 -0.960957,4.41521 -0.554076,1.02156 -1.419802,1.54965 -2.597181,1.58428 z"
           style=""
           id="path9486" />
        <path
           d="m 73.004202,372.29729 4.129518,0 -6.077403,-10.18095 5.531995,-7.03836 -4.31132,0 -5.090475,7.29808 0,-14.8299 -3.558137,0 0,24.75113 3.558137,0 0,-5.29825 1.610253,-2.07774 z"
           style=""
           id="path9488" />
        <path
           d="m 86.042051,372.86867 c 1.939218,-0.052 3.584097,-0.78781 4.934643,-2.2076 1.679496,-1.99117 2.484621,-4.31132 2.415378,-6.96045 l 0,0 c 0.06924,-2.64911 -0.735882,-4.97792 -2.415378,-6.98641 -1.350546,-1.40247 -2.995425,-2.13833 -4.934643,-2.20761 l 0,0 c -1.956549,0.0693 -3.601429,0.80514 -4.934644,2.20761 -1.696826,2.00849 -2.493294,4.3373 -2.389406,6.98641 l 0,0 c -0.103888,2.64913 0.69258,4.96928 2.389406,6.96045 1.333215,1.41979 2.978095,2.15565 4.934644,2.2076 z m 0,-3.16856 c -1.177396,-0.0346 -2.051779,-0.56272 -2.623153,-1.58428 -0.692586,-1.38516 -1.004248,-2.85689 -0.934985,-4.41521 l 0,0 c -0.06926,-1.54098 0.242399,-3.00406 0.934985,-4.38923 0.571374,-1.02155 1.445757,-1.5583 2.623153,-1.61026 l 0,0 c 1.177379,0.052 2.043105,0.58871 2.597181,1.61026 0.692569,1.38517 1.012888,2.84825 0.960957,4.38923 l 0,0 c 0.05193,1.55832 -0.268388,3.03005 -0.960957,4.41521 -0.554076,1.02156 -1.419802,1.54965 -2.597181,1.58428 z"
           style=""
           id="path9490" />
        <path
           d="m 103.1315,354.5066 c -0.86574,0.052 -1.62758,0.32034 -2.28552,0.80513 -0.65796,0.48482 -1.212025,1.06486 -1.662198,1.74011 l 0,0 0,-9.50568 -3.558137,0 0,24.75113 3.558137,0 0,-10.64844 c -0.03463,-0.93498 0.242399,-1.78339 0.831098,-2.54524 0.58869,-0.76183 1.3765,-1.16872 2.36343,-1.22067 l 0,0 c 0.74452,0.0173 1.31157,0.32033 1.70116,0.90901 0.38956,0.58871 0.5757,1.22934 0.55839,1.92191 l 0,0 0,11.58343 3.55814,0 0,-11.94703 c 0.0173,-0.9696 -0.14719,-1.92623 -0.49346,-2.86989 -0.34631,-0.94362 -0.94366,-1.68382 -1.79206,-2.22058 -0.84842,-0.53674 -1.77475,-0.7878 -2.77898,-0.75319 z"
           style=""
           id="path9492" />
        <path
           d="m 124.22061,372.29729 c -0.6926,-1.12545 -1.00426,-2.36343 -0.93499,-3.71397 l 0,0 c -0.0173,-1.41979 -0.0173,-2.83958 0,-4.25937 -0.0173,-1.69682 -0.0173,-3.4023 0,-5.11645 l 0,0 c 0.0173,-1.41978 -0.51945,-2.57985 -1.61025,-3.48022 -1.33323,-0.86571 -2.79631,-1.27261 -4.38924,-1.22068 l 0,0 c -3.94772,0.12122 -6.0168,2.1297 -6.20726,6.02546 l 0,0 3.55814,0 c -0.12121,-1.90459 0.76183,-2.90883 2.64912,-3.01273 l 0,0 c 1.52367,-0.0692 2.33746,0.62334 2.44135,2.07775 l 0,0 c -0.052,0.90036 -0.48481,1.48906 -1.29859,1.76608 -0.81379,0.27704 -1.57563,0.49347 -2.28552,0.64929 l 0,0 c -0.9523,0.20779 -1.85699,0.54542 -2.71405,1.01291 -0.85707,0.46749 -1.56697,1.1038 -2.12969,1.90892 -0.56272,0.80513 -0.82677,1.70116 -0.79214,2.68809 l 0,0 c -0.10389,1.38516 0.23375,2.64046 1.0129,3.76591 1.03887,1.09081 2.3288,1.58427 3.8698,1.48039 l 0,0 c 1.93922,-0.0693 3.47156,-0.90901 4.59701,-2.51926 l 0,0 0.28569,1.94788 z m -7.68766,-2.59718 c -1.57563,0.15583 -2.38941,-0.53675 -2.44135,-2.07774 l 0,0 c -0.0693,-0.74453 0.14284,-1.36352 0.63631,-1.85699 0.49346,-0.49346 1.09514,-0.80945 1.80504,-0.94797 l 0,0 c 0.55406,-0.17314 1.10812,-0.35061 1.6622,-0.53242 0.55405,-0.1818 1.06483,-0.48047 1.53233,-0.89603 l 0,0 c -0.0173,1.05619 -0.0173,2.09506 0,3.11662 l 0,0 c -0.17315,1.97386 -1.238,3.0387 -3.19453,3.19453 z"
           style=""
           id="path9494" />
        <path
           d="m 142.34893,354.5066 c -0.98695,0.0693 -1.84402,0.40258 -2.57121,0.99992 -0.72723,0.59736 -1.30726,1.29427 -1.74011,2.09073 l 0,0 c -0.76185,-2.09505 -2.26822,-3.12526 -4.5191,-3.09065 l 0,0 c -0.88305,0.052 -1.66653,0.32899 -2.35045,0.8311 -0.68393,0.50214 -1.25098,1.10814 -1.70115,1.81803 l 0,0 -0.0779,-2.07775 -3.37634,0 0,17.21931 3.55814,0 0,-10.64844 c -0.0346,-0.93498 0.2424,-1.78339 0.8311,-2.54524 0.58868,-0.76183 1.37649,-1.16872 2.36343,-1.22067 l 0,0 c 0.74452,0.0173 1.2856,0.32899 1.62324,0.93498 0.33762,0.60602 0.48912,1.238 0.45451,1.89594 l 0,0 0,11.58343 3.55813,0 0,-10.64844 c -0.0346,-0.93498 0.24239,-1.78339 0.8311,-2.54524 0.58868,-0.76183 1.37649,-1.16872 2.36344,-1.22067 l 0,0 c 0.7445,0.0173 1.28558,0.32466 1.62323,0.922 0.33762,0.59736 0.48912,1.23367 0.45451,1.90892 l 0,0 0,11.58343 3.55814,0 0,-11.94703 c 0.0692,-1.54098 -0.32034,-2.95212 -1.16873,-4.23341 -0.98695,-1.12543 -2.22494,-1.66218 -3.71397,-1.61025 z"
           style=""
           id="path9496" />
        <path
           d="m 163.02249,372.29729 c -0.6926,-1.12545 -1.00426,-2.36343 -0.93499,-3.71397 l 0,0 c -0.0173,-1.41979 -0.0173,-2.83958 0,-4.25937 -0.0173,-1.69682 -0.0173,-3.4023 0,-5.11645 l 0,0 c 0.0173,-1.41978 -0.51945,-2.57985 -1.61025,-3.48022 -1.33323,-0.86571 -2.79631,-1.27261 -4.38924,-1.22068 l 0,0 c -3.94772,0.12122 -6.0168,2.1297 -6.20726,6.02546 l 0,0 3.55814,0 c -0.12121,-1.90459 0.76183,-2.90883 2.64912,-3.01273 l 0,0 c 1.52367,-0.0692 2.33746,0.62334 2.44135,2.07775 l 0,0 c -0.052,0.90036 -0.48481,1.48906 -1.29859,1.76608 -0.81379,0.27704 -1.57563,0.49347 -2.28552,0.64929 l 0,0 c -0.9523,0.20779 -1.85699,0.54542 -2.71405,1.01291 -0.85707,0.46749 -1.56697,1.1038 -2.12969,1.90892 -0.56272,0.80513 -0.82677,1.70116 -0.79214,2.68809 l 0,0 c -0.10389,1.38516 0.23375,2.64046 1.0129,3.76591 1.03887,1.09081 2.3288,1.58427 3.8698,1.48039 l 0,0 c 1.93922,-0.0693 3.47156,-0.90901 4.59701,-2.51926 l 0,0 0.28569,1.94788 z m -7.68766,-2.59718 c -1.57563,0.15583 -2.38941,-0.53675 -2.44135,-2.07774 l 0,0 c -0.0693,-0.74453 0.14284,-1.36352 0.63631,-1.85699 0.49346,-0.49346 1.09514,-0.80945 1.80504,-0.94797 l 0,0 c 0.55406,-0.17314 1.10812,-0.35061 1.6622,-0.53242 0.55405,-0.1818 1.06483,-0.48047 1.53233,-0.89603 l 0,0 c -0.0173,1.05619 -0.0173,2.09506 0,3.11662 l 0,0 c -0.17315,1.97386 -1.238,3.0387 -3.19453,3.19453 z"
           style=""
           id="path9498" />
      </g>
      <g
         transform="scale(1.0497469,0.95261057)"
         style="font-size:26.59513092px;font-style:normal;font-variant:normal;font-weight:normal;font-stretch:normal;line-height:125%;letter-spacing:0px;word-spacing:0px;fill:#ffffff;stroke:none;font-family:GD-HighwayGothicJA-TTF;-inkscape-font-specification:GD-HighwayGothicJA-TTF"
         id="text8817-6">
        <path
           d="m 205.49873,347.54616 -4.8827,19.5308 -4.90867,-19.5308 -4.67493,0 0,24.75113 3.76591,0 0,-16.46613 4.10355,16.46613 3.4023,0 4.12952,-16.46613 0,16.46613 3.79189,0 0,-24.75113 z"
           style=""
           id="path9501" />
        <path
           d="m 226.432,372.29729 c -0.69259,-1.12545 -1.00425,-2.36343 -0.93498,-3.71397 l 0,0 c -0.0173,-1.41979 -0.0173,-2.83958 0,-4.25937 -0.0173,-1.69682 -0.0173,-3.4023 0,-5.11645 l 0,0 c 0.0173,-1.41978 -0.51945,-2.57985 -1.61025,-3.48022 -1.33323,-0.86571 -2.79631,-1.27261 -4.38924,-1.22068 l 0,0 c -3.94772,0.12122 -6.0168,2.1297 -6.20726,6.02546 l 0,0 3.55814,0 c -0.12121,-1.90459 0.76183,-2.90883 2.64912,-3.01273 l 0,0 c 1.52367,-0.0692 2.33745,0.62334 2.44135,2.07775 l 0,0 c -0.052,0.90036 -0.48482,1.48906 -1.29859,1.76608 -0.81379,0.27704 -1.57563,0.49347 -2.28552,0.64929 l 0,0 c -0.9523,0.20779 -1.85699,0.54542 -2.71405,1.01291 -0.85707,0.46749 -1.56697,1.1038 -2.12969,1.90892 -0.56272,0.80513 -0.82677,1.70116 -0.79214,2.68809 l 0,0 c -0.10389,1.38516 0.23374,2.64046 1.0129,3.76591 1.03887,1.09081 2.3288,1.58427 3.8698,1.48039 l 0,0 c 1.93922,-0.0693 3.47156,-0.90901 4.59701,-2.51926 l 0,0 0.28569,1.94788 z m -7.68765,-2.59718 c -1.57563,0.15583 -2.38941,-0.53675 -2.44135,-2.07774 l 0,0 c -0.0693,-0.74453 0.14284,-1.36352 0.63631,-1.85699 0.49346,-0.49346 1.09514,-0.80945 1.80504,-0.94797 l 0,0 c 0.55406,-0.17314 1.10812,-0.35061 1.6622,-0.53242 0.55405,-0.1818 1.06483,-0.48047 1.53233,-0.89603 l 0,0 c -0.0173,1.05619 -0.0173,2.09506 0,3.11662 l 0,0 c -0.17315,1.97386 -1.238,3.0387 -3.19453,3.19453 z"
           style=""
           id="path9503" />
        <path
           d="m 234.97673,369.70011 c -1.1774,-0.0173 -2.02581,-0.54541 -2.54524,-1.58428 -0.62333,-1.40247 -0.90036,-2.87421 -0.8311,-4.41521 l 0,0 c -0.0693,-1.52367 0.20777,-2.98675 0.8311,-4.38923 0.51943,-1.03886 1.36784,-1.57561 2.54524,-1.61026 l 0,0 c 1.85264,0.12122 2.79629,1.12546 2.83093,3.01273 l 0,0 3.55813,0 c -0.0173,-1.59292 -0.55408,-2.9954 -1.61025,-4.20743 -1.2986,-1.36783 -2.89154,-2.03444 -4.77881,-1.99983 l 0,0 c -1.90461,0.0866 -3.49754,0.82246 -4.77881,2.20761 -1.67952,2.02581 -2.46733,4.35461 -2.36344,6.98641 l 0,0 c -0.10389,2.64913 0.68392,4.96928 2.36344,6.96045 1.28127,1.40247 2.8742,2.13834 4.77881,2.2076 l 0,0 c 1.88727,0.0519 3.48021,-0.60601 4.77881,-1.97386 1.05617,-1.17739 1.59292,-2.57986 1.61025,-4.20743 l 0,0 -3.55813,0 c -0.0346,1.9046 -0.97829,2.90884 -2.83093,3.01273 z"
           style=""
           id="path9505" />
        <path
           d="m 251.20911,354.5066 c -0.86574,0.052 -1.62757,0.32034 -2.28552,0.80513 -0.65796,0.48482 -1.21202,1.06486 -1.6622,1.74011 l 0,0 0,-9.50568 -3.55813,0 0,24.75113 3.55813,0 0,-10.64844 c -0.0346,-0.93498 0.2424,-1.78339 0.8311,-2.54524 0.58869,-0.76183 1.3765,-1.16872 2.36344,-1.22067 l 0,0 c 0.74451,0.0173 1.31156,0.32033 1.70115,0.90901 0.38957,0.58871 0.5757,1.22934 0.55839,1.92191 l 0,0 0,11.58343 3.55814,0 0,-11.94703 c 0.0173,-0.9696 -0.14719,-1.92623 -0.49346,-2.86989 -0.34631,-0.94362 -0.94366,-1.68382 -1.79206,-2.22058 -0.84842,-0.53674 -1.77475,-0.7878 -2.77898,-0.75319 z"
           style=""
           id="path9507" />
        <path
           d="m 262.53282,351.70165 0,-4.15549 -3.55814,0 0,4.15549 z m -3.55814,20.59564 3.55814,0 0,-17.21931 -3.55814,0 z"
           style=""
           id="path9509" />
        <path
           d="m 275.59664,347.54616 0,9.1161 c -0.96963,-1.36783 -2.28553,-2.08638 -3.94772,-2.15566 l 0,0 c -1.85266,0.12122 -3.35037,0.90903 -4.49312,2.36344 -1.48905,2.02581 -2.18163,4.30267 -2.07775,6.83058 l 0,0 c -0.10388,2.52793 0.5887,4.80479 2.07775,6.83059 1.14275,1.47173 2.64046,2.25089 4.49312,2.33746 l 0,0 c 1.85265,-0.0693 3.22915,-0.94364 4.12952,-2.62315 l 0,0 0.38958,2.05177 2.98675,0 0,-24.75113 z m -3.37634,22.15395 c -0.93499,-0.0346 -1.65354,-0.41555 -2.15566,-1.14276 -0.50213,-0.72721 -0.8311,-1.50636 -0.98693,-2.33746 -0.15583,-0.8311 -0.23375,-1.67085 -0.23374,-2.51927 l 0,0 c -1e-5,-0.83109 0.0779,-1.66651 0.23374,-2.50628 0.15583,-0.83974 0.4848,-1.6189 0.98693,-2.33746 0.50212,-0.71854 1.22067,-1.10379 2.15566,-1.15575 l 0,0 c 0.91766,0.052 1.62756,0.43721 2.12969,1.15575 0.50211,0.71856 0.83109,1.49772 0.98693,2.33746 0.15582,0.83977 0.24239,1.67519 0.25972,2.50628 l 0,0 c -0.0173,0.84842 -0.1039,1.68817 -0.25972,2.51927 -0.15584,0.8311 -0.48482,1.61025 -0.98693,2.33746 -0.50213,0.72721 -1.21203,1.10813 -2.12969,1.14276 z"
           style=""
           id="path9511" />
        <path
           d="m 295.1534,372.29729 c -0.69259,-1.12545 -1.00425,-2.36343 -0.93498,-3.71397 l 0,0 c -0.0173,-1.41979 -0.0173,-2.83958 0,-4.25937 -0.0173,-1.69682 -0.0173,-3.4023 0,-5.11645 l 0,0 c 0.0173,-1.41978 -0.51945,-2.57985 -1.61025,-3.48022 -1.33323,-0.86571 -2.79631,-1.27261 -4.38924,-1.22068 l 0,0 c -3.94772,0.12122 -6.0168,2.1297 -6.20726,6.02546 l 0,0 3.55814,0 c -0.12121,-1.90459 0.76183,-2.90883 2.64912,-3.01273 l 0,0 c 1.52367,-0.0692 2.33745,0.62334 2.44135,2.07775 l 0,0 c -0.0519,0.90036 -0.48482,1.48906 -1.29859,1.76608 -0.81379,0.27704 -1.57563,0.49347 -2.28552,0.64929 l 0,0 c -0.9523,0.20779 -1.85699,0.54542 -2.71405,1.01291 -0.85708,0.46749 -1.56697,1.1038 -2.12969,1.90892 -0.56272,0.80513 -0.82677,1.70116 -0.79214,2.68809 l 0,0 c -0.10389,1.38516 0.23374,2.64046 1.0129,3.76591 1.03887,1.09081 2.3288,1.58427 3.8698,1.48039 l 0,0 c 1.93922,-0.0693 3.47155,-0.90901 4.59701,-2.51926 l 0,0 0.28569,1.94788 z m -7.68765,-2.59718 c -1.57563,0.15583 -2.38941,-0.53675 -2.44135,-2.07774 l 0,0 c -0.0693,-0.74453 0.14284,-1.36352 0.63631,-1.85699 0.49346,-0.49346 1.09514,-0.80945 1.80504,-0.94797 l 0,0 c 0.55406,-0.17314 1.10812,-0.35061 1.66219,-0.53242 0.55406,-0.1818 1.06484,-0.48047 1.53234,-0.89603 l 0,0 c -0.0173,1.05619 -0.0173,2.09506 0,3.11662 l 0,0 c -0.17315,1.97386 -1.238,3.0387 -3.19453,3.19453 z"
           style=""
           id="path9513" />
      </g>
    </g>
    <g
       style="font-size:22.65297699px;font-style:normal;font-variant:normal;font-weight:normal;font-stretch:normal;line-height:125%;letter-spacing:0px;word-spacing:0px;fill:#ffffff;fill-opacity:1;stroke:none;font-family:GD-HighwayGothicJA-TTF;-inkscape-font-specification:GD-HighwayGothicJA-TTF"
       id="text9433">
      <path
         d="m 63.077262,236.63046 0,0.81851 c -0.08849,0.8554 -0.39083,1.62599 -0.907004,2.31176 -0.516187,0.68579 -1.224092,1.03606 -2.123716,1.05079 l 0,0 -1.283079,0 0,2.56616 4.004091,0 0,14.02538 3.185574,0 0,-20.7726 z"
         style=""
         id="path3423" />
      <path
         d="m 79.071503,244.01922 c -1.519054,0.0443 -2.74314,0.6563 -3.67226,1.83613 l 0,0 c 0.02949,-0.84063 0.117979,-1.68495 0.265464,-2.53298 0.147476,-0.84799 0.427688,-1.65545 0.840638,-2.42236 0.530923,-0.91436 1.33469,-1.37155 2.411304,-1.37157 l 0,0 c 1.533785,0.0885 2.337552,0.89227 2.411303,2.41131 l 0,0 3.207697,0 c -0.01476,-1.3863 -0.471951,-2.61039 -1.371567,-3.67226 -1.150358,-1.22407 -2.566168,-1.82137 -4.247433,-1.79189 l 0,0 c -1.931999,0.0295 -3.495289,0.79641 -4.689875,2.30069 -0.737404,0.97339 -1.268333,2.05737 -1.592787,3.25194 -0.412946,1.6518 -0.604671,3.3257 -0.575173,5.02171 l 0,0 c -0.05899,2.02049 0.154853,3.98935 0.641539,5.90659 l 0,0 c 0.339203,1.4748 1.069229,2.72101 2.190083,3.73862 1.091349,0.84064 2.330182,1.23884 3.716504,1.19459 l 0,0 c 2.02047,0.059 3.664874,-0.68578 4.933217,-2.23432 1.002852,-1.43056 1.49691,-3.03072 1.482177,-4.80049 l 0,0 c 0.01473,-1.72551 -0.479325,-3.29618 -1.482177,-4.71199 -1.150359,-1.4158 -2.639908,-2.12371 -4.468654,-2.12372 z m -0.464563,10.86192 c -1.061865,-0.0295 -1.850884,-0.46087 -2.367059,-1.29414 -0.516186,-0.83326 -0.737407,-1.74395 -0.663662,-2.73207 l 0,0 c -0.01475,-0.61941 0.06636,-1.23145 0.243343,-1.83613 0.176971,-0.60466 0.519862,-1.11347 1.028675,-1.52642 0.508801,-0.41294 1.095034,-0.61203 1.758703,-0.59729 l 0,0 c 0.648905,-0.0147 1.227764,0.18067 1.736581,0.58623 0.508797,0.40558 0.855375,0.91438 1.039736,1.52642 0.184339,0.61205 0.276515,1.22778 0.276525,1.84719 l 0,0 c -1e-5,0.63417 -0.09587,1.25728 -0.287586,1.86932 -0.191735,0.61204 -0.538313,1.12822 -1.039736,1.54854 -0.501443,0.42032 -1.076615,0.6231 -1.72552,0.60835 z"
         style=""
         id="path3425" />
    </g>
    <g
       style="font-size:50.51703262px;font-style:normal;font-variant:normal;font-weight:normal;font-stretch:normal;line-height:125%;letter-spacing:0px;word-spacing:0px;fill:#ffffff;fill-opacity:1;stroke:none;font-family:GD-HighwayGothicJA-TTF;-inkscape-font-specification:GD-HighwayGothicJA-TTF"
       id="text9437">
      <path
         d="m 57.339808,281.31239 4.587972,0 0,8.38662 5.03197,0 0,4.53864 -5.03197,0 0,3.94664 5.771966,6.90662 -3.40398,2.95999 -2.367986,-2.81199 0,24.51852 -4.587972,0 0,-17.51323 c -0.95378,2.10489 -2.071994,4.07821 -3.354647,5.91997 l 0,0 -3.798644,-2.46665 c 2.071984,-3.12442 3.699973,-6.46262 4.883971,-10.01461 1.249763,-3.19018 2.006202,-6.49549 2.26932,-9.91594 l 0,0 0,-1.52932 -6.80796,0 0,-4.53864 6.80796,0 z m 19.733216,-0.24667 0,4.04531 11.593264,0 0,-4.04531 4.587973,0 0,4.04531 3.995976,0 0,4.53864 -3.995976,0 0,3.50265 3.995976,0 0,4.58797 -12.086595,0 0,3.25598 12.086595,0 0,20.22655 -28.761162,0 0,-20.22655 12.135927,0 0,-3.25598 -12.135927,0 0,-4.58797 4.045309,0 0,-3.50265 -4.045309,0 0,-4.53864 4.045309,0 0,-4.04531 z m 15.638573,35.61846 0,-3.30532 -7.547955,0 0,3.30532 z m -19.683883,0 7.597288,0 0,-3.30532 -7.597288,0 z m 19.683883,-11.14927 -7.547955,0 0,3.30532 7.547955,0 z m -19.683883,0 0,3.30532 7.597288,0 0,-3.30532 z m 4.04531,-12.38259 11.593264,0 0,-3.50265 -11.593264,0 z m 11.149266,31.27715 3.305314,-2.95999 c 2.006166,2.00621 4.390594,3.40398 7.153291,4.19331 l 0,0 -1.381325,4.34131 c -3.552024,-1.01955 -6.57778,-2.87776 -9.07728,-5.57463 z m -10.705269,0 c -2.532455,2.69687 -5.558212,4.55508 -9.077279,5.57463 l 0,0 -1.381326,-4.34131 c 2.729741,-0.78933 5.114169,-2.1871 7.153291,-4.19331 l 0,0 z"
         style=""
         id="path9521" />
      <path
         d="m 113.43147,310.36955 3.55198,0 0,-23.82786 0.74,0 c 3.45329,-0.13152 6.84082,-0.64129 10.1626,-1.52932 3.88084,-0.92085 7.56437,-2.33506 11.05061,-4.24264 l 0,0 2.26932,3.84797 c -3.09158,1.80892 -6.34756,3.19024 -9.76795,4.14398 -3.25601,0.98669 -6.56132,1.67736 -9.91594,2.07199 l 0,0 0,1.57865 25.50518,0 0,4.53864 -4.04531,0 0,13.41859 5.57464,0 0,4.53864 -35.12513,0 z m -6.80796,-0.78933 4.53864,0 0,0.64133 c -0.0329,2.368 -0.31245,4.70309 -0.83866,7.00529 -1.05245,4.90042 -3.27243,9.17595 -6.65996,12.82659 l 0,0 -3.15731,-3.50264 c 2.79553,-2.9271 4.60441,-6.39685 5.42663,-10.40928 0.42755,-1.94042 0.65777,-3.91374 0.69066,-5.91996 l 0,0 z m -3.20664,-28.11983 7.69595,5.27863 -2.56532,3.74931 -7.69595,-5.27863 z m 0,13.36925 7.69595,5.32797 -2.56532,3.74931 -7.69595,-5.32797 z m 9.96527,30.43849 c 1.7102,-0.82222 3.19019,-1.9651 4.43997,-3.42865 1.24976,-1.46354 2.31864,-3.05042 3.20665,-4.76064 l 0,0 4.24264,1.92399 c -2.13779,4.70309 -5.4431,8.30439 -9.91594,10.80394 l 0,0 z m 35.27312,0 -1.97332,4.53864 c -4.50579,-2.49955 -7.8111,-6.10085 -9.91594,-10.80394 l 0,0 4.24264,-1.92399 c 0.85507,1.71022 1.9075,3.2971 3.15732,4.76064 1.24972,1.46355 2.74616,2.60643 4.4893,3.42865 z m -27.13317,-14.89858 16.92123,0 0,-13.41859 -16.92123,0 z"
         style=""
         id="path9523" />
    </g>
    <g
       style="font-size:50.51703262px;font-style:normal;font-variant:normal;font-weight:normal;font-stretch:normal;line-height:125%;letter-spacing:0px;word-spacing:0px;fill:#ffffff;fill-opacity:1;stroke:none;font-family:GD-HighwayGothicJA-TTF;-inkscape-font-specification:GD-HighwayGothicJA-TTF"
       id="text9437-3">
      <path
         d="m 237.09833,329.2641 0,-4.53864 5.32797,0 0,-32.06647 -7.30129,0 0,24.02519 -29.30383,0 0,-33.34914 29.30383,0 0,4.78531 17.66123,0 0,4.53864 -5.8213,0 0,32.06647 c -0.1316,2.92709 -1.64448,4.43997 -4.53864,4.53864 l 0,0 z m -6.56129,-41.39042 -7.79462,0 0,9.86661 7.79462,0 z m -20.17722,0 0,9.86661 7.79462,0 0,-9.86661 z m 20.17722,24.22253 0,-9.81728 -7.79462,0 0,9.81728 z m -20.17722,0 7.79462,0 0,-9.81728 -7.79462,0 z"
         style=""
         id="path9516" />
      <path
         d="m 256.33822,283.33504 45.92906,0 0,45.92906 -45.92906,0 z m 4.53864,4.53864 0,16.18124 16.1319,0 0,-16.18124 z m 36.85178,0 -16.13191,0 0,16.18124 16.13191,0 z m -36.85178,36.85178 16.1319,0 0,-16.1319 -16.1319,0 z m 36.85178,0 0,-16.1319 -16.13191,0 0,16.1319 z"
         style=""
         id="path9518" />
    </g>
  </g>
</svg>
