<?xml version="1.0" encoding="UTF-8" standalone="no"?>
<!-- Created with Inkscape (http://www.inkscape.org/) -->

<svg
   xmlns:svg="http://www.w3.org/2000/svg"
   xmlns="http://www.w3.org/2000/svg"
   version="1.1"
   width="1200"
   height="600"
   id="svg5338">
  <defs
     id="defs5340" />
  <g
     transform="translate(0,-772.36217)"
     id="layer1">
    <rect
       width="1200"
       height="600"
       rx="50"
       ry="50"
       x="0"
       y="0"
       transform="translate(0,772.36217)"
       id="rect5348"
       style="color:#000000;fill:#000000;fill-opacity:1;stroke:none;stroke-width:99;marker:none;visibility:visible;display:inline;overflow:visible;enable-background:accumulate" />
    <rect
       width="1170"
       height="570"
       rx="50"
       ry="50"
       x="15"
       y="15"
       transform="translate(0,772.36217)"
       id="rect5860"
       style="color:#000000;fill:#ffffff;fill-opacity:1;fill-rule:nonzero;stroke:none;stroke-width:99;marker:none;visibility:visible;display:inline;overflow:visible;enable-background:accumulate" />
  </g>
  <g
     id="text2830"
     style="font-size:40px;font-style:normal;font-weight:normal;text-align:center;text-anchor:middle;fill:#000000;fill-opacity:1;stroke:none;font-family:'Rounded M+ 1m medium';-inkscape-font-specification:'Rounded M+ 1m medium'">
    <path
       d="m 213.57715,247.27673 0,-173.248288 c -1.2e-4,-3.834849 1.37572,-7.084968 4.1275,-9.750366 2.75155,-2.665 5.96098,-3.9976 9.6283,-3.997803 3.66706,2.03e-4 6.87522,1.332803 9.62448,3.997803 2.74898,2.665398 4.12354,5.915517 4.12369,9.750366 l 0,173.751828 c -1.5e-4,6.0018 -0.12476,10.75237 -0.37384,14.25171 -0.24937,3.49935 -0.83302,6.79016 -1.75095,9.87244 -0.91821,3.08226 -2.04354,5.29097 -3.37601,6.62613 -1.33273,1.33513 -3.54144,2.50242 -6.62613,3.50189 -3.08494,0.99943 -6.2931,1.58181 -9.62448,1.74713 -3.33162,0.16528 -7.99826,0.24794 -13.99994,0.24796 -4.83205,-2e-5 -13.99748,-0.24925 -27.49633,-0.74768 -3.33667,-0.16787 -6.21295,-1.45978 -8.62885,-3.87574 -2.41604,-2.41599 -3.70795,-5.28972 -3.87573,-8.62121 -0.16791,-3.16875 0.91546,-5.87845 3.25012,-8.12912 2.33452,-2.25067 5.16757,-3.29208 8.49914,-3.12424 12.0035,0.49846 20.00418,0.74768 24.00208,0.74768 6.16444,0 9.7884,-0.54168 10.87189,-1.62506 1.08326,-1.08337 1.62494,-4.87517 1.62506,-11.37543 z M 165.32886,132.53064 c -6.66815,34.00176 -16.33459,66.00196 -28.99933,96.00067 -1.50048,3.49938 -4.04234,6.04124 -7.62558,7.62558 -3.5833,1.5844 -7.20853,1.70774 -10.8757,0.37003 -3.33152,-1.33258 -5.70553,-3.58197 -7.12204,-6.7482 -1.41654,-3.16617 -1.4585,-6.41501 -0.12589,-9.74655 12.66477,-29.33241 22.24728,-60.16531 28.74756,-92.49878 0.83411,-3.66706 2.70967,-6.50138 5.62668,-8.50296 2.91692,-2.0013 6.209,-2.66887 9.87625,-2.00272 3.66714,0.83429 6.50018,2.70985 8.49915,5.62668 1.99883,2.91711 2.66513,6.20919 1.9989,9.87625 z m 174.75128,100.37231 c -1.83129,3.08231 -4.58042,5.12444 -8.24738,6.12641 -3.66742,1.00201 -7.08411,0.58621 -10.25009,-1.24741 -3.16642,-1.83357 -5.25051,-4.58396 -6.25229,-8.25119 -8.49935,-31.16855 -19.08385,-63.5019 -31.75354,-97.00012 -1.16493,-3.33137 -0.95513,-6.58149 0.62943,-9.75037 1.58418,-3.1686 4.04212,-5.33534 7.37381,-6.50024 3.49915,-1.16461 6.95781,-0.95607 10.37597,0.62561 3.41777,1.58197 5.79305,4.12256 7.12586,7.62176 12.66457,32.83702 23.41438,65.58744 32.24945,98.25135 0.99666,3.66723 0.57959,7.04196 -1.25122,10.1242 z"
       id="path2835"
       style="font-size:250px;font-family:'Rounded M+ 1m medium';-inkscape-font-specification:'Rounded M+ 1m medium'" />
    <path
       d="m 707.32867,70.03064 c 3.00066,1.332792 5.08476,3.540228 6.25229,6.622314 1.16706,3.082459 0.91656,6.040118 -0.75149,8.872986 -7.16678,13.168499 -15.91768,26.33682 -26.25275,39.505 -0.66651,0.99705 -0.41474,1.4955 0.75531,1.49537 l 19.74487,0 c 3.00066,1.3e-4 5.58448,1.08351 7.75147,3.25012 2.16651,2.16688 3.24988,4.7507 3.25012,7.75146 -2.4e-4,3.00102 -1.08361,5.54288 -3.25012,7.62558 -2.16699,2.08294 -4.75081,3.12435 -7.75147,3.12424 l -38.74969,0 c -1.33279,1.1e-4 -2.58147,0.58503 -3.74603,1.75476 -8.00088,7.99571 -14.16796,13.91103 -18.50128,17.74597 -0.83432,0.83424 -0.5851,1.25132 0.74768,1.25122 l 45.24993,0 c 3.83483,1e-4 7.12691,1.41662 9.87626,4.24958 2.74889,2.83313 4.12345,6.16717 4.12368,10.00213 l 0,88.24921 c -2.3e-4,3.66718 -1.25018,6.75073 -3.74984,9.25064 -2.50013,2.49988 -5.58367,3.74983 -9.25064,3.74985 l -4.49372,0 c -2.3348,-2e-5 -4.37694,-0.83417 -6.1264,-2.50244 -1.74988,-1.66832 -2.62472,-3.66722 -2.62451,-5.99671 -2.1e-4,-1.002 -0.41728,-1.503 -1.25122,-1.50299 l -59.75342,0 c -0.99705,-10e-6 -1.49551,0.50099 -1.49536,1.50299 -1.5e-4,2.32949 -0.83429,4.32839 -2.50244,5.99671 -1.66844,1.66827 -3.66734,2.50242 -5.99671,2.50244 l -4.24957,0 c -3.50456,-2e-5 -6.50673,-1.24997 -9.0065,-3.74985 -2.50002,-2.49991 -3.74997,-5.49953 -3.74985,-8.99887 l 0,-62.00409 c -1.2e-4,-0.4984 -0.20738,-0.87224 -0.6218,-1.12152 -0.41464,-0.24917 -0.78975,-0.20848 -1.12533,0.12207 -0.49857,0.33575 -1.24752,0.75282 -2.24686,1.25122 -0.99956,0.49851 -1.66713,0.91558 -2.00271,1.25122 -3.33161,1.99895 -6.83096,2.37279 -10.49805,1.12152 -3.66729,-1.25117 -6.41896,-3.62645 -8.25501,-7.12585 l -2.99835,-6.24848 c -0.49854,-1.33253 -1.49799,-1.99883 -2.99835,-1.9989 l -56.25153,0 c -2.83307,7e-5 -5.29101,-1.04134 -7.37381,-3.12424 -2.08284,-2.08275 -3.12425,-4.54068 -3.12423,-7.37381 -2e-5,-2.83297 1.04139,-5.33286 3.12423,-7.49969 2.0828,-2.16666 4.54074,-3.25004 7.37381,-3.25012 l 46.50116,0 c 3.83497,8e-5 7.12705,1.41661 9.87626,4.24957 2.74903,2.83313 4.12359,6.16717 4.12368,10.00214 l 0,1.74713 c -9e-5,0.49852 0.20845,0.91432 0.62561,1.2474 0.41699,0.33322 0.79083,0.41587 1.12152,0.24796 23.16782,-11.66272 44.4182,-26.1611 63.75123,-43.49518 0.33553,-0.33558 0.41946,-0.67 0.25177,-1.00326 -0.16801,-0.33304 -0.41723,-0.49962 -0.74769,-0.49973 l -47.0047,0 c -3.001,1.1e-4 -5.58354,-1.0413 -7.74765,-3.12424 -2.1643,-2.0827 -3.2464,-4.62456 -3.2463,-7.62558 -10e-5,-3.00076 1.082,-5.58458 3.2463,-7.75146 2.16411,-2.16661 4.74665,-3.24999 7.74765,-3.25012 l 33.75245,0 c 1.5003,1.3e-4 2.25052,-0.74755 2.25067,-2.24305 l 0,-22.00317 c -1.5e-4,-1.33244 -0.75037,-1.99874 -2.25067,-1.9989 l -23.49854,0 c -2.83316,1.6e-4 -5.2911,-1.04125 -7.37381,-3.124238 -2.08293,-2.082657 -3.12434,-4.541863 -3.12424,-7.377625 -10e-5,-2.835415 1.04131,-5.335311 3.12424,-7.499694 2.08271,-2.164023 4.54065,-3.246124 7.37381,-3.246308 l 23.49854,0 c 1.5003,1.84e-4 2.25052,-0.750039 2.25067,-2.250671 l 0,-7.751465 c -1.5e-4,-3.666998 1.2498,-6.792504 3.74985,-9.376526 2.49974,-2.583616 5.58329,-3.875525 9.25064,-3.875732 3.66703,2.07e-4 6.79254,1.292116 9.37652,3.875732 2.58365,2.584022 3.87556,5.709528 3.87573,9.376526 l 0,7.751465 c -1.7e-4,1.500632 0.66613,2.250855 1.99891,2.250671 l 39.2456,0 c 1.33239,1.84e-4 2.33184,-0.584736 2.99835,-1.754761 -2.1e-4,-0.167661 0.0837,-0.376197 0.25177,-0.62561 0.16763,-0.24904 0.33548,-0.457577 0.50354,-0.62561 1.83084,-3.000706 4.28877,-5.083528 7.37381,-6.248474 3.0846,-1.16456 6.20883,-1.080637 9.37271,0.25177 z m -27.49633,181.25153 0,-17.00592 c -2.1e-4,-1.33258 -0.66651,-1.99888 -1.9989,-1.99891 l -58.25043,0 c -1.50059,3e-5 -2.25082,0.66633 -2.25067,1.99891 l 0,17.00592 c -1.5e-4,1.33261 0.75008,1.99891 2.25067,1.9989 l 58.25043,0 c 1.33239,1e-5 1.99869,-0.66629 1.9989,-1.9989 z m 0,-41.99982 0,-16.25061 c -2.1e-4,-1.50038 -0.66651,-2.2506 -1.9989,-2.25067 l -58.25043,0 c -1.50059,7e-5 -2.25082,0.75029 -2.25067,2.25067 l 0,16.25061 c -1.5e-4,1.5005 0.75008,2.25072 2.25067,2.25067 l 58.25043,0 c 1.33239,5e-5 1.99869,-0.75017 1.9989,-2.25067 z m -32.24945,-82.75604 4.50134,0 c 1.49518,1.3e-4 2.57601,-0.49832 3.24249,-1.49537 7.6699,-8.83469 13.83699,-16.50222 18.50128,-23.00262 0.83395,-1.16459 0.58472,-1.74697 -0.74768,-1.74713 l -25.49743,0 c -1.33278,1.6e-4 -1.99908,0.66646 -1.99891,1.9989 l 0,22.00317 c -1.7e-4,1.4955 0.66613,2.24318 1.99891,2.24305 z M 495.58246,86.53302 c -2.16677,-2.16657 -3.25014,-4.750389 -3.25012,-7.751465 -2e-5,-3.000708 1.08335,-5.584527 3.25012,-7.751465 2.16672,-2.166554 4.75054,-3.249927 7.75146,-3.250122 l 51.75019,0 c 2.99572,1.95e-4 5.577,1.083568 7.74383,3.250122 2.16666,2.166938 3.25003,4.750757 3.25012,7.751465 -9e-5,3.001076 -1.08346,5.584895 -3.25012,7.751465 -2.16683,2.166922 -4.74811,3.250295 -7.74383,3.250122 l -51.75019,0 c -3.00092,1.73e-4 -5.58474,-1.0832 -7.75146,-3.250122 z m 72.25036,20.12634 c 2.16666,2.24828 3.25003,4.95545 3.25013,8.12149 -10e-5,3.16635 -1.08347,5.79086 -3.25013,7.87354 -2.16683,2.08296 -4.83458,3.12437 -8.00323,3.12424 l -62.99591,0 c -3.16876,1.3e-4 -5.87847,-1.04128 -8.12912,-3.12424 -2.25068,-2.08268 -3.37602,-4.70719 -3.37601,-7.87354 -1e-5,-3.16604 1.12533,-5.87448 3.37601,-8.1253 2.25065,-2.25051 4.96036,-3.37585 8.12912,-3.37601 l 62.99591,0 c 3.16865,1.6e-4 5.8364,1.12677 8.00323,3.37982 z m -5.63049,36.7508 c 2.08528,2.0804 3.12796,4.53706 3.12805,7.36999 -9e-5,2.83316 -1.0415,5.33305 -3.12423,7.4997 -2.08291,2.16685 -4.54085,3.25022 -7.37381,3.25012 l -50.00306,0 c -2.83307,1e-4 -5.29101,-1.08327 -7.37381,-3.25012 -2.08284,-2.16665 -3.12425,-4.66654 -3.12423,-7.4997 -2e-5,-2.83293 1.04139,-5.29087 3.12423,-7.37381 2.0828,-2.0827 4.54074,-3.12411 7.37381,-3.12424 l 50.00306,0 c 2.83296,1.3e-4 5.28962,1.04281 7.36999,3.12806 z m 4.63104,82.36694 0,36.49902 c -9e-5,3.83504 -1.41661,7.16908 -4.24957,10.00214 -2.83313,2.83304 -6.16717,4.24956 -10.00213,4.24957 l -35.24781,0 c -0.83419,-10e-6 -1.25126,0.41706 -1.25122,1.25122 -4e-5,2.33458 -0.87488,4.37671 -2.62451,6.12641 -1.74971,1.74965 -3.79184,2.62448 -6.1264,2.62451 l -2.99836,0 c -3.33661,-3e-5 -6.17093,-1.20801 -8.50296,-3.62396 -2.33207,-2.416 -3.49809,-5.20835 -3.49807,-8.37708 l 0,-48.75183 c -2e-5,-3.82992 1.4165,-7.16141 4.24957,-9.99451 2.83302,-2.833 6.16707,-4.24952 10.00214,-4.24957 l 45.99762,0 c 3.83496,5e-5 7.169,1.41657 10.00213,4.24957 2.83296,2.8331 4.24948,6.16459 4.24957,9.99451 z m -22.49908,27.50397 0,-18.50128 c -7e-5,-1.33258 -0.75029,-1.99888 -2.25067,-1.99891 l -24.00208,0 c -1.33264,3e-5 -1.99894,0.66633 -1.9989,1.99891 l 0,18.50128 c -4e-5,1.33261 0.66626,1.99891 1.9989,1.9989 l 24.00208,0 c 1.50038,1e-5 2.2506,-0.66629 2.25067,-1.9989 z"
       id="path2837"
       style="font-size:250px;font-family:'Rounded M+ 1m medium';-inkscape-font-specification:'Rounded M+ 1m medium'" />
    <path
       d="m 959.83112,133.27832 0,-24.49799 c -1.1e-4,-1.50029 -0.66641,-2.25051 -1.99891,-2.25067 l -83.99963,0 c -3.33661,1.6e-4 -6.08827,-1.12518 -8.255,-3.376 -2.16677,-2.25051 -3.25014,-4.957674 -3.25013,-8.121494 -10e-6,-3.336418 1.12533,-6.128774 3.37601,-8.377076 2.25065,-2.24795 4.96036,-3.372013 8.12912,-3.372192 l 83.99963,0 c 1.3325,1.79e-4 1.9988,-0.668663 1.99891,-2.006531 l 0,-9.750366 c -1.1e-4,-3.829761 1.33249,-7.078608 3.9978,-9.746552 2.66508,-2.667541 5.9152,-4.001412 9.75036,-4.001617 3.83492,2.05e-4 7.08504,1.334076 9.75037,4.001617 2.66507,2.667944 3.99767,5.916791 3.9978,9.746552 l 0,9.750366 c -1.3e-4,1.337868 0.66871,2.00671 2.00653,2.006531 l 86.49442,0 c 3.1685,1.79e-4 5.8782,1.124242 8.1292,3.372192 2.2504,2.248302 3.3757,5.040658 3.376,8.377076 -3e-4,3.16382 -1.0837,5.870984 -3.2502,8.121494 -2.1669,2.25082 -4.9186,3.37616 -8.255,3.376 l -86.49442,0 c -1.33782,1.6e-4 -2.00666,0.75038 -2.00653,2.25067 l 0,24.49799 c -1.3e-4,1.33273 0.66871,1.99903 2.00653,1.9989 l 69.99972,0 c 3.8297,1.3e-4 7.1612,1.41665 9.9945,4.24957 2.8328,2.83317 4.2493,6.16722 4.2496,10.00214 l 0,78.75061 c -3e-4,16.49986 -1.708,26.70798 -5.1232,30.62439 -3.4156,3.91642 -12.1246,5.87463 -26.1268,5.87463 -3.998,0 -10.9967,-0.24922 -20.9961,-0.74768 -3.1689,-0.16784 -5.9193,-1.41779 -8.2512,-3.74984 -2.3322,-2.33205 -3.5822,-5.16637 -3.7499,-8.50296 -0.168,-3.16365 0.7895,-5.78815 2.8725,-7.87354 2.0827,-2.08535 4.7084,-3.04411 7.8773,-2.87628 5.666,0.33571 11.2481,0.50356 16.7466,0.50354 5.1674,2e-5 8.2103,-0.58363 9.1285,-1.75095 0.9179,-1.16727 1.3769,-5.00104 1.3771,-11.50131 l 0,-67.74902 c -2e-4,-1.50035 -0.6665,-2.25057 -1.9989,-2.25067 l -55.99972,0 c -1.33782,1e-4 -2.00666,0.75032 -2.00653,2.25067 l 0,113.5025 c -1.3e-4,3.82994 -1.33273,7.07879 -3.9978,9.74655 -2.66533,2.66772 -5.91545,4.00159 -9.75037,4.00162 -3.83516,-3e-5 -7.08528,-1.3339 -9.75036,-4.00162 -2.66531,-2.66776 -3.99791,-5.91661 -3.9978,-9.74655 l 0,-113.5025 c -1.1e-4,-1.50035 -0.66641,-2.25057 -1.99891,-2.25067 l -53.50494,0 c -1.33265,1e-4 -1.99895,0.75032 -1.9989,2.25067 l 0,90.99579 c -5e-5,3.6672 -1.25,6.7927 -3.74985,9.37652 -2.49994,2.58382 -5.58349,3.87573 -9.25064,3.87573 -3.66723,0 -6.79146,-1.29191 -9.37271,-3.87573 -2.58131,-2.58382 -3.87194,-5.70932 -3.87192,-9.37652 l 0,-101.99738 c -2e-5,-3.83492 1.4165,-7.16897 4.24957,-10.00214 2.83302,-2.83292 6.16452,-4.24944 9.99451,-4.24957 l 67.50488,0 c 1.3325,1.3e-4 1.9988,-0.66617 1.99891,-1.9989 z"
       id="path2839"
       style="font-size:250px;font-family:'Rounded M+ 1m medium';-inkscape-font-specification:'Rounded M+ 1m medium'" />
  </g>
  <g
     id="text2826"
     style="font-size:200px;font-style:normal;font-weight:normal;text-align:center;text-anchor:middle;fill:#000000;fill-opacity:1;stroke:none;font-family:'Rounded M+ 1m medium';-inkscape-font-specification:'Rounded M+ 1m medium'">
    <path
       d="m 428.22772,412.16138 c -18.26586,31.19716 -40.33208,58.92948 -66.19873,83.19702 -2.13218,1.86768 -4.56545,2.63469 -7.2998,2.30102 -2.73439,-0.33364 -4.834,-1.70083 -6.29883,-4.10156 -1.59913,-2.53091 -2.19931,-5.36294 -1.80054,-8.49609 0.39876,-3.13311 1.73136,-5.7678 3.9978,-7.90406 29.20325,-27.06699 51.27151,-54.46565 66.20484,-82.19604 0.26441,-0.26844 0.29696,-0.56955 0.0976,-0.90332 -0.19945,-0.33355 -0.49853,-0.50037 -0.89721,-0.50049 l -55.99976,0 c -2.53501,1.2e-4 -4.70277,-0.86658 -6.50329,-2.6001 -1.80055,-1.73328 -2.70082,-3.93257 -2.70081,-6.5979 -10e-6,-2.66507 0.90026,-4.89794 2.70081,-6.69861 1.80052,-1.8004 3.96828,-2.70067 6.50329,-2.7008 l 67.39502,0 c 1.07006,1.3e-4 1.60514,-0.53291 1.60523,-1.59912 l 0,-19.00025 c -9e-5,-2.9336 1.06599,-5.46757 3.19824,-7.60192 2.13207,-2.13404 4.66502,-3.20113 7.59888,-3.2013 2.93365,1.7e-4 5.46661,1.06726 7.59887,3.2013 2.13205,2.13435 3.19813,4.66832 3.19824,7.60192 l 0,19.00025 c -1.1e-4,1.06621 0.53497,1.59925 1.60523,1.59912 l 67.39502,0 c 2.53481,1.3e-4 4.70257,0.9004 6.50329,2.7008 1.80035,1.80067 2.70062,4.03354 2.70081,6.69861 -1.9e-4,2.66533 -0.90046,4.86462 -2.70081,6.5979 -1.80072,1.73352 -3.96848,2.60022 -6.50329,2.6001 l -55.99976,0 c -1.0662,1.2e-4 -1.33272,0.53316 -0.79956,1.59912 14.93313,27.86874 36.93425,55.13515 66.00342,81.79932 2.26625,2.13626 3.66599,4.77094 4.19922,7.90405 0.53285,3.13316 -0.0673,6.03233 -1.80054,8.69751 -1.46503,2.40073 -3.56464,3.76792 -6.29883,4.10156 -2.73455,0.33367 -5.16782,-0.43334 -7.2998,-2.30102 -25.86685,-24.26754 -47.93307,-51.99986 -66.19873,-83.19702 -0.13439,-0.13418 -0.30224,-0.20132 -0.50354,-0.20142 -0.20153,10e-5 -0.30224,0.13234 -0.30213,0.39673 l 0,62.00561 c -1.1e-4,1.06612 0.53497,1.59916 1.60523,1.59913 l 31.99463,0 c 2.53484,3e-5 4.70261,0.89928 6.50329,2.69775 1.80039,1.79853 2.70066,3.96528 2.70081,6.50024 -1.5e-4,2.53502 -0.90042,4.63564 -2.70081,6.30188 -1.80068,1.66628 -3.96845,2.49941 -6.50329,2.49939 l -31.99463,0 c -1.07026,2e-5 -1.60534,0.6002 -1.60523,1.80054 l 0,20.99609 c -1.1e-4,2.93375 -1.06619,5.46772 -3.19824,7.60193 -2.13226,2.13418 -4.66522,3.20128 -7.59887,3.2013 -2.93386,-2e-5 -5.46681,-1.06712 -7.59888,-3.2013 -2.13225,-2.13421 -3.19833,-4.66818 -3.19824,-7.60193 l 0,-20.99609 c -9e-5,-1.20034 -0.53517,-1.80052 -1.60523,-1.80054 l -31.99463,0 c -2.53504,2e-5 -4.70281,-0.83311 -6.50329,-2.49939 -1.80059,-1.66624 -2.70086,-3.76686 -2.70081,-6.30188 -5e-5,-2.53496 0.90022,-4.70171 2.70081,-6.50024 1.80048,-1.79847 3.96825,-2.69772 6.50329,-2.69775 l 31.99463,0 c 1.07006,3e-5 1.60514,-0.53301 1.60523,-1.59913 l 0,-62.00561 c -9e-5,-0.26439 -0.1008,-0.39663 -0.30213,-0.39673 -0.2015,10e-5 -0.36935,0.0672 -0.50354,0.20142 z"
       id="path2842" />
    <path
       d="m 675.43231,486.75854 0,2.80152 c -3e-5,2.93377 -1.03356,5.40061 -3.10058,7.40051 -2.06709,1.99993 -4.5675,2.99989 -7.50122,2.99988 -2.93378,1e-5 -5.43419,-0.99995 -7.50123,-2.99988 -2.06707,-1.9999 -3.1006,-4.46674 -3.10058,-7.40051 l 0,-127.20337 c -2e-5,-3.06382 1.1332,-5.69646 3.39966,-7.89795 2.26642,-2.20118 4.93365,-3.30185 8.00171,-3.302 l 77.39868,0 c 3.06793,1.5e-4 5.70159,1.10082 7.901,3.302 2.19919,2.20149 3.29883,4.83413 3.29895,7.89795 l 0,1.60522 c -1.2e-4,1.06623 0.60006,1.59927 1.80054,1.59913 l 66.60156,0 c 2.66501,1.4e-4 4.86431,0.86684 6.5979,2.60009 1.73321,1.73354 2.5999,3.93284 2.6001,6.5979 -2e-4,2.66534 -0.86689,4.86463 -2.6001,6.5979 -1.73359,1.73353 -3.93289,2.60022 -6.5979,2.6001 l -8.59986,0 c -1.06625,1.2e-4 -1.59929,0.6003 -1.59912,1.80054 l 0,108.80127 c -1.7e-4,7.33236 -0.20057,12.66581 -0.60119,16.00036 -0.40097,3.33455 -1.73459,6.13505 -4.00086,8.40149 -2.2666,2.26643 -5.03353,3.59903 -8.30078,3.99781 -3.26757,0.39874 -8.50031,0.59812 -15.69824,0.59814 -3.19838,-2e-5 -9.86545,-0.1994 -20.00122,-0.59814 -2.66532,-0.1343 -4.96431,-1.13425 -6.89697,-2.99988 -1.9329,-1.86565 -2.96643,-4.06495 -3.10059,-6.5979 -0.13439,-2.53296 0.66517,-4.66614 2.39868,-6.39954 1.73328,-1.73339 3.86748,-2.53499 6.40259,-2.40478 8.79707,0.40283 14.72968,0.60425 17.79785,0.60424 5.20005,10e-6 8.2335,-0.46691 9.10034,-1.40075 0.86655,-0.93384 1.2999,-4.00085 1.30005,-9.20105 l 0,-108.80127 c -1.5e-4,-1.20024 -0.53319,-1.80042 -1.59912,-1.80054 l -33.20312,0 c -1.20048,1.2e-4 -1.80066,0.6003 -1.80054,1.80054 l 0,100.20141 c -1.2e-4,2.7995 -0.93294,5.16563 -2.79846,7.09839 -1.86575,1.9328 -4.19831,2.89918 -6.99768,2.89917 l -0.60425,0 c -2.66531,10e-6 -4.93174,-0.93281 -6.79932,-2.79846 -1.86777,-1.86562 -2.80161,-4.06594 -2.80151,-6.60095 -10e-5,-0.93178 -0.466,-1.39768 -1.39771,-1.39771 l -55.79834,0 c -1.06611,3e-5 -1.59915,0.53307 -1.59912,1.59912 z m 58.79517,-20.39794 0,-38.59864 c -10e-5,-1.20027 -0.53314,-1.80045 -1.59912,-1.80053 l -16.59546,0 c -1.20044,8e-5 -1.80061,0.60026 -1.80054,1.80053 l 0,38.59864 c -7e-5,1.06612 0.6001,1.59916 1.80054,1.59912 l 16.59546,0 c 1.06598,4e-5 1.59902,-0.533 1.59912,-1.59912 z m -1.59912,-97.19849 -16.59546,0 c -1.20044,1.4e-4 -1.80061,0.53318 -1.80054,1.59912 l 0,36.59668 c -7e-5,1.20046 0.6001,1.80064 1.80054,1.80054 l 16.59546,0 c 1.06598,10e-5 1.59902,-0.60008 1.59912,-1.80054 l 0,-36.59668 c -10e-5,-1.06594 -0.53314,-1.59898 -1.59912,-1.59912 z m -57.19605,1.59912 0,36.59668 c -3e-5,1.20046 0.53301,1.80064 1.59912,1.80054 l 16.60157,0 c 1.2003,10e-5 1.80048,-0.60008 1.80053,-1.80054 l 0,-36.59668 c -5e-5,-1.06594 -0.60023,-1.59898 -1.80053,-1.59912 l -16.60157,0 c -1.06611,1.4e-4 -1.59915,0.53318 -1.59912,1.59912 z m 0,57.00073 0,38.59864 c -3e-5,1.06612 0.53301,1.59916 1.59912,1.59912 l 16.60157,0 c 1.2003,4e-5 1.80048,-0.533 1.80053,-1.59912 l 0,-38.59864 c -5e-5,-1.20027 -0.60023,-1.80045 -1.80053,-1.80053 l -16.60157,0 c -1.06611,8e-5 -1.59915,0.60026 -1.59912,1.80053 z"
       id="path2844" />
  </g>
</svg>
