<?xml version="1.0" encoding="UTF-8" standalone="no"?>
<!-- Created with Inkscape (http://www.inkscape.org/) -->

<svg
   xmlns:dc="http://purl.org/dc/elements/1.1/"
   xmlns:cc="http://creativecommons.org/ns#"
   xmlns:rdf="http://www.w3.org/1999/02/22-rdf-syntax-ns#"
   xmlns:svg="http://www.w3.org/2000/svg"
   xmlns="http://www.w3.org/2000/svg"
   xmlns:sodipodi="http://sodipodi.sourceforge.net/DTD/sodipodi-0.dtd"
   xmlns:inkscape="http://www.inkscape.org/namespaces/inkscape"
   version="1.1"
   width="434.75"
   height="487.96875"
   id="svg2"
   xml:space="preserve"
   inkscape:version="0.48.4 r9939"
   sodipodi:docname="AJAX1.svg"><sodipodi:namedview
     pagecolor="#ffffff"
     bordercolor="#666666"
     borderopacity="1"
     objecttolerance="10"
     gridtolerance="10"
     guidetolerance="10"
     inkscape:pageopacity="0"
     inkscape:pageshadow="2"
     inkscape:window-width="1280"
     inkscape:window-height="1004"
     id="namedview25"
     showgrid="false"
     inkscape:zoom="1.0334729"
     inkscape:cx="46.003756"
     inkscape:cy="228.28513"
     inkscape:window-x="-8"
     inkscape:window-y="-8"
     inkscape:window-maximized="1"
     inkscape:current-layer="g3818"
     fit-margin-top="0"
     fit-margin-left="0"
     fit-margin-right="0"
     fit-margin-bottom="0" /><metadata
     id="metadata8"><rdf:RDF><cc:Work
         rdf:about=""><dc:format>image/svg+xml</dc:format><dc:type
           rdf:resource="http://purl.org/dc/dcmitype/StillImage" /><dc:title /></cc:Work></rdf:RDF></metadata><defs
     id="defs6" /><g
     transform="matrix(1.25,0,0,-1.25,-80.878333,530.92715)"
     id="g10"><g
       transform="scale(0.1,0.1)"
       id="g12"><g
         id="g3033"
         transform="matrix(8,0,0,-8,437.32585,4042.8659)"><g
           id="g3818"
           transform="translate(26.212602,-25.584426)"><path
             style="fill:#0066b3;fill-opacity:1;fill-rule:nonzero;stroke:none"
             d="m 217.375,0.01550993 c 15.55512,0 22.73647,12.75861007 24.96875,16.65625007 l 185.75,317.15625 c 3.33071,6.66142 6.65625,17.74016 6.65625,25.5 l 0,104.25 c 0,13.32283 -11.08341,24.40625 -24.40625,24.40625 l -385.9375,0 C 11.08341,487.98426 -2.4999997e-7,476.90084 -2.4999997e-7,463.57801 l 0,-104.25 c 0,-7.75984 3.32554004999997,-18.83858 6.65625004999997,-25.5 L 192.40625,16.67176 C 194.63853,12.77412 201.81988,0.01550993 217.375,0.01550993 z"
             id="path3820"
             inkscape:connector-curvature="0"
             sodipodi:nodetypes="sccssssssccs" /><g
             id="g3930"
             transform="translate(10.536,10.511255)"><path
               style="fill:none;stroke:#ffffff;stroke-width:11;stroke-miterlimit:4;stroke-opacity:1;stroke-dasharray:none"
               d="m 206.839,5.566758 c -4.99606,0 -7.76304,3.31644 -11.09375,8.3125 L 9.4327498,332.75426 c -2.23229,3.86221 -3.90625,10.50836 -3.90625,14.9375 l 0,105.40625 c 0,4.42913 3.88337,8.3125 8.3125002,8.3125 l 386,0 c 4.42913,0 8.3125,-3.88337 8.3125,-8.3125 l 0,-105.40625 c 0,-4.42914 -1.67396,-11.07529 -3.90625,-14.9375 L 217.93275,13.879258 c -3.33071,-4.99606 -6.09769,-8.3125 -11.09375,-8.3125 z"
               id="path3932"
               inkscape:connector-curvature="0"
               sodipodi:nodetypes="sccssssssccs" /></g><g
             id="g4021"
             transform="translate(41.073297,211.75198)"
             style="fill:#ffffff;stroke:none"><path
               id="path4023"
               d="m 53.574802,66.543307 c -0.531496,2.76378 0.566929,4.996063 3.897638,4.996063 l 40.464566,0 c 1.098425,0 2.763784,-1.098425 3.330704,-2.763779 l 6.66142,-17.751969 c 1.09843,-2.763779 -0.56693,-4.996063 -3.33071,-4.996063 l -40.464563,0 c -1.665354,0 -3.330709,1.098425 -3.897638,2.76378 l -6.661417,17.751968"
               style="fill:#ffffff;fill-opacity:1;fill-rule:nonzero;stroke:none"
               inkscape:connector-curvature="0" /><path
               id="path4025"
               d="m 298.66535,66.543307 c 0.56693,2.76378 -0.5315,4.996063 -3.86221,4.996063 l -40.5,0 c -1.09842,0 -2.76378,-1.098425 -3.3307,-2.763779 l -6.62599,-17.751969 c -1.13386,-2.763779 0.5315,-4.996063 3.33071,-4.996063 l 40.46457,0 c 1.66535,0 3.3307,1.098425 3.89763,2.76378 l 6.62599,17.751968"
               style="fill:#ffffff;fill-opacity:1;fill-rule:nonzero;stroke:none"
               inkscape:connector-curvature="0" /><path
               id="path4027"
               d="m 348.59054,236.23228 c 3.33071,0 4.42914,-2.23228 3.86221,-4.99606 l -6.62599,-17.75197 c -0.56693,-1.66535 -2.23228,-2.76378 -3.89763,-2.76378 l -331.618107,0 c -1.6299208,0 -3.2952751,1.09843 -3.2952751,2.76378 l -6.6614172,17.75197 c -1.09842517,2.76378 0.53149605,4.99606 3.3307086,4.99606 l 344.9055007,0"
               style="fill:#ffffff;fill-opacity:1;fill-rule:nonzero;stroke:none"
               inkscape:connector-curvature="0" /><path
               id="path4029"
               d="m 156.72047,20.515748 -43.26378,0 c -0.5315,0 -0.5315,0.566929 -0.5315,0.566929 l 0,7.759843 c 0,0.566929 0,1.098425 0.5315,1.098425 l 11.09055,3.897638 1.66536,0 4.42913,13.854331 c -0.5315,0 -0.5315,0.566929 -1.09843,0.566929 L 105.69685,90.389764 C 97.40551,85.96063 88.511809,83.728347 78.519683,83.728347 c -31.039369,0 -56.55118,25.511813 -56.55118,56.586613 0,31.03937 25.511811,56.55118 56.55118,56.55118 29.409447,0 53.787397,-22.74803 56.586617,-51.59055 l 9.42519,0 c 1.66536,9.4252 9.4252,16.08662 18.8504,17.22047 l 0,8.85827 -3.89764,0 0,4.99606 12.7559,0 0,-4.99606 -3.8622,0 0,-8.85827 c 10.52362,-1.13385 19.38189,-10.55905 19.38189,-21.6496 0,-6.66142 -3.29528,-12.18898 -7.75984,-16.08662 l 44.3622,-68.208659 8.8937,36.070867 c -16.08661,9.956692 -26.07874,27.708662 -26.07874,47.692912 0,31.03937 24.94488,56.55118 56.55118,56.55118 31.0748,0 56.58661,-25.51181 56.58661,-56.55118 0,-31.0748 -25.51181,-56.586613 -56.58661,-56.586613 -8.29134,0 -16.61811,1.665354 -23.84646,4.996063 -5.52755,-22.712599 -13.2874,-55.452756 -14.38582,-58.783465 2.76378,-1.665354 7.75984,-4.429134 7.75984,-4.429134 6.09449,-2.19685 11.62205,-4.429134 11.62205,-12.188976 C 244.87795,6.0944882 238.78346,0 232.12204,0 l -34.37008,0 c -2.23228,0 -3.8622,2.2322835 -3.8622,3.8976378 0,2.1968504 1.62992,3.8622048 3.8622,3.8622048 l 34.37008,0 c 2.79921,0 4.99606,2.2322834 4.99606,5.5629924 0,2.19685 0,2.763779 -6.66141,5.527559 l -13.85433,6.661417 0.56693,3.330709 L 220.5,40.5 l -84.29528,0 -2.23228,-7.228346 1.66535,0 c 0.56693,0 15.55512,-5.527559 20.51575,-8.326772 1.66535,-1.098425 2.23228,-1.629921 2.23228,-2.76378 0,-1.098425 -1.66535,-1.665354 -1.66535,-1.665354 M 263.72834,187.44095 c -26.04331,0 -47.12598,-21.08268 -47.12598,-47.12599 0,-15.55512 7.22834,-29.40945 18.85039,-37.73622 l 3.33071,12.75591 22.74803,27.74409 c 1.66535,1.66536 3.8622,2.19685 5.52756,0.5315 0.56693,-0.5315 1.13386,-1.62992 1.13386,-2.76378 0,-0.5315 0,-1.66536 -0.56693,-2.19685 0,0 -21.08268,-25.51181 -22.1811,-26.64567 0,-0.5315 -1.09843,-5.52756 -3.33071,-13.854333 6.66141,-3.330709 13.85433,-4.996063 21.61417,-4.996063 26.07874,0 47.16142,21.082676 47.16142,47.161416 0,26.04331 -21.08268,47.12599 -47.16142,47.12599 m -89.2559,-66.54331 c -1.66536,-1.09843 -3.89764,-1.66536 -6.09449,-1.66536 l 0,-8.85826 3.8622,0 0,-4.99607 -12.7559,0 0,4.99607 3.89764,0 0,8.85826 c -1.09843,0 -2.76378,0.56693 -3.89764,0.56693 L 138.437,48.259843 l 83.72835,0 -47.69291,72.637797 z m -6.09449,9.99212 0,-4.99606 c 0.5315,0 1.66535,0.5315 2.76378,0.5315 l -2.76378,4.46456 z m 12.7559,9.9567 c 0,7.75984 -5.56299,13.85433 -12.7559,14.98819 l 0,-12.75591 8.29134,-12.7559 c 2.79921,2.76377 4.46456,6.09448 4.46456,10.52362 m -17.75196,-7.75985 -2.23229,-6.66141 c 1.13386,-0.5315 1.66536,-0.5315 2.23229,-0.5315 l 0,7.19291 z m 0,22.74804 c -5.563,-1.13386 -9.99213,-4.99607 -12.18898,-10.55906 l 10.52362,0 1.66536,0 0,10.55906 z m -8.8937,-25.51181 1.66535,5.52755 -4.96063,0 c 1.09843,-1.66535 2.19685,-3.8622 3.29528,-5.52755 m -9.9567,5.52755 -9.42519,0 c -1.13386,-16.05118 -9.4252,-30.47244 -21.64961,-40.464563 7.75984,-13.854331 16.08661,-27.744094 20.51575,-35.503937 l 18.85039,63.77953 c -4.42913,2.76378 -7.19291,7.22834 -8.29134,12.18897 m -54.354327,0 c 2.76378,-4.42913 9.992127,-17.71653 18.283467,-32.13779 9.46063,7.75984 16.08661,19.38189 17.22047,32.13779 l -35.503937,0 z m -11.65748,51.59056 c -26.043306,0 -47.125983,-21.08268 -47.125983,-47.12599 0,-26.07874 21.082677,-47.161416 47.125983,-47.161416 8.326772,0 15.555118,1.665354 22.181107,5.562992 L 77.988187,138.64961 c -1.133858,1.09842 -1.133858,3.33071 0,4.42913 0.531496,1.66536 2.196851,2.19685 3.862205,2.19685 l 43.830708,0 c -2.79921,23.84646 -22.74803,42.16536 -47.161417,42.16536"
               style="fill:#ffffff;fill-opacity:1;fill-rule:nonzero;stroke:none"
               inkscape:connector-curvature="0" /></g></g></g></g></g></svg>