<?xml version="1.0" encoding="UTF-8" standalone="no"?>
<!-- Created with Inkscape (http://www.inkscape.org/) -->

<svg
   xmlns:svg="http://www.w3.org/2000/svg"
   xmlns="http://www.w3.org/2000/svg"
   xmlns:xlink="http://www.w3.org/1999/xlink"
   version="1.1"
   width="1090.4"
   height="625.40002"
   id="svg2"
   xml:space="preserve"><defs
     id="defs6"><linearGradient
       id="linearGradient15703"><stop
         id="stop15705"
         style="stop-color:#ffffff;stop-opacity:1"
         offset="0" /></linearGradient><linearGradient
       x1="-37.125"
       y1="465.375"
       x2="967.87512"
       y2="465.375"
       id="linearGradient15707"
       xlink:href="#linearGradient15703"
       gradientUnits="userSpaceOnUse"
       gradientTransform="translate(961.6578,56.04101)" /></defs><g
     transform="matrix(34.167339,0,0,34.167339,44.9692,29.01028)"
     id="g2991" /><path
     d="M 86.8563,625.2 C 39.3245,625.2 0.2,586.0755 0.2,538.54375 l 0,-451.6875 C 0.2,39.32334 39.3258,0.2 86.8563,0.2 l 916.6874,0 c 47.5305,0 86.6563,39.12336 86.6563,86.65625 l 0,451.6875 c 0,47.53171 -39.1245,86.65625 -86.6563,86.65625 z"
     id="path3967"
     style="font-size:medium;font-style:normal;font-variant:normal;font-weight:normal;font-stretch:normal;text-indent:0;text-align:start;text-decoration:none;line-height:normal;letter-spacing:normal;word-spacing:normal;text-transform:none;direction:ltr;block-progression:tb;writing-mode:lr-tb;text-anchor:start;color:#000000;fill:#ffffff;fill-opacity:1;fill-rule:nonzero;stroke:none;stroke-width:60;marker:none;visibility:visible;display:inline;overflow:visible;enable-background:accumulate;font-family:Sans;-inkscape-font-specification:Sans" /><path
     d="M 86.8563,595.2 C 55.7378,595.2 30.2,569.66229 30.2,538.54375 l 0,-451.6875 C 30.2,55.73644 55.7386,30.2 86.8563,30.2 l 916.6874,0 c 31.1177,0 56.6563,25.53645 56.6563,56.65625 l 0,451.6875 c 0,31.11853 -25.5377,56.65625 -56.6563,56.65625 z"
     id="path4012"
     style="font-size:medium;font-style:normal;font-variant:normal;font-weight:normal;font-stretch:normal;text-indent:0;text-align:start;text-decoration:none;line-height:normal;letter-spacing:normal;word-spacing:normal;text-transform:none;direction:ltr;block-progression:tb;writing-mode:lr-tb;text-anchor:start;color:#000000;fill:#0066b3;fill-opacity:1;fill-rule:nonzero;stroke:none;stroke-width:30;marker:none;visibility:visible;display:inline;overflow:visible;enable-background:accumulate;font-family:Sans;-inkscape-font-specification:Sans" /><path
     d="m 1003.5332,580.2 c 23.012,0 41.6668,-18.6548 41.6668,-41.66676 l 0,-451.66688 c 0,-23.01392 -18.6548,-41.66674 -41.6668,-41.66674 l -916.6665,0 C 63.8548,45.19962 45.2,63.85244 45.2,86.86636 l 0,451.66688 C 45.2,561.5452 63.8548,580.2 86.8667,580.2 z"
     id="path4014"
     style="fill:#ffffff;fill-opacity:1;fill-rule:nonzero;stroke:none" /><g
     transform="matrix(1.3983708,0,0,1.3983708,-219.23539,-229.41398)"
     id="text3606"
     style="font-size:40px;font-style:normal;font-weight:normal;text-align:center;text-anchor:middle;fill:#0066b3;fill-opacity:1;stroke:#0066b3;stroke-width:4;stroke-miterlimit:4;stroke-opacity:1;font-family:IPAPGothic;-inkscape-font-specification:IPAPGothic"><path
       d="m 323.30841,467.13135 c 8.58394,6e-5 15.62983,2.75397 21.1377,8.26172 6.24017,6.26958 9.36028,14.73637 9.36035,25.40039 -7e-5,10.42971 -3.17878,18.77931 -9.53614,25.04883 -5.44927,5.44922 -12.43656,8.17382 -20.96191,8.17382 -8.46682,0 -15.42482,-2.7246 -20.87402,-8.17382 -6.35743,-6.26952 -9.53614,-14.73631 -9.53614,-25.4004 0,-10.42964 3.12011,-18.77924 9.36036,-25.04882 5.50779,-5.50775 12.52438,-8.26166 21.0498,-8.26172 z m 0,6.5039 c -5.50784,6e-5 -10.23928,1.9776 -14.19434,5.93262 -5.03907,5.03911 -7.5586,12.04106 -7.55859,21.00586 -10e-6,8.96487 2.51952,15.92287 7.55859,20.87402 3.89646,3.8965 8.6279,5.84474 14.19434,5.84473 5.53707,1e-5 10.29781,-1.94823 14.28223,-5.84473 5.039,-5.03904 7.55853,-12.12888 7.55859,-21.26953 -6e-5,-8.64253 -2.54888,-15.51264 -7.64648,-20.61035 -3.86724,-3.95502 -8.59868,-5.93256 -14.19434,-5.93262 z"
       id="path3618"
       style="font-size:90px;fill:#0066b3;stroke:#0066b3" /><path
       d="m 406.10138,532.69775 -7.73438,0 0,-27.81738 c -3e-5,-7.61715 -3.14945,-11.42574 -9.44824,-11.42578 -6.35744,4e-5 -11.01564,3.80863 -13.97461,11.42578 l 0,27.81738 -7.73437,0 0,-44.82421 7.20703,0 0,8.08593 c 4.21873,-5.97652 9.5947,-8.96479 16.12793,-8.96484 10.37105,5e-5 15.55659,5.81547 15.55664,17.44629 z"
       id="path3620"
       style="font-size:90px;fill:#0066b3;stroke:#0066b3" /><path
       d="m 445.03693,497.76123 c -2.78324,-3.60348 -6.29886,-5.40523 -10.54688,-5.40527 -5.56642,4e-5 -8.34962,2.13871 -8.34961,6.41601 -1e-5,3.01761 3.00292,5.50784 9.00879,7.47071 l 2.94434,0.96679 c 8.52535,2.78323 12.78805,7.38283 12.78808,13.79883 -3e-5,4.30665 -1.77249,7.69044 -5.31738,10.15137 -2.81253,1.9043 -6.44534,2.85644 -10.89844,2.85644 -6.85548,0 -12.6709,-2.50488 -17.44629,-7.51465 l 4.87793,-4.43847 c 3.6914,3.95508 7.96874,5.93262 12.83203,5.93262 5.77146,0 8.6572,-2.24121 8.65723,-6.72364 -3e-5,-3.39842 -3.17874,-6.22556 -9.53613,-8.48144 l -3.07617,-1.05469 c -8.02736,-2.81248 -12.04102,-6.92868 -12.04102,-12.34863 0,-3.4277 1.17187,-6.31344 3.51563,-8.65723 2.81248,-2.81245 6.67967,-4.2187 11.60156,-4.21875 6.59177,5e-5 11.99704,2.2852 16.21582,6.85547 z"
       id="path3622"
       style="font-size:90px;fill:#0066b3;stroke:#0066b3" /><path
       d="m 467.40509,511.16455 c 0.26366,5.18556 1.88963,9.27247 4.87793,12.26074 3.04685,3.04689 6.73826,4.57032 11.07422,4.57032 5.71286,0 10.23922,-2.66601 13.5791,-7.99805 l 5.05371,3.33984 c -4.24809,7.11915 -10.76664,10.67871 -19.55566,10.67871 -6.65041,0 -12.11428,-2.12402 -16.3916,-6.37207 -4.30665,-4.33592 -6.45997,-10.04881 -6.45997,-17.13867 0,-7.52927 2.25586,-13.54977 6.76758,-18.06152 4.01366,-4.01363 9.02342,-6.02046 15.0293,-6.02051 5.65426,5e-5 10.38571,1.8604 14.19434,5.58105 4.27729,4.33598 6.41596,10.12211 6.41601,17.3584 l 0,1.80176 z m 26.63086,-5.66894 c -0.43949,-4.07224 -1.87504,-7.28024 -4.30664,-9.62403 -2.40238,-2.4023 -5.24417,-3.60347 -8.52539,-3.60351 -3.80862,4e-5 -7.06057,1.62601 -9.75586,4.87793 -1.84572,2.1973 -3.04689,4.9805 -3.60352,8.34961 z"
       id="path3624"
       style="font-size:90px;fill:#0066b3;stroke:#0066b3" /><path
       d="m 553.23029,532.69775 -7.73438,0 0,-27.81738 c -4e-5,-7.61715 -3.14945,-11.42574 -9.44824,-11.42578 -6.35745,4e-5 -11.01565,3.80863 -13.97461,11.42578 l 0,27.81738 -7.73438,0 0,-44.82421 7.20704,0 0,8.08593 c 4.21873,-5.97652 9.5947,-8.96479 16.12793,-8.96484 10.37105,5e-5 15.55659,5.81547 15.55664,17.44629 z"
       id="path3626"
       style="font-size:90px;fill:#0066b3;stroke:#0066b3" /><path
       d="m 639.3631,475.34912 -23.77442,0 0,57.34863 -7.99804,0 0,-57.34863 -23.02735,0 0,-6.94336 54.79981,0 z"
       id="path3628"
       style="font-size:90px;fill:#0066b3;stroke:#0066b3" /><path
       d="m 665.95001,486.59912 c 6.32809,5e-5 11.66012,2.12407 15.9961,6.37207 4.45307,4.45316 6.67963,10.31253 6.67968,17.57813 -5e-5,7.00197 -2.18266,12.7002 -6.54785,17.09472 -4.27738,4.24805 -9.65335,6.37207 -16.12793,6.37207 -6.47463,0 -11.80665,-2.09472 -15.99609,-6.28418 -4.39454,-4.39452 -6.5918,-10.20994 -6.5918,-17.44629 0,-7.08981 2.22656,-12.86129 6.67969,-17.31445 4.24803,-4.248 9.55076,-6.37202 15.9082,-6.37207 z m 0,5.93262 c -3.75002,4e-5 -6.92873,1.34769 -9.53613,4.04297 -3.31056,3.31058 -4.96583,7.91018 -4.96582,13.79883 -1e-5,5.80079 1.62596,10.32716 4.87793,13.5791 2.6367,2.63672 5.8447,3.95508 9.62402,3.95507 3.86716,1e-5 7.10446,-1.34764 9.71192,-4.04296 3.25191,-3.25194 4.87788,-7.85155 4.87793,-13.79883 -5e-5,-5.59568 -1.65532,-10.09274 -4.96582,-13.49121 -2.69535,-2.69528 -5.90336,-4.04293 -9.62403,-4.04297 z"
       id="path3630"
       style="font-size:90px;fill:#0066b3;stroke:#0066b3" /><path
       d="m 760.38849,487.87354 -15.55664,45.61523 -5.40528,0 -9.44824,-26.89453 c -0.93753,-2.66599 -1.86038,-5.96188 -2.76855,-9.8877 l -0.26367,0 c -0.67387,2.84183 -1.64066,6.13773 -2.90039,9.8877 l -9.18457,26.89453 -5.40528,0 -15.55664,-45.61523 8.08594,0 7.55859,24.74121 c 0.46874,1.49416 1.43553,4.95118 2.90039,10.37109 l 0.26367,0 c 0.87889,-3.48631 1.87498,-6.94334 2.98829,-10.37109 l 8.08593,-24.74121 6.85547,0 8.4375,24.74121 c 0.84956,2.31447 1.84566,5.7715 2.98828,10.37109 l 0.26368,0 c 0.96674,-4.04295 1.88959,-7.49998 2.76855,-10.37109 l 7.4707,-24.74121 z"
       id="path3632"
       style="font-size:90px;fill:#0066b3;stroke:#0066b3" /><path
       d="m 807.76154,532.69775 -7.73438,0 0,-27.81738 c -4e-5,-7.61715 -3.14945,-11.42574 -9.44824,-11.42578 -6.35745,4e-5 -11.01565,3.80863 -13.97461,11.42578 l 0,27.81738 -7.73438,0 0,-44.82421 7.20704,0 0,8.08593 c 4.21873,-5.97652 9.5947,-8.96479 16.12793,-8.96484 10.37105,5e-5 15.55659,5.81547 15.55664,17.44629 z"
       id="path3634"
       style="font-size:90px;fill:#0066b3;stroke:#0066b3" /></g><g
     transform="translate(0,-40)"
     id="text2835"
     style="font-size:300px;font-style:normal;font-weight:normal;text-align:center;text-anchor:middle;fill:#0066b3;fill-opacity:1;stroke:none;font-family:'Rounded M+ 1m medium';-inkscape-font-specification:'Rounded M+ 1m medium'"><path
       d="m 184.40314,188.25067 c -2.60018,2.99701 -5.8503,4.64649 -9.75037,4.94843 -3.90021,0.3023 -7.35175,-0.84668 -10.35461,-3.44696 -7.00079,-6.20098 -16.10112,-13.7022 -27.30103,-22.50367 -2.99686,-2.39847 -4.74551,-5.54788 -5.24597,-9.44824 -0.50052,-3.89992 0.54929,-7.35146 3.14941,-10.35461 2.60007,-3.19801 5.90054,-4.99702 9.90143,-5.39704 4.00081,-0.39954 7.60035,0.59991 10.79865,2.99836 13.00042,10.2053 22.10075,17.6058 27.30102,22.20153 3.19816,2.60031 4.89799,5.95114 5.09949,10.05249 0.20133,4.10176 -0.99801,7.75166 -3.59802,10.94971 z m -11.10535,70.49561 c -2.60017,3.00304 -5.85028,4.65404 -9.75037,4.953 -3.9002,0.29919 -7.34868,-0.85133 -10.34545,-3.45154 -12.6038,-11.19982 -23.50467,-20.30015 -32.70264,-27.30102 -2.99684,-2.39854 -4.69667,-5.4976 -5.09949,-9.29718 -0.40284,-3.79929 0.59813,-7.20047 3.00293,-10.20356 2.60008,-2.99666 5.8502,-4.74531 9.75037,-5.24597 3.90011,-0.50032 7.4493,0.44878 10.64758,2.84729 10.40034,7.59904 21.30121,16.50101 32.70264,26.70593 3.19817,2.79555 4.94682,6.19368 5.24597,10.1944 0.299,4.00098 -0.85152,7.60053 -3.45154,10.79865 z m 0.60425,40.50293 c 3.79631,1.59919 6.59477,4.24964 8.39538,7.95135 1.80046,3.70185 2.00188,7.45093 0.60425,11.24725 -9.00275,25.40287 -19.80291,48.70302 -32.40051,69.90052 -2.20342,3.60106 -5.40471,5.80137 -9.60388,6.60095 -4.19926,0.79954 -8.09787,-2e-5 -11.69586,-2.39868 -3.59805,-2.3987 -5.79836,-5.64882 -6.60096,-9.75037 -0.80263,-4.10156 -0.10225,-7.95288 2.10114,-11.55395 12.20089,-20.19651 22.50056,-41.49471 30.89905,-63.89466 1.39765,-3.601 3.89703,-6.20109 7.49817,-7.80029 3.60101,-1.59904 7.20208,-1.69975 10.80322,-0.30212 z m 194.10095,-140.69825 0,83.69751 c -2.6e-4,4.60219 -1.70009,8.60304 -5.09949,12.00257 -3.39991,3.39978 -7.40076,5.0996 -12.00256,5.09948 l -109.79919,0 -13.50403,0 c -4.59607,1.2e-4 -8.5954,-1.6997 -11.99799,-5.09948 -3.40282,-3.39953 -5.10417,-7.40038 -5.10406,-12.00257 l 0,-83.69751 c -1.1e-4,-4.60182 1.70124,-8.60267 5.10406,-12.00256 3.40259,-3.39942 7.40192,-5.09925 11.99799,-5.09949 l 123.30322,0 c 4.6018,2.4e-4 8.60265,1.70007 12.00256,5.09949 3.3994,3.39989 5.09923,7.40074 5.09949,12.00256 z m -31.5033,75 0,-19.1986 c -2.3e-4,-1.59896 -0.79979,-2.39852 -2.39868,-2.39869 l -90.29846,0 c -1.80068,1.7e-4 -2.70094,0.79973 -2.7008,2.39869 l 0,19.1986 c -1.4e-4,1.59927 0.90012,2.39883 2.7008,2.39869 l 90.29846,0 c 1.59889,1.4e-4 2.39845,-0.79942 2.39868,-2.39869 z m 0,-46.80175 0,-17.39502 c -2.3e-4,-1.60502 -0.79979,-2.40763 -2.39868,-2.40784 l -90.29846,0 c -1.80068,2.1e-4 -2.70094,0.80282 -2.7008,2.40784 l 0,17.39502 c -1.4e-4,1.80072 0.90012,2.70099 2.7008,2.7008 l 90.29846,0 c 1.59889,1.9e-4 2.39845,-0.90008 2.39868,-2.7008 z m 42.0044,105.30395 0,75.89722 c -2.8e-4,1.59913 0.69858,2.39869 2.09656,2.39868 l 1.19934,0 c 3.60079,10e-6 6.70137,1.2497 9.30176,3.74908 2.5998,2.49939 3.89985,5.54962 3.90014,9.1507 -2.9e-4,3.60106 -1.30034,6.70165 -3.90014,9.30176 -2.60039,2.60008 -5.70097,3.90013 -9.30176,3.90014 l -194.10095,0 c -3.60116,-10e-6 -6.70174,-1.30006 -9.30176,-3.90014 -2.60017,-2.60011 -3.90022,-5.7007 -3.90015,-9.30176 -7e-5,-3.60108 1.29998,-6.65131 3.90015,-9.1507 2.60002,-2.49938 5.7006,-3.74907 9.30176,-3.74908 l 5.40161,0 c 1.59903,10e-6 2.39859,-0.90026 2.39868,-2.70081 l 0,-75.59509 c -9e-5,-4.60196 1.69973,-8.60281 5.09949,-12.00256 3.39955,-3.39956 7.4004,-5.09939 12.00256,-5.09949 l 148.80066,0 c 4.59568,10e-5 8.59501,1.69993 11.99798,5.09949 3.40244,3.39975 5.10379,7.4006 5.10407,12.00256 z m -150.60425,78.2959 18.30139,0 c 1.80039,10e-6 2.70066,-0.90026 2.70081,-2.70081 l 0,-66.30249 c -1.5e-4,-1.59904 -0.90042,-2.3986 -2.70081,-2.39868 l -18.30139,0 c -1.59924,8e-5 -2.3988,0.79964 -2.39868,2.39868 l 0,66.30249 c -1.2e-4,1.80055 0.79944,2.70082 2.39868,2.70081 z m 49.80469,0 17.99927,0 c 1.59892,10e-6 2.39848,-0.90026 2.39868,-2.70081 l 0,-66.30249 c -2e-4,-1.59904 -0.79976,-2.3986 -2.39868,-2.39868 l -17.99927,0 c -1.80071,8e-5 -2.70098,0.79964 -2.70081,2.39868 l 0,66.30249 c -1.7e-4,1.80055 0.9001,2.70082 2.70081,2.70081 z m 70.19348,-2.70081 0,-66.30249 c -2.5e-4,-1.59904 -0.90051,-2.3986 -2.70081,-2.39868 l -18.30139,0 c -1.59934,8e-5 -2.3989,0.79964 -2.39868,2.39868 l 0,66.30249 c -2.2e-4,1.80055 0.79934,2.70082 2.39868,2.70081 l 18.30139,0 c 1.8003,10e-6 2.70056,-0.90026 2.70081,-2.70081 z"
       id="path2840"
       style="fill:#0066b3;fill-opacity:1" /><path
       d="m 518.29596,323.84943 c -16.59556,23.79763 -42.59346,44.99817 -77.99377,63.60168 -3.80253,2.00194 -7.75303,2.40172 -11.85151,1.19934 -4.09853,-1.2024 -7.24947,-3.60108 -9.45282,-7.19604 -2.19728,-3.20435 -2.74659,-6.70624 -1.64795,-10.50568 1.09862,-3.79943 3.44847,-6.59941 7.04957,-8.39996 29.60199,-14.39817 51.60209,-30.1971 66.00036,-47.39685 0.79947,-1.20233 0.5004,-1.80353 -0.89722,-1.80359 l -56.6986,0 c -3.39969,6e-5 -6.30038,-1.24963 -8.70209,-3.74909 -2.40175,-2.49932 -3.60262,-5.44884 -3.6026,-8.84857 -2e-5,-3.39958 1.20085,-6.30027 3.6026,-8.70209 2.40171,-2.40164 5.3024,-3.60251 8.70209,-3.6026 l 79.49524,0 c 3.39954,9e-5 6.34906,1.20096 8.84857,3.6026 2.49927,2.40182 3.74896,5.30251 3.74908,8.70209 -1.2e-4,9.39948 -2.20044,17.09906 -6.60095,23.09876 z m 159.60388,-21.89942 c -15.0027,13.00055 -29.10181,23.5993 -42.29736,31.79627 -1.40404,0.7996 -1.50475,1.80058 -0.30213,3.00293 13.79981,10.99856 29.0006,20.89845 45.60242,29.6997 3.39938,2.00197 5.59817,4.90266 6.59638,8.70209 0.99763,3.79944 0.49867,7.39898 -1.49689,10.79865 -2.20365,3.60106 -5.40494,5.90208 -9.60388,6.90307 -4.19949,1.00096 -8.20034,0.50047 -12.00257,-1.50146 -36.20017,-20.59936 -66.19892,-46.70102 -89.99633,-78.30506 -0.20159,-0.39666 -0.50219,-0.54467 -0.9018,-0.44403 -0.39995,0.10078 -0.59984,0.34949 -0.59967,0.74616 l 0,44.10095 c -1.7e-4,19.59839 -2.29967,31.74742 -6.8985,36.44714 -4.59916,4.69969 -16.29806,7.04954 -35.09674,7.04956 -6.40271,-2e-5 -16.10424,-0.29909 -29.10461,-0.89721 -3.9979,-0.20144 -7.39756,-1.70138 -10.19898,-4.49982 -2.8016,-2.79848 -4.30154,-6.09742 -4.49981,-9.89685 -0.19845,-3.79944 1.05277,-6.99921 3.75366,-9.5993 2.70071,-2.6001 5.9493,-3.80249 9.74579,-3.60718 10.99842,0.60425 19.29919,0.90637 24.90234,0.90637 7.39733,0 11.74608,-0.75073 13.04626,-2.2522 1.29992,-1.50146 1.94994,-6.05162 1.95008,-13.65051 l 0,-81.29883 c -1.4e-4,-1.80043 -0.7997,-2.7007 -2.39868,-2.7008 l -60.59876,0 -15.29846,0 c -4.60211,10e-5 -8.60296,-1.69973 -12.00256,-5.09949 -3.39971,-3.39955 -5.09953,-7.4004 -5.09949,-12.00256 l 0,-85.19898 c -4e-5,-4.60184 1.69978,-8.55234 5.09949,-11.8515 3.3996,-3.29873 7.40045,-4.9482 12.00256,-4.94843 l 63.60168,0 c 1.80042,2.3e-4 2.89905,-0.90004 3.2959,-2.7008 0.20129,-1.00075 0.55224,-2.3008 1.05286,-3.90015 0.50036,-1.59889 0.84826,-2.89894 1.0437,-3.90014 1.20226,-4.59571 3.75353,-8.3448 7.65381,-11.24726 3.9,-2.90197 8.24876,-4.25237 13.04626,-4.05121 4.40048,0.20167 7.80166,2.05256 10.20356,5.55268 2.40157,3.5006 3.10194,7.35039 2.10113,11.54937 -0.20158,0.59838 -0.45182,1.59783 -0.75073,2.99836 -0.29923,1.40098 -0.54948,2.40043 -0.75073,2.99835 -0.39689,1.80076 0.2043,2.70103 1.80358,2.7008 l 78.2959,0 c 4.60181,2.3e-4 8.60266,1.6497 12.00257,4.94843 3.3994,3.29916 5.09923,7.24966 5.09948,11.8515 l 0,85.19898 c -2.5e-4,4.60216 -1.70008,8.60301 -5.09948,12.00256 -3.39991,3.39976 -7.40076,5.09959 -12.00257,5.09949 l -63.29956,0 c -0.59832,10e-5 -1.04693,0.25034 -1.34582,0.75073 -0.29925,0.50059 -0.25042,0.9492 0.14648,1.34582 8.00153,12.80527 18.3012,25.50667 30.89905,38.10425 1.4036,1.39777 2.80436,1.59613 4.20227,0.59509 14.19655,-8.79509 28.99756,-19.69291 44.40308,-32.69348 2.99656,-2.6 6.4954,-3.80086 10.49652,-3.6026 4.00058,0.19847 7.40176,1.6984 10.20355,4.49982 2.79513,2.60019 4.14401,5.85031 4.04663,9.75037 -0.0979,3.90022 -1.64823,7.15034 -4.65088,9.75036 z m -200.39978,-119.69604 0,16.4978 c -7e-5,1.80071 0.79949,2.70098 2.39868,2.70081 l 145.20264,0 c 1.5989,1.7e-4 2.39846,-0.9001 2.39868,-2.70081 l 0,-16.4978 c -2.2e-4,-1.80034 -0.79978,-2.70061 -2.39868,-2.70081 l -145.20264,0 c -1.59919,2e-4 -2.39875,0.90047 -2.39868,2.70081 z m 2.39868,67.1997 145.20264,0 c 1.5989,1.3e-4 2.39846,-0.90014 2.39868,-2.7008 l 0,-17.99927 c -2.2e-4,-1.60507 -0.79978,-2.40769 -2.39868,-2.40784 l -145.20264,0 c -1.59919,1.5e-4 -2.39875,0.80277 -2.39868,2.40784 l 0,17.99927 c -7e-5,1.80066 0.79949,2.70093 2.39868,2.7008 z"
       id="path2842"
       style="fill:#0066b3;fill-opacity:1" /><path
       d="m 755.90277,345.74884 0,4.20227 c -5e-5,4.40066 -1.55034,8.10091 -4.65088,11.10077 -3.10063,2.99989 -6.85124,4.49983 -11.25183,4.49982 -4.40067,1e-5 -8.15127,-1.49993 -11.25183,-4.49982 -3.10061,-2.99986 -4.6509,-6.70011 -4.65088,-11.10077 l 0,-190.80505 c -2e-5,-4.59573 1.69981,-8.5447 5.09949,-11.84693 3.39963,-3.30177 7.40048,-4.95277 12.00256,-4.953 l 116.09802,0 c 4.6019,2.3e-4 8.55239,1.65123 11.85151,4.953 3.29878,3.30223 4.94825,7.2512 4.94842,11.84693 l 0,2.40783 c -1.7e-4,1.59934 0.9001,2.3989 2.70081,2.39869 l 99.90234,0 c 3.99753,2.1e-4 7.29647,1.30026 9.89685,3.90014 2.59981,2.60031 3.89986,5.89925 3.90015,9.89685 -2.9e-4,3.998 -1.30034,7.29695 -3.90015,9.89685 -2.60038,2.60029 -5.89932,3.90034 -9.89685,3.90015 l -12.89978,0 c -1.59938,1.9e-4 -2.39894,0.90045 -2.39868,2.70081 l 0,163.2019 c -2.6e-4,10.99854 -0.30086,18.99872 -0.9018,24.00055 -0.60145,5.00182 -2.60187,9.20256 -6.00128,12.60223 -3.3999,3.39964 -7.55029,5.39854 -12.45117,5.99671 -4.90136,0.59812 -12.75047,0.89719 -23.54736,0.89721 -4.79758,-2e-5 -14.79818,-0.29909 -30.00183,-0.89721 -3.99799,-0.20144 -7.44647,-1.70138 -10.34546,-4.49982 -2.89935,-2.79848 -4.44964,-6.09742 -4.65088,-9.89685 -0.20159,-3.79944 0.99775,-6.99921 3.59802,-9.5993 2.59992,-2.6001 5.80121,-3.80249 9.60388,-3.60718 13.19561,0.60425 22.09452,0.90637 26.69678,0.90637 7.80007,0 12.35024,-0.70037 13.65051,-2.10114 1.29983,-1.40075 1.94985,-6.00127 1.95008,-13.80157 l 0,-163.2019 c -2.3e-4,-1.80036 -0.79979,-2.70062 -2.39869,-2.70081 l -49.80468,0 c -1.80071,1.9e-4 -2.70098,0.90045 -2.70081,2.70081 l 0,150.30212 c -1.7e-4,4.19925 -1.3994,7.74844 -4.19769,10.64758 -2.79863,2.89919 -6.29747,4.34877 -10.49652,4.34876 l -0.90637,0 c -3.99796,10e-6 -7.39761,-1.39921 -10.19898,-4.1977 -2.80166,-2.79843 -4.20241,-6.09891 -4.20227,-9.90142 -1.4e-4,-1.39768 -0.69899,-2.09653 -2.09656,-2.09656 l -83.69751,0 c -1.59917,3e-5 -2.39873,0.79959 -2.39868,2.39868 z m 88.19275,-30.59692 0,-57.89795 c -1.4e-4,-1.80042 -0.7997,-2.70069 -2.39868,-2.70081 l -24.89319,0 c -1.80065,1.2e-4 -2.70092,0.90039 -2.70081,2.70081 l 0,57.89795 c -1.1e-4,1.59918 0.90016,2.39874 2.70081,2.39868 l 24.89319,0 c 1.59898,6e-5 2.39854,-0.7995 2.39868,-2.39868 z m -2.39868,-145.79773 -24.89319,0 c -1.80065,2e-4 -2.70092,0.79976 -2.70081,2.39868 l 0,54.89502 c -1.1e-4,1.80068 0.90016,2.70095 2.70081,2.7008 l 24.89319,0 c 1.59898,1.5e-4 2.39854,-0.90012 2.39868,-2.7008 l 0,-54.89502 c -1.4e-4,-1.59892 -0.7997,-2.39848 -2.39868,-2.39868 z m -85.79407,2.39868 0,54.89502 c -5e-5,1.80068 0.79951,2.70095 2.39868,2.7008 l 24.90235,0 c 1.80045,1.5e-4 2.70072,-0.90012 2.7008,-2.7008 l 0,-54.89502 c -8e-5,-1.59892 -0.90035,-2.39848 -2.7008,-2.39868 l -24.90235,0 c -1.59917,2e-4 -2.39873,0.79976 -2.39868,2.39868 z m 0,85.5011 0,57.89795 c -5e-5,1.59918 0.79951,2.39874 2.39868,2.39868 l 24.90235,0 c 1.80045,6e-5 2.70072,-0.7995 2.7008,-2.39868 l 0,-57.89795 c -8e-5,-1.80042 -0.90035,-2.70069 -2.7008,-2.70081 l -24.90235,0 c -1.59917,1.2e-4 -2.39873,0.90039 -2.39868,2.70081 z"
       id="path2844"
       style="fill:#0066b3;fill-opacity:1" /></g></svg>