<?xml version="1.0" encoding="UTF-8" standalone="no"?>
<!DOCTYPE svg PUBLIC "-//W3C//DTD SVG 1.1//EN" "http://www.w3.org/Graphics/SVG/1.1/DTD/svg11.dtd">
<svg height="500.34" width="500.34" xmlns="http://www.w3.org/2000/svg">
<path d="m496.89 242.34c4.332 4.332 4.332 11.339 0 15.671l-238.88 238.88c-4.332 4.332-11.339 4.332-15.671 0l-238.89-238.88c-4.332-4.332-4.332-11.339-0.00001-15.671l238.89-238.89c4.332-4.3319 11.339-4.3319 15.671 0.00001z" fill="#fcdc0f"/>
<path d="m250.17 12.232-237.94 237.94 237.94 237.94 237.94-237.94zm16.734 30.875 190.33 190.33c9.2596 9.2596 9.2596 24.209 0.00001 33.469l-190.32 190.33c-9.2596 9.2596-24.209 9.2596-33.469 0l-190.33-190.33c-9.2596-9.2596-9.2596-24.209 0-33.469l190.33-190.33c9.2596-9.2597 24.209-9.2596 33.469 0.00002z"/>
<path d="m283.96 273.59c0 3.4357-0.59313 6.8713-2.9653 8.9164-1.1861 0.65437-2.9653 0-3.5788-1.3702 0-3.4357-1.4929-8.3029 1.7996-9.5912 1.7792-0.69537 4.1514-0.69537 4.7445 2.045m-35.85 73.949c-1.9223-10.512-0.28638-14.765-2.3927-24.643-1.0634-5.0922-2.0655-10.225-3.2925-15.297-0.71575-2.904-1.6974-5.9715-1.1248-8.9368 0.49075-2.7404 2.1268-0.85888 2.495-3.497 0.409-2.454 1.1044-8.5074-0.51125-10.512-2.9858-3.722-3.6197-8.9777-5.6648-13.191-1.6156-3.3334-3.7833-6.0738-5.0308-9.5708-0.96112-2.8017-3.4766-4.6627-4.1514-7.6689-0.818-3.5379-0.32725-7.1781-0.32725-10.757 0-0.75663 0.79763-1.5338 1.5747-0.75663 5.1126 2.4132 7.7712 6.0329 11.8 9.0596 0.77713 0 1.0225 2.1882 1.7996 2.1882 3.1903 2.9858 8.037 4.4786 12.004 7.4849 0.818 0.73625 2.4132 2.2495 4.0287 4.4991 3.1903 5.992-0.77712 12.004 2.3927 17.976 1.5951 2.2496 2.4541 8.6096 0.85888 10.88-0.77713 0.73625-1.6156 2.2496-3.1903 2.9653-1.6769 0.818-2.9653 5.0922-3.3948 6.7078-0.6135 2.5563-1.2884 6.6259-1.0225 9.2231 0.44988 4.1514 6.994 8.2006 10.266 9.898 1.6156 0.818 5.5216 1.2066 10.184 0.0625 0 0.225 5.5216-0.94075 5.5216-0.02 3.4357 7.2394-3.0471 14.867-4.1514 21.943-0.71575 4.5809-0.24537 9.3868-0.94075 13.947-0.57262 3.3334-3.5379 8.9573-1.3497 12.025 0 0 1.3702 2.1473 2.1677 2.1473-0.7975 1.5133-0.85888 3.1085-0.77713 2.5768 0 0-5.8897 0.75662-5.8897 0-2.3927-3.722-2.2904-6.0942-4.6832-6.8509-3.9878-1.4741-7.3417-0.0838-9.7548-2.3125-3.2107-2.2904-6.6055-15.133-7.444-19.571m-57.793-16.34c0.16362-0.16362 0.32725-0.34762 0.51125-0.55212 1.9223-2.3314 3.313-4.5604 6.0738-10.062 2.7404-5.4807-0.73625 0.69538-0.96112 1.2066 1.6974-3.4766 3.7629-6.6668 5.7057-9.898 1.5747-2.5768 2.6177-8.3029 5.6034-7.2804 6.8918 2.3722 11.923 4.6422 13.702 7.8121 2.495 4.5195 2.5972 8.3438 3.4766 13.293 0.77713 4.4173 0.75663 9.489 2.2291 13.661 2.3722 6.585 4.8263 13.129 7.6076 19.571 2.4132 5.5216 2.4132 11.8 0.818 17.322h-42.762c-1.7996-5.6443-9.8571-6.9327-13.784-11.657-5.7875-5.7261-3.0267-12.413 1.0225-18.446 3.3948-5.0922 6.8714-10.246 10.757-14.97m-49.081 45.073 10.675 9.8367h194.34l10.777-9.8367c-11.739 0-11.145-5.133-12.659-6.81-1.6769-1.861-5.2762-1.861-7.4848-2.7813-3.1698-1.3293-7.035-3.1289-7.5871-6.9531-1.3497-9.4072-0.0813-8.7323-0.28625-21.105-0.0213-1.8201 1.4929-11.943 1.1248-13.743-0.89988-4.0696-1.2475-5.9306 2.27-8.6301 2.2496-1.8405 5.0513-3.2925 4.6014-6.6873-0.53175-4.131-5.174-8.8346-7.3212-12.188-1.5542-2.4336-3.6606-4.8672-4.131-7.7916-0.24538-1.9019-3.1698-9.5912-0.75663-10.777 4.7445 4.1923 6.5237 5.9102 11.268 7.7712 1.227 0.44988 10.143 2.4132 10.143 3.5788 0 2.5768 5.8079 5.3989 7.8325 6.1556 2.27 0.89988 4.9694-1.043 7.0554-2.3109 1.861-1.2066 4.54-5.2353 1.3702-7.9961-4.7445-4.1719-8.4256-11.698-14.438-13.906-3.313-1.1452-6.585-2.9858-9.5504-4.8058-3.0062-1.8814-5.174-4.724-8.262-6.5237-3.3743-1.9224-4.9694-3.9265-6.6668-7.4849-1.861-3.8856-4.1105-7.6689-6.7486-11.064-1.2884-1.6769-2.6586-3.2721-4.1514-4.765-0.98162-0.98163-3.1289-2.2291-3.5788-3.5993-0.75663-2.27-1.5133-4.4991-0.75663-6.7691 0.79763-3.1903 5.3376-1.0634 7.2804-3.1903 3.313-3.5584 5.6034-10.655 5.5625-15.481-0.0413-3.3948 0.79762-4.1105 0.47037-7.5258-0.32725-2.7404-2.4336-5.0308-1.227-7.7712 1.2475-2.8222 2.0246-7.5462-0.32725-10.246-2.0041-2.2904-4.2741-5.8897-7.2804-6.7282-7.6076-2.0655-12.373-1.5338-17.465-0.36812-8.5483 1.9837-15.256 8.2006-16.565 17.219-0.593 3.8856-0.49088 7.5462-0.1025 11.186 0.32725 2.9653-3.1903 6.0124-1.2475 8.8755 1.3088 1.9019 4.6014 2.5972 6.3192 4.2128 2.2291 2.0655 6.0124 2.1473 5.8079 5.1535-0.409 6.6464 1.2679 6.7282-3.9878 10.512 0 0.75663-9.5708 8.037-9.5708 8.7732-3.0267 3.0267-2.8631 5.5625-6.6259 7.8325-3.7416 1.4724-6.1139-2.4336-8.4043-5.3989-2.1064-3.1698-2.8017-5.1944-4.9286-8.2824-3.722-5.4194-11.473-6.8918-14.336-13.088-1.9837-4.2741-2.5358-9.3868-4.2332-13.865-1.8201-4.8876-4.131-9.6322-7.0554-14.029-1.4724-2.2291-3.7629-4.4786-5.2353-5.2558-5.2558-2.9653-8.9777-9.7344-5.2558-13.477 1.4929-2.9858 5.2558-4.4991 6.7282-6.7486 3.0062-3.7424 4.5195-8.9573 4.5195-12.741 0-2.2086 0-5.9511-1.5133-8.9777-1.4929-4.4786 3.0062-6.7282 6.7486-8.2211 0-0.77712 1.4929-2.2291 0.73625-3.0062-3.7424-0.73625-7.4848-0.73625-8.2006-3.7629-1.5133-3.7424-0.77713-7.4849-3.0267-10.471h-2.2291c-0.77713 0-0.77713-0.75666-0.77713-1.4929-2.2496 0-4.4786-0.71576-6.7078 0-7.1576 1.2679-13.518 2.9858-19.51 5.992-3.4152 2.4336-6.5646 5.2148-9.5708 8.1393-1.3497 1.2679-2.4745 2.1678-3.2721 3.8038-0.24538 0.47038-2.045 3.0062-2.0655 3.1289-0.57263 2.679 0.225 3.8242 1.5542 6.0533 1.2475 2.0655 1.8814 4.7854 3.6402 6.6055 3.722 3.722 8.9982 5.992 10.491 10.45 0.73625 3.0062 3.7629 6.0124 2.9858 9.0186-1.4724 2.9858-2.2496 5.9715-5.2353 6.7282-2.2495 0.75662-4.5195 2.9858-6.7691 3.7833-4.4786 1.4724-7.4644 5.9715-11.964 9.714-3.7629 4.4991-6.0124 10.471-8.2211 15.747v3.7424c-0.79762 1.4929-2.045 2.6586-3.0267 3.0062-4.4991 1.4724-8.2415 2.9858-8.9982 6.7282-2.2291 8.2211-5.2353 16.524-2.2291 24.745 0 1.4724 4.2741 7.6076 5.7875 8.3642 7.5871 1.861 11.82 4.1105 14.827 11.718 2.7404 6.8509 1.3497 14.418-1.4724 20.982-1.3293 3.1085-1.7383 6.0738 0.32725 8.3438 2.086 2.2904 3.1494 3.3539 4.4991 6.0124 1.4929 2.9858 1.4929 7.4848 0 10.471-2.2291 6.7691-6.7486 12.004-8.9982 18.753-2.2291 5.9715-2.2291 12.761-5.992 18.733-1.4929 2.2496-2.2496 5.2149-5.2353 7.4848-0.75663 0.75662 0 2.27-0.75663 3.7424-1.4929 3.7424 5.5625 7.6689 3.313 6.0738-2.2904-1.5747 4.9286 2.1677 5.6852 3.6811v3.8038h-24.745zm168.65-42.414c-1.2066 3.497-1.5133 3.9265-0.818 7.5462 0.77712 4.1105 1.1248 8.2006 2.5154 12.004 0.69525 1.861 1.4929 4.4378 1.9019 6.4828 1.1044 5.1535-2.679 14.09 4.1923 16.381 0 0-10.287-0.47037-10.45 0 0-0.79762-2.4336-2.904-2.4336-3.722-4.0287-3.2721-4.5809-3.0062-7.8325-6.2578-2.2904-1.1452-1.6769-2.8835-4.9694-5.0922 2.7813-10.205 4.8263-19.898 10.45-29.694 0.79762-1.5951 0.38862-7.0145 1.1861-7.0145 1.5747-0.0813 1.9224-1.0839 3.4357-0.16362 2.8426 1.6974 3.6402 7.0963 2.8222 9.5299"/>
</svg>
