<?xml version="1.0" encoding="UTF-8" standalone="no"?>
<!-- Created with Inkscape (http://www.inkscape.org/) -->

<svg
   xmlns:svg="http://www.w3.org/2000/svg"
   xmlns="http://www.w3.org/2000/svg"
   version="1.2"
   width="450"
   height="450"
   id="svg1890">
  <defs
     id="defs1893" />
  <rect
     width="447.5"
     height="447.5"
     rx="33.316483"
     x="1.25"
     y="1.25"
     id="rect2385"
     style="fill:#ffffff;fill-opacity:1;fill-rule:evenodd;stroke:#0066b3;stroke-width:2.5;stroke-linecap:butt;stroke-linejoin:round;stroke-miterlimit:4;stroke-opacity:1;stroke-dasharray:none;stroke-dashoffset:0;marker:none;visibility:visible;display:inline;overflow:visible;enable-background:accumulate" />
  <rect
     width="415"
     height="415"
     rx="22.503939"
     ry="22.503939"
     x="16.978363"
     y="17.24411"
     id="rect3157"
     style="fill:#0066b3;fill-opacity:1;fill-rule:evenodd;stroke:none;stroke-width:1.25;marker:none;visibility:visible;display:inline;overflow:visible;enable-background:accumulate" />
  <rect
     width="37.5"
     height="285"
     x="61.754227"
     y="45.8983"
     id="rect2840"
     style="color:#000000;fill:#ffffff;fill-opacity:1;fill-rule:evenodd;stroke:none;stroke-width:30;marker:none;visibility:visible;display:inline;overflow:visible;enable-background:accumulate" />
  <g
     transform="matrix(0.52546847,-0.52546847,0.52546847,0.52546847,239.58878,-13.900573)"
     id="g3622">
    <g
       id="g3707"
       style="fill:#ffffff;fill-opacity:1">
      <g
         id="g3673"
         style="fill:#ffffff;fill-opacity:1">
        <rect
           width="177.33049"
           height="352.75418"
           rx="20"
           ry="20"
           x="-267.90253"
           y="31.461864"
           id="rect3647"
           style="color:#000000;fill:#ffffff;fill-opacity:1;fill-rule:evenodd;stroke:none;stroke-width:30;marker:none;visibility:visible;display:inline;overflow:visible;enable-background:accumulate" />
        <path
           d="m -253.13688,42.653291 20.36733,0"
           id="path3649"
           style="fill:#ffffff;fill-opacity:1;stroke:#0066b3;stroke-width:10;stroke-linecap:round;stroke-linejoin:miter;stroke-miterlimit:4;stroke-opacity:1;stroke-dasharray:none" />
      </g>
    </g>
    <path
       d="m -105.33769,42.653287 -20.36733,0"
       id="path3649-5"
       style="fill:none;stroke:#0066b3;stroke-width:10;stroke-linecap:round;stroke-linejoin:miter;stroke-miterlimit:4;stroke-opacity:1;stroke-dasharray:none" />
    <path
       d="m -228.61295,189.38124 -27.84921,-47.38523 c 56.37794,-22.09285 98.38271,-21.52508 156.28812,0 l -28.68053,47.38523 c -34.39285,-4.56022 -67.58201,-4.30569 -99.75838,0 z"
       id="path3712"
       style="fill:#0066b3;fill-opacity:1;stroke:#0066b3;stroke-width:2;stroke-linecap:butt;stroke-linejoin:miter;stroke-miterlimit:4;stroke-opacity:1;stroke-dasharray:none" />
    <path
       d="m -125.94495,202.68235 25.77091,-42.39731 0,150.46889 -25.77091,-33.25279 0,-74.81879 z"
       id="path3714"
       style="fill:#0066b3;fill-opacity:1;stroke:#0066b3;stroke-width:2;stroke-linecap:butt;stroke-linejoin:bevel;stroke-miterlimit:4;stroke-opacity:1;stroke-dasharray:none" />
    <path
       d="m -229.85993,289.13962 c 34.63833,2.77107 68.16823,2.77107 100.5897,0 l 29.09619,38.24071 c -51.94245,9.10801 -104.48439,8.62409 -157.5351,0 l 27.84921,-38.24071 z"
       id="path3716"
       style="fill:#0066b3;fill-opacity:1;stroke:#0066b3;stroke-width:2;stroke-linecap:butt;stroke-linejoin:miter;stroke-miterlimit:4;stroke-opacity:1;stroke-dasharray:none" />
    <path
       d="m -232.17404,202.68235 -25.77091,-42.39731 0,150.46889 25.77091,-33.25279 0,-74.81879 z"
       id="path3714-1"
       style="fill:#0066b3;fill-opacity:1;stroke:#0066b3;stroke-width:2;stroke-linecap:butt;stroke-linejoin:bevel;stroke-miterlimit:4;stroke-opacity:1;stroke-dasharray:none" />
  </g>
  <g
     id="g2848"
     style="fill:#ffffff">
    <path
       d="m 112.75854,363.42435 c -0.7455,0.6934 -1.61179,0.98677 -2.59887,0.88012 -0.9872,-0.10656 -1.77374,-0.56026 -2.35962,-1.36108 -2.45448,-3.19982 -5.20106,-6.42655 -8.23975,-9.68018 -0.6934,-0.74538 -1.00021,-1.6251 -0.92041,-2.63916 0.0797,-1.01394 0.49271,-1.86761 1.23902,-2.56103 0.74621,-0.6933 1.63935,-1.01313 2.67944,-0.95947 1.03999,0.0538 1.90669,0.45416 2.6001,1.20117 3.09402,3.41314 5.7877,6.613 8.08105,9.59961 0.63959,0.85291 0.90611,1.79936 0.79956,2.83935 -0.10667,1.04009 -0.5335,1.93364 -1.28052,2.68067 z m -10,17.68066 c -2.82556,-3.78741 -5.625039,-7.2542 -8.398433,-10.40039 -0.693399,-0.74703 -1.000202,-1.62716 -0.92041,-2.64038 0.07971,-1.01314 0.493124,-1.86642 1.240235,-2.55981 0.799111,-0.69332 1.705279,-1.01355 2.718505,-0.9607 1.013143,0.0529 1.866413,0.45292 2.559813,1.19995 3.25353,3.57426 6.08068,6.98734 8.48145,10.23926 0.63959,0.85452 0.90611,1.84166 0.79956,2.96143 -0.10667,1.11981 -0.56036,2.02639 -1.36109,2.71972 -0.74549,0.69339 -1.63823,0.98676 -2.67822,0.88013 -1.04009,-0.10658 -1.85389,-0.58632 -2.44141,-1.43921 z m 23.28125,2.87842 1.59913,-0.31983 c 0.96021,-0.21319 1.84033,-0.0264 2.64038,0.56031 0.79989,0.58677 1.22673,1.38714 1.28051,2.40112 0.10572,1.0661 -0.17463,2.02598 -0.84106,2.87964 -0.66658,0.85369 -1.50602,1.38714 -2.51831,1.60034 l -2.16065,0.39795 c -0.4265,0.10744 -0.63972,0.37436 -0.63964,0.80078 l 0,16.40137 c -8e-5,1.17187 -0.41349,2.17122 -1.24024,2.99805 -0.82689,0.82681 -1.82705,1.24022 -3.00049,1.24023 -1.17357,-1e-5 -2.1603,-0.41342 -2.9602,-1.24023 -0.80003,-0.82683 -1.20002,-1.82618 -1.19995,-2.99805 l 0,-14.72168 c -7e-5,-0.15949 -0.0802,-0.30598 -0.24048,-0.43945 -0.16038,-0.13345 -0.32029,-0.17333 -0.47974,-0.11963 l -18.559568,3.75976 c -0.960329,0.21323 -1.853883,0.0265 -2.680664,-0.5603 -0.826863,-0.58674 -1.293578,-1.38671 -1.400146,-2.3999 -0.106648,-1.01317 0.146851,-1.9466 0.760498,-2.8003 0.613565,-0.85366 1.453408,-1.38711 2.519531,-1.60034 l 19.360349,-3.84033 c 0.48008,-0.10577 0.72015,-0.39874 0.72022,-0.87891 l 0,-39.19921 c -7e-5,-1.17345 0.39992,-2.16018 1.19995,-2.96021 0.7999,-0.7999 1.78663,-1.19989 2.9602,-1.19995 1.17344,6e-5 2.1736,0.40005 3.00049,1.19995 0.82675,0.80003 1.24016,1.78676 1.24024,2.96021 l 0,37.51953 c -8e-5,0.48016 0.21314,0.66652 0.63964,0.55908 z M 62.919678,362.86526 c -1.067717,0.95871 -1.894539,1.67811 -2.480469,2.15821 -0.747076,0.5876 -1.547043,0.74792 -2.399902,0.48096 -0.852869,-0.26689 -1.412764,-0.85364 -1.679688,-1.76026 -0.747072,-2.40067 -0.133466,-4.45389 1.84082,-6.15967 4.106437,-3.52045 8.10627,-7.81407 11.999512,-12.88086 1.599917,-2.13372 3.759745,-3.20062 6.479492,-3.20068 2.560196,6e-5 4.773735,1.06696 6.640625,3.20068 2.665984,3.04043 5.598923,5.84072 8.798828,8.40088 1.974244,1.59999 2.614705,3.5995 1.921387,5.99854 l -0.161133,0.88135 c -0.105834,0.48018 -0.358926,0.85331 -0.759277,1.11938 -0.40043,0.26616 -0.827269,0.38619 -1.280518,0.36011 -0.453325,-0.026 -0.866329,-0.17248 -1.239013,-0.43946 -0.213253,-0.10737 -0.319861,-0.0545 -0.319824,0.1587 l 0,0.2417 c -3.7e-5,1.22562 -0.453731,2.2917 -1.361084,3.19824 -0.907424,0.90661 -1.973911,1.3599 -3.199463,1.35986 l -4.160157,0 c -0.48017,4e-5 -0.720242,0.21407 -0.720214,0.64209 l 0,7.03857 c -2.8e-5,0.42647 0.240044,0.63969 0.720214,0.63965 l 8.798829,0 c 0.960248,4e-5 1.78707,0.34671 2.480468,1.04004 0.69332,0.69339 1.039999,1.52021 1.040039,2.48047 -4e-5,0.96031 -0.346719,1.78714 -1.040039,2.48047 -0.693398,0.69338 -1.52022,1.04006 -2.480468,1.04004 l -8.798829,0 c -0.48017,2e-5 -0.720242,0.21324 -0.720214,0.63965 l 0,18.95996 c -2.8e-5,3.78743 -0.15994,6.42781 -0.479737,7.92114 -0.31985,1.49332 -0.906601,2.47965 -1.760254,2.95899 -0.853702,0.47932 -2.427187,0.71898 -4.720459,0.71899 -0.159525,-1e-5 -1.46649,-0.0529 -3.920898,-0.15869 -1.066096,-0.10743 -1.985692,-0.52084 -2.758789,-1.24024 -0.773125,-0.7194 -1.186536,-1.61296 -1.240234,-2.68066 -0.105807,-0.96029 0.187568,-1.78711 0.880126,-2.48047 0.692532,-0.69336 1.518947,-1.01318 2.479249,-0.95947 1.067691,0.10742 1.654442,0.16113 1.760253,0.16113 0.852847,0 1.359438,-0.18677 1.519776,-0.5603 0.1603,-0.37354 0.240459,-1.60034 0.240478,-3.68042 l 0,-18.95996 c -1.9e-5,-0.42641 -0.213235,-0.63963 -0.639648,-0.63965 l -10.800781,0 c -0.960294,2e-5 -1.787116,-0.34666 -2.480469,-1.04004 -0.693364,-0.69333 -1.040043,-1.52016 -1.040039,-2.48047 -4e-6,-0.96026 0.346675,-1.78708 1.040039,-2.48047 0.693353,-0.69333 1.520175,-1.04 2.480469,-1.04004 l 10.800781,0 c 0.426413,4e-5 0.639629,-0.21318 0.639648,-0.63965 l 0,-7.03857 c -1.9e-5,-0.42802 -0.213235,-0.64205 -0.639648,-0.64209 l -6.000977,0 c -0.799165,4e-5 -1.492117,-0.30636 -2.078857,-0.91919 -0.586761,-0.61275 -0.880137,-1.31954 -0.880127,-2.12036 -1e-5,-0.15946 -0.106618,-0.1855 -0.319824,-0.0781 z M 76.279053,347.5845 c -3.040385,4.2123 -6.00018,7.8386 -8.879395,10.87891 -0.107435,0.10747 -0.134291,0.21448 -0.08057,0.32104 0.0537,0.10666 0.133449,0.15996 0.239258,0.15992 l 19.760742,0 c 0.107388,4e-5 0.187547,-0.0533 0.240478,-0.15992 0.05286,-0.10656 0.02642,-0.21357 -0.07934,-0.32104 -3.62796,-3.14611 -7.094754,-6.77241 -10.400391,-10.87891 -0.320661,-0.32058 -0.587588,-0.32058 -0.800781,0 z m -18.640137,55.52002 c 2.239577,-4.96093 3.866366,-10.13426 4.880371,-15.52002 0.159496,-0.90655 0.639232,-1.65322 1.439209,-2.23999 0.799956,-0.58673 1.653227,-0.77349 2.559815,-0.5603 0.960272,0.21324 1.73379,0.71983 2.320556,1.51978 0.586736,0.79998 0.800358,1.70696 0.640869,2.72094 -1.067723,6.29233 -2.774264,12.13217 -5.119629,17.51953 -0.426442,0.96029 -1.146656,1.60034 -2.160644,1.92017 -1.014005,0.31982 -1.974291,0.23966 -2.880859,-0.24048 -0.906581,-0.48014 -1.51978,-1.21338 -1.8396,-2.19971 -0.319828,-0.98632 -0.266524,-1.95963 0.159912,-2.91992 z M 85.31958,385.10403 c 0.960254,-0.2669 1.853808,-0.16029 2.680664,0.31983 0.826788,0.48016 1.372848,1.20038 1.638184,2.16064 1.280887,4.37339 2.427533,9.14633 3.439941,14.31885 0.213177,1.014 0.05327,1.97429 -0.479736,2.88086 -0.533079,0.90658 -1.279742,1.52018 -2.23999,1.84082 -0.906612,0.2653 -1.77331,0.15828 -2.600098,-0.32104 -0.826856,-0.47933 -1.32002,-1.17229 -1.479492,-2.07886 -1.012402,-5.38736 -2.132192,-10.32144 -3.359375,-14.80225 -0.266956,-0.90656 -0.160348,-1.78627 0.319824,-2.63916 0.480113,-0.85284 1.173472,-1.41274 2.080078,-1.67969 z"
       id="path2836"
       style="font-size:80px;font-style:normal;font-weight:normal;text-align:center;text-anchor:middle;fill:#ffffff;fill-opacity:1;stroke:none;font-family:'Rounded M+ 1m medium';-inkscape-font-specification:'Rounded M+ 1m medium'" />
    <path
       d="m 164.43823,368.62454 c -5.11883,4.64033 -7.67823,10.61364 -7.67822,17.91992 -1e-5,3.99904 0.70637,7.09189 2.11914,9.27857 1.41274,2.18669 3.10626,3.28003 5.08057,3.28003 2.5602,0 5.46709,-1.78629 8.7207,-5.35889 0.31898,-0.32062 0.39873,-0.69416 0.23926,-1.1206 -2.71976,-7.41372 -5.33287,-15.36049 -7.83936,-23.84034 -0.10744,-0.31897 -0.32147,-0.37187 -0.64209,-0.15869 z m 20.72022,-7.28027 c -4.63871,4e-5 -8.93151,0.80001 -12.87842,2.3999 -0.37438,0.15955 -0.50784,0.45252 -0.40039,0.87891 1.7057,6.13447 3.83867,12.98831 6.39892,20.56152 0.0537,0.10582 0.14727,0.17214 0.28077,0.19898 0.13342,0.0269 0.25305,-0.0126 0.35888,-0.11841 3.89482,-6.45343 7.44218,-14.10723 10.64209,-22.96143 0.10575,-0.15946 0.10534,-0.3328 -0.001,-0.52002 -0.10665,-0.18713 -0.26656,-0.28072 -0.47973,-0.28076 -0.85291,-0.10575 -2.15988,-0.15865 -3.9209,-0.15869 z m -21.99951,45.60058 c -3.94696,0 -7.26686,-1.80012 -9.95972,-5.40039 -2.69288,-3.60025 -4.03931,-8.60024 -4.03931,-15 0,-5.33363 1.13321,-10.24044 3.39966,-14.72045 2.26643,-4.47995 5.45287,-8.24012 9.55933,-11.28052 0.37433,-0.26688 0.50779,-0.64042 0.40039,-1.12061 -0.58596,-2.13211 -1.41278,-5.38487 -2.48047,-9.7583 -0.26694,-1.06765 -0.0936,-2.05479 0.52002,-2.96142 0.61359,-0.90652 1.42739,-1.46641 2.4414,-1.67969 1.06606,-0.21316 2.05239,-0.013 2.95899,0.60058 0.90655,0.61367 1.46645,1.42666 1.67969,2.43897 0.4264,2.08013 1.04001,4.6135 1.84082,7.6001 0.10576,0.42811 0.37269,0.53471 0.80078,0.31982 4.47913,-1.75939 9.43844,-2.63911 14.87793,-2.63916 2.29325,5e-5 4.47993,0.16037 6.56006,0.48096 0.48009,0.10584 0.77387,-0.0813 0.88134,-0.56153 0.69331,-2.34532 1.49328,-5.11875 2.39991,-8.32031 0.26687,-1.06602 0.86705,-1.86558 1.80053,-2.39868 0.93338,-0.53298 1.90628,-0.69289 2.9187,-0.47974 1.06603,0.26699 1.86599,0.85375 2.39991,1.76026 0.53379,0.90663 0.66725,1.86611 0.40039,2.87842 -0.69342,2.61398 -1.49339,5.44113 -2.39991,8.48144 -0.10747,0.48019 0.0529,0.80002 0.48096,0.95947 5.43939,2.18592 9.69232,5.47897 12.75879,9.87915 3.06633,4.40027 4.59954,9.50728 4.59961,15.32105 -7e-5,7.51955 -1.90681,13.69264 -5.72021,18.51929 -3.81355,4.82666 -9.16022,8.03995 -16.04004,9.63989 -1.06614,0.21321 -2.05246,0.0264 -2.95899,-0.5603 -0.90662,-0.58676 -1.49337,-1.41317 -1.76025,-2.47925 -0.21327,-1.014 -0.0664,-1.934 0.44067,-2.76001 0.50695,-0.82601 1.26664,-1.37248 2.27905,-1.63941 5.06668,-1.2272 8.95991,-3.61408 11.67969,-7.16064 2.71966,-3.54654 4.07953,-8.06639 4.07959,-13.55957 -6e-5,-4.00062 -1.0397,-7.52072 -3.11889,-10.5603 -2.07933,-3.03952 -5.01268,-5.38611 -8.80005,-7.0398 -0.37278,-0.15946 -0.66575,8.6e-4 -0.87891,0.48096 -5.06678,14.23993 -10.62708,24.91986 -16.68091,32.03979 -6.0539,7.11996 -11.82742,10.67993 -17.32055,10.67993 z"
       id="path2838"
       style="font-size:80px;font-style:normal;font-weight:normal;text-align:center;text-anchor:middle;fill:#ffffff;fill-opacity:1;stroke:none;font-family:'Rounded M+ 1m medium';-inkscape-font-specification:'Rounded M+ 1m medium'" />
    <path
       d="m 281.55884,340.94388 c 4.96088,1.22728 10.18792,3.04042 15.68115,5.43945 0.96022,0.42649 1.62672,1.13328 1.99951,2.12036 0.37265,0.9872 0.3458,1.96091 -0.0806,2.92115 -0.42651,0.96034 -1.14631,1.61341 -2.15943,1.95922 -1.01325,0.34592 -1.99998,0.30564 -2.9602,-0.12085 -5.01308,-2.23952 -10.07981,-3.99896 -15.2002,-5.27832 -0.96033,-0.26686 -1.66712,-0.82717 -2.12036,-1.6809 -0.45333,-0.85362 -0.4928,-1.73375 -0.11841,-2.64039 0.42639,-1.0123 1.10632,-1.78541 2.0398,-2.31933 0.93338,-0.53379 1.90628,-0.66725 2.9187,-0.40039 z m 10.80078,45.28076 0,16.64062 c -6e-5,0.47852 0.24001,0.71778 0.72021,0.71778 l 10.40039,0 c 1.06601,0 1.94573,0.34668 2.63916,1.04004 0.69329,0.69336 1.03997,1.57348 1.04004,2.64038 -7e-5,1.06689 -0.34675,1.94702 -1.04004,2.64038 -0.69343,0.69335 -1.57315,1.04003 -2.63916,1.04004 l -31.44043,0 c -1.01403,-10e-6 -1.88114,-0.34669 -2.60131,-1.04004 -0.72026,-0.69336 -1.08036,-1.57349 -1.08033,-2.64038 -3e-5,-1.0669 0.36007,-1.94702 1.08033,-2.64038 0.72017,-0.69336 1.58728,-1.04004 2.60131,-1.04004 l 10.79834,0 c 0.48009,0 0.72017,-0.23926 0.72022,-0.71778 l 0,-16.64062 c -5e-5,-0.48012 -0.24013,-0.72019 -0.72022,-0.72021 l -8.63769,0 c -1.01404,2e-5 -1.88115,-0.33324 -2.60132,-0.99976 -0.72026,-0.66648 -1.08036,-1.50673 -1.08032,-2.52075 -4e-5,-1.01397 0.36006,-1.88067 1.08032,-2.6001 0.72017,-0.71937 1.58728,-1.07907 2.60132,-1.0791 l 8.63769,0 c 0.48009,3e-5 0.72017,-0.21319 0.72022,-0.63965 l 0,-13.60107 c -5e-5,-0.48011 -0.24013,-0.72018 -0.72022,-0.72022 l -10.15869,0 c -1.06612,4e-5 -1.95927,-0.36006 -2.67944,-1.08032 -0.72025,-0.72017 -1.08036,-1.58687 -1.08032,-2.6001 -4e-5,-1.01314 0.37309,-1.89285 1.11938,-2.63916 0.74622,-0.74621 1.62634,-1.11933 2.64038,-1.11938 l 30.15869,0 c 1.01393,5e-5 1.88103,0.35975 2.60132,1.0791 0.72014,0.71945 1.08025,1.613 1.08033,2.68066 -8e-5,1.01242 -0.34676,1.87871 -1.04004,2.59888 -0.69344,0.72026 -1.57397,1.08036 -2.64161,1.08032 l -9.7583,0 c -0.4802,4e-5 -0.72027,0.24011 -0.72021,0.72022 l 0,13.60107 c -6e-5,0.42646 0.24001,0.63968 0.72021,0.63965 l 8.32032,0 c 1.01229,3e-5 1.85173,0.35973 2.51831,1.0791 0.66643,0.71943 0.99968,1.58613 0.99975,2.6001 -7e-5,1.01402 -0.33332,1.85427 -0.99975,2.52075 -0.66658,0.66652 -1.50602,0.99978 -2.51831,0.99976 l -8.32032,0 c -0.4802,2e-5 -0.72027,0.24009 -0.72021,0.72021 z m -56.56006,-4.7998 0,-33.52051 c -1e-5,-1.22716 0.43985,-2.29405 1.31958,-3.20069 0.87971,-0.90651 1.93318,-1.3598 3.1604,-1.35986 l 24.47998,0 c 0.90654,6e-5 1.69308,0.34674 2.35962,1.04004 0.66647,0.69342 0.99972,1.49339 0.99976,2.3999 -4e-5,0.90664 -0.33329,1.69317 -0.99976,2.35962 -0.66654,0.66656 -1.45308,0.99981 -2.35962,0.99976 l -4.96094,0 c -0.42646,5e-5 -0.63967,0.21408 -0.63964,0.64209 l 0,4.07959 c -3e-5,0.48019 0.21318,0.72026 0.63964,0.72021 l 4.24073,0 c 0.85283,5e-5 1.58606,0.29343 2.1997,0.88013 0.61357,0.5868 0.92038,1.30661 0.92041,2.15942 -3e-5,0.85291 -0.30684,1.58615 -0.92041,2.19971 -0.61364,0.61365 -1.34687,0.92045 -2.1997,0.92041 l -4.24073,0 c -0.42646,4e-5 -0.63967,0.24012 -0.63964,0.72021 l 0,3.99903 c -3e-5,0.42647 0.21318,0.63969 0.63964,0.63965 l 4.24073,0 c 0.85283,4e-5 1.58606,0.30684 2.1997,0.92041 0.61357,0.61364 0.92038,1.34688 0.92041,2.1997 -3e-5,0.8529 -0.30684,1.58614 -0.92041,2.19971 -0.61364,0.61364 -1.34687,0.92044 -2.1997,0.92041 l -4.24073,0 c -0.42646,3e-5 -0.63967,0.21325 -0.63964,0.63965 l 0,4.47998 c -3e-5,0.42646 0.21318,0.63967 0.63964,0.63965 l 4.00147,0 c 1.22555,2e-5 2.29163,0.45372 3.19824,1.36108 0.90654,0.90742 1.35983,1.9739 1.35986,3.19946 l 0,1.84083 c -3e-5,7.99968 -0.2397,13.91968 -0.71899,17.76 -0.47937,3.84034 -1.18575,6.3737 -2.11914,7.6001 -0.93347,1.2264 -2.38732,1.8396 -4.36157,1.8396 -1.54626,0 -3.38626,-0.0798 -5.52002,-0.23926 -1.0124,-0.0537 -1.86526,-0.4541 -2.5586,-1.20117 -0.69338,-0.74707 -1.06691,-1.65365 -1.1206,-2.71972 -0.0537,-0.96029 0.26609,-1.76026 0.95947,-2.39991 0.69334,-0.63964 1.52016,-0.90657 2.48047,-0.80078 1.59991,0.10742 2.58623,0.16114 2.95898,0.16114 0.53383,0 0.90736,-0.0802 1.12061,-0.24048 0.21319,-0.16032 0.41338,-0.62704 0.60059,-1.40015 0.18714,-0.77311 0.30677,-2.03938 0.35888,-3.79883 -3e-5,-0.10741 -0.0663,-0.22786 -0.19897,-0.36133 -0.13268,-0.13345 -0.25272,-0.17333 -0.36011,-0.11963 -0.96032,0.15952 -1.84044,-0.0407 -2.64038,-0.60058 -0.79999,-0.55989 -1.27973,-1.31998 -1.43921,-2.28027 -0.21324,-1.01236 -0.66653,-3.11848 -1.35986,-6.31836 -0.10745,-0.58755 -8.4e-4,-1.13443 0.31982,-1.64063 0.32061,-0.50617 0.7739,-0.81256 1.35986,-0.91919 0.58592,-0.10659 1.15924,0.0135 1.71998,0.36011 0.56068,0.3467 0.89393,0.813 0.99975,1.39892 0.74704,3.4131 1.25404,5.94647 1.521,7.6001 -3e-5,0.0537 0.0264,0.0806 0.0793,0.0806 0.0529,1e-5 0.0793,-0.0269 0.0794,-0.0806 l 0,-10.48095 c -3e-5,-0.48013 -0.21325,-0.7202 -0.63965,-0.72022 l -19.59961,0 c -1.22722,2e-5 -2.28069,-0.45327 -3.1604,-1.35986 -0.87973,-0.90656 -1.31959,-1.97264 -1.31958,-3.19824 z m 8.32031,-30.63965 0,4.07959 c -1e-5,0.48019 0.24006,0.72026 0.72022,0.72021 l 5.67871,0 c 0.42641,5e-5 0.63963,-0.24002 0.63965,-0.72021 l 0,-4.07959 c -2e-5,-0.42801 -0.21324,-0.64204 -0.63965,-0.64209 l -5.67871,0 c -0.48016,5e-5 -0.72023,0.21408 -0.72022,0.64209 z m 0,11.67968 0,3.99903 c -1e-5,0.42647 0.24006,0.63969 0.72022,0.63965 l 5.67871,0 c 0.42641,4e-5 0.63963,-0.21318 0.63965,-0.63965 l 0,-3.99903 c -2e-5,-0.48009 -0.21324,-0.72017 -0.63965,-0.72021 l -5.67871,0 c -0.48016,4e-5 -0.72023,0.24012 -0.72022,0.72021 z m 0,11.51856 0,4.47998 c -1e-5,0.42646 0.24006,0.63967 0.72022,0.63965 l 5.67871,0 c 0.42641,2e-5 0.63963,-0.21319 0.63965,-0.63965 l 0,-4.47998 c -2e-5,-0.4264 -0.21324,-0.63962 -0.63965,-0.63965 l -5.67871,0 c -0.48016,3e-5 -0.72023,0.21325 -0.72022,0.63965 z m -3.60107,17.36084 c -0.58595,6.29395 -1.30616,11.60075 -2.16065,15.92041 -0.15951,0.74707 -0.57251,1.33382 -1.23901,1.76025 -0.66651,0.42643 -1.3733,0.53304 -2.12036,0.31983 -0.74708,-0.21322 -1.33383,-0.65349 -1.76025,-1.3208 -0.42644,-0.66732 -0.5599,-1.40056 -0.4004,-2.19971 1.12142,-5.43945 1.89534,-10.50617 2.32178,-15.2002 0.10579,-0.74705 0.43864,-1.34723 0.99854,-1.80053 0.55989,-0.45327 1.18651,-0.65306 1.87988,-0.59937 0.74706,0.0537 1.3741,0.40041 1.8811,1.04004 0.50699,0.63967 0.70678,1.33302 0.59937,2.08008 z m 4.96094,16.47949 c -0.69338,0.0537 -1.29356,-0.13265 -1.80054,-0.55908 -0.50701,-0.42643 -0.78737,-0.98633 -0.84107,-1.67969 -0.15951,-3.94693 -0.45248,-8.69384 -0.8789,-14.24072 -0.0537,-0.69335 0.11961,-1.30654 0.52002,-1.8396 0.40038,-0.53302 0.94725,-0.8264 1.64062,-0.88013 0.63964,-0.1074 1.23941,0.0391 1.79932,0.43946 0.55988,0.4004 0.86668,0.94728 0.92041,1.64062 0.42641,4.37338 0.77309,9.17318 1.04004,14.39941 0.0537,0.69336 -0.15952,1.29354 -0.63965,1.80054 -0.48016,0.507 -1.06691,0.8134 -1.76025,0.91919 z m 3.15918,-18.55957 c 0.40037,-0.53384 0.92039,-0.85407 1.56005,-0.96069 0.63963,-0.10659 1.22638,0.0269 1.76026,0.40039 0.53383,0.37355 0.85365,0.88014 0.95947,1.51977 0.58754,3.36102 1.09454,6.98813 1.521,10.88135 0.0537,0.69336 -0.10623,1.29314 -0.47974,1.79932 -0.37356,0.50619 -0.907,0.81299 -1.60034,0.92041 -0.63967,0.10579 -1.21299,-0.0411 -1.71997,-0.44068 -0.50702,-0.39957 -0.81342,-0.91918 -0.91919,-1.55883 -0.21486,-1.65364 -0.72186,-5.2539 -1.521,-10.80079 -0.10744,-0.63963 0.0391,-1.22638 0.43946,-1.76025 z"
       id="path2840"
       style="font-size:80px;font-style:normal;font-weight:normal;text-align:center;text-anchor:middle;fill:#ffffff;fill-opacity:1;stroke:none;font-family:'Rounded M+ 1m medium';-inkscape-font-specification:'Rounded M+ 1m medium'" />
    <path
       d="m 351.15991,409.74515 0,-4.72168 c -3e-5,-0.42643 -0.2401,-0.63965 -0.72021,-0.63965 l -27.83936,0 c -0.90658,0 -1.70655,-0.34668 -2.3999,-1.04004 -0.69336,-0.69336 -1.04004,-1.49332 -1.04004,-2.3999 0,-0.90657 0.34668,-1.69311 1.04004,-2.35962 0.69335,-0.6665 1.49332,-0.99975 2.3999,-0.99976 l 27.83936,0 c 0.48011,1e-5 0.72018,-0.24006 0.72021,-0.72021 l 0,-4.64111 c -3e-5,-0.42642 -0.2401,-0.63964 -0.72021,-0.63965 l -16.3208,0 -3.59864,0 c -1.22722,1e-5 -2.29412,-0.45328 -3.20068,-1.35987 -0.90659,-0.90656 -1.35987,-1.97345 -1.35986,-3.20068 l 0,-22.1582 c -1e-5,-1.22717 0.45327,-2.28064 1.35986,-3.1604 0.90656,-0.87968 1.97346,-1.31954 3.20068,-1.31958 l 19.91944,0 c 0.48011,4e-5 0.72018,-0.24003 0.72021,-0.72022 l 0,-4.24072 c -3e-5,-0.42638 -0.2401,-0.6396 -0.72021,-0.63965 l -27.04102,0 c -0.90658,5e-5 -1.70655,-0.34663 -2.3999,-1.04004 -0.69336,-0.69331 -1.04004,-1.49327 -1.04004,-2.3999 0,-0.90652 0.34668,-1.70649 1.04004,-2.3999 0.69335,-0.69331 1.49332,-1.03998 2.3999,-1.04004 l 27.04102,0 c 0.48011,6e-5 0.72018,-0.21316 0.72021,-0.63965 l 0,-2.32178 c -3e-5,-1.22552 0.43983,-2.26515 1.31958,-3.11889 0.87968,-0.85362 1.90629,-1.28046 3.07984,-1.28052 1.17346,6e-5 2.20007,0.4269 3.07983,1.28052 0.87968,0.85374 1.31954,1.89337 1.31958,3.11889 l 0,2.32178 c -4e-5,0.42649 0.24003,0.63971 0.72022,0.63965 l 27.04101,0 c 0.9065,6e-5 1.70647,0.34673 2.3999,1.04004 0.69329,0.69341 1.03997,1.49338 1.04004,2.3999 -7e-5,0.90663 -0.34675,1.70659 -1.04004,2.3999 -0.69343,0.69341 -1.4934,1.04009 -2.3999,1.04004 l -27.04101,0 c -0.48019,5e-5 -0.72026,0.21327 -0.72022,0.63965 l 0,4.24072 c -4e-5,0.48019 0.24003,0.72026 0.72022,0.72022 l 19.91943,0 c 1.22715,4e-5 2.29404,0.4399 3.20068,1.31958 0.90651,0.87976 1.3598,1.93323 1.35987,3.1604 l 0,22.1582 c -7e-5,1.22723 -0.45336,2.29412 -1.35987,3.20068 -0.90664,0.90659 -1.97353,1.35988 -3.20068,1.35987 l -19.91943,0 c -0.48019,1e-5 -0.72026,0.21323 -0.72022,0.63965 l 0,4.64111 c -4e-5,0.48015 0.24003,0.72022 0.72022,0.72021 l 27.83935,0 c 0.9065,1e-5 1.70647,0.33326 2.3999,0.99976 0.69329,0.66651 1.03997,1.45305 1.04004,2.35962 -7e-5,0.90658 -0.34675,1.70654 -1.04004,2.3999 -0.69343,0.69336 -1.4934,1.04004 -2.3999,1.04004 l -27.83935,0 c -0.48019,0 -0.72026,0.21322 -0.72022,0.63965 l 0,4.72168 c -4e-5,1.22558 -0.4399,2.26521 -1.31958,3.11889 -0.87976,0.85368 -1.90637,1.28051 -3.07983,1.28052 -1.17355,-1e-5 -2.20016,-0.42684 -3.07984,-1.28052 -0.87975,-0.85368 -1.31961,-1.89331 -1.31958,-3.11889 z m 25.83985,-25.28076 0,-5.04151 c -7e-5,-0.4264 -0.24014,-0.63962 -0.72022,-0.63965 l -15.60058,0 c -0.48019,3e-5 -0.72026,0.21325 -0.72022,0.63965 l 0,5.04151 c -4e-5,0.48016 0.24003,0.72023 0.72022,0.72021 l 15.60058,0 c 0.48008,2e-5 0.72015,-0.24005 0.72022,-0.72021 z m -0.72022,-17.68067 -15.60058,0 c -0.48019,4e-5 -0.72026,0.21326 -0.72022,0.63965 l 0,4.64111 c -4e-5,0.42647 0.24003,0.63969 0.72022,0.63965 l 15.60058,0 c 0.48008,4e-5 0.72015,-0.21318 0.72022,-0.63965 l 0,-4.64111 c -7e-5,-0.42639 -0.24014,-0.63961 -0.72022,-0.63965 z m -42.16064,0.63965 0,4.64111 c -2e-5,0.42647 0.24005,0.63969 0.72021,0.63965 l 15.60059,0 c 0.48011,4e-5 0.72018,-0.21318 0.72021,-0.63965 l 0,-4.64111 c -3e-5,-0.42639 -0.2401,-0.63961 -0.72021,-0.63965 l -15.60059,0 c -0.48016,4e-5 -0.72023,0.21326 -0.72021,0.63965 z m 0.72021,17.76123 15.60059,0 c 0.48011,2e-5 0.72018,-0.24005 0.72021,-0.72021 l 0,-5.04151 c -3e-5,-0.4264 -0.2401,-0.63962 -0.72021,-0.63965 l -15.60059,0 c -0.48016,3e-5 -0.72023,0.21325 -0.72021,0.63965 l 0,5.04151 c -2e-5,0.48016 0.24005,0.72023 0.72021,0.72021 z"
       id="path2842"
       style="font-size:80px;font-style:normal;font-weight:normal;text-align:center;text-anchor:middle;fill:#ffffff;fill-opacity:1;stroke:none;font-family:'Rounded M+ 1m medium';-inkscape-font-specification:'Rounded M+ 1m medium'" />
  </g>
</svg>
