<?xml version="1.0" encoding="UTF-8" standalone="no"?>
<!-- Created with Inkscape (http://www.inkscape.org/) -->
<svg
   xmlns:dc="http://purl.org/dc/elements/1.1/"
   xmlns:cc="http://creativecommons.org/ns#"
   xmlns:rdf="http://www.w3.org/1999/02/22-rdf-syntax-ns#"
   xmlns:svg="http://www.w3.org/2000/svg"
   xmlns="http://www.w3.org/2000/svg"
   xmlns:sodipodi="http://sodipodi.sourceforge.net/DTD/sodipodi-0.dtd"
   xmlns:inkscape="http://www.inkscape.org/namespaces/inkscape"
   width="370"
   height="284.5192"
   id="svg4203"
   sodipodi:version="0.32"
   inkscape:version="0.46"
   version="1.0"
   sodipodi:docbase="D:\Documents and Settings\Administrator\デスクトップ\看板\sign\西日本\svg"
   sodipodi:docname="Japanese Road sign (Area and Distance B).svg"
   inkscape:output_extension="org.inkscape.output.svg.inkscape">
  <defs
     id="defs4205">
    <inkscape:perspective
       sodipodi:type="inkscape:persp3d"
       inkscape:vp_x="0 : 315 : 1"
       inkscape:vp_y="0 : 1000 : 0"
       inkscape:vp_z="1500 : 315 : 1"
       inkscape:persp3d-origin="750 : 210 : 1"
       id="perspective9" />
    <inkscape:perspective
       id="perspective3163"
       inkscape:persp3d-origin="372.04724 : 350.78739 : 1"
       inkscape:vp_z="744.09448 : 526.18109 : 1"
       inkscape:vp_y="0 : 1000 : 0"
       inkscape:vp_x="0 : 526.18109 : 1"
       sodipodi:type="inkscape:persp3d" />
    <inkscape:perspective
       id="perspective2426"
       inkscape:persp3d-origin="372.04724 : 350.78739 : 1"
       inkscape:vp_z="744.09448 : 526.18109 : 1"
       inkscape:vp_y="0 : 1000 : 0"
       inkscape:vp_x="0 : 526.18109 : 1"
       sodipodi:type="inkscape:persp3d" />
    <inkscape:perspective
       id="perspective2400"
       inkscape:persp3d-origin="372.04724 : 350.78739 : 1"
       inkscape:vp_z="744.09448 : 526.18109 : 1"
       inkscape:vp_y="0 : 1000 : 0"
       inkscape:vp_x="0 : 526.18109 : 1"
       sodipodi:type="inkscape:persp3d" />
  </defs>
  <sodipodi:namedview
     id="base"
     pagecolor="#ffffff"
     bordercolor="#666666"
     borderopacity="1.0"
     gridtolerance="10000"
     guidetolerance="10"
     objecttolerance="10"
     inkscape:pageopacity="0.0"
     inkscape:pageshadow="2"
     inkscape:zoom="1.6162162"
     inkscape:cx="185"
     inkscape:cy="142.2596"
     inkscape:document-units="px"
     inkscape:current-layer="layer1"
     width="1500px"
     height="630px"
     inkscape:window-width="1024"
     inkscape:window-height="712"
     inkscape:window-x="-4"
     inkscape:window-y="-4"
     showgrid="false" />
  <metadata
     id="metadata4208">
    <rdf:RDF>
      <cc:Work
         rdf:about="">
        <dc:format>image/svg+xml</dc:format>
        <dc:type
           rdf:resource="http://purl.org/dc/dcmitype/StillImage" />
      </cc:Work>
    </rdf:RDF>
  </metadata>
  <g
     inkscape:label="sign"
     inkscape:groupmode="layer"
     id="layer1"
     transform="translate(0,-195.4808)">
    <rect
       style="fill:#005d35;fill-opacity:1;stroke:none;stroke-width:1;stroke-linecap:butt;stroke-linejoin:round;stroke-miterlimit:4;stroke-dasharray:none;stroke-opacity:1"
       id="rect_bg"
       width="370"
       height="90"
       x="0"
       y="390" />
    <rect
       y="293.04916"
       x="0"
       height="90"
       width="370"
       id="rect2391"
       style="fill:#005d35;fill-opacity:1;stroke:none;stroke-width:1;stroke-linecap:butt;stroke-linejoin:round;stroke-miterlimit:4;stroke-dasharray:none;stroke-opacity:1" />
    <rect
       style="fill:#005d35;fill-opacity:1;stroke:none;stroke-width:1;stroke-linecap:butt;stroke-linejoin:round;stroke-miterlimit:4;stroke-dasharray:none;stroke-opacity:1"
       id="rect2406"
       width="370"
       height="90"
       x="0"
       y="195.4808" />
    <rect
       style="opacity:1;fill:#ffffff;fill-opacity:1;fill-rule:nonzero;stroke:none;stroke-width:0.01;stroke-linecap:butt;stroke-linejoin:miter;marker:none;marker-start:none;marker-mid:none;marker-end:none;stroke-miterlimit:4;stroke-dasharray:none;stroke-dashoffset:0;stroke-opacity:1;visibility:visible;display:inline;overflow:visible;enable-background:accumulate"
       id="rect3169"
       width="64.839737"
       height="46.098339"
       x="9.9547281"
       y="202.11545" />
    <rect
       y="300.91885"
       x="9.9547281"
       height="46.098339"
       width="64.839737"
       id="rect2408"
       style="opacity:1;fill:#ffffff;fill-opacity:1;fill-rule:nonzero;stroke:none;stroke-width:0.01;stroke-linecap:butt;stroke-linejoin:miter;marker:none;marker-start:none;marker-mid:none;marker-end:none;stroke-miterlimit:4;stroke-dasharray:none;stroke-dashoffset:0;stroke-opacity:1;visibility:visible;display:inline;overflow:visible;enable-background:accumulate" />
    <path
       style="font-size:43px;font-style:normal;font-variant:normal;font-weight:normal;font-stretch:normal;text-align:start;line-height:125%;writing-mode:lr-tb;text-anchor:start;fill:#005d35;fill-opacity:1;fill-rule:nonzero;stroke:none;stroke-width:1;stroke-linecap:butt;stroke-linejoin:round;stroke-miterlimit:4;stroke-dashoffset:0;stroke-opacity:1;marker:none;marker-start:none;marker-mid:none;marker-end:none;visibility:visible;display:inline;overflow:visible;enable-background:accumulate;font-family:GD-HighwayGothicJA-OTF;-inkscape-font-specification:GD-HighwayGothicJA-OTF"
       d="M 57.139788,231.08995 L 57.139788,236.55088 L 52.280851,236.55088 L 52.280851,245.36577 L 45.615936,245.36577 L 45.615936,236.55088 L 27.384171,236.55088 L 27.384171,229.88597 L 44.368952,205.89228 L 52.280851,205.89228 L 52.280851,231.08995 L 57.139788,231.08995 z M 32.673103,231.08995 L 45.615936,231.08995 L 45.615936,212.90119 L 32.673103,231.08995 z"
       id="text2410" />
    <path
       style="font-size:43px;font-style:normal;font-variant:normal;font-weight:normal;font-stretch:normal;text-align:start;line-height:125%;writing-mode:lr-tb;text-anchor:start;fill:#ffffff;fill-opacity:1;fill-rule:nonzero;stroke:none;stroke-width:1;stroke-linecap:butt;stroke-linejoin:round;marker:none;marker-start:none;marker-mid:none;marker-end:none;stroke-miterlimit:4;stroke-dashoffset:0;stroke-opacity:1;visibility:visible;display:inline;overflow:visible;enable-background:accumulate;font-family:GD-HighwayGothicJA-OTF;-inkscape-font-specification:GD-HighwayGothicJA-OTF"
       d="M 89.856253,206.13858 L 89.856253,212.93489 L 84.329129,212.93489 L 84.329129,216.61964 L 89.856253,216.61964 L 89.856253,217.8479 C 89.837544,219.19772 89.547415,220.87431 88.985864,222.87765 C 88.4243,224.88103 87.703526,226.89122 86.823538,228.90821 C 85.943542,230.92522 85.016543,232.6291 84.042538,234.01985 L 87.113162,236.02599 C 87.585692,235.36667 88.053109,234.62801 88.515415,233.81003 C 88.977708,232.99205 89.424654,232.12033 89.856253,231.19488 L 89.856253,245.44257 L 93.541003,245.44257 L 93.541003,225.54492 L 95.465261,227.79671 L 98.249293,225.4221 L 93.541003,219.81309 L 93.541003,216.61964 L 97.635168,216.61964 L 97.635168,212.93489 L 93.541003,212.93489 L 93.541003,206.13858 L 89.856253,206.13858 z M 105.8235,205.93387 L 102.13875,205.93387 L 102.13875,209.2092 L 98.863418,209.2092 L 98.863418,212.89395 L 102.13875,212.89395 L 102.13875,215.75987 L 98.863418,215.75987 L 98.863418,219.44462 L 108.68941,219.44462 L 108.68941,222.10583 L 98.863418,222.10583 L 98.863418,238.48249 L 122.20016,238.48249 L 122.20016,222.10583 L 112.37416,222.10583 L 112.37416,219.44462 L 122.20016,219.44462 L 122.20016,215.75987 L 118.92483,215.75987 L 118.92483,212.89395 L 122.20016,212.89395 L 122.20016,209.2092 L 118.92483,209.2092 L 118.92483,205.93387 L 115.24008,205.93387 L 115.24008,209.2092 L 105.8235,209.2092 L 105.8235,205.93387 z M 118.51541,234.79774 L 112.37416,234.79774 L 112.37416,232.13653 L 118.51541,232.13653 L 118.51541,234.79774 z M 102.54817,234.79774 L 102.54817,232.13653 L 108.68941,232.13653 L 108.68941,234.79774 L 102.54817,234.79774 z M 118.51541,225.79058 L 118.51541,228.45178 L 112.37416,228.45178 L 112.37416,225.79058 L 118.51541,225.79058 z M 102.54817,225.79058 L 108.68941,225.79058 L 108.68941,228.45178 L 102.54817,228.45178 L 102.54817,225.79058 z M 105.8235,215.75987 L 105.8235,212.89395 L 115.24008,212.89395 L 115.24008,215.75987 L 105.8235,215.75987 z M 114.8716,241.10275 C 115.80044,242.14165 116.8598,243.03213 118.0497,243.7742 C 119.23954,244.51626 120.63666,245.14062 122.2411,245.64728 L 123.34653,242.1263 C 122.10119,241.70409 120.99917,241.2179 120.04049,240.66775 C 119.08174,240.1176 118.24585,239.45741 117.53282,238.6872 L 114.8716,241.10275 z M 106.19198,241.10275 L 103.53076,238.6872 C 102.81768,239.45741 101.98179,240.1176 101.02309,240.66775 C 100.06436,241.2179 98.962343,241.70409 97.717051,242.1263 L 98.822476,245.64728 C 100.42686,245.14062 101.824,244.51626 103.01388,243.7742 C 104.20373,243.03213 105.26308,242.14165 106.19198,241.10275 L 106.19198,241.10275 z M 135.30202,229.68004 L 135.30202,233.36478 L 163.75647,233.36478 L 163.75647,229.68004 L 159.25289,229.68004 L 159.25289,218.83049 L 162.52822,218.83049 L 162.52822,215.14574 L 141.85269,215.14574 L 141.85269,213.87655 C 144.29637,213.58743 146.98316,213.01937 149.91308,212.17236 C 152.84293,211.32541 155.47855,210.21486 157.81993,208.84073 L 155.97756,205.68822 C 154.32924,206.64862 152.42167,207.48009 150.25482,208.18263 C 148.08792,208.88524 145.97109,209.4286 143.90432,209.81272 C 141.83751,210.19689 140.13009,210.39149 138.78206,210.39651 L 138.16794,210.39651 L 138.16794,229.68004 L 135.30202,229.68004 z M 129.77489,229.06591 L 129.77489,229.55721 C 129.80927,229.69117 129.76327,230.49231 129.63691,231.96064 C 129.51054,233.42898 129.09759,235.17027 128.39805,237.18449 C 127.6985,239.19872 126.50614,241.09163 124.82096,242.86325 L 127.40028,245.68822 C 129.45999,243.43061 130.91771,241.08127 131.77345,238.64019 C 132.62918,236.19911 133.13463,234.11058 133.28981,232.3746 C 133.44498,230.63863 133.50158,229.69951 133.45964,229.55721 L 133.45964,229.06591 L 129.77489,229.06591 z M 127.19557,206.2614 L 125.10755,209.29108 L 131.33068,213.58996 L 133.4187,210.56028 L 127.19557,206.2614 z M 127.19557,217.11095 L 125.10755,220.14063 L 131.33068,224.4395 L 133.4187,221.40982 L 127.19557,217.11095 z M 135.26108,241.79876 L 136.85781,245.48351 C 138.36666,244.73547 139.84226,243.61128 141.28462,242.11094 C 142.72694,240.6106 143.92619,238.80064 144.88237,236.68105 L 141.44327,235.12527 C 140.97584,236.11982 140.23206,237.28325 139.21194,238.61555 C 138.19181,239.94786 136.87485,241.00893 135.26108,241.79876 L 135.26108,241.79876 z M 163.83835,241.79876 C 162.22454,241.00893 160.90758,239.94786 159.88749,238.61555 C 158.86732,237.28325 158.12355,236.11982 157.65617,235.12527 L 154.21706,236.68105 C 155.1732,238.80064 156.37244,240.6106 157.81481,242.11094 C 159.25712,243.61128 160.73273,244.73547 162.24163,245.48351 L 163.83835,241.79876 z M 141.85269,229.68004 L 141.85269,218.83049 L 155.56814,218.83049 L 155.56814,229.68004 L 141.85269,229.68004 z"
       id="text2414" />
    <path
       style="font-size:43px;font-style:normal;font-variant:normal;font-weight:normal;font-stretch:normal;text-align:start;line-height:125%;writing-mode:lr-tb;text-anchor:start;fill:#005d35;fill-opacity:1;fill-rule:nonzero;stroke:none;stroke-width:1;stroke-linecap:butt;stroke-linejoin:round;stroke-miterlimit:4;stroke-dashoffset:0;stroke-opacity:1;marker:none;marker-start:none;marker-mid:none;marker-end:none;visibility:visible;display:inline;overflow:visible;enable-background:accumulate;font-family:GD-HighwayGothicJA-OTF;-inkscape-font-specification:GD-HighwayGothicJA-OTF"
       d="M 43.655248,316.77908 C 47.755401,316.75492 51.089646,317.79228 53.657993,319.89117 C 56.226283,321.99009 57.550306,325.29567 57.630068,329.80791 C 57.567328,333.9708 56.177014,337.27638 53.459121,339.72466 C 50.741172,342.17294 47.07189,343.4253 42.451263,343.48174 C 38.902899,343.49607 35.819483,342.56441 33.201007,340.68677 C 30.582514,338.80913 29.208325,335.89951 29.078435,331.95789 L 35.743349,331.95789 C 35.79888,333.94124 36.494037,335.44622 37.828822,336.47283 C 39.163582,337.49944 40.804726,338.01543 42.752259,338.02081 C 44.931773,338.0011 46.732373,337.27728 48.154064,335.84934 C 49.575708,334.4214 50.312073,332.40759 50.363161,329.80791 C 50.379261,327.63824 49.77727,325.80719 48.557184,324.31473 C 47.337052,322.82231 45.402079,322.04474 42.752259,321.98202 C 41.215012,321.99457 39.871281,322.27049 38.72106,322.80975 C 37.570813,323.34905 36.678576,324.07646 36.044345,324.99198 L 29.680427,324.99198 L 33.034384,303.75025 L 55.824091,303.75025 L 55.824091,309.21118 L 38.495314,309.21118 L 36.990333,319.23005 C 37.802831,318.52596 38.757776,317.94546 39.855172,317.48857 C 40.952538,317.03172 42.219229,316.79523 43.655248,316.77908 L 43.655248,316.77908 z"
       id="text2418" />
    <path
       style="font-size:43px;font-style:normal;font-variant:normal;font-weight:normal;font-stretch:normal;text-align:start;line-height:125%;writing-mode:lr-tb;text-anchor:start;fill:#ffffff;fill-opacity:1;fill-rule:nonzero;stroke:none;stroke-width:1;stroke-linecap:butt;stroke-linejoin:round;marker:none;marker-start:none;marker-mid:none;marker-end:none;stroke-miterlimit:4;stroke-dashoffset:0;stroke-opacity:1;visibility:visible;display:inline;overflow:visible;enable-background:accumulate;font-family:GD-HighwayGothicJA-OTF;-inkscape-font-specification:GD-HighwayGothicJA-OTF"
       d="M 93.801633,326.71756 L 93.801633,330.42891 L 112.19339,330.42891 C 110.12463,331.17118 107.70539,331.54231 104.93565,331.54231 L 104.93565,334.55262 L 91.945964,334.55262 L 91.945964,338.26395 L 104.93565,338.26395 L 104.93565,342.38766 L 108.647,342.38766 L 108.647,338.26395 L 123.07998,338.26395 L 123.07998,334.55262 L 111.32741,334.55262 C 113.26723,334.07839 115.00607,333.37736 116.54389,332.44953 C 118.08167,331.5217 119.40812,330.36706 120.52328,328.9856 L 122.25524,326.71756 L 93.801633,326.71756 z M 86.997511,329.81034 C 86.994071,332.33011 86.712285,334.35244 86.15215,335.87735 C 85.59201,337.40227 84.77414,339.02254 83.698542,340.73817 L 86.791326,342.80004 C 88.091148,340.70209 89.06881,338.73302 89.724314,336.89282 C 90.379804,335.05262 90.707984,332.69179 90.708851,329.81034 L 90.708851,308.98561 L 123.07998,308.98561 L 123.07998,305.27427 L 86.997511,305.27427 L 86.997511,329.81034 z M 121.4305,324.8619 L 121.4305,311.25365 L 92.976892,311.25365 L 92.976892,324.8619 L 121.4305,324.8619 z M 117.71916,321.15055 L 96.688231,321.15055 L 96.688231,319.91344 L 117.71916,319.91344 L 117.71916,321.15055 z M 117.71916,314.96499 L 117.71916,316.2021 L 96.688231,316.2021 L 96.688231,314.96499 L 117.71916,314.96499 z M 125.76092,309.60416 L 125.76092,313.31551 L 141.59597,313.31551 C 139.78925,316.98133 137.42328,320.43321 134.49803,323.67117 C 131.57277,326.90916 128.41298,329.58785 125.01865,331.70726 L 126.87432,334.88251 C 130.09854,332.89026 133.10369,330.47272 135.88979,327.62993 C 138.67584,324.78716 141.07276,321.72016 143.08051,318.42891 L 143.08051,342.38766 L 146.79185,342.38766 L 146.79185,318.42891 C 148.79956,321.72016 151.19646,324.78716 153.98257,327.62993 C 156.76861,330.47272 159.77378,332.89026 162.99803,334.88251 L 164.85371,331.70726 C 161.45934,329.58785 158.29954,326.90916 155.37432,323.67117 C 152.44904,320.43321 150.08306,316.98133 148.27638,313.31551 L 164.11144,313.31551 L 164.11144,309.60416 L 146.79185,309.60416 L 146.79185,302.80004 L 143.08051,302.80004 L 143.08051,309.60416 L 125.76092,309.60416 z"
       id="text3192" />
    <path
       style="font-size:43px;font-style:normal;font-variant:normal;font-weight:normal;font-stretch:normal;text-align:start;line-height:125%;writing-mode:lr-tb;text-anchor:start;fill:#ffffff;fill-opacity:1;fill-rule:nonzero;stroke:none;stroke-width:1;stroke-linecap:butt;stroke-linejoin:round;marker:none;marker-start:none;marker-mid:none;marker-end:none;stroke-miterlimit:4;stroke-dashoffset:0;stroke-opacity:1;visibility:visible;display:inline;overflow:visible;enable-background:accumulate;font-family:GD-HighwayGothicJA-OTF;-inkscape-font-specification:GD-HighwayGothicJA-OTF"
       d="M 38.003057,407.12507 L 40.464597,409.99687 C 41.370557,409.17125 42.235515,408.26869 43.059455,407.28918 C 43.883375,406.30971 44.645765,405.28408 45.346635,404.21225 L 51.295355,404.21225 C 50.700455,405.33877 50.033795,406.42937 49.295365,407.48404 C 48.556875,408.53877 47.746615,409.56783 46.864585,410.57122 L 41.285107,410.57122 L 41.285107,414.26353 L 46.208175,414.26353 L 46.208175,418.77635 L 39.028697,418.77635 L 39.028697,422.46866 L 46.208175,422.46866 L 46.208175,426.98148 L 41.285107,426.98148 L 41.285107,430.67379 L 46.208175,430.67379 L 46.208175,433.95584 L 43.541515,433.95584 L 43.541515,437.64815 L 46.208175,437.64815 C 47.349175,437.63532 48.246605,437.30199 48.900485,436.64814 C 49.554305,435.9943 49.887635,435.09687 49.900485,433.95584 L 49.900485,430.67379 L 57.285105,430.67379 L 57.285105,422.46866 L 59.746645,422.46866 L 59.746645,418.77635 L 57.285105,418.77635 L 57.285105,410.57122 L 51.582545,410.57122 C 52.565415,409.24218 53.461135,407.86954 54.269715,406.45327 C 55.078225,405.03706 55.809845,403.5516 56.464585,401.99687 L 57.079975,400.51994 L 47.356895,400.51994 C 47.514135,400.19177 47.650885,399.86356 47.767155,399.53533 L 44.279975,398.30456 C 43.682515,399.87725 42.826105,401.44989 41.710747,403.0225 C 40.595347,404.59519 39.359447,405.96271 38.003057,407.12507 L 38.003057,407.12507 z M 22.003045,412.00712 L 22.003045,415.69943 L 38.413307,415.69943 L 38.413307,412.00712 L 32.054327,412.00712 L 32.054327,410.36609 L 36.977407,410.36609 L 36.977407,406.67378 L 32.054327,406.67378 L 32.054327,405.44302 L 37.592797,405.44302 L 37.592797,401.75071 L 32.054327,401.75071 L 32.054327,398.87892 L 28.362017,398.87892 L 28.362017,401.75071 L 22.823558,401.75071 L 22.823558,405.44302 L 28.362017,405.44302 L 28.362017,406.67378 L 23.233815,406.67378 L 23.233815,410.36609 L 28.362017,410.36609 L 28.362017,412.00712 L 22.003045,412.00712 z M 33.900487,437.85327 L 37.592797,437.85327 L 37.592797,417.75071 L 22.823558,417.75071 L 22.823558,437.85327 L 26.515865,437.85327 L 26.515865,433.95584 L 33.900487,433.95584 L 33.900487,437.85327 z M 26.515865,421.44302 L 33.900487,421.44302 L 33.900487,424.10969 L 26.515865,424.10969 L 26.515865,421.44302 z M 49.900485,418.77635 L 49.900485,414.26353 L 53.592795,414.26353 L 53.592795,418.77635 L 49.900485,418.77635 z M 33.900487,427.80199 L 33.900487,430.26354 L 26.515865,430.26354 L 26.515865,427.80199 L 33.900487,427.80199 z M 49.900485,422.46866 L 53.592795,422.46866 L 53.592795,426.98148 L 49.900485,426.98148 L 49.900485,422.46866 z M 99.993325,400.23276 L 64.054855,400.23276 L 64.054855,438.30456 L 67.952295,438.30456 L 67.952295,403.9661 L 96.095885,403.9661 L 96.095885,438.30456 L 99.993325,438.30456 L 99.993325,400.23276 z M 70.290765,414.55071 L 70.290765,418.48917 L 80.136915,418.48917 L 80.136915,431.90455 L 74.639475,431.90455 L 74.639475,421.93533 L 70.865115,421.93533 L 70.865115,435.67891 L 93.183065,435.67891 L 93.183065,421.93533 L 89.408705,421.93533 L 89.408705,431.90455 L 83.911265,431.90455 L 83.911265,418.48917 L 93.757425,418.48917 L 93.757425,414.55071 L 88.957425,414.55071 L 91.172815,406.87891 L 87.562555,405.7302 L 84.936915,414.55071 L 78.988195,414.55071 L 76.362555,405.7302 L 72.752305,406.87891 L 74.967685,414.55071 L 70.290765,414.55071 z"
       id="text3224" />
    <path
       style="font-size:40px;font-style:normal;font-variant:normal;font-weight:normal;font-stretch:normal;text-align:start;line-height:125%;writing-mode:lr-tb;text-anchor:start;fill:#ffffff;fill-opacity:1;fill-rule:nonzero;stroke:none;stroke-width:1;stroke-linecap:butt;stroke-linejoin:round;stroke-miterlimit:4;stroke-dashoffset:0;stroke-opacity:1;marker:none;marker-start:none;marker-mid:none;marker-end:none;visibility:visible;display:inline;overflow:visible;enable-background:accumulate;font-family:GD-HighwayGothicJA-OTF;-inkscape-font-specification:GD-HighwayGothicJA-OTF"
       d="M 219.80146,212.73582 L 225.16139,212.73582 L 225.16139,249.45535 L 218.96147,249.45535 L 218.96147,224.05568 L 209.60159,224.05568 L 209.60159,220.09573 L 212.16156,220.09573 C 213.94325,220.05378 215.39755,219.63552 216.52447,218.84093 C 217.65135,218.0464 218.48047,217.1274 219.01184,216.08393 C 219.54318,215.04052 219.80638,214.12448 219.80146,213.33582 L 219.80146,212.73582 z M 253.70771,212.73582 L 259.06764,212.73582 L 259.06764,249.45535 L 252.86772,249.45535 L 252.86772,224.05568 L 243.50784,224.05568 L 243.50784,220.09573 L 246.06781,220.09573 C 247.8495,220.05378 249.3038,219.63552 250.43072,218.84093 C 251.5576,218.0464 252.38672,217.1274 252.91809,216.08393 C 253.44943,215.04052 253.71263,214.12448 253.70771,213.33582 L 253.70771,212.73582 z M 292.1339,249.45535 L 284.09401,237.8555 L 280.53405,241.53545 L 280.53405,249.45535 L 274.61413,249.45535 L 274.61413,212.17583 L 280.53405,212.17583 L 280.53405,235.17554 L 291.29391,223.49569 L 298.33382,223.49569 L 287.73396,234.21555 L 299.49381,249.45535 L 292.1339,249.45535 z M 334.26124,222.6557 C 336.97117,222.73239 339.10114,223.56904 340.65116,225.16566 C 342.2011,226.76233 342.99109,228.65897 343.02113,230.85559 L 343.02113,249.45535 L 337.10121,249.45535 L 337.10121,231.97558 C 337.10534,230.77811 336.73701,229.69312 335.99622,228.72062 C 335.25536,227.74815 334.11704,227.23316 332.58126,227.17564 C 330.96792,227.20399 329.58461,227.77732 328.43132,228.89562 C 327.27797,230.01395 326.67465,231.50726 326.62134,233.37556 L 326.62134,249.45535 L 320.70142,249.45535 L 320.70142,231.97558 C 320.70556,230.77811 320.33724,229.69312 319.59643,228.72062 C 318.85559,227.74815 317.71727,227.23316 316.18148,227.17564 C 314.56815,227.20399 313.18484,227.77732 312.03153,228.89562 C 310.8782,230.01395 310.27487,231.50726 310.22155,233.37556 L 310.22155,249.45535 L 304.30163,249.45535 L 304.30163,223.49569 L 309.94156,223.49569 L 310.10155,227.01564 C 310.96487,225.60901 312.07818,224.53236 313.44151,223.78568 C 314.80481,223.03905 316.27813,222.66239 317.86145,222.6557 C 319.85891,222.68572 321.55389,223.15571 322.94639,224.06568 C 324.33885,224.97569 325.32383,226.14567 325.90135,227.57563 C 326.84215,226.07567 328.04046,224.88569 329.4963,224.00568 C 330.95209,223.12571 332.5404,222.67572 334.26124,222.6557 L 334.26124,222.6557 z"
       id="text3200" />
    <path
       style="font-size:40px;font-style:normal;font-variant:normal;font-weight:normal;font-stretch:normal;text-align:start;line-height:125%;writing-mode:lr-tb;text-anchor:start;fill:#ffffff;fill-opacity:1;fill-rule:nonzero;stroke:none;stroke-width:1;stroke-linecap:butt;stroke-linejoin:round;stroke-miterlimit:4;stroke-dashoffset:0;stroke-opacity:1;marker:none;marker-start:none;marker-mid:none;marker-end:none;visibility:visible;display:inline;overflow:visible;enable-background:accumulate;font-family:GD-HighwayGothicJA-OTF;-inkscape-font-specification:GD-HighwayGothicJA-OTF"
       d="M 233.08129,322.92826 C 233.02262,325.37304 232.29992,327.48593 230.91319,329.26693 C 229.52641,331.04796 227.82748,332.64836 225.81638,334.06812 C 223.80524,335.4879 221.83381,336.8783 219.90209,338.23931 C 217.97032,339.60034 216.43014,341.08324 215.28152,342.68801 L 233.08129,342.68801 L 233.08129,347.76794 L 207.64162,347.76794 C 207.7387,344.62423 208.70952,341.93927 210.55408,339.71305 C 212.39863,337.48683 214.53443,335.50186 216.9615,333.75812 C 219.38853,332.01441 221.52434,330.29443 223.36892,328.59819 C 225.21345,326.90198 226.18427,325.012 226.28138,322.92826 C 226.24302,320.65748 225.6497,318.91917 224.5014,317.71333 C 223.35306,316.50754 221.87975,315.89921 220.08146,315.88835 C 218.2948,315.89922 216.86815,316.50754 215.80151,317.71333 C 214.73485,318.91917 214.18819,320.65748 214.16153,322.92826 C 214.16152,323.12078 214.16152,323.24578 214.16153,323.30326 C 214.16152,323.36078 214.16152,323.51578 214.16153,323.76825 L 207.64162,323.76825 C 207.64161,323.76077 207.64161,323.67577 207.64162,323.51325 C 207.64161,323.35078 207.64161,323.15578 207.64162,322.92826 C 207.76245,318.71168 209.04076,315.62505 211.47657,313.66838 C 213.91236,311.71177 216.78065,310.74512 220.08146,310.76842 C 223.59806,310.74512 226.61468,311.71177 229.13134,313.66838 C 231.64795,315.62505 232.9646,318.71168 233.08129,322.92826 L 233.08129,322.92826 z M 255.66769,324.36824 C 259.89594,324.47493 263.02923,325.67158 265.06756,327.9582 C 267.10584,330.24485 268.11916,332.98148 268.10753,336.16809 C 268.11614,338.19795 267.65886,340.15595 266.73569,342.04209 C 265.81246,343.92824 264.3715,345.48328 262.41278,346.70722 C 260.45402,347.93115 257.92566,348.56472 254.8277,348.60793 C 252.40938,348.60293 250.25608,348.19293 248.36778,347.37795 C 246.47946,346.56296 244.96615,345.37297 243.82784,343.80799 C 242.56618,342.15968 241.67953,340.21638 241.16787,337.97807 C 240.65621,335.73977 240.40955,332.89648 240.42788,329.44818 C 240.47282,324.94875 241.19626,321.32559 242.59822,318.57869 C 244.00017,315.83184 245.81101,313.83829 248.03075,312.59802 C 250.25046,311.35783 252.60944,310.74796 255.10769,310.76842 C 259.31262,310.88762 262.35258,311.92927 264.22758,313.89338 C 266.10252,315.85755 267.02251,318.02919 266.98754,320.4083 L 260.78762,320.4083 C 260.77343,319.2225 260.27177,318.18418 259.28264,317.29333 C 258.29346,316.40254 256.90182,315.93421 255.10769,315.88835 C 252.62354,315.84588 250.6619,316.77087 249.22277,318.66332 C 247.78361,320.55582 247.01195,323.67077 246.9078,328.0082 C 247.91028,326.92906 249.14526,326.05741 250.61275,325.39323 C 252.08022,324.72909 253.76519,324.38743 255.66769,324.36824 L 255.66769,324.36824 z M 254.4277,343.528 C 256.26766,343.52383 257.90764,342.90217 259.34764,341.66302 C 260.7876,340.42387 261.54759,338.59223 261.62761,336.16809 C 261.54759,333.67147 260.7876,331.87483 259.34764,330.77816 C 257.90764,329.68152 256.26766,329.14486 254.4277,329.16818 C 252.56854,329.14486 250.9169,329.68152 249.47277,330.77816 C 248.02861,331.87483 247.26695,333.67147 247.1878,336.16809 C 247.26695,338.59223 248.02861,340.42387 249.47277,341.66302 C 250.9169,342.90217 252.56854,343.52383 254.4277,343.528 L 254.4277,343.528 z M 292.1339,347.76794 L 284.09401,336.16809 L 280.53405,339.84804 L 280.53405,347.76794 L 274.61413,347.76794 L 274.61413,310.48842 L 280.53405,310.48842 L 280.53405,333.48813 L 291.29391,321.80828 L 298.33382,321.80828 L 287.73396,332.52814 L 299.49381,347.76794 L 292.1339,347.76794 z M 334.26124,320.96829 C 336.97117,321.04498 339.10114,321.88163 340.65116,323.47826 C 342.2011,325.07492 342.99109,326.97156 343.02113,329.16818 L 343.02113,347.76794 L 337.10121,347.76794 L 337.10121,330.28817 C 337.10534,329.0907 336.73701,328.00571 335.99622,327.03321 C 335.25536,326.06074 334.11704,325.54575 332.58126,325.48823 C 330.96792,325.51658 329.58461,326.08991 328.43132,327.20821 C 327.27797,328.32654 326.67465,329.81986 326.62134,331.68815 L 326.62134,347.76794 L 320.70142,347.76794 L 320.70142,330.28817 C 320.70556,329.0907 320.33724,328.00571 319.59643,327.03321 C 318.85559,326.06074 317.71727,325.54575 316.18148,325.48823 C 314.56815,325.51658 313.18484,326.08991 312.03153,327.20821 C 310.8782,328.32654 310.27487,329.81986 310.22155,331.68815 L 310.22155,347.76794 L 304.30163,347.76794 L 304.30163,321.80828 L 309.94156,321.80828 L 310.10155,325.32823 C 310.96487,323.9216 312.07818,322.84495 313.44151,322.09827 C 314.80481,321.35164 316.27813,320.97498 317.86145,320.96829 C 319.85891,320.99831 321.55389,321.4683 322.94639,322.37827 C 324.33885,323.28828 325.32383,324.45826 325.90135,325.88822 C 326.84215,324.38826 328.04046,323.19828 329.4963,322.31827 C 330.95209,321.4383 332.5404,320.98831 334.26124,320.96829 L 334.26124,320.96829 z"
       id="text3204" />
    <path
       style="font-size:40px;font-style:normal;font-variant:normal;font-weight:normal;font-stretch:normal;text-align:start;line-height:125%;writing-mode:lr-tb;text-anchor:start;fill:#ffffff;fill-opacity:1;fill-rule:nonzero;stroke:none;stroke-width:1;stroke-linecap:butt;stroke-linejoin:round;stroke-miterlimit:4;stroke-dashoffset:0;stroke-opacity:1;marker:none;marker-start:none;marker-mid:none;marker-end:none;visibility:visible;display:inline;overflow:visible;enable-background:accumulate;font-family:GD-HighwayGothicJA-OTF;-inkscape-font-specification:GD-HighwayGothicJA-OTF"
       d="M 185.90058,400.88579 L 191.26051,400.88579 L 191.26051,437.60531 L 185.06059,437.60531 L 185.06059,412.20564 L 175.70071,412.20564 L 175.70071,408.24569 L 178.26068,408.24569 C 180.04238,408.20374 181.49668,407.78548 182.62359,406.99089 C 183.75047,406.19636 184.57959,405.27736 185.11096,404.23389 C 185.6423,403.19048 185.9055,402.27444 185.90058,401.48578 L 185.90058,400.88579 z M 220.64682,413.60562 C 224.46092,413.58314 227.56254,414.54813 229.9517,416.50059 C 232.34081,418.45308 233.57246,421.52803 233.64665,425.72547 C 233.58829,429.59792 232.29498,432.67288 229.7667,434.95035 C 227.23838,437.22782 223.82509,438.3928 219.52684,438.4453 C 216.22603,438.45863 213.35774,437.59198 210.92195,435.84534 C 208.48614,434.09869 207.20782,431.39206 207.087,427.72544 L 213.28692,427.72544 C 213.33857,429.57042 213.98523,430.9704 215.22689,431.92539 C 216.46853,432.88038 217.99517,433.36037 219.80683,433.36537 C 221.83429,433.34704 223.50926,432.67371 224.83177,431.34539 C 226.15423,430.01708 226.83922,428.14378 226.88674,425.72547 C 226.90172,423.70717 226.34173,422.00386 225.20676,420.61553 C 224.07176,419.22723 222.27178,418.50391 219.80683,418.44556 C 218.37684,418.45724 217.12685,418.71391 216.05688,419.21555 C 214.98688,419.71723 214.15689,420.39388 213.56691,421.24553 L 207.64699,421.24553 L 210.76695,401.48578 L 231.96668,401.48578 L 231.96668,406.56571 L 215.84688,406.56571 L 214.4469,415.88559 C 215.20271,415.23062 216.09103,414.69063 217.11187,414.26561 C 218.13267,413.84064 219.31099,413.62064 220.64682,413.60562 L 220.64682,413.60562 z M 260.073,418.44556 C 262.43211,419.15807 264.26375,420.28305 265.56793,421.82052 C 266.87205,423.35801 267.53371,425.23298 267.5529,427.44545 C 267.42454,430.86124 266.06123,433.53953 263.46296,435.48034 C 260.86463,437.42115 257.80134,438.40947 254.27308,438.4453 C 252.10346,438.47172 249.98941,438.13888 247.93093,437.4468 C 245.87243,436.75471 244.16727,435.54485 242.81544,433.81722 C 241.46361,432.08959 240.76287,429.68567 240.71325,426.60546 L 247.19317,426.60546 C 247.25816,429.1096 247.97815,430.87124 249.35314,431.89039 C 250.72811,432.90954 252.36808,433.4012 254.27308,433.36537 C 256.0847,433.35454 257.61135,432.81621 258.85302,431.75039 C 260.09464,430.68457 260.7413,429.15626 260.79299,427.16545 C 260.82713,425.62381 260.32881,424.29716 259.29801,423.1855 C 258.26717,422.07386 256.49886,421.4272 253.99308,421.24553 C 253.80056,421.24554 253.48557,421.24554 253.04809,421.24553 C 252.61058,421.24554 252.36558,421.24554 252.3131,421.24553 L 252.3131,416.72558 C 252.60475,416.7256 252.86141,416.7256 253.08309,416.72558 C 253.30474,416.7256 253.4214,416.7256 253.43309,416.72558 C 255.30138,416.69727 256.79469,416.19394 257.91303,415.2156 C 259.03133,414.2373 259.60465,412.95399 259.63301,411.36565 C 259.60632,409.3982 259.05966,407.96322 257.99303,407.06071 C 256.92635,406.15825 255.49971,405.71325 253.71308,405.72573 C 251.92476,405.70742 250.49144,406.23408 249.41314,407.3057 C 248.33481,408.37738 247.78148,410.10403 247.75316,412.48564 L 241.27324,412.48564 C 241.36657,408.52571 242.58989,405.55576 244.9432,403.57575 C 247.29649,401.59581 250.21978,400.60582 253.71308,400.60579 C 257.21802,400.62332 260.18798,401.50831 262.62297,403.26076 C 265.05791,405.01326 266.32789,407.52823 266.43292,410.80566 C 266.38039,412.83649 265.7454,414.4748 264.52794,415.7206 C 263.31043,416.96643 261.82545,417.87475 260.073,418.44556 L 260.073,418.44556 z M 292.13927,437.60531 L 284.09938,426.00546 L 280.53942,429.68542 L 280.53942,437.60531 L 274.6195,437.60531 L 274.6195,400.32579 L 280.53942,400.32579 L 280.53942,423.3255 L 291.29928,411.64565 L 298.33919,411.64565 L 287.73933,422.36551 L 299.49918,437.60531 L 292.13927,437.60531 z M 334.26661,410.80566 C 336.97654,410.88235 339.10651,411.719 340.65653,413.31563 C 342.20647,414.91229 342.99646,416.80893 343.0265,419.00555 L 343.0265,437.60531 L 337.10658,437.60531 L 337.10658,420.12554 C 337.11071,418.92807 336.74238,417.84308 336.00159,416.87058 C 335.26073,415.89811 334.12242,415.38312 332.58664,415.3256 C 330.97329,415.35395 329.58998,415.92728 328.43669,417.04558 C 327.28334,418.16391 326.68002,419.65723 326.62671,421.52552 L 326.62671,437.60531 L 320.70679,437.60531 L 320.70679,420.12554 C 320.71094,418.92807 320.34261,417.84308 319.6018,416.87058 C 318.86096,415.89811 317.72264,415.38312 316.18685,415.3256 C 314.57352,415.35395 313.19021,415.92728 312.0369,417.04558 C 310.88357,418.16391 310.28025,419.65723 310.22692,421.52552 L 310.22692,437.60531 L 304.307,437.60531 L 304.307,411.64565 L 309.94693,411.64565 L 310.10693,415.1656 C 310.97024,413.75898 312.08355,412.68232 313.44688,411.93564 C 314.81018,411.18901 316.2835,410.81235 317.86683,410.80566 C 319.86428,410.83568 321.55926,411.30568 322.95176,412.21564 C 324.34422,413.12565 325.3292,414.29564 325.90672,415.7256 C 326.84752,414.22564 328.04583,413.03565 329.50168,412.15564 C 330.95746,411.27568 332.54577,410.82568 334.26661,410.80566 L 334.26661,410.80566 z"
       id="text3208" />
    <path
       style="font-size:22px;font-style:normal;font-variant:normal;font-weight:normal;font-stretch:normal;text-align:start;line-height:125%;writing-mode:lr-tb;text-anchor:start;fill:#ffffff;fill-opacity:1;fill-rule:nonzero;stroke:none;stroke-width:1;stroke-linecap:butt;stroke-linejoin:round;stroke-miterlimit:4;stroke-dashoffset:0;stroke-opacity:1;marker:none;marker-start:none;marker-mid:none;marker-end:none;visibility:visible;display:inline;overflow:visible;enable-background:accumulate;font-family:GD-HighwayGothicJA-OTF;-inkscape-font-specification:GD-HighwayGothicJA-OTF"
       d="M 98.319204,255.10008 L 91.323294,267.28792 L 91.323294,275.60382 L 87.913338,275.60382 L 87.913338,267.28792 L 80.917428,255.10008 L 84.789379,255.10008 L 89.607316,264.73596 L 94.425254,255.10008 L 98.319204,255.10008 z M 108.18186,276.06581 C 106.1808,276.04014 104.46849,275.35448 103.04493,274.00884 C 101.62136,272.66319 100.87704,270.81155 100.81196,268.45391 C 100.87704,266.10682 101.62136,264.2616 103.04493,262.91823 C 104.46849,261.57488 106.1808,260.89014 108.18186,260.86401 C 110.19345,260.89014 111.91218,261.57488 113.33805,262.91823 C 114.76389,264.2616 115.50913,266.10682 115.57377,268.45391 C 115.50913,270.81155 114.76389,272.66319 113.33805,274.00884 C 111.91218,275.35448 110.19345,276.04014 108.18186,276.06581 L 108.18186,276.06581 z M 112.14181,268.45391 C 112.08405,266.54086 111.63856,265.18054 110.80533,264.37296 C 109.97208,263.5654 109.09759,263.17307 108.18186,263.19598 C 107.26612,263.17307 106.39163,263.5654 105.5584,264.37296 C 104.72515,265.18054 104.27966,266.54086 104.22192,268.45391 C 104.27966,270.37751 104.72515,271.74424 105.5584,272.5541 C 106.39163,273.36397 107.26612,273.75721 108.18186,273.73384 C 109.09759,273.75721 109.97208,273.36397 110.80533,272.5541 C 111.63856,271.74424 112.08405,270.37751 112.14181,268.45391 L 112.14181,268.45391 z M 128.2943,275.60382 L 123.87235,269.2239 L 121.91438,271.24787 L 121.91438,275.60382 L 118.65842,275.60382 L 118.65842,255.10008 L 121.91438,255.10008 L 121.91438,267.74992 L 127.8323,261.326 L 131.70425,261.326 L 125.87433,267.22192 L 132.34224,275.60382 L 128.2943,275.60382 z M 141.74046,276.06581 C 139.73939,276.04014 138.02708,275.35448 136.60352,274.00884 C 135.17996,272.66319 134.43563,270.81155 134.37055,268.45391 C 134.43563,266.10682 135.17996,264.2616 136.60352,262.91823 C 138.02708,261.57488 139.73939,260.89014 141.74046,260.86401 C 143.75205,260.89014 145.47077,261.57488 146.89664,262.91823 C 148.32248,264.2616 149.06772,266.10682 149.13236,268.45391 C 149.06772,270.81155 148.32248,272.66319 146.89664,274.00884 C 145.47077,275.35448 143.75205,276.04014 141.74046,276.06581 L 141.74046,276.06581 z M 145.70041,268.45391 C 145.64265,266.54086 145.19715,265.18054 144.36392,264.37296 C 143.53068,263.5654 142.65619,263.17307 141.74046,263.19598 C 140.82471,263.17307 139.95022,263.5654 139.11699,264.37296 C 138.28375,265.18054 137.83825,266.54086 137.78051,268.45391 C 137.83825,270.37751 138.28375,271.74424 139.11699,272.5541 C 139.95023,273.36397 140.82471,273.75721 141.74046,273.73384 C 142.65619,273.75721 143.53067,273.36397 144.36392,272.5541 C 145.19715,271.74424 145.64265,270.37751 145.70041,268.45391 L 145.70041,268.45391 z M 159.98291,260.86401 C 161.4798,260.90618 162.67695,261.36634 163.57437,262.24449 C 164.47176,263.12265 164.93192,264.16581 164.95485,265.37395 L 164.95485,275.60382 L 161.69889,275.60382 L 161.69889,265.98994 C 161.70576,265.33133 161.49951,264.73459 161.08015,264.19971 C 160.66077,263.66485 159.98703,263.38161 159.05893,263.34997 C 158.09139,263.36557 157.25998,263.6809 156.56471,264.29596 C 155.86942,264.91105 155.50551,265.73237 155.47297,266.75993 L 155.47297,275.60382 L 152.21701,275.60382 L 152.21701,255.10008 L 155.47297,255.10008 L 155.47297,263.26197 C 155.99225,262.48833 156.64766,261.89617 157.4392,261.4855 C 158.23072,261.07485 159.07863,260.86768 159.98291,260.86401 L 159.98291,260.86401 z M 181.56588,275.60382 C 181.23098,275.60381 180.7861,275.60381 180.23123,275.60382 C 179.67633,275.60381 179.17279,275.60381 178.72058,275.60382 C 178.26835,275.60381 178.0288,275.60381 178.00193,275.60382 L 177.53993,273.73384 C 177.01468,274.55287 176.29419,275.14778 175.37846,275.51857 C 174.46271,275.88935 173.46723,276.07177 172.392,276.06581 C 171.1238,276.05664 170.09073,275.68998 169.29279,274.96582 C 168.49484,274.24167 168.08326,273.21501 168.05805,271.88586 C 168.0828,270.57184 168.5723,269.56444 169.52653,268.86365 C 170.48077,268.16287 171.75125,267.66696 173.33799,267.37592 C 174.87017,267.0936 175.95823,266.81127 176.60219,266.52893 C 177.24613,266.24661 177.55871,265.81028 177.53993,265.21995 C 177.56513,264.78913 177.39371,264.3528 177.02569,263.91097 C 176.65764,263.46915 175.94173,263.23082 174.87797,263.19598 C 173.74451,263.21799 172.98094,263.48198 172.58725,263.98796 C 172.19354,264.49397 171.97446,265.10996 171.93,265.83594 L 168.67405,265.83594 C 168.80604,264.2043 169.47153,262.96866 170.67052,262.12899 C 171.8695,261.28935 173.27198,260.86768 174.87797,260.86401 C 176.49127,260.86952 177.86808,261.24351 179.00841,261.98599 C 180.14872,262.72849 180.74454,263.80648 180.79589,265.21995 C 180.79588,265.87316 180.79588,266.70806 180.79589,267.72466 C 180.79588,268.74127 180.79588,269.71631 180.79589,270.6498 C 180.79588,271.5833 180.79588,272.25198 180.79589,272.65585 C 180.78946,273.16368 180.84079,273.66601 180.94989,274.16283 C 181.05896,274.65966 181.26429,275.13999 181.56588,275.60382 L 181.56588,275.60382 z M 173.79998,273.73384 C 174.90867,273.70542 175.80424,273.37726 176.48669,272.74935 C 177.16913,272.12145 177.52021,271.36429 177.53993,270.47788 L 177.53993,267.90391 C 177.31488,268.17067 176.96747,268.40166 176.49769,268.59691 C 176.0279,268.79216 175.33399,269.00116 174.41597,269.2239 C 173.55202,269.45261 172.84894,269.75419 172.30675,270.12864 C 171.76454,270.50309 171.48496,271.03017 171.46801,271.70987 C 171.45792,272.41019 171.63209,272.92352 171.9905,273.24985 C 172.34891,273.57617 172.95207,273.73751 173.79998,273.73384 L 173.79998,273.73384 z M 201.0073,260.86401 C 202.49776,260.90618 203.66925,261.36634 204.52176,262.24449 C 205.37422,263.12265 205.80872,264.16581 205.82524,265.37395 L 205.82524,275.60382 L 202.56928,275.60382 L 202.56928,265.98994 C 202.57155,265.33133 202.36897,264.73459 201.96154,264.19971 C 201.55407,263.66485 200.92799,263.38161 200.08331,263.34997 C 199.19598,263.36557 198.43515,263.6809 197.80084,264.29596 C 197.1665,264.91105 196.83467,265.73237 196.80536,266.75993 L 196.80536,275.60382 L 193.5494,275.60382 L 193.5494,265.98994 C 193.55168,265.33133 193.3491,264.73459 192.94166,264.19971 C 192.53419,263.66485 191.90812,263.38161 191.06343,263.34997 C 190.1761,263.36557 189.41528,263.6809 188.78096,264.29596 C 188.14663,264.91105 187.8148,265.73237 187.78547,266.75993 L 187.78547,275.60382 L 184.52951,275.60382 L 184.52951,261.326 L 187.63147,261.326 L 187.71947,263.26197 C 188.19429,262.48833 188.80662,261.89617 189.55645,261.4855 C 190.30627,261.07485 191.11659,260.86768 191.98742,260.86401 C 193.08602,260.88052 194.01826,261.13901 194.78413,261.6395 C 195.54998,262.14 196.09173,262.78349 196.40936,263.56997 C 196.9268,262.74499 197.58587,262.0905 198.38659,261.60649 C 199.18727,261.12251 200.06084,260.87502 201.0073,260.86401 L 201.0073,260.86401 z M 222.47213,275.60382 C 222.13723,275.60381 221.69235,275.60381 221.13748,275.60382 C 220.58258,275.60381 220.07904,275.60381 219.62683,275.60382 C 219.1746,275.60381 218.93505,275.60381 218.90818,275.60382 L 218.44618,273.73384 C 217.92093,274.55287 217.20044,275.14778 216.28471,275.51857 C 215.36896,275.88935 214.37348,276.07177 213.29825,276.06581 C 212.03005,276.05664 210.99698,275.68998 210.19904,274.96582 C 209.40109,274.24167 208.98951,273.21501 208.9643,271.88586 C 208.98905,270.57184 209.47855,269.56444 210.43278,268.86365 C 211.38702,268.16287 212.6575,267.66696 214.24424,267.37592 C 215.77642,267.0936 216.86448,266.81127 217.50844,266.52893 C 218.15238,266.24661 218.46496,265.81028 218.44618,265.21995 C 218.47138,264.78913 218.29996,264.3528 217.93194,263.91097 C 217.56389,263.46915 216.84798,263.23082 215.78422,263.19598 C 214.65076,263.21799 213.88719,263.48198 213.4935,263.98796 C 213.09979,264.49397 212.88071,265.10996 212.83625,265.83594 L 209.5803,265.83594 C 209.71229,264.2043 210.37778,262.96866 211.57677,262.12899 C 212.77575,261.28935 214.17823,260.86768 215.78422,260.86401 C 217.39752,260.86952 218.77433,261.24351 219.91466,261.98599 C 221.05497,262.72849 221.65079,263.80648 221.70214,265.21995 C 221.70213,265.87316 221.70213,266.70806 221.70214,267.72466 C 221.70213,268.74127 221.70213,269.71631 221.70214,270.6498 C 221.70213,271.5833 221.70213,272.25198 221.70214,272.65585 C 221.69571,273.16368 221.74704,273.66601 221.85614,274.16283 C 221.96521,274.65966 222.17054,275.13999 222.47213,275.60382 L 222.47213,275.60382 z M 214.70623,273.73384 C 215.81492,273.70542 216.71049,273.37726 217.39294,272.74935 C 218.07538,272.12145 218.42646,271.36429 218.44618,270.47788 L 218.44618,267.90391 C 218.22113,268.17067 217.87372,268.40166 217.40394,268.59691 C 216.93415,268.79216 216.24024,269.00116 215.32222,269.2239 C 214.45827,269.45261 213.75519,269.75419 213.213,270.12864 C 212.67079,270.50309 212.39121,271.03017 212.37426,271.70987 C 212.36417,272.41019 212.53834,272.92352 212.89675,273.24985 C 213.25516,273.57617 213.85832,273.73751 214.70623,273.73384 L 214.70623,273.73384 z"
       id="text3243" />
    <path
       style="font-size:22px;font-style:normal;font-variant:normal;font-weight:normal;font-stretch:normal;text-align:start;line-height:125%;writing-mode:lr-tb;text-anchor:start;fill:#ffffff;fill-opacity:1;fill-rule:nonzero;stroke:none;stroke-width:1;stroke-linecap:butt;stroke-linejoin:round;stroke-miterlimit:4;stroke-dashoffset:0;stroke-opacity:1;marker:none;marker-start:none;marker-mid:none;marker-end:none;visibility:visible;display:inline;overflow:visible;enable-background:accumulate;font-family:GD-HighwayGothicJA-OTF;-inkscape-font-specification:GD-HighwayGothicJA-OTF"
       d="M 20.89798,454.21821 C 20.910811,452.67229 21.545135,451.31472 22.800955,450.14551 C 24.056767,448.97634 25.857075,448.36126 28.201886,448.30029 C 30.553094,448.33239 32.379069,448.92821 33.679815,450.08776 C 34.980532,451.24735 35.640523,452.77816 35.65979,454.6802 L 32.095835,454.6802 C 32.104073,453.71269 31.796077,452.88128 31.171847,452.18599 C 30.547593,451.49072 29.557607,451.12681 28.201886,451.09425 C 26.852562,451.14927 25.888242,451.50676 25.308922,452.16674 C 24.729591,452.82674 24.447261,453.45923 24.461934,454.06421 C 24.431679,454.60597 24.552677,455.10096 24.824929,455.54919 C 25.097169,455.99745 25.702161,456.38244 26.639906,456.70418 L 32.007837,458.39816 C 33.132099,458.78041 34.090003,459.3909 34.881549,460.22963 C 35.673064,461.06838 36.086475,462.21786 36.121784,463.67809 C 36.089684,465.42203 35.37836,466.85659 33.987811,467.98178 C 32.597232,469.10697 30.719925,469.68905 28.355884,469.72801 C 25.991824,469.73717 24.114517,469.21285 22.723956,468.15503 C 21.333388,467.09721 20.622065,465.4509 20.589984,463.21609 L 24.153938,463.21609 C 24.120016,464.25329 24.402346,465.14886 25.000926,465.90281 C 25.599495,466.65676 26.717813,467.05184 28.355884,467.08804 C 29.955435,467.02938 31.062753,466.64072 31.677841,465.92206 C 32.292903,465.2034 32.586232,464.50675 32.557829,463.83209 C 32.550483,463.21289 32.328652,462.70781 31.892338,462.31686 C 31.455997,461.92591 30.849173,461.60233 30.071862,461.34612 L 24.945928,459.65214 C 23.920644,459.36936 23.00124,458.81295 22.187713,457.98291 C 21.374179,457.15289 20.944268,455.89799 20.89798,454.21821 L 20.89798,454.21821 z M 47.312317,454.52621 C 48.809203,454.56839 50.006353,455.02855 50.903771,455.90669 C 51.801161,456.78485 52.261322,457.82801 52.284253,459.03615 L 52.284253,469.26602 L 49.028295,469.26602 L 49.028295,459.65214 C 49.035158,458.99353 48.828911,458.39679 48.409553,457.86191 C 47.990172,457.32705 47.316432,457.04381 46.388329,457.01217 C 45.420792,457.02777 44.589387,457.3431 43.894111,457.95816 C 43.198822,458.57325 42.834911,459.39457 42.802375,460.42213 L 42.802375,469.26602 L 39.546417,469.26602 L 39.546417,448.76228 L 42.802375,448.76228 L 42.802375,456.92418 C 43.321654,456.15053 43.977062,455.55837 44.7686,455.1477 C 45.560123,454.73705 46.408028,454.52989 47.312317,454.52621 L 47.312317,454.52621 z M 59.259406,469.26602 L 56.003448,469.26602 L 56.003448,454.9882 L 59.259406,454.9882 L 59.259406,469.26602 z M 59.259406,448.76228 L 59.259406,452.04024 L 56.003448,452.04024 L 56.003448,448.76228 L 59.259406,448.76228 z M 74.513206,454.9882 L 74.513206,457.32017 L 66.263313,466.93405 L 74.513206,466.93405 L 74.513206,469.26602 L 62.391363,469.26602 L 62.391363,466.93405 L 70.619257,457.32017 L 62.853357,457.32017 L 62.853357,454.9882 L 74.513206,454.9882 z M 87.098608,454.9882 L 90.354566,454.9882 L 90.354566,469.26602 L 87.252606,469.26602 L 87.164607,467.24204 C 86.642561,468.02899 85.976153,468.63856 85.165382,469.07077 C 84.354592,469.50297 83.495688,469.72205 82.588666,469.72801 C 81.091762,469.68584 79.894612,469.22568 78.997211,468.34753 C 78.099804,467.46937 77.639644,466.42622 77.61673,465.21807 L 77.61673,454.9882 L 80.872688,454.9882 L 80.872688,464.60208 C 80.867183,465.2607 81.07618,465.85744 81.499679,466.3923 C 81.923168,466.92717 82.594158,467.21042 83.512654,467.24204 C 84.480174,467.22646 85.311579,466.91113 86.006871,466.29605 C 86.702143,465.68098 87.066055,464.85966 87.098608,463.83209 L 87.098608,454.9882 z M 100.82767,469.72801 C 98.82661,469.70234 97.1143,469.01668 95.69074,467.67104 C 94.267172,466.32539 93.52285,464.47375 93.457769,462.11611 C 93.52285,459.76902 94.267173,457.9238 95.69074,456.58043 C 97.1143,455.23708 98.826609,454.55234 100.82767,454.52621 C 102.83926,454.55234 104.55799,455.23708 105.98386,456.58043 C 107.4097,457.9238 108.15494,459.76902 108.21958,462.11611 C 108.15494,464.47375 107.4097,466.32539 105.98386,467.67104 C 104.55799,469.01668 102.83926,469.70234 100.82767,469.72801 L 100.82767,469.72801 z M 104.78762,462.11611 C 104.72986,460.20306 104.28437,458.84274 103.45114,458.03516 C 102.61789,457.2276 101.7434,456.83527 100.82767,456.85818 C 99.911928,456.83527 99.037439,457.2276 98.204207,458.03516 C 97.370963,458.84274 96.925469,460.20306 96.867725,462.11611 C 96.925469,464.03971 97.370963,465.40644 98.204208,466.21631 C 99.037441,467.02617 99.911928,467.41941 100.82767,467.39604 C 101.7434,467.41942 102.61789,467.02617 103.45114,466.21631 C 104.28437,465.40644 104.72986,464.03971 104.78762,462.11611 L 104.78762,462.11611 z M 120.94011,469.26602 L 116.51816,462.8861 L 114.56019,464.91007 L 114.56019,469.26602 L 111.30423,469.26602 L 111.30423,448.76228 L 114.56019,448.76228 L 114.56019,461.41212 L 120.47811,454.9882 L 124.35006,454.9882 L 118.52014,460.88412 L 124.98805,469.26602 L 120.94011,469.26602 z M 140.52419,469.26602 C 140.18929,469.26601 139.74441,469.26601 139.18954,469.26602 C 138.63464,469.26601 138.1311,469.26601 137.67889,469.26602 C 137.22666,469.26601 136.98711,469.26601 136.96023,469.26602 L 136.49824,467.39604 C 135.97299,468.21507 135.2525,468.80998 134.33677,469.18077 C 133.42102,469.55155 132.42554,469.73397 131.35031,469.72801 C 130.08211,469.71884 129.04904,469.35218 128.2511,468.62802 C 127.45315,467.90387 127.04157,466.87721 127.01636,465.54806 C 127.04111,464.23404 127.5306,463.22664 128.48484,462.52585 C 129.43908,461.82508 130.70956,461.32917 132.29629,461.03812 C 133.82847,460.7558 134.91654,460.47347 135.5605,460.19113 C 136.20444,459.90881 136.51702,459.47248 136.49824,458.88215 C 136.52344,458.45133 136.35202,458.015 135.984,457.57317 C 135.61595,457.13135 134.90004,456.89302 133.83627,456.85818 C 132.70282,456.88019 131.93925,457.14418 131.54555,457.65017 C 131.15185,458.15617 130.93277,458.77216 130.88831,459.49814 L 127.63235,459.49814 C 127.76435,457.86651 128.42984,456.63086 129.62883,455.79119 C 130.82781,454.95155 132.23029,454.52989 133.83627,454.52621 C 135.44958,454.53172 136.82639,454.90571 137.96672,455.64819 C 139.10703,456.39069 139.70285,457.46868 139.7542,458.88215 C 139.75418,459.53536 139.75418,460.37026 139.7542,461.38686 C 139.75418,462.40347 139.75418,463.37852 139.7542,464.31201 C 139.75418,465.2455 139.75418,465.91418 139.7542,466.31805 C 139.74777,466.82588 139.7991,467.32821 139.9082,467.82503 C 140.01726,468.32186 140.22259,468.80219 140.52419,469.26602 L 140.52419,469.26602 z M 132.75829,467.39604 C 133.86697,467.36762 134.76255,467.03946 135.445,466.41155 C 136.12744,465.78365 136.47852,465.02649 136.49824,464.14008 L 136.49824,461.56612 C 136.27319,461.83287 135.92578,462.06386 135.456,462.25911 C 134.98621,462.45436 134.2923,462.66336 133.37428,462.8861 C 132.51033,463.11481 131.80725,463.41639 131.26506,463.79084 C 130.72285,464.16529 130.44327,464.69237 130.42632,465.37207 C 130.41623,466.07239 130.5904,466.58572 130.94881,466.91205 C 131.30722,467.23838 131.91038,467.39971 132.75829,467.39604 L 132.75829,467.39604 z"
       id="text3251" />
    <path
       style="font-size:22px;font-style:normal;font-variant:normal;font-weight:normal;font-stretch:normal;text-align:start;line-height:125%;writing-mode:lr-tb;text-anchor:start;fill:#ffffff;fill-opacity:1;fill-rule:nonzero;stroke:none;stroke-width:1;stroke-linecap:butt;stroke-linejoin:round;stroke-miterlimit:4;stroke-dashoffset:0;stroke-opacity:1;marker:none;marker-start:none;marker-mid:none;marker-end:none;visibility:visible;display:inline;overflow:visible;enable-background:accumulate;font-family:GD-HighwayGothicJA-OTF;-inkscape-font-specification:GD-HighwayGothicJA-OTF"
       d="M 96.605971,372.74429 L 95.043991,368.08035 L 86.662099,368.08035 L 85.100119,372.74429 L 81.536165,372.74429 L 88.840071,352.24055 L 92.866019,352.24055 L 100.19192,372.74429 L 96.605971,372.74429 z M 87.674086,365.28638 L 94.032004,365.28638 L 90.864045,355.8925 L 87.674086,365.28638 z M 110.44269,360.79844 L 107.64873,360.79844 L 107.64873,369.33433 C 107.61939,369.74179 107.79355,370.08186 108.17122,370.35457 C 108.54887,370.62727 109.30603,370.69786 110.44269,370.56632 L 110.44269,372.89829 C 109.53662,373.07048 108.62078,373.11964 107.69517,373.04577 C 106.76955,372.97189 105.99059,372.66579 105.35831,372.12748 C 104.72602,371.58917 104.39684,370.70945 104.37077,369.48833 L 104.37077,360.79844 L 102.1928,360.79844 L 102.1928,358.46647 L 104.37077,358.46647 L 104.37077,354.11053 L 107.64873,354.11053 L 107.64873,358.46647 L 110.44269,358.46647 L 110.44269,360.79844 z M 112.78166,362.51442 C 112.81741,361.17153 113.3674,360.08988 114.43164,359.26946 C 115.49587,358.44907 116.85985,358.02741 118.52359,358.00448 C 120.20426,358.01137 121.60033,358.42661 122.71178,359.25021 C 123.82321,360.07384 124.39979,361.26457 124.44151,362.82242 L 121.16355,362.82242 C 121.17042,362.17022 120.96417,361.59915 120.54481,361.10919 C 120.12543,360.61925 119.45169,360.36167 118.52359,360.33645 C 117.73663,360.34563 117.12706,360.51979 116.69486,360.85894 C 116.26265,361.19811 116.04357,361.64727 116.03762,362.20642 C 116.02432,362.58639 116.1279,362.90446 116.34836,363.16066 C 116.56882,363.41687 116.98589,363.64145 117.5996,363.8344 C 118.17571,364.0072 118.73945,364.16761 119.29083,364.31565 C 119.84219,364.46369 120.62043,364.68461 121.62555,364.97839 C 122.6861,365.28731 123.49643,365.75297 124.05652,366.37537 C 124.61658,366.99778 124.89891,367.77144 124.9035,368.69634 C 124.87782,369.97187 124.30767,371.03427 123.19303,371.88355 C 122.07836,372.73283 120.57322,373.17374 118.67758,373.20628 C 116.86948,373.19116 115.40925,372.75941 114.29689,371.91105 C 113.18453,371.06268 112.57679,369.88845 112.47366,368.38834 L 115.72962,368.38834 C 115.71633,369.10792 115.93541,369.69824 116.38686,370.15932 C 116.83831,370.6204 117.60188,370.85873 118.67758,370.87431 C 119.75327,370.84544 120.51684,370.63369 120.96831,370.23907 C 121.41975,369.84445 121.63883,369.44021 121.62555,369.02634 C 121.64387,368.70322 121.5522,368.39797 121.35055,368.1106 C 121.14888,367.82323 120.72722,367.57848 120.08557,367.37636 C 119.41732,367.19028 118.71333,366.99595 117.97359,366.79336 C 117.23385,366.59079 116.50786,366.37446 115.79562,366.14437 C 115.02517,365.945 114.3386,365.54076 113.7359,364.93164 C 113.1332,364.32253 112.81512,363.51679 112.78166,362.51442 L 112.78166,362.51442 z M 137.48169,358.46647 L 140.73765,358.46647 L 140.73765,372.74429 L 137.63569,372.74429 L 137.54769,370.72031 C 137.02564,371.50726 136.35924,372.11684 135.54847,372.54904 C 134.73768,372.98124 133.87877,373.20032 132.97175,373.20628 C 131.47485,373.16411 130.2777,372.70395 129.38029,371.8258 C 128.48289,370.94764 128.02273,369.90449 127.99981,368.69634 L 127.99981,358.46647 L 131.25577,358.46647 L 131.25577,368.08035 C 131.25027,368.73897 131.45926,369.33571 131.88276,369.87057 C 132.30625,370.40544 132.97724,370.68869 133.89574,370.72031 C 134.86326,370.70473 135.69466,370.3894 136.38995,369.77433 C 137.08523,369.15925 137.44914,368.33793 137.48169,367.31036 L 137.48169,358.46647 z M 155.5007,358.48847 L 158.29467,358.48847 L 158.29467,373.38228 C 158.2994,374.1835 158.06501,374.99858 157.59149,375.82751 C 157.11794,376.65643 156.37674,377.3558 155.36789,377.92563 C 154.35901,378.49544 153.05397,378.7923 151.45275,378.81621 C 149.00849,378.75799 147.29159,378.25292 146.30207,377.30098 C 145.31254,376.34903 144.80013,375.29946 144.76484,374.15227 L 148.1748,374.15227 C 148.156,374.6633 148.39158,375.17021 148.88154,375.673 C 149.37148,376.17578 150.22855,376.44619 151.45275,376.48424 C 152.68885,376.44298 153.59359,376.10199 154.16697,375.46125 C 154.74032,374.82051 155.02357,374.12752 155.01671,373.38228 L 155.01671,370.58832 C 154.47083,371.25014 153.82459,371.75247 153.07798,372.0953 C 152.33136,372.43812 151.52562,372.61045 150.66076,372.61229 C 148.88474,372.599 147.32184,371.96559 145.97207,370.71206 C 144.6223,369.45854 143.91189,367.66465 143.84085,365.33038 C 143.91189,362.98467 144.6223,361.1807 145.97207,359.91845 C 147.32184,358.65623 148.88474,358.01824 150.66076,358.00448 C 151.57054,358.00678 152.41294,358.2002 153.18798,358.58472 C 153.963,358.96927 154.62391,359.53118 155.17071,360.27045 L 155.5007,358.48847 z M 151.14476,370.28032 C 152.0472,370.31607 152.90427,369.97507 153.71597,369.25733 C 154.52766,368.53959 154.96124,367.23061 155.01671,365.33038 C 154.96124,363.41871 154.52766,362.09964 153.71597,361.37318 C 152.90427,360.64675 152.04719,360.30117 151.14476,360.33645 C 150.23176,360.30117 149.36827,360.64675 148.55429,361.37318 C 147.7403,362.09964 147.3058,363.41871 147.25081,365.33038 C 147.3058,367.23061 147.7403,368.53959 148.55429,369.25733 C 149.36827,369.97507 150.23176,370.31607 151.14476,370.28032 L 151.14476,370.28032 z M 165.28702,372.74429 L 162.03106,372.74429 L 162.03106,358.46647 L 165.28702,358.46647 L 165.28702,372.74429 z M 165.28702,352.24055 L 165.28702,355.51851 L 162.03106,355.51851 L 162.03106,352.24055 L 165.28702,352.24055 z"
       id="text3237" />
  </g>
</svg>
