<?xml version="1.0" encoding="UTF-8" standalone="no"?>
<!-- Created with Inkscape (http://www.inkscape.org/) -->

<svg
   xmlns:dc="http://purl.org/dc/elements/1.1/"
   xmlns:cc="http://creativecommons.org/ns#"
   xmlns:rdf="http://www.w3.org/1999/02/22-rdf-syntax-ns#"
   xmlns:svg="http://www.w3.org/2000/svg"
   xmlns="http://www.w3.org/2000/svg"
   xmlns:sodipodi="http://sodipodi.sourceforge.net/DTD/sodipodi-0.dtd"
   xmlns:inkscape="http://www.inkscape.org/namespaces/inkscape"
   version="1.1"
   width="1005.4"
   height="1005.4"
   id="svg2"
   xml:space="preserve"
   inkscape:version="0.48.4 r9939"
   sodipodi:docname="AJAX1.svg"><sodipodi:namedview
     pagecolor="#ffffff"
     bordercolor="#666666"
     borderopacity="1"
     objecttolerance="10"
     gridtolerance="10"
     guidetolerance="10"
     inkscape:pageopacity="0"
     inkscape:pageshadow="2"
     inkscape:window-width="1280"
     inkscape:window-height="1004"
     id="namedview28"
     showgrid="false"
     fit-margin-top="0.2"
     fit-margin-left="0.2"
     fit-margin-right="0.2"
     fit-margin-bottom="0.2"
     inkscape:zoom="0.51603029"
     inkscape:cx="712.24775"
     inkscape:cy="389.22367"
     inkscape:window-x="-8"
     inkscape:window-y="-8"
     inkscape:window-maximized="1"
     inkscape:current-layer="svg2" /><metadata
     id="metadata8"><rdf:RDF><cc:Work
         rdf:about=""><dc:format>image/svg+xml</dc:format><dc:type
           rdf:resource="http://purl.org/dc/dcmitype/StillImage" /></cc:Work></rdf:RDF></metadata><defs
     id="defs6" /><path
     inkscape:connector-curvature="0"
     style="fill:#ffffff;fill-opacity:1;stroke:#ed1c23;stroke-width:5;stroke-miterlimit:4;stroke-opacity:1;stroke-dasharray:none"
     d="M 2.7,502.70001 C 2.7,226.55763 226.55763,2.7 502.7,2.7 c 276.14238,0 500,223.85763 500,500.00001 0,276.14237 -223.85762,499.99999 -500,499.99999 -276.14237,0 -500,-223.85762 -500,-499.99999 z"
     id="path3854" /><path
     id="path14622"
     d="M 968.075,502.70001 C 968.075,245.68049 759.71952,37.325 502.7,37.325 245.68047,37.325 37.325,245.68049 37.325,502.70001 37.325,759.71953 245.68047,968.075 502.7,968.075 c 257.01952,0 465.375,-208.35547 465.375,-465.37499 z"
     style="fill:#ed1c23;fill-opacity:1;stroke:none"
     inkscape:connector-curvature="0" /><path
     id="path15520"
     d="m 835.55,502.7 c 0,-183.82797 -149.02204,-332.85 -332.85,-332.85 -183.82798,0 -332.85,149.02203 -332.85,332.85 0,183.82797 149.02202,332.84999 332.85,332.84999 183.82796,0 332.85,-149.02202 332.85,-332.84999 z"
     style="fill:#ffffff;fill-opacity:1;stroke:none"
     inkscape:connector-curvature="0" /><path
     style="fill:#ed1c23;fill-opacity:1;stroke:none"
     d="M 783.75726,851.49809 851.49809,783.75726 221.64272,153.9019 153.90189,221.64273 z"
     id="path3011"
     inkscape:connector-curvature="0"
     sodipodi:nodetypes="ccccc" /><path
     inkscape:connector-curvature="0"
     d="m 583.63664,658.85153 -87.72913,92.98024 c -2.48579,2.60582 -2.2489,6.75144 0.35691,9.23881 l 41.49565,38.37655 c 2.64371,2.44789 6.86987,2.32945 9.31776,-0.31585 l 85.79451,-91.08511 c 40.54807,-40.42962 47.73381,-111.93163 16.66143,-166.29842 L 591.02136,432.89572 568.91141,391.43956 c -0.98547,-2.05306 -1.50032,-5.88282 -1.73721,-10.66015 8.64657,5.13266 32.57269,19.81999 38.495,23.17596 6.51454,3.67184 20.01741,9.71259 29.41414,0.43431 9.39672,-9.19932 3.86924,-20.13585 -3.23753,-35.09955 L 538.19437,205.95286 c -1.85724,-3.23753 -4.81681,-3.23753 -6.5935,0 l -93.61196,163.33727 c -7.14625,14.9637 -12.79219,25.90023 -3.31649,35.09955 9.47569,9.27828 22.93907,3.23753 29.41413,-0.43431 4.85629,-2.76374 22.6627,-13.10804 33.8756,-19.62258 0.86861,14.5294 3.47442,28.66398 9.51518,40.03481 l 22.07047,41.33771 59.49946,110.66821 c 15.16111,26.53194 12.71322,64.31627 -5.40904,82.47801"
     style="fill:#ffffff;fill-opacity:1;fill-rule:nonzero;stroke:#ffffff;stroke-width:30;stroke-miterlimit:4;stroke-opacity:1;stroke-dasharray:none"
     id="path13075" /><path
     inkscape:connector-curvature="0"
     d="m 373.55261,627.18692 c 0,0 -24.59732,11.17342 -29.65102,14.01613 -4.30354,2.36893 -13.30545,6.3961 -19.5831,0.19899 -6.31713,-6.08023 -2.52685,-13.34493 2.211,-23.37338 l 64.63212,-112.6423 c 1.06444,-1.97411 3.00064,-1.97411 4.14562,0 l 64.55316,112.6423 c 4.73785,10.02845 8.56761,17.29315 2.21099,23.37338 -6.31712,6.19868 -15.27955,2.17151 -19.66206,-0.19899 -4.93526,-2.84271 -29.57206,-14.01613 -29.57206,-14.01613 l 0,109.32582 c 0,1.81617 -1.50032,3.23753 -3.31649,3.23753 l -32.61218,0 c -1.85724,0 -3.31649,-1.42136 -3.31649,-3.23753 l -0.0316,-109.32582"
     style="fill:#0566ae;fill-opacity:1;fill-rule:nonzero;stroke:none"
     id="path13079" /><path
     id="path16000"
     style="fill:#0566ae;fill-opacity:1;fill-rule:nonzero;stroke:none"
     d="m 583.63664,658.85153 -87.72913,92.98024 c -2.48579,2.60582 -2.2489,6.75144 0.35691,9.23881 l 41.49565,38.37655 c 2.64371,2.44789 6.86987,2.32945 9.31776,-0.31585 l 85.79451,-91.08511 c 40.54807,-40.42962 47.73381,-111.93163 16.66143,-166.29842 L 591.02136,432.89572 568.91141,391.43956 c -0.98547,-2.05306 -1.50032,-5.88282 -1.73721,-10.66015 8.64657,5.13266 32.57269,19.81999 38.495,23.17596 6.51454,3.67184 20.01741,9.71259 29.41414,0.43431 9.39672,-9.19932 3.86924,-20.13585 -3.23753,-35.09955 L 538.19437,205.95286 c -1.85724,-3.23753 -4.81681,-3.23753 -6.5935,0 l -93.61196,163.33727 c -7.14625,14.9637 -12.79219,25.90023 -3.31649,35.09955 9.47569,9.27828 22.93907,3.23753 29.41413,-0.43431 4.85629,-2.76374 22.6627,-13.10804 33.8756,-19.62258 0.86861,14.5294 3.47442,28.66398 9.51518,40.03481 l 22.07047,41.33771 59.49946,110.66821 c 15.16111,26.53194 12.71322,64.31627 -5.40904,82.47801"
     inkscape:connector-curvature="0" /></svg>