<?xml version="1.0" encoding="UTF-8" standalone="no"?>
<!-- Created with Inkscape (http://www.inkscape.org/) -->

<svg
   xmlns:svg="http://www.w3.org/2000/svg"
   xmlns="http://www.w3.org/2000/svg"
   version="1.1"
   width="1200"
   height="300"
   id="svg5338">
  <defs
     id="defs5340" />
  <g
     transform="translate(0,-772.36217)"
     id="layer1">
    <rect
       width="1200"
       height="300"
       rx="50"
       ry="50"
       x="0"
       y="0"
       transform="translate(0,772.36217)"
       id="rect5348"
       style="color:#000000;fill:#000000;fill-opacity:1;stroke:none;stroke-width:99;marker:none;visibility:visible;display:inline;overflow:visible;enable-background:accumulate" />
    <rect
       width="1170"
       height="270"
       rx="50"
       ry="50"
       x="15"
       y="15"
       transform="translate(0,772.36217)"
       id="rect5860"
       style="color:#000000;fill:#ffffff;fill-opacity:1;fill-rule:nonzero;stroke:none;stroke-width:99;marker:none;visibility:visible;display:inline;overflow:visible;enable-background:accumulate" />
    <g
       id="text2814"
       style="font-size:250px;font-style:normal;font-weight:normal;text-align:center;text-anchor:middle;fill:#000000;fill-opacity:1;stroke:none;font-family:'Rounded M+ 1m medium';-inkscape-font-specification:'Rounded M+ 1m medium'">
      <path
         d="m 140.31848,946.36432 c -2.99584,8.66196 -6.41126,16.99325 -10.24628,24.9939 -1.33262,2.83308 -3.62398,4.29157 -6.87408,4.37545 -3.25014,0.084 -5.70934,-1.20668 -7.37762,-3.87191 l -0.25177,-0.74769 c -4.83196,-7.83788 -5.08119,-15.92249 -0.74769,-24.25384 11.50002,-21.998 19.99916,-45.91359 25.49744,-71.74683 0.33566,-1.50031 -0.24672,-2.25053 -1.74713,-2.25067 l -13.99994,0 c -3.16876,1.4e-4 -5.79454,-1.08323 -7.87735,-3.25012 -2.08283,-2.1666 -3.12425,-4.83307 -3.12424,-7.99942 -1e-5,-3.16605 1.04141,-5.83252 3.12424,-7.99942 2.08281,-2.16659 4.70859,-3.24996 7.87735,-3.25012 l 14.25171,0 c 1.50041,1.6e-4 2.25063,-0.75006 2.25067,-2.25067 l 0,-26.50452 c -4e-5,-3.49916 1.20795,-6.45681 3.62396,-8.87299 2.41594,-2.41577 5.37359,-3.62376 8.87299,-3.62396 3.4993,2e-4 6.45695,1.20819 8.87299,3.62396 2.41591,2.41618 3.6239,5.37383 3.62396,8.87299 l 0,26.50452 c -6e-5,1.50061 0.66878,2.25083 2.00653,2.25067 l 14.74762,0 c 2.16667,1.6e-4 3.9583,0.70842 5.37491,2.12478 1.41644,1.41669 2.1247,3.20832 2.12478,5.37491 -8e-5,0.8343 0.41699,1.25138 1.25122,1.25122 l 23.75031,0 c 1.33249,1.6e-4 1.99879,-0.66869 1.9989,-2.00653 l 0,-10.99396 c -1.1e-4,-1.33752 -0.66641,-2.00636 -1.9989,-2.00653 l -16.75415,0 c -2.66529,1.7e-4 -4.99734,-0.99928 -6.99616,-2.99835 -1.99898,-1.99873 -2.99843,-4.33205 -2.99835,-6.99997 -8e-5,-2.66756 0.99937,-5.00088 2.99835,-6.99997 1.99882,-1.99871 4.33087,-2.99816 6.99616,-2.99835 l 16.75415,0 c 1.33249,1.9e-4 1.99879,-0.66611 1.9989,-1.9989 l 0,-1.50299 c -1.1e-4,-3.49916 1.2918,-6.49878 3.87573,-8.99887 2.5837,-2.4997 5.62529,-3.74965 9.12476,-3.74985 3.49922,2e-4 6.49884,1.25015 8.99887,3.74985 2.49976,2.50009 3.74971,5.49971 3.74985,8.99887 l 0,1.50299 c -1.4e-4,1.33279 0.66616,1.99909 1.9989,1.9989 l 37.75024,0 c 1.33242,1.9e-4 1.99872,-0.66611 1.9989,-1.9989 l 0,-1.50299 c -1.8e-4,-3.49916 1.29173,-6.49878 3.87574,-8.99887 2.58363,-2.4997 5.62521,-3.74965 9.12475,-3.74985 3.49915,2e-4 6.49877,1.25015 8.99887,3.74985 2.4997,2.50009 3.74964,5.49971 3.74985,8.99887 l 0,1.50299 c -2.1e-4,1.33279 0.66864,1.99909 2.00653,1.9989 l 15.99884,0 c 2.66498,1.9e-4 4.99703,0.99964 6.99616,2.99835 1.99866,1.99909 2.99811,4.33241 2.99835,6.99997 -2.4e-4,2.66792 -0.99969,5.00124 -2.99835,6.99997 -1.99913,1.99907 -4.33118,2.99852 -6.99616,2.99835 l -15.99884,0 c -1.33789,1.7e-4 -2.00674,0.66901 -2.00653,2.00653 l 0,10.99396 c -2.1e-4,1.33784 0.66864,2.00669 2.00653,2.00653 l 21.74378,0 c 2.83281,1.6e-4 5.29202,1.04157 7.37762,3.12424 2.08513,2.08297 3.12781,4.54091 3.12805,7.37381 -2.4e-4,2.83319 -1.04292,5.33308 -3.12805,7.49969 -2.0856,2.16689 -4.54481,3.25026 -7.37762,3.25013 l -53.49732,0 c -1.50062,1.3e-4 -2.25084,0.75035 -2.25067,2.25067 l 0,7.9956 c -1.7e-4,1.50057 0.75005,2.25079 2.25067,2.25067 l 42.50336,0 c 3.82973,1.2e-4 7.12054,1.41665 9.87243,4.24958 2.75144,2.83316 4.12727,6.1672 4.12751,10.00213 l 0,66.0019 c -2.4e-4,3.82999 -1.37607,7.1208 -4.12751,9.87243 -2.75189,2.7517 -6.0427,4.12753 -9.87243,4.12751 l -27.2522,0 c -0.33588,2e-5 -0.50373,0.12463 -0.50354,0.37384 -1.9e-4,0.24925 0.0837,0.45778 0.25177,0.62561 14.83134,6.99871 28.33027,14.58233 40.49683,22.75083 2.67005,1.6632 4.29638,4.0792 4.87899,7.2479 0.58214,3.1688 0.0392,6.0857 -1.62887,8.751 -1.66344,2.4973 -4.03745,4.0384 -7.12204,4.6234 -3.08504,0.5849 -5.96005,0.043 -8.62503,-1.6251 -10.83395,-6.9987 -23.33343,-13.9974 -37.49848,-20.9961 -3.33168,-1.8361 -5.58107,-4.5039 -6.74819,-8.0032 -1.16748,-3.49935 -0.75167,-6.91732 1.2474,-10.25392 l 0.99945,-1.49536 c 0.33552,-0.33567 0.37748,-0.75275 0.12589,-1.25122 -0.25195,-0.49843 -0.62706,-0.74766 -1.12534,-0.74768 l -35.75134,0 c -0.33075,2e-5 -0.62194,0.24925 -0.87357,0.74768 -0.25191,0.49847 -0.20995,0.91555 0.12589,1.25122 2.49721,3.16367 3.4547,6.78763 2.87246,10.87188 -0.58251,4.0843 -2.53945,7.2098 -5.87081,9.3765 -11.00172,7.5023 -24.17004,14.5035 -39.50501,21.0038 -3.16375,1.1647 -6.28798,1.2054 -9.37271,0.122 -3.0849,-1.0834 -5.45892,-3.0416 -7.12204,-5.8746 -1.50053,-2.6652 -1.70906,-5.4143 -0.62561,-8.2474 1.08329,-2.833 3.0415,-4.9184 5.87463,-6.2561 14.83144,-6.1645 28.33037,-13.41245 40.49683,-21.74376 0.33557,-0.16783 0.41949,-0.41833 0.25177,-0.7515 -0.16797,-0.33313 -0.4172,-0.4997 -0.74768,-0.49972 l -13.25226,0 -11.4975,0 c -3.83514,2e-5 -7.12722,-1.37581 -9.87625,-4.12751 -2.74921,-2.75163 -4.12377,-6.04244 -4.12369,-9.87243 l 0,-23.49854 c -8e-5,-0.33563 -0.20862,-0.62809 -0.62561,-0.87738 -0.41716,-0.24916 -0.79354,-0.20847 -1.12915,0.12207 -2.66528,1.99896 -5.6649,2.49869 -8.99887,1.49918 -3.33412,-0.99939 -5.58351,-3.08094 -6.7482,-6.24466 -0.83421,-2.16668 -2.12612,-5.58337 -3.87573,-10.25009 -1.74974,-4.66657 -2.95772,-7.91796 -3.62396,-9.75419 -0.16791,-0.16775 -0.37645,-0.25168 -0.62561,-0.25177 -0.24929,9e-5 -0.3739,0.16794 -0.37384,0.50355 l 0.24414,97.25185 c -6e-5,3.4994 -1.20805,6.457 -3.62396,8.873 -2.41604,2.416 -5.37369,3.624 -8.87299,3.624 -3.4994,0 -6.45705,-1.208 -8.87299,-3.624 -2.41601,-2.416 -3.624,-5.3736 -3.62396,-8.873 l 0,-75.24868 c -0.16788,-0.16778 -0.41965,-0.16778 -0.75531,0 z m 79.25415,22.24731 29.49524,0 c 1.33754,5e-5 2.00638,-0.75018 2.00653,-2.25067 l 0,-15.25116 c -1.5e-4,-1.33254 -0.66899,-1.99884 -2.00653,-1.9989 l -29.49524,0 c -1.50056,6e-5 -2.25078,0.66636 -2.25067,1.9989 l 0,15.25116 c -1.1e-4,1.50049 0.75011,2.25072 2.25067,2.25067 z m 0,-37.49847 29.49524,0 c 1.33754,8e-5 2.00638,-0.75014 2.00653,-2.25067 l 0,-14.50348 c -1.5e-4,-1.50035 -0.66899,-2.25057 -2.00653,-2.25067 l -29.49524,0 c -1.50056,10e-5 -2.25078,0.75032 -2.25067,2.25067 l 0,14.50348 c -1.1e-4,1.50053 0.75011,2.25075 2.25067,2.25067 z m 92.24701,35.2478 0,-15.25116 c -2.1e-4,-1.33254 -0.75043,-1.99884 -2.25067,-1.9989 l -28.74756,0 c -1.50062,6e-5 -2.25084,0.66636 -2.25067,1.9989 l 0,15.25116 c -1.7e-4,1.50049 0.75005,2.25072 2.25067,2.25067 l 28.74756,0 c 1.50024,5e-5 2.25046,-0.75018 2.25067,-2.25067 z m -2.25067,-54.25262 -28.74756,0 c -1.50062,10e-5 -2.25084,0.75032 -2.25067,2.25067 l 0,14.50348 c -1.7e-4,1.50053 0.75005,2.25075 2.25067,2.25067 l 28.74756,0 c 1.50024,8e-5 2.25046,-0.75014 2.25067,-2.25067 l 0,-14.50348 c -2.1e-4,-1.50035 -0.75043,-2.25057 -2.25067,-2.25067 z m -26.74866,-68.0008 -37.75024,0 c -1.33274,1.7e-4 -1.99904,0.66901 -1.9989,2.00653 l 0,10.99396 c -1.4e-4,1.33784 0.66616,2.00669 1.9989,2.00653 l 37.75024,0 c 1.33242,1.6e-4 1.99872,-0.66869 1.9989,-2.00653 l 0,-10.99396 c -1.8e-4,-1.33752 -0.66648,-2.00636 -1.9989,-2.00653 z m -33.75244,36.25489 -56.49567,0 c -1.66838,1.3e-4 -3.16882,-0.62548 -4.50134,-1.87683 -1.33268,-1.25109 -1.99898,-2.79223 -1.9989,-4.62342 -8e-5,-0.66616 -0.33323,-0.99931 -0.99945,-0.99945 l -15.99884,0 c -1.50051,1.4e-4 -1.91758,0.66644 -1.25122,1.9989 11.16427,26.00109 18.91319,44.08528 23.24676,54.25263 0.16776,0.16284 0.33561,0.24422 0.50354,0.24414 0.16776,8e-5 0.25169,-0.16522 0.25177,-0.49591 l 0,-21.75141 c -8e-5,-3.83493 1.37448,-7.16897 4.12369,-10.00213 2.74903,-2.83293 6.04111,-4.24946 9.87625,-4.24958 l 43.24341,0 c 1.33754,1.2e-4 2.00638,-0.7501 2.00653,-2.25067 l 0,-7.9956 c -1.5e-4,-1.50032 -0.66899,-2.25054 -2.00653,-2.25067 z"
         id="path2819" />
      <path
         d="m 415.82355,1001.1129 c 12.49687,-0.6663 27.07917,-1.83363 43.74695,-3.50194 1.50034,2e-5 2.25056,-0.83413 2.25067,-2.50244 l 0,-36.75079 c -1.1e-4,-1.49531 -0.66641,-2.24299 -1.9989,-2.24304 l -21.75141,0 c -1.00207,5e-5 -1.50307,0.4985 -1.50299,1.49536 -8e-5,2.8331 -0.99953,5.29103 -2.99835,7.37381 -1.99898,2.08287 -4.41495,3.12428 -7.24793,3.12423 l -1.50299,0 c -3.16372,5e-5 -5.9548,-1.16598 -8.37326,-3.49807 -2.41858,-2.33201 -3.62783,-5.16378 -3.62777,-8.49533 l 0,-56.00739 c -6e-5,-3.82984 1.41773,-7.16134 4.25338,-9.99451 2.83553,-2.83292 6.1683,-4.24944 9.99832,-4.24957 l 32.753,0 c 1.33249,1.3e-4 1.99879,-0.66617 1.9989,-1.9989 l 0,-14.25171 c -1.1e-4,-1.33246 -0.66641,-1.99876 -1.9989,-1.9989 -6.83604,0.4986 -18.66922,1.08097 -35.49958,1.74713 -2.83311,0.16799 -5.33301,-0.74881 -7.49969,-2.7504 -2.16681,-2.00129 -3.41676,-4.41854 -3.74985,-7.25174 -0.33321,-2.83289 0.4577,-5.24886 2.37274,-7.24792 1.91492,-1.99874 4.28893,-3.08211 7.12204,-3.25012 35.00356,-1.33244 68.25497,-3.58311 99.75434,-6.75202 2.83287,-0.33043 5.41542,0.42106 7.74765,2.25449 2.33187,1.83376 3.66447,4.16708 3.9978,6.99997 0.33297,2.8332 -0.37529,5.3331 -2.12479,7.49969 -1.74985,2.1669 -4.04121,3.41558 -6.87408,3.74604 l -35.99549,2.99835 c -1.50058,1.4e-4 -2.2508,0.83429 -2.25067,2.50244 l 0,15.7547 c -1.3e-4,1.33273 0.75009,1.99903 2.25067,1.9989 l 32.74537,0 c 3.83487,1.3e-4 7.16891,1.41665 10.00213,4.24957 2.83287,2.83317 4.24939,6.16467 4.24957,9.99451 l 0,41.99982 c -1.8e-4,3.8351 -1.4167,7.12846 -4.24957,9.88006 -2.83322,2.75173 -6.16726,4.12756 -10.00213,4.12751 l -32.74537,0 c -1.50058,5e-5 -2.2508,0.74773 -2.25067,2.24304 l 0,34.00421 c -1.3e-4,1.50046 0.66617,2.08284 1.9989,1.74713 9.33315,-0.99689 15.91731,-1.82849 19.75251,-2.49481 1.50029,-0.33568 1.99874,-1.0859 1.49536,-2.25067 -0.33076,-0.83413 -0.91314,-2.25192 -1.74713,-4.25339 -0.8343,-2.00142 -1.41922,-3.41667 -1.75476,-4.24576 -1.16491,-3.00086 -1.12168,-5.91783 0.1297,-8.75091 1.25106,-2.83301 3.37458,-4.75053 6.37054,-5.75257 3.33643,-1.00195 6.54586,-0.83537 9.6283,0.49973 3.0821,1.33518 5.28954,3.58458 6.62231,6.7482 6.00161,13.83466 11.41847,26.83511 16.25061,39.00151 1.16965,3.1687 1.087,6.2115 -0.24795,9.1285 -1.33534,2.917 -3.58474,4.8739 -6.7482,5.8708 -3.33677,1.002 -6.58816,0.7108 -9.75418,-0.8735 -3.16638,-1.5844 -5.33185,-3.9584 -6.49643,-7.1221 -0.16802,-0.6663 -0.50244,-1.709 -1.00327,-3.128 -0.50116,-1.4191 -0.91696,-2.4618 -1.24741,-3.1281 -0.66646,-1.3326 -1.66591,-1.831 -2.99835,-1.4953 -35.00379,5.4982 -68.67227,9.1654 -101.00555,11.0016 -2.99587,0.1627 -5.53646,-0.7554 -7.62177,-2.7543 -2.08542,-1.9989 -3.21075,-4.4988 -3.376,-7.4996 -0.16536,-3.0009 0.83536,-5.6255 3.00216,-7.8736 2.16669,-2.2481 4.75051,-3.4561 7.75147,-3.6239 z m 94.24591,-95.00127 -20.9961,0 c -1.50058,1.1e-4 -2.2508,0.66641 -2.25067,1.9989 l 0,26.00098 c -1.3e-4,1.33268 0.75009,1.99898 2.25067,1.9989 l 20.9961,0 c 1.33244,8e-5 1.99874,-0.66622 1.9989,-1.9989 l 0,-26.00098 c -1.6e-4,-1.33249 -0.66646,-1.99879 -1.9989,-1.9989 z m -71.49506,29.99878 21.24787,0 c 1.33249,8e-5 1.99879,-0.66622 1.9989,-1.9989 l 0,-26.00098 c -1.1e-4,-1.33249 -0.66641,-1.99879 -1.9989,-1.9989 l -21.24787,0 c -1.33777,1.1e-4 -2.00661,0.66641 -2.00653,1.9989 l 0,26.00098 c -8e-5,1.33268 0.66876,1.99898 2.00653,1.9989 z m -35.75134,-18.99719 c -5e-5,28.1627 -1.16735,50.07812 -3.50189,65.74631 -2.33464,15.66824 -6.33498,29.16847 -12.00104,40.50067 -1.66833,3.1687 -4.25215,5.0443 -7.75147,5.6266 -3.49937,0.5824 -6.58164,-0.2937 -9.24682,-2.6283 -3.00091,-2.4973 -4.87647,-5.6635 -5.62668,-9.4986 -0.75023,-3.835 -0.2912,-7.5022 1.37711,-11.0016 4.33348,-9.83169 7.37506,-21.87214 9.12475,-36.12133 1.74965,-14.24911 2.62449,-35.29223 2.62451,-63.12943 l 0,-78.24707 c -2e-5,-3.83485 1.4165,-7.16889 4.24958,-10.00213 2.83301,-2.83286 6.16706,-4.24938 10.00213,-4.24958 l 165.24506,0 c 3.83483,2e-4 7.16888,1.41672 10.00213,4.24958 2.83284,2.83324 4.24936,6.16728 4.24958,10.00213 0.16763,113.83573 1.66807,170.7535 4.50134,170.75348 1.16453,2e-5 2.33183,-9.41719 3.50189,-28.25165 0.16762,-2.66515 1.37561,-4.74798 3.62396,-6.24847 2.2479,-1.5004 4.62318,-1.83355 7.12586,-0.99945 3.00066,0.82911 5.37594,2.49359 7.12585,4.99344 1.74943,2.49994 2.45642,5.33425 2.12098,8.50296 -1.165,15.16725 -2.91468,27.00042 -5.24903,35.49962 -2.33483,8.4991 -5.04326,14.2071 -8.1253,17.1241 -3.08251,2.917 -6.95824,4.3755 -11.6272,4.3755 -6.83107,0 -11.74693,-1.208 -14.74762,-3.624 -3.0011,-2.416 -5.70953,-10.6239 -8.12531,-24.6238 -2.41617,-13.99997 -3.87465,-33.20822 -4.37545,-57.62486 -0.50119,-24.41652 -0.75169,-61.29316 -0.7515,-110.63004 -1.9e-4,-1.49519 -0.66649,-2.24287 -1.9989,-2.24304 l -139.49585,0 c -1.5005,1.7e-4 -2.25072,0.74785 -2.25067,2.24304 z"
         id="path2821" />
      <path
         d="m 671.07257,854.36145 c -2.16681,2.49751 -4.87524,3.87207 -8.1253,4.12369 -3.25018,0.25192 -6.12646,-0.70557 -8.62885,-2.87247 -5.83399,-5.16748 -13.4176,-11.41849 -22.75085,-18.75305 -2.49738,-1.99873 -3.9546,-4.62323 -4.37165,-7.87354 -0.41709,-3.24993 0.45774,-6.12621 2.62451,-8.62884 2.16672,-2.66501 4.91712,-4.16418 8.25119,-4.49753 3.33401,-0.33295 6.33363,0.49992 8.99888,2.49863 10.83368,8.50441 18.41729,14.6715 22.75085,18.50128 2.66513,2.16692 4.08166,4.95928 4.24957,8.37707 0.16778,3.41814 -0.83167,6.45972 -2.99835,9.12476 z m -6.75201,58.74634 c -2.16681,2.50254 -4.87524,3.87837 -8.12531,4.1275 -3.25017,0.24932 -6.12391,-0.70944 -8.62121,-2.87628 -10.50317,-9.33319 -19.58723,-16.9168 -27.2522,-22.75086 -2.50246,-1.99878 -3.92025,-4.58132 -4.25339,-7.74765 -0.33316,-3.16606 0.50226,-6.00038 2.50626,-8.50296 2.16673,-2.49721 4.87389,-3.95443 8.12149,-4.37164 3.24755,-0.41693 6.20648,0.37398 8.8768,2.37274 8.66695,6.33253 17.74846,13.75084 27.24457,22.25495 2.67022,2.32962 4.12998,5.16139 4.37927,8.49533 0.24916,3.33415 -0.7096,6.33377 -2.87628,8.99887 z m 10.49804,47.25647 c -7.49721,21.83027 -16.91187,41.99474 -28.24402,60.49344 -1.83618,3.0009 -4.50392,4.9184 -8.00323,5.7526 -3.49938,0.8341 -6.7495,0.2505 -9.75037,-1.751 -3.00091,-2.0014 -4.83451,-4.7518 -5.50079,-8.2511 -0.66632,-3.4994 -0.0814,-6.7495 1.75476,-9.7504 10.16232,-16.83043 19.15991,-35.32915 26.9928,-55.49623 1.16979,-3.16868 3.21319,-5.41935 6.13022,-6.75201 2.91691,-1.33253 5.95722,-1.41646 9.12094,-0.25177 3.16867,1.33775 5.50327,3.54773 7.00378,6.62994 1.50038,3.08233 1.66568,6.20784 0.49591,9.37653 z m 61.00464,-152.50397 c 18.66644,3.83524 38.5003,9.7531 59.50165,17.7536 3.16346,1.33279 5.41159,3.45757 6.74438,6.37436 1.33241,2.91715 1.41633,5.95873 0.25177,9.12476 -1.16495,3.16636 -3.24777,5.41576 -6.24847,6.7482 -3.00108,1.33276 -6.0859,1.41668 -9.25445,0.25177 -18.99736,-7.33422 -38.66338,-13.16816 -58.99811,-17.50183 -3.16378,-0.66612 -5.49583,-2.37383 -6.99616,-5.12314 -1.50056,-2.74894 -1.75233,-5.62395 -0.75531,-8.62503 1.16973,-3.33639 3.25382,-5.83756 6.25229,-7.50351 2.99823,-1.66555 6.1657,-2.16528 9.50241,-1.49918 z m 38.7497,141.50238 0,52.00193 c -1.7e-4,1.4954 0.75005,2.2431 2.25067,2.2431 l 55.0003,0 c 3.33127,0 6.12236,1.1253 8.37326,3.376 2.25044,2.2506 3.37577,4.9591 3.37601,8.1253 -2.4e-4,3.1662 -1.12557,5.8746 -3.37601,8.1253 -2.2509,2.2506 -5.04199,3.376 -8.37326,3.376 l -143.75305,0 c -3.33158,0 -6.0807,-1.0834 -8.24737,-3.2501 -2.16683,-2.1668 -3.2502,-4.9172 -3.25013,-8.2512 -7e-5,-3.3341 1.0833,-6.0845 3.25013,-8.2512 2.16667,-2.1668 4.91579,-3.2501 8.24737,-3.2501 l 56.99921,0 c 1.33246,0 1.99876,-0.7477 1.9989,-2.2431 l 0,-52.00193 c -1.4e-4,-1.50038 -0.66644,-2.25061 -1.9989,-2.25067 l -44.7464,0 c -3.16884,6e-5 -5.83658,-1.04135 -8.00324,-3.12424 -2.16683,-2.08275 -3.2502,-4.70853 -3.25012,-7.87735 -8e-5,-3.16866 1.08329,-5.87709 3.25012,-8.1253 2.16666,-2.24804 4.8344,-3.37211 8.00324,-3.37219 l 44.7464,0 c 1.33246,8e-5 1.99876,-0.66622 1.9989,-1.99891 l 0,-42.50335 c -1.4e-4,-1.50032 -0.66644,-2.25054 -1.9989,-2.25067 l -53.74909,0 c -3.33158,1.3e-4 -6.12267,-1.12521 -8.37326,-3.37601 -2.25074,-2.25053 -3.37608,-4.95897 -3.376,-8.12531 -8e-5,-3.16605 1.16595,-5.91517 3.49807,-8.24737 2.33197,-2.3319 5.08237,-3.49792 8.25119,-3.49808 l 137.49695,0 c 3.16852,1.6e-4 5.87822,1.12422 8.12912,3.37219 2.25044,2.24828 3.37577,5.04064 3.37601,8.37708 -2.4e-4,3.1638 -1.12557,5.87096 -3.37601,8.12149 -2.2509,2.2508 -4.9606,3.37614 -8.12912,3.37601 l -51.99432,0 c -1.50062,1.3e-4 -2.25084,0.75035 -2.25067,2.25067 l 0,42.50335 c -1.7e-4,1.33269 0.75005,1.99899 2.25067,1.99891 l 42.7475,0 c 3.16852,8e-5 5.87695,1.12415 8.1253,3.37219 2.2479,2.24821 3.37197,4.95664 3.37219,8.1253 -2.2e-4,3.16882 -1.12429,5.7946 -3.37219,7.87735 -2.24835,2.08289 -4.95678,3.1243 -8.1253,3.12424 l -42.7475,0 c -1.50062,6e-5 -2.25084,0.75029 -2.25067,2.25067 z"
         id="path2823" />
      <path
         d="m 878.56921,864.11182 43.25104,0 c 0.49839,1.4e-4 0.8735,-0.25035 1.12534,-0.7515 0.2517,-0.50085 0.20974,-0.91665 -0.12589,-1.2474 -2.49742,-4.1655 -5.57969,-9.16529 -9.24682,-14.99939 -0.83421,-1.16968 -1.83366,-1.7546 -2.99836,-1.75477 l -24.25384,0 c -3.00093,1.7e-4 -5.58474,-1.0832 -7.75147,-3.25012 -2.16677,-2.16657 -3.25014,-4.74912 -3.25012,-7.74765 -2e-5,-2.99817 1.08335,-5.54003 3.25012,-7.62558 2.16673,-2.08518 4.75054,-3.12786 7.75147,-3.12805 l 76.75171,0 c 1.50033,1.9e-4 2.25056,-0.74749 2.25067,-2.24304 l 0,-4.75311 c -1.1e-4,-3.667 1.37445,-6.87516 4.12369,-9.62449 2.749,-2.74891 5.95716,-4.12347 9.62448,-4.12368 3.66706,2.1e-4 6.87522,1.37477 9.62448,4.12368 2.74899,2.74933 4.12355,5.95749 4.12369,9.62449 l 0,4.75311 c -1.4e-4,1.49555 0.75008,2.24323 2.25067,2.24304 l 76.75173,0 c 3.0007,1.9e-4 5.5845,1.04287 7.7514,3.12805 2.1666,2.08555 3.2499,4.62741 3.2502,7.62558 -3e-4,2.99853 -1.0836,5.58108 -3.2502,7.74765 -2.1669,2.16692 -4.7507,3.25029 -7.7514,3.25012 l -24.2539,0 c -1.4955,1.7e-4 -2.495,0.66647 -2.9983,1.99891 -1.9991,4.00305 -4.7482,9.00538 -8.2474,15.00702 -0.3359,0.33075 -0.3778,0.70459 -0.1259,1.12152 0.2516,0.41722 0.6267,0.62575 1.1254,0.62561 l 42.2515,0 c 2.8329,1.4e-4 5.3328,1.04156 7.4997,3.12423 2.1665,2.08297 3.2499,4.5409 3.2502,7.37381 -3e-4,2.83319 -1.0837,5.33308 -3.2502,7.4997 -2.1669,2.16687 -4.6668,3.25025 -7.4997,3.25012 l -201.00399,0 c -2.83307,1.3e-4 -5.33296,-1.08325 -7.49969,-3.25012 -2.16676,-2.16662 -3.25014,-4.66651 -3.25012,-7.4997 -2e-5,-2.83291 1.08336,-5.29084 3.25012,-7.37381 2.16673,-2.08267 4.66662,-3.12409 7.49969,-3.12423 z m 64.25476,-16.99829 c 1.99882,3.33166 4.83186,8.33145 8.49915,14.99939 0.49836,1.33274 1.58173,1.99904 3.25012,1.9989 l 49.49956,0 c 1.3324,1.4e-4 2.4158,-0.50085 3.2501,-1.50299 2.3344,-3.33135 5.5006,-8.49645 9.4986,-15.4953 0.3355,-0.33553 0.3775,-0.71192 0.1259,-1.12916 -0.252,-0.4169 -0.6271,-0.62544 -1.1254,-0.62561 l -71.99857,0 c -0.50363,1.7e-4 -0.88002,0.20871 -1.12916,0.62561 -0.24931,0.41724 -0.20608,0.79363 0.1297,1.12916 z m 23.75031,118.24798 -48.00415,0 -13.4964,0 c -3.83509,5e-5 -7.12717,-1.41648 -9.87625,-4.24957 -2.74916,-2.833 -4.12373,-6.16704 -4.12369,-10.00214 l 0,-43.49518 c -4e-5,-3.83493 1.37453,-7.12701 4.12369,-9.87625 2.74908,-2.74901 6.04116,-4.12357 9.87625,-4.12368 l 147.99497,0 c 3.8349,1.1e-4 7.1269,1.37467 9.8763,4.12368 2.7489,2.74924 4.1235,6.04132 4.1237,9.87625 l 0,43.49518 c -2e-4,3.8351 -1.3748,7.16914 -4.1237,10.00214 -2.7494,2.83309 -6.0414,4.24962 -9.8763,4.24957 l -69.24436,0 c -0.33582,5e-5 -0.54563,0.12466 -0.62942,0.37384 -0.0841,0.24927 -0.0421,0.45781 0.12588,0.62561 7.16641,4.33354 14.91532,9.66648 23.2468,15.99884 2.5023,1.83617 3.8781,4.29538 4.1275,7.37763 0.249,3.08229 -0.7097,5.7068 -2.8763,7.87353 -2.1669,2.33461 -4.8753,3.62654 -8.12532,3.87574 -3.25026,0.2492 -6.124,-0.6256 -8.62121,-2.62452 -5.66623,-4.33348 -12.91669,-9.33327 -21.75141,-14.99939 -3.00101,-1.83611 -4.66803,-4.50385 -5.00107,-8.00323 -0.33326,-3.49931 0.66746,-6.49766 3.00217,-8.99506 0.33049,-0.67134 0.0813,-1.17234 -0.74768,-1.50299 z m -48.00415,-51.75018 0,4.50134 c -7e-5,1.50054 0.66623,2.25076 1.9989,2.25067 l 117.00437,0 c 1.3324,9e-5 1.9987,-0.75013 1.9989,-2.25067 l 0,-4.50134 c -2e-4,-1.3325 -0.6665,-1.9988 -1.9989,-1.9989 l -117.00437,0 c -1.33267,10e-5 -1.99897,0.6664 -1.9989,1.9989 z m 0,25.7492 0,5.75257 c -7e-5,1.50051 0.66623,2.25073 1.9989,2.25067 l 117.00437,0 c 1.3324,6e-5 1.9987,-0.75016 1.9989,-2.25067 l 0,-5.75257 c -2e-4,-1.50037 -0.6665,-2.25059 -1.9989,-2.25067 l -117.00437,0 c -1.33267,8e-5 -1.99897,0.7503 -1.9989,2.25067 z m -10.24628,53.49732 c -5.16769,9.99965 -11.584,19.41685 -19.24896,28.25165 -2.16678,2.6652 -5.0011,4.2063 -8.50296,4.6234 -3.50192,0.4171 -6.75331,-0.2899 -9.75418,-2.121 -2.66522,-1.6683 -4.16439,-4.0435 -4.49753,-7.1258 -0.33316,-3.0823 0.49971,-5.7907 2.49863,-8.1253 6.50022,-7.5022 12.33416,-15.75216 17.50183,-24.74978 1.66826,-2.83301 4.00158,-4.83319 6.99997,-6.00052 2.99831,-1.16726 5.99793,-1.16599 8.99887,0.004 3.00084,1.33263 5.1269,3.49811 6.37817,6.49643 1.25117,2.99837 1.12655,5.91407 -0.37384,8.7471 z m 15.24353,-12.24518 c 2.67022,-2.67025 5.83896,-4.0054 9.50623,-4.00543 3.66711,3e-5 6.83331,1.3339 9.49859,4.00162 2.66512,2.66777 3.99771,5.83524 3.99781,9.50241 l 0,6.24847 c -10e-5,6.66806 0.45894,10.66846 1.3771,12.00106 0.91798,1.3326 3.79299,2.1667 8.62503,2.5024 6.00169,0.4985 13.91845,0.7477 23.75031,0.7477 8.8347,0 16.75146,-0.2492 23.75035,-0.7477 7.1663,-0.5035 11.791,-1.255 13.874,-2.2545 2.0827,-0.9994 3.5412,-3.4141 4.3755,-7.2441 0.8339,-3.5044 2.5429,-6.25606 5.1269,-8.25498 2.5837,-1.99888 5.5413,-2.7491 8.873,-2.25067 3.4992,0.50356 6.3742,2.12989 8.625,4.879 2.2505,2.74913 3.1241,5.87335 2.6207,9.37275 -1.4955,10.6658 -4.4099,17.5819 -8.7433,20.7481 -4.3336,3.1662 -12.7514,5.1663 -25.2532,6.0005 -8.0009,0.6663 -18.66678,0.9994 -31.99773,0.9995 -12.67,-10e-5 -23.33842,-0.2493 -32.00531,-0.7477 -13.33118,-0.8342 -21.66374,-2.959 -24.99771,-6.3744 -3.33411,-3.4154 -5.00114,-12.0404 -5.00107,-25.87507 l 0,-9.75036 c -7e-5,-3.66717 1.33253,-6.83337 3.9978,-9.4986 z m 129.50132,-6.50024 c 3.1686,-1.50041 6.5446,-1.83356 10.128,-0.99945 3.5831,0.83418 6.4581,2.66778 8.6251,5.50079 6.8306,9.16547 13.4148,19.16505 19.7525,29.99873 1.6629,2.6653 2.0368,5.5809 1.1215,8.7471 -0.9158,3.1662 -2.874,5.4169 -5.8746,6.7521 -3.0012,1.3351 -6.1267,1.5017 -9.3766,0.4997 -3.2503,-1.002 -5.707,-2.9195 -7.37,-5.7526 -6.002,-9.9996 -12.8353,-19.91522 -20.5001,-29.74698 -1.8364,-2.50242 -2.4213,-5.29478 -1.7548,-8.37708 0.6661,-3.08224 2.4158,-5.28968 5.249,-6.62231 z"
         id="path2825" />
    </g>
  </g>
</svg>
