<?xml version="1.0" encoding="UTF-8" standalone="no"?>
<!-- Created with Inkscape (http://www.inkscape.org/) -->

<svg
   xmlns:svg="http://www.w3.org/2000/svg"
   xmlns="http://www.w3.org/2000/svg"
   xmlns:xlink="http://www.w3.org/1999/xlink"
   version="1.1"
   width="1700"
   height="625"
   id="svg2"
   xml:space="preserve"><defs
   id="defs6"><linearGradient
     id="linearGradient15703"><stop
       id="stop15705"
       style="stop-color:#ffffff;stop-opacity:1"
       offset="0" /></linearGradient><linearGradient
     x1="-37.125"
     y1="465.375"
     x2="967.87512"
     y2="465.375"
     id="linearGradient15707"
     xlink:href="#linearGradient15703"
     gradientUnits="userSpaceOnUse"
     gradientTransform="translate(961.6578,56.04101)" /><linearGradient
     x1="-37.125"
     y1="465.375"
     x2="967.87512"
     y2="465.375"
     id="linearGradient15707-9"
     xlink:href="#linearGradient15703-4"
     gradientUnits="userSpaceOnUse"
     gradientTransform="translate(961.6578,56.04101)" /><linearGradient
     id="linearGradient15703-4"><stop
       id="stop15705-0"
       style="stop-color:#ffffff;stop-opacity:1"
       offset="0" /></linearGradient></defs><rect
   width="1700"
   height="625"
   rx="30"
   ry="30"
   x="0"
   y="-0.46021721"
   id="rect2826"
   style="color:#000000;fill:#ffffff;fill-opacity:1;fill-rule:nonzero;stroke:none;stroke-width:23;marker:none;visibility:visible;display:inline;overflow:visible;enable-background:accumulate" /><rect
   width="1640"
   height="565"
   rx="45"
   ry="45"
   x="30"
   y="30"
   id="rect3600"
   style="color:#000000;fill:#0066b3;fill-opacity:1;fill-rule:nonzero;stroke:none;stroke-width:23;marker:none;visibility:visible;display:inline;overflow:visible;enable-background:accumulate" /><g
   transform="matrix(34.167339,0,0,34.167339,44.9692,29.01028)"
   id="g2991" /><rect
   width="1610"
   height="535"
   rx="30"
   ry="30"
   x="45"
   y="45"
   id="rect3602"
   style="color:#000000;fill:#ffffff;fill-opacity:1;fill-rule:nonzero;stroke:none;stroke-width:23;marker:none;visibility:visible;display:inline;overflow:visible;enable-background:accumulate" />





<g
   transform="translate(599.99967,-0.40002)"
   id="g2838"><g
     id="text3618"
     style="font-size:250px;font-style:normal;font-weight:normal;text-align:center;text-anchor:middle;fill:#0066b3;fill-opacity:1;stroke:none;font-family:'Rounded M+ 1m medium';-inkscape-font-specification:'Rounded M+ 1m medium'"><path
       d="m 282.59888,267.19757 c -20.33497,17.334 -46.75045,33.16752 -79.24652,47.50061 -3.16877,1.33259 -6.3782,1.41651 -9.6283,0.25177 -3.25014,-1.16477 -5.62542,-3.33151 -7.12585,-6.50024 -1.50046,-3.0009 -1.66704,-6.08445 -0.49973,-9.25064 1.16728,-3.1662 3.3353,-5.33167 6.50406,-6.49643 32.66393,-13.16832 59.16333,-27.91846 79.49829,-44.25049 0.83405,-0.8341 0.58482,-1.25117 -0.74768,-1.25122 l -40.50446,0 -11.24572,0 c -3.83509,5e-5 -7.16913,-1.41647 -10.00214,-4.24958 -2.83308,-2.83298 -4.24961,-6.16702 -4.24957,-10.00213 l 0,-66.4978 c -4e-5,-3.83491 1.41649,-7.16895 4.24957,-10.00214 2.83301,-2.8329 6.16705,-4.24942 10.00214,-4.24957 l 62.24823,0 c 1.50033,1.5e-4 2.25056,-0.75008 2.25067,-2.25067 l 0,-10.00214 c -1.1e-4,-1.33244 -0.75034,-1.99874 -2.25067,-1.9989 l -85.99854,0 c -2.83307,1.6e-4 -5.29227,-1.08321 -7.37762,-3.25012 -2.08538,-2.16658 -3.12807,-4.66648 -3.12806,-7.4997 -1e-5,-2.83287 1.04268,-5.33277 3.12806,-7.49969 2.08535,-2.16657 4.54455,-3.24994 7.37762,-3.25013 l 85.99854,0 c 1.50033,1.9e-4 2.25056,-0.66611 2.25067,-1.9989 l 0,-4.75311 c -1.1e-4,-3.82976 1.37445,-7.07861 4.12369,-9.746551 2.749,-2.667542 5.95716,-4.001413 9.62448,-4.001618 3.66706,2.05e-4 6.87522,1.334076 9.62448,4.001618 2.74899,2.667941 4.12355,5.916791 4.12369,9.746551 l 0,4.75311 c -1.4e-4,1.33279 0.75008,1.99909 2.25067,1.9989 l 85.99853,0 c 2.83282,1.9e-4 5.29203,1.08356 7.37763,3.25013 2.08513,2.16692 3.12781,4.66682 3.12805,7.49969 -2.4e-4,2.83322 -1.04292,5.33312 -3.12805,7.4997 -2.0856,2.16691 -4.54481,3.25028 -7.37763,3.25012 l -85.99853,0 c -1.50059,1.6e-4 -2.25081,0.66646 -2.25067,1.9989 l 0,10.00214 c -1.4e-4,1.50059 0.75008,2.25082 2.25067,2.25067 l 62.24823,0 c 3.83483,1.5e-4 7.16887,1.41667 10.00213,4.24957 2.83284,2.83319 4.24936,6.16723 4.24958,10.00214 l 0,66.4978 c -2.2e-4,3.83511 -1.41674,7.16915 -4.24958,10.00213 -2.83326,2.83311 -6.1673,4.24963 -10.00213,4.24958 l -51.75019,0 c -0.33075,5e-5 -0.57998,0.12466 -0.74768,0.37384 -0.16799,0.24928 -0.0841,0.54174 0.25177,0.87738 20.49747,16.33203 46.83157,31.08217 79.00238,44.25049 3.16343,1.3326 5.37086,3.54004 6.62232,6.62231 1.25098,3.08228 1.12637,6.12386 -0.37384,9.12476 -1.50068,3.16873 -3.87597,5.33547 -7.12586,6.50024 -3.25034,1.16474 -6.45977,1.08082 -9.62829,-0.25177 -32.49632,-14.33309 -58.9118,-30.16661 -79.24652,-47.50061 -1.00214,-0.66627 -1.50313,-0.4145 -1.50299,0.75531 l 0,41.74805 c -1.4e-4,3.83503 -1.3747,7.08515 -4.12369,9.75036 -2.74926,2.66518 -5.95742,3.99778 -9.62448,3.99781 -3.66732,-3e-5 -6.87548,-1.33263 -9.62448,-3.99781 -2.74924,-2.66521 -4.1238,-5.91533 -4.12369,-9.75036 l 0,-41.74805 c -1.1e-4,-1.16981 -0.50111,-1.42158 -1.50299,-0.75531 z m 82.2525,-42.24396 0,-14.50348 c -1.9e-4,-1.3325 -0.75042,-1.9988 -2.25067,-1.9989 l -48.75183,0 c -1.50059,1e-4 -2.25081,0.6664 -2.25067,1.9989 l 0,14.50348 c -1.4e-4,1.49544 0.75008,2.24312 2.25067,2.24305 l 48.75183,0 c 1.50025,7e-5 2.25048,-0.74761 2.25067,-2.24305 z m -2.25067,-52.75726 -48.75183,0 c -1.50059,1.3e-4 -2.25081,0.75035 -2.25067,2.25067 l 0,13.00049 c -1.4e-4,1.50056 0.75008,2.25078 2.25067,2.25067 l 48.75183,0 c 1.50025,1.1e-4 2.25048,-0.75011 2.25067,-2.25067 l 0,-13.00049 c -1.9e-4,-1.50032 -0.75042,-2.25054 -2.25067,-2.25067 z m -131.75202,2.25067 0,13.00049 c -5e-5,1.50056 0.75017,2.25078 2.25068,2.25067 l 48.75183,0 c 1.50033,1.1e-4 2.25056,-0.75011 2.25067,-2.25067 l 0,-13.00049 c -1.1e-4,-1.50032 -0.75034,-2.25054 -2.25067,-2.25067 l -48.75183,0 c -1.50051,1.3e-4 -2.25073,0.75035 -2.25068,2.25067 z m 0,36.00311 0,14.50348 c -5e-5,1.49544 0.75017,2.24312 2.25068,2.24305 l 48.75183,0 c 1.50033,7e-5 2.25056,-0.74761 2.25067,-2.24305 l 0,-14.50348 c -1.1e-4,-1.3325 -0.75034,-1.9988 -2.25067,-1.9989 l -48.75183,0 c -1.50051,1e-4 -2.25073,0.6664 -2.25068,1.9989 z"
       id="path2846" /><path
       d="m 504.85077,264.9469 c -12.5021,15.83356 -27.5854,30.25055 -45.24994,43.25104 -2.83308,1.99889 -5.91663,2.79107 -9.25064,2.37655 -3.33407,-0.41454 -6.16839,-1.95694 -8.50296,-4.62722 -2.16677,-2.49736 -2.99964,-5.32914 -2.49863,-8.49534 0.50098,-3.16619 2.08408,-5.75128 4.7493,-7.75527 15.50289,-11.50002 29.33751,-24.6658 41.50391,-39.49738 2.16668,-2.4973 4.87511,-3.95452 8.1253,-4.37164 3.25005,-0.41702 6.20771,0.37389 8.87299,2.37274 2.66512,1.99895 4.24821,4.62346 4.7493,7.87353 0.50091,3.25017 -0.33197,6.20783 -2.49863,8.87299 z m 102.75268,-16.74652 c 17.16594,13.83467 32.49846,27.91852 45.99762,42.25159 2.33437,2.49736 3.4597,5.49698 3.37601,8.99887 -0.0842,3.50189 -1.37734,6.41758 -3.87955,8.7471 -2.32973,2.33458 -5.16151,3.45992 -8.49533,3.376 -3.33426,-0.0839 -6.16858,-1.29064 -8.50296,-3.62014 -15.83373,-16.33707 -30.83311,-30.17169 -44.99817,-41.50391 -2.66536,-2.16671 -4.12385,-4.87514 -4.37545,-8.12531 -0.25194,-3.25007 0.78947,-6.12381 3.12423,-8.62121 2.33443,-2.67024 5.20944,-4.12999 8.62503,-4.37927 3.41525,-0.24917 6.4581,0.70959 9.12857,2.87628 z m 49.49952,-128.50189 c 2.16651,2.16692 3.24988,4.75074 3.25012,7.75146 -2.4e-4,3.00107 -1.08361,5.58489 -3.25012,7.75147 -2.16698,2.16691 -4.7508,3.25028 -7.75147,3.25012 l -203.00293,0 c -3.00091,1.6e-4 -5.58473,-1.08321 -7.75146,-3.25012 -2.16676,-2.16658 -3.25014,-4.7504 -3.25013,-7.75147 -10e-6,-3.00072 1.08337,-5.58454 3.25013,-7.75146 2.16673,-2.16657 4.75055,-3.24994 7.75146,-3.25013 l 85.50263,0 c 1.50033,1.9e-4 2.25056,-0.66611 2.25067,-1.9989 l 0,-4.75311 c -1.1e-4,-3.82976 1.37445,-7.07861 4.12369,-9.746551 2.749,-2.667542 5.95716,-4.001413 9.62448,-4.001618 3.66706,2.05e-4 6.87522,1.334076 9.62448,4.001618 2.74899,2.667941 4.12355,5.916791 4.12369,9.746551 l 0,4.75311 c -1.4e-4,1.33279 0.75008,1.99909 2.25067,1.9989 l 85.50262,0 c 3.00067,1.9e-4 5.58449,1.08356 7.75147,3.25013 z M 524.84741,297.95166 c 5.83384,0 9.25053,-0.58364 10.25009,-1.75095 0.99934,-1.16729 1.49907,-5.00105 1.49918,-11.50131 l 0,-46.75293 c -1.1e-4,-1.33253 -0.74779,-1.99883 -2.24304,-1.9989 l -47.0047,0 -12.74872,0 c -3.83509,7e-5 -7.16913,-1.41646 -10.00214,-4.24957 -2.83308,-2.83298 -4.24961,-6.16448 -4.24957,-9.99451 l 0,-54.00085 c -4e-5,-3.83491 1.41649,-7.16895 4.24957,-10.00214 2.83301,-2.8329 6.16705,-4.24942 10.00214,-4.24957 l 146.49963,0 c 3.83484,1.5e-4 7.16889,1.41667 10.00214,4.24957 2.83284,2.83319 4.24936,6.16723 4.24957,10.00214 l 0,54.00085 c -2.1e-4,3.83003 -1.41673,7.16153 -4.24957,9.99451 -2.83325,2.83311 -6.1673,4.24964 -10.00214,4.24957 l -54.74853,0 c -1.50059,7e-5 -2.25081,0.66637 -2.25067,1.9989 l 0,46.75293 c -1.4e-4,16.49984 -1.8757,26.666 -5.62668,30.49851 -3.75125,3.83248 -13.54357,5.74873 -29.37699,5.74875 -4.99989,-2e-5 -12.99803,-0.24925 -23.99444,-0.74769 -3.33667,-0.16786 -6.17099,-1.41781 -8.50296,-3.74984 -2.33212,-2.33207 -3.58207,-5.08119 -3.74985,-8.24738 -0.16792,-3.1662 0.8735,-5.83267 3.12424,-7.99942 2.25059,-2.16674 4.9603,-3.16874 8.12912,-3.00598 9.83165,0.50354 16.74642,0.75531 20.74432,0.75531 z m -35.49957,-82.50427 117.00439,0 c 1.33242,8e-5 1.99872,-0.75014 1.99891,-2.25067 l 0,-37.75025 c -1.9e-4,-1.33247 -0.66649,-1.99877 -1.99891,-1.9989 l -117.00439,0 c -1.33267,1.3e-4 -1.99897,0.66643 -1.9989,1.9989 l 0,37.75025 c -7e-5,1.50053 0.66623,2.25075 1.9989,2.25067 z"
       id="path2848" /><path
       d="m 701.10168,244.69849 c -0.50356,0.1679 -1.25506,0.58497 -2.25448,1.25122 -0.99948,0.66635 -1.74843,1.08342 -2.24686,1.25122 -2.83307,1.5005 -5.792,1.58442 -8.8768,0.25177 -3.08483,-1.33255 -5.12569,-3.58322 -6.12259,-6.75202 -1.16476,-3.49928 -0.99818,-6.95794 0.49973,-10.37597 1.49789,-3.4179 3.91514,-6.04241 7.25174,-7.87354 17.66455,-9.6689 34.58145,-21.41815 50.75073,-35.2478 0.33054,-0.16773 0.41319,-0.41823 0.24795,-0.7515 -0.16537,-0.33303 -0.41586,-0.49961 -0.75149,-0.49972 l -46.24939,0 c -3.00091,1.1e-4 -5.58473,-1.08326 -7.75147,-3.25012 -2.16675,-2.16663 -3.25013,-4.75045 -3.25012,-7.75147 -10e-6,-3.00076 1.08337,-5.58458 3.25012,-7.75146 2.16674,-2.16662 4.75056,-3.24999 7.75147,-3.25013 l 34.24835,0 c 1.50039,1.4e-4 2.25062,-0.66616 2.25067,-1.9989 l 0,-22.00317 c -5e-5,-1.33244 -0.75028,-1.99874 -2.25067,-1.9989 l -22.75085,0 c -2.83308,1.6e-4 -5.33298,-1.08321 -7.4997,-3.25012 -2.16677,-2.16658 -3.25014,-4.66648 -3.25012,-7.4997 -2e-5,-2.83287 1.08335,-5.33277 3.25012,-7.49969 2.16672,-2.16657 4.66662,-3.24994 7.4997,-3.25013 l 22.75085,0 c 1.50039,1.9e-4 2.25062,-0.66611 2.25067,-1.9989 l 0,-6.50024 c -5e-5,-3.667 1.24989,-6.79251 3.74985,-9.376527 2.49984,-2.583617 5.58338,-3.875526 9.25064,-3.875733 3.66712,2.07e-4 6.79263,1.292116 9.37653,3.875733 2.58374,2.584017 3.87565,5.709527 3.87573,9.376527 l 0,6.50024 c -8e-5,1.33279 0.66622,1.99909 1.9989,1.9989 l 16.99829,0 c 3.83494,1.9e-4 7.12702,1.41671 9.87625,4.24958 2.74901,2.83322 4.12357,6.16727 4.12369,10.00213 l 0,0.25177 c -1.2e-4,0.33078 0.16646,0.58001 0.49973,0.74768 0.33303,0.16802 0.58353,0.0841 0.75149,-0.25177 2.66508,-3.99763 5.83128,-8.99742 9.4986,-14.99939 1.99877,-3.49916 4.91574,-5.91513 8.75091,-7.24792 3.83491,-1.33241 7.58602,-1.1671 11.25336,0.49591 l 3.49426,1.50299 c 0.1677,0.16804 0.33555,0.16804 0.50354,0 0.1677,-0.16766 0.25162,-0.33296 0.25177,-0.49591 -1.5e-4,-1.6681 0.58223,-3.0859 1.74713,-4.25339 1.1646,-1.1671 2.58113,-1.75075 4.24958,-1.75094 l 73.24981,0 c 2.83282,1.9e-4 5.33272,1.08357 7.4997,3.25012 2.16651,2.16694 3.24988,4.66683 3.25012,7.49969 -2.4e-4,7.33457 -1.08361,14.16796 -3.25012,20.50019 -6.66832,18.49888 -14.66901,36.49915 -24.00208,54.00085 -0.66651,1.50056 -0.41474,2.66785 0.75531,3.50189 18.82912,16.49993 28.24378,36.91617 28.24402,61.24878 -2.4e-4,14.50097 -3.16644,25.00155 -9.49859,31.50177 -6.33263,6.50025 -16.24829,9.75037 -29.74701,9.75037 l -3.75367,0 c -3.33169,0 -6.33131,-1.08337 -8.99887,-3.25012 -2.66793,-2.16674 -4.33495,-4.91841 -5.00106,-8.25501 -0.66649,-3.00087 -0.0409,-5.66734 1.87683,-7.99942 1.91733,-2.33202 4.37653,-3.58197 7.37762,-3.74985 8.66679,-0.16781 14.4168,-1.58434 17.25006,-4.24957 2.83284,-2.66517 4.24936,-7.49711 4.24958,-14.49585 -2.2e-4,-16.83546 -7.66776,-33.75236 -23.00263,-50.75073 -2.83324,-3.16864 -4.49899,-6.79514 -4.99725,-10.87952 -0.49864,-4.08415 0.16766,-7.95734 1.9989,-11.61957 9.99939,-19.50059 17.74831,-37.08378 23.24676,-52.74963 0.33548,-1.33751 -0.16297,-2.00635 -1.49536,-2.00653 l -33.50067,0 c -1.50062,1.8e-4 -2.25085,0.66902 -2.25067,2.00653 l 0,181.49567 c -1.8e-4,3.49933 -1.25012,6.49896 -3.74985,8.99887 -2.50007,2.49988 -5.49969,3.74982 -8.99887,3.74985 -3.49951,-3e-5 -6.49913,-1.24997 -8.99887,-3.74985 -2.50005,-2.49991 -3.75,-5.49954 -3.74985,-8.99887 l 0,-184.50165 c -1.5e-4,-0.33043 -0.12603,-0.49573 -0.37765,-0.49591 -0.25192,1.8e-4 -0.45919,0.0841 -0.6218,0.25177 -7.33453,12.49711 -15.75229,24.99659 -25.25329,37.49847 -0.83427,1.1649 -0.66643,1.74727 0.50354,1.74713 l 7.9956,0 c 3.00076,1.4e-4 5.58458,1.08351 7.75147,3.25013 2.1666,2.16688 3.24997,4.7507 3.25012,7.75146 -1.5e-4,3.00102 -1.08352,5.58484 -3.25012,7.75147 -2.16689,2.16686 -4.75071,3.25023 -7.75147,3.25012 l -27.00043,0 c -1.50055,1.1e-4 -2.74922,0.49857 -3.74603,1.49536 -6.00188,6.33759 -12.2529,12.33938 -18.75305,18.00537 -0.66638,0.6664 -0.41716,0.99955 0.74768,0.99945 l 37.5061,0 c 3.82983,1e-4 7.12064,1.41662 9.87244,4.24957 2.75153,2.83314 4.12737,6.16464 4.1275,9.99451 l 0,88.75275 c -1.3e-4,3.49933 -1.25008,6.49896 -3.74984,8.99887 -2.50003,2.49988 -5.5022,3.74982 -9.0065,3.74985 l -3.99781,0 c -2.33471,-3e-5 -4.37684,-0.87486 -6.1264,-2.62452 -1.74979,-1.74969 -2.62462,-3.79182 -2.62451,-6.1264 -1.1e-4,-0.82907 -0.41719,-1.2436 -1.25122,-1.24359 l -51.75019,0 c -0.99696,-1e-5 -1.49541,0.41452 -1.49536,1.24359 -5e-5,2.33458 -0.8342,4.37671 -2.50244,6.1264 -1.66835,1.74966 -3.66724,2.62449 -5.9967,2.62452 l -4.50135,0 c -3.66723,-3e-5 -6.79274,-1.29193 -9.37652,-3.87574 -2.58385,-2.58383 -3.87576,-5.7068 -3.87573,-9.36889 l 0,-63.25531 c -3e-5,-0.4984 -0.20857,-0.87224 -0.62561,-1.12152 -0.41711,-0.24917 -0.79095,-0.20848 -1.12153,0.12207 z m 55.00031,-104.75159 0,22.00317 c -8e-5,1.33274 0.66622,1.99904 1.9989,1.9989 l 3.9978,0 c 1.50036,1.4e-4 2.66766,-0.41693 3.5019,-1.25122 6.16445,-6.99855 12.49684,-14.74746 18.99719,-23.24676 0.66619,-1.00183 0.33304,-1.50283 -0.99945,-1.50299 l -25.49744,0 c -1.33268,1.6e-4 -1.99898,0.66646 -1.9989,1.9989 z m 27.49634,149.00207 0,-17.25006 c -1.1e-4,-1.33257 -0.75034,-1.99887 -2.25067,-1.9989 l -49.99543,0 c -1.5005,3e-5 -2.25072,0.66633 -2.25067,1.9989 l 0,17.25006 c -5e-5,1.33262 0.75017,1.99892 2.25067,1.99891 l 49.99543,0 c 1.50033,10e-6 2.25056,-0.66629 2.25067,-1.99891 z m 0,-41.99981 0,-16.50238 c -1.1e-4,-1.33253 -0.75034,-1.99883 -2.25067,-1.9989 l -49.99543,0 c -1.5005,7e-5 -2.25072,0.66637 -2.25067,1.9989 l 0,16.50238 c -5e-5,1.33265 0.75017,1.99895 2.25067,1.9989 l 49.99543,0 c 1.50033,5e-5 2.25056,-0.66625 2.25067,-1.9989 z"
       id="path2850" /></g><g
     transform="scale(0.95359995,1.0486578)"
     id="text3622"
     style="font-size:38.15769196px;font-style:normal;font-weight:normal;text-align:center;text-anchor:middle;fill:#0066b3;fill-opacity:1;stroke:#0066b3;stroke-width:0.95394224;stroke-opacity:1;font-family:'Rounded M+ 1m regular';-inkscape-font-specification:'Rounded M+ 1m regular'"><path
       d="m 290.36764,394.92107 -37.79903,0 0,91.17881 -12.71612,0 0,-91.17881 -36.61127,0 0,-11.03927 87.12642,0 z"
       id="path2827"
       style="font-size:143.09133911px;fill:#0066b3;stroke:#0066b3;stroke-width:4.76971149;stroke-miterlimit:4;font-family:IPAPGothic;-inkscape-font-specification:IPAPGothic" /><path
       d="m 332.63828,412.80749 c 10.06106,7e-5 18.53846,3.37706 25.43225,10.13098 7.07996,7.08009 10.61998,16.39593 10.62006,27.94752 -8e-5,11.13246 -3.47023,20.19211 -10.41045,27.17897 -6.80063,6.75399 -15.34791,10.13098 -25.64186,10.13098 -10.29404,0 -18.77145,-3.33041 -25.43225,-9.99124 -6.98689,-6.98686 -10.48033,-16.23283 -10.48032,-27.73792 -10e-6,-11.27212 3.54001,-20.44822 10.62006,-27.52831 6.75396,-6.75392 15.18479,-10.13091 25.29251,-10.13098 z m 0,9.43229 c -5.96218,6e-5 -11.01602,2.1427 -15.16153,6.42793 -5.26348,5.2635 -7.8952,12.57643 -7.89518,21.93881 -2e-5,9.22271 2.58512,16.41919 7.75544,21.58946 4.1921,4.19214 9.29251,6.2882 15.30127,6.2882 6.14841,0 11.2954,-2.14264 15.44101,-6.42794 5.17023,-5.17027 7.75537,-12.4832 7.75544,-21.9388 -7e-5,-8.89659 -2.63179,-16.04649 -7.89518,-21.44973 -4.28534,-4.28523 -9.38576,-6.42787 -15.30127,-6.42793 z"
       id="path2829"
       style="font-size:143.09133911px;fill:#0066b3;stroke:#0066b3;stroke-width:4.76971149;stroke-miterlimit:4;font-family:IPAPGothic;-inkscape-font-specification:IPAPGothic" /><path
       d="m 448.62051,486.09988 -14.88205,0 -24.45409,-34.65494 -8.17465,7.89518 0,26.75976 -12.01744,0 0,-105.78139 12.01744,0 0,67.70288 30.04359,-33.18769 15.44101,0 -29.62438,29.62438 z"
       id="path2831"
       style="font-size:143.09133911px;fill:#0066b3;stroke:#0066b3;stroke-width:4.76971149;stroke-miterlimit:4;font-family:IPAPGothic;-inkscape-font-specification:IPAPGothic" /><path
       d="m 519.95657,414.83368 -34.58506,83.56311 c -4.42506,10.66662 -12.06404,15.99993 -22.91697,15.99996 l -1.60699,0 -3.00435,-11.17901 2.30567,0 c 7.77871,-2e-5 13.01886,-3.47017 15.72048,-10.41046 l 4.61134,-11.45848 -29.48464,-66.51512 13.9039,0 15.72048,40.03484 c 2.46866,6.47453 4.28525,11.52837 5.44977,15.16153 l 0.41921,0 c 1.86313,-5.7758 3.63314,-10.82964 5.31003,-15.16153 l 14.88206,-40.03484 z"
       id="path2833"
       style="font-size:143.09133911px;fill:#0066b3;stroke:#0066b3;stroke-width:4.76971149;stroke-miterlimit:4;font-family:IPAPGothic;-inkscape-font-specification:IPAPGothic" /><path
       d="m 563.48484,412.80749 c 10.06106,7e-5 18.53847,3.37706 25.43225,10.13098 7.07997,7.08009 10.61999,16.39593 10.62006,27.94752 -7e-5,11.13246 -3.47022,20.19211 -10.41045,27.17897 -6.80063,6.75399 -15.3479,10.13098 -25.64186,10.13098 -10.29403,0 -18.77144,-3.33041 -25.43225,-9.99124 -6.98689,-6.98686 -10.48033,-16.23283 -10.48032,-27.73792 -10e-6,-11.27212 3.54001,-20.44822 10.62006,-27.52831 6.75396,-6.75392 15.18479,-10.13091 25.29251,-10.13098 z m 0,9.43229 c -5.96217,6e-5 -11.01601,2.1427 -15.16153,6.42793 -5.26347,5.2635 -7.8952,12.57643 -7.89518,21.93881 -2e-5,9.22271 2.58513,16.41919 7.75544,21.58946 4.1921,4.19214 9.29252,6.2882 15.30127,6.2882 6.14841,0 11.29541,-2.14264 15.44101,-6.42794 5.17023,-5.17027 7.75538,-12.4832 7.75544,-21.9388 -6e-5,-8.89659 -2.63179,-16.04649 -7.89517,-21.44973 -4.28535,-4.28523 -9.38576,-6.42787 -15.30128,-6.42793 z"
       id="path2835"
       style="font-size:143.09133911px;fill:#0066b3;stroke:#0066b3;stroke-width:4.76971149;stroke-miterlimit:4;font-family:IPAPGothic;-inkscape-font-specification:IPAPGothic" /><path
       d="m 760.58478,486.09988 -12.29691,0 0,-55.26624 c -1.1e-4,-11.13236 0.27937,-23.05663 0.83842,-35.77283 l -0.55895,0 c -3.72643,10.75988 -7.77882,21.63611 -12.15717,32.62874 l -22.35802,55.05662 -9.29256,0 -22.56763,-56.24439 c -4.65795,-11.64473 -8.47744,-22.17163 -11.45848,-31.58071 l -0.55895,0 c 0.55892,14.99858 0.8384,26.82969 0.83842,35.49336 l 0,55.68545 -11.8777,0 0,-102.21808 18.02616,0 24.31435,60.08718 c 2.88785,7.0335 5.61273,14.76564 8.17465,23.19645 l 0.41921,0 c 2.096,-7.59239 4.68114,-15.23137 7.75544,-22.91697 l 24.17461,-60.36666 18.58511,0 z"
       id="path2837"
       style="font-size:143.09133911px;fill:#0066b3;stroke:#0066b3;stroke-width:4.76971149;stroke-miterlimit:4;font-family:IPAPGothic;-inkscape-font-specification:IPAPGothic" /><path
       d="m 793.91218,451.86416 c 0.4192,8.24454 3.00434,14.74234 7.75544,19.4934 4.84421,4.84425 10.71318,7.26636 17.60694,7.26635 9.0829,10e-6 16.27938,-4.23869 21.58947,-12.71612 l 8.03491,5.31003 c -6.75405,11.31875 -17.11791,16.97812 -31.09162,16.97812 -10.57352,0 -19.26053,-3.37699 -26.06107,-10.13098 -6.84715,-6.8937 -10.27072,-15.97664 -10.27072,-27.24884 0,-11.9708 3.58659,-21.54282 10.7598,-28.71608 6.38133,-6.38128 14.34637,-9.57195 23.89514,-9.57203 8.98973,8e-5 16.51227,2.95785 22.56763,8.87334 6.80049,6.89378 10.20077,16.09317 10.20084,27.59818 l 0,2.86463 z m 42.34051,-9.01308 c -0.69875,-6.47446 -2.98113,-11.57488 -6.84715,-15.30127 -3.81954,-3.81943 -8.33772,-5.72918 -13.55455,-5.72925 -6.05533,7e-5 -11.22562,2.58521 -15.51088,7.75544 -2.93451,3.4935 -4.84425,7.91852 -5.72924,13.27508 z"
       id="path2839"
       style="font-size:143.09133911px;fill:#0066b3;stroke:#0066b3;stroke-width:4.76971149;stroke-miterlimit:4;font-family:IPAPGothic;-inkscape-font-specification:IPAPGothic" /><path
       d="m 903.46652,482.11735 c -5.2635,3.67976 -10.68997,5.51964 -16.27944,5.51964 -11.08587,0 -16.62879,-6.24161 -16.62878,-18.72484 l 0,-45.34486 -9.71176,0 0,-8.73361 9.71176,0 0,-15.99996 11.73797,-5.86898 0,21.86894 19.77287,0 0,8.73361 -19.77287,0 0,43.66801 c -3e-5,7.31295 2.49195,10.96941 7.47596,10.9694 3.35366,10e-6 6.54434,-1.28092 9.57203,-3.84278 z"
       id="path2841"
       style="font-size:143.09133911px;fill:#0066b3;stroke:#0066b3;stroke-width:4.76971149;stroke-miterlimit:4;font-family:IPAPGothic;-inkscape-font-specification:IPAPGothic" /><path
       d="m 931.9031,486.09988 -15.441,0 0,-15.44101 15.441,0 z"
       id="path2843"
       style="font-size:143.09133911px;fill:#0066b3;stroke:#0066b3;stroke-width:4.76971149;stroke-miterlimit:4;font-family:IPAPGothic;-inkscape-font-specification:IPAPGothic" /></g></g><path
   d="m 376.51428,86.45978 c -122.11545,0 -221.22366,99.11216 -221.22366,221.23251 0,0.0277 0,0.0552 0,0.0829 119.00675,3.51908 214.52823,101.19357 214.58695,221.03892 2.20865,0.0652 4.41231,0.11055 6.63671,0.11055 2.22444,0 4.42798,-0.0454 6.63672,-0.11055 0.0588,-119.84535 95.58017,-217.51983 214.58693,-221.03892 0,-0.0277 0,-0.0553 0,-0.0829 0,-122.12036 -99.10819,-221.23251 -221.22365,-221.23251 z"
   id="path6"
   style="fill:#0066b3;fill-opacity:1" /></svg>