<?xml version="1.0" encoding="UTF-8" standalone="no"?>
<!-- Created with Inkscape (http://www.inkscape.org/) -->

<svg
   xmlns:svg="http://www.w3.org/2000/svg"
   xmlns="http://www.w3.org/2000/svg"
   xmlns:xlink="http://www.w3.org/1999/xlink"
   version="1.1"
   width="625"
   height="950"
   id="svg2"
   xml:space="preserve"><defs
     id="defs6"><linearGradient
       id="linearGradient15703"><stop
         id="stop15705"
         style="stop-color:#ffffff;stop-opacity:1"
         offset="0" /></linearGradient><linearGradient
       x1="-37.125"
       y1="465.375"
       x2="967.87512"
       y2="465.375"
       id="linearGradient15707"
       xlink:href="#linearGradient15703"
       gradientUnits="userSpaceOnUse"
       gradientTransform="translate(961.6578,56.04101)" /></defs><g
     transform="matrix(34.167339,0,0,34.167339,44.9692,29.01028)"
     id="g2991" /><rect
     width="625"
     height="950"
     rx="50"
     ry="50"
     x="0"
     y="0"
     id="rect2873"
     style="color:#000000;fill:#0566ae;fill-opacity:1;fill-rule:nonzero;stroke:none;stroke-width:3;marker:none;visibility:visible;display:inline;overflow:visible;enable-background:accumulate" /><rect
     width="605"
     height="930"
     rx="40"
     ry="40"
     x="10"
     y="10"
     id="rect2874"
     style="color:#000000;fill:#ffffff;fill-opacity:1;fill-rule:nonzero;stroke:none;stroke-width:3;marker:none;visibility:visible;display:inline;overflow:visible;enable-background:accumulate" /><rect
     width="565"
     height="890"
     rx="30"
     ry="30"
     x="30"
     y="30"
     id="rect2875"
     style="color:#000000;fill:#0566ae;fill-opacity:1;fill-rule:nonzero;stroke:none;stroke-width:3;marker:none;visibility:visible;display:inline;overflow:visible;enable-background:accumulate" /><rect
     width="545"
     height="870"
     rx="20"
     ry="20"
     x="40"
     y="40"
     id="rect2875-8"
     style="color:#000000;fill:#ffffff;fill-opacity:1;fill-rule:nonzero;stroke:none;stroke-width:3;marker:none;visibility:visible;display:inline;overflow:visible;enable-background:accumulate" /><g
     transform="translate(-651.22881,0)"
     id="g3833"><path
       d="m 817.5,699.43856 0,28.57786 299.9232,0.28867 -111.7135,-109.6928 -81.98089,0 81.40359,81.4036 L 817.5,699.43856 z"
       id="path3807"
       style="fill:#0566ae;fill-opacity:1;stroke:none" /><path
       d="m 817.5,770.34588 0,-28.57786 299.9232,-0.28867 -111.7135,109.6928 -81.98089,0 81.40359,-81.4036 -187.6324,0.57733 z"
       id="path3807-5"
       style="fill:#0566ae;fill-opacity:1;stroke:none" /></g><g
     id="g2841"><rect
       width="475"
       height="475"
       rx="30"
       ry="30"
       x="77.061226"
       y="71.479752"
       id="rect3726"
       style="color:#000000;fill:#0566ae;fill-opacity:1;fill-rule:nonzero;stroke:none;stroke-width:3;marker:none;visibility:visible;display:inline;overflow:visible;enable-background:accumulate" /><g
       transform="translate(-630.31378,-45.722244)"
       id="g3926"><path
         d="m 736.45471,504.20812 413.13309,0 0,-95.52682 -413.13309,95.52682 z"
         id="path3896"
         style="fill:#ffffff;stroke:none" /><path
         d="m 834.90922,486.10148 0.28866,-171.55746 c -12.07751,10.00157 -22.82763,20.46454 -39.28954,26.08171 l -8.3543,-14.88604 c 27.68802,-17.07379 45.92566,-43.59797 54.36947,-79.91597 l 3.7031,-0.007 c 47.2947,-0.31901 76.49617,59.40156 76.49617,97.16403 l -17.47553,4.51108 c -3.01865,-23.06677 -11.16355,-38.33966 -21.08386,-50.2871 -3.33816,27.30835 -6.84496,53.08829 -11.52961,77.41593 l 53.7426,44.81947 -3.45549,24.06106 -55.37553,-31.79275 c -2.67727,25.92195 -6.32143,51.1993 -10.14007,76.36033 l -20.74141,-1.82255 -1.15466,-0.14474 z"
         id="path3898"
         style="fill:#ffffff;stroke:none" /><path
         d="m 1004.2564,457.66941 -23.47345,-0.40823 c 5.29854,-65.06447 7.9857,-130.78179 11.22644,-196.36071 -9.82812,6.1631 -21.2927,27.63369 -20.2076,46.33459 l -18.98289,-3.06175 c 1.71256,-28.26733 6.22591,-49.76198 28.78051,-69.60396 12.85658,-11.36672 28.26759,-17.77917 47.96759,-20.00347 l 6.5241,0.40887 c 8.5726,24.34996 5.8311,52.62946 -0.8089,75.52271 l 42.6605,23.67759 c 5.5386,4.09486 9.9233,13.57157 6.5318,23.47347 l -33.4753,72.66571 -16.1252,-16.12525 14.6964,-55.92811 -21.024,-8.98115 -24.29,128.38969 z"
         id="path3900"
         style="fill:#ffffff;stroke:none" /><path
         d="m 861.13529,211.91235 a 20.989046,20.989046 0 1 1 -41.9781,0 20.989046,20.989046 0 1 1 41.9781,0 z"
         transform="translate(10.374954,7.1090796)"
         id="path3902"
         style="color:#000000;fill:#ffffff;fill-opacity:1;fill-rule:nonzero;stroke:none;stroke-width:3;marker:none;visibility:visible;display:inline;overflow:visible;enable-background:accumulate" /><path
         d="m 861.13529,211.91235 a 20.989046,20.989046 0 1 1 -41.9781,0 20.989046,20.989046 0 1 1 41.9781,0 z"
         transform="translate(194.54339,-24.066765)"
         id="path3902-9"
         style="color:#000000;fill:#ffffff;fill-opacity:1;fill-rule:nonzero;stroke:none;stroke-width:3;marker:none;visibility:visible;display:inline;overflow:visible;enable-background:accumulate" /></g></g></svg>