<?xml version="1.0" encoding="UTF-8" standalone="no"?>
<!-- Created with Inkscape (http://www.inkscape.org/) -->

<svg
   xmlns:svg="http://www.w3.org/2000/svg"
   xmlns="http://www.w3.org/2000/svg"
   version="1.2"
   width="1200"
   height="450"
   id="svg1890">
  <defs
     id="defs1893" />
  <rect
     width="1197.5"
     height="447.5"
     rx="33.316483"
     x="1.25"
     y="1.25"
     id="rect2385"
     style="fill:#ffffff;fill-opacity:1;fill-rule:evenodd;stroke:#0066b3;stroke-width:2.5;stroke-linecap:butt;stroke-linejoin:round;stroke-miterlimit:4;stroke-opacity:1;stroke-dasharray:none;stroke-dashoffset:0;marker:none;visibility:visible;display:inline;overflow:visible;enable-background:accumulate" />
  <rect
     width="1165"
     height="415"
     rx="22.503939"
     ry="22.503939"
     x="16.978363"
     y="17.24411"
     id="rect3157"
     style="fill:#0066b3;fill-opacity:1;fill-rule:evenodd;stroke:none;stroke-width:1.25;marker:none;visibility:visible;display:inline;overflow:visible;enable-background:accumulate" />
  <g
     transform="matrix(3.2886799,0,0,3.2886799,29.780865,-243.94945)"
     id="g2853">
    <g
       transform="matrix(0,6.9830315,6.9830315,0,324.82998,88.946702)"
       id="g11269"
       style="fill:#ffffff;stroke:none">
      <path
         d="m 0,0 0,-2.94 8.2412772,0 L 10.363723,0 z"
         id="path11271"
         style="fill:#ffffff;stroke:none" />
    </g>
    <g
       transform="matrix(0,6.9830315,6.9830315,0,279.23078,136.1869)"
       id="g11277"
       style="fill:#ffffff;stroke:none">
      <path
         d="m 0,0 -1.807,0 0.48,1.075 0.046,0.101 c 0.003,0.018 0.01,0.033 0.01,0.051 0,0.128 -0.096,0.227 -0.217,0.246 -0.006,0 -0.012,10e-4 -0.018,10e-4 -0.008,0 -0.016,0 -0.024,-10e-4 -0.014,0 -0.031,-0.002 -0.047,-0.003 C -1.629,1.466 -1.681,1.458 -1.733,1.447 -1.742,1.443 -1.753,1.439 -1.762,1.436 -1.807,1.423 -1.85,1.407 -1.89,1.385 -1.895,1.382 -1.899,1.381 -1.905,1.378 l -4.693,-2.703 c -0.11,-0.064 -0.166,-0.149 -0.167,-0.232 10e-4,-0.085 0.057,-0.17 0.167,-0.232 l 2,-1.15 2.693,-1.553 c 0.006,-0.003 0.01,-0.006 0.015,-0.007 0.04,-0.022 0.083,-0.038 0.128,-0.052 0.009,-0.004 0.02,-0.007 0.029,-0.01 0.052,-0.012 0.104,-0.02 0.156,-0.024 0.016,-0.003 0.033,-0.004 0.047,-0.004 l 0.042,0 c 0.121,0.02 0.217,0.121 0.217,0.247 0,0.018 -0.007,0.034 -0.01,0.049 l -0.046,0.103 -0.557,1.251 3.943,0 4.692,6.529 1.825,0 0,2.94 -3.883,0 L 0,0 z"
         id="path11279"
         style="fill:#ffffff;stroke:none" />
    </g>
  </g>
  <g
     transform="translate(0,-2)"
     id="text2848"
     style="font-size:43.05630493px;font-style:normal;font-weight:normal;text-align:center;text-anchor:middle;fill:#ffffff;fill-opacity:1;stroke:none;font-family:'Rounded M+ 1m medium';-inkscape-font-specification:'Rounded M+ 1m medium'">
    <path
       d="m 110.62577,228.29585 30.99829,0 c 0.8606,0 1.18417,-0.43196 0.9707,-1.29591 -1.39943,-3.76452 -3.39174,-8.55395 -5.97694,-14.3683 -0.32197,-0.86064 -0.96746,-1.29096 -1.93647,-1.29098 l -1.61126,0 c -2.47688,2e-5 -4.63015,-0.91484 -6.45983,-2.74457 -1.82974,-1.82968 -2.74459,-3.98295 -2.74456,-6.45982 l 0,-22.44432 c -3e-5,-2.4735 0.91482,-4.62513 2.74456,-6.4549 1.82968,-1.82965 3.98295,-2.7445 6.45983,-2.74456 l 84.2783,0 c 2.47671,6e-5 4.62998,0.91491 6.45982,2.74456 1.82958,1.82977 2.74443,3.9814 2.74456,6.4549 l 0,22.44432 c -1.3e-4,2.47687 -0.91498,4.63014 -2.74456,6.45982 -1.82984,1.82973 -3.98311,2.74459 -6.45982,2.74457 l -1.61127,0 c -0.96917,2e-5 -1.61466,0.43034 -1.93646,1.29098 -2.04664,4.62849 -4.68444,9.41792 -7.91341,14.3683 -0.21692,0.21681 -0.24402,0.487 -0.0813,0.81056 0.1625,0.32357 0.40476,0.48535 0.7268,0.48535 l 33.25997,0 c 2.04636,0 3.76931,0.6997 5.16884,2.09907 1.39923,1.39939 2.09892,3.12151 2.09907,5.16639 -1.5e-4,2.04486 -0.69984,3.76699 -2.09907,5.16638 -1.39953,1.39937 -3.12248,2.09906 -5.16884,2.09907 l -129.16694,0 c -2.04653,-1e-5 -3.76948,-0.6997 -5.16885,-2.09907 -1.39939,-1.39939 -2.09908,-3.12152 -2.09907,-5.16638 -1e-5,-2.04488 0.69968,-3.767 2.09907,-5.16639 1.39937,-1.39937 3.12232,-2.09907 5.16885,-2.09907 z m 30.3528,-43.43505 0,12.59444 c -5e-5,0.96909 0.43028,1.45361 1.29098,1.45358 l 65.87937,0 c 0.86054,3e-5 1.29087,-0.48449 1.29098,-1.45358 l 0,-12.59444 c -1.1e-4,-0.96901 -0.43044,-1.45354 -1.29098,-1.45359 l -65.87937,0 c -0.8607,5e-5 -1.29103,0.48458 -1.29098,1.45359 z m 13.72282,27.77084 c 2.26325,5.38402 4.14716,10.17345 5.65173,14.3683 0.32514,0.86395 0.91807,1.29591 1.77879,1.29591 l 22.9272,0 c 0.86057,0 1.56026,-0.37776 2.09908,-1.1333 3.44251,-5.16719 6.29548,-10.06503 8.5589,-14.69352 0.10501,-0.2135 0.0771,-0.45494 -0.0838,-0.72432 -0.16106,-0.26935 -0.4025,-0.40403 -0.72433,-0.40405 l -39.39951,0 c -0.96912,2e-5 -1.23848,0.43034 -0.80809,1.29098 z m -10.17016,-59.41463 c -9.4738,7.85764 -19.96916,14.96131 -31.48611,21.31102 -1.82972,1.07752 -3.76701,1.2664 -5.81187,0.56665 -2.04488,-0.69963 -3.49764,-2.01853 -4.35829,-3.9567 -0.86066,-2.04645 -0.91404,-4.11925 -0.16014,-6.21838 0.75389,-2.09901 2.09824,-3.68563 4.03308,-4.75987 8.50468,-4.6284 15.23222,-8.61138 20.18264,-11.94896 0.32518,-0.10832 0.48778,-0.37768 0.48782,-0.80809 -4e-5,-0.43024 -0.10844,-0.75381 -0.32521,-0.9707 -9.5789,-8.60972 -14.53093,-13.07559 -14.85612,-13.39761 -1.61292,-1.39928 -2.44647,-3.12223 -2.50066,-5.16884 -0.0542,-2.04641 0.67258,-3.82192 2.18038,-5.32653 1.61288,-1.50767 3.49597,-2.31576 5.64926,-2.42428 2.15325,-0.10829 4.09054,0.5372 5.81188,1.93647 2.04648,1.7247 7.48304,6.62253 16.3097,14.69352 0.7522,0.53882 1.45189,0.59302 2.09907,0.1626 6.99686,-6.02775 12.75535,-12.0556 17.27548,-18.08357 0.21674,-0.21669 0.24384,-0.45895 0.0813,-0.72679 -0.16267,-0.26761 -0.40493,-0.40147 -0.72679,-0.40158 l -29.06182,0 c -1.93815,1.1e-4 -3.60689,-0.6733 -5.00625,-2.02024 -1.39941,-1.3467 -2.0991,-2.98835 -2.09907,-4.92494 -3e-5,-1.93634 0.69966,-3.60427 2.09907,-5.00377 1.39936,-1.39926 3.0681,-2.09895 5.00625,-2.09908 l 44.72603,0 c 5.91937,1.3e-4 10.49364,2.63629 13.72282,7.90848 2.15153,3.44602 4.46577,6.72931 6.94271,9.84988 0.53863,0.75565 1.12991,0.80985 1.77386,0.16261 3.65932,-4.08963 7.10521,-8.17937 10.33769,-12.26924 1.29087,-1.72446 2.95879,-2.77482 5.00378,-3.15107 2.04475,-0.376 3.98204,-0.0253 5.81187,1.052 1.82959,1.1827 2.9325,2.74304 3.30875,4.68103 0.376,1.93823 -0.0272,3.71374 -1.20967,5.32652 -4.30667,5.48924 -8.61158,10.54804 -12.91473,15.17641 -0.64724,0.64723 -0.64724,1.29436 0,1.94139 2.47345,2.26013 5.48737,4.84373 9.04179,7.75081 0.75213,0.53553 1.39762,0.53553 1.93647,0 3.55089,-3.76773 7.64063,-8.66556 12.26923,-14.69352 1.29084,-1.72448 2.98587,-2.77484 5.08508,-3.15107 2.09893,-0.37602 4.06332,-0.0254 5.89317,1.052 1.82957,1.18268 2.9333,2.77012 3.31122,4.76233 0.37762,1.99242 -0.0264,3.79502 -1.21214,5.40783 -3.76797,4.73697 -8.12707,9.79576 -13.07733,15.1764 -0.21366,0.21688 -0.29414,0.54045 -0.24144,0.9707 0.0524,0.4304 0.24131,0.69977 0.56665,0.80809 6.24123,3.87301 10.60034,6.45661 13.07733,7.75081 1.93796,1.07424 3.31024,2.66086 4.11684,4.75987 0.8063,2.09913 0.7792,4.17193 -0.0813,6.21838 -0.86081,1.93817 -2.31357,3.25707 -4.35829,3.9567 -2.04502,0.69975 -3.98231,0.51087 -5.81187,-0.56665 -11.51711,-6.34971 -22.01247,-13.45338 -31.4861,-21.31102 -0.21692,-0.10832 -0.4058,-0.10914 -0.56666,-0.002 -0.16107,0.10684 -0.24155,0.21442 -0.24144,0.32275 -1.1e-4,2.04659 -0.6998,3.76953 -2.09907,5.16884 -1.39949,1.39946 -3.1208,2.09915 -5.16392,2.09907 l -45.21385,0 c -2.04328,8e-5 -3.76459,-0.69961 -5.16392,-2.09907 -1.39943,-1.39931 -2.09912,-3.12225 -2.09907,-5.16884 -5e-5,-0.21345 -0.0805,-0.37441 -0.24144,-0.48289 -0.16101,-0.10832 -0.3499,-0.0541 -0.56665,0.1626 z m 29.86991,-32.4568 c -6.13633,9.04353 -13.2942,17.38562 -21.47362,25.02628 -0.21686,0.10849 -0.27106,0.29737 -0.1626,0.56665 0.10834,0.26945 0.27094,0.40413 0.48781,0.40405 l 43.91301,0 c 0.21671,8e-5 0.37931,-0.1346 0.48782,-0.40405 0.1083,-0.26928 0.0541,-0.45816 -0.16261,-0.56665 -8.17958,-7.64066 -15.33745,-15.98275 -21.47362,-25.02628 -0.10848,-0.21341 -0.37785,-0.32017 -0.80809,-0.32028 -0.43041,1.1e-4 -0.69978,0.10687 -0.8081,0.32028 z"
       id="path3629"
       style="font-size:161.46113586px;fill:#ffffff" />
    <path
       d="m 269.34234,217.63788 c 3.7678,-1.07744 6.13624,-1.77714 7.10531,-2.09907 0.86064,-0.32191 1.29096,-0.9132 1.29098,-1.77387 l 0,-62.00151 c -2e-5,-0.86386 -0.43034,-1.29583 -1.29098,-1.29591 l -6.78503,0 c -2.04324,8e-5 -3.76454,-0.72589 -5.16392,-2.17791 -1.39939,-1.45186 -2.09908,-3.20026 -2.09907,-5.24522 -10e-6,-2.04478 0.69968,-3.74063 2.09907,-5.08754 1.39938,-1.34673 3.12068,-2.02014 5.16392,-2.02024 l 6.78503,0 c 0.86064,1e-4 1.29096,-0.48443 1.29098,-1.45358 l 0,-22.43939 c -2e-5,-2.36832 0.83353,-4.35981 2.50066,-5.97448 1.66708,-1.61442 3.68485,-2.42169 6.05332,-2.42182 2.3684,1.3e-4 4.35989,0.8074 5.97447,2.42182 1.61451,1.61467 2.42178,3.60616 2.42182,5.97448 l 0,22.43939 c -4e-5,0.96915 0.48449,1.45368 1.45358,1.45358 l 9.5296,0 c 2.04318,1e-4 3.76448,0.67351 5.16392,2.02024 1.39933,1.34691 2.09902,3.04276 2.09907,5.08754 -5e-5,2.04496 -0.69974,3.79336 -2.09907,5.24522 -1.39944,1.45202 -3.12074,2.17799 -5.16392,2.17791 l -9.5296,0 c -0.96909,8e-5 -1.45362,0.43205 -1.45358,1.29591 l 0,56.18718 c -4e-5,0.75227 0.43029,1.02163 1.29098,0.80809 4.84523,-1.82969 10.06663,-3.87456 15.66421,-6.13462 0.7522,-0.32518 1.23672,-0.91811 1.45359,-1.77879 3.33743,-13.02472 5.00618,-29.0634 5.00624,-48.11609 l 0,-37.941 c -6e-5,-2.47672 0.91479,-4.63 2.74456,-6.45983 1.82964,-1.82958 3.98127,-2.74443 6.4549,-2.74456 l 75.24144,0 c 2.04637,1.3e-4 3.74221,0.69982 5.08754,2.09907 1.34503,1.39951 2.01762,3.12164 2.01778,5.16639 -1.6e-4,2.04499 -0.67275,3.76711 -2.01778,5.16638 -1.34533,1.39949 -3.04117,2.09918 -5.08754,2.09907 l -66.19966,0 c -0.86073,1.1e-4 -1.29106,0.43044 -1.29098,1.29098 l 0,18.24617 c -8e-5,0.96915 0.43025,1.45368 1.29098,1.45359 l 62.32672,0 c 1.93797,9e-5 3.60671,0.69978 5.00624,2.09907 1.39924,1.39947 2.09893,3.06822 2.09908,5.00624 -1.5e-4,4.73696 -0.64728,9.36543 -1.9414,13.88542 -5.27246,17.86682 -12.53709,32.77384 -21.7939,44.72111 -0.53886,0.75556 -0.48466,1.45525 0.1626,2.09908 7.2103,6.99692 15.33722,12.80961 24.38079,17.43807 1.93467,1.07747 3.27903,2.66573 4.03308,4.7648 0.75374,2.09908 0.59195,4.11767 -0.48535,6.05578 -1.18273,2.04322 -2.82355,3.44178 -4.92247,4.19568 -2.09923,0.75389 -4.22458,0.59375 -6.37606,-0.48042 -10.44295,-5.27561 -19.75408,-11.89639 -27.93345,-19.86236 -0.64725,-0.53872 -1.29274,-0.53872 -1.93647,0 -9.25705,8.2879 -19.69821,15.01544 -31.3235,20.18264 -2.155,0.96905 -4.30827,1.04953 -6.45982,0.24145 -2.15171,-0.80811 -3.71205,-2.28797 -4.68104,-4.43959 -0.96912,-2.04324 -1.05042,-4.08811 -0.2439,-6.13462 0.80638,-2.04651 2.23286,-3.50009 4.27945,-4.36075 10.43943,-4.73687 19.64217,-10.76472 27.60823,-18.08357 0.64703,-0.64382 0.75544,-1.28931 0.32521,-1.93647 -7.42733,-10.11756 -13.56358,-21.8497 -18.40877,-35.19644 -0.75234,-2.15485 -0.64394,-4.28185 0.3252,-6.38098 0.96897,-2.09901 2.52932,-3.57887 4.68104,-4.43959 2.04642,-0.75218 4.09211,-0.67088 6.13708,0.2439 2.04477,0.91493 3.44333,2.44817 4.19568,4.59973 3.98452,11.08671 8.66719,20.50626 14.04803,28.25866 0.2134,0.21356 0.48195,0.34742 0.80563,0.40158 0.32345,0.0542 0.59363,-0.0271 0.81055,-0.2439 7.21031,-10.22596 12.8062,-22.55102 16.78767,-36.97524 0.21667,-0.96569 -0.10525,-1.44858 -0.96578,-1.44865 l -50.54037,0 c -0.86073,7e-5 -1.29106,0.4304 -1.29098,1.29098 l 0,7.42559 c -8e-5,28.30961 -6.02793,52.36681 -18.08356,72.17167 -1.18264,1.93811 -2.93105,2.96136 -5.24522,3.06977 -2.3143,0.1084 -4.1711,-0.69969 -5.57043,-2.42428 -3.55107,-4.30326 -3.92883,-9.2011 -1.13331,-14.69351 l 0.16261,-0.32028 0.1626,-0.32521 c 0.10836,-0.21351 0.10836,-0.40075 0,-0.56173 -0.10845,-0.16095 -0.26941,-0.18887 -0.48288,-0.0838 -11.3035,4.84528 -22.60695,8.98922 -33.91039,12.43184 -1.93484,0.53872 -3.76373,0.24308 -5.48666,-0.88694 -1.72296,-1.13001 -2.69284,-2.71664 -2.90963,-4.75987 -0.21353,-2.26331 0.3252,-4.3361 1.61618,-6.21838 1.29097,-1.88226 3.01392,-3.14696 5.16885,-3.7941 z"
       id="path3631"
       style="font-size:161.46113586px;fill:#ffffff" />
    <path
       d="m 489.25233,238.79122 0,-9.5296 c -7e-5,-0.86065 -0.4846,-1.29097 -1.45359,-1.29098 l -56.18717,0 c -1.82972,1e-5 -3.44427,-0.69968 -4.84364,-2.09907 -1.39939,-1.39938 -2.09908,-3.01392 -2.09907,-4.84364 -10e-6,-1.82969 0.69968,-3.41714 2.09907,-4.76233 1.39937,-1.34517 3.01392,-2.01776 4.84364,-2.01777 l 56.18717,0 c 0.96899,1e-5 1.45352,-0.48451 1.45359,-1.45359 l 0,-9.36699 c -7e-5,-0.86062 -0.4846,-1.29095 -1.45359,-1.29098 l -32.93968,0 -7.263,0 c -2.47686,3e-5 -4.63014,-0.91482 -6.45982,-2.74456 -1.82973,-1.82968 -2.74459,-3.98295 -2.74456,-6.45983 l 0,-44.72111 c -3e-5,-2.47675 0.91483,-4.60292 2.74456,-6.37852 1.82968,-1.77542 3.98296,-2.66317 6.45982,-2.66326 l 40.20268,0 c 0.96899,9e-5 1.45352,-0.48444 1.45359,-1.45358 l 0,-8.5589 c -7e-5,-0.86055 -0.4846,-1.29088 -1.45359,-1.29098 l -54.57591,0 c -1.82972,10e-5 -3.44427,-0.69959 -4.84364,-2.09908 -1.39939,-1.39927 -2.09908,-3.01382 -2.09907,-4.84363 -1e-5,-1.8296 0.69968,-3.44414 2.09907,-4.84364 1.39937,-1.39927 3.01392,-2.09896 4.84364,-2.09907 l 54.57591,0 c 0.96899,1.1e-4 1.45352,-0.43021 1.45359,-1.29098 l 0,-4.68596 c -7e-5,-2.47343 0.88768,-4.57168 2.66326,-6.29476 1.77543,-1.722818 3.8474,-2.584291 6.21592,-2.584424 2.36835,1.33e-4 4.44032,0.861606 6.21592,2.584424 1.77542,1.72308 2.66317,3.82133 2.66326,6.29476 l 0,4.68596 c -9e-5,0.86077 0.48444,1.29109 1.45358,1.29098 l 54.57592,0 c 1.82956,1.1e-4 3.4441,0.6998 4.84363,2.09907 1.39923,1.3995 2.09892,3.01404 2.09908,4.84364 -1.6e-4,1.82981 -0.69985,3.44436 -2.09908,4.84363 -1.39953,1.39949 -3.01407,2.09918 -4.84363,2.09908 l -54.57592,0 c -0.96914,10e-5 -1.45367,0.43043 -1.45358,1.29098 l 0,8.5589 c -9e-5,0.96914 0.48444,1.45367 1.45358,1.45358 l 40.20268,0 c 2.47671,9e-5 4.62998,0.88784 6.45983,2.66326 1.82957,1.7756 2.74442,3.90177 2.74456,6.37852 l 0,44.72111 c -1.4e-4,2.47688 -0.91499,4.63015 -2.74456,6.45983 -1.82985,1.82974 -3.98312,2.74459 -6.45983,2.74456 l -40.20268,0 c -0.96914,3e-5 -1.45367,0.43036 -1.45358,1.29098 l 0,9.36699 c -9e-5,0.96908 0.48444,1.4536 1.45358,1.45359 l 56.18718,0 c 1.82956,1e-5 3.4441,0.6726 4.84363,2.01777 1.39923,1.34519 2.09892,2.93264 2.09908,4.76233 -1.6e-4,1.82972 -0.69985,3.44426 -2.09908,4.84364 -1.39953,1.39939 -3.01407,2.09908 -4.84363,2.09907 l -56.18718,0 c -0.96914,1e-5 -1.45367,0.43033 -1.45358,1.29098 l 0,9.5296 c -9e-5,2.47355 -0.88784,4.5718 -2.66326,6.29476 -1.7756,1.72293 -3.84757,2.5844 -6.21592,2.58442 -2.36852,-2e-5 -4.44049,-0.86149 -6.21592,-2.58442 -1.77558,-1.72296 -2.66333,-3.82121 -2.66326,-6.29476 z m 52.15163,-51.02326 0,-10.17508 c -1.2e-4,-0.8606 -0.48465,-1.29093 -1.45358,-1.29098 l -31.48611,0 c -0.96914,5e-5 -1.45367,0.43038 -1.45358,1.29098 l 0,10.17508 c -9e-5,0.9691 0.48444,1.45363 1.45358,1.45359 l 31.48611,0 c 0.96893,4e-5 1.45346,-0.48449 1.45358,-1.45359 z m -1.45358,-35.68425 -31.48611,0 c -0.96914,8e-5 -1.45367,0.43041 -1.45358,1.29098 l 0,9.36699 c -9e-5,0.86073 0.48444,1.29105 1.45358,1.29098 l 31.48611,0 c 0.96893,7e-5 1.45346,-0.43025 1.45358,-1.29098 l 0,-9.36699 c -1.2e-4,-0.86057 -0.48465,-1.2909 -1.45358,-1.29098 z m -85.09132,1.29098 0,9.36699 c -4e-5,0.86073 0.48449,1.29105 1.45358,1.29098 l 31.4861,0 c 0.96899,7e-5 1.45352,-0.43025 1.45359,-1.29098 l 0,-9.36699 c -7e-5,-0.86057 -0.4846,-1.2909 -1.45359,-1.29098 l -31.4861,0 c -0.96909,8e-5 -1.45362,0.43041 -1.45358,1.29098 z m 1.45358,35.84686 31.4861,0 c 0.96899,4e-5 1.45352,-0.48449 1.45359,-1.45359 l 0,-10.17508 c -7e-5,-0.8606 -0.4846,-1.29093 -1.45359,-1.29098 l -31.4861,0 c -0.96909,5e-5 -1.45362,0.43038 -1.45358,1.29098 l 0,10.17508 c -4e-5,0.9691 0.48449,1.45363 1.45358,1.45359 z"
       id="path3633"
       style="font-size:161.46113586px;fill:#ffffff" />
    <path
       d="m 600.17311,167.58532 c 0.32519,-0.43026 1.24004,-1.77544 2.74456,-4.03554 0.53871,-0.75547 0.53871,-1.50936 0,-2.26168 -2.26006,-3.55094 -7.10369,-11.19334 -14.53091,-22.92721 -3.01229,-4.62837 -3.06485,-9.31104 -0.15768,-14.04802 0.96576,-1.61279 2.3906,-2.44635 4.27453,-2.50066 1.88389,-0.0541 3.36457,0.72526 4.44205,2.33806 -2e-5,0.10851 0.0542,0.21691 0.1626,0.3252 0.10839,0.10851 0.21515,0.21527 0.32028,0.32028 0.43031,0.64724 0.86064,0.64724 1.29098,0 3.23236,-6.45806 6.08532,-12.70108 8.5589,-18.72905 0.86063,-1.82958 2.20581,-3.12138 4.03555,-3.87541 1.82967,-0.75376 3.6602,-0.75376 5.49159,0 1.83131,0.75403 3.12311,2.12713 3.8754,4.11931 0.75221,1.99244 0.69801,3.90345 -0.16261,5.73304 -4.30658,9.57898 -8.61149,18.40559 -12.91472,26.47986 -0.53876,0.86074 -0.53876,1.7214 0,2.58196 0.5387,0.86074 1.77548,2.95981 3.71034,6.29722 0.53869,0.75233 1.02322,0.80653 1.45358,0.1626 4.84524,-8.07428 9.42115,-16.2554 13.72774,-24.54339 0.86061,-1.8296 2.23289,-3.04092 4.11685,-3.63396 1.88386,-0.59282 3.74066,-0.40476 5.57043,0.56419 1.82965,0.96916 3.04015,2.36855 3.63149,4.19815 0.59123,1.82981 0.40235,3.65952 -0.56665,5.48912 -0.6439,1.39948 -3.71203,6.94281 -9.20439,16.62999 -0.10516,0.21689 -0.0501,0.43287 0.16507,0.64795 0.21511,0.21525 0.42946,0.26863 0.64303,0.16014 l 1.29098,-0.32028 c 2.47678,-0.64705 4.81894,-0.3514 7.02647,0.88693 2.20742,1.23851 3.63308,3.09613 4.27699,5.57289 1.39932,5.05888 2.63774,9.90251 3.71526,14.53092 0.10834,-0.10834 0.2151,-0.16254 0.32028,-0.16261 l 0,-47.6332 c -7e-5,-2.47344 0.91561,-4.62507 2.74703,-6.4549 1.83128,-1.82959 3.98373,-2.74444 6.45736,-2.74456 l 18.40878,0 c 1.07407,1.2e-4 1.66536,-0.37765 1.77386,-1.13331 0.10831,-0.3218 0.24299,-0.91308 0.40405,-1.77386 0.16086,-0.86053 0.29555,-1.45346 0.40405,-1.77879 0.64703,-2.47343 1.99303,-4.4912 4.038,-6.05332 2.04477,-1.561851 4.35818,-2.288642 6.94025,-2.180373 2.36833,0.108536 4.22513,1.131792 5.57043,3.069773 1.34506,1.93824 1.74829,4.03731 1.20968,6.29722 -1.2e-4,0.21364 -0.1077,0.58977 -0.32275,1.12837 -0.21528,0.53886 -0.32286,0.91498 -0.32274,1.12838 -0.21364,0.86406 0.16413,1.29603 1.1333,1.29591 l 23.89298,0 c 2.47669,1.2e-4 4.62997,0.91497 6.45982,2.74456 1.82956,1.82983 2.74441,3.98146 2.74456,6.4549 l 0,45.05124 c -1.5e-4,2.47362 -0.915,4.62525 -2.74456,6.4549 -1.82985,1.82977 -3.98313,2.74462 -6.45982,2.74456 l -20.50293,0 c -0.96917,6e-5 -1.23854,0.43203 -0.80809,1.29591 2.69024,6.88856 5.91933,13.39929 9.68727,19.53222 0.4302,0.75558 1.02313,0.75558 1.7788,0 2.69022,-3.01224 5.91931,-6.94102 9.68727,-11.78634 1.18243,-1.61286 2.76988,-2.58109 4.76233,-2.90471 1.99217,-0.32351 3.7956,0.10681 5.41029,1.29098 1.6144,1.18427 2.60973,2.77254 2.98601,4.7648 0.37597,1.99236 -0.0273,3.79496 -1.20968,5.40783 -4.5235,6.13629 -8.93681,11.41025 -13.23993,15.82189 -0.64727,0.64715 -0.70147,1.29428 -0.1626,1.94139 3.87279,4.95042 8.2319,9.68565 13.07732,14.20571 1.72115,1.61619 2.71649,3.60768 2.98601,5.97447 0.26921,2.3668 -0.2958,4.51925 -1.69503,6.45736 -1.29113,1.82971 -3.04036,2.87924 -5.24768,3.14861 -2.20762,0.26936 -4.11781,-0.40241 -5.73057,-2.0153 -8.61324,-8.3963 -16.25563,-18.73069 -22.92721,-31.00322 -0.10852,-0.10838 -0.2432,-0.16258 -0.40404,-0.16261 -0.16108,3e-5 -0.24157,0.10843 -0.24145,0.32521 l 0,14.53091 c -1.2e-4,10.76473 -0.99627,17.35759 -2.98847,19.7786 -1.99242,2.42098 -7.45444,3.63148 -16.38607,3.63149 -0.64724,-1e-5 -3.12407,-0.10677 -7.43053,-0.32028 -2.15172,-0.21682 -3.92723,-1.05119 -5.32652,-2.50312 -1.39947,-1.45195 -2.15336,-3.20118 -2.26168,-5.24768 -0.10849,-1.93812 0.537,-3.57976 1.93647,-4.92494 1.3993,-1.34518 3.06804,-1.90937 5.00624,-1.69256 1.39929,0.10511 3.12224,0.15767 5.16885,0.15767 2.79866,0 4.44031,-0.37612 4.92494,-1.12837 0.48442,-0.75225 0.72669,-3.22745 0.72679,-7.4256 l 0,-45.85441 c -10e-5,-0.86388 -0.48463,-1.29585 -1.45358,-1.29591 l -16.79259,0 -13.07733,0 c -0.32528,6e-5 -0.62175,0.16184 -0.8894,0.48535 -0.26779,0.32362 -0.34909,0.64637 -0.2439,0.96824 0.64706,2.58529 1.07738,4.5234 1.29098,5.81433 0.10833,0.7523 0.64706,1.12843 1.61618,1.12838 l 17.27548,0 c 3.76773,5e-5 6.56649,1.77719 8.39629,5.33145 1.93801,3.98138 2.20738,7.53239 0.8081,10.65304 -5.81115,14.42417 -15.28325,27.17956 -28.41633,38.26621 -1.72138,1.39938 -3.65867,1.96439 -5.81188,1.69503 -2.15333,-0.26937 -3.98386,-1.21051 -5.49159,-2.8234 -1.39944,-1.50779 -1.96445,-3.25702 -1.69502,-5.24769 0.2693,-1.99066 1.21208,-3.63149 2.82833,-4.92247 11.08658,-8.82661 19.1051,-18.30035 24.05558,-28.42126 0.10831,-0.21349 0.0812,-0.45493 -0.0813,-0.72433 -0.16268,-0.26933 -0.40495,-0.40401 -0.72679,-0.40405 l -10.97825,0 c -2.47691,4e-5 -4.60309,-0.86143 -6.37852,-2.58442 -1.77558,-1.72291 -2.66333,-3.82116 -2.66327,-6.29476 l 0,-0.64549 c -6e-5,-0.43028 -0.21522,-0.64544 -0.64549,-0.64549 -1.39944,0.21357 -2.66414,-0.0295 -3.7941,-0.72925 -1.13007,-0.69965 -1.85768,-1.74918 -2.18283,-3.14861 -6e-5,-0.10836 -0.0263,-0.24304 -0.0788,-0.40405 -0.0526,-0.16091 -0.0789,-0.29559 -0.0788,-0.40405 -0.21686,-0.53539 -0.54043,-0.80311 -0.9707,-0.80316 l -10.33276,0.80316 c -0.9691,5e-5 -1.45363,0.48458 -1.45359,1.45359 l 0,55.2214 c -4e-5,2.26003 -0.80731,4.19732 -2.42182,5.81187 -1.61458,1.61453 -3.55187,2.42181 -5.81187,2.42182 -2.26007,-1e-5 -4.19736,-0.80729 -5.81187,-2.42182 -1.61457,-1.61455 -2.42185,-3.55184 -2.42182,-5.81187 l 0,-54.0881 c -3e-5,-0.8606 -0.48455,-1.29093 -1.45358,-1.29098 l -13.07733,0.96577 c -1.93812,0.10845 -3.60687,-0.48366 -5.00624,-1.77633 -1.39939,-1.29257 -2.15328,-2.90711 -2.26168,-4.84363 -0.10841,-1.93642 0.50998,-3.60434 1.85517,-5.00378 1.34517,-1.39932 2.98682,-2.20742 4.92494,-2.42428 l 5.97694,-0.32029 c 0.96903,7e-5 1.72128,-0.48446 2.25675,-1.45358 z m 62.97221,-41.65626 0,8.55397 c -9e-5,0.96915 0.48444,1.45368 1.45358,1.45358 l 46.01702,0 c 0.96892,1e-4 1.45345,-0.48443 1.45358,-1.45358 l 0,-8.55397 c -1.3e-4,-0.86055 -0.48466,-1.29088 -1.45358,-1.29098 l -46.01702,0 c -0.96914,1e-4 -1.45367,0.43043 -1.45358,1.29098 z m 0,24.53846 0,9.367 c -9e-5,0.96912 0.48444,1.45365 1.45358,1.45358 l 46.01702,0 c 0.96892,7e-5 1.45345,-0.48446 1.45358,-1.45358 l 0,-9.367 c -1.3e-4,-0.86057 -0.48466,-1.29089 -1.45358,-1.29098 l -46.01702,0 c -0.96914,9e-5 -1.45367,0.43041 -1.45358,1.29098 z m -30.67801,14.85612 c -1.72136,-6.67163 -3.01234,-11.51526 -3.87294,-14.53091 -0.21686,-0.75217 -0.54042,-0.80637 -0.9707,-0.1626 -2.58201,4.52015 -5.8653,9.8483 -9.84988,15.98449 -0.53877,0.7556 -0.3236,1.13337 0.64549,1.13331 l 13.07733,-0.8081 c 0.86388,7e-5 1.18745,-0.53866 0.9707,-1.61619 z m -30.19513,32.45188 c -0.96908,11.30348 -2.42102,22.28337 -4.35582,32.93969 -0.32523,1.8297 -1.268,3.28329 -2.82833,4.36075 -1.56036,1.07745 -3.25539,1.4544 -5.08508,1.13084 -1.82972,-0.32357 -3.28248,-1.26553 -4.35829,-2.82587 -1.07582,-1.56034 -1.45277,-3.20281 -1.13084,-4.9274 1.93811,-10.43951 3.39169,-21.04163 4.36075,-31.80639 0.21351,-1.82967 0.99286,-3.33663 2.33806,-4.52089 1.34516,-1.18418 2.93261,-1.72209 4.76233,-1.61372 1.82969,0.21356 3.36375,1.02001 4.6022,2.41935 1.23839,1.39942 1.8034,3.01396 1.69502,4.84364 z m 26.72131,-4.92248 c 1.02485,-1.4519 2.39795,-2.28545 4.11931,-2.50065 1.72125,-0.21513 3.30869,0.161 4.76233,1.12837 1.45352,0.96745 2.28872,2.31345 2.50559,4.03801 1.07411,7.53238 1.7738,13.34507 2.09907,17.43808 0.21346,1.82972 -0.27189,3.44427 -1.45605,4.84363 -1.18428,1.3994 -2.63704,2.15165 -4.35829,2.25675 -1.82976,0.21682 -3.44431,-0.26689 -4.84363,-1.45112 -1.39944,-1.1842 -2.15333,-2.63696 -2.26168,-4.35828 -0.6439,-7.31882 -1.23519,-12.86214 -1.77387,-16.62999 -0.21685,-1.72455 0.18555,-3.31282 1.20722,-4.7648 z"
       id="path3635"
       style="font-size:161.46113586px;fill:#ffffff" />
  </g>
  <g
     transform="translate(0,-12)"
     id="text2852"
     style="font-size:51.88093567px;font-style:normal;font-weight:normal;text-align:center;text-anchor:middle;fill:#ffffff;fill-opacity:1;stroke:#ffffff;font-family:IPAGothic;-inkscape-font-specification:IPAGothic">
    <path
       d="m 97.192635,363.70694 c 0.379974,9.5947 4.528165,14.39203 12.444585,14.39202 2.84988,1e-5 5.2248,-0.71246 7.12476,-2.13743 2.65988,-2.05825 3.98983,-4.93981 3.98987,-8.64471 -4e-5,-3.98984 -1.66248,-7.50472 -4.98733,-10.54465 -2.27996,-2.02656 -6.19066,-4.63897 -11.73211,-7.83723 -8.771388,-5.16145 -13.157071,-11.32041 -13.157065,-18.47689 -6e-6,-4.52812 1.424945,-8.35965 4.274858,-11.49462 3.451537,-3.83146 8.058877,-5.74723 13.822037,-5.7473 10.73461,7e-5 16.83023,6.45985 18.28689,19.37935 l -7.97973,0 c -0.2217,-2.97651 -0.83917,-5.35143 -1.85244,-7.12476 -2.02663,-3.57815 -4.84487,-5.36726 -8.45472,-5.36732 -3.73656,6e-5 -6.52313,1.26669 -8.35972,3.79987 -1.298304,1.805 -1.947449,3.7841 -1.947435,5.9373 -1.4e-5,5.12988 4.179845,10.13305 12.539585,15.0095 5.16146,3.00827 9.11966,5.88984 11.8746,8.64471 3.70484,3.60991 5.55727,8.18559 5.55732,13.72705 -5e-5,5.22484 -1.66249,9.43636 -4.98734,12.63457 -3.54658,3.57822 -8.13809,5.36733 -13.77454,5.36733 -7.06145,0 -12.555426,-2.59658 -16.481949,-7.78974 -2.723248,-3.60987 -4.179865,-8.18555 -4.369854,-13.72705 z"
       id="path3638"
       style="font-size:97.27675629px;fill:#ffffff;stroke:#ffffff;stroke-width:3.89107037;stroke-miterlimit:4;stroke-opacity:1" />
    <path
       d="m 139.98871,315.16356 8.16973,0 0,60.32299 28.68904,0 0,7.78974 -36.85877,0 z"
       id="path3640"
       style="font-size:97.27675629px;fill:#ffffff;stroke:#ffffff;stroke-width:3.89107037;stroke-miterlimit:4;stroke-opacity:1" />
    <path
       d="m 206.154,313.21613 c 6.0481,7e-5 10.81377,3.0558 14.29702,9.16719 3.70484,6.49151 5.55728,15.43704 5.55732,26.83661 -4e-5,11.14632 -1.75748,19.93352 -5.27233,26.36162 -3.48325,6.42812 -8.34391,9.64218 -14.58201,9.64218 -6.20648,0 -11.00381,-3.11906 -14.39202,-9.35719 -3.64155,-6.64976 -5.46232,-15.56362 -5.46232,-26.74161 0,-11.84289 2.01076,-21.05757 6.0323,-27.64408 3.38821,-5.50974 7.99555,-8.26465 13.82204,-8.26472 z m 0,7.12476 c -7.78976,7e-5 -11.68462,9.59474 -11.68461,28.78404 -1e-5,19.31604 3.92652,28.97404 11.77961,28.97403 7.72637,1e-5 11.58958,-9.56299 11.58961,-28.68904 -3e-5,-19.3793 -3.8949,-29.06896 -11.68461,-29.06903 z"
       id="path3642"
       style="font-size:97.27675629px;fill:#ffffff;stroke:#ffffff;stroke-width:3.89107037;stroke-miterlimit:4;stroke-opacity:1" />
    <path
       d="m 232.80061,315.16356 7.69474,0 3.98987,52.10576 6.69728,-52.10576 7.21976,0 6.69727,52.10576 3.98987,-52.10576 7.69474,0 -7.50475,68.11273 -7.69474,0 -6.79227,-54.1007 -6.83978,54.1007 -7.64724,0 z"
       id="path3644"
       style="font-size:97.27675629px;fill:#ffffff;stroke:#ffffff;stroke-width:3.89107037;stroke-miterlimit:4;stroke-opacity:1" />
    <path
       d="m 285.90384,315.16356 34.15136,0 0,7.40975 -26.36162,0 0,21.65928 22.84674,0 0,7.21976 -22.84674,0 0,24.41419 28.30906,0 0,7.40975 -36.0988,0 z"
       id="path3646"
       style="font-size:97.27675629px;fill:#ffffff;stroke:#ffffff;stroke-width:3.89107037;stroke-miterlimit:4;stroke-opacity:1" />
    <path
       d="m 334.54222,315.16356 16.86194,0 c 5.47812,7e-5 9.94297,1.23503 13.39456,3.70488 4.40147,3.22996 6.60223,7.90063 6.60227,14.01203 -4e-5,8.92975 -4.24323,14.70872 -12.72957,17.33692 l 14.58201,33.0589 -8.9297,0 -13.25206,-31.77644 -8.9297,0 0,31.77644 -7.59975,0 z m 7.59975,7.21976 0,22.13426 8.16973,0 c 2.84988,5e-5 5.33563,-0.58577 7.45725,-1.75744 3.89484,-2.02655 5.84227,-5.25644 5.8423,-9.68968 -3e-5,-7.1247 -4.46488,-10.68707 -13.39455,-10.68714 z"
       id="path3648"
       style="font-size:97.27675629px;fill:#ffffff;stroke:#ffffff;stroke-width:3.89107037;stroke-miterlimit:4;stroke-opacity:1" />
    <path
       d="m 428.82659,315.16356 41.03863,0 0,7.59975 -16.43445,0 0,60.51298 -8.16973,0 0,-60.51298 -16.43445,0 z"
       id="path3650"
       style="font-size:97.27675629px;fill:#ffffff;stroke:#ffffff;stroke-width:3.89107037;stroke-miterlimit:4;stroke-opacity:1" />
    <path
       d="m 480.45735,315.16356 16.86194,0 c 5.47812,7e-5 9.94297,1.23503 13.39456,3.70488 4.40147,3.22996 6.60223,7.90063 6.60228,14.01203 -5e-5,8.92975 -4.24324,14.70872 -12.72958,17.33692 l 14.58201,33.0589 -8.9297,0 -13.25206,-31.77644 -8.9297,0 0,31.77644 -7.59975,0 z m 7.59975,7.21976 0,22.13426 8.16973,0 c 2.84988,5e-5 5.33563,-0.58577 7.45725,-1.75744 3.89484,-2.02655 5.84227,-5.25644 5.84231,-9.68968 -4e-5,-7.1247 -4.46489,-10.68707 -13.39456,-10.68714 z"
       id="path3652"
       style="font-size:97.27675629px;fill:#ffffff;stroke:#ffffff;stroke-width:3.89107037;stroke-miterlimit:4;stroke-opacity:1" />
    <path
       d="m 541.7778,315.16356 9.68968,0 17.43191,68.11273 -8.45471,0 -5.17733,-22.22926 -17.28942,0 -5.17733,22.22926 -8.45472,0 z m 4.84484,6.88727 -7.12477,32.20393 14.20203,0 z"
       id="path3654"
       style="font-size:97.27675629px;fill:#ffffff;stroke:#ffffff;stroke-width:3.89107037;stroke-miterlimit:4;stroke-opacity:1" />
    <path
       d="m 577.73412,315.16356 34.24636,0 0,7.59975 -26.26663,0 0,21.46928 22.75174,0 0,7.40976 -22.75174,0 0,31.63394 -7.97973,0 z"
       id="path3656"
       style="font-size:97.27675629px;fill:#ffffff;stroke:#ffffff;stroke-width:3.89107037;stroke-miterlimit:4;stroke-opacity:1" />
    <path
       d="m 626.37249,315.16356 34.24635,0 0,7.59975 -26.26662,0 0,21.46928 22.75174,0 0,7.40976 -22.75174,0 0,31.63394 -7.97973,0 z"
       id="path3658"
       style="font-size:97.27675629px;fill:#ffffff;stroke:#ffffff;stroke-width:3.89107037;stroke-miterlimit:4;stroke-opacity:1" />
    <path
       d="m 696.71763,322.38332 0,53.67321 9.73717,0 0,7.21976 -27.83407,0 0,-7.21976 9.73718,0 0,-53.67321 -9.73718,0 0,-7.21976 27.83407,0 0,7.21976 z"
       id="path3660"
       style="font-size:97.27675629px;fill:#ffffff;stroke:#ffffff;stroke-width:3.89107037;stroke-miterlimit:4;stroke-opacity:1" />
    <path
       d="m 760.79298,360.57205 c -1.425,16.40279 -7.83727,24.60418 -19.23686,24.60418 -6.68146,0 -11.84295,-3.46738 -15.48448,-10.40216 -3.16657,-6.07977 -4.74985,-14.56615 -4.74984,-25.45915 -1e-5,-11.11458 1.75743,-19.93344 5.27232,-26.45662 3.4832,-6.42804 8.47053,-9.6421 14.962,-9.64217 10.41795,7e-5 16.64024,7.14066 18.66688,21.42178 l -7.97973,0 c -1.36166,-9.40462 -4.92404,-14.10696 -10.68715,-14.10703 -7.91642,7e-5 -11.87462,9.59474 -11.8746,28.78404 -2e-5,19.03105 3.98985,28.54656 11.9696,28.54655 6.74474,10e-6 10.40212,-5.76312 10.97213,-17.28942 z"
       id="path3662"
       style="font-size:97.27675629px;fill:#ffffff;stroke:#ffffff;stroke-width:3.89107037;stroke-miterlimit:4;stroke-opacity:1" />
  </g>
</svg>
