<?xml version="1.0" encoding="UTF-8" standalone="no"?>
<!-- Created with Inkscape (http://www.inkscape.org/) -->

<svg
   xmlns:svg="http://www.w3.org/2000/svg"
   xmlns="http://www.w3.org/2000/svg"
   version="1.0"
   width="420"
   height="341.91229"
   id="svg4203">
  <defs
     id="defs4205" />
  <g
     transform="translate(0,46.915421)"
     id="layer1">
    <rect
       width="420"
       height="150"
       x="0"
       y="144.99689"
       id="rect_bg"
       style="fill:#005d35;fill-opacity:1;stroke:none" />
    <rect
       width="237.51662"
       height="141.25452"
       x="178.37463"
       y="149.0074"
       id="rect3169"
       style="fill:#ffffff;fill-opacity:1;fill-rule:nonzero;stroke:none;stroke-width:0.01;marker:none;visibility:visible;display:inline;overflow:visible;enable-background:accumulate" />
    <rect
       width="420"
       height="180"
       x="0"
       y="-46.915421"
       id="rect2401"
       style="fill:#005d35;fill-opacity:1;stroke:none" />
    <path
       d="m 250.99103,173.26335 0,9.48988 -30.4406,0 0,38.10551 30.4406,0 0,23.50569 7.00791,0 0,-23.50569 30.44061,0 0,-38.10551 -30.44061,0 0,-9.48988 -7.00791,0 z m 30.44061,16.20579 0,24.52769 -23.4327,0 0,-24.52769 23.4327,0 z m -54.1653,0 23.72469,0 0,24.52769 -23.72469,0 0,-24.52769 z"
       id="path2422"
       style="font-size:73px;font-style:normal;font-variant:normal;font-weight:normal;font-stretch:normal;text-align:start;line-height:125%;writing-mode:lr-tb;text-anchor:start;fill:#005d35;fill-opacity:1;fill-rule:nonzero;stroke:none;stroke-width:1;marker:none;visibility:visible;display:inline;overflow:visible;enable-background:accumulate;font-family:GD-HighwayGothicJA-OTF;-inkscape-font-specification:GD-HighwayGothicJA-OTF" />
    <path
       d="m 308.84394,187.71716 0,6.56992 14.23481,0 0,12.11784 c -0.0122,3.50398 -0.13385,6.64294 -0.36499,9.41688 l -16.42479,0 0,6.56992 15.5488,0 c -0.97486,5.06432 -2.16413,8.95151 -3.56783,11.6616 -1.40372,2.71009 -2.64775,4.73581 -3.73208,6.07717 l 5.25594,3.79595 c 1.38696,-1.58165 2.91994,-4.02104 4.59894,-7.31816 1.67895,-3.29712 3.06593,-8.03597 4.16094,-14.21656 l 22.99471,0 0,21.16972 6.56991,0 0,-21.16972 16.78979,0 0,-6.56992 -16.78979,0 0,-21.53472 14.23482,0 0,-6.56992 -14.23482,0 0,-13.86982 -6.56991,0 0,13.86982 -21.89972,0 0,-13.86982 -6.56992,0 0,13.86982 -14.23481,0 z m 20.80473,18.68776 0,-12.11784 21.89972,0 0,21.53472 -22.26472,0 c 0.23114,-2.84694 0.35281,-5.98589 0.365,-9.41688 l 0,0 z"
       id="path2416"
       style="font-size:73px;font-style:normal;font-variant:normal;font-weight:normal;font-stretch:normal;text-align:start;line-height:125%;writing-mode:lr-tb;text-anchor:start;fill:#005d35;fill-opacity:1;fill-rule:nonzero;stroke:none;stroke-width:1;marker:none;visibility:visible;display:inline;overflow:visible;enable-background:accumulate;font-family:GD-HighwayGothicJA-OTF;-inkscape-font-specification:GD-HighwayGothicJA-OTF" />
    <path
       d="m 264.33224,252.78997 4.46994,0 0,27.95964 -5.51993,0 -11.66985,-21.68972 0,21.68972 -4.43994,0 0,-27.95964 5.72993,0 11.42985,21.29973 0,-21.29973 z m 27.59766,27.95964 c -0.45668,0 -1.06334,0 -1.81998,0 -0.75668,0 -1.44333,0 -2.05997,0 -0.61668,0 -0.94334,0 -0.97999,0 l -0.62999,-2.54997 c -0.71626,1.11686 -1.69874,1.9281 -2.94747,2.43372 -1.24874,0.50562 -2.60622,0.75436 -4.07244,0.74624 -1.72936,-0.0125 -3.13809,-0.51249 -4.2262,-1.49998 -1.08811,-0.98749 -1.64935,-2.38747 -1.68373,-4.19994 0.0337,-1.79185 0.70124,-3.16558 2.00248,-4.1212 1.30123,-0.95561 3.0337,-1.63185 5.19743,-2.02873 2.08934,-0.38498 3.57307,-0.76998 4.45119,-1.15498 0.8781,-0.38499 1.30435,-0.97998 1.27874,-1.78498 0.0344,-0.58748 -0.19939,-1.18247 -0.70124,-1.78498 -0.50189,-0.60247 -1.47812,-0.92747 -2.92872,-0.97498 -1.54561,0.03 -2.58685,0.39001 -3.12371,1.07998 -0.53687,0.69001 -0.83562,1.53 -0.89623,2.51997 l -4.43995,0 c 0.18,-2.22496 1.08749,-3.90993 2.72247,-5.05493 1.63497,-1.14497 3.54744,-1.71996 5.73742,-1.72498 2.19996,0.008 4.07744,0.51751 5.63243,1.52998 1.55496,1.0125 2.36745,2.48248 2.43747,4.40994 -2e-5,0.89074 -2e-5,2.02924 0,3.41551 -2e-5,1.38629 -2e-5,2.7159 0,3.98884 -2e-5,1.27295 -2e-5,2.18479 0,2.73552 -0.009,0.69249 0.0612,1.37748 0.21,2.05497 0.14873,0.67749 0.42872,1.33249 0.83999,1.96498 l 0,0 z m -10.58987,-2.54997 c 1.51185,-0.0387 2.73308,-0.48624 3.66371,-1.34248 0.93059,-0.85624 1.40934,-1.88872 1.43623,-3.09746 l 0,-3.50995 c -0.30689,0.36375 -0.78063,0.67874 -1.42124,0.94498 -0.64062,0.26626 -1.58686,0.55125 -2.83871,0.85499 -1.17812,0.31188 -2.13685,0.72312 -2.87621,1.23374 -0.73937,0.51062 -1.12062,1.22936 -1.14374,2.15622 -0.0138,0.95499 0.22374,1.65498 0.7125,2.09997 0.48873,0.445 1.31122,0.66499 2.46746,0.65999 l 0,0 z m 27.77102,2.54997 -6.02992,-8.69989 -2.66997,2.75997 0,5.93992 -4.43994,0 0,-27.95964 4.43994,0 0,17.24978 8.0699,-8.75989 5.27993,0 -7.9499,8.0399 8.81989,11.42985 -5.51993,0 z m 26.70557,0 c -0.45669,0 -1.06334,0 -1.81998,0 -0.75668,0 -1.44333,0 -2.05998,0 -0.61667,0 -0.94333,0 -0.97998,0 l -0.62999,-2.54997 c -0.71626,1.11686 -1.69875,1.9281 -2.94747,2.43372 -1.24874,0.50562 -2.60622,0.75436 -4.07244,0.74624 -1.72936,-0.0125 -3.13809,-0.51249 -4.2262,-1.49998 -1.08811,-0.98749 -1.64936,-2.38747 -1.68373,-4.19994 0.0338,-1.79185 0.70124,-3.16558 2.00248,-4.1212 1.30123,-0.95561 3.0337,-1.63185 5.19743,-2.02873 2.08934,-0.38498 3.57307,-0.76998 4.45119,-1.15498 0.8781,-0.38499 1.30435,-0.97998 1.27874,-1.78498 0.0344,-0.58748 -0.19939,-1.18247 -0.70125,-1.78498 -0.50188,-0.60247 -1.47811,-0.92747 -2.92871,-0.97498 -1.54561,0.03 -2.58685,0.39001 -3.12371,1.07998 -0.53687,0.69001 -0.83562,1.53 -0.89624,2.51997 l -4.43994,0 c 0.18,-2.22496 1.08748,-3.90993 2.72247,-5.05493 1.63497,-1.14497 3.54744,-1.71996 5.73742,-1.72498 2.19996,0.008 4.07744,0.51751 5.63243,1.52998 1.55496,1.0125 2.36745,2.48248 2.43747,4.40994 -2e-5,0.89074 -2e-5,2.02924 0,3.41551 -2e-5,1.38629 -2e-5,2.7159 0,3.98884 -2e-5,1.27295 -2e-5,2.18479 0,2.73552 -0.009,0.69249 0.0612,1.37748 0.21,2.05497 0.14872,0.67749 0.42872,1.33249 0.83999,1.96498 l 0,0 z m -10.58987,-2.54997 c 1.51185,-0.0387 2.73308,-0.48624 3.6637,-1.34248 0.9306,-0.85624 1.40935,-1.88872 1.43624,-3.09746 l 0,-3.50995 c -0.30689,0.36375 -0.78063,0.67874 -1.42124,0.94498 -0.64063,0.26626 -1.58686,0.55125 -2.83871,0.85499 -1.17812,0.31188 -2.13685,0.72312 -2.87621,1.23374 -0.73938,0.51062 -1.12062,1.22936 -1.14374,2.15622 -0.0137,0.95499 0.22374,1.65498 0.71249,2.09997 0.48874,0.445 1.31123,0.66499 2.46747,0.65999 l 0,0 z m 19.07113,2.54997 -4.43994,0 0,-19.46975 4.43994,0 0,19.46975 z m 0,-27.95964 0,4.46994 -4.43994,0 0,-4.46994 4.43994,0 z"
       id="text2426"
       style="font-size:30px;font-style:normal;font-variant:normal;font-weight:normal;font-stretch:normal;text-align:start;line-height:125%;writing-mode:lr-tb;text-anchor:start;fill:#005d35;fill-opacity:1;fill-rule:nonzero;stroke:none;stroke-width:1;marker:none;visibility:visible;display:inline;overflow:visible;enable-background:accumulate;font-family:GD-HighwayGothicJA-OTF;-inkscape-font-specification:GD-HighwayGothicJA-OTF" />
    <path
       d="m 71.757566,119.64572 0,-143.462151 42.817454,0 c 9.31009,0.154231 17.32117,2.444224 24.03325,6.869988 6.71187,4.426013 11.87899,10.0632171 15.50135,16.91163019 3.62213,6.84862911 5.45374,13.98388881 5.49482,21.40579981 -0.0411,7.161678 -1.87269,14.097976 -5.49482,20.808915 -3.62236,6.711071 -8.78947,12.254648 -15.50135,16.630748 -6.71209,4.376198 -14.72316,6.642786 -24.03325,6.799768 l -24.489684,0 0,54.035302 -18.32777,0 z M 114.57502,46.966658 c 8.82805,-0.444308 15.38496,-3.466017 19.67075,-9.065135 4.28559,-5.598977 6.41856,-11.109151 6.39892,-16.530536 0.0196,-5.724044 -2.11333,-11.4185507 -6.39892,-17.0835355 -4.28579,-5.6647775 -10.8427,-8.7128165 -19.67075,-9.1441264 l -24.489684,0 0,51.8233329 24.489684,0 z"
       id="path3213"
       style="font-size:158px;font-style:normal;font-variant:normal;font-weight:normal;font-stretch:normal;text-indent:0;text-align:start;text-decoration:none;line-height:125%;letter-spacing:normal;word-spacing:normal;text-transform:none;direction:ltr;block-progression:tb;writing-mode:lr-tb;text-anchor:start;fill:#ffffff;fill-opacity:1;fill-rule:nonzero;stroke:none;stroke-width:1;marker:none;visibility:visible;display:inline;overflow:visible;enable-background:accumulate;font-family:GD-HighwayGothicJA-OTF;-inkscape-font-specification:GD-HighwayGothicJA-OTF" />
    <path
       d="m 368.60394,29.526976 c 2.55744,0.296314 3.80167,1.481297 3.7327,3.554952 -0.0693,2.073788 -0.20753,3.258772 -0.41474,3.554956 -0.90718,4.063141 -2.92019,8.910357 -6.03904,14.541661 -3.11914,5.631402 -7.58989,11.052092 -13.41227,16.262087 -5.82265,5.21006 -13.24269,9.214622 -22.26016,12.013701 -2.58403,4.427252 -4.84208,7.896621 -6.77416,10.408117 -1.93229,2.511512 -3.20285,4.045412 -3.8117,4.601692 l -58.93324,0 c -0.61741,-0.92067 -2.66553,-3.643697 -6.14437,-8.169082 -3.47891,-4.525358 -6.89635,-11.016924 -10.25231,-19.474716 -3.35602,-8.457727 -5.15837,-19.045529 -5.40704,-31.763439 l 0,-5.529929 129.71633,0 z m -7.8999,10.585864 c 0.0459,-0.07236 -0.0462,-0.362019 -0.2765,-0.868992 -0.23055,-0.506852 -0.87571,-0.796514 -1.93547,-0.868986 l -16.58979,0 c -0.33916,5.553026 -1.00407,10.760371 -1.99472,15.62205 -0.99091,4.86177 -2.16931,9.239626 -3.53521,13.13358 7.44224,-3.653666 13.09724,-8.235602 16.96503,-13.745823 3.86752,-5.510129 6.32307,-9.934068 7.36666,-13.271829 l 0,0 z m 0,59.249232 c 0.0821,0.17446 -1.46492,1.642518 -4.64119,4.404198 -3.17656,2.76167 -8.47607,5.77021 -15.89855,9.02563 l -99.53871,0 c -7.44897,-3.25543 -12.85381,-6.26397 -16.21455,-9.02563 -3.36075,-2.76168 -5.01314,-4.229738 -4.95718,-4.404198 l 141.25018,0 z"
       id="path3209"
       style="font-size:158px;font-style:normal;font-variant:normal;font-weight:normal;font-stretch:normal;text-indent:0;text-align:start;text-decoration:none;line-height:125%;letter-spacing:normal;word-spacing:normal;text-transform:none;direction:ltr;block-progression:tb;writing-mode:lr-tb;text-anchor:start;fill:#ffffff;fill-opacity:1;fill-rule:nonzero;stroke:none;stroke-width:1;marker:none;visibility:visible;display:inline;overflow:visible;enable-background:accumulate;font-family:GD-HighwayGothicJA-OTF;-inkscape-font-specification:GD-HighwayGothicJA-OTF" />
    <g
       transform="matrix(1.4896321,0,0,1.4896321,-13.099613,-152.85813)"
       id="text2829"
       style="font-size:42.98006439px;font-style:normal;font-weight:normal;text-align:center;text-anchor:middle;fill:#ffffff;fill-opacity:1;stroke:none;font-family:IPAPGothic;-inkscape-font-specification:IPAPGothic">
      <path
         d="m 38.158577,224.97113 0,0.875 c -0.291689,2.77088 -1.44924,5.05864 -3.472656,6.86328 -2.023455,1.80473 -4.420588,2.67061 -7.191407,2.59766 l 0,0 -3.609375,0 0,5.52344 13.125,0 0,35.49218 8.695313,0 0,-51.35156 z"
         id="path2838"
         style="font-size:56px" />
      <path
         d="m 76.248421,274.08051 5.140625,0 -8.230469,-10.63672 7.4375,-7.49219 -4.921875,0 -7.546875,8.17578 0,-16.10547 -4.128906,0 0,26.0586 4.128906,0 0,-5.4961 2.488281,-2.59765 z"
         id="path2840"
         style="font-size:28px" />
      <path
         d="m 105.26014,255.35004 c -2.5521,0.16408 -4.50262,1.31251 -5.851563,3.44531 l 0,0 c -0.492205,-1.11197 -1.257829,-1.96418 -2.296875,-2.55664 -1.039077,-0.59243 -2.151055,-0.88866 -3.335938,-0.88867 l 0,0 c -2.351572,0.0729 -4.165372,1.09376 -5.441406,3.0625 l 0,0 -0.109375,-2.46094 -3.9375,0 0,18.12891 4.128906,0 0,-11.21094 c -0.01823,-1.18489 0.373692,-2.19661 1.175782,-3.03516 0.802075,-0.83853 1.804678,-1.27603 3.007812,-1.3125 l 0,0 c 2.005196,0.20054 3.053372,1.32163 3.144531,3.36328 l 0,0 0,12.19532 4.15625,0 0,-11.21094 c -0.01825,-1.18489 0.373676,-2.19661 1.175786,-3.03516 0.80206,-0.83853 1.80466,-1.27603 3.00781,-1.3125 l 0,0 c 2.00518,0.20054 3.05336,1.32163 3.14453,3.36328 l 0,0 0,12.19532 4.15625,0 0,-12.98829 c -0.0365,-1.65884 -0.65628,-3.03514 -1.85938,-4.1289 -1.20315,-1.09374 -2.62502,-1.6315 -4.26562,-1.61328 z"
         id="path2842"
         style="font-size:28px" />
    </g>
  </g>
</svg>
