<?xml version="1.0" encoding="UTF-8" standalone="no"?>
<!-- Created with Inkscape (http://www.inkscape.org/) -->

<svg
   xmlns:dc="http://purl.org/dc/elements/1.1/"
   xmlns:cc="http://creativecommons.org/ns#"
   xmlns:rdf="http://www.w3.org/1999/02/22-rdf-syntax-ns#"
   xmlns:svg="http://www.w3.org/2000/svg"
   xmlns="http://www.w3.org/2000/svg"
   xmlns:sodipodi="http://sodipodi.sourceforge.net/DTD/sodipodi-0.dtd"
   xmlns:inkscape="http://www.inkscape.org/namespaces/inkscape"
   version="1.1"
   width="521.02203"
   height="459.05624"
   viewBox="0 0 521.02204 459.05626"
   id="svg2"
   xml:space="preserve"
   inkscape:version="0.48.4 r9939"
   sodipodi:docname="Ajax.svg.2013_10_01_16_10_52.0.svg"><sodipodi:namedview
   pagecolor="#ffffff"
   bordercolor="#666666"
   borderopacity="1"
   objecttolerance="10"
   gridtolerance="10"
   guidetolerance="10"
   inkscape:pageopacity="0"
   inkscape:pageshadow="2"
   inkscape:window-width="1280"
   inkscape:window-height="1001"
   id="namedview29"
   showgrid="false"
   fit-margin-top="1.2"
   fit-margin-left="1.2"
   fit-margin-right="1.2"
   fit-margin-bottom="1.2"
   inkscape:zoom="1.0336002"
   inkscape:cx="253.52076"
   inkscape:cy="224.10531"
   inkscape:window-x="-8"
   inkscape:window-y="-8"
   inkscape:window-maximized="1"
   inkscape:current-layer="svg2" /><metadata
   id="metadata37"><rdf:RDF><cc:Work
       rdf:about=""><dc:format>image/svg+xml</dc:format><dc:type
         rdf:resource="http://purl.org/dc/dcmitype/StillImage" /><dc:title></dc:title></cc:Work></rdf:RDF></metadata><defs
   id="defs35" />



<path
   style="fill:#ffffff;stroke:#c0111e;stroke-opacity:1;stroke-width:2.00000007;stroke-miterlimit:4;stroke-dasharray:none"
   d="m 29.167265,1.2 c -9.99697,0 -19.2207179,5.343127 -24.2187484,14 -4.99803006,8.656874 -4.99803006,19.310972 0,27.96875 L 236.29226,443.85625 c 4.99804,8.65688 14.22268,14 24.21875,14 9.99607,0 19.22071,-5.34312 24.21875,-14 L 516.07351,43.16875 c 4.99803,-8.657778 4.99803,-19.311876 0,-27.96875 -4.99803,-8.656873 -14.22178,-14 -24.21875,-14 z"
   id="path6"
   inkscape:connector-curvature="0"
   sodipodi:nodetypes="ssccsccsss" /><path
   style="font-size:medium;font-style:normal;font-variant:normal;font-weight:normal;font-stretch:normal;text-indent:0;text-align:start;text-decoration:none;line-height:normal;letter-spacing:normal;word-spacing:normal;text-transform:none;direction:ltr;block-progression:tb;writing-mode:lr-tb;text-anchor:start;baseline-shift:baseline;color:#000000;fill:#c0111e;fill-opacity:1;stroke:none;stroke-width:4;marker:none;visibility:visible;display:inline;overflow:visible;enable-background:accumulate;font-family:Sans;-inkscape-font-specification:Sans"
   d="m 29.105142,10.37174 c -6.692469,0 -12.904149,3.579215 -16.249974,9.375 -3.3468333,5.795797 -3.3469733,12.923721 0,18.71875 L 244.29228,439.30924 c 3.34659,5.79537 9.52664,9.375 16.21872,9.375 6.69208,0 12.87213,-3.57963 16.21873,-9.375 L 508.16684,38.46549 c 3.34698,-5.795029 3.34684,-12.922953 0,-18.71875 -3.34582,-5.795785 -9.5575,-9.375 -16.24997,-9.375 z"
   id="path7"
   inkscape:connector-curvature="0"
   sodipodi:nodetypes="scccscccss" /><path
   style="font-size:medium;font-style:normal;font-variant:normal;font-weight:normal;font-stretch:normal;text-indent:0;text-align:start;text-decoration:none;line-height:normal;letter-spacing:normal;word-spacing:normal;text-transform:none;direction:ltr;block-progression:tb;writing-mode:lr-tb;text-anchor:start;baseline-shift:baseline;color:#000000;fill:#ffffff;fill-opacity:1;stroke:none;stroke-width:9.03600025;marker:none;visibility:visible;display:inline;overflow:visible;enable-background:accumulate;font-family:Sans;-inkscape-font-specification:Sans"
   d="m 106.01122,68.37174 c -3.90293,0 -5.57048,1.189631 -6.218746,2.3125 -0.648259,1.122869 -0.858049,3.182577 1.093746,6.5625 l 154.49975,267.5625 c 1.95173,3.37942 3.82716,4.21875 5.12499,4.21875 1.29784,0 3.17327,-0.83933 5.12499,-4.21875 L 420.1357,77.24674 c 1.95179,-3.379923 1.742,-5.439631 1.09375,-6.5625 -0.64827,-1.122869 -2.31581,-2.3125 -6.21874,-2.3125 z"
   id="path13"
   inkscape:connector-curvature="0"
   sodipodi:nodetypes="ssccsccsss" /><path
   inkscape:connector-curvature="0"
   d="m 195.30069,110.12528 c -1.10244,0.028 -2.1814,0.49338 -2.95943,1.28408 l -19.29733,19.07503 c -1.66904,1.65819 -1.67717,4.3872 -0.019,6.08063 1.68258,1.66902 4.4125,1.67716 6.08062,0.0199 0.002,-0.002 0.004,-0.004 0.005,-0.006 l 19.27022,-19.07416 c 1.70698,-1.66903 1.73771,-4.38809 0.0678,-6.07881 -0.82052,-0.85938 -1.94736,-1.3121 -3.14017,-1.29403 l -0.008,-0.006 z"
   id="path26_1_"
   style="fill:#0066b3;fill-opacity:1;stroke:none" /><path
   inkscape:connector-curvature="0"
   d="m 300.78854,110.12528 c -1.10336,0.0271 -2.157,0.49248 -2.95945,1.28408 l -19.27112,19.07503 c -1.735,1.5877 -1.85337,4.3131 -0.26476,6.0725 1.5868,1.75938 4.28688,1.87957 6.07158,0.29097 0.0904,-0.0949 0.1726,-0.18796 0.25393,-0.27651 l 19.26931,-19.07414 c 1.72958,-1.66903 1.76301,-4.39351 0.0687,-6.07972 -0.80153,-0.87112 -1.99254,-1.32474 -3.16998,-1.29312 h 0.002 z"
   id="path28_1_"
   style="fill:#0066b3;fill-opacity:1;stroke:none" /><path
   inkscape:connector-curvature="0"
   d="m 195.30069,141.98779 c -1.10244,0.0271 -2.1814,0.49338 -2.95943,1.28498 l -19.29733,19.07413 c -1.67536,1.68439 -1.68801,4.41973 -0.0289,6.09508 1.68439,1.69975 4.41972,1.71331 6.09507,0.0289 0,0 9.1e-4,-9e-4 9.1e-4,-0.002 l 19.27022,-19.07414 c 1.72325,-1.62836 1.77927,-4.35556 0.15182,-6.07881 -0.85395,-0.8657 -2.007,-1.35005 -3.22421,-1.32294 l -0.008,-0.005 z"
   id="path30_1_"
   style="fill:#0066b3;fill-opacity:1;stroke:none" /><path
   inkscape:connector-curvature="0"
   d="m 300.78854,136.96172 c -1.10517,0.0361 -2.15881,0.4979 -2.95945,1.29311 l -19.27112,19.09943 c -1.67626,1.65367 -1.69614,4.38629 -0.0407,6.06617 1.70337,1.69885 4.41069,1.71783 6.08695,0.0642 0.005,-0.005 0.009,-0.01 0.0145,-0.0145 l 19.26931,-19.08588 c 1.74765,-1.64012 1.80548,-4.36822 0.12922,-6.06707 -0.81147,-0.89822 -2.02778,-1.38348 -3.22962,-1.34823 l 9.1e-4,-0.007 z"
   id="path32_1_"
   style="fill:#0066b3;fill-opacity:1;stroke:none" /><path
   inkscape:connector-curvature="0"
   d="m 188.43389,148.74614 c -2.35489,0.0461 -4.24803,2.00248 -4.2164,4.35737 v 35.1057 c -0.17711,2.3567 1.58319,4.42966 3.94079,4.63117 2.35761,0.20242 4.42967,-1.55788 4.63209,-3.91549 0.0181,-0.23856 0.0181,-0.47803 0,-0.71568 v -35.1057 c 0.0325,-2.37929 -1.85157,-4.32484 -4.24081,-4.35737 -0.0379,0 -0.0768,0 -0.11567,0 l 0,0 z"
   id="path34_1_"
   style="fill:#0066b3;fill-opacity:1;stroke:none" /><path
   inkscape:connector-curvature="0"
   d="m 293.97414,146.009 c -2.39013,0.0307 -4.29954,1.98983 -4.26791,4.35467 0,9e-4 0,0.002 0,0.003 v 37.84192 c 0,2.36484 1.93471,4.29954 4.32394,4.29954 2.34044,0 4.27605,-1.9347 4.27605,-4.29954 v -37.84191 c 0.0316,-2.36484 -1.82807,-4.32575 -4.21641,-4.35738 -0.0379,0 -0.0768,0 -0.11567,0 l 0,0 z"
   id="path36_1_"
   style="fill:#0066b3;fill-opacity:1;stroke:none" /><path
   inkscape:connector-curvature="0"
   d="m 228.62077,108.33696 c -1.03287,0.047 -2.01603,0.46177 -2.76516,1.17474 l -21.11275,19.99494 c -1.73498,1.61934 -1.80908,4.35105 -0.18976,6.08696 1.64554,1.7359 4.37725,1.80909 6.08785,0.18976 0.008,-0.007 0.0163,-0.0154 0.0253,-0.0244 l 18.147,-17.20539 18.12529,17.19093 c 1.72326,1.64374 4.45587,1.59042 6.08876,-0.13283 1.65819,-1.72325 1.58048,-4.44232 -0.11747,-6.08786 -0.008,-0.007 -0.0163,-0.0154 -0.0244,-0.0226 l -21.13715,-19.99855 c -0.83316,-0.80153 -1.95458,-1.23981 -3.12841,-1.17565 l 9e-4,0.01 z"
   id="path38_1_"
   style="fill:#0066b3;fill-opacity:1;stroke:none" /><path
   inkscape:connector-curvature="0"
   d="m 215.69505,136.99335 c -2.36575,0.12741 -4.1893,2.14886 -4.08267,4.5146 0.13193,2.39104 2.15338,4.2146 4.51822,4.08267 0.003,0 0.006,0 0.01,0 h 23.87699 c 2.36574,0 4.30045,-1.9094 4.30045,-4.30045 0,-2.36483 -1.93561,-4.29592 -4.30045,-4.29592 h -23.87695 c -0.15633,-0.01 -0.28826,-0.01 -0.44549,-9e-4 l 0,0 z"
   id="path40_1_"
   style="fill:#0066b3;fill-opacity:1;stroke:none" /><path
   inkscape:connector-curvature="0"
   d="m 209.68942,155.0337 c -2.39104,0 -4.30044,1.9329 -4.30044,4.29864 0,2.39014 1.9094,4.30044 4.30044,4.30044 l 0,0 h 36.78194 c 2.39104,0 4.30045,-1.9103 4.30045,-4.30044 0,-2.36574 -1.91031,-4.29864 -4.30045,-4.29864 h -36.78194 z"
   id="path42_1_"
   style="fill:#0066b3;fill-opacity:1;stroke:none" /><path
   inkscape:connector-curvature="0"
   d="m 228.76355,137.3286 c -2.38924,0.0307 -4.27424,1.98982 -4.24442,4.35466 0,9e-4 0,0.002 0,0.003 v 46.52775 c 0,2.36484 1.93561,4.30045 4.30044,4.30045 2.36484,0 4.30045,-1.93561 4.30045,-4.30045 v -46.52774 c 0.0325,-2.36484 -1.87597,-4.32575 -4.24171,-4.35737 -0.0379,-9.1e-4 -0.0759,-9.1e-4 -0.11476,0 l 0,0 z"
   id="path44_1_"
   style="fill:#0066b3;fill-opacity:1;stroke:none" /><path
   inkscape:connector-curvature="0"
   d="m 215.75017,168.99863 c -1.57235,0.11024 -2.95673,1.0681 -3.63266,2.48502 l -6.31015,12.87332 c -1.05456,2.11724 -0.1744,4.69443 1.94194,5.75983 2.11723,1.06901 4.69533,0.18886 5.77519,-1.92747 0.005,-0.0118 0.0108,-0.0226 0.0172,-0.0343 l 6.31015,-12.90134 c 1.07352,-2.10639 0.22139,-4.68991 -1.88681,-5.78874 -0.69039,-0.33977 -1.45577,-0.50875 -2.22206,-0.46719 l 0.007,9.1e-4 z"
   id="path46_1_"
   style="fill:#0066b3;fill-opacity:1;stroke:none" /><path
   inkscape:connector-curvature="0"
   d="m 241.38565,169.72515 c -2.3567,0.21055 -4.10977,2.28984 -3.89832,4.67094 0.0334,0.41026 0.1491,0.83859 0.29549,1.24703 l 4.68991,12.15132 c 0.84492,2.22567 3.34169,3.32721 5.54296,2.47869 2.22568,-0.84491 3.3489,-3.34078 2.4787,-5.56736 -9.1e-4,-0.004 -0.003,-0.008 -0.005,-0.0127 l -4.69264,-12.17571 c -0.68046,-1.80909 -2.47599,-2.93955 -4.4116,-2.79226 l 0,0 z"
   id="path48_1_"
   style="fill:#0066b3;fill-opacity:1;stroke:none" /><path
   inkscape:connector-curvature="0"
   d="m 320.64612,108.33696 c -2.39104,0 -4.27605,1.91031 -4.27605,4.29774 0,2.36845 1.88501,4.28327 4.27605,4.28327 h 24.93878 c 2.39104,0 4.32575,-1.91482 4.32575,-4.28327 0,-2.38743 -1.93471,-4.29774 -4.32575,-4.29774 h -24.93878 z"
   id="path50_1_"
   style="fill:#0066b3;fill-opacity:1;stroke:none" /><path
   inkscape:connector-curvature="0"
   d="m 316.47851,133.19622 c -2.39014,-0.003 -4.32755,1.90488 -4.33117,4.2896 -0.002,2.37206 1.93109,4.28689 4.32033,4.29141 0.004,0 0.007,0 0.0108,0 h 34.4903 c 2.34044,0 4.27424,-1.91483 4.27424,-4.28057 0,-2.39014 -1.9347,-4.29954 -4.27424,-4.29954 h -34.4903 z"
   id="path52_1_"
   style="fill:#0066b3;fill-opacity:1;stroke:none" /><path
   inkscape:connector-curvature="0"
   d="m 333.6586,133.41672 c -2.39014,0.0524 -4.29954,1.98982 -4.26972,4.37906 0,9e-4 0,0.002 0,0.003 v 46.11027 h -3.24228 c -2.39014,0 -4.32394,1.93561 -4.32394,4.30045 0,2.36483 1.9347,4.30044 4.32394,4.30044 h 7.56802 c 2.34767,0 4.27424,-1.9347 4.27424,-4.29864 v -50.4107 c 0.0316,-2.39014 -1.82626,-4.32575 -4.2164,-4.38268 -0.0389,0 -0.0777,0 -0.11657,0 l 0.003,-9e-4 z"
   id="path54_1_"
   style="fill:#0066b3;fill-opacity:1;stroke:none" /></svg>