<?xml version="1.0" encoding="UTF-8" standalone="no"?>
<!-- Created with Inkscape (http://www.inkscape.org/) -->

<svg
   xmlns:dc="http://purl.org/dc/elements/1.1/"
   xmlns:cc="http://creativecommons.org/ns#"
   xmlns:rdf="http://www.w3.org/1999/02/22-rdf-syntax-ns#"
   xmlns:svg="http://www.w3.org/2000/svg"
   xmlns="http://www.w3.org/2000/svg"
   xmlns:sodipodi="http://sodipodi.sourceforge.net/DTD/sodipodi-0.dtd"
   xmlns:inkscape="http://www.inkscape.org/namespaces/inkscape"
   width="1200"
   height="300"
   id="svg5338"
   version="1.1"
   inkscape:version="0.47 r22583"
   sodipodi:docname="Japan_road_sign_509-2.svg">
  <defs
     id="defs5340">
    <inkscape:perspective
       sodipodi:type="inkscape:persp3d"
       inkscape:vp_x="0 : 526.18109 : 1"
       inkscape:vp_y="0 : 1000 : 0"
       inkscape:vp_z="744.09448 : 526.18109 : 1"
       inkscape:persp3d-origin="372.04724 : 350.78739 : 1"
       id="perspective5346" />
  </defs>
  <sodipodi:namedview
     id="base"
     pagecolor="#ffffff"
     bordercolor="#666666"
     borderopacity="1.0"
     inkscape:pageopacity="0.0"
     inkscape:pageshadow="2"
     inkscape:zoom="0.49497475"
     inkscape:cx="963.19589"
     inkscape:cy="180.53686"
     inkscape:document-units="px"
     inkscape:current-layer="layer1"
     showgrid="false"
     inkscape:window-width="1366"
     inkscape:window-height="706"
     inkscape:window-x="-8"
     inkscape:window-y="-8"
     inkscape:window-maximized="1"
     units="px" />
  <metadata
     id="metadata5343">
    <rdf:RDF>
      <cc:Work
         rdf:about="">
        <dc:format>image/svg+xml</dc:format>
        <dc:type
           rdf:resource="http://purl.org/dc/dcmitype/StillImage" />
        <dc:title></dc:title>
      </cc:Work>
    </rdf:RDF>
  </metadata>
  <g
     inkscape:label="レイヤー 1"
     inkscape:groupmode="layer"
     id="layer1"
     transform="translate(0,-772.36217)">
    <rect
       style="color:#000000;fill:#000000;fill-opacity:1;stroke:none;stroke-width:99;marker:none;visibility:visible;display:inline;overflow:visible;enable-background:accumulate"
       id="rect5348"
       width="1200"
       height="300"
       x="0"
       y="0"
       rx="50"
       ry="50"
       transform="translate(0,772.36217)" />
    <rect
       style="color:#000000;fill:#ffffff;fill-opacity:1;fill-rule:nonzero;stroke:none;stroke-width:99;marker:none;visibility:visible;display:inline;overflow:visible;enable-background:accumulate"
       id="rect5860"
       width="1170"
       height="270"
       x="15"
       y="15"
       rx="50"
       ry="50"
       transform="translate(0,772.36217)" />
    <g
       style="font-size:250px;font-style:normal;font-weight:normal;text-align:center;text-anchor:middle;fill:#000000;fill-opacity:1;stroke:none;font-family:'Rounded M+ 1m medium';-inkscape-font-specification:'Rounded M+ 1m medium'"
       id="text2814">
      <path
         d="m 316.82452,867.36194 c 7.49694,8.49928 15.24585,15.91504 23.24677,22.24731 2.83281,2.33472 4.6664,5.25169 5.50079,8.75092 0.83391,3.49946 0.33418,6.74958 -1.49917,9.75036 -1.83384,3.001 -4.45962,4.87656 -7.87735,5.62668 -3.4182,0.75032 -6.54371,0.0421 -9.37653,-2.12478 -12.665,-10.16733 -24.24641,-22.83466 -34.74426,-38.00202 -0.16804,-0.33047 -0.37784,-0.45508 -0.62943,-0.37384 -0.25195,0.0815 -0.37784,0.29006 -0.37765,0.62561 l 0,10.74982 c -1.9e-4,15.49795 -1.12425,25.0385 -3.37219,28.62167 -2.24831,3.58337 -8.03902,5.375 -17.37214,5.37491 -4.00305,9e-5 -10.00483,-0.24913 -18.00537,-0.74768 -3.1638,-0.16775 -5.87096,-1.33505 -8.12149,-3.50189 -2.25081,-2.16665 -3.46006,-4.91577 -3.62777,-8.24738 -0.1629,-3.00078 0.92174,-5.5846 3.25393,-7.75146 2.33191,-2.16663 4.99838,-3.08216 7.99942,-2.74658 3.99765,0.33072 6.41363,0.49602 7.24793,0.49591 3.16858,1.1e-4 5.00218,-0.45765 5.50079,-1.37329 0.49829,-0.91541 0.74752,-4.04092 0.74768,-9.37653 l 0,-66.00189 c -1.6e-4,-3.49916 1.24979,-6.49878 3.74985,-8.99887 2.49973,-2.4997 5.50062,-3.74965 9.00268,-3.74985 3.50172,2e-4 6.5433,1.25015 9.12476,3.74985 2.58109,2.50009 3.87173,5.49971 3.87192,8.99887 l 0,5.00488 c -1.9e-4,1.50063 0.25158,2.91716 0.75531,4.24957 1.33241,2.83323 4.16546,8.08225 8.49914,15.74707 0.16765,0.50371 0.58473,0.75548 1.25122,0.75531 0.66611,1.7e-4 1.16456,-0.16768 1.49537,-0.50354 4.83683,-4.66901 10.16977,-10.41903 15.99884,-17.25006 2.16653,-2.66501 4.87496,-4.20615 8.1253,-4.62341 3.2499,-0.41688 6.29148,0.37403 9.12476,2.37274 2.67005,1.99909 4.25442,4.66556 4.75311,7.99942 0.49822,3.33422 -0.33593,6.25246 -2.50244,8.75473 -5.49848,6.83102 -12.7464,14.24678 -21.74378,22.24732 -1.0022,0.83429 -1.0022,1.91766 0,3.25012 z m 5.99671,165.49686 -4.50134,0 c -2.33481,-10e-5 -4.37694,-0.8749 -6.12641,-2.6245 -1.74988,-1.7497 -2.62472,-3.7919 -2.62451,-6.1265 -2.1e-4,-0.829 -0.41728,-1.2436 -1.25122,-1.2435 l -67.24548,0 c -1.00213,-10e-5 -1.50313,0.4145 -1.503,1.2435 -1.3e-4,2.3346 -0.83301,4.3768 -2.49862,6.1265 -1.66588,1.7496 -3.66606,2.6244 -6.00052,2.6245 l -4.24957,0 c -3.49947,-10e-5 -6.49909,-1.25 -8.99887,-3.7499 -2.50001,-2.4999 -3.74996,-5.4995 -3.74985,-8.9989 l 0,-80.00178 c -1.1e-4,-3.82989 1.41641,-7.12069 4.24957,-9.87244 2.83293,-2.75159 6.16697,-4.12742 10.00214,-4.1275 l 93.49823,0 c 3.83482,8e-5 7.16886,1.37591 10.00213,4.1275 2.83282,2.75175 4.24934,6.04255 4.24958,9.87244 l 0,79.50588 c -2.4e-4,3.6621 -1.29215,6.7851 -3.87574,9.3689 -2.58404,2.5838 -5.70955,3.8757 -9.37652,3.8758 z m -83.25196,-84.25144 0,13.99994 c -1.3e-4,1.50049 0.75009,2.25072 2.25068,2.25067 l 65.75012,0 c 1.33239,5e-5 1.99869,-0.75018 1.9989,-2.25067 l 0,-13.99994 c -2.1e-4,-1.33254 -0.66651,-1.99884 -1.9989,-1.9989 l -65.75012,0 c -1.50059,6e-5 -2.25081,0.66636 -2.25068,1.9989 z m 2.25068,54.25264 65.75012,0 c 1.33239,0 1.99869,-0.7502 1.9989,-2.2507 l 0,-14.49584 c -2.1e-4,-1.33257 -0.66651,-1.99887 -1.9989,-1.9989 l -65.75012,0 c -1.50059,3e-5 -2.25081,0.66633 -2.25068,1.9989 l 0,14.49584 c -1.3e-4,1.5005 0.75009,2.2507 2.25068,2.2507 z m -50.2472,4.9972 c -21.83539,9.1706 -42.92047,16.7542 -63.25531,22.7509 -2.83307,0.8341 -5.49954,0.4183 -7.99942,-1.2474 -2.49991,-1.6658 -3.99908,-3.9152 -4.49752,-6.7482 l -0.49592,-3.9978 c -0.83415,-4.6692 0.9969,-7.6701 5.49317,-9.0027 0.67137,-0.3357 1.00706,-0.7528 1.00708,-1.2512 l 0,-86.74624 c -2e-5,-3.16865 1.08208,-5.83639 3.24631,-8.00323 2.16418,-2.16665 4.83065,-3.25002 7.99942,-3.25012 3.16871,10e-5 5.83645,1.08347 8.00323,3.25012 2.16671,2.16684 3.25008,4.83458 3.25012,8.00323 l 0,78.49884 c -4e-5,1.3326 0.66626,1.8311 1.9989,1.4954 l 4.50135,-1.4954 c 1.33255,-0.50352 1.99885,-1.42159 1.9989,-2.75421 l 0,-97.99957 c -5e-5,-1.50033 -0.66635,-2.25056 -1.9989,-2.25067 l -5.5008,0 -11.50512,0 c -3.82998,1.1e-4 -7.12079,-1.37445 -9.87244,-4.12369 -2.75168,-2.749 -4.12752,-6.04108 -4.1275,-9.87625 l 0,-54.245 c -2e-5,-3.83485 1.37582,-7.16889 4.1275,-10.00213 2.75165,-2.83286 6.04246,-4.24938 9.87244,-4.24958 l 54.25262,0 c 3.83496,2e-4 7.169,1.41672 10.00214,4.24958 2.83295,2.83324 4.24947,6.16728 4.24957,10.00213 l 0,61.74469 c -1e-4,1.16996 0.49836,1.42173 1.49536,0.75531 14.66867,-12.00344 25.42102,-25.67022 32.25708,-41.00036 0.66617,-1.33753 0.2491,-2.00637 -1.25122,-2.00653 l -14.50348,0 c -3.16377,1.6e-4 -5.82897,-1.08194 -7.9956,-3.24631 -2.16686,-2.16404 -3.25023,-4.83051 -3.25013,-7.99942 -1e-4,-3.16857 1.08327,-5.83631 3.25013,-8.00324 2.16663,-2.16656 4.83183,-3.24993 7.9956,-3.25012 l 28.74756,0 c 3.16859,1.9e-4 5.83634,1.08356 8.00324,3.25012 2.16659,2.16693 3.24996,4.83467 3.25012,8.00324 -1.6e-4,8.66716 -1.16745,16.00154 -3.50189,22.00317 -7.83299,19.66363 -19.83148,36.6619 -35.99549,50.99488 -2.83316,2.50254 -6.1672,3.4613 -10.00213,2.87628 -3.83515,-0.58482 -6.75212,-2.54303 -8.75092,-5.87464 l -4.99725,-8.00323 c -1.00209,-1.33249 -2.08546,-1.99879 -3.25012,-1.9989 l -14.50348,0 c -1.33268,1.1e-4 -1.99898,0.75034 -1.99891,2.25067 l 0,23.7503 c -7e-5,1.50054 0.66623,2.25076 1.99891,2.25068 l 11.74926,0 c 3.16866,8e-5 5.8364,1.08345 8.00324,3.25012 2.16665,2.16683 3.25002,4.8333 3.25012,7.99942 -1e-4,3.16627 -1.08347,5.83274 -3.25012,7.99942 -2.16684,2.16681 -4.83458,3.25018 -8.00324,3.25012 l -11.74926,0 c -1.33268,6e-5 -1.99898,0.75029 -1.99891,2.25067 l 0,38.25379 c -7e-5,1.16477 0.58231,1.5793 1.74714,1.24359 2.33451,-0.82904 5.8364,-2.24556 10.50567,-4.24958 2.49727,-0.99688 4.95393,-0.74511 7.37,0.75531 2.41588,1.50048 3.70779,3.5833 3.87573,6.24848 0.3356,3.33152 -0.37139,6.45575 -2.12097,9.37266 -1.74977,2.917 -4.12505,4.9579 -7.12586,6.1226 z m -43.99871,-131.74435 28.24401,0 c 1.33762,1.4e-4 2.00646,-0.75008 2.00653,-2.25067 l 0,-35.2478 c -7e-5,-1.33751 -0.66891,-2.00636 -2.00653,-2.00653 l -28.24401,0 c -1.50049,1.7e-4 -2.25072,0.66902 -2.25068,2.00653 l 0,35.2478 c -4e-5,1.50059 0.75019,2.25081 2.25068,2.25067 z"
         style=""
         id="path2819" />
      <path
         d="m 539.57233,1001.6088 c 6.3322,0 10.99884,-2.416 13.99994,-7.24796 3.00069,-4.83193 5.41793,-16.58118 7.25174,-35.2478 1.83338,-18.66652 2.75018,-47.16736 2.75039,-85.50263 l 0,-25.49743 c -2.1e-4,-1.33244 -0.75043,-1.99874 -2.25067,-1.99891 l -33.50067,0 c -1.50062,1.7e-4 -2.25084,0.66647 -2.25067,1.99891 -1.33277,45.49674 -6.87425,81.16158 -16.62445,106.99462 -9.75051,25.83317 -26.0418,48.3348 -48.8739,67.5049 -2.83316,2.3346 -6.1672,3.5019 -10.00214,3.5019 -3.83514,0 -7.16918,-1.2513 -10.00214,-3.7537 -2.49744,-2.3346 -3.70542,-5.1269 -3.62396,-8.3771 0.0813,-3.2501 1.45713,-5.9585 4.1275,-8.1253 20.83323,-16.83038 35.70799,-36.66298 44.62433,-59.4978 8.91608,-22.83469 14.04049,-55.58383 15.37323,-98.24752 -1.4e-4,-1.33244 -0.66644,-1.99874 -1.9989,-1.99891 l -41.00037,0 c -3.16884,1.7e-4 -5.87727,-1.12516 -8.1253,-3.376 -2.24822,-2.2505 -3.37229,-5.04413 -3.37219,-8.38089 -10e-5,-3.16348 1.08328,-5.87064 3.25012,-8.12149 2.16665,-2.25049 4.91577,-3.37582 8.24737,-3.37601 l 117.99622,0 c 3.83482,1.9e-4 7.1269,1.41671 9.87625,4.24957 2.74889,2.83323 4.12345,6.16728 4.12369,10.00214 l 0,19.99664 c -2.4e-4,26.3368 -0.24946,48.46329 -0.74768,66.37955 -0.49869,17.91643 -1.5401,33.29092 -3.12424,46.1235 -1.5846,12.83267 -3.37623,22.87422 -5.37491,30.12467 -1.99912,7.25045 -4.87413,12.87585 -8.62503,16.87625 -3.75133,4.0003 -7.5851,6.5841 -11.50131,7.7514 -3.91662,1.1673 -9.12495,1.751 -15.625,1.751 -5.33059,0 -14.2468,-0.6689 -26.74866,-2.0066 -3.49951,-0.3306 -6.41648,-1.7878 -8.75091,-4.3716 -2.33475,-2.5838 -3.50205,-5.6254 -3.50189,-9.1247 -1.6e-4,-3.1688 1.16714,-5.7946 3.50189,-7.8774 2.33443,-2.0828 5.16748,-2.95638 8.49914,-2.6207 9.00252,0.9969 16.3369,1.4954 22.00318,1.4954 z m -158.75244,-99.74674 -8.24738,1.74713 c -3.00091,0.66641 -5.7513,0.0828 -8.25119,-1.75094 -2.49991,-1.83349 -3.9177,-4.33211 -4.25339,-7.49588 -0.33061,-3.33647 0.46285,-6.2954 2.38037,-8.8768 1.91751,-2.58115 4.4581,-4.20494 7.62177,-4.87137 l 10.74982,-2.25067 c 1.33257,-0.33556 1.99887,-1.16971 1.9989,-2.50245 l 0,-50.24719 c -3e-5,-3.50424 1.24992,-6.50641 3.74984,-9.0065 2.49987,-2.4997 5.50076,-3.74965 9.00269,-3.74985 3.50185,2e-4 6.54343,1.25015 9.12476,3.74985 2.58122,2.50009 3.87186,5.50226 3.87191,9.0065 l 0,44.99817 c -5e-5,1.50059 0.66879,2.08296 2.00653,1.74713 l 46.7453,-9.75036 c 3.00079,-0.66616 5.79315,-0.0825 8.37708,1.75094 2.58371,1.83374 4.04092,4.33491 4.37164,7.50351 0.33558,3.33164 -0.4973,6.33126 -2.49862,8.99887 -2.00156,2.66788 -4.58411,4.3349 -7.74765,5.00107 l -49.24775,9.99451 c -1.33774,0.33581 -2.00658,1.16995 -2.00653,2.50244 l 0,58.5022 c -5e-5,5.83399 0.50095,9.25068 1.50299,10.25009 1.00194,0.99949 4.83444,1.49922 11.4975,1.49917 4.00282,5e-5 6.79517,-0.16653 8.37708,-0.49972 1.58175,-0.33311 3.24877,-0.95872 5.00106,-1.87683 1.75214,-0.91803 2.87747,-2.9182 3.37601,-6.00052 0.49837,-3.08222 0.95613,-6.66549 1.37329,-10.74982 0.41699,-4.0842 0.70945,-10.20806 0.87738,-18.37158 0.16268,-3.16866 1.41135,-5.71179 3.74604,-7.6294 2.3345,-1.91743 5.08489,-2.70834 8.25119,-2.37274 3.16609,0.33579 5.83256,1.75358 7.99942,4.25339 2.16664,2.49998 3.16609,5.41568 2.99835,8.7471 -0.33072,9.50121 -0.78848,17.08482 -1.37329,22.75086 -0.58503,5.66614 -1.58575,10.79055 -3.00217,15.37323 -1.41663,4.58275 -2.9158,7.91552 -4.49753,9.99832 -1.58192,2.08285 -4.20643,3.83252 -7.87353,5.24902 -3.66729,1.41655 -7.33448,2.25069 -11.00159,2.50244 -3.66727,0.25179 -8.83237,0.37768 -15.4953,0.37766 -17.33403,2e-5 -27.91854,-1.62504 -31.75354,-4.87519 -3.83507,-3.25009 -5.75259,-12.29346 -5.75256,-27.13012 l 0,-54.74854 c -3e-5,-1.50034 -0.66633,-2.08271 -1.9989,-1.74713 z"
         style=""
         id="path2821" />
      <path
         d="m 671.07257,854.36145 c -2.16681,2.49751 -4.87524,3.87207 -8.1253,4.12369 -3.25018,0.25192 -6.12646,-0.70557 -8.62885,-2.87247 -5.83399,-5.16748 -13.4176,-11.41849 -22.75085,-18.75305 -2.49738,-1.99873 -3.9546,-4.62323 -4.37165,-7.87354 -0.41709,-3.24993 0.45774,-6.12621 2.62451,-8.62884 2.16672,-2.66501 4.91712,-4.16418 8.25119,-4.49753 3.33401,-0.33295 6.33363,0.49992 8.99888,2.49863 10.83368,8.50441 18.41729,14.6715 22.75085,18.50128 2.66513,2.16692 4.08166,4.95928 4.24957,8.37707 0.16778,3.41814 -0.83167,6.45972 -2.99835,9.12476 z m -6.75201,58.74634 c -2.16681,2.50254 -4.87524,3.87837 -8.12531,4.1275 -3.25017,0.24932 -6.12391,-0.70944 -8.62121,-2.87628 -10.50317,-9.33319 -19.58723,-16.9168 -27.2522,-22.75086 -2.50246,-1.99878 -3.92025,-4.58132 -4.25339,-7.74765 -0.33316,-3.16606 0.50226,-6.00038 2.50626,-8.50296 2.16673,-2.49721 4.87389,-3.95443 8.12149,-4.37164 3.24755,-0.41693 6.20648,0.37398 8.8768,2.37274 8.66695,6.33253 17.74846,13.75084 27.24457,22.25495 2.67022,2.32962 4.12998,5.16139 4.37927,8.49533 0.24916,3.33415 -0.7096,6.33377 -2.87628,8.99887 z m 10.49804,47.25647 c -7.49721,21.83027 -16.91187,41.99474 -28.24402,60.49344 -1.83618,3.0009 -4.50392,4.9184 -8.00323,5.7526 -3.49938,0.8341 -6.7495,0.2505 -9.75037,-1.751 -3.00091,-2.0014 -4.83451,-4.7518 -5.50079,-8.2511 -0.66632,-3.4994 -0.0814,-6.7495 1.75476,-9.7504 10.16232,-16.83043 19.15991,-35.32915 26.9928,-55.49623 1.16979,-3.16868 3.21319,-5.41935 6.13022,-6.75201 2.91691,-1.33253 5.95722,-1.41646 9.12094,-0.25177 3.16867,1.33775 5.50327,3.54773 7.00378,6.62994 1.50038,3.08233 1.66568,6.20784 0.49591,9.37653 z m 61.00464,-152.50397 c 18.66644,3.83524 38.5003,9.7531 59.50165,17.7536 3.16346,1.33279 5.41159,3.45757 6.74438,6.37436 1.33241,2.91715 1.41633,5.95873 0.25177,9.12476 -1.16495,3.16636 -3.24777,5.41576 -6.24847,6.7482 -3.00108,1.33276 -6.0859,1.41668 -9.25445,0.25177 -18.99736,-7.33422 -38.66338,-13.16816 -58.99811,-17.50183 -3.16378,-0.66612 -5.49583,-2.37383 -6.99616,-5.12314 -1.50056,-2.74894 -1.75233,-5.62395 -0.75531,-8.62503 1.16973,-3.33639 3.25382,-5.83756 6.25229,-7.50351 2.99823,-1.66555 6.1657,-2.16528 9.50241,-1.49918 z m 38.7497,141.50238 0,52.00193 c -1.7e-4,1.4954 0.75005,2.2431 2.25067,2.2431 l 55.0003,0 c 3.33127,0 6.12236,1.1253 8.37326,3.376 2.25044,2.2506 3.37577,4.9591 3.37601,8.1253 -2.4e-4,3.1662 -1.12557,5.8746 -3.37601,8.1253 -2.2509,2.2506 -5.04199,3.376 -8.37326,3.376 l -143.75305,0 c -3.33158,0 -6.0807,-1.0834 -8.24737,-3.2501 -2.16683,-2.1668 -3.2502,-4.9172 -3.25013,-8.2512 -7e-5,-3.3341 1.0833,-6.0845 3.25013,-8.2512 2.16667,-2.1668 4.91579,-3.2501 8.24737,-3.2501 l 56.99921,0 c 1.33246,0 1.99876,-0.7477 1.9989,-2.2431 l 0,-52.00193 c -1.4e-4,-1.50038 -0.66644,-2.25061 -1.9989,-2.25067 l -44.7464,0 c -3.16884,6e-5 -5.83658,-1.04135 -8.00324,-3.12424 -2.16683,-2.08275 -3.2502,-4.70853 -3.25012,-7.87735 -8e-5,-3.16866 1.08329,-5.87709 3.25012,-8.1253 2.16666,-2.24804 4.8344,-3.37211 8.00324,-3.37219 l 44.7464,0 c 1.33246,8e-5 1.99876,-0.66622 1.9989,-1.99891 l 0,-42.50335 c -1.4e-4,-1.50032 -0.66644,-2.25054 -1.9989,-2.25067 l -53.74909,0 c -3.33158,1.3e-4 -6.12267,-1.12521 -8.37326,-3.37601 -2.25074,-2.25053 -3.37608,-4.95897 -3.376,-8.12531 -8e-5,-3.16605 1.16595,-5.91517 3.49807,-8.24737 2.33197,-2.3319 5.08237,-3.49792 8.25119,-3.49808 l 137.49695,0 c 3.16852,1.6e-4 5.87822,1.12422 8.12912,3.37219 2.25044,2.24828 3.37577,5.04064 3.37601,8.37708 -2.4e-4,3.1638 -1.12557,5.87096 -3.37601,8.12149 -2.2509,2.2508 -4.9606,3.37614 -8.12912,3.37601 l -51.99432,0 c -1.50062,1.3e-4 -2.25084,0.75035 -2.25067,2.25067 l 0,42.50335 c -1.7e-4,1.33269 0.75005,1.99899 2.25067,1.99891 l 42.7475,0 c 3.16852,8e-5 5.87695,1.12415 8.1253,3.37219 2.2479,2.24821 3.37197,4.95664 3.37219,8.1253 -2.2e-4,3.16882 -1.12429,5.7946 -3.37219,7.87735 -2.24835,2.08289 -4.95678,3.1243 -8.1253,3.12424 l -42.7475,0 c -1.50062,6e-5 -2.25084,0.75029 -2.25067,2.25067 z"
         style=""
         id="path2823" />
      <path
         d="m 878.56921,864.11182 43.25104,0 c 0.49839,1.4e-4 0.8735,-0.25035 1.12534,-0.7515 0.2517,-0.50085 0.20974,-0.91665 -0.12589,-1.2474 -2.49742,-4.1655 -5.57969,-9.16529 -9.24682,-14.99939 -0.83421,-1.16968 -1.83366,-1.7546 -2.99836,-1.75477 l -24.25384,0 c -3.00093,1.7e-4 -5.58474,-1.0832 -7.75147,-3.25012 -2.16677,-2.16657 -3.25014,-4.74912 -3.25012,-7.74765 -2e-5,-2.99817 1.08335,-5.54003 3.25012,-7.62558 2.16673,-2.08518 4.75054,-3.12786 7.75147,-3.12805 l 76.75171,0 c 1.50033,1.9e-4 2.25056,-0.74749 2.25067,-2.24304 l 0,-4.75311 c -1.1e-4,-3.667 1.37445,-6.87516 4.12369,-9.62449 2.749,-2.74891 5.95716,-4.12347 9.62448,-4.12368 3.66706,2.1e-4 6.87522,1.37477 9.62448,4.12368 2.74899,2.74933 4.12355,5.95749 4.12369,9.62449 l 0,4.75311 c -1.4e-4,1.49555 0.75008,2.24323 2.25067,2.24304 l 76.75173,0 c 3.0007,1.9e-4 5.5845,1.04287 7.7514,3.12805 2.1666,2.08555 3.2499,4.62741 3.2502,7.62558 -3e-4,2.99853 -1.0836,5.58108 -3.2502,7.74765 -2.1669,2.16692 -4.7507,3.25029 -7.7514,3.25012 l -24.2539,0 c -1.4955,1.7e-4 -2.495,0.66647 -2.9983,1.99891 -1.9991,4.00305 -4.7482,9.00538 -8.2474,15.00702 -0.3359,0.33075 -0.3778,0.70459 -0.1259,1.12152 0.2516,0.41722 0.6267,0.62575 1.1254,0.62561 l 42.2515,0 c 2.8329,1.4e-4 5.3328,1.04156 7.4997,3.12423 2.1665,2.08297 3.2499,4.5409 3.2502,7.37381 -3e-4,2.83319 -1.0837,5.33308 -3.2502,7.4997 -2.1669,2.16687 -4.6668,3.25025 -7.4997,3.25012 l -201.00399,0 c -2.83307,1.3e-4 -5.33296,-1.08325 -7.49969,-3.25012 -2.16676,-2.16662 -3.25014,-4.66651 -3.25012,-7.4997 -2e-5,-2.83291 1.08336,-5.29084 3.25012,-7.37381 2.16673,-2.08267 4.66662,-3.12409 7.49969,-3.12423 z m 64.25476,-16.99829 c 1.99882,3.33166 4.83186,8.33145 8.49915,14.99939 0.49836,1.33274 1.58173,1.99904 3.25012,1.9989 l 49.49956,0 c 1.3324,1.4e-4 2.4158,-0.50085 3.2501,-1.50299 2.3344,-3.33135 5.5006,-8.49645 9.4986,-15.4953 0.3355,-0.33553 0.3775,-0.71192 0.1259,-1.12916 -0.252,-0.4169 -0.6271,-0.62544 -1.1254,-0.62561 l -71.99857,0 c -0.50363,1.7e-4 -0.88002,0.20871 -1.12916,0.62561 -0.24931,0.41724 -0.20608,0.79363 0.1297,1.12916 z m 23.75031,118.24798 -48.00415,0 -13.4964,0 c -3.83509,5e-5 -7.12717,-1.41648 -9.87625,-4.24957 -2.74916,-2.833 -4.12373,-6.16704 -4.12369,-10.00214 l 0,-43.49518 c -4e-5,-3.83493 1.37453,-7.12701 4.12369,-9.87625 2.74908,-2.74901 6.04116,-4.12357 9.87625,-4.12368 l 147.99497,0 c 3.8349,1.1e-4 7.1269,1.37467 9.8763,4.12368 2.7489,2.74924 4.1235,6.04132 4.1237,9.87625 l 0,43.49518 c -2e-4,3.8351 -1.3748,7.16914 -4.1237,10.00214 -2.7494,2.83309 -6.0414,4.24962 -9.8763,4.24957 l -69.24436,0 c -0.33582,5e-5 -0.54563,0.12466 -0.62942,0.37384 -0.0841,0.24927 -0.0421,0.45781 0.12588,0.62561 7.16641,4.33354 14.91532,9.66648 23.2468,15.99884 2.5023,1.83617 3.8781,4.29538 4.1275,7.37763 0.249,3.08229 -0.7097,5.7068 -2.8763,7.87353 -2.1669,2.33461 -4.8753,3.62654 -8.12532,3.87574 -3.25026,0.2492 -6.124,-0.6256 -8.62121,-2.62452 -5.66623,-4.33348 -12.91669,-9.33327 -21.75141,-14.99939 -3.00101,-1.83611 -4.66803,-4.50385 -5.00107,-8.00323 -0.33326,-3.49931 0.66746,-6.49766 3.00217,-8.99506 0.33049,-0.67134 0.0813,-1.17234 -0.74768,-1.50299 z m -48.00415,-51.75018 0,4.50134 c -7e-5,1.50054 0.66623,2.25076 1.9989,2.25067 l 117.00437,0 c 1.3324,9e-5 1.9987,-0.75013 1.9989,-2.25067 l 0,-4.50134 c -2e-4,-1.3325 -0.6665,-1.9988 -1.9989,-1.9989 l -117.00437,0 c -1.33267,10e-5 -1.99897,0.6664 -1.9989,1.9989 z m 0,25.7492 0,5.75257 c -7e-5,1.50051 0.66623,2.25073 1.9989,2.25067 l 117.00437,0 c 1.3324,6e-5 1.9987,-0.75016 1.9989,-2.25067 l 0,-5.75257 c -2e-4,-1.50037 -0.6665,-2.25059 -1.9989,-2.25067 l -117.00437,0 c -1.33267,8e-5 -1.99897,0.7503 -1.9989,2.25067 z m -10.24628,53.49732 c -5.16769,9.99965 -11.584,19.41685 -19.24896,28.25165 -2.16678,2.6652 -5.0011,4.2063 -8.50296,4.6234 -3.50192,0.4171 -6.75331,-0.2899 -9.75418,-2.121 -2.66522,-1.6683 -4.16439,-4.0435 -4.49753,-7.1258 -0.33316,-3.0823 0.49971,-5.7907 2.49863,-8.1253 6.50022,-7.5022 12.33416,-15.75216 17.50183,-24.74978 1.66826,-2.83301 4.00158,-4.83319 6.99997,-6.00052 2.99831,-1.16726 5.99793,-1.16599 8.99887,0.004 3.00084,1.33263 5.1269,3.49811 6.37817,6.49643 1.25117,2.99837 1.12655,5.91407 -0.37384,8.7471 z m 15.24353,-12.24518 c 2.67022,-2.67025 5.83896,-4.0054 9.50623,-4.00543 3.66711,3e-5 6.83331,1.3339 9.49859,4.00162 2.66512,2.66777 3.99771,5.83524 3.99781,9.50241 l 0,6.24847 c -10e-5,6.66806 0.45894,10.66846 1.3771,12.00106 0.91798,1.3326 3.79299,2.1667 8.62503,2.5024 6.00169,0.4985 13.91845,0.7477 23.75031,0.7477 8.8347,0 16.75146,-0.2492 23.75035,-0.7477 7.1663,-0.5035 11.791,-1.255 13.874,-2.2545 2.0827,-0.9994 3.5412,-3.4141 4.3755,-7.2441 0.8339,-3.5044 2.5429,-6.25606 5.1269,-8.25498 2.5837,-1.99888 5.5413,-2.7491 8.873,-2.25067 3.4992,0.50356 6.3742,2.12989 8.625,4.879 2.2505,2.74913 3.1241,5.87335 2.6207,9.37275 -1.4955,10.6658 -4.4099,17.5819 -8.7433,20.7481 -4.3336,3.1662 -12.7514,5.1663 -25.2532,6.0005 -8.0009,0.6663 -18.66678,0.9994 -31.99773,0.9995 -12.67,-10e-5 -23.33842,-0.2493 -32.00531,-0.7477 -13.33118,-0.8342 -21.66374,-2.959 -24.99771,-6.3744 -3.33411,-3.4154 -5.00114,-12.0404 -5.00107,-25.87507 l 0,-9.75036 c -7e-5,-3.66717 1.33253,-6.83337 3.9978,-9.4986 z m 129.50132,-6.50024 c 3.1686,-1.50041 6.5446,-1.83356 10.128,-0.99945 3.5831,0.83418 6.4581,2.66778 8.6251,5.50079 6.8306,9.16547 13.4148,19.16505 19.7525,29.99873 1.6629,2.6653 2.0368,5.5809 1.1215,8.7471 -0.9158,3.1662 -2.874,5.4169 -5.8746,6.7521 -3.0012,1.3351 -6.1267,1.5017 -9.3766,0.4997 -3.2503,-1.002 -5.707,-2.9195 -7.37,-5.7526 -6.002,-9.9996 -12.8353,-19.91522 -20.5001,-29.74698 -1.8364,-2.50242 -2.4213,-5.29478 -1.7548,-8.37708 0.6661,-3.08224 2.4158,-5.28968 5.249,-6.62231 z"
         style=""
         id="path2825" />
    </g>
  </g>
</svg>
