<?xml version="1.0" encoding="UTF-8" standalone="no"?>
<!-- Created with Inkscape (http://www.inkscape.org/) -->

<svg
   xmlns:svg="http://www.w3.org/2000/svg"
   xmlns="http://www.w3.org/2000/svg"
   version="1.0"
   width="500"
   height="420"
   id="svg4203">
  <defs
     id="defs58" />
  <rect
     width="497.5"
     height="417.5"
     x="2.5"
     y="2.5"
     id="rect2870"
     style="color:#000000;fill:#005d35;fill-opacity:1;fill-rule:nonzero;stroke:#005d35;stroke-width:5;stroke-linecap:round;stroke-linejoin:round;stroke-miterlimit:4;stroke-opacity:1;stroke-dasharray:none;stroke-dashoffset:261;marker:none;visibility:visible;display:inline;overflow:visible;enable-background:accumulate" />
  <g
     id="text3640-1"
     style="font-size:80px;font-style:normal;font-weight:normal;text-align:center;text-anchor:middle;fill:#ffffff;fill-opacity:1;stroke:none;font-family:GD-HighwayGothicJA-TTF;-inkscape-font-specification:GD-HighwayGothicJA-TTF">
    <path
       d="m 73.427383,164.31757 33.593747,0 0,-13.20313 7.26563,0 0,13.20313 33.59375,0 0,7.1875 -29.92188,0 c 3.5937,7.03129 8.09891,13.43753 13.51563,19.21875 5.26035,5.78127 11.19784,10.72918 17.8125,14.84375 l 0,0 -3.59375,6.17187 c -6.40632,-3.95832 -12.23965,-8.61977 -17.5,-13.98437 -5.36464,-5.46873 -10.00005,-11.4583 -13.90625,-17.96875 l 0,0 0,28.90625 20.78125,0 0,7.1875 -20.78125,0 0,11.95312 -7.26563,0 0,-11.95312 -20.781247,0 0,-7.1875 20.781247,0 0,-28.90625 c -3.95836,6.51045 -8.619816,12.50002 -13.984372,17.96875 -5.260433,5.3646 -11.067719,10.02605 -17.421875,13.98437 l 0,0 -3.59375,-6.17187 c 6.562493,-4.11457 12.473945,-9.06248 17.734375,-14.84375 5.416643,-5.78122 9.947888,-12.18746 13.593752,-19.21875 l 0,0 -29.921877,0 z"
       id="path3910" />
    <path
       d="m 253.81801,227.05194 0,-7.1875 8.4375,0 0,-50.78125 -11.5625,0 0,38.04688 -46.40625,0 0,-52.8125 46.40625,0 0,7.57812 27.96875,0 0,7.1875 -9.21875,0 0,50.78125 c -0.2084,4.63541 -2.60423,7.03124 -7.1875,7.1875 l 0,0 z m -10.39063,-65.54687 -12.34375,0 0,15.625 12.34375,0 z m -31.95312,0 0,15.625 12.34375,0 0,-15.625 z m 31.95312,38.35937 0,-15.54687 -12.34375,0 0,15.54687 z m -31.95312,0 12.34375,0 0,-15.54687 -12.34375,0 z"
       id="path3912" />
  </g>
  <g
     id="text3640"
     style="font-size:80px;font-style:normal;font-weight:normal;text-align:center;text-anchor:middle;fill:#ffffff;fill-opacity:1;stroke:none;font-family:GD-HighwayGothicJA-TTF;-inkscape-font-specification:GD-HighwayGothicJA-TTF">
    <path
       d="m 144.75551,15.536301 0,38.75 -30.23438,0 0,27.8125 c 3.64579,-1.145833 7.0312,-2.994789 10.15625,-5.546875 l 0,0 4.21875,6.09375 c -2.29172,1.77083 -4.68755,3.359371 -7.1875,4.765625 -2.50005,1.406243 -5.18233,2.265617 -8.04687,2.578125 l 0,0 -6.5625,0 0,-74.453125 z m -7.34375,7.34375 -22.89063,0 0,8.4375 22.89063,0 z m 4.21875,32.578125 3.35937,6.328125 -12.42187,6.484375 c 3.59368,7.291673 9.14055,12.473959 16.64062,15.546875 l 0,0 -3.35937,6.71875 c -5.2084,-2.39584 -9.79173,-5.651045 -13.75,-9.765625 -3.59381,-3.749995 -6.17193,-8.098949 -7.73438,-13.046875 l 0,0 -0.85937,-3.125 z m -27.10938,-8.515625 22.89063,0 0,-8.203125 -22.89063,0 z m -43.515622,-20.9375 17.1875,-12.734375 17.265622,12.734375 -4.53125,6.25 -12.734372,-9.609375 -12.734375,9.609375 z m 5.3125,6.5625 23.984372,0 0,7.265625 -8.437497,0 0,7.890625 9.062497,0 0,7.34375 -9.062497,0 0,26.484375 12.578127,0 0,7.34375 -32.187502,0 0,-7.34375 12.265625,0 0,-26.484375 -8.75,0 0,-7.34375 8.75,0 0,-7.890625 -8.203125,0 z m -2.890625,30.15625 7.421875,-1.25 2.1875,12.5 -7.265625,1.484375 z m 20.078125,11.25 2.265625,-12.5 7.343747,1.25 -2.1875,12.734375 z"
       id="path3905" />
    <path
       d="m 277.88051,89.051926 -63.59375,0 0,-7.1875 28.75,0 0,-13.59375 -24.375,0 0,-7.1875 24.375,0 0,-31.09375 7.1875,0 0,31.09375 24.45312,0 0,7.1875 -24.45312,0 0,13.59375 27.65625,0 z m -56.40625,-32.96875 -4.84375,-5.390625 c 5.52081,-5.624964 8.67185,-12.421832 9.45312,-20.390625 l 0,0 7.1875,0.78125 c -0.46878,3.906297 -1.38024,7.656293 -2.73437,11.25 l 0,0 10.9375,6.5625 -3.59375,6.171875 -10.46875,-6.25 c -1.66669,2.708363 -3.64586,5.130236 -5.9375,7.265625 z m 35.54687,0 -4.76562,-5.390625 c 5.46869,-5.624964 8.61973,-12.421832 9.45312,-20.390625 l 0,0 7.1875,0.78125 c -0.46881,3.906297 -1.38027,7.656293 -2.73437,11.25 l 0,0 10.85937,6.5625 -3.59375,6.171875 -10.46875,-6.25 c -1.66672,2.708363 -3.64589,5.130236 -5.9375,7.265625 z m -48.75,9.453125 0,-46.40625 32.8125,0 0,-6.40625 7.1875,0 0,6.40625 30,0 0,7.1875 -62.8125,0 0,39.21875 c 0.10416,4.687511 -0.54689,9.27084 -1.95312,13.75 -1.45835,4.010415 -3.33334,7.786453 -5.625,11.328125 l 0,0 -6.01563,-3.984375 c 2.13542,-3.072919 3.77604,-6.406249 4.92188,-10 1.14582,-3.593742 1.64062,-7.291654 1.48437,-11.09375 z"
       id="path3907" />
  </g>
  <g
     id="text3640-7"
     style="font-size:80px;font-style:normal;font-weight:normal;text-align:center;text-anchor:middle;fill:#ffffff;fill-opacity:1;stroke:none;font-family:GD-HighwayGothicJA-TTF;-inkscape-font-specification:GD-HighwayGothicJA-TTF">
    <path
       d="m 86.786758,323.06757 7.34375,0 0,5.85937 12.343752,0 0,7.57813 -11.484377,0 c 2.395807,3.1771 5.494767,5.44272 9.296877,6.79687 l 0,0 -2.03125,7.03125 c -3.020863,-0.83332 -5.729194,-2.29165 -8.125002,-4.375 l 0,0 0,22.10938 -7.34375,0 0,-17.57813 c -3.281262,3.75001 -6.770842,7.31771 -10.46875,10.70313 l 0,0 -5,-5.23438 c 4.531245,-4.21874 8.723949,-8.77603 12.578125,-13.67187 1.406236,-1.61457 2.369777,-3.43748 2.890625,-5.46875 l 0,0 0,-0.3125 -12.34375,0 0,-7.57813 12.34375,0 z m 0,-32.34375 7.34375,0 0,7.26562 12.343752,0 0,7.57813 -4.21875,0 0,9.0625 4.21875,0 0,7.57812 -32.031252,0 0,-7.57812 3.90625,0 0,-9.0625 -3.90625,0 0,-7.57813 12.34375,0 z m 29.375002,7.8125 c 4.11453,-0.052 8.17703,-0.62494 12.1875,-1.71875 5.20827,-1.45827 10.23431,-3.48952 15.07812,-6.09375 l 0,0 3.67188,6.48437 c -8.43757,4.68756 -17.44798,7.47401 -27.03125,8.35938 l 0,0 c -0.0521,2.70838 -0.0521,5.44275 0,8.20312 l 0,0 29.375,0 0,7.57813 -7.34375,0 0,46.71875 -7.34375,0 0,-46.71875 -14.6875,0 0,24.84375 c 0.31245,7.65625 -1.84901,14.375 -6.48438,20.15625 l 0,0 -5.85937,-4.45313 c 3.43746,-4.58333 5.026,-9.8177 4.76562,-15.70312 l 0,0 0,-47.65625 z m -30.234377,16.09375 9.0625,0 0,-9.0625 -9.0625,0 z"
       id="path3900" />
    <path
       d="m 216.63051,367.05194 -7.1875,0 0,-24.6875 c -0.88543,1.09377 -1.82293,2.08335 -2.8125,2.96875 l 0,0 -4.76563,-5.46875 c 3.48958,-3.43748 6.19791,-7.44789 8.125,-12.03125 2.23958,-4.99996 3.67187,-10.23433 4.29688,-15.70312 l 0,0 7.1875,0.625 c -0.72919,6.19795 -2.34377,12.10941 -4.84375,17.73437 l 0,0 z m 8.4375,-53.125 51.5625,0 0,7.1875 -22.96875,0 -11.64063,6.79688 34.60938,0 0,39.14062 -51.5625,0 0,-37.57812 14.21875,-8.35938 -14.21875,0 z m -20.78125,-16.79687 32.73437,0 0,-6.40625 7.26563,0 0,6.40625 32.34375,0 0,13.20312 -7.1875,0 0,-6.01562 -57.96875,0 0,7.1875 -7.1875,0 z m 65.15625,37.96875 -37.1875,0 0,8.82812 37.1875,0 z m -37.1875,24.76562 37.1875,0 0,-8.75 -37.1875,0 z"
       id="path3902" />
  </g>
  <g
     id="text3680"
     style="font-size:36px;font-style:normal;font-weight:normal;text-align:center;text-anchor:middle;fill:#ffffff;fill-opacity:1;stroke:none;font-family:GD-HighwayGothicJA-TTF;-inkscape-font-specification:GD-HighwayGothicJA-TTF">
    <path
       d="m 138.59468,111.07084 10.96875,0 0,17.71875 -4.07812,0 -0.38672,-3.375 c -1.59377,2.83593 -4.00783,4.30078 -7.24219,4.39453 l 0,0 c -3.98439,-0.0703 -6.9961,-1.80469 -9.03516,-5.20312 -1.03125,-1.75781 -1.76953,-3.64453 -2.21484,-5.66016 -0.49219,-2.24999 -0.72656,-4.53515 -0.70313,-6.85547 l 0,0 c -0.0234,-2.17967 0.19922,-4.33592 0.66797,-6.46875 0.46875,-2.13279 1.26562,-4.14841 2.39063,-6.046875 2.17968,-3.46872 5.30858,-5.23825 9.38672,-5.308594 l 0,0 c 3.04685,-0.07028 5.69529,0.914094 7.94531,2.953125 2.10935,2.343777 3.10544,5.097684 2.98828,8.261724 l 0,0 -5.09766,0 c -2e-5,-3.91404 -1.94533,-5.953103 -5.83593,-6.117192 l 0,0 c -2.32033,0.09378 -4.04298,1.171902 -5.16797,3.234372 -0.79689,1.45315 -1.33009,2.99416 -1.59961,4.62305 -0.26954,1.62892 -0.39259,3.25197 -0.36914,4.86914 l 0,0 c -0.0234,1.64064 0.0996,3.26954 0.36914,4.88672 0.26952,1.61719 0.80272,3.15235 1.59961,4.60547 1.12499,2.0625 2.84764,3.12891 5.16797,3.19922 l 0,0 c 1.21873,0.0703 2.36131,-0.2168 3.42773,-0.86133 1.06639,-0.64453 1.82811,-1.54687 2.28516,-2.70703 0.45701,-1.16015 0.6738,-2.34961 0.65039,-3.56836 l 0,0 0,-2.00391 -6.11719,0 z"
       id="path3889"
       style="fill:#ffffff" />
    <path
       d="m 157.78999,100.91068 0,-5.624997 -4.8164,0 0,5.624997 z m -4.8164,27.87891 4.8164,0 0,-23.30859 -4.8164,0 z"
       id="path3891"
       style="fill:#ffffff" />
    <path
       d="m 171.92281,104.70756 c -1.19533,0.0703 -2.25587,0.44533 -3.18164,1.125 -0.92579,0.6797 -1.69337,1.50002 -2.30274,2.46094 l 0,0 -0.10547,-2.8125 -4.57031,0 0,23.30859 4.81641,0 0,-14.41406 c -0.0469,-1.26562 0.32811,-2.41405 1.125,-3.44532 0.79686,-1.03123 1.86327,-1.58201 3.19921,-1.65234 l 0,0 c 1.0078,0.0235 1.77538,0.43361 2.30274,1.23047 0.52733,0.79689 0.77928,1.66408 0.75586,2.60156 l 0,0 0,15.67969 4.8164,0 0,-16.17188 c 0.0234,-1.31248 -0.19923,-2.6074 -0.66796,-3.88476 -0.46877,-1.27733 -1.27737,-2.27928 -2.42579,-3.00586 -1.14845,-0.72654 -2.40235,-1.06639 -3.76171,-1.01953 z"
       id="path3893"
       style="fill:#ffffff" />
    <path
       d="m 197.93843,105.481 -15.50391,0 0,4.07812 10.16016,0 -10.6875,15.22266 0,4.00781 16.03125,0 0,-4.00781 -10.6875,0 10.6875,-15.22266 z"
       id="path3895"
       style="fill:#ffffff" />
    <path
       d="m 219.17281,128.78959 c -0.93752,-1.52344 -1.3594,-3.19922 -1.26563,-5.02734 l 0,0 c -0.0235,-1.92188 -0.0235,-3.84375 0,-5.76563 -0.0235,-2.29686 -0.0235,-4.60546 0,-6.92578 l 0,0 c 0.0234,-1.92186 -0.70314,-3.49217 -2.17969,-4.71094 -1.8047,-1.17185 -3.78517,-1.72263 -5.9414,-1.65234 l 0,0 c -5.34376,0.16408 -8.14454,2.88283 -8.40235,8.15625 l 0,0 4.81641,0 c -0.16407,-2.57811 1.03124,-3.93749 3.58594,-4.07813 l 0,0 c 2.06248,-0.0937 3.16405,0.84377 3.30468,2.8125 l 0,0 c -0.0703,1.21877 -0.65626,2.01564 -1.75781,2.39063 -1.10157,0.37501 -2.13282,0.66798 -3.09375,0.8789 l 0,0 c -1.28907,0.28126 -2.51368,0.7383 -3.67383,1.3711 -1.16016,0.63282 -2.12109,1.49415 -2.88281,2.58398 -0.76172,1.08985 -1.11914,2.30274 -1.07226,3.63867 l 0,0 c -0.14063,1.87501 0.3164,3.57422 1.37109,5.09766 1.40625,1.47656 3.15234,2.14453 5.23828,2.00391 l 0,0 c 2.62499,-0.0938 4.69921,-1.23047 6.22266,-3.41016 l 0,0 0.38672,2.63672 z m -10.40625,-3.51563 c -2.13282,0.21094 -3.23439,-0.72656 -3.30469,-2.8125 l 0,0 c -0.0938,-1.0078 0.19335,-1.84569 0.86133,-2.51367 0.66796,-0.66796 1.48241,-1.09569 2.44336,-1.2832 l 0,0 c 0.74999,-0.23437 1.49998,-0.4746 2.25,-0.7207 0.74998,-0.24609 1.44139,-0.65039 2.07421,-1.21289 l 0,0 c -0.0234,1.42969 -0.0234,2.83594 0,4.21875 l 0,0 c -0.23438,2.67187 -1.67579,4.11328 -4.32421,4.32421 z"
       id="path3897"
       style="fill:#ffffff" />
  </g>
  <g
     id="text3680-8"
     style="font-size:36px;font-style:normal;font-weight:normal;text-align:center;text-anchor:middle;fill:#ffffff;fill-opacity:1;stroke:none;font-family:GD-HighwayGothicJA-TTF;-inkscape-font-specification:GD-HighwayGothicJA-TTF">
    <path
       d="m 123.93452,235.28568 0,13.5 -10.93359,0 0,-13.5 -5.09766,0 0,33.5039 5.09766,0 0,-14.9414 10.93359,0 0,14.9414 5.0625,0 0,-33.5039 z"
       id="path3876"
       style="fill:#ffffff" />
    <path
       d="m 142.46187,269.56302 c 2.62498,-0.0703 4.85154,-1.06641 6.67969,-2.98828 2.27341,-2.69531 3.36326,-5.83593 3.26953,-9.42188 l 0,0 c 0.0937,-3.58592 -0.99612,-6.73826 -3.26953,-9.45703 -1.82815,-1.89842 -4.05471,-2.89451 -6.67969,-2.98828 l 0,0 c -2.64845,0.0938 -4.87501,1.08986 -6.67969,2.98828 -2.29688,2.71877 -3.375,5.87111 -3.23437,9.45703 l 0,0 c -0.14063,3.58595 0.93749,6.72657 3.23437,9.42188 1.80468,1.92187 4.03124,2.91796 6.67969,2.98828 z m 0,-4.28906 c -1.59376,-0.0469 -2.77735,-0.76172 -3.55078,-2.14453 -0.93751,-1.875 -1.35938,-3.86719 -1.26563,-5.97657 l 0,0 c -0.0937,-2.08592 0.32812,-4.06639 1.26563,-5.9414 0.77343,-1.3828 1.95702,-2.10936 3.55078,-2.17969 l 0,0 c 1.59374,0.0703 2.76561,0.79689 3.51562,2.17969 0.93749,1.87501 1.37108,3.85548 1.30078,5.9414 l 0,0 c 0.0703,2.10938 -0.36329,4.10157 -1.30078,5.97657 -0.75001,1.38281 -1.92188,2.09765 -3.51562,2.14453 z"
       id="path3878"
       style="fill:#ffffff" />
    <path
       d="m 165.59468,244.70755 c -1.19532,0.0703 -2.25587,0.44533 -3.18164,1.125 -0.92579,0.67971 -1.69337,1.50002 -2.30273,2.46094 l 0,0 -0.10547,-2.8125 -4.57032,0 0,23.30859 4.81641,0 0,-14.41406 c -0.0469,-1.26561 0.32812,-2.41405 1.125,-3.44531 0.79687,-1.03124 1.86327,-1.58202 3.19922,-1.65235 l 0,0 c 1.0078,0.0235 1.77538,0.43361 2.30273,1.23047 0.52733,0.79689 0.77929,1.66408 0.75586,2.60156 l 0,0 0,15.67969 4.81641,0 0,-16.17187 c 0.0234,-1.31249 -0.19924,-2.60741 -0.66797,-3.88477 -0.46877,-1.27732 -1.27736,-2.27928 -2.42578,-3.00586 -1.14845,-0.72654 -2.40236,-1.06638 -3.76172,-1.01953 z"
       id="path3880"
       style="fill:#ffffff" />
    <path
       d="m 185.24702,265.27396 c -1.59376,-0.0234 -2.74219,-0.73828 -3.44531,-2.14453 -0.84375,-1.89844 -1.21875,-3.89062 -1.125,-5.97657 l 0,0 c -0.0937,-2.06249 0.28125,-4.04295 1.125,-5.9414 0.70312,-1.40624 1.85155,-2.1328 3.44531,-2.17969 l 0,0 c 2.5078,0.16408 3.78515,1.52345 3.83204,4.07812 l 0,0 4.8164,0 c -0.0235,-2.15623 -0.75002,-4.05467 -2.17969,-5.69531 -1.75782,-1.85154 -3.91407,-2.75388 -6.46875,-2.70703 l 0,0 c -2.57813,0.11721 -4.73438,1.1133 -6.46875,2.98828 -2.27344,2.7422 -3.33984,5.89454 -3.19921,9.45703 l 0,0 c -0.14063,3.58595 0.92577,6.72657 3.19921,9.42188 1.73437,1.89843 3.89062,2.89453 6.46875,2.98828 l 0,0 c 2.55468,0.0703 4.71093,-0.82032 6.46875,-2.67188 1.42967,-1.59375 2.15623,-3.49218 2.17969,-5.69531 l 0,0 -4.8164,0 c -0.0469,2.57813 -1.32424,3.9375 -3.83204,4.07813 z"
       id="path3882"
       style="fill:#ffffff" />
    <path
       d="m 207.21968,244.70755 c -1.17189,0.0703 -2.20313,0.43361 -3.09375,1.08984 -0.89063,0.65627 -1.64063,1.44143 -2.25,2.35547 l 0,0 0,-12.86718 -4.81641,0 0,33.5039 4.81641,0 0,-14.41406 c -0.0469,-1.26561 0.32812,-2.41405 1.125,-3.44531 0.79687,-1.03124 1.86327,-1.58202 3.19922,-1.65235 l 0,0 c 1.0078,0.0235 1.77538,0.43361 2.30273,1.23047 0.52733,0.79689 0.77929,1.66408 0.75586,2.60156 l 0,0 0,15.67969 4.81641,0 0,-16.17187 c 0.0234,-1.31249 -0.19924,-2.60741 -0.66797,-3.88477 -0.46877,-1.27732 -1.27736,-2.27928 -2.42578,-3.00586 -1.14845,-0.72654 -2.40236,-1.06638 -3.76172,-1.01953 z"
       id="path3884"
       style="fill:#ffffff" />
    <path
       d="m 227.11812,269.56302 c 2.62498,-0.0703 4.85154,-1.06641 6.67969,-2.98828 2.27341,-2.69531 3.36326,-5.83593 3.26953,-9.42188 l 0,0 c 0.0937,-3.58592 -0.99612,-6.73826 -3.26953,-9.45703 -1.82815,-1.89842 -4.05471,-2.89451 -6.67969,-2.98828 l 0,0 c -2.64845,0.0938 -4.87501,1.08986 -6.67969,2.98828 -2.29688,2.71877 -3.375,5.87111 -3.23437,9.45703 l 0,0 c -0.14063,3.58595 0.93749,6.72657 3.23437,9.42188 1.80468,1.92187 4.03124,2.91796 6.67969,2.98828 z m 0,-4.28906 c -1.59376,-0.0469 -2.77735,-0.76172 -3.55078,-2.14453 -0.93751,-1.875 -1.35938,-3.86719 -1.26563,-5.97657 l 0,0 c -0.0937,-2.08592 0.32812,-4.06639 1.26563,-5.9414 0.77343,-1.3828 1.95702,-2.10936 3.55078,-2.17969 l 0,0 c 1.59374,0.0703 2.76561,0.79689 3.51562,2.17969 0.93749,1.87501 1.37108,3.85548 1.30078,5.9414 l 0,0 c 0.0703,2.10938 -0.36329,4.10157 -1.30078,5.97657 -0.75001,1.38281 -1.92188,2.09765 -3.51562,2.14453 z"
       id="path3886"
       style="fill:#ffffff" />
  </g>
  <g
     id="text3680-6"
     style="font-size:36px;font-style:normal;font-weight:normal;text-align:center;text-anchor:middle;fill:#ffffff;fill-opacity:1;stroke:none;font-family:GD-HighwayGothicJA-TTF;-inkscape-font-specification:GD-HighwayGothicJA-TTF">
    <path
       d="m 101.25874,379.96927 c -0.0234,-2.46091 0.72656,-4.65232 2.25,-6.57422 1.96875,-2.15622 4.4414,-3.19919 7.41797,-3.12891 l 0,0 c 6.8203,0.0704 10.20701,3.55081 10.16016,10.44141 l 0,0 -5.0625,0 c 0.0234,-3.46873 -1.6758,-5.24997 -5.09766,-5.34375 l 0,0 c -2.92969,0.18753 -4.45313,1.72268 -4.57031,4.60547 l 0,0 c 0.0234,2.13283 1.07812,3.52736 3.16406,4.18359 l 0,0 6.60938,2.8125 c 1.75779,0.60939 3.15818,1.66994 4.20117,3.18164 1.04295,1.51173 1.55271,3.19337 1.5293,5.04493 l 0,0 c 0.0234,2.85937 -0.89065,5.35547 -2.74219,7.48828 -2.10939,2.13281 -4.6758,3.17577 -7.69922,3.1289 l 0,0 c -2.97657,0.16406 -5.57813,-0.71484 -7.80469,-2.63672 -1.10156,-1.10156 -1.86328,-2.4082 -2.28515,-3.91992 -0.42188,-1.51171 -0.60938,-3.04101 -0.5625,-4.58789 l 0,0 5.0625,0 c -0.0703,1.05469 0.0644,2.1211 0.40429,3.19922 0.33984,1.07813 1.01367,1.85742 2.02149,2.33789 1.0078,0.48047 2.06249,0.67383 3.16406,0.58008 l 0,0 c 3.2578,-0.0234 5.05076,-1.6289 5.37891,-4.81641 l 0,0 c 0.0703,-1.05468 -0.24026,-1.92186 -0.93164,-2.60156 -0.69143,-0.67968 -1.49416,-1.17187 -2.40821,-1.47656 l 0,0 -7.10156,-2.91797 c -1.40626,-0.58593 -2.53126,-1.48827 -3.375,-2.70703 -1.21875,-1.92186 -1.79297,-4.01951 -1.72266,-6.29297 z"
       id="path3829"
       style="fill:#ffffff" />
    <path
       d="m 135.6064,380.70755 c -1.17189,0.0703 -2.20314,0.43361 -3.09375,1.08984 -0.89063,0.65627 -1.64063,1.44143 -2.25,2.35547 l 0,0 0,-12.86718 -4.81641,0 0,33.5039 4.81641,0 0,-14.41406 c -0.0469,-1.26561 0.32812,-2.41405 1.125,-3.44531 0.79687,-1.03124 1.86327,-1.58202 3.19922,-1.65235 l 0,0 c 1.0078,0.0235 1.77538,0.43361 2.30273,1.23047 0.52733,0.79689 0.77929,1.66408 0.75586,2.60156 l 0,0 0,15.67969 4.81641,0 0,-16.17187 c 0.0234,-1.31249 -0.19924,-2.60741 -0.66797,-3.88477 -0.46877,-1.27732 -1.27736,-2.27928 -2.42578,-3.00586 -1.14845,-0.72654 -2.40236,-1.06638 -3.76172,-1.01953 z"
       id="path3831"
       style="fill:#ffffff" />
    <path
       d="m 150.93452,376.91068 0,-5.625 -4.8164,0 0,5.625 z m -4.8164,27.8789 4.8164,0 0,-23.30859 -4.8164,0 z"
       id="path3833"
       style="fill:#ffffff" />
    <path
       d="m 165.06734,380.70755 c -1.19533,0.0703 -2.25587,0.44533 -3.18164,1.125 -0.92579,0.67971 -1.69337,1.50002 -2.30274,2.46094 l 0,0 -0.10547,-2.8125 -4.57031,0 0,23.30859 4.81641,0 0,-14.41406 c -0.0469,-1.26561 0.32811,-2.41405 1.125,-3.44531 0.79686,-1.03124 1.86327,-1.58202 3.19922,-1.65235 l 0,0 c 1.0078,0.0235 1.77537,0.43361 2.30273,1.23047 0.52733,0.79689 0.77928,1.66408 0.75586,2.60156 l 0,0 0,15.67969 4.81641,0 0,-16.17187 c 0.0234,-1.31249 -0.19924,-2.60741 -0.66797,-3.88477 -0.46877,-1.27732 -1.27736,-2.27928 -2.42578,-3.00586 -1.14846,-0.72654 -2.40236,-1.06638 -3.76172,-1.01953 z"
       id="path3835"
       style="fill:#ffffff" />
    <path
       d="m 175.57906,407.70755 0,-26.22656 4.8164,0 0,25.94531 c 0,1.19531 -0.12891,2.40234 -0.38672,3.62109 -0.25782,1.21874 -0.90235,2.21484 -1.93359,2.98829 -0.89063,0.44529 -1.82813,0.63279 -2.8125,0.5625 -0.98438,-0.0703 -1.93359,-0.23439 -2.84766,-0.49219 l 0,0 0,-4.32422 c 0.44532,0.14062 0.94922,0.20507 1.51172,0.19336 0.5625,-0.0117 0.99609,-0.2461 1.30078,-0.70313 0.30469,-0.45703 0.42188,-0.97852 0.35157,-1.56445 z m 4.8164,-30.79687 0,-5.625 -4.8164,0 0,5.625 z"
       id="path3837"
       style="fill:#ffffff" />
    <path
       d="m 196.63765,381.48099 0,14.48437 c 0.0234,1.28907 -0.3633,2.44337 -1.16016,3.46289 -0.79688,1.01954 -1.85157,1.55274 -3.16406,1.59961 l 0,0 c -1.03126,0 -1.81055,-0.39843 -2.33789,-1.19531 -0.52735,-0.79687 -0.76758,-1.67578 -0.7207,-2.63672 l 0,0 0,-15.71484 -4.81641,0 0,16.24219 c -0.0937,2.13281 0.46875,4.05468 1.6875,5.76562 1.35937,1.47656 3.07031,2.16797 5.13281,2.07422 l 0,0 c 1.17187,-0.0469 2.21484,-0.41016 3.12891,-1.08984 0.91405,-0.67969 1.6992,-1.50001 2.35547,-2.46094 l 0,0 0.14062,2.77734 4.57032,0 0,-23.30859 z"
       id="path3839"
       style="fill:#ffffff" />
    <path
       d="m 217.80171,404.78958 5.58985,0 -8.22657,-13.78125 7.48828,-9.52734 -5.83593,0 -6.89063,9.8789 0,-20.07421 -4.8164,0 0,33.5039 4.8164,0 0,-7.17187 2.17969,-2.8125 z"
       id="path3841"
       style="fill:#ffffff" />
    <path
       d="m 238.26265,381.48099 0,14.48437 c 0.0234,1.28907 -0.3633,2.44337 -1.16016,3.46289 -0.79688,1.01954 -1.85157,1.55274 -3.16406,1.59961 l 0,0 c -1.03126,0 -1.81055,-0.39843 -2.33789,-1.19531 -0.52735,-0.79687 -0.76758,-1.67578 -0.7207,-2.63672 l 0,0 0,-15.71484 -4.81641,0 0,16.24219 c -0.0937,2.13281 0.46875,4.05468 1.6875,5.76562 1.35937,1.47656 3.07031,2.16797 5.13281,2.07422 l 0,0 c 1.17187,-0.0469 2.21484,-0.41016 3.12891,-1.08984 0.91405,-0.67969 1.6992,-1.50001 2.35547,-2.46094 l 0,0 0.14062,2.77734 4.57032,0 0,-23.30859 z"
       id="path3843"
       style="fill:#ffffff" />
  </g>
  <g
     id="text3720"
     style="font-size:40px;font-style:normal;font-weight:normal;text-align:center;text-anchor:middle;fill:#ffffff;fill-opacity:1;stroke:none;font-family:GD-HighwayGothicJA-TTF;-inkscape-font-specification:GD-HighwayGothicJA-TTF">
    <path
       d="m 336.44873,18.601768 0,2.890625 c -0.31253,3.020895 -1.38023,5.742246 -3.20312,8.164063 -1.82294,2.421928 -4.32294,3.658906 -7.5,3.710937 l 0,0 -4.53125,0 0,9.0625 14.14062,0 0,49.53125 11.25,0 0,-73.359375 z"
       id="path3871"
       style="font-size:80px;fill:#ffffff" />
    <path
       d="m 390.74561,18.054893 c -8.28127,0.156318 -14.37502,3.906314 -18.28125,11.25 -2.03126,3.802136 -3.43751,7.864632 -4.21875,12.1875 -0.93751,5.00004 -1.35417,10.026076 -1.25,15.078125 l 0,0 c -0.10417,4.583358 0.23437,9.153666 1.01562,13.710938 0.78125,4.557302 2.26562,8.867194 4.45313,12.929687 4.0104,6.979163 10.10414,10.468742 18.28125,10.46875 l 0,0 c 8.07288,-8e-6 14.14058,-3.489587 18.20312,-10.46875 2.13537,-4.062493 3.5937,-8.372385 4.375,-12.929687 0.7812,-4.557272 1.17182,-9.12758 1.17188,-13.710938 l 0,0 c -6e-5,-5.052049 -0.4688,-10.078085 -1.40625,-15.078125 -0.7813,-4.322868 -2.16151,-8.385364 -4.14063,-12.1875 -3.95837,-7.343686 -10.02608,-11.093682 -18.20312,-11.25 z m -11.875,38.515625 c -0.31252,-7.13538 0.65102,-14.062456 2.89062,-20.78125 1.56248,-4.218696 4.55727,-6.536402 8.98438,-6.953125 l 0,0 c 4.37496,0.416723 7.31767,2.734429 8.82812,6.953125 2.29163,6.718794 3.30725,13.64587 3.04688,20.78125 l 0,0 c -4e-5,3.437526 -0.18234,6.862002 -0.54688,10.273438 -0.36462,3.411474 -1.19795,6.731783 -2.5,9.960937 -1.61462,4.010422 -4.55732,6.093753 -8.82812,6.25 l 0,0 c -4.32294,-0.156247 -7.31773,-2.239578 -8.98438,-6.25 -1.3021,-3.229154 -2.12241,-6.549463 -2.46094,-9.960937 -0.33855,-3.411436 -0.48178,-6.835912 -0.42968,-10.273438 z"
       id="path3873"
       style="font-size:80px;fill:#ffffff" />
  </g>
  <g
     id="text3720-4"
     style="font-size:40px;font-style:normal;font-weight:normal;text-align:center;text-anchor:middle;fill:#ffffff;fill-opacity:1;stroke:none;font-family:GD-HighwayGothicJA-TTF;-inkscape-font-specification:GD-HighwayGothicJA-TTF">
    <path
       d="m 336.44873,158.60178 0,2.89062 c -0.31253,3.0209 -1.38023,5.74225 -3.20312,8.16406 -1.82294,2.42193 -4.32294,3.65891 -7.5,3.71094 l 0,0 -4.53125,0 0,9.0625 14.14062,0 0,49.53125 11.25,0 0,-73.35937 z"
       id="path3866"
       style="font-size:80px;fill:#ffffff" />
    <path
       d="m 411.68311,182.4299 c 0.052,-3.54162 -0.41672,-7.01818 -1.40625,-10.42969 -0.98963,-3.4114 -2.78651,-6.39317 -5.39063,-8.94531 -4.27087,-3.48952 -9.19274,-5.15618 -14.76562,-5 l 0,0 c -5.41669,-0.052 -10.07815,1.7709 -13.98438,5.46875 -2.39584,2.50006 -4.07553,5.41672 -5.03906,8.75 -0.96355,3.33338 -1.39324,6.7188 -1.28906,10.15625 l 0,0 c -10e-6,0.57296 -10e-6,1.11983 0,1.64063 l 0,0 11.32812,0 c -2e-5,-0.5208 -2e-5,-1.06767 0,-1.64063 l 0,0 c -2e-5,-1.92704 0.18227,-3.91922 0.54688,-5.97656 0.36456,-2.05724 1.31508,-3.77599 2.85156,-5.15625 1.53643,-1.38015 3.39841,-1.99213 5.58594,-1.83594 l 0,0 c 2.13538,-0.10411 4.03642,0.50787 5.70312,1.83594 1.66663,1.32818 2.73434,3.02088 3.20313,5.07812 0.46871,2.05734 0.70308,4.07557 0.70312,6.05469 l 0,0 c -0.1042,3.12504 -0.98962,5.93754 -2.65625,8.4375 -1.6667,2.50003 -3.58076,4.77868 -5.74219,6.83594 -2.16148,2.05732 -4.33596,4.12763 -6.52343,6.21094 -4.01044,3.4896 -7.44793,7.44793 -10.3125,11.875 -3.1771,5 -4.73959,10.39062 -4.6875,16.17187 l 0,0 41.875,0 0,-11.17187 -27.73438,0 c 2.39581,-3.125 5.10414,-6.01562 8.125,-8.67188 3.0208,-2.65623 5.98955,-5.33852 8.90625,-8.04687 3.02079,-2.81248 5.54683,-6.05466 7.57813,-9.72657 2.0312,-3.67184 3.07286,-7.64319 3.125,-11.91406 z"
       id="path3868"
       style="font-size:80px;fill:#ffffff" />
  </g>
  <g
     id="text3720-4-3"
     style="font-size:40px;font-style:normal;font-weight:normal;text-align:center;text-anchor:middle;fill:#ffffff;fill-opacity:1;stroke:none;font-family:GD-HighwayGothicJA-TTF;-inkscape-font-specification:GD-HighwayGothicJA-TTF">
    <path
       d="m 358.55811,320.4299 c 0.052,-3.54162 -0.41672,-7.01818 -1.40625,-10.42969 -0.98963,-3.4114 -2.78651,-6.39317 -5.39063,-8.94531 -4.27087,-3.48952 -9.19274,-5.15618 -14.76562,-5 l 0,0 c -5.41669,-0.052 -10.07815,1.7709 -13.98438,5.46875 -2.39584,2.50006 -4.07553,5.41672 -5.03906,8.75 -0.96355,3.33338 -1.39324,6.7188 -1.28906,10.15625 l 0,0 c -10e-6,0.57296 -10e-6,1.11983 0,1.64063 l 0,0 11.32812,0 c -2e-5,-0.5208 -2e-5,-1.06767 0,-1.64063 l 0,0 c -2e-5,-1.92704 0.18227,-3.91922 0.54688,-5.97656 0.36456,-2.05724 1.31508,-3.77599 2.85156,-5.15625 1.53643,-1.38015 3.39841,-1.99213 5.58594,-1.83594 l 0,0 c 2.13538,-0.10411 4.03642,0.50787 5.70312,1.83594 1.66663,1.32818 2.73434,3.02088 3.20313,5.07812 0.46871,2.05734 0.70308,4.07557 0.70312,6.05469 l 0,0 c -0.1042,3.12504 -0.98962,5.93754 -2.65625,8.4375 -1.6667,2.50003 -3.58076,4.77868 -5.74219,6.83594 -2.16148,2.05732 -4.33596,4.12763 -6.52343,6.21094 -4.01044,3.4896 -7.44793,7.44793 -10.3125,11.875 -3.1771,5 -4.73959,10.39062 -4.6875,16.17187 l 0,0 41.875,0 0,-11.17187 -27.73438,0 c 2.39581,-3.125 5.10414,-6.01562 8.125,-8.67188 3.0208,-2.65623 5.98955,-5.33852 8.90625,-8.04687 3.02079,-2.81248 5.54683,-6.05466 7.57813,-9.72657 2.0312,-3.67184 3.07286,-7.64319 3.125,-11.91406 z"
       id="path3861"
       style="font-size:80px;fill:#ffffff" />
    <path
       d="m 400.04248,331.75803 c 7.03121,-2.60414 10.54683,-7.7083 10.54688,-15.3125 l 0,0 c 0.20828,-6.4062 -2.05734,-11.69265 -6.79688,-15.85938 -4.37504,-3.12493 -9.29691,-4.63535 -14.76562,-4.53125 l 0,0 c -5.36461,7e-5 -9.94794,1.84903 -13.75,5.54688 -4.32293,5.26047 -6.32813,11.32817 -6.01563,18.20312 l 0,0 11.32813,0 c -0.31252,-2.86454 0.16925,-5.70307 1.44531,-8.51562 1.27602,-2.81245 3.60675,-4.29682 6.99219,-4.45313 l 0,0 c 6.66663,0.36464 9.86975,3.95839 9.60937,10.78125 l 0,0 c -0.46878,6.87504 -4.21878,10.26045 -11.25,10.15625 l 0,0 0,9.60938 c 0.52081,2e-5 1.06768,2e-5 1.64063,0 l 0,0 c 7.23955,0.31252 11.01558,4.06252 11.32812,11.25 l 0,0 c 0.15621,3.12501 -0.67712,5.97657 -2.5,8.55468 -1.82295,2.57813 -4.40107,3.86719 -7.73437,3.86719 l 0,0 c -2.23961,0.15625 -4.20576,-0.40364 -5.89844,-1.67969 -1.69273,-1.27603 -2.83856,-2.95572 -3.4375,-5.03906 -0.59898,-2.08332 -0.87241,-4.16665 -0.82031,-6.25 l 0,0 -11.25,0 c -0.10418,3.54168 0.33853,7.01824 1.32812,10.42969 0.98958,3.41146 2.83853,6.34114 5.54688,8.78906 4.27081,3.17708 9.11456,4.63541 14.53125,4.375 l 0,0 c 5.67705,-10e-6 10.70308,-1.84896 15.07812,-5.54687 4.79162,-4.58334 7.13537,-10.23437 7.03125,-16.95313 l 0,0 c 0.052,-8.74998 -4.01046,-14.55726 -12.1875,-17.42187 z"
       id="path3863"
       style="font-size:80px;fill:#ffffff" />
  </g>
  <g
     id="text3788"
     style="font-size:40px;font-style:normal;font-weight:normal;text-align:center;text-anchor:middle;fill:#ffffff;fill-opacity:1;stroke:none;font-family:GD-HighwayGothicJA-TTF;-inkscape-font-specification:GD-HighwayGothicJA-TTF">
    <path
       d="m 439.61743,93.076004 6.21094,0 -9.14063,-15.3125 8.32032,-10.585937 -6.48438,0 -7.65625,10.976562 0,-22.304687 -5.35156,0 0,37.226562 5.35156,0 0,-7.96875 2.42188,-3.125 z"
       id="path3856" />
    <path
       d="m 473.36743,66.318192 c -1.4844,0.10419 -2.77346,0.605491 -3.86719,1.503906 -1.09377,0.898458 -1.96616,1.946634 -2.61718,3.144531 l 0,0 c -1.14586,-3.15102 -3.41148,-4.700497 -6.79688,-4.648437 l 0,0 c -1.32814,0.07815 -2.50652,0.494814 -3.53515,1.25 -1.02866,0.755229 -1.88152,1.666687 -2.5586,2.734375 l 0,0 -0.11719,-3.125 -5.07812,0 0,25.898437 5.35156,0 0,-16.015625 c -0.0521,-1.406236 0.36458,-2.682276 1.25,-3.828125 0.88541,-1.145816 2.0703,-1.757794 3.55469,-1.835937 l 0,0 c 1.11978,0.02606 1.93358,0.494809 2.44141,1.40625 0.50779,0.911474 0.73566,1.861994 0.68359,2.851562 l 0,0 0,17.421875 5.35156,0 0,-16.015625 c -0.0521,-1.406236 0.36456,-2.682276 1.25,-3.828125 0.8854,-1.145816 2.07029,-1.757794 3.55469,-1.835937 l 0,0 c 1.11976,0.02606 1.93357,0.488299 2.44141,1.386718 0.50778,0.898454 0.73564,1.855484 0.68359,2.871094 l 0,0 0,17.421875 5.35156,0 0,-17.96875 c 0.10413,-2.317691 -0.4818,-4.440085 -1.75781,-6.367187 -1.48441,-1.692686 -3.34638,-2.499977 -5.58594,-2.421875 z"
       id="path3858" />
  </g>
  <g
     id="text3788-3"
     style="font-size:40px;font-style:normal;font-weight:normal;text-align:center;text-anchor:middle;fill:#ffffff;fill-opacity:1;stroke:none;font-family:GD-HighwayGothicJA-TTF;-inkscape-font-specification:GD-HighwayGothicJA-TTF">
    <path
       d="m 439.61743,233.076 6.21094,0 -9.14063,-15.3125 8.32032,-10.58593 -6.48438,0 -7.65625,10.97656 0,-22.30469 -5.35156,0 0,37.22656 5.35156,0 0,-7.96875 2.42188,-3.125 z"
       id="path3851" />
    <path
       d="m 473.36743,206.31819 c -1.4844,0.10419 -2.77346,0.60549 -3.86719,1.50391 -1.09377,0.89846 -1.96616,1.94663 -2.61718,3.14453 l 0,0 c -1.14586,-3.15102 -3.41148,-4.7005 -6.79688,-4.64844 l 0,0 c -1.32814,0.0782 -2.50652,0.49482 -3.53515,1.25 -1.02866,0.75523 -1.88152,1.66669 -2.5586,2.73438 l 0,0 -0.11719,-3.125 -5.07812,0 0,25.89843 5.35156,0 0,-16.01562 c -0.0521,-1.40624 0.36458,-2.68228 1.25,-3.82813 0.88541,-1.14581 2.0703,-1.75779 3.55469,-1.83593 l 0,0 c 1.11978,0.0261 1.93358,0.49481 2.44141,1.40625 0.50779,0.91147 0.73566,1.86199 0.68359,2.85156 l 0,0 0,17.42187 5.35156,0 0,-16.01562 c -0.0521,-1.40624 0.36456,-2.68228 1.25,-3.82813 0.8854,-1.14581 2.07029,-1.75779 3.55469,-1.83593 l 0,0 c 1.11976,0.0261 1.93357,0.4883 2.44141,1.38672 0.50778,0.89845 0.73564,1.85548 0.68359,2.87109 l 0,0 0,17.42187 5.35156,0 0,-17.96875 c 0.10413,-2.31769 -0.4818,-4.44008 -1.75781,-6.36718 -1.48441,-1.69269 -3.34638,-2.49998 -5.58594,-2.42188 z"
       id="path3853" />
  </g>
  <g
     id="text3788-4"
     style="font-size:40px;font-style:normal;font-weight:normal;text-align:center;text-anchor:middle;fill:#ffffff;fill-opacity:1;stroke:none;font-family:GD-HighwayGothicJA-TTF;-inkscape-font-specification:GD-HighwayGothicJA-TTF">
    <path
       d="m 439.61743,371.07599 6.21094,0 -9.14063,-15.3125 8.32032,-10.58594 -6.48438,0 -7.65625,10.97656 0,-22.30468 -5.35156,0 0,37.22656 5.35156,0 0,-7.96875 2.42188,-3.125 z"
       id="path3846" />
    <path
       d="m 473.36743,344.31818 c -1.4844,0.10419 -2.77346,0.60549 -3.86719,1.5039 -1.09377,0.89846 -1.96616,1.94664 -2.61718,3.14453 l 0,0 c -1.14586,-3.15102 -3.41148,-4.70049 -6.79688,-4.64843 l 0,0 c -1.32814,0.0781 -2.50652,0.49481 -3.53515,1.25 -1.02866,0.75523 -1.88152,1.66668 -2.5586,2.73437 l 0,0 -0.11719,-3.125 -5.07812,0 0,25.89844 5.35156,0 0,-16.01563 c -0.0521,-1.40623 0.36458,-2.68227 1.25,-3.82812 0.88541,-1.14582 2.0703,-1.7578 3.55469,-1.83594 l 0,0 c 1.11978,0.0261 1.93358,0.49481 2.44141,1.40625 0.50779,0.91148 0.73566,1.862 0.68359,2.85156 l 0,0 0,17.42188 5.35156,0 0,-16.01563 c -0.0521,-1.40623 0.36456,-2.68227 1.25,-3.82812 0.8854,-1.14582 2.07029,-1.7578 3.55469,-1.83594 l 0,0 c 1.11976,0.0261 1.93357,0.4883 2.44141,1.38672 0.50778,0.89845 0.73564,1.85548 0.68359,2.87109 l 0,0 0,17.42188 5.35156,0 0,-17.96875 c 0.10413,-2.31769 -0.4818,-4.44009 -1.75781,-6.36719 -1.48441,-1.69268 -3.34638,-2.49998 -5.58594,-2.42187 z"
       id="path3848" />
  </g>
</svg>
