<?xml version="1.0" encoding="UTF-8" standalone="no"?>
<!-- Created with Inkscape (http://www.inkscape.org/) -->
<svg
   xmlns:dc="http://purl.org/dc/elements/1.1/"
   xmlns:cc="http://creativecommons.org/ns#"
   xmlns:rdf="http://www.w3.org/1999/02/22-rdf-syntax-ns#"
   xmlns:svg="http://www.w3.org/2000/svg"
   xmlns="http://www.w3.org/2000/svg"
   xmlns:sodipodi="http://sodipodi.sourceforge.net/DTD/sodipodi-0.dtd"
   xmlns:inkscape="http://www.inkscape.org/namespaces/inkscape"
   width="480"
   height="480"
   id="svg4203"
   sodipodi:version="0.32"
   inkscape:version="0.46"
   version="1.0"
   sodipodi:docbase="D:\Documents and Settings\Administrator\デスクトップ\看板\sign\西日本\svg"
   sodipodi:docname="Japanese Road sign (Notice of entrance).svg"
   inkscape:output_extension="org.inkscape.output.svg.inkscape">
  <defs
     id="defs4205">
    <inkscape:perspective
       sodipodi:type="inkscape:persp3d"
       inkscape:vp_x="0 : 315 : 1"
       inkscape:vp_y="0 : 1000 : 0"
       inkscape:vp_z="1500 : 315 : 1"
       inkscape:persp3d-origin="750 : 210 : 1"
       id="perspective9" />
    <inkscape:perspective
       id="perspective3163"
       inkscape:persp3d-origin="372.04724 : 350.78739 : 1"
       inkscape:vp_z="744.09448 : 526.18109 : 1"
       inkscape:vp_y="0 : 1000 : 0"
       inkscape:vp_x="0 : 526.18109 : 1"
       sodipodi:type="inkscape:persp3d" />
    <inkscape:perspective
       id="perspective2426"
       inkscape:persp3d-origin="372.04724 : 350.78739 : 1"
       inkscape:vp_z="744.09448 : 526.18109 : 1"
       inkscape:vp_y="0 : 1000 : 0"
       inkscape:vp_x="0 : 526.18109 : 1"
       sodipodi:type="inkscape:persp3d" />
  </defs>
  <sodipodi:namedview
     id="base"
     pagecolor="#ffffff"
     bordercolor="#666666"
     borderopacity="1.0"
     gridtolerance="10000"
     guidetolerance="10"
     objecttolerance="10"
     inkscape:pageopacity="0.0"
     inkscape:pageshadow="2"
     inkscape:zoom="1.0583333"
     inkscape:cx="240"
     inkscape:cy="240"
     inkscape:document-units="px"
     inkscape:current-layer="layer1"
     width="1500px"
     height="630px"
     inkscape:window-width="1024"
     inkscape:window-height="712"
     inkscape:window-x="-4"
     inkscape:window-y="-4"
     showgrid="false" />
  <metadata
     id="metadata4208">
    <rdf:RDF>
      <cc:Work
         rdf:about="">
        <dc:format>image/svg+xml</dc:format>
        <dc:type
           rdf:resource="http://purl.org/dc/dcmitype/StillImage" />
      </cc:Work>
    </rdf:RDF>
  </metadata>
  <g
     inkscape:label="sign"
     inkscape:groupmode="layer"
     id="layer1">
    <rect
       style="fill:#005d35;fill-opacity:1;stroke:none;stroke-width:1;stroke-linecap:butt;stroke-linejoin:round;stroke-miterlimit:4;stroke-dasharray:none;stroke-opacity:1"
       id="rect_bg"
       width="480"
       height="480"
       x="0"
       y="-2.259434e-14" />
    <rect
       style="opacity:1;fill:#ffffff;fill-opacity:1;fill-rule:nonzero;stroke:none;stroke-width:0.01;stroke-linecap:butt;stroke-linejoin:miter;marker:none;marker-start:none;marker-mid:none;marker-end:none;stroke-miterlimit:4;stroke-dasharray:none;stroke-dashoffset:0;stroke-opacity:1;visibility:visible;display:inline;overflow:visible;enable-background:accumulate"
       id="rect3169"
       width="472.44095"
       height="245.6693"
       x="3.7795277"
       y="3.7795279" />
    <path
       id="path3202"
       style="font-size:80px;font-style:normal;font-variant:normal;font-weight:normal;font-stretch:normal;text-align:start;line-height:125%;writing-mode:lr-tb;text-anchor:start;fill:#005d35;fill-opacity:1;fill-rule:nonzero;stroke:none;stroke-width:1;stroke-linecap:butt;stroke-linejoin:round;marker:none;marker-start:none;marker-mid:none;marker-end:none;stroke-miterlimit:4;stroke-dashoffset:0;stroke-opacity:1;visibility:visible;display:inline;overflow:visible;enable-background:accumulate;font-family:GD-HighwayGothicJA-OTF;-inkscape-font-specification:GD-HighwayGothicJA-OTF"
       d="M 287.87035,63.084369 L 287.87035,70.124278 L 254.35078,70.124278 L 254.35078,77.72418 L 328.98982,77.72418 L 328.98982,70.124278 L 295.47025,70.124278 L 295.47025,63.084369 L 287.87035,63.084369 z M 264.75064,80.204148 L 264.75064,103.64385 L 318.58995,103.64385 L 318.58995,80.204148 L 264.75064,80.204148 z M 311.23005,87.564054 L 311.23005,96.283941 L 272.43054,96.283941 L 272.43054,87.564054 L 311.23005,87.564054 z M 268.75059,117.64367 L 268.75059,139.32339 L 314.67,139.32339 L 314.67,117.64367 L 268.75059,117.64367 z M 307.3101,124.92357 L 307.3101,131.96348 L 276.0305,131.96348 L 276.0305,124.92357 L 307.3101,124.92357 z M 255.47076,106.68381 L 255.47076,140.76337 L 262.83067,140.76337 L 262.83067,113.96371 L 320.58992,113.96371 L 320.58992,140.76337 L 327.86983,140.76337 L 327.86983,106.68381 L 255.47076,106.68381 z" />
    <path
       id="path3190"
       style="font-size:80px;font-style:normal;font-variant:normal;font-weight:normal;font-stretch:normal;text-align:start;line-height:125%;writing-mode:lr-tb;text-anchor:start;fill:#005d35;fill-opacity:1;fill-rule:nonzero;stroke:none;stroke-width:1;stroke-linecap:butt;stroke-linejoin:round;marker:none;marker-start:none;marker-mid:none;marker-end:none;stroke-miterlimit:4;stroke-dashoffset:0;stroke-opacity:1;visibility:visible;display:inline;overflow:visible;enable-background:accumulate;font-family:GD-HighwayGothicJA-OTF;-inkscape-font-specification:GD-HighwayGothicJA-OTF"
       d="M 376.28364,120.44363 L 376.84364,127.72354 C 377.99324,127.67218 379.87174,127.16157 382.47924,126.1917 C 385.08654,125.22185 387.92504,123.62088 390.99464,121.3888 C 394.06424,119.15675 396.86714,116.12173 399.40344,112.28374 L 399.40344,127.88353 L 407.00334,127.88353 L 407.00334,111.88374 C 409.46394,115.82741 412.23134,118.9444 415.30544,121.23473 C 418.37944,123.52508 421.23564,125.16654 423.87424,126.15911 C 426.51264,127.1517 428.40894,127.67317 429.56304,127.72354 L 430.12304,120.44363 C 429.05794,120.39031 426.80804,119.45699 423.37314,117.64367 C 419.93814,115.83037 416.66814,112.73708 413.56324,108.36379 L 427.00304,108.36379 L 427.00304,83.884101 L 407.00334,83.884101 L 407.00334,77.164187 L 430.36304,77.164187 L 430.36304,69.564285 L 407.00334,69.564285 L 407.00334,63.084369 L 399.40344,63.084369 L 399.40344,69.564285 L 376.04364,69.564285 L 376.04364,77.164187 L 399.40344,77.164187 L 399.40344,83.884101 L 379.40364,83.884101 L 379.40364,108.36379 L 393.00354,108.36379 C 389.92684,112.73708 386.64024,115.83037 383.14364,117.64367 C 379.64694,119.45699 377.36034,120.39031 376.28364,120.44363 L 376.28364,120.44363 z M 419.64314,91.244006 L 419.64314,101.08388 L 407.00334,101.08388 L 407.00334,91.244006 L 419.64314,91.244006 z M 387.00354,101.08388 L 387.00354,91.244006 L 399.40344,91.244006 L 399.40344,101.08388 L 387.00354,101.08388 z M 358.92391,63.324366 L 355.24396,70.124278 C 357.2456,71.735983 359.10224,73.212629 360.81384,74.55422 C 362.52554,75.895927 364.80214,77.512572 367.64384,79.404159 L 370.76374,72.364249 C 370.64044,72.307643 369.40704,71.440988 367.06384,69.764282 C 364.72044,68.0877 362.00724,65.941063 358.92391,63.324366 L 358.92391,63.324366 z M 370.12374,121.24362 L 370.12374,93.483977 L 355.16396,93.483977 L 355.16396,101.08388 L 362.76384,101.08388 L 362.76384,121.24362 C 362.83714,122.50695 362.49054,123.96026 361.72384,125.60356 C 360.95724,127.24688 359.33054,129.18019 356.84394,131.40349 L 353.80398,133.96346 L 355.72395,136.76342 L 358.28392,140.12338 L 361.64384,137.08342 C 363.48384,135.4701 365.00384,133.89679 366.20384,132.36348 C 369.54544,134.88177 372.92204,136.76508 376.33364,138.0134 C 379.74524,139.26171 383.30194,139.88504 387.00354,139.88338 L 432.36304,139.88338 L 432.36304,132.28348 L 387.00354,132.28348 C 384.70524,132.37848 382.14194,132.00848 379.31364,131.17349 C 376.48534,130.33851 373.26204,128.46853 369.64374,125.56356 C 369.96374,124.20359 370.12374,122.76361 370.12374,121.24362 L 370.12374,121.24362 z" />
    <path
       id="path2409"
       style="font-size:80px;font-style:normal;font-variant:normal;font-weight:normal;font-stretch:normal;text-align:start;line-height:125%;writing-mode:lr-tb;text-anchor:start;fill:#005d35;fill-opacity:1;fill-rule:nonzero;stroke:none;stroke-width:1;stroke-linecap:butt;stroke-linejoin:round;marker:none;marker-start:none;marker-mid:none;marker-end:none;stroke-miterlimit:4;stroke-dashoffset:0;stroke-opacity:1;visibility:visible;display:inline;overflow:visible;enable-background:accumulate;font-family:GD-HighwayGothicJA-OTF;-inkscape-font-specification:GD-HighwayGothicJA-OTF"
       d="M 73.098864,64.764332 C 70.188884,70.282655 66.608934,75.345918 62.359004,79.954136 C 58.109044,84.562458 53.369114,88.485737 48.139184,91.723985 L 51.739144,97.723907 C 55.992414,95.243976 59.965684,92.284018 63.658984,88.844022 L 75.258844,102.28385 C 71.370534,106.00883 67.167254,109.47878 62.649004,112.69371 C 58.130714,115.90869 53.347444,118.83865 48.299184,121.4836 L 51.499144,127.88352 C 56.062414,125.51856 60.415684,122.92859 64.558974,120.11362 C 68.702234,117.29867 72.615514,114.28871 76.298824,111.08374 L 76.298824,139.48337 L 121.49824,139.48337 L 121.49824,98.2839 L 88.938664,98.2839 C 93.068564,93.432334 96.748514,88.295738 99.978524,82.874098 C 103.20842,77.452557 105.92838,71.815968 108.13841,65.964316 L 80.538774,65.964316 C 80.622064,65.764385 80.715404,65.564387 80.818764,65.364323 C 80.922064,65.164393 81.015394,64.964396 81.098764,64.764332 L 73.098864,64.764332 z M 76.618824,73.164224 L 97.018564,73.164224 C 94.818534,77.447557 92.338574,81.580833 89.578654,85.564064 C 86.818654,89.547388 83.778694,93.360669 80.458774,97.003917 L 68.858924,83.56409 C 70.297214,81.960828 71.660524,80.287517 72.948874,78.544154 C 74.237154,76.800899 75.460474,75.00759 76.618824,73.164224 L 76.618824,73.164224 z M 83.498734,105.48381 L 114.29833,105.48381 L 114.29833,132.28346 L 83.498734,132.28346 L 83.498734,105.48381 z" />
    <path
       id="path2403"
       style="font-size:80px;font-style:normal;font-variant:normal;font-weight:normal;font-stretch:normal;text-align:start;line-height:125%;writing-mode:lr-tb;text-anchor:start;fill:#005d35;fill-opacity:1;fill-rule:nonzero;stroke:none;stroke-width:1;stroke-linecap:butt;stroke-linejoin:round;marker:none;marker-start:none;marker-mid:none;marker-end:none;stroke-miterlimit:4;stroke-dashoffset:0;stroke-opacity:1;visibility:visible;display:inline;overflow:visible;enable-background:accumulate;font-family:GD-HighwayGothicJA-OTF;-inkscape-font-specification:GD-HighwayGothicJA-OTF"
       d="M 160.92644,63.084353 L 160.92644,76.284184 L 151.00656,76.284184 L 151.00656,83.644089 L 170.52631,83.644089 C 169.56186,86.167064 167.98855,89.218874 165.80637,92.799525 C 163.62416,96.380256 161.01975,99.912059 157.99314,103.39494 C 154.9665,106.87789 151.70433,109.73415 148.2066,111.96372 L 152.12655,118.44364 C 153.64819,117.47533 155.14483,116.37202 156.61649,115.13368 C 158.08813,113.89538 159.52477,112.57207 160.92644,111.16373 L 160.92644,140.68335 L 168.60634,140.68335 L 168.60634,102.04385 C 168.67298,101.95055 168.69965,101.89722 168.68634,101.88385 L 175.64625,106.1238 L 179.5662,99.963879 L 172.76628,95.723933 C 174.74123,92.397347 176.27121,89.350722 177.35622,86.584049 C 178.44118,83.817466 178.99117,81.610831 179.0062,79.964136 L 179.0062,76.284184 L 168.60634,76.284184 L 168.60634,63.084353 L 160.92644,63.084353 z M 198.76595,63.084353 L 198.76595,73.164224 L 181.00618,73.164224 L 181.00618,114.84369 L 198.76595,114.84369 L 198.76595,140.68335 L 206.36585,140.68335 L 206.36585,114.84369 L 224.20562,114.84369 L 224.20562,73.164224 L 206.36585,73.164224 L 206.36585,63.084353 L 198.76595,63.084353 z M 216.92571,80.524129 L 216.92571,90.364002 L 206.36585,90.364002 L 206.36585,80.524129 L 216.92571,80.524129 z M 216.92571,107.56378 L 206.36585,107.56378 L 206.36585,97.723907 L 216.92571,97.723907 L 216.92571,107.56378 z M 188.36608,107.56378 L 188.36608,97.723907 L 198.76595,97.723907 L 198.76595,107.56378 L 188.36608,107.56378 z M 188.36608,80.524129 L 198.76595,80.524129 L 198.76595,90.364002 L 188.36608,90.364002 L 188.36608,80.524129 z" />
    <path
       style="font-size:48px;font-style:normal;font-variant:normal;font-weight:normal;font-stretch:normal;text-align:start;line-height:125%;writing-mode:lr-tb;text-anchor:start;fill:#005d35;fill-opacity:1;fill-rule:nonzero;stroke:none;stroke-width:1;stroke-linecap:butt;stroke-linejoin:round;stroke-miterlimit:4;stroke-dashoffset:0;stroke-opacity:1;marker:none;marker-start:none;marker-mid:none;marker-end:none;visibility:visible;display:inline;overflow:visible;enable-background:accumulate;font-family:GD-HighwayGothicJA-OTF;-inkscape-font-specification:GD-HighwayGothicJA-OTF"
       d="M 65.425134,182.14465 L 73.921024,182.14465 L 73.921024,226.88008 L 67.105112,226.88008 L 67.105112,197.07246 L 59.665208,226.88008 L 53.521287,226.88008 L 46.081383,197.07246 L 46.081383,226.88008 L 39.31347,226.88008 L 39.31347,182.14465 L 47.761361,182.14465 L 56.593247,217.3762 L 65.425134,182.14465 z M 87.518883,220.11216 L 106.19064,220.11216 L 106.19064,226.88008 L 80.75097,226.88008 L 80.75097,182.14465 L 105.51865,182.14465 L 105.51865,188.96056 L 87.518883,188.96056 L 87.518883,200.14442 L 103.45468,200.14442 L 103.45468,206.91233 L 87.518883,206.91233 L 87.518883,220.11216 z M 118.45638,226.88008 L 111.68847,226.88008 L 111.68847,182.14465 L 118.45638,182.14465 L 118.45638,226.88008 z M 125.18847,193.7125 C 125.29047,197.39548 126.05846,200.18144 127.49244,202.0704 C 128.92641,203.95939 130.41439,205.17337 131.95638,205.71235 L 141.46026,209.6003 C 143.28221,210.3483 144.4862,211.14429 145.07221,211.98827 C 145.65818,212.83227 145.92618,213.84425 145.8762,215.02423 C 145.93818,216.32122 145.46619,217.6872 144.46022,219.12218 C 143.45421,220.55716 141.54224,221.33515 138.7243,221.45615 C 135.89432,221.45815 133.93434,220.78216 132.84437,219.42817 C 131.75437,218.07419 131.23438,216.03022 131.28439,213.29625 L 124.51648,213.29625 C 124.55948,218.53819 125.82946,222.34614 128.32643,224.7201 C 130.82339,227.09407 134.28934,228.26205 138.7243,228.22406 C 143.16822,228.11805 146.59217,226.72207 148.99616,224.03611 C 151.4001,221.35015 152.61609,218.01019 152.64412,214.01624 C 152.53909,210.81929 151.6931,208.33333 150.10615,206.55834 C 148.51914,204.78338 146.82117,203.60539 145.01221,203.02438 L 136.18033,199.28043 C 134.53434,198.60746 133.41035,197.80548 132.80837,196.87446 C 132.20637,195.9435 131.92237,194.88952 131.95638,193.7125 C 131.91337,192.40655 132.33537,191.08257 133.22237,189.74055 C 134.10934,188.39861 135.71932,187.67462 138.0523,187.56858 C 140.41526,187.59062 142.14523,188.23061 143.24224,189.48856 C 144.3392,190.74657 144.88119,192.49055 144.86822,194.72049 L 151.63613,194.72049 C 151.6431,190.12958 150.52512,186.66363 148.28217,184.32262 C 146.03918,181.98169 142.62922,180.80771 138.0523,180.80067 C 133.50535,180.95471 130.2154,182.33869 128.18243,184.95262 C 126.14945,187.56662 125.15147,190.48658 125.18847,193.7125 L 125.18847,193.7125 z M 180.20444,182.14465 L 186.97236,182.14465 L 186.97236,226.88008 L 180.20444,226.88008 L 180.20444,206.91233 L 165.61263,206.91233 L 165.61263,226.88008 L 158.84472,226.88008 L 158.84472,182.14465 L 165.61263,182.14465 L 165.61263,200.14442 L 180.20444,200.14442 L 180.20444,182.14465 z M 200.58138,226.88008 L 193.81347,226.88008 L 193.81347,182.14465 L 200.58138,182.14465 L 200.58138,226.88008 z M 228.67319,182.14465 L 235.44111,182.14465 L 235.44111,226.88008 L 227.32921,226.88008 L 214.08138,195.05649 L 214.08138,226.88008 L 207.31347,226.88008 L 207.31347,182.14465 L 215.42537,182.14465 L 228.67319,213.82424 L 228.67319,182.14465 z M 273.05013,220.11216 L 291.72189,220.11216 L 291.72189,226.88008 L 266.28222,226.88008 L 266.28222,182.14465 L 291.0499,182.14465 L 291.0499,188.96056 L 273.05013,188.96056 L 273.05013,200.14442 L 288.98593,200.14442 L 288.98593,206.91233 L 273.05013,206.91233 L 273.05013,220.11216 z M 327.07534,226.88008 L 319.25144,226.88008 L 311.42754,210.75228 L 303.65164,226.88008 L 295.82774,226.88008 L 308.06758,204.22437 L 296.54773,182.14465 L 304.32363,182.14465 L 311.42754,197.74445 L 318.57944,182.14465 L 326.35534,182.14465 L 314.83549,204.22437 L 327.07534,226.88008 z M 348.40551,182.14465 C 351.08346,182.17269 353.52742,183.38868 355.73742,185.79261 C 357.94736,188.19661 359.11935,191.62056 359.25338,196.06447 C 359.11935,200.50644 357.94736,203.92239 355.73742,206.31234 C 353.52742,208.70232 351.08346,209.91031 348.40551,209.93629 L 339.23763,209.93629 L 339.23763,226.88008 L 332.46972,226.88008 L 332.46972,182.14465 L 348.40551,182.14465 z M 347.06153,203.16838 C 348.75749,203.1274 350.08147,202.45341 351.03348,201.14641 C 351.98545,199.83945 352.46944,198.14547 352.48546,196.06447 C 352.46944,193.98353 351.98545,192.28955 351.03348,190.98254 C 350.08147,189.67559 348.75749,189.0016 347.06153,188.96056 L 339.23763,188.96056 L 339.23763,203.16838 L 347.06153,203.16838 z M 400.07727,182.14465 L 407.18118,182.14465 L 398.0133,226.88008 L 391.58138,226.88008 L 385.62946,196.73646 L 379.67754,226.88008 L 373.24562,226.88008 L 364.07774,182.14465 L 371.22965,182.14465 L 376.98957,213.82424 L 382.7495,182.14465 L 388.50942,182.14465 L 394.26935,213.82424 L 400.07727,182.14465 z M 442.48159,182.14465 L 430.24174,209.07231 L 430.24174,226.88008 L 423.47383,226.88008 L 423.47383,209.07231 L 411.23399,182.14465 L 419.05789,182.14465 L 426.83379,202.16039 L 434.65769,182.14465 L 442.48159,182.14465 z"
       id="text2413" />
    <path
       style="font-size:72px;font-style:normal;font-variant:normal;font-weight:normal;font-stretch:normal;text-align:start;line-height:125%;writing-mode:lr-tb;text-anchor:start;fill:#ffffff;fill-opacity:1;stroke:none;stroke-width:1px;stroke-linecap:butt;stroke-linejoin:miter;stroke-opacity:1;font-family:GD-HighwayGothicJA-OTF;-inkscape-font-specification:GD-HighwayGothicJA-OTF"
       d="M 156.90436,340.22808 L 160.43231,345.84401 C 164.58247,343.19604 168.67397,339.41209 172.70682,334.49215 C 176.73964,329.57223 180.43647,323.9963 183.79734,317.76437 C 187.15816,311.53248 189.90568,305.12457 192.0399,298.54062 C 194.00518,304.96057 196.57047,311.28048 199.73581,317.50037 C 202.90105,323.72031 206.53833,329.33623 210.64766,334.34815 C 214.75689,339.36009 219.21016,343.26404 224.00749,346.06 L 227.31945,340.22808 C 221.93812,337.01879 216.99686,332.20552 212.49564,325.78826 C 207.99431,319.37103 204.25303,312.3178 201.27178,304.62854 C 198.29045,296.93934 196.38914,289.58211 195.56786,282.55682 L 195.06387,279.46086 L 177.49609,279.46086 L 177.49609,286.37277 L 188.36795,286.37277 C 187.02216,293.34695 184.71375,300.43841 181.44271,307.64717 C 178.17162,314.85599 174.38056,321.37678 170.06952,327.20958 C 165.75845,333.0424 161.37007,337.38189 156.90436,340.22808 L 156.90436,340.22808 z"
       id="path3211" />
    <path
       id="path3209"
       style="font-size:72px;font-style:normal;font-variant:normal;font-weight:normal;font-stretch:normal;text-align:start;line-height:125%;writing-mode:lr-tb;text-anchor:start;fill:#ffffff;fill-opacity:1;stroke:none;stroke-width:1px;stroke-linecap:butt;stroke-linejoin:miter;stroke-opacity:1;font-family:GD-HighwayGothicJA-OTF;-inkscape-font-specification:GD-HighwayGothicJA-OTF"
       d="M 257.83567,280.18085 L 257.83567,345.70001 L 323.35482,345.70001 L 323.35482,280.18085 L 257.83567,280.18085 z M 264.31558,286.66077 L 316.87491,286.66077 L 316.87491,339.22009 L 264.31558,339.22009 L 264.31558,286.66077 z" />
    <path
       style="font-size:72px;font-style:normal;font-variant:normal;font-weight:normal;font-stretch:normal;text-align:start;line-height:125%;writing-mode:lr-tb;text-anchor:start;fill:#ffffff;fill-opacity:1;stroke:none;stroke-width:1px;stroke-linecap:butt;stroke-linejoin:miter;stroke-opacity:1;font-family:GD-HighwayGothicJA-OTF;-inkscape-font-specification:GD-HighwayGothicJA-OTF"
       d="M 141.9981,378.63888 L 151.64597,378.63888 L 151.64597,444.73402 L 140.48612,444.73402 L 140.48612,399.01461 L 123.63833,399.01461 L 123.63833,391.8867 L 128.24627,391.8867 C 131.45332,391.8112 134.07107,391.05832 136.0995,389.62807 C 138.1279,388.19791 139.62032,386.54371 140.57678,384.66546 C 141.53318,382.78732 142.00696,381.13846 141.9981,379.71886 L 141.9981,378.63888 z M 204.54133,401.53458 C 211.4067,401.49412 216.98962,403.23109 221.29011,406.74551 C 225.5905,410.26 227.80747,415.79492 227.94103,423.3503 C 227.83597,430.32072 225.50801,435.85564 220.95712,439.95508 C 216.40613,444.05453 210.26222,446.1515 202.52535,446.24601 C 196.58391,446.27 191.42098,444.71002 187.03655,441.56607 C 182.6521,438.42211 180.35113,433.55017 180.13364,426.95025 L 191.2935,426.95025 C 191.38648,430.27122 192.55046,432.79119 194.78545,434.51016 C 197.0204,436.22914 199.76836,437.09312 203.02935,437.10212 C 206.67877,437.06913 209.69372,435.85714 212.07423,433.46617 C 214.45466,431.07521 215.68764,427.70325 215.77318,423.3503 C 215.80014,419.71736 214.79216,416.65141 212.74922,414.15242 C 210.70621,411.65348 207.46626,410.3515 203.02935,410.24647 C 200.45535,410.2675 198.20538,410.72949 196.27943,411.63245 C 194.35344,412.53547 192.85946,413.75345 191.79749,415.2864 L 181.14163,415.2864 L 186.75756,379.71886 L 224.91707,379.71886 L 224.91707,388.86274 L 195.90144,388.86274 L 193.38147,405.63853 C 194.74193,404.45958 196.34091,403.48759 198.17841,402.72256 C 200.01586,401.95761 202.13683,401.56162 204.54133,401.53458 L 204.54133,401.53458 z M 265.06858,378.13488 C 273.95293,378.34644 280.59184,381.61339 284.98533,387.93576 C 289.37871,394.25822 291.57169,402.36711 291.56424,412.26244 C 291.57169,422.08883 289.37872,430.15572 284.98533,436.46313 C 280.59184,442.77054 273.95293,446.0315 265.06858,446.24601 C 256.18718,446.0315 249.56027,442.77055 245.18784,436.46313 C 240.81539,430.15572 238.63442,422.08883 238.64492,412.26244 C 238.63442,402.36711 240.81539,394.25822 245.18784,387.93576 C 249.56027,381.61339 256.18718,378.34644 265.06858,378.13488 L 265.06858,378.13488 z M 250.81277,412.26244 C 250.84875,420.60535 252.10873,426.83327 254.59272,430.9462 C 257.07666,435.05915 260.56862,437.11112 265.06858,437.10212 C 269.56849,437.11112 273.06044,435.05915 275.54445,430.9462 C 278.02837,426.83327 279.28836,420.60535 279.3244,412.26244 C 279.28836,403.88508 278.02837,397.63617 275.54445,393.51568 C 273.06044,389.39528 269.56849,387.34031 265.06858,387.35076 C 260.56862,387.34032 257.07666,389.39529 254.59272,393.51569 C 252.10873,397.63617 250.84875,403.88509 250.81277,412.26244 L 250.81277,412.26244 z M 355.61945,396.49465 C 360.49733,396.63269 364.33127,398.13867 367.12131,401.01259 C 369.9112,403.88659 371.33318,407.30054 371.38725,411.25446 L 371.38725,444.73402 L 360.73139,444.73402 L 360.73139,413.27043 C 360.73882,411.11498 360.07583,409.16201 358.74241,407.4115 C 357.40887,405.66106 355.3599,404.73407 352.59549,404.63054 C 349.69148,404.68157 347.20151,405.71356 345.12559,407.7265 C 343.04957,409.7395 341.96358,412.42747 341.86763,415.7904 L 341.86763,444.73402 L 331.21177,444.73402 L 331.21177,413.27043 C 331.21923,411.11498 330.55624,409.16201 329.22279,407.4115 C 327.88928,405.66106 325.84031,404.73407 323.07587,404.63054 C 320.17189,404.68157 317.68192,405.71356 315.60597,407.7265 C 313.52998,409.7395 312.44399,412.42747 312.34801,415.7904 L 312.34801,444.73402 L 301.69215,444.73402 L 301.69215,398.00663 L 311.84402,398.00663 L 312.13201,404.34254 C 313.68598,401.81061 315.68995,399.87264 318.14394,398.52862 C 320.59788,397.18468 323.24984,396.50669 326.09983,396.49465 C 329.69525,396.54869 332.74621,397.39468 335.25272,399.03261 C 337.75914,400.67063 339.53212,402.7766 340.57165,405.35053 C 342.26508,402.6506 344.42205,400.50863 347.04257,398.92461 C 349.66298,397.34067 352.52194,396.53069 355.61945,396.49465 L 355.61945,396.49465 z"
       id="text3214" />
  </g>
</svg>
