<?xml version="1.0" encoding="UTF-8" standalone="no"?>
<!-- Created with Inkscape (http://www.inkscape.org/) -->

<svg
   xmlns:dc="http://purl.org/dc/elements/1.1/"
   xmlns:cc="http://creativecommons.org/ns#"
   xmlns:rdf="http://www.w3.org/1999/02/22-rdf-syntax-ns#"
   xmlns:svg="http://www.w3.org/2000/svg"
   xmlns="http://www.w3.org/2000/svg"
   xmlns:sodipodi="http://sodipodi.sourceforge.net/DTD/sodipodi-0.dtd"
   xmlns:inkscape="http://www.inkscape.org/namespaces/inkscape"
   id="svg1890"
   sodipodi:version="0.32"
   inkscape:version="0.48.4 r9939"
   width="500.34357"
   height="500.34357"
   version="1.0"
   sodipodi:docname="AJAX1.svg"
   inkscape:output_extension="org.inkscape.output.svg.inkscape">
  <metadata
     id="metadata1895">
    <rdf:RDF>
      <cc:Work
         rdf:about="">
        <dc:format>image/svg+xml</dc:format>
        <dc:type
           rdf:resource="http://purl.org/dc/dcmitype/StillImage" />
      </cc:Work>
    </rdf:RDF>
  </metadata>
  <defs
     id="defs1893">
    <inkscape:perspective
       sodipodi:type="inkscape:persp3d"
       inkscape:vp_x="0 : 235 : 1"
       inkscape:vp_y="0 : 1000 : 0"
       inkscape:vp_z="470 : 235 : 1"
       inkscape:persp3d-origin="235 : 156.66667 : 1"
       id="perspective10" />
    <inkscape:perspective
       id="perspective2390"
       inkscape:persp3d-origin="372.04724 : 350.78739 : 1"
       inkscape:vp_z="744.09448 : 526.18109 : 1"
       inkscape:vp_y="0 : 1000 : 0"
       inkscape:vp_x="0 : 526.18109 : 1"
       sodipodi:type="inkscape:persp3d" />
    <inkscape:perspective
       id="perspective3168"
       inkscape:persp3d-origin="372.04724 : 350.78739 : 1"
       inkscape:vp_z="744.09448 : 526.18109 : 1"
       inkscape:vp_y="0 : 1000 : 0"
       inkscape:vp_x="0 : 526.18109 : 1"
       sodipodi:type="inkscape:persp3d" />
    <inkscape:perspective
       id="perspective2400"
       inkscape:persp3d-origin="372.04724 : 350.78739 : 1"
       inkscape:vp_z="744.09448 : 526.18109 : 1"
       inkscape:vp_y="0 : 1000 : 0"
       inkscape:vp_x="0 : 526.18109 : 1"
       sodipodi:type="inkscape:persp3d" />
    <inkscape:perspective
       id="perspective2391"
       inkscape:persp3d-origin="372.04724 : 350.78739 : 1"
       inkscape:vp_z="744.09448 : 526.18109 : 1"
       inkscape:vp_y="0 : 1000 : 0"
       inkscape:vp_x="0 : 526.18109 : 1"
       sodipodi:type="inkscape:persp3d" />
  </defs>
  <sodipodi:namedview
     inkscape:window-height="1004"
     inkscape:window-width="1280"
     inkscape:pageshadow="2"
     inkscape:pageopacity="0.0"
     guidetolerance="10.0"
     gridtolerance="10.0"
     objecttolerance="10.0"
     borderopacity="1.0"
     bordercolor="#666666"
     pagecolor="#ffffff"
     id="base"
     inkscape:zoom="1.2451783"
     inkscape:cx="187.20017"
     inkscape:cy="267.55114"
     inkscape:window-x="-8"
     inkscape:window-y="-8"
     inkscape:current-layer="svg1890"
     showgrid="false"
     fit-margin-top="0.2"
     fit-margin-left="0.2"
     fit-margin-right="0.2"
     fit-margin-bottom="0.2"
     inkscape:window-maximized="1"
     showguides="true"
     inkscape:guide-bbox="true" />
  <path
     style="fill:#fcdc0f;fill-opacity:1;fill-rule:nonzero;stroke:none"
     d="m 496.8946,242.33616 c 4.33196,4.33195 4.33196,11.33928 0,15.67124 L 258.00741,496.89459 c -4.33196,4.33196 -11.33929,4.33196 -15.67125,0 L 3.4489758,258.0074 c -4.3319679,-4.33197 -4.3319649,-11.33928 -8e-6,-15.67124 L 242.33617,3.4489587 c 4.33195,-4.3319496 11.33929,-4.3319436 15.67125,1e-5 z"
     id="path5216"
     inkscape:connector-curvature="0"
     sodipodi:nodetypes="sssssssss" />
  <path
     style="fill:#000000;fill-opacity:1;fill-rule:nonzero;stroke:none"
     d="M 250.17179,12.231763 12.231779,250.17177 250.17179,488.1118 488.11181,250.17178 z m 16.73435,30.875126 190.33054,190.330551 c 9.25965,9.25963 9.25965,24.20902 1e-5,33.46868 L 266.90615,457.23668 c -9.25965,9.25963 -24.20908,9.25963 -33.46871,0 L 43.106879,266.90612 c -9.25963,-9.25964 -9.25964,-24.20905 0,-33.46869 L 233.43744,43.106869 c 9.25965,-9.259653 24.20905,-9.25963 33.4687,2e-5 z"
     id="path17826"
     inkscape:connector-curvature="0"
     sodipodi:nodetypes="cccccsssssssss" />
  <path
     inkscape:connector-curvature="0"
     d="m 203.7364,114.34206 c -1.89617,0 -3.40494,1.50878 -3.40494,3.40494 l 0,68.87358 c 0,1.85539 -1.03903,4.50594 -2.28356,5.93317 l -31.52118,34.43679 c -1.24455,1.38644 -2.30394,4.03699 -2.30394,5.89238 l 0,105.59394 c 0,1.87578 1.56912,3.40494 3.40494,3.40494 l 17.16742,0 c 1.89617,0 3.42533,-1.52835 3.42533,-3.40494 l 0,-95.68494 c 0,-1.835 0.99987,-4.48556 2.28355,-5.8924 l 31.52119,-34.45717 c 1.2429,-1.36687 2.26317,-3.99622 2.26317,-5.89238 l 0,-78.80297 c 0,-1.89616 -1.52835,-3.40494 -3.38456,-3.40494 l -17.16742,0"
     style="fill:#000000;fill-opacity:1;fill-rule:nonzero;stroke:none"
     id="path41658" />
  <path
     id="path51167"
     style="fill:#000000;fill-opacity:1;fill-rule:nonzero;stroke:none"
     d="m 296.60722,114.34206 c 1.89617,0 3.40494,1.50878 3.40494,3.40494 l 0,68.87358 c 0,1.85539 1.03903,4.50594 2.28356,5.93317 l 31.52118,34.43679 c 1.24455,1.38644 2.30394,4.03699 2.30394,5.89238 l 0,105.59394 c 0,1.87578 -1.56912,3.40494 -3.40494,3.40494 l -17.16742,0 c -1.89617,0 -3.42533,-1.52835 -3.42533,-3.40494 l 0,-95.68494 c 0,-1.835 -0.99987,-4.48556 -2.28355,-5.8924 l -31.52119,-34.45717 c -1.2429,-1.36687 -2.26317,-3.99622 -2.26317,-5.89238 l 0,-78.80297 c 0,-1.89616 1.52835,-3.40494 3.38456,-3.40494 l 17.16742,0"
     inkscape:connector-curvature="0" />
</svg>
