<?xml version="1.0" encoding="UTF-8" standalone="no"?>
<!-- Created with Inkscape (http://www.inkscape.org/) -->

<svg
   xmlns:svg="http://www.w3.org/2000/svg"
   xmlns="http://www.w3.org/2000/svg"
   version="1.1"
   width="1800"
   height="300"
   id="svg5338">
  <defs
     id="defs5340" />
  <g
     transform="translate(0,-772.36217)"
     id="layer1">
    <rect
       width="1800"
       height="300"
       rx="50"
       ry="50"
       x="0"
       y="0"
       transform="translate(0,772.36217)"
       id="rect5348"
       style="color:#000000;fill:#000000;fill-opacity:1;stroke:none;stroke-width:99;marker:none;visibility:visible;display:inline;overflow:visible;enable-background:accumulate" />
    <rect
       width="1770"
       height="270"
       rx="50"
       ry="50"
       x="15"
       y="15"
       transform="translate(0,772.36217)"
       id="rect5860"
       style="color:#000000;fill:#ffffff;fill-opacity:1;fill-rule:nonzero;stroke:none;stroke-width:99;marker:none;visibility:visible;display:inline;overflow:visible;enable-background:accumulate" />
    <g
       id="text2814"
       style="font-size:250px;font-style:normal;font-weight:normal;text-align:center;text-anchor:middle;fill:#000000;fill-opacity:1;stroke:none">
      <path
         d="m 321.24176,1025.8637 c -5e-5,2.833 -0.9995,5.249 -2.99835,7.2479 -1.99895,1.9989 -4.41492,2.9984 -7.24793,2.9984 l -3.25012,0 c -3.66723,0 -6.79273,-1.2919 -9.37652,-3.8757 -2.58385,-2.5839 -3.87576,-5.7908 -3.87574,-9.6207 l 0,-191.00191 c -2e-5,-3.83485 1.37581,-7.16889 4.12751,-10.00213 2.75163,-2.83286 6.04244,-4.24938 9.87243,-4.24957 l 179.5044,0 c 3.16343,1.9e-4 5.87059,1.08356 8.12149,3.25012 2.25044,2.16694 3.37577,4.83341 3.376,7.99942 -2.3e-4,3.16638 -1.12556,5.83285 -3.376,7.99942 -2.2509,2.16692 -4.95806,3.25029 -8.12149,3.25012 l -164.50501,0 c -1.5005,1.7e-4 -2.25072,0.7504 -2.25067,2.25067 l 0,157.50122 c -5e-5,1.33264 0.75017,1.99894 2.25067,1.99894 l 166.99982,0 c 3.16852,0 5.87822,1.1253 8.12912,3.376 2.25044,2.2506 3.37577,4.9591 3.37601,8.1253 -2.4e-4,3.1662 -1.12557,5.7907 -3.37601,7.8735 -2.2509,2.0828 -4.9606,3.1242 -8.12912,3.1242 l -167.7475,0 c -1.00204,0 -1.50304,0.585 -1.50299,1.7548 z m 17.50183,-54.00085 c 22.16584,-14.17027 43.08308,-31.42031 62.75177,-51.75018 0.83402,-0.83405 0.75009,-1.75212 -0.25177,-2.75421 -14.66381,-12.66469 -30.66264,-24.83102 -47.99652,-36.49902 -2.67037,-1.83092 -4.21278,-4.37151 -4.62723,-7.62177 -0.41461,-3.24998 0.4615,-6.04233 2.62833,-8.37707 2.32942,-2.66505 5.24512,-4.24815 8.7471,-4.7493 3.5018,-0.50085 6.66927,0.24811 9.50241,2.24685 18.16293,12.33433 34.24568,24.50066 48.24829,36.49903 1.16461,0.83426 2.16406,0.75288 2.99835,-0.24414 11.99834,-14.33296 22.66422,-28.91781 31.99768,-43.75458 2.00381,-3.16349 4.75547,-5.20436 8.25501,-6.12259 3.49915,-0.9179 6.83192,-0.46014 9.99832,1.37329 3.166,1.83376 5.16617,4.50023 6.00052,7.99942 0.83394,3.4995 0.33294,6.74962 -1.50299,9.75037 -9.99979,15.83366 -21.74905,31.83503 -35.2478,48.00415 -1.00217,1.16485 -1.00217,2.24822 0,3.25012 14.16505,13.16333 29.24835,28.24663 45.24994,45.24994 2.33437,2.4974 3.45971,5.49575 3.376,8.99506 -0.0841,3.49938 -1.4587,6.33243 -4.12369,8.49914 -2.6705,2.33462 -5.75531,3.37731 -9.25445,3.12805 -3.49955,-0.2492 -6.41652,-1.62503 -8.75092,-4.1275 -14.49603,-15.4978 -28.8291,-29.91225 -42.99926,-43.24341 -0.99706,-1.00191 -1.99651,-1.00191 -2.99836,0 -21.49976,22.16599 -42.99937,40.16371 -64.4989,53.99323 -3.33158,2.16676 -6.87289,2.91699 -10.62393,2.25067 -3.75119,-0.66628 -6.87542,-2.41595 -9.37271,-5.24903 -2.16681,-2.49732 -3.00096,-5.45498 -2.50244,-8.87298 0.49839,-3.41793 2.16414,-6.04244 4.99725,-7.87354 z"
         id="path2844"
         style="font-variant:normal;font-stretch:normal;font-family:'Rounded M+ 1m medium';-inkscape-font-specification:'Rounded M+ 1m medium,'" />
      <path
         d="m 878.74451,955.61224 -10.74982,0 c -3.83514,6e-5 -7.16918,-1.41646 -10.00214,-4.24957 -2.83313,-2.83298 -4.24965,-6.16702 -4.24957,-10.00214 l 0,-50.49896 c -8e-5,-3.83491 1.41644,-7.16896 4.24957,-10.00213 2.83296,-2.83292 6.167,-4.24944 10.00214,-4.24958 l 46.50116,0 c 3.83489,1.4e-4 7.16894,1.41666 10.00214,4.24958 2.83289,2.83317 4.24941,6.16722 4.24957,10.00213 l 0,50.49896 c -1.6e-4,3.83512 -1.41668,7.16916 -4.24957,10.00214 -2.8332,2.83311 -6.16725,4.24963 -10.00214,4.24957 z m 0,-56.75506 0,34.50012 c -1.1e-4,1.50053 0.75011,2.25075 2.25067,2.25067 l 22.00317,0 c 1.33247,8e-5 1.99877,-0.75014 1.9989,-2.25067 l 0,-34.50012 c -1.3e-4,-1.49525 -0.66643,-2.24293 -1.9989,-2.24304 l -22.00317,0 c -1.50056,1.1e-4 -2.25078,0.74779 -2.25067,2.24304 z m -90.99579,89.75219 11.24573,-3.74603 c 1.50041,-0.66627 2.25064,-1.58434 2.25067,-2.75421 l 0,-87.50153 c -3e-5,-1.49524 -0.75026,-2.24292 -2.25067,-2.24304 l -10.24628,0 c -3.16876,1.2e-4 -5.8365,-1.08325 -8.00324,-3.25012 -2.16675,-2.16662 -3.25013,-4.83436 -3.25012,-8.00323 -10e-6,-3.16861 1.08337,-5.83635 3.25012,-8.00324 2.16674,-2.1666 4.83448,-3.24998 8.00324,-3.25012 l 10.24628,0 c 1.50041,1.4e-4 2.25064,-0.66616 2.25067,-1.9989 l 0,-39.24561 c -3e-5,-3.667 1.29188,-6.75055 3.87573,-9.25064 2.58378,-2.4997 5.70929,-3.74965 9.37653,-3.74985 3.66714,2e-4 6.75069,1.25015 9.25064,3.74985 2.49984,2.50009 3.74979,5.58364 3.74984,9.25064 l 0,39.24561 c -5e-5,1.33274 0.66625,1.99904 1.99891,1.9989 l 7.9956,0 c 3.16867,1.4e-4 5.83641,1.08352 8.00324,3.25012 2.16667,2.16689 3.25004,4.83463 3.25012,8.00324 -8e-5,3.16887 -1.08345,5.83661 -3.25012,8.00323 -2.16683,2.16687 -4.83457,3.25024 -8.00324,3.25012 l -7.9956,0 c -1.33266,1.2e-4 -1.99896,0.7478 -1.99891,2.24304 l 0,77.50702 c -5e-5,1.33265 0.58232,1.74845 1.74714,1.24741 1.16469,-0.50096 2.83044,-1.20922 4.99725,-2.12479 2.16668,-0.91548 3.75105,-1.62501 4.75311,-2.1286 3.16867,-1.5004 6.33614,-1.41648 9.50241,0.25177 3.16612,1.66834 4.91452,4.25216 5.24521,7.75147 l 0.75531,5.24902 c 0.33052,1.33263 0.99682,1.91501 1.9989,1.74713 26.33147,-6.50021 48.41346,-13.74812 66.24604,-21.74377 2.67013,-1.16979 5.25522,-1.08841 7.75527,0.24414 2.49974,1.33265 3.99891,3.33409 4.49753,6.00433 0.49829,3.33155 0.0393,6.5397 -1.3771,9.62448 -1.41669,3.08485 -3.6254,5.29356 -6.62613,6.62613 -17.49689,8.16348 -39.08042,15.57926 -64.75067,22.24736 -3.66729,1.002 -7.08398,0.4196 -10.2501,-1.7472 -3.16627,-2.1667 -5.08252,-5.1676 -5.74874,-9.00266 l -0.74768,-4.75311 c -0.33577,-1.33258 -1.086,-1.74711 -2.25068,-1.24359 -16.00144,7.66501 -33.41678,14.49836 -52.24609,20.50016 -2.83815,0.8291 -5.50717,0.4947 -8.00705,-1.0032 -2.49991,-1.4979 -3.99908,-3.7473 -4.49753,-6.7482 -0.49846,-3.16877 0.12715,-6.1277 1.87683,-8.87685 1.74967,-2.7491 4.20887,-4.62466 7.37763,-5.62668 z m 159.74426,-21.7514 c -5.66627,-28.6661 -9.16561,-63.99779 -10.49805,-105.99518 -1.6e-4,-1.50029 -0.66646,-2.25051 -1.9989,-2.25067 l -80.00183,0 c -3.16374,1.6e-4 -5.82893,-1.08322 -7.9956,-3.25012 -2.16683,-2.16659 -3.2502,-4.83306 -3.25013,-7.99942 -7e-5,-3.16603 1.0833,-5.8325 3.25013,-7.99942 2.16667,-2.16657 4.83186,-3.24995 7.9956,-3.25012 l 79.25415,0 c 1.4952,1.7e-4 2.24288,-0.75005 2.24304,-2.25067 -1.6e-4,-1.33242 -0.0408,-3.37456 -0.12207,-6.12641 -0.0815,-2.75148 -0.12223,-4.87753 -0.12207,-6.37817 -1.6e-4,-3.49916 1.24979,-6.49878 3.74985,-8.99887 2.49973,-2.4997 5.49935,-3.74965 8.99887,-3.74985 3.49917,2e-4 6.54075,1.29211 9.12476,3.87573 2.58363,2.58402 3.87554,5.6256 3.87573,9.12476 l 0,12.50458 c -1.9e-4,1.33277 0.75003,1.99907 2.25067,1.9989 l 9.99451,0 c 1.16963,1.7e-4 1.58671,-0.66613 1.25122,-1.9989 -0.33081,-1.00182 -0.99584,-2.75276 -1.99509,-5.25284 -0.99965,-2.49971 -1.75115,-4.41596 -2.25448,-5.74875 -1.16496,-3.0007 -1.16369,-5.95963 0.004,-8.8768 1.1671,-2.91677 3.24865,-4.95763 6.24466,-6.12259 3.00068,-1.33239 6.00158,-1.37436 9.00269,-0.12589 3.00067,1.24889 5.08349,3.37367 6.24847,6.37436 1.83592,4.50154 4.41974,11.41885 7.75149,20.75196 0.1676,0.66647 0.75,0.99962 1.7471,0.99945 2.3344,1.7e-4 4.2939,0.83305 5.8785,2.49862 1.5841,1.66593 2.3763,3.6661 2.3765,6.00052 l 0,2.74658 c -2e-4,3.16891 -1.0836,5.83665 -3.2501,8.00324 -2.167,2.1669 -4.8347,3.25028 -8.00325,3.25012 l -34.24835,0 c -1.50064,1.6e-4 -2.25086,0.66646 -2.25067,1.9989 0.83395,23.66651 2.58363,46.58265 5.24902,68.74848 0.16765,0.33577 0.58473,0.25185 1.25122,-0.25177 3.83484,-9.49596 8.00049,-21.74367 12.49695,-36.74317 0.83394,-3.16861 2.7095,-5.50321 5.62668,-7.00378 2.91675,-1.50032 5.87568,-1.66817 8.8768,-0.50354 3.16851,1.16997 5.5438,3.21337 7.1259,6.13022 1.5816,2.91709 1.874,5.9574 0.8773,9.12094 -8.00088,27.66936 -17.41809,50.66941 -28.25161,69.00024 -0.83435,1.33265 -1.08358,2.66779 -0.74768,4.00543 1.49515,6.83089 3.03502,12.66356 4.6196,17.49802 1.58416,4.83451 2.95999,8.29317 4.1275,10.37601 1.16708,2.0828 2.1678,3.1242 3.00217,3.1242 2.66498,0 4.83172,-10.50057 6.50024,-31.50177 0.33038,-2.66515 1.57906,-4.70601 3.74603,-6.12258 2.16652,-1.41648 4.50115,-1.62629 7.00375,-0.62943 6.6628,2.83309 9.7451,7.75151 9.2469,14.75525 -3.169,35.32923 -10.8365,52.99373 -23.00266,52.99373 -14.16545,0 -25.58156,-11.4161 -34.24835,-34.24831 -0.16804,-0.33059 -0.45922,-0.53786 -0.87357,-0.62179 -0.41471,-0.0839 -0.78983,0.0394 -1.12533,0.37002 -8.99778,10.00468 -19.08129,19.08878 -30.25055,27.25218 -2.8332,2.1668 -6.04136,3.0009 -9.62449,2.5025 -3.58341,-0.4985 -6.62626,-2.0829 -9.12857,-4.7532 -2.16179,-2.3295 -3.03536,-5.1193 -2.62069,-8.3694 0.41439,-3.2501 1.9568,-5.7932 4.62722,-7.6294 15.83339,-11.00156 28.91524,-23.50104 39.24561,-37.49847 1.00182,-1.16471 1.33497,-2.41593 0.99945,-3.75366 z"
         id="path2846"
         style="font-variant:normal;font-stretch:normal;font-family:'Rounded M+ 1m medium';-inkscape-font-specification:'Rounded M+ 1m medium,'" />
      <path
         d="m 1317.4957,950.85913 0,66.25367 c 0,3.6672 -1.3339,6.8334 -4.0016,9.4986 -2.6678,2.6652 -5.834,3.9978 -9.4986,3.9978 -3.6647,0 -6.8309,-1.3326 -9.4986,-3.9978 -2.6677,-2.6652 -4.0016,-5.8314 -4.0016,-9.4986 l 0,-168.75458 c 0,-3.82979 1.4165,-7.16129 4.2496,-9.99451 2.833,-2.83287 6.167,-4.24939 10.0021,-4.24957 l 73.7457,0 c 1.3325,1.8e-4 1.9988,-0.66867 1.9989,-2.00654 l 0,-11.24572 c -10e-5,-3.83485 1.3338,-7.04428 4.0017,-9.6283 2.6676,-2.58362 5.8351,-3.87552 9.5024,-3.87573 3.667,2.1e-4 6.8332,1.29211 9.4986,3.87573 2.665,2.58402 3.9976,5.79345 3.9978,9.6283 l 0,11.24572 c -2e-4,1.33787 0.6687,2.00672 2.0065,2.00654 l 75.7446,0 c 3.8348,1.8e-4 7.1689,1.4167 10.0022,4.24957 2.8328,2.83322 4.2493,6.16472 4.2495,9.99451 l 0,145.25604 c -2e-4,16.49984 -1.9164,26.66604 -5.7487,30.49854 -3.8327,3.8324 -13.8336,5.7487 -30.0026,5.7487 -4.5015,0 -14.0001,-0.2492 -28.4958,-0.7477 -3.3367,-0.1678 -6.1711,-1.4191 -8.503,-3.7536 -2.3322,-2.3346 -3.5821,-5.085 -3.7498,-8.2512 -0.168,-3.1662 0.8314,-5.8747 2.9983,-8.1253 2.1666,-2.2507 4.8344,-3.2921 8.0033,-3.1243 13.0003,0.4985 21.2502,0.7477 24.7497,0.7477 6.8307,0 10.8298,-0.5404 11.9973,-1.6212 1.1671,-1.0809 1.7507,-4.8714 1.7509,-11.37164 l 0,-39.00147 c -2e-4,-0.50348 -0.2087,-0.87986 -0.6256,-1.12915 -0.4173,-0.24916 -0.7911,-0.20593 -1.1215,0.1297 l -5.5008,3.49426 c -3.3368,2.16681 -7.004,2.95899 -11.0016,2.37656 -3.998,-0.58232 -7.2481,-2.45788 -9.7504,-5.62668 -16.0015,-19.3328 -32.6692,-35.16378 -50.003,-47.49298 -1.3327,-1.00188 -2.3322,-0.83658 -2.9984,0.49591 -10.8338,19.00237 -27.4989,35.50219 -49.9954,49.49951 -3.4994,2.16681 -7.2493,2.87507 -11.2495,2.12479 -4.0004,-0.75017 -7.2518,-2.79103 -9.7542,-6.12259 l -1.7472,-1.9989 c -0.1678,-0.33563 -0.4183,-0.41955 -0.7514,-0.25177 -0.3332,0.16791 -0.4998,0.41714 -0.4998,0.74768 z m 154.9988,-4.74548 0,-86.50208 c -2e-4,-1.50029 -0.6665,-2.25051 -1.9989,-2.25067 l -61.5005,0 c -1.3328,1.6e-4 -2.1669,0.75038 -2.5025,2.25067 -0.6664,5.83409 -1.999,12.7514 -3.9978,20.75196 -0.3307,1.50057 0.086,2.66533 1.2512,3.49426 25.1667,17.17133 47.5818,38.00465 67.2455,62.5 0.3355,0.33576 0.6699,0.46164 1.0033,0.37765 0.3329,-0.0838 0.4995,-0.29112 0.4997,-0.62179 z m -94.7494,-88.75275 -58.2505,0 c -1.3326,1.6e-4 -1.9989,0.75038 -1.9989,2.25067 l 0,78.24707 c 0,0.50362 0.2085,0.88 0.6256,1.12915 0.4171,0.2493 0.7909,0.28999 1.1216,0.12207 18.6665,-9.50105 32.8749,-20.62597 42.6254,-33.37478 9.7503,-12.7486 15.7088,-28.12309 17.8757,-46.12351 0.3355,-1.50029 -0.3308,-2.25051 -1.9989,-2.25067 z"
         id="path2848"
         style="font-variant:normal;font-stretch:normal;font-family:'Rounded M+ 1m medium';-inkscape-font-specification:'Rounded M+ 1m medium,'" />
    </g>
  </g>
</svg>
