<?xml version="1.0" encoding="UTF-8" standalone="no"?>
<!-- Created with Inkscape (http://www.inkscape.org/) -->

<svg
   xmlns:dc="http://purl.org/dc/elements/1.1/"
   xmlns:cc="http://creativecommons.org/ns#"
   xmlns:rdf="http://www.w3.org/1999/02/22-rdf-syntax-ns#"
   xmlns:svg="http://www.w3.org/2000/svg"
   xmlns="http://www.w3.org/2000/svg"
   xmlns:sodipodi="http://sodipodi.sourceforge.net/DTD/sodipodi-0.dtd"
   xmlns:inkscape="http://www.inkscape.org/namespaces/inkscape"
   width="216.60097"
   height="130.5934"
   id="svg4203"
   sodipodi:version="0.32"
   inkscape:version="0.48.4 r9939"
   version="1.0"
   sodipodi:docname="Japanese_Road_sign_(Prefecture_B).svg"
   inkscape:output_extension="org.inkscape.output.svg.inkscape">
  <defs
     id="defs4205">
    <inkscape:perspective
       sodipodi:type="inkscape:persp3d"
       inkscape:vp_x="0 : 315 : 1"
       inkscape:vp_y="0 : 1000 : 0"
       inkscape:vp_z="1500 : 315 : 1"
       inkscape:persp3d-origin="750 : 210 : 1"
       id="perspective9" />
    <inkscape:perspective
       id="perspective3163"
       inkscape:persp3d-origin="372.04724 : 350.78739 : 1"
       inkscape:vp_z="744.09448 : 526.18109 : 1"
       inkscape:vp_y="0 : 1000 : 0"
       inkscape:vp_x="0 : 526.18109 : 1"
       sodipodi:type="inkscape:persp3d" />
    <inkscape:perspective
       id="perspective2395"
       inkscape:persp3d-origin="372.04724 : 350.78739 : 1"
       inkscape:vp_z="744.09448 : 526.18109 : 1"
       inkscape:vp_y="0 : 1000 : 0"
       inkscape:vp_x="0 : 526.18109 : 1"
       sodipodi:type="inkscape:persp3d" />
    <inkscape:perspective
       id="perspective3843"
       inkscape:persp3d-origin="227.5 : 145 : 1"
       inkscape:vp_z="455 : 217.5 : 1"
       inkscape:vp_y="0 : 1000 : 0"
       inkscape:vp_x="0 : 217.5 : 1"
       sodipodi:type="inkscape:persp3d" />
  </defs>
  <sodipodi:namedview
     id="base"
     pagecolor="#ffffff"
     bordercolor="#666666"
     borderopacity="1.0"
     gridtolerance="10000"
     guidetolerance="10"
     objecttolerance="10"
     inkscape:pageopacity="0.0"
     inkscape:pageshadow="2"
     inkscape:zoom="2.4162848"
     inkscape:cx="108.61556"
     inkscape:cy="153.33358"
     inkscape:document-units="px"
     inkscape:current-layer="layer1"
     width="1500px"
     height="630px"
     inkscape:window-width="1680"
     inkscape:window-height="988"
     inkscape:window-x="-8"
     inkscape:window-y="-8"
     showgrid="false"
     showguides="true"
     inkscape:guide-bbox="true"
     inkscape:snap-center="true"
     inkscape:window-maximized="1"
     fit-margin-top="0"
     fit-margin-left="0"
     fit-margin-right="0"
     fit-margin-bottom="0" />
  <metadata
     id="metadata4208">
    <rdf:RDF>
      <cc:Work
         rdf:about="">
        <dc:format>image/svg+xml</dc:format>
        <dc:type
           rdf:resource="http://purl.org/dc/dcmitype/StillImage" />
        <dc:title />
      </cc:Work>
    </rdf:RDF>
  </metadata>
  <g
     inkscape:label="sign"
     inkscape:groupmode="layer"
     id="layer1"
     transform="translate(-71.381793,-77.014941)">
    <path
       inkscape:connector-curvature="0"
       d="m 71.381793,77.014941 0,130.593399 216.600967,0 0,-130.593399 -216.600967,0 z"
       style="fill:#005d35;fill-opacity:1;fill-rule:nonzero;stroke:none"
       id="path7815" />
    <g
       id="g5000"
       transform="translate(77.257526,342.39131)"
       style="fill:#ffffff;fill-opacity:1">
      <g
         transform="scale(1.0854052,0.92131492)"
         style="font-size:25.29550171px;font-style:normal;font-variant:normal;font-weight:normal;font-stretch:normal;line-height:125%;letter-spacing:0px;word-spacing:0px;fill:#ffffff;stroke:none;font-family:GD-HighwayGothicJA-TTF;-inkscape-font-specification:GD-HighwayGothicJA-TTF"
         id="text4992">
        <path
           d="m 6.410404,-190.79878 c -0.01647,-1.72917 0.5105189,-3.26897 1.5809688,-4.6194 1.383343,-1.51507 3.1207602,-2.24792 5.2122572,-2.19853 l 0,0 c 4.792298,0.0494 7.171983,2.49498 7.139062,7.33668 l 0,0 -3.55718,0 c 0.01646,-2.43731 -1.177503,-3.68891 -3.581882,-3.7548 l 0,0 c -2.05856,0.13177 -3.129007,1.21045 -3.2113435,3.23605 l 0,0 c 0.016463,1.49864 0.7575415,2.47851 2.2232375,2.93961 l 0,0 4.644096,1.97621 c 1.235118,0.42819 2.219106,1.17338 2.951965,2.23559 0.732829,1.06222 1.091017,2.24383 1.074565,3.54483 l 0,0 c 0.01645,2.00915 -0.625816,3.76303 -1.926806,5.26166 -1.482171,1.49862 -3.285462,2.23147 -5.409878,2.19853 l 0,0 c -2.091496,0.11528 -3.9194898,-0.50228 -5.4839853,-1.85269 -0.7740186,-0.77402 -1.3092419,-1.69213 -1.6056715,-2.75435 -0.2964331,-1.06221 -0.4281804,-2.13677 -0.3952422,-3.22369 l 0,0 3.55718,0 c -0.04941,0.74108 0.045283,1.49039 0.2840803,2.24794 0.2387867,0.75755 0.7122537,1.30512 1.4204017,1.64272 0.708135,0.33761 1.449213,0.47347 2.223237,0.4076 l 0,0 c 2.2891,-0.0165 3.548934,-1.14456 3.779504,-3.38426 l 0,0 c 0.04939,-0.74108 -0.168814,-1.35041 -0.65462,-1.828 -0.48583,-0.47758 -1.049873,-0.82341 -1.692131,-1.03751 l 0,0 -4.9899325,-2.05032 c -0.9881099,-0.4117 -1.7785935,-1.04573 -2.3714533,-1.9021 -0.8563602,-1.3504 -1.2598362,-2.82432 -1.2104292,-4.42177 z"
           id="path5011"
           inkscape:connector-curvature="0" />
        <path
           d="m 30.544881,-190.28003 c -0.823429,0.0494 -1.548039,0.30468 -2.173832,0.76578 -0.625806,0.46113 -1.152795,1.01282 -1.580969,1.65508 l 0,0 0,-9.04117 -3.384262,0 0,23.54162 3.384262,0 0,-10.12808 c -0.03294,-0.88929 0.230553,-1.69624 0.790484,-2.42086 0.559921,-0.7246 1.309233,-1.11161 2.24794,-1.16103 l 0,0 c 0.708134,0.0165 1.247475,0.30468 1.618023,0.8646 0.37053,0.55993 0.547565,1.16926 0.531107,1.82799 l 0,0 0,11.01738 3.384261,0 0,-11.36322 c 0.01646,-0.92222 -0.139994,-1.8321 -0.46935,-2.72964 -0.329381,-0.89751 -0.897541,-1.60154 -1.704482,-2.11207 -0.806963,-0.51051 -1.688023,-0.7493 -2.643182,-0.71638 z"
           id="path5013"
           inkscape:connector-curvature="0" />
        <path
           d="m 41.31523,-192.94791 0,-3.95243 -3.384261,0 0,3.95243 z m -3.384261,19.58919 3.384261,0 0,-16.37785 -3.384261,0 z"
           id="path5015"
           inkscape:connector-curvature="0" />
        <path
           d="m 55.000491,-189.73657 -10.893863,0 0,2.8655 7.139062,0 -7.509602,10.69625 0,2.8161 11.264403,0 0,-2.8161 -7.509602,0 7.509602,-10.69625 z"
           id="path5017"
           inkscape:connector-curvature="0" />
        <path
           d="m 65.820247,-189.73657 0,10.17749 c 0.01646,0.90576 -0.25527,1.71683 -0.815187,2.43321 -0.559935,0.71637 -1.301013,1.09103 -2.223237,1.12397 l 0,0 c -0.724617,0 -1.272192,-0.27997 -1.642726,-0.83989 -0.370544,-0.55993 -0.539346,-1.17749 -0.506404,-1.8527 l 0,0 0,-11.04208 -3.384261,0 0,11.41262 c -0.06587,1.49863 0.329366,2.84904 1.185726,4.05123 0.955165,1.03751 2.157359,1.52333 3.606585,1.45746 l 0,0 c 0.823415,-0.0329 1.556259,-0.2882 2.198535,-0.76579 0.64226,-0.47758 1.193952,-1.05398 1.655077,-1.72918 l 0,0 0.09881,1.95151 3.211343,0 0,-16.37785 z"
           id="path5019"
           inkscape:connector-curvature="0" />
        <path
           d="m 78.369186,-172.81526 c 1.844454,-0.0494 3.408953,-0.74932 4.693502,-2.09973 1.597423,-1.89387 2.363204,-4.10063 2.297345,-6.62031 l 0,0 c 0.06586,-2.51966 -0.699922,-4.73466 -2.297345,-6.64501 -1.284549,-1.33392 -2.849048,-2.03383 -4.693502,-2.09972 l 0,0 c -1.860938,0.0659 -3.425437,0.7658 -4.693501,2.09972 -1.613907,1.91035 -2.371454,4.12535 -2.272643,6.64501 l 0,0 c -0.09881,2.51968 0.658736,4.72644 2.272643,6.62031 1.268064,1.35041 2.832563,2.05032 4.693501,2.09973 z m 0,-3.01373 c -1.119859,-0.0329 -1.951514,-0.53522 -2.494966,-1.50686 -0.658742,-1.31747 -0.955173,-2.71728 -0.889295,-4.19945 l 0,0 c -0.06588,-1.46568 0.230553,-2.85726 0.889295,-4.17474 0.543452,-0.97163 1.375107,-1.48215 2.494966,-1.53156 l 0,0 c 1.119844,0.0494 1.943265,0.55993 2.470264,1.53156 0.658726,1.31748 0.963392,2.70906 0.913998,4.17474 l 0,0 c 0.04939,1.48217 -0.255272,2.88198 -0.913998,4.19945 -0.526999,0.97164 -1.35042,1.47393 -2.470264,1.50686 z"
           id="path5021"
           inkscape:connector-curvature="0" />
        <path
           d="m 96.402118,-173.35872 3.927722,0 -5.780419,-9.68344 5.261662,-6.69441 -4.100638,0 -4.841718,6.94144 0,-14.10521 -3.384261,0 0,23.54162 3.384261,0 0,-5.03934 1.531564,-1.97621 z"
           id="path5023"
           inkscape:connector-curvature="0" />
        <path
           d="m 114.87969,-173.35872 c -0.65875,-1.07045 -0.95518,-2.24794 -0.88929,-3.53248 l 0,0 c -0.0165,-1.35041 -0.0165,-2.70082 0,-4.05123 -0.0165,-1.6139 -0.0165,-3.23604 0,-4.86642 l 0,0 c 0.0165,-1.3504 -0.49407,-2.45378 -1.53157,-3.31016 -1.26808,-0.8234 -2.65966,-1.21041 -4.17474,-1.16102 l 0,0 c -3.75481,0.11529 -5.72278,2.02563 -5.90393,5.73101 l 0,0 3.38426,0 c -0.11529,-1.81151 0.7246,-2.76668 2.51967,-2.8655 l 0,0 c 1.44921,-0.0659 2.22322,0.59287 2.32204,1.97621 l 0,0 c -0.0494,0.85637 -0.46112,1.41629 -1.23513,1.67978 -0.77402,0.2635 -1.49863,0.46936 -2.17383,0.61756 l 0,0 c -0.90577,0.19763 -1.76624,0.51877 -2.58143,0.96341 -0.81519,0.44465 -1.49039,1.04986 -2.02561,1.81564 -0.53523,0.76579 -0.78637,1.61803 -0.75343,2.55672 l 0,0 c -0.0988,1.31748 0.22232,2.51144 0.9634,3.58189 0.9881,1.0375 2.215,1.50685 3.68069,1.40805 l 0,0 c 1.84446,-0.0659 3.30191,-0.8646 4.37237,-2.39616 l 0,0 0.27173,1.8527 z m -7.31198,-2.47027 c -1.49863,0.14822 -2.27265,-0.51052 -2.32205,-1.97621 l 0,0 c -0.0659,-0.70814 0.13586,-1.29688 0.60522,-1.76624 0.46934,-0.46934 1.04162,-0.76989 1.71683,-0.90164 l 0,0 c 0.52698,-0.16468 1.05397,-0.33348 1.58097,-0.50641 0.52698,-0.17291 1.0128,-0.45699 1.45745,-0.85224 l 0,0 c -0.0165,1.00458 -0.0165,1.99269 0,2.96432 l 0,0 c -0.16469,1.8774 -1.1775,2.89021 -3.03842,3.03842 z"
           id="path5025"
           inkscape:connector-curvature="0" />
      </g>
      <g
         transform="scale(1.0854052,0.92131492)"
         style="font-size:25.29550171px;font-style:normal;font-variant:normal;font-weight:normal;font-stretch:normal;line-height:125%;letter-spacing:0px;word-spacing:0px;fill:#ffffff;stroke:none;font-family:GD-HighwayGothicJA-TTF;-inkscape-font-specification:GD-HighwayGothicJA-TTF"
         id="text4996">
        <path
           d="m 134.36016,-196.90034 -8.3989,0 0,23.54162 3.58188,0 0,-8.89295 4.81702,0 c 1.54802,-0.0659 2.83255,-0.6999 3.85361,-1.90211 1.28452,-1.56449 1.91032,-3.36778 1.8774,-5.40987 l 0,0 c 0.0329,-2.0256 -0.59288,-3.82889 -1.8774,-5.40988 -1.02106,-1.18571 -2.30559,-1.82797 -3.85361,-1.92681 z m -0.69168,11.09149 -4.12534,0 0,-7.5096 4.12534,0 c 0.95516,0.0659 1.67565,0.48583 2.16148,1.25983 0.48581,0.77403 0.71225,1.60569 0.67933,2.49497 l 0,0 c 0.0329,0.90577 -0.19352,1.74978 -0.67933,2.53202 -0.48583,0.78226 -1.20632,1.18985 -2.16148,1.22278 z"
           id="path5028"
           inkscape:connector-curvature="0" />
        <path
           d="m 145.89629,-187.58744 -0.0741,-2.14913 -3.21134,0 0,16.37785 3.38426,0 0,-9.60933 c -0.0494,-0.70813 0.11116,-1.36275 0.4817,-1.96386 0.37054,-0.60109 0.89341,-1.02103 1.56862,-1.25983 0.6752,-0.23878 1.35864,-0.34995 2.05032,-0.33349 l 0,0 0,-3.55718 c -1.86094,0.0659 -3.26076,0.89754 -4.19945,2.49497 z"
           id="path5030"
           inkscape:connector-curvature="0" />
        <path
           d="m 158.29701,-190.28003 c -1.828,0.0494 -3.33486,0.74933 -4.52058,2.09972 -0.79048,0.93872 -1.34629,1.98446 -1.66743,3.13724 -0.32113,1.1528 -0.46523,2.32206 -0.43229,3.50777 l 0,0 c -0.0329,1.2022 0.11939,2.38381 0.457,3.54483 0.3376,1.16103 0.90987,2.18619 1.71683,3.07548 1.23513,1.36688 2.77492,2.06679 4.61939,2.09973 l 0,0 c 1.6633,0.0329 3.12076,-0.51053 4.37237,-1.63038 1.0869,-1.05398 1.7127,-2.34675 1.8774,-3.87831 l 0,0 -3.38426,0 c -0.2141,1.69625 -1.16927,2.5279 -2.86551,2.49496 l 0,0 c -0.80696,0.0165 -1.45746,-0.25937 -1.95151,-0.82753 -0.49405,-0.56816 -0.8193,-1.21043 -0.97575,-1.92681 -0.15645,-0.71637 -0.25115,-1.43687 -0.28408,-2.16148 l 0,0 9.63403,0 c 0.0988,-1.54803 -0.0165,-3.07959 -0.34584,-4.59469 -0.26351,-1.07044 -0.74109,-2.05031 -1.43275,-2.93962 -1.28455,-1.3998 -2.89022,-2.06677 -4.81702,-2.00091 z m -2.96431,6.89204 c 0.0494,-0.88929 0.30054,-1.74153 0.75343,-2.55673 0.45287,-0.81517 1.18984,-1.24747 2.21088,-1.29688 l 0,0 c 0.65873,-0.0494 1.24336,0.11529 1.75389,0.49405 0.51051,0.37878 0.83988,0.88519 0.98811,1.51921 0.1482,0.63404 0.24701,1.24749 0.29643,1.84035 l 0,0 z"
           id="path5032"
           inkscape:connector-curvature="0" />
        <path
           d="m 174.03259,-193.7878 0,-3.11254 c -0.67521,-0.14819 -1.35453,-0.23877 -2.03796,-0.27173 -0.68345,-0.0329 -1.33807,0.10707 -1.96386,0.41995 -0.70815,0.49407 -1.16927,1.14458 -1.38335,1.95151 -0.21409,0.80697 -0.3129,1.61392 -0.29643,2.42086 l 0,0 0,2.69258 -1.97621,0 0,2.86551 1.97621,0 0,13.46294 3.35956,0 0,-13.46294 2.32204,0 0,-2.86551 -2.32204,0 0,-2.69258 c -0.0659,-0.37876 0.0123,-0.73695 0.23467,-1.07457 0.22232,-0.33758 0.53933,-0.50227 0.95105,-0.49405 0.41171,0.008 0.79048,0.0618 1.13632,0.16057 z"
           id="path5034"
           inkscape:connector-curvature="0" />
        <path
           d="m 180.99874,-173.45753 0,-4.42177 -3.58188,0 0,4.42177 z"
           id="path5036"
           inkscape:connector-curvature="0" />
      </g>
    </g>
    <g
       style="font-size:49.36635971px;font-style:normal;font-variant:normal;font-weight:normal;font-stretch:normal;line-height:125%;letter-spacing:0px;word-spacing:0px;fill:#ffffff;fill-opacity:1;stroke:none;font-family:GD-HighwayGothicJA-TTF;-inkscape-font-specification:GD-HighwayGothicJA-TTF"
       id="text5006">
      <path
         d="m 127.7873,110.09352 c 3.31035,-2.92466 5.81723,-6.46001 7.52066,-10.606054 l 0,0 4.19421,1.446284 c -0.16073,0.44999 -0.32143,0.85174 -0.4821,1.20523 l 0,0 11.71487,0 -0.72314,1.78375 c -1.57488,3.66394 -3.53539,7.10287 -5.88154,10.31679 l 0,0 6.84573,0 0,9.88292 2.94077,0 0,4.43526 -2.94077,0 0,9.88291 -8.87052,0 0,3.90496 c -0.12859,2.86041 -1.60701,4.33883 -4.43526,4.43525 l 0,0 -3.23002,0 0,-4.43525 3.23002,0 0,-3.90496 -5.92975,0 0,-4.48347 5.92975,0 0,-5.39944 -8.67768,0 0,-4.43526 8.67768,0 0,-5.44766 -5.92975,0 0,-4.43526 6.7011,0 c 2.0569,-2.34615 3.82457,-4.90125 5.30303,-7.66528 l 0,0 -7.13498,0 c -1.67129,2.5712 -3.6318,4.88524 -5.88154,6.94214 l 0,0 z m -19.28373,5.88154 7.66528,0 0,-1.97658 -6.1708,0 0,-4.43526 6.1708,0 0,-1.49449 -6.65289,0 0,-4.43526 6.65289,0 0,-3.47107 4.43526,0 0,3.47107 6.65289,0 0,4.43526 -6.65289,0 0,1.49449 5.92975,0 0,4.43526 -5.92975,0 0,1.97658 7.66528,0 0,4.43526 -19.76582,0 z m 14.31817,31.04681 0,-4.6763 -8.87052,0 0,4.6763 -4.43526,0 0,-24.15288 17.74104,0 0,24.15288 z m -8.87052,-19.71762 0,3.23003 8.87052,0 0,-3.23003 z m 28.15425,-3.18181 4.43526,0 0,-5.44766 -4.43526,0 z m -19.28373,10.8471 -8.87052,0 0,2.94077 8.87052,0 z m 19.28373,-6.41184 0,5.39944 4.43526,0 0,-5.39944 z"
         id="path5039"
         inkscape:connector-curvature="0" />
      <path
         d="m 202.36714,101.80151 0,45.75066 -4.6763,0 0,-41.26719 -33.89117,0 0,41.26719 -4.6763,0 0,-45.75066 z m -35.72312,17.21074 5.59229,0 -2.65152,-9.20799 4.33884,-1.39807 3.18182,10.60606 7.13498,0 3.18182,-10.60606 4.33884,1.39807 -2.65152,9.20799 5.73692,0 0,4.72451 -11.81129,0 0,16.15013 6.60468,0 0,-12.00412 4.53167,0 0,16.5358 -26.8526,0 0,-16.5358 4.53168,0 0,12.00412 6.60468,0 0,-16.15013 -11.81129,0 z"
         id="path5041"
         inkscape:connector-curvature="0" />
      <path
         d="m 212.44289,130.29323 40.73689,0 0,4.43526 -20.73001,0 0,12.77547 -4.48347,0 0,-12.77547 -19.95867,0 0,-30.13083 4.43526,0 z m 40.44764,12.29338 -1.0124,4.43526 c -1.92842,-0.44996 -3.78448,-1.10078 -5.56818,-1.95248 -1.78378,-0.8517 -3.49521,-1.81588 -5.13429,-2.89256 -1.63915,-1.07667 -3.13364,-2.32208 -4.48347,-3.73622 l 0,0 3.32644,-2.98898 c 3.63173,3.56749 7.92236,5.94582 12.8719,7.13498 z m -45.36499,0 c 4.91735,-1.18916 9.20797,-3.56749 12.87189,-7.13498 l 0,0 3.32645,2.98898 c -1.38202,1.41414 -2.89258,2.65955 -4.53168,3.73622 -1.63913,1.07668 -3.35056,2.04086 -5.13429,2.89256 -1.78376,0.8517 -3.62374,1.50252 -5.51997,1.95248 l 0,0 z m 7.61708,-40.68868 35.04818,0 0,25.88842 -35.04818,0 z m 4.43525,4.43526 0,2.69972 26.17767,0 0,-2.69972 z m 0,17.0179 26.17767,0 0,-2.69973 -26.17767,0 z m 0,-7.13498 26.17767,0 0,-2.74794 -26.17767,0 z"
         id="path5043"
         inkscape:connector-curvature="0" />
    </g>
  </g>
</svg>
