<?xml version="1.0" encoding="UTF-8" standalone="no"?>
<!-- Created with Inkscape (http://www.inkscape.org/) -->

<svg
   xmlns:osb="http://www.openswatchbook.org/uri/2009/osb"
   xmlns:dc="http://purl.org/dc/elements/1.1/"
   xmlns:cc="http://creativecommons.org/ns#"
   xmlns:rdf="http://www.w3.org/1999/02/22-rdf-syntax-ns#"
   xmlns:svg="http://www.w3.org/2000/svg"
   xmlns="http://www.w3.org/2000/svg"
   xmlns:sodipodi="http://sodipodi.sourceforge.net/DTD/sodipodi-0.dtd"
   xmlns:inkscape="http://www.inkscape.org/namespaces/inkscape"
   version="1.1"
   width="1005.4"
   height="1005.4"
   id="svg2"
   xml:space="preserve"
   inkscape:version="0.48.4 r9939"
   sodipodi:docname="AJAX1.svg"><sodipodi:namedview
     pagecolor="#ffffff"
     bordercolor="#666666"
     borderopacity="1"
     objecttolerance="10"
     gridtolerance="10"
     guidetolerance="10"
     inkscape:pageopacity="0"
     inkscape:pageshadow="2"
     inkscape:window-width="1280"
     inkscape:window-height="1004"
     id="namedview28"
     showgrid="false"
     fit-margin-top="0.2"
     fit-margin-left="0.2"
     fit-margin-right="0.2"
     fit-margin-bottom="0.2"
     inkscape:zoom="0.5"
     inkscape:cx="338.07872"
     inkscape:cy="427.75309"
     inkscape:window-x="-8"
     inkscape:window-y="-8"
     inkscape:window-maximized="1"
     inkscape:current-layer="svg2"
     showguides="true"
     inkscape:guide-bbox="true" /><metadata
     id="metadata8"><rdf:RDF><cc:Work
         rdf:about=""><dc:format>image/svg+xml</dc:format><dc:type
           rdf:resource="http://purl.org/dc/dcmitype/StillImage" /></cc:Work></rdf:RDF></metadata><defs
     id="defs6"><linearGradient
       id="linearGradient15703"
       osb:paint="solid"><stop
         style="stop-color:#ffffff;stop-opacity:1;"
         offset="0"
         id="stop15705" /></linearGradient></defs><path
     inkscape:connector-curvature="0"
     style="fill:#ffffff;fill-opacity:1;stroke:#0066b3;stroke-width:5;stroke-miterlimit:4;stroke-opacity:1;stroke-dasharray:none"
     d="M 1002.7001,502.7 C 1002.7001,226.5576 778.84238,2.7 502.7,2.7 226.55762,2.7 2.699976,226.5576 2.699976,502.7 c 0,276.1423 223.857644,500.0001 500.000024,500.0001 276.14238,0 500.0001,-223.8578 500.0001,-500.0001 z"
     id="path3854" /><path
     inkscape:connector-curvature="0"
     style="fill:#0066b3;fill-opacity:1;stroke:none"
     d="M 968.075,502.7 C 968.075,759.71951 759.71951,968.075 502.7,968.075 245.68048,968.075 37.325,759.71951 37.325,502.7 37.325,245.68048 245.68048,37.325 502.7,37.325 c 257.01951,0 465.375,208.35548 465.375,465.375 z"
     id="path3854-5" /><path
     id="path3856"
     d="M 933.45,502.7 C 933.45,740.59664 740.59664,933.45 502.7,933.45 264.80335,933.45 71.95,740.59664 71.95,502.7 71.95,264.80335 264.80335,71.95 502.7,71.95 c 237.89664,0 430.75,192.85335 430.75,430.75 z"
     style="fill:#ffffff;fill-opacity:1;stroke:none"
     inkscape:connector-curvature="0" /><path
     sodipodi:nodetypes="ccccc"
     inkscape:connector-curvature="0"
     id="path3865"
     d="M 617.47302,65.06045 764.17666,133.46948 387.92697,940.33954 241.22333,871.93052 z"
     style="fill:#0066b3;fill-opacity:1;stroke:none" /></svg>