<?xml version="1.0" encoding="UTF-8" standalone="no"?>
<!-- Created with Inkscape (http://www.inkscape.org/) -->

<svg
   xmlns:svg="http://www.w3.org/2000/svg"
   xmlns="http://www.w3.org/2000/svg"
   version="1.0"
   width="450"
   height="675"
   id="svg1890">
  <defs
     id="defs1893" />
  <rect
     width="447.5"
     height="672.5"
     rx="33.316483"
     x="1.25"
     y="1.25"
     id="rect2385"
     style="fill:#ffffff;fill-opacity:1;fill-rule:evenodd;stroke:#0066b3;stroke-width:2.5;stroke-linecap:butt;stroke-linejoin:round;stroke-miterlimit:4;stroke-opacity:1;stroke-dasharray:none;stroke-dashoffset:0;marker:none;visibility:visible;display:inline;overflow:visible;enable-background:accumulate" />
  <rect
     width="415"
     height="640"
     rx="22.503939"
     ry="22.503939"
     x="16.978363"
     y="17.24411"
     id="rect3157"
     style="fill:none;stroke:#0066b3;stroke-width:8;stroke-miterlimit:4;stroke-opacity:1;stroke-dasharray:none;marker:none;visibility:visible;display:inline;overflow:visible;enable-background:accumulate" />
  <g
     transform="matrix(0.66541234,0,0,0.66541234,68.473544,67.987246)"
     id="g2817">
    <path
       d="m 433.77954,345.74789 a 117.26752,105.1364 0 1 1 -234.53503,0 117.26752,105.1364 0 1 1 234.53503,0 z"
       transform="matrix(1.918916,0,0,2.133334,-371.1486,-502.3368)"
       id="path1926"
       style="color:#000000;fill:#ed1c23;fill-opacity:1;fill-rule:evenodd;stroke:#ed1c23;stroke-width:0.61780667;stroke-linecap:round;stroke-linejoin:miter;stroke-miterlimit:4;stroke-opacity:1;stroke-dasharray:none;stroke-dashoffset:0;marker:none;visibility:visible;display:inline;overflow:visible" />
    <path
       d="m 433.77954,345.74789 a 117.26752,105.1364 0 1 1 -234.53503,0 117.26752,105.1364 0 1 1 234.53503,0 z"
       transform="matrix(1.899727,0,0,2.112001,-365.075,-494.9608)"
       id="path9909"
       style="color:#000000;fill:#ffffff;fill-opacity:1;fill-rule:evenodd;stroke:#ffffff;stroke-width:0.6240471;stroke-linecap:round;stroke-linejoin:miter;stroke-miterlimit:4;stroke-opacity:1;stroke-dasharray:none;stroke-dashoffset:0;marker:none;visibility:visible;display:inline;overflow:visible" />
    <path
       d="m 433.77954,345.74789 a 117.26752,105.1364 0 1 1 -234.53503,0 117.26752,105.1364 0 1 1 234.53503,0 z"
       transform="matrix(1.77067,0,0,1.968522,-324.2268,-445.3535)"
       id="path9911"
       style="color:#000000;fill:#ed1c23;fill-opacity:1;fill-rule:evenodd;stroke:#ed1c23;stroke-width:0.66953158;stroke-linecap:round;stroke-linejoin:miter;stroke-miterlimit:4;stroke-opacity:1;stroke-dasharray:none;stroke-dashoffset:0;marker:none;visibility:visible;display:inline;overflow:visible" />
    <path
       d="m 183.06968,243.91997 a 33.820105,43.74557 0 1 1 -67.64021,0 33.820105,43.74557 0 1 1 67.64021,0 z"
       transform="matrix(4.393785,0,0,3.405282,-419.5596,-594.9888)"
       id="path2817"
       style="fill:#ffffff;fill-rule:evenodd;stroke:#ffffff;stroke-width:0.32315737;stroke-linecap:butt;stroke-linejoin:miter;stroke-miterlimit:4;stroke-opacity:1;stroke-dasharray:none" />
    <path
       d="M 107.34206,142.09206 349.59692,364.12838 375.69722,331.77872 136.38324,109.7424 107.34206,142.09206 z"
       id="path15326"
       style="fill:#ed1c23;fill-opacity:1;fill-rule:evenodd;stroke:#ed1c23;stroke-width:1px;stroke-linecap:butt;stroke-linejoin:miter;stroke-opacity:1" />
  </g>
  <g
     id="text2851-2-5-0"
     style="font-size:40px;font-style:normal;font-weight:normal;text-align:center;text-anchor:middle;fill:#0066b3;fill-opacity:1;stroke:none;font-family:'Rounded M+ 1m regular';-inkscape-font-specification:'Rounded M+ 1m regular'">
    <path
       d="m 71.564789,574.2149 c 5.479714,0.64092 11.039401,0.96135 16.679077,0.96131 3.840295,4e-5 7.020223,-0.0799 9.539795,-0.23987 0.800737,-0.0402 1.491044,0.19963 2.070923,0.7196 0.579786,0.52006 0.889846,1.15971 0.930176,1.91895 0.039,0.80082 -0.2213,1.5012 -0.78095,2.10114 -0.559732,0.60001 -1.239969,0.92014 -2.040706,0.96038 -3.519327,0.19901 -6.75907,0.2985 -9.719238,0.29847 -5.67996,3e-5 -11.339744,-0.33993 -16.97937,-1.0199 -0.800797,-0.0793 -1.461197,-0.42904 -1.981201,-1.0492 -0.520034,-0.62008 -0.759902,-1.32991 -0.719605,-2.12951 0.04027,-0.76046 0.360399,-1.39065 0.960388,-1.89057 0.59996,-0.49983 1.280197,-0.7101 2.040711,-0.6308 z m 15.479736,43.74024 c -7.880884,0 -13.801288,-1.09985 -17.76123,-3.29956 -3.959972,-2.1997 -5.93995,-5.19958 -5.939942,-8.99964 -8e-6,-3.72068 2.800282,-8.14085 8.400879,-13.26049 0.639631,-0.56028 1.379376,-0.83036 2.219238,-0.81024 0.839824,0.0202 1.560038,0.31038 2.160645,0.87066 0.560281,0.56033 0.830361,1.22042 0.810242,1.98029 -0.02016,0.75991 -0.310386,1.41939 -0.870667,1.97845 -4.079607,3.80007 -6.1194,6.78041 -6.119385,8.94104 -1.5e-5,2.08009 1.439803,3.73017 4.319458,4.95026 2.879617,1.2201 7.139866,1.83014 12.780762,1.83014 3.919642,0 8.919637,-0.67993 15.000005,-2.0398 0.79951,-0.20019 1.53925,-0.0803 2.21923,0.3598 0.67988,0.44007 1.09981,1.05989 1.25977,1.85944 0.15986,0.79956 -5e-5,1.54938 -0.47974,2.24945 -0.47978,0.70008 -1.11943,1.15021 -1.91894,1.3504 -6.199996,1.35987 -11.560098,2.0398 -16.080325,2.0398 z"
       id="path3753"
       style="font-size:60px;fill:#0066b3;font-family:'Rounded M+ 2c medium';-inkscape-font-specification:'Rounded M+ 2c medium'" />
    <path
       d="m 141.76376,580.09625 c -4.95974,0.83988 -8.86964,2.84977 -11.72973,6.02967 -2.86012,3.17995 -4.29018,7.08986 -4.29016,11.72973 -2e-5,2.96022 0.57005,5.42024 1.7102,7.38007 1.14012,1.95985 2.31017,2.93976 3.51013,2.93976 0.83983,0 1.72972,-0.52001 2.66968,-1.56006 0.93992,-1.04003 1.91007,-2.61016 2.91046,-4.71039 1.00035,-2.1002 2.00041,-5.00029 3.00019,-8.70026 0.99973,-3.69992 1.87985,-7.92965 2.64038,-12.68921 0.039,-0.11959 0.009,-0.22945 -0.0916,-0.32959 -0.10012,-0.10006 -0.20998,-0.12996 -0.32959,-0.0897 z m -10.92041,34.25904 c -2.83937,0 -5.42908,-1.56982 -7.76916,-4.70948 -2.3401,-3.13964 -3.51014,-6.96959 -3.51013,-11.48987 -1e-5,-7.12033 2.48992,-12.90035 7.46978,-17.34008 4.97985,-4.43966 11.54997,-6.65951 19.71039,-6.65955 6.71993,4e-5 12.22988,1.9199 16.52985,5.75958 4.29987,3.83976 6.44983,8.81992 6.44989,14.94049 -6e-5,5.43947 -1.44995,10.11903 -4.34967,14.0387 -2.89983,3.91968 -6.86986,6.61987 -11.9101,8.10059 -0.76053,0.24047 -1.50058,0.16052 -2.22015,-0.23987 -0.71964,-0.40039 -1.19968,-1.00037 -1.44013,-1.79993 -0.24051,-0.72021 -0.17062,-1.41021 0.20966,-2.07001 0.38021,-0.65978 0.93044,-1.10992 1.6507,-1.3504 3.71944,-1.28051 6.59938,-3.37066 8.63983,-6.27045 2.04036,-2.89976 3.06056,-6.3693 3.06061,-10.40863 -5e-5,-4.12106 -1.3001,-7.55154 -3.90015,-10.29144 -2.60014,-2.73983 -6.06022,-4.32949 -10.38025,-4.76898 -0.31986,-0.0805 -0.52005,0.0995 -0.60059,0.54016 -1.56009,11.47952 -3.86996,20.01924 -6.92962,25.6192 -3.05972,5.59998 -6.62997,8.39997 -10.71076,8.39997 z"
       id="path3755"
       style="font-size:60px;fill:#0066b3;font-family:'Rounded M+ 2c medium';-inkscape-font-specification:'Rounded M+ 2c medium'" />
    <path
       d="m 202.06406,596.35602 c -1.31961,11.83961 -7.57937,19.75952 -18.7793,23.75976 -0.80079,0.27954 -1.59119,0.24933 -2.37122,-0.0906 -0.78003,-0.33997 -1.3501,-0.90974 -1.7102,-1.70929 -0.31983,-0.72022 -0.31952,-1.43036 9.1e-4,-2.13044 0.32043,-0.70007 0.84015,-1.18987 1.55915,-1.46942 4.36034,-1.60034 7.84056,-3.9804 10.44067,-7.14019 2.60008,-3.15978 4.18028,-6.89971 4.7406,-11.21979 0.039,-0.12083 -0.001,-0.231 -0.12085,-0.33051 -0.11965,-0.0995 -0.23989,-0.14921 -0.36072,-0.14923 l -14.09912,0 c -0.7605,2e-5 -1.41052,-0.25999 -1.95007,-0.78003 -0.53956,-0.52 -0.80933,-1.16025 -0.80933,-1.92077 0,-0.76048 0.26977,-1.4105 0.80933,-1.95008 0.53955,-0.53952 1.18957,-0.8093 1.95007,-0.80932 l 20.39978,0 c 0.36008,2e-5 0.54014,-0.15989 0.54016,-0.47974 l 0,-9.00146 c -2e-5,-0.31979 -0.18008,-0.4797 -0.54016,-0.47974 l -10.55969,0 c -0.31984,4e-5 -0.55971,0.14042 -0.7196,0.42114 -0.96071,2.11918 -1.98061,4.05887 -3.0597,5.81909 -0.44068,0.76053 -1.08094,1.25064 -1.92077,1.47034 -0.83986,0.21976 -1.65956,0.12942 -2.45911,-0.271 -0.72022,-0.39914 -1.1905,-0.99881 -1.41083,-1.79901 -0.22034,-0.80014 -0.11017,-1.54019 0.33051,-2.22015 2.44017,-3.95993 4.37987,-8.20003 5.81909,-12.72034 0.24047,-0.79951 0.73058,-1.39949 1.47034,-1.79992 0.73973,-0.40035 1.48985,-0.50045 2.25036,-0.3003 0.79955,0.20025 1.39952,0.65038 1.79993,1.35041 0.40037,0.70011 0.48033,1.44993 0.23987,2.24945 -0.2405,0.88017 -0.44069,1.54057 -0.60059,1.9812 -0.0794,0.36015 0.0409,0.5402 0.36072,0.54016 l 8.45947,0 c 0.36008,4e-5 0.54014,-0.18001 0.54016,-0.54016 l 0,-3.30139 c -2e-5,-0.87886 0.31004,-1.63845 0.93018,-2.27875 0.62009,-0.64021 1.39005,-0.96034 2.30988,-0.96039 0.91976,5e-5 1.68972,0.32018 2.30987,0.96039 0.62008,0.6403 0.93014,1.39989 0.93018,2.27875 l 0,3.30139 c -4e-5,0.36015 0.15987,0.5402 0.47973,0.54016 l 15.06043,0 c 0.72016,4e-5 1.34028,0.26005 1.86035,0.78003 0.51997,0.52006 0.77998,1.13987 0.78003,1.85943 -5e-5,0.71965 -0.26006,1.33946 -0.78003,1.85944 -0.52007,0.52006 -1.14019,0.78007 -1.86035,0.78003 l -15.06043,0 c -0.31986,4e-5 -0.47977,0.15995 -0.47973,0.47974 l 0,9.00146 c -4e-5,0.31985 0.15987,0.47976 0.47973,0.47974 l 18.66028,0 c 0.76045,2e-5 1.41047,0.2698 1.95007,0.80932 0.5395,0.53958 0.80928,1.1896 0.80933,1.95008 -5e-5,0.76052 -0.26983,1.40077 -0.80933,1.92077 -0.5396,0.52004 -1.18962,0.78005 -1.95007,0.78003 l -12.78076,0 c -0.31986,2e-5 -0.47978,0.15993 -0.47974,0.47974 l 0,15.54016 c -4e-5,1.40015 0.24014,2.23999 0.72052,2.51953 0.48031,0.27954 2.04006,0.41931 4.67926,0.41931 0.92037,0 1.5707,-0.0101 1.95099,-0.0302 0.3802,-0.0201 0.83034,-0.11017 1.35041,-0.27008 0.51997,-0.15991 0.85993,-0.36987 1.01989,-0.62988 0.15987,-0.26001 0.34968,-0.69977 0.56946,-1.31928 0.21968,-0.6195 0.36952,-1.31927 0.44952,-2.0993 0.0799,-0.78003 0.16017,-1.85058 0.24079,-3.21167 0.0793,-0.79955 0.41895,-1.44927 1.01898,-1.94916 0.59992,-0.49987 1.28016,-0.72966 2.04071,-0.68939 0.79951,0.0391 1.4593,0.36866 1.97937,0.98877 0.51996,0.62012 0.7403,1.33057 0.66101,2.13134 -0.15997,2.08009 -0.31988,3.76008 -0.47973,5.03998 -0.15997,1.27991 -0.44012,2.42981 -0.84046,3.44971 -0.40044,1.0199 -0.8106,1.75995 -1.23047,2.22015 -0.41997,0.46021 -1.10997,0.85022 -2.07,1.17005 -0.96014,0.31982 -1.92022,0.50964 -2.88025,0.56946 -0.96013,0.0598 -2.31969,0.0897 -4.07868,0.0897 -2.72099,-10e-6 -4.76139,-0.0598 -6.12121,-0.17945 -1.3599,-0.11963 -2.4799,-0.45959 -3.35999,-1.01989 -0.88016,-0.56031 -1.43009,-1.26038 -1.64978,-2.10022 -0.21976,-0.83985 -0.32962,-2.09961 -0.32959,-3.7793 l 0,-16.86035 c -3e-5,-0.31981 -0.15994,-0.47972 -0.47974,-0.47974 l -5.22033,0 c -0.27957,2e-5 -0.45962,0.15993 -0.54016,0.47974 z"
       id="path3757"
       style="font-size:60px;fill:#0066b3;font-family:'Rounded M+ 2c medium';-inkscape-font-specification:'Rounded M+ 2c medium'" />
    <path
       d="m 253.18344,579.85638 -0.11902,0.0586 -9.18091,7.38098 c -0.55909,0.43948 -1.13892,0.50937 -1.7395,0.20966 -0.60059,-0.29966 -0.90088,-0.78946 -0.90088,-1.46943 l 0,-0.36071 c 0,-2.28024 0.88012,-4.12045 2.64038,-5.52063 l 6.7804,-5.46021 c 1.71995,-1.35982 3.67979,-2.03975 5.87952,-2.03979 0.92038,4e-5 1.70072,0.32017 2.341,0.96038 0.64023,0.64031 0.96036,1.42064 0.96039,2.34101 l 0,37.1997 c -3e-5,0.9192 -0.32016,1.69892 -0.96039,2.33918 -0.64028,0.64026 -1.42031,0.96039 -2.34009,0.96039 -0.91982,0 -1.69985,-0.32013 -2.34009,-0.96039 -0.64027,-0.64026 -0.9604,-1.41998 -0.96038,-2.33918 l 0,-33.24096 c -2e-5,-0.039 -0.0202,-0.0586 -0.0604,-0.0586 z"
       id="path3759"
       style="font-size:60px;fill:#0066b3;font-family:'Rounded M+ 2c medium';-inkscape-font-specification:'Rounded M+ 2c medium'" />
    <path
       d="m 298.62473,581.2663 c -1.57962,-2.62082 -3.98928,-3.93124 -7.22901,-3.93128 -3.23976,4e-5 -5.64973,1.31016 -7.22992,3.93036 -1.58021,2.62027 -2.37031,7.0502 -2.3703,13.2898 -1e-5,6.23964 0.79009,10.66956 2.3703,13.28979 1.58019,2.62025 3.99016,3.93036 7.22992,3.93036 3.23973,0 5.6497,-1.31011 7.22992,-3.93036 1.58017,-2.62023 2.37027,-7.05015 2.3703,-13.28979 -3e-5,-6.2396 -0.79043,-10.66922 -2.37121,-13.28888 z m 4.92004,30.45044 c -2.699,3.55957 -6.74868,5.33935 -12.14905,5.33935 -5.4004,0 -9.45039,-1.78009 -12.14996,-5.34027 -2.69959,-3.56017 -4.04938,-9.28038 -4.04938,-17.16064 0,-7.88022 1.34979,-13.60013 4.04938,-17.15973 2.69957,-3.55953 6.74956,-5.33931 12.14996,-5.33936 5.40037,5e-5 9.45035,1.77983 12.14996,5.33936 2.69956,3.5596 4.04935,9.27951 4.04938,17.15973 -3e-5,7.88026 -1.35013,13.60077 -4.05029,17.16156 z"
       id="path3761"
       style="font-size:60px;fill:#0066b3;font-family:'Rounded M+ 2c medium';-inkscape-font-specification:'Rounded M+ 2c medium'" />
    <path
       d="m 336.47629,581.2663 c -1.57962,-2.62082 -3.98928,-3.93124 -7.22901,-3.93128 -3.23976,4e-5 -5.64973,1.31016 -7.22992,3.93036 -1.58021,2.62027 -2.37031,7.0502 -2.3703,13.2898 -1e-5,6.23964 0.79009,10.66956 2.3703,13.28979 1.58019,2.62025 3.99016,3.93036 7.22992,3.93036 3.23973,0 5.6497,-1.31011 7.22992,-3.93036 1.58018,-2.62023 2.37028,-7.05015 2.3703,-13.28979 -2e-5,-6.2396 -0.79043,-10.66922 -2.37121,-13.28888 z m 4.92004,30.45044 c -2.699,3.55957 -6.74868,5.33935 -12.14905,5.33935 -5.4004,0 -9.45038,-1.78009 -12.14996,-5.34027 -2.69959,-3.56017 -4.04938,-9.28038 -4.04938,-17.16064 0,-7.88022 1.34979,-13.60013 4.04938,-17.15973 2.69958,-3.55953 6.74956,-5.33931 12.14996,-5.33936 5.40037,5e-5 9.45035,1.77983 12.14997,5.33936 2.69955,3.5596 4.04934,9.27951 4.04937,17.15973 -3e-5,7.88026 -1.35013,13.60077 -4.05029,17.16156 z"
       id="path3763"
       style="font-size:60px;fill:#0066b3;font-family:'Rounded M+ 2c medium';-inkscape-font-specification:'Rounded M+ 2c medium'" />
    <path
       d="m 358.81882,594.85638 0,18.47901 c -1e-5,0.88013 -0.31007,1.62018 -0.93018,2.22015 -0.62012,0.59998 -1.37025,0.89997 -2.25036,0.89997 -0.88014,0 -1.62019,-0.29999 -2.22016,-0.89997 -0.59998,-0.59997 -0.89997,-1.34002 -0.89996,-2.22015 l 0,-25.07996 c -1e-5,-0.83981 0.29022,-1.54965 0.87066,-2.12951 0.58044,-0.57981 1.29059,-0.86972 2.13044,-0.86976 0.83983,4e-5 1.55974,0.28995 2.15973,0.86976 0.59996,0.57986 0.92009,1.2897 0.96038,2.12951 l 0,0.54016 c -10e-6,0.0403 0.0195,0.0605 0.0586,0.0604 0.0806,3e-5 0.12084,-0.0201 0.12085,-0.0604 2.3596,-2.75998 4.9597,-4.13998 7.80029,-4.14001 1.76023,3e-5 3.18022,0.36014 4.25995,1.08032 1.07969,0.72025 2.01932,1.94034 2.81891,3.66028 -3e-5,0.0391 0.0403,0.0586 0.12085,0.0586 0.0402,3e-5 0.0799,-0.0195 0.11902,-0.0586 2.36081,-3.16037 5.1611,-4.74057 8.40087,-4.7406 3.28,3e-5 5.62985,0.88992 7.04957,2.66968 1.41963,1.77981 2.12947,4.89016 2.12951,9.33105 l 0,16.7395 c -4e-5,0.83985 -0.30979,1.55976 -0.92926,2.15973 -0.61955,0.59998 -1.34953,0.89997 -2.18994,0.89997 -0.84049,0 -1.56071,-0.29999 -2.16064,-0.89997 -0.60002,-0.59997 -0.9,-1.31988 -0.89997,-2.15973 l 0,-14.93957 c -3e-5,-3.6804 -0.32993,-6.10075 -0.98968,-7.26105 -0.65983,-1.16025 -1.92966,-1.74039 -3.80951,-1.74042 -1.1597,3e-5 -2.34958,0.6 -3.56964,1.79993 -1.22012,1.19997 -1.83017,2.40054 -1.83014,3.60168 l 0,18.53943 c -3e-5,0.83985 -0.30002,1.55976 -0.89997,2.15973 -0.6,0.59998 -1.31991,0.89997 -2.15972,0.89997 -0.83987,0 -1.56009,-0.29999 -2.16065,-0.89997 -0.60061,-0.59997 -0.9009,-1.31988 -0.90088,-2.15973 l 0,-14.93957 c -2e-5,-3.64012 -0.33998,-6.05039 -1.0199,-7.23084 -0.67995,-1.18039 -1.93971,-1.7706 -3.77929,-1.77063 -1.15969,3e-5 -2.34956,0.6 -3.56964,1.79993 -1.22011,1.19997 -1.83015,2.40054 -1.83014,3.60168 z"
       id="path3765"
       style="font-size:60px;fill:#0066b3;font-family:'Rounded M+ 2c medium';-inkscape-font-specification:'Rounded M+ 2c medium'" />
  </g>
  <g
     id="text2851"
     style="font-size:40px;font-style:normal;font-weight:normal;text-align:center;text-anchor:middle;fill:#0066b3;fill-opacity:1;stroke:none;font-family:'Rounded M+ 1m regular';-inkscape-font-specification:'Rounded M+ 1m regular'">
    <path
       d="m 63.972626,429.935 c -9e-6,0.48014 -0.166635,0.88684 -0.499878,1.22009 -0.33326,0.33325 -0.739957,0.49988 -1.220093,0.49988 l -0.39917,0 c -0.613613,0 -1.127121,-0.21322 -1.540527,-0.63965 -0.413417,-0.42643 -0.620122,-0.93303 -0.620117,-1.51978 l 0,-27.08007 c -5e-6,-0.61358 0.226639,-1.14703 0.679931,-1.60035 0.453282,-0.45326 0.986729,-0.6799 1.600342,-0.67993 l 8.880615,0 c 0.2132,3e-5 0.359685,-0.0932 0.439453,-0.27954 0.319808,-0.87969 0.65306,-1.86642 0.999756,-2.9602 0.187157,-0.61358 0.547264,-1.09372 1.080322,-1.44043 0.533022,-0.34665 1.106345,-0.47971 1.719971,-0.39917 0.586731,0.0529 1.040018,0.32616 1.359863,0.8197 0.319803,0.4936 0.399962,1.02034 0.240479,1.5802 -0.10663,0.42646 -0.373556,1.22643 -0.800781,2.3999 -0.05292,0.18639 0.02724,0.27957 0.240478,0.27954 l 12.080078,0 c 0.613573,3e-5 1.14702,0.22667 1.600342,0.67993 0.453253,0.45332 0.679896,0.98677 0.679932,1.60035 l 0,27.08007 c -3.6e-5,0.58675 -0.206741,1.09335 -0.620117,1.51978 -0.413446,0.42643 -0.926955,0.63965 -1.540528,0.63965 l -0.39917,0 c -0.480175,0 -0.886872,-0.16663 -1.220092,-0.49988 -0.333284,-0.33325 -0.499909,-0.73995 -0.499878,-1.22009 -3.1e-5,-0.18636 -0.09362,-0.27954 -0.280762,-0.27954 l -21.679688,0 c -0.187183,0 -0.28077,0.0932 -0.280761,0.27954 z m 0,-25.83985 0,4.44092 c -9e-6,0.21324 0.120027,0.31985 0.360107,0.31983 l 21.520996,0 c 0.240041,2e-5 0.360077,-0.10659 0.360108,-0.31983 l 0,-4.44092 c -3.1e-5,-0.24004 -0.120067,-0.36008 -0.360108,-0.3601 l -21.520996,0 c -0.24008,2e-5 -0.360116,0.12006 -0.360107,0.3601 z m 0,8.52051 0,4.47998 c -9e-6,0.24008 0.120027,0.36012 0.360107,0.36011 l 21.520996,0 c 0.240041,10e-6 0.360077,-0.12003 0.360108,-0.36011 l 0,-4.47998 c -3.1e-5,-0.24005 -0.120067,-0.36009 -0.360108,-0.36011 l -21.520996,0 c -0.24008,2e-5 -0.360116,0.12006 -0.360107,0.36011 z m 0,8.55957 0,4.63989 c -9e-6,0.21322 0.120027,0.31983 0.360107,0.31983 l 21.520996,0 c 0.240041,0 0.360077,-0.10661 0.360108,-0.31983 l 0,-4.63989 c -3.1e-5,-0.21321 -0.120067,-0.31981 -0.360108,-0.31982 l -21.520996,0 c -0.24008,10e-6 -0.360116,0.10661 -0.360107,0.31982 z"
       id="path3740"
       style="fill:#0066b3;font-family:'Rounded M+ 1m medium';-inkscape-font-specification:'Rounded M+ 1m medium'" />
    <path
       d="m 136.49338,399.61517 c -2e-5,-0.53301 0.18003,-0.97958 0.54016,-1.33972 0.36008,-0.36008 0.79323,-0.54013 1.29944,-0.54016 l 11.60034,0 c 0.50696,3e-5 0.94703,0.1868 1.32019,0.5603 0.37309,0.37357 0.55966,0.81363 0.55969,1.32019 -3e-5,0.50662 -0.18009,0.93997 -0.54016,1.30005 -0.36014,0.36014 -0.80672,0.54019 -1.33972,0.54016 l -11.60034,0 c -0.50621,3e-5 -0.93936,-0.18002 -1.29944,-0.54016 -0.36013,-0.36008 -0.54018,-0.79363 -0.54016,-1.30066 z m -11.60034,30.52002 0,-2.44018 c -1e-5,-0.21322 -0.12005,-0.31983 -0.36011,-0.31983 l -5.52002,0 c -0.45329,0 -0.85328,-0.17334 -1.19995,-0.52002 -0.34668,-0.34667 -0.52002,-0.74666 -0.52002,-1.19995 0,-0.45328 0.17334,-0.84655 0.52002,-1.17981 0.34667,-0.33324 0.74666,-0.49987 1.19995,-0.49988 l 5.52002,0 c 0.24006,10e-6 0.3601,-0.12003 0.36011,-0.3601 l 0,-2.12036 c -1e-5,-0.21321 -0.12005,-0.31982 -0.36011,-0.31983 l -2.83936,0 -1.3208,0 c -0.6128,10e-6 -1.14584,-0.22663 -1.59912,-0.67993 -0.45329,-0.45328 -0.67993,-0.98673 -0.67993,-1.60034 l 0,-11.0791 c 0,-0.61359 0.22664,-1.14032 0.67993,-1.5802 0.45328,-0.43984 0.98632,-0.65977 1.59912,-0.65979 l 4.16016,0 c 0.24006,2e-5 0.3601,-0.12002 0.36011,-0.36011 l 0,-2.12036 c -1e-5,-0.21319 -0.12005,-0.3198 -0.36011,-0.31983 l -5.52002,0 c -0.45329,3e-5 -0.85328,-0.17331 -1.19995,-0.52002 -0.34668,-0.34665 -0.52002,-0.74663 -0.52002,-1.19995 0,-0.45326 0.17334,-0.85324 0.52002,-1.19995 0.34667,-0.34665 0.74666,-0.51999 1.19995,-0.52002 l 5.52002,0 c 0.24006,3e-5 0.3601,-0.10658 0.36011,-0.31982 l 0,-0.88013 c -1e-5,-0.58672 0.20669,-1.08009 0.62011,-1.4801 0.4134,-0.39995 0.91348,-0.59994 1.50025,-0.59998 0.58674,4e-5 1.0801,0.20003 1.4801,0.59998 0.39997,0.40001 0.59996,0.89338 0.59998,1.4801 l 0,0.88013 c -2e-5,0.21324 0.10659,0.31985 0.31982,0.31982 l 4.39941,0 c 0.45327,3e-5 0.84675,0.17337 1.18042,0.52002 0.33364,0.34671 0.50047,0.74669 0.50049,1.19995 -2e-5,0.45332 -0.16685,0.8533 -0.50049,1.19995 -0.33367,0.34671 -0.72715,0.52005 -1.18042,0.52002 l -4.39941,0 c -0.21323,3e-5 -0.31984,0.10664 -0.31982,0.31983 l 0,2.12036 c -2e-5,0.24009 0.10659,0.36013 0.31982,0.36011 l 4.27978,0 c 0.55988,2e-5 1.03331,0.1933 1.42029,0.57983 0.38695,0.38658 0.58043,0.8598 0.58045,1.41968 -2e-5,0.18638 0.0932,0.27956 0.27954,0.27954 l 15.27954,0 c 0.53382,2e-5 0.97408,0.18007 1.3208,0.54016 0.34664,0.36013 0.51998,0.79368 0.52002,1.30066 -4e-5,0.53306 -0.18009,0.97963 -0.54016,1.33972 -0.36015,0.36013 -0.7937,0.54018 -1.30066,0.54016 l -6.76025,0 c -0.21325,2e-5 -0.34631,0.10663 -0.39917,0.31983 -0.77314,4.69321 -1.6667,9.29322 -2.68067,13.80005 -0.0261,0.0798 -0.006,0.15299 0.0604,0.21972 0.0663,0.0667 0.13974,0.0867 0.22033,0.0598 2.6668,-0.42643 4.68015,-0.75968 6.04004,-0.99976 0.21319,-0.0529 0.29294,-0.18595 0.23926,-0.39917 -0.90661,-3.22672 -1.50638,-5.34708 -1.79932,-6.36108 -0.13349,-0.50618 -0.0802,-0.9794 0.15992,-1.41968 0.24004,-0.44026 0.61316,-0.71369 1.11938,-0.82031 0.50697,-0.13264 0.99382,-0.0791 1.46057,0.16052 0.46668,0.23968 0.77979,0.61301 0.93933,1.11999 1.36064,4.31967 2.45399,8.25318 3.28003,11.80054 0.13343,0.53304 0.0535,1.03963 -0.23987,1.51978 -0.29341,0.48014 -0.69319,0.77351 -1.19934,0.88012 -0.53389,0.13265 -1.02746,0.059 -1.48071,-0.22094 -0.45332,-0.27995 -0.73327,-0.67302 -0.83984,-1.1792 -0.0269,-0.16032 -0.0802,-0.38717 -0.15992,-0.68054 -0.0798,-0.29338 -0.13309,-0.51982 -0.15991,-0.67933 -0.0537,-0.24007 -0.18721,-0.33365 -0.40039,-0.28076 -3.94615,0.79997 -7.90611,1.45345 -11.87988,1.96045 -0.61282,0.0797 -1.15257,-0.0804 -1.61926,-0.48035 -0.46674,-0.39998 -0.71352,-0.90677 -0.74036,-1.52038 l 0,-0.67993 c -2e-5,-0.21322 -0.12006,-0.31983 -0.36011,-0.31983 l -4.63989,0 c -0.21323,0 -0.31984,0.10661 -0.31982,0.31983 l 0,2.44018 c -2e-5,0.58675 -0.20001,1.08683 -0.59998,1.50025 -0.4,0.4134 -0.89336,0.62011 -1.4801,0.62011 -0.58677,0 -1.08685,-0.20671 -1.50025,-0.62011 -0.41342,-0.41342 -0.62012,-0.9135 -0.62011,-1.50025 z m 4.52026,-18.39966 2.55981,0 c 0.2132,2e-5 0.31981,-0.10659 0.31983,-0.31982 l 0,-2.32056 c -2e-5,-0.21319 -0.10663,-0.3198 -0.31983,-0.31982 l -2.55981,0 c -0.21323,2e-5 -0.31984,0.10663 -0.31982,0.31982 l 0,2.32056 c -2e-5,0.21323 0.10659,0.31984 0.31982,0.31982 z m 2.55981,3.03956 -2.55981,0 c -0.21323,1e-5 -0.31984,0.10662 -0.31982,0.31982 l 0,2.52075 c -2e-5,0.24008 0.10659,0.36012 0.31982,0.36011 l 2.55981,0 c 0.2132,10e-6 0.31981,-0.12003 0.31983,-0.36011 l 0,-2.52075 c -2e-5,-0.2132 -0.10663,-0.31981 -0.31983,-0.31982 z m -10.27954,-5.67994 0,2.32056 c 0,0.21323 0.12003,0.31984 0.36011,0.31982 l 2.47925,0 c 0.24006,2e-5 0.3601,-0.10659 0.36011,-0.31982 l 0,-2.32056 c -1e-5,-0.21319 -0.12005,-0.3198 -0.36011,-0.31982 l -2.47925,0 c -0.24008,2e-5 -0.36011,0.10663 -0.36011,0.31982 z m 0,5.99976 0,2.52075 c 0,0.24008 0.12003,0.36012 0.36011,0.36011 l 2.47925,0 c 0.24006,10e-6 0.3601,-0.12003 0.36011,-0.36011 l 0,-2.52075 c -1e-5,-0.2132 -0.12005,-0.31981 -0.36011,-0.31982 l -2.47925,0 c -0.24008,1e-5 -0.36011,0.10662 -0.36011,0.31982 z m 11.71997,6.08032 -4.00024,0 c -0.21323,10e-6 -0.31984,0.10662 -0.31982,0.31983 l 0,2.12036 c -2e-5,0.24007 0.10659,0.36011 0.31982,0.3601 l 3.80005,0 c 0.61359,10e-6 1.14703,0.21994 1.60034,0.65979 0.45327,0.43987 0.67991,0.9666 0.67993,1.58021 l 0,0.27954 c -2e-5,0.24007 0.12002,0.33366 0.36011,0.28076 0.42641,-0.0537 0.75966,-0.094 0.99976,-0.12085 0.24004,-0.0529 0.3731,-0.17253 0.39917,-0.35889 0.98711,-4.32047 1.93397,-9.1341 2.84057,-14.44092 0.0537,-0.18634 -0.0395,-0.27952 -0.27954,-0.27954 l -3.76099,0 c -0.23927,2e-5 -0.3589,0.10663 -0.35888,0.31983 l 0,6.99951 c -2e-5,0.61361 -0.22687,1.14706 -0.68054,1.60034 -0.45372,0.4533 -0.98696,0.67994 -1.59974,0.67993 z"
       id="path3742"
       style="fill:#0066b3;font-family:'Rounded M+ 1m medium';-inkscape-font-specification:'Rounded M+ 1m medium'" />
    <path
       d="m 192.89352,430.25604 0,-2.36084 c -1e-5,-0.21321 -0.12005,-0.31982 -0.3601,-0.31982 l -13.91968,0 c -0.45329,0 -0.85328,-0.17334 -1.19995,-0.52002 -0.34668,-0.34668 -0.52002,-0.74666 -0.52002,-1.19995 0,-0.45329 0.17334,-0.84656 0.52002,-1.17981 0.34667,-0.33325 0.74666,-0.49988 1.19995,-0.49988 l 13.91968,0 c 0.24005,0 0.36009,-0.12003 0.3601,-0.36011 l 0,-2.32055 c -1e-5,-0.21321 -0.12005,-0.31982 -0.3601,-0.31983 l -8.1604,0 -1.79932,0 c -0.61361,10e-6 -1.14706,-0.22663 -1.60034,-0.67993 -0.4533,-0.45328 -0.67994,-0.98673 -0.67993,-1.60034 l 0,-11.0791 c -1e-5,-0.61359 0.22663,-1.14032 0.67993,-1.5802 0.45328,-0.43984 0.98673,-0.65977 1.60034,-0.65979 l 9.95972,0 c 0.24005,2e-5 0.36009,-0.12002 0.3601,-0.36011 l 0,-2.12036 c -1e-5,-0.21319 -0.12005,-0.3198 -0.3601,-0.31983 l -13.52051,0 c -0.45329,3e-5 -0.85328,-0.17331 -1.19995,-0.52002 -0.34668,-0.34665 -0.52002,-0.74663 -0.52002,-1.19995 0,-0.45326 0.17334,-0.85324 0.52002,-1.19995 0.34667,-0.34665 0.74666,-0.51999 1.19995,-0.52002 l 13.52051,0 c 0.24005,3e-5 0.36009,-0.10658 0.3601,-0.31982 l 0,-1.16089 c -1e-5,-0.61276 0.21992,-1.13258 0.65979,-1.55945 0.43985,-0.42681 0.95315,-0.64022 1.53992,-0.64026 0.58673,4e-5 1.10004,0.21345 1.53992,0.64026 0.43984,0.42687 0.65977,0.94669 0.65979,1.55945 l 0,1.16089 c -2e-5,0.21324 0.12001,0.31985 0.36011,0.31982 l 13.5205,0 c 0.45325,3e-5 0.85324,0.17337 1.19995,0.52002 0.34665,0.34671 0.51999,0.74669 0.52002,1.19995 -3e-5,0.45332 -0.17337,0.8533 -0.52002,1.19995 -0.34671,0.34671 -0.7467,0.52005 -1.19995,0.52002 l -13.5205,0 c -0.2401,3e-5 -0.36013,0.10664 -0.36011,0.31983 l 0,2.12036 c -2e-5,0.24009 0.12001,0.36013 0.36011,0.36011 l 9.95971,0 c 0.61358,2e-5 1.14702,0.21995 1.60034,0.65979 0.45326,0.43988 0.6799,0.96661 0.67994,1.5802 l 0,11.0791 c -4e-5,0.61361 -0.22668,1.14706 -0.67994,1.60034 -0.45332,0.4533 -0.98676,0.67994 -1.60034,0.67993 l -9.95971,0 c -0.2401,10e-6 -0.36013,0.10662 -0.36011,0.31983 l 0,2.32055 c -2e-5,0.24008 0.12001,0.36011 0.36011,0.36011 l 13.91967,0 c 0.45325,0 0.85324,0.16663 1.19995,0.49988 0.34665,0.33325 0.51999,0.72652 0.52002,1.17981 -3e-5,0.45329 -0.17337,0.85327 -0.52002,1.19995 -0.34671,0.34668 -0.7467,0.52002 -1.19995,0.52002 l -13.91967,0 c -0.2401,0 -0.36013,0.10661 -0.36011,0.31982 l 0,2.36084 c -2e-5,0.61279 -0.21995,1.13261 -0.65979,1.55945 -0.43988,0.42684 -0.95319,0.64026 -1.53992,0.64026 -0.58677,0 -1.10007,-0.21342 -1.53992,-0.64026 -0.43987,-0.42684 -0.6598,-0.94666 -0.65979,-1.55945 z m 12.91993,-12.64038 0,-2.52075 c -3e-5,-0.2132 -0.12007,-0.31981 -0.36011,-0.31982 l -7.80029,0 c -0.2401,1e-5 -0.36013,0.10662 -0.36011,0.31982 l 0,2.52075 c -2e-5,0.24008 0.12001,0.36012 0.36011,0.36011 l 7.80029,0 c 0.24004,10e-6 0.36008,-0.12003 0.36011,-0.36011 z m -0.36011,-8.84033 -7.80029,0 c -0.2401,2e-5 -0.36013,0.10663 -0.36011,0.31982 l 0,2.32056 c -2e-5,0.21323 0.12001,0.31984 0.36011,0.31982 l 7.80029,0 c 0.24004,2e-5 0.36008,-0.10659 0.36011,-0.31982 l 0,-2.32056 c -3e-5,-0.21319 -0.12007,-0.3198 -0.36011,-0.31982 z m -21.08032,0.31982 0,2.32056 c -1e-5,0.21323 0.12002,0.31984 0.3601,0.31982 l 7.8003,0 c 0.24005,2e-5 0.36009,-0.10659 0.3601,-0.31982 l 0,-2.32056 c -1e-5,-0.21319 -0.12005,-0.3198 -0.3601,-0.31982 l -7.8003,0 c -0.24008,2e-5 -0.36011,0.10663 -0.3601,0.31982 z m 0.3601,8.88062 7.8003,0 c 0.24005,10e-6 0.36009,-0.12003 0.3601,-0.36011 l 0,-2.52075 c -1e-5,-0.2132 -0.12005,-0.31981 -0.3601,-0.31982 l -7.8003,0 c -0.24008,1e-5 -0.36011,0.10662 -0.3601,0.31982 l 0,2.52075 c -1e-5,0.24008 0.12002,0.36012 0.3601,0.36011 z"
       id="path3744"
       style="fill:#0066b3;font-family:'Rounded M+ 1m medium';-inkscape-font-specification:'Rounded M+ 1m medium'" />
    <path
       d="m 241.49338,418.51532 c -0.5599,0.0936 -1.0665,-0.006 -1.51978,-0.29968 -0.45329,-0.29337 -0.72673,-0.70678 -0.82031,-1.24024 -0.0936,-0.53343 0.0195,-1.01337 0.33936,-1.43982 2.53335,-3.67999 4.66673,-7.39988 6.40014,-11.15966 0.1066,-0.2132 0.0403,-0.3198 -0.19897,-0.31983 l -5.32105,0 c -0.45329,3e-5 -0.84656,-0.1668 -1.17981,-0.50049 -0.33325,-0.33363 -0.49988,-0.7271 -0.49988,-1.18042 0,-0.45326 0.16663,-0.85324 0.49988,-1.19995 0.33325,-0.34665 0.72652,-0.51999 1.17981,-0.52002 l 6.71997,0 c 0.24006,3e-5 0.40038,-0.10658 0.48096,-0.31982 0.53303,-1.43959 0.8264,-2.23955 0.88013,-2.3999 0.2132,-0.55987 0.55968,-0.97979 1.03943,-1.25977 0.47972,-0.27992 0.99953,-0.36659 1.55944,-0.26001 0.50699,0.10664 0.89375,0.40653 1.16028,0.89966 0.2665,0.49319 0.30658,0.99327 0.12024,1.50024 -0.0537,0.1335 -0.1404,0.37357 -0.26001,0.72022 -0.11964,0.34671 -0.21974,0.61323 -0.30029,0.79956 -0.0529,0.21324 0.0272,0.31985 0.24048,0.31982 l 15,0 c 0.45325,3e-5 0.84652,0.17337 1.17981,0.52002 0.33322,0.34671 0.49984,0.74669 0.49987,1.19995 -3e-5,0.45332 -0.16665,0.84679 -0.49987,1.18042 -0.33329,0.33369 -0.72656,0.50052 -1.17981,0.50049 l -16.35987,0 c -0.24008,3e-5 -0.39999,0.10663 -0.47973,0.31983 -0.13348,0.3467 -0.28688,0.72654 -0.46021,1.13952 -0.17335,0.41303 -0.38006,0.88625 -0.62011,1.41968 -0.24009,0.53347 -0.44029,0.97353 -0.60059,1.32019 l 0,0.0806 0.0806,0 c 1.73338,-0.7202 3.30646,-1.0803 4.71923,-1.08033 3.22671,3e-5 5.44025,1.54665 6.64063,4.6399 0.10658,0.18637 0.24005,0.26653 0.40039,0.24048 2.18666,-0.48013 4.4531,-0.86709 6.79932,-1.16089 0.48011,-0.0529 0.91346,0.0674 1.30004,0.36071 0.38653,0.2934 0.59323,0.68016 0.62012,1.16028 0.0537,0.47935 -0.0729,0.919 -0.37964,1.31897 -0.30683,0.4 -0.70031,0.62685 -1.18042,0.68054 -2.29332,0.31984 -4.38642,0.67995 -6.27929,1.08033 -0.26696,0.0529 -0.37397,0.19939 -0.32105,0.43945 0.18715,1.30698 0.30719,2.82716 0.36011,4.56055 0.0268,0.58676 -0.15974,1.08012 -0.55969,1.4801 -0.40001,0.39999 -0.89338,0.59998 -1.48011,0.59997 -0.58677,10e-6 -1.08685,-0.19998 -1.50024,-0.59997 -0.41343,-0.39998 -0.63316,-0.89334 -0.65918,-1.4801 -0.0537,-1.59993 -0.10704,-2.76 -0.15991,-3.48023 -2e-5,-0.24006 -0.12006,-0.33324 -0.36011,-0.27954 -5.22707,1.70655 -7.84059,3.65317 -7.84058,5.83984 -1e-5,0.63966 0.12003,1.18613 0.36011,1.63941 0.24006,0.45329 0.69335,0.87993 1.35987,1.27991 0.66648,0.39998 1.67316,0.70007 3.02001,0.90026 1.34683,0.2002 3.03343,0.3003 5.05982,0.3003 2.37383,0 5.06711,-0.21362 8.07983,-0.64087 0.48011,-0.0529 0.92018,0.0673 1.32019,0.36072 0.39995,0.29337 0.61337,0.68013 0.64026,1.16027 0.0537,0.50619 -0.0729,0.96599 -0.37964,1.3794 -0.30683,0.41341 -0.71373,0.64697 -1.2207,0.70068 -2.66604,0.34668 -5.47935,0.52002 -8.43994,0.52002 -4.96014,0 -8.53354,-0.58004 -10.72022,-1.74011 -2.18669,-1.16007 -3.28003,-2.98034 -3.28002,-5.46082 -1e-5,-4.15933 3.77358,-7.39907 11.3208,-9.71923 0.24005,-0.0537 0.30678,-0.20059 0.20019,-0.44068 -0.3467,-0.8268 -0.8067,-1.40013 -1.38,-1.71997 -0.57335,-0.3198 -1.28685,-0.47972 -2.14051,-0.47973 -1.25327,10e-6 -2.73317,0.59999 -4.43969,1.79992 -1.70656,1.19997 -3.43995,2.93316 -5.2002,5.19959 -0.34669,0.4533 -0.79997,0.72673 -1.35986,0.82031 z"
       id="path3746"
       style="fill:#0066b3;font-family:'Rounded M+ 1m medium';-inkscape-font-specification:'Rounded M+ 1m medium'" />
    <path
       d="m 307.5737,426.57562 c 1.78628,-2.00032 3.27961,-4.21386 4.47998,-6.64062 0.2132,-0.45328 0.55968,-0.77311 1.03943,-0.95948 0.47972,-0.18635 0.95966,-0.18635 1.43982,0 0.48012,0.21323 0.82029,0.5532 1.02051,1.0199 0.20017,0.46673 0.19325,0.92673 -0.0208,1.38001 -1.25327,2.71973 -2.94638,5.27995 -5.07934,7.68066 -0.37355,0.39958 -0.82704,0.61279 -1.36048,0.63965 -0.53346,0.0269 -0.99997,-0.13306 -1.39953,-0.47974 -0.37355,-0.34668 -0.57354,-0.78003 -0.59998,-1.30005 -0.0265,-0.52001 0.13366,-0.96679 0.48035,-1.34033 z m 17.47925,-6.40014 c 0.0805,-0.48014 0.33403,-0.8669 0.7605,-1.16028 0.4264,-0.29337 0.89962,-0.39998 1.41967,-0.31983 0.51999,0.0802 0.92689,0.32004 1.22071,0.71961 1.62594,2.18669 3.18559,4.587 4.67895,7.20093 0.26689,0.47933 0.34034,0.98571 0.22034,1.51916 -0.12008,0.53345 -0.40674,0.96008 -0.85999,1.27991 -0.42647,0.29378 -0.88647,0.38065 -1.38,0.26062 -0.49361,-0.12004 -0.87345,-0.4067 -1.13953,-0.85999 -1.44046,-2.56022 -2.97407,-4.98697 -4.60083,-7.28027 -0.293,-0.42643 -0.3996,-0.87971 -0.31982,-1.35986 z m -23.15918,-19.47998 0,29.16015 c -1e-5,0.5599 -0.19349,1.03312 -0.58045,1.41968 -0.38696,0.38655 -0.86039,0.57983 -1.42028,0.57983 -0.5599,0 -1.03313,-0.19328 -1.41968,-0.57983 -0.38656,-0.38656 -0.57984,-0.85978 -0.57984,-1.41968 l 0,-30.52002 c 0,-0.61357 0.22665,-1.14702 0.67994,-1.60034 0.45328,-0.45326 0.98673,-0.6799 1.60034,-0.67993 l 8.87939,0 c 0.45328,3e-5 0.84003,0.16015 1.16028,0.48035 0.32022,0.32026 0.48033,0.70702 0.48035,1.16027 -2e-5,1.19958 -0.18679,2.27949 -0.56031,3.23975 -0.29379,0.87975 -0.61402,1.70616 -0.96069,2.47925 -0.026,0.0269 -0.0191,0.0537 0.0208,0.0806 0.0399,0.0269 0.0862,0.0269 0.13916,0 2.93374,-1.97344 5.57371,-4.22686 7.91993,-6.76025 0.98711,-1.06686 2.17404,-1.60031 3.56079,-1.60034 1.38669,3e-5 2.57321,0.53348 3.55957,1.60034 2.37383,2.4805 4.97392,4.68061 7.80029,6.60034 0.4801,0.31985 0.82678,0.74649 1.04004,1.27991 0.21318,0.53347 0.23962,1.08014 0.0793,1.64001 -0.13268,0.45331 -0.42586,0.77334 -0.87951,0.96009 -0.45373,0.18678 -0.88037,0.14671 -1.27991,-0.12024 -0.10664,-0.0797 -0.38659,-0.27301 -0.83984,-0.57984 -0.45333,-0.30678 -0.80001,-0.53993 -1.04004,-0.69946 -0.0269,-0.0268 -0.0603,-0.027 -0.1001,-6.1e-4 -0.0399,0.0265 -0.0599,0.0531 -0.0598,0.08 -4e-5,0.40041 -0.14001,0.74058 -0.41993,1.0205 -0.27998,0.27997 -0.62015,0.41995 -1.0205,0.41993 l -4.39942,0 c -0.2401,2e-5 -0.36013,0.12005 -0.36011,0.3601 l 0,3.91968 c -2e-5,0.21323 0.12001,0.31984 0.36011,0.31983 l 7.87964,0 c 0.48011,1e-5 0.89352,0.17335 1.24023,0.52002 0.34665,0.34669 0.51999,0.7601 0.52002,1.24023 -3e-5,0.48016 -0.17337,0.89357 -0.52002,1.24023 -0.34671,0.3467 -0.76012,0.52004 -1.24023,0.52002 l -7.87964,0 c -0.2401,2e-5 -0.36013,0.10662 -0.36011,0.31983 l 0,9.07959 c -2e-5,2.66683 -0.24681,4.30013 -0.74035,4.8999 -0.4936,0.59977 -1.8736,0.89966 -4.14002,0.89966 -0.90659,0 -1.8266,-0.0265 -2.76001,-0.0793 -0.53306,-0.0269 -0.98634,-0.23356 -1.35986,-0.62011 -0.37355,-0.38656 -0.57355,-0.83314 -0.59998,-1.33973 -0.0265,-0.50659 0.13365,-0.93322 0.48035,-1.2799 0.34666,-0.34668 0.77309,-0.507 1.2793,-0.48096 0.7739,0.0537 1.52057,0.0806 2.23999,0.0806 0.69333,0 1.10003,-0.0867 1.22009,-0.26001 0.12001,-0.17334 0.18003,-0.78003 0.18005,-1.82007 l 0,-9.07959 c -2e-5,-0.21321 -0.10663,-0.31981 -0.31982,-0.31983 l -8.52051,0 c -0.24008,2e-5 -0.33326,0.12005 -0.27954,0.36011 0.0797,0.63966 0.11962,1.27931 0.11963,1.91895 -10e-6,1.81397 -0.37986,3.18095 -1.13953,4.10095 -0.75969,0.92001 -1.93991,1.44633 -3.54065,1.57898 -0.50619,0.0269 -0.95256,-0.11963 -1.33911,-0.43946 -0.38656,-0.31981 -0.63314,-0.73323 -0.73974,-1.24023 -0.0806,-0.42643 0.0191,-0.80627 0.29907,-1.13953 0.27994,-0.33324 0.64656,-0.54015 1.09985,-0.62072 0.58674,-0.13265 0.99344,-0.4191 1.2201,-0.85938 0.22663,-0.44026 0.33995,-1.19384 0.33996,-2.26074 -10e-6,-1.9466 -0.70639,-3.87979 -2.11914,-5.79956 -0.90658,-1.22638 -1.01319,-2.47964 -0.31982,-3.75977 1.30614,-2.42673 2.4125,-4.97352 3.31909,-7.64038 0.0537,-0.18633 -0.026,-0.27951 -0.23926,-0.27954 l -4.32007,0 c -0.21322,3e-5 -0.31983,0.10664 -0.31982,0.31983 z m 18.6792,-1.35987 c -1.73342,1.9735 -3.5067,3.73334 -5.31983,5.27954 -0.0529,0.0537 -0.0728,0.10725 -0.0598,0.16053 0.013,0.0533 0.0464,0.08 0.1001,0.08 l 11.08032,0 c 0.0529,3e-5 0.0927,-0.0266 0.11963,-0.08 0.0268,-0.0533 0.0134,-0.10679 -0.0403,-0.16053 -1.84003,-1.5462 -3.65318,-3.30604 -5.43945,-5.27954 -0.16034,-0.16029 -0.30723,-0.16029 -0.44067,0 z m -12.15943,7.6001 -0.0403,-0.2002 c -0.0269,-0.0537 -0.0737,-0.0805 -0.14038,-0.0806 -0.0668,2e-5 -0.11313,0.0269 -0.13916,0.0806 -0.4533,1.04006 -0.94687,2.04023 -1.48071,3.00049 -0.10662,0.18638 -0.0932,0.37274 0.0403,0.55908 1.33299,1.81399 2.21312,3.54738 2.64038,5.2002 0.026,0.0269 0.0659,0.0403 0.11963,0.0403 l 0,-0.31982 c -10e-6,-0.61359 0.21992,-1.14704 0.65979,-1.60034 0.43984,-0.45327 0.96658,-0.67992 1.5802,-0.67993 l 6.71997,0 c 0.21319,10e-6 0.3198,-0.1066 0.31982,-0.31983 l 0,-3.91968 c -2e-5,-0.24005 -0.10663,-0.36008 -0.31982,-0.3601 l -4.20044,0 c -0.42645,2e-5 -0.77964,-0.13996 -1.05957,-0.41993 -0.27996,-0.27992 -0.41994,-0.63352 -0.41992,-1.06079 -2e-5,-0.10658 -0.0533,-0.13303 -0.15991,-0.0793 -0.3467,0.26613 -0.89357,0.63926 -1.64063,1.11938 -0.4533,0.31985 -0.94646,0.37315 -1.47949,0.15991 -0.53305,-0.21319 -0.86631,-0.58632 -0.99976,-1.11938 z"
       id="path3748"
       style="fill:#0066b3;font-family:'Rounded M+ 1m medium';-inkscape-font-specification:'Rounded M+ 1m medium'" />
    <path
       d="m 367.13303,419.65546 c -2.53338,-1.76025 -4.10666,-2.97362 -4.71985,-3.64014 -0.61321,-0.66649 -0.91981,-1.58649 -0.9198,-2.76001 -10e-6,-1.22638 0.32673,-2.18626 0.98022,-2.87964 0.65348,-0.69334 2.28678,-1.89329 4.8999,-3.59985 4.07958,-2.61391 8.41266,-5.69415 12.99927,-9.24072 0.45326,-0.34665 0.96657,-0.49334 1.53992,-0.44007 0.5733,0.0533 1.04672,0.29341 1.42029,0.72022 0.3735,0.42687 0.53362,0.91352 0.48034,1.45996 -0.0533,0.54649 -0.30662,0.99307 -0.75988,1.33972 -4.64033,3.60028 -9.00027,6.70697 -13.07984,9.32007 -1.59995,1.04005 -2.61333,1.74684 -3.04016,2.12036 -0.42685,0.37355 -0.64027,0.77353 -0.64026,1.19995 -1e-5,0.40041 0.19327,0.78716 0.57984,1.16028 0.38654,0.37314 1.30003,1.03985 2.74047,2.00012 4.9064,3.33334 9.79979,7.0398 14.68018,11.11939 0.4264,0.37353 0.65284,0.83374 0.67932,1.38061 0.0264,0.54687 -0.16014,1.0201 -0.55969,1.41968 -0.42646,0.42643 -0.93305,0.64636 -1.51978,0.65979 -0.58677,0.0134 -1.10679,-0.16663 -1.56005,-0.54016 -4.69322,-3.89323 -9.4267,-7.49308 -14.20044,-10.79956 z"
       id="path3750"
       style="fill:#0066b3;font-family:'Rounded M+ 1m medium';-inkscape-font-specification:'Rounded M+ 1m medium'" />
  </g>
  <g
     id="text2851-2"
     style="font-size:40px;font-style:normal;font-weight:normal;text-align:center;text-anchor:middle;fill:#0066b3;fill-opacity:1;stroke:none;font-family:'Rounded M+ 1m regular';-inkscape-font-specification:'Rounded M+ 1m regular'">
    <path
       d="m 75.012665,479.57611 c -1e-5,0.58594 -0.206512,1.0789 -0.619507,1.47888 -0.413013,0.39998 -0.912891,0.59998 -1.499634,0.59998 l -0.04028,0 c -0.586759,0 -1.09335,-0.21322 -1.519775,-0.63965 -0.426439,-0.42643 -0.639654,-0.93303 -0.639649,-1.51978 l 0,-29.95971 c -5e-6,-0.61358 0.226638,-1.14703 0.679932,-1.60034 0.453281,-0.45326 0.986321,-0.6799 1.599121,-0.67994 l 24.240723,0 c 0.61276,4e-5 1.1458,0.22668 1.599121,0.67994 0.453253,0.45331 0.679897,0.98676 0.679931,1.60034 l 0,29.95971 c -3.4e-5,0.58675 -0.21325,1.09335 -0.639648,1.51978 -0.426466,0.42643 -0.933057,0.63965 -1.519776,0.63965 l -0.04028,0 c -0.586783,0 -1.08666,-0.2 -1.499634,-0.59998 -0.413034,-0.39998 -0.619536,-0.89294 -0.619506,-1.47888 -3e-5,-0.21403 -0.09362,-0.32104 -0.280762,-0.32104 l -19.599609,0 c -0.187185,0 -0.280772,0.10701 -0.280762,0.32104 z m 0,-28.28003 0,9.39942 c -1e-5,0.24008 0.107005,0.36012 0.321045,0.3601 l 19.519043,0 c 0.214,2e-5 0.321015,-0.12002 0.321045,-0.3601 l 0,-9.39942 c -3e-5,-0.24004 -0.107045,-0.36008 -0.321045,-0.36011 l -19.519043,0 c -0.21404,3e-5 -0.321055,0.12007 -0.321045,0.36011 z m 0,13.71948 0,10.31983 c -1e-5,0.21322 0.107005,0.31983 0.321045,0.31982 l 19.519043,0 c 0.214,10e-6 0.321015,-0.1066 0.321045,-0.31982 l 0,-10.31983 c -3e-5,-0.24005 -0.107045,-0.36009 -0.321045,-0.3601 l -19.519043,0 c -0.21404,10e-6 -0.321055,0.12005 -0.321045,0.3601 z"
       id="path3723"
       style="fill:#0066b3;font-family:'Rounded M+ 1m medium';-inkscape-font-specification:'Rounded M+ 1m medium'" />
    <path
       d="m 111.97311,478.77533 c 0,0.58675 -0.19328,1.08012 -0.57983,1.4801 -0.38656,0.39998 -0.87322,0.59998 -1.45996,0.59998 -0.5599,0 -1.03984,-0.2 -1.43982,-0.59998 -0.39999,-0.39998 -0.59998,-0.87992 -0.59998,-1.43982 l 0,-28.88061 c 0,-0.61277 0.22665,-1.14581 0.67994,-1.59912 0.45328,-0.45326 0.98673,-0.6799 1.60034,-0.67994 l 6.43921,0 c 0.61359,4e-5 1.14704,0.22668 1.60034,0.67994 0.45327,0.45331 0.67992,0.98635 0.67993,1.59912 l 0,16.80053 c -1e-5,0.0537 0.0199,0.0938 0.0598,0.12024 0.0399,0.0265 0.0867,0.0132 0.14039,-0.0397 1.57306,-1.8937 2.93292,-3.97378 4.07959,-6.24023 0.10659,-0.2132 0.0399,-0.31981 -0.2002,-0.31983 l -1.0791,0 c -0.42726,2e-5 -0.8008,-0.15338 -1.12061,-0.4602 -0.31984,-0.30679 -0.47975,-0.68683 -0.47973,-1.14014 -2e-5,-0.45327 0.15989,-0.83331 0.47973,-1.14014 0.31981,-0.30678 0.69335,-0.46018 1.12061,-0.4602 l 4.2395,0 c 0.24005,2e-5 0.36009,-0.12002 0.36011,-0.36011 l 0,-1.40015 c -2e-5,-0.24004 -0.12006,-0.36008 -0.36011,-0.3601 l -4.07959,0 c -0.37355,2e-5 -0.69358,-0.12653 -0.96008,-0.37964 -0.26654,-0.25307 -0.3998,-0.56638 -0.39978,-0.93994 -2e-5,-0.37351 0.13324,-0.69354 0.39978,-0.96009 0.2665,-0.26649 0.58653,-0.39975 0.96008,-0.39978 l 4.07959,0 c 0.24005,3e-5 0.36009,-0.12001 0.36011,-0.3601 l 0,-1.31958 c -2e-5,-0.21319 -0.12006,-0.3198 -0.36011,-0.31983 l -4.16016,0 c -0.4533,3e-5 -0.84657,-0.17331 -1.17981,-0.52002 -0.33326,-0.34665 -0.49989,-0.74683 -0.49987,-1.20056 -2e-5,-0.45366 0.16661,-0.84714 0.49987,-1.18042 0.33324,-0.33322 0.72651,-0.49984 1.17981,-0.49988 l 6.35987,0 c 0.61358,4e-5 1.14703,0.22668 1.60034,0.67994 0.45326,0.45331 0.67991,0.98676 0.67993,1.60034 l 0,8.84033 c -2e-5,0.61281 -0.22667,1.14606 -0.67993,1.59973 -0.45331,0.45371 -0.98676,0.68056 -1.60034,0.68054 l -0.31983,0 c -0.24009,2e-5 -0.4,0.0932 -0.47973,0.27954 -0.31985,0.8537 -0.53327,1.38715 -0.64026,1.60035 -0.10704,0.21323 -0.0535,0.31984 0.16052,0.31982 l 5.36011,0 c 0.23923,2e-5 0.39914,-0.10659 0.47973,-0.31982 0.0797,-0.18716 0.17291,-0.46731 0.27955,-0.84046 0.10658,-0.37311 0.20016,-0.65326 0.28076,-0.84045 0.0797,-0.13263 0.0394,-0.19896 -0.12085,-0.19898 -0.37357,2e-5 -0.69359,-0.13344 -0.96009,-0.40039 -0.26654,-0.26691 -0.3998,-0.58714 -0.39978,-0.96069 l 0,-0.23926 c -2e-5,-0.45327 0.16009,-0.83331 0.48035,-1.14014 0.3202,-0.30678 0.69354,-0.46018 1.12,-0.4602 l 4.55932,0 c 0.24004,2e-5 0.36008,-0.12002 0.36011,-0.36011 l 0,-1.40015 c -3e-5,-0.24004 -0.12007,-0.36008 -0.36011,-0.3601 l -4.39941,0 c -0.37357,2e-5 -0.69359,-0.12653 -0.96009,-0.37964 -0.26654,-0.25307 -0.3998,-0.56638 -0.39978,-0.93994 -2e-5,-0.37351 0.13324,-0.69354 0.39978,-0.96009 0.2665,-0.26649 0.58652,-0.39975 0.96009,-0.39978 l 4.39941,0 c 0.24004,3e-5 0.36008,-0.12001 0.36011,-0.3601 l 0,-1.31958 c -3e-5,-0.21319 -0.12007,-0.3198 -0.36011,-0.31983 l -4.4397,0 c -0.45331,3e-5 -0.85329,-0.17331 -1.19995,-0.52002 -0.3467,-0.34665 -0.52004,-0.74683 -0.52002,-1.20056 -2e-5,-0.45366 0.17332,-0.84714 0.52002,-1.18042 0.34666,-0.33322 0.74664,-0.49984 1.19995,-0.49988 l 6.71998,0 c 0.61357,4e-5 1.14701,0.22668 1.60034,0.67994 0.45325,0.45331 0.67989,0.98676 0.67993,1.60034 l 0,8.84033 c -4e-5,0.61281 -0.22668,1.14606 -0.67993,1.59973 -0.45333,0.45371 -0.98677,0.68056 -1.60034,0.68054 l -2.31934,0 c -0.21406,2e-5 -0.37438,0.11965 -0.48096,0.35889 -0.21325,0.69338 -0.37316,1.20037 -0.47973,1.521 -0.0529,0.21323 0.0138,0.31984 0.20019,0.31982 l 3.75977,0 c 0.42639,2e-5 0.79972,0.15993 1.11999,0.47974 0.3202,0.31984 0.48031,0.69317 0.48035,1.11999 -4e-5,0.42685 -0.16015,0.80019 -0.48035,1.12 -0.32027,0.31983 -0.6936,0.47975 -1.11999,0.47973 l -4.47998,0 c -0.21325,2e-5 -0.31986,0.10662 -0.31983,0.31983 l 0,1.35986 c -3e-5,0.21404 0.10658,0.32106 0.31983,0.32104 l 4.11987,0 c 0.3735,2e-5 0.69353,0.13328 0.96008,0.39979 0.26649,0.26653 0.39975,0.58655 0.39978,0.96008 -3e-5,0.37354 -0.13329,0.69357 -0.39978,0.96008 -0.26655,0.26653 -0.58658,0.39979 -0.96008,0.39978 l -4.11987,0 c -0.21325,1e-5 -0.31986,0.10662 -0.31983,0.31983 l 0,1.31958 c -3e-5,0.24007 0.10658,0.36011 0.31983,0.3601 l 4.11987,0 c 0.3735,10e-6 0.69353,0.12676 0.96008,0.38025 0.26649,0.25351 0.39975,0.56682 0.39978,0.93994 -3e-5,0.37314 -0.13329,0.69316 -0.39978,0.96009 -0.26655,0.26693 -0.58658,0.40039 -0.96008,0.40039 l -4.11987,0 c -0.21325,0 -0.31986,0.10661 -0.31983,0.31982 l 0,1.31958 c -3e-5,0.24007 0.10658,0.36011 0.31983,0.36011 l 4.95971,0 c 0.45325,0 0.85324,0.16663 1.19995,0.49988 0.34665,0.33325 0.51999,0.72652 0.52002,1.17981 -3e-5,0.45328 -0.17337,0.85327 -0.52002,1.19995 -0.34671,0.34668 -0.7467,0.52002 -1.19995,0.52002 l -15.47973,0 c -0.13349,0 -0.20022,0.0667 -0.2002,0.20019 -2e-5,0.37353 -0.13999,0.70028 -0.41992,0.98023 -0.27997,0.27994 -0.60671,0.41992 -0.98022,0.41992 l -0.67994,0 c -0.58595,0 -1.08563,-0.20671 -1.49902,-0.62012 -0.41343,-0.41341 -0.62013,-0.91349 -0.62012,-1.50024 l 0,-9.71924 c -1e-5,-0.0537 -0.0202,-0.0806 -0.0604,-0.0806 -0.0403,10e-6 -0.0735,0.0134 -0.0995,0.0403 -0.0537,0.0798 -0.1406,0.21302 -0.26062,0.39978 -0.12005,0.18677 -0.20652,0.33346 -0.2594,0.44006 -0.21323,0.34669 -0.52003,0.53996 -0.92041,0.57983 -0.4004,0.0399 -0.74708,-0.0732 -1.04004,-0.33935 -0.10662,-0.0537 -0.15992,-0.0403 -0.15991,0.0403 l 0,4.87915 c -1e-5,0.61361 -0.22666,1.14706 -0.67993,1.60034 -0.4533,0.45329 -0.98675,0.67994 -1.60034,0.67994 l -4.32007,0 c -0.21322,0 -0.31983,0.1066 -0.31983,0.31982 z m 20.11963,-2.08008 0,-1.31958 c -2e-5,-0.21321 -0.12006,-0.31982 -0.3601,-0.31982 l -5.5188,0 c -0.21405,0 -0.32107,0.10661 -0.32105,0.31982 l 0,1.31958 c -2e-5,0.24007 0.107,0.36011 0.32105,0.36011 l 5.5188,0 c 0.24004,0 0.36008,-0.12004 0.3601,-0.36011 z m 0,-4.68017 0,-1.31958 c -2e-5,-0.21321 -0.12006,-0.31982 -0.3601,-0.31983 l -5.5188,0 c -0.21405,10e-6 -0.32107,0.10662 -0.32105,0.31983 l 0,1.31958 c -2e-5,0.24007 0.107,0.36011 0.32105,0.3601 l 5.5188,0 c 0.24004,10e-6 0.36008,-0.12003 0.3601,-0.3601 z m -5.8789,-4.35914 5.5188,0 c 0.24004,2e-5 0.36008,-0.107 0.3601,-0.32104 l 0,-1.35986 c -2e-5,-0.21321 -0.12006,-0.31981 -0.3601,-0.31983 l -5.5188,0 c -0.21405,2e-5 -0.32107,0.10662 -0.32105,0.31983 l 0,1.35986 c -2e-5,0.21404 0.107,0.32106 0.32105,0.32104 z m -14.24073,-16.16088 0,9.04052 c 0,0.21324 0.12003,0.31985 0.36011,0.31983 l 2.44019,0 c 0.2132,2e-5 0.31981,-0.10659 0.31982,-0.31983 l 0,-9.04052 c -1e-5,-0.21319 -0.10662,-0.3198 -0.31982,-0.31983 l -2.44019,0 c -0.24008,3e-5 -0.36011,0.10664 -0.36011,0.31983 z m 0,13.12011 0,10.12085 c 0,0.21322 0.12003,0.31983 0.36011,0.31983 l 2.44019,0 c 0.2132,0 0.31981,-0.10661 0.31982,-0.31983 l 0,-10.12085 c -1e-5,-0.24005 -0.10662,-0.36009 -0.31982,-0.3601 l -2.44019,0 c -0.24008,1e-5 -0.36011,0.12005 -0.36011,0.3601 z"
       id="path3725"
       style="fill:#0066b3;font-family:'Rounded M+ 1m medium';-inkscape-font-specification:'Rounded M+ 1m medium'" />
    <path
       d="m 168.09372,463.33588 0,1.43921 c -2e-5,0.61362 -0.22687,1.14706 -0.68054,1.60034 -0.45372,0.4533 -0.98696,0.67994 -1.59973,0.67993 l -1.44043,0 c -0.61282,10e-6 -1.14606,-0.22663 -1.59974,-0.67993 -0.45371,-0.45328 -0.68055,-0.98672 -0.68054,-1.60034 l 0,-1.43921 c -1e-5,-0.61359 0.22683,-1.14704 0.68054,-1.60035 0.45368,-0.45327 0.98692,-0.67991 1.59974,-0.67993 l 1.44043,0 c 0.61277,2e-5 1.14601,0.22666 1.59973,0.67993 0.45367,0.45331 0.68052,0.98676 0.68054,1.60035 z"
       id="path3727"
       style="fill:#0066b3;font-family:'Rounded M+ 1m medium';-inkscape-font-specification:'Rounded M+ 1m medium'" />
    <path
       d="m 189.73312,464.77509 c -0.34668,0.5599 -0.73324,1.14666 -1.15966,1.76025 -0.29379,0.4004 -0.67404,0.56052 -1.14075,0.48035 -0.46672,-0.0802 -0.79326,-0.34688 -0.97962,-0.80017 l -0.11962,-0.36011 c -0.507,-1.35985 -0.33366,-2.67984 0.52002,-3.95996 1.14664,-1.73338 2.15982,-3.58682 3.03955,-5.56031 1.38671,-3.59942 2.32014,-6.42616 2.80029,-8.48022 0.1066,-0.53301 0.39997,-0.95944 0.88013,-1.2793 0.48013,-0.31979 0.98672,-0.4264 1.51977,-0.31982 0.55989,0.10664 0.99324,0.3933 1.30005,0.85998 0.30679,0.46675 0.40689,0.98006 0.30029,1.53992 -0.61361,2.93297 -1.44044,5.7064 -2.48047,8.32031 -0.0798,0.18639 -0.11963,0.3996 -0.11962,0.63965 l 0,22.35962 c -1e-5,0.58675 -0.20672,1.08012 -0.62012,1.4801 -0.41342,0.39998 -0.9135,0.59998 -1.50025,0.59998 -0.58675,0 -1.08012,-0.2 -1.4801,-0.59998 -0.39999,-0.39998 -0.59998,-0.89335 -0.59997,-1.4801 l 0,-15.11963 c -0.0269,-0.0537 -0.0802,-0.0806 -0.15992,-0.0806 z m 21.89942,16.6809 c -0.41263,0.39958 -0.9123,0.59937 -1.49903,0.59937 -0.58677,0 -1.08014,-0.2 -1.4801,-0.59998 -0.40001,-0.39998 -0.6,-0.89335 -0.59997,-1.4801 l 0,-18.35937 c -3e-5,-0.0268 -0.02,-0.0403 -0.0598,-0.0403 -0.0399,2e-5 -0.0733,0.0134 -0.1001,0.0403 -2.10695,4.55974 -5.08058,9.11947 -8.92089,13.67919 -0.37274,0.4533 -0.85919,0.67994 -1.45935,0.67994 -0.6002,0 -1.10007,-0.21322 -1.49964,-0.63965 -0.42726,-0.45329 -0.62745,-0.99324 -0.60058,-1.61987 0.0268,-0.62663 0.25348,-1.16658 0.67993,-1.61988 4.45311,-4.8535 7.75999,-9.72003 9.92065,-14.59961 0.10659,-0.21401 0.0399,-0.32102 -0.20019,-0.32104 l -7.76001,0 c -0.50701,2e-5 -0.94036,-0.17983 -1.30005,-0.53955 -0.35971,-0.35968 -0.53956,-0.80646 -0.53955,-1.34034 -1e-5,-0.50616 0.17312,-0.9393 0.51941,-1.29943 0.34626,-0.36009 0.78632,-0.54014 1.32019,-0.54016 l 9.63989,0 c 0.24005,2e-5 0.36008,-0.10659 0.36011,-0.31983 l 0,-4.95972 c -3e-5,-0.58672 0.19996,-1.0868 0.59997,-1.50024 0.39996,-0.41338 0.89333,-0.62008 1.4801,-0.62012 0.58673,4e-5 1.08661,0.20674 1.49964,0.62012 0.41298,0.41344 0.61948,0.91352 0.61951,1.50024 l 0,4.95972 c -3e-5,0.21324 0.10698,0.31985 0.32104,0.31983 l 9.35913,0 c 0.53382,2e-5 0.98059,0.18007 1.34033,0.54016 0.35966,0.36013 0.53951,0.79348 0.53955,1.30005 -4e-5,0.50661 -0.1866,0.94647 -0.55969,1.31958 -0.37316,0.37315 -0.81323,0.55971 -1.32019,0.55969 l -7.23999,0 c -0.2401,2e-5 -0.30683,0.10703 -0.20019,0.32104 1.94739,4.6395 4.84086,9.21266 8.68042,13.71949 0.45324,0.507 0.69983,1.10047 0.73974,1.78039 0.0398,0.67994 -0.11316,1.29985 -0.45898,1.85974 l -0.12085,0.11963 c -0.29301,0.48015 -0.71944,0.74016 -1.2793,0.78003 -0.55993,0.0399 -1.01322,-0.1534 -1.35986,-0.57983 -3.52054,-4.45312 -6.29398,-8.99983 -8.32032,-13.64014 -0.0537,-0.0268 -0.094,-0.0268 -0.12084,0 l 0,18.43994 c -3e-5,0.58675 -0.20674,1.08032 -0.62012,1.48071 z"
       id="path3729"
       style="fill:#0066b3;font-family:'Rounded M+ 1m medium';-inkscape-font-specification:'Rounded M+ 1m medium'" />
    <path
       d="m 235.01266,479.57611 c -1e-5,0.58594 -0.20651,1.0789 -0.6195,1.47888 -0.41302,0.39998 -0.91289,0.59998 -1.49964,0.59998 l -0.0403,0 c -0.58676,0 -1.09335,-0.21322 -1.51977,-0.63965 -0.42644,-0.42643 -0.63966,-0.93303 -0.63965,-1.51978 l 0,-29.95971 c -1e-5,-0.61358 0.22664,-1.14703 0.67993,-1.60034 0.45328,-0.45326 0.98632,-0.6799 1.59912,-0.67994 l 24.24072,0 c 0.61276,4e-5 1.1458,0.22668 1.59912,0.67994 0.45326,0.45331 0.6799,0.98676 0.67994,1.60034 l 0,29.95971 c -4e-5,0.58675 -0.21326,1.09335 -0.63965,1.51978 -0.42647,0.42643 -0.93306,0.63965 -1.51978,0.63965 l -0.0403,0 c -0.58678,0 -1.08666,-0.2 -1.49964,-0.59998 -0.41303,-0.39998 -0.61953,-0.89294 -0.6195,-1.47888 -3e-5,-0.21403 -0.0936,-0.32104 -0.28076,-0.32104 l -19.59961,0 c -0.18719,0 -0.28078,0.10701 -0.28077,0.32104 z m 0,-28.28003 0,9.39942 c -1e-5,0.24008 0.10701,0.36012 0.32105,0.3601 l 19.51904,0 c 0.214,2e-5 0.32102,-0.12002 0.32105,-0.3601 l 0,-9.39942 c -3e-5,-0.24004 -0.10705,-0.36008 -0.32105,-0.36011 l -19.51904,0 c -0.21404,3e-5 -0.32106,0.12007 -0.32105,0.36011 z m 0,13.71948 0,10.31983 c -1e-5,0.21322 0.10701,0.31983 0.32105,0.31982 l 19.51904,0 c 0.214,10e-6 0.32102,-0.1066 0.32105,-0.31982 l 0,-10.31983 c -3e-5,-0.24005 -0.10705,-0.36009 -0.32105,-0.3601 l -19.51904,0 c -0.21404,10e-6 -0.32106,0.12005 -0.32105,0.3601 z"
       id="path3731"
       style="fill:#0066b3;font-family:'Rounded M+ 1m medium';-inkscape-font-specification:'Rounded M+ 1m medium'" />
    <path
       d="m 271.49338,468.51532 c -0.5599,0.0936 -1.0665,-0.006 -1.51978,-0.29968 -0.45329,-0.29337 -0.72673,-0.70678 -0.82031,-1.24024 -0.0936,-0.53343 0.0195,-1.01337 0.33936,-1.43982 2.53335,-3.67999 4.66673,-7.39988 6.40014,-11.15966 0.1066,-0.2132 0.0403,-0.3198 -0.19897,-0.31983 l -5.32105,0 c -0.45329,3e-5 -0.84656,-0.1668 -1.17981,-0.50049 -0.33325,-0.33363 -0.49988,-0.7271 -0.49988,-1.18042 0,-0.45326 0.16663,-0.85324 0.49988,-1.19995 0.33325,-0.34665 0.72652,-0.51999 1.17981,-0.52002 l 6.71997,0 c 0.24006,3e-5 0.40038,-0.10658 0.48096,-0.31982 0.53303,-1.43959 0.8264,-2.23955 0.88013,-2.3999 0.2132,-0.55987 0.55968,-0.97979 1.03943,-1.25977 0.47972,-0.27992 0.99953,-0.36659 1.55944,-0.26001 0.50699,0.10664 0.89375,0.40653 1.16028,0.89966 0.2665,0.49319 0.30658,0.99327 0.12024,1.50024 -0.0537,0.1335 -0.1404,0.37357 -0.26001,0.72022 -0.11964,0.34671 -0.21974,0.61323 -0.30029,0.79956 -0.0529,0.21324 0.0272,0.31985 0.24048,0.31982 l 15,0 c 0.45325,3e-5 0.84652,0.17337 1.17981,0.52002 0.33322,0.34671 0.49984,0.74669 0.49987,1.19995 -3e-5,0.45332 -0.16665,0.84679 -0.49987,1.18042 -0.33329,0.33369 -0.72656,0.50052 -1.17981,0.50049 l -16.35987,0 c -0.24008,3e-5 -0.39999,0.10663 -0.47973,0.31983 -0.13348,0.3467 -0.28688,0.72654 -0.46021,1.13952 -0.17335,0.41303 -0.38006,0.88625 -0.62011,1.41968 -0.24009,0.53347 -0.44029,0.97353 -0.60059,1.32019 l 0,0.0806 0.0806,0 c 1.73338,-0.7202 3.30646,-1.0803 4.71923,-1.08033 3.22671,3e-5 5.44025,1.54665 6.64063,4.6399 0.10658,0.18637 0.24005,0.26653 0.40039,0.24048 2.18666,-0.48013 4.4531,-0.86709 6.79932,-1.16089 0.48011,-0.0529 0.91346,0.0674 1.30004,0.36071 0.38653,0.2934 0.59323,0.68016 0.62012,1.16028 0.0537,0.47935 -0.0729,0.919 -0.37964,1.31897 -0.30683,0.4 -0.70031,0.62685 -1.18042,0.68054 -2.29332,0.31984 -4.38642,0.67995 -6.27929,1.08033 -0.26696,0.0529 -0.37397,0.19939 -0.32105,0.43945 0.18715,1.30698 0.30719,2.82716 0.36011,4.56055 0.0268,0.58676 -0.15974,1.08012 -0.55969,1.4801 -0.40001,0.39999 -0.89338,0.59998 -1.48011,0.59997 -0.58677,10e-6 -1.08685,-0.19998 -1.50024,-0.59997 -0.41343,-0.39998 -0.63316,-0.89334 -0.65918,-1.4801 -0.0537,-1.59993 -0.10704,-2.76 -0.15991,-3.48023 -2e-5,-0.24006 -0.12006,-0.33324 -0.36011,-0.27954 -5.22707,1.70655 -7.84059,3.65317 -7.84058,5.83984 -10e-6,0.63966 0.12003,1.18613 0.36011,1.63941 0.24006,0.45329 0.69335,0.87993 1.35987,1.27991 0.66648,0.39998 1.67316,0.70007 3.02001,0.90026 1.34683,0.2002 3.03343,0.3003 5.05982,0.3003 2.37383,0 5.06711,-0.21362 8.07983,-0.64087 0.48011,-0.0529 0.92018,0.0673 1.32019,0.36072 0.39995,0.29337 0.61337,0.68013 0.64026,1.16027 0.0537,0.50619 -0.0729,0.96599 -0.37964,1.3794 -0.30683,0.41341 -0.71373,0.64697 -1.2207,0.70068 -2.66604,0.34668 -5.47935,0.52002 -8.43994,0.52002 -4.96014,0 -8.53354,-0.58004 -10.72022,-1.74011 -2.18669,-1.16007 -3.28003,-2.98034 -3.28002,-5.46082 -1e-5,-4.15933 3.77358,-7.39907 11.3208,-9.71923 0.24005,-0.0537 0.30678,-0.20059 0.20019,-0.44068 -0.3467,-0.8268 -0.8067,-1.40013 -1.38,-1.71997 -0.57335,-0.3198 -1.28685,-0.47972 -2.14051,-0.47973 -1.25327,10e-6 -2.73317,0.59999 -4.43969,1.79992 -1.70656,1.19997 -3.43995,2.93316 -5.2002,5.19959 -0.34669,0.4533 -0.79997,0.72673 -1.35986,0.82031 z"
       id="path3733"
       style="fill:#0066b3;font-family:'Rounded M+ 1m medium';-inkscape-font-specification:'Rounded M+ 1m medium'" />
    <path
       d="m 317.5737,476.57562 c 1.78628,-2.00032 3.27961,-4.21386 4.47998,-6.64062 0.2132,-0.45328 0.55968,-0.77311 1.03943,-0.95948 0.47972,-0.18635 0.95966,-0.18635 1.43982,0 0.48012,0.21323 0.82029,0.5532 1.02051,1.0199 0.20017,0.46673 0.19325,0.92673 -0.0208,1.38001 -1.25327,2.71973 -2.94638,5.27995 -5.07934,7.68066 -0.37355,0.39958 -0.82704,0.61279 -1.36048,0.63965 -0.53346,0.0269 -0.99997,-0.13306 -1.39953,-0.47974 -0.37355,-0.34668 -0.57354,-0.78003 -0.59998,-1.30005 -0.0265,-0.52001 0.13366,-0.96679 0.48035,-1.34033 z m 17.47925,-6.40014 c 0.0805,-0.48014 0.33403,-0.8669 0.7605,-1.16028 0.4264,-0.29337 0.89962,-0.39998 1.41967,-0.31983 0.51999,0.0802 0.92689,0.32004 1.22071,0.71961 1.62594,2.18669 3.18559,4.587 4.67895,7.20093 0.26689,0.47933 0.34034,0.98571 0.22034,1.51916 -0.12008,0.53345 -0.40674,0.96008 -0.85999,1.27991 -0.42647,0.29378 -0.88647,0.38065 -1.38,0.26062 -0.49361,-0.12004 -0.87345,-0.4067 -1.13953,-0.85999 -1.44046,-2.56022 -2.97407,-4.98697 -4.60083,-7.28027 -0.293,-0.42643 -0.3996,-0.87971 -0.31982,-1.35986 z m -23.15918,-19.47998 0,29.16015 c -1e-5,0.5599 -0.19349,1.03312 -0.58045,1.41968 -0.38696,0.38655 -0.86039,0.57983 -1.42028,0.57983 -0.5599,0 -1.03313,-0.19328 -1.41968,-0.57983 -0.38656,-0.38656 -0.57984,-0.85978 -0.57984,-1.41968 l 0,-30.52002 c 0,-0.61357 0.22665,-1.14702 0.67994,-1.60034 0.45328,-0.45326 0.98673,-0.6799 1.60034,-0.67993 l 8.87939,0 c 0.45328,3e-5 0.84003,0.16015 1.16028,0.48035 0.32022,0.32026 0.48033,0.70702 0.48035,1.16027 -2e-5,1.19958 -0.18679,2.27949 -0.56031,3.23975 -0.29379,0.87975 -0.61402,1.70616 -0.96069,2.47925 -0.026,0.0269 -0.0191,0.0537 0.0208,0.0806 0.0399,0.0269 0.0862,0.0269 0.13916,0 2.93374,-1.97344 5.57371,-4.22686 7.91993,-6.76025 0.98711,-1.06686 2.17404,-1.60031 3.56079,-1.60034 1.38669,3e-5 2.57321,0.53348 3.55957,1.60034 2.37383,2.4805 4.97392,4.68061 7.80029,6.60034 0.4801,0.31985 0.82678,0.74649 1.04004,1.27991 0.21318,0.53347 0.23962,1.08014 0.0793,1.64001 -0.13268,0.45331 -0.42586,0.77334 -0.87951,0.96009 -0.45373,0.18678 -0.88037,0.14671 -1.27991,-0.12024 -0.10664,-0.0797 -0.38659,-0.27301 -0.83984,-0.57984 -0.45333,-0.30678 -0.80001,-0.53993 -1.04004,-0.69946 -0.0269,-0.0268 -0.0603,-0.027 -0.1001,-6.1e-4 -0.0399,0.0265 -0.0599,0.0531 -0.0598,0.08 -4e-5,0.40041 -0.14001,0.74058 -0.41993,1.0205 -0.27998,0.27997 -0.62015,0.41995 -1.0205,0.41993 l -4.39942,0 c -0.2401,2e-5 -0.36013,0.12005 -0.36011,0.3601 l 0,3.91968 c -2e-5,0.21323 0.12001,0.31984 0.36011,0.31983 l 7.87964,0 c 0.48011,1e-5 0.89352,0.17335 1.24023,0.52002 0.34665,0.34669 0.51999,0.7601 0.52002,1.24023 -3e-5,0.48016 -0.17337,0.89357 -0.52002,1.24023 -0.34671,0.3467 -0.76012,0.52004 -1.24023,0.52002 l -7.87964,0 c -0.2401,2e-5 -0.36013,0.10662 -0.36011,0.31983 l 0,9.07959 c -2e-5,2.66683 -0.24681,4.30013 -0.74035,4.8999 -0.4936,0.59977 -1.8736,0.89966 -4.14002,0.89966 -0.90659,0 -1.8266,-0.0265 -2.76001,-0.0793 -0.53306,-0.0269 -0.98634,-0.23356 -1.35986,-0.62011 -0.37355,-0.38656 -0.57355,-0.83314 -0.59998,-1.33973 -0.0265,-0.50659 0.13365,-0.93322 0.48035,-1.2799 0.34666,-0.34668 0.77309,-0.507 1.2793,-0.48096 0.7739,0.0537 1.52057,0.0806 2.23999,0.0806 0.69333,0 1.10003,-0.0867 1.22009,-0.26001 0.12001,-0.17334 0.18003,-0.78003 0.18005,-1.82007 l 0,-9.07959 c -2e-5,-0.21321 -0.10663,-0.31981 -0.31982,-0.31983 l -8.52051,0 c -0.24008,2e-5 -0.33326,0.12005 -0.27954,0.36011 0.0797,0.63966 0.11962,1.27931 0.11963,1.91895 -10e-6,1.81397 -0.37986,3.18095 -1.13953,4.10095 -0.75969,0.92001 -1.93991,1.44633 -3.54065,1.57898 -0.50619,0.0269 -0.95256,-0.11963 -1.33911,-0.43946 -0.38656,-0.31981 -0.63314,-0.73323 -0.73974,-1.24023 -0.0806,-0.42643 0.0191,-0.80627 0.29907,-1.13953 0.27994,-0.33324 0.64656,-0.54015 1.09985,-0.62072 0.58674,-0.13265 0.99344,-0.4191 1.2201,-0.85938 0.22663,-0.44026 0.33995,-1.19384 0.33996,-2.26074 -10e-6,-1.9466 -0.70639,-3.87979 -2.11914,-5.79956 -0.90658,-1.22638 -1.01319,-2.47964 -0.31982,-3.75977 1.30614,-2.42673 2.4125,-4.97352 3.31909,-7.64038 0.0537,-0.18633 -0.026,-0.27951 -0.23926,-0.27954 l -4.32007,0 c -0.21322,3e-5 -0.31983,0.10664 -0.31982,0.31983 z m 18.6792,-1.35987 c -1.73342,1.9735 -3.5067,3.73334 -5.31983,5.27954 -0.0529,0.0537 -0.0728,0.10725 -0.0598,0.16053 0.013,0.0533 0.0464,0.08 0.1001,0.08 l 11.08032,0 c 0.0529,3e-5 0.0927,-0.0266 0.11963,-0.08 0.0268,-0.0533 0.0134,-0.10679 -0.0403,-0.16053 -1.84003,-1.5462 -3.65318,-3.30604 -5.43945,-5.27954 -0.16034,-0.16029 -0.30723,-0.16029 -0.44067,0 z m -12.15943,7.6001 -0.0403,-0.2002 c -0.0269,-0.0537 -0.0737,-0.0805 -0.14038,-0.0806 -0.0668,2e-5 -0.11313,0.0269 -0.13916,0.0806 -0.4533,1.04006 -0.94687,2.04023 -1.48071,3.00049 -0.10662,0.18638 -0.0932,0.37274 0.0403,0.55908 1.33299,1.81399 2.21312,3.54738 2.64038,5.2002 0.026,0.0269 0.0659,0.0403 0.11963,0.0403 l 0,-0.31982 c -10e-6,-0.61359 0.21992,-1.14704 0.65979,-1.60034 0.43984,-0.45327 0.96658,-0.67992 1.5802,-0.67993 l 6.71997,0 c 0.21319,10e-6 0.3198,-0.1066 0.31982,-0.31983 l 0,-3.91968 c -2e-5,-0.24005 -0.10663,-0.36008 -0.31982,-0.3601 l -4.20044,0 c -0.42645,2e-5 -0.77964,-0.13996 -1.05957,-0.41993 -0.27996,-0.27992 -0.41994,-0.63352 -0.41992,-1.06079 -2e-5,-0.10658 -0.0533,-0.13303 -0.15991,-0.0793 -0.3467,0.26613 -0.89357,0.63926 -1.64063,1.11938 -0.4533,0.31985 -0.94646,0.37315 -1.47949,0.15991 -0.53305,-0.21319 -0.86631,-0.58632 -0.99976,-1.11938 z"
       id="path3735"
       style="fill:#0066b3;font-family:'Rounded M+ 1m medium';-inkscape-font-specification:'Rounded M+ 1m medium'" />
    <path
       d="m 357.13303,469.65546 c -2.53338,-1.76025 -4.10666,-2.97362 -4.71985,-3.64014 -0.61321,-0.66649 -0.91981,-1.58649 -0.9198,-2.76001 -10e-6,-1.22638 0.32673,-2.18626 0.98022,-2.87964 0.65348,-0.69334 2.28678,-1.89329 4.8999,-3.59985 4.07958,-2.61391 8.41266,-5.69415 12.99927,-9.24072 0.45326,-0.34665 0.96657,-0.49334 1.53992,-0.44007 0.5733,0.0533 1.04672,0.29341 1.42029,0.72022 0.3735,0.42687 0.53362,0.91352 0.48034,1.45996 -0.0533,0.54649 -0.30662,0.99307 -0.75988,1.33972 -4.64033,3.60028 -9.00027,6.70697 -13.07984,9.32007 -1.59995,1.04005 -2.61333,1.74684 -3.04016,2.12036 -0.42685,0.37355 -0.64027,0.77353 -0.64026,1.19995 -1e-5,0.40041 0.19327,0.78716 0.57984,1.16028 0.38654,0.37314 1.30003,1.03985 2.74047,2.00012 4.9064,3.33334 9.79979,7.0398 14.68018,11.11939 0.4264,0.37353 0.65284,0.83374 0.67932,1.38061 0.0264,0.54687 -0.16014,1.0201 -0.55969,1.41968 -0.42646,0.42643 -0.93305,0.64636 -1.51978,0.65979 -0.58677,0.0134 -1.10679,-0.16663 -1.56005,-0.54016 -4.69322,-3.89323 -9.4267,-7.49308 -14.20044,-10.79956 z"
       id="path3737"
       style="fill:#0066b3;font-family:'Rounded M+ 1m medium';-inkscape-font-specification:'Rounded M+ 1m medium'" />
  </g>
  <g
     id="text2851-2-5"
     style="font-size:40px;font-style:normal;font-variant:normal;font-weight:normal;font-stretch:normal;text-indent:0;text-align:center;text-decoration:none;line-height:normal;letter-spacing:normal;word-spacing:normal;text-transform:none;direction:ltr;block-progression:tb;writing-mode:lr-tb;text-anchor:middle;color:#000000;fill:#0066b3;fill-opacity:1;fill-rule:nonzero;stroke:none;marker:none;visibility:visible;display:inline;overflow:visible;enable-background:accumulate;font-family:'Rounded M+ 2c medium';-inkscape-font-specification:'Rounded M+ 2c medium'">
    <path
       d="m 139.32175,518.73602 c -2.00034,0.5062 -3.52052,1.24595 -4.56055,2.21924 -1.04005,0.97332 -1.56006,2.07358 -1.56006,3.30078 0,1.59994 0.59346,2.85991 1.7804,3.77991 1.18692,0.92001 2.80699,1.38001 4.86023,1.38 2.0532,1e-5 3.64642,-0.45999 4.77966,-1.38 1.1332,-0.92 1.69981,-2.17997 1.69983,-3.77991 -2e-5,-2.72053 -2.11997,-4.56053 -6.35986,-5.52002 -0.21323,-0.0537 -0.42645,-0.0537 -0.63965,0 z m -5.04029,-8.28003 c 0,1.06611 0.44006,2.01927 1.32019,2.8595 0.88012,0.84027 2.17346,1.46018 3.88001,1.85974 0.24006,0.0537 0.48013,0.0537 0.72021,0 1.73339,-0.45327 3.06009,-1.09983 3.98011,-1.9397 0.91998,-0.83982 1.37998,-1.76633 1.38,-2.77954 -2e-5,-1.28008 -0.49338,-2.29347 -1.4801,-3.04016 -0.98675,-0.74664 -2.40012,-1.11997 -4.24011,-1.11999 -1.81317,2e-5 -3.19317,0.36664 -4.14002,1.09985 -0.94686,0.73326 -1.42029,1.75336 -1.42029,3.0603 z m 13.49976,20.11963 c -1.90676,1.52019 -4.55344,2.28028 -7.94006,2.28028 -3.38665,0 -6.03313,-0.76009 -7.93946,-2.28028 -1.90633,-1.52018 -2.8595,-3.56038 -2.85949,-6.1206 -1e-5,-1.54622 0.52652,-2.97932 1.57959,-4.29932 1.05305,-1.31997 2.51301,-2.34007 4.37988,-3.0603 0.0268,10e-6 0.0403,-0.0132 0.0403,-0.0397 -1e-5,-0.0264 -0.0134,-0.0397 -0.0403,-0.0397 -1.57309,-0.69334 -2.79298,-1.65342 -3.65967,-2.88025 -0.8667,-1.22678 -1.30005,-2.58685 -1.30005,-4.0802 0,-2.1598 0.8667,-3.89971 2.6001,-5.21972 1.73339,-1.31996 4.13329,-1.97995 7.19971,-1.97998 3.06639,3e-5 5.46629,0.66002 7.1997,1.97998 1.73338,1.32001 2.60008,3.05992 2.6001,5.21972 -2e-5,2.98668 -1.65326,5.17336 -4.95972,6.56006 -0.0269,2e-5 -0.0403,0.0132 -0.0403,0.0397 -2e-5,0.0265 0.0134,0.0397 0.0403,0.0397 3.97296,1.36069 5.95945,3.94736 5.95948,7.76001 -3e-5,2.56022 -0.95339,4.60042 -2.86011,6.1206 z"
       id="path3716"
       style="color:#000000;fill:#0066b3;marker:none;visibility:visible;display:inline;overflow:visible;enable-background:accumulate;font-family:'Rounded M+ 2c medium';-inkscape-font-specification:'Rounded M+ 2c medium'" />
    <path
       d="m 291.81564,505.07635 c 1.64061,1.47952 2.46092,3.53925 2.46094,6.1792 -2e-5,2.64 -0.84678,5.20673 -2.54028,7.7002 -1.69354,2.4935 -4.96706,5.75359 -9.82056,9.78027 -0.0269,0.026 -0.0403,0.0525 -0.0403,0.0793 -1e-5,0.0269 0.0134,0.0403 0.0403,0.0403 l 10.5603,0 c 0.50698,10e-6 0.93382,0.17335 1.28052,0.52002 0.34666,0.34668 0.52,0.77332 0.52002,1.27991 -2e-5,0.50659 -0.17336,0.93323 -0.52002,1.27991 -0.3467,0.34668 -0.77354,0.52002 -1.28052,0.52002 l -14.7998,0 c -0.507,0 -0.93384,-0.17334 -1.28052,-0.52002 -0.34668,-0.34668 -0.52002,-0.77352 -0.52002,-1.28052 0,-1.17269 0.46671,-2.14599 1.40015,-2.91992 4.8535,-3.92008 8.14024,-7.03328 9.86023,-9.3396 1.71995,-2.3063 2.57994,-4.5528 2.57995,-6.73951 -10e-6,-3.41387 -1.81316,-5.12082 -5.43945,-5.12084 -1.78712,2e-5 -3.76059,0.46674 -5.92041,1.40014 -0.45329,0.1872 -0.87993,0.16075 -1.27991,-0.0793 -0.39998,-0.24005 -0.59998,-0.60016 -0.59997,-1.08033 -1e-5,-0.66647 0.17333,-1.26645 0.52002,-1.79992 0.34667,-0.53342 0.82641,-0.89333 1.43921,-1.07971 2.16063,-0.69334 4.30744,-1.04001 6.44043,-1.04004 2.98663,3e-5 5.29986,0.74018 6.93969,2.22045 z"
       id="path3718"
       style="color:#000000;fill:#0066b3;marker:none;visibility:visible;display:inline;overflow:visible;enable-background:accumulate;font-family:'Rounded M+ 2c medium';-inkscape-font-specification:'Rounded M+ 2c medium'" />
    <path
       d="m 315.12985,508.99603 c -1.05307,-1.74721 -2.65952,-2.62082 -4.81933,-2.62085 -2.15984,3e-5 -3.76649,0.87344 -4.81995,2.62024 -1.05347,1.74685 -1.58021,4.70014 -1.5802,8.85987 -10e-6,4.15976 0.52673,7.11304 1.5802,8.85986 1.05346,1.74683 2.66011,2.62024 4.81995,2.62024 2.15981,0 3.76646,-0.87341 4.81994,-2.62024 1.05345,-1.74682 1.58018,-4.7001 1.5802,-8.85986 -2e-5,-4.15973 -0.52695,-7.11282 -1.58081,-8.85926 z m 3.28003,20.3003 c -1.79933,2.37304 -4.49912,3.55957 -8.09936,3.55957 -3.60027,0 -6.30026,-1.18673 -8.09998,-3.56018 -1.79973,-2.37345 -2.69959,-6.18693 -2.69958,-11.44043 -1e-5,-5.25348 0.89985,-9.06675 2.69958,-11.43982 1.79972,-2.37302 4.49971,-3.55954 8.09998,-3.55957 3.60024,3e-5 6.30023,1.18655 8.09997,3.55957 1.7997,2.37307 2.69956,6.18634 2.69959,11.43982 -3e-5,5.2535 -0.90009,9.06718 -2.7002,11.44104 z"
       id="path3720"
       style="color:#000000;fill:#0066b3;marker:none;visibility:visible;display:inline;overflow:visible;enable-background:accumulate;font-family:'Rounded M+ 2c medium';-inkscape-font-specification:'Rounded M+ 2c medium'" />
  </g>
  <path
     d="m 210.22246,518.40572 23.5964,-0.71504"
     id="path2941"
     style="fill:none;stroke:#0066b3;stroke-width:4;stroke-linecap:round;stroke-linejoin:miter;stroke-miterlimit:4;stroke-opacity:1;stroke-dasharray:none" />
</svg>
