<?xml version="1.0" encoding="UTF-8" standalone="no"?>
<!-- Created with Inkscape (http://www.inkscape.org/) -->

<svg
   xmlns:osb="http://www.openswatchbook.org/uri/2009/osb"
   xmlns:dc="http://purl.org/dc/elements/1.1/"
   xmlns:cc="http://creativecommons.org/ns#"
   xmlns:rdf="http://www.w3.org/1999/02/22-rdf-syntax-ns#"
   xmlns:svg="http://www.w3.org/2000/svg"
   xmlns="http://www.w3.org/2000/svg"
   xmlns:xlink="http://www.w3.org/1999/xlink"
   xmlns:sodipodi="http://sodipodi.sourceforge.net/DTD/sodipodi-0.dtd"
   xmlns:inkscape="http://www.inkscape.org/namespaces/inkscape"
   version="1.1"
   width="1800.4003"
   height="300.40024"
   id="svg2"
   xml:space="preserve"
   inkscape:version="0.48.4 r9939"
   sodipodi:docname="Ajax.svg"><sodipodi:namedview
     pagecolor="#ffffff"
     bordercolor="#666666"
     borderopacity="1"
     objecttolerance="10"
     gridtolerance="10"
     guidetolerance="10"
     inkscape:pageopacity="0"
     inkscape:pageshadow="2"
     inkscape:window-width="1280"
     inkscape:window-height="1001"
     id="namedview28"
     showgrid="false"
     fit-margin-top="0.2"
     fit-margin-left="0.2"
     fit-margin-right="0.2"
     fit-margin-bottom="0.2"
     inkscape:zoom="0.40989584"
     inkscape:cx="820.62231"
     inkscape:cy="203.23239"
     inkscape:window-x="-8"
     inkscape:window-y="-8"
     inkscape:window-maximized="1"
     inkscape:current-layer="svg2" /><metadata
     id="metadata8"><rdf:RDF><cc:Work
         rdf:about=""><dc:format>image/svg+xml</dc:format><dc:type
           rdf:resource="http://purl.org/dc/dcmitype/StillImage" /><dc:title /></cc:Work></rdf:RDF></metadata><defs
     id="defs6"><linearGradient
       id="linearGradient15703"
       osb:paint="solid"><stop
         style="stop-color:#ffffff;stop-opacity:1;"
         offset="0"
         id="stop15705" /></linearGradient><linearGradient
       inkscape:collect="always"
       xlink:href="#linearGradient15703"
       id="linearGradient15707"
       x1="-37.125"
       y1="465.375"
       x2="967.87512"
       y2="465.375"
       gradientUnits="userSpaceOnUse"
       gradientTransform="translate(961.6578,56.04101)" /></defs><g
     id="g2991"
     transform="matrix(34.167339,0,0,34.167339,14.96955,-265.98949)" /><path
     style="font-size:medium;font-style:normal;font-variant:normal;font-weight:normal;font-stretch:normal;text-indent:0;text-align:start;text-decoration:none;line-height:normal;letter-spacing:normal;word-spacing:normal;text-transform:none;direction:ltr;block-progression:tb;writing-mode:lr-tb;text-anchor:start;baseline-shift:baseline;color:#000000;fill:#000000;fill-opacity:1;fill-rule:nonzero;stroke:none;stroke-width:30;marker:none;visibility:visible;display:inline;overflow:visible;enable-background:accumulate;font-family:Sans;-inkscape-font-specification:Sans"
     d="m 1743.544,300.20025 c 31.1185,0 56.6563,-25.5377 56.6563,-56.6563 l 0,-186.68775 C 1800.2003,25.7364 1774.6619,0.2 1743.544,0.2 L 56.8563,0.2 C 25.7386,0.2 0.2,25.7364 0.2,56.8562 l 0,186.68775 c 0,31.1186 25.5377,56.6563 56.6563,56.6563 z"
     id="path14428"
     inkscape:connector-curvature="0"
     sodipodi:nodetypes="sssssssss" /><path
     inkscape:connector-curvature="0"
     d="m 56.8668,285.20025 c -23.012,0 -41.6668,-18.6548 -41.6668,-41.6668 l 0,-186.66705 c 0,-23.014 18.6548,-41.6668 41.6668,-41.6668 l 1686.6669,0 c 23.0119,0 41.6666,18.6528 41.6666,41.6668 l 0,186.66705 c 0,23.012 -18.6547,41.6668 -41.6666,41.6668 z"
     style="fill:#fcff6d;fill-opacity:1;fill-rule:nonzero;stroke:none"
     id="path14430"
     sodipodi:nodetypes="sssssssss" /><path
     inkscape:connector-curvature="0"
     d="m 500.86023,251.94558 c -8.83505,-8.33128 -18.00049,-16.24796 -27.49633,-23.75025 -3.00108,-2.32944 -4.6681,-5.32778 -5.00107,-8.99498 -0.33333,-3.66717 0.83269,-6.91728 3.49808,-9.75035 l 1.9989,-1.9989 c 0.3355,-0.33566 0.41943,-0.67007 0.25177,-1.00326 -0.16804,-0.33311 -0.41726,-0.49969 -0.74768,-0.49972 l -19.7525,0 c -1.50061,3e-5 -2.25083,0.66633 -2.25067,1.99889 l 0,27.25211 c -1.6e-4,11.83067 -1.37472,19.24635 -4.12368,22.24724 -2.74929,3.0009 -9.29149,4.50139 -19.62662,4.50139 -7.83297,0 -14.99951,-0.1679 -21.49962,-0.5036 -3.00102,-0.16269 -5.62553,-1.32749 -7.87354,-3.49419 -2.24824,-2.16679 -3.45623,-4.75059 -3.62396,-7.75148 -0.16796,-2.83299 0.78953,-5.20829 2.87247,-7.12578 2.0827,-1.9176 4.54064,-2.79239 7.37381,-2.62449 7.00365,0.33059 11.08792,0.49589 12.2528,0.49589 3.99767,0 6.32971,-0.3739 6.99615,-1.12159 0.66616,-0.7476 0.99931,-3.1229 0.99945,-7.12579 l 0,-24.74971 c -1.4e-4,-1.33256 -0.66644,-1.99886 -1.9989,-1.99889 l -25.7492,0 c -0.33072,3e-5 -0.57995,0.16661 -0.74768,0.49972 -0.16796,0.33319 -0.084,0.6676 0.25177,1.00326 l 1.74713,1.74713 c 2.83293,2.83307 4.33338,6.29171 4.50134,10.37595 0.16773,4.08428 -1.16487,7.54293 -3.9978,10.37595 -8.66709,8.66698 -18.00037,16.33196 -27.99987,22.99495 -2.67037,1.66829 -5.58861,2.16929 -8.75472,1.50299 -3.16627,-0.6663 -5.74882,-2.25069 -7.74765,-4.75309 -1.83621,-2.32949 -2.46182,-4.99469 -1.87683,-7.99558 0.58485,-3.00089 2.12599,-5.33549 4.62341,-7.00378 12.3341,-8.33128 23.00252,-17.49669 32.0053,-27.49629 0.82896,-0.8341 0.57719,-1.25118 -0.75531,-1.25121 l -22.49908,0 c -3.00096,3e-5 -5.54282,-1.08334 -7.62557,-3.25011 -2.0829,-2.16671 -3.12431,-4.75052 -3.12424,-7.75146 -7e-5,-3.00083 1.04134,-5.58464 3.12424,-7.75144 2.08275,-2.16669 4.62461,-3.25006 7.62557,-3.25012 l 145.00423,0 c 2.99557,6e-5 5.57685,1.08343 7.74383,3.25012 2.16651,2.1668 3.24988,4.75061 3.25012,7.75144 -2.4e-4,3.00094 -1.08361,5.58475 -3.25012,7.75146 -2.16698,2.16677 -4.74826,3.25014 -7.74383,3.25011 l -27.25219,0 c -0.3359,3e-5 -0.54443,0.16661 -0.62561,0.49972 -0.0816,0.33319 0.043,0.58368 0.37384,0.75149 11.66767,8.49915 22.66925,17.66457 33.00475,27.49629 2.32927,2.33459 3.53598,5.08499 3.62014,8.25118 0.0837,3.16619 -0.95772,5.91658 -3.12423,8.25118 -2.16698,2.33449 -4.83345,3.58449 -7.99941,3.74979 -3.16642,0.1653 -5.91682,-0.8354 -8.25119,-3.00219 z M 316.35864,174.69819 c -3.16369,9.33333 -6.41381,17.75107 -9.75037,25.25323 -1.33262,2.66524 -3.54005,3.99783 -6.6223,3.9978 -3.08229,3e-5 -5.37365,-1.33256 -6.87409,-3.9978 -4.50134,-7.83786 -4.75057,-16.00637 -0.74768,-24.50555 9.66388,-20.4975 16.91179,-41.99707 21.74377,-64.49875 0.33566,-1.33246 -0.16279,-1.99876 -1.49536,-1.99889 l -10.00213,0 c -3.16367,1.3e-4 -5.82887,-1.08324 -7.99561,-3.25012 -2.16675,-2.16661 -3.25013,-4.83307 -3.25012,-7.999401 -1e-5,-3.166043 1.08337,-5.832506 3.25012,-7.999401 2.16674,-2.166585 4.83194,-3.249952 7.99561,-3.250112 l 12.2528,0 c 1.50041,1.6e-4 2.25063,-0.666139 2.25067,-1.998896 l 0,-33.24882 c -4e-5,-3.336392 1.20795,-6.212655 3.62396,-8.62883 2.41594,-2.415764 5.29094,-3.623751 8.62503,-3.623951 3.334,2e-4 6.16703,1.208187 8.49914,3.623951 2.33199,2.416175 3.49802,5.292438 3.49807,8.62883 l 0,33.24882 c -5e-5,1.332757 0.75017,1.999056 2.25068,1.998896 l 18.50128,0 c 0.49837,1.6e-4 0.7476,-0.24907 0.74768,-0.747679 -8e-5,-2.837973 1.41643,-4.257029 4.24956,-4.257189 l 34.75188,0 c 1.33248,1.6e-4 1.99878,-0.666139 1.9989,-1.998896 l 0,-8.995038 c -1.2e-4,-1.332427 -0.66642,-1.998725 -1.9989,-1.998895 l -35.75133,0 c -3.00096,1.7e-4 -5.54282,-1.083198 -7.62557,-3.250113 -2.0829,-2.166564 -3.12431,-4.750378 -3.12424,-7.751451 -7e-5,-3.000703 1.04134,-5.584507 3.12424,-7.751442 2.08275,-2.166554 4.62461,-3.249922 7.62557,-3.250112 l 145.00423,0 c 2.99557,1.9e-4 5.57685,1.083558 7.74383,3.250112 2.16651,2.166935 3.24988,4.750739 3.25012,7.751442 -2.4e-4,3.001073 -1.08361,5.584887 -3.25012,7.751451 -2.16698,2.166915 -4.74826,3.250283 -7.74383,3.250113 l -35.00365,0 c -1.50064,1.7e-4 -2.25086,0.666468 -2.25067,1.998895 l 0,8.995038 c -1.9e-4,1.332757 0.75003,1.999056 2.25067,1.998896 l 25.49743,0 c 3.83482,1.6e-4 7.16886,1.417946 10.00213,4.253379 2.83281,2.835734 4.24933,6.168496 4.24957,9.998297 l 0,32.249366 c -2.4e-4,3.83514 -1.41676,7.12722 -4.24957,9.87623 -2.83327,2.74922 -6.16731,4.12378 -10.00213,4.12368 l -115.2496,0 -9.49859,0 c -3.83005,1e-4 -7.12086,-1.37446 -9.87244,-4.12368 -2.75175,-2.74901 -4.12757,-6.04109 -4.12749,-9.87623 l 0,-16.99825 c -8e-5,-1.33246 -0.7503,-1.99876 -2.25067,-1.99889 l -12.24518,0 c -1.50051,1.3e-4 -1.91759,0.66643 -1.25122,1.99889 11.99842,27.83207 18.9971,44.24793 20.99608,49.24763 l 0.25177,-0.24414 c -8e-5,-2.16667 0.75014,-4.04221 2.25067,-5.62667 1.50036,-1.58428 3.33396,-2.37646 5.5008,-2.37655 l 124.74819,0 c 2.83282,9e-5 5.29076,1.08346 7.37381,3.25012 2.08259,2.16682 3.12401,4.66671 3.12423,7.49967 -2.2e-4,2.83311 -1.04164,5.33301 -3.12423,7.49968 -2.08305,2.16681 -4.54099,3.25019 -7.37381,3.25012 l -126.74709,0 c -1.66839,7e-5 -3.04422,-0.54162 -4.12751,-1.62506 -1.08346,-1.08331 -1.62514,-2.45914 -1.62506,-4.1275 -8e-5,-0.16268 -0.0827,-0.32799 -0.24795,-0.49591 -0.16539,-0.16777 -0.33197,-0.16777 -0.49973,0 l -4.24956,3.25012 c -2.83313,2.16681 -5.95863,2.75046 -9.37653,1.75094 -3.41803,-0.99938 -5.70939,-3.16739 -6.87408,-6.50405 -0.49852,-1.50036 -1.28943,-3.6671 -2.37274,-6.50022 -1.08344,-2.83295 -1.87689,-4.91578 -2.38037,-6.24847 -0.16791,-0.33051 -0.37645,-0.49581 -0.62562,-0.4959 -0.24928,9e-5 -0.37389,0.16539 -0.37384,0.4959 l 0,98.74705 c -5e-5,3.33659 -1.16608,6.21278 -3.49807,8.62878 -2.33211,2.41599 -5.16514,3.62399 -8.49914,3.62399 -3.33409,0 -6.20909,-1.208 -8.62503,-3.62399 -2.41601,-2.416 -3.624,-5.29219 -3.62396,-8.62878 l 0,-76.99569 c -4e-5,-0.16778 -0.12592,-0.2517 -0.37766,-0.25177 -0.2518,7e-5 -0.37768,0.084 -0.37765,0.25177 z m 156.50172,-72.2502 0,17.9977 c -1.9e-4,1.50057 0.66611,2.25079 1.9989,2.25067 l 14.50347,0 c 1.50024,1.2e-4 2.25046,-0.7501 2.25067,-2.25067 l 0,-17.9977 c -2.1e-4,-1.5003 -0.75043,-2.25052 -2.25067,-2.25066 l -14.50347,0 c -1.33279,1.4e-4 -1.99909,0.75036 -1.9989,2.25066 z m -24.00207,17.9977 0,-17.9977 c -1.6e-4,-1.5003 -0.66646,-2.25052 -1.9989,-2.25066 l -15.74707,0 c -1.50059,1.4e-4 -2.25082,0.75036 -2.25067,2.25066 l 0,17.9977 c -1.5e-4,1.50057 0.75008,2.25079 2.25067,2.25067 l 15.74707,0 c 1.33244,1.2e-4 1.99874,-0.7501 1.9989,-2.25067 z m -2.49481,-51.994191 -14.75525,0 c -1.33275,1.7e-4 -1.99905,0.666468 -1.9989,1.998895 l 0,8.995038 c -1.5e-4,1.332757 0.66615,1.999056 1.9989,1.998896 l 14.75525,0 c 1.33244,1.6e-4 1.99874,-0.666139 1.9989,-1.998896 l 0,-8.995038 c -1.6e-4,-1.332427 -0.66646,-1.998725 -1.9989,-1.998895 z m -60.00517,33.996491 0,17.9977 c -1e-4,1.50057 0.75012,2.25079 2.25067,2.25067 l 14.50347,0 c 1.50033,1.2e-4 2.25055,-0.7501 2.25068,-2.25067 l 0,-17.9977 c -1.3e-4,-1.5003 -0.75035,-2.25052 -2.25068,-2.25066 l -14.50347,0 c -1.50055,1.4e-4 -2.25077,0.75036 -2.25067,2.25066 z"
     id="path3589"
     style="font-size:250px;font-style:normal;font-variant:normal;font-weight:normal;font-stretch:normal;text-align:center;text-anchor:middle;fill:#000000;fill-opacity:1;stroke:none;font-family:'Rounded M+ 1m medium';-inkscape-font-specification:'Rounded M+ 1m medium,'" /><path
     inkscape:connector-curvature="0"
     d="m 767.73636,97.694899 c 2.08513,2.166885 3.12781,4.666761 3.12805,7.499671 -2.4e-4,2.83318 -1.04292,5.33307 -3.12805,7.49968 -2.0856,2.16686 -4.54481,3.25024 -7.37763,3.25011 l -203.99468,0 c -2.83307,1.3e-4 -5.29227,-1.08325 -7.37762,-3.25011 -2.08538,-2.16661 -3.12807,-4.6665 -3.12805,-7.49968 -2e-5,-2.83291 1.04267,-5.332786 3.12805,-7.499671 2.08535,-2.166595 4.54455,-3.249972 7.37762,-3.250112 l 44.74638,0 c 1.50038,1.4e-4 1.91745,-0.498309 1.25122,-1.495357 -3.8351,-6.667924 -7.25306,-12.168701 -10.25389,-16.50234 -0.99697,-1.332437 -2.08034,-1.998736 -3.25013,-1.998906 l -20.99608,0 c -2.83308,1.7e-4 -5.33298,-1.041237 -7.4997,-3.124222 -2.16677,-2.082655 -3.25014,-4.540579 -3.25012,-7.373793 -2e-5,-2.832863 1.08335,-5.292067 3.25012,-7.377612 2.16672,-2.085175 4.66662,-3.127853 7.4997,-3.128043 l 74.50101,0 c 1.50033,1.9e-4 2.25056,-0.747488 2.25067,-2.243034 l 0,-4.753099 c -1.1e-4,-3.666991 1.37445,-6.875143 4.12369,-9.624467 2.749,-2.748903 5.95716,-4.12346 9.62448,-4.12367 3.66705,2.1e-4 6.87521,1.374767 9.62447,4.12367 2.74899,2.749324 4.12355,5.957476 4.12369,9.624467 l 0,4.753099 c -1.4e-4,1.495546 0.75008,2.243224 2.25067,2.243034 l 74.75278,0 c 2.83283,1.9e-4 5.29076,1.042868 7.3738,3.128043 2.0826,2.085545 3.12402,4.544749 3.12424,7.377612 -2.2e-4,2.833214 -1.04164,5.291138 -3.12424,7.373793 -2.08304,2.082985 -4.54097,3.124392 -7.3738,3.124222 l -21.49963,0 c -1.50064,1.7e-4 -2.50009,0.582549 -2.99835,1.747136 -3.33678,6.836074 -6.33766,12.336851 -9.00268,16.502341 -0.33587,0.335839 -0.37783,0.710948 -0.12588,1.125327 0.25159,0.414679 0.6267,0.621939 1.12533,0.621799 l 43.74693,0 c 2.83282,1.4e-4 5.29203,1.083517 7.37763,3.250112 z M 621.35884,76.44709 c 4.33341,7.334522 7.50215,12.835299 9.50622,16.50234 0.49836,0.997048 1.4978,1.495497 2.99835,1.495357 l 49.4995,0 c 1.33245,1.4e-4 2.41583,-0.498309 3.25013,-1.495357 3.99763,-5.665936 7.41305,-11.166713 10.24626,-16.50234 0.33553,-0.33045 0.3368,-0.746249 0.004,-1.247407 -0.33332,-0.500829 -0.75166,-0.751329 -1.25504,-0.751499 l -73.24979,0 c -0.49854,1.7e-4 -0.87238,0.25067 -1.12152,0.751499 -0.24931,0.501158 -0.20862,0.916957 0.12207,1.247407 z m 23.25439,177.49738 0,-11.49737 c -1.1e-4,-1.5005 -0.75034,-2.25069 -2.25067,-2.25069 l -85.5026,0 c -3.00091,0 -5.58473,-1.0834 -7.75146,-3.2501 -2.16676,-2.16679 -3.25014,-4.74929 -3.25012,-7.74768 -2e-5,-2.99832 1.08336,-5.54017 3.25012,-7.62555 2.16673,-2.08534 4.75055,-3.12802 7.75146,-3.12804 l 85.5026,0 c 1.50033,2e-5 2.25056,-0.7502 2.25067,-2.25068 l 0,-6.99613 c -1.1e-4,-1.50041 -0.75034,-2.25063 -2.25067,-2.25066 l -45.9976,0 -12.50458,0 c -3.83509,3e-5 -7.16913,-1.37453 -10.00214,-4.12369 -2.83307,-2.74907 -4.2496,-6.04114 -4.24956,-9.87622 l 0,-53.49718 c -4e-5,-3.83493 1.41649,-7.16897 4.24956,-10.00212 2.83301,-2.83292 6.16705,-4.24945 10.00214,-4.24956 l 149.00202,0 c 3.83484,1.1e-4 7.16889,1.41664 10.00214,4.24956 2.83284,2.83315 4.24936,6.16719 4.24957,10.00212 l 0,53.49718 c -2.1e-4,3.83508 -1.41673,7.12715 -4.24957,9.87622 -2.83325,2.74916 -6.1673,4.12372 -10.00214,4.12369 l -58.50217,0 c -1.50059,3e-5 -2.25081,0.75025 -2.25067,2.25066 l 0,6.99613 c -1.4e-4,1.50048 0.75008,2.2507 2.25067,2.25068 l 85.50259,0 c 3.00067,2e-5 5.58449,1.0427 7.75147,3.12804 2.16651,2.08538 3.24988,4.62723 3.25012,7.62555 -2.4e-4,2.99839 -1.08361,5.58089 -3.25012,7.74768 -2.16698,2.1667 -4.7508,3.2501 -7.75147,3.2501 l -85.50259,0 c -1.50059,0 -2.25081,0.75019 -2.25067,2.25069 l 0,11.49737 c -1.4e-4,3.66719 -1.3747,6.87669 -4.12369,9.62828 -2.74926,2.75169 -5.95742,4.12749 -9.62447,4.12749 -3.66732,0 -6.87548,-1.3758 -9.62448,-4.12749 -2.74924,-2.75159 -4.1238,-5.96109 -4.12369,-9.62828 z m -48.24827,-105.99487 0,6.50023 c -7e-5,1.33268 0.74761,1.99898 2.24304,1.9989 l 119.5068,0 c 1.49516,8e-5 2.24284,-0.66622 2.24303,-1.9989 l 0,-6.50023 c -1.9e-4,-1.33251 -0.74787,-1.9988 -2.24303,-1.9989 l -119.5068,0 c -1.49543,10e-5 -2.24311,0.66639 -2.24304,1.9989 z m 2.24304,38.49783 119.5068,0 c 1.49516,5e-5 2.24284,-0.66624 2.24303,-1.9989 l 0,-7.2479 c -1.9e-4,-1.33762 -0.74787,-2.00646 -2.24303,-2.00653 l -119.5068,0 c -1.49543,7e-5 -2.24311,0.66891 -2.24304,2.00653 l 0,7.2479 c -7e-5,1.33266 0.74761,1.99895 2.24304,1.9989 z"
     id="path3591"
     style="font-size:250px;font-style:normal;font-variant:normal;font-weight:normal;font-stretch:normal;text-align:center;text-anchor:middle;fill:#000000;fill-opacity:1;stroke:none;font-family:'Rounded M+ 1m medium';-inkscape-font-specification:'Rounded M+ 1m medium,'" /><path
     inkscape:connector-curvature="0"
     d="m 894.61315,252.70098 0,-14.75527 c -1.1e-4,-1.3326 -0.75034,-1.99889 -2.25067,-1.99889 l -86.99796,0 c -2.83307,0 -5.33296,-1.0834 -7.49969,-3.2501 -2.16676,-2.16679 -3.25014,-4.66659 -3.25013,-7.49969 -10e-6,-2.83302 1.08337,-5.29095 3.25013,-7.37379 2.16673,-2.0828 4.66662,-3.1242 7.49969,-3.12423 l 86.99796,0 c 1.50033,3e-5 2.25056,-0.75019 2.25067,-2.25067 l 0,-14.50344 c -1.1e-4,-1.33255 -0.75034,-1.99885 -2.25067,-1.9989 l -51.0025,0 -11.24571,0 c -3.83509,5e-5 -7.16913,-1.41648 -10.00214,-4.24956 -2.83308,-2.83299 -4.2496,-6.16702 -4.24957,-10.00211 l 0,-69.24422 c -3e-5,-3.8349 1.41649,-7.12697 4.24957,-9.87623 2.83301,-2.748976 6.16705,-4.123533 10.00214,-4.123673 l 62.24821,0 c 1.50033,1.4e-4 2.25056,-0.750078 2.25067,-2.250665 l 0,-13.252228 c -1.1e-4,-1.332437 -0.75034,-1.998735 -2.25067,-1.998895 l -84.50315,0 c -2.83307,1.6e-4 -5.33296,-1.083208 -7.49969,-3.250112 -2.16676,-2.166585 -3.25014,-4.666469 -3.25012,-7.499683 -2e-5,-2.832863 1.08336,-5.332757 3.25012,-7.499672 2.16673,-2.166564 4.66662,-3.249932 7.49969,-3.250122 l 84.50315,0 c 1.50033,1.9e-4 2.25056,-0.666108 2.25067,-1.998895 l 0,-7.255533 c -1.1e-4,-3.829751 1.37445,-7.078593 4.12368,-9.746526 2.749,-2.667534 5.95716,-4.001411 9.62448,-4.001611 3.66706,2e-4 6.87522,1.334077 9.62448,4.001611 2.74899,2.667933 4.12355,5.916775 4.12369,9.746526 l 0,7.255533 c -1.4e-4,1.332787 0.75008,1.999085 2.25067,1.998895 l 84.50315,0 c 2.8328,1.9e-4 5.3327,1.083558 7.4997,3.250122 2.1665,2.166915 3.2499,4.666809 3.2501,7.499672 -2e-4,2.833214 -1.0836,5.333098 -3.2501,7.499683 -2.167,2.166904 -4.6669,3.250272 -7.4997,3.250112 l -84.50315,0 c -1.50059,1.6e-4 -2.25081,0.666458 -2.25067,1.998895 l 0,13.252228 c -1.4e-4,1.500587 0.75008,2.250805 2.25067,2.250665 l 62.2482,0 c 3.83483,1.4e-4 7.16887,1.374697 10.00213,4.123673 2.83284,2.74926 4.24932,6.04133 4.24962,9.87623 l 0,69.24422 c -3e-4,3.83509 -1.41678,7.16912 -4.24962,10.00211 -2.83326,2.83308 -6.1673,4.24961 -10.00213,4.24956 l -62.2482,0 c -1.50059,5e-5 -2.25081,0.66635 -2.25067,1.9989 l 0,14.50344 c -1.4e-4,1.50048 0.75008,2.2507 2.25067,2.25067 l 86.99795,0 c 2.8329,3e-5 5.3328,1.04143 7.4997,3.12423 2.1665,2.08284 3.2499,4.54077 3.2502,7.37379 -3e-4,2.8331 -1.0837,5.3329 -3.2502,7.49969 -2.1669,2.1667 -4.6668,3.2501 -7.4997,3.2501 l -86.99795,0 c -1.50059,0 -2.25081,0.66629 -2.25067,1.99889 l 0,14.75527 c -1.4e-4,3.82989 -1.3747,7.07868 -4.12369,9.74647 -2.74926,2.6677 -5.95742,4.00159 -9.62448,4.00159 -3.66732,0 -6.87548,-1.33389 -9.62448,-4.00159 -2.74923,-2.66779 -4.12379,-5.91658 -4.12368,-9.74647 z m 80.74948,-79.00224 0,-15.75466 c -1.9e-4,-1.33251 -0.75042,-1.99881 -2.25067,-1.99889 l -48.75181,0 c -1.50059,8e-5 -2.25081,0.66638 -2.25067,1.99889 l 0,15.75466 c -1.4e-4,1.50051 0.75008,2.25073 2.25067,2.25067 l 48.75181,0 c 1.50025,6e-5 2.25048,-0.75016 2.25067,-2.25067 z m -2.25067,-55.25194 -48.75181,0 c -1.50059,1.3e-4 -2.25081,0.66642 -2.25067,1.99889 l 0,14.50345 c -1.4e-4,1.3327 0.75008,1.999 2.25067,1.99889 l 48.75181,0 c 1.50025,1.1e-4 2.25048,-0.66619 2.25067,-1.99889 l 0,-14.50345 c -1.9e-4,-1.33247 -0.75042,-1.99876 -2.25067,-1.99889 z m -131.75198,1.99889 0,14.50345 c -5e-5,1.3327 0.75017,1.999 2.25068,1.99889 l 48.75182,0 c 1.50033,1.1e-4 2.25056,-0.66619 2.25067,-1.99889 l 0,-14.50345 c -1.1e-4,-1.33247 -0.75034,-1.99876 -2.25067,-1.99889 l -48.75182,0 c -1.50051,1.3e-4 -2.25073,0.66642 -2.25068,1.99889 z m 2.25068,55.50372 48.75182,0 c 1.50033,6e-5 2.25056,-0.75016 2.25067,-2.25067 l 0,-15.75466 c -1.1e-4,-1.33251 -0.75034,-1.99881 -2.25067,-1.99889 l -48.75182,0 c -1.50051,8e-5 -2.25073,0.66638 -2.25068,1.99889 l 0,15.75466 c -5e-5,1.50051 0.75017,2.25073 2.25068,2.25067 z"
     id="path3593"
     style="font-size:250px;font-style:normal;font-variant:normal;font-weight:normal;font-stretch:normal;text-align:center;text-anchor:middle;fill:#000000;fill-opacity:1;stroke:none;font-family:'Rounded M+ 1m medium';-inkscape-font-specification:'Rounded M+ 1m medium,'" /><path
     inkscape:connector-curvature="0"
     d="m 1084.6079,208.45055 3.0059,-4.50133 c 0.3306,-0.33566 0.3713,-0.71204 0.1221,-1.12915 -0.2493,-0.41703 -0.6231,-0.62556 -1.1215,-0.6256 l -30.2506,0 c -2.833,4e-5 -5.2922,-1.08334 -7.3776,-3.25013 -2.0854,-2.16669 -3.128,-4.66658 -3.128,-7.49967 0,-2.83299 1.0426,-5.29092 3.128,-7.37379 2.0854,-2.08277 4.5446,-3.12417 7.3776,-3.12423 l 140.9989,0 c 1.5003,6e-5 2.2505,-0.75016 2.2507,-2.25067 l 0,-5.74491 c -2e-4,-1.33762 -0.7504,-2.00646 -2.2507,-2.00653 l -106.0028,0 -11.2458,0 c -3.835,7e-5 -7.1691,-1.41646 -10.0021,-4.24957 -2.8331,-2.83296 -4.2496,-6.16445 -4.2496,-9.99448 l 0,-56.754926 c 0,-3.829801 1.4165,-7.120604 4.2496,-9.872417 2.833,-2.751503 6.1671,-4.12733 10.0021,-4.12749 l 62.5,0 c 1.3325,1.6e-4 1.9988,-0.750068 1.9989,-2.250665 l 0,-6.248455 c -10e-5,-1.500286 -0.6664,-2.250504 -1.9989,-2.250674 l -86.2503,0 c -2.833,1.7e-4 -5.2922,-1.083198 -7.3776,-3.250113 -2.0854,-2.166565 -3.128,-4.666459 -3.128,-7.499672 0,-2.832863 1.0426,-5.290797 3.128,-7.373792 2.0854,-2.082635 4.5446,-3.124043 7.3776,-3.124233 l 86.2503,0 c 1.3325,1.9e-4 1.9988,-0.666108 1.9989,-1.998895 l 0,-2.998343 c -10e-5,-3.666991 1.3745,-6.876413 4.1237,-9.628277 2.749,-2.751453 5.9572,-4.12728 9.6245,-4.12749 3.6671,2.1e-4 6.8752,1.376037 9.6245,4.12749 2.749,2.751864 4.1235,5.961286 4.1237,9.628277 l 0,2.998343 c -2e-4,1.332787 0.7501,1.999085 2.2507,1.998895 l 85.9985,0 c 2.8328,1.9e-4 5.292,1.041598 7.3776,3.124233 2.0851,2.082995 3.1278,4.540929 3.1281,7.373792 -3e-4,2.833213 -1.043,5.333107 -3.1281,7.499672 -2.0856,2.166915 -4.5448,3.250283 -7.3776,3.250113 l -85.9985,0 c -1.5006,1.7e-4 -2.2509,0.750388 -2.2507,2.250674 l 0,6.248455 c -2e-4,1.500597 0.7501,2.250825 2.2507,2.250665 l 62.2482,0 c 3.8348,1.6e-4 7.1689,1.375987 10.0021,4.12749 2.8329,2.751813 4.2494,6.042616 4.2496,9.872417 l 0,56.754926 c -2e-4,3.83003 -1.4167,7.16152 -4.2496,9.99448 -2.8332,2.83311 -6.1673,4.24964 -10.0021,4.24957 l -7.2479,0 c -1.5007,7e-5 -2.2509,0.66891 -2.2507,2.00653 l 0,5.74491 c -2e-4,1.50051 0.75,2.25073 2.2507,2.25067 l 30.9982,0 c 2.8328,6e-5 5.292,1.04146 7.3776,3.12423 2.0851,2.08287 3.1278,4.5408 3.1281,7.37379 -3e-4,2.83309 -1.043,5.33298 -3.1281,7.49967 -2.0856,2.16679 -4.5448,3.25017 -7.3776,3.25013 l -30.9982,0 c -1.5007,4e-5 -2.2509,0.66887 -2.2507,2.00652 l 0,24.74974 c -2e-4,5.82879 -0.083,10.36828 -0.248,13.61837 -0.1655,3.25009 -0.7898,6.29298 -1.873,9.12858 -1.0835,2.83559 -2.2928,4.83569 -3.6278,6.00048 -1.3353,1.1647 -3.6686,2.2062 -6.9999,3.1242 -3.3317,0.91809 -6.7891,1.45979 -10.3722,1.62509 -3.5834,0.1653 -8.6252,0.2479 -15.1253,0.248 -6.3325,-10e-5 -17.1662,-0.2493 -32.5012,-0.7477 -3.1688,-0.1679 -5.8773,-1.37709 -8.1253,-3.62779 -2.2482,-2.25069 -3.4562,-4.95779 -3.624,-8.12148 -0.1679,-3.00089 0.8315,-5.58468 2.9984,-7.75138 2.1666,-2.16679 4.7505,-3.16619 7.7515,-2.99839 13.6666,0.4985 23.417,0.7477 29.2511,0.7477 7.497,0 11.8711,-0.4997 13.1225,-1.4992 1.2511,-0.9994 1.8767,-4.41609 1.8769,-10.25008 l 0,-24.24614 c -2e-4,-1.33765 -0.7504,-2.00648 -2.2507,-2.00652 l -100.502,0 c -0.3307,4e-5 -0.496,0.084 -0.4959,0.25177 -10e-5,0.16788 0.081,0.33572 0.2441,0.50353 9.9995,5.16766 21.7513,11.91712 35.2554,20.24837 2.833,1.83106 4.6246,4.45557 5.3749,7.87349 0.7502,3.41799 0.2085,6.54348 -1.625,9.37658 -1.8337,2.83299 -4.4595,4.62458 -7.8774,5.37488 -3.418,0.7502 -6.5435,0.2072 -9.3765,-1.62889 -8.8349,-5.66609 -18.4174,-11.33218 -28.7476,-16.99827 -3.3366,-1.83104 -5.5046,-4.62211 -6.504,-8.37324 -0.9995,-3.75108 -0.4998,-7.20847 1.4992,-10.37214 z m 138.504,-104.00366 -48.7518,0 c -1.5006,1.4e-4 -2.2509,0.75036 -2.2507,2.25066 l 0,10.25389 c -2e-4,1.33272 0.7501,1.99902 2.2507,1.9989 l 48.7518,0 c 1.5002,1.2e-4 2.2505,-0.66618 2.2507,-1.9989 l 0,-10.25389 c -2e-4,-1.5003 -0.7505,-2.25052 -2.2507,-2.25066 z m -131.752,2.25066 0,10.25389 c -10e-5,1.33272 0.7501,1.99902 2.2506,1.9989 l 49.0036,0 c 1.3325,1.2e-4 1.9988,-0.66618 1.9989,-1.9989 l 0,-10.25389 c -10e-5,-1.5003 -0.6664,-2.25052 -1.9989,-2.25066 l -49.0036,0 c -1.5005,1.4e-4 -2.2507,0.75036 -2.2506,2.25066 z m 2.2506,45.24984 49.0036,0 c 1.3325,9e-5 1.9988,-0.66621 1.9989,-1.9989 l 0,-11.49747 c -10e-5,-1.33758 -0.6664,-2.00642 -1.9989,-2.00653 l -49.0036,0 c -1.5005,1.1e-4 -2.2507,0.66895 -2.2506,2.00653 l 0,11.49747 c -10e-5,1.33269 0.7501,1.99899 2.2506,1.9989 z m 80.7496,0 48.7518,0 c 1.5002,9e-5 2.2505,-0.66621 2.2507,-1.9989 l 0,-11.49747 c -2e-4,-1.33758 -0.7505,-2.00642 -2.2507,-2.00653 l -48.7518,0 c -1.5006,1.1e-4 -2.2509,0.66895 -2.2507,2.00653 l 0,11.49747 c -2e-4,1.33269 0.7501,1.99899 2.2507,1.9989 z"
     id="path3595"
     style="font-size:250px;font-style:normal;font-variant:normal;font-weight:normal;font-stretch:normal;text-align:center;text-anchor:middle;fill:#000000;fill-opacity:1;stroke:none;font-family:'Rounded M+ 1m medium';-inkscape-font-specification:'Rounded M+ 1m medium,'" /><path
     inkscape:connector-curvature="0"
     d="m 1340.6121,189.94932 c -2.8331,24.1648 -9.6665,45.2473 -20.5001,63.24755 -1.9989,3.1687 -4.832,5.04429 -8.4991,5.62659 -3.6673,0.5824 -7.0013,-0.2924 -10.0022,-2.62449 -3.0009,-2.332 -4.8345,-5.45749 -5.5008,-9.37648 -0.6663,-3.91899 -0.081,-7.54418 1.7548,-10.87567 6.8308,-11.99845 11.6628,-25.45665 14.4958,-40.37466 2.8331,-14.91791 4.2496,-34.62712 4.2496,-59.12767 l 0,-78.246877 c 0,-3.834841 1.3745,-7.168873 4.1237,-10.002106 2.7491,-2.832853 6.0411,-4.24937 9.8762,-4.24957 l 166.0003,0 c 3.8348,2e-4 7.1689,1.416717 10.0022,4.24957 2.8328,2.833233 4.2493,6.167265 4.2495,10.002106 l 0,168.250637 c -2e-4,16.49975 -1.8758,26.66592 -5.6266,30.49842 -3.7514,3.83249 -13.5437,5.74868 -29.377,5.74878 -4.6643,-10e-5 -12.3293,-0.2493 -22.995,-0.7477 -3.1689,-0.1679 -5.7947,-1.33519 -7.8774,-3.50189 -2.083,-2.16679 -3.2083,-4.83199 -3.376,-7.99558 -0.168,-2.83309 0.7908,-5.29229 2.8763,-7.37758 2.0852,-2.0854 4.5444,-3.04419 7.3776,-2.87629 9.6637,0.49839 16.2454,0.74769 19.7449,0.74769 6.1694,0 9.8786,-0.62439 11.1275,-1.87309 1.2484,-1.2486 1.8728,-5.03919 1.873,-11.37154 l 0,-37.75015 c -2e-4,-1.5004 -0.7504,-2.25062 -2.2507,-2.25067 l -56.9992,0 c -1.3327,5e-5 -1.999,0.75027 -1.9989,2.25067 l 0,55.00017 c -10e-5,3.4993 -1.2501,6.49899 -3.7498,8.99888 -2.5001,2.4998 -5.4997,3.74979 -8.9989,3.74979 -3.4995,0 -6.4991,-1.24999 -8.9989,-3.74979 -2.5,-2.49989 -3.7499,-5.49958 -3.7498,-8.99888 l 0,-55.00017 c -10e-5,-1.5004 -0.7504,-2.25062 -2.2507,-2.25067 l -52.7496,0 c -1.1699,5e-5 -1.9202,0.75027 -2.2507,2.25067 z m 143.9972,-25.00147 0,-37.49839 c -2e-4,-1.50032 -0.7504,-2.25055 -2.2507,-2.25066 l -56.9992,0 c -1.3327,1.1e-4 -1.999,0.75034 -1.9989,2.25066 l 0,37.49839 c -10e-5,1.33267 0.6662,1.99897 1.9989,1.99889 l 56.9992,0 c 1.5003,8e-5 2.2505,-0.66622 2.2507,-1.99889 z m -2.2507,-98.998785 -56.9992,0 c -1.3327,1.7e-4 -1.999,0.666468 -1.9989,1.998895 l 0,34.50003 c -10e-5,1.33274 0.6662,1.99904 1.9989,1.9989 l 56.9992,0 c 1.5003,1.4e-4 2.2505,-0.66616 2.2507,-1.9989 l 0,-34.50003 c -2e-4,-1.332427 -0.7504,-1.998725 -2.2507,-1.998895 z m -139.4958,1.998895 0,34.50003 c -1e-4,1.33274 0.6662,1.99904 1.9989,1.9989 l 50.7507,0 c 1.5003,1.4e-4 2.2506,-0.66616 2.2507,-1.9989 l 0,-34.50003 c -10e-5,-1.332427 -0.7504,-1.998725 -2.2507,-1.998895 l -50.7507,0 c -1.3327,1.7e-4 -1.999,0.666468 -1.9989,1.998895 z m 0,59.5015 0,19.50069 c -1e-4,4.33358 -0.1679,10.3328 -0.5036,17.9977 0,1.33267 0.6663,1.99897 1.9989,1.99889 l 51.2543,0 c 1.5003,8e-5 2.2506,-0.66622 2.2507,-1.99889 l 0,-37.49839 c -10e-5,-1.50032 -0.7504,-2.25055 -2.2507,-2.25066 l -50.7507,0 c -1.3327,1.1e-4 -1.999,0.75034 -1.9989,2.25066 z"
     id="path3597"
     style="font-size:250px;font-style:normal;font-variant:normal;font-weight:normal;font-stretch:normal;text-align:center;text-anchor:middle;fill:#000000;fill-opacity:1;stroke:none;font-family:'Rounded M+ 1m medium';-inkscape-font-specification:'Rounded M+ 1m medium,'" /></svg>