<?xml version="1.0" encoding="UTF-8" standalone="no"?>
<!-- Created with Inkscape (http://www.inkscape.org/) -->

<svg
   xmlns:dc="http://purl.org/dc/elements/1.1/"
   xmlns:cc="http://creativecommons.org/ns#"
   xmlns:rdf="http://www.w3.org/1999/02/22-rdf-syntax-ns#"
   xmlns:svg="http://www.w3.org/2000/svg"
   xmlns="http://www.w3.org/2000/svg"
   xmlns:sodipodi="http://sodipodi.sourceforge.net/DTD/sodipodi-0.dtd"
   xmlns:inkscape="http://www.inkscape.org/namespaces/inkscape"
   width="365.00305"
   height="132.28654"
   id="svg4203"
   sodipodi:version="0.32"
   inkscape:version="0.48.4 r9939"
   version="1.0"
   sodipodi:docname="Japanese_Road_sign_(Direction_and_Notice of exit_A).svg"
   inkscape:output_extension="org.inkscape.output.svg.inkscape">
  <defs
     id="defs4205">
    <inkscape:perspective
       sodipodi:type="inkscape:persp3d"
       inkscape:vp_x="0 : 315 : 1"
       inkscape:vp_y="0 : 1000 : 0"
       inkscape:vp_z="1500 : 315 : 1"
       inkscape:persp3d-origin="750 : 210 : 1"
       id="perspective9" />
    <inkscape:perspective
       id="perspective3163"
       inkscape:persp3d-origin="372.04724 : 350.78739 : 1"
       inkscape:vp_z="744.09448 : 526.18109 : 1"
       inkscape:vp_y="0 : 1000 : 0"
       inkscape:vp_x="0 : 526.18109 : 1"
       sodipodi:type="inkscape:persp3d" />
    <inkscape:perspective
       id="perspective2395"
       inkscape:persp3d-origin="372.04724 : 350.78739 : 1"
       inkscape:vp_z="744.09448 : 526.18109 : 1"
       inkscape:vp_y="0 : 1000 : 0"
       inkscape:vp_x="0 : 526.18109 : 1"
       sodipodi:type="inkscape:persp3d" />
    <inkscape:perspective
       id="perspective3843"
       inkscape:persp3d-origin="227.5 : 145 : 1"
       inkscape:vp_z="455 : 217.5 : 1"
       inkscape:vp_y="0 : 1000 : 0"
       inkscape:vp_x="0 : 217.5 : 1"
       sodipodi:type="inkscape:persp3d" />
  </defs>
  <sodipodi:namedview
     id="base"
     pagecolor="#ffffff"
     bordercolor="#666666"
     borderopacity="1.0"
     gridtolerance="10000"
     guidetolerance="10"
     objecttolerance="10"
     inkscape:pageopacity="0.0"
     inkscape:pageshadow="2"
     inkscape:zoom="0.8542857"
     inkscape:cx="-200.16324"
     inkscape:cy="-55.027186"
     inkscape:document-units="px"
     inkscape:current-layer="layer1"
     width="1500px"
     height="630px"
     inkscape:window-width="1680"
     inkscape:window-height="988"
     inkscape:window-x="-8"
     inkscape:window-y="-8"
     showgrid="false"
     showguides="true"
     inkscape:guide-bbox="true"
     inkscape:snap-center="true"
     inkscape:window-maximized="1"
     fit-margin-top="0"
     fit-margin-left="0"
     fit-margin-right="0"
     fit-margin-bottom="0" />
  <metadata
     id="metadata4208">
    <rdf:RDF>
      <cc:Work
         rdf:about="">
        <dc:format>image/svg+xml</dc:format>
        <dc:type
           rdf:resource="http://purl.org/dc/dcmitype/StillImage" />
        <dc:title></dc:title>
      </cc:Work>
    </rdf:RDF>
  </metadata>
  <g
     inkscape:label="sign"
     inkscape:groupmode="layer"
     id="layer1"
     transform="translate(11.598515,-72.753052)">
    <path
       inkscape:connector-curvature="0"
       d="m -11.598515,72.753052 0,132.286538 365.003055,0 0,-132.286538 -365.003055,0 z"
       style="fill:#005d35;fill-opacity:1;fill-rule:nonzero;stroke:none"
       id="path11179" />
    <g
       id="g11269"
       transform="matrix(0,6.9830315,6.9830315,0,324.82998,88.946702)"
       style="fill:#ffffff;stroke:none">
      <path
         inkscape:connector-curvature="0"
         d="m 0,0 0,-2.94 8.2412772,0 L 10.363723,0 z"
         style="fill:#ffffff;stroke:none"
         id="path11271"
         sodipodi:nodetypes="ccccc" />
    </g>
    <g
       id="g11277"
       transform="matrix(0,6.9830315,6.9830315,0,279.23078,136.1869)"
       style="fill:#ffffff;stroke:none">
      <path
         inkscape:connector-curvature="0"
         d="m 0,0 -1.807,0 0.48,1.075 0.046,0.101 c 0.003,0.018 0.01,0.033 0.01,0.051 0,0.128 -0.096,0.227 -0.217,0.246 -0.006,0 -0.012,10e-4 -0.018,10e-4 -0.008,0 -0.016,0 -0.024,-10e-4 -0.014,0 -0.031,-0.002 -0.047,-0.003 C -1.629,1.466 -1.681,1.458 -1.733,1.447 -1.742,1.443 -1.753,1.439 -1.762,1.436 -1.807,1.423 -1.85,1.407 -1.89,1.385 -1.895,1.382 -1.899,1.381 -1.905,1.378 l -4.693,-2.703 c -0.11,-0.064 -0.166,-0.149 -0.167,-0.232 10e-4,-0.085 0.057,-0.17 0.167,-0.232 l 2,-1.15 2.693,-1.553 c 0.006,-0.003 0.01,-0.006 0.015,-0.007 0.04,-0.022 0.083,-0.038 0.128,-0.052 0.009,-0.004 0.02,-0.007 0.029,-0.01 0.052,-0.012 0.104,-0.02 0.156,-0.024 0.016,-0.003 0.033,-0.004 0.047,-0.004 l 0.042,0 c 0.121,0.02 0.217,0.121 0.217,0.247 0,0.018 -0.007,0.034 -0.01,0.049 l -0.046,0.103 -0.557,1.251 3.943,0 4.692,6.529 1.825,0 0,2.94 -3.883,0 L 0,0 z"
         style="fill:#ffffff;stroke:none"
         id="path11279" />
    </g>
    <g
       style="font-size:53.37737656px;font-style:normal;font-variant:normal;font-weight:normal;font-stretch:normal;line-height:125%;letter-spacing:0px;word-spacing:0px;fill:#ffffff;fill-opacity:1;stroke:none;font-family:GD-HighwayGothicJA-TTF;-inkscape-font-specification:GD-HighwayGothicJA-TTF"
       id="text6244">
      <path
         d="m 9.8663551,141.47668 13.6049759,0 0,-5.05625 -7.193436,0 0,-15.22089 36.853326,0 0,15.22089 -7.193436,0 0,5.05625 13.604976,0 0,4.79563 -49.6764059,0 z m 6.4115399,-27.47058 36.853326,0 0,4.79562 -36.853326,0 z m -3.70097,-10.8944 4.222234,-2.13718 2.814822,5.62964 c 2.780058,-1.49425 5.351622,-3.28392 7.714699,-5.36901 l 0,0 -3.857349,0 0,-4.795627 14.960261,0 c 1.181499,1.598585 2.467281,3.092872 3.857349,4.482867 l 0,0 2.293559,-4.117982 4.274361,2.397811 -2.762697,5.004131 c 1.146741,0.90356 2.380396,1.7202 3.700971,2.44994 l 0,0 2.814822,-5.00413 4.222234,2.39781 -2.606317,4.7435 c 1.980753,0.7993 3.996303,1.49432 6.046656,2.08505 l 0,0 -1.355285,4.53499 c -4.726168,-1.251 -9.156903,-3.14492 -13.292218,-5.68177 -3.648878,-2.25877 -6.793831,-5.09097 -9.434868,-8.49659 l 0,0 -1.980801,0 c -2.919099,3.30137 -6.237806,6.04669 -9.956132,8.23596 -4.309123,2.60635 -8.84411,4.58714 -13.604976,5.9424 l 0,0 -1.4595374,-4.58712 c 2.0502994,-0.59073 4.1006004,-1.3205 6.1509084,-2.1893 l 0,0 z m 8.496594,22.93559 0,5.57752 27.262078,0 0,-5.57752 z m 20.016516,15.42939 0,-5.05625 -12.770954,0 0,5.05625 z"
         style="letter-spacing:4px"
         id="path6316" />
      <path
         d="m 66.9831,109.21048 5.890277,0 0,-12.770957 4.795624,0 0,12.770957 6.150908,0 0,4.79562 -6.150908,0 0,18.50485 c 1.598527,-0.66025 3.162316,-1.44215 4.691371,-2.34568 l 0,0 2.397811,4.01373 c -2.46733,1.56379 -5.073645,2.86695 -7.818951,3.90947 -3.16234,1.18153 -6.39417,2.13718 -9.6955,2.86695 l 0,0 -1.042527,-4.79562 c 2.224054,-0.45176 4.448109,-1.0599 6.672172,-1.82442 l 0,0 0,-20.32928 -5.890277,0 z m 23.66536,32.78747 c 3.579314,-1.73755 6.828519,-4.01373 9.74763,-6.82855 l 0,0 c -2.050339,-2.60631 -3.718381,-5.42113 -5.004132,-8.44447 -1.390065,-3.30132 -2.380464,-6.74165 -2.971202,-10.32102 l 0,0 -0.05213,0 0,13.91774 c -2.7e-5,6.91543 -2.814847,12.33656 -8.444468,16.26342 l 0,0 -2.658444,-3.90948 c 4.170088,-2.98857 6.255139,-7.10655 6.255162,-12.35394 l 0,0 0,-32.578968 28.82587,0 0,4.795628 -23.97812,0 0,9.06998 22.51858,0 c -0.45181,4.41339 -1.30321,8.7225 -2.55419,12.92733 -1.21633,3.82261 -3.04075,7.34983 -5.47327,10.58165 l 0,0 c 3.02329,2.84958 6.42887,5.10838 10.21677,6.77643 l 0,0 -2.13718,4.37861 c -4.20491,-1.9113 -7.958,-4.44812 -11.25929,-7.61045 l 0,0 c -3.23187,3.05808 -6.828586,5.59489 -10.790157,7.61045 l 0,0 z m 18.76548,-25.59404 -12.093308,0 c 0.903491,5.52542 3.005918,10.52954 6.307288,15.01239 l 0,0 c 3.05804,-4.5176 4.98671,-9.52173 5.78602,-15.01239 z"
         style="letter-spacing:4px"
         id="path6318" />
      <path
         d="m 146.35779,94.927859 5.05626,0 0,4.952003 20.43353,0 0,5.056258 -20.43353,0 0,3.44034 18.50485,0 0,22.77921 -18.50485,0 0,3.7531 23.24835,0 0,4.89987 -23.24835,0 0,7.7147 -5.05626,0 0,-7.7147 -23.19622,0 0,-4.89987 23.19622,0 0,-3.7531 -18.66123,0 0,-22.77921 18.66123,0 0,-3.44034 -20.3814,0 0,-5.056258 20.3814,0 z m 18.71336,18.504851 -13.6571,0 0,3.80522 13.6571,0 z m 0,12.82308 0,-3.9616 -13.6571,0 0,3.9616 z m -32.31833,0 13.60497,0 0,-3.9616 -13.60497,0 z m 0,-12.82308 0,3.80522 13.60497,0 0,-3.80522 z"
         style="letter-spacing:4px"
         id="path6320" />
      <path
         d="m 201.44161,98.524577 12.71883,0 c 0.0347,-0.03471 0.0868,-0.08683 0.15637,-0.156379 l 0,0 c 0.45173,-0.382217 0.69499,-0.903479 0.72977,-1.56379 l 0,0 0,-1.459538 4.89988,0 0,1.459538 c -0.0348,0.62556 -0.10429,1.198949 -0.20851,1.720169 l 0,0 12.30182,0 0,21.163293 -12.87521,0 0,27.41846 -4.84775,0 0,-27.41846 -12.8752,0 z m 25.69829,5.108383 -20.79842,0 0,3.02333 20.79842,0 z m -25.69829,19.96439 10.94653,0 0,2.65844 c 0.0695,3.92686 -0.5213,7.76683 -1.7723,11.51992 -1.18156,3.19709 -2.97123,5.99453 -5.36901,8.39235 l 0,0 -0.78189,0.93827 -3.5446,-3.59672 0.72977,-0.93827 c 1.87653,-1.73755 3.26656,-3.83997 4.17011,-6.30729 0.9035,-2.46731 1.40738,-4.98674 1.51166,-7.55832 l 0,0 -5.89027,0 z m 19.65163,0 10.94653,0 0,5.10838 -5.89028,0 c 0.0695,2.57158 0.54728,5.09101 1.43348,7.55832 0.8861,2.46732 2.3022,4.56974 4.2483,6.30729 l 0,0 0.72976,0.93827 -3.33608,3.59672 -0.9904,-0.93827 c -2.46736,-2.39782 -4.27441,-5.19526 -5.42114,-8.39235 -1.25108,-3.75309 -1.82446,-7.59306 -1.72017,-11.51992 l 0,0 z m -26.21955,-3.54459 5.05625,0 0,6.20303 -5.83815,0 0,4.89988 5.47327,0 0,4.84775 -5.47327,0 0,11.10291 -5.10838,0 0,-20.85054 -7.87108,0 0,-4.89987 0.15638,0 c 1.63329,-1.00776 3.1102,-2.22404 4.43074,-3.64885 1.32053,-1.42476 2.58894,-2.91905 3.80522,-4.48286 l 0,0 -7.29768,-6.93281 1.51166,-1.87655 c 2.01555,-2.71053 3.21445,-5.751227 3.59672,-9.122106 l 0,0 5.52539,0 c -0.62553,3.718388 -1.91131,7.193476 -3.85735,10.425266 l 0,0 3.44034,3.33609 c 0.76451,-1.21625 1.51165,-2.46728 2.24143,-3.7531 l 0,0 4.32649,2.65845 c -2.81484,4.8999 -6.11617,9.36539 -9.90401,13.39647 l 0,0 5.78603,0 z m -13.60498,8.65297 4.89988,0 0,15.58578 -4.89988,0 z m 45.87119,-14.12624 0,-3.02333 -20.79842,0 0,3.02333 z"
         style="letter-spacing:4px"
         id="path6322" />
    </g>
    <g
       style="font-size:23.79802704px;font-style:normal;font-variant:normal;font-weight:normal;font-stretch:normal;line-height:125%;letter-spacing:0px;word-spacing:0px;fill:#ffffff;fill-opacity:1;stroke:none;font-family:GD-HighwayGothicJA-TTF;-inkscape-font-specification:GD-HighwayGothicJA-TTF"
       id="text6248">
      <path
         d="m 10.281913,162.24551 c -0.01549,-1.6268 0.480296,-3.07544 1.487376,-4.34592 1.301451,-1.42539 2.936014,-2.11485 4.903695,-2.06839 l 0,0 c 4.508598,0.0465 6.747408,2.34729 6.716436,6.90236 l 0,0 -3.346598,0 c 0.01548,-2.29302 -1.107796,-3.47053 -3.369838,-3.53252 l 0,0 c -1.936694,0.12397 -2.943771,1.13879 -3.021233,3.04447 l 0,0 c 0.01549,1.40993 0.712695,2.33179 2.091623,2.76559 l 0,0 4.369169,1.85923 c 1.162,0.40284 2.087737,1.10392 2.777211,2.10324 0.689446,0.99934 1.02643,2.111 1.010952,3.33498 l 0,0 c 0.01548,1.89021 -0.588768,3.54026 -1.812741,4.95017 -1.394428,1.40991 -3.090965,2.09937 -5.089617,2.06839 l 0,0 c -1.967682,0.10845 -3.687459,-0.47256 -5.159338,-1.74302 -0.728197,-0.7282 -1.231736,-1.59196 -1.510617,-2.59129 -0.278884,-0.99933 -0.4028322,-2.01028 -0.3718439,-3.03286 l 0,0 3.3465979,0 c -0.04649,0.69721 0.0426,1.40217 0.267263,2.11487 0.22465,0.7127 0.670088,1.22786 1.336315,1.54547 0.666213,0.31762 1.363421,0.44544 2.091623,0.38347 l 0,0 c 2.153587,-0.0155 3.338839,-1.0768 3.55576,-3.18392 l 0,0 c 0.04647,-0.6972 -0.15882,-1.27046 -0.615867,-1.71978 -0.457069,-0.4493 -0.987721,-0.77467 -1.591958,-0.97609 l 0,0 -4.694532,-1.92894 c -0.929615,-0.38733 -1.673303,-0.98383 -2.231065,-1.7895 -0.805665,-1.27046 -1.185255,-2.65712 -1.138773,-4.16001 z"
         style=""
         id="path6289" />
      <path
         d="m 29.966413,175.32978 0,-18.82461 -3.369837,0 0,22.14797 12.456779,0 0,-3.32336 z"
         style=""
         id="path6291" />
      <path
         d="m 49.27907,155.8312 c 2.680364,0.0465 4.740999,1.21626 6.181909,3.50928 0.759166,1.25499 1.289818,2.58743 1.591958,3.99733 0.302106,1.40992 0.453167,2.83532 0.453185,4.2762 l 0,0 c -1.8e-5,1.44091 -0.151079,2.87018 -0.453185,4.28783 -0.30214,1.41766 -0.832792,2.74623 -1.591958,3.98571 -1.44091,2.26205 -3.501545,3.40857 -6.181909,3.43956 l 0,0 c -2.695877,-0.031 -4.764258,-1.17751 -6.20515,-3.43956 -0.743691,-1.23948 -1.270469,-2.56805 -1.580337,-3.98571 -0.309872,-1.41765 -0.45706,-2.84692 -0.441565,-4.28783 l 0,0 c -0.01549,-1.44088 0.131693,-2.86628 0.441565,-4.2762 0.309868,-1.4099 0.836646,-2.74234 1.580337,-3.99733 1.440892,-2.29302 3.509273,-3.46278 6.20515,-3.50928 z m -4.717773,11.78281 c -0.0155,1.08456 0.06584,2.16136 0.244023,3.2304 0.17817,1.06906 0.530647,2.08388 1.057432,3.04447 0.743681,1.36343 1.882453,2.06839 3.416318,2.11487 l 0,0 c 1.518353,-0.0465 2.664871,-0.75144 3.439559,-2.11487 0.495778,-0.96059 0.832762,-1.97541 1.010951,-3.04447 0.178161,-1.06904 0.267249,-2.14584 0.267263,-3.2304 l 0,0 c -1.4e-5,-1.06904 -0.0891,-2.14196 -0.267263,-3.21877 -0.178189,-1.07679 -0.515173,-2.09548 -1.010951,-3.0561 -0.774688,-1.36341 -1.921206,-2.07611 -3.439559,-2.1381 l 0,0 c -1.533865,0.062 -2.672637,0.77469 -3.416318,2.1381 -0.526785,0.96062 -0.879262,1.97931 -1.057432,3.0561 -0.178181,1.07681 -0.259521,2.14973 -0.244023,3.21877 z"
         style=""
         id="path6293" />
      <path
         d="m 77.283583,156.50517 -2.881792,15.71042 -2.858552,-15.71042 -2.858552,0 -2.858552,15.71042 -2.858552,-15.71042 -3.53252,0 4.531851,22.14797 3.183916,0 2.951513,-14.92025 2.951513,14.92025 3.183916,0 4.555091,-22.14797 z"
         style=""
         id="path6295" />
      <path
         d="m 86.300806,175.32978 0,-6.55375 7.901689,0 0,-3.3466 -7.901689,0 0,-5.55442 8.92426,0 0,-3.36984 -12.294098,0 0,22.14797 12.619462,0 0,-3.32336 z"
         style=""
         id="path6297" />
      <path
         d="m 110.889,173.81916 c 0.0465,-1.23947 -0.16657,-2.45184 -0.63911,-3.6371 -0.47256,-1.18524 -1.32083,-2.04126 -2.54481,-2.56805 l 0,0 c 1.10003,-0.32535 1.96379,-0.96058 2.59129,-1.9057 0.62748,-0.94509 0.94122,-1.9909 0.94123,-3.13743 l 0,0 c 0.062,-1.79723 -0.4958,-3.35433 -1.67329,-4.67129 -1.0071,-0.9296 -2.19235,-1.3944 -3.55576,-1.39442 l 0,0 -8.064375,0 0,22.14797 3.369835,0 0,-9.36583 3.67196,0 c 0.86763,0.15495 1.50674,0.60426 1.91733,1.34794 0.41056,0.74369 0.61585,1.52611 0.61586,2.34726 l 0,0 c -1e-5,0.89863 -1e-5,1.78951 0,2.67263 l 0,0 c -0.10846,1.13103 0.17817,2.13036 0.85989,2.998 l 0,0 3.50928,0 c -0.58877,-0.66622 -0.90638,-1.42928 -0.95285,-2.28917 -0.0465,-0.85989 -0.062,-1.70815 -0.0465,-2.54481 z m -5.53118,-13.94415 c 0.79016,0.031 1.4099,0.35249 1.85922,0.96447 0.4493,0.61201 0.66621,1.30534 0.65073,2.08 l 0,0 c 0.0155,0.7592 -0.20143,1.45253 -0.65073,2.08 -0.44932,0.6275 -1.06906,0.94125 -1.85922,0.94124 l 0,0 -4.04381,0 0,-6.06571 z"
         style=""
         id="path6299" />
      <path
         d="m 142.4028,156.50517 -14.13008,0 0,3.36984 5.39174,0 0,18.77813 3.3466,0 0,-18.77813 5.39174,0 z"
         style=""
         id="path6301" />
      <path
         d="m 157.6484,173.81916 c 0.0465,-1.23947 -0.16657,-2.45184 -0.63911,-3.6371 -0.47256,-1.18524 -1.32083,-2.04126 -2.54481,-2.56805 l 0,0 c 1.10003,-0.32535 1.96379,-0.96058 2.59129,-1.9057 0.62748,-0.94509 0.94122,-1.9909 0.94123,-3.13743 l 0,0 c 0.062,-1.79723 -0.4958,-3.35433 -1.6733,-4.67129 -1.00709,-0.9296 -2.19234,-1.3944 -3.55576,-1.39442 l 0,0 -8.06437,0 0,22.14797 3.36984,0 0,-9.36583 3.67196,0 c 0.86763,0.15495 1.50674,0.60426 1.91732,1.34794 0.41057,0.74369 0.61586,1.52611 0.61587,2.34726 l 0,0 c -1e-5,0.89863 -1e-5,1.78951 0,2.67263 l 0,0 c -0.10846,1.13103 0.17817,2.13036 0.85989,2.998 l 0,0 3.50928,0 c -0.58877,-0.66622 -0.90638,-1.42928 -0.95285,-2.28917 -0.0465,-0.85989 -0.062,-1.70815 -0.0465,-2.54481 z m -5.53118,-13.94415 c 0.79016,0.031 1.4099,0.35249 1.85922,0.96447 0.4493,0.61201 0.66621,1.30534 0.65073,2.08 l 0,0 c 0.0155,0.7592 -0.20143,1.45253 -0.65073,2.08 -0.44932,0.6275 -1.06906,0.94125 -1.85922,0.94124 l 0,0 -4.04381,0 0,-6.06571 z"
         style=""
         id="path6303" />
      <path
         d="m 172.75457,178.65314 3.55576,0 -6.22839,-22.14797 -3.69521,0 -6.22839,22.14797 3.53252,0 1.25498,-4.83398 6.55375,0 z m -6.97208,-8.20381 2.46347,-9.38907 2.41698,9.38907 z"
         style=""
         id="path6305" />
      <path
         d="m 191.04466,159.87501 0,-3.36984 -12.45678,0 0,22.14797 3.36984,0 0,-9.69119 7.90169,0 0,-3.36984 -7.90169,0 0,-5.7171 z"
         style=""
         id="path6307" />
      <path
         d="m 205.82547,159.87501 0,-3.36984 -12.45678,0 0,22.14797 3.36984,0 0,-9.69119 7.90169,0 0,-3.36984 -7.90169,0 0,-5.7171 z"
         style=""
         id="path6309" />
      <path
         d="m 211.51933,178.65314 0,-22.14797 -3.36983,0 0,22.14797 z"
         style=""
         id="path6311" />
      <path
         d="m 222.44225,155.8312 c 2.04513,-0.031 3.79589,0.68174 5.25229,2.13811 1.36342,1.61134 2.02189,3.4783 1.97543,5.6009 l 0,0 -3.36984,0 c 0.062,-1.162 -0.25953,-2.18844 -0.96447,-3.07934 -0.70497,-0.89086 -1.66944,-1.3208 -2.89341,-1.28983 l 0,0 c -1.51838,0.062 -2.63391,0.77469 -3.3466,2.1381 -0.4958,0.96062 -0.82504,1.98319 -0.98771,3.06772 -0.16269,1.08455 -0.23628,2.15361 -0.22079,3.20715 l 0,0 c -0.0155,1.08456 0.0581,2.16136 0.22079,3.2304 0.16267,1.06906 0.49191,2.08388 0.98771,3.04447 0.71269,1.36343 1.82822,2.06839 3.3466,2.11487 l 0,0 c 0.77466,0.062 1.49511,-0.1162 2.16134,-0.53453 0.66621,-0.41832 1.11939,-1.0032 1.35955,-1.75464 0.24014,-0.75143 0.35247,-1.50674 0.33699,-2.26592 l 0,0 3.36984,0 c 0.0465,2.09162 -0.55779,3.95084 -1.81274,5.57766 -1.44091,1.59583 -3.24591,2.36276 -5.41498,2.30079 l 0,0 c -2.68039,-0.031 -4.71778,-1.17751 -6.11219,-3.43956 -0.7282,-1.25498 -1.23949,-2.58742 -1.53386,-3.99733 -0.29438,-1.4099 -0.43382,-2.8353 -0.41833,-4.27621 l 0,0 c -0.0155,-1.51835 0.13944,-3.02122 0.46481,-4.50861 0.29437,-1.33242 0.79017,-2.5874 1.48738,-3.76492 1.39441,-2.29302 3.4318,-3.46278 6.11219,-3.50928 z"
         style=""
         id="path6313" />
    </g>
  </g>
</svg>
