<?xml version="1.0" encoding="UTF-8" standalone="no"?>
<!-- Created with Inkscape (http://www.inkscape.org/) -->

<svg
   xmlns:osb="http://www.openswatchbook.org/uri/2009/osb"
   xmlns:dc="http://purl.org/dc/elements/1.1/"
   xmlns:cc="http://creativecommons.org/ns#"
   xmlns:rdf="http://www.w3.org/1999/02/22-rdf-syntax-ns#"
   xmlns:svg="http://www.w3.org/2000/svg"
   xmlns="http://www.w3.org/2000/svg"
   xmlns:xlink="http://www.w3.org/1999/xlink"
   xmlns:sodipodi="http://sodipodi.sourceforge.net/DTD/sodipodi-0.dtd"
   xmlns:inkscape="http://www.inkscape.org/namespaces/inkscape"
   version="1.1"
   width="1200.4003"
   height="800.40039"
   id="svg2"
   xml:space="preserve"
   inkscape:version="0.48.4 r9939"
   sodipodi:docname="Ajax.svg"><sodipodi:namedview
     pagecolor="#ffffff"
     bordercolor="#666666"
     borderopacity="1"
     objecttolerance="10"
     gridtolerance="10"
     guidetolerance="10"
     inkscape:pageopacity="0"
     inkscape:pageshadow="2"
     inkscape:window-width="1280"
     inkscape:window-height="1001"
     id="namedview28"
     showgrid="false"
     fit-margin-top="0.2"
     fit-margin-left="0.2"
     fit-margin-right="0.2"
     fit-margin-bottom="0.2"
     inkscape:zoom="0.40989584"
     inkscape:cx="580.22055"
     inkscape:cy="601.26518"
     inkscape:window-x="-8"
     inkscape:window-y="-8"
     inkscape:window-maximized="1"
     inkscape:current-layer="svg2" /><metadata
     id="metadata8"><rdf:RDF><cc:Work
         rdf:about=""><dc:format>image/svg+xml</dc:format><dc:type
           rdf:resource="http://purl.org/dc/dcmitype/StillImage" /><dc:title /></cc:Work></rdf:RDF></metadata><defs
     id="defs6"><linearGradient
       id="linearGradient15703"
       osb:paint="solid"><stop
         style="stop-color:#ffffff;stop-opacity:1;"
         offset="0"
         id="stop15705" /></linearGradient><linearGradient
       inkscape:collect="always"
       xlink:href="#linearGradient15703"
       id="linearGradient15707"
       x1="-37.125"
       y1="465.375"
       x2="967.87512"
       y2="465.375"
       gradientUnits="userSpaceOnUse"
       gradientTransform="translate(961.6578,56.04101)" /></defs><g
     id="g2991"
     transform="matrix(34.167339,0,0,34.167339,14.96955,234.01066)" /><path
     style="font-size:medium;font-style:normal;font-variant:normal;font-weight:normal;font-stretch:normal;text-indent:0;text-align:start;text-decoration:none;line-height:normal;letter-spacing:normal;word-spacing:normal;text-transform:none;direction:ltr;block-progression:tb;writing-mode:lr-tb;text-anchor:start;baseline-shift:baseline;color:#000000;fill:#000000;fill-opacity:1;fill-rule:nonzero;stroke:none;stroke-width:30;marker:none;visibility:visible;display:inline;overflow:visible;enable-background:accumulate;font-family:Sans;-inkscape-font-specification:Sans"
     d="m 1143.544,800.2004 c 31.1185,0 56.6563,-25.5377 56.6563,-56.6563 l 0,-686.68791 C 1200.2003,25.73639 1174.6619,0.2 1143.544,0.2 L 56.8563,0.2 C 25.7386,0.2 0.2,25.73639 0.2,56.85619 l 0,686.68791 c 0,31.1186 25.5377,56.6563 56.6563,56.6563 z"
     id="path14428"
     inkscape:connector-curvature="0"
     sodipodi:nodetypes="sssssssss" /><path
     inkscape:connector-curvature="0"
     d="M 56.8668,785.2004 C 33.8548,785.2004 15.2,766.5456 15.2,743.5336 l 0,-686.66721 c 0,-23.014 18.6548,-41.66679 41.6668,-41.66679 l 1086.6669,0 c 23.0119,0 41.6666,18.65279 41.6666,41.66679 l 0,686.66721 c 0,23.012 -18.6547,41.6668 -41.6666,41.6668 z"
     style="fill:#ffffff;fill-opacity:1;fill-rule:nonzero;stroke:none"
     id="path14430"
     sodipodi:nodetypes="sssssssss" /><path
     id="path14427"
     style="fill:#000000;fill-opacity:1;fill-rule:nonzero;stroke:none"
     d="m 190.6282,421.89009 c -17.32473,0 -31.5232,-14.06819 -31.5232,-31.52317 l 0,-283.64356 c 0,-17.455 14.19847,-31.52319 31.5232,-31.52319 l 553.80512,0 c 17.52003,0 31.65336,14.06819 31.65336,31.52319 l 0,72.4903 c 0,14.58925 11.98404,26.44302 26.44308,26.44302 l 85.25582,0 c 9.96498,0 21.88386,7.88078 25.79175,17.97601 4.03803,10.09525 27.81076,56.14254 31.71856,64.93517 4.03812,8.79262 7.42491,16.54316 16.54313,16.54316 l 16.93395,0 c 11.07216,0 18.82278,15.17542 20.12535,20.06021 1.37038,5.08019 22.60038,93.65773 22.60038,93.65773 0,4.23609 3.517,7.68541 7.6854,7.68541 l 4.3611,0 c 4.2987,0 7.7506,3.38679 7.7506,7.62027 l 0,29.56927 -73.72792,0 0,0.46895 c 0,33.67247 -27.35474,61.02731 -61.09236,61.02731 -33.73767,0 -61.15761,-27.35484 -61.15761,-61.02731 l 0,-0.46895 -356.00361,0 0,0.46895 c 0,33.67247 -27.41996,61.02731 -61.22272,61.02731 -33.73762,0 -60.9622,-27.35484 -60.9622,-61.02731 l 0,-0.46895 -104.6648,0 c -9.24853,0 -16.80368,-7.55515 -16.80368,-16.80367 l 0,-24.94502 -55.03531,-0.0521 z m 698.46004,-187.57598 -7.88085,0 0,61.8089 43.76776,0 -16.73851,-39.66453 c -4.2309,-12.70044 -9.83475,-21.10228 -19.1484,-22.14437 m -22.92597,0 -42.66053,0 0,61.8089 42.66053,0 0,-61.8089"
     inkscape:connector-curvature="0" /><path
     inkscape:connector-curvature="0"
     d="m 847.2601,714.94774 0,-50.39673 c -3e-5,-1.07006 -0.60021,-1.60514 -1.80053,-1.60522 l -12.20093,0 c -2.26646,8e-5 -4.16668,-0.79948 -5.70069,-2.39868 -1.53402,-1.59904 -2.30103,-3.46569 -2.30102,-5.59998 -10e-6,-2.1341 0.767,-4.00076 2.30102,-5.59997 1.53401,-1.59903 3.43423,-2.39859 5.70069,-2.39869 l 12.20093,0 c 1.20032,10e-5 1.8005,-0.53294 1.80053,-1.59912 l 0,-26.20238 c -3e-5,-2.79935 0.99993,-5.19904 2.99988,-7.1991 1.99988,-1.99978 4.39958,-2.99974 7.1991,-2.99987 2.79943,1.3e-4 5.19913,1.00009 7.19909,2.99987 1.99987,2.00006 2.99983,4.39975 2.99988,7.1991 l 0,26.20238 c -5e-5,1.06618 0.53299,1.59922 1.59912,1.59912 l 28.00293,0 c 2.26636,10e-5 4.16557,0.79966 5.69763,2.39869 1.5319,1.59921 2.29789,3.46587 2.29798,5.59997 -9e-5,2.13429 -0.76608,4.00094 -2.29798,5.59998 -1.53206,1.5992 -3.43127,2.39876 -5.69763,2.39868 l -28.00293,0 c -1.06613,8e-5 -1.59917,0.53516 -1.59912,1.60522 l 0,46.39893 c -5e-5,8.66702 1.13317,14.49994 3.39966,17.49878 2.26638,2.99887 6.33335,4.4983 12.20093,4.49829 4.26425,10e-6 7.73104,-0.33364 10.40039,-1.00098 1.9978,-0.53302 3.93058,-0.29905 5.79834,0.70191 1.86759,1.00099 3.00081,2.50042 3.39966,4.49824 0.39867,2.2665 -0.0347,4.3671 -1.30005,6.3019 -1.26555,1.9348 -2.96436,3.1688 -5.09644,3.7018 -5.46882,1.2004 -10.87043,1.8005 -16.20483,1.8005 -11.73101,0 -20.16301,-2.6 -25.29602,-7.8002 -5.13309,-5.20023 -7.69962,-13.93435 -7.69959,-26.20244 z"
     id="path2836"
     style="font-size:200px;font-style:normal;font-weight:normal;text-align:center;text-anchor:middle;fill:#000000;fill-opacity:1;stroke:none;font-family:'Rounded M+ 1p medium';-inkscape-font-specification:'Rounded M+ 1p medium'" /><path
     inkscape:connector-curvature="0"
     d="m 316.70093,688.54998 c -1.9979,6.00183 -4.7303,12.46951 -8.197,19.40308 -1.0661,2.13218 -2.7995,3.19826 -5.2002,3.19824 -2.4008,2e-5 -4.1342,-1.1332 -5.2002,-3.39966 l -0.5982,-1.20239 c -3.3366,-6.53073 -3.1372,-13.19576 0.5982,-19.99512 8.8012,-16.26784 14.9353,-32.20207 18.4021,-47.80273 0.2644,-1.20027 -0.2035,-1.80045 -1.4038,-1.80054 l -9.3994,0 c -2.531,9e-5 -4.6631,-0.8666 -6.3965,-2.6001 -1.7334,-1.7333 -2.6001,-3.86647 -2.6001,-6.39953 0,-2.53286 0.8667,-4.66602 2.6001,-6.39953 1.7334,-1.73329 3.8655,-2.59999 6.3965,-2.6001 l 9.8022,0 c 1.0661,1.1e-4 1.5991,-0.53292 1.5991,-1.59912 l 0,-20.20263 c 0,-1.20023 -0.533,-1.66613 -1.5991,-1.39771 -3.2023,0.53318 -5.6031,0.86683 -7.2021,1.00098 -2.4008,0.26462 -4.5004,-0.36913 -6.2989,-1.90125 -1.7985,-1.53184 -2.832,-3.49819 -3.1006,-5.89905 -0.1343,-2.40057 0.532,-4.50119 1.9989,-6.30188 1.4669,-1.80038 3.4007,-2.83289 5.8014,-3.09753 14.2659,-1.86752 28.066,-4.6019 41.4002,-8.20313 2.4006,-0.66715 4.6671,-0.4342 6.7993,0.69886 2.1321,1.13337 3.5318,2.8332 4.1992,5.09948 0.2685,0.93603 0.8015,1.40397 1.5991,1.40381 l 46.00219,0 c 0.9317,1.6e-4 1.3976,-0.53288 1.3977,-1.59912 -1e-4,-2.79932 0.9673,-5.16646 2.9023,-7.10144 1.9346,-1.93465 4.3018,-2.90206 7.1014,-2.90222 l 1.9958,0 c 2.8035,1.6e-4 5.1716,0.96757 7.1045,2.90222 1.9327,1.93498 2.8991,4.30212 2.8992,7.10144 -10e-5,1.06624 0.5329,1.59928 1.5991,1.59912 l 38.3972,0 c 2.1361,1.6e-4 4.0038,0.79972 5.6031,2.39868 1.5989,1.59927 2.3985,3.46593 2.3987,5.59998 -2e-4,2.13434 -0.7998,4.001 -2.3987,5.59998 -1.5993,1.59925 -3.467,2.39881 -5.6031,2.39868 l -38.1958,0 c -1.2005,1.3e-4 -1.8006,0.53317 -1.8005,1.59912 l 0,3.20434 c -10e-5,1.06622 0.6,1.59926 1.8005,1.59913 l 34.6009,0 c 1.8634,1.3e-4 3.429,0.66643 4.6966,1.9989 1.2673,1.33272 1.9011,2.93286 1.9013,4.80041 -2e-4,1.8678 -0.634,3.43437 -1.9013,4.69971 -1.2676,1.26558 -2.8332,1.89831 -4.6966,1.89819 l -34.6009,0 c -1.2005,1.2e-4 -1.8006,0.6003 -1.8005,1.80054 l 0,3.00293 c -10e-5,1.20047 0.6,1.80065 1.8005,1.80054 l 42.7979,0 c 2.132,1.1e-4 3.8979,0.69998 5.2978,2.09961 1.3996,1.39984 2.0995,3.16578 2.0997,5.29784 -2e-4,2.13226 -0.7001,3.93178 -2.0997,5.39856 -1.3999,1.46697 -3.1658,2.20041 -5.2978,2.20031 l -109.99759,0 c -2.1363,10e-5 -3.9043,-0.73334 -5.3039,-2.20031 -1.3998,-1.46678 -2.0997,-3.2663 -2.0996,-5.39856 -1e-4,-2.13206 0.6998,-3.898 2.0996,-5.29784 1.3996,-1.39963 3.1676,-2.0995 5.3039,-2.09961 l 41.79689,0 c 1.066,1.1e-4 1.599,-0.60007 1.5991,-1.80054 l 0,-3.00293 c -1e-4,-1.20024 -0.5331,-1.80042 -1.5991,-1.80054 l -35.60179,0 c -1.8637,1.2e-4 -3.4628,-0.63261 -4.7974,-1.89819 -1.3347,-1.26534 -2.002,-2.83191 -2.0019,-4.69971 -10e-5,-1.86755 0.6672,-3.46769 2.0019,-4.80041 1.3346,-1.33247 2.9337,-1.99877 4.7974,-1.9989 l 35.60179,0 c 1.066,1.3e-4 1.599,-0.53291 1.5991,-1.59913 l 0,-3.20434 c -1e-4,-1.06595 -0.5331,-1.59899 -1.5991,-1.59912 l -42.40109,0 c -1.8637,1.3e-4 -3.4628,-0.69974 -4.7974,-2.09961 -1.3347,-1.3996 -2.002,-3.03331 -2.0019,-4.90112 -1e-4,-0.79739 -0.3989,-1.06391 -1.1963,-0.79957 -8.6671,2.53514 -14.4003,4.13629 -17.1997,4.80347 -1.0702,0.26463 -1.6053,0.92991 -1.6052,1.99585 l 0,23.80371 c -10e-5,1.0662 0.535,1.59923 1.6052,1.59912 l 5.2002,0 c 2.5308,1.1e-4 4.6966,0.86681 6.4972,2.6001 1.8004,1.73351 2.7007,3.86667 2.7008,6.39953 -10e-5,2.53306 -0.9004,4.66623 -2.7008,6.39953 -1.8006,1.7335 -3.9664,2.60019 -6.4972,2.6001 l -3.3997,0 c -1.0702,9e-5 -1.3387,0.53313 -0.8056,1.59912 2.6692,4.80152 9.0026,16.9353 19.0002,36.40137 0.1342,0.13433 0.301,0.1679 0.5005,0.10071 0.1993,-0.0671 0.299,-0.23493 0.2991,-0.50354 l 0,-20.79468 c -10e-5,-3.06795 1.1341,-5.73519 3.4027,-8.00171 2.2684,-2.26635 4.9346,-3.39957 7.9986,-3.39966 l 90.80199,0 c 3.0679,9e-5 5.7015,1.13331 7.901,3.39966 2.1991,2.26652 3.2988,4.93376 3.299,8.00171 l 0,51.79443 c -2e-4,3.06806 -1.0999,5.73529 -3.299,8.00171 -2.1995,2.26646 -4.8331,3.39967 -7.901,3.39966 l -19.2016,0 c -0.2647,10e-6 -0.3969,0.0671 -0.3968,0.20142 -10e-5,0.13429 0.065,0.26856 0.1953,0.40283 13.1997,4.93162 24.3346,9.73102 33.4046,14.39822 2.132,1.066 3.4646,2.6987 3.9978,4.898 0.5328,2.1993 0.2663,4.3661 -0.7996,6.50028 -1.0662,2.1342 -2.6999,3.5014 -4.9011,4.1015 -2.2015,0.6002 -4.3683,0.3673 -6.5002,-0.6988 -9.7333,-4.93568 -20.0665,-9.53568 -30.9998,-13.80008 -2.9339,-1.066 -5.0335,-3.0324 -6.2988,-5.899 -1.2656,-2.8666 -1.2331,-5.7017 0.098,-8.50525 0.5329,-1.06607 0.2013,-1.59911 -0.9949,-1.59912 l -28.6011,0 c -0.8017,10e-6 -1.0682,0.46795 -0.7995,1.40381 1.4647,2.53096 1.897,5.22966 1.297,8.09636 -0.6003,2.8666 -2.1659,4.9672 -4.6967,6.3018 -9.73719,5.599 -21.13859,10.53268 -34.20409,14.80108 -2.2665,0.6673 -4.5329,0.5004 -6.7993,-0.5005 -2.2665,-1.001 -3.8656,-2.5676 -4.7974,-4.69968 -0.9359,-2.002 -0.9705,-4.0029 -0.1037,-6.0028 0.8666,-2 2.3681,-3.3336 4.5044,-4.0009 13.33,-4.3986 24.6622,-9.198 33.9966,-14.39819 0.2684,-0.13427 0.4027,-0.33467 0.4028,-0.6012 -10e-5,-0.26651 -0.1344,-0.39977 -0.4028,-0.39978 l -8.0018,0 -10.1989,0 c -3.0641,10e-6 -5.7303,-1.1332 -7.9987,-3.39966 -2.2685,-2.26642 -3.4028,-4.93365 -3.4027,-8.00171 l 0,-21.19751 c -1e-4,-0.39871 -0.1659,-0.6988 -0.4974,-0.90027 -0.3317,-0.20136 -0.6318,-0.16779 -0.9003,0.10071 l -1.5991,1.00098 c -2.5351,1.59916 -5.2023,1.99894 -8.0017,1.19934 -2.7996,-0.79951 -4.7995,-2.53393 -5.9998,-5.20325 -1.0661,-2.26638 -2.6652,-5.79828 -4.7973,-10.5957 -0.1344,-0.13422 -0.2687,-0.20136 -0.4029,-0.20142 -0.1343,6e-5 -0.2014,0.13434 -0.2014,0.40284 l 0,68.79882 c 0,2.7995 -0.9664,5.16558 -2.8992,7.09838 -1.9328,1.9328 -4.2989,2.8991 -7.0984,2.8992 -2.7995,-10e-5 -5.1992,-0.9664 -7.1991,-2.8992 -1.9999,-1.9328 -2.9999,-4.29888 -2.9998,-7.09838 l 0,-50.40283 c -10e-5,-0.533 -0.1343,-0.533 -0.4029,0 z m 64.5996,-29.40063 0,3.00293 c -10e-5,1.20042 0.535,1.8006 1.6052,1.80053 l 66.59549,0 c 1.2002,7e-5 1.8004,-0.60011 1.8005,-1.80053 l 0,-3.00293 c -10e-5,-1.20029 -0.6003,-1.80047 -1.8005,-1.80054 l -66.59549,0 c -1.0702,7e-5 -1.6053,0.60025 -1.6052,1.80054 z m 0,19.00024 0,3.20435 c -10e-5,1.06613 0.535,1.59917 1.6052,1.59912 l 66.59549,0 c 1.2002,5e-5 1.8004,-0.53299 1.8005,-1.59912 l 0,-3.20435 c -10e-5,-1.06603 -0.6003,-1.59907 -1.8005,-1.59912 l -66.59549,0 c -1.0702,5e-5 -1.6053,0.53309 -1.6052,1.59912 z m 0,19.00025 0,3.19824 c -10e-5,1.07018 0.535,1.60525 1.6052,1.60522 l 66.59549,0 c 1.2002,3e-5 1.8004,-0.53504 1.8005,-1.60522 l 0,-3.19824 c -10e-5,-1.20033 -0.6003,-1.80051 -1.8005,-1.80054 l -66.59549,0 c -1.0702,3e-5 -1.6053,0.60021 -1.6052,1.80054 z"
     id="path2831"
     style="font-size:200px;font-style:normal;font-weight:normal;text-align:center;text-anchor:middle;fill:#000000;fill-opacity:1;stroke:none;font-family:'Rounded M+ 1p medium';-inkscape-font-specification:'Rounded M+ 1p medium'"
     sodipodi:nodetypes="ccccccccccscccssccccccccccccccccccccccccccccccccccccccccccccscccccccccccccccccccccccccscccccccsccccccsccccccsccccscccccccccccccsccccccccccssscsccccccccccccccccccccccccccccccc" /><path
     inkscape:connector-curvature="0"
     d="m 604.94494,611.54848 c 0.31394,-14.5604 4.8077,-26.35398 13.52039,-35.38065 9.43883,-9.81162 21.93876,-14.71743 37.53927,-14.71743 13.99137,0 25.17657,4.27787 33.55569,12.87285 8.53617,8.49685 12.79439,19.97643 12.79439,34.41913 0,19.1523 -6.94665,32.6727 -20.82027,40.5808 15.836,8.5754 23.72452,23.4105 23.72452,44.5644 0,17.6805 -4.43484,31.3383 -13.30457,40.9929 -8.86964,9.3996 -21.46778,14.0699 -37.83359,14.0699 -17.15068,0 -30.31793,-5.9654 -39.44268,-17.8768 -8.39875,-11.0479 -12.57852,-26.2951 -12.57852,-45.7025 l 25.58873,0 c 0,12.4608 2.27631,22.1547 6.8681,29.1013 4.53291,7.1429 11.04788,10.675 19.56437,10.675 7.84927,0 14.01099,-2.5902 18.36734,-7.8297 4.78807,-5.5337 7.14284,-13.3437 7.14284,-23.4301 0,-10.7339 -2.35477,-18.7205 -7.14284,-23.9207 -4.68996,-5.5338 -11.77393,-8.3006 -21.19309,-8.3006 l -13.18677,0 0,-23.7442 13.18677,0 c 8.00626,0 14.14837,-2.3744 18.40664,-7.0447 4.70958,-5.0432 7.02509,-12.4019 7.02509,-22.135 0,-6.4364 -1.9427,-11.8328 -5.86736,-16.2088 -4.10123,-4.88618 -9.36029,-7.29978 -15.77708,-7.29978 -7.5942,0 -13.46156,2.4136 -17.70011,7.29978 -4.10133,4.533 -6.35797,10.8713 -6.84853,19.0149 l -25.58873,0"
     style="fill:#000000;fill-opacity:1;fill-rule:nonzero;stroke:none"
     id="path4272" /></svg>