<?xml version="1.0" encoding="UTF-8" standalone="no"?>
<!-- Created with Inkscape (http://www.inkscape.org/) -->

<svg
   xmlns:osb="http://www.openswatchbook.org/uri/2009/osb"
   xmlns:dc="http://purl.org/dc/elements/1.1/"
   xmlns:cc="http://creativecommons.org/ns#"
   xmlns:rdf="http://www.w3.org/1999/02/22-rdf-syntax-ns#"
   xmlns:svg="http://www.w3.org/2000/svg"
   xmlns="http://www.w3.org/2000/svg"
   xmlns:sodipodi="http://sodipodi.sourceforge.net/DTD/sodipodi-0.dtd"
   xmlns:inkscape="http://www.inkscape.org/namespaces/inkscape"
   version="1.1"
   width="1005.4"
   height="1005.4"
   id="svg2"
   xml:space="preserve"
   inkscape:version="0.48.4 r9939"
   sodipodi:docname="AJAX1.svg"><sodipodi:namedview
     pagecolor="#ffffff"
     bordercolor="#666666"
     borderopacity="1"
     objecttolerance="10"
     gridtolerance="10"
     guidetolerance="10"
     inkscape:pageopacity="0"
     inkscape:pageshadow="2"
     inkscape:window-width="1280"
     inkscape:window-height="1004"
     id="namedview28"
     showgrid="false"
     fit-margin-top="0.2"
     fit-margin-left="0.2"
     fit-margin-right="0.2"
     fit-margin-bottom="0.2"
     inkscape:zoom="0.5"
     inkscape:cx="331.09438"
     inkscape:cy="503.46399"
     inkscape:window-x="-8"
     inkscape:window-y="-8"
     inkscape:window-maximized="1"
     inkscape:current-layer="svg2"
     showguides="true"
     inkscape:guide-bbox="true" /><metadata
     id="metadata8"><rdf:RDF><cc:Work
         rdf:about=""><dc:format>image/svg+xml</dc:format><dc:type
           rdf:resource="http://purl.org/dc/dcmitype/StillImage" /></cc:Work></rdf:RDF></metadata><defs
     id="defs6"><linearGradient
       id="linearGradient15703"
       osb:paint="solid"><stop
         style="stop-color:#ffffff;stop-opacity:1;"
         offset="0"
         id="stop15705" /></linearGradient></defs><path
     inkscape:connector-curvature="0"
     style="fill:#ffffff;fill-opacity:1;stroke:#0066b3;stroke-width:5;stroke-miterlimit:4;stroke-opacity:1;stroke-dasharray:none"
     d="M 1002.7001,502.7 C 1002.7001,226.5576 778.84238,2.7 502.7,2.7 226.55762,2.7 2.699976,226.5576 2.699976,502.7 c 0,276.1423 223.857644,500.0001 500.000024,500.0001 276.14238,0 500.0001,-223.8578 500.0001,-500.0001 z"
     id="path3854" /><path
     id="path14622"
     d="m 968.07508,502.7 c 0,257.0196 -208.35548,465.375 -465.375,465.375 C 245.6805,968.075 37.325,759.7196 37.325,502.7 c 0,-257.0196 208.3555,-465.375 465.37508,-465.375 257.01952,0 465.375,208.3554 465.375,465.375 z"
     style="fill:#0066b3;fill-opacity:1;stroke:none"
     inkscape:connector-curvature="0"
     sodipodi:nodetypes="sssss" /><path
     style="fill:#ffffff;fill-opacity:1;fill-rule:nonzero;stroke:none"
     d="m 358.73134,246.7 c -0.57763,-0.003 -1.19025,0.0149 -1.78125,0.0312 -7.35471,0.20356 -15.72469,1.83444 -24.34375,3.40625 l -232.03126,66.9688 c -3.434786,0.94753 -4.222476,3.84826 -1.656246,6.375 l 171.187506,170.375 c 15.55527,12.63372 29.69177,24.93723 43.3125,16.84375 13.58125,-7.93555 8.72762,-28.06277 4.9375,-36.15625 -3.67168,-8.21192 -23.6875,-59.46875 -23.6875,-59.46875 l 83.34375,21.34375 c 42.44141,10.93607 76.86087,57.82185 82.625,109.34375 l 0,206.34375 c 0,3.67168 2.95997,6.59375 6.59375,6.59375 l 70.9375,0 c 3.63378,0 6.59375,-2.92207 6.59375,-6.59375 l 0,-206.34375 c 5.76413,-51.5219 40.18359,-98.40768 82.625,-109.34375 L 710.73134,415.075 c 0,0 -20.01582,51.25683 -23.6875,59.46875 -3.79012,8.09348 -8.64375,28.2207 4.9375,36.15625 13.62073,8.09348 27.75723,-4.21003 43.3125,-16.84375 l 171.1875,-170.375 c 2.56623,-2.52674 1.77854,-5.42747 -1.65625,-6.375 L 672.79384,250.1375 c -8.61906,-1.57181 -16.98904,-3.20269 -24.34375,-3.40625 -9.45606,-0.26172 -17.25088,1.84738 -21.78125,9.53125 -8.054,13.54177 5.87707,28.74744 13.0625,34.15625 7.18543,5.36933 49.40625,40.65625 49.40625,40.65625 l -79.21875,20.34375 C 579.91375,359.07795 535.11348,378.28559 502.70009,416.7 470.2867,378.28559 425.48643,359.07795 395.48134,351.41875 L 316.26259,331.075 c 0,0 42.22082,-35.28692 49.40625,-40.65625 7.18543,-5.40881 21.1165,-20.61448 13.0625,-34.15625 -4.24722,-7.20363 -11.33549,-9.5183 -20,-9.5625 z"
     id="path4643"
     inkscape:connector-curvature="0"
     sodipodi:nodetypes="sscccccccccsssscccccccccscccccccccs" /></svg>