<?xml version="1.0" encoding="UTF-8" standalone="no"?>
<!-- Created with Inkscape (http://www.inkscape.org/) -->

<svg
   xmlns:dc="http://purl.org/dc/elements/1.1/"
   xmlns:cc="http://creativecommons.org/ns#"
   xmlns:rdf="http://www.w3.org/1999/02/22-rdf-syntax-ns#"
   xmlns:svg="http://www.w3.org/2000/svg"
   xmlns="http://www.w3.org/2000/svg"
   xmlns:sodipodi="http://sodipodi.sourceforge.net/DTD/sodipodi-0.dtd"
   xmlns:inkscape="http://www.inkscape.org/namespaces/inkscape"
   id="svg1890"
   sodipodi:version="0.32"
   inkscape:version="0.48.4 r9939"
   width="500.34357"
   height="500.34357"
   version="1.0"
   sodipodi:docname="AJAX1.svg"
   inkscape:output_extension="org.inkscape.output.svg.inkscape">
  <metadata
     id="metadata1895">
    <rdf:RDF>
      <cc:Work
         rdf:about="">
        <dc:format>image/svg+xml</dc:format>
        <dc:type
           rdf:resource="http://purl.org/dc/dcmitype/StillImage" />
      </cc:Work>
    </rdf:RDF>
  </metadata>
  <defs
     id="defs1893">
    <inkscape:perspective
       sodipodi:type="inkscape:persp3d"
       inkscape:vp_x="0 : 235 : 1"
       inkscape:vp_y="0 : 1000 : 0"
       inkscape:vp_z="470 : 235 : 1"
       inkscape:persp3d-origin="235 : 156.66667 : 1"
       id="perspective10" />
    <inkscape:perspective
       id="perspective2390"
       inkscape:persp3d-origin="372.04724 : 350.78739 : 1"
       inkscape:vp_z="744.09448 : 526.18109 : 1"
       inkscape:vp_y="0 : 1000 : 0"
       inkscape:vp_x="0 : 526.18109 : 1"
       sodipodi:type="inkscape:persp3d" />
    <inkscape:perspective
       id="perspective3168"
       inkscape:persp3d-origin="372.04724 : 350.78739 : 1"
       inkscape:vp_z="744.09448 : 526.18109 : 1"
       inkscape:vp_y="0 : 1000 : 0"
       inkscape:vp_x="0 : 526.18109 : 1"
       sodipodi:type="inkscape:persp3d" />
    <inkscape:perspective
       id="perspective2400"
       inkscape:persp3d-origin="372.04724 : 350.78739 : 1"
       inkscape:vp_z="744.09448 : 526.18109 : 1"
       inkscape:vp_y="0 : 1000 : 0"
       inkscape:vp_x="0 : 526.18109 : 1"
       sodipodi:type="inkscape:persp3d" />
    <inkscape:perspective
       id="perspective2391"
       inkscape:persp3d-origin="372.04724 : 350.78739 : 1"
       inkscape:vp_z="744.09448 : 526.18109 : 1"
       inkscape:vp_y="0 : 1000 : 0"
       inkscape:vp_x="0 : 526.18109 : 1"
       sodipodi:type="inkscape:persp3d" />
  </defs>
  <sodipodi:namedview
     inkscape:window-height="1004"
     inkscape:window-width="1280"
     inkscape:pageshadow="2"
     inkscape:pageopacity="0.0"
     guidetolerance="10.0"
     gridtolerance="10.0"
     objecttolerance="10.0"
     borderopacity="1.0"
     bordercolor="#666666"
     pagecolor="#ffffff"
     id="base"
     inkscape:zoom="1.2451783"
     inkscape:cx="212.8544"
     inkscape:cy="220.05922"
     inkscape:window-x="-8"
     inkscape:window-y="-8"
     inkscape:current-layer="svg1890"
     showgrid="false"
     fit-margin-top="0.2"
     fit-margin-left="0.2"
     fit-margin-right="0.2"
     fit-margin-bottom="0.2"
     inkscape:window-maximized="1"
     showguides="true"
     inkscape:guide-bbox="true" />
  <path
     style="fill:#fcdc0f;fill-opacity:1;fill-rule:nonzero;stroke:none"
     d="m 496.8946,242.33616 c 4.33196,4.33195 4.33196,11.33928 0,15.67124 L 258.00741,496.89459 c -4.33196,4.33196 -11.33929,4.33196 -15.67125,0 L 3.4489782,258.0074 c -4.33196925,-4.33197 -4.33196925,-11.33928 -1e-5,-15.67124 L 242.33617,3.4489589 c 4.33195,-4.33194987 11.33929,-4.33194387 15.67125,1e-5 z"
     id="path5216"
     inkscape:connector-curvature="0"
     sodipodi:nodetypes="sssssssss" />
  <path
     style="fill:#000000;fill-opacity:1;fill-rule:nonzero;stroke:none"
     d="M 250.17179,12.231763 12.231779,250.17177 250.17179,488.1118 488.11181,250.17178 z m 16.73435,30.875126 190.33054,190.330551 c 9.25965,9.25963 9.25965,24.20902 1e-5,33.46868 L 266.90615,457.23668 c -9.25965,9.25963 -24.20908,9.25963 -33.46871,0 L 43.106879,266.90612 c -9.25963,-9.25964 -9.25964,-24.20905 0,-33.46869 L 233.43744,43.106869 c 9.25965,-9.259653 24.20905,-9.25963 33.4687,2e-5 z"
     id="path17826"
     inkscape:connector-curvature="0"
     sodipodi:nodetypes="cccccsssssssss" />
  <path
     inkscape:connector-curvature="0"
     d="m 348.49419,234.0939 2.61356,-2.47062 c 0.5717,0 1.04133,-0.44919 1.04133,-1.06176 l 0,-3.87949 c 0,-0.61255 -0.46963,-1.10258 -1.04133,-1.10258 l -72.83235,0 c -0.57171,0 -1.04133,0.49003 -1.04133,1.10258 l 0,3.87949 c 0,0.61257 0.46962,1.08137 1.04133,1.08137 l 2.63399,2.45021 0,15.25252 c -0.61257,1.83766 -0.57173,3.63448 -3.63448,2.98109 l -13.96617,0 0,-4.08369 c 0,-1.91933 -1.57221,-3.51195 -3.53238,-3.51195 l -1.26591,0 c -1.96017,0 -3.53238,1.59262 -3.53238,3.51195 l 0,4.08369 -17.04936,0 0,-4.69624 c 0,-5.81923 -4.73708,-10.57672 -10.57672,-10.57672 l -7.79983,0 c -5.83966,0 -10.59713,4.75749 -10.59713,10.57672 l 0,4.69624 -24.31829,0 0,-25.07378 -2.06225,0 0,-2.8994 c -0.85758,-2.59315 7.39144,-7.2281 8.94324,-8.28987 3.3282,-2.3481 5.14543,-7.51396 8.80031,-9.14743 3.59363,-1.59264 7.79983,1.02092 14.63998,-1.93973 6.3297,-2.67481 5.79882,-9.00451 12.25103,-10.59716 2.75647,-0.73505 5.43129,-0.34629 8.18777,-0.69421 2.38895,-0.34794 4.7779,-2.02142 7.2281,-1.6743 6.86058,1.02091 11.57725,5.90089 18.9891,2.75648 1.47011,-0.61255 2.28685,-1.69472 3.65491,-2.28686 3.30774,-1.45052 6.02342,-1.65389 8.94325,-4.1041 4.83914,-4.14492 8.55528,-10.1275 12.51646,-15.13001 8.12651,-10.12751 10.43375,-22.92982 -0.53088,-31.56681 -12.63897,-9.98458 -14.74205,-3.14441 -23.35863,-3.36902 -5.75797,-0.11441 -8.18779,-4.81875 -14.31327,-4.61455 -9.20871,0.26625 -19.56082,5.63547 -23.66492,13.88449 -0.65339,1.2447 -1.26591,1.85807 -1.8785,3.08318 -2.49103,1.2251 -5.57421,0 -8.02442,0 -5.59462,0 -11.72015,0 -15.37503,3.71614 -3.12401,1.83764 -6.81974,3.6753 -7.43228,6.7789 -1.85807,4.32871 -3.1036,8.004 -5.57424,11.1076 -1.20468,1.81722 -4.28784,3.04234 -6.77889,4.30827 -5.04333,2.53187 -8.04485,9.84167 -8.1061,15.29335 -0.12242,4.57372 -4.55329,7.02393 -6.69723,10.27044 -2.71563,4.16536 -3.16485,8.39197 -2.14391,13.14944 0.20411,0.93925 2.7973,9.73956 2.49103,11.96516 l -1.91932,0 0,25.07378 -18.53989,0 c -0.59213,0.65339 -1.47013,1.3476 -1.47013,2.53187 -0.61254,6.81973 -3.71614,12.41438 -4.92082,19.15245 -0.81674,4.41035 -1.36803,9.02492 -1.30678,13.51696 0.041,5.47211 3.02193,8.63696 4.28787,13.82323 0.65339,2.53187 0.71464,6.69723 2.4502,8.82073 1.22509,1.53056 3.92032,2.34813 2.61356,4.32871 -1.67431,2.51146 -6.51346,1.36721 -8.51447,3.30776 -1.89892,1.89892 -1.57221,6.30929 -0.7759,8.63699 0.61254,1.87848 2.4502,1.22509 4.30827,1.22509 l 22.23561,0 c -0.2247,1.14343 -0.28586,2.28685 -0.28586,3.49156 0,12.14892 9.86208,21.94974 21.99059,21.94974 12.14895,0 22.01103,-9.80082 22.01103,-21.94974 0,-1.20388 -0.1437,-2.34813 -0.3063,-3.49156 l 10.29088,0 c -0.12241,1.14343 -0.24501,2.28685 -0.24501,3.49156 0,12.14892 9.82123,21.94974 21.97015,21.94974 12.14893,0 21.97019,-9.80082 21.97019,-21.94974 0,-1.20388 -0.0817,-2.34813 -0.28587,-3.49156 l 20.72466,0 c -0.14209,1.14343 -0.24504,2.28685 -0.24504,3.49156 0,12.14892 9.86208,21.94974 22.01103,21.94974 11.41387,0 20.78589,-8.71865 21.82724,-19.82625 l 23.80781,0 c 0,0 9.16785,-7.39143 9.37204,-8.04482 0.93926,-2.81776 0.81675,-6.61556 -0.42878,-7.86109 -1.24552,-1.26593 -2.69522,0.40837 -2.69522,-2.10309 l 0,-21.2351 c 0,-11.02593 6.43186,-20.80632 7.10566,-24.15494 0.61255,-3.28735 2.94025,-11.84267 -0.44919,-11.84267 l -14.5584,0 c -3.14439,0 -1.87848,-3.30777 -1.87848,-3.30777 0,0 -0.63298,-13.76198 0,-17.92734 l 3.00149,-2.71563 z m -32.75107,25.99259 c 0,-1.89889 -1.5926,-3.49153 -3.51195,-3.49153 l -6.26844,0 c -1.93976,0 -3.57322,-1.59264 -3.57322,-3.53237 l 0,-12.92483 c 0,-1.96017 1.63346,-3.5324 3.57322,-3.5324 l 29.34121,0 c 1.96017,0 3.53238,1.57141 3.53238,3.5324 l 0,12.92483 c 0,1.93973 -1.57224,3.53237 -3.53238,3.53237 l -3.55281,0 c -1.96017,0 -3.53238,1.59264 -3.53238,3.49153 l 0,33.13904 c 0,1.96015 -1.57221,3.55279 -3.51196,3.55279 l -5.45171,0 c -1.93971,0 -3.51196,-1.59264 -3.51196,-3.55279 l 0,-33.13904"
     style="fill:#000000;fill-opacity:1;fill-rule:nonzero;stroke:none"
     id="path5562" />
</svg>
