<?xml version="1.0" encoding="UTF-8" standalone="no"?>
<!-- Created with Inkscape (http://www.inkscape.org/) -->

<svg
   xmlns:svg="http://www.w3.org/2000/svg"
   xmlns="http://www.w3.org/2000/svg"
   version="1.0"
   width="500"
   height="500"
   id="svg4203">
  <defs
     id="defs24" />
  <rect
     width="497.5"
     height="497.5"
     x="2.5"
     y="2.5"
     id="rect2870"
     style="color:#000000;fill:#0066b3;fill-opacity:1;fill-rule:nonzero;stroke:#ffffff;stroke-width:5;stroke-linecap:round;stroke-linejoin:round;stroke-miterlimit:4;stroke-opacity:1;stroke-dasharray:none;stroke-dashoffset:261;marker:none;visibility:visible;display:inline;overflow:visible;enable-background:accumulate" />
  <g
     id="text3748-5-5"
     style="font-size:63.4311409px;font-style:normal;font-weight:normal;text-align:center;text-anchor:middle;fill:#ffffff;fill-opacity:1;stroke:#ffffff;stroke-opacity:1;font-family:'Rounded M+ 1mn medium';-inkscape-font-specification:'Rounded M+ 1mn medium'">
    <path
       d="m 203.05536,453.29053 c 5.94665,1.0572 8.91998,4.06357 8.92001,9.01911 -3e-5,2.98986 -0.9994,5.42634 -2.99811,7.30945 -2.21351,2.06482 -5.34377,3.09722 -9.39079,3.09722 -6.06231,0 -10.43971,-2.4117 -13.13223,-7.23511 l 3.71667,-1.98222 c 1.86659,3.6506 4.98859,5.47589 9.36601,5.47589 2.57687,0 4.57561,-0.66074 5.99622,-1.98223 1.3545,-1.2554 2.03176,-2.84943 2.03178,-4.78211 -2e-5,-2.24651 -1.01591,-4.05528 -3.04767,-5.42634 -1.85009,-1.25539 -4.28657,-1.88309 -7.30945,-1.88311 l -2.23,0 0,-3.59278 2.32911,0 c 3.0394,2e-5 5.36025,-0.57813 6.96256,-1.73444 1.71791,-1.22235 2.57687,-2.86594 2.57689,-4.93078 -2e-5,-2.24649 -0.96635,-3.9066 -2.899,-4.98034 -1.2389,-0.7433 -2.72557,-1.11497 -4.46,-1.115 -3.68364,3e-5 -6.40094,1.85011 -8.15189,5.55022 l -3.71667,-1.784 c 2.42822,-4.87293 6.40092,-7.30941 11.91812,-7.30945 3.48539,4e-5 6.31005,0.88378 8.474,2.65123 2.1639,1.70144 3.24586,3.96448 3.24589,6.78911 -3e-5,2.67603 -1.04895,4.86473 -3.14678,6.56612 -1.35454,1.09024 -3.03943,1.78402 -5.05467,2.08133 z"
       id="path3734"
       style="font-size:50.74491882px;fill:#ffffff;fill-opacity:1;stroke:#ffffff;stroke-width:1.58577871;stroke-opacity:1;font-family:IPAPGothic;-inkscape-font-specification:IPAPGothic" />
    <path
       d="m 232.34271,435.00451 c 4.45999,4e-5 7.88758,2.06486 10.28279,6.19445 1.8996,3.2707 2.84942,7.49944 2.84944,12.68623 -2e-5,5.13728 -0.94984,9.37428 -2.84944,12.71101 -2.36218,4.08008 -5.84758,6.12011 -10.45623,6.12011 -4.59216,0 -8.06931,-2.04003 -10.43145,-6.12011 -1.89964,-3.33673 -2.84945,-7.59025 -2.84945,-12.76056 0,-7.20206 1.7427,-12.44668 5.22812,-15.7339 2.21347,-2.06478 4.95554,-3.09719 8.22622,-3.09723 z m -0.17344,3.66712 c -2.64298,3e-5 -4.72431,1.33803 -6.244,4.014 -1.55275,2.70907 -2.32912,6.45051 -2.32912,11.22434 0,4.67476 0.75985,8.35839 2.27956,11.0509 1.53621,2.64296 3.63406,3.96445 6.29356,3.96444 3.18806,10e-6 5.5502,-1.85833 7.08645,-5.575 1.0076,-2.49429 1.51142,-5.73192 1.51144,-9.7129 -2e-5,-4.64168 -0.77639,-8.29227 -2.32911,-10.95178 -1.56928,-2.67597 -3.65887,-4.01397 -6.26878,-4.014 z"
       id="path3736"
       style="font-size:50.74491882px;fill:#ffffff;fill-opacity:1;stroke:#ffffff;stroke-width:1.58577871;stroke-opacity:1;font-family:IPAPGothic;-inkscape-font-specification:IPAPGothic" />
    <path
       d="m 264.35562,435.00451 c 4.45999,4e-5 7.88758,2.06486 10.28279,6.19445 1.8996,3.2707 2.84941,7.49944 2.84944,12.68623 -3e-5,5.13728 -0.94984,9.37428 -2.84944,12.71101 -2.36218,4.08008 -5.84758,6.12011 -10.45623,6.12011 -4.59216,0 -8.06931,-2.04003 -10.43145,-6.12011 -1.89964,-3.33673 -2.84945,-7.59025 -2.84945,-12.76056 0,-7.20206 1.7427,-12.44668 5.22812,-15.7339 2.21347,-2.06478 4.95554,-3.09719 8.22622,-3.09723 z m -0.17344,3.66712 c -2.64298,3e-5 -4.72431,1.33803 -6.244,4.014 -1.55275,2.70907 -2.32912,6.45051 -2.32912,11.22434 0,4.67476 0.75985,8.35839 2.27956,11.0509 1.53621,2.64296 3.63406,3.96445 6.29356,3.96444 3.18806,10e-6 5.5502,-1.85833 7.08645,-5.575 1.0076,-2.49429 1.51142,-5.73192 1.51144,-9.7129 -2e-5,-4.64168 -0.77639,-8.29227 -2.32911,-10.95178 -1.56928,-2.67597 -3.65887,-4.01397 -6.26878,-4.014 z"
       id="path3738"
       style="font-size:50.74491882px;fill:#ffffff;fill-opacity:1;stroke:#ffffff;stroke-width:1.58577871;stroke-opacity:1;font-family:IPAPGothic;-inkscape-font-specification:IPAPGothic" />
    <path
       d="m 320.03132,471.97298 -4.36089,0 0,-15.83301 c -3e-5,-4.26176 -1.65188,-6.39265 -4.95556,-6.39267 -1.56928,2e-5 -3.0064,0.72684 -4.31133,2.18045 -0.92506,1.02416 -1.56929,2.31261 -1.93267,3.86533 l 0,16.1799 -4.36089,0 0,-15.88256 c -2e-5,-4.22873 -1.56102,-6.3431 -4.683,-6.34312 -1.65187,2e-5 -3.1055,0.72684 -4.3609,2.18045 -1.35452,1.5032 -2.03178,2.95683 -2.03177,4.36089 l 0,15.68434 -4.3609,0 0,-25.27335 4.06356,0 0,4.36089 c 1.66836,-3.2376 4.18744,-4.85642 7.55723,-4.85644 3.68361,2e-5 6.13661,1.75924 7.359,5.27767 1.83353,-3.51843 4.46824,-5.27765 7.90412,-5.27767 2.77508,2e-5 4.939,0.98287 6.49178,2.94855 1.32144,1.61884 1.98218,3.91491 1.98222,6.88823 z"
       id="path3740"
       style="font-size:50.74491882px;fill:#ffffff;fill-opacity:1;stroke:#ffffff;stroke-width:1.58577871;stroke-opacity:1;font-family:IPAPGothic;-inkscape-font-specification:IPAPGothic" />
  </g>
  <path
     d="m 130.961,325.04554 189.96875,0 92.37923,0 -3.84375,6.625 c -0.53325,0.85979 -0.72139,1.80322 -0.84375,2.8125 -1e-5,2.51843 2.04407,4.5625 4.5625,4.5625 1.11221,0 2.14491,-0.41569 2.9375,-1.09375 l 46.28125,-26.90625 c 0.54332,-0.31347 0.8105,-0.71438 0.8125,-1.125 -0.003,-0.41064 -0.26917,-0.81154 -0.8125,-1.125 l -46.28125,-26.90625 c -0.7926,-0.67805 -1.8253,-1.09375 -2.9375,-1.09375 -2.51843,0 -4.5625,2.04407 -4.5625,4.5625 -0.0423,1.03191 0.42346,1.94106 0.84375,2.8125 l 3.84375,6.625 -92.37923,0 -189.96875,0 -40.312502,0 3.875,-6.625 c 0.47209,-0.84075 0.71322,-1.81267 0.8438,-2.8125 0,-2.51843 -2.04407,-4.5625 -4.5625,-4.5625 -1.1122,0 -2.1449,0.4157 -2.9375,1.09375 l -46.2813,26.90625 c -0.543327,0.31346 -0.80996,0.71436 -0.8125,1.125 0.002,0.41062 0.26918,0.81153 0.8125,1.125 l 46.28125,26.90625 c 0.79259,0.67806 1.82529,1.09375 2.9375,1.09375 2.51843,0 4.56251,-2.04407 4.5625,-4.5625 1e-5,-1.02271 -0.33808,-1.94603 -0.875,-2.6875 l -3.8438,-6.75 40.312502,0 5e-5,0 z"
     id="path13506-80"
     style="fill:#ffffff;fill-opacity:1;fill-rule:nonzero;stroke:none" />
  <path
     d="m 250.07753,118.72269 c -0.41062,0.002 -0.82296,0.27112 -1.13643,0.81444 l -26.89536,46.2777 c -0.67806,0.7926 -1.09855,1.84249 -1.09855,2.95469 0,2.51843 2.04621,4.56464 4.56464,4.56464 1.02724,0.0347 1.96227,-0.44783 2.82212,-0.85865 l 6.62283,-3.85753 c 0,0 0,161.15219 0,234.73985 0,2.10933 1.74187,3.8449 3.85122,3.8449 3.75651,0 11.26953,0 11.26953,0 3.75651,0 7.51303,0 11.26954,0 2.10934,0 3.85122,-1.73557 3.85122,-3.8449 l 0,-234.73984 6.62282,3.85752 c 0.85717,0.512 1.8122,0.72822 2.82212,0.85866 2.51843,0 4.56464,-2.04621 4.56464,-4.56464 0,-1.1122 -0.42049,-2.16209 -1.09854,-2.95469 l -26.89537,-46.27771 c -0.31347,-0.54331 -0.72581,-0.81188 -1.13643,-0.81444 z"
     id="path13506"
     style="fill:#ffffff;fill-opacity:1;fill-rule:nonzero;stroke:none" />
  <path
     d="m 169.625,281.0625 c -0.49885,0.0478 -0.96699,0.34794 -1.21875,0.78125 l -15.71875,27.25 c -0.26855,0.47384 -0.26855,1.08866 0,1.5625 l 15.71875,27.25 c 0.27978,0.47575 0.82309,0.78445 1.375,0.78125 l 157.25,0 c 0.55191,0.003 1.09522,-0.3055 1.375,-0.78125 l 15.71875,-27.25 c 0.26855,-0.47384 0.26855,-1.08866 0,-1.5625 l -15.71875,-27.25 c -0.27978,-0.47575 -0.82309,-0.78445 -1.375,-0.78125 l -157.25,0 c -0.052,-0.003 -0.10421,-0.003 -0.15625,0 z"
     id="path4156"
     style="font-size:medium;font-style:normal;font-variant:normal;font-weight:normal;font-stretch:normal;text-indent:0;text-align:start;text-decoration:none;line-height:normal;letter-spacing:normal;word-spacing:normal;text-transform:none;direction:ltr;block-progression:tb;writing-mode:lr-tb;text-anchor:start;color:#000000;fill:#ffffff;fill-opacity:1;fill-rule:nonzero;stroke:none;stroke-width:3.16863918;marker:none;visibility:visible;display:inline;overflow:visible;enable-background:accumulate;font-family:Bitstream Vera Sans;-inkscape-font-specification:Bitstream Vera Sans" />
  <g
     transform="translate(-1.545134e-7,-0.5084736)"
     id="text2862"
     style="font-size:40px;font-style:normal;font-weight:normal;text-align:center;text-anchor:middle;fill:#ffffff;fill-opacity:1;stroke:none;font-family:'Rounded M+ 1m medium';-inkscape-font-specification:'Rounded M+ 1m medium'">
    <path
       d="m 51.334023,189.2738 c -0.520036,0.59941 -1.17006,0.9293 -1.950074,0.98969 -0.780043,0.0605 -1.47035,-0.16934 -2.070923,-0.68939 -1.400157,-1.2402 -3.220224,-2.74044 -5.460205,-4.50074 -0.599371,-0.47969 -0.949102,-1.10957 -1.049194,-1.88964 -0.100103,-0.77999 0.109857,-1.4703 0.629883,-2.07093 0.520012,-0.6396 1.180107,-0.9994 1.980285,-1.0794 0.800162,-0.0799 1.520071,0.11998 2.159729,0.59967 2.600085,2.04106 4.420151,3.52116 5.460206,4.4403 0.639631,0.52007 0.979597,1.19023 1.019897,2.0105 0.04027,0.82035 -0.199602,1.55033 -0.719604,2.18994 z m -1.620484,14.09912 c -0.520034,0.60061 -1.170057,0.93081 -1.950073,0.99061 -0.780041,0.0598 -1.470348,-0.17027 -2.070923,-0.69031 -2.519539,-2.23997 -4.699103,-4.06003 -6.538696,-5.46021 -0.60059,-0.4797 -0.94086,-1.09952 -1.020813,-1.85943 -0.07996,-0.75986 0.119931,-1.4401 0.59967,-2.04071 0.520015,-0.59934 1.170039,-0.94907 1.950073,-1.0492 0.780023,-0.10006 1.490472,0.0898 2.131348,0.56946 2.080068,1.51981 4.259631,3.3002 6.538696,5.34119 0.640854,0.55911 0.991196,1.23873 1.051026,2.03888 0.0598,0.80019 -0.170304,1.5201 -0.690308,2.15972 z m 2.519531,11.34156 c -1.799332,5.23926 -4.059461,10.07874 -6.780395,14.51843 -0.439463,0.72021 -1.079111,1.18042 -1.918945,1.38062 -0.839852,0.20019 -1.61988,0.0601 -2.340088,-0.42023 -0.720221,-0.48035 -1.160284,-1.14045 -1.320191,-1.98029 -0.159917,-0.83984 -0.02015,-1.61987 0.419312,-2.34009 2.440178,-4.0393 4.60021,-8.47899 6.480102,-13.31909 0.28075,-0.76048 0.771167,-1.30064 1.471253,-1.62048 0.700059,-0.31981 1.429734,-0.33995 2.189026,-0.0604 0.760481,0.32107 1.320784,0.85146 1.680908,1.59119 0.36009,0.73976 0.399763,1.48988 0.119018,2.25037 z m 23.040162,11.21887 c 1.240192,0 2.130389,0 2.670593,0 0.540117,0 1.249956,-0.0198 2.129516,-0.0595 0.879471,-0.0397 1.479446,-0.0897 1.799927,-0.15015 0.320387,-0.0604 0.770521,-0.17059 1.350403,-0.3305 0.579785,-0.15991 0.949658,-0.31982 1.109619,-0.47974 0.159863,-0.15991 0.409801,-0.40985 0.749817,-0.74981 0.339915,-0.33997 0.549876,-0.67993 0.629883,-1.0199 0.0799,-0.33996 0.199839,-0.79986 0.359802,-1.3797 0.159861,-0.57983 0.270029,-1.16973 0.330505,-1.76972 0.06037,-0.59996 0.130259,-1.34001 0.209656,-2.22015 0.08051,-0.80077 0.440622,-1.4511 1.080322,-1.95099 0.639596,-0.49987 1.35981,-0.66985 2.160645,-0.50995 0.880071,0.15993 1.580144,0.59999 2.10022,1.32019 0.519962,0.72023 0.739688,1.5204 0.659179,2.40052 -0.119686,1.60034 -0.249691,2.92053 -0.390014,3.96057 -0.140438,1.04004 -0.390377,2.03979 -0.749817,2.99926 -0.359553,0.95948 -0.699519,1.70929 -1.019898,2.24946 -0.320489,0.54015 -0.880486,1.04034 -1.679992,1.50054 -0.799614,0.46021 -1.54943,0.7901 -2.249451,0.98969 -0.700124,0.19958 -1.78014,0.36956 -3.240051,0.50995 -1.460008,0.14037 -2.850082,0.22064 -4.170227,0.24078 -1.320234,0.0201 -3.140605,0.0302 -5.461121,0.0302 -2.600134,0 -4.670139,-0.0201 -6.210022,-0.0604 -1.539948,-0.0403 -2.959929,-0.17029 -4.259949,-0.39002 -1.300075,-0.21973 -2.240016,-0.45959 -2.819824,-0.7196 -0.579859,-0.26001 -1.069665,-0.70008 -1.469421,-1.32019 -0.399804,-0.62012 -0.639672,-1.26038 -0.719605,-1.92078 -0.07998,-0.6604 -0.119957,-1.59057 -0.119934,-2.79052 l 0,-24.71924 c -2.3e-5,-0.36008 -0.159935,-0.49985 -0.479736,-0.41931 l -1.920776,0.47973 c -0.760518,0.15994 -1.480733,0.0199 -2.160645,-0.42022 -0.67995,-0.44004 -1.099871,-1.06016 -1.259766,-1.86036 -0.159929,-0.80014 -0.0098,-1.55026 0.45044,-2.25036 0.460187,-0.70004 1.090069,-1.13003 1.889648,-1.28998 l 3.001099,-0.65918 c 0.319801,-0.0805 0.479713,-0.30087 0.479736,-0.66101 l 0,-8.09876 c -2.3e-5,-0.88008 0.30973,-1.62013 0.92926,-2.22015 0.619483,-0.59993 1.369299,-0.89992 2.249451,-0.89996 0.8801,4e-5 1.62015,0.30003 2.220154,0.89996 0.599946,0.60002 0.899934,1.34007 0.899963,2.22015 l 0,6.71998 c -2.9e-5,0.31986 0.159883,0.43948 0.479737,0.35888 l 5.460205,-1.19934 c 0.360071,-0.0805 0.540125,-0.30025 0.540161,-0.65918 l 0,-8.52173 c -3.6e-5,-0.83979 0.290186,-1.54963 0.870666,-2.12951 0.580407,-0.57979 1.290551,-0.86971 2.130433,-0.86975 0.839804,4e-5 1.549642,0.28996 2.129516,0.86975 0.579793,0.57988 0.869709,1.28972 0.869751,2.12951 l 0,7.20154 c -4.2e-5,0.31986 0.15987,0.43949 0.479736,0.35889 l 10.140381,-2.27967 c 0.839791,-0.20015 1.599678,-0.0302 2.279663,0.50995 0.679877,0.5402 1.019842,1.25035 1.019898,2.13044 -5.6e-5,7.55984 -0.189875,13.10976 -0.569458,16.64978 -0.379694,3.54005 -0.899713,5.7602 -1.560059,6.66046 -0.660453,0.90028 -1.75054,1.35041 -3.270263,1.3504 -0.360158,1e-5 -1.300098,-0.0403 -2.819825,-0.12085 -0.799607,-0.0403 -1.499374,-0.33049 -2.099304,-0.87067 -0.60002,-0.54014 -0.979964,-1.21 -1.139831,-2.00958 -0.120894,-0.7202 0.05885,-1.35008 0.539245,-1.88965 0.480302,-0.53953 1.080582,-0.78977 1.800842,-0.75073 0.239211,2e-5 0.548964,0.0101 0.929261,0.0302 0.380201,0.0202 0.609998,0.0302 0.689392,0.0302 0.280713,1e-5 0.470837,-0.09 0.570373,-0.27009 0.09944,-0.18003 0.209302,-0.75986 0.32959,-1.7395 0.12019,-0.97959 0.210217,-2.42948 0.270081,-4.34967 0.05976,-1.92014 0.109813,-4.68014 0.150146,-8.28003 -4.9e-5,-0.31979 -0.159961,-0.44003 -0.479736,-0.36071 l -6.780396,1.56005 c -0.319866,0.0806 -0.479778,0.2808 -0.479736,0.60059 l 0,19.85962 c -4.2e-5,0.83985 -0.289958,1.54969 -0.869751,2.12952 -0.579874,0.57984 -1.289712,0.86976 -2.129516,0.86975 -0.839882,1e-5 -1.550026,-0.28991 -2.130433,-0.86975 -0.58048,-0.57983 -0.870702,-1.28967 -0.870666,-2.12952 l 0,-18.48084 c -3.6e-5,-0.31979 -0.18009,-0.43942 -0.540161,-0.35888 l -5.460205,1.19934 c -0.319854,0.0806 -0.479766,0.30093 -0.479737,0.66101 l 0,24.95911 c -2.9e-5,1.40014 0.460176,2.22015 1.380616,2.46002 0.920378,0.23987 4.100307,0.3598 9.539795,0.3598 z"
       id="path3722"
       style="font-size:60px;fill:#ffffff" />
    <path
       d="m 134.97294,193.83313 c -0.9192,0.67996 -1.95924,1.35989 -3.12012,2.03979 -0.67994,0.44071 -1.39985,0.53104 -2.15973,0.271 -0.75989,-0.25998 -1.29974,-0.77023 -1.61957,-1.53076 -0.31982,-0.79953 -0.33966,-1.60946 -0.0595,-2.42981 0.28014,-0.82028 0.77972,-1.45016 1.49871,-1.88965 4.36035,-2.71969 7.92052,-5.85994 10.68055,-9.42078 0.56028,-0.71894 1.26035,-1.20844 2.10022,-1.4685 0.83982,-0.25996 1.67966,-0.23006 2.51953,0.0897 0.76047,0.27959 1.25059,0.7993 1.47033,1.55914 0.21971,0.75994 0.10985,1.46031 -0.32959,2.10114 -1.08034,1.5601 -2.38039,3.11955 -3.90014,4.67834 -0.20022,0.20024 -0.30031,0.48039 -0.3003,0.84046 l 0,11.82129 c -1e-5,0.87893 -0.3,1.61837 -0.89996,2.21832 -0.59999,0.6 -1.34004,0.89999 -2.22015,0.89996 -0.88014,3e-5 -1.63026,-0.29996 -2.25037,-0.89996 -0.62013,-0.59995 -0.93019,-1.33939 -0.93018,-2.21832 l 0,-6.48011 c -1e-5,-0.32101 -0.15992,-0.38143 -0.47973,-0.18127 z m 10.05066,-1.55823 c -0.57986,-0.48092 -0.90975,-1.10134 -0.98969,-1.86126 -0.08,-0.75986 0.10008,-1.42972 0.54016,-2.00959 0.44005,-0.57979 1.03972,-0.88985 1.79902,-0.93017 l 7.80029,-0.71961 c 0.1196,4e-5 0.21939,-0.0701 0.29938,-0.21057 0.0799,-0.14034 0.0802,-0.27034 9.1e-4,-0.39001 -0.47976,-1.19991 -0.89969,-2.45968 -1.25976,-3.7793 -0.20023,-0.84102 -0.0403,-1.61128 0.47973,-2.31079 0.51999,-0.69942 1.22006,-1.08913 2.10022,-1.16913 0.8801,-0.0799 1.69003,0.13005 2.42981,0.62988 0.73971,0.49993 1.24936,1.18993 1.52893,2.07001 0.48092,1.59917 0.98141,2.93889 1.50147,4.01917 0.11959,0.27958 0.35946,0.41935 0.7196,0.41931 l 8.75977,-0.83863 c 0.0402,5e-5 0.0604,-0.0302 0.0604,-0.0906 -4e-5,-0.0604 -0.0202,-0.11013 -0.0604,-0.14923 -0.36016,-0.15987 -0.92015,-0.40981 -1.68,-0.74982 -0.75993,-0.33992 -1.31992,-0.59047 -1.67999,-0.75165 -0.63969,-0.2795 -1.03947,-0.7394 -1.19934,-1.3797 -0.15995,-0.64021 -0.0403,-1.23988 0.35889,-1.79901 0.51997,-0.64082 1.18007,-1.06105 1.98028,-1.26068 0.80013,-0.19954 1.58046,-0.13942 2.34101,0.18036 2.79902,1.2 4.59894,2.00017 5.39978,2.40051 0.55903,0.2393 0.90876,0.64915 1.04919,1.22955 0.14033,0.58049 0.0103,1.09044 -0.39001,1.52985 -0.0794,0.15995 -0.0391,0.23991 0.12085,0.23987 l 1.07849,-0.0604 c 0.72016,-0.0793 1.37049,0.11082 1.95099,0.57038 0.58038,0.45963 0.89014,1.04954 0.92926,1.76971 0.0805,0.72026 -0.11938,1.37028 -0.59967,1.95007 -0.48041,0.57988 -1.08008,0.88993 -1.79902,0.93018 l -13.62121,1.32019 c -0.31987,4e-5 -0.37968,0.15995 -0.17944,0.47974 1.56001,2.12039 3.18995,3.81045 4.88983,5.07019 1.69978,1.25979 3.18995,1.88967 4.47052,1.88965 0.88007,2e-5 1.74006,-0.96006 2.57995,-2.88025 0.31977,-0.6799 0.81965,-1.14987 1.49964,-1.40992 0.67987,-0.25997 1.33966,-0.20992 1.97937,0.15015 0.72016,0.40042 1.23041,0.98056 1.53076,1.74042 0.30023,0.75992 0.29047,1.49997 -0.0293,2.22015 -1.72002,3.9197 -4.0003,5.87954 -6.84082,5.87952 -2.91997,2e-5 -5.95982,-1.07999 -9.11957,-3.24005 -3.15982,-2.16001 -5.89999,-5.06009 -8.22052,-8.70026 -0.24051,-0.2795 -0.50052,-0.39913 -0.78003,-0.35889 l -9.71923,0.95948 c -0.76052,0.0806 -1.43069,-0.11899 -2.0105,-0.59876 z m -4.65088,26.2793 c -2.47926,0.99976 -5.55909,2.05933 -9.2395,3.17871 -0.75929,0.2002 -1.46912,0.13032 -2.12952,-0.20966 -0.6604,-0.33996 -1.13037,-0.88958 -1.40991,-1.64886 -0.24048,-0.67992 -0.19074,-1.35009 0.14923,-2.0105 0.33996,-0.66039 0.87005,-1.07054 1.59027,-1.23047 6.67968,-1.60033 12.13988,-3.56016 16.38062,-5.87951 0.039,-0.0403 0.0586,-0.0903 0.0586,-0.15015 -2e-5,-0.0598 -0.0397,-0.0897 -0.11902,-0.0897 l -14.82056,0 c -0.67993,1e-5 -1.27991,-0.25999 -1.79992,-0.78003 -0.52003,-0.52 -0.78004,-1.11998 -0.78003,-1.79993 -1e-5,-0.67991 0.26,-1.26981 0.78003,-1.76971 0.52001,-0.49986 1.11999,-0.7498 1.79992,-0.74982 l 20.7605,0 c 0.3198,2e-5 0.47971,-0.1605 0.47974,-0.48157 l 0,-2.03979 c -3e-5,-0.8801 0.33994,-1.66013 1.0199,-2.34009 0.6799,-0.6799 1.45993,-1.01987 2.34008,-1.0199 0.8801,3e-5 1.64029,0.33023 2.28058,0.9906 0.64023,0.66043 0.96036,1.45022 0.96039,2.36939 l 0,2.03979 c -3e-5,0.32107 0.18002,0.48159 0.54016,0.48157 l 19.85962,0 c 0.67988,2e-5 1.27985,0.24996 1.79993,0.74982 0.51996,0.4999 0.77997,1.0898 0.78003,1.76971 -6e-5,0.67995 -0.26007,1.27993 -0.78003,1.79993 -0.52008,0.52004 -1.12005,0.78004 -1.79993,0.78003 l -18.18054,0 c -0.11967,1e-5 -0.20969,0.0501 -0.27008,0.15014 -0.0605,0.10012 -0.0705,0.18984 -0.0302,0.26917 1.44039,2.52077 3.14022,4.76075 5.09948,6.71997 0.28072,0.28077 0.56087,0.30091 0.84046,0.0604 1.9604,-1.31957 3.98066,-2.9193 6.06079,-4.7992 1.43916,-1.2805 2.95893,-1.42088 4.55932,-0.42114 0.6396,0.4004 0.98964,0.9604 1.05011,1.67999 0.0604,0.71962 -0.16942,1.33943 -0.68939,1.85944 -1.9605,1.76026 -4.14067,3.48084 -6.54053,5.16174 -0.11967,0.0794 -0.18956,0.17914 -0.20965,0.29938 -0.0202,0.12024 0.0296,0.22003 0.14923,0.29937 2.80024,1.76026 6.00031,3.2605 9.60022,4.50074 0.67988,0.23926 1.15992,0.70892 1.44012,1.40899 0.2801,0.70008 0.24012,1.37055 -0.11993,2.01142 -0.43951,0.75927 -1.05932,1.29882 -1.85944,1.61865 -0.80022,0.31982 -1.60009,0.33996 -2.39959,0.0604 -5.36016,-1.8396 -10.10045,-4.54956 -14.22089,-8.12988 -4.12052,-3.58031 -7.20065,-7.65013 -9.24042,-12.20947 -0.15994,-0.31981 -0.33999,-0.38023 -0.54016,-0.18128 -1.79934,1.48073 -3.77932,2.86074 -5.93994,4.14002 -0.31985,0.20021 -0.47976,0.46022 -0.47974,0.78003 l 0,8.58032 c -2e-5,0.36011 0.18004,0.50049 0.54017,0.42114 4.4006,-0.72021 8.20065,-1.40075 11.40014,-2.04162 0.6799,-0.15991 1.31985,-0.0397 1.91986,0.36072 0.59994,0.40039 0.94021,0.94055 1.02082,1.62048 0.11959,0.72022 -0.0406,1.38031 -0.48066,1.98028 -0.4401,0.59998 -1.00009,0.97992 -1.67999,1.13984 -8.59988,1.79931 -17.13991,3.13903 -25.62012,4.01916 -0.7605,0.0806 -1.43067,-0.10926 -2.01049,-0.56946 -0.57984,-0.46021 -0.90943,-1.07056 -0.98877,-1.83105 -0.0806,-0.719 0.0992,-1.36872 0.53924,-1.94916 0.44006,-0.58044 1.0202,-0.8902 1.74042,-0.92926 3.03954,-0.32104 5.3192,-0.58105 6.83899,-0.78003 0.32103,-0.0806 0.48155,-0.26062 0.48157,-0.54016 l 0,-6.41968 c -2e-5,-0.3601 -0.16054,-0.46019 -0.48157,-0.30029 z"
       id="path3724"
       style="font-size:60px;fill:#ffffff" />
  </g>
  <g
     transform="translate(-1.545134e-7,-0.5084736)"
     id="text2866-6"
     style="font-size:40px;font-style:normal;font-weight:normal;text-align:center;text-anchor:middle;fill:#ffffff;fill-opacity:1;stroke:#ffffff;stroke-width:1;stroke-miterlimit:4;stroke-opacity:1;font-family:'Rounded M+ 1m medium';-inkscape-font-specification:'Rounded M+ 1m medium'">
    <path
       d="m 44.341003,266.29333 -2.666015,0 0,-21.43066 2.666015,0 z"
       id="path3727"
       style="font-size:30px;fill:#ffffff;stroke:#ffffff;font-family:IPAPGothic;-inkscape-font-specification:IPAPGothic" />
    <path
       d="m 62.578308,266.29333 -3.120117,0 -5.126953,-7.26562 -1.713867,1.65527 0,5.61035 -2.519532,0 0,-22.17773 2.519532,0 0,14.19434 6.298828,-6.95801 3.237304,0 -6.210937,6.21094 z"
       id="path3729"
       style="font-size:30px;fill:#ffffff;stroke:#ffffff;font-family:IPAPGothic;-inkscape-font-specification:IPAPGothic" />
    <path
       d="m 66.943542,259.1156 c 0.08789,1.72852 0.629879,3.09083 1.625977,4.08691 1.015618,1.01563 2.246086,1.52344 3.691406,1.52344 1.904286,0 3.413073,-0.88867 4.526367,-2.66601 l 1.684571,1.11328 c -1.41603,2.37305 -3.588879,3.55957 -6.518555,3.55957 -2.216804,0 -4.038091,-0.70801 -5.463867,-2.12403 -1.435549,-1.4453 -2.153322,-3.3496 -2.15332,-5.71289 -2e-6,-2.50975 0.751951,-4.51659 2.255859,-6.0205 1.337886,-1.33788 3.007806,-2.00682 5.009766,-2.00684 1.884755,2e-5 3.461902,0.62013 4.731445,1.86035 1.425766,1.44533 2.138656,3.37404 2.138672,5.78613 l 0,0.60059 z m 8.876954,-1.88965 c -0.146498,-1.35741 -0.625013,-2.42674 -1.435547,-3.20801 -0.800792,-0.80076 -1.748057,-1.20115 -2.841797,-1.20117 -1.269539,2e-5 -2.353522,0.54201 -3.251953,1.62598 -0.615239,0.73243 -1.01563,1.66017 -1.201172,2.7832 z"
       id="path3731"
       style="font-size:30px;fill:#ffffff;stroke:#ffffff;font-family:IPAPGothic;-inkscape-font-specification:IPAPGothic" />
    <path
       d="m 85.224792,253.78357 c 1.328119,-1.90428 3.037102,-2.85643 5.126954,-2.85645 1.777331,2e-5 3.295884,0.6299 4.555664,1.88965 1.464827,1.46486 2.197248,3.48634 2.197265,6.06446 -1.7e-5,2.51953 -0.732438,4.50683 -2.197265,5.96191 -1.25978,1.25977 -2.797864,1.88965 -4.614258,1.88965 -2.021493,0 -3.769538,-0.85449 -5.244141,-2.56348 l -0.366211,2.21192 -2.006836,0 0,-22.26563 2.548828,0 z m 0,3.44238 0,3.48633 c -5e-6,1.14258 0.629877,2.16309 1.889649,3.06152 0.859367,0.61524 1.782218,0.92286 2.768555,0.92286 1.152332,0 2.128894,-0.40039 2.929687,-1.20118 1.064439,-1.09374 1.596665,-2.6123 1.59668,-4.55566 -1.5e-5,-1.7578 -0.439467,-3.19823 -1.31836,-4.32129 -0.869152,-1.08397 -1.928722,-1.62596 -3.178711,-1.62598 -1.142586,2e-5 -2.216804,0.50295 -3.222656,1.50879 -0.976568,0.97658 -1.464849,1.88478 -1.464844,2.72461 z"
       id="path3733"
       style="font-size:30px;fill:#ffffff;stroke:#ffffff;font-family:IPAPGothic;-inkscape-font-specification:IPAPGothic" />
    <path
       d="m 114.09686,266.29333 -2.40234,0 0,-2.7246 c -1.47462,2.01172 -3.26661,3.01757 -5.37598,3.01757 -1.72852,0 -3.07617,-0.58593 -4.04297,-1.75781 -0.76172,-0.94726 -1.14258,-2.2998 -1.14257,-4.05762 l 0,-9.41894 2.57812,0 0,9.33105 c 0,2.48048 1.04003,3.72071 3.12012,3.72071 2.0996,0 3.6621,-1.28906 4.6875,-3.86719 l 0,-9.18457 2.57812,0 z"
       id="path3735"
       style="font-size:30px;fill:#ffffff;stroke:#ffffff;font-family:IPAPGothic;-inkscape-font-specification:IPAPGothic" />
    <path
       d="m 132.0119,266.29333 -3.12012,0 -5.12695,-7.26562 -1.71387,1.65527 0,5.61035 -2.51953,0 0,-22.17773 2.51953,0 0,14.19434 6.29883,-6.95801 3.23731,0 -6.21094,6.21094 z"
       id="path3737"
       style="font-size:30px;fill:#ffffff;stroke:#ffffff;font-family:IPAPGothic;-inkscape-font-specification:IPAPGothic" />
    <path
       d="m 147.72968,266.29333 -2.40235,0 0,-2.7246 c -1.47462,2.01172 -3.26661,3.01757 -5.37598,3.01757 -1.72852,0 -3.07617,-0.58593 -4.04296,-1.75781 -0.76173,-0.94726 -1.14258,-2.2998 -1.14258,-4.05762 l 0,-9.41894 2.57812,0 0,9.33105 c 0,2.48048 1.04004,3.72071 3.12012,3.72071 2.0996,0 3.6621,-1.28906 4.6875,-3.86719 l 0,-9.18457 2.57813,0 z"
       id="path3739"
       style="font-size:30px;fill:#ffffff;stroke:#ffffff;font-family:IPAPGothic;-inkscape-font-specification:IPAPGothic" />
    <path
       d="m 161.26483,251.05896 -0.4541,2.54883 c -0.33204,-0.0683 -0.62989,-0.10253 -0.89355,-0.10254 -1.15236,1e-5 -2.1045,0.542 -2.85645,1.62598 -0.93751,1.36719 -1.40626,2.56836 -1.40625,3.60351 l 0,7.55859 -2.57813,0 0,-14.9414 2.43165,0 -0.11719,4.43848 0.0586,0 c 1.10351,-3.24218 2.70996,-4.86327 4.81934,-4.86329 0.34178,2e-5 0.67382,0.044 0.99609,0.13184 z"
       id="path3741"
       style="font-size:30px;fill:#ffffff;stroke:#ffffff;font-family:IPAPGothic;-inkscape-font-specification:IPAPGothic" />
    <path
       d="m 170.56659,250.92712 c 2.10936,2e-5 3.88671,0.70803 5.33203,2.12403 1.48436,1.48438 2.22655,3.43751 2.22656,5.85937 -1e-5,2.33399 -0.72755,4.2334 -2.18261,5.69824 -1.4258,1.41602 -3.21779,2.12403 -5.37598,2.12403 -2.15821,0 -3.93555,-0.69824 -5.33203,-2.09473 -1.46485,-1.46484 -2.19727,-3.40331 -2.19727,-5.81543 0,-2.36327 0.74219,-4.2871 2.22656,-5.77148 1.41602,-1.416 3.18359,-2.12401 5.30274,-2.12403 z m 0,1.97754 c -1.25001,2e-5 -2.30958,0.44924 -3.17871,1.34766 -1.10352,1.10353 -1.65528,2.63673 -1.65528,4.59961 0,1.9336 0.54199,3.44239 1.62598,4.52637 0.8789,0.8789 1.94824,1.31836 3.20801,1.31836 1.28905,0 2.36815,-0.44922 3.2373,-1.34766 1.08398,-1.08398 1.62597,-2.61718 1.62598,-4.59961 -1e-5,-1.86523 -0.55177,-3.36425 -1.65527,-4.49707 -0.89845,-0.89842 -1.96779,-1.34764 -3.20801,-1.34766 z"
       id="path3743"
       style="font-size:30px;fill:#ffffff;stroke:#ffffff;font-family:IPAPGothic;-inkscape-font-specification:IPAPGothic" />
  </g>
  <g
     transform="translate(-1.545134e-7,-0.5084736)"
     id="text2866-6-9"
     style="font-size:40px;font-style:normal;font-weight:normal;text-align:center;text-anchor:middle;fill:#ffffff;fill-opacity:1;stroke:#ffffff;stroke-width:1;stroke-miterlimit:4;stroke-opacity:1;font-family:'Rounded M+ 1m medium';-inkscape-font-specification:'Rounded M+ 1m medium'">
    <path
       d="m 348.11038,249.52087 c -1.11329,-1.92381 -2.77833,-2.88572 -4.99512,-2.88574 -1.25,2e-5 -2.25098,0.39065 -3.00292,1.17188 -0.57618,0.64455 -0.86427,1.38673 -0.86426,2.22656 -1e-5,0.92775 0.37109,1.68458 1.11328,2.27051 0.54687,0.41993 1.66991,0.98146 3.36914,1.68457 l 1.01074,0.4248 c 2.26561,0.90822 3.81346,1.91407 4.64356,3.01758 0.72264,0.96681 1.08396,2.05079 1.08398,3.25195 -2e-5,1.92384 -0.70802,3.44239 -2.12402,4.55567 -1.27931,0.99609 -2.9004,1.49414 -4.86328,1.49414 -3.28126,0 -5.81055,-1.24512 -7.58789,-3.73535 l 2.06542,-1.56739 c 1.40625,2.00196 3.25683,3.00294 5.55176,3.00293 1.09374,1e-5 2.02636,-0.25878 2.79785,-0.77636 0.95702,-0.69336 1.43554,-1.61621 1.43555,-2.76856 -10e-6,-0.89843 -0.35157,-1.69921 -1.05469,-2.40234 -0.75196,-0.72265 -2.13868,-1.46972 -4.16015,-2.24121 l -0.87891,-0.33692 c -3.39844,-1.29881 -5.09766,-3.17869 -5.09766,-5.63965 0,-1.63084 0.55176,-2.98337 1.65528,-4.05761 1.24023,-1.18162 2.89062,-1.77244 4.95117,-1.77246 3.05663,2e-5 5.39549,1.20119 7.0166,3.60351 z"
       id="path3746"
       style="font-size:30px;fill:#ffffff;stroke:#ffffff;font-family:IPAPGothic;-inkscape-font-specification:IPAPGothic" />
    <path
       d="m 367.69534,266.29333 -2.57812,0 0,-9.27246 c -2e-5,-2.53905 -1.04005,-3.80858 -3.12012,-3.80859 -2.13868,1e-5 -3.70118,1.26954 -4.6875,3.80859 l 0,9.27246 -2.57812,0 0,-22.17773 2.57812,0 0,9.78516 c 1.35742,-1.89452 3.10058,-2.84178 5.22949,-2.8418 3.43749,2e-5 5.15624,1.93849 5.15625,5.81543 z"
       id="path3748"
       style="font-size:30px;fill:#ffffff;stroke:#ffffff;font-family:IPAPGothic;-inkscape-font-specification:IPAPGothic" />
    <path
       d="m 375.75198,248.17322 -2.94433,0 0,-3.00293 2.94433,0 z m -0.19043,18.12011 -2.57812,0 0,-14.9414 2.57812,0 z"
       id="path3750"
       style="font-size:30px;fill:#ffffff;stroke:#ffffff;font-family:IPAPGothic;-inkscape-font-specification:IPAPGothic" />
    <path
       d="m 383.5889,253.78357 c 1.32812,-1.90428 3.0371,-2.85643 5.12695,-2.85645 1.77733,2e-5 3.29589,0.6299 4.55566,1.88965 1.46483,1.46486 2.19725,3.48634 2.19727,6.06446 -2e-5,2.51953 -0.73244,4.50683 -2.19727,5.96191 -1.25977,1.25977 -2.79786,1.88965 -4.61425,1.88965 -2.0215,0 -3.76954,-0.85449 -5.24414,-2.56348 l -0.36621,2.21192 -2.00684,0 0,-22.26563 2.54883,0 z m 0,3.44238 0,3.48633 c -1e-5,1.14258 0.62987,2.16309 1.88965,3.06152 0.85936,0.61524 1.78221,0.92286 2.76855,0.92286 1.15233,0 2.1289,-0.40039 2.92969,-1.20118 1.06444,-1.09374 1.59666,-2.6123 1.59668,-4.55566 -2e-5,-1.7578 -0.43947,-3.19823 -1.31836,-4.32129 -0.86915,-1.08397 -1.92872,-1.62596 -3.17871,-1.62598 -1.14259,2e-5 -2.21681,0.50295 -3.22266,1.50879 -0.97657,0.97658 -1.46485,1.88478 -1.46484,2.72461 z"
       id="path3752"
       style="font-size:30px;fill:#ffffff;stroke:#ffffff;font-family:IPAPGothic;-inkscape-font-specification:IPAPGothic" />
    <path
       d="m 412.46097,266.29333 -2.40235,0 0,-2.7246 c -1.47462,2.01172 -3.26661,3.01757 -5.37597,3.01757 -1.72852,0 -3.07618,-0.58593 -4.04297,-1.75781 -0.76172,-0.94726 -1.14258,-2.2998 -1.14258,-4.05762 l 0,-9.41894 2.57813,0 0,9.33105 c -10e-6,2.48048 1.04003,3.72071 3.12011,3.72071 2.0996,0 3.6621,-1.28906 4.6875,-3.86719 l 0,-9.18457 2.57813,0 z"
       id="path3754"
       style="font-size:30px;fill:#ffffff;stroke:#ffffff;font-family:IPAPGothic;-inkscape-font-specification:IPAPGothic" />
    <path
       d="m 429.80472,251.35193 -7.25098,17.51953 c -0.92774,2.23632 -2.5293,3.35449 -4.80469,3.35449 l -0.33691,0 -0.62988,-2.34375 0.4834,0 c 1.63085,0 2.72948,-0.72754 3.29589,-2.18262 l 0.9668,-2.40234 -6.18164,-13.94531 2.91504,0 3.2959,8.39355 c 0.51757,1.35743 0.89843,2.417 1.14258,3.17871 l 0.0879,0 c 0.39061,-1.21093 0.76171,-2.2705 1.11328,-3.17871 l 3.12011,-8.39355 z"
       id="path3756"
       style="font-size:30px;fill:#ffffff;stroke:#ffffff;font-family:IPAPGothic;-inkscape-font-specification:IPAPGothic" />
    <path
       d="m 444.73148,266.29333 -2.28516,0 c -0.34181,-0.75195 -0.56154,-1.52343 -0.65918,-2.31445 l -0.0879,0 c -1.13282,1.81641 -2.82228,2.72461 -5.06836,2.72461 -1.54297,0 -2.80274,-0.48828 -3.7793,-1.46484 -0.85937,-0.85938 -1.28906,-1.90918 -1.28906,-3.14942 0,-3.08593 2.66113,-4.70702 7.9834,-4.86328 l 2.00683,-0.0586 0,-0.77637 c -1e-5,-1.04491 -0.30274,-1.86522 -0.9082,-2.46094 -0.61524,-0.62498 -1.41114,-0.93748 -2.38769,-0.9375 -1.6797,2e-5 -2.93946,0.81545 -3.7793,2.44629 l -2.22656,-1.02539 c 1.37695,-2.28514 3.39843,-3.42772 6.06445,-3.42773 1.82616,10e-6 3.23729,0.51271 4.2334,1.53808 0.91795,0.91799 1.37694,2.21681 1.37695,3.89649 l 0,5.49316 c -10e-6,1.86524 0.26854,3.3252 0.80567,4.37988 z m -3.12012,-7.32421 -1.65527,0.0293 c -3.85743,0.0879 -5.78614,1.12794 -5.78614,3.12012 0,0.70313 0.22949,1.28418 0.68848,1.74316 0.5664,0.55665 1.30859,0.83497 2.22656,0.83497 1.27929,0 2.38769,-0.46875 3.3252,-1.40625 0.80077,-0.83008 1.20116,-1.83105 1.20117,-3.00293 z"
       id="path3758"
       style="font-size:30px;fill:#ffffff;stroke:#ffffff;font-family:IPAPGothic;-inkscape-font-specification:IPAPGothic" />
  </g>
  <g
     transform="translate(-1.545134e-7,-0.5084736)"
     id="text2854"
     style="font-size:80px;font-style:normal;font-weight:normal;text-align:center;text-anchor:middle;fill:#ffffff;fill-opacity:1;stroke:none;font-family:'Rounded M+ 1m medium';-inkscape-font-specification:'Rounded M+ 1m medium'">
    <path
       d="m 186.89166,40.343407 0,-5.879517 c -2e-5,-0.36007 -0.15994,-0.540124 -0.47973,-0.540161 l -20.15992,0 c -0.80078,3.7e-5 -1.46118,-0.270043 -1.9812,-0.810242 -0.52002,-0.540122 -0.78003,-1.189841 -0.78003,-1.949157 0,-0.800741 0.27008,-1.470906 0.81025,-2.010499 0.54015,-0.539507 1.19048,-0.809283 1.95098,-0.809326 l 20.15992,0 c 0.31979,4.3e-5 0.47971,-0.160479 0.47973,-0.481567 l 0,-2.340088 c -2e-5,-0.919143 0.3198,-1.698866 0.95948,-2.339172 0.63962,-0.64021 1.41964,-0.960339 2.34008,-0.960389 0.92038,5e-5 1.70041,0.320179 2.34009,0.960389 0.63962,0.640306 0.95944,1.420029 0.95947,2.339172 l 0,2.340088 c -3e-5,0.321088 0.16049,0.48161 0.48157,0.481567 l 20.75867,0 c 0.76044,4.3e-5 1.41077,0.269819 1.95099,0.809326 0.5401,0.539593 0.81018,1.209758 0.81024,2.010499 -6e-5,0.759316 -0.26007,1.409035 -0.78003,1.949157 -0.52008,0.540199 -1.18048,0.810279 -1.9812,0.810242 l -20.75867,0 c -0.32108,3.7e-5 -0.4816,0.180091 -0.48157,0.540161 l 0,5.879517 c -3e-5,0.319855 0.16049,0.479767 0.48157,0.479736 l 16.79993,0 c 0.91914,3.1e-5 1.7187,0.339996 2.39868,1.019897 0.67988,0.679961 1.01984,1.480131 1.0199,2.400513 l 0,18.900147 c -6e-5,3.959965 -0.40991,6.409914 -1.22956,7.349853 -0.81975,0.939942 -2.9099,1.409912 -6.27044,1.409912 -0.95952,0 -2.63921,-0.05982 -5.03907,-0.179443 -0.76053,-0.04028 -1.42063,-0.340271 -1.98028,-0.899963 -0.55973,-0.559692 -0.85972,-1.239928 -0.89996,-2.040711 -0.0403,-0.759274 0.18947,-1.389156 0.68939,-1.889648 0.49984,-0.500484 1.13002,-0.730586 1.89056,-0.690308 1.35982,0.08057 2.69954,0.120855 4.01917,0.12085 1.24018,5e-6 1.97047,-0.140071 2.19085,-0.420227 0.22029,-0.280146 0.33046,-1.20025 0.33051,-2.760315 l 0,-16.259766 c -5e-5,-0.360083 -0.15996,-0.540136 -0.47974,-0.540161 l -13.43994,0 c -0.32108,2.5e-5 -0.4816,0.180078 -0.48157,0.540161 l 0,27.240601 c -3e-5,0.919185 -0.31985,1.698909 -0.95947,2.339172 -0.63968,0.640253 -1.41971,0.960382 -2.34009,0.960388 -0.92044,-6e-6 -1.70046,-0.320135 -2.34008,-0.960388 -0.63968,-0.640263 -0.9595,-1.419987 -0.95948,-2.339172 l 0,-27.240601 c -2e-5,-0.360083 -0.15994,-0.540136 -0.47973,-0.540161 l -12.84119,0 c -0.31984,2.5e-5 -0.47975,0.180078 -0.47974,0.540161 l 0,21.838989 c -1e-5,0.880129 -0.3,1.63025 -0.89996,2.250366 -0.59999,0.620118 -1.34004,0.930176 -2.22015,0.930176 -0.88014,0 -1.62996,-0.310058 -2.24945,-0.930176 -0.61952,-0.620116 -0.92927,-1.370237 -0.92926,-2.250366 l 0,-24.47937 c -1e-5,-0.920382 0.33995,-1.720552 1.01989,-2.400513 0.67993,-0.679901 1.47949,-1.019866 2.39868,-1.019897 l 16.20118,0 c 0.31979,3.1e-5 0.47971,-0.159881 0.47973,-0.479736 z"
       id="path3783"
       style="font-size:60px;fill:#ffffff" />
    <path
       d="m 242.93109,37.104271 c -0.27956,1.479525 -0.47915,2.499421 -0.59875,3.059692 -0.0806,0.360139 0.0592,0.540192 0.41931,0.540161 l 25.38025,0 c 0.75923,3.1e-5 1.39887,0.24997 1.91894,0.749817 0.51997,0.499908 0.77998,1.12979 0.78003,1.889649 -5e-5,0.759915 -0.26006,1.399868 -0.78003,1.919861 -0.52007,0.520045 -1.15971,0.780054 -1.91894,0.780029 l -7.86072,0 c -0.36015,2.5e-5 -0.5402,0.180079 -0.54016,0.540161 -0.0794,7.719744 -1.49906,13.699657 -4.25904,17.939758 -2.76004,4.240115 -7.0801,7.120056 -12.9602,8.639832 -0.76052,0.15991 -1.46059,0.05005 -2.10022,-0.32959 -0.63967,-0.37964 -1.07973,-0.949707 -1.32019,-1.710205 -0.20021,-0.679931 -0.12026,-1.329954 0.23987,-1.950073 0.36009,-0.620115 0.88011,-1.03027 1.56006,-1.230469 4.47995,-1.279292 7.72,-3.569024 9.72015,-6.869202 2.00009,-3.300157 3.02029,-8.150311 3.06061,-14.550476 -4e-5,-0.319799 -0.18009,-0.479711 -0.54016,-0.479736 l -12.06116,0 c -0.31984,2.5e-5 -0.53957,0.159937 -0.65918,0.479736 -1.19997,2.919944 -2.86012,5.80019 -4.98047,8.640747 -0.47975,0.639664 -1.1197,1.019608 -1.91986,1.139832 -0.80018,0.120254 -1.52009,-0.03996 -2.15973,-0.480652 -0.63966,-0.399154 -1.0196,-0.978987 -1.13983,-1.739502 -0.12025,-0.76048 0.04,-1.440411 0.48065,-2.039795 3.15917,-4.479956 5.27892,-9.580049 6.35925,-15.300293 0.1599,-0.799525 0.55999,-1.459314 1.20026,-1.97937 0.64024,-0.519982 1.36015,-0.75985 2.15973,-0.719604 0.79954,0.07938 1.44956,0.419043 1.95007,1.018981 0.50047,0.600012 0.69029,1.280248 0.56946,2.040711 z"
       id="path3785"
       style="font-size:60px;fill:#ffffff" />
    <path
       d="m 302.6308,29.364403 c -3.55959,4.079628 -8.21962,7.779575 -13.9801,11.099853 -0.67994,0.399201 -1.39985,0.488922 -2.15973,0.269165 -0.7599,-0.219695 -1.35957,-0.669524 -1.79901,-1.349487 -0.4004,-0.679899 -0.51057,-1.379971 -0.33051,-2.10022 0.18005,-0.72018 0.61004,-1.279872 1.28998,-1.679077 4.79979,-2.840537 8.95995,-6.140705 12.48047,-9.900513 0.56028,-0.600539 1.23014,-0.930739 2.00958,-0.9906 0.7794,-0.05977 1.4694,0.150193 2.07001,0.629883 0.60056,0.520065 0.9506,1.170089 1.05011,1.950073 0.0995,0.780073 -0.1108,1.470379 -0.6308,2.070923 z m 14.45984,-4.081421 c 0.51998,-0.639602 1.18007,-1.01924 1.98028,-1.138916 0.80013,-0.119582 1.54018,0.06047 2.22016,0.540161 4.79976,3.359418 9.27973,6.959268 13.43994,10.799561 0.60053,0.520054 0.91089,1.189915 0.93109,2.009582 0.0201,0.819735 -0.24999,1.529879 -0.81024,2.130432 -0.52008,0.599397 -1.18017,0.919221 -1.98029,0.959473 -0.80022,0.04031 -1.49999,-0.219696 -2.0993,-0.780029 -4.08086,-3.719448 -8.46135,-7.239341 -13.14148,-10.559693 -0.63969,-0.43941 -1.00956,-1.059222 -1.10962,-1.859436 -0.10013,-0.800126 0.0897,-1.500504 0.56946,-2.101135 z M 290.27118,55.52285 c -0.20021,0.120865 -0.52033,0.311295 -0.96039,0.571289 -0.44007,0.260025 -0.75959,0.449844 -0.95856,0.569458 -0.67993,0.400405 -1.40991,0.480666 -2.18994,0.240784 -0.78003,-0.239854 -1.37024,-0.700058 -1.77063,-1.380615 -0.40039,-0.680526 -0.48065,-1.40074 -0.24078,-2.160645 0.23986,-0.759869 0.70037,-1.339397 1.38153,-1.738586 6.83959,-3.920875 13.01939,-8.400851 18.53943,-13.439942 1.71994,-1.520961 3.65964,-2.281458 5.81909,-2.281494 l 1.20117,0 c 2.15939,3.6e-5 4.09909,0.760533 5.81909,2.281494 5.51998,5.039091 11.69978,9.519067 18.53943,13.439942 0.6811,0.399189 1.14161,0.978717 1.38153,1.738586 0.23981,0.759905 0.15955,1.480119 -0.24078,2.160645 -0.40045,0.680557 -0.99066,1.140761 -1.77063,1.380615 -0.78008,0.239882 -1.51006,0.159621 -2.18994,-0.240784 -0.19903,-0.119614 -0.51855,-0.309433 -0.95856,-0.569458 -0.44011,-0.259994 -0.76024,-0.450424 -0.96039,-0.571289 -0.0806,-0.07933 -0.17095,-0.0891 -0.27099,-0.0293 -0.10015,0.05983 -0.1502,0.150162 -0.15015,0.270996 l 0,17.698975 c -5e-5,0.880124 -0.31987,1.640316 -0.95947,2.280578 -0.6397,0.640254 -1.39959,0.960383 -2.27967,0.960389 l -0.60058,0 c -0.72026,-6e-6 -1.34038,-0.260015 -1.86035,-0.78003 -0.52007,-0.520023 -0.78008,-1.14014 -0.78003,-1.860351 -5e-5,-0.240481 -0.11967,-0.36072 -0.35889,-0.360718 l -25.92041,0 c -0.23927,-2e-6 -0.3589,0.120237 -0.35889,0.360718 -10e-6,0.720211 -0.26002,1.340328 -0.78002,1.860351 -0.52004,0.520015 -1.14016,0.780024 -1.86036,0.78003 l -0.60058,0 c -0.88014,-6e-6 -1.64003,-0.320135 -2.27967,-0.960389 -0.63965,-0.640262 -0.95948,-1.400454 -0.95947,-2.280578 l 0,-17.698975 c -10e-6,-0.120834 -0.0501,-0.211166 -0.15014,-0.270996 -0.10011,-0.0598 -0.19044,-0.05003 -0.271,0.0293 z m 33.53943,12.540894 0,-10.680542 c -5e-5,-0.31981 -0.15996,-0.479722 -0.47974,-0.479737 l -25.67871,0 c -0.31984,1.5e-5 -0.47975,0.159927 -0.47974,0.479737 l 0,10.680542 c -10e-6,0.319827 0.1599,0.479739 0.47974,0.479736 l 25.67871,0 c 0.31978,3e-6 0.47969,-0.159909 0.47974,-0.479736 z M 310.1308,40.163963 c -4.15896,4.119901 -8.59866,7.83999 -13.31909,11.160279 -0.0806,0.03908 -0.1108,0.0989 -0.0906,0.179443 0.0201,0.08059 0.0705,0.120869 0.15106,0.12085 l 27.23877,0 c 0.0805,1.9e-5 0.13088,-0.04026 0.15106,-0.12085 0.0201,-0.08055 -0.0101,-0.140361 -0.0906,-0.179443 -4.7205,-3.320289 -9.1602,-7.040378 -13.3191,-11.160279 -0.2405,-0.240447 -0.48098,-0.240447 -0.72143,0 z"
       id="path3787"
       style="font-size:60px;fill:#ffffff" />
  </g>
  <g
     transform="translate(-1.545134e-7,-0.5084736)"
     id="text2858"
     style="font-size:40px;font-style:normal;font-weight:normal;text-align:center;text-anchor:middle;fill:#ffffff;fill-opacity:1;stroke:none;font-family:'Rounded M+ 1m medium';-inkscape-font-specification:'Rounded M+ 1m medium'">
    <path
       d="m 377.38123,197.98138 c 0.51996,0.52005 0.77997,1.18015 0.78002,1.98029 -5e-5,0.8002 -0.26006,1.46029 -0.78002,1.98029 -0.52008,0.52004 -1.17987,0.78005 -1.97937,0.78002 l -2.76124,0 c -0.0794,3e-5 -0.13921,0.04 -0.17944,0.11994 -0.0403,0.08 -0.0403,0.15963 0,0.23895 l 1.14075,1.20117 c 0.63959,0.67996 0.93928,1.48989 0.89905,2.42981 -0.0403,0.93996 -0.41998,1.70962 -1.13892,2.30896 -2.721,2.20095 -5.60124,4.20107 -8.64075,6.00037 -0.7996,0.44068 -1.62937,0.57099 -2.48932,0.39093 -0.86002,-0.18004 -1.57017,-0.63018 -2.13043,-1.3504 -0.52006,-0.67992 -0.69004,-1.4099 -0.50995,-2.18994 0.18002,-0.78002 0.63015,-1.39037 1.35041,-1.83106 3.51924,-2.07884 6.8188,-4.41831 9.89868,-7.01843 0.20014,-0.20017 0.14033,-0.30027 -0.17945,-0.3003 l -27.11975,0 c -0.0403,3e-5 -0.0604,0.04 -0.0604,0.11994 -2e-5,0.08 0.0201,0.1401 0.0604,0.18036 3.23972,1.99953 6.27988,4.17909 9.12049,6.53869 0.6799,0.56032 1.04977,1.25063 1.10962,2.07093 0.0598,0.82032 -0.19047,1.57045 -0.75074,2.25036 -0.56033,0.63966 -1.25033,0.98939 -2.07,1.0492 -0.81974,0.0598 -1.56955,-0.17028 -2.24945,-0.69031 -2.08011,-1.76024 -4.55996,-3.59984 -7.43958,-5.5188 -0.76052,-0.48094 -1.20089,-1.16117 -1.32111,-2.04071 -0.12025,-0.8795 0.0998,-1.65922 0.6601,-2.33917 l 1.0199,-1.20117 c 0.20017,-0.27952 0.14036,-0.41929 -0.17945,-0.41932 l -1.92077,0 c -0.79958,3e-5 -1.45937,-0.25998 -1.97937,-0.78002 -0.52004,-0.52 -0.78005,-1.18009 -0.78003,-1.98029 -2e-5,-0.80014 0.25999,-1.46024 0.78003,-1.98029 0.52,-0.51999 1.17979,-0.78 1.97937,-0.78003 l 2.40051,0 c 0.36009,3e-5 0.54014,-0.18002 0.54016,-0.54016 l 0,-13.20007 c -2e-5,-0.8398 0.29997,-1.55971 0.89997,-2.15973 0.59995,-0.59993 1.31986,-0.89992 2.15972,-0.89996 0.83982,4e-5 1.5698,0.30003 2.18995,0.89996 0.62008,0.60002 0.93014,1.31993 0.93017,2.15973 l 0,13.20007 c -3e-5,0.36014 0.15988,0.54019 0.47974,0.54016 l 6.17981,0 c 0.36007,3e-5 0.54012,-0.18002 0.54016,-0.54016 l 0,-16.37878 c -4e-5,-0.92036 0.31002,-1.69063 0.93017,-2.31079 0.62008,-0.62007 1.37021,-0.93013 2.25037,-0.93018 0.92037,5e-5 1.69033,0.32018 2.30988,0.96039 0.61946,0.64031 0.92921,1.4005 0.92926,2.28058 l 0,2.87842 c -5e-5,0.32109 0.18001,0.48161 0.54016,0.48157 l 10.56152,0 c 0.75922,4e-5 1.39887,0.26981 1.91895,0.80932 0.51996,0.53959 0.77997,1.18931 0.78003,1.94916 -6e-5,0.75993 -0.26007,1.39011 -0.78003,1.89056 -0.52008,0.50053 -1.15973,0.75077 -1.91895,0.75074 l -10.56152,0 c -0.36015,3e-5 -0.54021,0.18009 -0.54016,0.54016 l 0,7.07885 c -5e-5,0.36014 0.18001,0.54019 0.54016,0.54016 l 12.60132,0 c 0.7995,3e-5 1.45929,0.26004 1.97937,0.78003 z m -23.93921,22.67945 c 0.43942,0.7605 0.56912,1.56067 0.3891,2.40051 -0.18009,0.83985 -0.63023,1.51978 -1.35041,2.0398 -3.64016,2.48046 -7.54031,4.60082 -11.70044,6.36108 -0.79958,0.31982 -1.58937,0.32958 -2.36938,0.0293 -0.78005,-0.3003 -1.36965,-0.85023 -1.7688,-1.64978 -0.36012,-0.72022 -0.41017,-1.46027 -0.15015,-2.22016 0.26,-0.75989 0.76964,-1.29974 1.52893,-1.61957 4.36033,-1.92016 8.16038,-3.98009 11.40015,-6.17981 0.63962,-0.44066 1.3696,-0.58104 2.18994,-0.42114 0.82028,0.15992 1.43063,0.57984 1.83106,1.25977 z m 6.05896,-0.78003 c 0.47969,-0.75927 1.14955,-1.25884 2.00958,-1.49872 0.85994,-0.23986 1.69032,-0.16021 2.49115,0.23895 3.8,1.87989 7.55976,4.10035 11.2793,6.66138 0.76044,0.52002 1.21057,1.21979 1.3504,2.0993 0.13971,0.87952 -0.0303,1.69953 -0.50995,2.46003 -0.44073,0.72021 -1.09106,1.17034 -1.95099,1.3504 -0.86004,0.18005 -1.63,0.0101 -2.30987,-0.50995 -3.28008,-2.32056 -7.03984,-4.58069 -11.2793,-6.7804 -0.76054,-0.40038 -1.24058,-1.00036 -1.44013,-1.79992 -0.19962,-0.79956 -0.0797,-1.53991 0.35981,-2.22107 z m -23.28003,-30.89905 c -0.52004,0.5994 -1.17006,0.9293 -1.95008,0.98969 -0.78004,0.0605 -1.46974,-0.16934 -2.06909,-0.6894 -1.40016,-1.24019 -3.22022,-2.74043 -5.4602,-4.50073 -0.60059,-0.47969 -0.95094,-1.10958 -1.05103,-1.88965 -0.1001,-0.77998 0.10986,-1.47029 0.62988,-2.07092 0.52002,-0.6396 1.18011,-0.9994 1.98029,-1.07941 0.80016,-0.0799 1.52007,0.11998 2.15973,0.59967 2.28026,1.80059 4.0808,3.28069 5.40161,4.44031 0.63963,0.52006 0.98936,1.19023 1.04919,2.0105 0.0598,0.82035 -0.1703,1.55033 -0.6903,2.18994 z m -1.67908,14.09912 c -0.52003,0.60061 -1.17006,0.93081 -1.95007,0.9906 -0.78004,0.0598 -1.47035,-0.17026 -2.07093,-0.69031 -2.51954,-2.23996 -4.69971,-4.06003 -6.54052,-5.4602 -0.59937,-0.47971 -0.92896,-1.09952 -0.98877,-1.85944 -0.0598,-0.75985 0.15014,-1.44009 0.62988,-2.04071 0.52002,-0.59933 1.17004,-0.94906 1.95007,-1.04919 0.78003,-0.10007 1.48986,0.0898 2.12952,0.56946 2.08007,1.5198 4.26024,3.3002 6.54053,5.34118 0.63963,0.52005 0.98936,1.18991 1.04919,2.00959 0.0598,0.81972 -0.18983,1.5494 -0.7489,2.18902 z m 2.69897,11.87988 c -1.95924,5.08058 -4.31886,9.78089 -7.07885,14.10096 -0.44069,0.67993 -1.08094,1.09985 -1.92078,1.25976 -0.83985,0.15991 -1.59974,0 -2.27966,-0.47973 -0.67994,-0.44068 -1.09009,-1.07087 -1.23047,-1.89057 -0.14039,-0.8197 0.01,-1.56952 0.45044,-2.24945 2.55981,-4.00024 4.81993,-8.4204 6.78039,-13.2605 0.31982,-0.7202 0.83953,-1.23014 1.55915,-1.52984 0.71959,-0.29967 1.41935,-0.26946 2.0993,0.0906 0.76048,0.36013 1.29088,0.92012 1.59119,1.68 0.30027,0.7599 0.31004,1.51948 0.0293,2.27874 z"
       id="path3761"
       style="font-size:60px;fill:#ffffff" />
    <path
       d="m 432.10046,184.66229 c -3.55959,4.07963 -8.21961,7.77958 -13.9801,11.09986 -0.67994,0.3992 -1.39985,0.48892 -2.15973,0.26916 -0.75989,-0.21969 -1.35956,-0.66952 -1.79901,-1.34949 -0.40039,-0.6799 -0.51056,-1.37997 -0.3305,-2.10022 0.18005,-0.72018 0.61004,-1.27987 1.28997,-1.67907 4.7998,-2.84054 8.95995,-6.14071 12.48047,-9.90052 0.56029,-0.60054 1.23015,-0.93074 2.00959,-0.9906 0.77939,-0.0598 1.4694,0.1502 2.07,0.62989 0.60057,0.52006 0.9506,1.17009 1.05011,1.95007 0.0995,0.78007 -0.1108,1.47038 -0.6308,2.07092 z m 14.45984,-4.08142 c 0.51999,-0.6396 1.18008,-1.01924 1.98029,-1.13891 0.80013,-0.11959 1.54018,0.0605 2.22015,0.54016 4.79976,3.35942 9.27974,6.95926 13.43994,10.79956 0.60053,0.52005 0.9109,1.18991 0.93109,2.00958 0.0201,0.81974 -0.24999,1.52988 -0.81024,2.13043 -0.52007,0.5994 -1.18016,0.91922 -1.98028,0.95947 -0.80022,0.0403 -1.49999,-0.21969 -2.09931,-0.78002 -4.08085,-3.71945 -8.46134,-7.23935 -13.14148,-10.5597 -0.63968,-0.43941 -1.00955,-1.05922 -1.10962,-1.85943 -0.10013,-0.80013 0.0897,-1.50051 0.56946,-2.10114 z m -26.81946,30.23987 c -0.2002,0.12087 -0.52033,0.31129 -0.96038,0.57129 -0.44008,0.26002 -0.75959,0.44984 -0.95856,0.56946 -0.67994,0.4004 -1.40992,0.48066 -2.18994,0.24078 -0.78004,-0.23985 -1.37025,-0.70006 -1.77063,-1.38061 -0.4004,-0.68053 -0.48066,-1.40074 -0.24079,-2.16065 0.23987,-0.75987 0.70038,-1.3394 1.38154,-1.73859 6.83958,-3.92087 13.01939,-8.40085 18.53942,-13.43994 1.71995,-1.52096 3.65964,-2.28146 5.8191,-2.28149 l 1.20117,0 c 2.15939,3e-5 4.09908,0.76053 5.81909,2.28149 5.51998,5.03909 11.69978,9.51907 18.53943,13.43994 0.68109,0.39919 1.1416,0.97872 1.38153,1.73859 0.23981,0.75991 0.15955,1.48012 -0.24078,2.16065 -0.40045,0.68055 -0.99066,1.14076 -1.77063,1.38061 -0.78009,0.23988 -1.51007,0.15962 -2.18995,-0.24078 -0.19902,-0.11962 -0.51854,-0.30944 -0.95855,-0.56946 -0.44012,-0.26 -0.76025,-0.45042 -0.96039,-0.57129 -0.0806,-0.0793 -0.17095,-0.0891 -0.271,-0.0293 -0.10015,0.0598 -0.15019,0.15017 -0.15014,0.271 l 0,17.69897 c -5e-5,0.88013 -0.31988,1.64032 -0.95948,2.28058 -0.63969,0.64026 -1.39958,0.96039 -2.27966,0.96039 l -0.60059,0 c -0.72026,0 -1.34037,-0.26001 -1.86035,-0.78003 -0.52006,-0.52002 -0.78007,-1.14014 -0.78003,-1.86035 -4e-5,-0.24048 -0.11967,-0.36072 -0.35888,-0.36072 l -25.92041,0 c -0.23928,0 -0.35891,0.12024 -0.35889,0.36072 -2e-5,0.72021 -0.26003,1.34033 -0.78003,1.86035 -0.52003,0.52002 -1.14015,0.78003 -1.86035,0.78003 l -0.60059,0 c -0.88014,0 -1.64002,-0.32013 -2.27966,-0.96039 -0.63966,-0.64026 -0.95948,-1.40045 -0.95947,-2.28058 l 0,-17.69897 c -10e-6,-0.12083 -0.0501,-0.21117 -0.15015,-0.271 -0.10011,-0.0598 -0.19044,-0.05 -0.271,0.0293 z m 33.53943,12.54089 0,-10.68054 c -4e-5,-0.31981 -0.15995,-0.47972 -0.47973,-0.47974 l -25.67871,0 c -0.31984,2e-5 -0.47976,0.15993 -0.47974,0.47974 l 0,10.68054 c -2e-5,0.31983 0.1599,0.47974 0.47974,0.47974 l 25.67871,0 c 0.31978,0 0.47969,-0.15991 0.47973,-0.47974 z m -13.67981,-27.89978 c -4.15896,4.1199 -8.59865,7.83999 -13.31909,11.16028 -0.0806,0.0391 -0.11079,0.0989 -0.0906,0.17944 0.0201,0.0806 0.0705,0.12087 0.15107,0.12085 l 27.23877,0 c 0.0805,2e-5 0.13087,-0.0403 0.15106,-0.12085 0.0201,-0.0805 -0.0101,-0.14036 -0.0906,-0.17944 -4.7205,-3.32029 -9.16019,-7.04038 -13.31909,-11.16028 -0.24051,-0.24044 -0.48099,-0.24044 -0.72144,0 z"
       id="path3763"
       style="font-size:60px;fill:#ffffff" />
  </g>
  <g
     transform="translate(-1.545134e-7,-0.5084736)"
     id="text2866"
     style="font-size:40px;font-style:normal;font-weight:normal;text-align:center;text-anchor:middle;fill:#ffffff;fill-opacity:1;stroke:#ffffff;stroke-width:1;stroke-miterlimit:4;stroke-opacity:1;font-family:'Rounded M+ 1m medium';-inkscape-font-specification:'Rounded M+ 1m medium'">
    <path
       d="m 197.25142,105.84602 -2.66602,0 0,-21.430661 2.66602,0 z"
       id="path3766"
       style="font-size:30px;fill:#ffffff;stroke:#ffffff;font-family:IPAPGothic;-inkscape-font-specification:IPAPGothic" />
    <path
       d="m 215.60591,102.46223 c -1.35743,2.54883 -3.4961,3.82325 -6.41601,3.82325 -2.09962,0 -3.8379,-0.68848 -5.21485,-2.06543 -1.48438,-1.50391 -2.22656,-3.46191 -2.22656,-5.874026 0,-2.392568 0.74218,-4.345691 2.22656,-5.859375 1.35742,-1.357407 3.0664,-2.036118 5.12696,-2.036133 2.91014,1.5e-5 4.98045,1.25978 6.21093,3.779297 l -2.08008,1.083984 c -0.86915,-1.84569 -2.2168,-2.768541 -4.04296,-2.768555 -1.20118,1.4e-5 -2.24122,0.439467 -3.12012,1.31836 -1.10352,1.103526 -1.65528,2.617197 -1.65527,4.541015 -1e-5,1.816413 0.53222,3.256843 1.59667,4.321293 0.9375,0.9375 2.08496,1.40625 3.44239,1.40625 1.84569,0 3.23729,-0.91797 4.1748,-2.75391 z"
       id="path3768"
       style="font-size:30px;fill:#ffffff;stroke:#ffffff;font-family:IPAPGothic;-inkscape-font-specification:IPAPGothic" />
    <path
       d="m 232.31978,105.84602 -2.57813,0 0,-9.272457 c -1e-5,-2.539051 -1.04005,-3.808581 -3.12011,-3.808594 -2.13868,1.3e-5 -3.70118,1.269543 -4.6875,3.808594 l 0,9.272457 -2.57813,0 0,-22.177731 2.57813,0 0,9.785156 c 1.35741,-1.894516 3.10057,-2.841781 5.22949,-2.841796 3.43748,1.5e-5 5.15623,1.93849 5.15625,5.815429 z"
       id="path3770"
       style="font-size:30px;fill:#ffffff;stroke:#ffffff;font-family:IPAPGothic;-inkscape-font-specification:IPAPGothic" />
    <path
       d="m 240.37642,87.725906 -2.94434,0 0,-3.002929 2.94434,0 z m -0.19043,18.120114 -2.57813,0 0,-14.941403 2.57813,0 z"
       id="path3772"
       style="font-size:30px;fill:#ffffff;stroke:#ffffff;font-family:IPAPGothic;-inkscape-font-specification:IPAPGothic" />
    <path
       d="m 249.19478,100.74837 c -1.0254,0.0879 -1.53809,0.47852 -1.53809,1.17187 0,0.89844 1.18164,1.40626 3.54492,1.52344 l 1.74317,0.0879 c 3.65233,0.18555 5.4785,1.51367 5.47851,3.98438 -1e-5,1.25976 -0.59083,2.2998 -1.77246,3.12011 -1.27931,0.91797 -3.04688,1.37695 -5.30273,1.37696 -2.05079,-1e-5 -3.70118,-0.35157 -4.95117,-1.05469 -1.20118,-0.6836 -1.80176,-1.6211 -1.80176,-2.8125 0,-1.60156 1.13281,-2.65625 3.39844,-3.16406 l 0,-0.10254 c -1.78712,-0.44922 -2.68067,-1.24512 -2.68067,-2.3877 0,-1.05468 0.76172,-1.86523 2.28516,-2.43164 -1.67969,-0.869133 -2.51953,-2.250967 -2.51953,-4.145507 0,-1.464832 0.48828,-2.685534 1.46484,-3.662109 1.12304,-1.123032 2.63671,-1.684555 4.54102,-1.684571 1.22069,1.6e-5 2.29003,0.263687 3.208,0.791016 0.71288,-0.927719 2.02148,-1.411117 3.92579,-1.450195 l 0,2.109375 c -1.31838,0.02931 -2.18752,0.146498 -2.60743,0.351562 1.03515,1.015638 1.55272,2.216808 1.55274,3.603516 -2e-5,1.376962 -0.46877,2.53907 -1.40625,3.486328 -1.04494,1.035165 -2.48536,1.552735 -4.32129,1.552735 -0.78126,0 -1.52833,-0.0879 -2.24121,-0.26367 z m 1.875,-8.291018 c -1.01563,1.3e-5 -1.85548,0.332044 -2.51953,0.996093 -0.6543,0.654309 -0.98145,1.474621 -0.98145,2.460938 0,0.966806 0.30761,1.743172 0.92285,2.329101 0.66406,0.66407 1.55761,0.996101 2.68067,0.996094 1.05468,7e-6 1.8994,-0.322258 2.53418,-0.966797 0.64452,-0.634757 0.96678,-1.455068 0.96679,-2.460937 -1e-5,-0.917958 -0.32227,-1.694324 -0.96679,-2.329102 -0.67384,-0.68358 -1.55275,-1.025377 -2.63672,-1.02539 z m 0.0879,12.934568 c -2.65626,0 -3.98438,0.82031 -3.98438,2.46094 0,1.59179 1.40137,2.38769 4.20411,2.38769 1.80663,0 3.11522,-0.41992 3.92578,-1.25976 0.41991,-0.39063 0.62987,-0.84961 0.62988,-1.37695 -10e-6,-1.47461 -1.59181,-2.21192 -4.77539,-2.21192 z"
       id="path3774"
       style="font-size:30px;fill:#ffffff;stroke:#ffffff;font-family:IPAPGothic;-inkscape-font-specification:IPAPGothic" />
    <path
       d="m 274.37544,105.84602 -2.28515,0 c -0.34181,-0.75195 -0.56154,-1.52343 -0.65918,-2.31445 l -0.0879,0 c -1.13283,1.81641 -2.82228,2.72461 -5.06836,2.72461 -1.54298,0 -2.80274,-0.48828 -3.7793,-1.46484 -0.85938,-0.85938 -1.28906,-1.90918 -1.28906,-3.14942 0,-3.085928 2.66113,-4.70702 7.9834,-4.863279 l 2.00683,-0.05859 0,-0.776367 c -1e-5,-1.044911 -0.30274,-1.865223 -0.9082,-2.460938 -0.61525,-0.624986 -1.41114,-0.937486 -2.3877,-0.9375 -1.67969,1.4e-5 -2.93946,0.815443 -3.77929,2.446289 l -2.22657,-1.02539 c 1.37695,-2.285142 3.39844,-3.427719 6.06446,-3.427735 1.82616,1.6e-5 3.23729,0.512711 4.2334,1.538086 0.91795,0.917982 1.37693,2.216809 1.37695,3.896485 l 0,5.493159 c -2e-5,1.86524 0.26854,3.3252 0.80566,4.37988 z m -3.12011,-7.324215 -1.65528,0.0293 c -3.85743,0.0879 -5.78614,1.127936 -5.78613,3.120115 -10e-6,0.70313 0.22949,1.28418 0.68848,1.74316 0.5664,0.55665 1.30858,0.83497 2.22656,0.83496 1.27929,1e-5 2.38768,-0.46874 3.32519,-1.40625 0.80077,-0.83007 1.20116,-1.83105 1.20118,-3.002923 z"
       id="path3776"
       style="font-size:30px;fill:#ffffff;stroke:#ffffff;font-family:IPAPGothic;-inkscape-font-specification:IPAPGothic" />
    <path
       d="m 290.73775,90.904617 -7.25098,17.519533 c -0.92774,2.23632 -2.5293,3.35449 -4.80469,3.35449 l -0.33691,0 -0.62988,-2.34375 0.48339,0 c 1.63086,0 2.72949,-0.72754 3.2959,-2.18262 l 0.9668,-2.40234 -6.18164,-13.945313 2.91504,0 3.2959,8.393555 c 0.51757,1.357428 0.89843,2.416998 1.14258,3.178708 l 0.0879,0 c 0.39061,-1.21093 0.76171,-2.2705 1.11328,-3.178708 l 3.12011,-8.393555 z"
       id="path3778"
       style="font-size:30px;fill:#ffffff;stroke:#ffffff;font-family:IPAPGothic;-inkscape-font-specification:IPAPGothic" />
    <path
       d="m 305.66451,105.84602 -2.28516,0 c -0.34181,-0.75195 -0.56154,-1.52343 -0.65918,-2.31445 l -0.0879,0 c -1.13282,1.81641 -2.82228,2.72461 -5.06836,2.72461 -1.54297,0 -2.80274,-0.48828 -3.7793,-1.46484 -0.85937,-0.85938 -1.28906,-1.90918 -1.28906,-3.14942 0,-3.085928 2.66113,-4.70702 7.9834,-4.863279 l 2.00683,-0.05859 0,-0.776367 c -10e-6,-1.044911 -0.30274,-1.865223 -0.9082,-2.460938 -0.61524,-0.624986 -1.41114,-0.937486 -2.38769,-0.9375 -1.6797,1.4e-5 -2.93946,0.815443 -3.7793,2.446289 l -2.22656,-1.02539 c 1.37695,-2.285142 3.39843,-3.427719 6.06445,-3.427735 1.82616,1.6e-5 3.23729,0.512711 4.2334,1.538086 0.91795,0.917982 1.37694,2.216809 1.37695,3.896485 l 0,5.493159 c -1e-5,1.86524 0.26854,3.3252 0.80567,4.37988 z m -3.12012,-7.324215 -1.65528,0.0293 c -3.85742,0.0879 -5.78613,1.127936 -5.78613,3.120115 0,0.70313 0.22949,1.28418 0.68848,1.74316 0.5664,0.55665 1.30859,0.83497 2.22656,0.83496 1.27929,1e-5 2.38769,-0.46874 3.3252,-1.40625 0.80077,-0.83007 1.20116,-1.83105 1.20117,-3.002923 z"
       id="path3780"
       style="font-size:30px;fill:#ffffff;stroke:#ffffff;font-family:IPAPGothic;-inkscape-font-specification:IPAPGothic" />
  </g>
  <path
     d="m 170.3125,282.28125 c -0.48367,0.0456 -0.93852,0.33283 -1.1875,0.75 l -15.0625,26.0625 c -0.27465,0.47164 -0.27465,1.09086 0,1.5625 l 15.0625,26.0625 c 0.27739,0.45945 0.80708,0.75509 1.34375,0.75 l 155.875,0 c 0.53667,0.005 1.06636,-0.29055 1.34375,-0.75 l 15.03125,-26.0625 c 0.27465,-0.47164 0.27465,-1.09086 0,-1.5625 l -15.03125,-26.0625 c -0.27739,-0.45945 -0.80708,-0.75509 -1.34375,-0.75 l -155.875,0 c -0.052,-0.003 -0.10421,-0.003 -0.15625,0 z"
     id="path4156-9"
     style="font-size:medium;font-style:normal;font-variant:normal;font-weight:normal;font-stretch:normal;text-indent:0;text-align:start;text-decoration:none;line-height:normal;letter-spacing:normal;word-spacing:normal;text-transform:none;direction:ltr;block-progression:tb;writing-mode:lr-tb;text-anchor:start;color:#000000;fill:#0066b3;fill-opacity:1;fill-rule:nonzero;stroke:none;stroke-width:3.10462618;marker:none;visibility:visible;display:inline;overflow:visible;enable-background:accumulate;font-family:Bitstream Vera Sans;-inkscape-font-specification:Bitstream Vera Sans" />
  <path
     d="m 180.03125,285.28125 c -1.17064,0 -1.73039,0.81008 -2.125,2.15625 L 171.25,307.84375 c -0.27994,0.90888 -0.55597,1.81856 0.0312,3.78125 l 6.625,20.6875 c 0.19732,1.18434 0.9544,2.15625 2.125,2.15625 l 136.75,0 c 1.17063,0 1.89644,-0.97191 2.09375,-2.15625 l 6.65625,-20.6875 c 0.58722,-1.96269 0.3113,-2.87237 0.0312,-3.78125 L 318.875,287.4375 c -0.39461,-1.34617 -0.92312,-2.15625 -2.09375,-2.15625 l -136.75,0 z"
     id="rect3644-5-3-5"
     style="color:#000000;fill:#ffffff;fill-opacity:1;fill-rule:nonzero;stroke:none;stroke-width:0;marker:none;visibility:visible;display:inline;overflow:visible;enable-background:accumulate" />
  <g
     transform="translate(-1.545134e-7,-0.5084736)"
     id="text3717"
     style="font-size:40px;font-style:normal;font-weight:normal;text-align:center;text-anchor:middle;fill:#0066b3;fill-opacity:1;stroke:none;font-family:'Rounded M+ 1m medium';-inkscape-font-specification:'Rounded M+ 1m medium'">
    <path
       d="m 200.58382,307.79498 0,-9.4082 c -2e-5,-0.49021 0.1813,-0.91143 0.54394,-1.26367 0.36261,-0.35219 0.78937,-0.5283 1.28028,-0.52832 l 9.56738,0 c 0.49086,2e-5 0.91761,0.17613 1.28027,0.52832 0.3626,0.35224 0.54392,0.77346 0.54395,1.26367 l 0,21.15234 c -3e-5,2.15495 -0.15465,3.46696 -0.46387,3.93604 -0.30927,0.46907 -1.22138,0.70361 -2.73633,0.70361 -0.72528,0 -1.78127,-0.0319 -3.16797,-0.0957 -0.42645,-0.0215 -0.78908,-0.18148 -1.08789,-0.47998 -0.29885,-0.29851 -0.45884,-0.65039 -0.47998,-1.05567 -0.0212,-0.40527 0.11228,-0.74658 0.40039,-1.02392 0.28807,-0.27734 0.63458,-0.4056 1.03955,-0.38477 0.29881,0.0215 0.65086,0.043 1.05616,0.0645 0.40524,0.0215 0.66127,0.0322 0.76806,0.0322 0.61847,0 0.98647,-0.0801 1.10401,-0.24023 0.11748,-0.16016 0.17624,-0.64551 0.17627,-1.45606 l 0,-4.51172 c -3e-5,-0.19205 -0.0856,-0.28807 -0.25684,-0.28808 l -6.52734,0 c -0.1706,10e-6 -0.27737,0.0853 -0.32032,0.25586 -0.63999,3.22136 -2.04787,5.98405 -4.22363,8.28808 -0.32033,0.34115 -0.72039,0.51172 -1.2002,0.51172 -0.47983,0 -0.89063,-0.14941 -1.23242,-0.44824 -0.34115,-0.27734 -0.51173,-0.64535 -0.51172,-1.104 -1e-5,-0.45866 0.14941,-0.84782 0.44825,-1.16748 1.49347,-1.60026 2.53351,-3.3763 3.12011,-5.32813 0.58658,-1.95181 0.87987,-4.60253 0.87989,-7.95215 z m 3.20019,-8.06347 0,4.0957 c -2e-5,0.17059 0.096,0.25588 0.28809,0.25586 l 6.0791,0 c 0.1712,2e-5 0.25681,-0.0853 0.25684,-0.25586 l 0,-4.0957 c -3e-5,-0.17055 -0.0856,-0.25584 -0.25684,-0.25586 l -6.0791,0 c -0.19208,2e-5 -0.28811,0.0853 -0.28809,0.25586 z m 0,7.42382 0,2.24024 c -2e-5,0.53321 -0.0215,1.29037 -0.0644,2.27148 -2e-5,0.19207 0.0853,0.2881 0.25586,0.28809 l 6.17578,0 c 0.1712,1e-5 0.25681,-0.096 0.25684,-0.28809 l 0,-4.51172 c -3e-5,-0.17055 -0.0856,-0.25584 -0.25684,-0.25585 l -6.0791,0 c -0.19208,1e-5 -0.28811,0.0853 -0.28809,0.25585 z m -13.44043,10.14356 c 0,0.4694 -0.15463,0.86947 -0.46387,1.20019 -0.30924,0.33074 -0.69857,0.4961 -1.16796,0.4961 -0.44792,0 -0.83725,-0.16536 -1.16797,-0.4961 -0.33073,-0.33072 -0.4961,-0.72004 -0.4961,-1.16796 l 0,-18.46387 c 0,-0.49086 0.18132,-0.91762 0.54395,-1.28027 0.36263,-0.36261 0.78938,-0.54393 1.28027,-0.54395 l 7.42383,0 c 0.49087,2e-5 0.91763,0.18134 1.28027,0.54395 0.36262,0.36265 0.54394,0.78941 0.54395,1.28027 l 0,16.38379 c -10e-6,0.49089 -0.18133,0.91765 -0.54395,1.28027 -0.36264,0.36264 -0.7894,0.54395 -1.28027,0.54395 l -5.69629,0 c -0.17058,0 -0.25586,0.0745 -0.25586,0.22363 z m 0,-16.99121 0,4.86328 c 0,0.19207 0.096,0.2881 0.28809,0.28809 l 4.0957,0 c 0.17056,1e-5 0.25585,-0.096 0.25586,-0.28809 l 0,-4.86328 c -1e-5,-0.19204 -0.0853,-0.28807 -0.25586,-0.28809 l -4.0957,0 c -0.19207,2e-5 -0.28809,0.096 -0.28809,0.28809 z m 0,8.31933 0,5.28028 c 0,0.19206 0.096,0.28809 0.28809,0.28808 l 4.0957,0 c 0.17056,10e-6 0.25585,-0.096 0.25586,-0.28808 l 0,-5.28028 c -1e-5,-0.19204 -0.0853,-0.28807 -0.25586,-0.28808 l -4.0957,0 c -0.19207,10e-6 -0.28809,0.096 -0.28809,0.28808 z"
       id="path3790"
       style="font-size:32px;fill:#0066b3" />
    <path
       d="m 225.25569,301.49127 c -0.27735,0.31968 -0.62403,0.49563 -1.04004,0.52783 -0.41602,0.0323 -0.78386,-0.0903 -1.10351,-0.36767 -0.74675,-0.66144 -1.71746,-1.46157 -2.91211,-2.40039 -0.32032,-0.25584 -0.50717,-0.59178 -0.56055,-1.00781 -0.0534,-0.416 0.0586,-0.78416 0.33594,-1.1045 0.27734,-0.34112 0.62939,-0.53301 1.05615,-0.57568 0.42675,-0.0426 0.8107,0.064 1.15186,0.31982 1.21613,0.96031 2.17609,1.7497 2.87988,2.36817 0.34179,0.27736 0.52864,0.63478 0.56055,1.07226 0.0319,0.43752 -0.0908,0.82685 -0.36817,1.16797 z m -0.89648,7.51953 c -0.27735,0.32033 -0.62387,0.49643 -1.03955,0.52832 -0.4157,0.0319 -0.7837,-0.0908 -1.10401,-0.36816 -1.34375,-1.19465 -2.50651,-2.16535 -3.48828,-2.91211 -0.31966,-0.25584 -0.49561,-0.58641 -0.52783,-0.9917 -0.0322,-0.40526 0.0799,-0.76805 0.33642,-1.08838 0.27735,-0.31964 0.62403,-0.50616 1.04004,-0.55957 0.41602,-0.0534 0.7946,0.0479 1.13575,0.30371 1.10937,0.81057 2.27213,1.76011 3.48828,2.84864 0.34114,0.27735 0.52766,0.63461 0.55957,1.07177 0.0319,0.43719 -0.10157,0.82635 -0.40039,1.16748 z m 1.34472,6.04883 c -0.96029,2.79428 -2.16569,5.37533 -3.61621,7.74317 -0.23503,0.38411 -0.57113,0.62955 -1.0083,0.73632 -0.43718,0.10677 -0.84782,0.0321 -1.23193,-0.22412 -0.38412,-0.25618 -0.61882,-0.60823 -0.7041,-1.05615 -0.0853,-0.44792 -0.0104,-0.86393 0.22461,-1.24805 1.23697,-2.04752 2.37825,-4.41536 3.42382,-7.10351 0.14909,-0.40559 0.41569,-0.69368 0.79981,-0.86426 0.38411,-0.17056 0.77864,-0.18131 1.18359,-0.0322 0.40559,0.17124 0.69905,0.45411 0.88037,0.84864 0.18131,0.39453 0.19742,0.7946 0.0483,1.20019 z m 15.07129,-15.74414 c 0.42706,-0.19203 0.85919,-0.21873 1.29639,-0.0801 0.43715,0.1387 0.77325,0.40009 1.0083,0.78418 1.59958,2.62372 2.93291,5.01304 4,7.16797 0.19203,0.38348 0.21335,0.77801 0.064,1.18359 -0.14945,0.40562 -0.42679,0.6937 -0.83204,0.86426 -0.4053,0.17059 -0.81594,0.18117 -1.23193,0.0317 -0.41604,-0.1494 -0.73082,-0.42658 -0.94434,-0.83154 -0.0853,-0.14973 -0.20266,-0.36864 -0.35205,-0.65674 -0.14944,-0.28807 -0.26679,-0.50666 -0.35205,-0.65576 -0.0853,-0.17056 -0.21324,-0.23469 -0.38379,-0.19238 -5.22658,0.76824 -10.47462,1.29102 -15.74414,1.56835 -0.40496,0.0215 -0.7461,-0.10643 -1.02343,-0.38378 -0.27736,-0.27733 -0.42677,-0.61864 -0.44825,-1.02393 -0.0215,-0.40526 0.10644,-0.75731 0.38379,-1.05615 0.27734,-0.29881 0.62922,-0.45897 1.05567,-0.48047 0.19204,1e-5 0.50161,-0.0211 0.92871,-0.0635 0.19204,2e-5 0.31997,-0.0853 0.38379,-0.25586 1.04491,-2.19724 2.23957,-5.03481 3.58398,-8.51269 0.17056,-0.44789 0.46385,-0.77846 0.87988,-0.9917 0.416,-0.21319 0.85871,-0.26641 1.32813,-0.15967 0.42641,0.1068 0.7464,0.36282 0.95996,0.76807 0.21352,0.40529 0.24542,0.81041 0.0957,1.21533 -1.00262,2.64585 -2.04787,5.11004 -3.13574,7.39258 -0.0853,0.17059 -0.0319,0.25587 0.16016,0.25586 2.96547,-0.25585 6.00551,-0.57583 9.12011,-0.95996 0.0638,10e-6 0.117,-0.032 0.15967,-0.0962 0.0426,-0.0641 0.0425,-0.11733 -4.9e-4,-0.15966 -0.68231,-1.19465 -1.19403,-2.06932 -1.53515,-2.62403 -0.23505,-0.36261 -0.29381,-0.75193 -0.17627,-1.16797 0.11749,-0.41599 0.36798,-0.70928 0.75146,-0.87988 z m 2.97657,25.18359 -0.35254,0 c -0.38349,0 -0.70869,-0.1333 -0.97559,-0.3999 -0.26695,-0.2666 -0.40042,-0.59196 -0.40039,-0.97607 -3e-5,-0.14909 -0.0746,-0.22364 -0.22363,-0.22363 l -10.43164,0 c -0.14976,-10e-6 -0.22463,0.0745 -0.22461,0.22363 -2e-5,0.38411 -0.13332,0.70947 -0.39991,0.97607 -0.26661,0.2666 -0.59197,0.3999 -0.97607,0.3999 l -0.28809,0 c -0.46941,0 -0.86931,-0.15999 -1.1997,-0.47998 -0.33042,-0.31999 -0.49562,-0.71468 -0.49561,-1.18408 l 0,-10.36816 c -1e-5,-0.49023 0.18131,-0.91145 0.54395,-1.26367 0.36262,-0.35221 0.78905,-0.52831 1.27929,-0.52832 l 14.04883,0 c 0.49021,10e-6 0.91664,0.17611 1.2793,0.52832 0.3626,0.35222 0.54392,0.77344 0.54394,1.26367 l 0,10.30469 c -2e-5,0.46939 -0.1706,0.87467 -0.51171,1.21582 -0.34118,0.34114 -0.74645,0.51171 -1.21582,0.51171 z m -12.35254,-4.41601 10.36816,0 c 0.17055,0 0.25583,-0.0853 0.25586,-0.25586 l 0,-6.01563 c -3e-5,-0.17121 -0.0853,-0.25682 -0.25586,-0.25683 l -10.36816,0 c -0.17059,10e-6 -0.25588,0.0856 -0.25586,0.25683 l 0,6.01563 c -2e-5,0.17057 0.0853,0.25586 0.25586,0.25586 z"
       id="path3792"
       style="font-size:32px;fill:#0066b3" />
    <path
       d="m 251.68733,297.45905 c 0.32031,-0.27732 0.69905,-0.40525 1.13623,-0.38379 0.43717,0.0215 0.80517,0.18134 1.10401,0.47949 0.98111,1.02411 2.07974,2.20835 3.29589,3.55273 0.27734,0.2982 0.40006,0.6553 0.36817,1.07129 -0.0319,0.41604 -0.19728,0.76272 -0.49609,1.04004 -0.31967,0.27736 -0.6823,0.39471 -1.0879,0.35205 -0.4056,-0.0426 -0.74707,-0.21303 -1.02441,-0.51123 -0.7461,-0.81118 -1.86589,-1.98468 -3.35937,-3.52051 -0.27735,-0.2988 -0.41065,-0.65085 -0.39991,-1.05615 0.0107,-0.40525 0.1652,-0.74656 0.46338,-1.02392 z m 4,23.36035 c -0.91732,0.91731 -1.98373,1.82389 -3.19922,2.71972 -0.3418,0.25586 -0.72591,0.33578 -1.15234,0.23975 -0.42644,-0.096 -0.74642,-0.33578 -0.95996,-0.71924 -0.21354,-0.4056 -0.26693,-0.82715 -0.16016,-1.26465 0.10677,-0.4375 0.35221,-0.79492 0.73633,-1.07226 0.87435,-0.61849 1.81282,-1.38639 2.81543,-2.30371 0.10677,-0.0853 0.16015,-0.22396 0.16016,-0.41602 l 0,-7.23144 c -1e-5,-0.19205 -0.0853,-0.28808 -0.25586,-0.28809 l -2.20801,0 c -0.4056,1e-5 -0.74707,-0.13329 -1.02441,-0.3999 -0.27735,-0.26659 -0.41602,-0.60269 -0.41602,-1.0083 0,-0.40559 0.13867,-0.75227 0.41602,-1.04004 0.27734,-0.28775 0.61881,-0.43163 1.02441,-0.43164 l 3.93555,0 c 0.49087,10e-6 0.91763,0.18133 1.28027,0.54394 0.36262,0.36265 0.54394,0.78908 0.54394,1.2793 l 0,7.87207 c 0,0.17058 0.0534,0.34147 0.16016,0.51269 0.53319,0.87436 1.19986,1.53028 2,1.96778 0.80012,0.4375 1.98957,0.75749 3.56836,0.95996 1.57876,0.20247 3.82941,0.30371 6.75195,0.30371 l 7.58399,0 c 0.38408,0 0.71481,0.14941 0.99219,0.44824 0.27731,0.29883 0.40524,0.6403 0.38378,1.02442 -0.0215,0.40494 -0.18167,0.74072 -0.48046,1.00732 -0.29886,0.2666 -0.65075,0.3999 -1.05567,0.3999 l -7.58398,0 c -3.92515,0 -6.89585,-0.22396 -8.91211,-0.67187 -2.01629,-0.44792 -3.53614,-1.24772 -4.55957,-2.39942 -0.12826,-0.14974 -0.25652,-0.16048 -0.38477,-0.0322 z m 22.0166,-23.13575 c -3e-5,0.95966 -0.38414,1.67418 -1.15234,2.14356 -1.02412,0.63999 -2.32555,1.35451 -3.9043,2.14355 -0.0208,0.0215 -0.0313,0.0484 -0.0312,0.0806 -2e-5,0.0322 0.0104,0.0484 0.0312,0.0483 l 3.23242,0 c 0.49086,2e-5 0.91762,0.18133 1.28028,0.54395 0.3626,0.36264 0.54391,0.78908 0.54394,1.27929 l 0,11.93653 c -3e-5,1.6849 -0.17076,2.70882 -0.5122,3.07177 -0.3415,0.36296 -1.29088,0.54444 -2.84815,0.54444 -0.1706,0 -0.66116,-0.0215 -1.47168,-0.0645 -0.38414,-0.0215 -0.70949,-0.16015 -0.97607,-0.41601 -0.26663,-0.25586 -0.41067,-0.57584 -0.43213,-0.95996 -0.0215,-0.34114 0.0905,-0.63981 0.33594,-0.896 0.24542,-0.25618 0.54945,-0.37353 0.91211,-0.35205 0.4264,0.0215 0.81052,0.0322 1.15234,0.0322 0.27732,0 0.43731,-0.0426 0.47998,-0.12793 0.0426,-0.0853 0.0639,-0.37337 0.064,-0.86426 l 0,-1.37598 c -3e-5,-0.17056 -0.0856,-0.25585 -0.25684,-0.25586 l -4.03125,0 c -0.1706,10e-6 -0.25588,0.0853 -0.25586,0.25586 l 0,3.36035 c -2e-5,0.42644 -0.15481,0.79428 -0.46436,1.10352 -0.30959,0.30925 -0.67759,0.46387 -1.104,0.46387 -0.42645,0 -0.79445,-0.15462 -1.104,-0.46387 -0.30959,-0.30924 -0.46438,-0.67708 -0.46436,-1.10352 l 0,-3.36035 c -2e-5,-0.17056 -0.0853,-0.25585 -0.25586,-0.25586 l -3.77539,0 c -0.17124,10e-6 -0.25685,0.0853 -0.25683,0.25586 l 0,3.48828 c -2e-5,0.44792 -0.15464,0.8265 -0.46387,1.13575 -0.30926,0.30924 -0.68784,0.46387 -1.13574,0.46386 -0.44793,10e-6 -0.82651,-0.15462 -1.13575,-0.46386 -0.30925,-0.30925 -0.46387,-0.68783 -0.46386,-1.13575 l 0,-14.0166 c -10e-6,-0.49021 0.17593,-0.91665 0.52783,-1.27929 0.35187,-0.36262 0.77326,-0.54393 1.26416,-0.54395 l 3.07129,0 c 0.043,2e-5 0.0698,-0.0215 0.0806,-0.0645 0.0107,-0.0429 0.005,-0.0748 -0.0161,-0.0957 -0.12827,-0.0853 -0.3257,-0.20798 -0.59228,-0.36816 -0.26662,-0.16014 -0.46405,-0.28286 -0.59229,-0.36816 -0.34116,-0.23436 -0.52768,-0.54897 -0.55957,-0.94385 -0.0319,-0.39484 0.0908,-0.74168 0.36816,-1.04053 0.0423,-0.0423 0.0529,-0.0794 0.0317,-0.11133 -0.0212,-0.0319 -0.0532,-0.0478 -0.0962,-0.0478 l -2.71973,0 c -0.36264,2e-5 -0.67725,-0.13865 -0.94384,-0.41601 -0.26661,-0.27732 -0.39992,-0.59747 -0.39991,-0.96045 -1e-5,-0.36293 0.1333,-0.67771 0.39991,-0.94434 0.26659,-0.26658 0.5812,-0.39988 0.94384,-0.3999 l 16.32032,0 c 0.3626,2e-5 0.68259,0.13332 0.95996,0.3999 0.27731,0.26663 0.41598,0.58157 0.41601,0.94482 z m -15.26464,7.23145 0,1.79199 c -2e-5,0.17059 0.0856,0.25588 0.25683,0.25586 l 3.77539,0 c 0.17056,2e-5 0.25584,-0.0853 0.25586,-0.25586 l 0,-1.79199 c -2e-5,-0.17056 -0.0853,-0.25584 -0.25586,-0.25586 l -3.77539,0 c -0.17124,2e-5 -0.25685,0.0853 -0.25683,0.25586 z m 0.25683,6.84766 3.77539,0 c 0.17056,10e-6 0.25584,-0.0853 0.25586,-0.25586 l 0,-1.85547 c -2e-5,-0.17056 -0.0853,-0.25585 -0.25586,-0.25586 l -3.77539,0 c -0.17124,10e-6 -0.25685,0.0853 -0.25683,0.25586 l 0,1.85547 c -2e-5,0.17058 0.0856,0.25587 0.25683,0.25586 z m 11.71192,-0.25586 0,-1.85547 c -3e-5,-0.17056 -0.0856,-0.25585 -0.25684,-0.25586 l -4.03125,0 c -0.1706,10e-6 -0.25588,0.0853 -0.25586,0.25586 l 0,1.85547 c -2e-5,0.17058 0.0853,0.25587 0.25586,0.25586 l 4.03125,0 c 0.1712,10e-6 0.25681,-0.0853 0.25684,-0.25586 z m 0,-4.79981 0,-1.79199 c -3e-5,-0.17056 -0.0856,-0.25584 -0.25684,-0.25586 l -4.03125,0 c -0.1706,2e-5 -0.25588,0.0853 -0.25586,0.25586 l 0,1.79199 c -2e-5,0.17059 0.0853,0.25588 0.25586,0.25586 l 4.03125,0 c 0.1712,2e-5 0.25681,-0.0853 0.25684,-0.25586 z m -6.01661,-5.4082 c 1.21613,-0.55467 2.54946,-1.25844 4,-2.11133 0.0215,-0.0215 0.0322,-0.0482 0.0322,-0.0801 -2e-5,-0.0319 -0.0215,-0.0478 -0.0644,-0.0478 l -7.48731,0 c -0.043,2e-5 -0.0698,0.016 -0.0806,0.0478 -0.0108,0.0319 -0.005,0.0586 0.0161,0.0801 0.98175,0.61851 2.027,1.31187 3.13574,2.08008 0.12824,0.0853 0.27765,0.0957 0.44824,0.0312 z"
       id="path3794"
       style="font-size:32px;fill:#0066b3" />
    <path
       d="m 299.14339,301.13873 c -2.09051,2e-5 -4.06382,1.02411 -5.91993,3.07227 -1.85613,2.04819 -3.00814,4.60841 -3.45605,7.68066 -0.0638,0.44793 -0.26108,0.82114 -0.5918,1.11963 -0.33073,0.29851 -0.72006,0.44776 -1.16797,0.44776 -0.44792,0 -0.82129,-0.15462 -1.12011,-0.46387 -0.29884,-0.30924 -0.44825,-0.68782 -0.44824,-1.13574 l 0,-12.92871 c -1e-5,-0.4479 0.15998,-0.83185 0.47998,-1.15186 0.31998,-0.31996 0.70409,-0.47996 1.15234,-0.47998 0.44823,2e-5 0.83235,0.15481 1.15234,0.46435 0.31998,0.3096 0.47997,0.68834 0.47998,1.13624 l 0,5.5039 c -1e-5,0.0423 0.0104,0.0635 0.0312,0.0635 0.043,2e-5 0.0644,-0.0104 0.0645,-0.0312 1.13085,-2.11196 2.52293,-3.72264 4.17627,-4.83203 1.6533,-1.10936 3.48256,-1.66404 5.48779,-1.66407 2.55987,3e-5 4.55987,0.9066 6,2.71973 1.44008,1.81317 2.16013,4.37306 2.16016,7.67969 -3e-5,4.92839 -1.33336,8.59245 -4,10.99219 -2.66669,2.39974 -6.85874,3.68522 -12.57618,3.85644 -0.40561,0.0208 -0.7684,-0.118 -1.08838,-0.4165 -0.31999,-0.29851 -0.4904,-0.66097 -0.51123,-1.08741 -0.0215,-0.40559 0.10644,-0.75781 0.38379,-1.05664 0.27734,-0.29882 0.62923,-0.45865 1.05567,-0.47949 4.73631,-0.14974 8.12303,-1.1525 10.16015,-3.0083 2.03709,-1.85579 3.05564,-4.78921 3.05567,-8.80029 -3e-5,-2.36782 -0.42662,-4.15982 -1.27979,-5.37598 -0.85321,-1.21612 -2.07993,-1.8242 -3.68017,-1.82422 z"
       id="path3796"
       style="font-size:32px;fill:#0066b3" />
  </g>
</svg>
