<?xml version="1.0" encoding="UTF-8" standalone="no"?>
<!-- Created with Inkscape (http://www.inkscape.org/) -->

<svg
   xmlns:dc="http://purl.org/dc/elements/1.1/"
   xmlns:cc="http://creativecommons.org/ns#"
   xmlns:rdf="http://www.w3.org/1999/02/22-rdf-syntax-ns#"
   xmlns:svg="http://www.w3.org/2000/svg"
   xmlns="http://www.w3.org/2000/svg"
   xmlns:sodipodi="http://sodipodi.sourceforge.net/DTD/sodipodi-0.dtd"
   xmlns:inkscape="http://www.inkscape.org/namespaces/inkscape"
   id="svg1890"
   sodipodi:version="0.32"
   inkscape:version="0.48.4 r9939"
   width="500.34357"
   height="500.34357"
   version="1.0"
   sodipodi:docname="AJAX1.svg"
   inkscape:output_extension="org.inkscape.output.svg.inkscape">
  <metadata
     id="metadata1895">
    <rdf:RDF>
      <cc:Work
         rdf:about="">
        <dc:format>image/svg+xml</dc:format>
        <dc:type
           rdf:resource="http://purl.org/dc/dcmitype/StillImage" />
      </cc:Work>
    </rdf:RDF>
  </metadata>
  <defs
     id="defs1893">
    <inkscape:perspective
       sodipodi:type="inkscape:persp3d"
       inkscape:vp_x="0 : 235 : 1"
       inkscape:vp_y="0 : 1000 : 0"
       inkscape:vp_z="470 : 235 : 1"
       inkscape:persp3d-origin="235 : 156.66667 : 1"
       id="perspective10" />
    <inkscape:perspective
       id="perspective2390"
       inkscape:persp3d-origin="372.04724 : 350.78739 : 1"
       inkscape:vp_z="744.09448 : 526.18109 : 1"
       inkscape:vp_y="0 : 1000 : 0"
       inkscape:vp_x="0 : 526.18109 : 1"
       sodipodi:type="inkscape:persp3d" />
    <inkscape:perspective
       id="perspective3168"
       inkscape:persp3d-origin="372.04724 : 350.78739 : 1"
       inkscape:vp_z="744.09448 : 526.18109 : 1"
       inkscape:vp_y="0 : 1000 : 0"
       inkscape:vp_x="0 : 526.18109 : 1"
       sodipodi:type="inkscape:persp3d" />
    <inkscape:perspective
       id="perspective2400"
       inkscape:persp3d-origin="372.04724 : 350.78739 : 1"
       inkscape:vp_z="744.09448 : 526.18109 : 1"
       inkscape:vp_y="0 : 1000 : 0"
       inkscape:vp_x="0 : 526.18109 : 1"
       sodipodi:type="inkscape:persp3d" />
    <inkscape:perspective
       id="perspective2391"
       inkscape:persp3d-origin="372.04724 : 350.78739 : 1"
       inkscape:vp_z="744.09448 : 526.18109 : 1"
       inkscape:vp_y="0 : 1000 : 0"
       inkscape:vp_x="0 : 526.18109 : 1"
       sodipodi:type="inkscape:persp3d" />
  </defs>
  <sodipodi:namedview
     inkscape:window-height="1004"
     inkscape:window-width="1280"
     inkscape:pageshadow="2"
     inkscape:pageopacity="0.0"
     guidetolerance="10.0"
     gridtolerance="10.0"
     objecttolerance="10.0"
     borderopacity="1.0"
     bordercolor="#666666"
     pagecolor="#ffffff"
     id="base"
     inkscape:zoom="1.2451783"
     inkscape:cx="187.20017"
     inkscape:cy="267.55114"
     inkscape:window-x="-8"
     inkscape:window-y="-8"
     inkscape:current-layer="svg1890"
     showgrid="false"
     fit-margin-top="0.2"
     fit-margin-left="0.2"
     fit-margin-right="0.2"
     fit-margin-bottom="0.2"
     inkscape:window-maximized="1"
     showguides="true"
     inkscape:guide-bbox="true" />
  <path
     style="fill:#fcdc0f;fill-opacity:1;fill-rule:nonzero;stroke:none"
     d="m 496.8946,242.33616 c 4.33196,4.33195 4.33196,11.33928 0,15.67124 L 258.00741,496.89459 c -4.33196,4.33196 -11.33929,4.33196 -15.67125,0 L 3.448976,258.0074 c -4.33196815,-4.33197 -4.33196515,-11.33928 -8e-6,-15.67124 L 242.33617,3.4489584 c 4.33195,-4.3319492 11.33929,-4.3319432 15.67125,1e-5 z"
     id="path5216"
     inkscape:connector-curvature="0"
     sodipodi:nodetypes="sssssssss" />
  <path
     style="fill:#000000;fill-opacity:1;fill-rule:nonzero;stroke:none"
     d="M 250.17179,12.231763 12.231779,250.17177 250.17179,488.1118 488.11181,250.17178 z m 16.73435,30.875126 190.33054,190.330551 c 9.25965,9.25963 9.25965,24.20902 1e-5,33.46868 L 266.90615,457.23668 c -9.25965,9.25963 -24.20908,9.25963 -33.46871,0 L 43.106879,266.90612 c -9.25963,-9.25964 -9.25964,-24.20905 0,-33.46869 L 233.43744,43.106869 c 9.25965,-9.259653 24.20905,-9.25963 33.4687,2e-5 z"
     id="path17826"
     inkscape:connector-curvature="0"
     sodipodi:nodetypes="cccccsssssssss" />
  <path
     inkscape:connector-curvature="0"
     d="m 259.33909,107.69282 c -2.35101,4.68159 -2.59634,10.34448 0.6542,14.90341 l 0,1.9217 c 2.61679,4.53849 7.64592,9.95606 7.64592,15.80295 -2.59634,0 -7.15528,-1.3084 -7.99346,0.63293 0,0.67382 0.0164,2.78033 1.51283,4.37494 1.28877,1.2675 0.77686,1.18573 1.45232,2.47368 0,2.5759 1.90125,5.84689 5.15179,5.17224 l 0,2.5759 c -1.14484,5.86733 1.96259,16.49803 1.71727,24.4506 -0.30748,10.54892 -2.35102,16.19137 -2.35102,16.55936 -2.47369,4.80425 -4.66115,7.85035 -4.66115,8.4841 -0.63294,1.28877 -5.35624,6.13309 -5.90821,6.70551 -1.22662,1.37055 -2.43279,2.73945 -3.82297,4.00696 -2.24879,2.00349 -4.64071,3.96607 -7.19616,5.56067 -2.20791,1.39017 -13.63591,8.21835 -12.02086,7.15528 2.26925,-1.51284 -5.88777,5.11091 -12.08219,7.46193 -5.17225,1.90126 -16.84557,3.25054 -22.03825,5.17224 -3.2301,1.96259 -6.25576,2.80078 -7.33927,3.78207 -1.14485,0.96005 -2.57591,3.2301 -4.55894,3.2301 -1.9217,-0.67382 -7.66637,-2.49412 -8.40233,-3.2301 -0.75724,-0.75722 -4.53849,-7.13482 -3.8843,-11.67332 0.6542,-0.63292 0,-3.23009 -1.94215,-2.59634 -2.5759,1.30839 -6.15353,5.00869 -6.43974,5.82644 -0.30747,0.83737 -1.24788,2.28969 -1.3084,3.92519 -0.0982,1.5946 1.94214,8.36145 5.17224,10.32403 4.51805,2.57591 9.05654,4.51805 14.22878,5.13136 -6.70551,11.22355 0.44976,26.94473 0.77686,27.61936 0.34673,0.83901 0.96003,2.35103 1.79904,7.38017 0.8799,5.00869 -4.19094,14.16745 -5.45845,16.0687 -1.26751,1.90126 -9.40407,12.38885 -9.40407,12.38885 -1.94216,1.9217 -3.8843,3.86385 -4.51805,6.4602 -0.65421,9.07698 3.23009,18.11306 0.63293,27.1696 -1.28714,3.90473 -3.27098,5.4789 -6.52152,8.03435 0.14719,5.4789 0.24533,5.39712 0.38761,8.95432 1.32966,0.63293 3.53675,-0.3271 4.51805,-0.77686 1.00255,-0.44976 2.43279,-1.45232 3.23009,-1.94215 0.7556,-0.47102 3.35276,-3.27098 4.62027,-4.55893 8.6681,-7.05305 6.25576,-28.8051 6.84862,-30.01127 1.53245,-3.12788 3.00521,-7.15528 3.61853,-7.85036 1.39016,-1.61423 11.12134,-11.5711 12.40929,-12.61373 1.28876,-1.02218 4.41582,-2.92344 5.82643,-3.88429 1.41143,-0.94041 7.48238,-4.82471 9.05654,-5.806 1.57335,-0.9813 10.42626,-5.92866 11.65287,-8.42278 1.24789,-2.47368 1.94215,-12.94084 8.40234,-15.47585 1.18574,-0.53154 7.4415,-2.7599 9.8334,-3.67986 2.3919,-0.87989 12.28662,-4.98824 15.65983,-6.43975 3.33231,-1.39017 8.48411,-3.57763 10.11961,-4.19095 2.2488,-0.81773 11.16222,-1.81948 13.0226,-2.28968 1.9217,-0.47102 14.88297,-6.62374 15.25095,-6.9304 0.38925,-0.34835 8.52501,-3.27098 10.50804,-3.92517 1.98303,-0.71472 13.61546,-10.73291 21.38405,-14.6581 -0.65419,1.94214 -0.43014,2.98478 -0.69508,5.29491 -0.26659,2.33058 -0.59205,4.19095 -0.59205,7.76858 0,2.02392 0.34672,3.31188 0.11444,5.07002 -0.24533,1.75816 -6.01043,6.60331 -6.25576,7.85036 -0.22569,1.26751 0.22407,8.64766 0.22407,8.64766 0,0 2.00347,0.34837 3.27098,-0.2862 3.25054,-3.20965 6.76685,-8.15702 7.4006,-8.89299 0.63294,-0.77685 2.14658,-1.65593 2.14658,-1.65593 1.3084,-1.3084 3.33232,-2.47369 3.74119,-4.27273 0.36799,-1.81949 0.3271,-3.31187 -0.30584,-5.27446 -1.30839,-4.53849 0,-9.05654 1.28713,-13.59503 0.63457,-1.26749 2.33058,-3.76163 3.02566,-4.82469 0.6542,-1.06307 3.45498,-5.54023 0.83901,-8.74988 -1.28876,-2.57591 -3.82296,-6.56241 -4.76337,-6.82818 -0.98129,-0.2257 -19.46235,4.39539 -18.52194,4.25227 0.92078,-0.1848 -5.82644,0.61332 -7.74814,2.57591 -0.65421,-4.53849 -1.98303,-10.83513 -3.2301,-13.61548 -1.28877,-2.73943 -7.78903,-14.84207 -8.42278,-16.13002 -1.94215,-1.98304 -0.6542,-3.92519 0,-5.82644 1.94215,-5.84689 -1.34928,-14.73987 -0.89952,-15.96649 0.11445,-1.81949 0.89952,-4.12962 1.53245,-4.76337 5.19269,-0.63293 9.93562,-3.06655 11.06001,-4.08873 1.12522,-1.0418 2.88256,-4.33405 3.5572,-5.92866 0.65419,-1.67637 5.72422,-6.84861 1.86037,-10.73291 -1.28877,0 -3.7003,-0.18317 -5.00869,0.49065 -4.53849,1.32966 -13.61547,-1.28877 -15.33273,-3.0461 -1.73771,-1.73771 -4.19095,-1.51284 -5.4789,-1.51284 -11.30534,1.88082 -13.86079,-1.14483 -15.88472,-3.00521 -2.02391,-1.83992 -2.57589,-3.8843 -2.57589,-5.82644 0.65419,-2.59635 1.28876,-5.19268 2.57589,-7.78903 3.8843,-5.1518 9.71073,-8.38189 15.51673,-10.32403 3.25054,-0.65421 5.84689,-3.8843 7.76859,-7.1144 1.30839,-4.55893 2.59633,-11.019129 -1.9217,-14.249225 -0.67383,0 -1.28713,0 -1.28713,0.654204 -0.65421,2.575892 -1.96259,5.172242 -2.59635,7.748151 -0.65419,1.28876 -2.59634,1.96258 -3.25054,3.90473 0.30748,-0.87826 0.22569,-5.33579 0.26659,-6.39887 0.0326,-1.53245 -0.0164,-3.086981 -0.3271,-4.579376 -0.24533,-1.370544 -0.81775,-2.514563 -1.4932,-3.720743 -0.73598,-1.41143 -0.36799,-2.984767 -2.37146,-3.291425 -0.91916,-0.163545 -1.61424,0.305839 -1.88083,1.164474 -0.65419,5.785545 -2.57589,10.344481 -3.25054,16.19137 0,-1.14485 -0.18317,-2.28969 -0.69508,-3.33231 -0.34836,-0.83738 -0.81775,-1.55373 -1.0827,-2.37146 -0.16354,-0.551176 -1.7377,-3.025672 -2.49412,-3.577648 -0.71471,-0.613317 -1.43105,-1.226622 -2.43279,-1.166112 -0.77686,0.03276 -1.69683,0.471023 -1.69683,1.370543 0,2.432791 0,4.865597 -0.14719,7.237057 -0.14719,2.53501 -0.16355,4.25228 -0.61331,6.70551 -0.24532,1.14485 -0.53153,3.27099 -1.08269,4.27273 -0.30748,0.61331 -0.9813,1.67637 -1.16447,2.33057 -0.26659,1.06307 -0.73761,2.10569 -2.1883,2.10569 -4.47715,-1.30839 -3.23009,-7.76858 -3.86384,-11.65287 0,-0.63293 -0.61331,-1.28877 -1.28713,-1.28877 -0.65419,0 -1.94215,0 -2.59635,1.28877"
     style="fill:#000000;fill-opacity:1;fill-rule:nonzero;stroke:none"
     id="path29473" />
</svg>
