<?xml version="1.0" encoding="UTF-8" standalone="no"?>
<!-- Created with Inkscape (http://www.inkscape.org/) -->

<svg
   xmlns:osb="http://www.openswatchbook.org/uri/2009/osb"
   xmlns:dc="http://purl.org/dc/elements/1.1/"
   xmlns:cc="http://creativecommons.org/ns#"
   xmlns:rdf="http://www.w3.org/1999/02/22-rdf-syntax-ns#"
   xmlns:svg="http://www.w3.org/2000/svg"
   xmlns="http://www.w3.org/2000/svg"
   xmlns:xlink="http://www.w3.org/1999/xlink"
   xmlns:sodipodi="http://sodipodi.sourceforge.net/DTD/sodipodi-0.dtd"
   xmlns:inkscape="http://www.inkscape.org/namespaces/inkscape"
   version="1.1"
   width="1200.4003"
   height="800.40021"
   id="svg2"
   xml:space="preserve"
   inkscape:version="0.48.4 r9939"
   sodipodi:docname="Ajax.svg"><sodipodi:namedview
     pagecolor="#ffffff"
     bordercolor="#666666"
     borderopacity="1"
     objecttolerance="10"
     gridtolerance="10"
     guidetolerance="10"
     inkscape:pageopacity="0"
     inkscape:pageshadow="2"
     inkscape:window-width="1280"
     inkscape:window-height="1001"
     id="namedview28"
     showgrid="false"
     fit-margin-top="0.2"
     fit-margin-left="0.2"
     fit-margin-right="0.2"
     fit-margin-bottom="0.2"
     inkscape:zoom="0.40989584"
     inkscape:cx="655.46898"
     inkscape:cy="221.97662"
     inkscape:window-x="-8"
     inkscape:window-y="-8"
     inkscape:window-maximized="1"
     inkscape:current-layer="svg2" /><metadata
     id="metadata8"><rdf:RDF><cc:Work
         rdf:about=""><dc:format>image/svg+xml</dc:format><dc:type
           rdf:resource="http://purl.org/dc/dcmitype/StillImage" /><dc:title /></cc:Work></rdf:RDF></metadata><defs
     id="defs6"><linearGradient
       id="linearGradient15703"
       osb:paint="solid"><stop
         style="stop-color:#ffffff;stop-opacity:1;"
         offset="0"
         id="stop15705" /></linearGradient><linearGradient
       inkscape:collect="always"
       xlink:href="#linearGradient15703"
       id="linearGradient15707"
       x1="-37.125"
       y1="465.375"
       x2="967.87512"
       y2="465.375"
       gradientUnits="userSpaceOnUse"
       gradientTransform="translate(961.6578,56.04101)" /></defs><g
     id="g2991"
     transform="matrix(34.167339,0,0,34.167339,14.96955,234.01046)" /><path
     style="font-size:medium;font-style:normal;font-variant:normal;font-weight:normal;font-stretch:normal;text-indent:0;text-align:start;text-decoration:none;line-height:normal;letter-spacing:normal;word-spacing:normal;text-transform:none;direction:ltr;block-progression:tb;writing-mode:lr-tb;text-anchor:start;baseline-shift:baseline;color:#000000;fill:#000000;fill-opacity:1;fill-rule:nonzero;stroke:none;stroke-width:30;marker:none;visibility:visible;display:inline;overflow:visible;enable-background:accumulate;font-family:Sans;-inkscape-font-specification:Sans"
     d="m 1143.544,800.20019 c 31.1185,0 56.6563,-25.5377 56.6563,-56.6563 l 0,-686.68769 C 1200.2003,25.7364 1174.6619,0.2 1143.544,0.2 L 56.8563,0.2 C 25.7386,0.2 0.2,25.7364 0.2,56.8562 l 0,686.68769 c 0,31.1186 25.5377,56.6563 56.6563,56.6563 z"
     id="path14428"
     inkscape:connector-curvature="0"
     sodipodi:nodetypes="sssssssss" /><path
     inkscape:connector-curvature="0"
     d="m 56.8668,785.20019 c -23.012,0 -41.6668,-18.6548 -41.6668,-41.6668 l 0,-686.66699 c 0,-23.014 18.6548,-41.6668 41.6668,-41.6668 l 1086.6669,0 c 23.0119,0 41.6666,18.6528 41.6666,41.6668 l 0,686.66699 c 0,23.012 -18.6547,41.6668 -41.6666,41.6668 z"
     style="fill:#ffffff;fill-opacity:1;fill-rule:nonzero;stroke:none"
     id="path14430"
     sodipodi:nodetypes="sssssssss" /><path
     style="fill:#ed1c23;fill-opacity:1;fill-rule:nonzero;stroke:none"
     d="m 917.53467,82.865538 c 0.9026,0.91392 1.22059,2.42006 0.71221,4.31523 L 875.37392,249.03664 c -0.25338,3.253 -1.64559,6.50545 -4.10572,8.96559 -5.57064,5.57064 -14.62293,5.57068 -20.19362,0 -2.26221,-2.26221 -3.58349,-5.06254 -4.03588,-7.89033 -0.10196,-0.0564 -0.21653,-0.16109 -0.30703,-0.25159 L 840.61493,226.6782 352.2963,714.99683 c -4.66574,4.66573 -12.35768,4.65183 -17.02346,-0.0139 l -24.92776,-24.92776 -24.92776,-24.92776 c -4.66579,-4.66579 -4.6797,-12.35775 -0.014,-17.02349 l 488.31863,-488.31863 -23.18211,-6.11674 c -0.0905,-0.0905 -0.19518,-0.20508 -0.25158,-0.30702 -2.82779,-0.45239 -5.62814,-1.77369 -7.89034,-4.03589 -5.57065,-5.57066 -5.57061,-14.62295 3e-5,-20.19359 2.46013,-2.46014 5.71256,-3.85237 8.96558,-4.10573 L 913.2194,82.153358 c 1.89514,-0.50841 3.40125,-0.19041 4.31524,0.71222 z"
     id="path13506"
     inkscape:connector-curvature="0" /></svg>