<?xml version="1.0" encoding="UTF-8" standalone="no"?>
<!-- Created with Inkscape (http://www.inkscape.org/) -->

<svg
   xmlns:svg="http://www.w3.org/2000/svg"
   xmlns="http://www.w3.org/2000/svg"
   version="1.1"
   width="1800"
   height="300"
   id="svg5338">
  <defs
     id="defs5340" />
  <g
     transform="translate(0,-772.36217)"
     id="layer1">
    <rect
       width="1800"
       height="300"
       rx="50"
       ry="50"
       x="0"
       y="0"
       transform="translate(0,772.36217)"
       id="rect5348"
       style="color:#000000;fill:#000000;fill-opacity:1;stroke:none;stroke-width:99;marker:none;visibility:visible;display:inline;overflow:visible;enable-background:accumulate" />
    <rect
       width="1770"
       height="270"
       rx="50"
       ry="50"
       x="15"
       y="15"
       transform="translate(0,772.36217)"
       id="rect5860"
       style="color:#000000;fill:#ffffff;fill-opacity:1;fill-rule:nonzero;stroke:none;stroke-width:99;marker:none;visibility:visible;display:inline;overflow:visible;enable-background:accumulate" />
    <g
       id="text2814"
       style="font-size:250px;font-style:normal;font-variant:normal;font-weight:normal;font-stretch:normal;text-align:center;text-anchor:middle;fill:#000000;fill-opacity:1;stroke:none;font-family:'Rounded M+ 1p medium';-inkscape-font-specification:'Rounded M+ 1p medium,'">
      <path
         d="m 417.24689,931.3584 c -8.3365,20.16709 -20.00438,38.54247 -35.00366,55.12619 -14.99947,16.58381 -32.16559,30.04331 -51.49842,40.37861 -3.16878,1.6632 -6.50282,2.037 -10.00213,1.1215 -3.49938,-0.9156 -6.2485,-2.8738 -8.24738,-5.8747 -1.83107,-2.833 -2.37276,-5.7907 -1.62506,-8.8729 0.74766,-3.0823 2.53802,-5.4576 5.37109,-7.1259 24.66833,-13.49892 44.33562,-30.33189 59.00193,-50.49896 14.66614,-20.16695 23.58362,-43.08309 26.75247,-68.74847 0.16773,-0.50341 0.001,-0.96372 -0.49973,-1.38092 -0.5011,-0.41695 -1.00083,-0.62548 -1.49917,-0.62561 l -78.49884,0 c -3.33662,1.3e-4 -6.17094,-1.1659 -8.50296,-3.49808 -2.33207,-2.33192 -3.4981,-5.08231 -3.49808,-8.25119 -2e-5,-3.33136 1.16601,-6.16313 3.49808,-8.49533 2.33202,-2.3319 5.16634,-3.49792 8.50296,-3.49808 l 79.75006,0 c 1.33249,1.6e-4 1.99879,-0.66869 1.9989,-2.00653 l 0,-34.24835 c -1.1e-4,-3.83485 1.37445,-7.08497 4.12369,-9.75037 2.749,-2.665 5.95716,-3.9976 9.62448,-3.9978 3.66706,2e-4 6.87522,1.3328 9.62448,3.9978 2.74899,2.6654 4.12355,5.91552 4.12369,9.75037 l 0,34.24835 c -1.4e-4,1.33784 0.75008,2.00669 2.25067,2.00653 l 79.75006,0 c 3.16852,1.6e-4 5.91891,1.16618 8.25119,3.49808 2.33182,2.3322 3.49784,5.16524 3.49808,8.49915 -2.4e-4,3.33418 -1.16626,6.12526 -3.49808,8.37326 -2.33228,2.24825 -5.08267,3.37232 -8.25119,3.37219 l -78.75061,0 c -1.50059,1.3e-4 -2.08297,0.75035 -1.74713,2.25067 3.16351,25.67047 12.03776,48.58915 26.62277,68.7561 14.58468,20.16707 34.21127,37.00004 58.87985,50.49899 2.83282,1.5004 4.66515,3.8338 5.49698,6.9999 0.83137,3.1662 0.33165,6.0819 -1.49918,8.7471 -1.99913,3.0009 -4.79021,4.9591 -8.37326,5.8747 -3.58349,0.9155 -6.95949,0.5417 -10.12802,-1.1215 -18.83462,-10.3353 -35.54298,-23.7948 -50.12512,-40.37861 -14.58246,-16.58372 -25.95788,-34.9591 -34.12628,-55.12619 -0.16797,-0.33053 -0.45916,-0.49583 -0.87357,-0.49591 -0.41465,8e-5 -0.70584,0.16538 -0.87356,0.49591 z"
         id="path2817"
         style="font-family:'Rounded M+ 1m medium';-inkscape-font-specification:'Rounded M+ 1m medium,'" />
      <path
         d="m 808.99341,1026.1078 c -1.16477,-2.6652 -1.08085,-5.3723 0.25177,-8.1214 1.33258,-2.7492 3.4154,-4.5408 6.24847,-5.3749 20.50268,-5.3355 38.25372,-11.3348 53.25318,-17.99779 0.16777,-0.16783 0.25169,-0.37637 0.25177,-0.62561 -8e-5,-0.24921 -0.084,-0.37382 -0.25177,-0.37384 l -16.75415,0 -13.24463,0 c -3.83509,2e-5 -7.16913,-1.41778 -10.00214,-4.25339 -2.83308,-2.83556 -4.2496,-6.16833 -4.24957,-9.99832 l 0,-77.75116 c -3e-5,-3.83493 1.41649,-7.16897 4.24957,-10.00214 2.83301,-2.83292 6.16705,-4.24944 10.00214,-4.24957 l 156.49414,0 c 3.83483,1.3e-4 7.16891,1.41665 10.00211,4.24957 2.8329,2.83317 4.2494,6.16721 4.2496,10.00214 l 0,77.75116 c -2e-4,3.82999 -1.4167,7.16276 -4.2496,9.99832 -2.8332,2.83561 -6.16728,4.25341 -10.00211,4.25339 l -27.49634,0 c -0.16802,0.16278 -0.25195,0.32808 -0.25177,0.49591 19.50054,6.16963 36.75062,12.50203 51.75022,18.99723 2.8328,1.3376 4.791,3.5057 5.8746,6.504 1.0831,2.9984 0.7919,5.9141 -0.8736,8.7471 -1.666,2.8331 -4.1239,4.7086 -7.3738,5.6267 -3.2503,0.918 -6.3758,0.7108 -9.3765,-0.6218 -16.00159,-7.3344 -34.91738,-14.6688 -56.74744,-22.0032 -3.33675,-1.1647 -5.7133,-3.3302 -7.12967,-6.4964 -1.41668,-3.1662 -1.45864,-6.33365 -0.12589,-9.50241 0.33555,-1.16474 0.002,-1.74711 -0.99945,-1.74713 l -51.24664,0 c -1.00209,2e-5 -1.25132,0.49847 -0.74768,1.49536 1.50035,2.83306 1.79154,5.83268 0.87357,8.99888 -0.91817,3.1662 -2.79373,5.4995 -5.62668,7 -17.50191,9.0026 -37.83423,16.5862 -60.99701,22.7508 -3.16877,0.8341 -6.25359,0.501 -9.25446,-0.9994 -3.00091,-1.5005 -5.16766,-3.7512 -6.50024,-6.7521 z m 42.99927,-116.49318 0,5.49317 c -6e-5,1.50054 0.66624,2.25077 1.9989,2.25067 l 126.00708,0 c 1.33241,10e-5 1.99871,-0.75013 1.9989,-2.25067 l 0,-5.49317 c -1.9e-4,-1.50034 -0.66649,-2.25056 -1.9989,-2.25067 l -126.00708,0 c -1.33266,1.1e-4 -1.99896,0.75033 -1.9989,2.25067 z m 0,27.49634 0,6.24848 c -6e-5,1.50051 0.66624,2.25074 1.9989,2.25067 l 126.00708,0 c 1.33241,7e-5 1.99871,-0.75016 1.9989,-2.25067 l 0,-6.24848 c -1.9e-4,-1.50037 -0.66649,-2.25059 -1.9989,-2.25067 l -126.00708,0 c -1.33266,8e-5 -1.99896,0.7503 -1.9989,2.25067 z m 0,27.99988 0,6.50024 c -6e-5,1.33265 0.66624,1.99895 1.9989,1.99891 l 126.00708,0 c 1.33241,4e-5 1.99871,-0.66626 1.9989,-1.99891 l 0,-6.50024 c -1.9e-4,-1.33255 -0.66649,-1.99885 -1.9989,-1.9989 l -126.00708,0 c -1.33266,5e-5 -1.99896,0.66635 -1.9989,1.9989 z M 838.74805,861.11456 c -8.33643,3.99795 -15.33766,7.08023 -21.00373,9.24683 -3.00091,1.1649 -5.91788,1.08097 -8.75091,-0.25177 -2.83306,-1.33246 -4.83196,-3.4992 -5.99671,-6.50025 -1.16985,-2.83289 -1.0465,-5.66594 0.37003,-8.49914 1.41651,-2.83289 3.54384,-4.83179 6.38199,-5.9967 20.66545,-8.00052 38.74709,-18.25188 54.24499,-30.75409 6.33232,-4.83175 12.58333,-5.08098 18.75306,-0.74768 2.49726,1.83124 3.87182,4.20526 4.12368,7.12204 0.25168,2.91715 -0.78973,5.37509 -3.12423,7.3738 -4.33359,3.50462 -8.91631,7.08789 -13.74817,10.74982 -1.16992,0.83432 -1.75484,1.91769 -1.75476,3.25012 l 0,21.2555 c -8e-5,3.8301 -1.37464,7.07894 -4.12369,9.74655 -2.7492,2.66788 -5.95735,4.00175 -9.62448,4.00162 -3.66726,1.3e-4 -6.87541,-1.33374 -9.62448,-4.00162 -2.74918,-2.66761 -4.12374,-5.91645 -4.12369,-9.74655 l 0,-5.00489 c -5e-5,-1.50029 -0.66635,-1.91482 -1.9989,-1.24359 z m 145.74432,-2.00653 c 6.83574,-0.1626 11.41973,-0.57841 13.75198,-1.2474 2.33185,-0.66869 3.91495,-2.33571 4.74935,-5.00107 1.0017,-3.66703 2.8353,-6.62469 5.5007,-8.87299 2.665,-2.24795 5.6659,-3.12279 9.0027,-2.62451 3.667,0.49863 6.7086,2.20634 9.1248,5.12314 2.4157,2.91714 3.2906,6.12529 2.6245,9.62448 -1.5007,9.16559 -4.5842,15.16611 -9.2506,18.00156 -4.6669,2.83572 -13.1673,4.41882 -25.50129,4.74929 -6.3326,0.16799 -16.16688,0.25191 -29.50287,0.25177 -13.66695,1.4e-4 -23.41476,-0.0838 -29.24347,-0.25177 -12.83786,-0.16771 -21.04835,-1.08451 -24.6315,-2.75039 -3.58339,-1.66561 -5.37502,-4.99838 -5.37491,-9.99832 l 0,-40.25269 c -1.1e-4,-3.82976 1.2918,-7.03665 3.87573,-9.62067 2.5837,-2.58362 5.79313,-3.87553 9.6283,-3.87573 l 1.50299,0 c 3.16352,2e-4 5.91265,1.16623 8.24737,3.49808 2.33446,2.33225 3.50176,5.16656 3.5019,8.50296 -1.4e-4,0.9971 0.66616,1.49555 1.9989,1.49536 23.83406,-2.49716 49.41794,-6.57889 76.75175,-12.24518 2.8328,-0.6661 5.5819,-0.2503 8.2473,1.24741 2.665,1.4981 4.4986,3.66357 5.5008,6.49643 0.8339,2.67048 0.5834,5.2136 -0.7515,7.62939 -1.3353,2.41616 -3.3355,3.87337 -6.0005,4.37165 -26.16901,4.99997 -54.00101,9.08423 -83.49608,12.2528 -1.50059,0.33078 -2.25081,1.16492 -2.25067,2.50244 l 0,5.49317 c -1.4e-4,2.5026 0.49958,4.00432 1.49917,4.50516 0.99931,0.50115 4.08285,0.83303 9.25064,0.99563 l 20.74433,0 z"
         id="path2819"
         style="font-family:'Rounded M+ 1m medium';-inkscape-font-specification:'Rounded M+ 1m medium,'" />
      <path
         d="m 1344.2488,847.11462 c -5.3355,6.83101 -10.9202,13.07948 -16.7541,18.74543 -2.4974,2.33474 -5.497,3.41811 -8.9989,3.25012 -3.5019,-0.1677 -6.5015,-1.41638 -8.9989,-3.74603 -2.3346,-2.33445 -3.4599,-5.1268 -3.376,-8.37708 0.084,-3.24996 1.2932,-6.04232 3.6278,-8.37707 9.6639,-9.66373 17.746,-20.24569 24.2462,-31.74592 1.831,-3.33638 4.3716,-5.7549 7.6218,-7.25555 3.2501,-1.50024 6.7087,-1.91731 10.376,-1.25122 l 0.7553,0 c 3.1636,0.67159 5.4537,2.42381 6.8703,5.25665 1.4164,2.83325 1.4584,5.66629 0.1258,8.49915 -0.3306,0.9971 0,1.49555 0.9995,1.49536 l 45.7535,0 c 3.8298,1.9e-4 7.1626,1.41671 9.9983,4.24957 2.8355,2.83323 4.2533,6.16728 4.2534,10.00214 l 0,2.25067 c -10e-5,0.33587 0.2071,0.58636 0.6218,0.7515 0.4144,0.16547 0.7056,0.1642 0.8735,-0.004 7.5021,-6.99852 14.1702,-15.08058 20.0043,-24.24622 1.9988,-3.16854 4.7059,-5.50313 8.1215,-7.00378 3.4153,-1.50024 6.8727,-1.91731 10.3722,-1.25122 l 0.5035,0 c 3.1686,0.67159 5.4612,2.42381 6.8779,5.25665 1.4164,2.83325 1.3744,5.66629 -0.1259,8.49915 -0.6665,0.9971 -0.3333,1.49555 0.9995,1.49536 l 49.4995,0 c 3.0006,1.9e-4 5.5845,1.08356 7.7514,3.25012 2.1666,2.16693 3.2499,4.75075 3.2502,7.75147 -3e-4,3.00107 -1.0836,5.58489 -3.2502,7.75146 -2.1669,2.16692 -4.7508,3.25029 -7.7514,3.25012 l -24.2539,0 c -1.5006,1.7e-4 -1.9177,0.66647 -1.2512,1.9989 0.3355,0.83432 0.7945,2.0423 1.3771,3.62397 0.5822,1.58199 0.9573,2.54075 1.1254,2.87628 1.1696,3.1689 0.9623,6.33636 -0.6218,9.50241 -1.5846,3.16635 -4.0425,5.2479 -7.3738,6.24466 -3.5047,1.00214 -6.84,0.67026 -10.006,-0.99564 -3.1664,-1.6656 -5.4158,-4.16677 -6.7482,-7.50351 -2.3348,-6.33224 -4.1684,-11.08026 -5.5008,-14.24408 -0.4986,-1.00182 -1.4981,-1.50282 -2.9983,-1.50299 l -8.2474,0 c -1.3328,1.7e-4 -2.5001,0.50117 -3.5019,1.50299 -5.1678,5.99687 -11.167,11.82826 -17.9978,17.49421 -1.1699,1.16998 -1.7549,2.4212 -1.7547,3.75366 l 0,6.75201 c -2e-4,1.4955 0.7501,2.24318 2.2507,2.24304 l 67.0013,0 c 2.665,1.4e-4 4.9983,0.9589 7,2.87629 2.0012,1.91765 3.0019,4.29293 3.0021,7.12585 -2e-4,2.83317 -1.0009,5.20845 -3.0021,7.12585 -2.0017,1.91764 -4.335,2.8764 -7,2.87629 l -67.0013,0 c -1.5006,1.1e-4 -2.2509,0.75034 -2.2507,2.25067 l 0,13.74817 c -2e-4,1.50054 0.7501,2.25077 2.2507,2.25067 l 83.9996,0 c 3.1685,1e-4 5.8362,1.08347 8.0032,3.25012 2.1665,2.16684 3.2499,4.83331 3.2501,7.99942 -2e-4,3.16628 -1.0836,5.83275 -3.2501,7.99942 -2.167,2.16683 -4.8347,3.2502 -8.0032,3.25012 l -28.9993,0 c -1.5007,8e-5 -2.2509,0.66638 -2.2507,1.9989 l 0,12.00104 c -2e-4,1.50051 0.75,2.25073 2.2507,2.25067 l 29.5028,0 c 2.8329,6e-5 5.3327,1.04147 7.4997,3.12424 2.1665,2.08288 3.2499,4.54081 3.2501,7.37381 -2e-4,2.83309 -1.0836,5.33299 -3.2501,7.49969 -2.167,2.16679 -4.6668,3.25016 -7.4997,3.25013 l -29.5028,0 c -1.5007,3e-5 -2.2509,0.66633 -2.2507,1.9989 l 0,23.50619 c -2e-4,5.8288 -0.083,10.3683 -0.248,13.6184 -0.1655,3.2501 -0.7898,6.293 -1.873,9.1286 -1.0835,2.8356 -2.2928,4.8357 -3.6278,6.0005 -1.3353,1.1647 -3.6686,2.2062 -6.9999,3.1242 -3.3317,0.9181 -6.7891,1.4598 -10.3722,1.6251 -3.5834,0.1653 -8.6252,0.2479 -15.1253,0.248 -6.3325,-10e-5 -17.1662,-0.2493 -32.5012,-0.7477 -3.1688,-0.1679 -5.8773,-1.3771 -8.1253,-3.6278 -2.2482,-2.2507 -3.4562,-4.9578 -3.624,-8.1215 -0.1679,-3.0009 0.8315,-5.5847 2.9984,-7.7514 2.1666,-2.1668 4.7505,-3.1662 7.7515,-2.9984 13.6666,0.4985 23.417,0.7477 29.2511,0.7477 7.497,0 11.8711,-0.4997 13.1225,-1.4992 1.2511,-0.9994 1.8767,-4.4161 1.8769,-10.2501 l 0,-23.00259 c -2e-4,-1.33257 -0.7504,-1.99887 -2.2507,-1.9989 l -97.9996,0 c -0.3357,0.16788 -0.5036,0.41965 -0.5035,0.75531 12.6698,6.83088 23.6713,13.16327 33.0047,18.99719 2.9957,1.83107 4.8281,4.45558 5.497,7.87349 0.6687,3.418 0.086,6.5435 -1.7471,9.3766 -1.8337,2.833 -4.4595,4.6246 -7.8774,5.3749 -3.418,0.7502 -6.5435,0.2072 -9.3765,-1.6289 -8.8349,-5.6661 -18.4174,-11.3322 -28.7476,-16.99829 -3.3366,-1.83104 -5.5046,-4.62212 -6.504,-8.37326 -0.9995,-3.75109 -0.4998,-7.20848 1.4992,-10.37216 l 2.2506,-3.25012 c 0.3357,-0.33566 0.3789,-0.71204 0.1297,-1.12915 -0.2492,-0.41704 -0.6256,-0.62558 -1.1291,-0.62561 l -27.9999,0 c -2.8331,3e-5 -5.333,-1.08334 -7.4997,-3.25013 -2.1668,-2.1667 -3.2501,-4.6666 -3.2501,-7.49969 0,-2.833 1.0833,-5.29093 3.2501,-7.37381 2.1667,-2.08277 4.6666,-3.12418 7.4997,-3.12424 l 139.5035,0 c 1.5003,6e-5 2.2505,-0.75016 2.2507,-2.25067 l 0,-12.00104 c -2e-4,-1.33252 -0.7504,-1.99882 -2.2507,-1.9989 l -139,0 c -3.1687,8e-5 -5.8365,-1.08329 -8.0032,-3.25012 -2.1668,-2.16667 -3.2501,-4.83314 -3.2501,-7.99942 0,-3.16611 1.0833,-5.83258 3.2501,-7.99942 2.1667,-2.16665 4.8345,-3.25002 8.0032,-3.25012 l 83.9997,0 c 1.5003,1e-4 2.2505,-0.75013 2.2506,-2.25067 l 0,-13.74817 c -1e-4,-1.50033 -0.7503,-2.25056 -2.2506,-2.25067 l -67.0014,0 c -2.6652,1.1e-4 -4.9985,-0.95865 -6.9999,-2.87629 -2.0015,-1.9174 -3.0022,-4.29268 -3.0022,-7.12585 0,-2.83292 1.0007,-5.2082 3.0022,-7.12585 2.0014,-1.91739 4.3347,-2.87615 6.9999,-2.87629 l 67.0014,0 c 1.5003,1.4e-4 2.2505,-0.66616 2.2506,-1.9989 l 0,-0.74768 c -1e-4,-3.66705 1.2918,-6.83325 3.8758,-9.49859 2.5837,-2.66505 5.7906,-3.99765 9.6206,-3.99781 l 0.5036,0 c 0.3305,1.6e-4 0.5377,-0.16769 0.6218,-0.50354 0.084,-0.33554 0.042,-0.58476 -0.1259,-0.74768 l -1.9989,-1.75476 c -1.6684,-1.66305 -2.4606,-3.66195 -2.3766,-5.9967 0.084,-2.33443 1.0439,-4.25195 2.8801,-5.75257 -10e-5,-0.33044 -0.084,-0.57966 -0.2517,-0.74768 l -30.5024,0 c -1.5005,1.7e-4 -1.9176,0.66647 -1.2512,1.9989 0.3356,0.83432 0.7947,2.0423 1.3771,3.62397 0.5823,1.58199 0.9574,2.54075 1.1254,2.87628 1.1646,3.1689 0.9561,6.33636 -0.6256,9.50241 -1.582,3.16635 -4.0412,5.2479 -7.3777,6.24466 -3.4994,1.00214 -6.8322,0.67026 -9.9983,-0.99564 -3.1663,-1.6656 -5.4157,-4.16677 -6.7482,-7.50351 -2.3347,-6.33224 -4.1682,-11.08026 -5.5008,-14.24408 -0.4985,-1.00182 -1.4979,-1.50282 -2.9983,-1.50299 l -6.0044,0 c -1.3326,1.7e-4 -2.4135,0.50117 -3.2425,1.50299 z"
         id="path2821"
         style="font-family:'Rounded M+ 1m medium';-inkscape-font-specification:'Rounded M+ 1m medium,'" />
    </g>
  </g>
</svg>
