<?xml version="1.0" encoding="UTF-8" standalone="no"?>
<!-- Created with Inkscape (http://www.inkscape.org/) -->

<svg
   xmlns:svg="http://www.w3.org/2000/svg"
   xmlns="http://www.w3.org/2000/svg"
   version="1.2"
   width="600"
   height="202.5"
   id="svg1890">
  <path
     d="m 54.34375,11.21875 c -1.724798,7.83e-4 -3.416587,0.97634 -4.28125,2.46875 L 0.9375,98.78125 c -0.85926495,1.4935 -0.85926495,3.44399 0,4.9375 l 49.125,85.09375 c 0.864663,1.49241 2.556452,2.46797 4.28125,2.46875 l 491.28125,0 c 1.7248,-7.8e-4 3.41659,-0.97634 4.28125,-2.46875 l 49.125,-85.09375 c 0.85926,-1.49351 0.85926,-3.44399 0,-4.9375 l -49.125,-85.09375 c -0.86466,-1.49241 -2.55645,-2.467967 -4.28125,-2.46875 l -491.28125,0 z"
     id="path4156"
     style="fill:#ffffff;fill-opacity:1;fill-rule:nonzero;" />
  <path
     d="m 56.46875,15 c -1.685112,7.37e-4 -3.338346,0.950729 -4.1875,2.40625 l -47,81.40625 c -0.8555934,1.47199 -0.8555934,3.40301 0,4.875 l 47,81.40625 c 0.849154,1.45552 2.502388,2.40551 4.1875,2.40625 l 487.03125,0 c 1.68511,-7.4e-4 3.33835,-0.95073 4.1875,-2.40625 l 47,-81.40625 c 0.8556,-1.47199 0.8556,-3.40302 0,-4.875 l -47,-81.40625 C 546.83835,15.950729 545.18511,15.000737 543.5,15 L 56.46875,15 z"
     id="path4156"
     style="fill:#0066b3;fill-opacity:1;fill-rule:nonzero;" />
  <path
     d="m 86.375,24.4375 c -3.6575,0 -5.3921,2.481559 -6.625,6.6875 L 58.90625,94.90625 C 58.03155,97.745946 57.1653,100.61783 59,106.75 l 20.75,64.625 c 0.6165,3.70033 2.9676,6.6875 6.625,6.6875 l 427.25,0 c 3.65746,0 5.97729,-2.98717 6.59375,-6.6875 l 20.75,-64.625 c 1.83469,-6.13217 0.99996,-9.004054 0.125,-11.84375 L 520.21875,31.125 c -1.23292,-4.205941 -2.93629,-6.6875 -6.59375,-6.6875 l -427.25,0 z"
     id="rect3644"
     style="fill:#fed40e;fill-opacity:1;fill-rule:nonzero;" />
  <path
     d="m 176.80029,0 -88.400144,153.11355 -176.800292,0 L -176.80029,0 l 88.400144,-153.11355 176.800292,0 L 176.80029,0 z"
     transform="matrix(0.63050298,0,0,0.63050298,301.05107,101.40019)"
     id="path3610"
     style="color:#000000;fill:#0066b3;fill-opacity:1;fill-rule:nonzero;stroke:#ffffff;stroke-width:16.16934204;stroke-linecap:round;stroke-linejoin:round;stroke-miterlimit:4;stroke-opacity:1;stroke-dasharray:none;stroke-dashoffset:261;marker:none;visibility:visible;display:inline;overflow:visible;enable-background:accumulate" />
  <g id="text3">
    <path
        d="m 255.94527,135.69164 -7.41487,0 0,-63.470578 c -4.64119,1.898125 -9.5295,3.501659 -14.66497,4.810607 l -1.3594,-6.823209 c 7.35993,-2.192522 13.60765,-4.794176 18.74315,-7.804968 l 4.69609,0 z"
       style="stroke-width:5;stroke-miterlimit:4;stroke-opacity:1;fill:#ffffff;stroke:#ffffff"
       id="path100" />
    <path
        d="m 273.74096,118.46181 -9.96888,0 0,17.22983 -6.75578,0 0,-17.22983 -30.9365,0 0,-8.0504 29.74189,-47.222512 7.95039,0 0,47.811552 9.96888,0 z m -16.31272,-46.338924 -0.24716,0 c -2.44419,4.712492 -4.88836,9.032218 -7.33249,12.95919 l -16.35391,25.918374 23.52162,0 0,-23.709421 c -3e-5,-3.436096 0.13728,-8.492139 0.41194,-15.168143 z"
       style="stroke-width:5;stroke-miterlimit:4;stroke-opacity:1;fill:#ffffff;stroke:#ffffff"
       transform="translate(53.22231,0)"
       id="path10" />
    <path
        d="m 271.72247,135.69164 -42.34716,0 0,-8.34493 c 3.32295,-9.2285 9.6805,-17.65524 19.0727,-25.28024 l 2.34804,-1.86534 c 4.8059,-3.926986 7.96409,-6.986792 9.47456,-9.179425 1.7301,-2.55252 2.59516,-5.366886 2.59521,-8.443109 -5e-5,-3.403367 -1.01615,-6.315909 -3.04834,-8.737636 -2.25196,-2.683403 -5.20418,-4.025136 -8.85666,-4.025203 -7.3325,6.7e-5 -12.13843,4.859758 -14.4178,14.579089 l -6.50862,-2.798007 c 3.13072,-12.762771 10.2435,-19.144184 21.33836,-19.144259 6.06918,7.5e-5 10.90257,2.143575 14.5002,6.430507 3.15814,3.861642 4.73723,8.524982 4.73728,13.990036 -5e-5,4.057978 -1.01616,7.739563 -3.04833,11.044764 -1.8675,3.207112 -6.16537,7.314123 -12.89365,12.321053 l -1.77133,1.27628 c -8.56832,6.31599 -14.07454,13.05739 -16.51869,20.2242 l 35.34423,0 z"
       style="stroke-width:5;stroke-miterlimit:4;stroke-opacity:1;fill:#ffffff;stroke:#ffffff"
       transform="translate(106.44462,0)"
       id="path1" />
</g></svg>
