<?xml version="1.0" encoding="UTF-8" standalone="no"?>
<!-- Created with Inkscape (http://www.inkscape.org/) -->

<svg
   xmlns:svg="http://www.w3.org/2000/svg"
   xmlns="http://www.w3.org/2000/svg"
   version="1.0"
   width="337.5"
   height="225"
   id="svg1890">
  <defs
     id="defs1893" />
  <rect
     width="335"
     height="222.5"
     rx="15"
     ry="15"
     x="1.25"
     y="1.25"
     id="rect2385"
     style="fill:#0066b3;fill-opacity:1;fill-rule:evenodd;stroke:#0066b3;stroke-width:2.5;stroke-linecap:butt;stroke-linejoin:round;stroke-miterlimit:4;stroke-opacity:1;stroke-dasharray:none;stroke-dashoffset:0;marker:none;visibility:visible;display:inline;overflow:visible;enable-background:accumulate" />
  <rect
     width="277.5"
     height="165"
     rx="15"
     ry="15"
     x="30"
     y="30"
     id="rect3157"
     style="fill:#ffffff;fill-opacity:1;fill-rule:evenodd;stroke:none;stroke-width:1.25;marker:none;visibility:visible;display:inline;overflow:visible;enable-background:accumulate" />
  <g
     transform="matrix(0.90682889,0,0,1,3.5734836,12.134671)"
     id="g2852"
     style="fill:#0066b3;fill-opacity:1">
    <path
       d="m 131.78932,82.945173 c 2.4824,2e-6 4.18522,-0.461355 5.10847,-1.384072 0.9232,-0.92271 1.4012,-2.642685 1.434,-5.15993 -3e-5,-0.302101 -0.13418,-0.503336 -0.40247,-0.603707 -1.94582,-0.838729 -3.82504,-1.258097 -5.63767,-1.258107 -2.21413,1e-5 -3.81633,0.318761 -4.80662,0.956253 -0.99032,0.637512 -1.48547,1.610662 -1.48546,2.919455 -1e-5,1.442962 0.50333,2.558719 1.51004,3.347272 1.00667,0.78856 2.43324,1.182838 4.27971,1.182836 z m 6.54247,-23.607564 0,-4.631494 c -3e-5,-0.302079 -0.13418,-0.453134 -0.40247,-0.453164 l -17.71796,0 c -0.63803,3e-5 -1.17517,-0.218103 -1.61143,-0.654401 -0.43627,-0.436235 -0.6544,-0.973119 -0.6544,-1.610654 0,-0.637469 0.21813,-1.174353 0.6544,-1.610654 0.43626,-0.436232 0.9734,-0.654365 1.61143,-0.6544 l 17.71796,0 c 0.26829,3.5e-5 0.40244,-0.15102 0.40247,-0.453164 l 0,-2.314979 c -3e-5,-0.704543 0.24345,-1.300057 0.73044,-1.786544 0.48693,-0.486407 1.0827,-0.729631 1.78731,-0.729671 0.70455,4e-5 1.30007,0.243264 1.78654,0.729671 0.48642,0.486487 0.72964,1.082001 0.72968,1.786544 l 0,2.314979 c -4e-5,0.302144 0.13412,0.453199 0.40247,0.453164 l 10.67164,0 c 0.63797,3.5e-5 1.17511,0.218168 1.61142,0.6544 0.43622,0.436301 0.65435,0.973185 0.6544,1.610654 -5e-5,0.637535 -0.21818,1.174419 -0.6544,1.610654 -0.43631,0.436298 -0.97345,0.654431 -1.61142,0.654401 l -10.67164,0 c -0.26835,3e-5 -0.40251,0.151085 -0.40247,0.453164 l 0,4.631494 c -4e-5,0.302135 0.13412,0.45319 0.40247,0.453165 l 8.90967,0 c 0.63797,2.5e-5 1.17511,0.218158 1.61142,0.6544 0.43623,0.436291 0.65436,0.973175 0.6544,1.610654 -4e-5,0.637525 -0.21817,1.174409 -0.6544,1.610654 -0.43631,0.436287 -0.97345,0.654421 -1.61142,0.6544 l -8.90967,0 c -0.26835,2.1e-5 -0.40251,0.151075 -0.40247,0.453165 l 0,8.255273 c -4e-5,0.302121 0.11774,0.520255 0.35331,0.654401 3.25456,1.879233 6.62692,4.295084 10.11709,7.247559 0.50279,0.43627 0.7711,0.981603 0.80494,1.636 0.0337,0.654402 -0.16748,1.233274 -0.60371,1.736619 -0.4363,0.503345 -0.99009,0.771915 -1.66134,0.805711 -0.67134,0.03379 -1.2584,-0.167441 -1.7612,-0.603708 -2.55107,-2.181331 -4.88346,-4.010373 -6.99717,-5.48713 -0.23455,-0.167947 -0.3856,-0.117254 -0.45316,0.152079 -0.4025,2.952484 -1.50136,5.074674 -3.29658,6.366577 -1.79527,1.2919 -4.48814,1.937851 -8.07862,1.937854 -3.42358,-3e-6 -6.12515,-0.805201 -8.10473,-2.415597 -1.97959,-1.610397 -2.96938,-3.825268 -2.96938,-6.64462 0,-2.44964 0.88072,-4.463019 2.64218,-6.040145 1.76144,-1.577101 4.57208,-2.365657 8.43193,-2.365672 2.01336,1.5e-5 4.04313,0.335407 6.08931,1.006179 0.30208,0.0676 0.45313,-0.01637 0.45316,-0.251929 l 0,-5.989451 c -3e-5,-0.30209 -0.13418,-0.453144 -0.40247,-0.453165 l -15.956,0 c -0.63802,2.1e-5 -1.17516,-0.218113 -1.61142,-0.6544 -0.43628,-0.436245 -0.65441,-0.973129 -0.6544,-1.610654 -10e-6,-0.637479 0.21812,-1.174363 0.6544,-1.610654 0.43626,-0.436242 0.9734,-0.654375 1.61142,-0.6544 l 15.956,0 c 0.26829,2.5e-5 0.40244,-0.15103 0.40247,-0.453165 z"
       id="path2840"
       style="font-size:50.336586px;font-style:normal;font-weight:normal;text-align:center;text-anchor:middle;fill:#0066b3;fill-opacity:1;stroke:none;font-family:'Rounded M+ 1m medium';-inkscape-font-specification:'Rounded M+ 1m medium'" />
    <path
       d="m 172.33616,69.655934 c -1.40918,1.610923 -3.42256,3.960207 -6.04015,7.047859 -0.43627,0.502841 -0.9816,0.779604 -1.636,0.830289 -0.6544,0.0507 -1.21663,-0.142086 -1.68669,-0.57836 -0.50284,-0.436259 -0.77934,-0.990041 -0.82952,-1.661347 -0.0502,-0.671288 0.14286,-1.275251 0.57913,-1.81189 3.62326,-4.396448 6.81077,-8.037633 9.56254,-10.923568 0.20173,-0.201725 0.3026,-0.436756 0.30262,-0.705093 l 0,-4.428722 c -2e-5,-0.268287 -0.13417,-0.402444 -0.40247,-0.402472 l -7.75142,0 c -0.57043,2.8e-5 -1.07378,-0.209912 -1.51004,-0.629822 -0.43627,-0.419852 -0.6544,-0.915004 -0.6544,-1.485457 0,-0.570394 0.21813,-1.073739 0.6544,-1.510036 0.43626,-0.436235 0.93961,-0.654369 1.51004,-0.654401 l 7.75142,0 c 0.2683,3.2e-5 0.40245,-0.151022 0.40247,-0.453164 l 0,-4.93258 c -2e-5,-0.670748 0.23501,-1.241171 0.70509,-1.711272 0.47005,-0.470022 1.04047,-0.705053 1.71127,-0.705093 0.63698,4e-5 1.1905,0.235071 1.66058,0.705093 0.47004,0.470101 0.70507,1.040524 0.70509,1.711272 l 0,9.816003 c -2e-5,0.06659 0.042,0.125224 0.12597,0.175889 0.084,0.05072 0.14284,0.04227 0.17666,-0.02535 2.88589,-2.54998 5.4446,-4.328329 7.67614,-5.335052 2.23149,-1.006657 4.43791,-1.510002 6.61927,-1.510036 4.36263,3.4e-5 7.59264,1.426093 9.69004,4.27818 2.09732,2.852147 3.14599,7.382251 3.14604,13.590325 -5e-5,5.403165 -1.27531,9.606581 -3.82578,12.610261 -2.55057,3.003688 -5.97336,4.505529 -10.2684,4.50553 -1.98064,-10e-7 -3.94384,-0.335905 -5.88961,-1.007715 -0.60424,-0.234518 -1.04051,-0.662336 -1.3088,-1.283454 -0.26833,-0.621114 -0.28523,-1.250167 -0.0507,-1.887161 0.2345,-0.604215 0.64542,-1.032289 1.23276,-1.284222 0.5873,-0.251923 1.18307,-0.293912 1.78731,-0.125964 1.57709,0.470066 2.98676,0.705097 4.22903,0.705093 2.78449,4e-6 4.97376,-1.048674 6.56781,-3.146036 1.59397,-2.097349 2.39098,-5.126123 2.39102,-9.086332 -4e-5,-4.697528 -0.6209,-8.027899 -1.86259,-9.991124 -1.24176,-1.963172 -3.27178,-2.944772 -6.09006,-2.944801 -1.81269,2.9e-5 -3.80124,0.62089 -5.96565,1.862583 -2.16446,1.241748 -4.85707,3.473517 -8.07784,6.695313 -0.20177,0.200744 -0.30265,0.45216 -0.30263,0.75425 l 0,20.587491 c -2e-5,0.671809 -0.23505,1.242488 -0.70509,1.71204 -0.47008,0.469548 -1.0236,0.704322 -1.66058,0.704325 -0.6708,-3e-6 -1.24122,-0.234777 -1.71127,-0.704325 -0.47008,-0.469552 -0.70511,-1.040231 -0.70509,-1.71204 l 0,-15.502833 c -2e-5,-0.06758 -0.0336,-0.118012 -0.10062,-0.15131 -0.0671,-0.03327 -0.11753,-0.03352 -0.15131,-7.68e-4 z"
       id="path2842"
       style="font-size:50.336586px;font-style:normal;font-weight:normal;text-align:center;text-anchor:middle;fill:#0066b3;fill-opacity:1;stroke:none;font-family:'Rounded M+ 1m medium';-inkscape-font-specification:'Rounded M+ 1m medium'" />
    <path
       d="m 234.27696,52.490986 c -3.28841,3.2e-5 -6.39246,1.61094 -9.31214,4.83273 -2.91973,3.221844 -4.73187,7.249115 -5.43644,12.081825 -0.10038,0.704596 -0.41068,1.291661 -0.93091,1.761197 -0.52025,0.469563 -1.13267,0.704338 -1.83723,0.704325 -0.7046,1.3e-5 -1.29192,-0.243211 -1.76197,-0.729672 -0.47007,-0.486433 -0.7051,-1.081947 -0.70509,-1.786543 l 0,-20.337099 c -1e-5,-0.704545 0.25166,-1.308507 0.75502,-1.81189 0.50333,-0.503307 1.10755,-0.75498 1.81265,-0.755018 0.70508,3.8e-5 1.3093,0.243518 1.81266,0.73044 0.50333,0.486997 0.75501,1.082766 0.75502,1.787311 l 0,8.657745 c -1e-5,0.06659 0.0164,0.09988 0.0492,0.09985 0.0676,2.7e-5 0.10137,-0.01636 0.10138,-0.04916 1.77885,-3.322151 3.96863,-5.855773 6.56935,-7.600873 2.60068,-1.745031 5.47814,-2.617564 8.6324,-2.617601 4.02673,3.7e-5 7.17276,1.426096 9.43811,4.27818 2.26527,2.85215 3.39792,6.878909 3.39797,12.080289 -5e-5,7.752453 -2.0974,13.516085 -6.29208,17.290912 -4.19475,3.774834 -10.78892,5.796918 -19.78255,6.066259 -0.63803,0.03277 -1.20871,-0.18562 -1.71204,-0.655168 -0.50336,-0.469552 -0.77141,-1.039719 -0.80417,-1.710504 -0.0338,-0.638014 0.16742,-1.192052 0.60371,-1.662115 0.43625,-0.47006 0.98977,-0.721477 1.66057,-0.75425 7.45031,-0.235541 12.77768,-1.81291 15.98212,-4.732112 3.20437,-2.919189 4.80657,-7.533525 4.80661,-13.843022 -4e-5,-3.724629 -0.67108,-6.543463 -2.01312,-8.45651 -1.34212,-1.912988 -3.27178,-2.869497 -5.78899,-2.869529 z"
       id="path2844"
       style="font-size:50.336586px;font-style:normal;font-weight:normal;text-align:center;text-anchor:middle;fill:#0066b3;fill-opacity:1;stroke:none;font-family:'Rounded M+ 1m medium';-inkscape-font-specification:'Rounded M+ 1m medium'" />
    <path
       d="m 255.29472,46.70277 c 0.50283,-0.436229 1.09834,-0.637464 1.78654,-0.603707 0.68819,0.03383 1.26732,0.28525 1.73739,0.75425 1.54331,1.610946 3.27148,3.473783 5.18451,5.588516 0.43625,0.46907 0.6293,1.030788 0.57913,1.685157 -0.0502,0.65443 -0.31032,1.199763 -0.78037,1.636001 -0.50387,0.436295 -1.07455,0.620889 -1.71204,0.553782 -0.63751,-0.06705 -1.17439,-0.335108 -1.61065,-0.804175 -1.17465,-1.275999 -2.93662,-3.121938 -5.2859,-5.537823 -0.43627,-0.470027 -0.64595,-1.023809 -0.62905,-1.661347 0.0169,-0.637466 0.26037,-1.17435 0.73044,-1.610654 z m 7.29825,36.746261 c -1.44296,1.442957 -3.12044,2.869015 -5.03243,4.278179 -0.53766,0.402468 -1.14187,0.528177 -1.81265,0.377125 -0.67079,-0.151058 -1.17414,-0.528182 -1.51004,-1.131375 -0.33591,-0.638016 -0.41988,-1.30112 -0.25193,-1.989315 0.16795,-0.688195 0.55404,-1.250426 1.15826,-1.686693 1.37536,-0.972893 2.8516,-2.180819 4.42872,-3.62378 0.16794,-0.134152 0.25192,-0.352285 0.25193,-0.6544 l 0,-11.375196 c -1e-5,-0.302092 -0.13417,-0.453147 -0.40247,-0.453164 l -3.47324,0 c -0.63802,1.7e-5 -1.17516,-0.209667 -1.61142,-0.629054 -0.43627,-0.419351 -0.6544,-0.948042 -0.6544,-1.586076 0,-0.637994 0.21813,-1.183327 0.6544,-1.636 0.43626,-0.452631 0.9734,-0.678957 1.61142,-0.678979 l 6.19069,0 c 0.77216,2.2e-5 1.44346,0.285234 2.01389,0.855636 0.57041,0.570445 0.85562,1.24123 0.85564,2.012358 l 0,12.38291 c -2e-5,0.268321 0.084,0.537147 0.25193,0.806479 0.83872,1.375372 1.8874,2.407152 3.14603,3.095344 1.2586,0.688198 3.12963,1.191543 5.6131,1.510036 2.48342,0.318497 6.02373,0.477744 10.62094,0.477743 l 11.92975,0 c 0.60417,10e-7 1.12442,0.235032 1.56073,0.705093 0.43622,0.470062 0.63745,1.007202 0.60371,1.611422 -0.0338,0.636989 -0.28578,1.165168 -0.75579,1.58454 -0.47011,0.419366 -1.02363,0.62905 -1.66058,0.629054 l -11.92975,0 c -6.17432,-4e-6 -10.84729,-0.352294 -14.01891,-1.056872 -3.17165,-0.704583 -5.56241,-1.962689 -7.17228,-3.774322 -0.20176,-0.235542 -0.40351,-0.25244 -0.60525,-0.05069 z m 29.85048,-37.09804 c -0.10142,0.200762 -0.24429,0.485718 -0.42858,0.854868 -0.18438,0.369226 -0.32673,0.654693 -0.42705,0.856404 -0.0676,0.0666 -0.0763,0.150323 -0.0261,0.251161 0.0501,0.10091 0.12593,0.151347 0.22735,0.151311 l 4.88189,0 c 0.60417,3.6e-5 1.11597,0.218169 1.53538,0.6544 0.41932,0.436302 0.62901,0.956544 0.62906,1.560729 -5e-5,0.604253 -0.20974,1.124495 -0.62906,1.560729 -0.41941,0.436299 -0.93121,0.654432 -1.53538,0.6544 l -11.3752,0 c -0.30214,3.2e-5 -0.48699,0.134189 -0.55455,0.402472 -0.20075,1.006721 -0.36819,1.745097 -0.50232,2.215129 -0.0676,0.268343 0.0327,0.4025 0.30109,0.402472 l 8.96036,0 c 0.77213,2.8e-5 1.44343,0.276791 2.0139,0.830289 0.57038,0.553554 0.85559,1.216402 0.85563,1.988547 l 0,18.97607 c -4e-5,0.772178 -0.28525,1.443475 -0.85563,2.013893 -0.57047,0.570429 -1.24177,0.85564 -2.0139,0.855636 l -19.78254,0 -2.31498,0 c -0.77219,4e-6 -1.44349,-0.285207 -2.0139,-0.855636 -0.57044,-0.570418 -0.85565,-1.241715 -0.85563,-2.013893 l 0,-18.97607 c -2e-5,-0.772145 0.28519,-1.434993 0.85563,-1.988547 0.57041,-0.553498 1.24171,-0.830261 2.0139,-0.830289 l 6.64385,0 c 0.30208,2.8e-5 0.48667,-0.134385 0.55378,-0.40324 0.067,-0.268797 0.15922,-0.654882 0.27651,-1.158258 0.11723,-0.503314 0.20965,-0.872246 0.27727,-1.106796 0.0676,-0.234487 -0.0497,-0.351747 -0.35178,-0.351779 l -11.07411,0 c -0.60423,3.2e-5 -1.12447,-0.218101 -1.56072,-0.6544 -0.43629,-0.436234 -0.65442,-0.956476 -0.6544,-1.560729 -2e-5,-0.604185 0.21811,-1.124427 0.6544,-1.560729 0.43625,-0.436231 0.95649,-0.654364 1.56072,-0.6544 l 5.08313,0 c 0.26829,3.6e-5 0.33537,-0.134121 0.20123,-0.402472 -0.10038,-0.234482 -0.26808,-0.553233 -0.50309,-0.956254 -0.23505,-0.402945 -0.38585,-0.654618 -0.45239,-0.755018 -0.30213,-0.537614 -0.32748,-1.091651 -0.076,-1.662115 0.25139,-0.570383 0.67921,-0.922673 1.28345,-1.056871 0.70456,-0.167912 1.4094,-0.109026 2.11451,0.176657 0.70507,0.285765 1.22506,0.747121 1.55996,1.384072 0.50384,0.838777 1.02408,1.812183 1.56073,2.920222 0.10034,0.234556 0.30157,0.351815 0.60371,0.351779 l 6.29207,0 c 0.26828,3.6e-5 0.48642,-0.134121 0.6544,-0.402472 0.50383,-0.906291 0.97389,-1.795722 1.41019,-2.668294 0.33484,-0.670745 0.82948,-1.182283 1.48392,-1.534614 0.65436,-0.352249 1.35075,-0.461316 2.08917,-0.3272 0.63797,0.134198 1.10803,0.494937 1.41018,1.082218 0.30207,0.587361 0.30207,1.166233 0,1.736618 z m -1.41018,29.899637 0,-2.467058 c -4e-5,-0.268303 -0.1342,-0.40246 -0.40247,-0.402471 l -16.51055,0 c -0.26834,1.1e-5 -0.4025,0.134168 -0.40247,0.402471 l 0,2.467058 c -3e-5,0.268323 0.13413,0.40248 0.40247,0.402472 l 16.51055,0 c 0.26827,8e-6 0.40243,-0.134149 0.40247,-0.402472 z m 0,-6.946473 0,-2.314979 c -4e-5,-0.268296 -0.1342,-0.402453 -0.40247,-0.402472 l -16.51055,0 c -0.26834,1.9e-5 -0.4025,0.134176 -0.40247,0.402472 l 0,2.314979 c -3e-5,0.268329 0.13413,0.402487 0.40247,0.402472 l 16.51055,0 c 0.26827,1.5e-5 0.40243,-0.134143 0.40247,-0.402472 z m 0,-6.795931 0,-2.164436 c -4e-5,-0.26829 -0.1342,-0.402447 -0.40247,-0.402471 l -16.51055,0 c -0.26834,2.4e-5 -0.4025,0.134181 -0.40247,0.402471 l 0,2.164436 c -3e-5,0.302132 0.13413,0.453187 0.40247,0.453165 l 16.51055,0 c 0.26827,2.2e-5 0.40243,-0.151033 0.40247,-0.453165 z"
       id="path2846"
       style="font-size:50.336586px;font-style:normal;font-weight:normal;text-align:center;text-anchor:middle;fill:#0066b3;fill-opacity:1;stroke:none;font-family:'Rounded M+ 1m medium';-inkscape-font-specification:'Rounded M+ 1m medium'" />
  </g>
  <g
     transform="scale(0.88286672,1.1326738)"
     id="text2858"
     style="font-size:52.97200394px;font-style:normal;font-weight:normal;text-align:center;text-anchor:middle;fill:#0066b3;fill-opacity:1;stroke:none;font-family:'Rounded M+ 1p medium';-inkscape-font-specification:'Rounded M+ 1p medium'">
    <path
       d="m 108.13229,123.22104 0,28.49864 c -1e-5,0.28237 0.14171,0.45912 0.42516,0.53024 1.20057,0.21232 2.47174,0.31847 3.81351,0.31847 4.94347,0 8.60717,-1.28033 10.99111,-3.84099 2.38388,-2.56065 3.57584,-6.48947 3.57587,-11.78647 -3e-5,-4.80228 -1.23591,-8.43069 -3.70762,-10.88522 -2.47177,-2.45447 -6.09156,-3.68172 -10.85936,-3.68175 -1.34177,3e-5 -2.61294,0.10565 -3.81351,0.31685 -0.28345,0.0712 -0.42517,0.2479 -0.42516,0.53023 z m 24.36829,13.71989 c -4e-5,6.70989 -1.73058,11.78648 -5.19164,15.22978 -3.46112,3.44331 -8.44044,5.16496 -14.93798,5.16496 -2.57792,0 -4.92626,-0.12394 -7.04505,-0.37181 -0.88265,-0.10562 -1.60661,-0.48497 -2.17187,-1.13807 -0.56527,-0.6531 -0.8479,-1.42151 -0.84789,-2.30524 l 0,-32.10037 c -1e-5,-0.88262 0.28262,-1.65076 0.84789,-2.30444 0.56526,-0.65359 1.28922,-1.03322 2.17187,-1.13887 2.11879,-0.24676 4.46713,-0.37016 7.04505,-0.3702 6.46197,4e-5 11.43241,1.66861 14.91131,5.00573 3.47884,3.33719 5.21827,8.11336 5.21831,14.32853 z"
       id="path2895" />
    <path
       d="m 161.44701,152.72681 c 0.45908,0.45911 0.68863,1.02411 0.68866,1.69498 -3e-5,0.67088 -0.22958,1.23588 -0.68866,1.69498 -0.45913,0.45911 -1.0244,0.68867 -1.69579,0.68867 l -17.90359,0 c -0.81261,0 -1.51905,-0.30015 -2.11934,-0.90044 -0.60029,-0.60029 -0.90043,-1.30673 -0.90043,-2.11933 l 0,-32.63061 c 0,-0.81257 0.30014,-1.51901 0.90043,-2.11934 0.60029,-0.60025 1.30673,-0.90039 2.11934,-0.90043 l 17.90359,0 c 0.67139,4e-5 1.23666,0.22959 1.69579,0.68866 0.45908,0.45915 0.68863,1.02441 0.68866,1.69579 -3e-5,0.67146 -0.22958,1.23645 -0.68866,1.69498 -0.45913,0.45861 -1.0244,0.68789 -1.69579,0.68786 l -14.67206,0 c -0.28345,3e-5 -0.42517,0.14175 -0.42515,0.42516 l 0,10.16988 c -2e-5,0.28239 0.1417,0.42357 0.42515,0.42355 l 13.7199,0 c 0.63475,2e-5 1.17307,0.22068 1.61496,0.66199 0.44184,0.44134 0.66277,0.97993 0.66279,1.61576 -2e-5,0.63588 -0.22095,1.17447 -0.66279,1.61577 -0.44189,0.44135 -0.98021,0.66201 -1.61496,0.66199 l -13.7199,0 c -0.28345,2e-5 -0.42517,0.1412 -0.42515,0.42355 l 0,12.71438 c -2e-5,0.28236 0.1417,0.42354 0.42515,0.42354 l 14.67206,0 c 0.67139,0 1.23666,0.22956 1.69579,0.68866 z"
       id="path2897" />
    <path
       d="m 180.3448,153.89236 0,-30.45955 c -2e-5,-0.28232 -0.1412,-0.42351 -0.42355,-0.42354 l -8.52906,0 c -0.67034,3e-5 -1.24396,-0.23841 -1.72085,-0.71533 -0.47689,-0.47686 -0.71533,-1.05074 -0.71533,-1.72166 0,-0.67084 0.23844,-1.24473 0.71533,-1.72165 0.47689,-0.47686 1.05051,-0.7153 1.72085,-0.71534 l 23.73136,0 c 0.67138,4e-5 1.24527,0.23848 1.72165,0.71534 0.47632,0.47692 0.7145,1.05081 0.71453,1.72165 -3e-5,0.67092 -0.23821,1.2448 -0.71453,1.72166 -0.47638,0.47692 -1.05027,0.71536 -1.72165,0.71533 l -8.47572,0 c -0.31795,3e-5 -0.47691,0.14122 -0.47689,0.42354 l 0,30.45955 c -2e-5,0.81153 -0.28238,1.49992 -0.84709,2.06518 -0.56474,0.56526 -1.2534,0.8479 -2.06598,0.8479 -0.81262,0 -1.50128,-0.28264 -2.06599,-0.8479 -0.56474,-0.56526 -0.8471,-1.25365 -0.84708,-2.06518 z"
       id="path2899" />
    <path
       d="m 231.16029,126.42672 c -2.40119,-2.70181 -5.57938,-4.05273 -9.53458,-4.05276 -3.95524,3e-5 -7.1337,1.35068 -9.53538,4.05195 -2.4017,2.70133 -3.60255,6.38281 -3.60254,11.04445 -1e-5,4.66169 1.20084,8.34344 3.60254,11.04527 2.40168,2.70184 5.58014,4.05276 9.53538,4.05276 3.9552,0 7.13339,-1.35092 9.53458,-4.05276 2.40112,-2.70183 3.6017,-6.38358 3.60173,-11.04527 -3e-5,-4.66164 -1.20061,-8.34286 -3.60173,-11.04364 z m 4.34374,25.50635 c -3.46059,3.60174 -8.08669,5.4026 -13.87832,5.4026 -5.79167,0 -10.41804,-1.80113 -13.87912,-5.40341 -3.4611,-3.60226 -5.19164,-8.42289 -5.19164,-14.4619 0,-6.03897 1.73054,-10.85932 5.19164,-14.46109 3.46108,-3.6017 8.08745,-5.40256 13.87912,-5.4026 5.79163,4e-5 10.41773,1.8009 13.87832,5.4026 3.46051,3.60177 5.19079,8.42212 5.19083,14.46109 -4e-5,6.03901 -1.73032,10.85991 -5.19083,14.46271 z"
       id="path2901" />
    <path
       d="m 271.89157,153.25705 c -2.5068,2.71908 -6.1088,4.07862 -10.80601,4.07862 -4.69725,0 -8.29951,-1.35981 -10.80682,-4.07943 -2.50731,-2.71962 -3.76097,-6.7457 -3.76096,-12.07826 l 0,-20.07627 c -10e-6,-0.81149 0.29152,-1.50877 0.87457,-2.09185 0.58304,-0.58301 1.28059,-0.87453 2.09265,-0.87457 0.81206,4e-5 1.50934,0.29156 2.09186,0.87457 0.58249,0.58308 0.87375,1.28036 0.87376,2.09185 l 0,20.34139 c -10e-6,7.34574 2.91359,11.0186 8.74083,11.01859 5.8272,1e-5 8.74081,-3.67285 8.74083,-11.01859 l 0,-20.44647 c -2e-5,-0.777 0.28234,-1.44814 0.84709,-2.01344 0.56469,-0.56523 1.23557,-0.84786 2.01264,-0.8479 0.777,4e-5 1.44815,0.28267 2.01344,0.8479 0.56523,0.5653 0.84787,1.23644 0.8479,2.01344 l 0,20.18135 c -3e-5,5.33256 -1.25396,9.35891 -3.76178,12.07907 z"
       id="path2903" />
    <path
       d="m 289.60278,123.11596 0,12.76612 c -10e-6,0.31794 0.14171,0.47691 0.42516,0.47689 l 2.75465,0 c 7.48581,2e-5 11.22872,-2.54286 11.22874,-7.62863 -2e-5,-2.15433 -0.80346,-3.7701 -2.41031,-4.84731 -1.6069,-1.07714 -4.19342,-1.61573 -7.75957,-1.61577 -1.34178,4e-5 -2.61294,0.10619 -3.81351,0.31847 -0.28345,0.0701 -0.42517,0.24683 -0.42516,0.53023 z m 0,18.22206 0,12.55434 c -10e-6,0.81153 -0.28237,1.49992 -0.84709,2.06518 -0.56473,0.56526 -1.25312,0.8479 -2.06517,0.8479 -0.81207,0 -1.50073,-0.28264 -2.06599,-0.8479 -0.56527,-0.56526 -0.8479,-1.25365 -0.84789,-2.06518 l 0,-32.47218 c -10e-6,-0.88262 0.28262,-1.65076 0.84789,-2.30444 0.56526,-0.65359 1.28922,-1.01544 2.17187,-1.08553 2.61346,-0.28232 5.13855,-0.4235 7.57528,-0.42354 5.08466,4e-5 8.91594,0.93577 11.49387,2.80719 2.57787,1.87149 3.86682,4.4669 3.86685,7.78624 -3e-5,2.68462 -0.6798,4.97154 -2.03931,6.86075 -1.35957,1.88926 -3.22213,3.20462 -5.5877,3.94607 -0.0356,2e-5 -0.0534,0.0178 -0.0534,0.0533 -2e-5,0.0701 0.0178,0.10509 0.0534,0.10507 1.51848,1.02493 2.91305,3.1087 4.1837,6.25131 l 3.39158,8.58079 c 0.28233,0.67142 0.21147,1.30727 -0.21258,1.90756 -0.42411,0.60029 -0.9891,0.90044 -1.69498,0.90044 -0.91824,0 -1.74809,-0.25596 -2.48953,-0.76788 -0.74149,-0.51191 -1.27119,-1.19195 -1.58909,-2.04012 l -3.33824,-8.58079 c -0.74149,-1.90755 -1.56244,-3.1348 -2.46285,-3.68176 -0.90045,-0.54692 -2.60405,-0.82039 -5.11081,-0.82041 l -2.75465,0 c -0.28345,2e-5 -0.42517,0.1412 -0.42516,0.42354 z"
       id="path2905" />
  </g>
  <path
     d="m 101.78125,78.71875 c 0,3.118115 0,-2.961865 0,0.15625 0,3.118115 -0.15625,5.753006 -0.15625,8.1875 0,2.434495 -1.43664,4.71875 -3.1875,4.71875 l -14,0 2.6875,5.15625 c 0.424988,0.711499 0.610478,1.505459 0.71875,2.34375 0,2.09045 -1.722061,3.78125 -3.8125,3.78125 -0.92319,0 -1.779596,-0.34343 -2.4375,-0.90625 L 43.1875,79.8125 c -1.052695,-0.700353 -1.047506,-1.296979 0,-2.03125 L 81.59375,55.4375 c 0.657904,-0.56282 1.51431,-0.90625 2.4375,-0.90625 2.090439,0 3.8125,1.690808 3.8125,3.78125 -0.108272,0.838291 -0.293762,1.632251 -0.71875,2.34375 l -2.6875,5.15625 14,0 c 1.75086,0 3.1875,2.253005 3.1875,4.6875 0,2.434494 0.15625,5.100635 0.15625,8.21875 z"
     id="path13506"
     style="fill:#ed1c23;fill-opacity:1;fill-rule:nonzero;stroke:none" />
</svg>
