<?xml version="1.0" encoding="UTF-8" standalone="no"?>
<!-- Created with Inkscape (http://www.inkscape.org/) -->

<svg
   xmlns:dc="http://purl.org/dc/elements/1.1/"
   xmlns:cc="http://creativecommons.org/ns#"
   xmlns:rdf="http://www.w3.org/1999/02/22-rdf-syntax-ns#"
   xmlns:svg="http://www.w3.org/2000/svg"
   xmlns="http://www.w3.org/2000/svg"
   xmlns:sodipodi="http://sodipodi.sourceforge.net/DTD/sodipodi-0.dtd"
   xmlns:inkscape="http://www.inkscape.org/namespaces/inkscape"
   version="1.1"
   width="1005.4"
   height="1005.4"
   id="svg2"
   xml:space="preserve"
   inkscape:version="0.48.4 r9939"
   sodipodi:docname="AJAX1.svg"><sodipodi:namedview
     pagecolor="#ffffff"
     bordercolor="#666666"
     borderopacity="1"
     objecttolerance="10"
     gridtolerance="10"
     guidetolerance="10"
     inkscape:pageopacity="0"
     inkscape:pageshadow="2"
     inkscape:window-width="1280"
     inkscape:window-height="1004"
     id="namedview28"
     showgrid="false"
     fit-margin-top="2.7"
     fit-margin-left="2.7"
     fit-margin-right="2.7"
     fit-margin-bottom="2.7"
     inkscape:zoom="0.57512702"
     inkscape:cx="440.64353"
     inkscape:cy="457.03282"
     inkscape:window-x="-8"
     inkscape:window-y="-8"
     inkscape:window-maximized="1"
     inkscape:current-layer="svg2" /><metadata
     id="metadata8"><rdf:RDF><cc:Work
         rdf:about=""><dc:format>image/svg+xml</dc:format><dc:type
           rdf:resource="http://purl.org/dc/dcmitype/StillImage" /></cc:Work></rdf:RDF></metadata><defs
     id="defs6" /><path
     inkscape:connector-curvature="0"
     style="fill:#ffffff;fill-opacity:1;stroke:#ed1c23;stroke-opacity:1;stroke-width:5;stroke-miterlimit:4;stroke-dasharray:none"
     d="M 2.7,502.70001 C 2.7,226.55763 226.55763,2.7 502.7,2.7 c 276.14238,0 500,223.85763 500,500.00001 0,276.14237 -223.85762,499.99999 -500,499.99999 -276.14237,0 -500,-223.85762 -500,-499.99999 z"
     id="path3854" /><path
     id="path14622"
     d="M 968.075,502.70001 C 968.075,245.68049 759.71952,37.325 502.7,37.325 245.68047,37.325 37.325,245.68049 37.325,502.70001 37.325,759.71953 245.68047,968.075 502.7,968.075 c 257.01952,0 465.375,-208.35547 465.375,-465.37499 z"
     style="fill:#ed1c23;fill-opacity:1;stroke:none"
     inkscape:connector-curvature="0" /><path
     id="path15520"
     d="m 835.55,502.7 c 0,-183.82797 -149.02204,-332.85 -332.85,-332.85 -183.82798,0 -332.85,149.02203 -332.85,332.85 0,183.82797 149.02202,332.84999 332.85,332.84999 183.82796,0 332.85,-149.02202 332.85,-332.84999 z"
     style="fill:#ffffff;fill-opacity:1;stroke:none"
     inkscape:connector-curvature="0" /><path
     style="fill:#ed1c23;fill-opacity:1;stroke:none"
     d="M 783.75726,851.49809 851.49809,783.75726 221.64272,153.9019 153.90189,221.64273 z"
     id="path3011"
     inkscape:connector-curvature="0"
     sodipodi:nodetypes="ccccc" /><g
     id="g4955"
     transform="matrix(0,39.480384,39.480384,0,492.57325,660.95709)"><path
       inkscape:connector-curvature="0"
       d="M 0,0 C 0,0.07 0.045,0.135 0.132,0.194 0.34,0.35 0.523,0.512 0.682,0.679 0.732,0.733 0.791,0.761 0.856,0.761 1.032,0.761 1.119,0.685 1.119,0.536 1.119,0.479 1.095,0.421 1.043,0.357 0.873,0.16 0.672,-0.013 0.441,-0.163 0.369,-0.212 0.307,-0.235 0.248,-0.235 0.083,-0.235 0,-0.157 0,0 z"
       style="fill:none;stroke:#ffffff;stroke-width:0.69999999;stroke-linecap:butt;stroke-linejoin:miter;stroke-miterlimit:4;stroke-opacity:1;stroke-dasharray:none"
       id="path4957" /><g
       id="g4959"
       transform="translate(0.233,-1.623)"><path
         inkscape:connector-curvature="0"
         d="m 0,0 c 0.062,0 0.132,-0.025 0.212,-0.078 0.212,-0.154 0.406,-0.319 0.579,-0.497 0.064,-0.071 0.095,-0.142 0.095,-0.213 0,-0.156 -0.076,-0.234 -0.229,-0.234 -0.067,0 -0.137,0.038 -0.208,0.117 -0.161,0.182 -0.343,0.34 -0.547,0.476 -0.089,0.058 -0.135,0.117 -0.135,0.178 C -0.233,-0.084 -0.155,0 0,0 z"
         style="fill:none;stroke:#ffffff;stroke-width:0.69999999;stroke-linecap:butt;stroke-linejoin:miter;stroke-miterlimit:4;stroke-opacity:1;stroke-dasharray:none"
         id="path4961" /><g
         id="g4963"
         transform="translate(-1.525,1.617)"><path
           inkscape:connector-curvature="0"
           d="m 0,0 -0.158,0 c -0.077,0 -0.116,-0.051 -0.116,-0.154 l 0,-1.503 c 0,-0.102 0.039,-0.154 0.116,-0.154 L 0,-1.811 0,0 z"
           style="fill:none;stroke:#ffffff;stroke-width:0.69999999;stroke-linecap:butt;stroke-linejoin:miter;stroke-miterlimit:4;stroke-opacity:1;stroke-dasharray:none"
           id="path4965" /><g
           id="g4967"
           transform="translate(0.408,-1.811)"><path
             inkscape:connector-curvature="0"
             d="m 0,0 0.15,0 c 0.075,0 0.113,0.052 0.113,0.154 l 0,1.503 C 0.263,1.76 0.225,1.811 0.15,1.811 L 0,1.811 0,0 z"
             style="fill:none;stroke:#ffffff;stroke-width:0.69999999;stroke-linecap:butt;stroke-linejoin:miter;stroke-miterlimit:4;stroke-opacity:1;stroke-dasharray:none"
             id="path4969" /><g
             id="g4971"
             transform="translate(-1.461,1.044)"><path
               inkscape:connector-curvature="0"
               d="m 0,0 c 0.115,-0.031 0.238,-0.07 0.37,-0.115 l 0,0.768 c 0,0.381 0.162,0.573 0.487,0.573 l 0.793,0 c 0.323,0 0.483,-0.192 0.483,-0.573 l 0,-0.548 1.121,0 c 0.355,0 0.536,-0.185 0.536,-0.555 l 0,-0.341 c 0,-0.194 -0.081,-0.291 -0.241,-0.291 -0.157,0 -0.238,0.097 -0.238,0.291 l 0,0.302 c 0,0.066 -0.031,0.097 -0.097,0.097 l -1.081,0 0,-0.536 c 0,-0.383 -0.16,-0.574 -0.483,-0.574 l -0.793,0 c -0.325,0 -0.487,0.191 -0.487,0.574 l 0,0.333 C 0.238,-0.553 0.115,-0.521 0,-0.498 L 0,-1.696 C 0,-1.8 0.052,-1.852 0.15,-1.852 l 1.556,0 c 0.632,0 1.239,-0.172 1.821,-0.512 0.125,-0.077 0.186,-0.156 0.186,-0.235 0,-0.167 -0.076,-0.252 -0.229,-0.252 -0.089,0 -0.173,0.028 -0.249,0.083 -0.435,0.28 -0.945,0.417 -1.529,0.417 l -1.591,0 c -0.376,0 -0.564,0.205 -0.564,0.616 l 0,3.11 c 0,0.183 0.076,0.275 0.225,0.275 C -0.075,1.65 0,1.558 0,1.375 L 0,0 z"
               style="fill:none;stroke:#ffffff;stroke-width:0.69999999;stroke-linecap:butt;stroke-linejoin:miter;stroke-miterlimit:4;stroke-opacity:1;stroke-dasharray:none"
               id="path4973" /><g
               id="g4975"
               transform="translate(1.455,4.9)"><path
                 inkscape:connector-curvature="0"
                 d="M 0,0 C 0.171,0.136 0.354,0.248 0.555,0.334 0.657,0.369 0.752,0.387 0.839,0.387 1.018,0.387 1.11,0.301 1.11,0.126 1.11,0.013 1.047,-0.065 0.921,-0.111 0.719,-0.197 0.522,-0.301 0.333,-0.423 0.268,-0.465 0.212,-0.486 0.162,-0.486 c -0.179,0 -0.27,0.09 -0.27,0.269 0,0.087 0.037,0.159 0.108,0.217 z"
                 style="fill:none;stroke:#ffffff;stroke-width:0.69999999;stroke-linecap:butt;stroke-linejoin:miter;stroke-miterlimit:4;stroke-opacity:1;stroke-dasharray:none"
                 id="path4977" /><g
                 id="g4979"
                 transform="translate(-0.992,0.995)"><path
                   inkscape:connector-curvature="0"
                   d="m 0,0 -0.817,0 c -0.198,0 -0.3,0.083 -0.3,0.249 0,0.166 0.102,0.247 0.3,0.247 l 0.817,0 0,0.546 c 0,0.192 0.081,0.289 0.24,0.289 0.16,0 0.238,-0.097 0.238,-0.289 l 0,-0.546 2.262,0 c 0.369,0 0.553,-0.195 0.553,-0.586 l 0,-0.387 c 0,-0.193 -0.078,-0.29 -0.238,-0.29 -0.159,0 -0.238,0.097 -0.238,0.29 l 0,0.347 c 0,0.08 -0.038,0.124 -0.116,0.13 l -2.223,0 0,-1.56 C 0.478,-1.752 0.4,-1.849 0.24,-1.849 0.081,-1.849 0,-1.752 0,-1.56 L 0,0 z"
                   style="fill:none;stroke:#ffffff;stroke-width:0.69999999;stroke-linecap:butt;stroke-linejoin:miter;stroke-miterlimit:4;stroke-opacity:1;stroke-dasharray:none"
                   id="path4981" /><g
                   id="g4983"
                   transform="translate(1.141,-2.799)"><path
                     inkscape:connector-curvature="0"
                     d="m 0,0 c 0.113,-0.096 0.168,-0.19 0.168,-0.279 0,-0.155 -0.078,-0.232 -0.237,-0.232 -0.074,0 -0.145,0.035 -0.216,0.102 -0.486,0.413 -1.078,0.752 -1.774,1.016 -0.133,0.042 -0.199,0.118 -0.199,0.227 0,0.161 0.084,0.242 0.251,0.242 0.053,0 0.116,-0.013 0.192,-0.039 0.303,-0.112 0.617,-0.256 0.942,-0.43 l 2.779,0 c 0.196,0 0.296,-0.082 0.296,-0.249 0,-0.164 -0.1,-0.247 -0.296,-0.247 l -2.055,0 L 0,0 z"
                     style="fill:none;stroke:#ffffff;stroke-width:0.69999999;stroke-linecap:butt;stroke-linejoin:miter;stroke-miterlimit:4;stroke-opacity:1;stroke-dasharray:none"
                     id="path4985" /></g></g></g></g></g></g></g></g><g
     id="g4987"
     transform="matrix(0,39.480384,39.480384,0,338.83662,278.19475)"><path
       inkscape:connector-curvature="0"
       d="m 0,0 0,5.504 c 0,0 -0.946,-0.426 -1.139,-0.534 -0.165,-0.093 -0.509,-0.248 -0.752,-0.013 -0.242,0.237 -0.098,0.517 0.084,0.9 l 2.481,4.328 c 0.044,0.075 0.115,0.075 0.161,0 L 3.317,5.857 C 3.497,5.474 3.642,5.194 3.399,4.957 3.157,4.722 2.812,4.877 2.648,4.97 2.454,5.078 1.509,5.504 1.509,5.504 L 1.509,0 0,0"
       style="fill:#0066b3;fill-opacity:1;fill-rule:nonzero;stroke:none"
       id="path4989" /></g><g
     id="g4991"
     transform="matrix(0,39.480384,39.480384,0,338.83662,278.19475)"><path
       inkscape:connector-curvature="0"
       d="m 0,0 0,5.504 c 0,0 -0.946,-0.426 -1.139,-0.534 -0.165,-0.093 -0.509,-0.248 -0.752,-0.013 -0.242,0.237 -0.098,0.517 0.084,0.9 l 2.481,4.328 c 0.044,0.075 0.115,0.075 0.161,0 L 3.317,5.857 C 3.497,5.474 3.642,5.194 3.399,4.957 3.157,4.722 2.812,4.877 2.648,4.97 2.454,5.078 1.509,5.504 1.509,5.504 L 1.509,0 0,0 z"
       style="fill:none;stroke:#ffffff;stroke-width:0.37099999;stroke-linecap:round;stroke-linejoin:round;stroke-miterlimit:4;stroke-opacity:1;stroke-dasharray:none"
       id="path4993" /></g><g
     id="g4995"
     transform="matrix(0,39.480384,39.480384,0,273.33873,723.49402)"><path
       inkscape:connector-curvature="0"
       d="m 0,0 -5.505,0 c 0,0 0.425,-0.947 0.534,-1.139 0.092,-0.167 0.248,-0.51 0.012,-0.753 -0.236,-0.24 -0.518,-0.098 -0.899,0.084 l -4.329,2.479 c -0.075,0.046 -0.075,0.118 0,0.161 l 4.329,2.483 c 0.381,0.181 0.663,0.324 0.899,0.084 C -4.723,3.156 -4.879,2.812 -4.971,2.647 -5.08,2.453 -5.505,1.506 -5.505,1.506 L 0,1.506 0,0"
       style="fill:#0066b3;fill-opacity:1;fill-rule:nonzero;stroke:none"
       id="path4997" /></g><g
     id="g4999"
     transform="matrix(0,39.480384,39.480384,0,273.33873,723.49402)"><path
       inkscape:connector-curvature="0"
       d="m 0,0 -5.505,0 c 0,0 0.425,-0.947 0.534,-1.139 0.092,-0.167 0.248,-0.51 0.012,-0.753 -0.236,-0.24 -0.518,-0.098 -0.899,0.084 l -4.329,2.479 c -0.075,0.046 -0.075,0.118 0,0.161 l 4.329,2.483 c 0.381,0.181 0.663,0.324 0.899,0.084 C -4.723,3.156 -4.879,2.812 -4.971,2.647 -5.08,2.453 -5.505,1.506 -5.505,1.506 L 0,1.506 0,0 z"
       style="fill:none;stroke:#ffffff;stroke-width:0.37099999;stroke-linecap:round;stroke-linejoin:round;stroke-miterlimit:4;stroke-opacity:1;stroke-dasharray:none"
       id="path5001" /></g><g
     id="g5003"
     transform="matrix(0,39.480384,39.480384,0,492.57325,660.99657)"><path
       inkscape:connector-curvature="0"
       d="M 0,0 C 0,0.07 0.044,0.135 0.13,0.194 0.34,0.35 0.524,0.512 0.681,0.679 0.733,0.733 0.79,0.761 0.856,0.761 1.031,0.761 1.12,0.685 1.12,0.536 1.12,0.479 1.094,0.421 1.043,0.357 0.872,0.16 0.671,-0.013 0.44,-0.163 0.369,-0.212 0.305,-0.235 0.247,-0.235 0.082,-0.235 0,-0.158 0,0 m 0.232,-1.623 c 0.062,0 0.133,-0.026 0.212,-0.078 C 0.656,-1.855 0.85,-2.02 1.023,-2.2 1.087,-2.269 1.12,-2.341 1.12,-2.411 c 0,-0.156 -0.077,-0.234 -0.231,-0.234 -0.067,0 -0.137,0.038 -0.208,0.117 -0.16,0.182 -0.342,0.34 -0.546,0.476 C 0.045,-1.994 0,-1.935 0,-1.874 c 0,0.167 0.077,0.251 0.232,0.251 m -1.525,1.617 -0.158,0 c -0.077,0 -0.116,-0.051 -0.116,-0.154 l 0,-1.503 c 0,-0.102 0.039,-0.154 0.116,-0.154 l 0.158,0 0,1.811 z m 0.408,-1.811 0.151,0 c 0.074,0 0.112,0.052 0.112,0.154 l 0,1.503 c 0,0.103 -0.038,0.154 -0.112,0.154 l -0.151,0 0,-1.811 z m -1.461,1.044 c 0.115,-0.031 0.238,-0.07 0.37,-0.115 l 0,0.768 c 0,0.381 0.163,0.573 0.487,0.573 l 0.793,0 c 0.323,0 0.483,-0.192 0.483,-0.573 l 0,-0.548 1.122,0 c 0.356,0 0.535,-0.185 0.535,-0.555 l 0,-0.341 c 0,-0.194 -0.081,-0.292 -0.241,-0.292 -0.157,0 -0.238,0.098 -0.238,0.292 l 0,0.302 c 0,0.066 -0.031,0.097 -0.097,0.097 l -1.081,0 0,-0.536 c 0,-0.383 -0.16,-0.574 -0.483,-0.574 l -0.793,0 c -0.324,0 -0.487,0.191 -0.487,0.574 l 0,0.333 c -0.132,0.041 -0.255,0.074 -0.37,0.097 l 0,-1.198 c 0,-0.104 0.052,-0.156 0.152,-0.156 l 1.554,0 c 0.632,0 1.239,-0.172 1.821,-0.512 0.125,-0.077 0.188,-0.156 0.188,-0.235 0,-0.167 -0.078,-0.252 -0.231,-0.252 -0.089,0 -0.173,0.028 -0.249,0.083 -0.434,0.28 -0.945,0.417 -1.529,0.417 l -1.591,0 c -0.376,0 -0.564,0.205 -0.564,0.616 l 0,3.108 c 0,0.185 0.077,0.275 0.225,0.275 0.149,0 0.224,-0.09 0.224,-0.275 l 0,-1.373"
       style="fill:#0066b3;fill-opacity:1;fill-rule:nonzero;stroke:none"
       id="path5005" /></g><g
     id="g5007"
     transform="matrix(0,39.480384,39.480384,0,655.50879,625.85902)"><path
       inkscape:connector-curvature="0"
       d="m 0,0 c 0.17,0.135 0.354,0.248 0.554,0.334 0.102,0.035 0.197,0.053 0.285,0.053 0.18,0 0.27,-0.087 0.27,-0.261 C 1.109,0.013 1.046,-0.066 0.92,-0.111 0.719,-0.197 0.521,-0.301 0.332,-0.423 0.267,-0.465 0.211,-0.486 0.161,-0.486 c -0.179,0 -0.27,0.09 -0.27,0.269 0,0.087 0.037,0.159 0.109,0.217 m -0.993,0.995 -0.816,0 c -0.199,0 -0.301,0.083 -0.301,0.249 0,0.166 0.102,0.247 0.301,0.247 l 0.816,0 0,0.546 c 0,0.191 0.081,0.289 0.241,0.289 0.159,0 0.238,-0.098 0.238,-0.289 l 0,-0.546 2.261,0 c 0.369,0 0.554,-0.195 0.554,-0.586 l 0,-0.387 c 0,-0.193 -0.079,-0.29 -0.238,-0.29 -0.16,0 -0.239,0.097 -0.239,0.29 l 0,0.347 c 0,0.08 -0.038,0.124 -0.116,0.13 l -2.222,0 0,-1.56 c 0,-0.192 -0.079,-0.289 -0.238,-0.289 -0.16,0 -0.241,0.097 -0.241,0.289 l 0,1.56 z m 1.142,-2.799 c 0.112,-0.096 0.167,-0.19 0.167,-0.28 0,-0.154 -0.077,-0.231 -0.235,-0.231 -0.076,0 -0.147,0.035 -0.218,0.102 -0.486,0.413 -1.078,0.752 -1.774,1.016 -0.133,0.042 -0.199,0.118 -0.199,0.227 0,0.161 0.085,0.242 0.251,0.242 0.053,0 0.117,-0.013 0.192,-0.039 0.303,-0.112 0.617,-0.256 0.944,-0.43 l 2.777,0 c 0.196,0 0.296,-0.082 0.296,-0.249 0,-0.164 -0.1,-0.247 -0.296,-0.247 l -2.054,0 0.149,-0.111"
       style="fill:#0066b3;fill-opacity:1;fill-rule:nonzero;stroke:none"
       id="path5009" /></g></svg>