<?xml version="1.0" encoding="UTF-8" standalone="no"?>
<!-- Created with Inkscape (http://www.inkscape.org/) -->

<svg
   xmlns:dc="http://purl.org/dc/elements/1.1/"
   xmlns:cc="http://creativecommons.org/ns#"
   xmlns:rdf="http://www.w3.org/1999/02/22-rdf-syntax-ns#"
   xmlns:svg="http://www.w3.org/2000/svg"
   xmlns="http://www.w3.org/2000/svg"
   xmlns:sodipodi="http://sodipodi.sourceforge.net/DTD/sodipodi-0.dtd"
   xmlns:inkscape="http://www.inkscape.org/namespaces/inkscape"
   version="1.1"
   width="1005.4"
   height="1005.4"
   id="svg2"
   xml:space="preserve"
   inkscape:version="0.48.4 r9939"
   sodipodi:docname="Ajax.svg"><sodipodi:namedview
     pagecolor="#ffffff"
     bordercolor="#666666"
     borderopacity="1"
     objecttolerance="10"
     gridtolerance="10"
     guidetolerance="10"
     inkscape:pageopacity="0"
     inkscape:pageshadow="2"
     inkscape:window-width="1280"
     inkscape:window-height="1001"
     id="namedview28"
     showgrid="false"
     fit-margin-top="2.7"
     fit-margin-left="2.7"
     fit-margin-right="2.7"
     fit-margin-bottom="2.7"
     inkscape:zoom="0.79621344"
     inkscape:cx="727.25526"
     inkscape:cy="596.16437"
     inkscape:window-x="-8"
     inkscape:window-y="-8"
     inkscape:window-maximized="1"
     inkscape:current-layer="svg2"
     showguides="true"
     inkscape:guide-bbox="true" /><metadata
     id="metadata8"><rdf:RDF><cc:Work
         rdf:about=""><dc:format>image/svg+xml</dc:format><dc:type
           rdf:resource="http://purl.org/dc/dcmitype/StillImage" /><dc:title /></cc:Work></rdf:RDF></metadata><defs
     id="defs6" /><path
     inkscape:connector-curvature="0"
     style="fill:#ffffff;fill-opacity:1;stroke:#ed1c23;stroke-width:5;stroke-miterlimit:4;stroke-opacity:1;stroke-dasharray:none"
     d="m 502.69999,2.7 c 276.14238,0 500.00001,223.85764 500.00001,500 0,276.14238 -223.85763,500 -500.00001,500 C 226.55762,1002.7 2.7,778.84238 2.7,502.7 2.7,226.55764 226.55762,2.7 502.69999,2.7 z"
     id="path3854" /><path
     inkscape:connector-curvature="0"
     id="path3947"
     d="M 755.825,855.54375 502.7,705.2 249.575,855.54375 l 506.25,0 z"
     style="fill:#0066b3;fill-opacity:1;stroke:none" /><path
     style="fill:#0066b3;fill-opacity:1;stroke:none"
     d="M 755.825,149.85625 502.7,300.2 249.575,149.85625 l 506.25,0 z"
     id="path3949"
     inkscape:connector-curvature="0" /><path
     style="fill:#ed1c23;fill-opacity:1;stroke:none"
     d="M 968.075,502.7 C 968.075,245.68048 759.71952,37.325 502.7,37.325 245.68048,37.325 37.325,245.68048 37.325,502.7 c 0,257.01952 208.35548,465.375 465.375,465.375 257.01952,0 465.375,-208.35548 465.375,-465.375 z m -132.525,0 c 0,183.82796 -149.02201,332.85 -332.85,332.85 -183.82797,0 -332.85,-149.02204 -332.85,-332.85 0,-183.82797 149.02203,-332.85 332.85,-332.85 183.82799,0 332.85,149.02203 332.85,332.85 z"
     id="path4074"
     inkscape:connector-curvature="0"
     sodipodi:nodetypes="ssssssssss" /><path
     inkscape:connector-curvature="0"
     d="m 704.25662,511.47545 0,6.60646 c 4.37778,-5.57171 10.74545,-8.47696 19.06321,-8.47696 8.27797,0 14.64564,2.46747 19.02341,7.36262 5.8901,-4.89515 13.13332,-7.36262 21.72968,-7.36262 9.75049,0 17.1927,1.95169 22.44603,6.00949 5.61151,3.741 8.43716,9.23312 8.43716,16.31715 l 0,63.00013 -22.68482,0 0,-59.13973 c 0,-7.40242 -3.02464,-11.10362 -9.07393,-11.10362 -7.84019,0 -11.81999,3.7012 -11.81999,11.10362 l 0,59.13973 -22.60522,0 0,-59.13973 c 0,-7.40242 -3.02464,-11.10362 -9.03413,-11.10362 -7.91979,0 -11.81999,3.7012 -11.81999,11.10362 l 0,59.13973 -22.68482,0 0,-83.45627 19.02341,0"
     style="fill:#0066b3;fill-opacity:1;fill-rule:nonzero;stroke:none"
     id="path5036" /><path
     inkscape:connector-curvature="0"
     d="m 260.2311,412.06022 c 0.59538,-29.49027 9.7107,-53.44862 27.42078,-71.79547 19.1826,-19.89896 44.53388,-29.92804 76.09364,-29.92804 28.37593,0 51.10055,8.71575 68.13406,26.14724 17.2723,17.2723 25.94825,40.63369 25.94825,69.84537 0,38.84278 -14.12826,66.22376 -42.2654,82.26232 32.03733,17.27231 48.1157,47.47894 48.1157,90.38111 0,35.81813 -9.03413,63.63689 -27.0228,83.25727 -17.94886,18.94381 -43.49914,28.45552 -76.69061,28.45552 -34.78339,0 -61.44801,-12.05877 -80.03364,-36.17632 C 262.93736,632.02339 254.4604,601.0606 254.4604,561.70044 l 51.89651,0 c 0,25.27169 4.61656,44.97167 13.88947,59.06013 9.19333,14.44665 22.44604,21.65008 39.71834,21.65008 15.91917,0 28.33613,-5.33292 37.33046,-15.87938 9.5515,-11.18321 14.40685,-26.98299 14.40685,-47.55852 0,-21.76947 -4.85535,-37.92743 -14.40685,-48.47388 -9.6311,-11.26282 -23.95836,-16.91413 -43.10116,-16.91413 l -26.78401,0 0,-48.19529 26.78401,0 c 16.27735,0 28.65451,-4.69616 37.33046,-14.20786 9.5515,-10.18827 14.36705,-25.1523 14.36705,-44.85227 0,-13.01392 -3.97979,-23.99815 -12.05877,-32.91289 -8.19838,-9.83009 -18.90402,-14.72524 -31.95774,-14.72524 -15.3222,0 -27.26158,4.89515 -35.93753,14.72524 -8.27797,9.23312 -12.89453,22.12765 -13.84968,38.64379 l -51.85671,0"
     style="fill:#0066b3;fill-opacity:1;fill-rule:nonzero;stroke:none"
     id="path5040" /><path
     inkscape:connector-curvature="0"
     d="m 512.74898,491.49689 c 0.43618,-19.69997 6.52686,-35.69874 18.34684,-47.79731 12.89453,-13.33231 29.72906,-20.01836 50.70257,-20.01836 18.94381,0 33.98743,5.85029 45.25025,17.43149 11.66079,11.5414 17.51109,27.10239 17.51109,46.56358 0,25.78906 -9.43211,44.1757 -28.49532,54.96094 21.45108,11.5414 32.19652,31.67916 32.19652,60.33367 0,23.95835 -5.96969,42.46439 -17.94886,55.43852 -12.01898,12.69554 -28.9729,19.06321 -50.98115,19.06321 -23.1624,0 -40.91228,-8.03919 -53.36903,-24.15735 -11.42201,-14.96402 -17.07331,-35.57935 -17.07331,-61.92558 l 34.74359,0 c 0,16.91412 3.10424,30.04744 9.19332,39.43975 6.16868,9.7107 14.96403,14.48645 26.50543,14.48645 10.62604,0 18.82442,-3.58182 24.83391,-10.62605 6.20847,-7.44221 9.35251,-18.06826 9.35251,-31.71895 0,-14.52625 -3.14244,-25.35128 -9.35251,-32.43532 -6.44727,-7.44221 -15.95897,-11.14342 -28.69431,-11.14342 l -17.82948,0 0,-32.27612 17.82948,0 c 10.82504,0 19.103,-3.14563 24.83391,-9.47191 6.36767,-6.88504 9.5515,-16.79472 9.5515,-29.96784 0,-8.71575 -2.66487,-15.99877 -7.91979,-21.92866 -5.57171,-6.56666 -12.65574,-9.90968 -21.41128,-9.90968 -10.14848,0 -18.10806,3.34302 -23.83897,9.90968 -5.53191,6.16868 -8.59635,14.76503 -9.23312,25.74926 l -34.70379,0"
     style="fill:#0066b3;fill-opacity:1;fill-rule:nonzero;stroke:none"
     id="path5044" /><path
     inkscape:connector-curvature="0"
     d="m 469.05085,651.24579 0,37.20979 32.875,0 0,-37.20979 -32.875,0 z"
     style="fill:#0066b3;fill-opacity:1;fill-rule:nonzero;stroke:none"
     id="path5046" /></svg>