<?xml version="1.0" encoding="UTF-8" standalone="no"?>
<!-- Created with Inkscape (http://www.inkscape.org/) -->

<svg
   xmlns:svg="http://www.w3.org/2000/svg"
   xmlns="http://www.w3.org/2000/svg"
   version="1.1"
   width="1200"
   height="300"
   id="svg5338">
  <defs
     id="defs5340" />
  <g
     transform="translate(0,-772.36217)"
     id="layer1">
    <rect
       width="1200"
       height="300"
       rx="50"
       ry="50"
       x="0"
       y="0"
       transform="translate(0,772.36217)"
       id="rect5348"
       style="color:#000000;fill:#000000;fill-opacity:1;stroke:none;stroke-width:99;marker:none;visibility:visible;display:inline;overflow:visible;enable-background:accumulate" />
    <rect
       width="1170"
       height="270"
       rx="50"
       ry="50"
       x="15"
       y="15"
       transform="translate(0,772.36217)"
       id="rect5860"
       style="color:#000000;fill:#ffffff;fill-opacity:1;fill-rule:nonzero;stroke:none;stroke-width:99;marker:none;visibility:visible;display:inline;overflow:visible;enable-background:accumulate" />
    <g
       id="g2828">
      <path
         d="m 214.56866,822.85968 c 2.50242,-2.16656 5.46135,-3.16601 8.87681,-2.99835 3.41538,0.16804 6.29039,1.41671 8.62503,3.74603 7.66494,8.00087 16.248,17.25278 25.7492,27.75574 2.16668,2.32966 3.12544,5.11948 2.87628,8.36944 -0.24929,3.25027 -1.5412,5.95871 -3.87573,8.12531 -2.49742,2.16689 -5.33046,3.08369 -8.49914,2.7504 -3.1688,-0.33301 -5.83654,-1.66434 -8.00324,-3.99399 -5.8289,-6.33733 -14.57727,-15.50531 -26.24512,-27.50397 -2.16677,-2.33442 -3.20818,-5.08481 -3.12423,-8.25119 0.0839,-3.16601 1.29061,-5.83249 3.62014,-7.99942 z m 31.25,182.50272 c -7.16659,7.1666 -15.49788,14.2492 -24.99389,21.2479 -2.67032,1.9989 -5.67121,2.6232 -9.00269,1.873 -3.33152,-0.7502 -5.83141,-2.6232 -7.49969,-5.619 -1.66831,-3.1688 -2.08538,-6.4621 -1.25122,-9.8801 0.83413,-3.418 2.75165,-6.2103 5.75256,-8.3771 6.83083,-4.83192 14.16267,-10.83116 21.99554,-17.99773 0.83411,-0.66627 1.25118,-1.74964 1.25123,-3.25012 l 0,-56.49566 c -5e-5,-1.50036 -0.66635,-2.25059 -1.99891,-2.25067 l -17.25006,0 c -3.16876,8e-5 -5.8365,-1.04133 -8.00323,-3.12424 -2.16676,-2.08273 -3.25014,-4.70852 -3.25012,-7.87735 -2e-5,-3.16864 1.08336,-5.87707 3.25012,-8.12531 2.16673,-2.24802 4.83447,-3.37208 8.00323,-3.37219 l 30.74646,0 c 3.83499,1.1e-4 7.16903,1.41663 10.00214,4.24957 2.83298,2.83315 4.2495,6.16465 4.24957,9.99451 l 0,61.50055 c -7e-5,1.33263 0.41701,2.66778 1.25122,4.00543 4.16558,6.83088 9.37391,11.95528 15.625,15.37323 6.25093,3.41798 15.54352,5.91788 27.87781,7.49968 12.33406,1.5818 29.91726,2.3728 52.74963,2.3728 l 59.24988,0 c 3.00067,0 5.58449,1.1673 7.75147,3.5019 2.16651,2.3345 3.16596,5.0023 2.99835,8.0032 -0.16808,3.1636 -1.4193,5.7869 -3.75366,7.8697 -2.33483,2.0828 -5.08395,3.1242 -8.24738,3.1242 l -59.24988,0 c -30.66521,0 -53.87381,-1.7496 -69.62585,-5.249 -15.75224,-3.4993 -27.62611,-9.7478 -35.62164,-18.7454 -1.00206,-1.1698 -2.00405,-1.2538 -3.00599,-0.2518 z m 172.0047,-180.74796 c -2.2e-4,7.49733 -3.00112,13.0795 -9.00268,16.74652 -8.0009,4.99996 -18.16833,10.58213 -30.50232,16.74652 -0.16295,0.168 -0.24433,0.37781 -0.24414,0.62943 -1.9e-4,0.25192 0.0812,0.37781 0.24414,0.37765 l 25.2533,0 c 3.83482,1.6e-4 7.16886,1.41668 10.00213,4.24958 2.83282,2.83319 4.24935,6.16469 4.24957,9.9945 l 0,93.25409 c -2.2e-4,13.16328 -1.3341,21.16269 -4.00161,23.99826 -2.66797,2.83561 -10.08501,4.25341 -22.25113,4.25339 -1.3328,2e-5 -5.1653,-0.16783 -11.4975,-0.50354 -3.00108,-0.16783 -5.54294,-1.2512 -7.62558,-3.25012 -2.08301,-1.99888 -3.20834,-4.49878 -3.37601,-7.4997 -0.16802,-2.66517 0.70681,-4.99849 2.62451,-6.99997 1.91734,-2.0014 4.29262,-2.9182 7.12586,-2.75039 3.33131,0.16788 6.3322,0.2518 9.00268,0.25177 2.16655,3e-5 3.4165,-0.33312 3.74985,-0.99945 0.33295,-0.66627 0.49952,-2.91693 0.49973,-6.75202 l 0,-10.74981 c -2.1e-4,-1.33255 -0.66905,-1.99885 -2.00653,-1.99891 l -31.49414,0 c -1.33277,6e-5 -1.99907,0.66636 -1.99891,1.99891 l 0,26.25274 c -1.6e-4,3.33153 -1.20942,6.20527 -3.62777,8.62122 -2.41868,2.41599 -5.29369,3.62398 -8.62503,3.62396 -3.33166,2e-5 -6.20666,-1.20797 -8.62503,-3.62396 -2.41867,-2.41595 -3.62792,-5.28969 -3.62778,-8.62122 l 0,-26.25274 c -1.4e-4,-1.33255 -0.66644,-1.99885 -1.9989,-1.99891 l -29.49524,0 c -1.3378,6e-5 -2.00664,0.66636 -2.00653,1.99891 l 0,27.25219 c -1.1e-4,3.49938 -1.2081,6.45704 -3.62396,8.87299 -2.41608,2.41599 -5.37374,3.62398 -8.87299,3.62396 -3.49944,2e-5 -6.4571,-1.20797 -8.87299,-3.62396 -2.41606,-2.41595 -3.62404,-5.37361 -3.62396,-8.87299 l 0,-109.5047 c -8e-5,-3.82981 1.37448,-7.16131 4.12369,-9.9945 2.74903,-2.8329 6.04111,-4.24942 9.87625,-4.24958 l 23.99445,0 c 0.33557,1.6e-4 0.54538,-0.16769 0.62942,-0.50354 0.0838,-0.33554 0.0418,-0.58476 -0.12588,-0.74768 -1.00212,-0.66614 -2.54453,-1.6249 -4.62723,-2.87628 -2.08294,-1.25106 -3.62535,-2.20982 -4.62723,-2.87628 -2.66531,-1.83089 -4.12252,-4.28883 -4.37164,-7.37381 -0.24934,-3.08465 0.70942,-5.79435 2.87628,-8.12912 0.33049,-0.33043 0.41315,-0.62035 0.24796,-0.86975 -0.16542,-0.24905 -0.41592,-0.37367 -0.7515,-0.37384 l -21.24786,0 c -2.83314,1.7e-4 -5.29107,-1.0832 -7.37381,-3.25012 -2.08291,-2.16657 -3.12432,-4.66774 -3.12424,-7.50351 -8e-5,-2.83541 1.04133,-5.29461 3.12424,-7.37763 2.08274,-2.08263 4.54067,-3.12404 7.37381,-3.12424 l 127.50244,0 c 2.83283,2e-4 5.33272,1.04161 7.49969,3.12424 2.16652,2.08302 3.2499,4.5435 3.25012,7.38144 z m -119.25506,56.49567 0,13.99994 c -1.1e-4,1.33271 0.66873,1.99901 2.00653,1.9989 l 29.49524,0 c 1.33246,1.1e-4 1.99876,-0.66619 1.9989,-1.9989 l 0,-13.99994 c -1.4e-4,-1.33247 -0.66644,-1.99877 -1.9989,-1.9989 l -29.49524,0 c -1.3378,1.3e-4 -2.00664,0.66643 -2.00653,1.9989 z m 2.00653,53.49731 29.49524,0 c 1.33246,8e-5 1.99876,-0.66622 1.9989,-1.9989 l 0,-14.49585 c -1.4e-4,-1.33251 -0.66644,-1.9988 -1.9989,-1.9989 l -29.49524,0 c -1.3378,10e-5 -2.00664,0.66639 -2.00653,1.9989 l 0,14.49585 c -1.1e-4,1.33268 0.66873,1.99898 2.00653,1.9989 z m 91.49933,-1.9989 0,-14.49585 c -2.1e-4,-1.33251 -0.66905,-1.9988 -2.00653,-1.9989 l -31.49414,0 c -1.33277,10e-5 -1.99907,0.66639 -1.99891,1.9989 l 0,14.49585 c -1.6e-4,1.33268 0.66614,1.99898 1.99891,1.9989 l 31.49414,0 c 1.33748,8e-5 2.00632,-0.66622 2.00653,-1.9989 z m 0,-37.49847 0,-13.99994 c -2.1e-4,-1.33247 -0.66905,-1.99877 -2.00653,-1.9989 l -31.49414,0 c -1.33277,1.3e-4 -1.99907,0.66643 -1.99891,1.9989 l 0,13.99994 c -1.6e-4,1.33271 0.66614,1.99901 1.99891,1.9989 l 31.49414,0 c 1.33748,1.1e-4 2.00632,-0.66619 2.00653,-1.9989 z m -47.0047,-42.25159 c 9.50097,-4.33333 19.91763,-9.83158 31.25,-16.49475 0.16766,-0.16767 0.25158,-0.37621 0.25177,-0.62561 -1.9e-4,-0.24905 -0.16804,-0.37367 -0.50354,-0.37384 l -58.49457,0 c -0.33582,1.7e-4 -0.54563,0.12479 -0.62942,0.37384 -0.0841,0.2494 -0.0421,0.45794 0.12588,0.62561 7.66995,4.83212 15.83594,10.24898 24.49799,16.25061 1.00184,0.66646 2.16913,0.74784 3.50189,0.24414 z"
         id="path2819"
         style="font-size:250px;font-style:normal;font-weight:normal;text-align:center;text-anchor:middle;fill:#000000;fill-opacity:1;stroke:none;font-family:'Rounded M+ 1m medium';-inkscape-font-specification:'Rounded M+ 1m medium'" />
      <path
         d="m 594.06909,999.60986 0,-30.99823 c -1.1e-4,-1.33255 -0.66641,-1.99885 -1.9989,-1.9989 l -90.24811,0 c -3.16876,5e-5 -5.87719,-1.08333 -8.1253,-3.25012 -2.24814,-2.1667 -3.37221,-4.91709 -3.3722,-8.25119 -1e-5,-3.33399 1.12406,-6.08438 3.3722,-8.25119 2.24811,-2.16668 4.95654,-3.25005 8.1253,-3.25012 l 90.24811,0 c 1.33249,7e-5 1.99879,-0.75016 1.9989,-2.25067 l 0,-3.74604 c -1.1e-4,-4.00281 1.37572,-7.33685 4.1275,-10.00213 2.75155,-2.66512 6.12628,-3.99772 10.12421,-3.99781 1.16462,9e-5 2.41584,-0.5009 3.75366,-1.50299 7.66486,-5.83384 15.58162,-12.41801 23.75031,-19.7525 0.33045,-0.16265 0.4131,-0.4106 0.24795,-0.74386 -0.16546,-0.33304 -0.41596,-0.49962 -0.75149,-0.49973 l -88.24921,0 c -3.16881,1.1e-4 -5.79459,-1.12522 -7.87735,-3.37601 -2.08288,-2.25055 -3.12429,-4.95898 -3.12424,-8.1253 -5e-5,-3.16608 1.04136,-5.79186 3.12424,-7.87735 2.08276,-2.08524 4.70854,-3.12792 7.87735,-3.12805 l 113.99841,0 c 3.16856,1.3e-4 5.79434,1.04281 7.87735,3.12805 2.08264,2.08549 3.12405,4.71 3.12424,7.87353 -1.9e-4,7.6702 -2.58401,14.25436 -7.75146,19.75251 -11.66806,11.99858 -24.33539,22.99761 -38.00202,32.99713 -0.33075,0.16791 -0.4134,0.41841 -0.24795,0.75149 0.16515,0.33322 0.41565,0.4998 0.75149,0.49973 l 79.49829,0 c 3.16851,7e-5 5.87695,1.08344 8.12531,3.25012 2.24789,2.16681 3.37195,4.9172 3.37219,8.25119 -2.4e-4,3.3341 -1.1243,6.08449 -3.37219,8.25119 -2.24836,2.16679 -4.9568,3.25017 -8.12531,3.25012 l -82.74841,0 c -1.33274,5e-5 -1.99904,0.66635 -1.9989,1.9989 l 0,34.50017 c -1.4e-4,13.1683 -1.79178,21.2936 -5.37491,24.3759 -3.58341,3.0822 -13.2918,4.6234 -29.12521,4.6234 -5.83405,0 -15.25126,-0.2493 -28.25165,-0.7477 -3.33158,-0.1679 -6.16463,-1.4191 -8.49915,-3.7537 -2.33466,-2.3346 -3.58461,-5.085 -3.74984,-8.2511 -0.16537,-3.1663 0.83535,-5.8327 3.00216,-7.9995 2.16668,-2.1667 4.83188,-3.1662 7.99561,-2.9983 12.3341,0.4984 21.16893,0.7477 26.50451,0.7477 4.99969,0 7.91539,-0.4158 8.74711,-1.2474 0.83149,-0.8316 1.24729,-3.582 1.2474,-8.25124 z M 705.32092,897.23865 c -2.49758,2.58393 -5.4972,3.87584 -8.99887,3.87573 -3.5021,1.1e-4 -6.503,-1.2918 -9.00268,-3.87573 -2.50011,-2.58371 -3.75006,-5.62529 -3.74985,-9.12476 l 0,-25.00152 c -2.1e-4,-1.33246 -0.75043,-1.99876 -2.25067,-1.99891 l -154.49524,0 c -1.33265,1.5e-4 -1.99895,0.66645 -1.9989,1.99891 l 0,25.00152 c -5e-5,3.49947 -1.29196,6.54105 -3.87574,9.12476 -2.58386,2.58393 -5.62671,3.87584 -9.12857,3.87573 -3.50192,1.1e-4 -6.50281,-1.2918 -9.00268,-3.87573 -2.49992,-2.58371 -3.74987,-5.62529 -3.74985,-9.12476 l 0,-34.75189 c -2e-5,-3.83488 1.41778,-7.16892 4.25339,-10.00214 2.83556,-2.83287 6.16833,-4.2494 9.99832,-4.24957 l 17.25006,0 c 0.50349,1.7e-4 0.87987,-0.20836 1.12915,-0.62561 0.24918,-0.4169 0.28987,-0.79074 0.12207,-1.12152 -0.4985,-1.16967 -1.4153,-2.83796 -2.75039,-5.00488 -1.3352,-2.16657 -2.252,-3.7484 -2.7504,-4.74549 -1.66834,-2.83286 -2.00149,-5.87444 -0.99945,-9.12475 1.00194,-3.24993 3.08477,-5.45991 6.24847,-6.62995 3.33653,-1.3324 6.7545,-1.45701 10.25391,-0.37384 3.49928,1.08358 6.0831,3.20963 7.75146,6.37818 5.49818,9.66408 8.99752,16.08039 10.49805,19.24896 0.49837,1.33277 1.49782,1.99907 2.99835,1.9989 l 26.49689,0 c 0.50343,1.7e-4 0.87981,-0.20836 1.12915,-0.62561 0.24911,-0.4169 0.2898,-0.79074 0.12207,-1.12152 -4.16576,-7.83266 -6.3325,-11.91693 -6.50024,-12.25281 -1.66332,-2.83286 -1.95323,-5.87444 -0.86976,-9.12475 1.08327,-3.24993 3.20679,-5.45736 6.37055,-6.62232 3.33647,-1.3324 6.71248,-1.45701 10.12802,-0.37384 3.4153,1.08358 5.95716,3.20709 7.62558,6.37055 2.66507,4.66938 6.49757,12.00376 11.4975,22.00317 0.66616,1.16493 1.66561,1.7473 2.99835,1.74713 l 23.00262,0 c 1.33244,1.7e-4 2.41581,-0.5822 3.25013,-1.74713 6.00161,-10.16726 9.83411,-16.83534 11.49749,-20.00427 1.83596,-3.33131 4.37909,-5.74728 7.6294,-7.24793 3.24993,-1.50024 6.62466,-1.74947 10.1242,-0.74768 3.16346,0.83435 5.37089,2.7506 6.62232,5.74875 1.25101,2.99855 1.1264,5.91424 -0.37384,8.7471 l -7.4997,13.50403 c -0.16804,0.33078 -0.12735,0.70462 0.12207,1.12152 0.24903,0.41725 0.62542,0.62578 1.12915,0.62561 l 17.25007,0 c 3.82973,1.7e-4 7.1625,1.4167 9.99832,4.24957 2.83536,2.83322 4.25315,6.16726 4.25338,10.00214 l 0,34.75189 c -2.3e-4,3.49947 -1.25144,6.54105 -3.75366,9.12476 z"
         id="path2821"
         style="font-size:250px;font-style:normal;font-weight:normal;text-align:center;text-anchor:middle;fill:#000000;fill-opacity:1;stroke:none;font-family:'Rounded M+ 1m medium';-inkscape-font-specification:'Rounded M+ 1m medium'" />
      <path
         d="m 868.81793,1007.3613 c -28.16271,9.8318 -53.57874,17.6646 -76.24817,23.4986 -3.00091,0.8341 -5.792,0.4183 -8.37326,-1.2474 -2.58129,-1.6658 -4.1237,-3.9991 -4.62723,-7 l 0,-1.2512 c -0.49846,-2.8331 0.003,-5.4169 1.503,-7.7515 1.50043,-2.3346 3.58325,-3.835 6.24847,-4.5013 1.00197,-0.3306 1.50297,-0.913 1.50299,-1.7472 l 0,-85.25083 c -2e-5,-3.33141 1.12404,-6.12249 3.37219,-8.37326 2.24811,-2.25057 5.03919,-3.3759 8.37326,-3.376 3.33401,10e-5 6.16833,1.16612 8.50296,3.49807 2.33456,2.33215 3.50185,5.08254 3.5019,8.25119 l 0,78.00293 c -5e-5,1.3326 0.66625,1.8311 1.9989,1.4954 l 7.49969,-2.25071 c 1.50039,-0.66628 2.25062,-1.58181 2.25067,-2.74658 l 0,-97.25189 c -5e-5,-1.50033 -0.66635,-2.25056 -1.9989,-2.25067 l -11.7569,0 -11.49749,0 c -3.83507,1.1e-4 -7.12715,-1.37445 -9.87625,-4.12369 -2.74915,-2.749 -4.12371,-6.04108 -4.12369,-9.87625 l 0,-54.245 c -2e-5,-3.83485 1.37454,-7.16889 4.12369,-10.00213 2.7491,-2.83286 6.04118,-4.24938 9.87625,-4.24958 l 63.00354,0 c 3.82986,2e-4 7.16136,1.41672 9.9945,4.24958 2.83295,2.83324 4.24947,6.16728 4.24958,10.00213 l 0,30.49469 c -1.1e-4,0.33585 0.12577,0.58635 0.37765,0.7515 0.25166,0.16545 0.54285,0.0828 0.87357,-0.24796 11.00147,-12.66971 20.6679,-27.08671 28.99933,-43.25103 1.66815,-3.33131 4.0854,-5.8312 7.25174,-7.4997 3.16605,-1.66809 6.58274,-2.16909 10.25009,-1.50299 3.16858,0.6665 5.50317,2.37549 7.00378,5.12695 1.50029,2.75187 1.66559,5.54422 0.49591,8.37708 -0.99707,2.66539 -1.57944,4.08191 -1.74713,4.24957 -0.49861,1.16494 -0.16546,1.74732 0.99945,1.74713 l 59.74579,0 c 2.83791,1.9e-4 5.33908,1.08356 7.50351,3.25012 2.16398,2.16693 3.24608,4.66683 3.24628,7.4997 -2e-4,6.99886 -1.91518,13.58303 -5.74491,19.7525 -9.50135,14.50108 -20.41901,27.41763 -32.75299,38.7497 -0.9971,1.00211 -0.91317,1.83625 0.25177,2.50244 11.00138,7.83295 24.00186,14.99949 39.00143,21.49963 3.1635,1.33269 5.5794,3.58209 7.248,6.7482 1.668,3.16628 2.169,6.41513 1.503,9.74655 -0.5038,3.00097 -2.0882,5.25164 -4.7532,6.75202 -2.6654,1.50051 -5.4145,1.66836 -8.24734,0.50354 -1.00222,-0.33563 -1.50321,-0.002 -1.50299,0.99945 l 0,73.9975 c -2.2e-4,3.6672 -1.29213,6.7927 -3.87573,9.3765 -2.58404,2.5838 -5.70955,3.8757 -9.37652,3.8758 l -2.25068,0 c -2.99601,-10e-5 -5.5366,-1.0834 -7.62176,-3.2502 -2.08557,-2.1667 -3.12825,-4.7506 -3.12805,-7.7514 -2e-4,-1.002 -0.58258,-1.503 -1.74713,-1.503 l -54.74854,0 c -1.1649,0 -1.74727,0.501 -1.74713,1.503 -1.4e-4,3.0008 -1.04283,5.5847 -3.12805,7.7514 -2.08551,2.1668 -4.62609,3.2501 -7.62177,3.2502 l -2.00653,0 c -3.49947,-10e-5 -6.49909,-1.292 -8.99887,-3.8758 -2.50002,-2.5838 -3.74996,-5.6254 -3.74985,-9.1247 l 0,-75.00461 c -1.1e-4,-1.16469 -0.66641,-1.57922 -1.9989,-1.24359 -0.33072,0.16283 -0.87114,0.37009 -1.62124,0.62179 -0.75034,0.25184 -1.2933,0.45911 -1.62888,0.6218 -2.16686,0.83421 -4.3336,0.66764 -6.50024,-0.49973 -2.16686,-1.16723 -3.49946,-2.91563 -3.99781,-5.24521 -0.33579,-1.00192 -0.92071,-1.50291 -1.75476,-1.50299 l -17.25006,0 c -1.49544,8e-5 -2.24312,0.7503 -2.24304,2.25067 l 0,49.00361 c -8e-5,1.33262 0.66622,1.83107 1.9989,1.49536 4.33341,-1.33258 9.16536,-2.99833 14.49585,-4.99726 2.67019,-1.00196 5.25528,-0.71077 7.75528,0.87357 2.49979,1.58439 3.91504,3.7931 4.24576,6.62613 0.33558,3.33152 -0.28876,6.3731 -1.87302,9.12476 -1.58447,2.7517 -3.96103,4.7099 -7.12967,5.8746 z m 101.2497,-11.00156 0,-35.75134 c -2e-4,-1.33255 -0.74788,-1.99885 -2.24305,-1.9989 l -53.75671,0 c -1.4955,5e-5 -2.24318,0.66635 -2.24304,1.9989 l 0,35.75134 c -1.4e-4,1.50046 0.74754,2.25069 2.24304,2.25067 l 53.75671,0 c 1.49517,2e-5 2.24285,-0.75021 2.24305,-2.25067 z m 10.74981,-60.24933 c -12.83284,-6.33231 -24.91524,-13.832 -36.24725,-22.49908 -1.16493,-0.83405 -2.33222,-0.83405 -3.50189,0 -12.1665,8.33139 -25.66543,15.915 -40.49683,22.75085 -0.16798,0.33068 -0.16798,0.57991 0,0.74768 l 80.00183,0 c 0.3304,8e-5 0.4957,-0.12454 0.49591,-0.37384 -2.1e-4,-0.24915 -0.0841,-0.45769 -0.25177,-0.62561 z m -11.74926,-87.50152 -50.49897,0 c -0.83429,1.6e-4 -1.50059,0.33331 -1.9989,0.99945 -0.4986,0.66646 -0.4986,1.33276 0,1.9989 7.66485,11.00173 15.91476,20.75209 24.74976,29.2511 1.00182,1.00212 2.00127,1.00212 2.99835,0 9.83665,-9.33316 18.41971,-19.49804 25.74921,-30.49469 0.33549,-0.33553 0.37872,-0.71192 0.1297,-1.12915 -0.24943,-0.41691 -0.62581,-0.62545 -1.12915,-0.62561 z m -91.49933,31.50177 c -0.16287,-0.16772 -0.4121,-0.16772 -0.74768,0 -0.3358,0.16797 -0.50365,0.33582 -0.50354,0.50354 l 0,2.49481 c -1.1e-4,3.83517 -1.41663,7.12725 -4.24958,9.87625 -2.83314,2.74924 -6.16464,4.1238 -9.9945,4.12369 l -10.50568,0 c -1.49544,1.1e-4 -2.24312,0.75034 -2.24304,2.25067 l 0,13.25226 c -8e-5,1.3327 0.7476,1.999 2.24304,1.9989 l 16.75415,0 c 1.66819,10e-5 3.08472,0.58374 4.24957,1.75094 1.16465,1.1674 1.74703,2.66657 1.74714,4.49753 -1.1e-4,0.83424 0.33304,1.08601 0.99945,0.75531 17.33386,-6.33738 33.2513,-14.33807 47.75238,-24.00207 1.1646,-0.66619 1.24852,-1.50033 0.25177,-2.50244 -7.50239,-7.16642 -14.33578,-14.58219 -20.50019,-22.24732 -0.83428,-1.1697 -1.75235,-1.1697 -2.75421,0 -1.33273,1.66335 -3.33163,3.9954 -5.9967,6.99616 -2.16687,2.50257 -4.83334,3.75379 -7.99942,3.75366 -3.16631,1.3e-4 -6.00063,-1.16717 -8.50296,-3.50189 z m -64.75067,-3.99781 37.00256,0 c 1.33252,1.4e-4 1.99882,-0.75008 1.9989,-2.25067 l 0,-35.2478 c -8e-5,-1.33751 -0.66638,-2.00636 -1.9989,-2.00653 l -37.00256,0 c -1.50049,1.7e-4 -2.25072,0.66902 -2.25068,2.00653 l 0,35.2478 c -4e-5,1.50059 0.75019,2.25081 2.25068,2.25067 z"
         id="path2823"
         style="font-size:250px;font-style:normal;font-weight:normal;text-align:center;text-anchor:middle;fill:#000000;fill-opacity:1;stroke:none;font-family:'Rounded M+ 1m medium';-inkscape-font-specification:'Rounded M+ 1m medium'" />
    </g>
  </g>
</svg>
