<?xml version="1.0" encoding="UTF-8" standalone="no"?>
<!-- Created with Inkscape (http://www.inkscape.org/) -->

<svg
   xmlns:svg="http://www.w3.org/2000/svg"
   xmlns="http://www.w3.org/2000/svg"
   version="1.0"
   width="480"
   height="480"
   id="svg4203">
  <defs
     id="defs4205" />
  <g
     id="layer1">
    <rect
       width="480"
       height="480"
       x="0"
       y="-2.259434e-14"
       id="rect_bg"
       style="fill:#005d35;fill-opacity:1;stroke:none" />
    <rect
       width="472.44095"
       height="200"
       x="3.7795277"
       y="3.7795279"
       id="rect3169"
       style="fill:#ffffff;fill-opacity:1;fill-rule:nonzero;stroke:none;stroke-width:0.01;marker:none;visibility:visible;display:inline;overflow:visible;enable-background:accumulate" />
    <path
       d="m 92.59842,417.63779 194.64567,0 0,-58.58267 105.82677,85.03937 -300.47244,0"
       id="path3171"
       style="fill:#ffffff;fill-opacity:1;fill-rule:evenodd;stroke:none" />
    <path
       d="m 287.87035,33.084369 0,7.039909 -33.51957,0 0,7.599902 74.63904,0 0,-7.599902 -33.51957,0 0,-7.039909 -7.5999,0 z m -23.11971,17.119779 0,23.439702 53.83931,0 0,-23.439702 -53.83931,0 z m 46.47941,7.359906 0,8.719887 -38.79951,0 0,-8.719887 38.79951,0 z m -42.47946,30.079616 0,21.67972 45.91941,0 0,-21.67972 -45.91941,0 z m 38.55951,7.2799 0,7.03991 -31.2796,0 0,-7.03991 31.2796,0 z m -51.83934,-18.23976 0,34.07956 7.35991,0 0,-26.79966 57.75925,0 0,26.79966 7.27991,0 0,-34.07956 -72.39907,0 z"
       id="path3202"
       style="font-size:80px;font-style:normal;font-variant:normal;font-weight:normal;font-stretch:normal;text-align:start;line-height:125%;writing-mode:lr-tb;text-anchor:start;fill:#005d35;fill-opacity:1;fill-rule:nonzero;stroke:none;stroke-width:1;marker:none;visibility:visible;display:inline;overflow:visible;enable-background:accumulate;font-family:GD-HighwayGothicJA-OTF;-inkscape-font-specification:GD-HighwayGothicJA-OTF" />
    <path
       d="m 376.28364,90.44363 0.56,7.27991 c 1.1496,-0.0514 3.0281,-0.56197 5.6356,-1.53184 2.6073,-0.96985 5.4458,-2.57082 8.5154,-4.8029 3.0696,-2.23205 5.8725,-5.26707 8.4088,-9.10506 l 0,15.59979 7.5999,0 0,-15.99979 c 2.4606,3.94367 5.228,7.06066 8.3021,9.35099 3.074,2.29035 5.9302,3.93181 8.5688,4.92438 2.6384,0.99259 4.5347,1.51406 5.6888,1.56443 l 0.56,-7.27991 c -1.0651,-0.0533 -3.315,-0.98664 -6.7499,-2.79996 -3.435,-1.8133 -6.705,-4.90659 -9.8099,-9.27988 l 13.4398,0 0,-24.479689 -19.9997,0 0,-6.719914 23.3597,0 0,-7.599902 -23.3597,0 0,-6.479916 -7.5999,0 0,6.479916 -23.3598,0 0,7.599902 23.3598,0 0,6.719914 -19.9998,0 0,24.479689 13.5999,0 c -3.0767,4.37329 -6.3633,7.46658 -9.8599,9.27988 -3.4967,1.81332 -5.7833,2.74664 -6.86,2.79996 l 0,0 z m 43.3595,-29.199624 0,9.839874 -12.6398,0 0,-9.839874 12.6398,0 z m -32.6396,9.839874 0,-9.839874 12.3999,0 0,9.839874 -12.3999,0 z m -28.07963,-37.759514 -3.67995,6.799912 c 2.00164,1.611705 3.85828,3.088351 5.56988,4.429942 1.7117,1.341707 3.9883,2.958352 6.83,4.849939 l 3.1199,-7.03991 c -0.1233,-0.05661 -1.3567,-0.923261 -3.6999,-2.599967 -2.3434,-1.676582 -5.0566,-3.823219 -8.13993,-6.439916 l 0,0 z m 11.19983,57.919254 0,-27.759643 -14.95978,0 0,7.599903 7.59988,0 0,20.15974 c 0.0733,1.26333 -0.2733,2.71664 -1.04,4.35994 -0.7666,1.64332 -2.3933,3.57663 -4.8799,5.79993 l -3.03996,2.55997 1.91997,2.79996 2.55997,3.35996 3.35992,-3.03996 c 1.84,-1.61332 3.36,-3.18663 4.56,-4.71994 3.3416,2.51829 6.7182,4.4016 10.1298,5.64992 3.4116,1.24831 6.9683,1.87164 10.6699,1.86998 l 45.3595,0 0,-7.5999 -45.3595,0 c -2.2983,0.095 -4.8616,-0.275 -7.6899,-1.10999 -2.8283,-0.83498 -6.0516,-2.70496 -9.6699,-5.60993 0.32,-1.35997 0.48,-2.79995 0.48,-4.31994 l 0,0 z"
       id="path3190"
       style="font-size:80px;font-style:normal;font-variant:normal;font-weight:normal;font-stretch:normal;text-align:start;line-height:125%;writing-mode:lr-tb;text-anchor:start;fill:#005d35;fill-opacity:1;fill-rule:nonzero;stroke:none;stroke-width:1;marker:none;visibility:visible;display:inline;overflow:visible;enable-background:accumulate;font-family:GD-HighwayGothicJA-OTF;-inkscape-font-specification:GD-HighwayGothicJA-OTF" />
    <path
       d="m 122.9167,48.493973 -33.98437,0 0,7.1875 25.15625,0 0,52.734377 -57.57813,0 0,-52.734377 25.15625,0 0,-7.1875 -33.984373,0 0,-7.265625 18.437503,0 0,-9.140625 7.1875,0 0,9.140625 23.98437,0 0,-9.140625 7.1875,0 0,9.140625 18.4375,0 z m -16.01562,14.375 -43.20313,0 0,7.968747 43.20313,0 z M 63.69795,93.2596 l 0,7.96875 43.20313,0 0,-7.96875 z m 0,-7.1875 43.20313,0 0,-7.96875 -43.20313,0 z"
       id="path2826"
       style="font-size:80px;font-style:normal;font-weight:normal;text-align:center;text-anchor:middle;fill:#005d35;fill-opacity:1;stroke:none;font-family:GD-HighwayGothicJA-TTF;-inkscape-font-specification:GD-HighwayGothicJA-TTF" />
    <path
       d="m 184.65108,77.79085 -19.84375,0 0,7.65625 19.84375,0 z m -29.6875,-38.906252 11.875,0 0,-7.03125 7.34375,0 0,7.03125 18.04687,0 0,7.34375 -18.04687,0 0,6.796875 c -3e-5,0.208381 -3e-5,0.390673 0,0.546875 l 0,0 18.04687,0 0,7.34375 -19.29687,0 c -1.09378,3.48962 -2.76044,6.588575 -5,9.296872 l 0,0 24.29687,0 0,38.04688 -35,0 0,-30.78125 c -1.61459,0.57294 -3.22917,0.96356 -4.84375,1.17187 l 0,0 -1.09375,-7.26562 c 6.51041,-0.93747 11.09374,-4.427051 13.75,-10.468752 l 0,0 -14.0625,0 0,-7.34375 15.85938,0 c -2e-5,-0.156202 -2e-5,-0.338494 0,-0.546875 l 0,0 0,-6.796875 -11.875,0 z m 40.70312,-3.125 30.54688,0 0,6.25 c -0.52091,3.020889 -1.35424,5.937553 -2.5,8.75 -1.14591,2.812547 -2.60424,5.442753 -4.375,7.890625 -1.7709,2.447957 -3.90632,4.531288 -6.40625,6.25 l 0,0 c 1.77077,1.041702 3.46347,2.265659 5.07812,3.671875 l 0,0 c 2.9166,3.072942 5.02597,6.601592 6.32813,10.585942 1.302,3.98439 1.927,8.05991 1.875,12.22656 l 0,0 0,0.3125 c -0.67716,4.27084 -3.15112,6.53646 -7.42188,6.79687 l 0,0 -15.46875,0 0,10.625 -7.65625,0 z m 22.57813,7.34375 -14.92188,0 0,17.8125 c 4.27078,-0.885376 7.60411,-3.046832 10,-6.484375 2.39577,-3.43745 4.03639,-7.213488 4.92188,-11.328125 z m -14.92188,25.78125 0,22.187502 15.23438,0 c 0.26034,-6.40624 -1.6407,-12.05727 -5.70313,-16.95313 -2.70839,-2.7083 -5.88547,-4.453091 -9.53125,-5.234372 z m -18.67187,32.031252 0,-7.89063 -19.84375,0 0,7.89063 z"
       id="path2828"
       style="font-size:80px;font-style:normal;font-weight:normal;text-align:center;text-anchor:middle;fill:#005d35;fill-opacity:1;stroke:none;font-family:GD-HighwayGothicJA-TTF;-inkscape-font-specification:GD-HighwayGothicJA-TTF" />
    <g
       id="text2838"
       style="font-size:40px;font-style:normal;font-weight:normal;text-align:center;text-anchor:middle;fill:#005d35;fill-opacity:1;stroke:none;font-family:GD-HighwayGothicJA-TTF;-inkscape-font-specification:GD-HighwayGothicJA-TTF">
      <path
         d="m 46.886276,147.05879 c -0.03256,-3.41793 1.00911,-6.46155 3.125,-9.13086 2.734366,-2.99475 6.168607,-4.44331 10.302735,-4.3457 l 0,0 c 9.472629,0.0977 14.176401,4.93168 14.111328,14.50195 l 0,0 -7.03125,0 c 0.03253,-4.81767 -2.327496,-7.29163 -7.080078,-7.42187 l 0,0 c -4.069024,0.26045 -6.184907,2.39261 -6.347657,6.39648 l 0,0 c 0.03254,2.96227 1.497384,4.89912 4.394532,5.81055 l 0,0 9.179687,3.90625 c 2.44138,0.84637 4.386365,2.31935 5.834961,4.41894 1.448536,2.09963 2.156543,4.43524 2.124023,7.00684 l 0,0 c 0.03252,3.97136 -1.23701,7.43815 -3.808593,10.40039 -2.929713,2.96224 -6.494163,4.4108 -10.69336,4.3457 l 0,0 c -4.134128,0.22786 -7.747405,-0.99284 -10.839843,-3.66211 -1.529954,-1.52994 -2.587895,-3.34472 -3.173829,-5.44433 -0.58594,-2.0996 -0.846356,-4.22363 -0.78125,-6.37207 l 0,0 7.03125,0 c -0.09767,1.46485 0.08951,2.94597 0.561524,4.44336 0.471994,1.4974 1.407866,2.57975 2.807617,3.24707 1.399725,0.66732 2.864567,0.93587 4.394531,0.80566 l 0,0 c 4.524718,-0.0325 7.01495,-2.26236 7.470703,-6.68945 l 0,0 c 0.09763,-1.46484 -0.333683,-2.66926 -1.293945,-3.61328 -0.960309,-0.944 -2.075217,-1.62759 -3.344726,-2.05078 l 0,0 -9.863282,-4.05274 c -1.953133,-0.81378 -3.515632,-2.06704 -4.6875,-3.75976 -1.692712,-2.66925 -2.490237,-5.58266 -2.392578,-8.74024 z"
         id="path2843"
         style="font-size:50px;fill:#005d35" />
      <path
         d="m 103.42924,134.99825 0,18.75 -15.185542,0 0,-18.75 -7.080078,0 0,46.5332 7.080078,0 0,-20.75195 15.185542,0 0,20.75195 7.03125,0 0,-46.5332 z"
         id="path2845"
         style="font-size:50px;fill:#005d35" />
      <path
         d="m 139.07378,134.99825 0,32.86132 c -0.0651,5.11069 -2.60419,7.81251 -7.61719,8.10547 l 0,0 c -5.01304,-0.29296 -7.53582,-2.99478 -7.56836,-8.10547 l 0,0 0,-32.86132 -7.08008,0 0,32.86132 c -0.0651,3.7435 0.96028,7.09636 3.07617,10.0586 2.99479,3.54817 6.8522,5.2246 11.57227,5.02929 l 0,0 c 4.72003,0.19531 8.57745,-1.48112 11.57226,-5.02929 2.08331,-2.96224 3.1087,-6.3151 3.07618,-10.0586 l 0,0 0,-32.86132 z"
         id="path2847"
         style="font-size:50px;fill:#005d35" />
      <path
         d="m 180.62651,134.99825 -29.6875,0 0,7.08007 11.32813,0 0,39.45313 7.03125,0 0,-39.45313 11.32812,0 z"
         id="path2849"
         style="font-size:50px;fill:#005d35" />
      <path
         d="m 202.06206,133.58223 c 5.63148,0.0977 9.9609,2.55538 12.98828,7.37305 1.59502,2.63675 2.70992,5.43623 3.34473,8.39843 0.63472,2.96227 0.95211,5.95706 0.95214,8.98438 l 0,0 c -3e-5,3.02736 -0.31742,6.03029 -0.95214,9.00879 -0.63481,2.97852 -1.74971,5.76986 -3.34473,8.37402 -3.02738,4.7526 -7.3568,7.16145 -12.98828,7.22656 l 0,0 c -5.66408,-0.0651 -10.00978,-2.47396 -13.03711,-7.22656 -1.56251,-2.60416 -2.66928,-5.3955 -3.32031,-8.37402 -0.65105,-2.9785 -0.96029,-5.98143 -0.92774,-9.00879 l 0,0 c -0.0326,-3.02732 0.27669,-6.02211 0.92774,-8.98438 0.65103,-2.9622 1.7578,-5.76168 3.32031,-8.39843 3.02733,-4.81767 7.37303,-7.27535 13.03711,-7.37305 z m -9.91211,24.75586 c -0.0326,2.27866 0.13833,4.54103 0.51269,6.78711 0.37434,2.2461 1.1149,4.37826 2.22168,6.39648 1.56249,2.86459 3.95506,4.34571 7.17774,4.44336 l 0,0 c 3.19008,-0.0976 5.59893,-1.57877 7.22656,-4.44336 1.04164,-2.01822 1.74965,-4.15038 2.12402,-6.39648 0.37432,-2.24608 0.5615,-4.50845 0.56153,-6.78711 l 0,0 c -3e-5,-2.24607 -0.18721,-4.5003 -0.56153,-6.7627 -0.37437,-2.26234 -1.08238,-4.40264 -2.12402,-6.42089 -1.62763,-2.86455 -4.03648,-4.36195 -7.22656,-4.49219 l 0,0 c -3.22268,0.13024 -5.61525,1.62764 -7.17774,4.49219 -1.10678,2.01825 -1.84734,4.15855 -2.22168,6.42089 -0.37436,2.2624 -0.54525,4.51663 -0.51269,6.7627 z"
         id="path2851"
         style="font-size:50px;fill:#005d35" />
      <path
         d="m 263.14604,174.54903 0,-13.76953 16.60156,0 0,-7.03125 -16.60156,0 0,-11.66993 18.75,0 0,-7.08007 -25.83008,0 0,46.5332 26.51368,0 0,-6.98242 z"
         id="path2853"
         style="font-size:50px;fill:#005d35" />
      <path
         d="m 318.71245,181.53145 -12.74414,-23.53516 12.01172,-22.99804 -8.10547,0 -7.47071,16.25976 -7.37304,-16.25976 -8.10547,0 12.01172,22.99804 -12.74414,23.53516 8.10547,0 8.10546,-16.74805 8.1543,16.74805 z"
         id="path2855"
         style="font-size:50px;fill:#005d35" />
      <path
         d="m 340.14799,134.99825 -16.60156,0 0,46.5332 7.08008,0 0,-17.57813 9.52148,0 c 3.05988,-0.13019 5.59894,-1.38345 7.61719,-3.75976 2.53903,-3.09243 3.77601,-6.65688 3.71094,-10.69336 l 0,0 c 0.0651,-4.00388 -1.17191,-7.56833 -3.71094,-10.69336 -2.01825,-2.34371 -4.55731,-3.61324 -7.61719,-3.80859 z m -1.36718,21.92382 -8.1543,0 0,-14.84375 8.1543,0 c 1.888,0.13025 3.31215,0.96032 4.27246,2.49024 0.96026,1.52998 1.40785,3.17386 1.34277,4.93164 l 0,0 c 0.0651,1.79039 -0.38251,3.45868 -1.34277,5.00488 -0.96031,1.54625 -2.38446,2.35191 -4.27246,2.41699 z"
         id="path2857"
         style="font-size:50px;fill:#005d35" />
      <path
         d="m 393.22417,134.99825 -6.05469,33.00781 -6.00586,-33.00781 -6.00586,0 -6.00586,33.00781 -6.00586,-33.00781 -7.42187,0 9.52148,46.5332 6.68945,0 6.20118,-31.34766 6.20117,31.34766 6.68945,0 9.57031,-46.5332 z"
         id="path2859"
         style="font-size:50px;fill:#005d35" />
      <path
         d="m 436.19292,134.99825 -8.1543,0 -8.1543,20.8496 -8.10547,-20.8496 -8.10546,0 12.74414,28.07617 0,18.45703 7.03125,0 0,-18.45703 z"
         id="path2861"
         style="font-size:50px;fill:#005d35" />
    </g>
    <g
       transform="translate(0,4)"
       id="text2863"
       style="font-size:40px;font-style:normal;font-weight:normal;text-align:center;text-anchor:middle;fill:#ffffff;fill-opacity:1;stroke:none;font-family:GD-HighwayGothicJA-TTF;-inkscape-font-specification:GD-HighwayGothicJA-TTF">
      <path
         d="m 65.52713,280.04117 29.052735,0 0,-18.93555 -23.378907,0 0,-6.35742 53.251952,0 0,6.35742 -23.3789,0 0,18.93555 28.84765,0 0,6.63086 -64.39453,0 z m -1.09375,-32.74414 c 4.101557,-1.04815 7.770173,-3.00778 11.00586,-5.87891 2.187485,-1.95959 4.101545,-4.16988 5.742187,-6.63086 l 0,0 5.673828,3.41797 c -2.050803,3.14457 -4.466165,5.90173 -7.246094,8.27149 -4.010429,3.46357 -8.499357,5.87893 -13.466796,7.24609 l 0,0 z m 44.0918,-9.0918 5.67383,-3.41797 c 1.59499,2.46098 3.48627,4.67127 5.67382,6.63086 3.23562,2.87113 6.92702,4.83076 11.07422,5.87891 l 0,0 -1.70898,6.42578 c -5.01308,-1.36716 -9.50201,-3.78252 -13.4668,-7.24609 -2.82557,-2.36976 -5.24093,-5.12692 -7.24609,-8.27149 z m 21.05468,-12.91992 0,11.14258 -6.42578,0 0,-4.78516 -50.927731,0 0,4.78516 -6.425781,0 0,-11.14258 28.642578,0 0,-5.46875 6.494144,0 0,5.46875 z"
         id="path2986"
         style="font-size:70px;fill:#ffffff" />
      <path
         d="m 163.28104,280.24625 33.42773,0 0,6.63086 -33.42773,0 c -0.18233,-1e-5 -0.34183,-1e-5 -0.47852,0 l 0,0 c -2.82555,0.36457 -5.30927,-0.29623 -7.45117,-1.98243 l 0,0 c -1.00263,-1.09375 -1.5495,-2.347 -1.64063,-3.75976 -0.0912,-1.41276 -0.11395,-2.84831 -0.0684,-4.30664 l 0,0 c -2e-5,-0.13672 -2e-5,-0.29622 0,-0.47852 l 0,0 0,-8.4082 c 4.87628,0.0456 9.79815,0.0456 14.76563,0 6.24345,1e-5 12.48693,1e-5 18.73047,0 l 0,0 0,-6.35742 c -6.06125,2e-5 -12.12244,2e-5 -18.1836,0 -4.69404,2e-5 -9.38804,2e-5 -14.08203,0 l 0,0 0,-6.08399 c -0.8659,0.50133 -1.75457,0.91149 -2.66601,1.23047 l 0,0 c -1.5495,0.68362 -3.12176,1.16213 -4.7168,1.43555 l 0,0 0,-6.63086 2.1875,-0.75195 c 2.77993,-1.00258 5.03579,-2.71156 6.76758,-5.12696 l 0,0 -8.68164,0 0,-6.69922 10.32226,0 c -2e-5,-0.13667 -2e-5,-0.29618 0,-0.47851 l 0,0 0,-5.67383 -7.38281,0 0,-6.63086 7.38281,0 0,-6.15234 6.35743,0 0,6.15234 19.3457,0 0,-6.15234 6.35742,0 0,6.15234 7.38281,0 0,6.63086 -7.38281,0 0,5.67383 c -0.0456,0.18233 -0.0456,0.34184 0,0.47851 l 0,0 10.32227,0 0,6.69922 -8.61328,0 c 1.68613,2.4154 3.9192,4.12438 6.69921,5.12696 l 0,0 2.25586,0.75195 0,6.63086 c -1.68626,-0.27342 -3.28131,-0.75193 -4.78515,-1.43555 l 0,0 c -0.82038,-0.31898 -1.64069,-0.68357 -2.46094,-1.09375 l 0,0 0,18.73047 c -4.92193,0.0456 -9.8438,0.0456 -14.76563,0 -6.24352,10e-6 -12.48701,10e-6 -18.73046,0 l 0,0 c -3e-5,0.6836 -3e-5,1.34441 0,1.98242 l 0,0 c -3e-5,0.1823 -3e-5,0.3418 0,0.47852 l 0,0 c -0.36461,2.1875 0.4557,3.32682 2.46093,3.41797 l 0,0 c 0.22784,0 0.47849,0 0.75196,0 z m -22.69532,-19.89258 6.35743,0 0,0.27344 c -2e-5,4.28387 -0.47853,8.47657 -1.43555,12.57812 -1.27605,5.69662 -3.91928,10.66406 -7.92969,14.90234 l 0,0 -4.375,-4.64843 c 3.09896,-3.50912 5.14974,-7.63346 6.15235,-12.37305 0.77473,-3.46353 1.18488,-6.94985 1.23046,-10.45898 l 0,0 z m -3.6914,-21.66992 c 3.28124,2.87113 6.72199,5.51436 10.32226,7.92968 l 0,0 -2.66601,6.15235 c -3.78256,-2.46091 -7.40561,-5.1725 -10.86914,-8.13477 l 0,0 z m 0,-19.00391 c 3.28124,2.82558 6.72199,5.44602 10.32226,7.86133 l 0,0 -2.66601,6.15234 c -3.78256,-2.46089 -7.40561,-5.14969 -10.86914,-8.0664 l 0,0 z m 21.32812,33.56445 c -0.82033,0.63805 -1.66343,1.2305 -2.52929,1.77735 l 0,0 36.8457,0 c -0.86595,-0.54685 -1.70904,-1.1393 -2.5293,-1.77735 l 0,0 c -2.41542,-2.05075 -4.14719,-4.58004 -5.19531,-7.58789 l 0,0 -21.39648,0 c -1.09378,3.00785 -2.82555,5.53714 -5.19532,7.58789 z m 6.22071,-14.76562 c -4e-5,0.18233 -4e-5,0.34184 0,0.47851 l 0,0 19.3457,0 c -0.0456,-0.13667 -0.0456,-0.29618 0,-0.47851 l 0,0 0,-5.67383 -19.3457,0 z"
         id="path2988"
         style="font-size:70px;fill:#ffffff" />
    </g>
    <g
       transform="translate(0,4)"
       id="text2863-4"
       style="font-size:40px;font-style:normal;font-weight:normal;text-align:center;text-anchor:middle;fill:#ffffff;fill-opacity:1;stroke:none;font-family:GD-HighwayGothicJA-TTF;-inkscape-font-specification:GD-HighwayGothicJA-TTF">
      <path
         d="m 288.80643,248.32242 6.42578,0 0,5.12695 10.80078,0 0,6.63086 -10.04883,0 c 2.09633,2.77997 4.80792,4.76239 8.13477,5.94727 l 0,0 -1.77735,6.15234 c -2.64325,-0.72916 -5.01304,-2.0052 -7.10937,-3.82812 l 0,0 0,19.3457 -6.42578,0 0,-15.38086 c -2.87111,3.28125 -5.92449,6.403 -9.16016,9.36523 l 0,0 -4.375,-4.58007 c 3.96484,-3.6914 7.63346,-7.67903 11.00586,-11.9629 1.23046,-1.41274 2.07355,-3.00779 2.5293,-4.78515 l 0,0 0,-0.27344 -10.80078,0 0,-6.63086 10.80078,0 z m 0,-28.30078 6.42578,0 0,6.35742 10.80078,0 0,6.63086 -3.69141,0 0,7.92969 3.69141,0 0,6.63086 -28.02734,0 0,-6.63086 3.41796,0 0,-7.92969 -3.41796,0 0,-6.63086 10.80078,0 z m 25.70312,6.83593 c 3.60022,-0.0455 7.1549,-0.54682 10.66406,-1.5039 4.55724,-1.27599 8.95502,-3.05333 13.19336,-5.33203 l 0,0 3.21289,5.67383 c -7.38287,4.10161 -15.26697,6.53976 -23.65234,7.31445 l 0,0 c -0.0456,2.36984 -0.0456,4.76241 0,7.17773 l 0,0 25.70313,0 0,6.63086 -6.42579,0 0,40.87891 -6.42578,0 0,-40.87891 -12.85156,0 0,21.73828 c 0.27339,6.69923 -1.61788,12.57813 -5.67383,17.63672 l 0,0 -5.12695,-3.89648 c 3.00778,-4.01042 4.39775,-8.59049 4.16992,-13.74024 l 0,0 0,-41.69922 z m -26.45508,14.08204 7.92969,0 0,-7.92969 -7.92969,0 z"
         id="path3008"
         style="font-size:70px;fill:#ffffff" />
      <path
         d="m 358.66971,286.80875 -6.28906,0 0,-21.60157 c -0.77475,0.95705 -1.59506,1.82293 -2.46094,2.59766 l 0,0 -4.16992,-4.78516 c 3.05338,-3.00779 5.42317,-6.5169 7.10937,-10.52734 1.95963,-4.37497 3.21288,-8.95504 3.75977,-13.74023 l 0,0 6.28906,0.54687 c -0.63804,5.42321 -2.0508,10.59573 -4.23828,15.51758 l 0,0 z m 7.38281,-46.48438 45.11719,0 0,6.28906 -20.09766,0 -10.18554,5.94727 30.2832,0 0,34.24805 -45.11719,0 0,-32.88086 12.44141,-7.31446 -12.44141,0 z m -18.18359,-14.69726 28.64258,0 0,-5.60547 6.35742,0 0,5.60547 28.30078,0 0,11.55273 -6.28906,0 0,-5.26367 -50.72266,0 0,6.28906 -6.28906,0 z m 57.01172,33.22265 -32.53907,0 0,7.72461 32.53907,0 z m -32.53907,21.66992 32.53907,0 0,-7.65625 -32.53907,0 z"
         id="path3010"
         style="font-size:70px;fill:#ffffff" />
    </g>
    <g
       id="text2863-1"
       style="font-size:40px;font-style:normal;font-weight:normal;text-align:center;text-anchor:middle;fill:#ffffff;fill-opacity:1;stroke:none;font-family:GD-HighwayGothicJA-TTF;-inkscape-font-specification:GD-HighwayGothicJA-TTF">
      <path
         d="m 87.052521,337.72281 5.976562,0 -10.46875,-37.22656 -6.210937,0 -10.46875,37.22656 5.9375,0 2.109375,-8.125 11.015625,0 z m -11.71875,-13.78906 4.140625,-15.78125 4.0625,15.78125 z"
         id="path2971"
         style="fill:#ffffff" />
      <path
         d="m 101.6619,306.74625 0,-6.25 -5.351567,0 0,6.25 z m -5.351567,30.97656 5.351567,0 0,-25.89844 -5.351567,0 z"
         id="path2973"
         style="fill:#ffffff" />
      <path
         d="m 111.27127,315.22281 -0.11719,-3.39844 -5.07812,0 0,25.89844 5.35156,0 0,-15.19531 c -0.0781,-1.11978 0.17577,-2.15494 0.76172,-3.10547 0.58593,-0.95051 1.41275,-1.61457 2.48047,-1.99219 1.06769,-0.37759 2.14842,-0.55337 3.24219,-0.52734 l 0,0 0,-5.625 c -2.94272,0.10419 -5.15626,1.41929 -6.64063,3.94531 z"
         id="path2975"
         style="fill:#ffffff" />
      <path
         d="m 132.24783,311.00406 c 2.7604,0.18231 5.01301,1.38023 6.75782,3.59375 2.21351,3.04689 3.2682,6.47137 3.16406,10.27344 l 0,0 c 0.10414,3.77604 -0.95055,7.17448 -3.16406,10.19531 -1.74481,2.1875 -3.99742,3.33333 -6.75782,3.4375 l 0,0 c -2.55209,-0.13021 -4.5573,-1.25 -6.01562,-3.35938 l 0,0 0,13.39844 -5.3125,0 0,-36.64062 4.49219,0 0.54687,2.96875 c 1.43228,-2.36977 3.52864,-3.65883 6.28906,-3.86719 z m -0.85937,22.89062 c 1.38019,-0.0521 2.45441,-0.61848 3.22265,-1.69921 0.76822,-1.08073 1.26952,-2.2526 1.50391,-3.51563 0.23436,-1.26301 0.36457,-2.53254 0.39063,-3.80859 l 0,0 c -0.0261,-1.24999 -0.16278,-2.5065 -0.41016,-3.76953 -0.24741,-1.26301 -0.74872,-2.43488 -1.50391,-3.51563 -0.75522,-1.08071 -1.82293,-1.67316 -3.20312,-1.77734 l 0,0 c -1.40626,0.10418 -2.48699,0.69663 -3.24219,1.77734 -0.75522,1.08075 -1.26303,2.25262 -1.52344,3.51563 -0.26042,1.26303 -0.39063,2.51954 -0.39062,3.76953 l 0,0 c -10e-6,1.30209 0.12369,2.57813 0.37109,3.82812 0.24739,1.25001 0.7552,2.40886 1.52344,3.47656 0.76822,1.06771 1.85546,1.64063 3.26172,1.71875 z"
         id="path2977"
         style="fill:#ffffff" />
      <path
         d="m 156.11502,338.58218 c 2.91665,-0.0781 5.39061,-1.18489 7.42188,-3.32031 2.52601,-2.99479 3.73695,-6.48437 3.63281,-10.46875 l 0,0 c 0.10414,-3.98436 -1.1068,-7.48696 -3.63281,-10.50781 -2.03127,-2.10935 -4.50523,-3.21612 -7.42188,-3.32031 l 0,0 c -2.94272,0.10419 -5.41667,1.21096 -7.42187,3.32031 -2.55209,3.02085 -3.75001,6.52345 -3.59375,10.50781 l 0,0 c -0.15626,3.98438 1.04166,7.47396 3.59375,10.46875 2.0052,2.13542 4.47915,3.24218 7.42187,3.32031 z m 0,-4.76562 c -1.77084,-0.0521 -3.08595,-0.84635 -3.94531,-2.38281 -1.04168,-2.08333 -1.51043,-4.29687 -1.40625,-6.64063 l 0,0 c -0.10418,-2.31769 0.36457,-4.51821 1.40625,-6.60156 0.85936,-1.53644 2.17447,-2.34373 3.94531,-2.42188 l 0,0 c 1.77082,0.0781 3.0729,0.88544 3.90625,2.42188 1.04165,2.08335 1.52342,4.28387 1.44531,6.60156 l 0,0 c 0.0781,2.34376 -0.40366,4.5573 -1.44531,6.64063 -0.83335,1.53646 -2.13543,2.33073 -3.90625,2.38281 z"
         id="path2979"
         style="fill:#ffffff" />
      <path
         d="m 175.7244,315.22281 -0.11719,-3.39844 -5.07813,0 0,25.89844 5.35157,0 0,-15.19531 c -0.0781,-1.11978 0.17577,-2.15494 0.76171,-3.10547 0.58593,-0.95051 1.41276,-1.61457 2.48047,-1.99219 1.0677,-0.37759 2.14843,-0.55337 3.24219,-0.52734 l 0,0 0,-5.625 c -2.94272,0.10419 -5.15626,1.41929 -6.64062,3.94531 z"
         id="path2981"
         style="fill:#ffffff" />
      <path
         d="m 196.42752,316.35562 0,-4.53125 -3.67187,0 0,-7.92969 -5.35157,0 0,7.92969 -3.125,0 0,4.53125 3.125,0 0,14.21875 c -0.026,1.32813 0.11719,2.65625 0.42969,3.98438 0.3125,1.32812 1.04166,2.39583 2.1875,3.20312 0.96353,0.54687 2.01171,0.79427 3.14453,0.74219 1.1328,-0.0521 2.22004,-0.20834 3.26172,-0.46875 l 0,0 0,-4.88281 c -0.54689,0.15625 -1.14584,0.24088 -1.79687,0.2539 -0.65106,0.013 -1.15236,-0.24739 -1.50391,-0.78125 -0.35157,-0.53385 -0.47527,-1.1263 -0.37109,-1.77734 l 0,0 0,-14.49219 z"
         id="path2983"
         style="fill:#ffffff" />
    </g>
    <g
       id="text2863-1-9"
       style="font-size:40px;font-style:normal;font-weight:normal;text-align:center;text-anchor:middle;fill:#ffffff;fill-opacity:1;stroke:none;font-family:GD-HighwayGothicJA-TTF;-inkscape-font-specification:GD-HighwayGothicJA-TTF">
      <path
         d="m 264.44315,310.14468 c -0.026,-2.73434 0.80728,-5.16924 2.5,-7.30468 2.18749,-2.3958 4.93488,-3.55466 8.24218,-3.47657 l 0,0 c 7.57811,0.0782 11.34112,3.94535 11.28907,11.60157 l 0,0 -5.625,0 c 0.026,-3.85414 -1.862,-5.83331 -5.66407,-5.9375 l 0,0 c -3.25522,0.20836 -4.94792,1.91409 -5.07812,5.11718 l 0,0 c 0.026,2.36982 1.19791,3.9193 3.51562,4.64844 l 0,0 7.34375,3.125 c 1.95311,0.6771 3.50909,1.85548 4.66797,3.53516 1.15883,1.6797 1.72524,3.54818 1.69922,5.60547 l 0,0 c 0.026,3.17708 -0.98961,5.95052 -3.04687,8.32031 -2.34377,2.36979 -5.19533,3.52864 -8.55469,3.47656 l 0,0 c -3.3073,0.18229 -6.19793,-0.79427 -8.67188,-2.92969 -1.22396,-1.22395 -2.07031,-2.67578 -2.53906,-4.35546 -0.46875,-1.67969 -0.67708,-3.3789 -0.625,-5.09766 l 0,0 5.625,0 c -0.0781,1.17188 0.0716,2.35678 0.44922,3.55469 0.37759,1.19792 1.12629,2.0638 2.24609,2.59765 1.11978,0.53386 2.29166,0.7487 3.51563,0.64453 l 0,0 c 3.61977,-0.026 5.61196,-1.80989 5.97656,-5.35156 l 0,0 c 0.0781,-1.17187 -0.26695,-2.13541 -1.03516,-2.89062 -0.76824,-0.7552 -1.66017,-1.30208 -2.67578,-1.64063 l 0,0 -7.89062,-3.24219 c -1.56251,-0.65102 -2.81251,-1.65363 -3.75,-3.00781 -1.35417,-2.1354 -1.99219,-4.46612 -1.91406,-6.99219 z"
         id="path2991"
         style="fill:#ffffff" />
      <path
         d="m 302.60721,310.965 c -1.3021,0.0781 -2.44793,0.48179 -3.4375,1.21093 -0.98959,0.72919 -1.82293,1.60159 -2.5,2.61719 l 0,0 0,-14.29687 -5.35156,0 0,37.22656 5.35156,0 0,-16.01563 c -0.0521,-1.40623 0.36457,-2.68227 1.25,-3.82812 0.88541,-1.14582 2.0703,-1.7578 3.55469,-1.83594 l 0,0 c 1.11977,0.0261 1.97264,0.48179 2.55859,1.36719 0.58592,0.88543 0.86587,1.84897 0.83984,2.89062 l 0,0 0,17.42188 5.35157,0 0,-17.96875 c 0.026,-1.45832 -0.22138,-2.89712 -0.74219,-4.31641 -0.52085,-1.41925 -1.41929,-2.53253 -2.69531,-3.33984 -1.27606,-0.80727 -2.66929,-1.18487 -4.17969,-1.13281 z"
         id="path2993"
         style="fill:#ffffff" />
      <path
         d="m 319.63846,306.74625 0,-6.25 -5.35156,0 0,6.25 z m -5.35156,30.97656 5.35156,0 0,-25.89844 -5.35156,0 z"
         id="path2995"
         style="fill:#ffffff" />
      <path
         d="m 335.34158,310.965 c -1.32813,0.0781 -2.50652,0.49481 -3.53515,1.25 -1.02866,0.75523 -1.88152,1.66668 -2.5586,2.73437 l 0,0 -0.11718,-3.125 -5.07813,0 0,25.89844 5.35156,0 0,-16.01563 c -0.0521,-1.40623 0.36458,-2.68227 1.25,-3.82812 0.88541,-1.14582 2.0703,-1.7578 3.55469,-1.83594 l 0,0 c 1.11978,0.0261 1.97264,0.48179 2.55859,1.36719 0.58593,0.88543 0.86587,1.84897 0.83985,2.89062 l 0,0 0,17.42188 5.35156,0 0,-17.96875 c 0.026,-1.45832 -0.22137,-2.89712 -0.74219,-4.31641 -0.52085,-1.41925 -1.41929,-2.53253 -2.69531,-3.33984 -1.27606,-0.80727 -2.66929,-1.18487 -4.17969,-1.13281 z"
         id="path2997"
         style="fill:#ffffff" />
      <path
         d="m 347.02127,340.965 0,-29.14063 5.35156,0 0,28.82813 c 0,1.32811 -0.14323,2.66926 -0.42968,4.02343 -0.28647,1.35416 -1.00261,2.46093 -2.14844,3.32032 -0.98959,0.49477 -2.03125,0.70311 -3.125,0.625 -1.09375,-0.0781 -2.14844,-0.26043 -3.16406,-0.54688 l 0,0 0,-4.80469 c 0.49479,0.15624 1.05468,0.22786 1.67968,0.21485 0.625,-0.013 1.10677,-0.27345 1.44532,-0.78125 0.33854,-0.50782 0.46874,-1.08725 0.39062,-1.73828 z m 5.35156,-34.21875 0,-6.25 -5.35156,0 0,6.25 z"
         id="path2999"
         style="fill:#ffffff" />
      <path
         d="m 370.41971,311.82437 0,16.09375 c 0.026,1.4323 -0.40366,2.71485 -1.28906,3.84766 -0.88543,1.13281 -2.05731,1.72526 -3.51563,1.77734 l 0,0 c -1.14584,0 -2.01173,-0.44271 -2.59766,-1.32812 -0.58594,-0.88542 -0.85287,-1.86198 -0.80078,-2.92969 l 0,0 0,-17.46094 -5.35156,0 0,18.04688 c -0.10417,2.36979 0.52083,4.5052 1.875,6.40625 1.51041,1.64062 3.41145,2.40885 5.70313,2.30468 l 0,0 c 1.30207,-0.0521 2.46092,-0.45573 3.47656,-1.21093 1.01561,-0.75521 1.888,-1.66667 2.61719,-2.73438 l 0,0 0.15625,3.08594 5.07812,0 0,-25.89844 z"
         id="path3001"
         style="fill:#ffffff" />
      <path
         d="m 393.93533,337.72281 6.21094,0 -9.14062,-15.3125 8.32031,-10.58594 -6.48438,0 -7.65625,10.97656 0,-22.30468 -5.35156,0 0,37.22656 5.35156,0 0,-7.96875 2.42188,-3.125 z"
         id="path3003"
         style="fill:#ffffff" />
      <path
         d="m 416.66971,311.82437 0,16.09375 c 0.026,1.4323 -0.40366,2.71485 -1.28906,3.84766 -0.88543,1.13281 -2.05731,1.72526 -3.51563,1.77734 l 0,0 c -1.14584,0 -2.01173,-0.44271 -2.59766,-1.32812 -0.58594,-0.88542 -0.85287,-1.86198 -0.80078,-2.92969 l 0,0 0,-17.46094 -5.35156,0 0,18.04688 c -0.10417,2.36979 0.52083,4.5052 1.875,6.40625 1.51041,1.64062 3.41145,2.40885 5.70313,2.30468 l 0,0 c 1.30207,-0.0521 2.46092,-0.45573 3.47656,-1.21093 1.01561,-0.75521 1.888,-1.66667 2.61719,-2.73438 l 0,0 0.15625,3.08594 5.07812,0 0,-25.89844 z"
         id="path3005"
         style="fill:#ffffff" />
    </g>
  </g>
</svg>
