<?xml version="1.0" encoding="UTF-8" standalone="no"?>
<!-- Created with Inkscape (http://www.inkscape.org/) -->

<svg
   xmlns:dc="http://purl.org/dc/elements/1.1/"
   xmlns:cc="http://creativecommons.org/ns#"
   xmlns:rdf="http://www.w3.org/1999/02/22-rdf-syntax-ns#"
   xmlns:svg="http://www.w3.org/2000/svg"
   xmlns="http://www.w3.org/2000/svg"
   xmlns:sodipodi="http://sodipodi.sourceforge.net/DTD/sodipodi-0.dtd"
   xmlns:inkscape="http://www.inkscape.org/namespaces/inkscape"
   width="440.22641"
   height="676.79401"
   id="svg3383"
   version="1.1"
   inkscape:version="0.48.4 r9939"
   sodipodi:docname="Japanese_Road_sign_(Emergency_parking_place).svg">
  <defs
     id="defs3385">
    <inkscape:perspective
       sodipodi:type="inkscape:persp3d"
       inkscape:vp_x="0 : 526.18109 : 1"
       inkscape:vp_y="0 : 1000 : 0"
       inkscape:vp_z="744.09448 : 526.18109 : 1"
       inkscape:persp3d-origin="372.04724 : 350.78739 : 1"
       id="perspective3391" />
    <inkscape:perspective
       id="perspective3401"
       inkscape:persp3d-origin="0.5 : 0.33333333 : 1"
       inkscape:vp_z="1 : 0.5 : 1"
       inkscape:vp_y="0 : 1000 : 0"
       inkscape:vp_x="0 : 0.5 : 1"
       sodipodi:type="inkscape:persp3d" />
    <inkscape:perspective
       id="perspective3472"
       inkscape:persp3d-origin="0.5 : 0.33333333 : 1"
       inkscape:vp_z="1 : 0.5 : 1"
       inkscape:vp_y="0 : 1000 : 0"
       inkscape:vp_x="0 : 0.5 : 1"
       sodipodi:type="inkscape:persp3d" />
    <inkscape:perspective
       id="perspective3503"
       inkscape:persp3d-origin="0.5 : 0.33333333 : 1"
       inkscape:vp_z="1 : 0.5 : 1"
       inkscape:vp_y="0 : 1000 : 0"
       inkscape:vp_x="0 : 0.5 : 1"
       sodipodi:type="inkscape:persp3d" />
    <inkscape:perspective
       id="perspective3570"
       inkscape:persp3d-origin="0.5 : 0.33333333 : 1"
       inkscape:vp_z="1 : 0.5 : 1"
       inkscape:vp_y="0 : 1000 : 0"
       inkscape:vp_x="0 : 0.5 : 1"
       sodipodi:type="inkscape:persp3d" />
    <inkscape:perspective
       id="perspective4366"
       inkscape:persp3d-origin="0.5 : 0.33333333 : 1"
       inkscape:vp_z="1 : 0.5 : 1"
       inkscape:vp_y="0 : 1000 : 0"
       inkscape:vp_x="0 : 0.5 : 1"
       sodipodi:type="inkscape:persp3d" />
    <inkscape:perspective
       id="perspective4388"
       inkscape:persp3d-origin="0.5 : 0.33333333 : 1"
       inkscape:vp_z="1 : 0.5 : 1"
       inkscape:vp_y="0 : 1000 : 0"
       inkscape:vp_x="0 : 0.5 : 1"
       sodipodi:type="inkscape:persp3d" />
    <inkscape:perspective
       id="perspective4410"
       inkscape:persp3d-origin="0.5 : 0.33333333 : 1"
       inkscape:vp_z="1 : 0.5 : 1"
       inkscape:vp_y="0 : 1000 : 0"
       inkscape:vp_x="0 : 0.5 : 1"
       sodipodi:type="inkscape:persp3d" />
    <inkscape:perspective
       id="perspective4438"
       inkscape:persp3d-origin="0.5 : 0.33333333 : 1"
       inkscape:vp_z="1 : 0.5 : 1"
       inkscape:vp_y="0 : 1000 : 0"
       inkscape:vp_x="0 : 0.5 : 1"
       sodipodi:type="inkscape:persp3d" />
    <inkscape:perspective
       sodipodi:type="inkscape:persp3d"
       inkscape:vp_x="0 : 217.5 : 1"
       inkscape:vp_y="0 : 1000 : 0"
       inkscape:vp_z="455 : 217.5 : 1"
       inkscape:persp3d-origin="227.5 : 145 : 1"
       id="perspective3843" />
    <inkscape:perspective
       sodipodi:type="inkscape:persp3d"
       inkscape:vp_x="0 : 526.18109 : 1"
       inkscape:vp_y="0 : 1000 : 0"
       inkscape:vp_z="744.09448 : 526.18109 : 1"
       inkscape:persp3d-origin="372.04724 : 350.78739 : 1"
       id="perspective2395" />
    <inkscape:perspective
       sodipodi:type="inkscape:persp3d"
       inkscape:vp_x="0 : 526.18109 : 1"
       inkscape:vp_y="0 : 1000 : 0"
       inkscape:vp_z="744.09448 : 526.18109 : 1"
       inkscape:persp3d-origin="372.04724 : 350.78739 : 1"
       id="perspective3163" />
    <inkscape:perspective
       id="perspective9"
       inkscape:persp3d-origin="750 : 210 : 1"
       inkscape:vp_z="1500 : 315 : 1"
       inkscape:vp_y="0 : 1000 : 0"
       inkscape:vp_x="0 : 315 : 1"
       sodipodi:type="inkscape:persp3d" />
  </defs>
  <sodipodi:namedview
     id="base"
     pagecolor="#ffffff"
     bordercolor="#666666"
     borderopacity="1.0"
     inkscape:pageopacity="0.0"
     inkscape:pageshadow="2"
     inkscape:zoom="0.50000001"
     inkscape:cx="-200.94115"
     inkscape:cy="409.13713"
     inkscape:document-units="px"
     inkscape:current-layer="layer1"
     showgrid="false"
     inkscape:window-width="1680"
     inkscape:window-height="988"
     inkscape:window-x="-8"
     inkscape:window-y="-8"
     inkscape:window-maximized="1"
     showguides="true"
     inkscape:guide-bbox="true"
     fit-margin-top="0"
     fit-margin-left="0"
     fit-margin-right="0"
     fit-margin-bottom="0"
     inkscape:object-nodes="true"
     inkscape:object-paths="true"
     inkscape:snap-midpoints="true"
     inkscape:snap-center="true"
     inkscape:snap-bbox="false"
     inkscape:snap-bbox-midpoints="false"
     inkscape:bbox-paths="true"
     inkscape:snap-page="true"
     inkscape:bbox-nodes="true"
     inkscape:snap-intersection-paths="false" />
  <metadata
     id="metadata3388">
    <rdf:RDF>
      <cc:Work
         rdf:about="">
        <dc:format>image/svg+xml</dc:format>
        <dc:type
           rdf:resource="http://purl.org/dc/dcmitype/StillImage" />
        <dc:title></dc:title>
      </cc:Work>
    </rdf:RDF>
  </metadata>
  <g
     inkscape:label="レイヤー 1"
     inkscape:groupmode="layer"
     id="layer1"
     transform="translate(-0.95226955,-386.46527)">
    <rect
       style="fill:#005d35;fill-opacity:1;stroke:#005d35;stroke-width:2;stroke-linecap:round;stroke-linejoin:round;stroke-miterlimit:4;stroke-opacity:1;stroke-dasharray:none"
       id="rect19042"
       width="438.22641"
       height="674.79401"
       x="1.9522696"
       y="387.46527"
       ry="0" />
    <path
       style="fill:#ffffff;fill-opacity:1;stroke:none"
       d="m 170.375,9.687501 0,61.84375 c 0,13.71539 -17.37631,20.41856 -46.9375,33.624999 -31.21625,13.37029 -43,18.06213 -43,52.90625 l -0.0312,247.07475 c 0,35.40082 27.79981,40.67502 43.875,47.78125 27.39351,12.1327 46.09375,19.45776 46.09375,33.3125 l 0,63.9375 162.84375,0 0,-540.480999 z"
       transform="translate(0.70226969,386.46526)"
       id="rect19062"
       inkscape:connector-curvature="0"
       sodipodi:nodetypes="csccccscccc" />
    <path
       style="fill:none;stroke:#005d35;stroke-width:8.10000038;stroke-linecap:butt;stroke-linejoin:miter;stroke-miterlimit:4;stroke-opacity:1;stroke-dasharray:48.6, 48.6;stroke-dashoffset:0"
       d="m 251.81547,933.88376 0,-534.96665"
       id="path3085"
       inkscape:connector-curvature="0"
       sodipodi:nodetypes="cc" />
    <g
       id="g4041"
       transform="matrix(1.0879943,0,0,1.0879943,-19.515103,-91.801303)">
      <path
         inkscape:connector-curvature="0"
         d="m 73.773027,963.95855 7.057645,0 0,14.11529 19.863268,0 0,6.76661 -19.863268,0 0,10.55008 19.863268,0 0,7.05767 -19.863268,0 0,9.8952 19.863268,0 0,6.9122 -19.863268,0 0,16.8801 -7.057645,0 z m -17.462214,0 6.766608,0 0,50.78595 c -0.194056,4.2685 -1.370329,8.1975 -3.528822,11.787 -2.15855,3.5894 -4.7415,6.7908 -7.748858,9.6042 l 0,0 -5.020386,-4.6566 c 2.231265,-2.1343 4.220015,-4.4747 5.966256,-7.0213 1.746198,-2.5465 2.910345,-5.3963 3.492443,-8.5492 l 0,0 -20.881898,3.929 -1.091388,-6.8393 22.046045,-4.0745 0,-6.4756 -20.372583,0 0,-7.05767 20.372583,0 0,-10.55008 -20.372583,0 0,-6.76661 20.372583,0 z"
         id="path3954"
         style="font-size:74.50544739px;font-style:normal;font-variant:normal;font-weight:normal;font-stretch:normal;line-height:125%;letter-spacing:0px;word-spacing:0px;fill:#ffffff;fill-opacity:1;stroke:none;font-family:GD-HighwayGothicJA-TTF;-inkscape-font-specification:GD-HighwayGothicJA-TTF" />
      <path
         inkscape:connector-curvature="0"
         d="m 177.01837,973.63553 0,12.07803 -6.83937,0 0,-5.31143 -53.98734,0 0,5.31143 -7.05765,0 0,-12.07803 11.0594,0 -2.83761,-7.42145 6.54833,-2.54657 3.78348,9.96802 12.00528,0 0,-9.96802 6.83936,0 0,9.96802 12.00528,0 3.78348,-9.96802 6.54833,2.54657 -2.83761,7.42145 z m -5.16591,34.77887 0,18.1171 c 0.24247,5.2386 -2.3041,8.0277 -7.63971,8.3673 l 0,0 -5.74798,0 0,-7.0577 5.74798,0 c 0.14546,0.049 0.31523,0.049 0.50931,0 l 0,0 c -6e-5,-0.4365 -6e-5,-0.8731 0,-1.3096 l 0,0 0,-11.2777 -18.18981,0 0,20.6636 -6.83936,0 0,-20.6636 -18.18981,0 0,19.354 -7.1304,0 0,-26.1934 25.32021,0 0,-4.0017 -19.64499,0 0,-20.00881 46.12934,0 0,20.00881 -19.64499,0 0,4.0017 z m -12.44182,-17.17114 -32.59614,0 0,6.33005 32.59614,0 z"
         id="path3956"
         style="font-size:74.50544739px;font-style:normal;font-variant:normal;font-weight:normal;font-stretch:normal;line-height:125%;letter-spacing:0px;word-spacing:0px;fill:#ffffff;fill-opacity:1;stroke:none;font-family:GD-HighwayGothicJA-TTF;-inkscape-font-specification:GD-HighwayGothicJA-TTF" />
      <path
         inkscape:connector-curvature="0"
         d="m 287.75791,963.37648 7.05765,0 0,6.91212 28.52161,0 0,7.05765 -28.52161,0 0,4.80211 25.82952,0 0,31.79574 -25.82952,0 0,5.2387 32.45061,0 0,6.8394 -32.45061,0 0,10.7683 -7.05765,0 0,-10.7683 -32.37785,0 0,-6.8394 32.37785,0 0,-5.2387 -26.0478,0 0,-31.79574 26.0478,0 0,-4.80211 -28.44886,0 0,-7.05765 28.44886,0 z m 26.12056,25.82952 -19.06291,0 0,5.31142 19.06291,0 z m 0,17.8988 0,-5.5297 -19.06291,0 0,5.5297 z m -45.11072,0 18.99016,0 0,-5.5297 -18.99016,0 z m 0,-17.8988 0,5.31142 18.99016,0 0,-5.31142 z"
         id="path3958"
         style="font-size:74.50544739px;font-style:normal;font-variant:normal;font-weight:normal;font-stretch:normal;line-height:125%;letter-spacing:0px;word-spacing:0px;fill:#ffffff;fill-opacity:1;stroke:none;font-family:GD-HighwayGothicJA-TTF;-inkscape-font-specification:GD-HighwayGothicJA-TTF" />
      <g
         style="stroke:#ffffff;stroke-opacity:1"
         id="g3941">
        <g
           style="stroke:#ffffff;stroke-opacity:1;display:inline"
           id="g3919"
           transform="translate(-0.29773031,385.46526)">
          <path
             sodipodi:nodetypes="csccccc"
             inkscape:connector-curvature="0"
             id="path3863"
             d="m 208.04391,647.68847 c 0,0 1.05806,0 1.5743,0 1.44432,0 1.75,-1.40771 1.75,-1.40771 l 0,-19.17937 -23.25,0 0,-44.13281 23.25,0"
             style="fill:none;stroke:#ffffff;stroke-width:7;stroke-linecap:square;stroke-linejoin:miter;stroke-miterlimit:4;stroke-opacity:1;stroke-dasharray:none" />
          <path
             sodipodi:nodetypes="cc"
             inkscape:connector-curvature="0"
             id="path3865"
             d="m 203.74321,627.00174 0,-44.03316"
             style="fill:none;stroke:#ffffff;stroke-width:7;stroke-linecap:square;stroke-linejoin:miter;stroke-miterlimit:4;stroke-opacity:1;stroke-dasharray:none" />
          <path
             sodipodi:nodetypes="cc"
             inkscape:connector-curvature="0"
             id="path3887"
             d="m 211.36821,597.45174 -23.25,0"
             style="fill:none;stroke:#ffffff;stroke-width:7;stroke-linecap:square;stroke-linejoin:miter;stroke-miterlimit:4;stroke-opacity:1;stroke-dasharray:none" />
          <path
             sodipodi:nodetypes="cc"
             inkscape:connector-curvature="0"
             id="path3891"
             d="m 211.36821,612.61824 -23.25,0"
             style="fill:none;stroke:#ffffff;stroke-width:7;stroke-linecap:square;stroke-linejoin:miter;stroke-miterlimit:4;stroke-opacity:1;stroke-dasharray:none" />
          <path
             sodipodi:nodetypes="ccccc"
             inkscape:connector-curvature="0"
             id="path3895"
             d="m 204.96875,636.15625 -24.0625,5.625 0.0625,6.78125 24,-5.625 z"
             style="font-size:medium;font-style:normal;font-variant:normal;font-weight:normal;font-stretch:normal;text-indent:0;text-align:start;text-decoration:none;line-height:normal;letter-spacing:normal;word-spacing:normal;text-transform:none;direction:ltr;block-progression:tb;writing-mode:lr-tb;text-anchor:start;baseline-shift:baseline;color:#000000;fill:#ffffff;fill-opacity:1;stroke:none;stroke-width:7;marker:none;visibility:visible;display:inline;overflow:visible;enable-background:accumulate;font-family:Sans;-inkscape-font-specification:Sans" />
          <path
             inkscape:connector-curvature="0"
             id="path3903"
             d="m 218.14244,584.87012 29.69849,0"
             style="fill:none;stroke:#ffffff;stroke-width:7;stroke-linecap:butt;stroke-linejoin:miter;stroke-miterlimit:4;stroke-opacity:1;stroke-dasharray:none" />
          <path
             inkscape:connector-curvature="0"
             id="path3905"
             d="m 247.84093,615.80604 -29.69849,0"
             style="fill:none;stroke:#ffffff;stroke-width:7;stroke-linecap:butt;stroke-linejoin:miter;stroke-miterlimit:4;stroke-opacity:1;stroke-dasharray:none" />
          <path
             inkscape:connector-curvature="0"
             id="path3909"
             d="m 232.99168,646.74196 0,-65.82397 0,-3.94942"
             style="fill:none;stroke:#ffffff;stroke-width:7.22010565;stroke-linecap:butt;stroke-linejoin:miter;stroke-miterlimit:4;stroke-opacity:1;stroke-dasharray:none" />
        </g>
        <path
           style="fill:none;stroke:#ffffff;stroke-width:7;stroke-linecap:butt;stroke-linejoin:miter;stroke-miterlimit:4;stroke-opacity:1;stroke-dasharray:none;display:inline"
           d="m 218.14244,646.74196 29.69849,0"
           id="path3907"
           inkscape:connector-curvature="0"
           transform="translate(-0.29773031,385.46526)" />
      </g>
      <g
         id="g4034">
        <path
           style="fill:none;stroke:#ffffff;stroke-width:7;stroke-linecap:butt;stroke-linejoin:miter;stroke-miterlimit:4;stroke-opacity:1;stroke-dasharray:none"
           d="m 336.58432,1006.0093 0,-8.00003 69.20489,0 0,8.00003"
           id="path3917"
           inkscape:connector-curvature="0"
           sodipodi:nodetypes="cccc" />
        <path
           style="font-size:74.50544739px;font-style:normal;font-variant:normal;font-weight:normal;font-stretch:normal;line-height:125%;letter-spacing:0px;word-spacing:0px;fill:#ffffff;fill-opacity:1;stroke:none;font-family:GD-HighwayGothicJA-TTF;-inkscape-font-specification:GD-HighwayGothicJA-TTF"
           id="path3956-7"
           d="m 395.96303,1006.6313 0,18.1171 c 0.24247,5.2386 -2.3041,8.0277 -7.63971,8.3673 l 0,0 -5.74798,0 0,-7.0577 5.74798,0 c 0.14546,0.049 0.31523,0.049 0.50931,0 l 0,0 c -6e-5,-0.4365 -6e-5,-0.8731 0,-1.3096 l 0,0 0,-11.2777 -14.18981,0 0,23.1385 -6.83936,0 0,-23.1385 -14.18981,0 0,19.354 -7.1304,0 0,-26.1934 21.32021,0 0,-8.0018 6.83936,0 0,8.0018 z"
           inkscape:connector-curvature="0"
           sodipodi:nodetypes="ccccccccccccccccccccccccc" />
        <rect
           style="fill:#ffffff;fill-opacity:1;stroke:none"
           id="rect4013"
           width="69.249916"
           height="7.0579176"
           x="336.57047"
           y="970.28864" />
        <path
           style="fill:none;stroke:#ffffff;stroke-width:7;stroke-linecap:butt;stroke-linejoin:miter;stroke-miterlimit:4;stroke-opacity:1;stroke-dasharray:none"
           d="m 349.75015,962.43383 0,25.13796 42.89063,0 0,-25.13796"
           id="path4023"
           inkscape:connector-curvature="0"
           sodipodi:nodetypes="cccc" />
        <path
           style="fill:none;stroke:#ffffff;stroke-width:7;stroke-linecap:butt;stroke-linejoin:miter;stroke-miterlimit:4;stroke-opacity:1;stroke-dasharray:none"
           d="m 371.19547,987.57179 0,-25.13796"
           id="path4025"
           inkscape:connector-curvature="0"
           sodipodi:nodetypes="cc" />
      </g>
    </g>
  </g>
</svg>
