<?xml version="1.0" encoding="UTF-8" standalone="no"?>
<!-- Created with Inkscape (http://www.inkscape.org/) -->

<svg
   xmlns:dc="http://purl.org/dc/elements/1.1/"
   xmlns:cc="http://creativecommons.org/ns#"
   xmlns:rdf="http://www.w3.org/1999/02/22-rdf-syntax-ns#"
   xmlns:svg="http://www.w3.org/2000/svg"
   xmlns="http://www.w3.org/2000/svg"
   xmlns:sodipodi="http://sodipodi.sourceforge.net/DTD/sodipodi-0.dtd"
   xmlns:inkscape="http://www.inkscape.org/namespaces/inkscape"
   version="1.1"
   width="1005.4"
   height="1005.4"
   id="svg2"
   xml:space="preserve"
   inkscape:version="0.48.4 r9939"
   sodipodi:docname="Ajax.svg"><sodipodi:namedview
     pagecolor="#ffffff"
     bordercolor="#666666"
     borderopacity="1"
     objecttolerance="10"
     gridtolerance="10"
     guidetolerance="10"
     inkscape:pageopacity="0"
     inkscape:pageshadow="2"
     inkscape:window-width="1280"
     inkscape:window-height="1001"
     id="namedview28"
     showgrid="false"
     fit-margin-top="2.7"
     fit-margin-left="2.7"
     fit-margin-right="2.7"
     fit-margin-bottom="2.7"
     inkscape:zoom="0.56300792"
     inkscape:cx="518.49528"
     inkscape:cy="538.31694"
     inkscape:window-x="-8"
     inkscape:window-y="-8"
     inkscape:window-maximized="1"
     inkscape:current-layer="svg2"
     showguides="true"
     inkscape:guide-bbox="true" /><metadata
     id="metadata8"><rdf:RDF><cc:Work
         rdf:about=""><dc:format>image/svg+xml</dc:format><dc:type
           rdf:resource="http://purl.org/dc/dcmitype/StillImage" /><dc:title /></cc:Work></rdf:RDF></metadata><defs
     id="defs6" /><path
     inkscape:connector-curvature="0"
     style="fill:#ffffff;fill-opacity:1;stroke:#ed1c23;stroke-opacity:1;stroke-width:5;stroke-miterlimit:4;stroke-dasharray:none"
     d="M 2.7,502.70001 C 2.7,226.55763 226.55764,2.7 502.7,2.7 c 276.14238,0 500,223.85763 500,500.00001 0,276.14237 -223.85762,499.99999 -500,499.99999 -276.14236,0 -500,-223.85762 -500,-499.99999 z"
     id="path3854" /><path
     inkscape:connector-curvature="0"
     id="path3947"
     d="M 855.54375,249.575 705.2,502.7 l 150.34375,253.125 0,-506.25 z"
     style="fill:#0066b3;fill-opacity:1;stroke:none" /><path
     style="fill:#0066b3;fill-opacity:1;stroke:none"
     d="M 149.85625,249.575 300.2,502.7 149.85625,755.825 l 0,-506.25 z"
     id="path3949"
     inkscape:connector-curvature="0" /><path
     style="fill:#ed1c23;fill-opacity:1;stroke:none"
     d="m 502.7,37.325 c -257.01952,0 -465.375,208.35548 -465.375,465.375 0,257.01952 208.35548,465.375 465.375,465.375 257.01952,0 465.375,-208.35548 465.375,-465.375 C 968.075,245.68048 759.71952,37.325 502.7,37.325 z m 0,132.525 c 183.82796,0 332.85,149.02201 332.85,332.85 0,183.82797 -149.02204,332.85 -332.85,332.85 -183.82797,0 -332.85,-149.02203 -332.85,-332.85 0,-183.82799 149.02203,-332.85 332.85,-332.85 z"
     id="path4074"
     inkscape:connector-curvature="0"
     sodipodi:nodetypes="ssssssssss" /><path
     inkscape:connector-curvature="0"
     id="path15647"
     style="fill:#0066b3;fill-opacity:1;fill-rule:nonzero;stroke:none"
     d="m 275.74597,420.00485 c 0,-119.46625 78.63601,-129.85289 107.92553,-129.85289 63.31473,0 113.5367,41.46697 113.5367,115.88465 0,62.99635 -36.73128,94.99198 -68.88609,119.30706 -43.73532,34.1048 -66.53817,50.65975 -73.94013,67.69224 l 143.30377,0 0,64.15043 -225.68057,0 c 2.34635,-42.9394 5.13363,-87.86858 76.76562,-145.7711 59.57395,-48.03323 83.29209,-66.65756 83.29209,-108.00514 0,-24.23549 -13.96824,-52.21176 -45.6455,-52.21176 -45.5261,0 -46.95875,41.90472 -47.3567,68.80651 l -63.31472,0" /><path
     inkscape:connector-curvature="0"
     id="path15649"
     style="fill:#0066b3;fill-opacity:1;fill-rule:nonzero;stroke:none"
     d="m 545.24144,499.27759 c 0,-79.35234 52.29136,-86.27675 71.83098,-86.27675 42.0639,0 75.53195,27.57831 75.53195,77.00438 0,41.94452 -24.43447,63.31473 -45.84447,79.35233 -29.05076,22.76306 -44.29245,33.74663 -49.2271,45.16796 l 95.42974,0 0,42.66083 -150.26801,0 c 1.59182,-28.61301 3.46221,-58.49947 51.13728,-97.06135 39.59658,-31.99563 55.43521,-44.33225 55.43521,-71.83098 0,-16.15698 -9.35196,-34.66192 -30.36401,-34.66192 -30.36401,0 -31.19971,27.77729 -31.55788,45.6455 l -42.10369,0" /><path
     inkscape:connector-curvature="0"
     id="path15653"
     style="fill:#0066b3;fill-opacity:1;fill-rule:nonzero;stroke:none"
     d="m 593.67263,282.6306 0,6.60606 c 4.33771,-5.57137 10.705,-8.39686 19.02227,-8.39686 8.27748,0 14.64476,2.38773 19.02228,7.2428 5.92953,-4.85507 13.21213,-7.2428 21.72837,-7.2428 9.71012,0 17.15188,1.94998 22.48448,5.92954 5.57139,3.74079 8.43667,9.19277 8.43667,16.27638 l 0,62.99637 -22.68347,0 0,-59.1362 c 0,-7.40197 -3.06267,-11.10296 -9.15297,-11.10296 -7.76014,0 -11.69989,3.70099 -11.69989,11.10296 l 0,59.1362 -22.68347,0 0,-59.1362 c 0,-7.40197 -3.02446,-11.10296 -9.0734,-11.10296 -7.83971,0 -11.73968,3.70099 -11.73968,11.10296 l 0,59.1362 -22.72327,0 0,-83.41149 19.06208,0" /><path
     inkscape:connector-curvature="0"
     id="path15651"
     style="fill:#0066b3;fill-opacity:1;fill-rule:nonzero;stroke:none"
     d="m 504.76936,673.14436 0,37.20756 32.86954,0 0,-37.20756 -32.86954,0 z" /></svg>