<?xml version="1.0" encoding="UTF-8" standalone="no"?>
<!-- Created with Inkscape (http://www.inkscape.org/) -->

<svg
   xmlns:dc="http://purl.org/dc/elements/1.1/"
   xmlns:cc="http://creativecommons.org/ns#"
   xmlns:rdf="http://www.w3.org/1999/02/22-rdf-syntax-ns#"
   xmlns:svg="http://www.w3.org/2000/svg"
   xmlns="http://www.w3.org/2000/svg"
   xmlns:sodipodi="http://sodipodi.sourceforge.net/DTD/sodipodi-0.dtd"
   xmlns:inkscape="http://www.inkscape.org/namespaces/inkscape"
   version="1.1"
   width="1005.4"
   height="1005.4"
   id="svg2"
   xml:space="preserve"
   inkscape:version="0.48.4 r9939"
   sodipodi:docname="AJAX1.svg"><sodipodi:namedview
     pagecolor="#ffffff"
     bordercolor="#666666"
     borderopacity="1"
     objecttolerance="10"
     gridtolerance="10"
     guidetolerance="10"
     inkscape:pageopacity="0"
     inkscape:pageshadow="2"
     inkscape:window-width="1280"
     inkscape:window-height="1004"
     id="namedview28"
     showgrid="false"
     fit-margin-top="0.2"
     fit-margin-left="0.2"
     fit-margin-right="0.2"
     fit-margin-bottom="0.2"
     inkscape:zoom="0.51603029"
     inkscape:cx="494.26966"
     inkscape:cy="430.3497"
     inkscape:window-x="-8"
     inkscape:window-y="-8"
     inkscape:window-maximized="1"
     inkscape:current-layer="svg2" /><metadata
     id="metadata8"><rdf:RDF><cc:Work
         rdf:about=""><dc:format>image/svg+xml</dc:format><dc:type
           rdf:resource="http://purl.org/dc/dcmitype/StillImage" /></cc:Work></rdf:RDF></metadata><defs
     id="defs6" /><path
     inkscape:connector-curvature="0"
     style="fill:#ffffff;fill-opacity:1;stroke:#ed1c23;stroke-width:5;stroke-miterlimit:4;stroke-opacity:1;stroke-dasharray:none"
     d="M 2.7,502.70001 C 2.7,226.55763 226.55763,2.7 502.7,2.7 c 276.14238,0 500,223.85763 500,500.00001 0,276.14237 -223.85762,499.99999 -500,499.99999 -276.14237,0 -500,-223.85762 -500,-499.99999 z"
     id="path3854" /><path
     id="path14622"
     d="M 968.075,502.70001 C 968.075,245.68049 759.71952,37.325 502.7,37.325 245.68047,37.325 37.325,245.68049 37.325,502.70001 37.325,759.71953 245.68047,968.075 502.7,968.075 c 257.01952,0 465.375,-208.35547 465.375,-465.37499 z"
     style="fill:#ed1c23;fill-opacity:1;stroke:none"
     inkscape:connector-curvature="0" /><path
     id="path15520"
     d="m 835.55,502.7 c 0,-183.82797 -149.02204,-332.85 -332.85,-332.85 -183.82798,0 -332.85,149.02203 -332.85,332.85 0,183.82797 149.02202,332.84999 332.85,332.84999 183.82796,0 332.85,-149.02202 332.85,-332.84999 z"
     style="fill:#ffffff;fill-opacity:1;stroke:none"
     inkscape:connector-curvature="0" /><path
     style="fill:#ed1c23;fill-opacity:1;stroke:none"
     d="M 783.75726,851.49809 851.49809,783.75726 221.64272,153.9019 153.90189,221.64273 z"
     id="path3011"
     inkscape:connector-curvature="0"
     sodipodi:nodetypes="ccccc" /><path
     id="path15673"
     style="fill:#ffffff;fill-opacity:1;fill-rule:nonzero;stroke:#ffffff;stroke-width:20;stroke-miterlimit:4;stroke-opacity:1;stroke-dasharray:none"
     d="m 654.70748,476.66422 c -1.46236,-5.05349 -1.46236,-10.89659 3.63219,-13.81814 5.05349,-2.84259 16.66072,-7.22491 21.04305,-8.68568 4.34284,-1.4592 8.68568,-1.4592 11.60723,0 5.52725,2.76362 2.2109,8.01452 1.42129,11.60723 -0.67274,3.6322 -11.60723,22.50382 -14.4893,22.50382 -2.92155,0 -21.75369,-6.51426 -23.21446,-11.60723 m 35.88925,39.08558 c -9.94906,0 -19.42435,1.69923 -28.30744,4.77713 l -32.29496,-90.64697 -27.59679,0 c -4.85608,0 -9.35685,6.4353 -9.35685,11.21243 0,4.81661 4.57973,8.68568 9.35685,8.68568 l 15.31839,0 c 1.02649,2.64361 10.10698,30.08406 10.10698,30.08406 -6.27738,-1.62028 -13.97605,-3.6322 -17.29241,-4.54025 -5.96154,-1.65817 -29.80769,-3.23739 -37.38792,-3.39531 -16.46332,-0.31584 -34.03209,-45.12608 -31.46587,-42.91518 8.21192,7.02751 18.39786,11.17295 28.03107,15.9106 5.52726,3.19791 12.39685,0.82751 15.31839,-5.29037 0.90963,-1.8161 1.26338,-3.75064 1.26338,-5.68518 0,-4.54024 -6.19842,-7.30387 -9.98854,-9.55425 -10.34386,-6.07998 -18.95059,-11.96256 -24.67524,-22.46434 -6.07998,-11.25191 -8.72517,-23.25395 -7.42232,-35.88767 0.78961,-7.73816 -3.94803,-27.87316 -10.73866,-33.87417 -6.83011,-5.92206 -7.97504,-6.90907 -7.97504,-6.90907 1.7782,-2.52675 5.09297,-3.39532 10.18594,-5.05349 5.09297,-1.73714 8.60673,-6.75115 12.31788,-14.13398 3.6322,-7.26439 1.10545,-9.94906 3.6322,-16.7002 l 8.68568,-1.4592 c 0,-11.17295 -9.94905,-31.30794 -26.84666,-34.11105 -17.45033,-2.92155 -30.87366,9.39633 -37.0326,22.50382 -5.05349,10.93607 -2.2488,17.88461 -1.4213,24.67524 0.90647,6.79063 7.97504,15.27891 7.97504,15.27891 0,0 -5.17193,-0.12634 -9.90957,3.07947 -10.42283,7.06699 -5.32986,1.22547 -14.44973,12.75216 -6.31686,8.01452 -86.22516,-1.46077 -81.17167,-3.15843 5.014,-1.69923 8.48828,-6.6327 12.12047,-13.89709 3.59272,-7.18543 1.06597,-9.83062 3.59272,-16.46332 l 8.56724,-1.4592 c 0,-11.01503 -9.83061,-30.87366 -26.49134,-33.63729 -17.17396,-2.88364 -30.47885,9.23841 -36.51935,22.18798 -5.01401,10.73866 -2.25038,17.60825 -1.46078,24.31992 0.94753,6.71166 7.89608,15.0815 7.89608,15.0815 0,0 -5.21141,2.40989 -10.2649,4.97453 -5.01401,2.52675 -7.81712,5.48778 -16.7002,18.1215 -12.39684,17.72669 -58.27305,98.81941 -59.49694,109.63703 -1.34234,11.09399 2.88206,12.67321 5.80361,22.5433 l -37.11156,0 0,11.09399 16.02904,15.00255 0.71064,12.081 c -32.17651,12.6732 -54.95669,44.06011 -54.95669,80.6979 0,47.88971 38.80922,86.69893 86.69892,86.69893 37.54585,0 69.48548,-23.88563 81.56648,-57.24656 l 125.94234,0 c 9.98853,-0.43586 13.58125,-3.31635 22.10901,-10.4623 6.63271,-5.56674 117.76683,68.89327 165.10382,68.89327 47.25802,0 85.63295,-38.37493 85.63295,-85.67244 0,-47.33698 -38.37493,-85.67243 -85.63295,-85.67243"
     inkscape:connector-curvature="0"
     sodipodi:nodetypes="cccccsccccssscccccccsccccccccccccccccsccccccccccccccsscccssc" /><path
     inkscape:connector-curvature="0"
     d="m 654.70748,476.66422 c -1.46236,-5.05349 -1.46236,-10.89659 3.63219,-13.81814 5.05349,-2.84259 16.66072,-7.22491 21.04305,-8.68568 4.34284,-1.4592 8.68568,-1.4592 11.60723,0 5.52725,2.76362 2.2109,8.01452 1.42129,11.60723 -0.67274,3.6322 -11.60723,22.50382 -14.4893,22.50382 -2.92155,0 -21.75369,-6.51426 -23.21446,-11.60723 m -80.53999,85.71191 c -1.73714,3.03842 -4.61921,4.85609 -7.18543,4.50077 1.89506,1.8161 2.173,5.44829 0.43586,8.68568 -1.73714,3.07947 -4.65868,4.85609 -7.18543,4.50077 1.89506,1.97402 2.16984,5.48777 0.47377,8.68568 -2.13194,3.75064 -6.0405,5.52726 -8.84361,4.10596 l -18.63474,-10.2649 c -2.76363,-1.57921 -3.31635,-5.84309 -1.26337,-9.55425 1.65817,-3.07947 4.6192,-4.81661 7.14595,-4.54024 -1.89506,-1.93297 -2.21091,-5.40882 -0.39481,-8.64621 1.69924,-3.11737 4.61921,-4.77713 7.14595,-4.54024 -1.85716,-1.93296 -2.2109,-5.36934 -0.43586,-8.68569 2.09088,-3.71115 6.00102,-5.56673 8.76464,-3.98752 l 18.63475,10.18594 c 2.80468,1.57922 3.43479,5.80362 1.34233,9.55425 m 116.42766,97.39812 c -32.216,0 -58.35201,-26.1755 -58.35201,-58.31253 0,-21.04305 11.13346,-39.40143 27.79419,-49.66633 6.59322,15.83164 12.51528,30.12354 16.5028,39.63831 -1.61712,2.48884 -2.64361,5.48777 -2.64361,8.72516 0,8.92257 7.26439,16.108 16.108,16.108 8.96205,0 16.18696,-7.18543 16.18696,-16.108 0,-7.73815 -5.52726,-14.21294 -12.79165,-15.75267 l -16.42384,-39.71727 c 4.38233,-1.02649 8.92257,-1.65817 13.62074,-1.65817 32.17651,0 58.35201,26.21497 58.35201,58.43097 0,32.13703 -26.1755,58.31253 -58.35201,58.31253 M 453.63554,551.44007 c -3.67167,5.05349 -7.26439,16.66072 -7.26439,16.66072 l -23.21446,0 c 0,0 7.93555,-12.2784 15.91059,-18.83214 8.01452,-6.51427 25.42537,-18.20046 26.1755,-15.27891 0.71065,2.92155 -8.01452,12.35736 -11.60724,17.45033 m -79.23713,-78.0922 c 0.19898,0.15792 -0.59221,-0.35691 -2.80311,-1.73714 l 2.80311,1.73714 c -0.78961,-0.71065 -21.71421,-14.80515 -21.71421,-14.80515 0,0 7.81711,-24.00407 15.35787,-33.24248 2.25038,-2.72573 9.15945,-11.6862 12.15996,-15.75268 -1.30286,1.77504 18.35838,15.19995 21.122,17.05553 6.51427,4.34284 14.76567,6.71166 18.59527,8.52776 -2.44779,4.69817 -4.14545,8.01452 -4.77713,9.59374 -3.71116,8.8436 -3.00051,36.47987 8.68568,40.62531 l -31.15002,-0.67274 -18.27942,-11.33087 z m -76.78935,183.97859 c -21.75369,0 -40.74376,-12.04152 -50.77178,-29.76821 l 101.50408,0 c -9.90958,17.72669 -29.01809,29.76821 -50.7323,29.76821 m -58.11513,-58.11512 c 0,-32.05808 26.05706,-58.15461 58.11513,-58.15461 18.59526,0 35.13754,8.80412 45.75777,22.46434 l 0.71064,0 -0.71064,0 c 0.27478,0.31584 0.51324,0.59062 0.71064,0.90962 -0.19582,-0.31584 -0.43428,-0.59378 -0.71064,-0.90962 l -51.28502,0 c -10.58075,2.16984 -23.64875,21.00356 -23.64875,31.5843 l -2.60571,14.0945 -25.46485,0 c -0.55272,-3.23739 -0.86857,-6.55374 -0.86857,-9.98853 m 451.1028,-83.46154 c -9.94906,0 -19.42435,1.69923 -28.30744,4.77713 l -32.29496,-90.64697 -27.59679,0 c -4.85608,0 -9.35685,6.4353 -9.35685,11.21243 0,4.81661 4.57973,8.68568 9.35685,8.68568 l 15.31839,0 c 1.02649,2.64361 10.10698,30.08406 10.10698,30.08406 -6.27738,-1.62028 -13.97605,-3.6322 -17.29241,-4.54025 -5.96154,-1.65817 -29.80769,-3.23739 -37.38792,-3.39531 -16.46332,-0.31584 -34.07158,2.60571 -40.8622,3.39531 -6.83011,0.86857 -22.06954,7.89608 -22.06954,7.89608 l -23.84615,-23.21447 c 0,0 11.92308,-32.76872 19.50331,-42.16505 2.28986,-2.68466 9.31737,-11.76515 12.35736,-15.91059 -1.30443,1.77819 20.88513,24.87264 23.45135,27.08354 8.21192,7.02751 18.39786,11.17295 28.03107,15.9106 5.52726,3.19791 12.39685,0.82751 15.31839,-5.29037 0.90963,-1.8161 1.26338,-3.75064 1.26338,-5.68518 0,-4.54024 -6.19842,-7.30387 -9.98854,-9.55425 -10.34386,-6.07998 -18.95059,-11.96256 -24.67524,-22.46434 -6.07998,-11.25191 -8.72517,-23.25395 -7.42232,-35.88767 0.78961,-7.73816 -3.94803,-27.87316 -10.73866,-33.87417 -6.83011,-5.92206 -7.97504,-6.90907 -7.97504,-6.90907 1.7782,-2.52675 5.09297,-3.39532 10.18594,-5.05349 5.09297,-1.73714 8.60673,-6.75115 12.31788,-14.13398 3.6322,-7.26439 1.10545,-9.94906 3.6322,-16.7002 l 8.68568,-1.4592 c 0,-11.17295 -9.94905,-31.30794 -26.84666,-34.11105 -17.45033,-2.92155 -30.87366,9.39633 -37.0326,22.50382 -5.05349,10.93607 -2.2488,17.88461 -1.4213,24.67524 0.90647,6.79063 7.97504,15.27891 7.97504,15.27891 0,0 -5.17193,-0.12634 -9.90957,3.07947 -10.42283,7.06699 -5.32986,1.22547 -14.44973,12.75216 -6.31686,8.01452 -29.61029,49.27153 -46.27101,79.75038 -7.81712,-3.55323 -14.21294,-4.6192 -20.09552,-9.90957 -9.35685,-8.40933 -10.73866,-15.16047 -9.47529,-27.59679 0.82909,-7.6592 -0.71065,-14.52879 -7.22491,-27.63627 -3.98752,-7.97504 -8.21192,-12.75217 -8.21192,-12.75217 1.73713,-2.52674 5.05349,-3.31635 10.10698,-5.01401 5.014,-1.69923 8.48828,-6.6327 12.12047,-13.89709 3.59272,-7.18543 1.06597,-9.83062 3.59272,-16.46332 l 8.56724,-1.4592 c 0,-11.01503 -9.83061,-30.87366 -26.49134,-33.63729 -17.17396,-2.88364 -30.47885,9.23841 -36.51935,22.18798 -5.01401,10.73866 -2.25038,17.60825 -1.46078,24.31992 0.94753,6.71166 7.89608,15.0815 7.89608,15.0815 0,0 -5.21141,2.40989 -10.2649,4.97453 -5.01401,2.52675 -7.81712,5.48778 -16.7002,18.1215 -12.39684,17.72669 -58.27305,98.81941 -59.49694,109.63703 -1.34234,11.09399 2.88206,12.67321 5.80361,22.5433 l -37.11156,0 0,11.09399 16.02904,15.00255 0.71064,12.081 c -32.17651,12.6732 -54.95669,44.06011 -54.95669,80.6979 0,47.88971 38.80922,86.69893 86.69892,86.69893 37.54585,0 69.48548,-23.88563 81.56648,-57.24656 l 125.94234,0 c 9.98853,-0.43586 13.58125,-3.31635 22.10901,-10.4623 6.63271,-5.56674 17.25293,-22.18798 18.1215,-25.34641 l -7.22491,-4.10596 c -2.48569,3.11737 -7.50127,10.73867 -12.23892,14.6867 -3.8296,3.2374 -6.0405,5.05349 -8.2514,6.07998 l -1.30443,-19.58227 c -1.18442,-9.23841 -10.77815,-15.16046 -19.58227,-17.33189 7.18543,-13.26541 22.22745,-43.38894 26.84666,-47.2975 5.80361,-4.77713 14.4893,-2.16984 14.4893,-2.16984 l 108.21574,-0.83067 1.77503,5.76414 c -24.83316,15.00254 -41.4544,42.20453 -41.4544,73.35455 0,47.29751 38.37493,85.67244 85.71192,85.67244 47.25802,0 85.63295,-38.37493 85.63295,-85.67244 0,-47.33698 -38.37493,-85.67243 -85.63295,-85.67243"
     style="fill:#0066b3;fill-opacity:1;fill-rule:nonzero;stroke:none"
     id="path15697" /></svg>