<?xml version="1.0" encoding="UTF-8" standalone="no"?>
<!-- Created with Inkscape (http://www.inkscape.org/) -->

<svg
   xmlns:svg="http://www.w3.org/2000/svg"
   xmlns="http://www.w3.org/2000/svg"
   version="1.1"
   width="560"
   height="330"
   id="svg2">
  <defs
     id="defs4" />
  <g
     id="layer1">
    <rect
       width="560"
       height="330"
       x="0"
       y="0"
       id="rect2832"
       style="color:#000000;fill:#ffffff;fill-opacity:1;fill-rule:nonzero;stroke:none;stroke-width:1;marker:none;visibility:visible;display:inline;overflow:visible;enable-background:accumulate" />
    <rect
       width="530"
       height="300"
       rx="5"
       ry="5"
       x="15"
       y="15"
       id="rect2830"
       style="color:#000000;fill:#ffffff;fill-opacity:1;fill-rule:nonzero;stroke:#0566ae;stroke-width:6;stroke-linecap:round;stroke-linejoin:round;stroke-miterlimit:4;stroke-opacity:1;stroke-dasharray:none;stroke-dashoffset:261;marker:none;visibility:visible;display:inline;overflow:visible;enable-background:accumulate" />
  </g>
  <g
     id="text2831"
     style="font-size:150px;font-style:normal;font-weight:normal;text-align:center;text-anchor:middle;fill:#0566ae;fill-opacity:1;stroke:none;font-family:'Rounded M+ 1m medium';-inkscape-font-specification:'Rounded M+ 1m medium'">
    <path
       d="m 70.626556,92.679276 c -0.302138,0.201499 -0.702681,0.552451 -1.201629,1.052856 -0.498976,0.50057 -0.849165,0.849996 -1.050568,1.048279 -1.30006,1.199421 -2.799998,1.524433 -4.499817,0.975036 -1.699836,-0.549235 -2.749639,-1.72416 -3.149414,-3.52478 -1.101689,-4.99869 0.347895,-9.397795 4.348755,-13.197327 5.700668,-5.401508 10.900858,-11.251722 15.600586,-17.550659 2.700778,-3.600955 6.250731,-5.401491 10.649872,-5.401611 4.399068,1.2e-4 8.199266,1.699948 11.400609,5.099487 4.99872,5.401721 10.54834,10.502729 16.64886,15.30304 0.60113,0.39988 0.90173,0.248818 0.90179,-0.453186 l 0,-3.300476 c -6e-5,-2.297868 0.84985,-4.272353 2.54975,-5.923462 1.69976,-1.65089 3.70018,-2.47639 6.00128,-2.476502 l 16.04919,0 c 0.90018,1.12e-4 1.4495,-0.399668 1.64795,-1.199341 0.10062,-0.298958 0.22574,-0.848274 0.37537,-1.647949 0.14944,-0.799445 0.27457,-1.350286 0.37537,-1.652527 0.6011,-2.297854 1.85156,-4.147218 3.75137,-5.548095 1.89962,-1.400634 4.04882,-2.050657 6.4476,-1.950074 2.20021,0.198489 3.92522,1.148347 5.17502,2.849579 1.24958,1.701475 1.62419,3.601955 1.12381,5.701447 -1.1e-4,0.198479 -0.10005,0.547905 -0.29984,1.048279 -0.19999,0.500602 -0.29994,0.850028 -0.29983,1.048278 -0.0978,0.302238 -0.0222,0.602835 0.22659,0.901795 0.24861,0.299184 0.52403,0.44872 0.82626,0.448608 l 22.19696,0 c 2.3009,1.12e-4 4.30132,0.825612 6.00129,2.476502 1.69969,1.651109 2.5496,3.625594 2.54974,5.923462 l 0,39.303585 c -1.4e-4,2.29804 -0.85005,4.29694 -2.54974,5.99671 -1.69997,1.69988 -3.70039,2.5498 -6.00129,2.54974 l -20.24688,0 c -0.79967,6e-5 -1.19945,0.39984 -1.19934,1.19934 l 0,6.15235 c -1.1e-4,0.7996 0.39967,1.19938 1.19934,1.19934 l 24.00055,0 c 2.29783,4e-5 4.29673,0.84996 5.9967,2.54974 1.69969,1.69987 2.5496,3.7003 2.54974,6.00128 l 0,22.49909 c -1.4e-4,9.89991 -0.77452,16.02478 -2.32315,18.37463 -1.5489,2.34985 -5.62376,3.52477 -12.22457,3.52478 -0.29921,-1e-5 -1.07435,-0.0252 -2.32544,-0.0755 -1.25135,-0.0504 -2.32557,-0.0755 -3.22266,-0.0755 -2.00207,-0.0977 -3.72784,-0.84687 -5.17731,-2.24762 -1.4497,-1.40076 -2.22484,-3.051 -2.32544,-4.95072 -0.10082,-1.89971 0.47444,-3.49959 1.72577,-4.79965 1.2511,-1.30004 2.82581,-1.89971 4.72412,-1.79901 l 2.39868,0 c 1.90112,1e-5 3.00204,-0.35018 3.30277,-1.05057 0.30047,-0.70036 0.45077,-3.00062 0.4509,-6.90078 l 0,-16.20026 c -1.3e-4,-0.90024 -0.40144,-1.35037 -1.20392,-1.3504 l -16.34674,0 c -0.79967,3e-5 -1.19945,0.45016 -1.19934,1.3504 l 0,37.80212 c -1.1e-4,2.20031 -0.80044,4.10003 -2.40097,5.69916 -1.60076,1.59911 -3.50124,2.39867 -5.70145,2.39868 -2.20042,-10e-6 -4.10013,-0.79957 -5.69916,-2.39868 -1.59921,-1.59913 -2.39877,-3.49885 -2.39868,-5.69916 l 0,-37.80212 c -9e-5,-0.90024 -0.39987,-1.35037 -1.19934,-1.3504 l -13.50403,0 c -0.89729,3e-5 -1.3459,0.45016 -1.34582,1.3504 l 0,31.35223 c -8e-5,2.09961 -0.72564,3.87421 -2.17667,5.3238 -1.45118,1.44957 -3.22654,2.17437 -5.32608,2.17437 -2.09968,0 -3.87427,-0.7248 -5.32379,-2.17437 -1.44965,-1.44959 -2.17444,-3.22419 -2.17438,-5.3238 l 0,-37.65106 c -6e-5,-2.30098 0.84985,-4.30141 2.54974,-6.00128 1.69977,-1.69978 3.69867,-2.5497 5.99671,-2.54974 l 21.30432,0 c 0.79947,4e-5 1.19925,-0.39974 1.19934,-1.19934 l 0,-6.15235 c -9e-5,-0.7995 -0.39987,-1.19928 -1.19934,-1.19934 l -12.60223,0 -6.14777,0 c -2.3011,6e-5 -4.30152,-0.84986 -6.00128,-2.54974 -1.6999,-1.69977 -2.54981,-3.69867 -2.54975,-5.99671 l 0,-28.651425 c -6e-5,-0.201322 -0.10001,-0.351621 -0.29983,-0.450897 -0.19996,-0.09909 -0.35025,-0.0495 -0.4509,0.148773 l -5.25055,6.303406 c -0.39984,0.399867 -0.59973,0.949183 -0.59967,1.647949 -6e-5,1.699913 -0.6249,3.149497 -1.87454,4.348755 -1.24975,1.199421 -2.72451,1.799091 -4.42429,1.799011 l -7.800289,0 c -0.900312,8e-5 -1.350446,0.450213 -1.350403,1.350403 l 0,12.153625 c -4.3e-5,0.79963 0.450091,1.19941 1.350403,1.19934 l 8.999629,0 c 1.80049,7e-5 3.35078,0.65009 4.65088,1.95007 1.29999,1.30011 1.95002,2.84964 1.95008,4.64859 -6e-5,1.79907 -0.65009,3.3486 -1.95008,4.64859 -1.3001,1.30011 -2.85039,1.95013 -4.65088,1.95008 l -8.999629,0 c -0.900312,5e-5 -1.350446,0.39983 -1.350403,1.19934 l 0,37.65106 c -4.3e-5,0.79957 0.450091,1.10017 1.350403,0.9018 1.199299,-0.29906 4.249529,-1.14898 9.150699,-2.54975 1.69977,-0.50047 3.27448,-0.30058 4.72412,0.59967 1.44952,0.90028 2.22467,2.20033 2.32544,3.90015 0.1983,1.8982 -0.20224,3.64762 -1.20163,5.24826 -0.99951,1.60065 -2.3995,2.70157 -4.19998,3.30276 -12.298631,3.79944 -25.798068,7.09839 -40.498356,9.89685 -1.80055,0.39978 -3.475963,0.0748 -5.026245,-0.97503 -1.550301,-1.04981 -2.425392,-2.52457 -2.625275,-4.42429 -0.199896,-1.89972 0.250237,-3.59955 1.350403,-5.09949 1.10015,-1.49993 2.60085,-2.44979 4.502106,-2.84957 8.697488,-1.69983 13.296483,-2.60009 13.796997,-2.70081 0.900241,-0.19836 1.350375,-0.74767 1.350403,-1.64795 l 0,-41.25366 c -2.8e-5,-0.79951 -0.450162,-1.19929 -1.350403,-1.19934 l -11.997986,0 c -1.80055,5e-5 -3.350841,-0.64997 -4.650879,-1.95008 -1.300057,-1.29999 -1.950081,-2.84952 -1.950073,-4.64859 -8e-6,-1.79895 0.650016,-3.34848 1.950073,-4.64859 1.300038,-1.29998 2.850329,-1.95 4.650879,-1.95007 l 11.997986,0 c 0.900241,7e-5 1.350375,-0.39971 1.350403,-1.19934 l 0,-12.153625 c -2.8e-5,-0.90019 -0.450162,-1.350323 -1.350403,-1.350403 l -6.147766,0 c -1.300068,8e-5 -2.375049,-0.3997 -3.224945,-1.19934 -0.849931,-0.79948 -1.274888,-1.849283 -1.274872,-3.149414 -1.6e-5,-0.100625 -0.07555,-0.175393 -0.226593,-0.224305 -0.151078,-0.04874 -0.275437,-0.02433 -0.373078,0.07324 z m 64.347844,-14.396668 0,7.200623 c -8e-5,0.79965 0.3997,1.19943 1.19934,1.19934 l 41.84875,0 c 0.80249,9e-5 1.2038,-0.39969 1.20392,-1.19934 l 0,-7.200623 c -1.2e-4,-0.799462 -0.40143,-1.199241 -1.20392,-1.199341 l -41.84875,0 c -0.79964,10e-5 -1.19942,0.399879 -1.19934,1.199341 z m 0,20.99762 0,7.951352 c -8e-5,0.90034 0.3997,1.35047 1.19934,1.35041 l 41.84875,0 c 0.80249,6e-5 1.2038,-0.45007 1.20392,-1.35041 l 0,-7.951352 c -1.2e-4,-0.799483 -0.40143,-1.199263 -1.20392,-1.199341 l -41.84875,0 c -0.79964,7.8e-5 -1.19942,0.399858 -1.19934,1.199341 z M 91.175568,68.083633 c -3.799471,5.600079 -7.749967,10.749915 -11.851502,15.449524 -0.198388,0.09775 -0.222802,0.296876 -0.07324,0.597382 0.149512,0.30069 0.323462,0.450989 0.521851,0.450897 l 26.403803,0 c 0.19832,9.2e-5 0.32268,-0.150207 0.37308,-0.450897 0.0503,-0.300506 -0.0252,-0.499633 -0.22659,-0.597382 C 101.92534,79.233328 97.326346,73.982784 92.525972,67.781509 92.025448,67.28113 91.575314,67.381838 91.17557,68.083633 z M 76.476776,135.88301 c 1.699807,6.09745 3.14939,11.89731 4.348755,17.3996 0.399755,1.59914 0.174688,3.0739 -0.675201,4.42428 -0.849939,1.35042 -2.074455,2.27587 -3.673554,2.77634 -1.501484,0.3998 -2.927417,0.19914 -4.277801,-0.60196 -1.350419,-0.80107 -2.225509,-1.95082 -2.625275,-3.44925 -1.599134,-6.9 -2.998363,-12.60067 -4.197693,-17.10205 -0.500498,-1.59908 -0.376139,-3.12343 0.373077,-4.57306 0.749196,-1.44954 1.924885,-2.37422 3.52707,-2.77405 1.498397,-0.50044 2.972395,-0.37608 4.421997,0.37308 1.449565,0.74925 2.375772,1.92494 2.778625,3.52707 z m 24.449154,12.59766 c 1.1993,-4.00083 2.39864,-8.65017 3.59803,-13.94806 0.39973,-1.50142 1.22446,-2.62676 2.47421,-3.37601 1.24964,-0.74916 2.62446,-0.97423 4.12445,-0.6752 1.49988,0.29912 2.67557,1.09868 3.52707,2.39868 0.85138,1.30009 1.07568,2.70085 0.67291,4.20227 -1.1994,5.3986 -2.39874,10.19901 -3.59802,14.40125 -0.39984,1.49843 -1.27493,2.623 -2.62528,3.37372 -1.35045,0.75075 -2.77562,0.92546 -4.27551,0.52413 -1.49999,-0.40128 -2.62456,-1.27637 -3.37372,-2.62527 -0.74925,-1.34885 -0.92396,-2.77402 -0.52414,-4.27551 z"
       id="path2819" />
    <path
       d="m 312.27542,53.979935 c 1.59901,-0.799438 3.22331,-0.948974 4.8729,-0.448609 1.64936,0.500611 2.8754,1.500061 3.67813,2.998352 3.49719,6.301994 5.54645,10.002246 6.14776,11.100769 0.79944,1.501572 0.94974,3.127395 0.4509,4.877472 -0.49908,1.750286 -1.54889,2.974802 -3.14941,3.673554 -1.60077,0.698952 -3.22583,0.748543 -4.87519,0.148773 -1.64958,-0.59957 -2.87563,-1.64861 -3.67813,-3.147125 -3.39976,-6.201063 -5.39866,-9.850961 -5.9967,-10.949707 -0.79967,-1.501349 -0.94997,-3.052404 -0.4509,-4.653168 0.49886,-1.600527 1.49907,-2.800629 3.00064,-3.600311 z m 36.90033,16.799926 c -0.50063,1.699933 -1.5512,2.900036 -3.1517,3.600312 -1.60079,0.700479 -3.25102,0.77601 -4.95072,0.226593 -1.69996,-0.549214 -2.94965,-1.624958 -3.74908,-3.227234 -1.30018,-2.499282 -3.34943,-6.248363 -6.14777,-11.247254 -0.80273,-1.501347 -0.97897,-3.101992 -0.52871,-4.80194 0.45,-1.699707 1.47616,-2.899046 3.07846,-3.598023 1.59899,-0.799435 3.24846,-0.974148 4.94842,-0.524139 1.6997,0.450259 2.99974,1.474885 3.90015,3.073883 2.30088,4.199336 4.35014,8.049125 6.14776,11.549377 0.80247,1.59923 0.95353,3.248704 0.45319,4.948425 z m -75.30212,28.20282 c -1.89826,19.497739 -5.74729,35.321849 -11.54709,47.472379 -5.79992,12.15059 -14.45088,23.07664 -25.95291,32.77817 -1.59915,1.30005 -3.4241,1.82495 -5.47486,1.57471 -2.0508,-0.25025 -3.77504,-1.1261 -5.17273,-2.62757 -1.30006,-1.49841 -1.87532,-3.19747 -1.72577,-5.09719 0.14952,-1.89972 0.97502,-3.4996 2.47651,-4.79966 9.59774,-8.1024 16.8716,-17.30344 21.82159,-27.60315 4.9499,-10.29963 8.32514,-24.2492 10.12573,-41.848751 -5e-5,-0.799482 -0.34948,-1.199262 -1.04828,-1.199341 l -28.20282,0 c -1.99892,7.9e-5 -3.69875,-0.700299 -5.09948,-2.101135 -1.40078,-1.400674 -2.10115,-3.050148 -2.10114,-4.948425 -10e-6,-2.001865 0.70036,-3.702456 2.10114,-5.101776 1.40073,-1.399139 3.10056,-2.098754 5.09948,-2.098847 l 29.2511,0 c 0.79951,9.3e-5 1.19929,-0.45004 1.19934,-1.350402 0.39973,-7.000632 0.59962,-12.50142 0.59967,-16.502381 -5e-5,-2.099496 0.74992,-3.899269 2.24991,-5.399322 1.49988,-1.499822 3.30042,-2.24979 5.40161,-2.249909 2.10107,1.19e-4 3.90161,0.725673 5.40162,2.176666 1.49986,1.451226 2.24983,3.226584 2.2499,5.326081 -7e-5,5.798445 -0.15113,11.348061 -0.45318,16.648865 -7e-5,0.900362 0.39971,1.350495 1.19934,1.350402 l 48.15216,0 c 2.3009,9.3e-5 4.30133,0.850007 6.00128,2.549744 1.6997,1.699918 2.54962,3.700343 2.54974,6.001282 l 0,1.199341 c -1.2e-4,15.698308 -0.27554,28.647668 -0.82626,38.848118 -0.55097,10.20053 -1.37647,18.62566 -2.4765,25.27542 -1.10028,6.64979 -2.74976,11.65009 -4.94843,15.00091 -2.1989,3.35083 -4.62352,5.62592 -7.27386,6.82526 -2.65056,1.19934 -6.07539,1.79901 -10.27451,1.79901 -6.10056,0 -13.6506,-0.39978 -22.65014,-1.19934 -2.00203,-0.10071 -3.62786,-0.92621 -4.87747,-2.4765 -1.24977,-1.55029 -1.77391,-3.37524 -1.57242,-5.47486 0.19829,-1.99889 1.04744,-3.64836 2.54745,-4.94842 1.49986,-1.30004 3.25081,-1.89971 5.25284,-1.79901 6.89994,0.59815 12.49991,0.89722 16.79993,0.89721 3.79933,1e-5 6.59856,-1.32445 8.39767,-3.97338 1.79891,-2.64891 3.14854,-8.59907 4.04892,-17.8505 0.90016,-9.25136 1.35029,-23.7266 1.3504,-43.42575 l 0,-1.647949 c -1.1e-4,-0.90019 -0.45024,-1.350324 -1.3504,-1.350403 l -39.89868,0 c -0.90034,7.9e-5 -1.35047,0.450213 -1.3504,1.350403 z"
       id="path2821" />
    <path
       d="m 482.22476,55.632462 c 1.90112,2.298092 4.20062,5.148431 6.8985,8.551025 0.50035,0.598256 1.15038,0.897328 1.95007,0.897217 l 2.2522,0 c 1.8004,1.11e-4 3.32551,0.624958 4.57535,1.874542 1.24955,1.249803 1.8744,2.774917 1.87454,4.575348 -1.4e-4,1.80064 -0.62499,3.350931 -1.87454,4.650879 -1.24984,1.300148 -2.77495,1.950171 -4.57535,1.950073 l -36.74927,0 c -0.90037,9.8e-5 -1.3505,0.450232 -1.3504,1.350403 l 0,8.999634 c -1e-4,0.900355 0.45003,1.350489 1.3504,1.350402 l 30.59693,0 c 2.30089,8.7e-5 4.30131,0.824824 6.00128,2.474213 1.69969,1.649558 2.5496,3.624806 2.54974,5.925751 l 0,70.349121 c -1.4e-4,5.09949 -0.12526,8.9241 -0.37536,11.47385 -0.25039,2.54973 -0.92559,4.62493 -2.02561,6.22558 -1.10029,1.60064 -2.44993,2.55126 -4.04892,2.85187 -1.59925,0.30059 -4.09864,0.45088 -7.49817,0.4509 -2.60022,-2e-5 -6.45001,-0.15108 -11.54937,-0.45319 -1.80065,-0.0977 -3.35095,-0.79652 -4.65088,-2.09656 -1.30016,-1.30005 -2.05089,-2.85035 -2.2522,-4.65088 -0.10082,-1.69983 0.44926,-3.15018 1.65024,-4.35104 1.20075,-1.20087 2.6511,-1.75094 4.35104,-1.65024 4.40052,0.20142 6.70002,0.30213 6.8985,0.30213 2.00183,0 3.17752,-0.32502 3.52707,-0.97504 0.3493,-0.65002 0.52401,-2.92511 0.52414,-6.82526 l 0,-10.80322 c -1.3e-4,-0.79954 -0.39991,-1.19932 -1.19934,-1.19934 l -22.49909,0 c -0.90037,2e-5 -1.3505,0.3998 -1.3504,1.19934 l 0,20.40253 c -1e-4,2.0996 -0.75007,3.89938 -2.24991,5.39932 -1.50003,1.49993 -3.30057,2.2499 -5.40161,2.24991 -2.10122,-1e-5 -3.92617,-0.74998 -5.47485,-2.24991 -1.54885,-1.49994 -2.32324,-3.29972 -2.32315,-5.39932 l 0,-20.40253 c -9e-5,-0.79954 -0.40139,-1.19932 -1.20392,-1.19934 l -22.49909,0 c -0.90032,2e-5 -1.35046,0.3998 -1.3504,1.19934 l 0,24.15161 c -6e-5,2.0996 -0.75003,3.89938 -2.24991,5.39933 -1.49999,1.49992 -3.29976,2.24989 -5.39932,2.2499 -2.09966,-1e-5 -3.92461,-0.74998 -5.47485,-2.2499 -1.55034,-1.49995 -2.32549,-3.29973 -2.32544,-5.39933 l 0,-83.999631 c -5e-5,-2.300945 0.84987,-4.276193 2.54974,-5.925751 1.69978,-1.649389 3.70021,-2.474126 6.00128,-2.474213 l 30.74799,0 c 0.80253,8.7e-5 1.20383,-0.450047 1.20392,-1.350402 l 0,-8.999634 c -9e-5,-0.900171 -0.40139,-1.350305 -1.20392,-1.350403 l -42.74597,0 c -0.80266,9.8e-5 -1.50303,0.300696 -2.10114,0.901794 l -1.3504,1.345826 c -1.59916,1.702975 -3.59882,2.578828 -5.99899,2.627563 -2.40024,0.04892 -4.45026,-0.776578 -6.15006,-2.476501 -5.00185,-4.598899 -8.80281,-7.998554 -11.40289,-10.198975 -1.39772,-1.199234 -2.14693,-2.724348 -2.24762,-4.575348 -0.10072,-1.850778 0.49895,-3.426247 1.79901,-4.72641 1.40074,-1.397588 3.05098,-2.171971 4.95071,-2.32315 1.8997,-0.150945 3.60029,0.423548 5.10178,1.72348 5.79831,4.800526 10.84744,9.300338 15.1474,13.499451 0.10067,0.10081 0.27614,0.101573 0.52643,0.0023 0.2502,-0.09908 0.37532,-0.249378 0.37536,-0.450897 -4e-5,-2.30092 0.84988,-4.276168 2.54975,-5.925751 1.69978,-1.649364 3.69868,-2.474101 5.9967,-2.474212 l 35.54993,0 c 0.80253,1.11e-4 1.20383,-0.450023 1.20392,-1.350403 l 0,-2.998352 c -9e-5,-2.099492 0.7743,-3.899264 2.32315,-5.399323 1.54868,-1.499816 3.37363,-2.249785 5.47485,-2.249908 2.10104,1.23e-4 3.90158,0.750092 5.40161,2.249908 1.49984,1.500059 2.24981,3.299831 2.24991,5.399323 l 0,2.998352 c -1e-4,0.90038 0.45003,1.350514 1.3504,1.350403 l 15.1474,0 c 0.2013,1.11e-4 0.3516,-0.07466 0.4509,-0.224304 0.0991,-0.149425 0.12424,-0.298961 0.0755,-0.448609 -0.0489,-0.149424 -0.12371,-0.3249 -0.2243,-0.526428 -0.30224,-0.399667 -0.72796,-0.949746 -1.27716,-1.650238 -0.54943,-0.700264 -0.97363,-1.199989 -1.27259,-1.499176 -1.10179,-1.299932 -1.47716,-2.750278 -1.12609,-4.351044 0.35083,-1.600525 1.32587,-2.69992 2.9251,-3.298187 4.40052,-1.699704 8.05042,-0.849791 10.94971,2.549744 z m -42.44842,88.348388 0,-13.94806 c -9e-5,-0.90022 -0.40139,-1.35035 -1.20392,-1.3504 l -22.49909,0 c -0.90032,5e-5 -1.35046,0.45018 -1.3504,1.3504 l 0,13.94806 c -6e-5,0.79959 0.45008,1.19937 1.3504,1.19934 l 22.49909,0 c 0.80253,3e-5 1.20383,-0.39975 1.20392,-1.19934 z m 0,-28.19824 0,-12.30011 c -9e-5,-0.9002 -0.40139,-1.35033 -1.20392,-1.3504 l -22.49909,0 c -0.90032,7e-5 -1.35046,0.4502 -1.3504,1.3504 l 0,12.30011 c -6e-5,0.90033 0.45008,1.35046 1.3504,1.3504 l 22.49909,0 c 0.80253,6e-5 1.20383,-0.45007 1.20392,-1.3504 z m 40.49835,28.19824 0,-13.94806 c -1.3e-4,-0.90022 -0.39991,-1.35035 -1.19934,-1.3504 l -22.49909,0 c -0.90037,5e-5 -1.3505,0.45018 -1.3504,1.3504 l 0,13.94806 c -1e-4,0.79959 0.45003,1.19937 1.3504,1.19934 l 22.49909,0 c 0.79943,3e-5 1.19921,-0.39975 1.19934,-1.19934 z m -1.19934,-41.84875 -22.49909,0 c -0.90037,7e-5 -1.3505,0.4502 -1.3504,1.3504 l 0,12.30011 c -1e-4,0.90033 0.45003,1.35046 1.3504,1.3504 l 22.49909,0 c 0.79943,6e-5 1.19921,-0.45007 1.19934,-1.3504 l 0,-12.30011 c -1.3e-4,-0.9002 -0.39991,-1.35033 -1.19934,-1.3504 z m -89.40125,15.74707 c -1.30008,1.40081 -2.92514,2.15154 -4.87518,2.25219 -1.9501,0.10077 -3.62551,-0.4989 -5.02625,-1.79901 -3.69875,-3.60101 -8.64869,-8.052 -14.84985,-13.35296 -1.39771,-1.19927 -2.19651,-2.77398 -2.39639,-4.72413 -0.1999,-1.949991 0.35018,-3.623878 1.65024,-5.021663 1.30004,-1.501382 2.89992,-2.352059 4.79965,-2.552033 1.8997,-0.199806 3.59877,0.350273 5.0972,1.650238 6.10044,4.998857 11.15109,9.397958 15.15197,13.197328 1.40073,1.30012 2.15069,2.97553 2.24991,5.02624 0.0992,2.05085 -0.50128,3.82544 -1.8013,5.3238 z m 2.70081,29.85076 c -3.5004,11.90188 -7.80032,23.15217 -12.89978,33.75092 -0.90029,1.90124 -2.32546,3.15169 -4.27551,3.75137 -1.9501,0.59966 -3.8254,0.34942 -5.62592,-0.75073 -1.80055,-1.10016 -2.97548,-2.70005 -3.52478,-4.79965 -0.54933,-2.09961 -0.37385,-4.10004 0.52643,-6.00128 4.49827,-9.3994 8.59831,-19.89897 12.30011,-31.49872 0.59812,-1.90121 1.77228,-3.25161 3.52249,-4.05121 1.75015,-0.79952 3.52551,-0.84987 5.32608,-0.15106 1.90121,0.70194 3.30197,2.00275 4.20227,3.90243 0.90023,1.89976 1.04977,3.84906 0.44861,5.84793 z"
       id="path2823" />
  </g>
  <g
     transform="scale(0.9900231,1.0100774)"
     id="text2835"
     style="font-size:39.60092545px;font-style:normal;font-weight:normal;text-align:center;text-anchor:middle;fill:#0566ae;fill-opacity:1;stroke:#0566ae;stroke-opacity:1;font-family:'Rounded M+ 1m medium';-inkscape-font-specification:'Rounded M+ 1m medium'">
    <path
       d="m 117.30229,271.20402 -5.94594,0 -23.602479,-35.82066 c -1.788634,-2.70705 -3.939805,-6.36888 -6.45352,-10.98548 l -0.290046,0 0.145023,3.48055 c 0.241692,7.68625 0.362544,12.82247 0.362557,15.40868 l 0,27.91691 -6.381008,0 0,-53.04213 8.773887,0 20.266956,30.81737 c 2.63454,4.109 4.9549,8.02462 6.9611,11.74686 l 0.29004,0 c -0.33843,-7.20279 -0.50762,-13.01578 -0.50758,-17.43901 l 0,-25.12522 6.38101,0 z"
       id="path2826"
       style="font-size:74.25173187px;fill:#0566ae;stroke:#0566ae;stroke-width:2.97006941;stroke-miterlimit:4;font-family:IPAPGothic;-inkscape-font-specification:IPAPGothic" />
    <path
       d="m 138.14933,226.35569 -7.2874,0 0,-7.43243 7.2874,0 z m -0.47132,44.84833 -6.38101,0 0,-36.98084 6.38101,0 z"
       id="path2828"
       style="font-size:74.25173187px;fill:#0566ae;stroke:#0566ae;stroke-width:2.97006941;stroke-miterlimit:4;font-family:IPAPGothic;-inkscape-font-specification:IPAPGothic" />
    <path
       d="m 170.41693,242.38072 c -2.29622,-2.97294 -5.19667,-4.45942 -8.70137,-4.45946 -4.59241,4e-5 -6.8886,1.76448 -6.88859,5.29334 -10e-6,2.48959 2.47746,4.54408 7.43243,6.16348 l 2.42913,0.79762 c 7.03358,2.29622 10.55039,6.09098 10.55042,11.3843 -3e-5,3.55307 -1.46235,6.34476 -4.38695,8.37507 -2.32039,1.57109 -5.31752,2.35663 -8.99142,2.35663 -5.6559,0 -10.45374,-2.06658 -14.39352,-6.19973 l 4.02438,-3.66183 c 3.04548,3.26302 6.57436,4.89453 10.58668,4.89452 4.76156,1e-5 7.14235,-1.84904 7.14238,-5.54713 -3e-5,-2.80376 -2.62252,-5.13621 -7.8675,-6.99735 l -2.5379,-0.87014 c -6.62272,-2.32035 -9.93407,-5.71629 -9.93407,-10.18786 0,-2.82791 0.96682,-5.2087 2.90046,-7.14238 2.32036,-2.32033 5.51086,-3.48051 9.57151,-3.48055 5.43834,4e-5 9.89779,1.88534 13.37837,5.6559 z"
       id="path2830"
       style="font-size:74.25173187px;fill:#0566ae;stroke:#0566ae;stroke-width:2.97006941;stroke-miterlimit:4;font-family:IPAPGothic;-inkscape-font-specification:IPAPGothic" />
    <path
       d="m 217.6944,271.20402 -6.381,0 0,-22.94987 c -4e-5,-6.2843 -2.57419,-9.42646 -7.72247,-9.42649 -5.29336,3e-5 -9.16063,3.14219 -11.60184,9.42649 l 0,22.94987 -6.38101,0 0,-54.89117 6.38101,0 0,24.21883 c 3.35968,-4.68904 7.67411,-7.03358 12.9433,-7.03361 8.50797,3e-5 12.76197,4.79787 12.76201,14.39352 z"
       id="path2832"
       style="font-size:74.25173187px;fill:#0566ae;stroke:#0566ae;stroke-width:2.97006941;stroke-miterlimit:4;font-family:IPAPGothic;-inkscape-font-specification:IPAPGothic" />
    <path
       d="m 237.63505,226.35569 -7.2874,0 0,-7.43243 7.2874,0 z m -0.47133,44.84833 -6.38101,0 0,-36.98084 6.38101,0 z"
       id="path2834"
       style="font-size:74.25173187px;fill:#0566ae;stroke:#0566ae;stroke-width:2.97006941;stroke-miterlimit:4;font-family:IPAPGothic;-inkscape-font-specification:IPAPGothic" />
    <path
       d="m 281.61325,271.20402 -7.72247,0 -12.6895,-17.98284 -4.24192,4.0969 0,13.88594 -6.23599,0 0,-54.89117 6.23599,0 0,35.1318 15.58996,-17.22147 8.01252,0 -15.37243,15.37243 z"
       id="path2836"
       style="font-size:74.25173187px;fill:#0566ae;stroke:#0566ae;stroke-width:2.97006941;stroke-miterlimit:4;font-family:IPAPGothic;-inkscape-font-specification:IPAPGothic" />
    <path
       d="m 296.07929,226.35569 -7.2874,0 0,-7.43243 7.2874,0 z m -0.47132,44.84833 -6.38101,0 0,-36.98084 6.38101,0 z"
       id="path2838"
       style="font-size:74.25173187px;fill:#0566ae;stroke:#0566ae;stroke-width:2.97006941;stroke-miterlimit:4;font-family:IPAPGothic;-inkscape-font-specification:IPAPGothic" />
    <path
       d="m 317.90523,258.58703 c -2.53791,0.21755 -3.80686,1.18437 -3.80685,2.90046 -1e-5,2.22369 2.92461,3.48056 8.77389,3.77059 l 4.31443,0.21754 c 9.03973,0.45924 13.5596,3.74643 13.55964,9.86156 -4e-5,3.11798 -1.46235,5.69214 -4.38694,7.72247 -3.16637,2.27201 -7.54122,3.40802 -13.12458,3.40804 -5.07581,-2e-5 -9.16062,-0.87016 -12.25443,-2.61042 -2.97298,-1.69194 -4.45946,-4.01231 -4.45946,-6.9611 0,-3.96396 2.80377,-6.57437 8.41133,-7.83123 l 0,-0.25379 c -4.42321,-1.11184 -6.6348,-3.08174 -6.6348,-5.90969 0,-2.6104 1.88529,-4.61655 5.6559,-6.01845 -4.15733,-2.15116 -6.23599,-5.57128 -6.23599,-10.26037 0,-3.62554 1.20852,-6.64685 3.62557,-9.06393 2.7796,-2.77957 6.52602,-4.16937 11.23928,-4.16941 3.02129,4e-5 5.66795,0.65264 7.94,1.95781 1.76442,-2.29616 5.00326,-3.4926 9.71654,-3.58932 l 0,5.22083 c -3.26305,0.0725 -5.41422,0.36259 -6.45352,0.87013 2.56204,2.51377 3.84307,5.48673 3.84311,8.91891 -4e-5,3.40806 -1.16022,6.28435 -3.48055,8.62887 -2.58627,2.56208 -6.15142,3.84312 -10.69544,3.8431 -1.93366,2e-5 -3.7827,-0.21752 -5.54713,-0.6526 z m 4.64073,-20.52074 c -2.51374,3e-5 -4.5924,0.82183 -6.23598,2.46539 -1.61944,1.61945 -2.42915,3.64977 -2.42913,6.09096 -2e-5,2.3929 0.76135,4.31445 2.28411,5.76466 1.64357,1.64361 3.85517,2.46541 6.63479,2.46539 2.61039,2e-5 4.70114,-0.79761 6.27225,-2.39288 1.59522,-1.57106 2.39284,-3.60138 2.39287,-6.09096 -3e-5,-2.272 -0.79765,-4.19355 -2.39287,-5.76466 -1.66779,-1.6919 -3.84313,-2.53787 -6.52604,-2.5379 z m 0.21754,32.01381 c -6.57439,0 -9.86157,2.03032 -9.86156,6.09096 -1e-5,3.93978 3.46845,5.90967 10.40539,5.90968 4.47152,-10e-6 7.71036,-1.03934 9.71654,-3.11799 1.0393,-0.96683 1.55896,-2.10284 1.559,-3.40804 -4e-5,-3.64974 -3.93982,-5.47461 -11.81937,-5.47461 z"
       id="path2840"
       style="font-size:74.25173187px;fill:#0566ae;stroke:#0566ae;stroke-width:2.97006941;stroke-miterlimit:4;font-family:IPAPGothic;-inkscape-font-specification:IPAPGothic" />
    <path
       d="m 380.22884,271.20402 -5.65589,0 c -0.846,-1.86112 -1.38983,-3.77059 -1.63151,-5.7284 l -0.21753,0 c -2.8038,4.49571 -6.98529,6.74356 -12.54448,6.74356 -3.81895,0 -6.93694,-1.20852 -9.35398,-3.62557 -2.12701,-2.127 -3.19051,-4.72532 -3.19051,-7.79498 0,-7.63786 6.58645,-11.65015 19.75938,-12.0369 l 4.96703,-0.14503 0,-1.92155 c -3e-5,-2.58621 -0.74931,-4.61653 -2.24785,-6.09096 -1.52277,-1.54688 -3.49266,-2.32033 -5.90969,-2.32037 -4.15734,4e-5 -7.27533,2.01827 -9.35398,6.05471 l -5.51087,-2.5379 c 3.40803,-5.65586 8.41132,-8.4838 15.00988,-8.48384 4.51985,4e-5 8.01248,1.26899 10.4779,3.80685 2.27199,2.27206 3.408,5.48673 3.40804,9.64402 l 0,13.5959 c -4e-5,4.61657 0.66465,8.23005 1.99406,10.84046 z m -7.72247,-18.12786 -4.09689,0.0725 c -9.54736,0.21755 -14.32103,2.79171 -14.32102,7.72247 -10e-6,1.74029 0.568,3.17843 1.70402,4.31443 1.40188,1.37773 3.23883,2.06658 5.51087,2.06658 3.16632,0 5.90966,-1.16018 8.23005,-3.48055 1.98196,-2.05448 2.97295,-4.53195 2.97297,-7.43243 z"
       id="path2842"
       style="font-size:74.25173187px;fill:#0566ae;stroke:#0566ae;stroke-width:2.97006941;stroke-miterlimit:4;font-family:IPAPGothic;-inkscape-font-specification:IPAPGothic" />
    <path
       d="m 422.61178,271.20402 -5.94594,0 0,-6.74356 c -3.64977,4.97912 -8.08505,7.46868 -13.30585,7.46868 -4.27819,0 -7.61371,-1.45023 -10.00658,-4.35069 -1.8853,-2.34453 -2.82795,-5.69214 -2.82795,-10.04284 l 0,-23.31243 6.38101,0 0,23.0949 c -1e-5,6.13931 2.57414,9.20896 7.72247,9.20895 5.19663,10e-6 9.0639,-3.19049 11.60184,-9.57151 l 0,-22.73234 6.381,0 z"
       id="path2844"
       style="font-size:74.25173187px;fill:#0566ae;stroke:#0566ae;stroke-width:2.97006941;stroke-miterlimit:4;font-family:IPAPGothic;-inkscape-font-specification:IPAPGothic" />
    <path
       d="m 456.11207,233.49807 -1.12393,6.30849 c -0.82182,-0.16916 -1.55902,-0.25375 -2.2116,-0.25379 -2.85214,4e-5 -5.20876,1.3415 -7.06987,4.02439 -2.32038,3.38389 -3.48056,6.35686 -3.48055,8.91891 l 0,18.70795 -6.381,0 0,-36.98084 6.01845,0 -0.29005,10.98549 0.14502,0 c 2.73125,-8.02457 6.7073,-12.03687 11.92814,-12.03691 0.84594,4e-5 1.66774,0.10881 2.46539,0.32631 z"
       id="path2846"
       style="font-size:74.25173187px;fill:#0566ae;stroke:#0566ae;stroke-width:2.97006941;stroke-miterlimit:4;font-family:IPAPGothic;-inkscape-font-specification:IPAPGothic" />
    <path
       d="m 493.49172,271.20402 -5.65589,0 c -0.846,-1.86112 -1.38983,-3.77059 -1.63151,-5.7284 l -0.21753,0 c -2.80381,4.49571 -6.9853,6.74356 -12.54448,6.74356 -3.81895,0 -6.93694,-1.20852 -9.35398,-3.62557 -2.12701,-2.127 -3.19051,-4.72532 -3.19051,-7.79498 0,-7.63786 6.58645,-11.65015 19.75938,-12.0369 l 4.96703,-0.14503 0,-1.92155 c -3e-5,-2.58621 -0.74931,-4.61653 -2.24786,-6.09096 -1.52276,-1.54688 -3.49265,-2.32033 -5.90968,-2.32037 -4.15734,4e-5 -7.27533,2.01827 -9.35398,6.05471 l -5.51087,-2.5379 c 3.40803,-5.65586 8.41132,-8.4838 15.00987,-8.48384 4.51986,4e-5 8.01249,1.26899 10.47791,3.80685 2.27199,2.27206 3.408,5.48673 3.40804,9.64402 l 0,13.5959 c -4e-5,4.61657 0.66465,8.23005 1.99406,10.84046 z m -7.72247,-18.12786 -4.09689,0.0725 c -9.54736,0.21755 -14.32103,2.79171 -14.32102,7.72247 -10e-6,1.74029 0.568,3.17843 1.70402,4.31443 1.40188,1.37773 3.23883,2.06658 5.51087,2.06658 3.16632,0 5.90966,-1.16018 8.23005,-3.48055 1.98195,-2.05448 2.97294,-4.53195 2.97297,-7.43243 z"
       id="path2848"
       style="font-size:74.25173187px;fill:#0566ae;stroke:#0566ae;stroke-width:2.97006941;stroke-miterlimit:4;font-family:IPAPGothic;-inkscape-font-specification:IPAPGothic" />
  </g>
</svg>
