<?xml version="1.0" encoding="UTF-8" standalone="no"?>
<!-- Created with Inkscape (http://www.inkscape.org/) -->

<svg
   xmlns:dc="http://purl.org/dc/elements/1.1/"
   xmlns:cc="http://creativecommons.org/ns#"
   xmlns:rdf="http://www.w3.org/1999/02/22-rdf-syntax-ns#"
   xmlns:svg="http://www.w3.org/2000/svg"
   xmlns="http://www.w3.org/2000/svg"
   xmlns:sodipodi="http://sodipodi.sourceforge.net/DTD/sodipodi-0.dtd"
   xmlns:inkscape="http://www.inkscape.org/namespaces/inkscape"
   version="1.0"
   width="600"
   height="360"
   id="svg4203"
   inkscape:version="0.47 r22583"
   sodipodi:docname="Japanese_Road_sign_116-2-B.svg">
  <metadata
     id="metadata39">
    <rdf:RDF>
      <cc:Work
         rdf:about="">
        <dc:format>image/svg+xml</dc:format>
        <dc:type
           rdf:resource="http://purl.org/dc/dcmitype/StillImage" />
      </cc:Work>
    </rdf:RDF>
  </metadata>
  <sodipodi:namedview
     pagecolor="#ffffff"
     bordercolor="#666666"
     borderopacity="1"
     objecttolerance="10"
     gridtolerance="10"
     guidetolerance="10"
     inkscape:pageopacity="0"
     inkscape:pageshadow="2"
     inkscape:window-width="1366"
     inkscape:window-height="706"
     id="namedview37"
     showgrid="false"
     inkscape:zoom="0.92709556"
     inkscape:cx="364.75961"
     inkscape:cy="136.65827"
     inkscape:window-x="-8"
     inkscape:window-y="-8"
     inkscape:window-maximized="1"
     inkscape:current-layer="svg4203" />
  <defs
     id="defs4205">
    <inkscape:perspective
       sodipodi:type="inkscape:persp3d"
       inkscape:vp_x="0 : 180 : 1"
       inkscape:vp_y="0 : 1000 : 0"
       inkscape:vp_z="640 : 180 : 1"
       inkscape:persp3d-origin="320 : 120 : 1"
       id="perspective41" />
    <inkscape:perspective
       id="perspective3633"
       inkscape:persp3d-origin="0.5 : 0.33333333 : 1"
       inkscape:vp_z="1 : 0.5 : 1"
       inkscape:vp_y="0 : 1000 : 0"
       inkscape:vp_x="0 : 0.5 : 1"
       sodipodi:type="inkscape:persp3d" />
    <inkscape:perspective
       id="perspective3663"
       inkscape:persp3d-origin="0.5 : 0.33333333 : 1"
       inkscape:vp_z="1 : 0.5 : 1"
       inkscape:vp_y="0 : 1000 : 0"
       inkscape:vp_x="0 : 0.5 : 1"
       sodipodi:type="inkscape:persp3d" />
    <inkscape:perspective
       id="perspective3688"
       inkscape:persp3d-origin="0.5 : 0.33333333 : 1"
       inkscape:vp_z="1 : 0.5 : 1"
       inkscape:vp_y="0 : 1000 : 0"
       inkscape:vp_x="0 : 0.5 : 1"
       sodipodi:type="inkscape:persp3d" />
    <inkscape:perspective
       id="perspective2828"
       inkscape:persp3d-origin="0.5 : 0.33333333 : 1"
       inkscape:vp_z="1 : 0.5 : 1"
       inkscape:vp_y="0 : 1000 : 0"
       inkscape:vp_x="0 : 0.5 : 1"
       sodipodi:type="inkscape:persp3d" />
  </defs>
  <g
     id="layer1"
     style="fill:#005d35;fill-opacity:1">
    <rect
       width="600"
       height="220"
       x="0"
       y="0"
       id="rect_bg"
       style="fill:#005d35;fill-opacity:1;stroke:none" />
  </g>
  <rect
     style="color:#000000;fill:#005d35;fill-opacity:1;fill-rule:nonzero;stroke:#ffffff;stroke-width:1;stroke-linecap:square;stroke-linejoin:miter;stroke-miterlimit:4;stroke-opacity:1;stroke-dasharray:none;stroke-dashoffset:261;marker:none;visibility:visible;display:inline;overflow:visible;enable-background:accumulate"
     id="rect2847"
     width="600"
     height="130"
     x="0"
     y="230" />
  <g
     transform="scale(0.91836016,1.0888974)"
     style="font-size:165.81150818px;font-style:normal;font-weight:normal;text-align:center;text-anchor:middle;fill:#ffffff;fill-opacity:1;stroke:#ffffff;stroke-width:4.60587502;stroke-miterlimit:4;stroke-opacity:1;font-family:IPAPGothic;-inkscape-font-specification:IPAPGothic"
     id="text2849">
    <path
       d="m 104.89488,41.220475 34.49009,0 c 30.172,1.2e-4 45.25803,11.33488 45.25812,34.004313 -9e-5,23.965007 -15.38298,35.947472 -46.14871,35.947422 l -19.02622,0 0,48.49662 -14.57328,0 z m 14.57328,58.374071 16.27349,0 c 22.45357,6.2e-5 33.68038,-8.069207 33.68046,-24.207832 -8e-5,-14.951002 -10.41726,-22.426546 -31.25158,-22.426654 l -18.70237,0 z"
       style="fill:#ffffff;stroke:#ffffff"
       id="path3715" />
  </g>
  <g
     id="g3717">
    <path
       sodipodi:nodetypes="cccccccccccccccsccccccc"
       id="path3643"
       d="m 320.67267,173.37393 0.0476,-66.11757 c 0.0552,-1.14332 -1.07804,-4.00918 -1.90678,-5.43433 L 310.0423,85.805084 c -0.60612,-1.636652 -0.45515,-2.748941 -0.38135,-4.194915 l 3.05084,-33.559322 c 0.63282,-3.088114 5.02779,-3.003044 5.72034,0 l 2.28814,24.025424 3.4322,-24.025424 c 0.66903,-2.548357 4.00218,-2.672682 4.95763,0 l 2.76483,23.977754 3.33686,-24.740466 c 0.41317,-1.970084 4.36968,-2.065933 4.57628,0 l 3.81356,36.228814 c 0.0155,1.425788 -0.96067,2.858766 -1.52543,3.813559 -2.00377,3.545131 -5.4996,9.683433 -7.7219,13.551592 -1.44323,2.51211 -2.51764,4.98059 -2.47937,6.13591 l 0.0477,66.11758 c -0.004,1.23615 -0.97265,1.96005 -2.43114,1.90678 l -6.1017,0 c -1.51012,0.041 -2.67918,-0.27671 -2.71712,-1.66844 l 3e-5,0 -4e-5,0 z"
       style="fill:#ffffff;stroke:#ffffff;stroke-width:1px;stroke-linecap:butt;stroke-linejoin:miter;stroke-opacity:1" />
    <path
       sodipodi:nodetypes="ccccccccccc"
       id="path3645"
       d="m 366.38771,175.04237 c -1.32625,-0.0244 -1.3935,-1.06942 -1.43008,-1.90678 l -0.0559,-56.42672 c -0.26015,-1.44313 -1.7216,-4.43834 -2.89966,-5.49594 -3.54834,-3.31853 -4.9711,-4.83967 -6.53072,-7.34111 -0.97685,-2.01483 -1.20978,-3.61732 -1.19174,-5.863346 0.13116,-21.443657 7.77672,-35.03437 14.87288,-50.720339 2.40344,-4.374896 6.88198,-2.107229 7.24577,0 l 0,126.038135 c -0.0709,0.96413 -0.56949,1.76298 -1.38242,1.7161 l -8.62818,0 z"
       style="fill:#ffffff;stroke:#ffffff;stroke-width:1px;stroke-linecap:butt;stroke-linejoin:miter;stroke-opacity:1" />
  </g>
  <rect
     style="color:#000000;fill:#ffffff;fill-opacity:1;fill-rule:nonzero;stroke:none;stroke-width:5;marker:none;visibility:visible;display:inline;overflow:visible;enable-background:accumulate"
     id="rect3649"
     width="360"
     height="130"
     x="240"
     y="230" />
  <g
     style="font-size:40px;font-style:normal;font-weight:normal;text-align:center;text-anchor:middle;fill:#005d35;fill-opacity:1;stroke:#005d35;stroke-width:1;stroke-miterlimit:4;stroke-opacity:1;font-family:IPAPGothic;-inkscape-font-specification:IPAPGothic"
     id="text3651"
     transform="translate(-32.494112,0)">
    <path
       d="m 400.29794,267.23898 c 4.53447,14.46942 13.56929,25.06512 27.1045,31.78711 l -3.93067,5.02442 c -12.80604,-7.4056 -21.51046,-17.85318 -26.11328,-31.34278 -2.66605,14.85679 -11.37047,25.88542 -26.11328,33.08594 l -3.93067,-4.81934 c 8.52213,-3.14452 15.19855,-8.3968 20.0293,-15.75683 3.21286,-4.96743 5.24086,-10.96026 6.08399,-17.97852 l -26.45508,0 0,-4.88769 26.72851,0 0,-16.67969 5.53711,0 0,16.67969 27.24121,0 0,4.88769 z"
       style="font-size:70px;fill:#005d35;stroke:#005d35"
       id="path3722" />
    <path
       d="m 527.03622,247.20969 0,23.8916 -20.37109,0 0,4.81933 24.71191,0 0,4.20411 -24.71191,0 0,5.02441 29.25781,0 0,4.40918 -62.99316,0 0,-4.40918 28.7793,0 0,-5.02441 -24.37012,0 0,-4.20411 24.37012,0 0,-4.81933 -19.82422,0 0,-23.8916 z m -40.33203,4.06738 0,5.87891 15.00489,0 0,-5.87891 z m 0,9.80957 0,5.94727 15.00489,0 0,-5.94727 z m 35.37598,5.94727 0,-5.94727 -15.41504,0 0,5.94727 z m 0,-9.87793 0,-5.87891 -15.41504,0 0,5.87891 z m -47.27051,46.68945 c 3.37239,-3.50911 6.12955,-7.70182 8.27149,-12.57813 l 4.54589,1.94825 c -2.46095,5.58268 -5.26368,10.32226 -8.4082,14.21875 z m 21.43067,3.00781 c -0.50133,-4.78516 -1.34443,-9.37662 -2.5293,-13.77441 l 4.68262,-1.12793 c 1.4583,3.91927 2.60901,8.44238 3.45214,13.56933 z m 15.10742,-1.09375 c -1.4128,-5.35482 -2.95089,-9.71842 -4.61426,-13.09082 l 4.5459,-1.40137 c 2.18745,3.89649 3.9648,8.15756 5.33203,12.78321 z m 19.03808,0.27344 c -2.89393,-5.10417 -6.03846,-9.63867 -9.43359,-13.60352 l 4.13574,-2.08496 c 3.85085,3.64584 7.21185,7.84994 10.08301,12.61231 z"
       style="font-size:70px;fill:#005d35;stroke:#005d35"
       id="path3724" />
  </g>
  <g
     style="font-size:40px;font-style:normal;font-weight:normal;text-align:center;text-anchor:middle;fill:#005d35;fill-opacity:1;stroke:#005d35;stroke-width:1;stroke-miterlimit:4;stroke-opacity:1;font-family:IPAPGothic;-inkscape-font-specification:IPAPGothic"
     id="text3651-1"
     transform="translate(-32.494112,0)">
    <path
       d="m 387.05331,318.68967 7.51954,0 c 4.28383,2e-5 7.57647,1.06529 9.87793,3.1958 2.42673,2.2103 3.64011,5.29787 3.64013,9.26269 -2e-5,4.77377 -1.7147,8.2658 -5.14404,10.47608 -2.15334,1.37858 -5.02443,2.06787 -8.61328,2.06787 l -7.28028,0 z m 3.07618,22.30224 3.94775,0 c 7.14354,10e-6 10.71531,-3.28124 10.71533,-9.84375 -2e-5,-6.5283 -3.50913,-9.79245 -10.52734,-9.79248 l -4.13574,0 z"
       style="font-size:35px;fill:#005d35;stroke:#005d35"
       id="path3727" />
    <path
       d="m 427.50497,343.69211 -2.66601,0 c -0.39878,-0.87728 -0.65513,-1.77734 -0.76904,-2.7002 l -0.10254,0 c -1.32163,2.11914 -3.29266,3.17871 -5.91309,3.17871 -1.80014,0 -3.26986,-0.56966 -4.40918,-1.70898 -1.00261,-1.0026 -1.50391,-2.22737 -1.50391,-3.67432 0,-3.60025 3.10465,-5.49152 9.31397,-5.67383 l 2.34131,-0.0684 0,-0.90577 c -2e-5,-1.21906 -0.35321,-2.17609 -1.05957,-2.87109 -0.71779,-0.72915 -1.64633,-1.09373 -2.78565,-1.09375 -1.95964,2e-5 -3.42936,0.95135 -4.40918,2.854 l -2.59765,-1.19629 c 1.60644,-2.66599 3.96483,-3.999 7.07519,-3.99902 2.13052,2e-5 3.77684,0.59816 4.93897,1.79444 1.07095,1.07097 1.60643,2.58627 1.60644,4.54589 l 0,6.40869 c -10e-6,2.17611 0.3133,3.8794 0.93994,5.10987 z m -3.64013,-8.54492 -1.93115,0.0342 c -4.50034,0.10254 -6.7505,1.31592 -6.75049,3.64013 -10e-6,0.82032 0.26773,1.49822 0.80322,2.03369 0.6608,0.64942 1.52669,0.97413 2.59766,0.97413 1.4925,0 2.78563,-0.54688 3.87939,-1.64063 0.93423,-0.96842 1.40135,-2.13622 1.40137,-3.50342 z"
       style="font-size:35px;fill:#005d35;stroke:#005d35"
       id="path3729" />
    <path
       d="m 435.96445,322.55197 -3.43506,0 0,-3.50342 3.43506,0 z m -0.22217,21.14014 -3.00781,0 0,-17.43164 3.00781,0 z"
       style="font-size:35px;fill:#005d35;stroke:#005d35"
       id="path3731" />
    <path
       d="m 456.69443,343.69211 -3.64014,0 -5.98144,-8.47656 -1.99952,1.93115 0,6.54541 -2.93945,0 0,-25.87403 2.93945,0 0,16.56006 7.34864,-8.11767 3.77685,0 -7.24609,7.24609 z"
       style="font-size:35px;fill:#005d35;stroke:#005d35"
       id="path3733" />
    <path
       d="m 467.56357,325.76486 c 2.46092,2e-5 4.53449,0.82603 6.2207,2.47803 1.73175,1.73178 2.59764,4.01043 2.59766,6.83594 -2e-5,2.72298 -0.84882,4.93897 -2.54639,6.64795 -1.66343,1.65202 -3.75408,2.47802 -6.27197,2.47802 -2.51791,0 -4.59148,-0.81461 -6.22071,-2.44384 -1.70898,-1.70898 -2.56347,-3.97054 -2.56347,-6.78467 0,-2.75715 0.86588,-5.00162 2.59765,-6.7334 1.65202,-1.652 3.71419,-2.47801 6.18653,-2.47803 z m 0,2.30713 c -1.45834,2e-5 -2.69451,0.5241 -3.7085,1.57227 -1.28744,1.28744 -1.93116,3.07618 -1.93115,5.36621 -1e-5,2.25586 0.63232,4.01612 1.89697,5.28076 1.02539,1.02539 2.27294,1.53809 3.74268,1.53809 1.50389,0 2.76284,-0.52409 3.77685,-1.57227 1.26464,-1.26464 1.89696,-3.05338 1.89698,-5.36621 -2e-5,-2.1761 -0.64374,-3.92496 -1.93116,-5.24658 -1.04819,-1.04817 -2.29574,-1.57225 -3.74267,-1.57227 z"
       style="font-size:35px;fill:#005d35;stroke:#005d35"
       id="path3735" />
    <path
       d="m 495.93271,343.69211 -3.64014,0 -5.98144,-8.47656 -1.99952,1.93115 0,6.54541 -2.93945,0 0,-25.87403 2.93945,0 0,16.56006 7.34864,-8.11767 3.77685,0 -7.24609,7.24609 z"
       style="font-size:35px;fill:#005d35;stroke:#005d35"
       id="path3737" />
    <path
       d="m 514.27011,343.69211 -2.80273,0 0,-3.17871 c -1.72039,2.347 -3.81105,3.52051 -6.27198,3.52051 -2.0166,0 -3.58887,-0.6836 -4.71679,-2.05079 -0.88868,-1.10514 -1.33301,-2.6831 -1.33301,-4.73388 l 0,-10.98877 3.00781,0 0,10.88623 c 0,2.89388 1.21337,4.34082 3.64014,4.34082 2.44953,0 4.27245,-1.5039 5.46875,-4.51172 l 0,-10.71533 3.00781,0 z"
       style="font-size:35px;fill:#005d35;stroke:#005d35"
       id="path3739" />
  </g>
  <path
     d="m 84.435705,255.66991 11.5413,55.97295 15.715325,-15.69496 39.57208,39.57206 13.18702,-13.18701 -39.55177,-39.55179 15.45027,-15.4299 -55.914172,-11.6813 -5.3e-5,-5e-5 z"
     id="rect3015"
     style="color:#000000;fill:#ffffff;fill-opacity:1;fill-rule:nonzero;stroke:#ffffff;stroke-width:1.06580925;stroke-linecap:butt;stroke-linejoin:miter;stroke-miterlimit:4;stroke-opacity:1;stroke-dashoffset:261;marker:none;visibility:visible;display:inline;overflow:visible;enable-background:accumulate"
     sodipodi:nodetypes="ccccccccc" />
</svg>
