<?xml version="1.0" encoding="UTF-8" standalone="no"?>
<!-- Created with Inkscape (http://www.inkscape.org/) -->

<svg
   xmlns:dc="http://purl.org/dc/elements/1.1/"
   xmlns:cc="http://creativecommons.org/ns#"
   xmlns:rdf="http://www.w3.org/1999/02/22-rdf-syntax-ns#"
   xmlns:svg="http://www.w3.org/2000/svg"
   xmlns="http://www.w3.org/2000/svg"
   xmlns:sodipodi="http://sodipodi.sourceforge.net/DTD/sodipodi-0.dtd"
   xmlns:inkscape="http://www.inkscape.org/namespaces/inkscape"
   id="svg1890"
   sodipodi:version="0.32"
   inkscape:version="0.48.4 r9939"
   width="500.34357"
   height="500.34357"
   version="1.0"
   sodipodi:docname="AJAX1.svg"
   inkscape:output_extension="org.inkscape.output.svg.inkscape">
  <metadata
     id="metadata1895">
    <rdf:RDF>
      <cc:Work
         rdf:about="">
        <dc:format>image/svg+xml</dc:format>
        <dc:type
           rdf:resource="http://purl.org/dc/dcmitype/StillImage" />
      </cc:Work>
    </rdf:RDF>
  </metadata>
  <defs
     id="defs1893">
    <inkscape:perspective
       sodipodi:type="inkscape:persp3d"
       inkscape:vp_x="0 : 235 : 1"
       inkscape:vp_y="0 : 1000 : 0"
       inkscape:vp_z="470 : 235 : 1"
       inkscape:persp3d-origin="235 : 156.66667 : 1"
       id="perspective10" />
    <inkscape:perspective
       id="perspective2390"
       inkscape:persp3d-origin="372.04724 : 350.78739 : 1"
       inkscape:vp_z="744.09448 : 526.18109 : 1"
       inkscape:vp_y="0 : 1000 : 0"
       inkscape:vp_x="0 : 526.18109 : 1"
       sodipodi:type="inkscape:persp3d" />
    <inkscape:perspective
       id="perspective3168"
       inkscape:persp3d-origin="372.04724 : 350.78739 : 1"
       inkscape:vp_z="744.09448 : 526.18109 : 1"
       inkscape:vp_y="0 : 1000 : 0"
       inkscape:vp_x="0 : 526.18109 : 1"
       sodipodi:type="inkscape:persp3d" />
    <inkscape:perspective
       id="perspective2400"
       inkscape:persp3d-origin="372.04724 : 350.78739 : 1"
       inkscape:vp_z="744.09448 : 526.18109 : 1"
       inkscape:vp_y="0 : 1000 : 0"
       inkscape:vp_x="0 : 526.18109 : 1"
       sodipodi:type="inkscape:persp3d" />
    <inkscape:perspective
       id="perspective2391"
       inkscape:persp3d-origin="372.04724 : 350.78739 : 1"
       inkscape:vp_z="744.09448 : 526.18109 : 1"
       inkscape:vp_y="0 : 1000 : 0"
       inkscape:vp_x="0 : 526.18109 : 1"
       sodipodi:type="inkscape:persp3d" />
  </defs>
  <sodipodi:namedview
     inkscape:window-height="1004"
     inkscape:window-width="1280"
     inkscape:pageshadow="2"
     inkscape:pageopacity="0.0"
     guidetolerance="10.0"
     gridtolerance="10.0"
     objecttolerance="10.0"
     borderopacity="1.0"
     bordercolor="#666666"
     pagecolor="#ffffff"
     id="base"
     inkscape:zoom="0.880474"
     inkscape:cx="260.67173"
     inkscape:cy="247.80914"
     inkscape:window-x="-8"
     inkscape:window-y="-8"
     inkscape:current-layer="svg1890"
     showgrid="false"
     fit-margin-top="0.2"
     fit-margin-left="0.2"
     fit-margin-right="0.2"
     fit-margin-bottom="0.2"
     inkscape:window-maximized="1"
     showguides="true"
     inkscape:guide-bbox="true" />
  <path
     style="fill:#fcdc0f;fill-opacity:1;fill-rule:nonzero;stroke:none"
     d="m 496.8946,242.33616 c 4.33196,4.33195 4.33196,11.33928 0,15.67124 L 258.00741,496.89459 c -4.33196,4.33196 -11.33929,4.33196 -15.67125,0 L 3.4489782,258.0074 c -4.33196925,-4.33197 -4.33196925,-11.33928 -1e-5,-15.67124 L 242.33617,3.4489589 c 4.33195,-4.33194987 11.33929,-4.33194387 15.67125,1e-5 z"
     id="path5216"
     inkscape:connector-curvature="0"
     sodipodi:nodetypes="sssssssss" />
  <path
     style="fill:#000000;fill-opacity:1;fill-rule:nonzero;stroke:none"
     d="M 250.17179,12.231763 12.231779,250.17177 250.17179,488.1118 488.11181,250.17178 z m 16.73435,30.875126 190.33054,190.330551 c 9.25965,9.25963 9.25965,24.20902 1e-5,33.46868 L 266.90615,457.23668 c -9.25965,9.25963 -24.20908,9.25963 -33.46871,0 L 43.106879,266.90612 c -9.25963,-9.25964 -9.25964,-24.20905 0,-33.46869 L 233.43744,43.106869 c 9.25965,-9.259653 24.20905,-9.25963 33.4687,2e-5 z"
     id="path17826"
     inkscape:connector-curvature="0"
     sodipodi:nodetypes="cccccsssssssss" />
  <path
     inkscape:connector-curvature="0"
     d="m 293.57887,189.52164 c -17.4043,-9.6713 -24.0354,-12.69101 -36.1551,-16.89415 -12.0789,-4.16234 -19.1386,-5.91704 -38.7464,-9.09999 -19.5466,-3.12176 -10.5487,-13.0991 -7.9574,-16.58811 2.6321,-3.489 8.4063,-8.0186 13.956,-9.7529 5.5294,-1.69349 22.8724,-0.77533 42.6435,6.10066 19.7302,6.8148 33.9719,16.87376 37.3589,21.68901 3.3462,4.79483 5.2233,11.99728 5.1825,16.38405 -0.033,4.34596 1.1214,17.87353 -16.282,8.16143 m 22.3419,8.36545 c 0.4276,-18.46522 2.9381,-39.68492 -3.0606,-44.62259 -10.569,-8.79393 -20.5463,-16.62891 -40.9703,-23.70894 -20.3832,-7.08004 -32.9926,-7.08004 -46.6834,-6.73318 -7.4677,0.22362 -17.5471,17.44506 -28.1569,31.91117 -8.7327,11.9769 -14.3845,7.97779 -18.9549,21.70941 -8.3043,24.85153 -1.1622,34.76766 3.8154,38.50153 l -3.4074,10.05896 c -1.0005,3.04012 0.5713,6.42711 3.5503,7.42689 l 7.0392,2.42803 c 2.9585,1.06099 6.2435,-0.61212 7.2637,-3.65226 l 3.1625,-9.46725 26.7491,9.30404 c 0.7133,5.69259 4.4276,10.73227 10.0998,12.71141 5.6926,1.95875 11.6504,0.24486 15.6291,-3.79506 l 26.7287,9.28363 -3.2034,9.46726 c -1.0006,3.01971 0.6121,6.3863 3.5911,7.38608 l 6.9983,2.46883 c 2.9994,1.02018 6.2436,-0.61211 7.3045,-3.67263 l 4.2032,-12.56861 c 6.1618,-2.06076 14.0988,-8.71233 20.3831,-27.36117 5.2437,-15.64955 -2.3464,-12.97667 -2.0811,-27.07555"
     style="fill:#000000;fill-opacity:1;fill-rule:nonzero;stroke:none"
     id="path41406" />
  <path
     inkscape:connector-curvature="0"
     d="m 180.91037,284.09216 c -58.2114,-21.87262 -6.672,-39.99099 39.2769,-32.1152 0.5713,0.098 -0.5713,-0.20405 0,0 -67.393,-28.74864 -114.6885,7.93698 -39.8686,34.21678 l 0.5909,-2.10158"
     style="fill:#000000;fill-opacity:1;fill-rule:nonzero;stroke:none"
     id="path41410" />
  <path
     inkscape:connector-curvature="0"
     d="m 210.18947,298.72153 c 43.8677,4.08071 130.1543,9.44685 128.1548,43.19435 -0.4277,6.61075 -10.0385,32.44167 -64.8833,36.19592 3.9787,-0.28566 42.1537,-12.20134 41.0111,-33.95154 -1.5098,-29.1771 -61.1495,-31.19704 -104.2418,-43.88807 l -0.033,-1.55066"
     style="fill:#000000;fill-opacity:1;fill-rule:nonzero;stroke:none"
     id="path41414" />
  <path
     inkscape:connector-curvature="0"
     d="m 145.51017,339.75309 c 65.6383,14.99663 72.2082,-16.97576 63.2307,-28.97306 -26.4227,-35.17575 25.6268,-49.72348 48.3768,-48.03 -20.9137,-5.79461 -92.4282,10.71188 -62.6389,44.27574 25.0759,28.27935 -38.3179,34.97172 -48.9686,32.72732"
     style="fill:#000000;fill-opacity:1;fill-rule:nonzero;stroke:none"
     id="path41418" />
</svg>
