<?xml version="1.0" encoding="UTF-8" standalone="no"?>
<!-- Created with Inkscape (http://www.inkscape.org/) -->

<svg
   xmlns:svg="http://www.w3.org/2000/svg"
   xmlns="http://www.w3.org/2000/svg"
   version="1.0"
   width="500"
   height="420"
   id="svg4203">
  <rect
     width="497.5"
     height="417.5"
     x="2.5"
     y="2.5"
     id="rect2870"
     style="color:#000000;fill:#0066b3;fill-opacity:1;fill-rule:nonzero;stroke:#ffffff;stroke-width:5;stroke-linecap:round;stroke-linejoin:round;stroke-miterlimit:4;stroke-opacity:1;stroke-dasharray:none;stroke-dashoffset:261;marker:none;visibility:visible;display:inline;overflow:visible;enable-background:accumulate" />
  <path
     d="m 0,140 500,0"
     id="path3646"
     style="fill:none;stroke:#ffffff;stroke-width:5;stroke-linecap:butt;stroke-linejoin:miter;stroke-miterlimit:4;stroke-opacity:1;stroke-dasharray:none" />
  <path
     d="m 0,280 500,0"
     id="path3648"
     style="fill:none;stroke:#ffffff;stroke-width:5;stroke-linecap:butt;stroke-linejoin:miter;stroke-miterlimit:4;stroke-opacity:1;stroke-dasharray:none" />
  <g
     id="text3650"
     style="font-size:72px;font-style:normal;font-weight:normal;text-align:center;text-anchor:middle;fill:#ffffff;fill-opacity:1;stroke:none;font-family:'Rounded M+ 1p medium';-inkscape-font-specification:'Rounded M+ 1p medium'">
    <path
       d="m 188.20554,53.235527 c 1.5351,1.776879 2.97504,3.57717 4.31982,5.400879 0.67231,0.912617 0.91218,1.908709 0.7196,2.988281 -0.19268,1.079606 -0.74456,1.955582 -1.65564,2.62793 l -0.50537,0.360351 c -0.0469,0.04835 -0.0586,0.09633 -0.0351,0.143921 0.0234,0.04762 0.0593,0.07143 0.10766,0.07141 0.81587,1.4e-5 1.49995,0.288222 2.05225,0.864624 0.55219,0.576429 0.82831,1.248425 0.82837,2.015992 l 0,0.07251 c -6e-5,0.815928 -0.28827,1.523813 -0.86463,2.123658 -0.57647,0.599861 -1.27263,0.899788 -2.0885,0.89978 l -35.13427,0 c -0.81594,8e-6 -1.51211,-0.299919 -2.0885,-0.89978 -0.57644,-0.599845 -0.86464,-1.30773 -0.86463,-2.123658 -1e-5,-0.815906 0.28819,-1.512072 0.86463,-2.088501 0.57639,-0.576402 1.27256,-0.86461 2.0885,-0.864624 l 12.95947,0 c 0.4321,1.4e-5 0.64816,-0.19188 0.64819,-0.575683 l 0,-10.656738 c -3e-5,-0.432104 -0.21609,-0.648168 -0.64819,-0.648194 l -9.86353,0 c -0.76906,2.6e-5 -1.42934,-0.275731 -1.98083,-0.82727 -0.55153,-0.551487 -0.82729,-1.211398 -0.82727,-1.979737 -2e-5,-0.768281 0.27574,-1.416474 0.82727,-1.94458 0.55149,-0.528045 1.21177,-0.792083 1.98083,-0.792114 l 9.86353,0 c 0.4321,3.1e-5 0.64816,-0.216033 0.64819,-0.648193 l 0,-7.776123 c -3e-5,-0.432089 -0.21609,-0.648154 -0.64819,-0.648194 l -12.09595,0 c -0.76759,4e-5 -1.43959,-0.287801 -2.01599,-0.863525 -0.57643,-0.575642 -0.86464,-1.247638 -0.86462,-2.015991 -2e-5,-0.768267 0.28819,-1.440263 0.86462,-2.015992 0.5764,-0.575637 1.2484,-0.863479 2.01599,-0.863525 l 33.40723,0 c 0.76752,4.6e-5 1.43952,0.287888 2.01599,0.863525 0.57636,0.575729 0.86457,1.247725 0.86462,2.015992 -5e-5,0.768353 -0.28826,1.440349 -0.86462,2.015991 -0.57647,0.575724 -1.24847,0.863565 -2.01599,0.863525 l -12.81665,0 c -0.43071,4e-5 -0.64604,0.216105 -0.646,0.648194 l 0,7.776123 c -4e-5,0.43216 0.21529,0.648224 0.646,0.648193 l 10.58423,0 c 0.76899,3.1e-5 1.42927,0.264069 1.98083,0.792114 0.55146,0.528106 0.82722,1.175933 0.82727,1.943482 l 0,0.360351 c -5e-5,0.672391 -0.23992,1.24844 -0.7196,1.72815 -0.47979,0.479762 -1.05584,0.71963 -1.72815,0.719604 -0.19195,2.6e-5 -0.23955,0.09597 -0.14282,0.287842 z m -11.44776,0.360352 0,10.656738 c -4e-5,0.383803 0.21529,0.575697 0.646,0.575683 l 11.01709,0 c 0.38374,1.4e-5 0.45551,-0.16771 0.21533,-0.503173 -1.63189,-2.208968 -2.87993,-3.841535 -3.74414,-4.897705 -0.67095,-0.862773 -0.9467,-1.83433 -0.82727,-2.914673 0.11934,-1.080299 0.63533,-1.932471 1.54797,-2.556519 l 0.86353,-0.648193 c 0.0966,-0.09519 0.13288,-0.179052 0.10876,-0.251587 -0.0242,-0.07248 -0.0846,-0.108739 -0.18127,-0.108765 l -9,0 c -0.43071,2.6e-5 -0.64604,0.21609 -0.646,0.648194 z M 149.9006,82.325127 c -1e-5,0.719233 -0.25196,1.34289 -0.75586,1.870971 -0.50391,0.52807 -1.11622,0.792108 -1.83691,0.792115 l -1.15137,0 c -1.05616,-7e-6 -1.94422,-0.359992 -2.66418,-1.079956 -0.71998,-0.719976 -1.07996,-1.608036 -1.07996,-2.664185 l 0,-55.511719 c 0,-1.104438 0.39624,-2.064642 1.18872,-2.880615 0.79248,-0.815862 1.74023,-1.22382 2.84327,-1.223877 l 54.14501,0 c 1.10297,5.7e-5 2.05072,0.408015 2.84327,1.223877 0.79241,0.815973 1.18865,1.776177 1.18872,2.880615 l 0,55.511719 c -7e-5,1.056149 -0.36005,1.944209 -1.07996,2.664185 -0.72003,0.719964 -1.6081,1.079949 -2.66418,1.079956 l -1.15137,0 c -0.72077,-7e-6 -1.33307,-0.264045 -1.83691,-0.792115 -0.50397,-0.528081 -0.75592,-1.151738 -0.75586,-1.870971 -6e-5,-0.240238 -0.14435,-0.360355 -0.43287,-0.360352 l -46.36669,0 c -0.28859,-3e-6 -0.43288,0.120114 -0.43287,0.360352 z m 0,-53.929688 0,46.94458 c -1e-5,0.432132 0.21606,0.648196 0.6482,0.648194 l 45.93603,0 c 0.43207,2e-6 0.64814,-0.216062 0.6482,-0.648194 l 0,-46.94458 c -6e-5,-0.430613 -0.21613,-0.645945 -0.6482,-0.645996 l -45.93603,0 c -0.43214,5.1e-5 -0.64821,0.215383 -0.6482,0.645996 z"
       id="path3792" />
    <path
       d="m 224.42087,45.459404 c -1.43996,1.536653 -3.12013,3.240997 -5.04053,5.113037 -0.81593,0.72073 -1.73988,1.056912 -2.77185,1.008545 -1.03199,-0.04831 -1.93177,-0.456271 -2.69934,-1.223877 -0.72071,-0.720674 -1.05689,-1.609101 -1.00855,-2.665283 0.0483,-1.056121 0.4563,-1.919645 1.22388,-2.590576 6.48046,-5.953086 11.8806,-12.793167 16.20044,-20.520264 0.52732,-0.960883 1.2711,-1.633245 2.23132,-2.01709 0.96018,-0.383733 1.94419,-0.407902 2.95203,-0.07251 0.96091,0.33697 1.63327,0.973444 2.01709,1.909424 0.38376,0.936089 0.33542,1.836234 -0.14502,2.70044 -2.92825,5.616256 -6.40798,10.800333 -10.43921,15.552246 -0.0967,0.09525 -0.10878,0.190831 -0.0362,0.286743 0.0725,0.09598 0.15635,0.143956 0.25158,0.143921 l 36.72071,0 c 0.0952,3.5e-5 0.16693,-0.06002 0.21533,-0.180176 0.0483,-0.120081 0.0483,-0.227747 0,-0.322998 -4.2232,-5.040486 -7.70293,-10.200393 -10.43921,-15.479736 -0.48051,-0.864206 -0.52885,-1.764351 -0.14502,-2.70044 0.38374,-0.93598 1.05611,-1.572454 2.01709,-1.909424 0.95943,-0.383732 1.94307,-0.371647 2.95093,0.03626 1.00776,0.408015 1.7519,1.068293 2.23242,1.980835 4.27143,7.728562 9.69574,14.616251 16.27295,20.663086 0.76751,0.672396 1.16338,1.524568 1.18762,2.556519 0.0241,1.032012 -0.32416,1.908354 -1.0448,2.629028 -0.76764,0.767606 -1.66742,1.163479 -2.69934,1.187622 -1.03205,0.0242 -1.956,-0.324069 -2.77185,-1.0448 -0.72076,-0.672334 -1.80109,-1.728486 -3.24097,-3.168457 -0.19195,-0.09518 -0.3355,-0.02267 -0.43066,0.21753 l 0,2.878418 c -6e-5,6.240256 -0.12018,11.304582 -0.36035,15.192993 -0.24029,3.888436 -0.60028,7.116583 -1.07996,9.684448 -0.47979,2.567872 -1.24774,4.43994 -2.30383,5.616211 -1.05621,1.176266 -2.20831,1.968379 -3.4563,2.376343 -1.2481,0.407953 -2.97588,0.611933 -5.18335,0.611938 -2.30424,-5e-6 -5.08891,-0.09595 -8.354,-0.287842 -0.95951,-0.04834 -1.76335,-0.432499 -2.4115,-1.152465 -0.64823,-0.719974 -0.99576,-1.560428 -1.04261,-2.521363 -0.0484,-0.911133 0.26328,-1.67871 0.93494,-2.302734 0.6716,-0.624022 1.48788,-0.911864 2.44885,-0.863526 3.0234,0.143557 5.49532,0.215334 7.41577,0.215333 1.4399,10e-7 2.53194,-0.480101 3.27613,-1.440308 0.74409,-0.960201 1.33186,-3.144281 1.7633,-6.552246 0.43135,-3.407946 0.64705,-8.51988 0.6471,-15.335816 l 0,-3.383789 c -5e-5,-0.38376 -0.21538,-0.575654 -0.646,-0.575683 l -16.92114,0 c -0.43216,2.9e-5 -0.64823,0.191923 -0.64819,0.575683 -0.71927,7.920431 -2.47086,14.460585 -5.25476,19.620484 -2.78396,5.159915 -6.91226,9.563597 -12.38489,13.211059 -0.91261,0.624018 -1.90871,0.827998 -2.98828,0.611939 -1.0796,-0.21607 -1.95558,-0.75623 -2.62793,-1.620484 -0.62404,-0.81592 -0.85218,-1.7157 -0.68445,-2.69934 0.16771,-0.983643 0.68371,-1.739868 1.54797,-2.268677 4.46483,-2.926754 7.87315,-6.514153 10.22498,-10.762207 2.35178,-4.248031 3.86387,-9.612283 4.53625,-16.092774 -2e-5,-0.38376 -0.19192,-0.575654 -0.57568,-0.575683 l -4.96802,0 c -1.10451,2.9e-5 -2.06471,-0.40793 -2.88061,-1.223877 -0.81594,-0.815887 -1.2239,-1.776091 -1.22388,-2.880615 -2e-5,-0.09665 -0.048,-0.168791 -0.14392,-0.216431 -0.096,-0.04757 -0.16811,-0.02377 -0.21643,0.07141 z"
       id="path3794" />
    <path
       d="m 329.39743,73.8283 0,-13.464843 c -5e-5,-0.383771 -0.21611,-0.575665 -0.64819,-0.575684 l -40.03199,0 c -0.9126,1.9e-5 -1.68091,-0.311993 -2.30493,-0.936035 -0.62402,-0.624003 -0.93604,-1.391947 -0.93603,-2.303833 -1e-5,-0.911842 0.31201,-1.679786 0.93603,-2.303833 0.62402,-0.623999 1.39233,-0.93601 2.30493,-0.936035 l 40.03199,0 c 0.43208,2.5e-5 0.64814,-0.191869 0.64819,-0.575684 l 0,-5.471191 c -5e-5,-0.383758 -0.21611,-0.575652 -0.64819,-0.575684 l -40.03199,0 c -0.9126,3.2e-5 -1.68091,-0.324064 -2.30493,-0.97229 -0.62402,-0.64816 -0.93604,-1.428188 -0.93603,-2.340088 -1e-5,-0.911829 0.31201,-1.668054 0.93603,-2.268676 0.62402,-0.600548 1.39233,-0.900841 2.30493,-0.900879 l 24.1919,0 c 0.4321,3.8e-5 0.64816,-0.215294 0.64819,-0.645996 l 0,-6.697266 c -3e-5,-0.383743 -0.21609,-0.575637 -0.64819,-0.575684 l -19.08106,0 c -0.8628,4.7e-5 -1.59449,-0.311965 -2.19506,-0.936035 -0.6006,-0.623976 -0.90089,-1.368115 -0.90088,-2.232422 -10e-6,-0.864207 0.30028,-1.608347 0.90088,-2.232422 0.60057,-0.623971 1.33226,-0.935982 2.19506,-0.936035 l 19.08106,0 c 0.4321,5.3e-5 0.64816,-0.191842 0.64819,-0.575683 l 0,-2.663086 c -3e-5,-1.104436 0.39584,-2.04047 1.18762,-2.808106 0.79172,-0.767519 1.71567,-1.151307 2.77186,-1.151367 1.05611,6e-5 1.98006,0.383848 2.77185,1.151367 0.7917,0.767636 1.18758,1.70367 1.18762,2.808106 l 0,2.663086 c -4e-5,0.383841 0.21602,0.575736 0.64819,0.575683 l 19.08106,0 c 0.86273,5.3e-5 1.59442,0.312064 2.19506,0.936035 0.60053,0.624075 0.90082,1.368215 0.90088,2.232422 -6e-5,0.864307 -0.30035,1.608446 -0.90088,2.232422 -0.60064,0.62407 -1.33233,0.936082 -2.19506,0.936035 l -19.08106,0 c -0.43217,4.7e-5 -0.64823,0.191941 -0.64819,0.575684 l 0,6.697266 c -4e-5,0.430702 0.21602,0.646034 0.64819,0.645996 l 24.1919,0 c 0.91253,3.8e-5 1.68084,0.300331 2.30493,0.900879 0.62395,0.600622 0.93596,1.356847 0.93603,2.268676 -7e-5,0.9119 -0.31208,1.691928 -0.93603,2.340088 -0.62409,0.648226 -1.3924,0.972322 -2.30493,0.97229 l -8.35181,0 c -0.43219,3.2e-5 -0.64825,0.191926 -0.64819,0.575684 l 0,5.471191 c -6e-5,0.383815 0.216,0.575709 0.64819,0.575684 l 8.35181,0 c 0.91253,2.5e-5 1.68084,0.312036 2.30493,0.936035 0.62395,0.624047 0.93596,1.391991 0.93603,2.303833 -7e-5,0.911886 -0.31208,1.67983 -0.93603,2.303833 -0.62409,0.624042 -1.3924,0.936054 -2.30493,0.936035 l -8.35181,0 c -0.43219,1.9e-5 -0.64825,0.191913 -0.64819,0.575684 l 0,13.249511 c -6e-5,1.823734 -0.0359,3.251589 -0.10767,4.28357 -0.0718,1.031982 -0.25164,1.99182 -0.53943,2.879516 -0.2879,0.887693 -0.64788,1.535519 -1.07996,1.943482 -0.43218,0.407954 -1.11626,0.75622 -2.05224,1.0448 -0.93609,0.288568 -1.93218,0.468744 -2.98828,0.540527 -1.0562,0.07177 -2.52031,0.10766 -4.39234,0.107666 -1.92045,-6e-6 -5.064,-0.07178 -9.43066,-0.215332 -0.91263,-0.04835 -1.69303,-0.396612 -2.34119,-1.0448 -0.64822,-0.648197 -0.99649,-1.42786 -1.0448,-2.338989 -0.0469,-0.864259 0.24167,-1.608399 0.86573,-2.232422 0.62399,-0.624023 1.36739,-0.911864 2.23022,-0.863525 3.98434,0.143555 6.79244,0.215332 8.42432,0.215332 2.20894,0 3.51741,-0.180175 3.92541,-0.540528 0.40791,-0.36035 0.61189,-1.548337 0.61194,-3.563965 z m -32.32837,-9.360351 c 0.62401,-0.767563 1.43993,-1.199326 2.44776,-1.295288 1.00779,-0.09593 1.89548,0.143936 2.66308,0.719604 2.73631,2.015638 5.6887,4.415782 8.85718,7.20044 0.71921,0.62403 1.11508,1.416143 1.18762,2.376343 0.0725,0.960209 -0.20328,1.824099 -0.82727,2.591674 -0.62405,0.71924 -1.40408,1.115114 -2.34009,1.187622 -0.93606,0.07251 -1.76443,-0.203245 -2.4851,-0.82727 -3.2637,-2.879878 -6.23953,-5.304192 -8.9275,-7.272949 -0.76759,-0.575674 -1.21144,-1.319448 -1.33154,-2.231324 -0.12013,-0.911852 0.13182,-1.728136 0.75586,-2.448852 z"
       id="path3796" />
    <path
       d="m 383.96432,60.653496 15.55225,0 c 0.38377,1.8e-5 0.57566,-0.192609 0.57568,-0.577881 l 0,-22.607666 c -2e-5,-0.0483 -0.0242,-0.07247 -0.0725,-0.07251 -0.0967,4.1e-5 -0.14504,0.02421 -0.14501,0.07251 l -15.91041,22.968017 c 0,0.04836 -0.0121,0.07253 -0.0362,0.07251 -0.0242,1.8e-5 -0.0363,0.02419 -0.0362,0.07251 -10e-6,0.04836 0.0242,0.07253 0.0725,0.07251 z m 16.12793,13.968017 0,-7.057617 c -2e-5,-0.383778 -0.19191,-0.575672 -0.57568,-0.575683 l -20.37744,0 c -0.86426,1.1e-5 -1.60804,-0.312 -2.23132,-0.936036 -0.6233,-0.62401 -0.93494,-1.36815 -0.93494,-2.232421 0,-2.110823 0.59985,-4.030499 1.79956,-5.759034 l 20.0874,-28.94458 c 1.43992,-2.112253 3.47971,-3.168404 6.11939,-3.168457 1.05612,5.3e-5 1.96835,0.384208 2.73669,1.152466 0.76828,0.768361 1.15243,1.680592 1.15247,2.736694 l 0,30.23877 c -4e-5,0.385272 0.19186,0.577899 0.57568,0.577881 l 4.68018,0 c 0.86422,1.8e-5 1.60836,0.312029 2.23242,0.936035 0.62398,0.62404 0.93599,1.367813 0.93603,2.231323 -4e-5,0.863539 -0.31205,1.607313 -0.93603,2.231323 -0.62406,0.624036 -1.3682,0.936047 -2.23242,0.936036 l -4.68018,0 c -0.38382,1.1e-5 -0.57572,0.191905 -0.57568,0.575683 l 0,7.057617 c -4e-5,1.054691 -0.38419,1.966189 -1.15247,2.734497 -0.76834,0.768311 -1.68057,1.152466 -2.73669,1.152466 -1.05618,0 -1.96805,-0.384155 -2.7356,-1.152466 -0.7676,-0.768308 -1.15139,-1.679806 -1.15137,-2.734497 z"
       id="path3798" />
  </g>
  <path
     d="m 166.17355,185.54901 0,-21.81665 c -3e-5,-1.10444 0.39585,-2.06464 1.18763,-2.88061 0.79171,-0.81587 1.73983,-1.22382 2.84436,-1.22388 l 31.46264,0 c 1.10443,6e-5 2.06463,0.40801 2.88062,1.22388 0.81585,0.81597 1.22381,1.77617 1.22387,2.88061 l 0,48.4563 c -6e-5,4.80029 -0.40802,7.74023 -1.22387,8.81982 -0.81599,1.07959 -2.9759,1.61938 -6.47974,1.61939 -0.24029,-1e-5 -1.41656,-0.0476 -3.52881,-0.14282 -0.95953,-0.0967 -1.75127,-0.46913 -2.37524,-1.11731 -0.62408,-0.6482 -0.96026,-1.42786 -1.00855,-2.33899 -0.0484,-0.86426 0.22773,-1.58423 0.82837,-2.15991 0.60053,-0.57569 1.33222,-0.84009 2.19507,-0.79322 0.62397,0.0483 1.27216,0.0725 1.94458,0.0725 1.10443,0 1.75263,-0.16809 1.94458,-0.50427 0.19184,-0.33618 0.28778,-1.44031 0.28784,-3.31238 l 0,-45.79101 c -6e-5,-0.38374 -0.19195,-0.57564 -0.57568,-0.57569 l -7.6333,0 c -0.43218,5e-5 -0.64825,0.19195 -0.64819,0.57569 l 0,4.03198 c -6e-5,0.38383 0.21601,0.57573 0.64819,0.57568 l 2.73779,0 c 0.76752,5e-5 1.42744,0.27617 1.97974,0.82837 0.55219,0.55229 0.82831,1.2122 0.82837,1.97974 -6e-5,0.76762 -0.27618,1.42753 -0.82837,1.97973 -0.5523,0.55229 -1.21222,0.82841 -1.97974,0.82837 l -2.73779,0 c -0.43218,4e-5 -0.64825,0.19194 -0.64819,0.57569 l 0,5.04052 c -6e-5,0.43217 0.21601,0.64823 0.64819,0.6482 l 3.52881,0 c 0.76752,3e-5 1.43951,0.27615 2.01599,0.82837 0.57636,0.55227 0.86456,1.23636 0.86462,2.05224 -6e-5,0.81595 -0.28826,1.49967 -0.86462,2.05115 -0.57648,0.55154 -1.24847,0.8273 -2.01599,0.82727 l -15.47974,0 c -0.81596,3e-5 -1.50004,-0.27573 -2.05225,-0.82727 -0.55228,-0.55148 -0.8284,-1.2352 -0.82836,-2.05115 -4e-5,-0.81588 0.27608,-1.49997 0.82836,-2.05224 0.55221,-0.55222 1.23629,-0.82834 2.05225,-0.82837 l 3.52881,0 c 0.38374,3e-5 0.57564,-0.21603 0.57568,-0.6482 l 0,-5.04052 c -4e-5,-0.38375 -0.19194,-0.57565 -0.57568,-0.57569 l -2.73779,0 c -0.76762,4e-5 -1.41545,-0.27608 -1.94348,-0.82837 -0.52812,-0.5522 -0.79216,-1.21211 -0.79212,-1.97973 -4e-5,-0.76754 0.264,-1.42745 0.79212,-1.97974 0.52803,-0.5522 1.17586,-0.82832 1.94348,-0.82837 l 2.73779,0 c 0.38374,5e-5 0.57564,-0.19185 0.57568,-0.57568 l 0,-4.03198 c -4e-5,-0.38374 -0.19194,-0.57564 -0.57568,-0.57569 l -7.6333,0 c -0.38383,5e-5 -0.57572,0.19195 -0.57568,0.57569 l 0,22.75268 c -4e-5,13.05617 -0.98368,23.0398 -2.95093,29.95093 -0.28861,0.96093 -0.90091,1.56115 -1.83692,1.80066 -0.93606,0.2395 -1.78787,0.0472 -2.55542,-0.57678 l -2.66528,-2.15992 c -0.0484,-0.0483 -0.0963,-0.0604 -0.14392,-0.0362 -0.0476,0.0242 -0.0714,0.0604 -0.0714,0.10876 -3e-5,0.57569 -0.20401,1.06751 -0.61194,1.47547 -0.40798,0.40795 -0.8998,0.61193 -1.47546,0.61194 l -11.59278,0 c -0.28858,-1e-5 -0.43287,0.12011 -0.43286,0.36035 -1e-5,0.67236 -0.23988,1.26049 -0.7196,1.7644 -0.47975,0.5039 -1.0558,0.75585 -1.72815,0.75586 l -0.93604,0 c -0.91114,-1e-5 -1.70289,-0.3241 -2.37524,-0.97229 -0.67237,-0.6482 -1.00855,-1.45203 -1.00855,-2.4115 l 0,-14.11303 c 0,-1.10302 0.39624,-2.06249 1.18872,-2.87842 0.79248,-0.81591 1.74023,-1.22386 2.84327,-1.22388 l 12.74414,0 c 1.10447,2e-5 2.06467,0.40797 2.88061,1.22388 0.81589,0.81593 1.22385,1.7754 1.22388,2.87842 l 0,9.50537 c -3e-5,0.0469 0.0238,0.0703 0.0714,0.0703 0.0476,0 0.0714,-0.0234 0.0714,-0.0703 1.00925,-3.55224 1.71787,-7.48828 2.12585,-11.80811 0.40794,-4.31981 0.61191,-10.3198 0.61194,-18 z m -9.36035,28.22388 0,-5.32837 c -2e-5,-0.38378 -0.21608,-0.57568 -0.64819,-0.57568 l -6.33692,0 c -0.43214,0 -0.6482,0.1919 -0.64819,0.57568 l 0,5.32837 c -1e-5,0.38379 0.21605,0.57568 0.64819,0.57568 l 6.33692,0 c 0.43211,0 0.64817,-0.19189 0.64819,-0.57568 z m 34.41577,-0.50537 -7.70361,0 c -0.33696,0 -0.50542,0.16846 -0.50537,0.50537 -5e-5,0.86426 -0.29997,1.59631 -0.89978,2.19617 -0.5999,0.59985 -1.33195,0.89978 -2.19617,0.89978 l -0.35815,0 c -0.96098,0 -1.78935,-0.3479 -2.48511,-1.04371 -0.69584,-0.6958 -1.04374,-1.52416 -1.0437,-2.4851 l 0,-16.48828 c -4e-5,-1.10301 0.40792,-2.06248 1.22388,-2.87842 0.81587,-0.8159 1.77608,-1.22386 2.88061,-1.22388 l 11.0874,0 c 1.10444,2e-5 2.05256,0.40798 2.84436,1.22388 0.79169,0.81594 1.18757,1.77541 1.18763,2.87842 l 0,12.31347 c -6e-5,1.10304 -0.39594,2.06251 -1.18763,2.87842 -0.7918,0.81592 -1.73992,1.22388 -2.84436,1.22388 z m -8.20898,-14.18335 0,7.99145 c -5e-5,0.43214 0.21602,0.6482 0.64819,0.6482 l 4.39234,0 c 0.38373,0 0.57563,-0.21606 0.57568,-0.6482 l 0,-7.99145 c -5e-5,-0.38377 -0.19195,-0.57567 -0.57568,-0.57569 l -4.39234,0 c -0.43217,2e-5 -0.64824,0.19192 -0.64819,0.57569 z M 143.311,165.74945 c -0.59912,-0.62397 -0.89868,-1.36811 -0.89868,-2.23242 0,-0.86421 0.29992,-1.60835 0.89978,-2.23242 0.59985,-0.62397 1.33191,-0.93598 2.19617,-0.93604 l 14.40088,0 c 0.86423,6e-5 1.60837,0.31207 2.23242,0.93604 0.624,0.62407 0.93601,1.36821 0.93604,2.23242 -3e-5,0.86431 -0.31204,1.60845 -0.93604,2.23242 -0.62405,0.62407 -1.36819,0.93609 -2.23242,0.93604 l -14.40088,0 c -0.86426,5e-5 -1.59669,-0.31197 -2.19727,-0.93604 z m 20.0896,5.79639 c 0.60056,0.6475 0.90086,1.42716 0.90088,2.33899 -2e-5,0.9119 -0.30032,1.66776 -0.90088,2.26757 -0.60061,0.5999 -1.35647,0.89982 -2.26757,0.89979 l -17.13648,0 c -0.91114,3e-5 -1.67871,-0.29989 -2.30273,-0.89979 -0.62403,-0.59981 -0.93604,-1.35567 -0.93604,-2.26757 0,-0.91183 0.31201,-1.69185 0.93604,-2.34009 0.62402,-0.64815 1.39159,-0.97225 2.30273,-0.97229 l 17.13648,0 c 0.9111,4e-5 1.66696,0.32451 2.26757,0.97339 z m -1.4414,10.58423 c 0.60056,0.59915 0.90085,1.30667 0.90088,2.12255 -3e-5,0.81595 -0.29995,1.53592 -0.89978,2.15992 -0.59988,0.62405 -1.30777,0.93606 -2.12366,0.93603 l -13.823,0 c -0.81592,3e-5 -1.53589,-0.31198 -2.15991,-0.93603 -0.62403,-0.624 -0.93604,-1.34397 -0.93604,-2.15992 0,-0.81588 0.31201,-1.52377 0.93604,-2.12365 0.62402,-0.59982 1.34399,-0.89975 2.15991,-0.89978 l 13.823,0 c 0.81589,3e-5 1.52341,0.30032 2.12256,0.90088 z m -18.10547,14.57885 c -0.62403,-0.624 -0.93604,-1.34397 -0.93604,-2.15991 0,-0.81589 0.31201,-1.53586 0.93604,-2.15991 0.62402,-0.624 1.34399,-0.93601 2.15991,-0.93604 l 13.823,0 c 0.81589,3e-5 1.52378,0.31204 2.12366,0.93604 0.59983,0.62405 0.89975,1.34402 0.89978,2.15991 -3e-5,0.81594 -0.29995,1.53591 -0.89978,2.15991 -0.59988,0.62405 -1.30777,0.93606 -2.12366,0.93604 l -13.823,0 c -0.81592,2e-5 -1.53589,-0.31199 -2.15991,-0.93604 z"
     id="path3820"
     style="font-size:72px;font-style:normal;font-weight:normal;text-align:center;text-anchor:middle;fill:#ffffff;fill-opacity:1;stroke:none;font-family:'Rounded M+ 1p medium';-inkscape-font-specification:'Rounded M+ 1p medium'" />
  <path
     d="m 296.42087,195.98822 c -2.11232,2.54445 -4.20045,4.7527 -6.26441,6.62476 -0.76758,0.67237 -1.64356,0.93641 -2.62793,0.79211 -0.98438,-0.14427 -1.74023,-0.64855 -2.26757,-1.51282 -0.57569,-0.95945 -0.76759,-1.97935 -0.57569,-3.05969 0.19189,-1.0803 0.6958,-1.98008 1.51172,-2.69934 7.68016,-6.76902 13.46409,-14.80954 17.35181,-24.12158 0.0967,-0.33541 -0.0476,-0.50313 -0.43286,-0.50318 l -13.96802,0 c -0.95948,5e-5 -1.75123,-0.32405 -2.37525,-0.97229 -0.62402,-0.64814 -0.93603,-1.42817 -0.93603,-2.34008 0,-0.91182 0.31201,-1.69185 0.93603,-2.34009 0.62402,-0.64814 1.41577,-0.97224 2.37525,-0.97229 l 16.34546,0 c 0.38376,5e-5 0.62326,-0.19184 0.7185,-0.57569 0.24021,-0.81586 0.60056,-2.08808 1.08106,-3.81665 0.28855,-1.10297 0.87668,-1.97858 1.7644,-2.62683 0.88767,-0.64813 1.88376,-0.94806 2.98828,-0.89978 1.05612,0.0953 1.89585,0.53912 2.51917,1.33155 0.62326,0.79253 0.81552,1.69268 0.57678,2.70044 l -0.86572,3.23876 c -0.0952,0.43219 0.049,0.64825 0.43286,0.6482 l 31.177,0 c 0.95941,5e-5 1.75116,0.32415 2.37525,0.97229 0.62395,0.64824 0.93596,1.42827 0.93603,2.34009 -7e-5,0.91191 -0.31208,1.69194 -0.93603,2.34008 -0.62409,0.64824 -1.41584,0.97234 -2.37525,0.97229 l -33.40942,0 c -0.33548,5e-5 -0.59915,0.21611 -0.79102,0.6482 -1.48831,3.83939 -3.50466,7.89554 -6.04907,12.16845 -0.0469,0.0952 -0.0344,0.20292 0.0374,0.323 0.0718,0.12015 0.17942,0.18021 0.323,0.18018 l 10.51172,0 c 0.43209,3e-5 0.64816,-0.19186 0.64819,-0.57569 l 0,-4.75268 c -3e-5,-1.05612 0.37204,-1.96798 1.11621,-2.7356 0.74411,-0.76753 1.66842,-1.15132 2.77295,-1.15136 1.05612,4e-5 1.95589,0.37211 2.69934,1.11621 0.74337,0.74418 1.11507,1.66776 1.11512,2.77075 l 0,4.75268 c -5e-5,0.38383 0.21602,0.57572 0.64819,0.57569 l 17.28149,0 c 1.10297,3e-5 2.06244,0.40799 2.87842,1.22388 0.81586,0.81594 1.22381,1.77615 1.22388,2.88061 l 0,21.23877 c -7e-5,3.93604 -0.4798,6.33618 -1.43921,7.20044 -0.95954,0.86426 -3.55157,1.29638 -7.77612,1.29639 -1.53668,-1e-5 -3.0484,-0.0476 -4.53516,-0.14283 -0.91265,-0.0483 -1.70476,-0.40869 -2.37634,-1.08105 -0.67168,-0.67236 -1.03167,-1.48828 -1.07996,-2.44775 -0.0484,-0.9126 0.25154,-1.66882 0.89978,-2.26868 0.64815,-0.59985 1.42781,-0.87561 2.33899,-0.82727 2.20893,0.0952 3.36103,0.14282 3.4563,0.14282 1.43989,0 2.27997,-0.0839 2.52026,-0.25159 0.24018,-0.16772 0.3603,-0.75548 0.36036,-1.7633 l 0,-18.14502 c -6e-5,-0.38377 -0.19196,-0.57566 -0.57569,-0.57569 l -13.177,0 c -0.43217,3e-5 -0.64824,0.19192 -0.64819,0.57569 l 0,27.93603 c -5e-5,1.10449 -0.37175,2.02881 -1.11512,2.77295 -0.74345,0.74414 -1.64322,1.11621 -2.69934,1.11621 -1.10453,0 -2.02884,-0.38416 -2.77295,-1.15246 -0.74417,-0.76832 -1.11624,-1.68055 -1.11621,-2.7367 l 0,-27.93603 c -3e-5,-0.38377 -0.2161,-0.57566 -0.64819,-0.57569 l -11.66309,0 c -0.43215,3e-5 -0.64821,0.19192 -0.64819,0.57569 l 0,23.97656 c -2e-5,1.00781 -0.36001,1.8717 -1.07996,2.59168 -0.71999,0.71996 -1.58388,1.07995 -2.59167,1.07995 -1.00783,0 -1.88381,-0.35999 -2.62793,-1.07995 -0.74416,-0.71998 -1.11623,-1.58387 -1.11621,-2.59168 l 0,-19.72705 c -2e-5,-0.0967 -0.048,-0.1688 -0.14392,-0.21643 -0.096,-0.0476 -0.16811,-0.0238 -0.21643,0.0714 z"
     id="path3822"
     style="font-size:72px;font-style:normal;font-weight:normal;text-align:center;text-anchor:middle;fill:#ffffff;fill-opacity:1;stroke:none;font-family:'Rounded M+ 1p medium';-inkscape-font-specification:'Rounded M+ 1p medium'" />
  <path
     d="m 68.96821,198.86884 c -4e-5,6.04835 -1.70402,10.62049 -5.11194,13.71643 -3.40799,3.09594 -8.42398,4.64392 -15.04797,4.64392 -3.88772,0 -7.41579,-0.62403 -10.58423,-1.87207 -0.91114,-0.33692 -1.57069,-0.94922 -1.97864,-1.83692 -0.40797,-0.88769 -0.49256,-1.81127 -0.25378,-2.77075 0.24022,-0.81591 0.7683,-1.40404 1.58422,-1.7644 0.81591,-0.36035 1.63256,-0.3728 2.44996,-0.0374 3.02342,1.20118 5.95091,1.80177 8.78247,1.80176 8.16061,10e-6 12.24093,-3.96019 12.24096,-11.88061 -3e-5,-3.312 -0.80423,-5.80809 -2.4126,-7.48829 -1.60842,-1.68014 -3.92434,-2.52023 -6.94775,-2.52026 -2.20754,3e-5 -4.17555,0.43216 -5.90405,1.29639 -2.59279,1.24807 -4.65675,1.87209 -6.1919,1.87207 -0.95948,2e-5 -1.75123,-0.32407 -2.37524,-0.97229 -0.62403,-0.64817 -0.91261,-1.452 -0.86572,-2.4115 l 1.08105,-20.59277 c 0.0483,-1.15132 0.49255,-2.12325 1.33264,-2.91578 0.84008,-0.79242 1.83581,-1.18866 2.98719,-1.18872 l 21.81665,0 c 0.91109,6e-5 1.67867,0.31207 2.30273,0.93604 0.62399,0.62407 0.936,1.39238 0.93604,2.30493 -4e-5,0.91265 -0.31205,1.68059 -0.93604,2.30383 -0.62406,0.62334 -1.39164,0.93499 -2.30273,0.93494 l -18.14502,0 c -0.38381,5e-5 -0.5757,0.19267 -0.57569,0.57788 l -0.7207,13.75049 c -2e-5,0.0484 0.0242,0.0725 0.0725,0.0725 -2e-5,3e-5 0.0242,-0.0121 0.0725,-0.0363 0.0483,-0.0241 0.0959,-0.0362 0.14282,-0.0362 2.6411,-1.39157 5.54515,-2.08737 8.71216,-2.0874 4.99216,3e-5 8.88022,1.41617 11.66418,4.24841 2.7839,2.8323 4.17587,6.81631 4.17591,11.95203 z"
     id="path3824"
     style="font-size:72px;font-style:normal;font-weight:normal;text-align:center;text-anchor:middle;fill:#ffffff;fill-opacity:1;stroke:none;font-family:'Rounded M+ 1p medium';-inkscape-font-specification:'Rounded M+ 1p medium'" />
  <g
     id="text3650-5"
     style="font-size:72px;font-style:normal;font-weight:normal;text-align:center;text-anchor:middle;fill:#ffffff;fill-opacity:1;stroke:none;font-family:'Rounded M+ 1p medium';-inkscape-font-specification:'Rounded M+ 1p medium'">
    <path
       d="m 204.5488,354.63641 c 0.67229,0.67237 1.00847,1.48865 1.00854,2.44886 -7e-5,0.9602 -0.32416,1.76403 -0.97229,2.4115 -0.64826,0.64745 -1.45209,0.97118 -2.4115,0.97119 l -57.31347,0 c -0.95948,-1e-5 -1.76331,-0.32374 -2.4115,-0.97119 -0.6482,-0.64747 -0.9723,-1.4513 -0.97229,-2.4115 -1e-5,-0.96021 0.33618,-1.77649 1.00854,-2.44886 0.67236,-0.67236 1.46411,-1.00854 2.37525,-1.00854 l 30.67383,0 c 0.47896,0 0.79024,-0.19189 0.93383,-0.57568 4.60836,-9.40722 8.32906,-20.42283 11.16211,-33.04688 0.23872,-1.10445 0.8144,-1.94454 1.72705,-2.52026 0.91255,-0.57565 1.89619,-0.76754 2.95093,-0.57569 1.10444,0.23881 1.95661,0.81449 2.55652,1.72705 0.59979,0.91264 0.7796,1.89701 0.53943,2.95313 -2.54303,11.42287 -6.09454,21.93458 -10.65454,31.53515 -0.0484,0.0952 -0.0246,0.20289 0.0714,0.323 0.0959,0.12012 0.21565,0.18018 0.35925,0.18018 l 16.99365,0 c 0.91107,0 1.70282,0.33618 2.37525,1.00854 z m -1.40406,-47.73559 c 0.6474,0.62407 0.97113,1.41618 0.9712,2.37634 -7e-5,0.96025 -0.3238,1.75237 -0.9712,2.37634 -0.64752,0.62407 -1.42755,0.93608 -2.34008,0.93604 l -54.57569,0 c -0.9126,4e-5 -1.69263,-0.31197 -2.34008,-0.93604 -0.64747,-0.62397 -0.9712,-1.41609 -0.9712,-2.37634 0,-0.96016 0.32373,-1.75227 0.9712,-2.37634 0.64745,-0.62398 1.42748,-0.93599 2.34008,-0.93604 l 22.68018,0 c 0.4321,5e-5 0.64816,-0.21601 0.64819,-0.64819 l 0,-4.10449 c -3e-5,-1.0561 0.38376,-1.96796 1.15137,-2.7356 0.76754,-0.76752 1.70358,-1.15131 2.80811,-1.15137 1.10445,6e-5 2.04048,0.38385 2.8081,1.15137 0.76754,0.76764 1.15133,1.6795 1.15137,2.7356 l 0,4.10449 c -4e-5,0.43218 0.21602,0.64824 0.64819,0.64819 l 22.68018,0 c 0.91253,5e-5 1.69256,0.31206 2.34008,0.93604 z m -44.24414,39.16845 c -1.4883,-7.15281 -3.45631,-15.14499 -5.90405,-23.97656 -0.28712,-1.00777 -0.16701,-1.99178 0.36035,-2.95202 0.52733,-0.96017 1.29564,-1.56039 2.30493,-1.80066 1.05467,-0.2402 2.06212,-0.0963 3.02234,0.43176 0.96019,0.52811 1.58458,1.32023 1.87317,2.37634 1.91892,6.76761 3.88694,14.92751 5.90406,24.47974 0.19186,1.05616 -4e-4,2.00428 -0.57679,2.84436 -0.57644,0.8401 -1.39236,1.35609 -2.44775,1.54797 -1.05545,0.1919 -2.02737,0.0121 -2.91577,-0.53943 -0.88845,-0.5515 -1.42861,-1.35533 -1.62049,-2.4115 z"
       id="path3838" />
    <path
       d="m 346.89206,304.23553 0,53.06397 c -7e-5,1.10449 -0.38385,2.02881 -1.15137,2.77295 -0.76764,0.74414 -1.6795,1.1162 -2.73559,1.11621 -1.05622,-1e-5 -1.96845,-0.37207 -2.7367,-1.11621 -0.76837,-0.74414 -1.15252,-1.66846 -1.15246,-2.77295 l 0,-53.06397 c -6e-5,-1.05463 0.38409,-1.96613 1.15246,-2.73449 0.76825,-0.76826 1.68048,-1.15241 2.7367,-1.15247 1.05609,6e-5 1.96795,0.38421 2.73559,1.15247 0.76752,0.76836 1.1513,1.67986 1.15137,2.73449 z m -23.97437,1.72925 0,45.36035 c -4e-5,1.05616 -0.37211,1.94422 -1.11621,2.66419 -0.74418,0.71997 -1.64432,1.07996 -2.70044,1.07995 -1.05619,10e-6 -1.94425,-0.35998 -2.66418,-1.07995 -0.72001,-0.71997 -1.07999,-1.60803 -1.07996,-2.66419 l 0,-45.36035 c -3e-5,-1.0561 0.35995,-1.95624 1.07996,-2.70044 0.71993,-0.74408 1.60799,-1.11615 2.66418,-1.11621 1.05612,6e-5 1.95626,0.37213 2.70044,1.11621 0.7441,0.7442 1.11617,1.64434 1.11621,2.70044 z m -22.53735,22.10449 c -2e-5,7.15139 -0.62404,13.15102 -1.87207,17.99891 -1.24806,4.8479 -3.28786,9.19226 -6.11938,13.03308 -0.62404,0.81591 -1.46413,1.30773 -2.52027,1.47546 -1.05616,0.16772 -2.01636,-0.0363 -2.88061,-0.61194 -0.81593,-0.52881 -1.29566,-1.29712 -1.43921,-2.30493 -0.14356,-1.00781 0.0725,-1.89551 0.64819,-2.66308 2.49609,-3.55225 4.23595,-7.51245 5.21961,-11.88062 0.98363,-4.36815 1.47545,-10.27219 1.47546,-17.71216 l 0,-21.31128 c -1e-5,-1.0561 0.35997,-1.94416 1.07996,-2.66418 0.71995,-0.71992 1.60801,-1.0799 2.66418,-1.07996 1.05614,6e-5 1.9442,0.36004 2.66418,1.07996 0.71996,0.72002 1.07994,1.60808 1.07996,2.66418 z"
       id="path3840" />
    <path
       d="m 388.06882,352.69183 c 5.13572,-15.26365 11.63962,-29.27926 19.51172,-42.04687 -4e-5,-0.0483 0.0117,-0.0725 0.0351,-0.0725 0.0234,4e-5 0.0351,-0.0241 0.0352,-0.0725 -3e-5,-0.0483 -0.0235,-0.0725 -0.0703,-0.0725 l -23.68872,0 c -0.91261,5e-5 -1.68092,-0.3116 -2.30494,-0.93494 -0.62403,-0.62324 -0.93604,-1.39118 -0.93603,-2.30383 -10e-6,-0.91255 0.312,-1.68086 0.93603,-2.30493 0.62402,-0.62397 1.39233,-0.93598 2.30494,-0.93604 l 28.08105,0 c 0.91109,6e-5 1.67867,0.31207 2.30273,0.93604 0.62399,0.62407 0.936,1.39238 0.93604,2.30493 -4e-5,2.15923 -0.55229,4.15141 -1.65674,5.97656 -6.91116,11.7598 -12.67092,24.91189 -17.2793,39.4563 -0.38381,1.15137 -1.06789,2.08704 -2.05224,2.80701 -0.9844,0.71997 -2.07644,1.07995 -3.27612,1.07995 l -0.0725,0 c -1.00783,0 -1.81166,-0.40795 -2.4115,-1.22387 -0.59987,-0.81592 -0.73134,-1.68018 -0.39441,-2.59278 z"
       id="path3842" />
  </g>
  <g
     id="text3724"
     style="font-size:40px;font-style:normal;font-weight:normal;text-align:center;text-anchor:middle;fill:#ffffff;fill-opacity:1;stroke:#ffffff;stroke-width:1;stroke-miterlimit:4;stroke-opacity:1;font-family:IPAGothic;-inkscape-font-specification:IPAGothic">
    <path
       d="m 177.05447,123.34361 -4.55078,0 -10.83984,-14.27734 -3.16406,3.06641 0,11.21093 -3.51563,0 0,-28.574216 3.51563,0 0,13.652346 12.67578,-13.652346 4.72656,0 -11.97266,12.128906 z"
       id="path3801"
       style="fill:#ffffff;stroke:#ffffff;font-family:IPAPGothic;-inkscape-font-specification:IPAPGothic" />
    <path
       d="m 189.02713,102.85533 c 2.81249,2e-5 5.18227,0.94403 7.10938,2.83203 1.97914,1.97919 2.96872,4.58335 2.96875,7.8125 -3e-5,3.11199 -0.97008,5.64454 -2.91016,7.59766 -1.90106,1.88802 -4.29038,2.83203 -7.16797,2.83203 -2.87761,0 -5.2474,-0.93099 -7.10937,-2.79297 -1.95313,-1.95312 -2.92969,-4.53775 -2.92969,-7.7539 0,-3.15103 0.98958,-5.71613 2.96875,-7.69532 1.88801,-1.888 4.24478,-2.83201 7.07031,-2.83203 z m 0,2.63672 c -1.66668,2e-5 -3.07944,0.59898 -4.23828,1.79688 -1.47136,1.47136 -2.20704,3.51563 -2.20703,6.13281 -1e-5,2.57813 0.72265,4.58985 2.16797,6.03515 1.17186,1.17188 2.59764,1.75782 4.27734,1.75782 1.71874,0 3.15754,-0.59896 4.31641,-1.79688 1.44529,-1.44531 2.16795,-3.48957 2.16797,-6.13281 -2e-5,-2.48697 -0.7357,-4.48566 -2.20704,-5.99609 -1.19793,-1.1979 -2.62371,-1.79686 -4.27734,-1.79688 z"
       id="path3803"
       style="fill:#ffffff;stroke:#ffffff;font-family:IPAPGothic;-inkscape-font-specification:IPAPGothic" />
    <path
       d="m 221.44901,123.34361 -4.16016,0 -6.83594,-9.6875 -2.28515,2.20703 0,7.48047 -3.35938,0 0,-29.57031 3.35938,0 0,18.92578 8.39843,-9.27734 4.31641,0 -8.28125,8.28125 z"
       id="path3805"
       style="fill:#ffffff;stroke:#ffffff;font-family:IPAPGothic;-inkscape-font-specification:IPAPGothic" />
    <path
       d="m 242.40604,123.34361 -3.20313,0 0,-3.63281 c -1.96616,2.68229 -4.35548,4.02344 -7.16797,4.02344 -2.30469,0 -4.10157,-0.78125 -5.39062,-2.34375 -1.01563,-1.26302 -1.52344,-3.0664 -1.52344,-5.41016 l 0,-12.55859 3.4375,0 0,12.4414 c -1e-5,3.3073 1.38671,4.96094 4.16016,4.96094 2.79946,0 4.88279,-1.71874 6.25,-5.15625 l 0,-12.24609 3.4375,0 z"
       id="path3807"
       style="fill:#ffffff;stroke:#ffffff;font-family:IPAPGothic;-inkscape-font-specification:IPAPGothic" />
    <path
       d="m 253.05057,106.66393 c 1.77082,-2.53905 4.04947,-3.80858 6.83594,-3.8086 2.36977,2e-5 4.39451,0.83987 6.07421,2.51953 1.95311,1.95314 2.92967,4.64845 2.92969,8.08594 -2e-5,3.35938 -0.97658,6.00912 -2.92969,7.94922 -1.6797,1.67969 -3.73048,2.51953 -6.15234,2.51953 -2.69532,0 -5.02605,-1.13932 -6.99219,-3.41797 l -0.48828,2.94922 -2.67578,0 0,-29.6875 3.39844,0 z m 0,4.58984 0,4.64844 c -1e-5,1.52344 0.83983,2.88412 2.51953,4.08203 1.14582,0.82031 2.37629,1.23047 3.69141,1.23047 1.53644,0 2.83852,-0.53385 3.90625,-1.60157 1.41925,-1.45832 2.12888,-3.48306 2.1289,-6.07421 -2e-5,-2.34374 -0.58595,-4.26431 -1.75781,-5.76172 -1.15887,-1.4453 -2.57163,-2.16795 -4.23828,-2.16797 -1.52345,2e-5 -2.95574,0.67059 -4.29688,2.01172 -1.30209,1.30209 -1.95313,2.51303 -1.95312,3.63281 z"
       id="path3809"
       style="fill:#ffffff;stroke:#ffffff;font-family:IPAPGothic;-inkscape-font-specification:IPAPGothic" />
    <path
       d="m 291.54666,123.34361 -3.20312,0 0,-3.63281 c -1.96616,2.68229 -4.35549,4.02344 -7.16797,4.02344 -2.3047,0 -4.10157,-0.78125 -5.39063,-2.34375 -1.01563,-1.26302 -1.52344,-3.0664 -1.52343,-5.41016 l 0,-12.55859 3.4375,0 0,12.4414 c -10e-6,3.3073 1.38671,4.96094 4.16015,4.96094 2.79947,0 4.8828,-1.71874 6.25,-5.15625 l 0,-12.24609 3.4375,0 z"
       id="path3811"
       style="fill:#ffffff;stroke:#ffffff;font-family:IPAPGothic;-inkscape-font-specification:IPAPGothic" />
    <path
       d="m 315.96072,123.34361 -3.4375,0 0,-12.36328 c -10e-6,-3.3854 -1.39975,-5.07811 -4.19921,-5.07812 -2.82554,1e-5 -4.89585,1.69272 -6.21094,5.07812 l 0,12.36328 -3.4375,0 0,-19.92187 3.20312,0 0,3.59375 c 1.87499,-2.65623 4.26431,-3.98436 7.16797,-3.98438 4.60936,2e-5 6.91404,2.58466 6.91406,7.75391 z"
       id="path3813"
       style="fill:#ffffff;stroke:#ffffff;font-family:IPAPGothic;-inkscape-font-specification:IPAPGothic" />
    <path
       d="m 326.62479,99.183456 -3.92578,0 0,-4.003906 3.92578,0 z m -0.25391,4.238284 0,19.35547 c -10e-6,3.28124 -0.89193,5.61197 -2.67578,6.99218 -1.08073,0.84635 -2.64323,1.44531 -4.6875,1.79688 l -1.15234,-2.87109 c 1.45833,-0.19532 2.57812,-0.57944 3.35937,-1.15235 1.14583,-0.8724 1.71875,-2.47396 1.71875,-4.80469 l 0,-19.3164 z"
       id="path3815"
       style="fill:#ffffff;stroke:#ffffff;font-family:IPAPGothic;-inkscape-font-specification:IPAPGothic" />
    <path
       d="m 337.4451,99.183456 -3.92578,0 0,-4.003906 3.92578,0 z m -0.25391,24.160154 -3.4375,0 0,-19.92187 3.4375,0 z"
       id="path3817"
       style="fill:#ffffff;stroke:#ffffff;font-family:IPAPGothic;-inkscape-font-specification:IPAPGothic" />
  </g>
  <g
     id="text3724-1"
     style="font-size:40px;font-style:normal;font-weight:normal;text-align:center;text-anchor:middle;fill:#ffffff;fill-opacity:1;stroke:#ffffff;stroke-opacity:1;font-family:IPAGothic;-inkscape-font-specification:IPAGothic">
    <path
       d="m 216.31229,254.93738 c -0.71618,1.64063 -1.74482,3.01432 -3.08594,4.12109 -2.27867,1.91406 -4.987,2.8711 -8.125,2.8711 -4.04949,0 -7.38282,-1.42578 -10,-4.27735 -2.42188,-2.66926 -3.63282,-6.16535 -3.63281,-10.48828 -1e-5,-4.47915 1.32161,-8.11847 3.96484,-10.91797 2.52603,-2.69528 5.6966,-4.04294 9.51172,-4.04297 5.3255,3e-5 9.04945,2.28519 11.17187,6.85547 l -3.20312,1.48438 c -1.60159,-3.52862 -4.24481,-5.29295 -7.92969,-5.29297 -2.70835,2e-5 -4.97397,1.02867 -6.79687,3.08594 -1.91407,2.20054 -2.8711,5.16277 -2.8711,8.88671 0,3.21616 0.8138,5.85288 2.44141,7.91016 1.90103,2.4349 4.35545,3.65235 7.36328,3.65234 3.72394,10e-6 6.46482,-1.76431 8.22266,-5.29296 z"
       id="path3827"
       style="fill:#ffffff;stroke:#ffffff;font-family:IPAPGothic;-inkscape-font-specification:IPAPGothic" />
    <path
       d="m 239.0076,261.34363 -3.4375,0 0,-12.36328 c -2e-5,-3.3854 -1.38674,-5.07811 -4.16016,-5.07813 -2.85157,2e-5 -4.9349,1.69273 -6.25,5.07813 l 0,12.36328 -3.4375,0 0,-29.57031 3.4375,0 0,13.04687 c 1.80989,-2.52602 4.13411,-3.78904 6.97266,-3.78906 4.58331,2e-5 6.87498,2.58465 6.875,7.7539 z"
       id="path3829"
       style="fill:#ffffff;stroke:#ffffff;font-family:IPAPGothic;-inkscape-font-specification:IPAPGothic" />
    <path
       d="m 254.37869,240.85535 c 2.81249,2e-5 5.18228,0.94403 7.10938,2.83203 1.97914,1.97918 2.96873,4.58334 2.96875,7.8125 -2e-5,3.11198 -0.97008,5.64453 -2.91016,7.59765 -1.90106,1.88803 -4.29038,2.83204 -7.16797,2.83204 -2.87761,0 -5.2474,-0.93099 -7.10937,-2.79297 -1.95313,-1.95312 -2.92969,-4.53776 -2.92969,-7.75391 0,-3.15103 0.98958,-5.71613 2.96875,-7.69531 1.88801,-1.888 4.24478,-2.83201 7.07031,-2.83203 z m 0,2.63672 c -1.66667,10e-6 -3.07943,0.59897 -4.23828,1.79687 -1.47136,1.47137 -2.20704,3.51564 -2.20703,6.13281 -1e-5,2.57814 0.72265,4.58985 2.16797,6.03516 1.17186,1.17188 2.59764,1.75781 4.27734,1.75781 1.71874,0 3.15754,-0.59895 4.31641,-1.79687 1.44529,-1.44531 2.16795,-3.48958 2.16797,-6.13282 -2e-5,-2.48696 -0.7357,-4.48566 -2.20703,-5.99609 -1.19794,-1.1979 -2.62372,-1.79686 -4.27735,-1.79687 z"
       id="path3831"
       style="fill:#ffffff;stroke:#ffffff;font-family:IPAPGothic;-inkscape-font-specification:IPAPGothic" />
    <path
       d="m 281.87869,232.86707 -1.44531,2.36328 c -0.97658,-0.75518 -1.98569,-1.13279 -3.02734,-1.13282 -2.31772,3e-5 -3.47657,1.56253 -3.47657,4.6875 l 0,2.63672 5.42969,0 0,2.44141 -5.42969,0 0,17.48047 -3.39843,0 0,-17.48047 -3.24219,0 0,-2.44141 3.24219,0 0,-2.55859 c -1e-5,-2.2005 0.52083,-3.91924 1.5625,-5.15625 1.28905,-1.49737 2.99478,-2.24606 5.11718,-2.24609 1.6927,3e-5 3.24869,0.46878 4.66797,1.40625 z"
       id="path3833"
       style="fill:#ffffff;stroke:#ffffff;font-family:IPAPGothic;-inkscape-font-specification:IPAPGothic" />
    <path
       d="m 299.3201,261.34363 -3.20313,0 0,-3.63281 c -1.96616,2.68229 -4.35548,4.02343 -7.16796,4.02343 -2.3047,0 -4.10157,-0.78125 -5.39063,-2.34375 -1.01563,-1.26301 -1.52344,-3.0664 -1.52344,-5.41015 l 0,-12.5586 3.4375,0 0,12.44141 c 0,3.3073 1.38671,4.96094 4.16016,4.96094 2.79946,0 4.8828,-1.71875 6.25,-5.15625 l 0,-12.2461 3.4375,0 z"
       id="path3835"
       style="fill:#ffffff;stroke:#ffffff;font-family:IPAPGothic;-inkscape-font-specification:IPAPGothic" />
  </g>
  <g
     id="text3724-5"
     style="font-size:40px;font-style:normal;font-weight:normal;text-align:center;text-anchor:middle;fill:#ffffff;fill-opacity:1;stroke:#ffffff;stroke-opacity:1;font-family:IPAGothic;-inkscape-font-specification:IPAGothic">
    <path
       d="m 171.31229,375.85535 -10.56641,0 0,25.48828 -3.55469,0 0,-25.48828 -10.23437,0 0,-3.08594 24.35547,0 z"
       id="path3845"
       style="fill:#ffffff;stroke:#ffffff;font-family:IPAPGothic;-inkscape-font-specification:IPAPGothic" />
    <path
       d="m 190.86307,401.34363 -3.04688,0 c -0.45574,-1.0026 -0.74871,-2.03125 -0.8789,-3.08594 l -0.11719,0 c -1.51043,2.42188 -3.76303,3.63281 -6.75781,3.63281 -2.0573,0 -3.73699,-0.65104 -5.03907,-1.95312 -1.14583,-1.14583 -1.71875,-2.54557 -1.71875,-4.19922 0,-4.11457 3.54818,-6.27603 10.64454,-6.48438 l 2.67578,-0.0781 0,-1.03516 c -2e-5,-1.39321 -0.40366,-2.48696 -1.21094,-3.28125 -0.82033,-0.83331 -1.88152,-1.24998 -3.18359,-1.25 -2.2396,2e-5 -3.91928,1.08726 -5.03907,3.26172 l -2.96875,-1.36719 c 1.83594,-3.04685 4.53125,-4.57029 8.08594,-4.57031 2.43488,2e-5 4.31639,0.68362 5.64453,2.05078 1.22394,1.22398 1.83592,2.95575 1.83594,5.19532 l 0,7.32421 c -2e-5,2.48699 0.35805,4.4336 1.07422,5.83985 z m -4.16016,-9.76563 -2.20703,0.0391 c -5.14324,0.11719 -7.71485,1.50391 -7.71484,4.16015 -1e-5,0.93751 0.30598,1.71225 0.91797,2.32422 0.7552,0.74219 1.74478,1.11328 2.96875,1.11328 1.70571,0 3.18358,-0.625 4.43359,-1.875 1.06769,-1.10676 1.60155,-2.4414 1.60156,-4.0039 z"
       id="path3847"
       style="fill:#ffffff;stroke:#ffffff;font-family:IPAPGothic;-inkscape-font-specification:IPAPGothic" />
    <path
       d="m 213.59744,396.83191 c -1.80991,3.39844 -4.66147,5.09766 -8.55468,5.09766 -2.79949,0 -5.1172,-0.91797 -6.95313,-2.75391 -1.97917,-2.0052 -2.96875,-4.61588 -2.96875,-7.83203 0,-3.19009 0.98958,-5.79426 2.96875,-7.8125 1.80989,-1.80988 4.08853,-2.71482 6.83594,-2.71485 3.88019,3e-5 6.6406,1.67971 8.28125,5.03907 l -2.77344,1.44531 c -1.15887,-2.46092 -2.95574,-3.69139 -5.39062,-3.69141 -1.60158,2e-5 -2.9883,0.58596 -4.16016,1.75782 -1.47136,1.47136 -2.20704,3.48959 -2.20703,6.05468 -1e-5,2.42189 0.70963,4.34246 2.1289,5.76172 1.24999,1.25 2.77994,1.875 4.58985,1.875 2.46092,0 4.31639,-1.22395 5.5664,-3.67187 z"
       id="path3849"
       style="fill:#ffffff;stroke:#ffffff;font-family:IPAPGothic;-inkscape-font-specification:IPAPGothic" />
    <path
       d="m 235.8826,401.34363 -3.4375,0 0,-12.36328 c -2e-5,-3.3854 -1.38674,-5.07811 -4.16016,-5.07813 -2.85157,2e-5 -4.9349,1.69273 -6.25,5.07813 l 0,12.36328 -3.4375,0 0,-29.57031 3.4375,0 0,13.04687 c 1.80989,-2.52602 4.13411,-3.78904 6.97266,-3.78906 4.58331,2e-5 6.87498,2.58465 6.875,7.7539 z"
       id="path3851"
       style="fill:#ffffff;stroke:#ffffff;font-family:IPAPGothic;-inkscape-font-specification:IPAPGothic" />
    <path
       d="m 246.62479,377.18347 -3.92578,0 0,-4.0039 3.92578,0 z m -0.25391,24.16016 -3.4375,0 0,-19.92188 3.4375,0 z"
       id="path3853"
       style="fill:#ffffff;stroke:#ffffff;font-family:IPAPGothic;-inkscape-font-specification:IPAPGothic" />
    <path
       d="m 270.31619,401.34363 -4.16015,0 -6.83594,-9.6875 -2.28516,2.20703 0,7.48047 -3.35937,0 0,-29.57031 3.35937,0 0,18.92578 8.39844,-9.27735 4.31641,0 -8.28125,8.28125 z"
       id="path3855"
       style="fill:#ffffff;stroke:#ffffff;font-family:IPAPGothic;-inkscape-font-specification:IPAPGothic" />
    <path
       d="m 290.47244,401.34363 -3.04687,0 c -0.45575,-1.0026 -0.74872,-2.03125 -0.87891,-3.08594 l -0.11719,0 c -1.51043,2.42188 -3.76303,3.63281 -6.75781,3.63281 -2.0573,0 -3.73698,-0.65104 -5.03906,-1.95312 -1.14584,-1.14583 -1.71875,-2.54557 -1.71875,-4.19922 0,-4.11457 3.54817,-6.27603 10.64453,-6.48438 l 2.67578,-0.0781 0,-1.03516 c -10e-6,-1.39321 -0.40366,-2.48696 -1.21094,-3.28125 -0.82032,-0.83331 -1.88152,-1.24998 -3.18359,-1.25 -2.23959,2e-5 -3.91928,1.08726 -5.03906,3.26172 l -2.96875,-1.36719 c 1.83593,-3.04685 4.53124,-4.57029 8.08594,-4.57031 2.43488,2e-5 4.31639,0.68362 5.64453,2.05078 1.22394,1.22398 1.83592,2.95575 1.83593,5.19532 l 0,7.32421 c -10e-6,2.48699 0.35806,4.4336 1.07422,5.83985 z m -4.16015,-9.76563 -2.20703,0.0391 c -5.14324,0.11719 -7.71485,1.50391 -7.71485,4.16015 0,0.93751 0.30599,1.71225 0.91797,2.32422 0.7552,0.74219 1.74478,1.11328 2.96875,1.11328 1.70572,0 3.18358,-0.625 4.43359,-1.875 1.0677,-1.10676 1.60155,-2.4414 1.60157,-4.0039 z"
       id="path3857"
       style="fill:#ffffff;stroke:#ffffff;font-family:IPAPGothic;-inkscape-font-specification:IPAPGothic" />
    <path
       d="m 322.60135,381.42175 -6.91406,20.27344 -2.40235,0 -4.19922,-11.95312 c -0.41668,-1.18489 -0.82683,-2.64973 -1.23046,-4.39454 l -0.11719,0 c -0.2995,1.26304 -0.72918,2.72788 -1.28906,4.39454 l -4.08204,11.95312 -2.40234,0 -6.91406,-20.27344 3.59375,0 3.35937,10.9961 c 0.20833,0.66407 0.63802,2.20052 1.28907,4.60937 l 0.11718,0 c 0.39062,-1.54947 0.83333,-3.08593 1.32813,-4.60937 l 3.59375,-10.9961 3.04687,0 3.75,10.9961 c 0.37759,1.02865 0.82029,2.56511 1.32813,4.60937 l 0.11719,0 c 0.42966,-1.79687 0.83982,-3.33332 1.23046,-4.60937 l 3.32032,-10.9961 z"
       id="path3859"
       style="fill:#ffffff;stroke:#ffffff;font-family:IPAPGothic;-inkscape-font-specification:IPAPGothic" />
    <path
       d="m 342.58182,401.34363 -3.04688,0 c -0.45574,-1.0026 -0.74871,-2.03125 -0.8789,-3.08594 l -0.11719,0 c -1.51043,2.42188 -3.76303,3.63281 -6.75781,3.63281 -2.0573,0 -3.73699,-0.65104 -5.03907,-1.95312 -1.14583,-1.14583 -1.71875,-2.54557 -1.71875,-4.19922 0,-4.11457 3.54818,-6.27603 10.64454,-6.48438 l 2.67578,-0.0781 0,-1.03516 c -2e-5,-1.39321 -0.40366,-2.48696 -1.21094,-3.28125 -0.82033,-0.83331 -1.88152,-1.24998 -3.18359,-1.25 -2.2396,2e-5 -3.91928,1.08726 -5.03907,3.26172 l -2.96875,-1.36719 c 1.83594,-3.04685 4.53125,-4.57029 8.08594,-4.57031 2.43488,2e-5 4.31639,0.68362 5.64453,2.05078 1.22394,1.22398 1.83592,2.95575 1.83594,5.19532 l 0,7.32421 c -2e-5,2.48699 0.35805,4.4336 1.07422,5.83985 z m -4.16016,-9.76563 -2.20703,0.0391 c -5.14324,0.11719 -7.71485,1.50391 -7.71484,4.16015 -1e-5,0.93751 0.30598,1.71225 0.91797,2.32422 0.7552,0.74219 1.74478,1.11328 2.96875,1.11328 1.70571,0 3.18358,-0.625 4.43359,-1.875 1.06769,-1.10676 1.60155,-2.4414 1.60156,-4.0039 z"
       id="path3861"
       style="fill:#ffffff;stroke:#ffffff;font-family:IPAPGothic;-inkscape-font-specification:IPAPGothic" />
  </g>
  <g
     id="text3863"
     style="font-size:40px;font-style:normal;font-weight:normal;text-align:center;text-anchor:middle;fill:#ffffff;fill-opacity:1;stroke:#ffffff;stroke-opacity:1;font-family:IPAGothic;-inkscape-font-specification:IPAGothic">
    <path
       d="m 424.60364,49.830589 3.125,0 0,13.359375 8.125,-13.359375 3.86719,0 -6.67969,10.800782 7.69531,17.207031 -3.88672,0 -5.8789,-14.570313 -3.24219,4.882813 0,9.6875 -3.125,0 z"
       id="path3868" />
    <path
       d="m 446.02942,58.834496 0.44922,1.484375 c 1.1328,-1.497375 2.3177,-2.246072 3.55469,-2.246094 1.23697,2.2e-5 2.194,0.748719 2.87109,2.246094 1.18488,-1.497375 2.48696,-2.246072 3.90625,-2.246094 2.29165,2.2e-5 3.43748,1.601582 3.4375,4.804687 l 0,14.960938 -2.87109,0 0,-14.414063 c -2e-5,-1.861961 -0.46877,-2.792949 -1.40625,-2.792968 -0.84637,1.9e-5 -1.52997,0.468768 -2.05079,1.40625 -0.29949,0.585954 -0.44923,1.223974 -0.44921,1.914062 l 0,13.886719 -2.79297,0 0,-14.453125 c -1e-5,-1.835919 -0.48178,-2.753887 -1.44532,-2.753906 -1.62761,1.9e-5 -2.44141,1.093768 -2.4414,3.28125 l 0,13.925781 -2.8711,0 0,-19.003906 z"
       id="path3870" />
  </g>
  <g
     transform="translate(-345.88308,138)"
     id="text3863-8"
     style="font-size:40px;font-style:normal;font-weight:normal;text-align:center;text-anchor:middle;fill:#ffffff;fill-opacity:1;stroke:#ffffff;stroke-opacity:1;font-family:IPAGothic;-inkscape-font-specification:IPAGothic">
    <path
       d="m 424.60364,49.830589 3.125,0 0,13.359375 8.125,-13.359375 3.86719,0 -6.67969,10.800782 7.69531,17.207031 -3.88672,0 -5.8789,-14.570313 -3.24219,4.882813 0,9.6875 -3.125,0 z"
       id="path3868-8" />
    <path
       d="m 446.02942,58.834496 0.44922,1.484375 c 1.1328,-1.497375 2.3177,-2.246072 3.55469,-2.246094 1.23697,2.2e-5 2.194,0.748719 2.87109,2.246094 1.18488,-1.497375 2.48696,-2.246072 3.90625,-2.246094 2.29165,2.2e-5 3.43748,1.601582 3.4375,4.804687 l 0,14.960938 -2.87109,0 0,-14.414063 c -2e-5,-1.861961 -0.46877,-2.792949 -1.40625,-2.792968 -0.84637,1.9e-5 -1.52997,0.468768 -2.05079,1.40625 -0.29949,0.585954 -0.44923,1.223974 -0.44921,1.914062 l 0,13.886719 -2.79297,0 0,-14.453125 c -1e-5,-1.835919 -0.48178,-2.753887 -1.44532,-2.753906 -1.62761,1.9e-5 -2.44141,1.093768 -2.4414,3.28125 l 0,13.925781 -2.8711,0 0,-19.003906 z"
       id="path3870-5" />
  </g>
  <g
     transform="translate(0,278)"
     id="text3863-8-7"
     style="font-size:40px;font-style:normal;font-weight:normal;text-align:center;text-anchor:middle;fill:#ffffff;fill-opacity:1;stroke:#ffffff;stroke-opacity:1;font-family:IPAGothic;-inkscape-font-specification:IPAGothic">
    <path
       d="m 424.60364,49.830589 3.125,0 0,13.359375 8.125,-13.359375 3.86719,0 -6.67969,10.800782 7.69531,17.207031 -3.88672,0 -5.8789,-14.570313 -3.24219,4.882813 0,9.6875 -3.125,0 z"
       id="path3868-8-0" />
    <path
       d="m 446.02942,58.834496 0.44922,1.484375 c 1.1328,-1.497375 2.3177,-2.246072 3.55469,-2.246094 1.23697,2.2e-5 2.194,0.748719 2.87109,2.246094 1.18488,-1.497375 2.48696,-2.246072 3.90625,-2.246094 2.29165,2.2e-5 3.43748,1.601582 3.4375,4.804687 l 0,14.960938 -2.87109,0 0,-14.414063 c -2e-5,-1.861961 -0.46877,-2.792949 -1.40625,-2.792968 -0.84637,1.9e-5 -1.52997,0.468768 -2.05079,1.40625 -0.29949,0.585954 -0.44923,1.223974 -0.44921,1.914062 l 0,13.886719 -2.79297,0 0,-14.453125 c -1e-5,-1.835919 -0.48178,-2.753887 -1.44532,-2.753906 -1.62761,1.9e-5 -2.44141,1.093768 -2.4414,3.28125 l 0,13.925781 -2.8711,0 0,-19.003906 z"
       id="path3870-5-8" />
  </g>
  <path
     d="m 73.450412,21.923441 c -0.41062,0.0025 -0.82296,0.271119 -1.136426,0.814434 L 45.418621,69.015576 c -0.678064,0.792601 -1.098546,1.842495 -1.098546,2.954695 0,2.518425 2.046209,4.564635 4.564634,4.564635 1.022713,0 1.954384,-0.334318 2.695856,-0.871253 0.03583,0.01027 0.08535,0.01261 0.126265,0.01261 l 6.622827,-3.857526 c 0,0 0,-33.275779 0,40.311883 0,2.10933 1.741871,3.8449 3.851221,3.8449 3.756512,0 11.269534,0 11.269534,0 3.756514,0 7.513028,0 11.269542,0 2.109342,0 3.851213,-1.73557 3.851213,-3.8449 l 0,-40.311875 6.622827,3.857526 c 0.04092,0 0.09047,-0.0025 0.126273,-0.01261 0.741462,0.536935 1.673133,0.871253 2.695846,0.871253 2.518427,0 4.564637,-2.046209 4.564637,-4.564634 0,-1.1122 -0.42049,-2.162094 -1.09854,-2.954696 L 74.586838,22.737883 c -0.313466,-0.543315 -0.725806,-0.811886 -1.136426,-0.814442 z"
     id="path13506"
     style="fill:#ffffff;fill-opacity:1;fill-rule:nonzero;stroke:none" />
  <path
     d="m 477.64044,209.82415 c -0.002,-0.41062 -0.27112,-0.82296 -0.81443,-1.13642 l -46.2777,-26.89537 c -0.7926,-0.67806 -1.8425,-1.09854 -2.9547,-1.09854 -2.51842,0 -4.56463,2.04621 -4.56463,4.56463 0,1.02271 0.33431,1.95439 0.87125,2.69586 -0.0103,0.0358 -0.0126,0.0854 -0.0126,0.12626 l 3.85753,6.62283 c 0,0 33.27577,0 -40.31189,0 -2.10933,0 -3.8449,1.74187 -3.8449,3.85122 0,3.75651 0,11.26953 0,11.26953 0,3.75652 0,7.51303 0,11.26955 0,2.10934 1.73557,3.85121 3.8449,3.85121 l 40.31188,0 -3.85753,6.62283 c 0,0.0409 0.002,0.0905 0.0126,0.12627 -0.53693,0.74146 -0.87125,1.67313 -0.87125,2.69585 0,2.51842 2.04621,4.56463 4.56463,4.56463 1.1122,0 2.1621,-0.42049 2.9547,-1.09854 l 46.2777,-26.89537 c 0.54331,-0.31347 0.81189,-0.72581 0.81444,-1.13643 z"
     id="path13506-8"
     style="fill:#ffffff;fill-opacity:1;fill-rule:nonzero;stroke:none" />
  <path
     d="m 24.605003,346.59653 c 0.002,0.41062 0.271119,0.82296 0.814439,1.13643 l 46.2777,26.89536 c 0.792596,0.67806 1.842486,1.09855 2.95469,1.09855 2.51843,0 4.56464,-2.04621 4.564636,-4.56464 6e-6,-1.02271 -0.334321,-1.95438 -0.871246,-2.69585 0.01027,-0.0359 0.01263,-0.0853 0.01258,-0.12628 l -3.85753,-6.62283 c 0,0 -33.275779,0 40.311888,1e-5 2.10933,-1e-5 3.84489,-1.74188 3.84523,-3.85089 -1e-5,-3.75652 -1e-5,-11.26954 -1e-5,-11.26954 1e-5,-3.75651 0,-7.51302 0,-11.26954 0,-2.10935 -1.73556,-3.85122 -3.84522,-3.85089 l -40.311871,0 3.857526,-6.62282 c 2.8e-5,-0.0409 -0.002,-0.0905 -0.0126,-0.12628 0.536939,-0.74146 0.87126,-1.67313 0.871258,-2.69585 -2e-6,-2.51843 -2.046207,-4.56463 -4.564638,-4.56463 -1.112204,0 -2.162091,0.42049 -2.954692,1.09854 l -46.277688,26.89473 c -0.543327,0.31346 -0.811911,0.72578 -0.814451,1.13642 z"
     id="path13506-80"
     style="fill:#ffffff;fill-opacity:1;fill-rule:nonzero;stroke:none" />
</svg>
