<?xml version="1.0" encoding="UTF-8" standalone="no"?>
<!-- Created with Inkscape (http://www.inkscape.org/) -->

<svg
   xmlns:dc="http://purl.org/dc/elements/1.1/"
   xmlns:cc="http://creativecommons.org/ns#"
   xmlns:rdf="http://www.w3.org/1999/02/22-rdf-syntax-ns#"
   xmlns:svg="http://www.w3.org/2000/svg"
   xmlns="http://www.w3.org/2000/svg"
   xmlns:sodipodi="http://sodipodi.sourceforge.net/DTD/sodipodi-0.dtd"
   xmlns:inkscape="http://www.inkscape.org/namespaces/inkscape"
   version="1.1"
   width="1005.4"
   height="1005.4"
   id="svg2"
   xml:space="preserve"
   inkscape:version="0.48.4 r9939"
   sodipodi:docname="AJAX1.svg"><sodipodi:namedview
     pagecolor="#ffffff"
     bordercolor="#666666"
     borderopacity="1"
     objecttolerance="10"
     gridtolerance="10"
     guidetolerance="10"
     inkscape:pageopacity="0"
     inkscape:pageshadow="2"
     inkscape:window-width="1280"
     inkscape:window-height="1004"
     id="namedview28"
     showgrid="false"
     fit-margin-top="2.7"
     fit-margin-left="2.7"
     fit-margin-right="2.7"
     fit-margin-bottom="2.7"
     inkscape:zoom="0.40667622"
     inkscape:cx="501.04208"
     inkscape:cy="335.21032"
     inkscape:window-x="-8"
     inkscape:window-y="-8"
     inkscape:window-maximized="1"
     inkscape:current-layer="svg2" /><metadata
     id="metadata8"><rdf:RDF><cc:Work
         rdf:about=""><dc:format>image/svg+xml</dc:format><dc:type
           rdf:resource="http://purl.org/dc/dcmitype/StillImage" /><dc:title></dc:title></cc:Work></rdf:RDF></metadata><defs
     id="defs6" /><path
     inkscape:connector-curvature="0"
     style="fill:#ffffff;fill-opacity:1;stroke:#ed1c23;stroke-opacity:1;stroke-width:5;stroke-miterlimit:4;stroke-dasharray:none"
     d="M 2.7,502.70001 C 2.7,226.55763 226.55764,2.7 502.7,2.7 c 276.14238,0 500,223.85763 500,500.00001 0,276.14237 -223.85762,499.99999 -500,499.99999 -276.14236,0 -500,-223.85762 -500,-499.99999 z"
     id="path3854" /><path
     id="path14622"
     d="M 968.075,502.70001 C 968.075,245.68049 759.71952,37.325 502.7,37.325 245.68048,37.325 37.325,245.68049 37.325,502.70001 37.325,759.71953 245.68048,968.075 502.7,968.075 c 257.01952,0 465.375,-208.35547 465.375,-465.37499 z"
     style="fill:#ed1c23;fill-opacity:1;stroke:none"
     inkscape:connector-curvature="0" /><path
     id="path15520"
     d="m 835.55,502.7 c 0,-183.82799 -149.02204,-332.85 -332.85,-332.85 -183.82797,0 -332.84999,149.02201 -332.84999,332.85 0,183.82797 149.02202,332.84999 332.84999,332.84999 183.82796,0 332.85,-149.02202 332.85,-332.84999 z"
     style="fill:#ffffff;fill-opacity:1;stroke:none"
     inkscape:connector-curvature="0" /><path
     style="fill:#ed1c23;fill-opacity:1;stroke:none"
     d="M 783.75726,851.49809 851.49809,783.75726 221.64273,153.9019 153.9019,221.64273 z"
     id="path3011"
     inkscape:connector-curvature="0"
     sodipodi:nodetypes="ccccc" /><path
     style="font-size:medium;font-style:normal;font-variant:normal;font-weight:normal;font-stretch:normal;text-indent:0;text-align:start;text-decoration:none;line-height:normal;letter-spacing:normal;word-spacing:normal;text-transform:none;direction:ltr;block-progression:tb;writing-mode:lr-tb;text-anchor:start;baseline-shift:baseline;color:#000000;fill:#ffffff;fill-opacity:1;fill-rule:evenodd;stroke:none;stroke-width:9;marker:none;visibility:visible;display:inline;overflow:visible;enable-background:accumulate;font-family:Sans;-inkscape-font-specification:Sans"
     d="m 239.678,355.415 0,294.57 526.044,0 0,-294.57 z"
     id="rect4630"
     inkscape:connector-curvature="0"
     sodipodi:nodetypes="ccccc" /><path
     inkscape:connector-curvature="0"
     style="fill:none;stroke:#0066b3;stroke-width:20.17103386;stroke-linecap:round;stroke-linejoin:miter;stroke-miterlimit:4;stroke-opacity:1;stroke-dasharray:none"
     d="m 294.25434,385.91282 c -6.5916,32.95573 -12.25892,66.21953 -44.49042,90.62863"
     id="path1929"
     sodipodi:nodetypes="cc" /><path
     inkscape:connector-curvature="0"
     style="fill:none;stroke:#0066b3;stroke-width:20.17103386;stroke-linecap:round;stroke-linejoin:miter;stroke-miterlimit:4;stroke-opacity:1;stroke-dasharray:none"
     d="m 290.13486,404.03854 70.03119,0.41196 c 6.32499,2.87894 11.26742,6.52596 7.82703,14.83011 -10.95506,16.56171 -12.44306,17.87746 -25.95276,31.72003"
     id="path1931"
     sodipodi:nodetypes="cccc" /><path
     inkscape:connector-curvature="0"
     style="fill:none;stroke:#0066b3;stroke-width:20.17103386;stroke-linecap:round;stroke-linejoin:miter;stroke-miterlimit:4;stroke-opacity:1;stroke-dasharray:none"
     d="m 408.77596,457.06778 -133.71257,0.58259 c 1.34674,70.20282 -3.29432,129.73431 -25.29947,154.01014"
     id="path1935"
     sodipodi:nodetypes="ccc" /><path
     inkscape:connector-curvature="0"
     style="fill:none;stroke:#0066b3;stroke-width:20.17103386;stroke-linecap:round;stroke-linejoin:miter;stroke-miterlimit:4;stroke-opacity:1;stroke-dasharray:none"
     d="m 322.26681,547.39659 c 12.18923,8.84898 15.74173,9.78792 35.98447,12.96772 5.35599,0.84134 15.53587,-3.17767 16.33298,-8.43632 l 0.82387,-53.96521 c -1.97368,-6.54396 -7.01259,-7.18773 -9.86341,-8.43609 l -59.75583,0.19723 -1.64778,120.28891 70.44315,1.23584 c 32.0612,-0.65399 26.33841,-36.29624 25.95272,-59.73251"
     id="path1941"
     sodipodi:nodetypes="csccccccc" /><path
     inkscape:connector-curvature="0"
     style="fill:none;stroke:#0066b3;stroke-width:20.17103386;stroke-linecap:round;stroke-linejoin:miter;stroke-miterlimit:4;stroke-opacity:1;stroke-dasharray:none"
     d="m 432.66894,619.89948 0,-210.09367 c 0.15174,-9.21815 3.65953,-9.16223 5.76728,-9.06286 l 23.48107,0 c 5.31132,0.20732 7.31827,4.19087 4.94337,13.18235 l -4.53141,24.30495 c -3.99219,6.79248 -8.19456,26.25673 -9.86024,46.51347 -1.68179,20.45267 13.46663,37.63531 15.77837,55.14061 -0.51449,11.81021 2.01118,25.44455 -3.44645,34.28888 -5.45223,9.74833 -9.63079,18.3737 -22.65715,17.30181"
     id="path2830"
     sodipodi:nodetypes="ccccccsccc" /><path
     inkscape:connector-curvature="0"
     style="fill:none;stroke:#0066b3;stroke-width:20.17103386;stroke-linecap:round;stroke-linejoin:miter;stroke-miterlimit:4;stroke-opacity:1;stroke-dasharray:none"
     d="m 493.63731,451.82454 68.79537,0"
     id="path2834"
     sodipodi:nodetypes="cc" /><path
     inkscape:connector-curvature="0"
     style="fill:none;stroke:#0066b3;stroke-width:20.17103386;stroke-linecap:round;stroke-linejoin:miter;stroke-miterlimit:4;stroke-opacity:1;stroke-dasharray:none"
     d="m 487.87003,532.97839 0,-42.43069 c -0.56336,-8.05766 3.7662,-7.55269 7.41507,-8.23896 l 70.85511,0.41195 c 5.6962,-0.48766 8.08959,2.09313 8.23896,8.65091 l -0.82389,42.84263 c 0.49856,4.06366 -3.54199,4.70852 -8.65092,4.94338 l -70.85509,0 c -3.15828,0.13739 -5.21802,-0.27462 -6.17924,-6.17922 z"
     id="path2836"
     sodipodi:nodetypes="ccccccccc" /><path
     inkscape:connector-curvature="0"
     style="fill:none;stroke:#0066b3;stroke-width:20.17103386;stroke-linecap:round;stroke-linejoin:miter;stroke-miterlimit:4;stroke-opacity:1;stroke-dasharray:none"
     d="m 528.6529,452.2365 0.41195,111.22607 c -16.48735,27.6169 -38.04579,42.91823 -62.20419,51.90547"
     id="path2838"
     sodipodi:nodetypes="ccc" /><path
     inkscape:connector-curvature="0"
     style="fill:none;stroke:#0066b3;stroke-width:20.17103386;stroke-linecap:round;stroke-linejoin:miter;stroke-miterlimit:4;stroke-opacity:1;stroke-dasharray:none"
     d="m 529.88875,561.40281 c 16.9932,21.48081 32.70974,40.14939 57.67276,52.72939"
     id="path2840"
     sodipodi:nodetypes="cc" /><path
     inkscape:connector-curvature="0"
     style="fill:none;stroke:#0066b3;stroke-width:20.17103386;stroke-linecap:round;stroke-linejoin:miter;stroke-miterlimit:4;stroke-opacity:1;stroke-dasharray:none"
     d="m 615.57401,404.4505 c -1.35873,33.18953 -3.28051,66.19137 -11.12262,97.21981"
     id="path2842"
     sodipodi:nodetypes="cc" /><path
     inkscape:connector-curvature="0"
     style="fill:none;stroke:#0066b3;stroke-width:20.17103386;stroke-linecap:round;stroke-linejoin:miter;stroke-miterlimit:4;stroke-opacity:1;stroke-dasharray:none"
     d="m 597.44827,555.2236 c 25.07927,-7.79451 47.90811,-23.46564 70.85511,-38.72314"
     id="path2844"
     sodipodi:nodetypes="cc" /><path
     inkscape:connector-curvature="0"
     style="fill:none;stroke:#0066b3;stroke-width:20.17103386;stroke-linecap:round;stroke-linejoin:miter;stroke-miterlimit:4;stroke-opacity:1;stroke-dasharray:none"
     d="m 619.28154,445.23336 43.66652,-0.41194"
     id="path2846"
     sodipodi:nodetypes="cc" /><path
     inkscape:connector-curvature="0"
     style="fill:none;stroke:#0066b3;stroke-width:20.08308983;stroke-linecap:round;stroke-linejoin:miter;stroke-miterlimit:4;stroke-opacity:1;stroke-dasharray:none"
     d="m 634.8916,394.70752 1.32379,221.11645"
     id="path2848" /><path
     inkscape:connector-curvature="0"
     style="fill:none;stroke:#0066b3;stroke-width:20.17103386;stroke-linecap:round;stroke-linejoin:miter;stroke-miterlimit:4;stroke-opacity:1;stroke-dasharray:none"
     d="m 683.54546,385.50086 c -5.60667,36.92068 -7.66127,76.02724 -26.77664,104.63491"
     id="path2850"
     sodipodi:nodetypes="cc" /><path
     inkscape:connector-curvature="0"
     style="fill:none;stroke:#0066b3;stroke-width:20.17103386;stroke-linecap:round;stroke-linejoin:miter;stroke-miterlimit:4;stroke-opacity:1;stroke-dasharray:none"
     d="m 677.36624,437.81832 67.55952,0.41193 c 5.98658,0.47648 9.66707,0.48516 10.71066,7.00311 l -1.23586,126.88012 c 1.25845,20.08579 -2.51095,32.61578 -11.12261,36.25145 -22.35735,1.67681 -24.00953,-4.5453 -35.01561,-6.59119"
     id="path2852"
     sodipodi:nodetypes="cccccc" /><path
     inkscape:connector-curvature="0"
     style="fill:none;stroke:#0066b3;stroke-width:20.17103386;stroke-linecap:round;stroke-linejoin:miter;stroke-miterlimit:4;stroke-opacity:1;stroke-dasharray:none"
     d="m 696.31585,437.81829 c 6.26721,54.24623 -17.82191,102.6547 -39.13507,151.597"
     id="path2854"
     sodipodi:nodetypes="cc" /><path
     inkscape:connector-curvature="0"
     style="fill:none;stroke:#0066b3;stroke-width:20.17103386;stroke-linecap:round;stroke-linejoin:miter;stroke-miterlimit:4;stroke-opacity:1;stroke-dasharray:none"
     d="m 725.56418,439.46609 c 2.05745,56.02501 -16.66151,111.63802 -38.31118,167.663"
     id="path2856"
     sodipodi:nodetypes="cc" /><path
     inkscape:connector-curvature="0"
     style="fill:none;stroke:#0066b3;stroke-width:20.17103386;stroke-linecap:round;stroke-linejoin:miter;stroke-miterlimit:4;stroke-opacity:1;stroke-dasharray:none"
     d="m 481.25388,442.53236 c 15.78588,-13.98952 25.00843,-20.92949 39.80344,-39.17946 6.21175,-7.13674 11.62101,-7.17901 20.85587,1.71851 18.35294,20.55415 21.76144,23.69999 39.5207,33.21222"
     id="path3743"
     sodipodi:nodetypes="cccc" /></svg>