<?xml version="1.0" encoding="UTF-8" standalone="no"?>
<!-- Created with Inkscape (http://www.inkscape.org/) -->

<svg
   xmlns:dc="http://purl.org/dc/elements/1.1/"
   xmlns:cc="http://creativecommons.org/ns#"
   xmlns:rdf="http://www.w3.org/1999/02/22-rdf-syntax-ns#"
   xmlns:svg="http://www.w3.org/2000/svg"
   xmlns="http://www.w3.org/2000/svg"
   xmlns:sodipodi="http://sodipodi.sourceforge.net/DTD/sodipodi-0.dtd"
   xmlns:inkscape="http://www.inkscape.org/namespaces/inkscape"
   version="1.1"
   width="1005.4"
   height="1005.4"
   id="svg2"
   xml:space="preserve"
   inkscape:version="0.48.4 r9939"
   sodipodi:docname="AJAX1.svg"><sodipodi:namedview
     pagecolor="#ffffff"
     bordercolor="#666666"
     borderopacity="1"
     objecttolerance="10"
     gridtolerance="10"
     guidetolerance="10"
     inkscape:pageopacity="0"
     inkscape:pageshadow="2"
     inkscape:window-width="1280"
     inkscape:window-height="1004"
     id="namedview28"
     showgrid="false"
     fit-margin-top="0.2"
     fit-margin-left="0.2"
     fit-margin-right="0.2"
     fit-margin-bottom="0.2"
     inkscape:zoom="0.51603029"
     inkscape:cx="549.95172"
     inkscape:cy="298.13378"
     inkscape:window-x="-8"
     inkscape:window-y="-8"
     inkscape:window-maximized="1"
     inkscape:current-layer="svg2" /><metadata
     id="metadata8"><rdf:RDF><cc:Work
         rdf:about=""><dc:format>image/svg+xml</dc:format><dc:type
           rdf:resource="http://purl.org/dc/dcmitype/StillImage" /></cc:Work></rdf:RDF></metadata><defs
     id="defs6" /><path
     inkscape:connector-curvature="0"
     style="fill:#ffffff;fill-opacity:1;stroke:#ed1c23;stroke-width:5;stroke-miterlimit:4;stroke-opacity:1;stroke-dasharray:none"
     d="M 2.7,502.70001 C 2.7,226.55763 226.55763,2.7 502.7,2.7 c 276.14238,0 500,223.85763 500,500.00001 0,276.14237 -223.85762,499.99999 -500,499.99999 -276.14237,0 -500,-223.85762 -500,-499.99999 z"
     id="path3854" /><path
     id="path14622"
     d="M 968.075,502.70001 C 968.075,245.68049 759.71952,37.325 502.7,37.325 245.68047,37.325 37.325,245.68049 37.325,502.70001 37.325,759.71953 245.68047,968.075 502.7,968.075 c 257.01952,0 465.375,-208.35547 465.375,-465.37499 z"
     style="fill:#ed1c23;fill-opacity:1;stroke:none"
     inkscape:connector-curvature="0" /><path
     id="path15520"
     d="m 835.55,502.7 c 0,-183.82797 -149.02204,-332.85 -332.85,-332.85 -183.82798,0 -332.85,149.02203 -332.85,332.85 0,183.82797 149.02202,332.84999 332.85,332.84999 183.82796,0 332.85,-149.02202 332.85,-332.84999 z"
     style="fill:#ffffff;fill-opacity:1;stroke:none"
     inkscape:connector-curvature="0" /><path
     style="fill:#ed1c23;fill-opacity:1;stroke:none"
     d="M 783.75726,851.49809 851.49809,783.75726 221.64272,153.9019 153.90189,221.64273 z"
     id="path3011"
     inkscape:connector-curvature="0"
     sodipodi:nodetypes="ccccc" /><path
     inkscape:connector-curvature="0"
     d="m 693.5006,422.17449 c -22.66078,0 -43.90033,6.35607 -61.90262,17.48907 -12.75162,-31.7014 -29.68798,-73.94362 -35.84666,-89.1824 l 15.43617,-14.33077 -11.88309,-35.64927 -64.07394,-14.60713 -1.97394,0.75168 -24.39784,9.11958 c -3.75047,1.45913 -5.56649,5.5665 -4.14526,9.23802 1.34228,3.711 5.44806,5.5665 9.15906,4.14526 0,0 18.98926,-7.10617 22.46338,-8.25105 3.55309,0.75168 45.32156,10.26447 51.9145,11.76466 1.57915,4.57953 4.73745,14.21233 6.47451,19.30508 -2.09237,1.89498 -5.17171,4.81641 -7.65887,7.14565 -1.93445,-0.47374 -3.98735,-0.47374 -6.00076,0.35373 -4.85588,1.97394 -7.26408,7.46148 -5.29015,12.39631 l 11.05404,27.6351 -174.41693,0 22.78979,-12.18239 -25.5533,-2.74056 48.79568,-15.27826 -4.0663,-6.15868 -96.6044,0 0,17.41011 23.33192,4.02683 3.07934,0 10.58029,22.14755 -29.76695,48.04559 c -15.94939,-8.05366 -33.95168,-12.59371 -53.05938,-12.59371 -65.29778,0 -118.39664,53.09886 -118.39664,118.43612 0,65.25831 53.09886,118.39665 118.39664,118.39665 59.77076,0 109.31654,-44.53199 117.29124,-102.13142 l 24.20045,0 c 2.84247,8.60636 8.84323,15.83096 16.54158,20.37101 -2.72403,12.04101 -4.73745,20.88424 -5.09276,22.6213 l -17.6075,0 c -2.64507,0 -4.73744,2.21081 -4.73744,4.85588 0,2.64666 2.09237,4.73745 4.73744,4.73745 l 25.18742,0 c 0,0 155.7435,49.5442 221.04128,49.5442 65.29778,0 118.43611,-53.13834 118.43611,-118.39665 0,-65.33726 -53.13833,-118.43612 -118.43611,-118.43612"
     style="fill:#ffffff;fill-opacity:1;fill-rule:nonzero;stroke:#ffffff;stroke-width:20;stroke-miterlimit:4;stroke-opacity:1;stroke-dasharray:none"
     id="path3473"
     sodipodi:nodetypes="cccccccccccccccsccccccccccccsssccccssscssc" /><path
     id="path15354"
     style="fill:#0066b3;fill-opacity:1;fill-rule:nonzero;stroke:none"
     d="m 693.5006,639.96904 c -54.79646,0 -99.36791,-44.61094 -99.36791,-99.3679 0,-27.4377 11.133,-52.30929 29.21424,-70.39054 l 6.94826,17.33116 56.88881,68.25868 c 3.35569,4.14526 9.35646,4.57953 13.42276,1.26332 2.28977,-1.97394 3.43465,-4.61901 3.43465,-7.34304 0,-2.17291 -0.71062,-4.2637 -2.17133,-6.1192 0,0 -53.17782,-63.71863 -55.07279,-65.96892 -0.23688,-0.5906 -3.39517,-8.44844 -7.9747,-19.93675 15.67304,-10.3829 34.50439,-16.46262 54.67801,-16.46262 54.79644,0 99.3679,44.57146 99.3679,99.36791 0,54.75696 -44.57146,99.3679 -99.3679,99.3679 M 504.43707,513.32135 c -2.9609,-1.46229 -6.1192,-2.64665 -9.47489,-3.27673 2.64506,-11.56726 4.61901,-19.93675 4.93484,-21.63433 l 22.66077,0 c 2.64508,0 4.73745,-2.16975 4.73745,-4.81641 0,-2.64665 -2.09237,-4.73744 -4.73745,-4.73744 l -30.24068,0 c 0,0 -3.00039,13.02797 -6.98774,30.67496 -3.39516,0.22108 -6.63242,0.94748 -9.79072,2.05289 l -54.08582,-113.06702 173.07465,0 7.73782,19.34457 -97.82823,95.45951 z m 10.30394,32.33306 c 0,14.72556 -12.00153,26.76657 -26.76656,26.76657 -2.44768,0 -4.69797,-0.31583 -6.90878,-0.90959 1.02645,-4.73745 2.21081,-9.67229 3.31621,-14.6466 l 5.13224,0 -2.64508,-5.0138 2.64508,2.64665 22.10807,-21.47641 c 1.97394,3.75047 3.11882,8.05365 3.11882,12.63318 m -51.08545,11.21196 10.93561,0 c -0.82906,3.5136 -1.57915,7.02721 -2.32925,10.42237 -3.711,-2.68455 -6.71138,-6.19815 -8.60636,-10.42237 m -151.71667,83.10267 c -54.75696,0 -99.3679,-44.61094 -99.3679,-99.3679 0,-54.79645 44.61094,-99.36791 99.3679,-99.36791 15.43618,0 29.92486,3.55309 42.99231,9.86968 l -42.16326,68.10077 c -0.079,0 -0.23687,-0.0316 -0.31582,-0.0316 -13.22537,0.002 -23.88462,10.85822 -23.88462,23.96515 0,13.14641 10.65925,23.9241 23.88462,23.9241 8.09313,0 15.1993,-4.06631 19.54196,-10.18551 l 77.85201,0 c -7.77731,47.01914 -48.67725,83.10268 -97.9072,83.10268 m 22.73974,-105.52657 c -1.06593,-2.64665 -2.52664,-5.09275 -4.42162,-7.18512 10.61977,-17.33115 26.3323,-42.59753 41.01838,-66.24527 22.66078,17.01532 37.93904,43.34762 39.71558,73.43039 l -76.31234,0 z m 69.83783,-127.31883 55.27019,115.71209 c -2.80299,3.39517 -4.89536,7.34304 -6.35607,11.60674 l -23.21348,0 c -1.89498,-36.87311 -20.68684,-69.36408 -48.91412,-89.77458 9.55385,-15.55461 17.96281,-29.13528 23.21348,-37.54425 m 288.98414,15.04139 c -22.66078,0 -43.90033,6.35607 -61.90262,17.48907 -12.75162,-31.7014 -29.68798,-73.94362 -35.84666,-89.1824 l 15.43617,-14.33077 -11.88309,-35.64927 -64.07394,-14.60713 -1.97394,0.75168 -24.39784,9.11958 c -3.75047,1.45913 -5.56649,5.5665 -4.14526,9.23802 1.34228,3.711 5.44806,5.5665 9.15906,4.14526 0,0 18.98926,-7.10617 22.46338,-8.25105 3.55309,0.75168 45.32156,10.26447 51.9145,11.76466 1.57915,4.57953 4.73745,14.21233 6.47451,19.30508 -2.09237,1.89498 -5.17171,4.81641 -7.65887,7.14565 -1.93445,-0.47374 -3.98735,-0.47374 -6.00076,0.35373 -4.85588,1.97394 -7.26408,7.46148 -5.29015,12.39631 l 11.05404,27.6351 -174.41693,0 -7.18512,-14.92295 4.42161,0 48.79568,-15.27826 -4.0663,-6.15868 -96.6044,0 0,17.41011 23.33192,4.02683 3.07934,0 10.58029,22.14755 -29.76695,48.04559 c -15.94939,-8.05366 -33.95168,-12.59371 -53.05938,-12.59371 -65.29778,0 -118.39664,53.09886 -118.39664,118.43612 0,65.25831 53.09886,118.39665 118.39664,118.39665 59.77076,0 109.31654,-44.53199 117.29124,-102.13142 l 24.20045,0 c 2.84247,8.60636 8.84323,15.83096 16.54158,20.37101 -2.72403,12.04101 -4.73745,20.88424 -5.09276,22.6213 l -17.6075,0 c -2.64507,0 -4.73744,2.21081 -4.73744,4.85588 0,2.64666 2.09237,4.73745 4.73744,4.73745 l 25.18742,0 c 0,0 2.72403,-12.11997 6.4745,-28.66154 2.92143,0.71061 5.88233,1.1433 9.04063,1.1433 19.97622,0 36.32041,-16.26523 36.32041,-36.28093 0,-7.10617 -2.13185,-13.81755 -5.72441,-19.463 l 91.3932,-89.22188 5.76389,14.4492 c -24.95055,21.63434 -40.66306,53.61209 -40.66306,89.1824 0,65.25831 53.13834,118.39665 118.43612,118.39665 65.29778,0 118.43611,-53.13834 118.43611,-118.39665 0,-65.33726 -53.13833,-118.43612 -118.43611,-118.43612"
     inkscape:connector-curvature="0" /></svg>