<?xml version="1.0" encoding="UTF-8" standalone="no"?>
<!-- Created with Inkscape (http://www.inkscape.org/) -->

<svg
   xmlns:osb="http://www.openswatchbook.org/uri/2009/osb"
   xmlns:dc="http://purl.org/dc/elements/1.1/"
   xmlns:cc="http://creativecommons.org/ns#"
   xmlns:rdf="http://www.w3.org/1999/02/22-rdf-syntax-ns#"
   xmlns:svg="http://www.w3.org/2000/svg"
   xmlns="http://www.w3.org/2000/svg"
   xmlns:xlink="http://www.w3.org/1999/xlink"
   xmlns:sodipodi="http://sodipodi.sourceforge.net/DTD/sodipodi-0.dtd"
   xmlns:inkscape="http://www.inkscape.org/namespaces/inkscape"
   version="1.1"
   width="1005.4"
   height="1545.4"
   id="svg2"
   xml:space="preserve"
   inkscape:version="0.48.4 r9939"
   sodipodi:docname="Ajax.svg"><sodipodi:namedview
     pagecolor="#ffffff"
     bordercolor="#666666"
     borderopacity="1"
     objecttolerance="10"
     gridtolerance="10"
     guidetolerance="10"
     inkscape:pageopacity="0"
     inkscape:pageshadow="2"
     inkscape:window-width="1280"
     inkscape:window-height="1001"
     id="namedview28"
     showgrid="false"
     fit-margin-top="2.7"
     fit-margin-left="2.7"
     fit-margin-right="2.7"
     fit-margin-bottom="0.2"
     inkscape:zoom="0.28984013"
     inkscape:cx="587.94509"
     inkscape:cy="636.68973"
     inkscape:window-x="-8"
     inkscape:window-y="-8"
     inkscape:window-maximized="1"
     inkscape:current-layer="svg2" /><metadata
     id="metadata8"><rdf:RDF><cc:Work
         rdf:about=""><dc:format>image/svg+xml</dc:format><dc:type
           rdf:resource="http://purl.org/dc/dcmitype/StillImage" /><dc:title></dc:title></cc:Work></rdf:RDF></metadata><defs
     id="defs6"><linearGradient
       id="linearGradient15703"
       osb:paint="solid"><stop
         style="stop-color:#ffffff;stop-opacity:1;"
         offset="0"
         id="stop15705" /></linearGradient><linearGradient
       inkscape:collect="always"
       xlink:href="#linearGradient15703"
       id="linearGradient15707"
       x1="-37.125"
       y1="465.375"
       x2="967.87512"
       y2="465.375"
       gradientUnits="userSpaceOnUse"
       gradientTransform="translate(961.6578,56.04101)" /></defs><g
     id="g2991"
     transform="matrix(34.167339,0,0,34.167339,-67.84505,1251.5744)" /><path
     style="font-size:medium;font-style:normal;font-variant:normal;font-weight:normal;font-stretch:normal;text-indent:0;text-align:start;text-decoration:none;line-height:normal;letter-spacing:normal;word-spacing:normal;text-transform:none;direction:ltr;block-progression:tb;writing-mode:lr-tb;text-anchor:start;baseline-shift:baseline;color:#000000;fill:#000000;fill-opacity:1;fill-rule:nonzero;stroke:none;stroke-width:30;marker:none;visibility:visible;display:inline;overflow:visible;enable-background:accumulate;font-family:Sans;-inkscape-font-specification:Sans"
     d="m 864.9291,1545.2 c 20.7457,0 37.7709,-17.0251 37.7709,-37.7709 l 0,-457.7918 c 0,-20.7465 -17.0256,-37.7708 -37.7709,-37.7708 l -724.4582,0 c -20.7452,0 -37.7709,17.0243 -37.7709,37.7708 l 0,457.7918 c 0,20.7458 17.0251,37.7709 37.7709,37.7709 z"
     id="path14428"
     inkscape:connector-curvature="0"
     sodipodi:nodetypes="sssssssss" /><path
     inkscape:connector-curvature="0"
     d="m 140.4779,1535.2 c -15.3414,0 -27.7779,-12.4365 -27.7779,-27.7779 l 0,-457.778 c 0,-15.3426 12.4365,-27.7778 27.7779,-27.7778 l 724.4444,0 c 15.3412,0 27.7777,12.4352 27.7777,27.7778 l 0,457.778 c 0,15.3414 -12.4365,27.7779 -27.7777,27.7779 z"
     style="fill:#ffffff;fill-opacity:1;fill-rule:nonzero;stroke:none"
     id="path14430"
     sodipodi:nodetypes="sssssssss" /><path
     id="path14427"
     style="fill:#000000;fill-opacity:1;fill-rule:nonzero;stroke:none"
     d="m 229.6521,1292.9932 c -11.5498,0 -21.0155,-9.3788 -21.0155,-21.0155 l 0,-189.0956 c 0,-11.6366 9.4657,-21.0154 21.0155,-21.0154 l 369.2033,0 c 11.68,0 21.1023,9.3788 21.1023,21.0154 l 0,48.3269 c 0,9.7261 7.9893,17.6286 17.6287,17.6286 l 56.8372,0 c 6.6433,0 14.5892,5.2539 17.1945,11.984 2.692,6.7302 18.5405,37.4284 21.1457,43.2902 2.6921,5.8617 4.9499,11.0287 11.0287,11.0287 l 11.2893,0 c 7.3815,0 12.5485,10.1169 13.4169,13.3734 0.9136,3.3868 15.0669,62.4386 15.0669,62.4386 0,2.824 2.3447,5.1236 5.1236,5.1236 l 2.9074,0 c 2.8658,0 5.1671,2.2578 5.1671,5.0801 l 0,19.7129 -49.1519,0 0,0.3126 c 0,22.4483 -18.2365,40.6849 -40.7283,40.6849 -22.4917,0 -40.7717,-18.2366 -40.7717,-40.6849 l 0,-0.3126 -237.3357,0 0,0.3126 c 0,22.4483 -18.28,40.6849 -40.8151,40.6849 -22.4918,0 -40.6415,-18.2366 -40.6415,-40.6849 l 0,-0.3126 -69.7765,0 c -6.1657,0 -11.2024,-5.0368 -11.2024,-11.2025 l 0,-16.63 -36.6902,-0.035 z m 465.6399,-125.0506 -5.2539,0 0,41.2059 29.1785,0 -11.159,-26.443 c -2.8206,-8.467 -6.5565,-14.0682 -12.7656,-14.7629 m -15.284,0 -28.4403,0 0,41.2059 28.4403,0 0,-41.2059"
     inkscape:connector-curvature="0" /><path
     inkscape:connector-curvature="0"
     d="m 667.4066,1488.3649 0,-33.5978 c 0,-0.7133 -0.4001,-1.0701 -1.2004,-1.0701 l -8.1339,0 c -1.511,0 -2.7778,-0.533 -3.8005,-1.5992 -1.0227,-1.066 -1.534,-2.3104 -1.534,-3.7333 0,-1.4227 0.5113,-2.6671 1.534,-3.7333 1.0227,-1.066 2.2895,-1.599 3.8005,-1.5991 l 8.1339,0 c 0.8003,1e-4 1.2004,-0.3553 1.2004,-1.0661 l 0,-17.4682 c 0,-1.8663 0.6666,-3.4661 1.9999,-4.7994 1.3333,-1.3332 2.9331,-1.9999 4.7994,-2 1.8663,10e-5 3.4661,0.6668 4.7994,2 1.3332,1.3333 1.9999,2.9331 1.9999,4.7994 l 0,17.4682 c 0,0.7108 0.3553,1.0662 1.0661,1.0661 l 18.6686,0 c 1.5109,1e-4 2.7771,0.5331 3.7984,1.5991 1.0213,1.0662 1.532,2.3106 1.532,3.7333 0,1.4229 -0.5107,2.6673 -1.532,3.7333 -1.0213,1.0662 -2.2875,1.5992 -3.7984,1.5992 l -18.6686,0 c -0.7107,0 -1.0661,0.3568 -1.0661,1.0701 l 0,30.9326 c 0,5.778 0.7555,9.6666 2.2665,11.6658 1.5109,1.9993 4.2222,2.9989 8.1339,2.9989 2.8428,0 5.154,-0.2224 6.9336,-0.6673 1.3319,-0.3554 2.6204,-0.1994 3.8656,0.4679 1.245,0.6673 2.0005,1.667 2.2664,2.9989 0.2658,1.511 -0.023,2.9114 -0.8667,4.2012 -0.8437,1.2899 -1.9762,2.1126 -3.3976,2.4679 -3.6459,0.8003 -7.247,1.2003 -10.8032,1.2003 -7.8207,0 -13.442,-1.7333 -16.8641,-5.2001 -3.422,-3.4668 -5.133,-9.2896 -5.133,-17.4683 z"
     id="path2836"
     style="font-size:200px;font-style:normal;font-weight:normal;text-align:center;text-anchor:middle;fill:#000000;fill-opacity:1;stroke:none;font-family:'Rounded M+ 1p medium';-inkscape-font-specification:'Rounded M+ 1p medium'" /><path
     inkscape:connector-curvature="0"
     d="m 313.7006,1470.7664 c -1.332,4.0012 -3.1536,8.313 -5.4647,12.9354 -0.7107,1.4214 -1.8663,2.1321 -3.4668,2.1321 -1.6005,0 -2.7561,-0.7554 -3.4668,-2.2664 l -0.3988,-0.8016 c -2.2244,-4.3538 -2.0915,-8.7971 0.3988,-13.3301 5.8675,-10.8452 9.9569,-21.468 12.2681,-31.8684 0.1762,-0.8002 -0.1357,-1.2003 -0.9359,-1.2004 l -6.2663,0 c -1.6873,10e-5 -3.1087,-0.5777 -4.2643,-1.7334 -1.1556,-1.1555 -1.7334,-2.5776 -1.7334,-4.2664 0,-1.6885 0.5778,-3.1106 1.7334,-4.2663 1.1556,-1.1555 2.577,-1.7333 4.2643,-1.7334 l 6.5348,0 c 0.7108,10e-5 1.0661,-0.3553 1.0661,-1.0661 l 0,-13.4684 c 0,-0.8002 -0.3553,-1.1108 -1.0661,-0.9318 -2.1348,0.3554 -3.7354,0.5779 -4.8014,0.6673 -1.6005,0.1764 -3.0002,-0.2461 -4.1992,-1.2675 -1.199,-1.0212 -1.888,-2.3321 -2.0671,-3.9327 -0.089,-1.6003 0.3547,-3.0008 1.3326,-4.2013 0.9779,-1.2002 2.2671,-1.8885 3.8676,-2.065 9.5106,-1.245 18.7107,-3.0679 27.6001,-5.4687 1.6004,-0.4448 3.1114,-0.2895 4.5329,0.4659 1.4214,0.7556 2.3545,1.8888 2.7995,3.3996 0.179,0.6241 0.5343,0.936 1.066,0.9359 l 30.6681,0 c 0.6212,10e-5 0.9318,-0.3552 0.9318,-1.0661 0,-1.8662 0.6449,-3.4442 1.9349,-4.7342 1.2897,-1.2898 2.8679,-1.9348 4.7343,-1.9348 l 1.3305,0 c 1.869,0 3.4477,0.645 4.7363,1.9348 1.2885,1.29 1.9328,2.868 1.9328,4.7342 0,0.7109 0.3553,1.0662 1.0661,1.0661 l 25.5981,0 c 1.4241,10e-5 2.6692,0.5332 3.7354,1.5991 1.066,1.0662 1.599,2.3106 1.5992,3.7334 -2e-4,1.4228 -0.5332,2.6673 -1.5992,3.7333 -1.0662,1.0661 -2.3113,1.5992 -3.7354,1.5991 l -25.4638,0 c -0.8004,10e-5 -1.2004,0.3554 -1.2004,1.0661 l 0,2.1362 c 0,0.7108 0.4,1.0662 1.2004,1.0661 l 23.0672,0 c 1.2423,10e-5 2.286,0.4443 3.1311,1.3326 0.8449,0.8885 1.2674,1.9552 1.2675,3.2003 -1e-4,1.2452 -0.4226,2.2895 -1.2675,3.1331 -0.8451,0.8437 -1.8888,1.2656 -3.1311,1.2655 l -23.0672,0 c -0.8004,10e-5 -1.2004,0.4001 -1.2004,1.2003 l 0,2.002 c 0,0.8003 0.4,1.2004 1.2004,1.2004 l 28.5319,0 c 1.4213,0 2.5986,0.4666 3.5319,1.3997 0.933,0.9332 1.3996,2.1105 1.3998,3.5319 -2e-4,1.4215 -0.4668,2.6212 -1.3998,3.599 -0.9333,0.978 -2.1106,1.467 -3.5319,1.4669 l -73.3317,0 c -1.4242,1e-4 -2.6029,-0.4889 -3.5359,-1.4669 -0.9332,-0.9778 -1.3998,-2.1775 -1.3998,-3.599 0,-1.4214 0.4666,-2.5987 1.3998,-3.5319 0.933,-0.9331 2.1117,-1.3997 3.5359,-1.3997 l 27.8646,0 c 0.7107,0 1.066,-0.4001 1.0661,-1.2004 l 0,-2.002 c -1e-4,-0.8002 -0.3554,-1.2002 -1.0661,-1.2003 l -23.7345,0 c -1.2425,10e-5 -2.3086,-0.4218 -3.1983,-1.2655 -0.8898,-0.8436 -1.3347,-1.8879 -1.3346,-3.1331 -10e-5,-1.2451 0.4448,-2.3118 1.3346,-3.2003 0.8897,-0.8883 1.9558,-1.3325 3.1983,-1.3326 l 23.7345,0 c 0.7107,10e-5 1.066,-0.3553 1.0661,-1.0661 l 0,-2.1362 c -1e-4,-0.7107 -0.3554,-1.066 -1.0661,-1.0661 l -28.2674,0 c -1.2425,10e-5 -2.3085,-0.4665 -3.1983,-1.3998 -0.8898,-0.933 -1.3346,-2.0222 -1.3346,-3.2674 0,-0.5316 -0.2659,-0.7092 -0.7975,-0.533 -5.7781,1.6901 -9.6002,2.7575 -11.4665,3.2023 -0.7134,0.1765 -1.0702,0.6199 -1.0701,1.3306 l 0,15.8691 c -10e-5,0.7108 0.3567,1.0662 1.0701,1.0661 l 3.4668,0 c 1.6872,10e-5 3.1311,0.5779 4.3315,1.7334 1.2003,1.1557 1.8005,2.5778 1.8005,4.2663 0,1.6888 -0.6002,3.1109 -1.8005,4.2664 -1.2004,1.1557 -2.6443,1.7335 -4.3315,1.7334 l -2.2664,0 c -0.7135,10e-5 -0.8925,0.3554 -0.5371,1.0661 1.7795,3.201 6.0017,11.2902 12.6668,24.2676 0.089,0.089 0.2007,0.1119 0.3337,0.067 0.1328,-0.045 0.1993,-0.1566 0.1994,-0.3357 l 0,-13.8631 c -1e-4,-2.0453 0.756,-3.8234 2.2684,-5.3345 1.5123,-1.5109 3.2898,-2.2663 5.3324,-2.2664 l 60.5347,0 c 2.0452,10e-5 3.801,0.7555 5.2673,2.2664 1.4661,1.5111 2.1992,3.2892 2.1993,5.3345 l 0,34.5296 c -1e-4,2.0453 -0.7332,3.8235 -2.1993,5.3345 -1.4663,1.5109 -3.2221,2.2664 -5.2673,2.2664 l -12.8011,0 c -0.1765,0 -0.2646,0.045 -0.2645,0.1343 -10e-5,0.089 0.043,0.179 0.1302,0.2685 8.7998,3.2878 16.223,6.4874 22.2697,9.5988 1.4213,0.7107 2.3097,1.7992 2.6652,3.2654 0.3552,1.4662 0.1775,2.9107 -0.5331,4.3335 -0.7108,1.4228 -1.7999,2.3343 -3.2674,2.7343 -1.4676,0.4002 -2.9122,0.2449 -4.3334,-0.4658 -6.4889,-3.2905 -13.3777,-6.3572 -20.6666,-9.2001 -1.9559,-0.7107 -3.3556,-2.0216 -4.1992,-3.9327 -0.8437,-1.911 -0.822,-3.8011 0.065,-5.6701 0.3553,-0.7107 0.1342,-1.0661 -0.6632,-1.0661 l -19.0674,0 c -0.5345,0 -0.7122,0.312 -0.533,0.9359 0.9764,1.6873 1.2646,3.4864 0.8646,5.3975 -0.4002,1.9111 -1.4439,3.3115 -3.1311,4.2012 -6.4915,3.7327 -14.0924,7.0218 -22.8027,9.8674 -1.511,0.4449 -3.022,0.3336 -4.5329,-0.3336 -1.511,-0.6674 -2.577,-1.7118 -3.1982,-3.1332 -0.624,-1.3346 -0.647,-2.6686 -0.069,-4.0018 0.5777,-1.3334 1.5787,-2.2224 3.0029,-2.6673 8.8867,-2.9324 16.4415,-6.132 22.6644,-9.5988 0.1789,-0.09 0.2685,-0.2231 0.2685,-0.4008 0,-0.1777 -0.09,-0.2665 -0.2685,-0.2665 l -5.3345,0 -6.7993,0 c -2.0427,0 -3.8202,-0.7555 -5.3325,-2.2664 -1.5123,-1.511 -2.2685,-3.2892 -2.2684,-5.3345 l 0,-14.1316 c -1e-4,-0.2658 -0.1106,-0.4659 -0.3316,-0.6002 -0.2212,-0.1343 -0.4212,-0.1119 -0.6002,0.067 l -1.0661,0.6673 c -1.6901,1.0661 -3.4682,1.3326 -5.3345,0.7996 -1.8664,-0.533 -3.1996,-1.6893 -3.9998,-3.4688 -0.7108,-1.511 -1.7768,-3.8656 -3.1982,-7.0638 -0.09,-0.09 -0.1792,-0.1343 -0.2686,-0.1343 -0.09,0 -0.1343,0.09 -0.1343,0.2685 l 0,45.8659 c 0,1.8663 -0.6443,3.4437 -1.9328,4.7322 -1.2885,1.2886 -2.8659,1.9328 -4.7323,1.9328 -1.8663,0 -3.4661,-0.6442 -4.7994,-1.9328 -1.3332,-1.2885 -1.9999,-2.8659 -1.9998,-4.7322 l 0,-33.6019 c -10e-5,-0.3553 -0.089,-0.3553 -0.2686,0 z m 43.0664,-19.6004 0,2.002 c -10e-5,0.8002 0.3566,1.2004 1.0701,1.2003 l 44.397,0 c 0.8001,10e-5 1.2002,-0.4001 1.2003,-1.2003 l 0,-2.002 c -10e-5,-0.8002 -0.4002,-1.2003 -1.2003,-1.2004 l -44.397,0 c -0.7135,10e-5 -1.0702,0.4002 -1.0701,1.2004 z m 0,12.6668 0,2.1362 c -10e-5,0.7108 0.3566,1.0662 1.0701,1.0662 l 44.397,0 c 0.8001,0 1.2002,-0.3554 1.2003,-1.0662 l 0,-2.1362 c -10e-5,-0.7106 -0.4002,-1.066 -1.2003,-1.066 l -44.397,0 c -0.7135,0 -1.0702,0.3554 -1.0701,1.066 z m 0,12.6668 0,2.1322 c -10e-5,0.7135 0.3566,1.0701 1.0701,1.0701 l 44.397,0 c 0.8001,0 1.2002,-0.3566 1.2003,-1.0701 l 0,-2.1322 c -10e-5,-0.8002 -0.4002,-1.2003 -1.2003,-1.2003 l -44.397,0 c -0.7135,0 -1.0702,0.4001 -1.0701,1.2003 z"
     id="path2831"
     style="font-size:200px;font-style:normal;font-weight:normal;text-align:center;text-anchor:middle;fill:#000000;fill-opacity:1;stroke:none;font-family:'Rounded M+ 1p medium';-inkscape-font-specification:'Rounded M+ 1p medium'"
     sodipodi:nodetypes="ccccccccccscccssccccccccccccccccccccccccccccccccccccccccccccscccccccccccccccccccccccccscccccccsccccccsccccccsccccscccccccccccccsccccccccccssscsccccccccccccccccccccccccccccccc" /><path
     inkscape:connector-curvature="0"
     d="m 505.8632,1419.4321 c 0.2093,-9.7069 3.2051,-17.5693 9.0136,-23.5871 6.2925,-6.5411 14.6258,-9.8116 25.0262,-9.8116 9.3275,0 16.7843,2.8519 22.3704,8.5819 5.6908,5.6645 8.5296,13.3176 8.5296,22.9461 0,12.7682 -4.6311,21.7818 -13.8802,27.0538 10.5574,5.717 15.8164,15.607 15.8164,29.7096 0,11.787 -2.9566,20.8922 -8.8697,27.3286 -5.9131,6.2664 -14.3119,9.3799 -25.2224,9.3799 -11.4338,0 -20.212,-3.9769 -26.2951,-11.9178 -5.5992,-7.3653 -8.3857,-17.5301 -8.3857,-30.4683 l 17.0591,0 c 0,8.3072 1.5176,14.7697 4.5788,19.4008 3.0219,4.7619 7.3652,7.1167 13.0429,7.1167 5.2328,0 9.3406,-1.7268 12.2449,-5.2198 3.192,-3.6892 4.7618,-8.8958 4.7618,-15.6201 0,-7.1559 -1.5698,-12.4803 -4.7618,-15.9471 -3.1267,-3.6892 -7.8493,-5.5337 -14.1288,-5.5337 l -8.7911,0 0,-15.8295 8.7911,0 c 5.3375,0 9.4323,-1.5829 12.2711,-4.6965 3.1397,-3.3621 4.6834,-8.2679 4.6834,-14.7566 0,-4.291 -1.2951,-7.8886 -3.9116,-10.8059 -2.7341,-3.2575 -6.2401,-4.8665 -10.518,-4.8665 -5.0628,0 -8.9744,1.609 -11.8001,4.8665 -2.7342,3.022 -4.2386,7.2475 -4.5657,12.6766 l -17.0591,0"
     style="fill:#000000;fill-opacity:1;fill-rule:nonzero;stroke:none"
     id="path4272" /><path
     inkscape:connector-curvature="0"
     style="fill:#ffffff;fill-opacity:1;stroke:#ed1c23;stroke-opacity:1;stroke-width:5;stroke-miterlimit:4;stroke-dasharray:none"
     d="M 2.7,502.70005 C 2.7,226.55767 226.55763,2.7 502.7,2.7 c 276.14238,0 500,223.85767 500,500.00005 0,276.14237 -223.85762,499.99995 -500,499.99995 -276.14237,0 -500,-223.85758 -500,-499.99995 z"
     id="path3854" /><path
     id="path14622"
     d="M 968.075,502.70005 C 968.075,245.68053 759.71952,37.325 502.7,37.325 c -257.01953,0 -465.374999,208.35553 -465.374999,465.37505 0,257.01952 208.355469,465.37499 465.374999,465.37499 257.01952,0 465.375,-208.35547 465.375,-465.37499 z"
     style="fill:#ed1c23;fill-opacity:1;stroke:none"
     inkscape:connector-curvature="0" /><path
     id="path15520"
     d="m 835.55,502.70004 c 0,-183.82797 -149.02204,-332.85 -332.85,-332.85 -183.82798,0 -332.85,149.02203 -332.85,332.85 0,183.82797 149.02202,332.84999 332.85,332.84999 183.82796,0 332.85,-149.02202 332.85,-332.84999 z"
     style="fill:#ffffff;fill-opacity:1;stroke:none"
     inkscape:connector-curvature="0" /><path
     style="fill:#ed1c23;fill-opacity:1;stroke:none"
     d="M 783.75726,851.49813 851.49809,783.7573 221.64272,153.90194 153.90189,221.64277 z"
     id="path3011"
     inkscape:connector-curvature="0"
     sodipodi:nodetypes="ccccc" /><path
     inkscape:connector-curvature="0"
     d="m 254.42851,576.46526 c -10.50178,0 -19.10851,-8.52776 -19.10851,-19.1085 l 0,-171.93706 c 0,-10.58075 8.60673,-19.10851 19.10851,-19.10851 l 335.70169,0 c 10.62022,0 19.18746,8.52776 19.18746,19.10851 l 0,43.94166 c 0,8.84361 7.26439,16.02904 16.02904,16.02904 l 51.67982,0 c 6.04049,0 13.2654,4.77712 15.63423,10.89658 2.44778,6.11946 16.85812,34.03209 19.22694,39.36194 2.44779,5.32985 4.50077,10.02802 10.02802,10.02802 l 10.2649,0 c 6.71166,0 11.40983,9.19893 12.19944,12.15996 0.83067,3.07947 13.69969,56.77278 13.69969,56.77278 0,2.56781 2.13194,4.65869 4.65869,4.65869 l 2.6436,0 c 2.60571,0 4.69817,2.05298 4.69817,4.6192 l 0,17.9241 -44.6918,0 0,0.28426 c 0,20.41135 -16.58176,36.99311 -37.03259,36.99311 -20.45084,0 -37.07208,-16.58176 -37.07208,-36.99311 l 0,-0.28426 -215.79977,0 0,0.28426 c 0,20.41135 -16.62124,36.99311 -37.11156,36.99311 -20.45083,0 -36.95364,-16.58176 -36.95364,-36.99311 l 0,-0.28426 -63.44497,0 c -5.60621,0 -10.18594,-4.57973 -10.18594,-10.18594 l 0,-15.12099 -33.36092,-0.0316 z"
     style="fill:#ffffff;fill-opacity:1;fill-rule:nonzero;stroke:#ffffff;stroke-width:20;stroke-miterlimit:4;stroke-opacity:1;stroke-dasharray:none"
     id="path3345"
     sodipodi:nodetypes="cssssssssccssccsssccsssccssscssccc" /><path
     id="path14427-9"
     style="fill:#0066b3;fill-opacity:1;fill-rule:nonzero;stroke:none"
     d="m 254.42851,576.46526 c -10.50178,0 -19.10851,-8.52776 -19.10851,-19.1085 l 0,-171.93706 c 0,-10.58075 8.60673,-19.10851 19.10851,-19.10851 l 335.70169,0 c 10.62022,0 19.18746,8.52776 19.18746,19.10851 l 0,43.94166 c 0,8.84361 7.26439,16.02904 16.02904,16.02904 l 51.67982,0 c 6.04049,0 13.2654,4.77712 15.63423,10.89658 2.44778,6.11946 16.85812,34.03209 19.22694,39.36194 2.44779,5.32985 4.50077,10.02802 10.02802,10.02802 l 10.2649,0 c 6.71166,0 11.40983,9.19893 12.19944,12.15996 0.83067,3.07947 13.69969,56.77278 13.69969,56.77278 0,2.56781 2.13194,4.65869 4.65869,4.65869 l 2.6436,0 c 2.60571,0 4.69817,2.05298 4.69817,4.6192 l 0,17.9241 -44.6918,0 0,0.28426 c 0,20.41135 -16.58176,36.99311 -37.03259,36.99311 -20.45084,0 -37.07208,-16.58176 -37.07208,-36.99311 l 0,-0.28426 -215.79977,0 0,0.28426 c 0,20.41135 -16.62124,36.99311 -37.11156,36.99311 -20.45083,0 -36.95364,-16.58176 -36.95364,-36.99311 l 0,-0.28426 -63.44497,0 c -5.60621,0 -10.18594,-4.57973 -10.18594,-10.18594 l 0,-15.12099 -33.36092,-0.0316 z m 423.38761,-113.7035 -4.77712,0 0,37.46689 26.53081,0 -10.14645,-24.04356 c -2.56465,-7.69867 -5.96154,-12.79164 -11.60724,-13.42333 m -13.89709,0 -25.85965,0 0,37.46689 25.85965,0 0,-37.46689"
     inkscape:connector-curvature="0" /></svg>