<?xml version="1.0" encoding="UTF-8" standalone="no"?>
<!-- Created with Inkscape (http://www.inkscape.org/) -->

<svg
   xmlns:svg="http://www.w3.org/2000/svg"
   xmlns="http://www.w3.org/2000/svg"
   version="1.2"
   width="150.78127"
   height="598.53296"
   id="svg1890">
  <defs
     id="defs1893" />
  <path
     d="m 150.78126,544.90641 c 0.003,1.45349 -0.74444,2.88855 -1.9375,3.71875 l -70.875001,49.125 c -1.50211,1.0437 -3.65414,1.0437 -5.15625,0 l -70.875,-49.125 c -1.19306,-0.8302 -1.9405,-2.26526 -1.9375000028411,-3.71875 l 0,-491.249998 C -0.002991,52.202922 0.744449,50.767862 1.937509,49.937662 l 70.875,-49.1249997 c 0.76329,-0.53252 1.69434,-0.8205 2.625,-0.81249999969 C 76.336899,0.0109623 77.231109,0.2979723 77.968759,0.8126623 L 148.84376,49.937662 c 1.19306,0.8302 1.9405,2.26526 1.9375,3.71875 l 0,491.249998 z"
     id="path4156-6"
     style="font-size:medium;font-style:normal;font-variant:normal;font-weight:normal;font-stretch:normal;text-indent:0;text-align:start;text-decoration:none;line-height:normal;letter-spacing:normal;word-spacing:normal;text-transform:none;direction:ltr;block-progression:tb;writing-mode:lr-tb;text-anchor:start;color:#000000;fill:#ffffff;fill-opacity:1;fill-rule:nonzero;stroke:none;stroke-width:9.03556442;marker:none;visibility:visible;display:inline;overflow:visible;enable-background:accumulate;font-family:Bitstream Vera Sans;-inkscape-font-specification:Bitstream Vera Sans" />
  <path
     d="m 147.62501,542.78141 0,-486.999998 c 0.005,-1.4297 -0.73093,-2.84218 -1.90625,-3.65625 L 77.906259,5.1251623 c -0.72132,-0.49697 -1.59285,-0.77325 -2.46875,-0.78125 -0.90714,-0.0104 -1.81546,0.26653 -2.5625,0.78125 L 5.062509,52.125162 c -1.17532,0.81407 -1.91125,2.22655 -1.90625,3.65625 l 0,486.999998 c -0.005,1.4297 0.73093,2.84218 1.90625,3.65625 l 67.8125,47 c 1.46773,1.01359 3.56352,1.01359 5.03125,0 l 67.812501,-47 c 1.17532,-0.81407 1.91174,-2.22655 1.90625,-3.65625 z"
     id="path4156-9"
     style="font-size:medium;font-style:normal;font-variant:normal;font-weight:normal;font-stretch:normal;text-indent:0;text-align:start;text-decoration:none;line-height:normal;letter-spacing:normal;word-spacing:normal;text-transform:none;direction:ltr;block-progression:tb;writing-mode:lr-tb;text-anchor:start;color:#000000;fill:#0066b3;fill-opacity:1;fill-rule:nonzero;stroke:none;stroke-width:8.8530283;marker:none;visibility:visible;display:inline;overflow:visible;enable-background:accumulate;font-family:Bitstream Vera Sans;-inkscape-font-specification:Bitstream Vera Sans" />
  <path
     d="m 139.37501,512.90641 c 0,3.6574 -2.48016,6.0085 -5.5625,6.625 l -53.843751,20.75 c -5.10805,1.8347 -7.47831,0.96845 -9.84375,0.0937 l -53.15625,-20.8437 c -3.50351,-1.2329 -5.5625,-2.9675 -5.5625,-6.625 l 0,-427.249998 c 0,-3.65746 2.05899,-5.36083 5.5625,-6.59375 l 53.15625,-20.875 c 1.18272,-0.43748 2.374,-0.88003 3.90625,-0.96875 1.53225,-0.0887 3.38347,0.1764 5.9375,1.09375 l 53.843751,20.75 c 3.08234,0.61646 5.5625,2.93629 5.5625,6.59375 l 0,427.249998 z"
     id="rect3644-5-3-5"
     style="color:#000000;fill:#ffffff;fill-opacity:1;fill-rule:nonzero;stroke:none;stroke-width:0;marker:none;visibility:visible;display:inline;overflow:visible;enable-background:accumulate" />
  <g
     id="text2926"
     style="font-size:46.5847168px;font-style:normal;font-weight:normal;text-align:center;text-anchor:middle;fill:#0066b3;fill-opacity:1;stroke:none;font-family:'Rounded M+ 1m medium';-inkscape-font-specification:'Rounded M+ 1m medium'">
    <path
       d="m 110.78885,135.14529 c 0.65175,0.62533 0.97767,1.39989 0.97774,2.32369 -7e-5,0.92388 -0.32599,1.69844 -0.97774,2.32369 -0.6519,0.62533 -1.41237,0.93797 -2.28139,0.93794 l -68.481728,0 c -0.869109,3e-5 -1.629574,-0.31261 -2.281397,-0.93794 -0.651831,-0.62525 -0.977745,-1.39981 -0.977741,-2.32369 -4e-6,-0.9238 0.32591,-1.69836 0.977741,-2.32369 0.651823,-0.62525 1.412288,-0.93789 2.281397,-0.93794 l 28.859551,0 c 0.434516,5e-5 0.651792,-0.24377 0.651828,-0.73144 l 0,-2.04007 c -3.6e-5,-0.48924 -0.217312,-0.73388 -0.651828,-0.73393 l -23.314039,0 c -0.870773,5e-5 -1.605115,-0.28523 -2.203028,-0.85583 -0.597933,-0.57051 -0.896894,-1.29034 -0.896885,-2.15949 -9e-6,-0.86906 0.298952,-1.58889 0.896885,-2.15949 0.597913,-0.57051 1.332255,-0.85579 2.203028,-0.85584 l 23.314039,0 c 0.434516,5e-5 0.651792,-0.24459 0.651828,-0.73393 l 0,-2.03758 c -3.6e-5,-0.48923 -0.217312,-0.73387 -0.651828,-0.73393 l -25.923838,0 c -0.923846,6e-5 -1.711677,-0.32627 -2.363497,-0.97898 -0.651835,-0.6526 -0.977748,-1.44085 -0.977742,-2.36475 -6e-6,-0.92377 0.325907,-1.72529 0.977742,-2.40454 0.65182,-0.67914 1.439651,-1.01873 2.363497,-1.01879 l 25.923838,0 c 0.434516,6e-5 0.651792,-0.21722 0.651828,-0.65183 -3.6e-5,-1.19579 0.43493,-2.22867 1.304899,-3.09867 0.869895,-0.86987 1.930151,-1.30484 3.18077,-1.3049 l 0.487627,0 c 1.250539,6e-5 2.310794,0.43503 3.180771,1.3049 0.869888,0.87 1.304854,1.90288 1.304899,3.09867 -4.5e-5,0.43461 0.21723,0.65189 0.651828,0.65183 l 25.923835,0 c 0.92377,6e-5 1.7116,0.33965 2.3635,1.01879 0.65175,0.67925 0.97767,1.48077 0.97774,2.40454 -7e-5,0.9239 -0.32599,1.71215 -0.97774,2.36475 -0.6519,0.65271 -1.43973,0.97904 -2.3635,0.97898 l -25.923835,0 c -0.434598,6e-5 -0.651873,0.2447 -0.651828,0.73393 l 0,2.03758 c -4.5e-5,0.48934 0.21723,0.73398 0.651828,0.73393 l 23.314035,0 c 0.8707,5e-5 1.60504,0.28533 2.20303,0.85584 0.59785,0.5706 0.89681,1.29043 0.89689,2.15949 -8e-5,0.86915 -0.29904,1.58898 -0.89689,2.15949 -0.59799,0.5706 -1.33233,0.85588 -2.20303,0.85583 l -23.314035,0 c -0.434598,5e-5 -0.651873,0.24469 -0.651828,0.73393 l 0,2.04007 c -4.5e-5,0.48767 0.21723,0.73149 0.651828,0.73144 l 28.859555,0 c 0.86902,5e-5 1.62949,0.31269 2.28139,0.93794 z m -19.564782,39.82369 c 1.630339,0 2.581128,-0.0949 2.852368,-0.28486 0.27112,-0.18991 0.40671,-0.85542 0.406771,-1.99654 l 0,-1.30365 c -6.1e-5,-0.48928 -0.243875,-0.73392 -0.731441,-0.73393 l -38.970344,0 c -0.487648,1e-5 -0.731461,0.24465 -0.731441,0.73393 l 0,6.60286 c -2e-5,1.25058 -0.434986,2.31042 -1.304899,3.17953 -0.869952,0.8691 -1.902841,1.30365 -3.09867,1.30366 -1.250596,-1e-5 -2.32412,-0.44825 -3.220577,-1.34471 -0.896482,-0.89647 -1.344717,-1.94263 -1.344705,-3.13848 l 0,-29.59347 c -1.2e-5,-1.25056 0.461906,-2.33776 1.385756,-3.26163 0.923823,-0.92381 2.011031,-1.38573 3.261626,-1.38576 l 49.076164,0 c 1.250514,3e-5 2.337724,0.46195 3.261624,1.38576 0.92377,0.92387 1.38569,2.01107 1.38576,3.26163 l 0,24.29426 c -7e-5,4.40191 -0.59799,7.10583 -1.79377,8.11178 -1.19592,1.00593 -4.348072,1.5089 -9.456481,1.5089 -1.195904,0 -3.967413,-0.0821 -8.314536,-0.2463 -1.033354,-0.0531 -1.916969,-0.44658 -2.650849,-1.1805 -0.733975,-0.73394 -1.127476,-1.61755 -1.180505,-2.65085 -0.05478,-0.97857 0.284402,-1.82114 1.017548,-2.5277 0.733051,-0.70656 1.588885,-1.03247 2.567505,-0.97774 3.587487,0.16254 6.115183,0.24381 7.583096,0.24381 z m -37.174087,-23.72205 0,2.28139 c -2e-5,0.43624 0.243793,0.65434 0.731441,0.65432 l 38.970344,0 c 0.487566,2e-5 0.73138,-0.21808 0.731441,-0.65432 l 0,-2.28139 c -6.1e-5,-0.48926 -0.243875,-0.7339 -0.731441,-0.73393 l -38.970344,0 c -0.487648,3e-5 -0.731461,0.24467 -0.731441,0.73393 z m 0.731441,13.12612 38.970344,0 c 0.487566,1e-5 0.73138,-0.2181 0.731441,-0.65432 l 0,-2.52521 c -6.1e-5,-0.43454 -0.243875,-0.65181 -0.731441,-0.65183 l -38.970344,0 c -0.487648,2e-5 -0.731461,0.21729 -0.731441,0.65183 l 0,2.52521 c -2e-5,0.43622 0.243793,0.65433 0.731441,0.65432 z"
       id="path2937"
       style="font-size:81.52325439px;fill:#0066b3" />
    <path
       d="m 48.994584,279.23903 0,0.65183 c -1.5e-5,1.19585 -0.407615,2.21505 -1.222799,3.05762 -0.815213,0.84256 -1.820735,1.26384 -3.016569,1.26385 -1.195857,-1e-5 -2.215063,-0.42129 -3.05762,-1.26385 -0.842574,-0.84257 -1.263856,-1.86177 -1.263849,-3.05762 l 0,-44.34917 c -7e-6,-1.1958 0.421275,-2.215 1.263849,-3.05762 0.842557,-0.84252 1.861763,-1.2638 3.05762,-1.26384 1.195834,4e-5 2.201356,0.42132 3.016569,1.26384 0.815184,0.84262 1.222784,1.86182 1.222799,3.05762 l 0,34.56678 c -1.5e-5,0.43456 0.21726,0.65183 0.651828,0.65183 l 19.403072,0 c 0.489249,0 0.733892,-0.21727 0.733928,-0.65183 l 0,-53.15382 c -3.6e-5,-1.19578 0.448199,-2.24194 1.344706,-3.13848 0.896432,-0.8964 1.942589,-1.34464 3.138476,-1.3447 1.195805,6e-5 2.241963,0.4483 3.138476,1.3447 0.896426,0.89654 1.344661,1.9427 1.344706,3.13848 l 0,53.15382 c -4.5e-5,0.43456 0.244597,0.65183 0.733928,0.65183 l 19.403072,0 c 0.434486,0 0.651762,-0.21727 0.651828,-0.65183 l 0,-34.56678 c -6.6e-5,-1.1958 0.407533,-2.215 1.222796,-3.05762 0.81513,-0.84252 1.82066,-1.2638 3.01657,-1.26384 1.19578,4e-5 2.21498,0.42132 3.05762,1.26384 0.84249,0.84262 1.26378,1.86182 1.26385,3.05762 l 0,44.34917 c -7e-5,1.19585 -0.42136,2.21505 -1.26385,3.05762 -0.84264,0.84256 -1.86184,1.26384 -3.05762,1.26385 -1.19591,-1e-5 -2.20144,-0.42129 -3.01657,-1.26385 -0.815263,-0.84257 -1.222862,-1.86177 -1.222796,-3.05762 l 0,-0.65183 c -6.6e-5,-0.48928 -0.217342,-0.73392 -0.651828,-0.73392 l -49.240364,0 c -0.434568,0 -0.651843,0.24464 -0.651828,0.73392 z"
       id="path2939"
       style="font-size:81.52325439px;fill:#0066b3" />
    <path
       d="m 41.819503,318.4507 c 0.816019,-0.70649 1.780906,-1.03241 2.894662,-0.97774 1.113735,0.0548 2.051254,0.46198 2.812563,1.22156 2.499486,2.60903 5.298362,5.62601 8.396636,9.05095 0.706538,0.75969 1.019183,1.66943 0.937936,2.72922 -0.08129,1.05989 -0.502578,1.94309 -1.26385,2.6496 -0.814391,0.70661 -1.738228,1.00557 -2.771512,0.89689 -1.033323,-0.10859 -1.903255,-0.54273 -2.609799,-1.30241 -1.900764,-2.06656 -4.753545,-5.05618 -8.558349,-8.96885 -0.706569,-0.76124 -1.046166,-1.65813 -1.018792,-2.69066 0.02736,-1.03242 0.420861,-1.90193 1.180505,-2.60856 z m 10.190407,59.51288 c -2.336977,2.33696 -5.053752,4.64655 -8.150336,6.92878 -0.870771,0.65182 -1.849341,0.85541 -2.935712,0.61077 -1.086386,-0.24464 -1.901585,-0.85542 -2.445599,-1.83233 -0.544023,-1.03331 -0.680028,-2.10725 -0.408014,-3.22182 0.272005,-1.11457 0.897294,-2.02514 1.875871,-2.73171 2.227484,-1.57566 4.618346,-3.53197 7.172593,-5.86893 0.271996,-0.21727 0.408001,-0.57055 0.408015,-1.05985 l 0,-18.42284 c -1.4e-5,-0.48926 -0.21729,-0.7339 -0.651828,-0.73393 l -5.625125,0 c -1.033311,3e-5 -1.903243,-0.33956 -2.609799,-1.01879 -0.706565,-0.67916 -1.059846,-1.53541 -1.059842,-2.56875 -4e-6,-1.03327 0.353277,-1.91647 1.059842,-2.6496 0.706556,-0.73307 1.576488,-1.09961 2.609799,-1.09965 l 10.026206,0 c 1.250562,4e-5 2.33777,0.46195 3.261627,1.38576 0.923815,0.92387 1.385734,2.01024 1.385756,3.25913 l 0,20.0549 c -2.2e-5,0.43457 0.135982,0.86995 0.408014,1.30615 1.358365,2.2275 3.056765,3.89853 5.095204,5.0131 2.038383,1.11458 5.068633,1.92978 9.090758,2.4456 4.022052,0.51582 9.755808,0.77373 17.201288,0.77373 l 19.320972,0 c 0.9785,0 1.82106,0.38065 2.5277,1.14195 0.70648,0.76129 1.0324,1.63122 0.97774,2.60979 -0.0548,1.03165 -0.46283,1.88707 -1.22404,2.56627 -0.76137,0.67918 -1.65784,1.01878 -2.68942,1.01879 l -19.320967,0 c -9.999712,-10e-6 -17.567873,-0.57056 -22.704505,-1.71167 -5.136694,-1.14112 -9.00868,-3.1787 -11.615969,-6.11275 -0.326762,-0.38148 -0.653505,-0.40884 -0.980229,-0.0821 z m 56.08953,-58.94066 c -7e-5,2.44483 -0.97864,4.26513 -2.93571,5.46092 -2.60904,1.63046 -5.924568,3.45076 -9.946595,5.46093 -0.05314,0.0548 -0.07967,0.1232 -0.07961,0.20525 -6.1e-5,0.0822 0.02648,0.1232 0.07961,0.12315 l 8.234925,0 c 1.25051,5e-5 2.33772,0.46197 3.26163,1.38575 0.92376,0.92389 1.38568,2.01027 1.38575,3.25914 l 0,30.40951 c -7e-5,4.29245 -0.43504,6.90101 -1.3049,7.82567 -0.87,0.92467 -3.28865,1.387 -7.255936,1.387 -0.434618,0 -1.684368,-0.0547 -3.749254,-0.1642 -0.978632,-0.0547 -1.807514,-0.40801 -2.486648,-1.05985 -0.679254,-0.65182 -1.046218,-1.46702 -1.100893,-2.4456 -0.05479,-0.86909 0.230486,-1.62997 0.855835,-2.28264 0.62523,-0.65264 1.399793,-0.9516 2.323692,-0.89688 1.086316,0.0547 2.064886,0.0821 2.935713,0.0821 0.706496,1e-5 1.114095,-0.10863 1.222799,-0.32591 0.108572,-0.21727 0.16289,-0.9512 0.162957,-2.20179 l 0,-3.50544 c -6.7e-5,-0.43453 -0.218172,-0.65181 -0.654316,-0.65183 l -10.270019,0 c -0.434607,2e-5 -0.651883,0.2173 -0.651828,0.65183 l 0,8.56084 c -5.5e-5,1.08639 -0.394385,2.02349 -1.182993,2.81132 -0.788714,0.78783 -1.726234,1.18175 -2.812562,1.18174 -1.086429,1e-5 -2.023949,-0.39391 -2.812562,-1.18174 -0.788709,-0.78783 -1.18304,-1.72493 -1.182993,-2.81132 l 0,-8.56084 c -4.7e-5,-0.43453 -0.217323,-0.65181 -0.651828,-0.65183 l -9.618192,0 c -0.436246,2e-5 -0.654351,0.2173 -0.654315,0.65183 l 0,8.88675 c -3.6e-5,1.14112 -0.393952,2.10559 -1.181749,2.89342 -0.787866,0.78784 -1.752338,1.18175 -2.893419,1.18175 -1.141144,0 -2.105615,-0.39391 -2.893418,-1.18175 -0.787861,-0.78783 -1.181777,-1.7523 -1.181749,-2.89342 l 0,-35.70872 c -2.8e-5,-1.24887 0.448207,-2.33525 1.344705,-3.25914 0.896441,-0.92378 1.969966,-1.3857 3.220577,-1.38575 l 7.824421,0 c 0.109427,5e-5 0.177844,-0.0547 0.205251,-0.1642 0.02733,-0.10942 0.01364,-0.19069 -0.04105,-0.24382 -0.326783,-0.21722 -0.829751,-0.52987 -1.508907,-0.93793 -0.679232,-0.40796 -1.1822,-0.72061 -1.508906,-0.93794 -0.86914,-0.59704 -1.344327,-1.39855 -1.425562,-2.40454 -0.08131,-1.00589 0.231338,-1.8895 0.937935,-2.65085 0.107772,-0.10776 0.134724,-0.20229 0.08086,-0.28362 -0.05394,-0.0812 -0.135626,-0.12185 -0.245057,-0.12191 l -6.92878,0 c -0.923866,6e-5 -1.725381,-0.35322 -2.404548,-1.05984 -0.679221,-0.7065 -1.018818,-1.52212 -1.018792,-2.44684 -2.6e-5,-0.92461 0.339571,-1.72654 1.018792,-2.4058 0.679167,-0.67913 1.480682,-1.01872 2.404548,-1.01879 l 41.577651,0 c 0.92377,7e-5 1.73896,0.33966 2.4456,1.01879 0.70649,0.67926 1.05977,1.48161 1.05984,2.40704 z m -38.888243,18.42284 0,4.56528 c -3.6e-5,0.43459 0.218069,0.65187 0.654315,0.65183 l 9.618192,0 c 0.434505,4e-5 0.651781,-0.21724 0.651828,-0.65183 l 0,-4.56528 c -4.7e-5,-0.43451 -0.217323,-0.65178 -0.651828,-0.65183 l -9.618192,0 c -0.436246,5e-5 -0.654351,0.21732 -0.654315,0.65183 z m 0.654315,17.4451 9.618192,0 c 0.434505,3e-5 0.651781,-0.21725 0.651828,-0.65182 l 0,-4.727 c -4.7e-5,-0.43452 -0.217323,-0.6518 -0.651828,-0.65183 l -9.618192,0 c -0.436246,3e-5 -0.654351,0.21731 -0.654315,0.65183 l 0,4.727 c -3.6e-5,0.43457 0.218069,0.65185 0.654315,0.65182 z m 29.837293,-0.65182 0,-4.727 c -6.7e-5,-0.43452 -0.218172,-0.6518 -0.654316,-0.65183 l -10.270019,0 c -0.434607,3e-5 -0.651883,0.21731 -0.651828,0.65183 l 0,4.727 c -5.5e-5,0.43457 0.217221,0.65185 0.651828,0.65182 l 10.270019,0 c 0.436144,3e-5 0.654249,-0.21725 0.654316,-0.65182 z m 0,-12.228 0,-4.56528 c -6.7e-5,-0.43451 -0.218172,-0.65178 -0.654316,-0.65183 l -10.270019,0 c -0.434607,5e-5 -0.651883,0.21732 -0.651828,0.65183 l 0,4.56528 c -5.5e-5,0.43459 0.217221,0.65187 0.651828,0.65183 l 10.270019,0 c 0.436144,4e-5 0.654249,-0.21724 0.654316,-0.65183 z M 84.3749,328.2331 c 3.098202,-1.41307 6.495,-3.20601 10.190407,-5.37883 0.05467,-0.0547 0.08204,-0.12267 0.0821,-0.204 -6.2e-5,-0.0812 -0.05479,-0.12185 -0.164201,-0.12191 l -19.074671,0 c -0.109509,6e-5 -0.177926,0.0407 -0.205251,0.12191 -0.02741,0.0813 -0.01372,0.14933 0.04105,0.204 2.501116,1.57572 5.163988,3.34213 7.988622,5.29921 0.326693,0.21733 0.70734,0.24387 1.141942,0.0796 z"
       id="path2941"
       style="font-size:81.52325439px;fill:#0066b3" />
    <path
       d="m 81.195374,429.72915 c -5.325791,5e-5 -10.352986,2.60902 -15.081603,7.82691 -4.728682,5.21798 -7.663563,11.7404 -8.804651,19.56727 -0.162566,1.14114 -0.66512,2.09193 -1.507663,2.85237 -0.842587,0.76049 -1.834426,1.14072 -2.975519,1.1407 -1.141131,2e-5 -2.092334,-0.3939 -2.853612,-1.18175 -0.761311,-0.78781 -1.141958,-1.75228 -1.141943,-2.89342 l 0,-32.9372 c -1.5e-5,-1.14106 0.407584,-2.11921 1.222799,-2.93447 0.815182,-0.81514 1.793752,-1.22274 2.935713,-1.2228 1.141922,6e-5 2.120492,0.39439 2.935713,1.18299 0.815176,0.78872 1.222775,1.75361 1.222799,2.89466 l 0,14.02176 c -2.4e-5,0.10786 0.02651,0.16176 0.07961,0.16172 0.109443,4e-5 0.164177,-0.0265 0.164201,-0.0796 2.880952,-5.38044 6.427439,-9.4838 10.639471,-12.3101 4.211963,-2.82618 8.872195,-4.2393 13.980711,-4.23936 6.52154,6e-5 11.616738,2.30965 15.28561,6.92878 3.66875,4.61923 5.50315,11.14082 5.50322,19.56478 -7e-5,12.55558 -3.396871,21.89015 -10.190409,28.00372 -6.793657,6.11358 -17.473339,9.38847 -32.039077,9.82468 -1.033331,0.0531 -1.957582,-0.30062 -2.772756,-1.06108 -0.815223,-0.76047 -1.24936,-1.68389 -1.302412,-2.77027 -0.05476,-1.03331 0.271157,-1.9306 0.977742,-2.6919 0.706537,-0.76129 1.603006,-1.16848 2.689412,-1.22156 12.066238,-0.38147 20.69424,-2.93612 25.884031,-7.66395 5.189685,-4.72781 7.784555,-12.20101 7.784615,-22.41964 -6e-5,-6.03227 -1.086854,-10.59755 -3.260383,-13.69585 -2.173643,-3.0982 -5.298848,-4.64733 -9.375622,-4.64738 z"
       id="path2943"
       style="font-size:81.52325439px;fill:#0066b3" />
  </g>
</svg>
