<?xml version="1.0" encoding="UTF-8" standalone="no"?>
<!-- Created with Inkscape (http://www.inkscape.org/) -->

<svg
   xmlns:svg="http://www.w3.org/2000/svg"
   xmlns="http://www.w3.org/2000/svg"
   version="1.0"
   width="500"
   height="280"
   id="svg4203">
  <rect
     width="497.5"
     height="277.5"
     x="2.5"
     y="2.5"
     id="rect2870"
     style="color:#000000;fill:#0066b3;fill-opacity:1;fill-rule:nonzero;stroke:#ffffff;stroke-width:5;stroke-linecap:round;stroke-linejoin:round;stroke-miterlimit:4;stroke-opacity:1;stroke-dasharray:none;stroke-dashoffset:261;marker:none;visibility:visible;display:inline;overflow:visible;enable-background:accumulate" />
  <path
     d="m 0,140 500,0"
     id="path3646"
     style="fill:none;stroke:#ffffff;stroke-width:5;stroke-linecap:butt;stroke-linejoin:miter;stroke-miterlimit:4;stroke-opacity:1;stroke-dasharray:none" />
  <path
     d="m 143.92404,51.868828 c -0.47901,0.191921 -0.94666,0.191921 -1.40295,0 -0.45631,-0.191868 -0.7804,-0.552219 -0.97229,-1.081055 l -0.43286,-1.223877 c -0.28712,-0.864228 -0.25086,-1.704315 0.10876,-2.520263 0.35962,-0.815886 0.94738,-1.439909 1.76331,-1.872071 2.68798,-1.486781 4.58422,-3.382287 5.68872,-5.686523 0.19188,-0.38375 0.0718,-0.575644 -0.36035,-0.575684 l -4.24732,0 c -0.81592,4e-5 -1.51209,-0.288168 -2.0885,-0.864624 -0.57642,-0.576375 -0.86463,-1.272541 -0.86462,-2.088501 -1e-5,-0.815874 0.2882,-1.523759 0.86462,-2.123657 0.57641,-0.599808 1.27258,-0.899735 2.0885,-0.89978 l 8.85498,0 c 0.38378,4.5e-5 0.57567,-0.191849 0.57569,-0.575684 l 0,-1.87207 c -2e-5,-0.383741 -0.19191,-0.575635 -0.57569,-0.575684 l -6.40722,0 c -0.81593,4.9e-5 -1.50001,-0.276074 -2.05225,-0.828369 -0.55225,-0.552196 -0.82838,-1.236277 -0.82837,-2.052246 -1e-5,-0.815866 0.27612,-1.499947 0.82837,-2.052246 0.55224,-0.552192 1.23632,-0.828315 2.05225,-0.828369 l 6.40722,0 c 0.38378,5.4e-5 0.57567,-0.21601 0.57569,-0.648194 l 0,-0.648193 c -2e-5,-1.056096 0.37205,-1.944156 1.11621,-2.664185 0.74412,-0.719911 1.64426,-1.079896 2.70044,-1.079956 1.05613,6e-5 1.95627,0.360045 2.70044,1.079956 0.74411,0.720029 1.11618,1.608089 1.11621,2.664185 l 0,0.648193 c -3e-5,0.432184 0.19187,0.648248 0.57568,0.648194 l 6.76758,0 c 0.76901,5.4e-5 1.44137,0.276177 2.01709,0.828369 0.57565,0.552299 0.86349,1.23638 0.86352,2.052246 -3e-5,0.815969 -0.28787,1.50005 -0.86352,2.052246 -0.57572,0.552295 -1.24808,0.828418 -2.01709,0.828369 l -6.76758,0 c -0.38381,4.9e-5 -0.57571,0.191943 -0.57568,0.575684 l 0,1.87207 c -3e-5,0.383835 0.19187,0.575729 0.57568,0.575684 l 6.84009,0 c 1.10446,4.5e-5 2.06466,0.408004 2.88061,1.223877 0.81589,0.815961 1.22384,1.776165 1.22388,2.880615 l 0,0.648193 c -4e-5,0.38383 0.16769,0.575724 0.50317,0.575684 1.00778,0.09526 1.84787,0.514932 2.52027,1.259033 0.67232,0.744179 0.96016,1.620155 0.86352,2.62793 -4e-5,0.09672 -0.0121,0.205114 -0.0362,0.325195 -0.0242,0.120153 -0.0363,0.203649 -0.0363,0.250488 -4e-5,0.09672 0.0241,0.145055 0.0725,0.14502 0.0483,3.5e-5 0.0966,-0.02413 0.14502,-0.07251 l 0.79102,-1.223877 c 0.38375,-0.527306 0.87593,-0.839318 1.47656,-0.936035 0.60054,-0.09664 1.16451,0.04764 1.69189,0.432861 0.19186,0.09525 0.2878,0.04691 0.28785,-0.145019 0.19185,-2.063925 0.28779,-4.584187 0.28784,-7.560791 -5e-5,-0.383744 -0.19194,-0.575638 -0.57569,-0.575684 l -4.24731,0 c -0.91264,4.6e-5 -1.68094,-0.311966 -2.30493,-0.936035 -0.62406,-0.623976 -0.93607,-1.39192 -0.93604,-2.303833 -3e-5,-0.911815 0.31198,-1.679759 0.93604,-2.303833 0.62399,-0.623972 1.39229,-0.935983 2.30493,-0.936035 l 4.24731,0 c 0.43209,5.2e-5 0.64815,-0.216012 0.6482,-0.648194 l 0,-3.023437 c -5e-5,-0.959416 0.33577,-1.787418 1.00744,-2.484009 0.67159,-0.696474 1.48751,-1.04474 2.44776,-1.0448 0.96016,6e-5 1.78816,0.348326 2.48401,1.0448 0.69575,0.696591 1.04365,1.524593 1.0437,2.484009 l 0,3.023437 c -5e-5,0.432182 0.21601,0.648246 0.64819,0.648194 l 7.70581,0 c 1.10297,5.2e-5 2.06244,0.396292 2.87842,1.188721 0.81586,0.79253 1.22381,1.740283 1.22388,2.843261 0.0483,17.951691 0.57635,26.927512 1.58423,26.92749 0.2885,2.2e-5 0.55291,-2.111548 0.79321,-6.334716 0.0468,-0.720675 0.38226,-1.260836 1.00635,-1.620484 0.62395,-0.359589 1.24798,-0.371674 1.87207,-0.03625 1.77678,0.912626 2.5927,2.376736 2.44775,4.392334 -0.71931,8.879899 -3.28718,13.319836 -7.70361,13.319825 -1.34333,1.1e-5 -2.45917,-0.539783 -3.34754,-1.619385 -0.88848,-1.079576 -1.64471,-3.10765 -2.26867,-6.084229 -0.14362,-0.383769 -0.31134,-0.432109 -0.50318,-0.145019 l -0.50317,0.577881 c -0.67242,0.815936 -1.51251,1.223894 -2.52027,1.223877 -1.00786,1.7e-5 -1.82378,-0.407941 -2.44775,-1.223877 -0.48052,-0.624004 -1.17669,-1.464091 -2.0885,-2.520264 -0.91191,-1.05613 -1.44036,-1.656715 -1.58533,-1.801758 -0.28715,-0.287086 -0.47905,-0.238746 -0.57568,0.14502 -1.43999,3.74416 -3.52739,7.176285 -6.26221,10.296386 -0.76908,0.86427 -1.70548,1.284314 -2.8092,1.260132 -1.1038,-0.02416 -2.06364,-0.468372 -2.87952,-1.332641 l -1.00854,-1.078858 c -0.28861,-0.28856 -0.64823,-0.408677 -1.07886,-0.360351 -8.20901,1.19972 -16.87355,2.183361 -25.99365,2.950927 -0.8628,0.09669 -1.64246,-0.143177 -2.33899,-0.719604 -0.69654,-0.576404 -1.06898,-1.29674 -1.11731,-2.161011 -0.0952,-0.862778 0.13329,-1.630355 0.68554,-2.302734 0.55225,-0.672346 1.25976,-1.032698 2.12256,-1.081055 3.69726,-0.238752 6.62548,-0.478253 8.78467,-0.718506 0.33543,1.8e-5 0.50316,-0.240216 0.50318,-0.720703 l 0,-3.095947 c -2e-5,-0.432107 -0.19191,-0.648171 -0.57569,-0.648194 l -5.18335,0 c -0.95948,2.3e-5 -1.7992,-0.347877 -2.51916,-1.043701 -0.71998,-0.695776 -1.07997,-1.524144 -1.07996,-2.485107 l 0,-0.287842 c -1e-5,-0.191868 -0.0725,-0.239475 -0.21753,-0.142822 z m 3.81665,-1.584229 5.18335,0 c 0.38378,2.9e-5 0.57567,-0.216036 0.57569,-0.648193 l 0,-4.535156 c -2e-5,-0.288541 -0.096,-0.336881 -0.28785,-0.14502 -1.29493,1.776887 -3.16627,3.432892 -5.61401,4.968018 -0.0483,0.04837 -0.0604,0.120512 -0.0363,0.21643 0.0242,0.09598 0.0839,0.14395 0.17908,0.143921 z m 40.53516,-16.848633 c -5e-5,4.656779 -0.3355,8.953162 -1.00635,12.889161 -0.0484,0.335481 0.0717,0.67093 0.36035,1.006347 2.39936,2.496123 4.55927,4.944607 6.47974,7.345459 0.0468,0.04836 0.10651,0.06045 0.17908,0.03626 0.0725,-0.02415 0.1087,-0.08457 0.10876,-0.181274 -0.57574,-4.992159 -0.93609,-12.048304 -1.08105,-21.168457 -6e-5,-0.383744 -0.19195,-0.575638 -0.57569,-0.575684 l -3.81665,0 c -0.43218,4.6e-5 -0.64824,0.21611 -0.64819,0.648193 z m -22.823,6.049073 0,1.439209 c -3e-5,0.767615 0.0838,1.223547 0.25159,1.367798 0.16769,0.144323 0.77963,0.216466 1.83581,0.21643 1.05612,3.6e-5 1.70432,-0.1318 1.94458,-0.395508 0.2402,-0.263635 0.38449,-1.115441 0.43286,-2.555419 -3e-5,-0.43209 -0.19266,-0.648154 -0.57788,-0.648194 l -3.31128,0 c -0.38381,4e-5 -0.57571,0.191934 -0.57568,0.575684 z m 2.66309,8.206787 c -3.31204,3.1e-5 -5.44778,-0.07175 -6.40723,-0.215332 -0.38381,-0.09665 -0.57571,0.07108 -0.57568,0.503174 l 0,1.656738 c -3e-5,0.432157 0.19187,0.648222 0.57568,0.648193 l 7.92114,0 c 0.76755,2.9e-5 1.42709,0.264066 1.97864,0.792115 0.55148,0.528103 0.82724,1.175929 0.82727,1.943481 -3e-5,0.767603 -0.27579,1.427514 -0.82727,1.979736 -0.55155,0.552269 -1.21109,0.828392 -1.97864,0.828369 l -7.92114,0 c -0.38381,2.3e-5 -0.57571,0.216087 -0.57568,0.648194 l 0,2.375244 c -3e-5,0.383808 0.19187,0.575703 0.57568,0.575684 3.55222,-0.430645 6.4321,-0.790264 8.63965,-1.078858 0.67233,-0.09666 1.28463,0.08315 1.83691,0.539429 0.55221,0.456318 0.87594,1.020648 0.97119,1.692993 -3e-5,0.09523 0.0359,0.14284 0.10767,0.142822 0.0717,1.8e-5 0.1318,-0.02342 0.18018,-0.07031 2.68795,-2.832987 4.65596,-6.43357 5.90405,-10.801758 0.0966,-0.478975 6.9e-4,-0.814424 -0.28784,-1.006348 -1.10454,-1.009246 -2.13652,-1.873503 -3.09595,-2.592773 -0.28715,-0.240202 -0.59916,-0.192595 -0.93604,0.142822 -0.91117,0.864289 -3.21536,1.296418 -6.91259,1.296387 z m -10.29419,-8.782471 -1.29639,0 c -0.38381,4e-5 -0.62404,0.191934 -0.7207,0.575684 -0.2886,1.294959 -0.76833,2.543005 -1.43921,3.74414 -0.0967,0.09525 -0.10915,0.215001 -0.0374,0.359253 0.0718,0.144322 0.18016,0.216466 0.3252,0.216431 l 3.16846,0 c 0.38377,3.5e-5 0.57566,-0.21603 0.57568,-0.648193 l 0,-3.671631 c -2e-5,-0.38375 -0.19191,-0.575644 -0.57568,-0.575684 z m -13.68018,44.279297 c -0.76905,-0.480473 -1.21326,-1.176639 -1.33264,-2.088501 -0.11939,-0.911867 0.10876,-1.727418 0.68445,-2.446655 2.25585,-2.736326 4.17552,-5.280757 5.75903,-7.633301 0.5288,-0.76757 1.24913,-1.271476 2.16101,-1.511719 0.91185,-0.240225 1.79991,-0.144278 2.66419,0.287842 0.8159,0.432137 1.34361,1.08033 1.58313,1.94458 0.23948,0.864264 0.11973,1.680181 -0.35926,2.447754 -1.87208,2.928224 -3.8401,5.663817 -5.90405,8.206787 -0.62403,0.769038 -1.44032,1.225337 -2.44885,1.368897 -1.00856,0.143549 -1.94422,-0.04834 -2.80701,-0.575684 z m 18.79102,-1.94458 c -0.52737,-3.360351 -0.93533,-5.687985 -1.22388,-6.98291 -0.19192,-0.960932 -0.0117,-1.849359 0.54053,-2.665283 0.55222,-0.815911 1.30808,-1.271477 2.26758,-1.3667 1.05612,-0.145011 2.00424,0.08277 2.84436,0.68335 0.84005,0.600593 1.38021,1.404791 1.62048,2.412598 0.47897,2.304202 0.91037,4.656006 1.29419,7.05542 0.14499,1.007809 -0.0945,1.907589 -0.71851,2.69934 -0.62405,0.791743 -1.43997,1.235956 -2.44775,1.332642 -1.00784,0.09667 -1.92007,-0.155279 -2.7367,-0.755859 -0.81667,-0.600591 -1.29677,-1.404789 -1.4403,-2.412598 z m 16.92114,0.145019 c -1.00932,-2.687988 -1.96952,-5.063962 -2.88062,-7.127929 -0.38382,-0.864253 -0.37174,-1.716425 0.0363,-2.556519 0.40792,-0.84008 1.06746,-1.356071 1.97864,-1.547973 1.00777,-0.240226 1.97969,-0.144279 2.91577,0.287841 0.93599,0.432137 1.62007,1.127937 2.05224,2.087403 0.48043,1.104497 1.48897,3.576418 3.02564,7.415771 0.3354,0.912596 0.27497,1.776852 -0.18128,2.592774 -0.45634,0.815913 -1.16423,1.343988 -2.12365,1.584228 -1.00786,0.191889 -1.9677,0.0238 -2.87952,-0.504272 -0.91191,-0.528081 -1.55973,-1.271855 -1.94348,-2.231324 z m 13.10229,-11.880615 c 0.86421,-0.527334 1.77644,-0.707143 2.7367,-0.539428 0.96014,0.167734 1.75226,0.659554 2.37634,1.475463 2.0639,2.736334 4.00775,5.40015 5.83154,7.991455 0.52875,0.769043 0.69684,1.621215 0.50428,2.556519 -0.1927,0.935299 -0.69697,1.643184 -1.51282,2.123657 -0.81598,0.480464 -1.71576,0.612666 -2.69934,0.396607 -0.98371,-0.21607 -1.73993,-0.73206 -2.26868,-1.547974 -1.05621,-1.583498 -2.97589,-4.199706 -5.75903,-7.848633 -0.57574,-0.719233 -0.77972,-1.546869 -0.61194,-2.48291 0.16767,-0.936027 0.63532,-1.644278 1.40295,-2.124756 z"
     id="path2912"
     style="font-size:72px;font-style:normal;font-weight:normal;text-align:center;text-anchor:middle;fill:#ffffff;fill-opacity:1;stroke:none;font-family:'Rounded M+ 1p medium';-inkscape-font-specification:'Rounded M+ 1p medium'" />
  <path
     d="m 300.0925,33.220634 c -0.62404,0.719283 -1.40407,1.115157 -2.34009,1.187623 -0.93605,0.07255 -1.76369,-0.203203 -2.48291,-0.827271 -1.68019,-1.488235 -3.86427,-3.288526 -6.55225,-5.400879 -0.7207,-0.575633 -1.14111,-1.331491 -1.26123,-2.267578 -0.12012,-0.935982 0.13183,-1.76435 0.75586,-2.485107 0.62402,-0.767523 1.41613,-1.199285 2.37635,-1.295289 0.96019,-0.09589 1.82408,0.143978 2.59167,0.719605 3.1201,2.449272 5.30418,4.225393 6.55225,5.328369 0.76902,0.624073 1.17735,1.428272 1.22497,2.412598 0.0476,0.984422 -0.24062,1.860397 -0.86462,2.627929 z m -1.94458,16.918946 c -0.62404,0.720731 -1.40407,1.11697 -2.34009,1.18872 -0.93605,0.07181 -1.76368,-0.204318 -2.48291,-0.828369 -3.02345,-2.687957 -5.63965,-4.872037 -7.84863,-6.552246 -0.71924,-0.575648 -1.12684,-1.319422 -1.22278,-2.231323 -0.096,-0.911828 0.14392,-1.728111 0.7196,-2.448853 0.62402,-0.719198 1.40405,-1.138875 2.34009,-1.259033 0.93603,-0.120076 1.78784,0.107707 2.55542,0.68335 2.49608,1.823768 5.11229,3.960241 7.84863,6.409424 0.76757,0.670931 1.18724,1.486482 1.25904,2.446655 0.0718,0.960235 -0.20437,1.824126 -0.82837,2.591675 z m 0.14502,9.720703 c 0.91258,0.383807 1.58457,1.019915 2.01599,1.908325 0.43138,0.888444 0.47935,1.788223 0.14392,2.699341 -2.16066,6.096688 -4.7527,11.688723 -7.77612,16.776123 -0.52736,0.864254 -1.2953,1.39233 -2.30384,1.584228 -1.00855,0.19189 -1.94458,-4e-6 -2.8081,-0.575683 -0.86353,-0.575687 -1.39124,-1.355715 -1.58313,-2.340088 -0.1919,-0.984375 -0.0242,-1.908691 0.50317,-2.772949 2.92822,-4.847162 5.40014,-9.958729 7.41577,-15.334717 0.33544,-0.86424 0.93529,-1.488263 1.79956,-1.87207 0.86425,-0.38377 1.7285,-0.40794 2.59278,-0.07251 z m 49.75268,-19.799561 c -0.28864,4.271519 -0.64899,8.471222 -1.08105,12.599121 -7e-5,0.432155 0.16766,0.648219 0.50317,0.648194 l 0.72071,0 c 0.86419,2.5e-5 1.60833,0.312036 2.23242,0.936035 0.62395,0.624047 0.93596,1.368187 0.93603,2.232422 -7e-5,0.864279 -0.31208,1.608419 -0.93603,2.232422 -0.62409,0.624042 -1.36823,0.936054 -2.23242,0.936035 l -1.29639,0 c -0.38385,1.9e-5 -0.62336,0.216083 -0.71851,0.648193 -0.38385,3.407242 -0.7442,6.71925 -1.08105,9.936035 -6e-5,0.335458 0.16839,0.503182 0.50537,0.503174 l 0.57568,0 c 0.81586,8e-6 1.52374,0.312019 2.12366,0.936035 0.59979,0.62403 0.89971,1.344 0.89978,2.159912 -7e-5,0.815922 -0.29999,1.535892 -0.89978,2.159913 -0.59992,0.624025 -1.3078,0.936036 -2.12366,0.936035 l -1.29638,0 c -0.33698,10e-7 -0.55304,0.191896 -0.6482,0.575683 -0.0484,0.191896 -0.0964,0.491822 -0.14392,0.899781 -0.0477,0.407958 -0.0956,0.707885 -0.14392,0.89978 -0.33697,2.49609 -1.0694,4.188349 -2.19726,5.076782 -1.12799,0.888421 -3.08356,1.332635 -5.8667,1.332642 -1.92047,-7e-6 -3.43292,-0.02418 -4.53736,-0.07251 -0.86284,-0.04835 -1.59453,-0.372443 -2.19507,-0.97229 -0.60063,-0.599859 -0.92436,-1.331914 -0.97119,-2.196167 -0.0484,-0.815921 0.20357,-1.523806 0.75586,-2.123657 0.5522,-0.599855 1.23628,-0.875612 2.05225,-0.827271 0.81587,0.04834 1.84785,0.07251 3.09595,0.07251 1.10297,-10e-7 1.79877,-0.09631 2.0874,-0.28894 0.28852,-0.192628 0.50458,-0.792847 0.64819,-1.80066 0.0952,-0.383787 -0.0733,-0.575682 -0.50537,-0.575683 l -25.70361,0 c -0.38382,10e-7 -0.62332,0.191896 -0.71851,0.575683 -3e-5,0.09668 -0.0242,0.216798 -0.0725,0.360352 -0.0484,0.143555 -0.0725,0.239502 -0.0725,0.287842 -0.19192,1.056151 -0.70791,1.908323 -1.54797,2.556518 -0.84012,0.648191 -1.78823,0.923947 -2.84436,0.827271 -0.9595,-0.09522 -1.73916,-0.514895 -2.33899,-1.259033 -0.59988,-0.744142 -0.80385,-1.595948 -0.61194,-2.55542 1.10301,-5.664545 2.08665,-11.520984 2.95093,-17.569336 0.0967,-0.335431 -0.0711,-0.503155 -0.50318,-0.503174 l -0.57568,0 c -0.86428,1.9e-5 -1.60842,-0.311993 -2.23242,-0.936035 -0.62404,-0.624003 -0.93606,-1.368143 -0.93604,-2.232422 -2e-5,-0.864235 0.312,-1.608375 0.93604,-2.232422 0.624,-0.623999 1.36814,-0.93601 2.23242,-0.936035 l 1.43921,0 c 0.33542,2.5e-5 0.55149,-0.216039 0.64819,-0.648194 0.43211,-3.166963 0.79173,-6.262907 1.07886,-9.287841 -0.0469,-0.09518 -0.11868,-0.166957 -0.21533,-0.215332 -0.14358,0.14359 -0.31131,0.359288 -0.50318,0.647094 -0.19191,0.287877 -0.36037,0.504307 -0.50537,0.649292 -0.62404,0.767612 -1.42788,1.163485 -2.4115,1.187622 -0.98366,0.0242 -1.81166,-0.299893 -2.484,-0.97229 -0.71926,-0.719203 -1.10305,-1.595179 -1.15137,-2.627929 -0.0484,-1.032678 0.23948,-1.956993 0.86352,-2.77295 4.0327,-5.375931 7.17698,-11.111521 9.43287,-17.206787 0.38375,-0.959415 1.0195,-1.69147 1.90722,-2.196167 0.88767,-0.504579 1.83542,-0.660951 2.84326,-0.469116 0.96091,0.193418 1.68124,0.709775 2.16101,1.549072 0.4797,0.839413 0.55185,1.739558 0.21643,2.70044 -0.0484,0.04839 -0.0725,0.132257 -0.0725,0.251587 -4e-5,0.119439 -0.0242,0.203301 -0.0725,0.251587 -0.0953,0.336968 0.0249,0.505425 0.36035,0.505371 l 28.94458,0 c 0.86419,5.4e-5 1.60833,0.312065 2.23242,0.936035 0.62395,0.624076 0.93597,1.367849 0.93603,2.231323 -6e-5,0.863575 -0.31208,1.607349 -0.93603,2.231323 -0.62409,0.624072 -1.36823,0.936083 -2.23242,0.936036 l -31.60767,0 c -0.43216,4.7e-5 -0.72073,0.191941 -0.86572,0.575683 -0.28714,0.57573 -0.98294,1.872116 -2.0874,3.88916 -0.0952,0.09526 -0.10697,0.215009 -0.0352,0.359253 0.0717,0.14433 0.17941,0.216473 0.323,0.216431 l 31.75268,0 c 1.10443,4.2e-5 2.04047,0.395916 2.80811,1.187622 0.76751,0.791789 1.10369,1.739908 1.00854,2.84436 z m -8.49682,12.599121 c 0.38373,-4.415008 0.67157,-7.702847 0.86352,-9.863525 -6e-5,-0.432093 -0.19195,-0.648157 -0.57568,-0.648193 l -7.99146,0 c -0.48051,3.6e-5 -0.72075,0.2161 -0.7207,0.648193 -0.1436,1.58353 -0.47978,4.871369 -1.00854,9.863525 -0.0953,0.432155 0.0974,0.648219 0.57788,0.648194 l 8.20678,0 c 0.43208,2.5e-5 0.64814,-0.216039 0.6482,-0.648194 z m -24.69507,-9.863525 c -0.33695,3.503939 -0.6973,6.791777 -1.08106,9.863525 -0.0952,0.432155 0.0725,0.648219 0.50318,0.648194 l 8.13647,0 c 0.38375,2.5e-5 0.62398,-0.216039 0.72071,-0.648194 0.43208,-4.176239 0.76826,-7.464078 1.00854,-9.863525 -4e-5,-0.432093 -0.19194,-0.648157 -0.57568,-0.648193 l -8.06616,0 c -0.4307,3.6e-5 -0.64603,0.2161 -0.646,0.648193 z m -2.15991,17.424316 c -0.96097,6.288587 -1.46561,9.576425 -1.51392,9.863526 -0.0952,0.432137 0.0732,0.648201 0.50537,0.648193 l 8.49463,0 c 0.38522,8e-6 0.62545,-0.191886 0.7207,-0.575683 0.43209,-3.263661 0.86422,-6.575669 1.29639,-9.936036 0.0952,-0.38377 -0.0726,-0.575664 -0.50317,-0.575683 l -8.2815,0 c -0.38382,1.9e-5 -0.62332,0.191913 -0.7185,0.575683 z m 25.05542,9.863526 c 0.24017,-2.112294 0.59979,-5.375963 1.07885,-9.791016 -5e-5,-0.43211 -0.19195,-0.648174 -0.57568,-0.648193 l -8.35181,0 c -0.33549,1.9e-5 -0.55156,0.216083 -0.64819,0.648193 -0.1436,1.199724 -0.37138,2.903702 -0.68335,5.111939 -0.31206,2.208263 -0.53984,3.792123 -0.68335,4.751587 -0.0967,0.383797 0.071,0.575691 0.50318,0.575683 l 8.63964,0 c 0.38374,8e-6 0.62397,-0.216056 0.72071,-0.648193 z"
     id="path2914"
     style="font-size:72px;font-style:normal;font-weight:normal;text-align:center;text-anchor:middle;fill:#ffffff;fill-opacity:1;stroke:none;font-family:'Rounded M+ 1p medium';-inkscape-font-specification:'Rounded M+ 1p medium'" />
  <path
     d="m 145.50827,161.42743 c 0.62402,-0.76752 1.41613,-1.19929 2.37634,-1.29529 0.9602,-0.0959 1.82409,0.14398 2.59168,0.71961 2.73631,2.16069 4.89622,3.93681 6.47973,5.32836 0.76903,0.62408 1.18944,1.42828 1.26123,2.4126 0.0718,0.98442 -0.20436,1.8604 -0.82836,2.62793 -0.62405,0.71928 -1.40408,1.11516 -2.34009,1.18762 -0.93605,0.0726 -1.76369,-0.2032 -2.48291,-0.82727 -1.68019,-1.48823 -3.86427,-3.28852 -6.55225,-5.40088 -0.72071,-0.57563 -1.14112,-1.33149 -1.26123,-2.26757 -0.12012,-0.93599 0.13183,-1.76435 0.75586,-2.48511 z m 9.86353,26.71216 c -0.62405,0.72073 -1.40371,1.11697 -2.33899,1.18872 -0.93532,0.0718 -1.76332,-0.20432 -2.48401,-0.82837 -3.02345,-2.68796 -5.63966,-4.87204 -7.84864,-6.55225 -0.71924,-0.57565 -1.11511,-1.31942 -1.18762,-2.23132 -0.0725,-0.91183 0.17981,-1.72811 0.75696,-2.44885 0.62402,-0.7192 1.40405,-1.13888 2.34009,-1.25904 0.93603,-0.12007 1.78783,0.10771 2.55542,0.68335 2.49608,1.82377 5.11229,3.96024 7.84863,6.40943 0.76756,0.62405 1.18724,1.42789 1.25903,2.4115 0.0718,0.98367 -0.22853,1.85928 -0.90087,2.62683 z m 3.02563,13.60986 c -2.16066,6.28712 -4.87282,12.09449 -8.13647,17.42212 -0.52882,0.86425 -1.28505,1.4165 -2.26868,1.65674 -0.98365,0.24023 -1.9076,0.0721 -2.77185,-0.50427 -0.86427,-0.57642 -1.39234,-1.36854 -1.58423,-2.37635 -0.1919,-1.00781 -0.0234,-1.94384 0.50537,-2.8081 2.78319,-4.60693 5.35106,-9.93456 7.70361,-15.98291 0.33544,-0.91258 0.93529,-1.56077 1.79956,-1.94458 0.86425,-0.38377 1.75194,-0.40794 2.66309,-0.0725 0.91258,0.38527 1.57286,1.02174 1.98084,1.90942 0.40793,0.88771 0.44419,1.78786 0.10876,2.70044 z m 25.05542,-34.41797 c -0.91264,4.94536 -2.76091,9.38603 -5.5448,13.32202 -2.78397,3.93607 -6.2399,7.05545 -10.3678,9.35816 -0.86428,0.48049 -1.78823,0.58889 -2.77185,0.32519 -0.98367,-0.26364 -1.73989,-0.82761 -2.26867,-1.69189 -0.47903,-0.76902 -0.6105,-1.5853 -0.39441,-2.44885 0.21604,-0.8635 0.73203,-1.53549 1.54797,-2.016 6.47897,-3.83931 10.58273,-9.43135 12.31128,-16.77612 0.0966,-0.38374 -0.0711,-0.57563 -0.50317,-0.57568 l -10.00855,0 c -0.91262,5e-5 -1.69265,-0.31196 -2.34009,-0.93604 -0.64748,-0.62397 -0.97121,-1.39191 -0.97119,-2.30383 -2e-5,-0.91181 0.32371,-1.67976 0.97119,-2.30383 0.64744,-0.62397 1.42747,-0.93598 2.34009,-0.93604 l 35.85498,0 c 1.10443,6e-5 2.05255,0.40802 2.84436,1.22388 0.79168,0.81597 1.18756,1.77617 1.18762,2.88061 -0.0469,7.15142 -0.38239,12.44316 -1.00634,15.87525 -0.62409,3.43216 -1.48835,5.66421 -2.59278,6.69617 -1.10455,1.03201 -2.83233,1.548 -5.18335,1.54797 -2.11236,3e-5 -4.84868,-0.0718 -8.20898,-0.21533 -0.91118,-0.0483 -1.69085,-0.39658 -2.33899,-1.0448 -0.64824,-0.64817 -0.99651,-1.452 -1.0448,-2.4115 -0.0484,-0.91257 0.23945,-1.68088 0.86352,-2.30493 0.62398,-0.62399 1.39229,-0.91183 2.30494,-0.86353 2.4477,0.14359 4.34394,0.21537 5.68872,0.21533 1.00775,4e-5 1.76361,-0.29989 2.26757,-0.89978 0.50385,-0.59981 0.91181,-1.95553 1.22388,-4.06714 0.31195,-2.11153 0.46796,-5.27961 0.46802,-9.50427 -6e-5,-0.43208 -0.19196,-0.64814 -0.57568,-0.64819 l -13.03199,0 c -0.43217,5e-5 -0.67241,0.16777 -0.7207,0.50317 z m 16.05542,55.29639 -0.86353,0 c -0.81597,-1e-5 -1.51177,-0.28785 -2.0874,-0.86353 -0.57574,-0.57569 -0.86358,-1.27149 -0.86352,-2.0874 -6e-5,-0.28858 -0.16852,-0.43286 -0.50537,-0.43286 l -23.75904,0 c -0.28861,0 -0.43289,0.14428 -0.43286,0.43286 -3e-5,0.81591 -0.28787,1.51171 -0.86352,2.0874 -0.57572,0.57568 -1.27152,0.86352 -2.08741,0.86353 l -0.86572,0 c -1.05471,-1e-5 -1.94241,-0.37208 -2.66308,-1.11621 -0.72073,-0.74415 -1.08109,-1.64356 -1.08106,-2.69824 l 0,-21.81665 c -3e-5,-1.10448 0.4083,-2.06468 1.22498,-2.88062 0.81662,-0.81589 1.77646,-1.22385 2.87951,-1.22388 l 31.75269,0 c 1.10443,3e-5 2.06463,0.40799 2.88061,1.22388 0.81586,0.81594 1.22381,1.77614 1.22388,2.88062 l 0,21.74414 c -7e-5,1.10302 -0.37214,2.0266 -1.11621,2.77075 -0.74421,0.74413 -1.66852,1.1162 -2.77295,1.11621 z m -27.86353,-9.57568 23.40088,0 c 0.43207,0 0.64814,-0.1919 0.6482,-0.57569 l 0,-12.67163 c -6e-5,-0.38377 -0.21613,-0.57567 -0.6482,-0.57568 l -23.40088,0 c -0.43216,1e-5 -0.64822,0.19191 -0.64819,0.57568 l 0,12.67163 c -3e-5,0.38379 0.21603,0.57569 0.64819,0.57569 z"
     id="path2930"
     style="font-size:72px;font-style:normal;font-weight:normal;text-align:center;text-anchor:middle;fill:#ffffff;fill-opacity:1;stroke:none;font-family:'Rounded M+ 1p medium';-inkscape-font-specification:'Rounded M+ 1p medium'" />
  <path
     d="m 293.97311,171.00531 c -1.24805,-1.20113 -3.26441,-3.00142 -6.04907,-5.40088 -0.6709,-0.57563 -1.03052,-1.30769 -1.07886,-2.19617 -0.0483,-0.88837 0.2395,-1.64459 0.86353,-2.26867 0.67236,-0.67084 1.47655,-1.04255 2.4126,-1.11511 0.93602,-0.0725 1.76366,0.2033 2.48291,0.82727 2.16063,1.7769 4.17698,3.5772 6.04907,5.40087 0.67235,0.62408 1.02025,1.40411 1.0437,2.34009 0.0234,0.93608 -0.30031,1.74028 -0.97119,2.4126 -0.62404,0.67094 -1.40407,1.00639 -2.34009,1.00635 -0.93605,4e-5 -1.74025,-0.33541 -2.4126,-1.00635 z m 3.95948,17.42212 c -0.62404,0.67239 -1.40407,1.03274 -2.34009,1.08105 -0.93605,0.0484 -1.74025,-0.23947 -2.4126,-0.86352 -1.7754,-1.72849 -4.15137,-3.86496 -7.12793,-6.40943 -0.6709,-0.57564 -1.06641,-1.3315 -1.18652,-2.26757 -0.12012,-0.936 0.13183,-1.73947 0.75586,-2.4104 0.62402,-0.72067 1.40404,-1.12899 2.34009,-1.22498 0.93602,-0.0959 1.76366,0.16813 2.48291,0.79211 2.92821,2.39946 5.35252,4.51103 7.27294,6.33472 0.67235,0.62406 1.03234,1.42826 1.07996,2.4126 0.0476,0.9844 -0.24062,1.83621 -0.86462,2.55542 z m 1.29638,14.32837 c -1.68019,5.7129 -3.74415,11.11304 -6.19189,16.20044 -0.43214,0.91259 -1.11622,1.51281 -2.05225,1.80066 -0.93604,0.28783 -1.83619,0.16772 -2.70044,-0.36035 -0.86426,-0.52808 -1.42822,-1.29603 -1.69189,-2.30384 -0.26368,-1.00781 -0.17945,-1.96801 0.25268,-2.88061 2.15918,-4.51172 4.12719,-9.55151 5.90406,-15.11939 0.28709,-0.91258 0.85069,-1.56077 1.69079,-1.94458 0.84008,-0.38377 1.69225,-0.40794 2.55652,-0.0725 0.91258,0.33693 1.58495,0.96132 2.01709,1.87317 0.43211,0.91188 0.50389,1.84755 0.21533,2.80701 z m 48.38379,-35.78247 0,6.69507 c -6e-5,0.33549 0.16766,0.50321 0.50318,0.50317 l 0.28784,0 c 0.86419,4e-5 1.59624,0.31205 2.19617,0.93603 0.59978,0.62407 0.89971,1.36821 0.89978,2.23243 -7e-5,0.86429 -0.3,1.60843 -0.89978,2.23242 -0.59993,0.62406 -1.33198,0.93607 -2.19617,0.93603 l -0.28784,0 c -0.33552,4e-5 -0.50324,0.16776 -0.50318,0.50318 l 0,6.9126 c -6e-5,1.10452 -0.40802,2.06472 -1.22387,2.88061 -0.81599,0.81594 -1.77619,1.2239 -2.88062,1.22388 l -12.02344,0 c -0.43218,2e-5 -0.64824,0.19192 -0.64819,0.57568 l 0,3.52881 c -5e-5,0.38381 0.21601,0.5757 0.64819,0.57568 l 14.18335,0 c 0.8642,2e-5 1.60834,0.31203 2.23242,0.93604 0.62396,0.62404 0.93597,1.36781 0.93604,2.23132 -7e-5,0.86354 -0.31208,1.60732 -0.93604,2.23132 -0.62408,0.62404 -1.36822,0.93605 -2.23242,0.93604 l -14.18335,0 c -0.43218,1e-5 -0.64824,0.19264 -0.64819,0.57788 l 0,3.81445 c -5e-5,0.43214 0.21601,0.64821 0.64819,0.6482 l 16.70362,0 c 0.86419,1e-5 1.60833,0.29993 2.23242,0.89978 0.62395,0.59986 0.93596,1.33191 0.93603,2.19616 -7e-5,0.86427 -0.31208,1.60841 -0.93603,2.23243 -0.62409,0.62402 -1.36823,0.93603 -2.23242,0.93603 l -16.70362,0 c -0.43218,0 -0.64824,0.21607 -0.64819,0.6482 l 0,4.68017 c -5e-5,1.05615 -0.37212,1.96801 -1.11621,2.7356 -0.74419,0.76757 -1.66777,1.15136 -2.77075,1.15136 -1.0562,0 -1.95635,-0.37207 -2.70044,-1.11621 -0.74419,-0.74414 -1.11626,-1.66773 -1.11621,-2.77075 l 0,-4.68017 c -5e-5,-0.43213 -0.21611,-0.6482 -0.6482,-0.6482 l -19.43921,0 c -0.86427,0 -1.60841,-0.31201 -2.23242,-0.93603 -0.62404,-0.62402 -0.93605,-1.36816 -0.93603,-2.23243 -2e-5,-0.86425 0.31199,-1.5963 0.93603,-2.19616 0.62401,-0.59985 1.36815,-0.89977 2.23242,-0.89978 l 19.43921,0 c 0.43209,1e-5 0.64815,-0.21606 0.6482,-0.6482 l 0,-3.81445 c -5e-5,-0.38524 -0.21611,-0.57787 -0.6482,-0.57788 l -16.20044,0 c -0.86428,1e-5 -1.60842,-0.312 -2.23242,-0.93604 -0.62404,-0.624 -0.93606,-1.36778 -0.93603,-2.23132 -3e-5,-0.86351 0.31199,-1.60728 0.93603,-2.23132 0.624,-0.62401 1.36814,-0.93602 2.23242,-0.93604 l 16.20044,0 c 0.43209,2e-5 0.64815,-0.19187 0.6482,-0.57568 l 0,-3.52881 c -5e-5,-0.38376 -0.21611,-0.57566 -0.6482,-0.57568 l -15.04907,0 c -0.7676,2e-5 -1.43923,-0.28819 -2.01489,-0.86463 -0.57571,-0.57639 -0.86355,-1.24838 -0.86353,-2.01599 -2e-5,-0.76755 0.28782,-1.43954 0.86353,-2.01599 0.57566,-0.57638 1.24729,-0.86459 2.01489,-0.86462 l 15.04907,0 c 0.43209,3e-5 0.64815,-0.19187 0.6482,-0.57569 l 0,-4.60766 c -5e-5,-0.38376 -0.21611,-0.57565 -0.6482,-0.57569 l -19.43921,0 c -0.86427,4e-5 -1.60841,-0.31197 -2.23242,-0.93603 -0.62404,-0.62399 -0.93605,-1.36813 -0.93603,-2.23242 -2e-5,-0.86422 0.31199,-1.60836 0.93603,-2.23243 0.62401,-0.62398 1.36815,-0.93599 2.23242,-0.93603 l 19.43921,0 c 0.43209,4e-5 0.64815,-0.19185 0.6482,-0.57568 l 0,-4.17481 c -5e-5,-0.38374 -0.21611,-0.57563 -0.6482,-0.57568 l -15.33691,0 c -0.81594,5e-5 -1.51174,-0.30025 -2.0874,-0.90088 -0.57571,-0.60054 -0.86355,-1.30879 -0.86353,-2.12476 -2e-5,-0.81586 0.28782,-1.51166 0.86353,-2.0874 0.57566,-0.57563 1.27146,-0.86347 2.0874,-0.86352 l 15.33691,0 c 0.43209,5e-5 0.64815,-0.21602 0.6482,-0.6482 l 0,-0.7207 c -5e-5,-1.10297 0.37202,-2.02656 1.11621,-2.77075 0.74409,-0.74409 1.64424,-1.11616 2.70044,-1.11621 1.10298,5e-5 2.02656,0.38384 2.77075,1.15136 0.74409,0.76764 1.11616,1.6795 1.11621,2.7356 l 0,0.7207 c -5e-5,0.43218 0.21601,0.64825 0.64819,0.6482 l 12.02344,0 c 1.10443,5e-5 2.06463,0.40801 2.88062,1.22387 0.81585,0.81597 1.22381,1.77618 1.22387,2.88062 z m -7.41577,18.7185 0,-4.60766 c -6e-5,-0.38376 -0.21612,-0.57565 -0.64819,-0.57569 l -8.06397,0 c -0.43218,4e-5 -0.64824,0.19193 -0.64819,0.57569 l 0,4.60766 c -5e-5,0.38382 0.21601,0.57572 0.64819,0.57569 l 8.06397,0 c 0.43207,3e-5 0.64813,-0.19187 0.64819,-0.57569 z m 0,-12.09594 0,-4.17481 c -6e-5,-0.38374 -0.21612,-0.57563 -0.64819,-0.57568 l -8.06397,0 c -0.43218,5e-5 -0.64824,0.19194 -0.64819,0.57568 l 0,4.17481 c -5e-5,0.38383 0.21601,0.57572 0.64819,0.57568 l 8.06397,0 c 0.43207,4e-5 0.64813,-0.19185 0.64819,-0.57568 z"
     id="path2932"
     style="font-size:72px;font-style:normal;font-weight:normal;text-align:center;text-anchor:middle;fill:#ffffff;fill-opacity:1;stroke:none;font-family:'Rounded M+ 1p medium';-inkscape-font-specification:'Rounded M+ 1p medium'" />
  <g
     id="text3724"
     style="font-size:40px;font-style:normal;font-weight:normal;text-align:center;text-anchor:middle;fill:#ffffff;fill-opacity:1;stroke:#ffffff;stroke-width:1;stroke-miterlimit:4;stroke-opacity:1;font-family:IPAGothic;-inkscape-font-specification:IPAGothic">
    <path
       d="m 217.89432,123.34361 -3.82813,0 -3.16406,-8.41797 -11.48437,0 -3.10547,8.41797 -3.8086,0 11.32813,-28.769529 2.83203,0 z m -7.98828,-11.25 -2.89063,-7.59765 c -0.79428,-2.12238 -1.39324,-4.04295 -1.79687,-5.761722 l -0.11719,0 c -0.46876,1.822942 -1.08074,3.743512 -1.83594,5.761722 l -2.83203,7.59765 z"
       id="path2919"
       style="fill:#ffffff;stroke:#ffffff;font-family:IPAPGothic;-inkscape-font-specification:IPAPGothic" />
    <path
       d="m 231.29276,122.23033 c -1.47137,1.02865 -2.9883,1.54297 -4.55079,1.54297 -3.09896,0 -4.64844,-1.74479 -4.64843,-5.23437 l 0,-12.67579 -2.71485,0 0,-2.4414 2.71485,0 0,-4.472659 3.28125,-1.640625 0,6.113284 5.52734,0 0,2.4414 -5.52734,0 0,12.20704 c -1e-5,2.04427 0.6966,3.0664 2.08984,3.0664 0.93749,0 1.82942,-0.35807 2.67578,-1.07422 z"
       id="path2921"
       style="fill:#ffffff;stroke:#ffffff;font-family:IPAPGothic;-inkscape-font-specification:IPAPGothic" />
    <path
       d="m 251.56619,123.34361 -3.04687,0 c -0.45575,-1.0026 -0.74872,-2.03124 -0.87891,-3.08593 l -0.11719,0 c -1.51043,2.42187 -3.76303,3.63281 -6.75781,3.63281 -2.0573,0 -3.73698,-0.65104 -5.03906,-1.95313 -1.14584,-1.14583 -1.71875,-2.54557 -1.71875,-4.19922 0,-4.11457 3.54817,-6.27603 10.64453,-6.48437 l 2.67578,-0.0781 0,-1.03515 c -1e-5,-1.39322 -0.40366,-2.48697 -1.21094,-3.28125 -0.82032,-0.83332 -1.88152,-1.24998 -3.18359,-1.25 -2.23959,2e-5 -3.91928,1.08725 -5.03906,3.26172 l -2.96875,-1.36719 c 1.83593,-3.04686 4.53124,-4.57029 8.08594,-4.57031 2.43488,2e-5 4.31639,0.68361 5.64453,2.05078 1.22394,1.22397 1.83592,2.95574 1.83593,5.19531 l 0,7.32422 c -1e-5,2.48698 0.35806,4.43359 1.07422,5.83984 z m -4.16015,-9.76562 -2.20703,0.0391 c -5.14324,0.1172 -7.71485,1.50392 -7.71485,4.16016 0,0.9375 0.30599,1.71224 0.91797,2.32422 0.7552,0.74219 1.74478,1.11328 2.96875,1.11328 1.70572,0 3.18358,-0.625 4.43359,-1.875 1.0677,-1.10677 1.60155,-2.4414 1.60157,-4.00391 z"
       id="path2923"
       style="fill:#ffffff;stroke:#ffffff;font-family:IPAPGothic;-inkscape-font-specification:IPAPGothic" />
    <path
       d="m 285.2576,123.34361 -3.4375,0 0,-12.48047 c -3e-5,-3.35935 -1.30211,-5.03904 -3.90625,-5.03906 -1.237,2e-5 -2.36981,0.57294 -3.39844,1.71875 -0.72919,0.80731 -1.237,1.82293 -1.52344,3.04688 l 0,12.7539 -3.4375,0 0,-12.51953 c -10e-6,-3.33332 -1.23048,-4.99998 -3.6914,-5 -1.3021,2e-5 -2.44793,0.57294 -3.4375,1.71875 -1.06772,1.18491 -1.60157,2.33074 -1.60156,3.4375 l 0,12.36328 -3.4375,0 0,-19.92187 3.20312,0 0,3.4375 c 1.3151,-2.55207 3.30077,-3.82811 5.95703,-3.82813 2.90363,2e-5 4.83722,1.38674 5.80078,4.16016 1.4453,-2.77342 3.52212,-4.16014 6.23047,-4.16016 2.18747,2e-5 3.8932,0.77476 5.11719,2.32422 1.04163,1.27606 1.56247,3.08595 1.5625,5.42969 z"
       id="path2925"
       style="fill:#ffffff;stroke:#ffffff;font-family:IPAPGothic;-inkscape-font-specification:IPAPGothic" />
    <path
       d="m 296.07791,99.183456 -3.92578,0 0,-4.003906 3.92578,0 z m -0.2539,24.160154 -3.4375,0 0,-19.92187 3.4375,0 z"
       id="path2927"
       style="fill:#ffffff;stroke:#ffffff;font-family:IPAPGothic;-inkscape-font-specification:IPAPGothic" />
  </g>
  <g
     id="text3724-1"
     style="font-size:40px;font-style:normal;font-weight:normal;text-align:center;text-anchor:middle;fill:#ffffff;fill-opacity:1;stroke:#ffffff;stroke-opacity:1;font-family:IPAGothic;-inkscape-font-specification:IPAGothic">
    <path
       d="m 195.31619,261.34363 -3.20312,0 -12.71485,-19.29688 c -0.96355,-1.45831 -2.1224,-3.43096 -3.47656,-5.91797 l -0.15625,0 0.0781,1.875 c 0.1302,4.14065 0.1953,6.90757 0.19531,8.30079 l 0,15.03906 -3.4375,0 0,-28.57422 4.72656,0 10.91797,16.60156 c 1.41925,2.21355 2.66925,4.32293 3.75,6.32813 l 0.15625,0 c -0.18231,-3.8802 -0.27346,-7.01171 -0.27344,-9.39453 l 0,-13.53516 3.4375,0 z"
       id="path2938"
       style="fill:#ffffff;stroke:#ffffff;font-family:IPAPGothic;-inkscape-font-specification:IPAPGothic" />
    <path
       d="m 219.71072,261.34363 -3.20312,0 0,-3.63281 c -1.96616,2.68229 -4.35548,4.02343 -7.16797,4.02343 -2.3047,0 -4.10157,-0.78125 -5.39062,-2.34375 -1.01563,-1.26301 -1.52345,-3.0664 -1.52344,-5.41015 l 0,-12.5586 3.4375,0 0,12.44141 c -1e-5,3.3073 1.38671,4.96094 4.16015,4.96094 2.79947,0 4.8828,-1.71875 6.25,-5.15625 l 0,-12.2461 3.4375,0 z"
       id="path2940"
       style="fill:#ffffff;stroke:#ffffff;font-family:IPAPGothic;-inkscape-font-specification:IPAPGothic" />
    <path
       d="m 254.71072,261.34363 -3.4375,0 0,-12.48047 c -2e-5,-3.35936 -1.30211,-5.03905 -3.90625,-5.03906 -1.237,1e-5 -2.36981,0.57293 -3.39843,1.71875 -0.72919,0.8073 -1.237,1.82293 -1.52344,3.04687 l 0,12.75391 -3.4375,0 0,-12.51953 c -2e-5,-3.33332 -1.23048,-4.99999 -3.69141,-5 -1.30209,1e-5 -2.44792,0.57293 -3.4375,1.71875 -1.06771,1.18491 -1.60157,2.33074 -1.60156,3.4375 l 0,12.36328 -3.4375,0 0,-19.92188 3.20313,0 0,3.4375 c 1.31509,-2.55206 3.30077,-3.8281 5.95703,-3.82812 2.90363,2e-5 4.83722,1.38674 5.80078,4.16015 1.44529,-2.77341 3.52211,-4.16013 6.23047,-4.16015 2.18747,2e-5 3.8932,0.77476 5.11718,2.32422 1.04164,1.27606 1.56247,3.08595 1.5625,5.42968 z"
       id="path2942"
       style="fill:#ffffff;stroke:#ffffff;font-family:IPAPGothic;-inkscape-font-specification:IPAPGothic" />
    <path
       d="m 277.89432,261.34363 -3.04688,0 c -0.45574,-1.0026 -0.74871,-2.03125 -0.8789,-3.08594 l -0.11719,0 c -1.51043,2.42188 -3.76303,3.63281 -6.75781,3.63281 -2.0573,0 -3.73699,-0.65104 -5.03907,-1.95312 -1.14583,-1.14583 -1.71875,-2.54557 -1.71875,-4.19922 0,-4.11457 3.54818,-6.27603 10.64454,-6.48438 l 2.67578,-0.0781 0,-1.03516 c -2e-5,-1.39321 -0.40366,-2.48696 -1.21094,-3.28125 -0.82033,-0.83331 -1.88152,-1.24998 -3.18359,-1.25 -2.2396,2e-5 -3.91928,1.08726 -5.03907,3.26172 l -2.96875,-1.36719 c 1.83594,-3.04685 4.53125,-4.57029 8.08594,-4.57031 2.43488,2e-5 4.31639,0.68362 5.64453,2.05078 1.22394,1.22398 1.83592,2.95575 1.83594,5.19532 l 0,7.32421 c -2e-5,2.48699 0.35805,4.4336 1.07422,5.83985 z m -4.16016,-9.76563 -2.20703,0.0391 c -5.14324,0.11719 -7.71485,1.50391 -7.71484,4.16015 -1e-5,0.93751 0.30598,1.71225 0.91797,2.32422 0.7552,0.74219 1.74478,1.11328 2.96875,1.11328 1.70571,0 3.18358,-0.625 4.43359,-1.875 1.06769,-1.10676 1.60155,-2.4414 1.60156,-4.0039 z"
       id="path2944"
       style="fill:#ffffff;stroke:#ffffff;font-family:IPAPGothic;-inkscape-font-specification:IPAPGothic" />
    <path
       d="m 297.56229,261.34363 -16.07422,0 0,-1.99219 8.55469,-11.21094 c 1.02863,-1.35415 2.08332,-2.64972 3.16406,-3.88672 l 0,-0.11718 -10.72266,0 0,-2.71485 14.60938,0 0,2.1875 -8.28125,11.01563 c -0.50782,0.69011 -1.56251,1.97266 -3.16407,3.84765 l 0,0.11719 11.91407,0 z"
       id="path2946"
       style="fill:#ffffff;stroke:#ffffff;font-family:IPAPGothic;-inkscape-font-specification:IPAPGothic" />
    <path
       d="m 319.6326,261.34363 -3.20313,0 0,-3.63281 c -1.96616,2.68229 -4.35548,4.02343 -7.16796,4.02343 -2.3047,0 -4.10157,-0.78125 -5.39063,-2.34375 -1.01563,-1.26301 -1.52344,-3.0664 -1.52344,-5.41015 l 0,-12.5586 3.4375,0 0,12.44141 c 0,3.3073 1.38671,4.96094 4.16016,4.96094 2.79946,0 4.8828,-1.71875 6.25,-5.15625 l 0,-12.2461 3.4375,0 z"
       id="path2948"
       style="fill:#ffffff;stroke:#ffffff;font-family:IPAPGothic;-inkscape-font-specification:IPAPGothic" />
  </g>
  <g
     id="text2841"
     style="font-size:72px;font-style:normal;font-weight:normal;text-align:center;text-anchor:middle;fill:#ffffff;fill-opacity:1;stroke:none;font-family:'Rounded M+ 1m medium';-inkscape-font-specification:'Rounded M+ 1m medium'">
    <path
       d="m 378.79358,34.244469 -0.14282,0 -9.14502,5.03833 c -0.71925,0.385293 -1.43885,0.361855 -2.15882,-0.07031 -0.71997,-0.432089 -1.07996,-1.056111 -1.07995,-1.87207 -1e-5,-2.49605 1.07958,-4.368118 3.23877,-5.616211 l 5.90405,-3.456299 c 2.30418,-1.344674 4.7761,-2.017037 7.41577,-2.01709 1.10447,5.3e-5 2.05259,0.396293 2.84436,1.188721 0.79172,0.792531 1.1876,1.740284 1.18762,2.843262 l 0,44.496826 c -2e-5,1.104495 -0.3959,2.052614 -1.18762,2.84436 -0.79177,0.791749 -1.73952,1.187622 -2.84326,1.187622 -1.10378,0 -2.03981,-0.395873 -2.80811,-1.187622 -0.76832,-0.791746 -1.15248,-1.739865 -1.15246,-2.84436 l 0,-40.464844 c -2e-5,-0.04683 -0.0242,-0.07027 -0.0725,-0.07031 z"
       id="path2951" />
    <path
       d="m 420.69763,33.235924 c -2e-5,-0.04829 -0.0235,-0.07246 -0.0703,-0.07251 l -15.55225,0 c -0.96094,4.6e-5 -1.77722,-0.335769 -2.44885,-1.007446 -0.67164,-0.671584 -1.00745,-1.487501 -1.00745,-2.447754 0,-0.960155 0.33581,-1.776439 1.00745,-2.448853 0.67163,-0.672311 1.48791,-1.008492 2.44885,-1.008545 l 19.72705,0 c 0.96091,5.3e-5 1.7772,0.336234 2.44886,1.008545 0.6716,0.672414 1.00741,1.488332 1.00744,2.447754 -3e-5,2.304246 -0.43216,4.512496 -1.29638,6.624756 -4.8472,11.808136 -9.02273,24.672381 -12.52662,38.592773 -0.28859,1.15137 -0.90089,2.087038 -1.83691,2.807007 -0.93605,0.719971 -2.00392,1.079956 -3.20361,1.079956 l -0.21533,0 c -1.05617,0 -1.89626,-0.407958 -2.52027,-1.223877 -0.62403,-0.815916 -0.79249,-1.72778 -0.50537,-2.735595 4.12792,-15.071759 8.97581,-28.896208 14.5437,-41.473389 z"
       id="path2953" />
  </g>
  <g
     id="text2841-7"
     style="font-size:72px;font-style:normal;font-weight:normal;text-align:center;text-anchor:middle;fill:#ffffff;fill-opacity:1;stroke:none;font-family:'Rounded M+ 1m medium';-inkscape-font-specification:'Rounded M+ 1m medium'">
    <path
       d="m 378.79358,172.24448 -0.14282,0 -9.14502,5.03833 c -0.71925,0.38529 -1.43885,0.36185 -2.15882,-0.0703 -0.71997,-0.43208 -1.07996,-1.05611 -1.07995,-1.87207 -1e-5,-2.49605 1.07958,-4.36811 3.23877,-5.61621 l 5.90405,-3.4563 c 2.30418,-1.34467 4.7761,-2.01703 7.41577,-2.01709 1.10447,6e-5 2.05259,0.3963 2.84436,1.18872 0.79172,0.79254 1.1876,1.74029 1.18762,2.84327 l 0,44.49682 c -2e-5,1.1045 -0.3959,2.05262 -1.18762,2.84436 -0.79177,0.79175 -1.73952,1.18762 -2.84326,1.18762 -1.10378,0 -2.03981,-0.39587 -2.80811,-1.18762 -0.76832,-0.79174 -1.15248,-1.73986 -1.15246,-2.84436 l 0,-40.46484 c -2e-5,-0.0468 -0.0242,-0.0703 -0.0725,-0.0703 z"
       id="path2956" />
    <path
       d="m 413.49939,192.90756 c -4.17628,1.6802 -6.26441,4.89626 -6.2644,9.6482 -10e-6,2.63966 0.69579,4.69153 2.0874,6.15564 1.39159,1.46411 3.23948,2.19617 5.5437,2.19616 2.35252,1e-5 4.17661,-0.70788 5.47229,-2.12365 1.29563,-1.41577 1.94346,-3.49181 1.94348,-6.22815 -2e-5,-4.7036 -2.51955,-7.91966 -7.55859,-9.6482 -0.43215,-0.14353 -0.84011,-0.14353 -1.22388,0 z m 1.87207,-22.75268 c -4.5132,4e-5 -6.76979,2.30424 -6.76978,6.91259 -10e-6,4.31986 1.99218,7.24808 5.97657,8.78467 0.33689,0.14359 0.69724,0.14359 1.08105,0 3.93601,-1.6318 5.90403,-4.56002 5.90405,-8.78467 -2e-5,-2.11226 -0.55227,-3.79243 -1.65673,-5.04052 -1.10452,-1.248 -2.61624,-1.87203 -4.53516,-1.87207 z m 10.72705,43.67065 c -2.63967,2.47119 -6.35964,3.70679 -11.15991,3.70679 -4.80031,0 -8.52027,-1.23596 -11.15991,-3.70789 -2.63966,-2.47192 -3.95948,-6.03624 -3.95948,-10.69299 0,-6.14354 2.71216,-10.60764 8.13648,-13.39233 0.0952,2e-5 0.14281,-0.0476 0.14282,-0.14283 -10e-6,-0.0483 -0.0242,-0.0725 -0.0725,-0.0725 -2.11231,-1.29635 -3.82838,-3.13253 -5.14819,-5.50854 -1.31983,-2.37594 -1.97974,-4.88375 -1.97974,-7.52344 0,-4.03267 1.22424,-7.20076 3.67273,-9.50427 2.44848,-2.30342 5.90441,-3.45515 10.3678,-3.4552 4.46336,5e-5 7.91928,1.14006 10.3678,3.42004 2.44845,2.28008 3.67269,5.45989 3.67273,9.53943 -4e-5,2.44779 -0.65995,4.73954 -1.97974,6.87524 -1.31985,2.13578 -3.13186,3.87601 -5.43604,5.22071 -0.0967,3e-5 -0.14504,0.048 -0.14502,0.14392 -2e-5,0.096 0.0483,0.14395 0.14502,0.14392 2.73484,1.24807 4.83433,3.10806 6.29847,5.57996 1.46408,2.47194 2.19613,5.3639 2.19616,8.6759 -3e-5,4.65675 -1.31985,8.22144 -3.95947,10.69409 z"
       id="path2958" />
  </g>
  <g
     transform="translate(14,2)"
     id="text3863"
     style="font-size:40px;font-style:normal;font-weight:normal;text-align:center;text-anchor:middle;fill:#ffffff;fill-opacity:1;stroke:#ffffff;stroke-opacity:1;font-family:IPAGothic;-inkscape-font-specification:IPAGothic">
    <path
       d="m 424.60364,49.830589 3.125,0 0,13.359375 8.125,-13.359375 3.86719,0 -6.67969,10.800782 7.69531,17.207031 -3.88672,0 -5.8789,-14.570313 -3.24219,4.882813 0,9.6875 -3.125,0 z"
       id="path3868" />
    <path
       d="m 446.02942,58.834496 0.44922,1.484375 c 1.1328,-1.497375 2.3177,-2.246072 3.55469,-2.246094 1.23697,2.2e-5 2.194,0.748719 2.87109,2.246094 1.18488,-1.497375 2.48696,-2.246072 3.90625,-2.246094 2.29165,2.2e-5 3.43748,1.601582 3.4375,4.804687 l 0,14.960938 -2.87109,0 0,-14.414063 c -2e-5,-1.861961 -0.46877,-2.792949 -1.40625,-2.792968 -0.84637,1.9e-5 -1.52997,0.468768 -2.05079,1.40625 -0.29949,0.585954 -0.44923,1.223974 -0.44921,1.914062 l 0,13.886719 -2.79297,0 0,-14.453125 c -1e-5,-1.835919 -0.48178,-2.753887 -1.44532,-2.753906 -1.62761,1.9e-5 -2.44141,1.093768 -2.4414,3.28125 l 0,13.925781 -2.8711,0 0,-19.003906 z"
       id="path3870" />
  </g>
  <g
     transform="translate(14,140)"
     id="text3863-1"
     style="font-size:40px;font-style:normal;font-weight:normal;text-align:center;text-anchor:middle;fill:#ffffff;fill-opacity:1;stroke:#ffffff;stroke-opacity:1;font-family:IPAGothic;-inkscape-font-specification:IPAGothic">
    <path
       d="m 424.60364,49.830589 3.125,0 0,13.359375 8.125,-13.359375 3.86719,0 -6.67969,10.800782 7.69531,17.207031 -3.88672,0 -5.8789,-14.570313 -3.24219,4.882813 0,9.6875 -3.125,0 z"
       id="path3868-8" />
    <path
       d="m 446.02942,58.834496 0.44922,1.484375 c 1.1328,-1.497375 2.3177,-2.246072 3.55469,-2.246094 1.23697,2.2e-5 2.194,0.748719 2.87109,2.246094 1.18488,-1.497375 2.48696,-2.246072 3.90625,-2.246094 2.29165,2.2e-5 3.43748,1.601582 3.4375,4.804687 l 0,14.960938 -2.87109,0 0,-14.414063 c -2e-5,-1.861961 -0.46877,-2.792949 -1.40625,-2.792968 -0.84637,1.9e-5 -1.52997,0.468768 -2.05079,1.40625 -0.29949,0.585954 -0.44923,1.223974 -0.44921,1.914062 l 0,13.886719 -2.79297,0 0,-14.453125 c -1e-5,-1.835919 -0.48178,-2.753887 -1.44532,-2.753906 -1.62761,1.9e-5 -2.44141,1.093768 -2.4414,3.28125 l 0,13.925781 -2.8711,0 0,-19.003906 z"
       id="path3870-2" />
  </g>
  <path
     d="m 73.450412,21.92344 c -0.41062,0.002 -0.82296,0.27112 -1.136426,0.81443 L 45.418621,69.015575 c -0.678064,0.792601 -1.098546,1.842495 -1.098546,2.954695 0,2.518425 2.046209,4.564635 4.564634,4.564635 1.022713,0 1.954384,-0.334318 2.695856,-0.871253 0.03583,0.01027 0.08535,0.01261 0.126265,0.01261 l 6.622827,-3.857526 c 0,0 0,-33.275776 0,40.311884 0,2.10933 1.741871,3.8449 3.851221,3.8449 3.756512,0 11.269534,0 11.269534,0 3.756514,0 7.513028,0 11.269542,0 2.109342,0 3.851213,-1.73557 3.851213,-3.8449 l 0,-40.311876 6.622827,3.857526 c 0.04092,0 0.09047,-0.0025 0.126273,-0.01261 0.741462,0.536935 1.673133,0.871253 2.695846,0.871253 2.518427,0 4.564637,-2.046209 4.564637,-4.564634 0,-1.1122 -0.42049,-2.162094 -1.09854,-2.954696 L 74.586838,22.73788 C 74.273372,22.19457 73.861032,21.926 73.450412,21.92344 z"
     id="path13506"
     style="fill:#ffffff;fill-opacity:1;fill-rule:nonzero;stroke:none" />
  <path
     d="m 51.223864,167.23661 c -0.354606,0.20704 -0.577144,0.64628 -0.576959,1.27353 l -0.153218,53.52535 c -0.190911,1.02545 -0.03012,2.14492 0.52598,3.10812 1.259211,2.18101 4.054385,2.92998 6.235403,1.67077 0.885697,-0.51136 1.525394,-1.26672 1.899057,-2.10246 0.03617,-0.009 0.0802,-0.0317 0.115653,-0.0522 l 3.806778,-6.65213 c 0,0 -16.63789,-28.81767 20.155938,34.91112 1.054666,1.82673 3.430957,2.45884 5.257584,1.40463 3.253235,-1.87826 9.759704,-5.63478 9.759704,-5.63478 3.253236,-1.87825 6.506466,-3.75651 9.759706,-5.63477 1.82675,-1.05467 2.46747,-3.42865 1.41235,-5.2555 l -20.155934,-34.91111 7.664302,0.0293 c 0.03543,-0.0204 0.07736,-0.047 0.103057,-0.074 0.91059,0.0943 1.884601,-0.082 2.770297,-0.59341 2.181018,-1.2592 2.929988,-4.05438 1.670778,-6.2354 -0.5561,-0.96319 -1.44521,-1.66219 -2.428714,-2.00958 L 52.615257,167.37372 c -0.543123,-0.31379 -1.034496,-0.34024 -1.391393,-0.13711 z"
     id="path13506-8"
     style="fill:#ffffff;fill-opacity:1;fill-rule:nonzero;stroke:none" />
</svg>
