<?xml version="1.0" encoding="UTF-8" standalone="no"?>
<!-- Created with Inkscape (http://www.inkscape.org/) -->

<svg
   xmlns:dc="http://purl.org/dc/elements/1.1/"
   xmlns:cc="http://creativecommons.org/ns#"
   xmlns:rdf="http://www.w3.org/1999/02/22-rdf-syntax-ns#"
   xmlns:svg="http://www.w3.org/2000/svg"
   xmlns="http://www.w3.org/2000/svg"
   xmlns:sodipodi="http://sodipodi.sourceforge.net/DTD/sodipodi-0.dtd"
   xmlns:inkscape="http://www.inkscape.org/namespaces/inkscape"
   id="svg1890"
   sodipodi:version="0.32"
   inkscape:version="0.48.4 r9939"
   width="500.34357"
   height="500.34357"
   version="1.0"
   sodipodi:docname="AJAX1.svg"
   inkscape:output_extension="org.inkscape.output.svg.inkscape">
  <metadata
     id="metadata1895">
    <rdf:RDF>
      <cc:Work
         rdf:about="">
        <dc:format>image/svg+xml</dc:format>
        <dc:type
           rdf:resource="http://purl.org/dc/dcmitype/StillImage" />
      </cc:Work>
    </rdf:RDF>
  </metadata>
  <defs
     id="defs1893">
    <inkscape:perspective
       sodipodi:type="inkscape:persp3d"
       inkscape:vp_x="0 : 235 : 1"
       inkscape:vp_y="0 : 1000 : 0"
       inkscape:vp_z="470 : 235 : 1"
       inkscape:persp3d-origin="235 : 156.66667 : 1"
       id="perspective10" />
    <inkscape:perspective
       id="perspective2390"
       inkscape:persp3d-origin="372.04724 : 350.78739 : 1"
       inkscape:vp_z="744.09448 : 526.18109 : 1"
       inkscape:vp_y="0 : 1000 : 0"
       inkscape:vp_x="0 : 526.18109 : 1"
       sodipodi:type="inkscape:persp3d" />
    <inkscape:perspective
       id="perspective3168"
       inkscape:persp3d-origin="372.04724 : 350.78739 : 1"
       inkscape:vp_z="744.09448 : 526.18109 : 1"
       inkscape:vp_y="0 : 1000 : 0"
       inkscape:vp_x="0 : 526.18109 : 1"
       sodipodi:type="inkscape:persp3d" />
    <inkscape:perspective
       id="perspective2400"
       inkscape:persp3d-origin="372.04724 : 350.78739 : 1"
       inkscape:vp_z="744.09448 : 526.18109 : 1"
       inkscape:vp_y="0 : 1000 : 0"
       inkscape:vp_x="0 : 526.18109 : 1"
       sodipodi:type="inkscape:persp3d" />
    <inkscape:perspective
       id="perspective2391"
       inkscape:persp3d-origin="372.04724 : 350.78739 : 1"
       inkscape:vp_z="744.09448 : 526.18109 : 1"
       inkscape:vp_y="0 : 1000 : 0"
       inkscape:vp_x="0 : 526.18109 : 1"
       sodipodi:type="inkscape:persp3d" />
  </defs>
  <sodipodi:namedview
     inkscape:window-height="1004"
     inkscape:window-width="1280"
     inkscape:pageshadow="2"
     inkscape:pageopacity="0.0"
     guidetolerance="10.0"
     gridtolerance="10.0"
     objecttolerance="10.0"
     borderopacity="1.0"
     bordercolor="#666666"
     pagecolor="#ffffff"
     id="base"
     inkscape:zoom="1.2451783"
     inkscape:cx="214.69899"
     inkscape:cy="246.78383"
     inkscape:window-x="-8"
     inkscape:window-y="-8"
     inkscape:current-layer="svg1890"
     showgrid="false"
     fit-margin-top="0.2"
     fit-margin-left="0.2"
     fit-margin-right="0.2"
     fit-margin-bottom="0.2"
     inkscape:window-maximized="1"
     showguides="true"
     inkscape:guide-bbox="true" />
  <path
     style="fill:#fcdc0f;fill-opacity:1;fill-rule:nonzero;stroke:none"
     d="m 496.8946,242.33616 c 4.33196,4.33195 4.33196,11.33928 0,15.67124 L 258.00741,496.89459 c -4.33196,4.33196 -11.33929,4.33196 -15.67125,0 L 3.4489785,258.0074 c -4.33196965,-4.33197 -4.33196965,-11.33928 -1e-5,-15.67124 L 242.33617,3.4489589 c 4.33195,-4.33194985 11.33929,-4.33194385 15.67125,1e-5 z"
     id="path5216"
     inkscape:connector-curvature="0"
     sodipodi:nodetypes="sssssssss" />
  <path
     style="fill:#000000;fill-opacity:1;fill-rule:nonzero;stroke:none"
     d="M 250.17179,12.231763 12.231779,250.17177 250.17179,488.1118 488.11181,250.17178 z m 16.73435,30.875126 190.33054,190.330551 c 9.25965,9.25963 9.25965,24.20902 1e-5,33.46868 L 266.90615,457.23668 c -9.25965,9.25963 -24.20908,9.25963 -33.46871,0 L 43.106879,266.90612 c -9.25963,-9.25964 -9.25964,-24.20905 0,-33.46869 L 233.43744,43.106869 c 9.25965,-9.259653 24.20905,-9.25963 33.4687,2e-5 z"
     id="path17826"
     inkscape:connector-curvature="0"
     sodipodi:nodetypes="cccccsssssssss" />
  <path
     inkscape:connector-curvature="0"
     d="m 280.31558,149.18596 -24.95372,72.39458 c -0.86329,2.42548 0.43246,5.05653 2.85713,5.87871 2.42552,0.86332 5.0771,-0.43246 5.89929,-2.83656 l 25.0154,-72.39458 c 0.82218,-2.38437 -0.47361,-5.05653 -2.87771,-5.87871 -2.42547,-0.90443 -5.07707,0.43246 -5.94039,2.83656"
     style="fill:#000000;fill-opacity:1;fill-rule:nonzero;stroke:none"
     id="path41498" />
  <path
     inkscape:connector-curvature="0"
     d="m 240.15121,191.50863 c -2.07605,-1.6855 -3.37104,-4.06987 -3.69992,-6.68036 -0.24675,-2.6516 0.49332,-5.26206 2.17882,-7.31758 1.6444,-2.07602 3.98768,-3.37099 6.6187,-3.63822 2.6516,-0.28781 5.26209,0.4522 7.33815,2.13774 4.25484,3.39156 4.9743,9.6608 1.52105,13.9568 -1.66493,2.07606 -4.02877,3.37104 -6.6598,3.65879 -2.65158,0.26813 -5.22098,-0.4522 -7.297,-2.11717 m 21.23327,4.25489 c 3.20657,-4.02877 4.64542,-9.00307 4.11098,-14.12128 -0.57553,-5.07707 -3.08325,-9.68138 -7.09146,-12.88793 -4.0082,-3.22713 -9.04417,-4.72766 -14.14181,-4.13155 -5.09764,0.59525 -9.70195,3.12435 -12.88797,7.07089 -6.63924,8.26309 -5.32372,20.39053 2.93937,27.05031 4.00821,3.24771 9.04418,4.68656 14.14182,4.09045 5.13874,-0.53442 9.70194,-3.02158 12.92907,-7.07089"
     style="fill:#000000;fill-opacity:1;fill-rule:nonzero;stroke:none"
     id="path41502" />
  <path
     inkscape:connector-curvature="0"
     d="m 292.89524,198.31234 c -2.09662,-1.68553 -3.37104,-4.00823 -3.67935,-6.68036 -0.28783,-2.67216 0.45223,-5.26209 2.11715,-7.33814 1.68551,-2.07606 4.04935,-3.371 6.68037,-3.65879 2.65159,-0.28781 5.26208,0.45223 7.31757,2.13773 4.25489,3.39157 4.95374,9.72249 1.54082,13.99794 -1.68554,2.01438 -4.04935,3.35043 -6.68037,3.65878 -2.65159,0.26814 -5.24152,-0.49332 -7.29701,-2.11716 m 21.19213,4.25486 c 3.24771,-4.02878 4.68656,-9.02361 4.13156,-14.14182 -0.53443,-5.11817 -3.08322,-9.70194 -7.05032,-12.92907 -4.04934,-3.20655 -9.06475,-4.60431 -14.16239,-4.06988 -5.11817,0.55418 -9.68137,3.06268 -12.88797,7.05036 -6.63923,8.28366 -5.32372,20.39052 2.98048,27.02978 3.96711,3.22713 9.00307,4.72765 14.10071,4.15208 5.13874,-0.57553 9.68138,-3.08321 12.88793,-7.09145"
     style="fill:#000000;fill-opacity:1;fill-rule:nonzero;stroke:none"
     id="path41506" />
  <path
     inkscape:connector-curvature="0"
     d="m 376.82115,184.14996 0,128.96183 -253.31937,0 253.31937,-128.96183"
     style="fill:#000000;fill-opacity:1;fill-rule:nonzero;stroke:none"
     id="path41510"
     sodipodi:nodetypes="cccc" />
  <path
     inkscape:connector-curvature="0"
     d="m 137.27361,223.5744 c -0.4522,0.90441 -1.84994,2.61044 -0.9669,4.29598 l 2.46658,4.72762 c 0.9258,1.62302 2.38437,1.82941 3.26826,0.47361 0.92577,-1.41914 1.66493,-2.54883 1.66493,-2.54883 l 24.58374,46.10476 c 1.378,2.65159 4.66598,3.59712 7.31757,2.1994 2.6516,-1.39775 3.67932,-4.66598 2.19937,-7.29704 l -28.18082,-52.92899 c -1.41913,-2.61049 -4.68655,-3.61769 -7.33815,-2.24051 0,0 -4.54263,6.31038 -5.01539,7.21481"
     style="fill:#000000;fill-opacity:1;fill-rule:nonzero;stroke:none"
     id="path41514" />
  <path
     inkscape:connector-curvature="0"
     d="m 195.62914,211.24138 c -2.58992,-4.83038 -7.54365,-7.27643 -11.07913,-5.40592 -3.49434,1.89105 -4.23432,7.37921 -1.66494,12.18906 l 13.9568,26.2076 c 2.5694,4.83039 7.5437,7.2559 11.05857,5.40596 3.51492,-1.87052 4.25489,-7.33813 1.70607,-12.20966 l -13.97737,-26.18704 z m 22.67213,22.28161 c 5.15931,9.66081 2.73382,21.17158 -5.44706,25.48815 -8.11923,4.29595 -18.99278,-0.0658 -24.13152,-9.72252 L 174.14922,221.93 c -5.13874,-9.68142 -2.69269,-21.15108 5.42649,-25.44707 8.16033,-4.31652 19.01335,0.0339 24.17265,9.70195 l 14.55291,27.33811"
     style="fill:#000000;fill-opacity:1;fill-rule:nonzero;stroke:none"
     id="path41518" />
  <path
     id="path51036"
     style="fill:#ffffff;fill-opacity:1;fill-rule:nonzero;stroke:none"
     d="m 221.73394,293.3379 97.24553,-49.12634 2.52828,4.97429 19.3422,-25.44701 -31.90128,0.53439 2.46658,4.95377 -97.26607,49.08523 z"
     inkscape:connector-curvature="0"
     sodipodi:nodetypes="cccccccc" />
</svg>
