<?xml version="1.0" encoding="UTF-8" standalone="no"?>
<!-- Created with Inkscape (http://www.inkscape.org/) -->

<svg
   xmlns:svg="http://www.w3.org/2000/svg"
   xmlns="http://www.w3.org/2000/svg"
   version="1.0"
   width="500.34357"
   height="500.34357"
   id="svg1890">
  <defs
     id="defs1893" />
  <path
     d="m 496.8946,242.33616 c 4.33196,4.33195 4.33196,11.33928 0,15.67124 L 258.00741,496.89459 c -4.33196,4.33196 -11.33929,4.33196 -15.67125,0 L 3.448976,258.0074 c -4.33196815,-4.33197 -4.33196515,-11.33928 -8e-6,-15.67124 L 242.33617,3.4489584 c 4.33195,-4.3319492 11.33929,-4.3319432 15.67125,1e-5 z"
     id="path5216"
     style="fill:#fcdc0f;fill-opacity:1;fill-rule:nonzero;stroke:none" />
  <path
     d="M 250.17179,12.231763 12.231779,250.17177 250.17179,488.1118 488.11181,250.17178 z m 16.73435,30.875126 190.33054,190.330551 c 9.25965,9.25963 9.25965,24.20902 1e-5,33.46868 L 266.90615,457.23668 c -9.25965,9.25963 -24.20908,9.25963 -33.46871,0 L 43.106879,266.90612 c -9.25963,-9.25964 -9.25964,-24.20905 0,-33.46869 L 233.43744,43.106869 c 9.25965,-9.259653 24.20905,-9.25963 33.4687,2e-5 z"
     id="path17826"
     style="fill:#000000;fill-opacity:1;fill-rule:nonzero;stroke:none" />
  <g
     transform="translate(557.61979,-4.362826)"
     id="g3619">
    <path
       d="m -371.10692,189.71544 c 63.05647,-7.3353 92.66756,24.48853 105.27209,55.41071 l 1.88178,-0.64758 -2.82857,-7.35385 5.41007,-3.81201 c -5.79118,-17.89259 -14.91722,-66.25779 -6.89892,-87.02585 0.41043,-1.06304 0.91596,-1.90527 1.56955,-2.56938 30.57757,38.17096 27.66397,68.55961 29.9252,87.50998 l 3.47024,0.40155 c 1.63017,-19.04452 -5.21808,-39.73512 -13.48532,-61.28729 l 11.79056,-24.98064 c 15.41323,21.24709 17.70406,69.86989 6.94046,85.13808 l 0.0346,4.7829 c 10.0969,3.31686 16.57116,11.29161 20.54669,21.2331 6.39685,24.39571 -3.0411,40.20948 -27.62221,37.40551 l -0.26811,5.56148 c 11.07712,10.9332 11.28557,28.46136 12.33547,45.40538 2.38458,3.6623 5.05408,7.60953 5.25285,9.08602 2.94671,7.86298 -0.51713,11.17982 -2.55544,11.21555 -5.12874,-1.31139 -8.84502,-4.78463 -11.35751,-9.08602 -3.08662,-13.20983 -5.20189,-18.65184 -9.51193,-25.12851 -3.96876,-7.01741 -8.29579,-10.78378 -12.3513,-10.64767 l -1e-5,5.39482 6.95649,9.36995 c 3.75396,4.74001 3.24514,8.69736 -0.70984,9.79586 -2.97152,0.56167 -7.17026,0.4422 -11.07358,-3.40725 -3.17017,-3.81003 -10.76475,-17.3902 -12.91919,-35.63422 -26.19852,-5.15258 -56.65581,-11.5615 -74.67567,-28.8197 4.85393,-5.0005 10.12994,-9.22239 11.64145,-20.30157 l -2.98135,-0.56787 c -1.5717,10.45249 -10.92808,17.71324 -17.03628,22.71504 -15.06193,10.07501 -63.85509,2.29894 -82.90988,-22.71504 l -3.54923,-0.70985 c -4.47193,4.37711 -9.99287,3.95098 -12.49327,-0.14196 -1.23427,-3.22831 -0.92424,-5.69532 1.41968,-9.51193 l 3.40727,-3.40725 c 3.41405,-2.61054 8.65462,-3.24192 12.31116,-0.16746 l 9.26813,8.96954 c 4.543,3.54497 9.51192,2.97505 13.62901,1.13575 2.37763,-1.60898 4.2439,-3.21797 5.11088,-4.82695 1.45261,-2.08769 1.36462,-5.1017 -0.42589,-7.09844 -6.16887,-6.09474 -13.56722,-5.47863 -19.02386,-5.53679 -7.22085,1.15453 -10.9413,-0.97821 -9.87407,-4.57663 1.57614,-5.31427 6.62386,-15.5229 14.55905,-6.78089 5.77478,5.04434 12.59211,6.14059 18.03006,5.25285 2.74673,-24.22394 14.08266,-36.43211 33.78869,-39.04147 z"
       id="path2837"
       style="fill:#000000;fill-opacity:1;stroke:#000000;stroke-width:1px;stroke-linecap:butt;stroke-linejoin:bevel;stroke-opacity:1" />
    <path
       d="m -390.98258,201.64083 17.46219,-8.80208 c 2.29888,-9.1374 -1.06582,-14.00201 -5.53679,-15.90052 -8.68415,-4.55368 -20.00494,1.28931 -20.30156,10.5057 -0.83669,8.95324 3.21358,10.75431 8.37616,14.1969 z"
       id="path3611"
       style="fill:#000000;fill-opacity:1;stroke:#000000;stroke-width:1px;stroke-linecap:butt;stroke-linejoin:miter;stroke-opacity:1" />
    <path
       d="m -222.65888,257.20569 a 2.4092934,2.4092934 0 1 1 -4.81859,0 2.4092934,2.4092934 0 1 1 4.81859,0 z"
       transform="translate(1.2046468,-1.8069701)"
       id="path3613"
       style="color:#000000;fill:#fcdc0f;fill-opacity:1;fill-rule:evenodd;stroke:#fcdc0f;stroke-width:1;stroke-linecap:round;stroke-linejoin:bevel;stroke-miterlimit:4;stroke-opacity:1;stroke-dasharray:none;stroke-dashoffset:0;marker:none;visibility:visible;display:inline;overflow:visible;enable-background:accumulate" />
    <path
       d="m -246.95259,230.50269 4.61782,-0.20077 c -0.38572,-12.36576 -1.15936,-23.08927 -7.83021,-33.52934 1.83311,10.86221 3.40392,21.85558 3.21239,33.73011 z"
       id="path3615"
       style="fill:#fcdc0f;fill-opacity:1;stroke:#fcdc0f;stroke-width:1px;stroke-linecap:butt;stroke-linejoin:miter;stroke-opacity:1" />
  </g>
</svg>
