<?xml version="1.0" encoding="UTF-8" standalone="no"?>
<!-- Created with Inkscape (http://www.inkscape.org/) -->

<svg
   xmlns:osb="http://www.openswatchbook.org/uri/2009/osb"
   xmlns:dc="http://purl.org/dc/elements/1.1/"
   xmlns:cc="http://creativecommons.org/ns#"
   xmlns:rdf="http://www.w3.org/1999/02/22-rdf-syntax-ns#"
   xmlns:svg="http://www.w3.org/2000/svg"
   xmlns="http://www.w3.org/2000/svg"
   xmlns:xlink="http://www.w3.org/1999/xlink"
   xmlns:sodipodi="http://sodipodi.sourceforge.net/DTD/sodipodi-0.dtd"
   xmlns:inkscape="http://www.inkscape.org/namespaces/inkscape"
   version="1.1"
   width="1796.3271"
   height="565.40002"
   id="svg2"
   xml:space="preserve"
   inkscape:version="0.48.4 r9939"
   sodipodi:docname="Japan road sign 505-A.svg"><sodipodi:namedview
     pagecolor="#ffffff"
     bordercolor="#666666"
     borderopacity="1"
     objecttolerance="10"
     gridtolerance="10"
     guidetolerance="10"
     inkscape:pageopacity="0"
     inkscape:pageshadow="2"
     inkscape:window-width="1280"
     inkscape:window-height="1004"
     id="namedview28"
     showgrid="false"
     fit-margin-top="0.2"
     fit-margin-left="0.2"
     fit-margin-right="0.2"
     fit-margin-bottom="0.2"
     inkscape:zoom="0.40510493"
     inkscape:cx="852.60933"
     inkscape:cy="274.79555"
     inkscape:window-x="-8"
     inkscape:window-y="-8"
     inkscape:window-maximized="1"
     inkscape:current-layer="svg2" /><metadata
     id="metadata8"><rdf:RDF><cc:Work
         rdf:about=""><dc:format>image/svg+xml</dc:format><dc:type
           rdf:resource="http://purl.org/dc/dcmitype/StillImage" /><dc:title></dc:title></cc:Work></rdf:RDF></metadata><defs
     id="defs6"><linearGradient
       id="linearGradient15703"
       osb:paint="solid"><stop
         style="stop-color:#ffffff;stop-opacity:1;"
         offset="0"
         id="stop15705" /></linearGradient><linearGradient
       inkscape:collect="always"
       xlink:href="#linearGradient15703"
       id="linearGradient15707"
       x1="-37.125"
       y1="465.375"
       x2="967.87512"
       y2="465.375"
       gradientUnits="userSpaceOnUse"
       gradientTransform="translate(961.6578,56.04101)" /></defs><g
     id="g2991"
     transform="matrix(34.167339,0,0,34.167339,14.96955,-0.98972)" /><path
     style="font-size:medium;font-style:normal;font-variant:normal;font-weight:normal;font-stretch:normal;text-indent:0;text-align:start;text-decoration:none;line-height:normal;letter-spacing:normal;word-spacing:normal;text-transform:none;direction:ltr;block-progression:tb;writing-mode:lr-tb;text-anchor:start;baseline-shift:baseline;color:#000000;fill:#000000;fill-opacity:1;fill-rule:nonzero;stroke:none;stroke-width:30;marker:none;visibility:visible;display:inline;overflow:visible;enable-background:accumulate;font-family:Sans;-inkscape-font-specification:Sans"
     d="M 56.8564,565.2 C 25.7378,565.2 0.2,539.66229 0.2,508.54375 l 0,-451.6875 C 0.2,25.73644 25.7386,0.2 56.8564,0.2 l 1682.6145,0 c 31.1177,0 56.6563,25.53645 56.6563,56.65625 l 0,451.6875 c 0,31.11853 -25.5377,56.65625 -56.6563,56.65625 z"
     id="path14428"
     inkscape:connector-curvature="0"
     sodipodi:nodetypes="sssssssss" /><path
     inkscape:connector-curvature="0"
     d="m 1739.4604,550.2 c 23.012,0 41.6668,-18.6548 41.6668,-41.66676 l 0,-451.66688 c 0,-23.01392 -18.6548,-41.66674 -41.6668,-41.66674 l -1682.5937,0 C 33.8548,15.19962 15.2,33.85244 15.2,56.86636 l 0,451.66688 C 15.2,531.5452 33.8548,550.2 56.8667,550.2 z"
     style="fill:#ffffff;fill-opacity:1;fill-rule:nonzero;stroke:none"
     id="path14430"
     sodipodi:nodetypes="sssssssss" /><path
     inkscape:connector-curvature="0"
     id="path15354"
     d="m 218.8167,282.70001 c 0.013,2.03241 1.342,4.07336 4.0312,5.62489 l 229.0585,133.12269 c 3.9231,3.35615 9.1197,5.43741 14.6247,5.43741 12.4653,0 22.5934,-10.12801 22.5934,-22.59336 0,-5.06207 -1.6548,-9.67352 -4.3125,-13.34352 0.051,-0.17718 0.062,-0.4225 0.062,-0.62499 l -19.0934,-32.78068 892.7,0 c 10.4404,0 8.9741,-16.25734 19.0309,-19.06217 l 0,-55.78027 0,-55.7803 c 0,-10.44052 -8.5905,-19.06216 -19.0309,-19.06216 l -892.7,0 19.0934,-32.78069 c 0,-0.20249 -0.011,-0.44781 -0.062,-0.62499 2.6577,-3.66999 4.3125,-8.28144 4.3125,-13.34352 0,-12.46534 -10.1281,-22.59335 -22.5934,-22.59335 -5.505,0 -10.7016,2.08125 -14.6247,5.4374 L 222.8479,277.0751 c -2.6892,1.55153 -4.0186,3.59247 -4.0312,5.62491 z"
     style="fill:#ed1c23;fill-opacity:1;fill-rule:nonzero;stroke:none"
     sodipodi:nodetypes="cccsscccsscsscccssccc" /><path
     sodipodi:nodetypes="cccsscccsscsscccssccc"
     style="fill:#ed1c23;fill-opacity:1;fill-rule:nonzero;stroke:none"
     d="m 1577.5105,282.70001 c -0.013,2.03241 -1.342,4.07336 -4.0312,5.62489 l -229.0585,133.12269 c -3.9231,3.35615 -9.1197,5.43741 -14.6247,5.43741 -12.4653,0 -22.5934,-10.12801 -22.5934,-22.59336 0,-5.06207 1.6548,-9.67352 4.3125,-13.34352 -0.051,-0.17718 -0.062,-0.4225 -0.062,-0.62499 l 19.0934,-32.78068 -892.7,0 c -10.4404,0 -8.9741,-16.25734 -19.0309,-19.06217 l 0,-55.78027 0,-55.7803 c 0,-10.44052 8.5905,-19.06216 19.0309,-19.06216 l 892.7,0 -19.0934,-32.78069 c 0,-0.20249 0.011,-0.44781 0.062,-0.62499 -2.6577,-3.66999 -4.3125,-8.28144 -4.3125,-13.34352 0,-12.46534 10.1281,-22.59335 22.5934,-22.59335 5.505,0 10.7016,2.08125 14.6247,5.4374 l 229.0585,133.1227 c 2.6892,1.55153 4.0186,3.59247 4.0312,5.62491 z"
     id="path15369"
     inkscape:connector-curvature="0" /></svg>