<?xml version="1.0" encoding="UTF-8" standalone="no"?>
<!-- Created with Inkscape (http://www.inkscape.org/) -->

<svg
   xmlns:dc="http://purl.org/dc/elements/1.1/"
   xmlns:cc="http://creativecommons.org/ns#"
   xmlns:rdf="http://www.w3.org/1999/02/22-rdf-syntax-ns#"
   xmlns:svg="http://www.w3.org/2000/svg"
   xmlns="http://www.w3.org/2000/svg"
   xmlns:sodipodi="http://sodipodi.sourceforge.net/DTD/sodipodi-0.dtd"
   xmlns:inkscape="http://www.inkscape.org/namespaces/inkscape"
   width="437"
   height="437"
   id="svg5338"
   version="1.1"
   inkscape:version="0.47 r22583"
   sodipodi:docname="Japanese_Road_sign_(Tractor Truck Lane B).svg">
  <defs
     id="defs5340">
    <inkscape:perspective
       sodipodi:type="inkscape:persp3d"
       inkscape:vp_x="0 : 526.18109 : 1"
       inkscape:vp_y="0 : 1000 : 0"
       inkscape:vp_z="744.09448 : 526.18109 : 1"
       inkscape:persp3d-origin="372.04724 : 350.78739 : 1"
       id="perspective5346" />
    <inkscape:perspective
       id="perspective5356"
       inkscape:persp3d-origin="0.5 : 0.33333333 : 1"
       inkscape:vp_z="1 : 0.5 : 1"
       inkscape:vp_y="0 : 1000 : 0"
       inkscape:vp_x="0 : 0.5 : 1"
       sodipodi:type="inkscape:persp3d" />
    <inkscape:perspective
       id="perspective5387"
       inkscape:persp3d-origin="0.5 : 0.33333333 : 1"
       inkscape:vp_z="1 : 0.5 : 1"
       inkscape:vp_y="0 : 1000 : 0"
       inkscape:vp_x="0 : 0.5 : 1"
       sodipodi:type="inkscape:persp3d" />
    <inkscape:perspective
       id="perspective5518"
       inkscape:persp3d-origin="0.5 : 0.33333333 : 1"
       inkscape:vp_z="1 : 0.5 : 1"
       inkscape:vp_y="0 : 1000 : 0"
       inkscape:vp_x="0 : 0.5 : 1"
       sodipodi:type="inkscape:persp3d" />
    <inkscape:perspective
       id="perspective5548"
       inkscape:persp3d-origin="0.5 : 0.33333333 : 1"
       inkscape:vp_z="1 : 0.5 : 1"
       inkscape:vp_y="0 : 1000 : 0"
       inkscape:vp_x="0 : 0.5 : 1"
       sodipodi:type="inkscape:persp3d" />
  </defs>
  <sodipodi:namedview
     id="base"
     pagecolor="#ffffff"
     bordercolor="#666666"
     borderopacity="1.0"
     inkscape:pageopacity="0.0"
     inkscape:pageshadow="2"
     inkscape:zoom="0.98994949"
     inkscape:cx="154.6087"
     inkscape:cy="220.80756"
     inkscape:document-units="px"
     inkscape:current-layer="layer1"
     showgrid="false"
     inkscape:window-width="789"
     inkscape:window-height="690"
     inkscape:window-x="409"
     inkscape:window-y="0"
     inkscape:window-maximized="0" />
  <metadata
     id="metadata5343">
    <rdf:RDF>
      <cc:Work
         rdf:about="">
        <dc:format>image/svg+xml</dc:format>
        <dc:type
           rdf:resource="http://purl.org/dc/dcmitype/StillImage" />
        <dc:title></dc:title>
      </cc:Work>
    </rdf:RDF>
  </metadata>
  <g
     inkscape:label="レイヤー 1"
     inkscape:groupmode="layer"
     id="layer1"
     transform="translate(0,-615.36218)">
    <g
       transform="translate(-1.5722657e-8,3.0078127e-6)"
       id="g3459">
      <rect
         y="631.63367"
         x="16.667519"
         height="404.5661"
         width="405.07117"
         id="rect2830"
         style="color:#000000;fill:#0066b3;fill-opacity:1;fill-rule:nonzero;stroke:#0066b3;stroke-width:30;stroke-linecap:round;stroke-linejoin:round;stroke-miterlimit:4;stroke-opacity:1;stroke-dasharray:none;stroke-dashoffset:0;marker:none;visibility:visible;display:inline;overflow:visible;enable-background:accumulate" />
      <rect
         y="631.63367"
         x="16.667519"
         height="404.5661"
         width="405.07117"
         id="rect2830-2"
         style="color:#000000;fill:#fcffff;fill-opacity:1;fill-rule:nonzero;stroke:#ffffff;stroke-width:23.5;stroke-linecap:round;stroke-linejoin:round;stroke-miterlimit:4;stroke-opacity:1;stroke-dasharray:none;stroke-dashoffset:0;marker:none;visibility:visible;display:inline;overflow:visible;enable-background:accumulate" />
      <rect
         y="637.18951"
         x="21.718281"
         height="392.94958"
         width="393.95956"
         id="rect2830-5"
         style="color:#000000;fill:#0066b3;fill-opacity:1;fill-rule:nonzero;stroke:#0066b3;stroke-width:14.80000019;stroke-linecap:round;stroke-linejoin:round;stroke-miterlimit:4;stroke-opacity:1;stroke-dasharray:none;stroke-dashoffset:0;marker:none;visibility:visible;display:inline;overflow:visible;enable-background:accumulate" />
    </g>
    <rect
       style="color:#000000;fill:#ffffff;fill-opacity:1;fill-rule:nonzero;stroke:none;stroke-width:2;marker:none;visibility:visible;display:inline;overflow:visible;enable-background:accumulate"
       id="rect3584"
       width="22.286755"
       height="46.802223"
       x="43.087761"
       y="669.02966" />
    <rect
       style="color:#000000;fill:#ffffff;fill-opacity:1;fill-rule:nonzero;stroke:none;stroke-width:2;marker:none;visibility:visible;display:inline;overflow:visible;enable-background:accumulate"
       id="rect3584-1"
       width="22.286755"
       height="46.802223"
       x="43.087761"
       y="763.00555" />
    <rect
       style="color:#000000;fill:#ffffff;fill-opacity:1;fill-rule:nonzero;stroke:none;stroke-width:2;marker:none;visibility:visible;display:inline;overflow:visible;enable-background:accumulate"
       id="rect3584-1-8"
       width="22.286755"
       height="46.802223"
       x="43.087761"
       y="856.98145" />
    <rect
       style="color:#000000;fill:#ffffff;fill-opacity:1;fill-rule:nonzero;stroke:none;stroke-width:2;marker:none;visibility:visible;display:inline;overflow:visible;enable-background:accumulate"
       id="rect3584-2"
       width="22.286755"
       height="46.802223"
       x="376.13068"
       y="669.02966" />
    <rect
       style="color:#000000;fill:#ffffff;fill-opacity:1;fill-rule:nonzero;stroke:none;stroke-width:2;marker:none;visibility:visible;display:inline;overflow:visible;enable-background:accumulate"
       id="rect3584-1-5"
       width="22.286755"
       height="46.802223"
       x="376.13068"
       y="763.00555" />
    <rect
       style="color:#000000;fill:#ffffff;fill-opacity:1;fill-rule:nonzero;stroke:none;stroke-width:2;marker:none;visibility:visible;display:inline;overflow:visible;enable-background:accumulate"
       id="rect3584-1-8-36"
       width="22.286755"
       height="46.802223"
       x="376.13068"
       y="856.98145" />
    <path
       style="fill:#ffffff;fill-opacity:1;fill-rule:evenodd;stroke:#ffffff;stroke-width:0.75534356px;stroke-linecap:butt;stroke-linejoin:miter;stroke-opacity:1"
       d="m 197.23351,900.22225 0.10491,-163.31732 -28.06974,19.45645 c -7.43529,5.09466 -24.22861,5.16628 -13.74366,-18.54211 L 215.5021,637.36659 c 2.31933,-4.2899 2.94411,-4.2521 5.48606,0.0982 l 59.29277,99.66731 c 9.39959,17.40948 -0.25177,28.69993 -17.03891,17.58829 l -24.35907,-17.56597 0.13031,163.16892 c -0.0262,1.30553 -0.65716,1.97182 -2.4822,2.08664 l -37.67764,-0.19046 c -1.32581,-0.334 -1.22689,-0.77114 -1.61992,-1.99723 z"
       id="path1935"
       sodipodi:nodetypes="ccccccccccccc" />
    <g
       id="g5583"
       transform="matrix(1.3590872,0,0,1.3590872,328.95589,3.3694886)">
      <rect
         y="667.06329"
         x="-107.45399"
         height="56.280323"
         width="144.58221"
         id="rect4719"
         style="fill:#fdffff;fill-opacity:1;stroke:#ffffff;stroke-width:2.5999999;stroke-linecap:round;stroke-linejoin:round;stroke-miterlimit:4;stroke-opacity:1;stroke-dasharray:none" />
      <path
         transform="translate(-362.3327,365.14958)"
         d="m 302.10244,375.01349 c 0,6.96683 -5.64773,12.61455 -12.61456,12.61455 -6.96682,0 -12.61455,-5.64772 -12.61455,-12.61455 0,-6.96683 5.64773,-12.61456 12.61455,-12.61456 6.96683,0 12.61456,5.64773 12.61456,12.61456 z"
         sodipodi:ry="12.614555"
         sodipodi:rx="12.614555"
         sodipodi:cy="375.01349"
         sodipodi:cx="289.48788"
         id="path4723"
         style="fill:#fdffff;fill-opacity:1;stroke:#ffffff;stroke-width:2.5999999;stroke-linecap:round;stroke-linejoin:round;stroke-miterlimit:4;stroke-opacity:1;stroke-dasharray:none"
         sodipodi:type="arc" />
      <path
         transform="translate(-293.43782,365.14958)"
         d="m 302.10244,375.01349 c 0,6.96683 -5.64773,12.61455 -12.61456,12.61455 -6.96682,0 -12.61455,-5.64772 -12.61455,-12.61455 0,-6.96683 5.64773,-12.61456 12.61455,-12.61456 6.96683,0 12.61456,5.64773 12.61456,12.61456 z"
         sodipodi:ry="12.614555"
         sodipodi:rx="12.614555"
         sodipodi:cy="375.01349"
         sodipodi:cx="289.48788"
         id="path4723-3"
         style="fill:#fdffff;fill-opacity:1;stroke:#ffffff;stroke-width:2.5999999;stroke-linecap:round;stroke-linejoin:round;stroke-miterlimit:4;stroke-opacity:1;stroke-dasharray:none"
         sodipodi:type="arc" />
      <path
         transform="translate(-263.0335,365.14958)"
         d="m 302.10244,375.01349 c 0,6.96683 -5.64773,12.61455 -12.61456,12.61455 -6.96682,0 -12.61455,-5.64772 -12.61455,-12.61455 0,-6.96683 5.64773,-12.61456 12.61455,-12.61456 6.96683,0 12.61456,5.64773 12.61456,12.61456 z"
         sodipodi:ry="12.614555"
         sodipodi:rx="12.614555"
         sodipodi:cy="375.01349"
         sodipodi:cx="289.48788"
         id="path4723-3-5"
         style="fill:#fdffff;fill-opacity:1;stroke:#ffffff;stroke-width:2.5999999;stroke-linecap:round;stroke-linejoin:round;stroke-miterlimit:4;stroke-opacity:1;stroke-dasharray:none"
         sodipodi:type="arc" />
      <path
         transform="translate(-455.48634,365.14958)"
         d="m 302.10244,375.01349 c 0,6.96683 -5.64773,12.61455 -12.61456,12.61455 -6.96682,0 -12.61455,-5.64772 -12.61455,-12.61455 0,-6.96683 5.64773,-12.61456 12.61455,-12.61456 6.96683,0 12.61456,5.64773 12.61456,12.61456 z"
         sodipodi:ry="12.614555"
         sodipodi:rx="12.614555"
         sodipodi:cy="375.01349"
         sodipodi:cx="289.48788"
         id="path4723-3-8"
         style="fill:#ffffff;fill-opacity:1;stroke:#ffffff;stroke-width:2.5999999;stroke-linecap:round;stroke-linejoin:round;stroke-miterlimit:4;stroke-opacity:1;stroke-dasharray:none"
         sodipodi:type="arc" />
      <path
         sodipodi:nodetypes="ccccccccccccccccc"
         id="path4799"
         d="m -194.78553,736.52425 -0.6469,-23.61186 c 0.16061,-2.72163 10.99731,-17.84367 16.49596,-26.76551 0.57015,-0.82962 0.88604,-1.83251 2.26415,-2.26415 l 27.49326,-0.32345 c 2.06994,0.19346 3.0025,0.65176 3.2345,2.5876 l 0.6469,39.46092 c 0.32965,1.24931 1.22068,2.63628 2.5876,2.5876 l 51.752022,0.0809 c 1.5121,-0.0598 3.42492,0.81893 2.91105,1.85984 l -3.31536,9.54178 c -0.74235,0.97146 -1.24312,0.98825 -1.77898,1.13208 l -55.390832,-0.0809 c 0.0874,-3.81484 -4.41574,-18.22324 -17.7089,-18.11321 -13.89221,0.15632 -17.41635,13.66379 -17.46631,17.06199 l -8.4097,-0.0809 c -1.4808,-0.0504 -2.57658,-1.25869 -2.66846,-3.07273 z"
         style="fill:#ffffff;fill-opacity:1;stroke:#ffffff;stroke-width:1px;stroke-linecap:butt;stroke-linejoin:miter;stroke-opacity:1" />
      <path
         sodipodi:nodetypes="ccccc"
         id="path4801"
         d="m -58.289568,729.00403 5.49864,0 0.32346,9.86522 -2.10242,1e-5 -3.71968,-9.86523 z"
         style="fill:#ffffff;fill-opacity:1;stroke:#ffffff;stroke-width:1.20000005;stroke-linecap:butt;stroke-linejoin:round;stroke-miterlimit:4;stroke-opacity:1;stroke-dasharray:none" />
      <path
         sodipodi:nodetypes="ccccccccccccc"
         id="path4803"
         d="m -184.83944,705.3113 c -0.009,-1.12592 10.18514,-13.37943 11.56334,-13.26145 l 7.19677,-0.0809 c 1.01518,-0.0268 1.75506,0.60012 1.69811,2.02156 l -4e-5,13.26145 c 0.0511,1.83972 -0.27638,2.60442 -1.85984,2.50674 l -17.2212,0.007 c -0.56688,0.049 -0.81031,-0.45497 -1.21546,-1.13925 -0.4619,-1.24026 -0.58911,-1.46053 -0.16176,-3.31537 l 4e-5,0 4e-5,4e-5 0,4e-5 0,1.4e-4 z"
         style="fill:#0066b3;fill-opacity:1;stroke:#0066b3;stroke-width:1px;stroke-linecap:butt;stroke-linejoin:miter;stroke-opacity:1" />
    </g>
  </g>
</svg>
