<?xml version="1.0" encoding="UTF-8" standalone="no"?>
<!-- Created with Inkscape (http://www.inkscape.org/) -->

<svg
   xmlns:osb="http://www.openswatchbook.org/uri/2009/osb"
   xmlns:dc="http://purl.org/dc/elements/1.1/"
   xmlns:cc="http://creativecommons.org/ns#"
   xmlns:rdf="http://www.w3.org/1999/02/22-rdf-syntax-ns#"
   xmlns:svg="http://www.w3.org/2000/svg"
   xmlns="http://www.w3.org/2000/svg"
   xmlns:sodipodi="http://sodipodi.sourceforge.net/DTD/sodipodi-0.dtd"
   xmlns:inkscape="http://www.inkscape.org/namespaces/inkscape"
   version="1.1"
   width="1005.4"
   height="1005.4"
   id="svg2"
   xml:space="preserve"
   inkscape:version="0.48.4 r9939"
   sodipodi:docname="AJAX1.svg"><sodipodi:namedview
     pagecolor="#ffffff"
     bordercolor="#666666"
     borderopacity="1"
     objecttolerance="10"
     gridtolerance="10"
     guidetolerance="10"
     inkscape:pageopacity="0"
     inkscape:pageshadow="2"
     inkscape:window-width="1280"
     inkscape:window-height="1004"
     id="namedview28"
     showgrid="false"
     fit-margin-top="0.2"
     fit-margin-left="0.2"
     fit-margin-right="0.2"
     fit-margin-bottom="0.2"
     inkscape:zoom="0.5"
     inkscape:cx="519.30703"
     inkscape:cy="557.44813"
     inkscape:window-x="-8"
     inkscape:window-y="-8"
     inkscape:window-maximized="1"
     inkscape:current-layer="svg2" /><metadata
     id="metadata8"><rdf:RDF><cc:Work
         rdf:about=""><dc:format>image/svg+xml</dc:format><dc:type
           rdf:resource="http://purl.org/dc/dcmitype/StillImage" /></cc:Work></rdf:RDF></metadata><defs
     id="defs6"><linearGradient
       id="linearGradient15703"
       osb:paint="solid"><stop
         style="stop-color:#ffffff;stop-opacity:1;"
         offset="0"
         id="stop15705" /></linearGradient></defs><path
     inkscape:connector-curvature="0"
     style="fill:#ffffff;fill-opacity:1;stroke:#0066b3;stroke-width:5;stroke-miterlimit:4;stroke-opacity:1;stroke-dasharray:none"
     d="m 2.69998,502.7 c 0,-276.1424 223.85772,-500 500.0001,-500 276.14238,0 500.00002,223.8576 500.00002,500 0,276.1423 -223.85764,500.0001 -500.00002,500.0001 C 226.5577,1002.7001 2.69998,778.8423 2.69998,502.7 z"
     id="path3854" /><path
     id="path14622"
     d="m 37.325,502.7 c 0,257.0196 208.35548,465.375 465.375,465.375 257.01958,0 465.37508,-208.3554 465.37508,-465.375 C 968.07508,245.6804 759.71958,37.325 502.7,37.325 245.68048,37.325 37.325,245.6804 37.325,502.7 z"
     style="fill:#0066b3;fill-opacity:1;stroke:none"
     inkscape:connector-curvature="0"
     sodipodi:nodetypes="sssss" /><path
     inkscape:connector-curvature="0"
     d="m 750.79149,802.54357 c -15.91058,0 -30.83417,-6.19842 -42.08576,-17.37137 -11.25222,-11.29139 -17.41116,-26.29394 -17.41116,-42.08609 l 45.12639,0 c 0,7.97504 6.43503,14.33138 14.37053,14.33138 7.975,0 14.4107,-6.35634 14.4107,-14.33138 0,-7.34335 -5.4881,-13.34437 -12.5156,-14.25242 l -18.00308,-43.03361 c 5.17188,-1.4592 10.58078,-2.32777 16.10798,-2.32777 15.9109,0 30.8342,6.27739 42.0861,17.48981 11.2519,11.17295 17.4112,26.1755 17.4112,42.12557 0,32.76872 -26.6493,59.45746 -59.4973,59.45746 M 651.7747,735.34954 c -1.10545,-5.32986 -3.47427,-10.34386 -6.8301,-14.72619 l 51.64034,-96.13473 23.01706,54.9567 c -21.35889,10.50178 -36.71644,31.34742 -39.32246,55.90422 l -28.50484,0 z m -32.13671,36.59831 0,-18.83214 c 4.06616,-1.57922 6.94823,-5.44829 6.94823,-10.02802 l 18.35838,0 c 0,14.72618 -11.01471,26.92562 -25.30661,28.86016 m -7.6592,0 c -6.27769,-0.86857 -12.23891,-3.71116 -16.73999,-8.2514 -5.56674,-5.48777 -8.60673,-12.83112 -8.60673,-20.60876 0,-7.77763 3.03841,-15.16047 8.60673,-20.68772 2.95945,-2.95945 6.4751,-5.25089 10.42313,-6.67218 l 0,19.62175 -17.88492,0 0,7.73815 17.21376,0 c 0,4.57973 2.88364,8.4488 6.98802,10.02802 l 0,18.83214 z m 3.82929,-39.67778 c -0.90963,0 -1.69608,0.0632 -2.56781,0.31584 l 0,-18.55578 c 0.86857,-0.12634 1.69924,-0.15792 2.56781,-0.15792 7.77795,0 15.08182,3.07947 20.60907,8.52776 3.67136,3.71116 6.2379,8.09348 7.50096,12.94957 l -20.49032,0 c -1.93296,-1.93612 -4.61889,-3.07947 -7.61971,-3.07947 M 512.40896,655.3228 c 3.94803,-12.55476 6.8301,-24.47783 8.72516,-35.2165 l 164.79143,0 -49.62716,92.34462 c -6.00101,-3.98752 -13.068,-6.23791 -20.49031,-6.23791 -2.84259,0 -5.64538,0.35375 -8.29088,0.98544 l 0,-21.43785 1.93296,0 0,-7.6592 -21.67473,0 0,7.6592 8.25171,0 0,26.29393 c -3.75095,2.36882 -7.0673,5.44829 -9.79113,9.11997 l -73.82863,-65.85328 z m 229.18363,76.74986 c -1.1844,0.90963 -2.053,2.13195 -2.8837,3.27688 l -46.90266,0 c 1.65818,-12.94957 7.50127,-24.99109 16.89792,-34.38742 4.53993,-4.57972 9.71217,-8.21192 15.23911,-11.01502 l 17.64773,42.12556 z m -227.48598,11.01503 c 0,32.76872 -26.68874,59.45746 -59.49693,59.45746 -15.9106,0 -30.83418,-6.19842 -42.08577,-17.37137 -11.25223,-11.29139 -17.45033,-26.29394 -17.45033,-42.08609 0,-15.95007 6.1981,-30.95262 17.45033,-42.12557 11.25159,-11.21242 26.17517,-17.48981 42.08577,-17.48981 10.97554,0 21.39868,3.03841 30.55781,8.52777 -6.67187,13.068 -14.72618,26.01757 -24.43804,38.29597 -2.05298,-1.02649 -4.26419,-1.61712 -6.67218,-1.61712 -7.93587,0 -14.41066,6.39582 -14.41066,14.41034 0,7.97504 6.47479,14.33138 14.41066,14.33138 7.93524,0 14.41002,-6.35634 14.41002,-14.33138 0,-1.26337 -0.22109,-2.44778 -0.47376,-3.59271 10.54126,-12.94957 19.18746,-26.68874 26.41237,-40.62532 0.75171,0.71065 1.53816,1.30443 2.28986,2.09404 11.25191,11.17295 17.41117,26.1755 17.41117,42.12557 M 800.97109,692.8718 c -13.3836,-13.38385 -31.2287,-20.84564 -50.1796,-20.84564 -7.1459,0 -14.09448,1.10545 -20.60843,3.07947 l -26.29425,-62.93173 -0.31585,-0.7517 13.81814,-25.78069 c 10.8571,-0.51483 20.09583,-2.64677 20.64819,-5.6457 1.2634,-6.31686 -8.88304,-13.89709 -8.88304,-13.89709 -27.99159,-1.34233 -48.40295,0 -44.57335,13.89709 4.027,3.15843 11.64671,4.85609 19.93791,5.52726 l -12.47612,23.1355 -169.13364,0 c 1.26338,-9.15945 1.77504,-17.13449 1.77504,-23.56979 l 0,-2.6436 -1.97402,-1.65818 c -9.55425,-8.29088 -17.09469,-19.22695 -17.09469,-24.99108 0,-2.173 0.83067,-3.04157 1.65818,-3.79012 5.8033,-4.34284 23.60927,-2.36882 34.46637,0.47377 l 2.92155,-11.09399 c -3.23739,-0.86857 -31.82119,-8.054 -44.37563,1.53815 -3.98784,3.12053 -6.11978,7.58024 -6.11978,12.87061 0,11.33087 11.17295,24.59628 19.06903,31.82119 -0.43587,20.7272 -6.2379,56.97019 -23.09603,94.04227 -10.69918,-6.27738 -22.85914,-9.63322 -35.53234,-9.63322 -39.16454,0 -70.98573,31.82119 -70.98573,71.06469 0,18.87162 7.38283,36.75624 20.80616,50.14009 13.38385,13.42333 31.22899,20.84564 50.17957,20.84564 18.99006,0 36.75624,-7.42231 50.21905,-20.84564 13.34436,-13.38385 20.7272,-31.26847 20.7272,-50.14009 0,-19.02954 -7.38284,-36.87468 -20.7272,-50.21905 -1.69608,-1.73713 -3.4348,-3.23739 -5.2111,-4.77712 3.27656,-7.10647 6.19811,-14.0945 8.76433,-21.12201 l 72.48598,64.70835 c -1.18441,3.6322 -1.89506,7.42231 -1.89506,11.40983 0,9.75165 3.8296,18.99006 10.81763,26.01757 6.90906,6.94855 16.14747,10.73867 26.01757,10.73867 0.63168,0 1.26337,-0.0948 1.89506,-0.0948 l 0,12.91009 -6.98803,0 0,7.65919 22.89894,0 0,-7.65919 -4.42212,0 0,-15.31839 c 4.659,-1.89506 8.96204,-4.65869 12.63404,-8.2514 6.90906,-7.02751 10.77814,-16.26592 10.77814,-26.01757 l 27.24146,0 c 0,18.87162 7.38284,36.75623 20.7272,50.14008 13.38354,13.42333 31.22867,20.84564 50.21877,20.84564 18.9509,0 36.796,-7.42231 50.1795,-20.84564 13.3839,-13.38385 20.8062,-31.26846 20.8062,-50.14008 0,-19.02955 -7.4223,-36.87468 -20.8062,-50.21905"
     style="fill:#ffffff;fill-opacity:1;fill-rule:nonzero;stroke:none"
     id="path4556" /><path
     style="color:#000000;fill:#ffffff;fill-opacity:1;fill-rule:evenodd;stroke:none;stroke-width:0.5999254px;marker:none;visibility:visible;display:inline;overflow:visible"
     d="m 388.06517,511.37389 c 1.69474,6.89163 -10.6092,3.33735 -15.13041,1.02911 -5.53691,-2.82685 -6.74523,-2.71292 -12.33852,-6.77735 -4.47466,-3.25153 -7.17938,-6.905 -9.3737,-11.38229 -1.58952,-3.24334 0,-11.71454 0,-15.43627 0,-5.83147 -0.63224,-11.6987 0,-17.49441 0.71327,-6.53834 1.42652,-11.98514 1.42652,-18.15964 0,-6.17451 0,-12.34901 0,-18.5235 0,-7.20358 -0.35662,-14.04333 -0.35662,-21.24689 0,-6.86058 -2.13976,-14.08495 -2.13976,-20.94552 0,-6.86054 -1.06988,-14.44876 -1.06988,-21.30932 0,-6.09122 0.13351,-12.94554 -0.88632,-19.18874 0.62984,-10.3351 -2.11445,-7.64191 -7.8248,-15.84108 -3.00068,-4.08183 -3.04981,-6.57614 -3.14842,-23.55476 -0.0231,-3.5784 1.72969,-4.67557 5.75669,-12.53629 3.56626,-10.08985 4.5194,-18.19976 5.74621,-22.71296 1.2317,-4.53106 1.72195,-11.71234 1.72195,-15.55037 0,-6.51754 -0.35662,-13.03504 -0.35662,-19.55259 0,-7.57559 -2.54488,-12.46009 -5.38959,-11.80859 -4.1914,0.95997 -9.79021,14.20392 -10.62711,17.61927 -2.85607,23.56411 -4.1382,47.83825 -5.15533,71.74509 0,5.48845 -2.13976,10.61306 -2.13976,16.10151 0,7.13034 -0.86386,10.74586 -5.81789,12.1617 -6.25256,1.78693 -8.09702,-0.78375 -9.66912,-3.99148 -2.92467,-5.96758 -5.4001,-14.32066 -5.4001,-22.41154 0,-5.5355 -0.0612,-9.06745 -0.0612,-14.94756 0,-6.1745 0,-12.34901 0,-18.52349 0,-6.17448 0,-12.34899 0,-18.52347 0,-6.1745 0,-12.34901 0,-18.52351 2.06312,-12.64197 2.4276,-24.34242 5.69555,-37.66049 4.1744,-11.32541 9.67486,-19.61283 17.50437,-28.20077 12.20832,-14.5246 16.73782,-18.59007 29.54751,-25.85195 3.98474,-3.04893 6.21514,-2.68168 10.80019,-5.02056 2.36659,-1.20721 1.00868,-5.77113 1.00868,-10.29081 -7.23721,-3.78077 -6.05215,-2.8707 -7.83529,-11.37163 -1.77087,-8.44246 3.71697,-13.54922 -5.27769,-15.38454 -6.13886,-1.25258 -5.96006,-8.7442 -3.73933,-9.50073 7.45766,-2.54053 7.91377,-3.12128 11.93493,-9.53728 5.98205,-8.994823 16.44423,-11.270659 27.10862,-9.77628 7.4642,1.077787 14.5045,4.04777 19.30864,16.99855 3.65074,0.94719 5.15794,2.33367 7.16955,5.76991 3.89814,6.58468 -3.65267,6.3557 -6.68264,6.04583 -0.43341,8.95355 -0.23289,18.42382 -3.78258,25.46982 -1.80723,3.43967 -3.61446,5.90182 -5.42171,7.97541 0.21066,1.20493 0.18364,2.28076 0.6436,3.25673 2.00278,4.24928 6.4458,5.57622 9.94769,8.44907 11.5369,3.29629 21.09266,7.68561 30.89117,12.86353 3.58082,3.65318 6.24098,8.87449 7.31302,13.24943 3.53061,16.66108 0.49355,59.41821 4.66521,75.89484 3.61378,21.87802 14.38597,16.77831 15.13038,39.61969 1.62775,13.53216 0.83315,28.70112 10.59126,38.59059 1.54125,1.57241 4.76676,3.53124 7.06083,4.11633 14.05026,1.05372 23.79423,-3.25144 20.80605,-8.78274 -4.277,-7.91682 -11.26584,-19.37703 -4.16262,-34.43873 1.29996,-2.6525 6.45783,-10.21535 8.5739,-11.83446 -0.33626,-0.85756 -0.67248,-1.71513 -1.00871,-2.5727 -0.90547,-2.30938 -2.99834,-5.9018 -2.64781,-7.3322 0.42704,-1.74267 9.29783,0.94814 9.70867,1.15771 2.12876,1.08591 4.37691,3.04587 6.55651,3.60176 3.38255,0.86277 4.85106,-1.8619 6.55647,-3.60176 1.85243,-1.88985 3.90918,-3.28045 5.54781,-4.11632 3.87927,-1.97888 0.59733,2.38294 0,3.60177 -0.90694,1.85057 -0.76914,3.77004 -2.5217,5.14539 l -4.9174,3.8591 c 5.19008,2.76775 6.60188,5.15002 8.57388,7.58947 4.33181,12.84843 5.99333,25.45375 -3.65648,36.27516 -1.45489,2.99915 -2.30801,5.91058 0.88258,8.23268 9.26185,-1.10368 16.92364,1.57209 22.19124,8.10402 8.1981,15.05885 4.50671,30.08389 4.53911,44.50784 l 0.88259,33.57382 -7.69127,-0.25727 C 556.53415,400.44926 551.92322,379.583 546.1523,363.9357 l -4.50254,0.11642 c -5.85447,6.56429 -6.91637,16.79565 -7.47569,27.4116 6.27765,10.79175 7.29376,18.89959 8.32171,27.01343 0.21875,9.34957 -1.41871,10.8009 -7.06085,18.39485 l 0.36544,11.06938 c 3.68921,10.93051 9.64991,14.9088 15.26928,19.93176 -1.75096,11.84899 -6.02494,21.12396 -12.48254,28.17113 -2.93349,0.59374 -6.76221,3.32236 -8.06956,-5.53131 l -0.12611,-18.52349 c -4.67627,-0.94738 -5.3083,-3.54516 -6.80865,-5.78859 -3.1622,-7.59721 -3.93299,-16.41425 -4.44719,-25.36221 0.0785,-7.92923 -12.48516,-7.9909 -12.82665,-0.49351 -0.46228,6.17453 -1.70121,12.98197 -1.38697,19.80985 3.58289,8.0808 6.93311,16.20118 6.55652,24.95525 -1.50453,8.01839 -6.82045,13.25927 -12.98694,17.8803 -4.66871,2.08971 -8.61009,0.10464 -8.3217,-13.12077 0.83645,-4.14247 3.26053,-4.119 3.34525,-7.72462 0.42212,-17.9726 -8.92223,-41.55098 -11.16264,-57.62216 l -7.313,-9.26176 c -4.1286,-3.3351 -1.07114,-4.57555 -1.00868,-6.68903 l 16.13904,-32.67336 5.29567,-21.09621 -29.75643,-3.85906 c -3.00969,-2.59832 -3.94769,-5.72504 -4.28696,-9.00447 l 0.50435,-18.00897 c 1.36318,-9.17313 -9.79695,-17.57448 -10.86906,-28.54848 0.17833,-19.96597 -14.74748,-25.70425 -14.2621,-37.35021 0.64291,-15.4255 -2.39103,-27.80527 -11.43393,-37.26685 -20.41622,25.12915 -5.48247,52.98014 8.82607,80.78299 l -14.62605,24.95528 c 10.93329,23.71031 18.26065,48.79054 20.42603,74.35123 0.19056,32.42974 -4.81858,62.93041 -13.36515,92.61746 6.39988,2.26963 8.92225,5.39959 8.57385,9.51899 -2.17494,5.22768 -9.94422,4.68472 -16.13905,4.11635 -8.42905,-4.10822 -14.18039,-10.55801 -17.90429,-18.78077 4.27592,-27.153 5.97819,-55.43127 5.54781,-84.64205 0.47136,-21.31983 -4.94029,-36.63771 -13.86952,-48.36691 l -8.06953,-0.25726 c -2.29016,18.50515 -4.55846,37.01772 -2.90837,56.86289 1.72599,30.87046 0.77328,59.00811 0.63882,87.98052 l 5.57315,11.47061 z"
     id="path3022"
     sodipodi:nodetypes="cssssssssssccscssssccsssssssccccscssscccccccscccccccscssssssssscccccccccccccccccccccccccscccccccccscccccccccccccc"
     inkscape:connector-curvature="0" /></svg>