<?xml version="1.0" encoding="UTF-8" standalone="no"?>
<!-- Created with Inkscape (http://www.inkscape.org/) -->

<svg
   xmlns:svg="http://www.w3.org/2000/svg"
   xmlns="http://www.w3.org/2000/svg"
   xmlns:xlink="http://www.w3.org/1999/xlink"
   version="1.1"
   width="1090.4"
   height="625.40002"
   id="svg2"
   xml:space="preserve"><defs
     id="defs6"><linearGradient
       id="linearGradient15703"><stop
         id="stop15705"
         style="stop-color:#ffffff;stop-opacity:1"
         offset="0" /></linearGradient><linearGradient
       x1="-37.125"
       y1="465.375"
       x2="967.87512"
       y2="465.375"
       id="linearGradient15707"
       xlink:href="#linearGradient15703"
       gradientUnits="userSpaceOnUse"
       gradientTransform="translate(961.6578,56.04101)" /></defs><g
     transform="matrix(34.167339,0,0,34.167339,44.9692,29.01028)"
     id="g2991" /><path
     d="m 1003.5437,625.2 c 47.5318,0 86.6563,-39.1245 86.6563,-86.65625 l 0,-451.6875 C 1090.2,39.32334 1051.0742,0.2 1003.5437,0.2 L 86.8563,0.2 C 39.3258,0.2 0.2,39.32336 0.2,86.85625 l 0,451.6875 C 0.2,586.07546 39.3245,625.2 86.8563,625.2 z"
     id="path3967"
     style="font-size:medium;font-style:normal;font-variant:normal;font-weight:normal;font-stretch:normal;text-indent:0;text-align:start;text-decoration:none;line-height:normal;letter-spacing:normal;word-spacing:normal;text-transform:none;direction:ltr;block-progression:tb;writing-mode:lr-tb;text-anchor:start;color:#000000;fill:#0066b3;fill-opacity:1;fill-rule:nonzero;stroke:none;stroke-width:60;marker:none;visibility:visible;display:inline;overflow:visible;enable-background:accumulate;font-family:Sans;-inkscape-font-specification:Sans" /><path
     d="m 1003.5437,595.2 c 31.1185,0 56.6563,-25.53771 56.6563,-56.65625 l 0,-451.6875 C 1060.2,55.73644 1034.6614,30.2 1003.5437,30.2 l -916.6874,0 C 55.7386,30.2 30.2,55.73645 30.2,86.85625 l 0,451.6875 C 30.2,569.66228 55.7377,595.2 86.8563,595.2 z"
     id="path4012"
     style="font-size:medium;font-style:normal;font-variant:normal;font-weight:normal;font-stretch:normal;text-indent:0;text-align:start;text-decoration:none;line-height:normal;letter-spacing:normal;word-spacing:normal;text-transform:none;direction:ltr;block-progression:tb;writing-mode:lr-tb;text-anchor:start;color:#000000;fill:#ffffff;fill-opacity:1;fill-rule:nonzero;stroke:none;stroke-width:30;marker:none;visibility:visible;display:inline;overflow:visible;enable-background:accumulate;font-family:Sans;-inkscape-font-specification:Sans" /><path
     d="M 86.8668,580.2 C 63.8548,580.2 45.2,561.5452 45.2,538.53324 l 0,-451.66688 c 0,-23.01392 18.6548,-41.66674 41.6668,-41.66674 l 916.6665,0 c 23.0119,0 41.6667,18.65282 41.6667,41.66674 l 0,451.66688 c 0,23.01196 -18.6548,41.66676 -41.6667,41.66676 z"
     id="path4014"
     style="fill:#0066b3;fill-opacity:1;fill-rule:nonzero;stroke:none" /><path
     d="m 83.7632,312.74983 c 0,-1.1942 0.3794,-2.3847 1.1649,-3.3125 l 149.88556,-175.0301 c 12.96699,-11.8436 24.95444,-23.7684 32.94944,-7.9375 7.99498,15.8705 0.97075,41.6534 -3.00686,51.5625 -3.99749,9.8697 -26.96722,73.2188 -26.96722,73.2188 l 259.25056,0 c 1.78992,0 3.27448,3.0012 3.27448,6.5937 l 0,109.71 c 0,3.5926 -1.48456,6.5938 -3.27448,6.5938 l -259.25056,0 c 0,0 22.96973,63.3491 26.96722,73.2187 3.97761,9.9092 11.00184,35.6921 3.00686,51.5625 -7.995,15.831 -19.98245,3.9062 -32.94944,-7.9375 L 84.9281,316.06233 c -0.7855,-0.9277 -1.1674,-2.1182 -1.1649,-3.3125 z"
     id="path4055"
     style="fill:#ffffff;fill-opacity:1;fill-rule:nonzero;stroke:none" /><g
     transform="matrix(1.3915089,0,0,1.3915089,523.97925,-121.44357)"
     id="g3701"><path
       d="m 170,163.40002 -48,0 -52.949747,229.87868"
       id="path3626"
       style="fill:none;stroke:#ffffff;stroke-width:18;stroke-linecap:butt;stroke-linejoin:miter;stroke-miterlimit:4;stroke-opacity:1;stroke-dasharray:none" /><path
       d="m 254.55844,215.98519 -82.02438,173.94828 -66.46804,-126.57212 120.20815,0 43.84062,123.74369"
       id="path3630"
       style="fill:none;stroke:#ffffff;stroke-width:18;stroke-linecap:butt;stroke-linejoin:bevel;stroke-miterlimit:4;stroke-opacity:1;stroke-dasharray:none" /><rect
       width="82.024391"
       height="31.819754"
       x="197.28279"
       y="203.96437"
       id="rect3636"
       style="color:#000000;fill:#ffffff;fill-opacity:1;stroke:none;stroke-width:18;marker:none;visibility:visible;display:inline;overflow:visible;enable-background:accumulate" /><rect
       width="53.740078"
       height="39.597885"
       x="144.24979"
       y="369.42737"
       id="rect3638"
       style="color:#000000;fill:#ffffff;fill-opacity:1;fill-rule:evenodd;stroke:none;stroke-width:18;marker:none;visibility:visible;display:inline;overflow:visible;enable-background:accumulate" /><rect
       width="116.67262"
       height="19.799026"
       x="166.17009"
       y="376.49844"
       id="rect3640"
       style="color:#000000;fill:#ffffff;fill-opacity:1;fill-rule:evenodd;stroke:none;stroke-width:18;marker:none;visibility:visible;display:inline;overflow:visible;enable-background:accumulate" /><path
       d="m 337.28994,408.31824 a 60.81118,60.81118 0 1 1 -121.62236,0 60.81118,60.81118 0 1 1 121.62236,0 z"
       transform="translate(-211.53553,-12.142133)"
       id="path3644-8"
       style="color:#000000;fill:none;stroke:#ffffff;stroke-width:18;stroke-opacity:1;marker:none;visibility:visible;display:inline;overflow:visible;enable-background:accumulate" /><path
       d="m 337.28994,408.31824 a 60.81118,60.81118 0 1 1 -121.62236,0 60.81118,60.81118 0 1 1 121.62236,0 z"
       transform="translate(-1.53553,-12.142133)"
       id="path3644-8-4"
       style="color:#000000;fill:none;stroke:#ffffff;stroke-width:18;stroke-opacity:1;marker:none;visibility:visible;display:inline;overflow:visible;enable-background:accumulate" /></g></svg>