<?xml version="1.0" encoding="UTF-8" standalone="no"?>
<!-- Created with Inkscape (http://www.inkscape.org/) -->

<svg
   xmlns:dc="http://purl.org/dc/elements/1.1/"
   xmlns:cc="http://creativecommons.org/ns#"
   xmlns:rdf="http://www.w3.org/1999/02/22-rdf-syntax-ns#"
   xmlns:svg="http://www.w3.org/2000/svg"
   xmlns="http://www.w3.org/2000/svg"
   xmlns:sodipodi="http://sodipodi.sourceforge.net/DTD/sodipodi-0.dtd"
   xmlns:inkscape="http://www.inkscape.org/namespaces/inkscape"
   version="1.1"
   width="1005.4"
   height="1005.4"
   id="svg2"
   xml:space="preserve"
   inkscape:version="0.48.4 r9939"
   sodipodi:docname="AJAX1.svg"><sodipodi:namedview
     pagecolor="#ffffff"
     bordercolor="#666666"
     borderopacity="1"
     objecttolerance="10"
     gridtolerance="10"
     guidetolerance="10"
     inkscape:pageopacity="0"
     inkscape:pageshadow="2"
     inkscape:window-width="1280"
     inkscape:window-height="1004"
     id="namedview28"
     showgrid="false"
     fit-margin-top="0.2"
     fit-margin-left="0.2"
     fit-margin-right="0.2"
     fit-margin-bottom="0.2"
     inkscape:zoom="0.51603029"
     inkscape:cx="517.84672"
     inkscape:cy="389.22369"
     inkscape:window-x="-8"
     inkscape:window-y="-8"
     inkscape:window-maximized="1"
     inkscape:current-layer="svg2" /><metadata
     id="metadata8"><rdf:RDF><cc:Work
         rdf:about=""><dc:format>image/svg+xml</dc:format><dc:type
           rdf:resource="http://purl.org/dc/dcmitype/StillImage" /></cc:Work></rdf:RDF></metadata><defs
     id="defs6" /><path
     inkscape:connector-curvature="0"
     style="fill:#ffffff;fill-opacity:1;stroke:#ed1c23;stroke-width:5;stroke-miterlimit:4;stroke-opacity:1;stroke-dasharray:none"
     d="M 2.7,502.70001 C 2.7,226.55763 226.55763,2.7 502.7,2.7 c 276.14238,0 500,223.85763 500,500.00001 0,276.14237 -223.85762,499.99999 -500,499.99999 -276.14237,0 -500,-223.85762 -500,-499.99999 z"
     id="path3854" /><path
     id="path14622"
     d="M 968.075,502.70001 C 968.075,245.68049 759.71952,37.325 502.7,37.325 245.68047,37.325 37.325,245.68049 37.325,502.70001 37.325,759.71953 245.68047,968.075 502.7,968.075 c 257.01952,0 465.375,-208.35547 465.375,-465.37499 z"
     style="fill:#ed1c23;fill-opacity:1;stroke:none"
     inkscape:connector-curvature="0" /><path
     id="path15520"
     d="m 835.55,502.7 c 0,-183.82797 -149.02204,-332.85 -332.85,-332.85 -183.82798,0 -332.85,149.02203 -332.85,332.85 0,183.82797 149.02202,332.84999 332.85,332.84999 183.82796,0 332.85,-149.02202 332.85,-332.84999 z"
     style="fill:#ffffff;fill-opacity:1;stroke:none"
     inkscape:connector-curvature="0" /><path
     style="fill:#ed1c23;fill-opacity:1;stroke:none"
     d="M 783.75726,851.49809 851.49809,783.75726 221.64272,153.9019 153.90189,221.64273 z"
     id="path3011"
     inkscape:connector-curvature="0"
     sodipodi:nodetypes="ccccc" /><path
     inkscape:connector-curvature="0"
     d="m 519.51931,515.92644 114.41901,194.60708 c 1.89514,3.0796 4.8563,3.0796 6.71196,0 L 755.14825,515.92644 c 7.81745,-17.05625 15.67438,-32.77011 5.17215,-43.15389 -10.42326,-10.54171 -27.47951,-1.30291 -33.99405,3.90872 -6.55403,5.21163 -48.44449,35.33645 -48.44449,35.33645 l 0,-93.01974 c 0,-75.29229 -60.28911,-178.34047 -175.22139,-178.34047 -95.11228,0 -188.21098,85.20229 -188.21098,186.27637 l 0,309.61832 c 0,3.63234 2.95958,6.5935 6.59351,6.5935 l 63.88197,0 c 3.67183,0 6.5935,-2.96116 6.5935,-6.5935 l 0,-299.74781 c 0,-53.49819 37.8633,-112.91869 109.1679,-112.91869 57.48588,0 95.11228,51.48461 95.11228,93.0987 l 0.90967,95.03332 c 0,0 -41.89047,-30.12482 -48.48397,-35.33645 -6.51454,-5.21163 -23.53131,-14.45043 -33.99405,-3.90872 -10.46275,10.38378 -2.60582,26.09764 5.29059,43.15389"
     style="fill:#ffffff;fill-opacity:1;fill-rule:nonzero;stroke:#ffffff;stroke-width:30;stroke-miterlimit:4;stroke-opacity:1;stroke-dasharray:none"
     id="path13039" /><path
     id="path15908"
     style="fill:#0066b3;fill-opacity:1;fill-rule:nonzero;stroke:none"
     d="m 519.51931,515.92644 114.41901,194.60708 c 1.89514,3.0796 4.8563,3.0796 6.71196,0 L 755.14825,515.92644 c 7.81745,-17.05625 15.67438,-32.77011 5.17215,-43.15389 -10.42326,-10.54171 -27.47951,-1.30291 -33.99405,3.90872 -6.55403,5.21163 -48.44449,35.33645 -48.44449,35.33645 l 0,-93.01974 c 0,-75.29229 -60.28911,-178.34047 -175.22139,-178.34047 -95.11228,0 -188.21098,85.20229 -188.21098,186.27637 l 0,309.61832 c 0,3.63234 2.95958,6.5935 6.59351,6.5935 l 63.88197,0 c 3.67183,0 6.5935,-2.96116 6.5935,-6.5935 l 0,-299.74781 c 0,-53.49819 37.8633,-112.91869 109.1679,-112.91869 57.48588,0 95.11228,51.48461 95.11228,93.0987 l 0.90967,95.03332 c 0,0 -41.89047,-30.12482 -48.48397,-35.33645 -6.51454,-5.21163 -23.53131,-14.45043 -33.99405,-3.90872 -10.46275,10.38378 -2.60582,26.09764 5.29059,43.15389"
     inkscape:connector-curvature="0" /></svg>