<?xml version="1.0" encoding="UTF-8" standalone="no"?>
<!-- Created with Inkscape (http://www.inkscape.org/) -->

<svg
   xmlns:dc="http://purl.org/dc/elements/1.1/"
   xmlns:cc="http://creativecommons.org/ns#"
   xmlns:rdf="http://www.w3.org/1999/02/22-rdf-syntax-ns#"
   xmlns:svg="http://www.w3.org/2000/svg"
   xmlns="http://www.w3.org/2000/svg"
   xmlns:sodipodi="http://sodipodi.sourceforge.net/DTD/sodipodi-0.dtd"
   xmlns:inkscape="http://www.inkscape.org/namespaces/inkscape"
   version="1.1"
   width="434.75"
   height="487.96875"
   id="svg2"
   xml:space="preserve"
   inkscape:version="0.48.4 r9939"
   sodipodi:docname="AJAX1.svg"><sodipodi:namedview
     pagecolor="#ffffff"
     bordercolor="#666666"
     borderopacity="1"
     objecttolerance="10"
     gridtolerance="10"
     guidetolerance="10"
     inkscape:pageopacity="0"
     inkscape:pageshadow="2"
     inkscape:window-width="1280"
     inkscape:window-height="1004"
     id="namedview25"
     showgrid="false"
     inkscape:zoom="1.0334729"
     inkscape:cx="46.003746"
     inkscape:cy="227.02906"
     inkscape:window-x="-8"
     inkscape:window-y="-8"
     inkscape:window-maximized="1"
     inkscape:current-layer="g3818"
     fit-margin-top="0"
     fit-margin-left="0"
     fit-margin-right="0"
     fit-margin-bottom="0" /><metadata
     id="metadata8"><rdf:RDF><cc:Work
         rdf:about=""><dc:format>image/svg+xml</dc:format><dc:type
           rdf:resource="http://purl.org/dc/dcmitype/StillImage" /><dc:title /></cc:Work></rdf:RDF></metadata><defs
     id="defs6" /><g
     transform="matrix(1.25,0,0,-1.25,-80.878333,530.92715)"
     id="g10"><g
       transform="scale(0.1,0.1)"
       id="g12"><g
         id="g3033"
         transform="matrix(8,0,0,-8,437.32585,4042.8659)"><g
           id="g3818"
           transform="translate(26.212602,-25.584426)"><path
             style="fill:#0066b3;fill-opacity:1;fill-rule:nonzero;stroke:none"
             d="m 217.375,0.01550993 c 15.55512,0 22.73647,12.75861007 24.96875,16.65625007 l 185.75,317.15625 c 3.33071,6.66142 6.65625,17.74016 6.65625,25.5 l 0,104.25 c 0,13.32283 -11.08341,24.40625 -24.40625,24.40625 l -385.9375,0 C 11.08341,487.98426 -2.4999997e-7,476.90084 -2.4999997e-7,463.57801 l 0,-104.25 c 0,-7.75984 3.32554004999997,-18.83858 6.65625004999997,-25.5 L 192.40625,16.67176 C 194.63853,12.77412 201.81988,0.01550993 217.375,0.01550993 z"
             id="path3820"
             inkscape:connector-curvature="0"
             sodipodi:nodetypes="sccssssssccs" /><g
             id="g3930"
             transform="translate(10.536,10.511255)"><path
               style="fill:none;stroke:#ffffff;stroke-width:11;stroke-miterlimit:4;stroke-opacity:1;stroke-dasharray:none"
               d="m 206.839,5.566758 c -4.99606,0 -7.76304,3.31644 -11.09375,8.3125 L 9.4327498,332.75426 c -2.23229,3.86221 -3.90625,10.50836 -3.90625,14.9375 l 0,105.40625 c 0,4.42913 3.88337,8.3125 8.3125002,8.3125 l 386,0 c 4.42913,0 8.3125,-3.88337 8.3125,-8.3125 l 0,-105.40625 c 0,-4.42914 -1.67396,-11.07529 -3.90625,-14.9375 L 217.93275,13.879258 c -3.33071,-4.99606 -6.09769,-8.3125 -11.09375,-8.3125 z"
               id="path3932"
               inkscape:connector-curvature="0"
               sodipodi:nodetypes="sccssssssccs" /></g><g
             id="g4059"
             transform="matrix(0.92835867,0,0,0.92835867,37.195,96.867322)"
             style="fill:#ffffff"><path
               id="path4061"
               d="m 388.16928,378.21259 -13.8549,-27.17717 -360.46005,0 L 0,378.21259 z"
               style="fill:#ffffff;fill-opacity:1;fill-rule:nonzero;stroke:none"
               inkscape:connector-curvature="0"
               sodipodi:nodetypes="ccccc" /><path
               id="path4063"
               d="m 75.968502,319.42912 13.322834,-23.84645 -50.492124,0 -13.287402,23.84645 50.456692,0 z"
               style="fill:#ffffff;fill-opacity:1;fill-rule:nonzero;stroke:none"
               inkscape:connector-curvature="0" /><path
               id="path4065"
               d="m 90.95669,231.27165 9.4252,-19.41733 -33.838585,0 -9.992125,19.41733 34.40551,0 z"
               style="fill:#ffffff;fill-opacity:1;fill-rule:nonzero;stroke:none"
               inkscape:connector-curvature="0" /><path
               id="path4067"
               d="m 321.62598,231.27165 -7.22835,-19.41733 21.64961,0 9.95669,19.41733 -24.37795,0 z"
               style="fill:#ffffff;fill-opacity:1;fill-rule:nonzero;stroke:none"
               inkscape:connector-curvature="0" /><path
               id="path4069"
               d="m 169.12204,1.1338582 c -2.19685,0 -4.99606,0.5669291 -7.75984,1.6653543 -1.66535,0.5669291 -3.33071,1.6653543 -4.99606,2.2322834 -0.5315,0.531496 -0.5315,1.0984251 -1.09843,1.6653543 -1.09842,1.6653542 -1.66535,3.3307088 -2.76378,4.9960628 -0.56693,0.531496 -1.13386,1.629921 -2.23228,2.19685 -0.56693,0.566929 -2.23228,0.566929 -3.33071,1.665355 -0.5315,0.566929 -1.09842,2.232283 -1.66535,3.330708 0,0.566929 0.56693,1.098425 0.56693,1.098425 0.56692,1.133859 1.09842,1.665355 2.19685,2.232284 1.13385,0.566929 2.23228,1.098425 3.3307,1.665354 0.56693,0.531496 1.13386,1.098425 1.13386,1.665354 0.5315,0.531496 1.09843,2.196851 1.09843,3.330709 0,2.763779 0.56693,5.527559 0.56693,8.291338 0,2.799213 0,5.562992 -0.56693,8.326771 -0.56693,1.098426 -1.66536,1.665355 -2.23229,2.232284 -0.53149,0.531496 -1.09842,0.531496 -1.66535,1.098425 -0.5315,0 -0.5315,0.566929 -1.09842,0.566929 -0.56693,0.531496 -1.66536,0.531496 -2.19686,1.098425 -1.13385,0.566929 -2.23228,1.098425 -3.3307,1.665355 -0.56693,0 -0.56693,0.566929 -1.13386,1.098425 -1.66536,0.566929 -3.33071,1.133858 -4.99606,2.232283 -2.19686,1.665354 -3.86221,3.862205 -5.52756,5.527559 -0.56693,0.566929 -0.56693,1.133858 -1.09843,1.665354 0,0.566929 -0.56693,0.566929 -0.56693,1.133858 -1.09842,1.665355 -1.66535,3.330709 -2.76378,4.96063 0,0.566929 -0.56693,0.566929 -0.56693,1.133858 -0.56693,0 -0.56693,1.098426 -1.09842,1.665355 l -0.56693,0.531496 c -1.09843,1.133858 -1.09843,2.232283 -1.66536,3.330708 -0.53149,0.566929 -1.09842,0.566929 -1.09842,1.133859 -0.56693,1.098425 -1.09843,2.19685 -1.66535,3.295275 l -1.09843,1.133858 c -0.56693,0.531496 -0.56693,1.665354 -1.13386,2.196851 l -1.66535,1.665354 c -1.09843,1.665354 -1.66536,2.799212 -2.19685,4.464567 0,0.531496 -0.56693,0.531496 -0.56693,0.531496 -1.09843,1.098425 -1.09843,2.763779 -2.19685,3.897637 l -0.56693,0.531496 c -0.56693,0.566929 -0.56693,1.133859 -1.09843,1.665355 0,0.566929 -0.56693,0.566929 -0.56693,1.133858 -1.09842,1.665354 -1.66535,3.330709 -2.76377,4.960629 -0.56693,1.13386 -1.66536,1.66535 -2.23229,2.79921 -1.09842,1.09843 -1.66535,2.19685 -1.66535,3.33071 -1.09843,4.96063 -1.09843,9.95669 -2.19685,15.51969 0,1.09842 -0.566932,2.19685 -0.566932,3.3307 -0.566929,3.33071 -0.566929,6.62599 -1.098425,9.9567 0,2.79921 -1.133858,5.56299 -1.133858,8.8937 0,1.09842 0,2.76378 0.566929,3.8622 0,0.56693 0.566929,1.13386 0.566929,1.66536 0.531496,1.66535 1.665357,3.33071 1.665357,5.56299 0,0.53149 -1.133861,1.66535 -1.133861,2.19685 0,1.66535 1.133861,3.33071 1.133861,4.99606 0.53149,0.56693 0.53149,1.13386 1.09842,1.66536 0.56693,1.09842 1.09843,1.09842 1.66536,2.23228 0,0 0,0.5315 0.53149,0.5315 1.13386,0.56692 2.23229,0.56692 3.89764,1.13385 1.09843,0 2.76378,0 3.89764,-0.56693 1.09842,-1.09842 2.19685,-3.3307 2.76378,-4.99606 0.53149,-1.09842 0.53149,-2.19685 1.09842,-3.33071 0.56693,-1.66535 1.66536,-3.33071 2.23229,-4.99606 0.53149,-1.62992 0.53149,-3.8622 1.09842,-6.09449 0,-0.53149 0.56693,-1.09842 0.56693,-1.66535 1.09843,-6.62599 1.09843,-14.42126 1.66535,-21.04725 0.5315,-1.66535 0.5315,-3.89763 1.09843,-5.56299 0,-0.53149 0.56693,-1.66535 1.09842,-2.19685 0,-0.56693 1.13386,-1.13386 1.66536,-1.66535 0,-0.56693 0,-1.13386 0.56693,-1.66536 l 1.66535,-1.66535 c 0.5315,-1.13386 1.09843,-2.76378 1.66536,-3.89764 1.09842,-1.09842 2.76378,-2.19685 3.33071,-3.33071 0.53149,-0.53149 0.53149,-1.09842 1.09842,-1.66535 0,0 0.56693,-0.5315 1.09843,-0.5315 0,-0.56693 0,-1.66535 0.56692,-1.66535 0.56693,-1.13386 1.09843,-1.66536 2.19686,-2.23228 l 0.56692,0 c 0,1.09842 -0.56692,4.42913 -1.09842,6.09448 -0.56693,5.563 -1.09843,11.09055 -1.66536,16.65355 0,1.09842 -0.56692,2.76378 -0.56692,3.8622 -0.5315,0.56693 0,1.13386 0,1.66536 l 0,1.13385 c -1.09843,3.86221 -1.66536,7.75985 -2.19685,11.62205 -0.56693,6.09449 -1.13386,11.65748 -1.66536,17.18504 0,2.79921 0.5315,4.99606 1.09843,7.75984 0,1.66536 1.09842,3.33071 1.09842,4.99606 0,1.13386 0,1.66536 -0.53149,2.79922 l -0.56693,0.53149 c -1.09843,2.23229 -1.66536,3.89764 -2.76378,6.09449 -2.23229,6.12992 -4.42914,12.75591 -6.66142,18.85039 -0.56693,1.13386 -1.09843,2.23229 -1.66535,3.33071 -0.56693,1.13386 -0.56693,1.66536 -1.09843,2.79921 -0.56693,1.66536 -1.66535,3.33071 -2.23228,4.96063 -0.56693,1.13386 -1.09843,2.79922 -1.66536,4.46457 -0.56693,1.09843 -0.56693,2.19685 -1.09842,3.33071 l -0.56693,0.5315 c -1.09843,2.23228 -1.66536,4.99606 -2.76378,7.22834 0,0 -0.56693,0.5315 -1.09843,0.5315 0,1.13386 0,2.23228 -0.56693,3.33071 0,0.56693 -0.56692,0.56693 -1.09842,1.09842 0,0.56693 -0.56693,1.13386 -0.56693,1.66536 -1.66535,4.46456 -2.76378,8.32677 -4.42913,12.7559 -1.09843,3.33071 -2.76378,6.66142 -4.429137,10.55906 0,0 -0.566929,0 -0.566929,0.53149 -1.098425,2.79921 -1.665355,5.56299 -2.76378,8.32677 -0.566929,1.66536 -1.133858,2.23229 -1.665354,3.89764 0,0.5315 -0.566929,1.66536 -0.566929,2.19685 -0.531496,1.13386 -1.665354,2.23228 -1.665354,3.33071 -1.098426,2.23228 -1.098426,4.42913 -1.665355,6.66142 0,1.09842 0,2.23228 0.566929,2.76378 0,0.56693 0.566929,1.13385 1.098426,1.66535 l 1.665354,0 1.665354,0 1.665354,-1.66535 c 0.56693,-1.66536 0,-3.86221 0.56693,-5.52756 1.098425,-3.89764 2.19685,-7.75984 3.330711,-11.09055 0.53149,-1.66536 1.09842,-2.79922 2.19685,-3.89764 l 0.56693,-0.5315 c 0.53149,-0.56693 0.53149,-1.13386 1.09842,-1.66535 0,-0.56693 0.56693,-0.56693 0.56693,-1.13386 0.5315,-0.5315 0.5315,-1.09842 1.09843,-1.66535 0.56693,-1.09843 1.66535,-1.66536 2.23228,-2.19685 0.5315,-0.56693 0.5315,-1.66536 1.09842,-2.23229 l 3.89764,-3.8622 c 0.5315,0 1.09843,0 1.62992,-0.56693 l 1.66536,-1.66536 c 1.66535,-1.09842 3.33071,-1.66535 4.99606,-2.76378 l 1.66535,-1.66535 c 0.56693,0 1.13386,-0.56693 1.66536,-0.56693 0.56693,-0.56693 0.56693,-1.09842 1.09842,-1.09842 4.46457,-1.66536 9.46063,-2.76378 13.32284,-4.99607 1.66535,-0.56693 2.23228,-1.66535 3.33071,-3.3307 0.56693,-0.56693 1.09842,-2.23229 1.66535,-3.33071 l 0.56693,-0.5315 c 0.5315,-1.13386 0.5315,-1.66535 1.09843,-2.79921 1.09842,-2.19685 2.19685,-4.42914 3.3307,-6.66142 0.5315,-1.09842 0.5315,-1.62992 1.09843,-2.76378 l 0.56693,-0.53149 c 0.53149,-1.13386 1.09842,-2.23229 1.66535,-3.33071 l 1.09843,-1.13386 c 0.56693,-1.09843 1.09842,-2.19685 1.66535,-3.29528 0,-0.56693 0.56693,-0.56693 0.56693,-1.13386 1.66536,-2.19685 2.76378,-4.42913 3.86221,-6.66141 0.56693,-1.09843 0.56693,-2.76378 1.66535,-4.42914 0,-0.53149 0.56693,-1.09842 1.09843,-1.66535 0.56692,0 1.13385,-0.5315 1.66535,-0.5315 1.13386,0 1.66535,0.5315 2.79921,0.5315 0.5315,0 1.09843,-0.5315 1.66536,-0.5315 0.53149,-0.56693 1.09842,-1.13385 1.09842,-1.66535 0.5315,-1.13386 0.5315,-2.23228 0.5315,-3.33071 0,-1.66535 0,-2.76378 -0.5315,-3.89764 0,-0.53149 -0.56693,-1.66535 -0.56693,-2.19685 -0.53149,-0.56693 -1.09842,-0.56693 -1.09842,-1.13386 -0.56693,-0.53149 -0.56693,-1.09842 -1.09843,-1.66535 0,-0.5315 -0.56693,-1.09842 -1.13386,-1.66535 -0.53149,-0.5315 -1.66535,-1.09843 -2.19685,-1.09843 -3.3307,-1.09842 -6.09448,-1.09842 -8.8937,-1.66535 -0.53149,-0.5315 -1.09842,-0.5315 -1.66535,-1.09843 -0.5315,-0.56693 -1.66536,-1.66535 -2.19685,-2.76378 -0.56693,-1.66535 -0.56693,-2.79921 -0.56693,-4.46456 0,-1.66536 0,-2.76378 0.56693,-4.42914 0,0 0.53149,-0.53149 1.09842,-0.53149 0,-0.56693 0.56693,-1.13386 0.56693,-1.66536 0.5315,-1.13386 1.09843,-2.23228 2.19685,-2.23228 1.66536,-0.56693 3.89764,-0.56693 5.563,-0.56693 3.8622,0 7.75984,0.56693 11.62204,1.13386 2.79921,0.53149 4.99607,1.66535 7.79528,1.66535 1.09842,0.5315 2.19685,0.5315 3.29527,0.5315 1.13386,0 2.23229,0 3.33071,-0.5315 0.56693,0 1.13386,-0.56693 1.13386,-1.66535 0.5315,-1.13386 0,-2.23229 -0.56693,-3.33071 -0.56693,-1.66536 -1.66535,-2.23228 -1.66535,-3.89764 -0.56693,-2.19685 -1.66536,-4.42913 -1.09843,-6.66142 0,-4.96063 1.09843,-9.95669 1.66536,-15.51968 0.53149,-2.19685 1.09842,-4.99606 2.19685,-7.19291 l 1.13385,-1.13386 c 1.09843,0 2.19685,0.56693 3.29528,1.13386 1.13386,0.53149 1.66535,2.19685 2.79921,2.76378 0,0.56692 1.09843,0.56692 1.66536,0.56692 0.53149,1.09843 1.09842,2.19686 2.19685,2.76378 0.56693,0.56693 1.13386,0.56693 1.66535,1.09843 0.56693,0 0.56693,0.56693 1.13386,0.56693 0.5315,0.56693 1.09842,0.56693 1.62992,1.09842 1.13386,0.56693 2.23228,2.23229 3.33071,3.33071 0.56693,0.56693 1.13386,0.56693 1.66535,0.56693 1.13386,1.09843 2.23229,2.76378 3.33071,3.33071 1.66536,1.09842 3.33071,2.19685 5.56299,2.19685 2.19685,0 4.99607,-1.66535 7.19292,-2.19685 l 1.66535,0 c 0.56693,0.5315 0.56693,1.09842 1.09843,1.09842 1.13385,0.56693 2.23228,1.09843 3.33071,1.66536 0.56692,0 0.56692,0.56693 1.13385,1.09842 1.09843,0.56693 2.19685,1.09843 3.29528,1.09843 1.13386,0 2.23228,-0.5315 3.33071,-1.09843 0.56693,-0.53149 1.13386,-1.66535 1.13386,-2.19685 0.53149,-1.66535 1.66535,-2.79921 1.66535,-3.89763 -0.56693,-1.66536 -1.66535,-3.33071 -2.23228,-4.99607 -0.56693,-0.53149 -1.09843,-0.53149 -1.66536,-1.09842 0,-0.56693 -1.09842,-0.56693 -1.66535,-0.56693 -0.56693,-1.09843 -1.09843,-2.76378 -2.19685,-3.86221 -3.33071,-4.46456 -7.79528,-8.32677 -12.22441,-12.7559 -0.5315,0 -1.09843,0 -1.66536,-0.56693 -1.66535,-1.66535 -2.76378,-3.33071 -4.42913,-4.42913 0,-0.56693 -1.09842,-0.56693 -1.66535,-0.56693 -1.09843,-1.09843 -2.19685,-2.76378 -3.33071,-3.86221 -0.5315,-0.56693 -1.66536,-0.56693 -2.19685,-1.13386 -1.66536,-1.09842 -3.33071,-2.76377 -3.89764,-4.429129 -3.33071,-6.094488 -6.09449,-14.421259 -8.85827,-21.047243 0,-0.566929 -0.56693,-0.566929 -0.56693,-1.133858 -1.09842,-2.196851 -1.66535,-4.429134 -2.76378,-6.661418 -0.56693,-1.098425 -1.09842,-2.19685 -1.66535,-3.295275 -0.56693,-1.665354 -0.56693,-3.897638 -1.66535,-4.996063 -1.66536,-2.232283 -3.89764,-3.897637 -5.563,-5.562992 -0.53149,-0.531496 -1.09842,-0.531496 -1.66535,-1.098425 -0.5315,0 -0.5315,-0.566929 -1.09843,-0.566929 -0.53149,-0.531496 -1.09842,-0.531496 -1.66535,-1.098425 l -2.19685,-2.232284 0,-1.098425 c 0,-0.566929 0,-1.665354 0.5315,-2.232283 0.56692,-0.531496 0.56692,-0.531496 1.13385,-0.531496 2.19685,-1.665354 4.42914,-2.232284 6.62599,-3.897638 0.56693,0 1.13386,-0.531496 1.13386,-1.665354 1.66535,-4.429134 2.19685,-8.858268 3.3307,-13.287401 0.5315,-1.665355 1.09843,-3.897638 2.19685,-5.562992 0.56693,-1.098425 1.66536,-1.665354 2.76378,-2.76378 0.56693,-0.566929 1.13386,-0.566929 1.66536,-0.566929 0.56693,-1.098425 1.66535,-1.665354 2.23228,-2.19685 0,-0.566929 0.56693,-1.133858 0.56693,-1.665354 0,0 -0.56693,-0.566929 -0.56693,-1.133859 -0.56693,-0.531496 -1.09842,-1.665354 -2.23228,-2.19685 -2.19685,-1.098425 -4.42914,-2.232283 -6.62599,-3.3307084 -0.56692,0 -1.13385,-0.5669291 -1.66535,-1.0984252 0,-1.1338582 0,-2.2322834 -0.56693,-3.3307085 0,-1.1338582 -0.56693,-1.6653543 -1.09842,-1.6653543 -1.13386,-1.1338582 -2.23229,-1.6653543 -3.89764,-2.2322834 -1.66536,-0.53149602 -3.33071,-1.09842513 -4.99606,-1.09842513 -2.19686,0 -4.99607,0.56692911 -7.75985,1.09842513"
               style="fill:#ffffff;fill-opacity:1;fill-rule:nonzero;stroke:none"
               inkscape:connector-curvature="0" /><path
               id="path4071"
               d="m 191.30314,173.58661 c 0.56693,-0.5315 1.09843,-0.5315 1.66536,-0.5315 0.56693,0 1.66535,0 2.23228,0.5315 l 1.09843,1.13386 c 0.56693,1.09842 1.09842,2.19685 1.66535,3.29527 0,0.56693 0.56693,1.66536 0.56693,2.79921 0,0.5315 -0.56693,1.66536 -1.13386,2.19685 -0.53149,1.13386 -1.66535,1.13386 -2.19685,1.66536 l -2.23228,0 -1.66536,0 c -1.09842,-0.5315 -2.76377,-1.09843 -3.8622,-2.19685 -0.56693,0 -1.13386,-0.56693 -1.66535,-1.13386 l 0,-1.66535 0,-1.66536 1.66535,-1.62992 c 0.5315,-0.56693 1.66535,-0.56693 2.19685,-1.13386 0.56693,-0.53149 1.09843,-1.66535 1.66535,-1.66535"
               style="fill:#ffffff;fill-opacity:1;fill-rule:nonzero;stroke:none"
               inkscape:connector-curvature="0" /><path
               id="path4073"
               d="m 198.53149,205.19291 c 0.5315,1.66535 1.09843,3.3307 1.66536,4.99606 0.53149,0.56693 1.09842,0.56693 1.09842,1.09842 0.5315,0.56693 0.5315,1.66536 1.09843,2.79922 0,1.09842 0.56692,2.19685 1.66535,3.33071 l 0.56693,0.53149 c 0.53149,1.66536 1.09842,3.89764 1.66535,4.99606 l 1.09843,1.09843 c 0.56693,1.13386 1.09842,2.23228 1.66535,3.33071 0,0.56693 0.56693,0.56693 0.56693,1.13386 0.5315,0.53149 0.5315,1.66535 1.09843,2.19685 0,0.56693 0.56693,0.56693 0.56693,1.09842 0.53149,0.56693 0.53149,1.66536 1.09842,2.23229 0,0.56692 0.5315,0.56692 1.09843,1.09842 0,0.56693 0,1.13386 0.56693,1.66535 l 1.09842,1.13386 c 0,0.5315 0,1.09843 0.56693,1.66536 0.5315,0.53149 1.09842,0.53149 1.66535,0.53149 0.5315,0 1.09843,0.56693 1.66536,0 0,-0.53149 0,-4.42913 -0.56693,-6.66141 -1.09843,-4.96063 -2.23228,-9.9567 -3.33071,-14.38583 -0.56693,-1.13386 -1.66535,-2.23228 -1.66535,-3.33071 -0.56693,-1.66535 -0.56693,-3.89764 -1.09843,-5.56299 -1.09842,-2.19685 -2.23228,-4.42913 -3.33071,-6.66142 -0.56693,-0.53149 -1.66535,-1.09842 -2.23228,-1.09842 -1.09843,-0.56693 -2.19685,-0.56693 -3.33071,-0.56693 -1.09842,0 -2.19685,0 -3.29527,0.56693 -0.56693,0 -0.56693,0 -0.56693,0.56693 -0.56693,0.53149 -1.09843,1.66535 -1.09843,2.19685"
               style="fill:#ffffff;fill-opacity:1;fill-rule:nonzero;stroke:none"
               inkscape:connector-curvature="0" /><path
               id="path4075"
               d="m 181.87795,219.08267 c 0.56693,1.09842 1.09842,1.62992 1.66535,2.19685 0,0.56693 0.56693,0.56693 0.56693,1.09843 0.5315,0.56692 0.5315,1.13385 1.09843,1.66535 0,0.56693 0.56693,0.56693 0.56693,1.13386 1.09842,2.19685 1.09842,4.42913 1.66535,6.62598 0.5315,1.13386 1.66535,2.23229 1.66535,3.33071 0.5315,1.13386 0.5315,1.66535 1.09843,2.79921 0.5315,1.09843 1.09842,2.19685 1.66535,3.33071 1.66536,4.42913 2.19685,8.85827 3.33071,13.2874 1.66536,4.99607 3.86221,9.4252 4.99607,13.85433 1.09842,2.23229 1.09842,4.46457 2.19685,6.66142 0,0.56693 0.56692,1.09842 0.56692,1.66535 0,0.56693 0.5315,0.56693 0.5315,0.56693 0.56693,0.5315 1.13386,0.5315 1.66535,0.5315 0.56693,0 1.13386,0 1.66536,-0.5315 0.56693,0 1.13386,-0.56693 1.13386,-1.13386 1.09842,-1.62992 2.19685,-3.29527 2.76378,-4.96062 0.56693,-1.13386 0.56693,-1.66536 0.56693,-2.79922 0,-1.09842 0,-1.66535 -0.56693,-2.76378 -2.23229,-4.99606 -4.99607,-9.99212 -7.75985,-14.95275 0,-0.56693 -0.56692,-0.56693 -0.56692,-1.13386 -1.09843,-1.09843 -1.09843,-2.19685 -2.19685,-3.33071 0,-0.5315 -1.13386,-1.09842 -1.66536,-1.66535 0,-0.5315 0,-1.66536 -0.56693,-2.76378 -1.66535,-2.76378 -2.76378,-5.52756 -4.42913,-8.32677 0,-0.5315 -0.56693,-0.5315 -0.56693,-1.09843 -1.09843,-1.66535 -1.66536,-3.8622 -2.76378,-5.52756 0,-0.56693 -0.56693,-0.56693 -1.09843,-1.13386 -1.13385,-2.19685 -1.66535,-4.42913 -3.3307,-6.62598 -0.56693,-1.13386 -1.13386,-1.66535 -1.66536,-1.66535 -0.56693,-0.56693 -1.13386,0 -1.13386,0.53149 -0.53149,0 -1.09842,0.56693 -1.09842,1.13386"
               style="fill:#ffffff;fill-opacity:1;fill-rule:nonzero;stroke:none"
               inkscape:connector-curvature="0" /><path
               id="path4077"
               d="m 112.00393,288.92125 c 0,0.56693 1.13386,1.13386 1.13386,1.66535 0,0.56693 -1.13386,1.13386 -1.13386,1.66536 0,1.66535 1.13386,2.79921 1.66536,4.42913 0,0.56693 0,1.13386 0.56693,1.66536 0.53149,0.56693 0.53149,1.13385 1.09842,1.13385 1.09843,0.5315 2.23229,1.09843 3.89764,1.09843 1.09843,0 2.19685,-0.56693 3.33071,-1.09843 0.53149,0 0.53149,-0.56692 1.09842,-1.13385 0.56693,-0.5315 0.56693,-1.09843 0.56693,-1.66536 -0.56693,-1.09842 -1.13386,-2.19685 -1.13386,-3.29527 -0.53149,-0.56693 -1.09842,-0.56693 -1.09842,-1.13386 -0.56693,-0.5315 -0.56693,-1.09843 -1.09843,-1.66536 0,-0.53149 -1.13385,-1.09842 -1.66535,-1.66535 0,-0.5315 -0.56693,-1.09843 -0.56693,-1.66535 L 117,285.59054 c 0,-0.53149 -0.56693,-1.09842 -1.66536,-1.09842 -0.56693,0 -1.09842,0.56693 -1.66535,1.09842 -0.5315,1.13386 -1.09843,2.23228 -1.66536,3.33071"
               style="fill:#ffffff;fill-opacity:1;fill-rule:nonzero;stroke:none"
               inkscape:connector-curvature="0" /><path
               id="path4079"
               d="m 231.23621,298.91338 c 0.56693,1.09842 0.56693,2.23228 0.56693,3.3307 0,1.09843 -0.56693,2.23229 -0.56693,2.76378 0,0.56693 -0.56692,1.13386 -1.09842,1.66536 0,0.56693 -1.13386,1.09842 -1.66536,1.09842 -0.56692,0 -0.56692,-0.53149 -1.13385,-0.53149 -0.5315,0 -0.5315,-0.56693 -1.09843,-1.09843 -0.56693,0 -1.09842,0 -1.66535,-0.56693 l -1.09843,-1.09842 c -0.56693,-0.56693 -0.56693,-1.13386 -1.09842,-1.66536 0,-1.13385 -1.13386,-1.13385 -1.66536,-1.66535 l 0,-2.23228 0,-1.66536 0.5315,0 c 1.66535,-0.56693 2.76378,-0.56693 4.42913,-0.56693 1.13386,0 2.79921,0 4.46457,0.56693 0.5315,0 0.5315,1.09843 1.09842,1.66536 m 22.18111,-14.42126 c -0.56693,-0.5315 0,-1.66536 -0.56693,-2.19685 0,-0.56693 -0.5315,-0.56693 -1.09843,0 -0.56693,0 -1.66535,0 -1.66535,0.53149 -1.66536,2.23229 -2.23229,4.42914 -3.33071,7.22835 -0.56693,0.53149 -0.56693,1.66535 -1.09843,2.19685 -0.56693,1.66535 -1.66535,3.33071 -2.76378,4.99606 0,1.09843 -0.56692,2.23228 -0.56692,3.89764 -0.56693,2.19685 -0.56693,6.09449 -0.56693,6.62598 0.56693,0.56693 2.23228,0 3.3307,-0.53149 1.66536,-0.56693 2.76378,-1.09843 3.33071,-1.66536 1.09843,-0.56693 2.23229,-1.66535 3.33071,-2.76378 0.56693,-0.56693 0.56693,-1.66535 0.56693,-1.66535 0.5315,-0.56693 1.09843,-0.56693 1.09843,-1.13386 0.56693,-1.09842 0.56693,-2.19685 0.56693,-3.33071 0.53149,-1.62992 0.53149,-3.29527 0.53149,-4.96063 0,-1.66535 0,-3.89764 -0.53149,-5.56299 0,-0.56693 -0.56693,-1.09842 -0.56693,-1.66535 m -81.5315,-26.61024 c -0.53149,-0.56693 -1.09842,-0.56693 -1.66535,-0.56693 -0.5315,0 -1.09843,0 -1.62992,0.56693 -1.13386,0.56693 -1.66536,1.09843 -2.23229,2.23228 -1.09842,2.19685 -1.66535,4.96063 -2.76378,7.75985 -0.56693,2.19685 -0.56693,4.42913 -1.66535,6.66141 -0.56693,1.09843 -1.13386,2.76378 -1.66535,4.42914 0,1.09842 -0.56693,2.19685 -0.56693,3.33071 0,1.09842 0.56693,2.19685 0.56693,3.29527 l 0.53149,0.56693 11.65748,0 11.65748,0 c 0.5315,-0.56693 1.66536,-0.56693 2.19685,-1.09842 0,0 0.56693,0 0.56693,-0.56693 0.56693,-1.09843 1.09843,-2.76378 1.09843,-4.42914 0,-1.66535 -1.09843,-3.33071 -2.19685,-4.99606 l -0.56693,-0.5315 c -0.56693,-1.13385 -0.56693,-1.66535 -1.09843,-2.79921 -0.56693,-1.09842 -1.13386,-2.19685 -1.66535,-3.33071 0,-0.53149 -0.56693,-0.53149 -0.56693,-0.53149 -0.56693,-0.56693 -0.56693,-1.66536 -1.09843,-2.23229 l -1.66535,-1.66535 c -0.56693,-0.5315 -0.56693,-1.09843 -1.09843,-1.66536 -0.56693,-0.53149 -1.13385,-1.66535 -1.66535,-2.19685 -1.13386,-0.56692 -2.79921,-0.56692 -3.89764,-1.66535 0,0 0,-0.56693 -0.56693,-0.56693 m 149.74016,-7.19291 -2.76378,0 c -1.13386,0.53149 -2.23229,0.53149 -2.79922,1.09842 0,0 -0.53149,0 -0.53149,0.56693 -0.56693,1.09843 -1.13386,2.19685 -1.13386,3.29528 0.56693,3.89764 1.66535,7.22834 2.79921,11.09055 1.09843,2.23228 1.66536,4.46457 2.76378,6.66142 1.66536,4.42913 3.86221,8.32677 6.09449,12.2244 0,0.5315 1.09842,1.09843 1.66535,1.62993 0.56693,1.13385 0.56693,2.23228 0.56693,3.3307 0,1.13386 -0.56693,2.23229 -0.56693,3.33071 l -1.66535,1.66536 -2.23228,0 -2.76378,0 c -0.5315,-0.5315 -1.09843,-0.5315 -1.66536,-1.09843 -0.53149,-0.56693 -1.09842,-0.56693 -1.09842,-1.09842 -0.56693,-0.56693 -0.56693,-1.13386 -1.09843,-1.66536 0,-0.56693 -0.56693,-0.56693 -0.56693,-1.13386 -1.66535,-3.3307 -3.89763,-6.62598 -4.99606,-9.95669 -1.09843,-2.23228 -2.19685,-4.99606 -2.76378,-7.22834 -1.09842,-2.76378 -2.23228,-6.09449 -3.33071,-9.4252 -0.56693,-1.09843 -0.56693,-2.76378 -1.09842,-3.86221 0,-0.56692 -0.56693,-1.13385 -1.13386,-1.66535 -0.5315,0 -1.09843,-0.56693 -1.09843,0 -1.09842,0 -2.23228,0.5315 -3.33071,1.09843 -1.66535,1.66535 -3.8622,3.3307 -5.52755,5.52755 -0.56693,0.56693 -0.56693,1.13386 -0.56693,1.66536 l -1.09843,1.13386 c -0.56693,0 -0.56693,1.09842 -0.56693,1.66535 -0.56693,0 -0.56693,0.5315 -1.09842,0.5315 -0.56693,0.56693 -0.56693,1.13386 -0.56693,1.66535 -0.56693,0.56693 -1.09843,0.56693 -1.09843,1.13386 -0.56693,0.5315 -0.56693,1.66535 -0.56693,2.19685 -0.53149,1.09842 -1.66535,2.23228 -2.19685,3.89764 0,1.09842 -0.56693,2.19685 -0.56693,3.33071 -0.56692,2.76378 -1.09842,4.96063 -1.09842,7.75984 0,3.8622 0.5315,7.19291 1.09842,11.09055 0,0.5315 0.56693,1.09842 0.56693,1.66535 1.09843,1.66536 1.09843,3.86221 2.19685,5.52756 0.56693,2.23229 1.09843,3.89764 2.23229,5.56299 0,0 0.53149,0.5315 1.09842,0.5315 0,0.56693 0,1.13386 0.56693,1.66535 l 2.76378,2.76378 c 0.56693,0.56693 0.56693,1.66536 1.09843,2.23229 0.56693,0.56693 1.13385,0.56693 1.66535,0.56693 1.13386,1.09842 2.23228,2.76378 3.33071,3.3307 0.56693,0.5315 1.09842,0.5315 1.66535,1.09843 0.56693,0 0.56693,0.56693 1.09843,0.56693 1.66535,1.09842 3.33071,2.19685 4.99606,2.76378 1.13386,0.53149 1.66536,0.53149 2.76378,1.09842 1.66536,0 3.89764,0.56693 5.56299,0.56693 2.76378,0.5315 4.99607,0.5315 7.75985,0.5315 2.23228,0 4.42913,0 7.22834,-0.5315 1.62992,0 3.86221,-1.13386 5.52756,-1.66535 0.56693,0 0.56693,-0.56693 1.09843,-0.56693 2.79921,-1.66535 5.56299,-2.76378 8.32677,-4.42913 l 1.09842,-1.09843 c 0.56693,0 1.13386,0 1.66536,-0.56693 l 3.89763,-3.89764 c 0.56693,-0.53149 0.56693,-1.09842 0.56693,-1.62992 0.5315,-0.56693 1.09843,-0.56693 1.09843,-1.13386 0.53149,-0.53149 0.53149,-1.09842 1.09842,-1.66535 l 0.56693,-0.5315 c 0.5315,-1.13385 1.09843,-2.23228 1.66536,-3.89763 0.53149,-0.56693 0.53149,-1.66536 1.09842,-2.23229 0.56693,-1.09842 1.09843,-2.19685 1.66536,-3.29527 0.56693,-2.79921 1.09842,-5.56299 1.66535,-7.79528 0,-2.19685 0.56693,-3.8622 0.56693,-6.09449 0,-2.19685 -0.56693,-3.8622 -0.56693,-6.09448 -0.56693,-2.19685 -1.09842,-4.42914 -1.66535,-6.66142 0,-0.5315 -0.56693,-0.5315 -1.09843,-1.09843 -0.56693,-1.09842 -1.13386,-2.19685 -1.66535,-3.3307 0,-0.5315 -0.56693,-1.66536 -0.56693,-2.19685 -0.56693,-1.13386 -1.09843,-2.79922 -1.66536,-3.33071 -1.09842,-1.13386 -2.19685,-1.66536 -2.76378,-2.79922 -0.56693,-0.53149 -0.56693,-1.09842 -1.09842,-1.62992 -1.13386,-1.66535 -2.23228,-2.79921 -3.89764,-3.89763 0,-0.56693 -1.09842,-0.56693 -1.66535,-1.09843 l -1.66536,-1.66535 c -0.56693,0 -1.09842,-0.56693 -1.66535,-0.56693 0,-0.56693 -0.5315,-0.56693 -0.5315,-1.09843 -0.56693,0 -1.13386,-0.56693 -1.66535,-0.56693 -2.79921,-1.09842 -5.56299,-2.19685 -8.8937,-2.76378 -3.33071,-0.56693 -7.19292,-1.09842 -10.52362,-1.09842 m -173.58661,0.53149 c -1.09843,0 -1.62993,-0.53149 -2.76378,-0.53149 l -0.5315,0 c -2.23228,1.09842 -4.99606,1.09842 -7.22835,2.19685 -1.09842,0 -2.19685,1.09842 -3.3307,1.66535 -0.5315,0 -1.66536,0.56693 -2.19685,0.56693 l -1.13386,1.09843 c -0.5315,0 -1.09843,0.56693 -1.66536,0.56693 -0.53149,0.53149 -1.09842,1.66535 -1.66535,1.66535 -1.66536,1.09843 -3.29528,2.19685 -4.42914,3.33071 -0.53149,0 -0.53149,1.09842 -1.09842,1.66535 -0.56693,0.5315 -1.66535,1.09843 -2.23228,1.62992 -0.5315,0.56693 -0.5315,1.13386 -1.09843,1.66536 -1.09842,1.13386 -2.23228,1.66535 -2.76378,2.79921 -0.56693,0.5315 -1.13386,2.19685 -1.66535,3.33071 l -0.56693,0.5315 c -0.5315,0.56692 -1.09843,1.09842 -1.09843,1.66535 -1.09842,2.76378 -2.23228,5.56299 -2.76378,8.8937 l 0,6.09449 0,6.62598 c 0.5315,2.23229 1.09843,4.99607 1.66536,7.79528 0.53149,1.09842 1.09842,2.76378 2.19685,3.8622 0,1.09843 0.56693,2.76378 1.66535,3.89764 0,0 0.56693,0 0.56693,0.5315 0.5315,0.56692 0.5315,1.13385 1.09843,1.66535 0,0.56693 0.56693,0.56693 0.56693,1.13386 0.53149,0.53149 0.53149,1.09842 1.09842,1.66535 l 3.33071,3.29528 c 0.56693,0.56693 0.56693,1.13386 1.09842,1.66535 0.56693,0.56693 1.13386,1.66536 1.66536,2.23229 0.56693,0.56692 1.09842,0.56692 1.66535,0.56692 0.56693,0.5315 0.56693,1.09843 1.09843,1.09843 1.13386,0.56693 2.23228,1.09843 3.33071,1.66535 1.13386,0.56693 1.66535,0.56693 2.79921,1.09843 1.09842,0 2.19685,1.09842 3.29528,1.66535 1.66535,0.56693 3.3307,1.09843 4.99606,1.66536 l 4.46456,0 3.86221,0 c 2.76378,-0.56693 5.56299,-1.66536 7.75984,-1.66536 2.23229,-0.56693 4.42914,-0.56693 6.09449,-1.09842 3.33071,-1.09843 6.09449,-2.23228 8.32677,-4.42914 2.23228,-1.13385 3.33071,-2.79921 4.99606,-4.46456 0.56693,-0.5315 0.56693,-1.09843 0.56693,-1.66536 0.5315,-0.53149 1.09843,-0.53149 1.09843,-1.09842 0.53149,-0.5315 0.53149,-1.09843 1.09842,-1.66536 0,-0.53149 1.09843,-1.09842 1.66536,-1.66535 0,-0.5315 0,-1.09843 0.56693,-1.66535 0.53149,-0.5315 1.66535,-1.09843 1.66535,-1.66536 1.09843,-1.66535 2.19685,-3.33071 2.76378,-4.96063 0.56693,-1.66535 1.09843,-3.89764 1.09843,-5.56299 0,-1.09843 -0.5315,-2.23228 -1.09843,-3.33071 l -1.09842,-1.09842 c -1.13386,0 -1.66536,-0.56693 -2.23229,-0.56693 -1.09842,0 -1.66535,0.56693 -2.23228,0.56693 -3.29528,0.53149 -6.09449,0.53149 -9.4252,0.53149 -3.29527,0 -6.09449,0 -9.42519,-0.53149 -1.09843,0 -1.66536,-0.56693 -2.76378,-0.56693 -2.76378,0.56693 -5.52756,1.66535 -8.85827,1.66535 -1.13386,0 -2.79921,-0.56693 -3.89764,-1.09842 -0.5315,-0.56693 -1.66535,-1.09843 -2.19685,-2.23229 l 0,-2.19685 0,-2.79921 c 0.5315,-0.5315 0.5315,-1.09843 1.09843,-1.66535 0,-0.5315 0.56692,-0.5315 1.09842,-1.09843 0,-0.56693 0,-1.09842 0.56693,-1.66535 0,0 0.5315,-0.5315 1.09843,-0.5315 0.56692,-1.13386 1.09842,-2.23228 1.66535,-3.33071 0.56693,-2.79921 1.09842,-5.56299 1.66535,-7.75984 0.56693,-1.66535 1.09843,-3.33071 1.66536,-4.99606 1.09842,-4.99607 2.23228,-9.4252 2.76378,-13.88977 0,-0.53149 0,-1.09842 -0.5315,-1.62992 l 0,-0.56693 c -2.23228,-0.56693 -3.89764,-0.56693 -6.12992,-1.09842 -0.5315,0 -1.09842,0.53149 -1.66535,0.53149 m 34.937,-43.79527 c -0.53149,0 -1.09842,-0.56693 -1.09842,-0.56693 -0.56693,0 -1.09843,0.56693 -1.66536,1.13386 -1.09842,3.29527 -1.66535,6.62598 -2.76378,9.95669 0,0.56693 -0.56692,1.13386 -1.09842,1.66536 -0.56693,3.89763 -1.13386,8.32677 -2.23228,12.18897 -0.56693,1.66536 -1.66536,2.79921 -1.66536,4.46457 -0.56693,1.66535 -1.09842,3.8622 -1.66535,6.09449 0,0.53149 0.56693,1.66535 0.56693,2.19685 0.53149,1.13385 1.66535,1.66535 2.19685,2.23228 1.13385,0.56693 2.23228,1.09843 3.33071,1.66535 l 1.66535,1.66536 c 0.56693,0.56693 1.66535,0.56693 2.23228,1.09842 0.5315,0.56693 0.5315,1.13386 1.09843,1.66536 0,0.56693 0.56693,1.09842 1.09842,1.66535 0.56693,0.56693 1.66536,0.56693 2.23229,1.09843 0.56693,0.56693 0.56693,1.13386 0.56693,1.66535 1.66535,1.66536 3.8622,3.33071 5.52755,4.99606 0,0.56693 0,1.13386 0.56693,1.66536 0,0.56693 0.5315,0.56693 1.09843,1.09842 0.56693,1.13386 1.09842,2.23229 1.66535,3.33071 0,0.56693 0.56693,0.56693 0.56693,1.13386 1.09843,1.66536 1.66536,3.86221 1.66536,5.52756 0.53149,2.23228 0.53149,4.42913 1.09842,6.09449 0.56693,1.66535 0.56693,3.33071 2.23229,3.89764 1.62992,1.09842 3.8622,1.09842 6.09448,1.09842 0.5315,0 1.09843,-0.56693 1.66536,-1.66535 1.09842,-1.09843 1.09842,-2.76378 1.66535,-3.86221 1.09843,-2.79921 2.19685,-4.99606 3.86221,-7.22834 l 0.56693,-0.5315 c 0.53149,-1.13386 0.53149,-2.23228 0.53149,-3.33071 0,-0.56693 0,-1.66535 -0.53149,-2.79921 0,-1.09843 -0.56693,-1.66536 -0.56693,-2.76378 -0.56693,0 -1.09843,-0.5315 -1.09843,-0.5315 -0.56693,-1.66535 -1.09842,-2.79921 -1.66535,-4.46456 0,-0.5315 -0.56693,-0.5315 -1.09843,-0.5315 -1.13386,-2.23228 -2.23228,-4.99606 -3.33071,-7.22835 l -0.56693,-0.53149 c -0.56693,-1.13386 -0.56693,-1.66536 -1.09842,-2.79921 -1.13386,-2.19686 -2.23228,-4.42914 -3.33071,-6.62599 0,-0.56693 -0.56693,-0.56693 -1.09842,-1.13386 0,-0.53149 0,-1.66535 -0.56693,-2.19685 0,-0.56693 -0.56693,-0.56693 -1.09843,-1.13386 0,-0.53149 0,-1.66535 -0.56693,-2.76377 -1.66535,-2.76378 -2.76378,-5.52756 -4.42913,-8.32678 -0.56693,-0.53149 -0.56693,-1.66535 -0.56693,-2.76378 -0.56693,-0.56692 -1.66536,-0.56692 -1.66536,-1.66535 -1.09842,-1.09843 -1.09842,-2.19685 -2.19685,-3.33071 l -0.56692,-0.53149 c -0.56693,-1.13386 -0.56693,-1.66536 -1.09843,-2.79922 -0.56693,-1.09842 -0.56693,-2.19685 -1.66535,-3.33071 0,-0.53149 -0.56693,-0.53149 -0.56693,-1.09842 -0.56693,-0.56693 -0.56693,-1.09843 -1.09843,-1.66536 0,-0.53149 -0.56693,-0.53149 -1.13386,-1.09842 m 25.51181,-8.8937 c -0.53149,0 -1.09842,-0.5315 -1.66535,-0.5315 -2.19685,0 -3.86221,-0.56693 -6.09449,-0.56693 -1.66535,0 -3.8622,0 -5.52756,0.56693 -1.13386,0 -1.66535,0.5315 -2.23228,1.09843 -0.56693,0.56693 -0.56693,0.56693 -0.56693,1.09842 0,1.66536 0.56693,2.79922 1.13386,4.46457 0,0 0.53149,0.5315 1.09842,0.5315 0.56693,1.66535 1.66536,3.3307 2.23229,4.99606 0.53149,0.56693 1.09842,0.56693 1.09842,1.09842 0.56693,0.56693 0.56693,1.66536 0.56693,2.79922 1.66536,2.76378 2.76378,5.52756 4.42913,8.29134 0,0.56692 0.5315,0.56692 1.09843,0.56692 0,1.09843 0.56693,2.23229 0.56693,2.76378 1.09842,1.66536 1.66535,3.33071 2.76378,4.99607 0,1.09842 0.56693,1.66535 0.56693,2.76378 0.53149,0.56693 0.53149,0.56693 1.09842,0.56693 0.56693,1.09842 1.09843,2.76377 1.66536,3.89763 0.56693,0.5315 0.56693,1.66536 0.56693,2.19685 0.53149,0.56693 1.09842,0.56693 1.09842,1.13386 1.09843,1.62992 1.66536,3.29528 2.76378,4.96063 0,0.56693 0.56693,0.56693 0.56693,1.13386 0.5315,0.5315 0.5315,1.66535 1.09842,2.19685 0,0.56693 0.56693,0.56693 0.56693,1.13386 0.5315,1.09842 0.5315,2.19685 1.09843,3.29527 0,0.56693 0.56693,0.56693 0.56693,0.56693 1.09842,2.23229 1.66535,4.42914 2.76378,6.09449 0.56693,1.13386 1.66535,2.23228 2.76378,3.33071 0.56693,0 1.09842,0.56693 1.66535,0 1.09843,0 2.76378,-0.5315 3.89764,-1.66536 0.5315,0 0.5315,-1.09842 0.5315,-1.66535 0,-0.5315 0,-1.09842 -0.5315,-1.66535 -0.56693,-1.66536 -1.66536,-2.76378 -1.66536,-4.42914 -0.56692,-0.56693 0.5315,-1.09842 1.66536,-1.66535 0,-0.5315 1.09842,-1.09843 1.66535,-1.09843 0.5315,0 1.09843,-0.56693 1.66536,-0.56693 3.29527,0.56693 6.09449,0.56693 9.42519,1.66536 0.5315,0 1.66536,0.56693 2.19685,1.09842 l 0,1.66536 0,1.66535 c -0.53149,1.13386 -1.66535,1.66536 -2.19685,2.79921 0,1.09843 1.09843,1.66536 1.66536,2.19685 l 1.09842,0 1.09843,0 2.23228,-2.19685 c 0.5315,-0.56692 0.5315,-1.13385 1.09843,-1.66535 0,-0.56693 0.56693,-0.56693 0.56693,-1.13386 1.09842,-1.09842 1.66535,-2.76378 1.66535,-4.42913 0.5315,-1.09843 0.5315,-2.19685 1.09843,-3.33071 0,-0.5315 0.56693,-1.09843 0.56693,-1.66535 0.53149,-0.5315 1.09842,-0.5315 1.09842,-0.5315 0.56693,-1.66536 1.09843,-3.33071 1.66535,-4.46457 0.5315,-1.09842 1.09843,-2.19685 1.66536,-3.29527 l 1.09842,-1.13386 c 0.56693,-1.66536 0.56693,-3.86221 1.66536,-6.09449 0.56693,-2.19685 2.23228,-4.42913 3.33071,-6.66142 0.56693,-0.53149 0.56693,-1.66535 0.56693,-2.76378 0.53149,-1.09842 1.09842,-2.23228 2.19685,-3.3307 l 0.56693,-0.5315 c 0.53149,-1.13386 0.53149,-2.23228 1.09842,-3.33071 0,-1.66535 1.09843,-3.33071 1.66536,-4.46457 1.09842,-2.76378 2.76377,-5.52755 3.89763,-8.29133 0.5315,-0.56693 0.5315,-1.13386 0.5315,-1.66536 0,-1.13386 0,-1.66535 -0.5315,-2.23228 l 0,0 c -0.56693,-0.5315 -1.13386,-1.09843 -1.66535,-1.09843 -5.56299,-0.56693 -10.55906,-0.56693 -15.55512,-0.56693 -4.96063,0 -10.52362,0.56693 -15.51968,0.56693 -0.5315,0 -1.09843,0.5315 -1.66536,0.5315 -1.66535,0 -3.33071,-1.09843 -4.99606,-1.09843 -3.29528,0 -6.09449,1.09843 -8.85827,1.09843 -2.23228,0 -4.42913,-0.5315 -6.66142,-0.5315 -0.53149,0 -1.66535,0.5315 -2.19685,0.5315 -1.66535,0 -3.3307,-0.5315 -4.99606,-1.09843 -0.56693,0 -1.09842,0.56693 -2.23228,0.56693 -0.5315,0 -1.09843,0.5315 -1.66536,0.5315 m 50.45669,-71.50394 7.22835,0 c 3.86221,0 7.19291,0.5315 11.09055,0.5315 2.19685,0 4.42914,-0.5315 6.66142,-0.5315 2.76378,0 5.52756,0.5315 8.29134,1.09843 1.13386,0 1.66535,0.56693 2.79921,0.56693 1.09843,0.5315 2.19685,1.09842 3.33071,2.19685 0.53149,0 0.53149,0.56693 1.09842,1.13386 0.5315,0.53149 0.5315,1.09842 1.09843,1.62992 0,0.56693 0.56693,0.56693 0.56693,0.56693 0.53149,1.09842 0.53149,2.23228 1.09842,2.76378 l 0,2.79921 0,3.33071 c -1.09842,1.62992 -1.66535,3.29527 -2.76378,4.96063 -0.56693,0.56693 -0.56693,1.13386 -1.09842,1.13386 -0.56693,0.53149 -1.13386,0.53149 -1.66536,1.09842 -0.56692,0 -0.56692,0.56693 -1.13385,1.09843 -0.5315,0 -1.09843,0.56693 -1.66536,0.56693 -1.09842,0.56692 -2.19685,0.56692 -3.33071,1.09842 -0.53149,0 -1.09842,0 -1.66535,0.56693 -0.5315,0.56693 -1.09843,0.56693 -1.09843,1.09843 -0.53149,0.56692 -1.09842,1.09842 -0.53149,2.23228 0.53149,2.76378 1.09842,5.52756 2.19685,8.32677 0,0.5315 0.56693,1.09843 0.56693,1.62992 0.53149,1.66536 0.53149,2.79921 1.09842,4.46457 0,0.53149 0.56693,1.09842 0.56693,1.66535 0.5315,1.66536 0.5315,3.86221 1.09843,5.52756 0,2.23228 1.09842,4.42913 1.66535,6.09449 0.56693,2.23228 1.66536,4.42913 2.23228,7.22835 2.19685,7.75984 3.86221,16.08661 6.09449,24.37795 0,0.56693 0.5315,1.13386 1.09843,1.66535 1.66535,6.09449 3.33071,12.22441 4.99606,18.3189 0.56693,1.09842 1.09843,2.76378 1.66535,3.8622 0.5315,0.56693 0.5315,1.13386 1.09843,1.66536 l 1.66535,0 c 1.66536,0 2.76378,-0.5315 4.42914,-1.09843 1.66535,0 3.33071,-0.56693 4.99606,-0.56693 1.66536,0 3.33071,0.56693 5.56299,0.56693 2.19685,0.56693 4.96063,1.09843 7.19292,1.66536 3.3307,1.09842 6.66141,2.19685 9.42519,3.3307 l 1.09843,1.09843 c 1.13386,0.56693 2.23228,1.09843 3.33071,1.66535 l 1.66535,1.66536 c 0.56693,0.56693 1.13386,0.56693 1.66535,0.56693 0.56693,0.53149 1.13386,1.66535 1.66536,2.19685 0.56693,0 1.09842,0 1.66535,0.56693 0.56693,0.53149 1.09843,1.09842 1.66536,1.09842 0,0.56693 0,1.66536 0.56693,2.23229 1.66535,1.09842 3.33071,2.19685 4.42913,3.8622 0.56693,0.56693 0.56693,1.13386 0.56693,1.66535 0.5315,0.56693 1.09842,0.56693 1.09842,1.13386 0.56693,0.5315 0.56693,1.62992 0.56693,2.19685 0.5315,1.09843 1.62993,1.09843 2.19685,2.23229 1.09843,1.66535 2.23229,4.42913 3.33071,6.66141 0.56693,2.19685 2.23229,4.42914 2.23229,6.62599 0.53149,3.33071 0.53149,6.66141 0.53149,10.55905 0,3.33071 0,6.62599 -0.53149,9.9567 -0.56693,3.3307 -1.13386,6.66141 -2.23229,10.55905 -0.56693,0 -0.56693,0 -1.09842,0.5315 -0.56693,1.13385 -0.56693,1.66535 -0.56693,2.79921 -0.56693,0 -1.09843,0.53149 -1.09843,0.53149 -0.56693,1.13386 -0.56693,1.66536 -0.56693,2.76378 -1.09842,1.13386 -2.19685,1.66536 -2.76378,2.23229 -0.56692,0.56693 -0.56692,1.66535 -1.09842,2.23228 -2.79921,3.33071 -6.12992,6.62598 -9.4252,9.4252 -1.13386,1.09842 -2.23228,1.09842 -3.33071,1.66535 -1.13385,0.5315 -2.23228,0.5315 -2.79921,1.09843 -0.53149,0 -0.53149,0.56693 -1.09842,0.56693 -1.09843,1.09842 -2.23229,1.66535 -3.33071,1.66535 -2.19685,1.09843 -4.99606,2.19685 -7.75984,2.76378 -1.66536,0.5315 -3.33071,0.5315 -4.99607,1.09842 -1.66535,0 -3.8622,0.56693 -6.09448,0 -3.86221,0 -7.75985,-0.56692 -11.65748,-1.09842 -2.19686,-0.56693 -4.42914,-1.09843 -6.62599,-1.66535 -1.66535,-0.56693 -2.79921,-1.09843 -3.89764,-1.66536 0,0 -0.56693,-0.56693 -0.56693,-1.09842 -1.66535,-0.56693 -2.76378,-0.56693 -4.42913,-1.66536 l -0.5315,-0.56693 c -1.13385,-0.56693 -2.79921,-1.09842 -3.89763,-1.66535 -3.33071,-3.33071 -6.66142,-6.66142 -9.4252,-9.99213 -1.09842,-1.09842 -1.09842,-2.19685 -1.66535,-3.33071 l -1.09843,-1.09842 c -0.56693,-1.09843 -1.13386,-2.19685 -1.66535,-3.33071 l -0.56693,-0.5315 c -1.66536,-4.99606 -2.76378,-9.42519 -3.86221,-13.88976 -0.56693,-3.33071 -1.13386,-6.62598 -1.13386,-9.95669 0,-4.99606 1.13386,-9.4252 2.23229,-13.88977 0,-1.09842 1.09842,-2.19685 1.66535,-3.29527 0.56693,-1.13386 0.56693,-1.66535 1.09843,-2.79921 l 0.56693,-0.5315 c 0.53149,-1.13386 1.09842,-2.79921 1.66535,-3.89764 0.5315,0 0.5315,0 1.09843,-0.56693 0.56693,-1.62992 1.09842,-3.29527 2.23228,-4.96063 0.5315,-1.13385 1.66535,-1.66535 2.19685,-2.23228 0.56693,-0.56693 1.13386,-0.56693 1.66535,-1.09842 0.56693,0 1.13386,-0.56693 1.66536,-1.13386 0,-0.5315 0,-1.09843 0.56693,-1.66536 1.09842,-1.09842 1.66535,-2.19685 2.76378,-3.29527 0.56693,0 1.66535,0 2.23228,-0.56693 1.09843,-1.09843 2.76378,-2.23228 3.8622,-3.89764 0.56693,-1.09842 1.09843,-2.19685 1.09843,-3.33071 0,-2.19685 -1.09843,-4.42913 -1.62992,-6.62598 0,-1.13386 -0.56693,-1.13386 -0.56693,-2.23228 -1.66535,-5.52756 -2.76378,-11.65748 -4.42913,-17.75197 0,-1.09843 -1.13386,-2.76378 -1.66536,-4.42914 -0.56693,-2.23228 -1.13386,-4.42913 -1.66535,-6.66141 0,-0.5315 -0.56693,-1.66536 -1.09843,-2.19685 -0.56693,0 -0.56693,-0.56693 -1.13386,0 -0.53149,0 -1.66535,0.53149 -2.19685,1.66535 -2.23228,3.8622 -3.89763,7.75984 -5.56299,11.62205 -0.56693,1.13386 -0.56693,1.66535 -1.09842,2.79921 -1.09843,3.29528 -2.76378,6.09449 -4.42914,9.4252 l -0.56693,0.53149 c -0.56693,1.66536 -1.09842,2.76378 -1.66535,4.42914 -0.56693,1.13385 -1.09843,2.23228 -1.66535,3.3307 -1.09843,2.23229 -1.66536,4.46457 -2.76378,6.66142 -1.09843,2.76378 -2.23229,4.99606 -3.33071,7.22835 -0.56693,0.53149 -0.56693,1.66535 -1.09843,2.19685 0,0.56693 -0.56693,0.56693 -0.56693,1.09842 -0.56693,0.56693 -0.56693,1.66536 -1.09842,2.79922 -0.56693,1.09842 -1.13386,2.19685 -1.66536,3.3307 0,0.5315 -0.56693,1.66536 -0.56693,2.19685 -0.56693,1.13386 -1.66535,2.23229 -1.66535,3.33071 -0.56693,1.09843 -0.56693,1.66536 -0.56693,2.76378 0,1.13386 0,1.66536 0.56693,2.79922 l 0.56693,0.53149 c 0.53149,0.56693 0.53149,1.13386 1.09842,1.66536 0,0.56692 0.56693,0.56692 0.56693,1.13385 0.5315,1.09843 1.09843,2.19685 1.66536,3.29528 1.09842,2.23228 2.19685,4.46457 2.76378,6.66142 0.56693,2.23228 0.56693,4.42913 0.56693,6.66141 0,2.23229 0,4.42914 -0.56693,6.09449 -0.56693,2.23228 -1.09843,4.42914 -1.66536,6.09449 -0.56693,1.13386 -1.09842,2.23228 -1.66535,3.33071 l -1.66536,1.66535 c -1.09842,1.66536 -2.23228,3.33071 -3.3307,4.99606 0,0.56693 -1.09843,0.56693 -1.66536,0.56693 0,0.5315 -0.53149,1.09843 -0.53149,1.09843 -0.56693,0.56693 -1.13386,0.56693 -1.66536,0.56693 -0.56693,0.53149 -0.56693,1.09842 -1.13386,1.09842 -1.09842,0.56693 -2.19685,1.09843 -3.33071,1.66536 -1.09842,0.53149 -1.66535,0.53149 -2.76378,1.09842 -0.53149,0 -1.66535,0.56693 -2.19685,1.09843 l 0,1.66535 0,1.66536 c 0.5315,0.56693 1.09843,1.13385 1.66536,1.13385 0.53149,0.5315 1.62992,0 1.62992,0.5315 0,1.13386 0,2.79921 -0.5315,4.42913 0,0 0,0.56693 -0.56693,0.56693 -1.09842,0 -2.76377,0.56693 -3.8622,0.56693 -1.66535,0.5315 -3.89764,0.5315 -5.56299,0.5315 -1.66536,0 -3.33071,0 -4.99606,-0.5315 -0.5315,0 -1.09843,-0.56693 -1.66536,-0.56693 -0.5315,-0.56693 -1.09842,-1.09842 -1.09842,-1.66535 -0.56693,-0.5315 -1.09843,-1.66535 -1.09843,-2.19685 0,-0.56693 0.5315,-0.56693 0.5315,-1.13386 0.56693,-0.5315 1.66535,-1.09842 2.23228,-1.66535 0.56693,-0.5315 1.09843,-1.66536 0.56693,-2.76378 0,-0.56693 -0.56693,-1.09843 -1.13386,-1.66536 -2.19685,-1.09842 -4.99606,-2.19685 -7.75984,-3.8622 -0.5315,0 -1.09843,-1.13386 -1.66536,-1.66536 -0.53149,-0.56693 -1.66535,-0.56693 -2.19685,-1.13385 -1.13385,-0.5315 -1.13385,-1.09843 -1.66535,-1.66536 -0.56693,-1.09842 -1.66535,-1.66535 -2.23228,-2.76378 -0.56693,-0.56693 -0.56693,-1.66535 -1.09843,-2.19685 0,-0.56693 -0.56693,-0.56693 -1.09842,-1.13386 -1.13386,-2.76378 -2.23229,-7.19291 -3.33071,-8.32677 -1.66536,-1.09842 -4.99607,0 -7.22835,0.56693 -0.53149,0 -1.09842,0.56693 -1.09842,1.09843 -1.66536,4.46456 -2.23229,8.32677 -3.33071,12.7559 0,0.56693 -0.56693,0.56693 -1.09843,1.13386 0,0.5315 -0.56693,1.66535 -0.56693,2.19685 l -1.09842,1.13386 c -0.56693,0.53149 -0.56693,1.66535 -0.56693,2.19685 -0.56693,0.56693 -1.09843,0.56693 -1.09843,1.09842 -1.13385,1.66536 -2.23228,3.89764 -3.89763,6.12992 -0.5315,0.5315 -1.09843,0.5315 -1.66536,1.09843 -2.19685,1.66535 -3.8622,3.8622 -6.09449,6.09449 0,0 -1.09842,0.56693 -1.66535,0.56693 0,0.53149 -0.5315,0.53149 -0.5315,1.09842 -0.56693,0 -1.13385,0.56693 -1.66535,0.56693 -0.56693,0.5315 -1.13386,1.66536 -1.66536,1.66536 -1.66535,1.09842 -3.89763,1.09842 -5.56299,1.66535 -1.09842,0.5315 -2.19685,1.66535 -3.33071,2.19685 -1.09842,0 -2.19685,0.56693 -3.3307,0.56693 -2.76378,0.5315 -5.52756,0.5315 -8.29134,1.09842 -1.66536,0 -2.79922,1.09843 -3.89764,1.09843 -1.09843,0 -1.66535,-0.5315 -2.23228,-0.5315 -0.5315,0 -1.09843,0.5315 -1.09843,0.5315 -0.5315,0 -1.09842,-0.5315 -1.66535,-0.5315 -2.76378,-0.56693 -5.52756,-1.13385 -8.32677,-1.66535 -0.5315,0 -1.09843,-0.56693 -1.62993,-0.56693 -2.79921,-1.09842 -5.56299,-1.66535 -7.79527,-2.76378 -1.09843,-0.56693 -2.19685,-1.09842 -3.29528,-1.66535 l -1.13386,-1.09843 c -0.53149,0 -1.09842,-0.56693 -1.66535,-0.56693 0,-0.56693 -0.5315,-0.56693 -0.5315,-1.09842 -1.66535,-1.13386 -3.3307,-1.66536 -4.99606,-2.79922 0,-0.53149 0,-0.53149 -0.56693,-1.09842 -0.56693,-0.5315 -1.09842,-0.5315 -1.66535,-1.09843 -1.66536,-1.66535 -3.33071,-2.76378 -4.42914,-4.42913 -1.09842,-1.66535 -1.66535,-3.89764 -2.76377,-5.56299 l -0.56693,-0.5315 c -0.56693,-1.13386 -1.66536,-2.23228 -1.66536,-3.33071 -0.56693,-1.13385 -0.56693,-2.79921 -1.09842,-3.89763 0,-0.56693 -0.56693,-1.09843 -0.56693,-1.66536 -0.5315,-1.09842 -0.5315,-2.19685 -1.09843,-3.33071 0,-0.53149 -0.56693,-1.09842 -1.09842,-1.66535 -0.566932,-2.76378 -1.133861,-6.09449 -1.133861,-9.4252 0,-1.66535 1.133861,-2.76378 1.133861,-4.42913 0,-1.09843 -1.133861,-2.23228 -1.133861,-3.33071 1.133861,-4.99606 2.799211,-9.99213 3.897641,-14.95275 0,-0.56693 0.53149,-1.13386 1.09842,-1.66536 0,-0.56693 0.56693,-0.56693 0.56693,-1.13386 0.5315,-1.09842 1.09843,-2.19685 1.66536,-3.33071 l 1.09842,-1.09842 c 0.56693,-1.09843 1.09843,-2.19685 1.66535,-3.33071 0.56693,-1.09842 1.66536,-1.66535 2.23229,-2.19685 0.53149,-0.56693 0.53149,-1.66535 1.09842,-1.66535 1.66536,-2.23229 3.33071,-4.42914 5.52756,-6.09449 1.13386,-0.56693 2.23229,-0.56693 3.33071,-1.66536 0.56693,0 0.56693,-0.56693 1.13386,-0.56693 1.09842,-0.56692 2.76378,-1.09842 3.8622,-1.66535 0.56693,0 0.56693,-0.56693 1.09843,-1.09843 1.13386,-0.56692 2.79921,-1.13385 4.46457,-1.66535 0,0 0,-0.56693 0.53149,-0.56693 2.23228,-1.09842 4.42914,-1.66535 6.66142,-1.66535 6.66142,-1.09843 12.7559,-0.5315 18.85039,-1.09843 1.09843,0 2.23229,-0.56693 2.23229,-1.09842 1.09842,-2.79922 1.66535,-6.12992 2.76377,-8.8937 0,-0.5315 0.56693,-1.09843 0.56693,-1.66536 0.5315,-1.66535 0.5315,-3.8622 1.09843,-6.09449 0.56693,-1.66535 1.09842,-3.3307 1.66535,-4.99606 0.56693,-2.19685 1.09843,-4.99606 1.66536,-7.75984 0.53149,-1.66536 2.19685,-3.86221 2.76378,-5.52756 0.56693,-1.66535 0,-3.89764 0.56693,-5.56299 0.53149,-0.5315 0.53149,-1.66536 1.09842,-2.19685 0,-1.66536 0.56693,-3.33071 0.56693,-4.99606 0,-0.56693 0.5315,-0.56693 0.5315,-1.13386 -0.5315,-2.76378 -1.09843,-4.96063 -2.19685,-7.75985 -0.56693,-1.66535 -1.66536,-3.3307 -2.23229,-4.99606 -0.56693,-0.53149 -1.66535,-1.09842 -2.19685,-1.62992 0,-0.56693 0,-2.23228 -1.13386,-2.23228 -2.76378,-1.09843 -6.66141,-0.56693 -9.95669,-1.66536 -0.56693,0 -1.13386,-0.56693 -1.66535,-1.09842 -0.56693,-1.13386 -1.13386,-2.23229 -1.13386,-3.33071 0,-1.13386 0,-1.66535 0.56693,-2.23228 0,-0.5315 0.56693,-0.5315 1.09842,-1.09843 0.56693,-0.56693 1.13386,-0.56693 1.66536,-0.56693 1.66535,-0.53149 3.33071,-0.53149 4.99606,-0.53149 4.99606,0.53149 10.52362,1.09842 15.51969,2.19685 1.13385,0 1.66535,0.56693 2.76377,0.56693 0.56693,0.53149 1.66536,0.53149 2.23229,1.66535 l 0,1.09842 0,1.09843 c -0.56693,0.56693 -1.66536,1.13386 -1.66536,1.66535 -0.56693,0.56693 -0.56693,1.66536 -0.56693,2.23229 0,0.56693 0,1.66535 0.56693,2.23228 0,1.09843 1.09843,2.19685 1.66536,3.29528 0,0.56693 0,1.66535 0.56693,2.79921 0.53149,0 0.53149,0.53149 1.09842,0.53149 0.56693,1.13386 1.09843,2.79922 2.23229,3.89764 0,0.56693 0.53149,1.09843 1.66535,1.09843 l 27.70866,0 28.27559,0 c 0.56693,0 1.13386,-0.5315 1.66535,-0.5315 0,0 0.56693,0.5315 1.09843,0.5315 3.89764,0 8.32677,0 12.7559,0.56693 l 0.56693,0.53149 c 0.56693,0 0.56693,-0.53149 1.09843,-0.53149 1.66535,0 3.33071,-0.56693 4.46457,-0.56693 1.62992,0 3.29527,0.56693 4.96063,0.56693 0.56693,0 0.56693,0.53149 1.13385,0.53149 0.5315,0 1.09843,-0.53149 1.66536,-0.53149 2.19685,0 4.42913,-0.56693 6.62598,-0.56693 0.56693,-0.5315 1.66536,-0.5315 2.23229,-1.09843 0.56693,0 0.56693,0 0.56693,-0.56693 0.53149,-0.53149 0.53149,-1.66535 0.53149,-2.76378 0,-1.09842 0,-2.23228 -0.53149,-2.76378 -0.56693,-3.89763 -1.66536,-7.75984 -2.23229,-11.09055 -1.09842,-3.89763 -2.76378,-7.75984 -3.8622,-11.09055 -0.56693,-2.23228 -1.13386,-4.42913 -1.13386,-6.66141 0,-0.56693 0,-1.66536 0.56693,-2.23229 0.56693,-1.09842 1.09842,-2.19685 1.66535,-3.33071 0.5315,-0.53149 0.5315,-1.09842 1.09843,-1.09842 2.23228,-1.09843 4.99606,-1.66536 7.22834,-2.76378 1.66536,-0.56693 3.29528,-1.66536 5.52756,-2.76378 l 0,-1.13386 c 0,-0.53149 0,-1.09842 -0.56693,-1.09842 -0.53149,-0.56693 -1.09842,-1.09843 -1.66535,-1.09843 -6.09449,-0.56693 -11.62205,-1.13386 -17.71654,-1.13386 -2.23228,0 -4.99606,0.56693 -7.75984,1.13386 -1.13386,0 -2.79921,-0.56693 -4.46457,-0.56693 -0.53149,0 -1.09842,-0.56693 -1.66535,-1.09842 -0.5315,0 -1.09842,-0.56693 -1.09842,-1.13386 -0.5315,-1.09843 -1.09843,-2.19685 -1.66536,-2.76378 0,-0.5315 0.56693,-1.09843 0.56693,-1.66535 0.5315,-0.5315 0.5315,-1.09843 1.09843,-1.09843 1.09842,-0.56693 1.66535,-0.56693 2.76377,-1.09843"
               style="fill:#ffffff;fill-opacity:1;fill-rule:nonzero;stroke:none"
               inkscape:connector-curvature="0" /><path
               id="path4081"
               d="m 334.91338,298.91338 c -0.5315,0 -0.5315,0.56692 -1.09843,0.56692 -0.56693,0.5315 -1.09842,0.5315 -1.66535,1.09843 l -0.5315,0.56693 c -0.56693,0.5315 -1.13386,0.5315 -1.66535,1.09842 -0.56693,0 -0.56693,0.56693 -1.13386,0.56693 -0.5315,0.5315 -1.09843,1.09843 -1.66536,1.09843 -1.09842,0 -2.19685,0.56693 -3.3307,0.56693 -1.09843,0 -2.19685,-0.56693 -3.29528,-0.56693 -2.23228,-0.56693 -3.89764,-1.09843 -5.56299,-1.66536 0,0 0,-0.56692 -0.56693,-1.09842 -0.5315,0 -1.09843,-0.56693 -1.66535,-0.56693 -0.5315,-0.56693 -1.09843,-1.66535 -1.66536,-1.66535 -1.09842,-0.56693 -2.19685,-0.56693 -3.29527,-0.56693 -0.56693,0 -1.66536,0 -2.79922,0.56693 -0.53149,0 -1.09842,0.56692 -1.09842,1.09842 -0.56693,1.66536 -0.56693,3.33071 -0.56693,4.46457 0,1.66535 0,3.29527 0.56693,4.96063 0,2.23228 1.09842,3.89763 1.66535,6.12992 0,0.53149 0.56693,1.66535 1.09843,2.19685 0,0.56693 0.56693,1.09842 1.13386,1.09842 1.66535,0.56693 3.29527,1.66536 4.96063,2.23229 1.66535,0 3.3307,0.56693 4.99606,0 7.22834,0 14.98819,-0.56693 22.1811,-1.09843 0.56693,0 1.13386,-0.56693 1.66535,-0.56693 0.56693,-0.56693 1.13386,-1.66535 1.66536,-1.66535 0.56693,-0.5315 1.09842,-0.5315 1.66535,-1.09843 1.09843,-1.09842 2.23229,-1.66535 3.33071,-2.76378 0,-0.56693 0.56693,-1.66535 0.56693,-1.66535 l 1.09843,-1.13386 c 0.56692,-1.66535 1.66535,-3.33071 2.23228,-4.96063 0.53149,-0.56693 1.09842,-0.56693 1.09842,-1.13386 0.56693,-1.09842 1.09843,-2.76378 1.09843,-3.8622 0,-1.13386 0,-1.66536 -0.5315,-2.23228 l 0,0 c -1.13386,-0.56693 -1.66535,-1.09843 -2.79921,-1.09843 -2.19685,0 -4.99606,-0.56693 -7.19291,-0.56693 -2.23229,0 -4.99607,0.56693 -7.22835,0.56693 -0.53149,0 -1.09842,0.5315 -1.66535,1.09843"
               style="fill:#ffffff;fill-opacity:1;fill-rule:nonzero;stroke:none"
               inkscape:connector-curvature="0" /></g></g></g></g></g></svg>