<?xml version="1.0" encoding="UTF-8" standalone="no"?>
<!-- Created with Inkscape (http://www.inkscape.org/) -->

<svg
   xmlns:osb="http://www.openswatchbook.org/uri/2009/osb"
   xmlns:dc="http://purl.org/dc/elements/1.1/"
   xmlns:cc="http://creativecommons.org/ns#"
   xmlns:rdf="http://www.w3.org/1999/02/22-rdf-syntax-ns#"
   xmlns:svg="http://www.w3.org/2000/svg"
   xmlns="http://www.w3.org/2000/svg"
   xmlns:xlink="http://www.w3.org/1999/xlink"
   xmlns:sodipodi="http://sodipodi.sourceforge.net/DTD/sodipodi-0.dtd"
   xmlns:inkscape="http://www.inkscape.org/namespaces/inkscape"
   version="1.1"
   width="1005.4"
   height="1005.4"
   id="svg2"
   xml:space="preserve"
   inkscape:version="0.48.4 r9939"
   sodipodi:docname="AJAX1.svg"><sodipodi:namedview
     pagecolor="#ffffff"
     bordercolor="#666666"
     borderopacity="1"
     objecttolerance="10"
     gridtolerance="10"
     guidetolerance="10"
     inkscape:pageopacity="0"
     inkscape:pageshadow="2"
     inkscape:window-width="1280"
     inkscape:window-height="1004"
     id="namedview28"
     showgrid="false"
     fit-margin-top="0.2"
     fit-margin-left="0.2"
     fit-margin-right="0.2"
     fit-margin-bottom="0.2"
     inkscape:zoom="0.35355339"
     inkscape:cx="825.86069"
     inkscape:cy="488.33383"
     inkscape:window-x="-8"
     inkscape:window-y="-8"
     inkscape:window-maximized="1"
     inkscape:current-layer="svg2" /><metadata
     id="metadata8"><rdf:RDF><cc:Work
         rdf:about=""><dc:format>image/svg+xml</dc:format><dc:type
           rdf:resource="http://purl.org/dc/dcmitype/StillImage" /></cc:Work></rdf:RDF></metadata><defs
     id="defs6"><linearGradient
       id="linearGradient15703"
       osb:paint="solid"><stop
         style="stop-color:#ffffff;stop-opacity:1;"
         offset="0"
         id="stop15705" /></linearGradient><linearGradient
       inkscape:collect="always"
       xlink:href="#linearGradient15703"
       id="linearGradient15707"
       x1="1184.7555"
       y1="765.18829"
       x2="1191.3209"
       y2="541.74255"
       gradientUnits="userSpaceOnUse"
       gradientTransform="translate(37.325,37.325)" /></defs><path
     inkscape:connector-curvature="0"
     style="fill:#ffffff;fill-opacity:1;stroke:#0066b3;stroke-width:5;stroke-miterlimit:4;stroke-opacity:1;stroke-dasharray:none"
     d="m 1002.7001,502.7 c 0,-276.1424 -223.85772,-500 -500.0001,-500 -276.14238,0 -500,223.8576 -500,500 0,276.1423 223.85762,500.0001 500,500.0001 276.14238,0 500.0001,-223.8578 500.0001,-500.0001 z"
     id="path3854" /><path
     id="path14622"
     d="m 968.07508,502.7 c 0,257.0196 -208.35548,465.375 -465.375,465.375 C 245.6805,968.075 37.325,759.7196 37.325,502.7 c 0,-257.0196 208.3555,-465.375 465.37508,-465.375 257.01952,0 465.375,208.3554 465.375,465.375 z"
     style="fill:#0066b3;fill-opacity:1;stroke:none"
     inkscape:connector-curvature="0"
     sodipodi:nodetypes="sssss" /><path
     style="fill:#ffffff;fill-opacity:1;fill-rule:nonzero;stroke:none"
     d="m 395.888,245.12177 c -134.54343,0 -124.658,49.88584 -149.6875,158.53125 -37.10998,20.56841 -61.4375,46.13164 -61.4375,97.375 l 0,89.53125 c 0,25.5822 7.64887,46.04803 26.875,56.3125 l 0,44.75 c 0,34.62283 17.88194,48.65625 40.9375,48.65625 23.01609,0 40.9375,-10.24347 40.9375,-48.65625 l 0,-42.1875 c 16.62054,-3.86891 26.93525,19.1875 57.53125,19.1875 l 303.31025,0 c 30.596,0 40.91071,-23.05641 57.53125,-19.1875 l 0,42.1875 c 0,38.41278 17.92142,48.65625 40.9375,48.65625 23.05556,0 40.9375,-14.03342 40.9375,-48.65625 l 0,-44.75 c 19.22613,-10.26447 26.875,-30.7303 26.875,-56.3125 l 0,-89.53125 c 0,-51.24336 -24.32752,-76.80659 -61.4375,-97.375 -25.0295,-108.64541 -15.14407,-158.53125 -149.6875,-158.53125 z m -6.4375,39.5625 87.03125,0 0,92.1875 -182.96875,15.375 c 0,-65.25831 15.36146,-107.5625 95.9375,-107.5625 z m 139.4665,0 87.03125,0 c 80.57605,0 95.9375,42.30419 95.9375,107.5625 L 528.917,376.87177 z M 308.85675,425.52802 c 30.96115,-0.007 58.12386,4.42076 80,13.1875 3.79153,1.53967 5.71229,5.81859 4.25,9.6875 -1.57915,3.75048 -5.88932,5.60375 -9.71875,4.0625 -29.53007,-11.76307 -70.12888,-15.02869 -117.1875,-9.34375 -4.10579,0.39479 -7.7598,-2.44848 -8.3125,-6.59375 -0.47374,-3.98735 2.42546,-7.745 6.53125,-8.21875 15.49539,-1.85056 30.36425,-2.77812 44.4375,-2.78125 z m 387.68525,0 c 14.07325,0.003 28.94211,0.93069 44.4375,2.78125 4.10579,0.47375 7.00499,4.2314 6.53125,8.21875 -0.55269,4.14527 -4.20671,6.98854 -8.3125,6.59375 -47.05862,-5.68494 -87.65743,-2.41932 -117.1875,9.34375 -3.82943,1.54125 -8.1396,-0.31202 -9.71875,-4.0625 -1.46229,-3.86891 0.45848,-8.14783 4.25,-9.6875 21.87614,-8.76674 49.03885,-13.1945 80,-13.1875 z m -200.84294,0.40625 7,0 7,0 c 29.53007,0 72.96759,17.47506 72.96794,58.375 l 0,92.1875 -159.93525,0 0,-92.1875 c 0,-40.89994 43.43724,-58.375 72.96731,-58.375 z m -231.27981,34.96875 c 20.76579,0 37.625,16.83617 37.625,37.5625 0,20.68684 -16.85921,37.46875 -37.625,37.46875 -20.72633,0 -37.53125,-16.78191 -37.53125,-37.46875 0,-20.72633 16.80492,-37.5625 37.53125,-37.5625 z m 476.56025,0 c 20.72633,0 37.53125,16.83617 37.53125,37.5625 0,20.68684 -16.80492,37.46875 -37.53125,37.46875 -20.76579,0 -37.625,-16.78191 -37.625,-37.46875 0,-20.72633 16.85921,-37.5625 37.625,-37.5625 z m -484.5915,132.46875 492.62275,0 0,32 -492.62275,0 z"
     id="path4312"
     inkscape:connector-curvature="0"
     sodipodi:nodetypes="scsscssscsscssscsscssscccscscccsccccccssccccccsscssccssssssssssssccccc" /></svg>