<?xml version="1.0" encoding="UTF-8" standalone="no"?>
<!-- Created with Inkscape (http://www.inkscape.org/) -->

<svg
   xmlns:dc="http://purl.org/dc/elements/1.1/"
   xmlns:cc="http://creativecommons.org/ns#"
   xmlns:rdf="http://www.w3.org/1999/02/22-rdf-syntax-ns#"
   xmlns:svg="http://www.w3.org/2000/svg"
   xmlns="http://www.w3.org/2000/svg"
   xmlns:sodipodi="http://sodipodi.sourceforge.net/DTD/sodipodi-0.dtd"
   xmlns:inkscape="http://www.inkscape.org/namespaces/inkscape"
   version="1.1"
   width="1005.4"
   height="1005.4"
   id="svg2"
   xml:space="preserve"
   inkscape:version="0.48.4 r9939"
   sodipodi:docname="AJAX1.svg"><sodipodi:namedview
     pagecolor="#ffffff"
     bordercolor="#666666"
     borderopacity="1"
     objecttolerance="10"
     gridtolerance="10"
     guidetolerance="10"
     inkscape:pageopacity="0"
     inkscape:pageshadow="2"
     inkscape:window-width="1280"
     inkscape:window-height="1004"
     id="namedview28"
     showgrid="false"
     fit-margin-top="0.2"
     fit-margin-left="0.2"
     fit-margin-right="0.2"
     fit-margin-bottom="0.2"
     inkscape:zoom="0.51603029"
     inkscape:cx="369.15285"
     inkscape:cy="357.04704"
     inkscape:window-x="-8"
     inkscape:window-y="-8"
     inkscape:window-maximized="1"
     inkscape:current-layer="svg2" /><metadata
     id="metadata8"><rdf:RDF><cc:Work
         rdf:about=""><dc:format>image/svg+xml</dc:format><dc:type
           rdf:resource="http://purl.org/dc/dcmitype/StillImage" /></cc:Work></rdf:RDF></metadata><defs
     id="defs6" /><path
     inkscape:connector-curvature="0"
     style="fill:#ffffff;fill-opacity:1;stroke:#ed1c23;stroke-width:5;stroke-miterlimit:4;stroke-opacity:1;stroke-dasharray:none"
     d="M 2.7,502.70001 C 2.7,226.55763 226.55763,2.7 502.7,2.7 c 276.14238,0 500,223.85763 500,500.00001 0,276.14237 -223.85762,499.99999 -500,499.99999 -276.14237,0 -500,-223.85762 -500,-499.99999 z"
     id="path3854" /><path
     id="path14622"
     d="M 968.075,502.70001 C 968.075,245.68049 759.71952,37.325 502.7,37.325 245.68047,37.325 37.325,245.68049 37.325,502.70001 37.325,759.71953 245.68047,968.075 502.7,968.075 c 257.01952,0 465.375,-208.35547 465.375,-465.37499 z"
     style="fill:#ed1c23;fill-opacity:1;stroke:none"
     inkscape:connector-curvature="0" /><path
     id="path15520"
     d="m 835.55,502.7 c 0,-183.82797 -149.02204,-332.85 -332.85,-332.85 -183.82798,0 -332.85,149.02203 -332.85,332.85 0,183.82797 149.02202,332.84999 332.85,332.84999 183.82796,0 332.85,-149.02202 332.85,-332.84999 z"
     style="fill:#ffffff;fill-opacity:1;stroke:none"
     inkscape:connector-curvature="0" /><path
     style="fill:#ed1c23;fill-opacity:1;stroke:none"
     d="M 783.75726,851.49809 851.49809,783.75726 221.64272,153.9019 153.90189,221.64273 z"
     id="path3011"
     inkscape:connector-curvature="0"
     sodipodi:nodetypes="ccccc" /><path
     inkscape:connector-curvature="0"
     d="m 602.92696,464.68201 c -25.38481,-48.00611 -72.87769,-83.49747 -130.79295,-91.0379 -94.63047,-12.19892 -181.56258,54.71748 -193.87994,149.34795 -3.27673,25.77959 -0.75167,50.96701 6.59295,74.21996 l 11.96205,28.58259 c 25.42428,48.04559 72.91717,83.57642 130.83243,91.07738 94.63046,12.31735 181.60206,-54.67801 193.87993,-149.30847 3.31622,-25.74012 0.78958,-50.92754 -6.63242,-74.25945"
     style="fill:#ffffff;fill-opacity:1;fill-rule:nonzero;stroke:#ffffff;stroke-width:20;stroke-miterlimit:4;stroke-opacity:1;stroke-dasharray:none"
     id="path3447"
     sodipodi:nodetypes="cccccccc" /><path
     id="path14475"
     style="fill:#0066b3;fill-opacity:1;fill-rule:nonzero;stroke:none"
     d="m 596.81724,553.90388 -97.03866,-12.55423 91.15633,-38.05747 c 3.98735,13.38328 6.15868,27.47718 6.15868,41.88691 0,2.92142 -0.0316,5.88233 -0.28425,8.72479 m -24.00305,72.28552 -85.98463,-65.69257 107.30313,13.93598 c -3.78996,18.94978 -11.17247,36.35989 -21.3185,51.75659 m -56.88882,50.6117 -41.68951,-99.88113 85.98462,65.69257 c -12.47527,14.13338 -27.51666,25.74012 -44.29511,34.18856 m -74.61476,15.43617 13.81755,-107.3426 41.68952,99.80217 c -17.44959,6.00076 -36.24146,8.56688 -55.50707,7.54043 m -20.48944,-2.68455 c -18.94978,-3.78995 -36.47833,-11.17247 -51.87503,-21.3185 l 65.73047,-86.0241 -13.85702,107.3426 z m -100.04063,-73.74622 91.23529,-37.93904 -59.49441,77.73357 c -12.7911,-11.29091 -23.52931,-24.75315 -31.74088,-39.79453 m -17.80489,-79.15481 97.11762,12.63318 -91.27478,37.93904 c -4.73744,-16.02835 -6.86929,-33.08315 -5.84284,-50.57222 m 23.96357,-72.28551 85.98463,65.69256 -107.30313,-13.93598 c 3.82943,-18.94978 11.17247,-36.43885 21.3185,-51.75658 m 57.00725,-50.61171 41.57108,99.88113 -85.98462,-65.65309 c 12.47527,-14.17285 27.55614,-25.77959 44.41354,-34.22804 m 74.57528,-15.39669 -13.8965,107.30312 -41.61056,-99.84165 c 17.41011,-6.00076 36.20197,-8.60636 55.50706,-7.46147 m 20.48945,2.68455 c 18.98926,3.78995 36.43885,11.13299 51.79606,21.3185 l -65.69256,85.94515 13.8965,-107.26365 z m 99.99957,73.62779 -91.19582,38.01799 59.41546,-77.73357 c 12.7911,11.33039 23.56878,24.71367 31.78036,39.71558 m 221.12023,-58.98119 6.3166,-18.19968 -6.19816,-14.96243 -28.42467,11.84361 -17.17324,-41.09734 -20.68684,-12.11996 -11.36987,4.73745 25.34533,58.389 -145.00529,60.40243 c -25.38481,-48.00611 -72.87769,-83.49747 -130.79295,-91.0379 -94.63047,-12.19892 -181.56258,54.71748 -193.87994,149.34795 -3.27673,25.77959 -0.75167,50.96701 6.59295,74.21996 l -71.85125,29.88539 4.93484,11.72517 30.0433,7.69835 48.83516,-20.72632 c 25.42428,48.04559 72.91717,83.57642 130.83243,91.07738 94.63046,12.31735 181.60206,-54.67801 193.87993,-149.30847 3.31622,-25.74012 0.78958,-50.92754 -6.63242,-74.25945 L 800.1231,415.68893"
     inkscape:connector-curvature="0" /></svg>