<?xml version="1.0" encoding="UTF-8" standalone="no"?>
<!-- Created with Inkscape (http://www.inkscape.org/) -->

<svg
   xmlns:dc="http://purl.org/dc/elements/1.1/"
   xmlns:cc="http://creativecommons.org/ns#"
   xmlns:rdf="http://www.w3.org/1999/02/22-rdf-syntax-ns#"
   xmlns:svg="http://www.w3.org/2000/svg"
   xmlns="http://www.w3.org/2000/svg"
   xmlns:sodipodi="http://sodipodi.sourceforge.net/DTD/sodipodi-0.dtd"
   xmlns:inkscape="http://www.inkscape.org/namespaces/inkscape"
   version="1.1"
   width="1005.4"
   height="1005.4"
   id="svg2"
   xml:space="preserve"
   inkscape:version="0.48.4 r9939"
   sodipodi:docname="AJAX1.svg"><sodipodi:namedview
     pagecolor="#ffffff"
     bordercolor="#666666"
     borderopacity="1"
     objecttolerance="10"
     gridtolerance="10"
     guidetolerance="10"
     inkscape:pageopacity="0"
     inkscape:pageshadow="2"
     inkscape:window-width="1280"
     inkscape:window-height="1004"
     id="namedview28"
     showgrid="false"
     fit-margin-top="0.2"
     fit-margin-left="0.2"
     fit-margin-right="0.2"
     fit-margin-bottom="0.2"
     inkscape:zoom="0.51603029"
     inkscape:cx="514.97274"
     inkscape:cy="479.23734"
     inkscape:window-x="-8"
     inkscape:window-y="-8"
     inkscape:window-maximized="1"
     inkscape:current-layer="svg2" /><metadata
     id="metadata8"><rdf:RDF><cc:Work
         rdf:about=""><dc:format>image/svg+xml</dc:format><dc:type
           rdf:resource="http://purl.org/dc/dcmitype/StillImage" /></cc:Work></rdf:RDF></metadata><defs
     id="defs6" /><path
     inkscape:connector-curvature="0"
     style="fill:#ffffff;fill-opacity:1;stroke:#ed1c23;stroke-width:5;stroke-miterlimit:4;stroke-opacity:1;stroke-dasharray:none"
     d="m 1002.7001,502.7 c 0,-276.1424 -223.85772,-500 -500.0001,-500 -276.14238,0 -500,223.8576 -500,500 0,276.1423 223.85762,500 500,500 276.14238,0 500.0001,-223.8577 500.0001,-500 z"
     id="path3854" /><path
     id="path14622"
     d="m 37.325,502.7 c 0,-257.0196 208.35548,-465.375 465.375,-465.375 257.01958,0 465.37508,208.3554 465.37508,465.375 0,257.0196 -208.3555,465.375 -465.37508,465.375 C 245.68048,968.075 37.325,759.7196 37.325,502.7 z"
     style="fill:#ed1c23;fill-opacity:1;stroke:none"
     inkscape:connector-curvature="0"
     sodipodi:nodetypes="sssss" /><path
     id="path15520"
     d="m 835.55008,502.7 c 0,-183.828 -149.0221,-332.85 -332.85008,-332.85 -183.82798,0 -332.85,149.022 -332.85,332.85 0,183.8279 149.02202,332.8499 332.85,332.8499 183.82798,0 332.85008,-149.022 332.85008,-332.8499 z"
     style="fill:#0066b3;fill-opacity:1;stroke:none"
     inkscape:connector-curvature="0" /><path
     style="fill:#ed1c23;fill-opacity:1;stroke:none"
     d="m 863.29995,768.44597 48.26153,-82.75541 -769.46146,-448.7366 -48.261548,82.7554 z"
     id="path15355"
     inkscape:connector-curvature="0"
     sodipodi:nodetypes="ccccc" /><path
     sodipodi:nodetypes="ccccc"
     inkscape:connector-curvature="0"
     id="path15381"
     d="m 142.10013,768.44597 -48.26153,-82.75541 769.46146,-448.7366 48.26155,82.7554 z"
     style="fill:#ed1c23;fill-opacity:1;stroke:none" /></svg>