<?xml version="1.0" encoding="UTF-8" standalone="no"?>
<!-- Created with Inkscape (http://www.inkscape.org/) -->

<svg
   xmlns:svg="http://www.w3.org/2000/svg"
   xmlns="http://www.w3.org/2000/svg"
   version="1.0"
   width="900"
   height="300"
   id="svg4203">
  <defs
     id="defs4205" />
  <g
     id="layer1">
    <rect
       width="900"
       height="300"
       x="0"
       y="0"
       id="rect_bg"
       style="fill:#005d35;fill-opacity:1;stroke:none" />
  </g>
  <rect
     width="201.96721"
     height="140"
     x="23.322035"
     y="21.762711"
     id="rect3169"
     style="fill:#ffffff;fill-opacity:1;fill-rule:nonzero;stroke:none;stroke-width:0.01;marker:none;visibility:visible;display:inline;overflow:visible;enable-background:accumulate" />
  <path
     d="m 160.8649,105.44593 0,13.83442 -12.30936,0 0,22.33115 -16.88454,0 0,-22.33115 -46.187356,0 0,-16.88455 43.028326,-60.784304 20.04357,0 0,63.834434 12.30936,0 z m -61.982556,0 32.788656,0 0,-46.078435 -32.788656,46.078435 z"
     id="text2416"
     style="font-size:48px;font-style:normal;font-variant:normal;font-weight:normal;font-stretch:normal;text-align:start;line-height:125%;writing-mode:lr-tb;text-anchor:start;fill:#005d35;fill-opacity:1;fill-rule:nonzero;stroke:none;stroke-width:1;marker:none;visibility:visible;display:inline;overflow:visible;enable-background:accumulate;font-family:GD-HighwayGothicJA-OTF;-inkscape-font-specification:GD-HighwayGothicJA-OTF" />
  <path
     d="m 289.87917,44.361573 0,16.990797 -13.81782,0 0,9.211882 13.81782,0 0,3.070616 c -0.0469,3.374582 -0.77211,7.566048 -2.17597,12.574382 -1.40391,5.008432 -3.20586,10.033914 -5.40584,15.0764 -2.19997,5.04255 -4.51747,9.30223 -6.95248,12.77909 l 7.67656,5.01535 c 1.18132,-1.64831 2.34984,-3.49495 3.50563,-5.53991 1.15574,-2.04492 2.27308,-4.22423 3.3521,-6.53786 l 0,35.61923 9.21187,0 0,-49.744119 4.81063,5.629483 6.96008,-5.936548 -11.77071,-14.022499 0,-7.983615 10.23541,0 0,-9.211882 -10.23541,0 0,-16.990797 -9.21187,0 z m 39.91809,-0.511751 -9.21185,0 0,8.188317 -8.18835,0 0,9.21188 8.18835,0 0,7.164784 -8.18835,0 0,9.21188 24.56499,0 0,6.653017 -24.56499,0 0,40.94165 58.34184,0 0,-40.94165 -24.56497,0 0,-6.653017 24.56497,0 0,-9.21188 -8.18831,0 0,-7.164784 8.18831,0 0,-9.21188 -8.18831,0 0,-8.188317 -9.21188,0 0,8.188317 -23.54145,0 0,-8.188317 z m 31.72977,72.159658 -15.3531,0 0,-6.65302 15.3531,0 0,6.65302 z m -39.9181,0 0,-6.65302 15.35312,0 0,6.65302 -15.35312,0 z m 39.9181,-22.517915 0,6.653015 -15.3531,0 0,-6.653015 15.3531,0 z m -39.9181,0 15.35312,0 0,6.653015 -15.35312,0 0,-6.653015 z m 8.18833,-25.076762 0,-7.164784 23.54145,0 0,7.164784 -23.54145,0 z m 22.62028,63.357217 c 2.32205,2.59722 4.97048,4.82343 7.94524,6.67859 2.97456,1.85515 6.4674,3.41606 10.47848,4.68272 l 2.76358,-8.80246 c -3.11338,-1.05554 -5.8684,-2.27099 -8.26512,-3.64637 -2.39686,-1.37539 -4.4866,-3.02583 -6.26918,-4.9514 l -6.653,6.03892 z m -21.69908,0 -6.65302,-6.03892 c -1.78273,1.92557 -3.87244,3.57601 -6.2692,4.9514 -2.39683,1.37538 -5.15185,2.59083 -8.26508,3.64637 l 2.76353,8.80246 c 4.01098,-1.26666 7.50381,-2.82757 10.47852,-4.68272 2.97462,-1.85516 5.62304,-4.08137 7.94525,-6.67859 l 0,0 z"
     id="path2440"
     style="font-size:45px;font-style:normal;font-variant:normal;font-weight:normal;font-stretch:normal;text-align:start;line-height:125%;writing-mode:lr-tb;text-anchor:start;fill:#ffffff;fill-opacity:1;fill-rule:nonzero;stroke:none;stroke-width:1;marker:none;visibility:visible;display:inline;overflow:visible;enable-background:accumulate;font-family:GD-HighwayGothicJA-OTF;-inkscape-font-specification:GD-HighwayGothicJA-OTF" />
  <path
     d="m 432.87952,103.2152 0,9.21188 71.13617,0 0,-9.21188 -11.259,0 0,-27.123849 8.18833,0 0,-9.211849 -51.68882,0 0,-3.172999 c 6.10916,-0.722784 12.82615,-2.142966 20.15099,-4.260483 7.32466,-2.117382 13.91366,-4.893732 19.76716,-8.329048 l -4.606,-7.881282 c -4.12082,2.400983 -8.88966,4.479666 -14.30683,6.236015 -5.41716,1.756534 -10.70933,3.114932 -15.87616,4.075199 -5.16717,0.960468 -9.43567,1.446949 -12.80584,1.4595 l -1.53515,0 0,48.208796 -7.16485,0 z m -13.81783,-1.5353 0,1.22823 c 0.086,0.33491 -0.029,2.33775 -0.34499,6.00858 -0.31583,3.67085 -1.34833,8.02406 -3.09713,13.05964 -1.74887,5.03557 -4.72976,9.76787 -8.94269,14.19691 l 6.44828,7.06243 c 5.14921,-5.64402 8.79353,-11.51739 10.93287,-17.62009 2.13933,-6.10271 3.40299,-11.32402 3.791,-15.66399 0.38783,-4.33991 0.52934,-6.68773 0.42451,-7.04348 l 0,-1.22823 -9.21185,0 z m -6.44829,-57.01126 -5.22006,7.574216 15.55786,10.747181 5.22,-7.574216 -15.5578,-10.747181 z m 0,27.123845 -5.22006,7.574216 15.55786,10.747181 5.22,-7.574199 -15.5578,-10.747198 z m 20.1638,61.719555 3.99183,9.21186 c 3.772,-1.87011 7.46117,-4.68057 11.06699,-8.43142 3.60585,-3.75084 6.604,-8.27576 8.99434,-13.57473 l -8.59766,-3.88944 c -1.16867,2.48635 -3.02817,5.39491 -5.57834,8.72567 -2.55033,3.33078 -5.84283,5.98348 -9.87716,7.95806 l 0,0 z m 71.44315,0 c -4.0345,-1.97458 -7.327,-4.62728 -9.87716,-7.95806 -2.55033,-3.33076 -4.40984,-6.23932 -5.57834,-8.72567 l -8.59766,3.88944 c 2.39034,5.29897 5.38834,9.82389 8.99434,13.57473 3.60583,3.75085 7.29482,6.56131 11.06699,8.43142 l 3.99183,-9.21186 z m -54.96415,-30.29684 0,-27.123849 34.28866,0 0,27.123849 -34.28866,0 z"
     id="path2422"
     style="font-size:45px;font-style:normal;font-variant:normal;font-weight:normal;font-stretch:normal;text-align:start;line-height:125%;writing-mode:lr-tb;text-anchor:start;fill:#ffffff;fill-opacity:1;fill-rule:nonzero;stroke:none;stroke-width:1;marker:none;visibility:visible;display:inline;overflow:visible;enable-background:accumulate;font-family:GD-HighwayGothicJA-OTF;-inkscape-font-specification:GD-HighwayGothicJA-OTF" />
  <path
     d="m 331.72932,191.20884 -23.35768,40.69228 0,27.76478 -11.38503,0 0,-27.76478 -23.35765,-40.69228 12.92751,0 16.08594,32.17188 16.08594,-32.17188 13.00097,0 z m 32.92901,69.99953 c -6.68105,-0.0856 -12.39805,-2.37494 -17.15097,-6.86773 -4.75294,-4.4928 -7.23805,-10.67498 -7.45534,-18.54658 0.21735,-7.83633 2.7024,-13.99712 7.45534,-18.48228 4.75292,-4.48512 10.4699,-6.7713 17.15097,-6.85857 6.71622,0.0873 12.45464,2.37345 17.21528,6.85857 4.76054,4.48516 7.24869,10.64595 7.46453,18.48228 -0.21577,7.8716 -2.70399,14.05378 -7.46453,18.54658 -4.76064,4.49279 -10.49906,6.78203 -17.21528,6.86773 l 0,0 z m 13.22134,-25.41431 c -0.19284,-6.3872 -1.68027,-10.92898 -4.46221,-13.62528 -2.782,-2.69627 -5.70172,-4.00617 -8.75913,-3.92967 -3.05745,-0.0765 -5.97713,1.2334 -8.75911,3.92967 -2.782,2.6963 -4.26938,7.23808 -4.46217,13.62528 0.1928,6.42246 1.68017,10.98564 4.46217,13.6896 2.78198,2.70392 5.70166,4.01687 8.75911,3.93882 3.05741,0.0781 5.9771,-1.2349 8.75912,-3.93882 2.78195,-2.70396 4.26936,-7.26714 4.46222,-13.6896 l 0,0 z m 53.92924,23.87184 -14.76382,-21.30101 -6.53718,6.75754 0,14.54347 -10.87088,0 0,-68.45706 10.87088,0 0,42.23479 19.75851,-21.44791 12.92752,0 -19.46471,19.68506 21.59478,27.98512 -13.5151,0 z m 44.89347,1.54247 c -6.68105,-0.0856 -12.39805,-2.37494 -17.15097,-6.86773 -4.75293,-4.4928 -7.23805,-10.67498 -7.45536,-18.54658 0.21737,-7.83633 2.70243,-13.99712 7.45536,-18.48228 4.75292,-4.48512 10.46991,-6.7713 17.15097,-6.85857 6.71623,0.0873 12.45466,2.37345 17.21527,6.85857 4.76055,4.48516 7.24871,10.64595 7.46454,18.48228 -0.21576,7.8716 -2.70399,14.05378 -7.46454,18.54658 -4.76061,4.49279 -10.49904,6.78203 -17.21527,6.86773 l 0,0 z m 13.22132,-25.41431 c -0.1928,-6.3872 -1.68024,-10.92898 -4.46217,-13.62528 -2.78203,-2.69627 -5.70175,-4.00617 -8.75915,-3.92967 -3.05743,-0.0765 -5.97713,1.2334 -8.75912,3.92967 -2.78199,2.6963 -4.26938,7.23808 -4.46218,13.62528 0.19281,6.42246 1.68019,10.98564 4.46218,13.6896 2.78199,2.70392 5.70169,4.01687 8.75912,3.93882 3.0574,0.0781 5.97711,-1.2349 8.75912,-3.93882 2.78196,-2.70396 4.26936,-7.26714 4.4622,-13.6896 l 0,0 z m 47.68587,-25.34085 c 4.99772,0.14097 8.99472,1.6772 11.991,4.6091 2.99614,2.93199 4.53252,6.41482 4.60908,10.44852 l 0,34.15507 -10.87086,0 0,-32.09842 c 0.023,-2.19895 -0.6657,-4.19132 -2.06584,-5.97714 -1.40018,-1.78575 -3.64965,-2.73145 -6.74836,-2.83708 -3.23037,0.0521 -6.00624,1.10488 -8.3276,3.15843 -2.3214,2.05363 -3.53642,4.79582 -3.64505,8.22659 l 0,29.52762 -10.87085,0 0,-68.45706 10.87085,0 0,27.25062 c 1.73375,-2.58301 3.922,-4.56007 6.56475,-5.93123 2.64272,-1.37105 5.47367,-2.06272 8.49288,-2.07502 l 0,0 z m 72.06031,49.21269 c -1.11816,0 -2.6035,0 -4.45607,0 -1.85268,0 -3.53389,0 -5.04368,0 -1.50988,0 -2.3097,0 -2.39942,0 l -1.54251,-6.24342 c -1.75367,2.73456 -4.15924,4.72081 -7.21665,5.95878 -3.05742,1.23796 -6.38113,1.84699 -9.97104,1.82711 -4.23421,-0.0306 -7.68336,-1.2548 -10.34753,-3.67258 -2.66417,-2.41779 -4.03831,-5.84552 -4.12249,-10.28324 0.0827,-4.3872 1.71695,-7.75068 4.90293,-10.09045 3.18594,-2.33973 7.42778,-3.99543 12.7255,-4.96716 5.11558,-0.94262 8.74838,-1.88524 10.8984,-2.82789 2.14997,-0.9426 3.19359,-2.39941 3.13088,-4.37039 0.0842,-1.43838 -0.48817,-2.89518 -1.71694,-4.37038 -1.22882,-1.47512 -3.61906,-2.27084 -7.17072,-2.38717 -3.78431,0.0735 -6.33369,0.9549 -7.64815,2.64426 -1.3145,1.68942 -2.04596,3.74607 -2.19437,6.16994 l -10.87087,0 c 0.44071,-5.44765 2.6626,-9.57319 6.66575,-12.37663 4.00309,-2.80336 8.68566,-4.21117 14.04764,-4.22347 5.38645,0.0183 9.9833,1.26711 13.79057,3.74605 3.8072,2.47904 5.79652,6.07815 5.96796,10.7974 -6e-5,2.18093 -6e-5,4.96846 0,8.36263 -6e-5,3.39421 -6e-5,6.64966 0,9.76635 -6e-5,3.11674 -6e-5,5.34931 0,6.6977 -0.0207,1.69554 0.14996,3.37269 0.51416,5.03147 0.36414,1.65876 1.0497,3.26247 2.05665,4.81109 l 0,0 z m -25.92849,-6.24342 c 3.70166,-0.0948 6.69175,-1.19052 8.9703,-3.28694 2.27852,-2.09646 3.45067,-4.62439 3.51651,-7.58392 l 0,-8.59385 c -0.75139,0.89064 -1.91131,1.66187 -3.47978,2.31374 -1.56851,0.6519 -3.8853,1.34969 -6.95037,2.09338 -2.88453,0.76361 -5.23193,1.77051 -7.04217,3.02069 -1.8103,1.25023 -2.74375,3.01 -2.80036,5.27935 -0.0337,2.33823 0.54783,4.05209 1.74448,5.14161 1.19665,1.08953 3.21044,1.6282 6.04139,1.61594 l 0,0 z m 90.83871,-42.96927 c 4.9763,0.14097 8.8876,1.6772 11.73392,4.6091 2.84619,2.93199 4.29686,6.41482 4.352,10.44852 l 0,34.15507 -10.87084,0 0,-32.09842 c 0.006,-2.19895 -0.66879,-4.19132 -2.02912,-5.97714 -1.36043,-1.78575 -3.45076,-2.73145 -6.27093,-2.83708 -2.9626,0.0521 -5.50282,1.10488 -7.62062,3.15843 -2.11789,2.05363 -3.2258,4.79582 -3.32369,8.22659 l 0,29.52762 -10.87086,0 0,-32.09842 c 0.006,-2.19895 -0.66874,-4.19132 -2.02912,-5.97714 -1.3604,-1.78575 -3.4507,-2.73145 -6.27093,-2.83708 -2.96258,0.0521 -5.50277,1.10488 -7.62062,3.15843 -2.11788,2.05363 -3.22576,4.79582 -3.32369,8.22659 l 0,29.52762 -10.87085,0 0,-47.67018 10.35668,0 0.29382,6.46374 c 1.58531,-2.58301 3.6297,-4.56007 6.13323,-5.93123 2.50344,-1.37105 5.20891,-2.06272 8.1164,-2.07502 3.66799,0.055 6.78049,0.9182 9.33757,2.58918 2.55699,1.67106 4.36572,3.81955 5.42624,6.44538 1.72759,-2.75437 3.92809,-4.93958 6.60146,-6.55557 2.67329,-1.61588 5.58994,-2.44222 8.74995,-2.47899 l 0,0 z m 71.66589,49.21269 c -1.11816,0 -2.60351,0 -4.45607,0 -1.85266,0 -3.53389,0 -5.04369,0 -1.50988,0 -2.3097,0 -2.39942,0 l -1.5425,-6.24342 c -1.75368,2.73456 -4.15925,4.72081 -7.21663,5.95878 -3.05745,1.23796 -6.38114,1.84699 -9.97107,1.82711 -4.2342,-0.0306 -7.68336,-1.2548 -10.34752,-3.67258 -2.66417,-2.41779 -4.03831,-5.84552 -4.12249,-10.28324 0.0827,-4.3872 1.71694,-7.75068 4.90293,-10.09045 3.18593,-2.33973 7.42778,-3.99543 12.7255,-4.96716 5.11558,-0.94262 8.74837,-1.88524 10.8984,-2.82789 2.14997,-0.9426 3.19359,-2.39941 3.13088,-4.37039 0.0843,-1.43838 -0.48816,-2.89518 -1.71693,-4.37038 -1.22883,-1.47512 -3.61907,-2.27084 -7.17073,-2.38717 -3.78432,0.0735 -6.33369,0.9549 -7.64816,2.64426 -1.31449,1.68942 -2.04595,3.74607 -2.19437,6.16994 l -10.87086,0 c 0.44071,-5.44765 2.66261,-9.57319 6.66574,-12.37663 4.00312,-2.80336 8.68566,-4.21117 14.04765,-4.22347 5.38644,0.0183 9.98329,1.26711 13.79058,3.74605 3.8072,2.47904 5.79651,6.07815 5.96794,10.7974 -5e-5,2.18093 -5e-5,4.96846 0,8.36263 -5e-5,3.39421 -5e-5,6.64966 0,9.76635 -5e-5,3.11674 -5e-5,5.34931 0,6.6977 -0.0207,1.69554 0.14997,3.37269 0.51417,5.03147 0.36413,1.65876 1.04971,3.26247 2.05665,4.81109 l 0,0 z m -25.92847,-6.24342 c 3.70163,-0.0948 6.69173,-1.19052 8.97029,-3.28694 2.2785,-2.09646 3.45066,-4.62439 3.5165,-7.58392 l 0,-8.59385 c -0.75139,0.89064 -1.9113,1.66187 -3.47977,2.31374 -1.56853,0.6519 -3.88532,1.34969 -6.95039,2.09338 -2.88453,0.76361 -5.2319,1.77051 -7.04217,3.02069 -1.8103,1.25023 -2.74373,3.01 -2.80035,5.27935 -0.0337,2.33823 0.54782,4.05209 1.74448,5.14161 1.19664,1.08953 3.21044,1.6282 6.04141,1.61594 l 0,0 z"
     id="text2451"
     style="font-size:32px;font-style:normal;font-variant:normal;font-weight:normal;font-stretch:normal;text-align:start;line-height:125%;writing-mode:lr-tb;text-anchor:start;fill:#ffffff;fill-opacity:1;fill-rule:nonzero;stroke:none;stroke-width:1;marker:none;visibility:visible;display:inline;overflow:visible;enable-background:accumulate;font-family:GD-HighwayGothicJA-OTF;-inkscape-font-specification:GD-HighwayGothicJA-OTF" />
  <g
     id="text2844"
     style="font-size:85.96012878px;font-style:normal;font-weight:normal;text-align:center;text-anchor:middle;fill:#ffffff;fill-opacity:1;stroke:none;font-family:GD-HighwayGothicJA-TTF;-inkscape-font-specification:GD-HighwayGothicJA-TTF">
    <path
       d="m 717.05603,88.040643 c 0.16782,-8.002744 -2.65834,-14.634427 -8.47849,-19.895069 -5.70834,-4.309129 -12.17213,-6.407762 -19.3914,-6.295908 l 0,0 c -6.93952,-0.05589 -13.15147,2.042743 -18.63589,6.295908 -5.65233,5.316605 -8.36657,11.948288 -8.1427,19.895069 l 0,0 c -0.056,0.615645 -0.056,1.203263 0,1.762854 l 0,0 14.01889,0 c -0.056,-0.559591 -0.056,-1.147209 0,-1.762854 l 0,0 c -0.056,-2.462351 0.34974,-4.910757 1.2172,-7.345226 0.86742,-2.434362 2.33646,-4.365105 4.40714,-5.792235 2.07062,-1.427012 4.44907,-2.112566 7.13536,-2.056663 l 0,0 c 4.08531,6.1e-5 7.35918,1.539059 9.82162,4.616999 2.46235,3.078053 3.6096,6.603758 3.44176,10.577125 l 0,0 c -0.44776,4.868877 -2.54639,8.926236 -6.29591,12.172087 -4.3652,3.97345 -8.92623,7.66704 -13.6831,11.0808 -5.20464,3.69362 -9.82164,7.97483 -13.851,12.84365 -4.08536,5.03673 -6.15601,10.74502 -6.21196,17.12487 l 0,0 54.64848,0 0,-10.82896 -38.19518,0 c 2.96605,-3.86148 6.46377,-7.20531 10.49318,-10.03148 4.02934,-2.82615 8.05872,-5.63832 12.08815,-8.43652 2.63024,-1.9587 5.1486,-4.09931 7.55509,-6.42182 2.40637,-2.32246 4.35111,-4.96674 5.8342,-7.932847 1.48298,-2.966033 2.22449,-6.155956 2.22456,-9.56978 z"
       id="path2849" />
    <path
       d="m 769.43798,141.26205 15.78174,0 -25.26758,-32.65477 22.83316,-23.001055 -15.11017,0 -23.16895,25.099685 0,-49.443862 -12.67576,0 0,80.000002 12.67576,0 0,-16.87303 7.63904,-7.97482 z"
       id="path2851" />
    <path
       d="m 858.50408,83.759426 c -7.83497,0.503722 -13.82307,4.029427 -17.96432,10.577125 l 0,0 c -1.51107,-3.413738 -3.86154,-6.030035 -7.05142,-7.848899 -3.18997,-1.818768 -6.60375,-2.728176 -10.24134,-2.728226 l 0,0 c -7.21934,0.223904 -12.78772,3.357864 -16.70515,9.401889 l 0,0 -0.33578,-7.55509 -12.08814,0 0,55.655825 12.67576,0 0,-34.41763 c -0.056,-3.6376 1.14723,-6.74358 3.60965,-9.317943 2.46238,-2.574287 5.54037,-3.917413 9.234,-4.029381 l 0,0 c 6.15596,0.61564 9.37387,4.0574 9.65373,10.325294 l 0,0 0,37.43966 12.7597,0 0,-34.41763 c -0.056,-3.6376 1.1472,-6.74358 3.60966,-9.317943 2.46234,-2.574287 5.54033,-3.917413 9.234,-4.029381 l 0,0 c 6.15592,0.61564 9.37383,4.0574 9.65372,10.325294 l 0,0 0,37.43966 12.75971,0 0,-39.87408 c -0.11202,-5.092654 -2.01478,-9.317904 -5.70829,-12.675764 -3.69368,-3.357768 -8.05884,-5.008693 -13.09549,-4.95278 z"
       id="path2853" />
  </g>
</svg>
