<?xml version="1.0" encoding="UTF-8" standalone="no"?>
<!-- Created with Inkscape (http://www.inkscape.org/) -->

<svg
   xmlns:dc="http://purl.org/dc/elements/1.1/"
   xmlns:cc="http://creativecommons.org/ns#"
   xmlns:rdf="http://www.w3.org/1999/02/22-rdf-syntax-ns#"
   xmlns:svg="http://www.w3.org/2000/svg"
   xmlns="http://www.w3.org/2000/svg"
   xmlns:sodipodi="http://sodipodi.sourceforge.net/DTD/sodipodi-0.dtd"
   xmlns:inkscape="http://www.inkscape.org/namespaces/inkscape"
   version="1.1"
   width="434.75"
   height="487.96875"
   id="svg2"
   xml:space="preserve"
   inkscape:version="0.48.4 r9939"
   sodipodi:docname="AJAX1.svg"><sodipodi:namedview
     pagecolor="#ffffff"
     bordercolor="#666666"
     borderopacity="1"
     objecttolerance="10"
     gridtolerance="10"
     guidetolerance="10"
     inkscape:pageopacity="0"
     inkscape:pageshadow="2"
     inkscape:window-width="1280"
     inkscape:window-height="1004"
     id="namedview25"
     showgrid="false"
     inkscape:zoom="1.0334729"
     inkscape:cx="105.19526"
     inkscape:cy="150.87623"
     inkscape:window-x="-8"
     inkscape:window-y="-8"
     inkscape:window-maximized="1"
     inkscape:current-layer="g3818"
     fit-margin-top="0"
     fit-margin-left="0"
     fit-margin-right="0"
     fit-margin-bottom="0" /><metadata
     id="metadata8"><rdf:RDF><cc:Work
         rdf:about=""><dc:format>image/svg+xml</dc:format><dc:type
           rdf:resource="http://purl.org/dc/dcmitype/StillImage" /><dc:title /></cc:Work></rdf:RDF></metadata><defs
     id="defs6" /><g
     transform="matrix(1.25,0,0,-1.25,-80.878333,530.92715)"
     id="g10"><g
       transform="scale(0.1,0.1)"
       id="g12"><g
         id="g3033"
         transform="matrix(8,0,0,-8,437.32585,4042.8659)"><g
           id="g3818"
           transform="translate(26.212602,-25.584426)"><path
             style="fill:#0066b3;fill-opacity:1;fill-rule:nonzero;stroke:none"
             d="m 217.375,0.01550993 c 15.55512,0 22.73647,12.75861007 24.96875,16.65625007 l 185.75,317.15625 c 3.33071,6.66142 6.65625,17.74016 6.65625,25.5 l 0,104.25 c 0,13.32283 -11.08341,24.40625 -24.40625,24.40625 l -385.9375,0 C 11.08341,487.98426 -2.4999997e-7,476.90084 -2.4999997e-7,463.57801 l 0,-104.25 c 0,-7.75984 3.32554004999997,-18.83858 6.65625004999997,-25.5 L 192.40625,16.67176 C 194.63853,12.77412 201.81988,0.01550993 217.375,0.01550993 z"
             id="path3820"
             inkscape:connector-curvature="0"
             sodipodi:nodetypes="sccssssssccs" /><g
             id="g3930"
             transform="translate(10.536,10.511255)"><path
               style="fill:none;stroke:#ffffff;stroke-width:11;stroke-miterlimit:4;stroke-opacity:1;stroke-dasharray:none"
               d="m 206.839,5.566758 c -4.99606,0 -7.76304,3.31644 -11.09375,8.3125 L 9.4327498,332.75426 c -2.23229,3.86221 -3.90625,10.50836 -3.90625,14.9375 l 0,105.40625 c 0,4.42913 3.88337,8.3125 8.3125002,8.3125 l 386,0 c 4.42913,0 8.3125,-3.88337 8.3125,-8.3125 l 0,-105.40625 c 0,-4.42914 -1.67396,-11.07529 -3.90625,-14.9375 L 217.93275,13.879258 c -3.33071,-4.99606 -6.09769,-8.3125 -11.09375,-8.3125 z"
               id="path3932"
               inkscape:connector-curvature="0"
               sodipodi:nodetypes="sccssssssccs" /></g><path
             id="path3095"
             d="m 268.6704,314.90016 c -0.55447,-2.21807 -36.0436,-59.33333 -37.15263,-64.32399 -0.55447,-4.43614 5.54516,-44.36137 6.09969,-45.4704 1.10909,-1.1091 42.69781,31.05296 44.36136,31.05296 2.21806,0 3.88162,-2.21807 4.43614,-2.21807 1.10909,0 6.09968,4.99065 8.31775,6.0997 0.55447,0.55446 1.66355,0.55446 2.77258,0.55446 3.88163,0 6.65421,-3.32711 7.20873,-7.76324 0,-2.21807 -1.1091,-4.99065 -2.21807,-6.09969 -1.10909,-1.10909 -2.21808,-2.21806 -3.88162,-2.77259 -1.1091,0 -2.77258,0 -3.3271,-0.55447 -1.10909,-0.55447 -1.10909,-4.43613 -1.10909,-4.43613 0,0 -36.04362,-26.0623 -38.26169,-27.72586 -1.66348,-1.66355 -14.9719,-38.26168 -17.74448,-41.03426 -2.21808,-2.77259 -13.30841,-12.75389 -13.30841,-12.75389 l 0,-4.43614 c 0,0 9.42679,-3.3271 9.9813,-4.99066 1.1091,-1.66355 6.65421,-20.51713 6.65421,-20.51713 l 10.53582,-3.3271 0.55452,-2.77259 -13.3084,-6.099678 -0.55452,-7.76324 c 0,0 -10.53584,-5.54518 -17.19004,-4.99066 -7.20871,1.10903 -14.41743,4.43614 -14.41743,6.09969 0,2.21807 0,8.31776 0,8.31776 l -14.97197,6.099678 0.55447,3.32711 13.30842,7.76324 -1.1091,21.62616 c 0,0 -26.6168,12.19938 -28.28035,13.86293 -1.66355,1.66355 -27.17135,38.26168 -27.72586,40.47975 -1.1091,1.66354 -9.98131,49.90655 -8.87228,49.90655 0.55447,0.55446 3.88163,3.32709 3.88163,3.32709 0,0 -1.10909,9.9813 1.66355,13.86293 0,0 0,0 0,0 1.10909,2.77258 3.3271,3.88161 6.09969,4.43613 4.43613,0 7.76324,-3.3271 7.76324,-8.31776 0,-0.55446 0,-1.66354 -0.55447,-2.77258 l 0,-3.88162 2.77258,-2.77258 c 0,0 5.54518,-38.8162 6.65421,-39.92523 1.10909,-0.55447 17.74454,-21.62617 17.74454,-21.62617 l -8.31775,70.42367 c -0.55447,3.88163 2.21806,7.20872 4.99066,8.31775 L 130.0411,389.75997 c -1.1091,2.21807 0,5.54516 2.21806,6.65419 l 34.38007,17.19005 c 2.21807,1.10909 4.43613,0.55447 5.54516,-1.66357 0.55447,-2.21806 -2.77258,-7.2087 -2.21806,-6.09967 -0.55447,-0.55447 -2.21807,-2.7726 -3.88161,-6.09969 -3.32712,-3.88163 -2.21808,-7.76324 0.55447,-13.30842 0,0 41.58876,-93.15888 42.6978,-93.15888 1.10909,0 31.05295,39.92524 32.16199,41.5888 l 0,0 24.39875,67.65108 c 1.10909,2.77259 2.77258,4.43614 5.54517,3.88162 l 37.15264,-7.20872 c 2.21808,-0.55447 3.32711,-2.7726 3.32711,-4.99066 -0.55447,-2.21806 -2.21807,-2.77258 -4.99066,-3.3271 -2.21807,-1.10909 -2.77258,-1.10909 -8.87227,-2.77259 -4.99066,-0.55447 -7.76324,-4.43613 -9.42679,-9.42679 0,0 -19.40811,-61.5514 -19.96262,-63.76946"
             style="fill:#ffffff;fill-opacity:1;fill-rule:nonzero;stroke:none"
             inkscape:connector-curvature="0" /><path
             id="path3097"
             d="m 82.352671,350.38926 c -0.55447,2.77258 0.55447,4.99064 3.88162,4.99064 l 40.479759,0 c 1.10909,0 2.77258,-1.10909 3.32709,-2.77258 l 6.65421,-17.74454 c 1.1091,-2.7726 -0.55447,-4.99066 -3.88163,-4.99066 l -39.925229,0 c -1.66354,0 -3.32709,1.10909 -3.88161,2.21806 l -6.65421,18.29908"
             style="fill:#ffffff;fill-opacity:1;fill-rule:nonzero;stroke:none"
             inkscape:connector-curvature="0" /><path
             id="path3099"
             d="m 355.72958,355.3799 c 2.7726,0 4.43615,-2.21806 3.32712,-4.99064 l -6.0997,-18.29908 c -0.55447,-1.10909 -2.21806,-2.21806 -3.88161,-2.21806 l -57.11527,0 c -3.3271,0 -4.99064,2.21806 -3.88161,4.99066 l 6.6542,17.74454 c 0.55447,1.66355 2.21807,2.77258 3.3271,2.77258 l 57.66977,0"
             style="fill:#ffffff;fill-opacity:1;fill-rule:nonzero;stroke:none"
             inkscape:connector-curvature="0" /><path
             id="path3101"
             d="m 389.55514,447.98426 c 3.3271,0 4.99065,-2.21806 3.88162,-4.99066 l -6.65422,-17.74454 c -0.55451,-1.66355 -2.21806,-2.77258 -3.32709,-2.77258 l -332.155729,0 c -1.1091,0 -2.77258,1.10909 -3.3271,2.77258 l -6.65421,17.74454 c -1.10909,2.7726 0.55447,4.99066 3.3271,4.99066 l 344.909629,0"
             style="fill:#ffffff;fill-opacity:1;fill-rule:nonzero;stroke:none"
             inkscape:connector-curvature="0" /></g></g></g></g></svg>