<?xml version="1.0" encoding="UTF-8" standalone="no"?>
<!-- Created with Inkscape (http://www.inkscape.org/) -->

<svg
   xmlns:svg="http://www.w3.org/2000/svg"
   xmlns="http://www.w3.org/2000/svg"
   version="1.0"
   width="400"
   height="240"
   id="svg4203">
  <defs
     id="defs4205" />
  <g
     id="layer1">
    <rect
       width="400"
       height="240"
       x="0"
       y="0"
       id="rect_bg"
       style="fill:#005d35;fill-opacity:1;stroke:none" />
    <path
       d="m 168.89801,114.78716 2.43011,5.23407 c 2.93395,-1.4593 6.14947,-3.71247 9.64655,-6.75952 3.49705,-3.04704 6.8695,-6.73104 10.11735,-11.052 3.2478,-4.32093 5.96484,-9.1219 8.15111,-14.40291 2.18737,5.28101 4.90209,10.08198 8.14419,14.40291 3.24201,4.32096 6.59831,8.00496 10.06888,11.052 3.47048,3.04705 6.64215,5.30022 9.51502,6.75952 l 2.67934,-5.23407 c -2.91288,-1.44929 -6.14993,-3.81938 -9.71118,-7.1103 -3.56135,-3.2909 -6.91841,-7.28106 -10.07119,-11.97051 -3.15286,-4.6894 -5.57296,-9.85653 -7.2603,-15.501409 l 25.48491,0 0,-5.545618 -25.92109,0 0,-14.20675 -5.85716,0 0,14.20675 -25.85878,0 0,5.545618 25.48491,0 c -1.71048,5.644879 -4.15366,10.812019 -7.32954,15.501419 -3.17591,4.68944 -6.54221,8.67961 -10.09888,11.9705 -3.55669,3.29092 -6.76144,5.66101 -9.61425,7.1103 l 0,0 z"
       id="path3194"
       style="font-size:85px;font-style:normal;font-variant:normal;font-weight:normal;font-stretch:normal;text-align:start;line-height:125%;writing-mode:lr-tb;text-anchor:start;fill:#ffffff;fill-opacity:1;stroke:none;font-family:GD-HighwayGothicJA-OTF;-inkscape-font-specification:GD-HighwayGothicJA-OTF" />
    <path
       d="m 280.18005,63.256536 0,57.325484 5.60793,0 0,-7.16568 9.03499,0 c 1.73299,-0.0195 3.09602,-0.52575 4.08912,-1.51882 0.99304,-0.99307 1.49931,-2.3561 1.51881,-4.08912 l 0,-0.31154 c -0.035,-3.82948 -0.85289,-7.44867 -2.45347,-10.85758 -1.60061,-3.40887 -3.77368,-6.24918 -6.51921,-8.52093 2.77279,-2.67153 4.95364,-5.973968 6.54258,-9.907339 1.58889,-3.9333 2.39892,-8.170396 2.4301,-12.711303 l 0,-2.243172 -20.25085,0 z m 5.60793,5.607928 8.84806,0 c -0.46215,3.571201 -1.4695,6.819122 -3.02205,9.743773 -1.55257,2.924723 -3.49458,5.222413 -5.82601,6.893083 l 0,-16.636856 z m 9.03499,38.943936 -9.03499,0 0,-16.76147 c 2.66635,1.48379 4.82644,3.71917 6.48027,6.70615 1.6538,2.98702 2.50537,6.23493 2.55472,9.74378 l 0,0.31154 z m 13.27209,7.16569 2.61704,4.98483 c 2.58065,-1.34098 4.91209,-2.75594 6.99433,-4.24489 2.08216,-1.48896 3.94628,-3.04412 5.59235,-4.66549 1.80566,1.77325 3.80218,3.39851 5.98958,4.87578 2.1873,1.47728 4.57327,2.82214 7.1579,4.0346 l 2.49241,-5.10945 c -2.36526,-1.11899 -4.53573,-2.33923 -6.51143,-3.66073 -1.97581,-1.32149 -3.77242,-2.75982 -5.38984,-4.31499 2.84675,-3.74769 4.97309,-7.87315 6.37902,-12.37638 1.40582,-4.5032 2.39499,-9.516575 2.96753,-15.040153 l -26.29495,0 0,-10.592753 28.03964,0 0,-5.607928 -33.64757,0 0,38.071604 c -0.003,3.10643 -0.62054,5.85068 -1.85373,8.23275 -1.23325,2.38207 -3.06621,4.45648 -5.49888,6.22323 l 3.11551,4.54866 c 6.55293,-4.55904 9.83461,-10.89391 9.84503,-19.00464 l 0,-16.262996 0.0623,0 c 0.80611,4.357856 1.98221,8.353496 3.52832,11.986946 1.54604,3.63348 3.48544,6.92814 5.81822,9.88397 -1.46043,1.4643 -3.13502,2.86628 -5.02377,4.20594 -1.88881,1.33968 -4.01515,2.61704 -6.37902,3.83209 l 0,0 z M 330.0283,85.065144 c -0.57123,3.331036 -1.39165,6.451736 -2.46126,9.362126 -1.06971,2.91043 -2.51323,5.62611 -4.33057,8.14707 -1.80185,-2.39244 -3.30768,-5.03803 -4.51749,-7.93677 -1.2099,-2.89871 -2.15494,-6.08951 -2.83512,-9.572426 l 14.14444,0 z"
       id="path3192"
       style="font-size:85px;font-style:normal;font-variant:normal;font-weight:normal;font-stretch:normal;text-align:start;line-height:125%;writing-mode:lr-tb;text-anchor:start;fill:#ffffff;fill-opacity:1;stroke:none;font-family:GD-HighwayGothicJA-OTF;-inkscape-font-specification:GD-HighwayGothicJA-OTF" />
    <path
       d="m 201.78428,140.83732 c 3.12591,0.0478 5.87036,0.9012 8.23338,2.56029 2.36297,1.65915 4.20874,3.83751 5.53734,6.53512 1.32853,2.69764 2.00413,5.62807 2.02678,8.79132 -0.0226,3.13927 -0.69825,6.05252 -2.02678,8.73973 -1.3286,2.68722 -3.17437,4.85926 -5.53734,6.51611 -2.36302,1.65685 -5.10747,2.50938 -8.23338,2.55757 -3.13747,-0.0482 -5.88736,-0.90072 -8.24966,-2.55757 -2.36232,-1.65686 -4.20539,-3.82889 -5.52919,-6.51611 -1.32382,-2.68721 -1.9967,-5.60046 -2.01864,-8.73973 0.0219,-3.16325 0.69482,-6.09368 2.01864,-8.79132 1.3238,-2.69761 3.16687,-4.87597 5.52919,-6.53512 2.3623,-1.65909 5.11219,-2.51252 8.24966,-2.56029 l 0,0 z m 0,4.65495 c -2.78947,0.0496 -5.07265,1.25157 -6.84955,3.60575 -1.77692,2.35422 -2.69477,5.56289 -2.75356,9.62603 0.0588,4.04407 0.97664,7.23594 2.75357,9.57562 1.77689,2.3397 4.06007,3.53397 6.84954,3.58285 2.77188,-0.0489 5.04437,-1.24315 6.81748,-3.58285 1.77308,-2.33968 2.6894,-5.53155 2.74899,-9.57562 -0.0596,-4.06314 -0.97591,-7.27181 -2.74899,-9.62603 -1.77311,-2.35418 -4.0456,-3.55609 -6.81748,-3.60575 l 0,0 z m 20.99928,13.23178 c 0.0596,-2.23735 0.97589,-4.03946 2.74899,-5.40634 1.77309,-1.36684 4.04557,-2.06935 6.81748,-2.10755 2.80013,0.0115 5.12607,0.7033 6.97783,2.07548 1.85173,1.37222 2.81235,3.35606 2.88186,5.95155 l -5.46132,0 c 0.0114,-1.0866 -0.33218,-2.03805 -1.03086,-2.85436 -0.69872,-0.81629 -1.82123,-1.24543 -3.36751,-1.28745 -1.31113,0.0153 -2.32672,0.30547 -3.04679,0.87052 -0.72009,0.56508 -1.0851,1.31342 -1.09501,2.245 -0.0221,0.63305 0.15042,1.16299 0.51772,1.58983 0.36728,0.42687 1.06217,0.80104 2.08464,1.1225 0.95985,0.28789 1.89909,0.55516 2.81771,0.80179 0.91861,0.24665 2.21521,0.61471 3.88982,1.10418 1.76696,0.51467 3.11702,1.2905 4.05017,2.32746 0.9331,1.03699 1.40348,2.32596 1.41114,3.86691 -0.0428,2.12512 -0.99271,3.89516 -2.84978,5.31012 -1.85711,1.41496 -4.36479,2.14955 -7.52305,2.20377 -3.01244,-0.0252 -5.44529,-0.74452 -7.29855,-2.15795 -1.85328,-1.41344 -2.86582,-3.36979 -3.03763,-5.86908 l 5.42466,0 c -0.0221,1.19887 0.34285,2.18239 1.09501,2.95057 0.75215,0.7682 2.02432,1.16527 3.81651,1.19123 1.79217,-0.0481 3.06434,-0.40089 3.8165,-1.05836 0.75214,-0.65746 1.11715,-1.33096 1.09502,-2.0205 0.0305,-0.53834 -0.12219,-1.0469 -0.45817,-1.52569 -0.336,-0.47878 -1.03852,-0.88654 -2.10755,-1.22329 -1.11335,-0.31003 -2.28625,-0.63379 -3.5187,-0.97131 -1.23247,-0.33751 -2.44203,-0.69793 -3.62866,-1.08127 -1.28363,-0.33216 -2.42751,-1.00567 -3.43164,-2.0205 -1.00415,-1.01483 -1.5341,-2.35725 -1.58984,-4.02726 l 0,0 z m 46.83328,17.0437 c -0.55797,-1e-5 -1.29917,-1e-5 -2.22363,0 -0.92449,-1e-5 -1.76344,-1e-5 -2.51685,0 -0.75344,-1e-5 -1.15255,-1e-5 -1.19733,0 l -0.76972,-3.11552 c -0.8751,1.36457 -2.07549,2.35573 -3.60116,2.97349 -1.5257,0.61775 -3.18425,0.92166 -4.97566,0.91174 -2.11291,-0.0153 -3.83408,-0.62615 -5.16351,-1.83265 -1.32945,-1.20651 -2.01516,-2.91698 -2.05716,-5.13144 0.0412,-2.18926 0.85676,-3.86766 2.4466,-5.03523 1.58982,-1.16754 3.70653,-1.99376 6.35015,-2.47866 2.55273,-0.47037 4.36553,-0.94075 5.43841,-1.41115 1.07285,-0.47037 1.59363,-1.19732 1.56233,-2.18086 0.042,-0.71777 -0.2436,-1.44472 -0.85676,-2.18086 -0.61319,-0.7361 -1.80594,-1.13317 -3.57826,-1.19123 -1.88841,0.0367 -3.16058,0.47652 -3.81651,1.31952 -0.65594,0.84303 -1.02095,1.86933 -1.09501,3.07886 l -5.42467,0 c 0.21993,-2.71842 1.32868,-4.7771 3.32628,-6.17605 1.99759,-1.39891 4.33422,-2.10143 7.00991,-2.10755 2.68788,0.009 4.98175,0.63228 6.88162,1.86931 1.89983,1.23706 2.89252,3.03306 2.97807,5.388 -2e-5,1.0883 -2e-5,2.4793 0,4.17303 -2e-5,1.69375 -2e-5,3.31824 0,4.8735 -2e-5,1.55528 -2e-5,2.66935 0,3.34222 -0.0107,0.84609 0.0748,1.683 0.25657,2.51075 0.18172,0.82774 0.52381,1.628 1.02629,2.40078 l 0,0 z m -12.93856,-3.11552 c 1.84716,-0.0474 3.33924,-0.59408 4.47627,-1.64023 1.13699,-1.04613 1.72191,-2.30761 1.75476,-3.78443 l 0,-4.28842 c -0.37494,0.44443 -0.95375,0.82929 -1.73644,1.15457 -0.78271,0.32531 -1.93881,0.67351 -3.46829,1.04462 -1.43942,0.38105 -2.61079,0.8835 -3.51412,1.50736 -0.90336,0.62388 -1.36916,1.50202 -1.39741,2.63444 -0.0168,1.1668 0.27337,2.02203 0.87052,2.56572 0.59713,0.54369 1.60203,0.81248 3.01471,0.80637 l 0,0 z m 33.93026,3.11552 -7.36728,-10.62941 -3.26213,3.37209 0,7.25732 -5.42466,0 0,-34.16071 5.42466,0 0,21.07554 9.85969,-10.70271 6.45095,0 -9.71308,9.82303 10.77602,13.96485 -6.74417,0 z m 32.6285,0 c -0.55797,-1e-5 -1.29917,-1e-5 -2.22363,0 -0.92449,-1e-5 -1.76344,-1e-5 -2.51685,0 -0.75344,-1e-5 -1.15255,-1e-5 -1.19733,0 l -0.76971,-3.11552 c -0.87511,1.36457 -2.0755,2.35573 -3.60117,2.97349 -1.5257,0.61775 -3.18425,0.92166 -4.97566,0.91174 -2.11291,-0.0153 -3.83408,-0.62615 -5.16351,-1.83265 -1.32945,-1.20651 -2.01516,-2.91698 -2.05716,-5.13144 0.0413,-2.18926 0.85677,-3.86766 2.4466,-5.03523 1.58982,-1.16754 3.70653,-1.99376 6.35015,-2.47866 2.55272,-0.47037 4.36552,-0.94075 5.4384,-1.41115 1.07285,-0.47037 1.59364,-1.19732 1.56235,-2.18086 0.042,-0.71777 -0.24362,-1.44472 -0.85677,-2.18086 -0.61319,-0.7361 -1.80595,-1.13317 -3.57827,-1.19123 -1.8884,0.0367 -3.16057,0.47652 -3.8165,1.31952 -0.65594,0.84303 -1.02095,1.86933 -1.09501,3.07886 l -5.42466,0 c 0.21991,-2.71842 1.32867,-4.7771 3.32627,-6.17605 1.99758,-1.39891 4.33422,-2.10143 7.0099,-2.10755 2.68789,0.009 4.98176,0.63228 6.88163,1.86931 1.89984,1.23706 2.89252,3.03306 2.97807,5.388 -2e-5,1.0883 -2e-5,2.4793 0,4.17303 -2e-5,1.69375 -2e-5,3.31824 0,4.8735 -2e-5,1.55528 -2e-5,2.66935 0,3.34222 -0.0107,0.84609 0.0748,1.683 0.25657,2.51075 0.18172,0.82774 0.52381,1.628 1.02629,2.40078 l 0,0 z m -12.93855,-3.11552 c 1.84715,-0.0474 3.33923,-0.59408 4.47626,-1.64023 1.13699,-1.04613 1.72191,-2.30761 1.75477,-3.78443 l 0,-4.28842 c -0.37495,0.44443 -0.95376,0.82929 -1.73644,1.15457 -0.78272,0.32531 -1.93882,0.67351 -3.46831,1.04462 -1.4394,0.38105 -2.61078,0.8835 -3.51412,1.50736 -0.90335,0.62388 -1.36915,1.50202 -1.3974,2.63444 -0.0168,1.1668 0.27337,2.02203 0.87052,2.56572 0.59713,0.54369 1.60203,0.81248 3.01472,0.80637 l 0,0 z"
       id="text3179"
       style="font-size:50px;font-style:normal;font-variant:normal;font-weight:normal;font-stretch:normal;text-align:start;line-height:125%;writing-mode:lr-tb;text-anchor:start;fill:#ffffff;fill-opacity:1;stroke:none;font-family:GD-HighwayGothicJA-OTF;-inkscape-font-specification:GD-HighwayGothicJA-OTF" />
    <path
       d="M 46.369943,44.904059 46.279714,107.76645 65.582211,96.649242 123.21558,196.47316 139.41331,187.1214 81.80344,87.338175 100.78035,76.408937 46.369905,44.903993 z"
       id="rect3015"
       style="color:#000000;fill:#ffffff;fill-opacity:1;fill-rule:nonzero;stroke:#ffffff;stroke-width:1.36523283;stroke-linecap:butt;stroke-linejoin:miter;stroke-miterlimit:4;stroke-opacity:1;stroke-dashoffset:261;marker:none;visibility:visible;display:inline;overflow:visible;enable-background:accumulate" />
  </g>
</svg>
