<?xml version="1.0" encoding="UTF-8" standalone="no"?>
<!-- Created with Inkscape (http://www.inkscape.org/) -->

<svg
   xmlns:dc="http://purl.org/dc/elements/1.1/"
   xmlns:cc="http://creativecommons.org/ns#"
   xmlns:rdf="http://www.w3.org/1999/02/22-rdf-syntax-ns#"
   xmlns:svg="http://www.w3.org/2000/svg"
   xmlns="http://www.w3.org/2000/svg"
   xmlns:sodipodi="http://sodipodi.sourceforge.net/DTD/sodipodi-0.dtd"
   xmlns:inkscape="http://www.inkscape.org/namespaces/inkscape"
   version="1.1"
   width="520.83002"
   height="548.58649"
   viewBox="0 0 520.83003 548.58649"
   id="svg2"
   xml:space="preserve"
   inkscape:version="0.48.4 r9939"
   sodipodi:docname="Ajax.svg"><sodipodi:namedview
   pagecolor="#ffffff"
   bordercolor="#666666"
   borderopacity="1"
   objecttolerance="10"
   gridtolerance="10"
   guidetolerance="10"
   inkscape:pageopacity="0"
   inkscape:pageshadow="2"
   inkscape:window-width="1280"
   inkscape:window-height="1001"
   id="namedview29"
   showgrid="false"
   fit-margin-top="0.2"
   fit-margin-left="0.2"
   fit-margin-right="0.2"
   fit-margin-bottom="0.2"
   inkscape:zoom="0.73086571"
   inkscape:cx="133.18805"
   inkscape:cy="252.36375"
   inkscape:window-x="-8"
   inkscape:window-y="-8"
   inkscape:window-maximized="1"
   inkscape:current-layer="svg2" /><metadata
   id="metadata37"><rdf:RDF><cc:Work
       rdf:about=""><dc:format>image/svg+xml</dc:format><dc:type
         rdf:resource="http://purl.org/dc/dcmitype/StillImage" /><dc:title /></cc:Work></rdf:RDF></metadata><defs
   id="defs35" />



<path
   style="font-size:medium;font-style:normal;font-variant:normal;font-weight:normal;font-stretch:normal;text-indent:0;text-align:start;text-decoration:none;line-height:normal;letter-spacing:normal;word-spacing:normal;text-transform:none;direction:ltr;block-progression:tb;writing-mode:lr-tb;text-anchor:start;baseline-shift:baseline;color:#000000;fill:#000000;fill-opacity:1;fill-rule:nonzero;stroke:none;stroke-width:30;marker:none;visibility:visible;display:inline;overflow:visible;enable-background:accumulate;font-family:Sans;-inkscape-font-specification:Sans"
   d="m 503.83846,548.38649 c 8.98988,0 16.36755,-7.37765 16.36755,-16.36755 l 0,-53.93265 c 0,-8.99029 -7.37785,-16.36753 -16.36755,-16.36753 l -487.270911,0 C 7.5779097,461.71876 0.2,469.096 0.2,478.08629 l 0,53.93265 c 0,8.9899 7.3776497,16.36755 16.367549,16.36755 z"
   id="path14428"
   inkscape:connector-curvature="0"
   sodipodi:nodetypes="sssssssss" /><path
   inkscape:connector-curvature="0"
   d="m 16.570589,544.0531 c -6.6479695,0 -12.0371993,-5.38923 -12.0371993,-12.0372 l 0,-53.92666 c 0,-6.64858 5.3892298,-12.03723 12.0371993,-12.03723 l 487.264891,0 c 6.64798,0 12.03717,5.38865 12.03717,12.03723 l 0,53.92666 c 0,6.64797 -5.38919,12.0372 -12.03717,12.0372 z"
   style="fill:#ffffff;fill-opacity:1;fill-rule:nonzero;stroke:none"
   id="path14430"
   sodipodi:nodetypes="sssssssss" /><g
   transform="matrix(0.28889218,0,0,0.28889218,-1.9061203,358.09881)"
   id="layer1"
   style="fill:#000000;stroke:none"><g
     id="text2814"
     style="font-size:250px;font-style:normal;font-weight:normal;text-align:center;text-anchor:middle;fill:#000000;fill-opacity:1;stroke:none"><path
       style="font-variant:normal;font-stretch:normal;fill:#000000;stroke:none;font-family:'Rounded M+ 1m medium';-inkscape-font-specification:'Rounded M+ 1m medium,'"
       id="path3038"
       d="m 389.27931,424.31433 c 2.16651,2.16692 3.24988,4.75074 3.25012,7.75146 -2.4e-4,3.00106 -1.08361,5.54292 -3.25012,7.62558 -2.16698,2.08299 -4.7508,3.1244 -7.75148,3.12424 l -203.00299,0 c -3.00091,1.6e-4 -5.58473,-1.04125 -7.75146,-3.12424 -2.16676,-2.08266 -3.25015,-4.62452 -3.25013,-7.62558 -2e-5,-3.00072 1.08337,-5.58454 3.25013,-7.75146 2.16673,-2.16657 4.75055,-3.24994 7.75146,-3.25012 l 49.00361,0 c 1.33253,1.8e-4 1.66568,-0.66612 0.99945,-1.99891 -0.66637,-1.16457 -1.62513,-2.91424 -2.87628,-5.24902 -1.25129,-2.3344 -2.21005,-4.08408 -2.87628,-5.24902 -1.50051,-2.6701 -1.62513,-5.50441 -0.37384,-8.50296 1.25115,-2.99815 3.45859,-4.83048 6.62231,-5.49698 3.83498,-0.83394 7.54413,-0.50079 11.12749,0.99945 3.58318,1.50065 6.29034,3.91662 8.12149,7.24792 3.33649,5.83414 6.25346,11.251 8.75091,16.25061 0.50344,1.33279 1.50543,1.99909 3.00599,1.99891 l 41.24452,0 c 1.16969,1.8e-4 2.16914,-0.66612 2.99835,-1.99891 2.50229,-4.16546 5.25396,-9.24917 8.25501,-15.25116 1.83089,-3.49914 4.4554,-6.16561 7.87353,-7.99942 3.41781,-1.83339 7.04177,-2.41703 10.8719,-1.75094 3.33641,0.66651 5.79561,2.45814 7.37762,5.37491 1.58165,2.91717 1.62234,5.8761 0.12208,8.8768 -1.83124,3.66738 -3.74622,7.25065 -5.74494,10.74981 -0.33587,0.33079 -0.37783,0.74659 -0.12588,1.24741 0.25159,0.50118 0.6267,0.75168 1.12533,0.7515 l 47.50062,0 c 3.00068,1.8e-4 5.5845,1.08355 7.75148,3.25012 z m -143.7531,172.99648 c 4.3334,0 6.91722,-0.5823 7.75146,-1.7471 0.83405,-1.1647 1.25112,-4.9972 1.25122,-11.49749 l 0,-13.50403 c -1e-4,-1.33257 -0.75032,-1.99887 -2.25067,-1.9989 l -44.50227,0 c -1.5005,3e-5 -2.25072,0.66633 -2.25067,1.9989 l 0,37.50612 c -5e-5,3.6621 -1.25,6.7431 -3.74985,9.243 -2.49994,2.4999 -5.58349,3.7498 -9.25065,3.7498 -3.66723,0 -6.75077,-1.2499 -9.25064,-3.7498 -2.49992,-2.4999 -3.74987,-5.5809 -3.74985,-9.243 l 0,-136.50514 c -2e-5,-3.82982 1.37581,-7.1626 4.12751,-9.99832 2.75163,-2.83545 6.04244,-4.25325 9.87243,-4.25339 l 72.2504,0 c 3.83493,1.4e-4 7.16897,1.41794 10.00213,4.25339 2.83293,2.83572 4.24945,6.1685 4.24958,9.99832 l 0,114.50195 c -1.3e-4,6.16459 -0.0421,10.83119 -0.12589,13.99999 -0.084,3.1687 -0.54181,6.2942 -1.37329,9.3765 -0.83173,3.0822 -1.74852,5.1651 -2.7504,6.2485 -1.00211,1.0833 -2.83571,2.1247 -5.50079,3.1242 -2.66531,0.9994 -5.41444,1.5411 -8.24737,1.625 -2.83317,0.084 -7.00136,0.1259 -12.50459,0.1259 -0.83424,0 -4.75066,-0.1678 -11.74927,-0.5035 -3.16373,-0.1628 -5.8709,-1.4534 -8.12149,-3.8719 -2.25075,-2.4186 -3.46001,-5.2936 -3.62779,-8.6251 -0.16791,-3.1687 0.8735,-5.8364 3.12424,-8.0032 2.2506,-2.1667 4.96031,-3.0823 8.12913,-2.7466 1.16467,0 2.41335,0.042 3.74603,0.1259 1.33252,0.084 2.33197,0.1666 2.99835,0.248 0.66622,0.081 1.16721,0.122 1.503,0.122 z m -40.00093,-115.99728 0,19.50074 c -5e-5,1.50054 0.75017,2.25077 2.25067,2.25067 l 44.50227,0 c 1.50035,1e-4 2.25057,-0.75013 2.25067,-2.25067 l 0,-19.50074 c -1e-4,-1.50032 -0.75032,-2.25055 -2.25067,-2.25067 l -44.50227,0 c -1.5005,1.2e-4 -2.25072,0.75035 -2.25067,2.25067 z m 2.25067,66.74958 44.50227,0 c 1.50035,5e-5 2.25057,-0.75017 2.25067,-2.25067 l 0,-20.24842 c -1e-4,-1.33252 -0.75032,-1.99882 -2.25067,-1.9989 l -44.50227,0 c -1.5005,8e-5 -2.25072,0.66638 -2.25067,1.9989 l 0,20.24842 c -5e-5,1.5005 0.75017,2.25072 2.25067,2.25067 z m 96.62631,-83.24433 c 2.58367,-2.5023 5.62525,-3.75352 9.12476,-3.75366 3.49919,1.4e-4 6.49881,1.25009 8.99888,3.74985 2.49973,2.50003 3.74968,5.49965 3.74985,8.99887 l 0,88.24921 c -1.7e-4,3.49938 -1.25012,6.499 -3.74985,8.99887 -2.50007,2.49992 -5.49969,3.74987 -8.99888,3.74984 -3.49951,3e-5 -6.54109,-1.24992 -9.12476,-3.74984 -2.58397,-2.49987 -3.87588,-5.49949 -3.87573,-8.99887 l 0,-88.24921 c -1.5e-4,-3.49922 1.29176,-6.49757 3.87573,-8.99506 z m 44.37257,156.24233 c -6.83104,0 -13.5805,-0.1653 -20.24841,-0.4959 -3.49952,-0.1678 -6.49914,-1.5017 -8.99888,-4.0016 -2.50006,-2.4999 -3.83393,-5.4995 -4.00162,-8.9989 -0.16801,-3.1687 0.95733,-5.9191 3.37601,-8.2511 2.41836,-2.3321 5.29337,-3.4142 8.62504,-3.2464 5.66592,0.3307 11.49985,0.496 17.50183,0.496 4.9996,0 7.99923,-0.5837 8.99888,-1.751 0.99925,-1.1673 1.49897,-4.9171 1.49918,-11.24953 l 0,-115.5014 c -2.1e-4,-3.66198 1.2917,-6.78494 3.87573,-9.3689 2.58361,-2.58368 5.70912,-3.87559 9.37652,-3.87573 3.66698,1.4e-4 6.79122,1.29205 9.37271,3.87573 2.58106,2.58396 3.8717,5.70692 3.87192,9.3689 l 0,116.75262 c -2.2e-4,16.33201 -1.79186,26.45621 -5.37491,30.37261 -3.58349,3.9164 -12.87481,5.8746 -27.874,5.8746 z"
       inkscape:connector-curvature="0" /><path
       style="font-variant:normal;font-stretch:normal;fill:#000000;stroke:none;font-family:'Rounded M+ 1m medium';-inkscape-font-specification:'Rounded M+ 1m medium,'"
       id="path3040"
       d="m 431.52281,593.06131 c 20.8333,-16.332 35.12569,-34.28903 42.87722,-53.87119 7.75139,-19.58203 11.71104,-48.03964 11.87897,-85.37292 -8e-5,-1.5003 -0.75031,-2.25053 -2.25067,-2.25067 l -55.00033,0 c -3.33661,1.4e-4 -6.08827,-1.08323 -8.255,-3.25013 -2.16676,-2.16659 -3.25014,-4.91698 -3.25012,-8.25119 -2e-5,-3.33388 1.08336,-6.08427 3.25012,-8.25119 2.16673,-2.16657 4.91839,-3.24995 8.255,-3.25012 l 84.99912,0 c 1.50033,1.7e-4 2.25056,-0.66613 2.25067,-1.9989 l 0,-17.99774 c -1.1e-4,-3.667 1.37445,-6.87643 4.12369,-9.6283 2.749,-2.75146 5.95716,-4.12729 9.62448,-4.1275 3.66706,2.1e-4 6.87523,1.37604 9.62449,4.1275 2.74899,2.75187 4.12355,5.9613 4.12369,9.6283 l 0,17.99774 c -1.4e-4,1.33277 0.75008,1.99907 2.25067,1.9989 l 84.99911,0 c 3.33636,1.7e-4 6.08803,1.08355 8.25501,3.25012 2.16651,2.16692 3.24988,4.91731 3.25012,8.25119 -2.4e-4,3.33421 -1.08361,6.0846 -3.25012,8.25119 -2.16698,2.1669 -4.91865,3.25027 -8.25501,3.25013 l -114.9979,0 c -1.50056,1.4e-4 -2.25078,0.75037 -2.25067,2.25067 -1.1e-4,11.66293 -0.33326,21.57859 -0.99945,29.74701 -1.1e-4,1.33271 0.66619,1.99901 1.9989,1.9989 l 91.75113,0 c 3.83483,1.1e-4 7.12691,1.37595 9.87625,4.1275 2.74891,2.75178 4.12347,6.04259 4.12369,9.87244 l 0,3.50189 c -2.2e-4,20.49772 -0.49995,37.33069 -1.49918,50.49896 -0.99966,13.16837 -2.45815,24.08602 -4.37546,32.75299 -1.91773,8.66702 -4.8347,15.12532 -8.75091,19.37482 -3.91662,4.2496 -8.20815,7.1246 -12.87462,8.6251 -4.66683,1.5004 -10.83264,2.2506 -18.49746,2.2506 -9.83701,0 -23.00533,-0.501 -39.50502,-1.503 -3.33164,-0.3357 -6.20537,-1.7115 -8.62123,-4.1275 -2.41609,-2.4159 -3.708,-5.3736 -3.87573,-8.8729 -0.16796,-3.3315 0.91541,-6.0807 3.25012,-8.2474 2.33448,-2.1668 5.0836,-3.1662 8.24738,-2.9984 14.5008,0.9969 26.33398,1.4954 35.49959,1.4954 6.00162,0 10.58561,-1.8336 13.75199,-5.50081 3.16601,-3.66718 5.70787,-11.50001 7.62558,-23.49853 1.91733,-11.99845 2.87609,-29.58164 2.87628,-52.74964 -1.9e-4,-1.33251 -0.75041,-1.99881 -2.25067,-1.9989 l -79.25417,0 c -1.33271,9e-5 -2.16431,0.75032 -2.49482,2.25067 -3.66729,22.33385 -10.2095,41.41749 -19.62662,57.25098 -9.4173,15.83355 -22.87682,30.83293 -40.37858,44.99813 -2.99585,2.3346 -6.41128,3.3353 -10.24629,3.0022 -3.83507,-0.3332 -7.08519,-1.9188 -9.75037,-4.7569 -2.49737,-2.8331 -3.53879,-5.9993 -3.12423,-9.4986 0.4145,-3.4994 2.03829,-6.4163 4.87136,-8.7509 z"
       inkscape:connector-curvature="0" /><path
       style="font-variant:normal;font-stretch:normal;fill:#000000;stroke:none;font-family:'Rounded M+ 1m medium';-inkscape-font-specification:'Rounded M+ 1m medium,'"
       id="path3042"
       d="m 677.77286,520.315 c -0.16787,0.33069 -1.50047,2.74666 -3.9978,7.24792 -1.33771,2.33467 -3.42307,3.29343 -6.2561,2.87629 -2.83306,-0.41701 -4.66412,-1.95814 -5.49317,-4.62342 l -1.50299,-4.50134 c -2.50244,-8.6669 -1.33515,-17.16604 3.50189,-25.49744 14.83152,-24.83609 25.66272,-53.50478 32.4936,-86.00616 0.83411,-3.33131 2.62701,-6.03847 5.37873,-8.12149 2.75162,-2.08262 5.7932,-2.87481 9.12475,-2.37656 3.33145,0.3359 5.99792,1.8783 7.99943,4.62723 2.00138,2.74932 2.66895,5.78963 2.00272,9.12094 -4.00296,21.00135 -9.50375,40.08499 -16.50239,57.25098 -0.4985,1.16997 -0.74773,2.50511 -0.74768,4.00543 l 0,136.74923 c -5e-5,3.4994 -1.20931,6.457 -3.62778,8.873 -2.41856,2.416 -5.37749,3.624 -8.8768,3.624 -3.49938,0 -6.45705,-1.208 -8.873,-3.624 -2.416,-2.416 -3.62398,-5.3736 -3.62396,-8.873 l 0,-90.49984 c -2e-5,-0.33561 -0.12463,-0.50346 -0.37384,-0.50354 -0.24925,8e-5 -0.45778,0.084 -0.62561,0.25177 z m 182.99872,54.00085 c -6.16475,4.99982 -13.99759,9.99961 -23.49855,14.99936 -0.49863,0.3307 -0.33333,0.8316 0.49591,1.503 15.3349,3.6621 31.58549,6.3273 48.75186,7.9956 3.00066,0.1679 5.37594,1.5017 7.12585,4.0016 1.74943,2.4999 2.29112,5.1664 1.62506,7.9995 -0.66654,3.1687 -2.2916,5.6686 -4.87518,7.4997 -2.58406,1.831 -5.45779,2.5812 -8.62122,2.2506 -26.33688,-3.3315 -50.92132,-9.0815 -73.75338,-17.25 -1.00215,-0.4985 -2.25337,-0.4146 -3.75367,0.2517 -20.99622,7.3293 -45.82734,12.9115 -74.49343,16.7466 -3.16881,0.3356 -6.00313,-0.3714 -8.50296,-2.121 -2.49996,-1.7497 -4.08307,-4.125 -4.7493,-7.1259 -0.66636,-2.833 -0.12468,-5.4588 1.62507,-7.8773 1.74961,-2.4185 4.04097,-3.7092 6.87408,-3.8719 19.00219,-2.004 36.00302,-4.7557 51.00251,-8.255 0.33049,-0.1628 0.49579,-0.412 0.49592,-0.7477 -1.3e-4,-0.3357 -0.16543,-0.5849 -0.49592,-0.7477 -4.50145,-2.50242 -8.75102,-5.00232 -12.74871,-7.49969 -2.16686,-1.33767 -3.29219,-3.25646 -3.37601,-5.75638 -0.084,-2.49987 0.87346,-4.58142 2.87247,-6.24466 -1.1e-4,-0.33566 -0.16796,-0.58743 -0.50354,-0.75531 l -1.99891,0 c -1.83115,3e-5 -3.16375,0.2518 -3.9978,0.75531 -8.9977,4.99982 -17.99783,9.33332 -27.00044,13.00049 -2.66527,1.16477 -5.33174,1.12281 -7.99942,-0.12589 -2.6678,-1.24865 -4.50141,-3.29079 -5.5008,-6.1264 -0.99951,-2.83556 -0.87362,-5.544 0.37766,-8.1253 1.25115,-2.58125 3.20937,-4.37288 5.87464,-5.37491 14.16516,-5.1676 26.8325,-11.08292 38.00202,-17.74597 0.99681,-0.67134 0.99681,-1.50548 0,-2.50245 -2.16685,-1.83608 -3.25022,-5.58719 -3.25012,-11.25335 -10e-5,-0.33054 -0.12598,-0.49584 -0.37765,-0.49591 -0.25187,7e-5 -0.45914,0.0815 -0.6218,0.24414 -4.33359,6.33754 -9.75047,12.58855 -16.25062,18.75305 -2.16683,1.99895 -4.70869,2.9984 -7.62558,2.99835 -2.91704,5e-5 -5.4589,-0.9994 -7.62558,-2.99835 -1.99897,-1.831 -2.95773,-4.16305 -2.87628,-6.99616 0.0813,-2.83298 1.124,-5.16758 3.12805,-7.00378 l 4.49371,-4.50134 c 0.16778,-0.16778 0.16905,-0.41828 0.004,-0.7515 -0.16538,-0.33308 -0.33195,-0.49965 -0.49973,-0.49972 -3.16881,7e-5 -5.87851,-1.16596 -8.12912,-3.49808 -2.25073,-2.33198 -3.37607,-5.08237 -3.37601,-8.25119 l 0,-14.74762 c -6e-5,-3.83494 1.37578,-7.16898 4.12751,-10.00214 2.7516,-2.83294 6.04241,-4.24946 9.87244,-4.24957 l 0.75531,0 c 1.33252,1.1e-4 1.99882,-0.66619 1.9989,-1.9989 l 0,-40.7486 c -8e-5,-3.83488 1.41644,-7.12696 4.24957,-9.87625 2.83296,-2.74896 6.16701,-4.12352 10.00214,-4.12369 l 34.99605,0 c 1.33247,1.7e-4 2.33192,-0.75005 2.99835,-2.25067 0.16772,-0.49828 0.37752,-1.08066 0.62943,-1.74713 0.25163,-0.66613 0.4589,-1.25105 0.62179,-1.75476 0.33556,-1.16458 -0.0815,-1.74696 -1.25122,-1.74713 l -49.99544,0 c -2.83313,1.7e-4 -5.29106,-1.04124 -7.37381,-3.12424 -2.0829,-2.08264 -3.12431,-4.54058 -3.12424,-7.37381 -7e-5,-2.83286 1.04134,-5.2501 3.12424,-7.25174 2.08275,-2.00125 4.54068,-3.00197 7.37381,-3.00216 l 146.75145,0 c 2.83282,1.9e-4 5.24879,1.00091 7.24793,3.00216 1.99866,2.00164 2.99811,4.41888 2.99835,7.25174 -2.4e-4,2.83323 -0.99969,5.29117 -2.99835,7.37381 -1.99914,2.083 -4.41511,3.12441 -7.24793,3.12424 l -65.00246,0 c -1.33276,1.7e-4 -2.24829,0.66647 -2.74658,1.9989 -0.16801,0.33587 -0.41851,0.91951 -0.7515,1.75095 -0.33331,0.83177 -0.5838,1.41542 -0.75149,1.75094 -0.66646,1.33277 -0.24939,1.99907 1.25122,1.9989 l 49.24775,0 c 3.83483,1.7e-4 7.12692,1.37473 9.87626,4.12369 2.74891,2.74929 4.12347,6.04137 4.12369,9.87625 l 0,40.7486 c -2.2e-4,1.33271 0.75,1.99901 2.25067,1.9989 l 0.50354,0 c 3.82973,1.1e-4 7.16123,1.41663 9.99451,4.24957 2.83281,2.83316 4.24933,6.1672 4.24957,10.00214 l 0,14.25171 c -2.4e-4,3.33158 -1.16626,6.20532 -3.49808,8.62121 -2.33228,2.41605 -5.1666,3.62404 -8.50296,3.62397 -0.33083,7e-5 -0.58006,0.16664 -0.74768,0.49972 -0.16807,0.33322 -0.16807,0.58372 0,0.7515 0.49823,0.83421 1.3311,2.12612 2.49863,3.87573 1.16707,1.74974 2.08386,3.04165 2.7504,3.87573 1.66806,2.5025 2.2517,5.21093 1.75094,8.12531 -0.50123,2.91448 -2.0004,5.28976 -4.49753,7.12585 -2.33482,1.66834 -4.91864,2.21003 -7.75146,1.62506 -2.83327,-0.58487 -5.08394,-2.04463 -6.75202,-4.37927 -4.16587,-6.33234 -8.66466,-12.58081 -13.4964,-18.74542 -0.3359,-0.33563 -0.67032,-0.46151 -1.00327,-0.37766 -0.33335,0.084 -0.58385,0.2938 -0.75149,0.62943 -1.50065,6.33246 -5.29246,10.20691 -11.37543,11.62338 -6.08336,1.41658 -19.28983,2.12484 -39.61947,2.12479 l -12.74872,0 c -1.33782,5e-5 -2.58904,0.41712 -3.75366,1.25122 -0.33074,0.33066 -0.91311,0.82911 -1.74713,1.49536 -0.83428,0.66635 -1.41792,1.16607 -1.75095,1.49917 -0.33327,0.3332 -0.4172,0.66763 -0.25177,1.00327 0.16518,0.33574 0.41568,0.50359 0.7515,0.50354 l 74.24929,0 c 2.33439,5e-5 4.2926,0.79096 5.87463,2.37274 1.58162,1.58187 2.37253,3.45616 2.37274,5.62287 -2.1e-4,5.49828 -2.08303,9.9157 -6.24847,13.25225 z M 760.5213,448.06463 l 0,3.5019 c -10e-5,1.33274 0.75012,1.99904 2.25068,1.9989 l 86.5021,0 c 1.33241,1.4e-4 1.99871,-0.66616 1.9989,-1.9989 l 0,-3.5019 c -1.9e-4,-1.33244 -0.66649,-1.99874 -1.9989,-1.9989 l -86.5021,0 c -1.50056,1.6e-4 -2.25078,0.66646 -2.25068,1.9989 z m 0,18.24951 0,3.25013 c -10e-5,1.33273 0.75012,1.99903 2.25068,1.9989 l 86.5021,0 c 1.33241,1.3e-4 1.99871,-0.66617 1.9989,-1.9989 l 0,-3.25013 c -1.9e-4,-1.50031 -0.66649,-2.25053 -1.9989,-2.25067 l -86.5021,0 c -1.50056,1.4e-4 -2.25078,0.75036 -2.25068,2.25067 z m 0,18.24952 0,3.25012 c -10e-5,1.33271 0.75012,1.99901 2.25068,1.9989 l 86.5021,0 c 1.33241,1.1e-4 1.99871,-0.66619 1.9989,-1.9989 l 0,-3.25012 c -1.9e-4,-1.50033 -0.66649,-2.25056 -1.9989,-2.25068 l -86.5021,0 c -1.50056,1.2e-4 -2.25078,0.75035 -2.25068,2.25068 z m -10.74981,29.99878 6.24847,4.24957 c 0.16775,0.16793 0.33559,0.1692 0.50354,0.004 0.16775,-0.16522 0.25167,-0.33179 0.25177,-0.49972 -10e-5,-1.99882 0.70816,-3.70653 2.12479,-5.12314 1.41642,-1.41644 3.12413,-2.1247 5.12314,-2.12479 l 4.74548,0 c 3.16863,9e-5 5.92029,1.16612 8.25501,3.49808 2.33448,2.33214 3.50177,5.08253 3.5019,8.25119 l 0,1.24359 c -1.3e-4,3.33666 0.99932,5.33811 2.99835,6.00434 1.99877,0.66637 8.66431,0.99952 19.99664,0.99945 9.99945,7e-5 16.70822,-0.20847 20.12636,-0.62561 3.41779,-0.41701 5.70915,-1.54107 6.87408,-3.3722 4.66901,-7.16646 9.17035,-10.66835 13.50404,-10.50567 l 8.24737,0.50354 c 1.33241,8e-5 2.33186,-0.24915 2.99836,-0.74768 l 1.9989,-1.50299 c 2.16654,-1.50036 4.49986,-2.08401 6.99997,-1.75095 2.49968,0.33324 4.58378,1.49926 6.2523,3.49808 0.33547,8e-5 0.5847,-0.0813 0.74768,-0.24414 l 0,-7.4997 c -2.2e-4,-1.50035 -0.66652,-2.25058 -1.99892,-2.25067 l -50.49897,0 c -0.33077,9e-5 -0.49607,0.12471 -0.49591,0.37384 -1.6e-4,0.24932 0.0812,0.45786 0.24414,0.62561 0.33553,0.16794 0.91918,0.45913 1.75095,0.87357 0.83144,0.41462 1.49901,0.70581 2.00271,0.87356 2.33443,1.16993 3.83488,2.92088 4.50135,5.25284 0.66612,2.33214 0.24905,4.58153 -1.25122,6.7482 -1.66847,2.16683 -3.79452,3.58335 -6.37818,4.24957 -2.58398,0.66638 -5.12457,0.41715 -7.62176,-0.74768 -6.8361,-3.16866 -13.00319,-5.8364 -18.50129,-8.00323 -1.83628,-0.66622 -3.04554,-1.95813 -3.62778,-3.87574 -0.58251,-1.91743 -0.29132,-3.70779 0.87356,-5.37109 0.33556,-0.66621 0.17026,-0.99936 -0.49591,-0.99945 l -46.99709,0 c -1.50053,9e-5 -2.25075,0.75032 -2.25067,2.25067 l 0,7.4997 c -8e-5,0.16284 0.0826,0.28618 0.24796,0.37002 0.16521,0.084 0.33179,0.0421 0.49972,-0.12588 2.66512,-3.49926 5.49816,-4.16556 8.49916,-1.9989 z m 31.50178,55.75561 c 6.83072,3.66214 14.8314,7.24541 24.00207,10.74982 1.33245,0.49847 2.66505,0.49847 3.99781,0 8.66684,-3.33657 16.25045,-6.91984 22.75086,-10.74982 0.16767,-0.16781 0.25159,-0.41831 0.25177,-0.75149 -1.8e-4,-0.33312 -0.16802,-0.4997 -0.50354,-0.49973 l -50.2472,0 c -0.33582,3e-5 -0.50367,0.16661 -0.50354,0.49973 -1.3e-4,0.33318 0.0838,0.58368 0.25177,0.75149 z"
       inkscape:connector-curvature="0" /><path
       style="font-variant:normal;font-stretch:normal;fill:#000000;stroke:none;font-family:'Rounded M+ 1m medium';-inkscape-font-specification:'Rounded M+ 1m medium,'"
       id="path3044"
       d="m 1019.0177,517.31665 c -5.834,50.6643 -32.41728,84.41416 -79.74997,101.24966 -3.33153,1.1648 -6.70627,0.9969 -10.12422,-0.5035 -3.41799,-1.5005 -5.87719,-3.9164 -7.37762,-7.2479 -1.33262,-3.0009 -1.33135,-6.0425 0.004,-9.1248 1.33513,-3.0823 3.58453,-5.2083 6.7482,-6.3782 18.49871,-6.8308 33.29082,-16.955 44.3764,-30.37258 11.08543,-13.41751 17.79293,-29.29173 20.12253,-47.62268 0.16776,-0.50346 10e-4,-0.9218 -0.49972,-1.25504 -0.5011,-0.33306 -1.00082,-0.49964 -1.49919,-0.49972 l -59.99758,0 c -3.16876,8e-5 -5.87719,-1.12398 -8.1253,-3.3722 -2.24815,-2.24803 -3.37221,-5.04039 -3.37219,-8.37707 -2e-5,-3.16356 1.08335,-5.87072 3.25012,-8.12149 2.16673,-2.25057 4.91585,-3.3759 8.24737,-3.37601 l 86.99797,0 c 1.3325,1.1e-4 1.9988,-0.75011 1.9989,-2.25067 l 0,-38.00201 c -10e-5,-1.5003 -0.6664,-2.25052 -1.9989,-2.25068 l -45.2499,0 c -1.50051,1.6e-4 -2.49996,0.58508 -2.99835,1.75477 -4.33356,9.16558 -8.66706,17.41549 -13.0005,24.74975 -1.8311,3.16378 -4.62219,5.2466 -8.37326,6.24848 -3.75116,1.00211 -7.21109,0.58503 -10.37979,-1.25123 -3.16369,-1.66817 -5.12062,-4.16806 -5.87082,-7.49969 -0.75026,-3.33137 -0.20984,-6.49757 1.62125,-9.4986 9.83679,-16.16907 18.00532,-34.16934 24.50561,-54.00085 1.1647,-3.33131 3.24752,-5.8719 6.24849,-7.62177 3.00083,-1.74947 6.16702,-2.20851 9.49859,-1.3771 3.33143,0.8318 5.91398,2.79001 7.74765,5.87463 1.83352,3.08501 2.25187,6.29317 1.25504,9.62448 -0.50362,1.83124 -1.42169,4.58036 -2.75421,8.24738 -0.33069,1.50062 0.17031,2.25084 1.50299,2.25067 l 36.24721,0 c 1.3325,1.7e-4 1.9988,-0.75005 1.9989,-2.25067 l 0,-13.99994 c -10e-5,-3.667 1.3337,-6.87516 4.0016,-9.62448 2.6676,-2.74892 5.9177,-4.12349 9.7504,-4.12369 3.8323,2e-4 7.0825,1.37477 9.7503,4.12369 2.6676,2.74932 4.0015,5.95748 4.0016,9.62448 l 0,13.99994 c -1e-4,1.50062 0.6662,2.25084 1.9989,2.25067 l 64.2473,0 c 3.1685,1.7e-4 5.8363,1.08355 8.0032,3.25012 2.1665,2.16692 3.2499,4.83339 3.2501,7.99942 -2e-4,3.16636 -1.0836,5.83283 -3.2501,7.99942 -2.1669,2.1669 -4.8347,3.25028 -8.0032,3.25012 l -64.2473,0 c -1.3327,1.6e-4 -1.999,0.75038 -1.9989,2.25068 l 0,38.00201 c -1e-4,1.50056 0.6662,2.25078 1.9989,2.25067 l 79.4984,0 c 3.3313,1.1e-4 6.0804,1.12544 8.2474,3.37601 2.1665,2.25077 3.2499,4.95793 3.2501,8.12149 -2e-4,3.33668 -1.1243,6.12904 -3.3722,8.37707 -2.2483,2.24822 -4.9567,3.37228 -8.1253,3.3722 l -54.4968,0 c -1.3328,8e-5 -1.9991,0.66638 -1.9989,1.9989 l 0,66.00189 c -2e-4,6.00183 1.0412,9.58633 3.1242,10.75363 2.0827,1.1673 8.7062,1.751 19.8708,1.7509 5.666,10e-5 9.5824,-0.1258 11.7493,-0.3776 2.1666,-0.2518 4.2914,-1.5017 6.3744,-3.7499 2.0826,-2.2481 3.3745,-5.37231 3.8757,-9.37267 0.5008,-4.00032 1.0845,-10.25006 1.751,-18.74923 0.3355,-3.33655 1.7532,-6.08822 4.2534,-8.25501 2.4996,-2.1667 5.4153,-3.16615 8.7471,-2.99835 3.3312,0.16789 6.1223,1.58442 8.3732,4.24957 2.2505,2.66525 3.2105,5.66614 2.8801,9.00269 -0.6665,8.99762 -1.3341,16.16289 -2.0027,21.49582 -0.6691,5.33298 -1.8364,10.16618 -3.5019,14.49968 -1.666,4.3335 -3.3737,7.5009 -5.1231,9.5024 -1.7499,2.0014 -4.6669,3.6684 -8.7509,5.0011 -4.0845,1.3325 -8.1675,2.1235 -12.249,2.3727 -4.082,0.2492 -9.8739,0.3738 -17.3761,0.3738 -9.3335,0 -16.5826,-0.2085 -21.7476,-0.6256 -5.1652,-0.4171 -9.7899,-1.1253 -13.874,-2.1248 -4.0844,-0.9994 -6.9595,-2.7071 -8.6251,-5.1231 -1.6658,-2.416 -2.8738,-5.291 -3.6239,-8.625 -0.7504,-3.3341 -1.1255,-7.8341 -1.1254,-13.5002 l 0,-71.50272 c -10e-5,-1.33252 -0.6689,-1.99882 -2.0065,-1.9989 l -22.2473,0 c -1.3327,8e-5 -2.0829,0.585 -2.2507,1.75476 z"
       inkscape:connector-curvature="0" /><path
       style="font-variant:normal;font-stretch:normal;fill:#000000;stroke:none;font-family:'Rounded M+ 1m medium';-inkscape-font-specification:'Rounded M+ 1m medium,'"
       id="path3046"
       d="m 1175.5196,412.31329 c 2.4973,-2.16656 5.455,-3.16601 8.873,-2.99835 3.4179,0.16804 6.2942,1.41671 8.6288,3.74603 7.665,8.00087 16.248,17.25278 25.7492,27.75574 2.1667,2.32966 3.1255,5.11948 2.8763,8.36944 -0.2493,3.25027 -1.5412,5.95871 -3.8757,8.12531 -2.5025,2.16689 -5.3368,3.08369 -8.503,2.7504 -3.1662,-0.33301 -5.8327,-1.66434 -7.9994,-3.99399 -5.834,-6.33733 -14.5849,-15.50531 -26.2527,-27.50397 -2.1668,-2.33442 -3.2082,-5.08481 -3.1243,-8.25119 0.084,-3.16601 1.2932,-5.83249 3.6278,-7.99942 z m 36.2473,182.50272 c -7.1666,7.1666 -15.4979,14.2492 -24.9939,21.2479 -2.6704,1.9989 -5.6713,2.6232 -9.0027,1.873 -3.3316,-0.7502 -5.8314,-2.6232 -7.4997,-5.619 -1.6683,-3.1688 -2.0854,-6.4621 -1.2512,-9.8801 0.8341,-3.418 2.7516,-6.2103 5.7525,-8.3771 6.8308,-4.8319 14.1627,-10.83116 21.9956,-17.99773 0.8341,-0.66627 1.2511,-1.74964 1.2512,-3.25012 l 0,-56.49566 c -10e-5,-1.50036 -0.6664,-2.25059 -1.9989,-2.25067 l -17.2501,0 c -3.1687,8e-5 -5.8365,-1.04133 -8.0032,-3.12424 -2.1668,-2.08273 -3.2501,-4.70852 -3.2501,-7.87735 0,-3.16864 1.0833,-5.87707 3.2501,-8.12531 2.1667,-2.24802 4.8345,-3.37208 8.0032,-3.37219 l 30.7465,0 c 3.835,1.1e-4 7.169,1.41663 10.0021,4.24957 2.833,2.83315 4.2495,6.16465 4.2496,9.99451 l 0,61.50055 c -10e-5,1.33263 0.417,2.66778 1.2512,4.00543 4.1656,6.83088 9.3739,11.95528 15.625,15.37323 6.2509,3.41798 15.5435,5.91788 27.8778,7.49968 12.3341,1.5818 29.9173,2.3728 52.7497,2.3728 l 59.2498,0 c 3.0007,0 5.5845,1.1673 7.7515,3.5019 2.1665,2.3345 3.166,5.0023 2.9983,8.0032 -0.168,3.1636 -1.4193,5.7869 -3.7536,7.8697 -2.3348,2.0828 -5.084,3.1242 -8.2474,3.1242 l -59.2499,0 c -30.6652,0 -53.8738,-1.7496 -69.6258,-5.249 -15.7523,-3.4993 -27.6261,-9.7478 -35.6217,-18.7454 -1.002,-1.1698 -2.004,-1.2538 -3.0059,-0.2518 z m 148.2543,-184.24985 c -0.5037,0.9971 -1.2132,2.41235 -2.1286,4.24576 -0.9157,1.83378 -1.6227,3.25157 -2.1209,4.25338 -0.3359,0.33079 -0.3792,0.74659 -0.1297,1.24741 0.249,0.50118 0.6254,0.75168 1.1291,0.7515 l 24.2462,0 c 3.0007,1.8e-4 5.5426,1.08355 7.6256,3.25012 2.0826,2.16692 3.124,4.75074 3.1243,7.75146 -3e-4,3.00106 -1.0417,5.58488 -3.1243,7.75147 -2.083,2.1669 -4.6249,3.25028 -7.6256,3.25012 l -56.4956,0 c -1.5006,1.6e-4 -2.4187,0.66646 -2.7542,1.9989 -0.9971,4.99995 -1.8287,8.66714 -2.4948,11.00159 -0.3359,1.33274 0.1625,1.99904 1.4953,1.9989 l 44.5023,0 c 3.8348,1.4e-4 7.1688,1.3747 10.0021,4.12369 2.8328,2.74926 4.2494,6.04134 4.2496,9.87625 l 0,94.24591 c -2e-4,3.83507 -1.4168,7.16911 -4.2496,10.00214 -2.8333,2.83307 -6.1673,4.24959 -10.0021,4.24957 l -98.2514,0 -11.4975,0 c -3.8351,2e-5 -7.1691,-1.4165 -10.0021,-4.24957 -2.8331,-2.83303 -4.2497,-6.16707 -4.2496,-10.00214 l 0,-94.24591 c -10e-5,-3.83491 1.4165,-7.12699 4.2496,-9.87625 2.833,-2.74899 6.167,-4.12355 10.0021,-4.12369 l 32.9972,0 c 1.5003,1.4e-4 2.4171,-0.66743 2.7504,-2.00272 0.333,-1.33499 0.7907,-3.25251 1.3733,-5.75256 0.5822,-2.49975 1.0412,-4.33207 1.3771,-5.49698 0.3355,-1.1646 -0.2469,-1.74697 -1.7472,-1.74713 l -55.0003,0 c -3.001,1.6e-4 -5.5848,-1.08322 -7.7514,-3.25012 -2.1669,-2.16659 -3.2502,-4.75041 -3.2502,-7.75147 0,-3.00072 1.0833,-5.58454 3.2502,-7.75146 2.1666,-2.16657 4.7504,-3.24994 7.7514,-3.25012 l 25.2457,0 c 1.3325,1.8e-4 1.6656,-0.66612 0.9994,-1.99891 -0.4985,-1.16457 -1.3314,-2.74766 -2.4986,-4.74929 -1.1674,-2.00126 -1.9163,-3.25121 -2.2468,-3.74985 -1.5006,-2.6701 -1.6265,-5.42176 -0.3777,-8.25501 1.2486,-2.83284 3.3734,-4.58252 6.3744,-5.24902 3.4992,-0.83394 6.9998,-0.54148 10.5018,0.87738 3.5018,1.41927 6.0843,3.71063 7.7477,6.87409 2.5023,4.16584 5.0861,9.00033 7.7514,14.50347 0.4984,1.16494 1.4978,1.74732 2.9984,1.74714 l 31.25,0 c 1.3324,1.8e-4 2.4158,-0.66612 3.2501,-1.99891 2.5023,-4.50115 4.8369,-8.91857 7.0038,-13.25225 1.663,-3.33131 4.1197,-5.87189 7.37,-7.62177 3.2499,-1.74947 6.7086,-2.29116 10.376,-1.62506 3.1685,0.6665 5.5031,2.45814 7.0037,5.37491 1.5003,2.91717 1.5003,5.79217 0,8.62503 z m -7.0037,148.49853 0,-12.2528 c -2e-4,-1.33255 -0.6665,-1.99885 -1.9989,-1.99891 l -82.0008,0 c -1.3327,6e-5 -1.999,0.66636 -1.9989,1.99891 l 0,12.2528 c -10e-5,1.33265 0.6662,1.99895 1.9989,1.99891 l 82.0008,0 c 1.3324,4e-5 1.9987,-0.66626 1.9989,-1.99891 z m 0,-34.50012 0,-11.4975 c -2e-4,-1.33251 -0.6665,-1.99881 -1.9989,-1.9989 l -82.0008,0 c -1.3327,9e-5 -1.999,0.66639 -1.9989,1.9989 l 0,11.4975 c -10e-5,1.33268 0.6662,1.99898 1.9989,1.9989 l 82.0008,0 c 1.3324,8e-5 1.9987,-0.66622 1.9989,-1.9989 z m 0,-33.75244 0,-10.74982 c -2e-4,-1.33247 -0.6665,-1.99877 -1.9989,-1.9989 l -82.0008,0 c -1.3327,1.3e-4 -1.999,0.66643 -1.9989,1.9989 l 0,10.74982 c -10e-5,1.50056 0.6662,2.25078 1.9989,2.25067 l 82.0008,0 c 1.3324,1.1e-4 1.9987,-0.75011 1.9989,-2.25067 z"
       inkscape:connector-curvature="0" /><path
       style="font-variant:normal;font-stretch:normal;fill:#000000;stroke:none;font-family:'Rounded M+ 1m medium';-inkscape-font-specification:'Rounded M+ 1m medium,'"
       id="path3048"
       d="m 1504.7662,596.81491 c -28.1627,9.8318 -53.5787,17.6646 -76.2481,23.4986 -3.001,0.8341 -5.792,0.4183 -8.3733,-1.2474 -2.5813,-1.6658 -4.1237,-3.9991 -4.6272,-7 l 0,-1.2512 c -0.4985,-2.8331 0,-5.4169 1.503,-7.7515 1.5004,-2.3346 3.5832,-3.835 6.2484,-4.5013 1.002,-0.3306 1.503,-0.913 1.503,-1.7472 l 0,-85.25083 c 0,-3.33141 1.1241,-6.12249 3.3722,-8.37326 2.2481,-2.25057 5.0392,-3.3759 8.3733,-3.376 3.334,10e-5 6.1683,1.16612 8.5029,3.49807 2.3346,2.33215 3.5019,5.08254 3.5019,8.25119 l 0,78.00293 c 0,1.3326 0.6663,1.8311 1.9989,1.4954 l 7.4997,-2.2507 c 1.5004,-0.6663 2.2506,-1.58182 2.2507,-2.74659 l 0,-97.25189 c -10e-5,-1.50033 -0.6664,-2.25056 -1.9989,-2.25067 l -11.7569,0 -11.4975,0 c -3.8351,1.1e-4 -7.1272,-1.37445 -9.8763,-4.12369 -2.7491,-2.749 -4.1237,-6.04108 -4.1236,-9.87625 l 0,-54.245 c -10e-5,-3.83485 1.3745,-7.16889 4.1236,-10.00213 2.7491,-2.83286 6.0412,-4.24938 9.8763,-4.24958 l 63.0035,0 c 3.8299,2e-4 7.1614,1.41672 9.9945,4.24958 2.833,2.83324 4.2495,6.16728 4.2496,10.00213 l 0,30.49469 c -1e-4,0.33585 0.1258,0.58635 0.3777,0.7515 0.2516,0.16545 0.5428,0.0828 0.8735,-0.24796 11.0015,-12.66971 20.6679,-27.08671 28.9994,-43.25103 1.6681,-3.33131 4.0854,-5.8312 7.2517,-7.4997 3.1661,-1.66809 6.5827,-2.16909 10.2501,-1.50299 3.1686,0.6665 5.5032,2.37549 7.0038,5.12695 1.5003,2.75187 1.6656,5.54422 0.4959,8.37708 -0.9971,2.66539 -1.5795,4.08191 -1.7471,4.24957 -0.4987,1.16494 -0.1655,1.74732 0.9994,1.74713 l 59.7458,0 c 2.8379,1.9e-4 5.3391,1.08356 7.5035,3.25012 2.164,2.16693 3.2461,4.66683 3.2463,7.4997 -2e-4,6.99886 -1.9152,13.58303 -5.7449,19.7525 -9.5014,14.50108 -20.419,27.41763 -32.753,38.7497 -0.9971,1.00211 -0.9132,1.83625 0.2518,2.50244 11.0013,7.83295 24.0018,14.99949 39.0014,21.49963 3.1634,1.33269 5.5794,3.58209 7.248,6.7482 1.668,3.16628 2.169,6.41513 1.5029,9.74655 -0.5037,3.00097 -2.0881,5.25164 -4.7531,6.75202 -2.6654,1.50051 -5.4145,1.66836 -8.2473,0.50354 -1.0023,-0.33563 -1.5033,-0.002 -1.503,0.99945 l 0,73.9975 c -3e-4,3.6672 -1.2922,6.7927 -3.8758,9.3765 -2.584,2.5838 -5.7095,3.8757 -9.3765,3.8758 l -2.2507,0 c -2.996,-10e-5 -5.5366,-1.0834 -7.6217,-3.2502 -2.0856,-2.1667 -3.1283,-4.7506 -3.1281,-7.7514 -2e-4,-1.002 -0.5826,-1.503 -1.7471,-1.503 l -54.7486,0 c -1.1648,0 -1.7472,0.501 -1.7471,1.503 -1e-4,3.0008 -1.0428,5.5847 -3.128,7.7514 -2.0855,2.1668 -4.6261,3.2501 -7.6218,3.2502 l -2.0065,0 c -3.4995,-10e-5 -6.4991,-1.292 -8.9989,-3.8758 -2.5,-2.5838 -3.75,-5.6254 -3.7498,-9.1247 l 0,-75.00461 c -2e-4,-1.16469 -0.6665,-1.57922 -1.9989,-1.24359 -0.3308,0.16283 -0.8712,0.37009 -1.6213,0.62179 -0.7503,0.25184 -1.2933,0.45911 -1.6289,0.6218 -2.1668,0.83421 -4.3336,0.66764 -6.5002,-0.49973 -2.1669,-1.16723 -3.4995,-2.91563 -3.9978,-5.24521 -0.3358,-1.00192 -0.9207,-1.50291 -1.7548,-1.50299 l -17.25,0 c -1.4955,8e-5 -2.2432,0.7503 -2.2431,2.25067 l 0,49.00361 c -1e-4,1.33262 0.6662,1.83107 1.9989,1.49536 4.3334,-1.33258 9.1654,-2.99833 14.4959,-4.99726 2.6702,-1.00196 5.2552,-0.71077 7.7552,0.87357 2.4998,1.58439 3.9151,3.7931 4.2458,6.62613 0.3356,3.33152 -0.2887,6.37306 -1.873,9.12476 -1.5845,2.7517 -3.961,4.7099 -7.1297,5.8746 z m 101.2497,-11.00156 0,-35.75134 c -2e-4,-1.33255 -0.7479,-1.99885 -2.243,-1.9989 l -53.7567,0 c -1.4955,5e-5 -2.2432,0.66635 -2.2431,1.9989 l 0,35.75134 c -1e-4,1.50046 0.7476,2.25066 2.2431,2.25066 l 53.7567,0 c 1.4951,0 2.2428,-0.7502 2.243,-2.25066 z m 10.7498,-60.24933 c -12.8328,-6.33231 -24.9152,-13.832 -36.2472,-22.49908 -1.1649,-0.83405 -2.3322,-0.83405 -3.5019,0 -12.1665,8.33139 -25.6654,15.915 -40.4968,22.75085 -0.168,0.33068 -0.168,0.57991 0,0.74768 l 80.0018,0 c 0.3304,8e-5 0.4957,-0.12454 0.4959,-0.37384 -2e-4,-0.24915 -0.084,-0.45769 -0.2518,-0.62561 z m -11.7492,-87.50152 -50.499,0 c -0.8343,1.6e-4 -1.5006,0.33331 -1.9989,0.99945 -0.4986,0.66646 -0.4986,1.33276 0,1.9989 7.6648,11.00173 15.9148,20.75209 24.7498,29.2511 1.0018,1.00212 2.0012,1.00212 2.9983,0 9.8367,-9.33316 18.4197,-19.49804 25.7492,-30.49469 0.3355,-0.33553 0.3787,-0.71192 0.1297,-1.12915 -0.2494,-0.41691 -0.6258,-0.62545 -1.1291,-0.62561 z m -91.4994,31.50177 c -0.1628,-0.16772 -0.4121,-0.16772 -0.7476,0 -0.3358,0.16797 -0.5037,0.33582 -0.5036,0.50354 l 0,2.49481 c -1e-4,3.83517 -1.4166,7.12725 -4.2496,9.87625 -2.8331,2.74924 -6.1646,4.1238 -9.9945,4.12369 l -10.5056,0 c -1.4955,1.1e-4 -2.2432,0.75034 -2.2431,2.25067 l 0,13.25226 c -1e-4,1.3327 0.7476,1.999 2.2431,1.9989 l 16.7541,0 c 1.6682,10e-5 3.0847,0.58374 4.2496,1.75094 1.1646,1.1674 1.747,2.66657 1.7471,4.49753 -10e-5,0.83424 0.3331,1.08601 0.9995,0.75531 17.3338,-6.33738 33.2513,-14.33807 47.7523,-24.00207 1.1646,-0.66619 1.2486,-1.50033 0.2518,-2.50244 -7.5024,-7.16642 -14.3358,-14.58219 -20.5002,-22.24732 -0.8342,-1.1697 -1.7523,-1.1697 -2.7542,0 -1.3327,1.66335 -3.3316,3.9954 -5.9967,6.99616 -2.1669,2.50257 -4.8333,3.75379 -7.9994,3.75366 -3.1663,1.3e-4 -6.0006,-1.16717 -8.503,-3.50189 z m -64.7506,-3.99781 37.0025,0 c 1.3325,1.4e-4 1.9988,-0.75008 1.9989,-2.25067 l 0,-35.2478 c -10e-5,-1.33751 -0.6664,-2.00636 -1.9989,-2.00653 l -37.0025,0 c -1.5005,1.7e-4 -2.2507,0.66902 -2.2507,2.00653 l 0,35.2478 c 0,1.50059 0.7502,2.25081 2.2507,2.25067 z"
       inkscape:connector-curvature="0" /></g></g><path
   sodipodi:nodetypes="ssccsccsss"
   inkscape:connector-curvature="0"
   id="path3890"
   d="m 493.52325,0.1999948 c 9.49872,0 19.23825,3.84752 24.12494,12.3124792 4.8867,8.46495 3.31274,18.80576 -1.43749,27.03119 L 283.3987,442.63653 c -4.75092,8.22532 -12.94544,14.74997 -22.71871,14.74997 -9.77323,0 -17.96777,-6.52465 -22.71869,-14.74997 L 5.1493201,39.543664 C 0.39908001,31.318234 -1.17488,20.977424 3.7118191,12.512474 8.5985191,4.0475148 18.338039,0.1999948 27.836759,0.1999948 z"
   style="font-size:medium;font-style:normal;font-variant:normal;font-weight:normal;font-stretch:normal;text-indent:0;text-align:start;text-decoration:none;line-height:normal;letter-spacing:normal;word-spacing:normal;text-transform:none;direction:ltr;block-progression:tb;writing-mode:lr-tb;text-anchor:start;baseline-shift:baseline;color:#000000;fill:#c0111e;fill-opacity:1;stroke:none;stroke-width:24.88995361;marker:none;visibility:visible;display:inline;overflow:visible;enable-background:accumulate;font-family:Sans;-inkscape-font-specification:Sans" /><path
   sodipodi:nodetypes="ssccsccssssssccsccss"
   inkscape:connector-curvature="0"
   id="path3892"
   d="m 27.86803,7.9973948 c -7.661591,0 -14.19015,2.8921792 -17.374971,8.4062292 -3.1848099,5.51406 -2.4277899,12.61459 1.40625,19.24996 L 244.71128,438.74578 c 3.83154,6.63466 9.60127,10.84373 15.96872,10.84373 6.36744,0 12.13717,-4.20907 15.96871,-10.84373 L 509.4607,35.653584 c 3.83403,-6.63537 4.59106,-13.7359 1.40625,-19.24996 -3.18483,-5.51405 -9.71338,-8.4062292 -17.37496,-8.4062292 z m 0,9.3437292 465.62396,0 c 5.4574,0 8.17268,1.77663 9.31247,3.74999 1.13979,1.97337 1.29314,5.18045 -1.4375,9.90623 L 268.55498,434.08955 c -2.72896,4.72545 -5.59453,6.18748 -7.87498,6.18748 -2.28046,0 -5.14602,-1.46203 -7.87499,-6.18748 L 19.99304,30.997344 c -2.730641,-4.72578 -2.577271,-7.93286 -1.437501,-9.90623 1.139781,-1.97336 3.855081,-3.74999 9.312491,-3.74999 z"
   style="font-size:medium;font-style:normal;font-variant:normal;font-weight:normal;font-stretch:normal;text-indent:0;text-align:start;text-decoration:none;line-height:normal;letter-spacing:normal;word-spacing:normal;text-transform:none;direction:ltr;block-progression:tb;writing-mode:lr-tb;text-anchor:start;baseline-shift:baseline;color:#000000;fill:#ffffff;fill-opacity:1;stroke:none;stroke-width:9.3337326;marker:none;visibility:visible;display:inline;overflow:visible;enable-background:accumulate;font-family:Sans;-inkscape-font-specification:Sans" /><path
   id="path18"
   d="M 206.77841,172.6533 H 174.6458 v -35.40331 c 0.073,-0.0364 0.14791,-0.0688 0.21921,-0.10889 l 20.13879,-11.20331 c 2.91069,-1.62043 3.96047,-5.29274 2.34249,-8.202 -1.61641,-2.91121 -5.28612,-3.95892 -8.19681,-2.34251 l -14.50355,8.06071 V 94.595954 c 0,-3.32902 -2.699,-6.02802 -6.02803,-6.02802 -3.32903,0 -6.02647,2.699 -6.02647,6.02802 v 78.057086 h -14.01095 v -36.00352 c 0,-3.332 -2.69899,-6.03618 -6.02801,-6.03618 -3.32903,0 -6.02803,2.70405 -6.02803,6.03618 v 36.00352 h -13.80742 c -3.32954,0 -6.02802,2.69809 -6.02802,6.02699 0,3.32889 2.69848,6.02646 6.02802,6.02646 h 84.06178 c 3.32902,0 6.02646,-2.69757 6.02646,-6.02646 0,-3.3289 -2.69744,-6.02699 -6.02646,-6.02699"
   inkscape:connector-curvature="0"
   style="fill:#ffffff;stroke:none" /><path
   id="path20"
   d="m 292.37755,168.99863 c -7.52597,-4.67697 -14.95858,-7.62266 -21.81108,-9.45013 V 142.67651 H 289.195 c 3.32904,0 6.02699,-2.69899 6.02699,-6.02647 0,-3.332 -2.69808,-6.03618 -6.02699,-6.03618 H 270.56647 V 118.21855 H 289.195 c 3.32904,0 6.02699,-2.699 6.02699,-6.02698 0,-3.32993 -2.69808,-6.02803 -6.02699,-6.02803 H 270.56647 V 94.596214 c 0,-3.32902 -2.6981,-6.02802 -6.02906,-6.02802 -3.32903,0 -6.02648,2.699 -6.02648,6.02802 v 11.567326 h -24.15098 c -3.32903,0 -6.02646,2.6981 -6.02646,6.02803 0,3.32798 2.69756,6.02698 6.02646,6.02698 h 24.15098 v 12.39531 h -24.15098 c -3.32903,0 -6.02646,2.70405 -6.02646,6.03618 0,3.32748 2.69756,6.02647 6.02646,6.02647 h 24.15098 v 14.61505 c -3.10877,-0.33731 -5.97228,-0.46539 -8.51183,-0.46539 -6.81904,0 -11.0747,0.6684 -14.23002,2.2397 -2.99987,1.4934 -6.57496,4.63704 -6.57496,11.14355 0,14.49707 14.58005,14.49707 20.80511,14.49707 13.25258,0 18.91633,-7.79935 20.28529,-12.6941 5.02128,1.57636 10.34538,3.87997 15.7286,7.2261 2.82772,1.75617 6.54359,0.88917 8.30168,-1.93843 0.61577,-0.99054 0.90849,-2.09088 0.90849,-3.17606 0,-2.01439 -1.00856,-3.98368 -2.84574,-5.12563 z m -35.65739,3.69875 h -13.86575 c -1.21235,0 -2.19369,-0.98043 -2.19369,-2.19369 0,-1.20924 0.98134,-2.19056 2.19369,-2.19056 h 13.87223 c 1.21079,0 2.19071,0.98132 2.19071,2.19056 0,1.21326 -0.98005,2.19369 -2.19084,2.19369"
   inkscape:connector-curvature="0"
   style="fill:#ffffff;stroke:none" /><path
   id="path22"
   d="m 405.70441,164.19489 c -1.80581,-2.7948 -5.53788,-3.59737 -8.3341,-1.79013 0,0 -2.23517,1.4427 -3.80193,2.45645 v -43.58327 c 0,-3.45606 -1.37336,-6.59465 -3.60036,-8.90474 -0.0557,-0.0608 -0.10435,-0.12303 -0.16204,-0.18123 -1.04109,-1.0411 -2.21895,-1.86144 -3.47383,-2.46968 -0.0223,-0.0101 -0.0446,-0.0218 -0.0659,-0.0324 -0.13677,-0.0659 -0.2734,-0.12562 -0.41224,-0.18538 -0.0678,-0.0309 -0.13573,-0.0608 -0.20353,-0.0881 -0.0942,-0.0401 -0.18836,-0.0765 -0.2826,-0.11136 -0.11745,-0.0465 -0.22985,-0.0896 -0.34639,-0.13119 -0.0496,-0.0183 -0.10021,-0.0335 -0.14882,-0.0516 -0.16101,-0.0547 -0.32305,-0.10734 -0.4882,-0.15543 -0.003,-0.002 -0.007,-0.003 -0.0122,-0.004 -1.15763,-0.34483 -2.38203,-0.53125 -3.64806,-0.53125 -0.0739,0 -0.14376,0.008 -0.21778,0.0112 -3.21662,0.0537 -6.41901,1.30036 -8.8678,3.75021 l -16.40524,16.41564 V 94.715594 c 0,-3.33045 -2.69901,-6.02958 -6.027,-6.02958 -3.33005,0 -6.02595,2.699 -6.02595,6.02958 v 45.959476 l -10.51871,10.51611 8.15378,-26.17459 c 0.51556,-1.65686 0.29375,-3.45451 -0.60772,-4.9352 -0.90031,-1.47913 -2.3932,-2.49949 -4.10075,-2.79882 l -13.82297,-2.43726 c -3.27833,-0.5783 -6.40371,1.61135 -6.98305,4.88866 -0.0608,0.3539 -0.0922,0.70637 -0.0922,1.05379 0,2.87272 2.059,5.42043 4.98291,5.93741 0,0 3.54073,0.6264 7.07729,1.24982 -3.07078,9.86547 -13.39257,42.97916 -13.39257,42.97916 -0.002,0.009 -0.005,0.0183 -0.009,0.0284 -0.0192,0.0648 -0.0334,0.12964 -0.0516,0.19446 -0.0294,0.11291 -0.0587,0.22426 -0.0821,0.33977 -0.0112,0.0557 -0.0233,0.1155 -0.0345,0.17371 -0.0223,0.13469 -0.0415,0.26835 -0.0568,0.40304 -0.004,0.038 -0.009,0.0754 -0.0152,0.11291 -0.0141,0.18175 -0.0253,0.36311 -0.0253,0.54434 0,0.18434 0.0111,0.36972 0.0284,0.5525 0.003,0.0308 0.008,0.0598 0.0101,0.0896 0.0162,0.14792 0.0375,0.29168 0.0638,0.43804 0.009,0.0542 0.0202,0.10733 0.0324,0.16203 0.0263,0.11901 0.0557,0.23698 0.085,0.35391 0.0183,0.0648 0.0354,0.12704 0.0547,0.19043 0.0354,0.11136 0.0749,0.22284 0.11847,0.33226 0.0213,0.0592 0.0415,0.12056 0.0659,0.18123 0.0618,0.15297 0.13469,0.3049 0.20962,0.45476 0.0345,0.0622 0.0719,0.12458 0.1063,0.18836 0.0547,0.0957 0.11045,0.19043 0.17021,0.28506 0.0385,0.0608 0.0789,0.1216 0.11745,0.17877 0.073,0.10488 0.14791,0.20612 0.22478,0.30737 0.0345,0.0401 0.0659,0.084 0.0993,0.12561 0.24203,0.29013 0.51051,0.56003 0.80413,0.80361 0.0354,0.0273 0.0688,0.0547 0.10332,0.0805 0.10941,0.0881 0.22388,0.17112 0.34029,0.2502 0.0486,0.035 0.0983,0.0674 0.14882,0.0998 0.10539,0.0674 0.21273,0.12859 0.32111,0.18784 0.0568,0.0324 0.11239,0.0664 0.17021,0.0946 0.11343,0.0587 0.23191,0.11135 0.3504,0.1636 0.10734,0.0465 0.21364,0.0896 0.32111,0.12808 0.0962,0.035 0.19239,0.0739 0.29065,0.10228 0.005,0.003 0.0141,0.006 0.0223,0.008 0.1448,0.0425 0.29167,0.0789 0.43959,0.11291 0.0497,0.0101 0.10228,0.0268 0.15297,0.0375 0.11343,0.0218 0.2279,0.035 0.34029,0.0507 0.0861,0.0127 0.17423,0.0298 0.25927,0.0375 h 0.0122 c 0.55807,0.0532 1.112,0.0248 1.64882,-0.0725 0.0244,-0.006 0.0496,-0.007 0.0709,-0.0106 0.0911,-0.0183 0.17929,-0.043 0.26744,-0.0664 0.10228,-0.0233 0.20664,-0.0451 0.30892,-0.076 0.005,-0.002 0.0122,-0.004 0.0192,-0.006 0.62899,-0.19186 1.2305,-0.49119 1.78249,-0.89176 0.0871,-0.0622 0.1732,-0.12199 0.25629,-0.18784 0.0456,-0.0364 0.0861,-0.0795 0.13171,-0.11693 0.10941,-0.0942 0.21883,-0.19043 0.32409,-0.29168 0.006,-0.008 0.0141,-0.0117 0.0202,-0.0183 l 19.28578,-19.28578 v 20.95548 c 0,3.32902 2.69603,6.02698 6.02595,6.02698 3.32799,0 6.027,-2.69809 6.027,-6.02698 v -32.99338 l 24.92878,-24.95084 c 0.15699,-0.15543 0.36052,-0.23192 0.56418,-0.23036 0.0516,10e-4 0.10435,0.005 0.15193,0.0141 0.0152,0.004 0.0324,0.0101 0.0476,0.0141 0.0354,0.009 0.0678,0.0183 0.10229,0.0324 0.0122,0.004 0.0233,0.0132 0.0364,0.0192 0.0345,0.0157 0.0688,0.0324 0.0993,0.0532 0.003,0.003 0.007,0.007 0.009,0.009 0.2056,0.14286 0.34029,0.37827 0.34029,0.64817 v 54.66576 c 0,2.20639 1.20821,4.23647 3.14767,5.29274 1.93843,1.05536 4.29713,0.9672 6.15156,-0.23037 l 13.10092,-8.46528 c 2.79621,-1.80556 3.5993,-5.53658 1.79154,-8.3345"
   inkscape:connector-curvature="0"
   style="fill:#ffffff;stroke:none" /></svg>