<?xml version="1.0" encoding="UTF-8" standalone="no"?>
<!-- Created with Inkscape (http://www.inkscape.org/) -->

<svg
   xmlns:svg="http://www.w3.org/2000/svg"
   xmlns="http://www.w3.org/2000/svg"
   version="1.0"
   width="600"
   height="360"
   id="svg4203">
  <defs
     id="defs4205" />
  <g
     id="layer1"
     style="fill:#005d35;fill-opacity:1">
    <rect
       width="600"
       height="220"
       x="0"
       y="0"
       id="rect_bg"
       style="fill:#005d35;fill-opacity:1;stroke:none" />
  </g>
  <rect
     width="600"
     height="130"
     x="0"
     y="230"
     id="rect2847"
     style="color:#000000;fill:#005d35;fill-opacity:1;fill-rule:nonzero;stroke:#ffffff;stroke-width:1;stroke-linecap:square;stroke-linejoin:miter;stroke-miterlimit:4;stroke-opacity:1;stroke-dasharray:none;stroke-dashoffset:261;marker:none;visibility:visible;display:inline;overflow:visible;enable-background:accumulate" />
  <g
     transform="scale(0.91836016,1.0888974)"
     id="text2849"
     style="font-size:165.81150818px;font-style:normal;font-weight:normal;text-align:center;text-anchor:middle;fill:#ffffff;fill-opacity:1;stroke:#ffffff;stroke-width:4.60587502;stroke-miterlimit:4;stroke-opacity:1;font-family:IPAPGothic;-inkscape-font-specification:IPAPGothic">
    <path
       d="m 104.89488,41.220475 34.49009,0 c 30.172,1.2e-4 45.25803,11.33488 45.25812,34.004313 -9e-5,23.965007 -15.38298,35.947472 -46.14871,35.947422 l -19.02622,0 0,48.49662 -14.57328,0 z m 14.57328,58.374071 16.27349,0 c 22.45357,6.2e-5 33.68038,-8.069207 33.68046,-24.207832 -8e-5,-14.951002 -10.41726,-22.426546 -31.25158,-22.426654 l -18.70237,0 z"
       id="path3715"
       style="fill:#ffffff;stroke:#ffffff" />
  </g>
  <g
     id="g3717">
    <path
       d="m 320.67267,173.37393 0.0476,-66.11757 c 0.0552,-1.14332 -1.07804,-4.00918 -1.90678,-5.43433 L 310.0423,85.805084 c -0.60612,-1.636652 -0.45515,-2.748941 -0.38135,-4.194915 l 3.05084,-33.559322 c 0.63282,-3.088114 5.02779,-3.003044 5.72034,0 l 2.28814,24.025424 3.4322,-24.025424 c 0.66903,-2.548357 4.00218,-2.672682 4.95763,0 l 2.76483,23.977754 3.33686,-24.740466 c 0.41317,-1.970084 4.36968,-2.065933 4.57628,0 l 3.81356,36.228814 c 0.0155,1.425788 -0.96067,2.858766 -1.52543,3.813559 -2.00377,3.545131 -5.4996,9.683433 -7.7219,13.551592 -1.44323,2.51211 -2.51764,4.98059 -2.47937,6.13591 l 0.0477,66.11758 c -0.004,1.23615 -0.97265,1.96005 -2.43114,1.90678 l -6.1017,0 c -1.51012,0.041 -2.67918,-0.27671 -2.71712,-1.66844 l 3e-5,0 -4e-5,0 z"
       id="path3643"
       style="fill:#ffffff;stroke:#ffffff;stroke-width:1px;stroke-linecap:butt;stroke-linejoin:miter;stroke-opacity:1" />
    <path
       d="m 366.38771,175.04237 c -1.32625,-0.0244 -1.3935,-1.06942 -1.43008,-1.90678 l -0.0559,-56.42672 c -0.26015,-1.44313 -1.7216,-4.43834 -2.89966,-5.49594 -3.54834,-3.31853 -4.9711,-4.83967 -6.53072,-7.34111 -0.97685,-2.01483 -1.20978,-3.61732 -1.19174,-5.863346 0.13116,-21.443657 7.77672,-35.03437 14.87288,-50.720339 2.40344,-4.374896 6.88198,-2.107229 7.24577,0 l 0,126.038135 c -0.0709,0.96413 -0.56949,1.76298 -1.38242,1.7161 l -8.62818,0 z"
       id="path3645"
       style="fill:#ffffff;stroke:#ffffff;stroke-width:1px;stroke-linecap:butt;stroke-linejoin:miter;stroke-opacity:1" />
  </g>
  <rect
     width="300"
     height="130"
     x="300"
     y="230"
     id="rect3649"
     style="color:#000000;fill:#ffffff;fill-opacity:1;fill-rule:nonzero;stroke:none;stroke-width:5;marker:none;visibility:visible;display:inline;overflow:visible;enable-background:accumulate" />
  <g
     id="text3651"
     style="font-size:40px;font-style:normal;font-weight:normal;text-align:center;text-anchor:middle;fill:#005d35;fill-opacity:1;stroke:#005d35;stroke-width:1;stroke-miterlimit:4;stroke-opacity:1;font-family:IPAPGothic;-inkscape-font-specification:IPAPGothic">
    <path
       d="m 400.29794,267.23898 c 4.53447,14.46942 13.56929,25.06512 27.1045,31.78711 l -3.93067,5.02442 c -12.80604,-7.4056 -21.51046,-17.85318 -26.11328,-31.34278 -2.66605,14.85679 -11.37047,25.88542 -26.11328,33.08594 l -3.93067,-4.81934 c 8.52213,-3.14452 15.19855,-8.3968 20.0293,-15.75683 3.21286,-4.96743 5.24086,-10.96026 6.08399,-17.97852 l -26.45508,0 0,-4.88769 26.72851,0 0,-16.67969 5.53711,0 0,16.67969 27.24121,0 0,4.88769 z"
       id="path3722"
       style="font-size:70px;fill:#005d35;stroke:#005d35" />
    <path
       d="m 527.03622,247.20969 0,23.8916 -20.37109,0 0,4.81933 24.71191,0 0,4.20411 -24.71191,0 0,5.02441 29.25781,0 0,4.40918 -62.99316,0 0,-4.40918 28.7793,0 0,-5.02441 -24.37012,0 0,-4.20411 24.37012,0 0,-4.81933 -19.82422,0 0,-23.8916 z m -40.33203,4.06738 0,5.87891 15.00489,0 0,-5.87891 z m 0,9.80957 0,5.94727 15.00489,0 0,-5.94727 z m 35.37598,5.94727 0,-5.94727 -15.41504,0 0,5.94727 z m 0,-9.87793 0,-5.87891 -15.41504,0 0,5.87891 z m -47.27051,46.68945 c 3.37239,-3.50911 6.12955,-7.70182 8.27149,-12.57813 l 4.54589,1.94825 c -2.46095,5.58268 -5.26368,10.32226 -8.4082,14.21875 z m 21.43067,3.00781 c -0.50133,-4.78516 -1.34443,-9.37662 -2.5293,-13.77441 l 4.68262,-1.12793 c 1.4583,3.91927 2.60901,8.44238 3.45214,13.56933 z m 15.10742,-1.09375 c -1.4128,-5.35482 -2.95089,-9.71842 -4.61426,-13.09082 l 4.5459,-1.40137 c 2.18745,3.89649 3.9648,8.15756 5.33203,12.78321 z m 19.03808,0.27344 c -2.89393,-5.10417 -6.03846,-9.63867 -9.43359,-13.60352 l 4.13574,-2.08496 c 3.85085,3.64584 7.21185,7.84994 10.08301,12.61231 z"
       id="path3724"
       style="font-size:70px;fill:#005d35;stroke:#005d35" />
  </g>
  <g
     id="text3651-1"
     style="font-size:40px;font-style:normal;font-weight:normal;text-align:center;text-anchor:middle;fill:#005d35;fill-opacity:1;stroke:#005d35;stroke-width:1;stroke-miterlimit:4;stroke-opacity:1;font-family:IPAPGothic;-inkscape-font-specification:IPAPGothic">
    <path
       d="m 387.05331,318.68967 7.51954,0 c 4.28383,2e-5 7.57647,1.06529 9.87793,3.1958 2.42673,2.2103 3.64011,5.29787 3.64013,9.26269 -2e-5,4.77377 -1.7147,8.2658 -5.14404,10.47608 -2.15334,1.37858 -5.02443,2.06787 -8.61328,2.06787 l -7.28028,0 z m 3.07618,22.30224 3.94775,0 c 7.14354,10e-6 10.71531,-3.28124 10.71533,-9.84375 -2e-5,-6.5283 -3.50913,-9.79245 -10.52734,-9.79248 l -4.13574,0 z"
       id="path3727"
       style="font-size:35px;fill:#005d35;stroke:#005d35" />
    <path
       d="m 427.50497,343.69211 -2.66601,0 c -0.39878,-0.87728 -0.65513,-1.77734 -0.76904,-2.7002 l -0.10254,0 c -1.32163,2.11914 -3.29266,3.17871 -5.91309,3.17871 -1.80014,0 -3.26986,-0.56966 -4.40918,-1.70898 -1.00261,-1.0026 -1.50391,-2.22737 -1.50391,-3.67432 0,-3.60025 3.10465,-5.49152 9.31397,-5.67383 l 2.34131,-0.0684 0,-0.90577 c -2e-5,-1.21906 -0.35321,-2.17609 -1.05957,-2.87109 -0.71779,-0.72915 -1.64633,-1.09373 -2.78565,-1.09375 -1.95964,2e-5 -3.42936,0.95135 -4.40918,2.854 l -2.59765,-1.19629 c 1.60644,-2.66599 3.96483,-3.999 7.07519,-3.99902 2.13052,2e-5 3.77684,0.59816 4.93897,1.79444 1.07095,1.07097 1.60643,2.58627 1.60644,4.54589 l 0,6.40869 c -10e-6,2.17611 0.3133,3.8794 0.93994,5.10987 z m -3.64013,-8.54492 -1.93115,0.0342 c -4.50034,0.10254 -6.7505,1.31592 -6.75049,3.64013 -10e-6,0.82032 0.26773,1.49822 0.80322,2.03369 0.6608,0.64942 1.52669,0.97413 2.59766,0.97413 1.4925,0 2.78563,-0.54688 3.87939,-1.64063 0.93423,-0.96842 1.40135,-2.13622 1.40137,-3.50342 z"
       id="path3729"
       style="font-size:35px;fill:#005d35;stroke:#005d35" />
    <path
       d="m 435.96445,322.55197 -3.43506,0 0,-3.50342 3.43506,0 z m -0.22217,21.14014 -3.00781,0 0,-17.43164 3.00781,0 z"
       id="path3731"
       style="font-size:35px;fill:#005d35;stroke:#005d35" />
    <path
       d="m 456.69443,343.69211 -3.64014,0 -5.98144,-8.47656 -1.99952,1.93115 0,6.54541 -2.93945,0 0,-25.87403 2.93945,0 0,16.56006 7.34864,-8.11767 3.77685,0 -7.24609,7.24609 z"
       id="path3733"
       style="font-size:35px;fill:#005d35;stroke:#005d35" />
    <path
       d="m 467.56357,325.76486 c 2.46092,2e-5 4.53449,0.82603 6.2207,2.47803 1.73175,1.73178 2.59764,4.01043 2.59766,6.83594 -2e-5,2.72298 -0.84882,4.93897 -2.54639,6.64795 -1.66343,1.65202 -3.75408,2.47802 -6.27197,2.47802 -2.51791,0 -4.59148,-0.81461 -6.22071,-2.44384 -1.70898,-1.70898 -2.56347,-3.97054 -2.56347,-6.78467 0,-2.75715 0.86588,-5.00162 2.59765,-6.7334 1.65202,-1.652 3.71419,-2.47801 6.18653,-2.47803 z m 0,2.30713 c -1.45834,2e-5 -2.69451,0.5241 -3.7085,1.57227 -1.28744,1.28744 -1.93116,3.07618 -1.93115,5.36621 -1e-5,2.25586 0.63232,4.01612 1.89697,5.28076 1.02539,1.02539 2.27294,1.53809 3.74268,1.53809 1.50389,0 2.76284,-0.52409 3.77685,-1.57227 1.26464,-1.26464 1.89696,-3.05338 1.89698,-5.36621 -2e-5,-2.1761 -0.64374,-3.92496 -1.93116,-5.24658 -1.04819,-1.04817 -2.29574,-1.57225 -3.74267,-1.57227 z"
       id="path3735"
       style="font-size:35px;fill:#005d35;stroke:#005d35" />
    <path
       d="m 495.93271,343.69211 -3.64014,0 -5.98144,-8.47656 -1.99952,1.93115 0,6.54541 -2.93945,0 0,-25.87403 2.93945,0 0,16.56006 7.34864,-8.11767 3.77685,0 -7.24609,7.24609 z"
       id="path3737"
       style="font-size:35px;fill:#005d35;stroke:#005d35" />
    <path
       d="m 514.27011,343.69211 -2.80273,0 0,-3.17871 c -1.72039,2.347 -3.81105,3.52051 -6.27198,3.52051 -2.0166,0 -3.58887,-0.6836 -4.71679,-2.05079 -0.88868,-1.10514 -1.33301,-2.6831 -1.33301,-4.73388 l 0,-10.98877 3.00781,0 0,10.88623 c 0,2.89388 1.21337,4.34082 3.64014,4.34082 2.44953,0 4.27245,-1.5039 5.46875,-4.51172 l 0,-10.71533 3.00781,0 z"
       id="path3739"
       style="font-size:35px;fill:#005d35;stroke:#005d35" />
  </g>
  <g
     transform="scale(0.92203596,1.0845564)"
     id="text3651-1-1"
     style="font-size:64.63756561px;font-style:normal;font-weight:normal;text-align:center;text-anchor:middle;fill:#ffffff;fill-opacity:1;stroke:#ffffff;stroke-width:0.92339373;stroke-miterlimit:4;stroke-opacity:1;font-family:IPAPGothic;-inkscape-font-specification:IPAPGothic">
    <path
       d="m 153.39362,285.16053 c 7.57469,1.34664 11.36204,5.17608 11.36207,11.48832 -3e-5,3.80841 -1.273,6.91193 -3.81891,9.31059 -2.81951,2.63011 -6.80675,3.94516 -11.96174,3.94516 -7.72201,0 -13.29784,-3.07196 -16.7275,-9.2159 l 4.7342,-2.52491 c 2.37761,4.65004 6.35433,6.97506 11.93018,6.97505 3.28235,10e-6 5.82829,-0.84163 7.63783,-2.5249 1.72533,-1.5991 2.588,-3.62954 2.58803,-6.09133 -3e-5,-2.86155 -1.29404,-5.16552 -3.88204,-6.91193 -2.3566,-1.59909 -5.46013,-2.39864 -9.31059,-2.39866 l -2.84051,0 0,-4.57639 2.96676,0 c 3.8715,3e-5 6.82774,-0.7364 8.86873,-2.20929 2.18822,-1.557 3.28234,-3.65056 3.28237,-6.2807 -3e-5,-2.86152 -1.23092,-4.97613 -3.69267,-6.34383 -1.57809,-0.94679 -3.47177,-1.42021 -5.68104,-1.42026 -4.69213,5e-5 -8.15335,2.35662 -10.38367,7.06974 l -4.73419,-2.27242 c 3.093,-6.20701 8.15332,-9.31054 15.18099,-9.31058 4.4396,4e-5 8.03758,1.12573 10.79396,3.37706 2.75633,2.16725 4.1345,5.04985 4.13454,8.6478 -4e-5,3.40865 -1.33613,6.19656 -4.00829,8.36374 -1.72538,1.38873 -3.87155,2.27244 -6.43851,2.65115 z"
       id="path3742"
       style="fill:#ffffff;stroke:#ffffff" />
    <path
       d="m 190.69909,261.86829 c 5.68101,4e-5 10.04699,2.63015 13.09795,7.89032 2.41966,4.16613 3.62951,9.55259 3.62955,16.1594 -4e-5,6.54372 -1.20989,11.9407 -3.62955,16.19095 -3.00888,5.1971 -7.4485,7.79564 -13.31888,7.79564 -5.84937,0 -10.27847,-2.59854 -13.28731,-7.79564 -2.4197,-4.25025 -3.62955,-9.66827 -3.62955,-16.25408 0,-9.17379 2.21981,-15.85426 6.65944,-20.04143 2.81946,-2.63006 6.31224,-3.94512 10.47835,-3.94516 z m -0.22093,4.67107 c -3.36655,4e-5 -6.0177,1.70435 -7.95345,5.11293 -1.97785,3.45074 -2.96677,8.21649 -2.96676,14.29728 -1e-5,5.95458 0.96787,10.64669 2.90364,14.07634 1.95679,3.36655 4.62898,5.04982 8.01657,5.04981 4.06087,1e-5 7.06971,-2.36709 9.02654,-7.10129 1.28346,-3.17716 1.92521,-7.30117 1.92524,-12.37204 -3e-5,-5.91245 -0.98895,-10.56248 -2.96676,-13.9501 -1.99891,-3.40858 -4.66058,-5.11289 -7.98502,-5.11293 z"
       id="path3744"
       style="fill:#ffffff;stroke:#ffffff" />
    <path
       d="m 231.47631,261.86829 c 5.68101,4e-5 10.04698,2.63015 13.09794,7.89032 2.41967,4.16613 3.62951,9.55259 3.62955,16.1594 -4e-5,6.54372 -1.20988,11.9407 -3.62955,16.19095 -3.00887,5.1971 -7.44849,7.79564 -13.31887,7.79564 -5.84938,0 -10.27848,-2.59854 -13.28731,-7.79564 -2.41971,-4.25025 -3.62956,-9.66827 -3.62956,-16.25408 0,-9.17379 2.21981,-15.85426 6.65944,-20.04143 2.81947,-2.63006 6.31225,-3.94512 10.47836,-3.94516 z m -0.22093,4.67107 c -3.36656,4e-5 -6.01771,1.70435 -7.95345,5.11293 -1.97786,3.45074 -2.96678,8.21649 -2.96677,14.29728 -1e-5,5.95458 0.96787,10.64669 2.90364,14.07634 1.95679,3.36655 4.62898,5.04982 8.01658,5.04981 4.06086,1e-5 7.0697,-2.36709 9.02653,-7.10129 1.28347,-3.17716 1.92521,-7.30117 1.92524,-12.37204 -3e-5,-5.91245 -0.98895,-10.56248 -2.96676,-13.9501 -1.99891,-3.40858 -4.66058,-5.11289 -7.98501,-5.11293 z"
       id="path3746"
       style="fill:#ffffff;stroke:#ffffff" />
    <path
       d="m 302.39457,308.95776 -5.55479,0 0,-20.16767 c -4e-5,-5.42852 -2.10413,-8.14279 -6.31226,-8.14282 -1.99892,3e-5 -3.82947,0.92582 -5.49167,2.77739 -1.17832,1.30456 -1.99891,2.94575 -2.46178,4.92357 l 0,20.60953 -5.55479,0 0,-20.2308 c -3e-5,-5.38644 -1.98839,-8.07966 -5.96509,-8.07969 -2.1041,3e-5 -3.9557,0.92582 -5.55479,2.77739 -1.72536,1.91475 -2.58804,3.76634 -2.58803,5.55479 l 0,19.97831 -5.55479,0 0,-32.19253 5.17606,0 0,5.55479 c 2.12511,-4.12398 5.33384,-6.18599 9.6262,-6.18602 4.69209,3e-5 7.81665,2.24088 9.37371,6.72256 2.3355,-4.48168 5.69152,-6.72253 10.06805,-6.72256 3.53483,3e-5 6.29118,1.25196 8.26907,3.7558 1.68322,2.06203 2.52485,4.98671 2.5249,8.77404 z"
       id="path3748"
       style="fill:#ffffff;stroke:#ffffff" />
  </g>
  <path
     d="m 25.110645,255.66991 11.5413,55.97295 15.715325,-15.69496 39.572076,39.57206 13.187024,-13.18701 -39.551766,-39.55179 15.450268,-15.4299 -55.914174,-11.6813 -5.3e-5,-5e-5 z"
     id="rect3015"
     style="color:#000000;fill:#ffffff;fill-opacity:1;fill-rule:nonzero;stroke:#ffffff;stroke-width:1.06580925;stroke-linecap:butt;stroke-linejoin:miter;stroke-miterlimit:4;stroke-opacity:1;stroke-dashoffset:261;marker:none;visibility:visible;display:inline;overflow:visible;enable-background:accumulate" />
</svg>
