<?xml version="1.0" encoding="UTF-8" standalone="no"?>
<!-- Created with Inkscape (http://www.inkscape.org/) -->

<svg
   xmlns:dc="http://purl.org/dc/elements/1.1/"
   xmlns:cc="http://creativecommons.org/ns#"
   xmlns:rdf="http://www.w3.org/1999/02/22-rdf-syntax-ns#"
   xmlns:svg="http://www.w3.org/2000/svg"
   xmlns="http://www.w3.org/2000/svg"
   xmlns:sodipodi="http://sodipodi.sourceforge.net/DTD/sodipodi-0.dtd"
   xmlns:inkscape="http://www.inkscape.org/namespaces/inkscape"
   id="svg1890"
   sodipodi:version="0.32"
   inkscape:version="0.48.4 r9939"
   width="500.34357"
   height="500.34357"
   version="1.0"
   sodipodi:docname="AJAX1.svg"
   inkscape:output_extension="org.inkscape.output.svg.inkscape">
  <metadata
     id="metadata1895">
    <rdf:RDF>
      <cc:Work
         rdf:about="">
        <dc:format>image/svg+xml</dc:format>
        <dc:type
           rdf:resource="http://purl.org/dc/dcmitype/StillImage" />
      </cc:Work>
    </rdf:RDF>
  </metadata>
  <defs
     id="defs1893">
    <inkscape:perspective
       sodipodi:type="inkscape:persp3d"
       inkscape:vp_x="0 : 235 : 1"
       inkscape:vp_y="0 : 1000 : 0"
       inkscape:vp_z="470 : 235 : 1"
       inkscape:persp3d-origin="235 : 156.66667 : 1"
       id="perspective10" />
    <inkscape:perspective
       id="perspective2390"
       inkscape:persp3d-origin="372.04724 : 350.78739 : 1"
       inkscape:vp_z="744.09448 : 526.18109 : 1"
       inkscape:vp_y="0 : 1000 : 0"
       inkscape:vp_x="0 : 526.18109 : 1"
       sodipodi:type="inkscape:persp3d" />
    <inkscape:perspective
       id="perspective3168"
       inkscape:persp3d-origin="372.04724 : 350.78739 : 1"
       inkscape:vp_z="744.09448 : 526.18109 : 1"
       inkscape:vp_y="0 : 1000 : 0"
       inkscape:vp_x="0 : 526.18109 : 1"
       sodipodi:type="inkscape:persp3d" />
    <inkscape:perspective
       id="perspective2400"
       inkscape:persp3d-origin="372.04724 : 350.78739 : 1"
       inkscape:vp_z="744.09448 : 526.18109 : 1"
       inkscape:vp_y="0 : 1000 : 0"
       inkscape:vp_x="0 : 526.18109 : 1"
       sodipodi:type="inkscape:persp3d" />
    <inkscape:perspective
       id="perspective2391"
       inkscape:persp3d-origin="372.04724 : 350.78739 : 1"
       inkscape:vp_z="744.09448 : 526.18109 : 1"
       inkscape:vp_y="0 : 1000 : 0"
       inkscape:vp_x="0 : 526.18109 : 1"
       sodipodi:type="inkscape:persp3d" />
  </defs>
  <sodipodi:namedview
     inkscape:window-height="1004"
     inkscape:window-width="1280"
     inkscape:pageshadow="2"
     inkscape:pageopacity="0.0"
     guidetolerance="10.0"
     gridtolerance="10.0"
     objecttolerance="10.0"
     borderopacity="1.0"
     bordercolor="#666666"
     pagecolor="#ffffff"
     id="base"
     inkscape:zoom="1.4142136"
     inkscape:cx="201.01967"
     inkscape:cy="339.15974"
     inkscape:window-x="-8"
     inkscape:window-y="-8"
     inkscape:current-layer="svg1890"
     showgrid="false"
     fit-margin-top="0.2"
     fit-margin-left="0.2"
     fit-margin-right="0.2"
     fit-margin-bottom="0.2"
     inkscape:window-maximized="1"
     showguides="true"
     inkscape:guide-bbox="true" />
  <path
     style="fill:#fcdc0f;fill-opacity:1;fill-rule:nonzero;stroke:none"
     d="m 3.44897,242.33616 c -4.33196,4.33195 -4.33196,11.33928 0,15.67124 l 238.88719,238.88719 c 4.33196,4.33196 11.33929,4.33196 15.67125,0 L 496.89459,258.0074 c 4.33197,-4.33197 4.33197,-11.33928 1e-5,-15.67124 L 258.0074,3.4489579 c -4.33195,-4.33194852 -11.33929,-4.33194252 -15.67125,1e-5 z"
     id="path5216"
     inkscape:connector-curvature="0"
     sodipodi:nodetypes="sssssssss" />
  <path
     style="fill:#000000;fill-opacity:1;fill-rule:nonzero;stroke:none"
     d="M 250.17178,12.231763 488.11179,250.17177 250.17178,488.1118 12.23176,250.17178 z M 233.43743,43.106889 43.10689,233.43744 c -9.25965,9.25963 -9.25965,24.20902 -1e-5,33.46868 l 190.33054,190.33056 c 9.25965,9.25963 24.20908,9.25963 33.46871,0 L 457.23669,266.90612 c 9.25964,-9.25964 9.25964,-24.20905 0,-33.46869 L 266.90613,43.106869 c -9.25965,-9.259653 -24.20905,-9.25963 -33.4687,2e-5 z"
     id="path17826"
     inkscape:connector-curvature="0"
     sodipodi:nodetypes="cccccsssssssss" />
  <path
     inkscape:connector-curvature="0"
     d="m 274.40944,422.2256 -0.0816,5.6355 c -0.0233,1.89888 -1.59261,3.45069 -3.45068,3.45069 l -36.42641,0 c -1.83763,0 -3.36903,-1.55181 -3.34859,-3.45069 l 0.0816,-6.61559 c 0.36767,-15.25252 0.65338,-28.48362 -6.39098,-37.28395 l -4.08366,-5.06374 c -17.29435,-21.17385 -49.51456,-60.64259 -24.07326,-99.47831 11.47513,-17.5394 28.81033,-26.29888 44.12411,-33.99662 l 15.47713,-8.43277 c 6.51345,-4.18576 10.57671,-9.69872 11.45469,-15.43628 0.79633,-4.98209 -0.87798,-9.94377 -4.90039,-14.80335 -15.23212,-18.29485 -31.9752,-38.79492 -33.93533,-73.89409 l -1.85811,0 -13.82322,9.49455 -0.14225,0 c -1.2047,0.89839 -2.69521,1.38846 -4.34912,1.38846 -4.1245,0 -7.41187,-3.28737 -7.41187,-7.37103 0,-1.98058 0.73507,-3.71614 1.93976,-5.02294 l 38.692,-63.358227 c 3.9203,-6.493045 10.33169,-6.493045 14.27244,0 l 38.4682,63.521587 c 1.12299,1.28635 1.79682,3.00151 1.79682,4.85958 0,4.08366 -3.30778,7.37103 -7.43229,7.37103 -1.6539,0 -3.14442,-0.49007 -4.36955,-1.40886 -0.0622,0.0194 -0.16324,0.0194 -0.20405,0.0194 l -12.25101,-8.3503 c 2.04182,18.68281 11.20967,29.93333 23.82824,45.10416 11.96516,14.39499 17.06975,31.771 14.41539,49.02454 -2.79735,18.15194 -13.74157,34.22119 -30.85216,45.20626 l -19.33622,10.6584 c -11.47514,5.77841 -22.29685,11.25052 -27.42189,19.13202 -7.47313,11.35262 5.86008,29.4229 21.4189,48.45282 l 4.34912,5.39045 c 16.80429,21.07175 16.23261,45.53297 15.82424,65.25711"
     style="fill:#000000;fill-opacity:1;fill-rule:nonzero;stroke:none"
     id="path5678" />
</svg>
