<?xml version="1.0" encoding="UTF-8" standalone="no"?>
<!-- Created with Inkscape (http://www.inkscape.org/) -->
<svg
   xmlns:dc="http://purl.org/dc/elements/1.1/"
   xmlns:cc="http://creativecommons.org/ns#"
   xmlns:rdf="http://www.w3.org/1999/02/22-rdf-syntax-ns#"
   xmlns:svg="http://www.w3.org/2000/svg"
   xmlns="http://www.w3.org/2000/svg"
   xmlns:sodipodi="http://sodipodi.sourceforge.net/DTD/sodipodi-0.dtd"
   xmlns:inkscape="http://www.inkscape.org/namespaces/inkscape"
   width="350"
   height="220.34311"
   id="svg4203"
   sodipodi:version="0.32"
   inkscape:version="0.46"
   version="1.0"
   sodipodi:docbase="D:\Documents and Settings\Administrator\デスクトップ\看板\sign\西日本\svg"
   sodipodi:docname="Japanese Road sign (Service area A).svg"
   inkscape:output_extension="org.inkscape.output.svg.inkscape">
  <defs
     id="defs4205">
    <inkscape:perspective
       sodipodi:type="inkscape:persp3d"
       inkscape:vp_x="0 : 315 : 1"
       inkscape:vp_y="0 : 1000 : 0"
       inkscape:vp_z="1500 : 315 : 1"
       inkscape:persp3d-origin="750 : 210 : 1"
       id="perspective9" />
    <inkscape:perspective
       id="perspective3163"
       inkscape:persp3d-origin="372.04724 : 350.78739 : 1"
       inkscape:vp_z="744.09448 : 526.18109 : 1"
       inkscape:vp_y="0 : 1000 : 0"
       inkscape:vp_x="0 : 526.18109 : 1"
       sodipodi:type="inkscape:persp3d" />
    <inkscape:perspective
       id="perspective2395"
       inkscape:persp3d-origin="372.04724 : 350.78739 : 1"
       inkscape:vp_z="744.09448 : 526.18109 : 1"
       inkscape:vp_y="0 : 1000 : 0"
       inkscape:vp_x="0 : 526.18109 : 1"
       sodipodi:type="inkscape:persp3d" />
    <inkscape:perspective
       id="perspective3843"
       inkscape:persp3d-origin="227.5 : 145 : 1"
       inkscape:vp_z="455 : 217.5 : 1"
       inkscape:vp_y="0 : 1000 : 0"
       inkscape:vp_x="0 : 217.5 : 1"
       sodipodi:type="inkscape:persp3d" />
    <inkscape:perspective
       id="perspective2404"
       inkscape:persp3d-origin="372.04724 : 350.78739 : 1"
       inkscape:vp_z="744.09448 : 526.18109 : 1"
       inkscape:vp_y="0 : 1000 : 0"
       inkscape:vp_x="0 : 526.18109 : 1"
       sodipodi:type="inkscape:persp3d" />
    <inkscape:perspective
       id="perspective2401"
       inkscape:persp3d-origin="372.04724 : 350.78739 : 1"
       inkscape:vp_z="744.09448 : 526.18109 : 1"
       inkscape:vp_y="0 : 1000 : 0"
       inkscape:vp_x="0 : 526.18109 : 1"
       sodipodi:type="inkscape:persp3d" />
  </defs>
  <sodipodi:namedview
     id="base"
     pagecolor="#ffffff"
     bordercolor="#666666"
     borderopacity="1.0"
     gridtolerance="10000"
     guidetolerance="10"
     objecttolerance="10"
     inkscape:pageopacity="0.0"
     inkscape:pageshadow="2"
     inkscape:zoom="1.7085714"
     inkscape:cx="175"
     inkscape:cy="110.17155"
     inkscape:document-units="px"
     inkscape:current-layer="layer1"
     width="1500px"
     height="630px"
     inkscape:window-width="1024"
     inkscape:window-height="712"
     inkscape:window-x="-4"
     inkscape:window-y="-4"
     showgrid="false"
     showguides="true"
     inkscape:guide-bbox="true" />
  <metadata
     id="metadata4208">
    <rdf:RDF>
      <cc:Work
         rdf:about="">
        <dc:format>image/svg+xml</dc:format>
        <dc:type
           rdf:resource="http://purl.org/dc/dcmitype/StillImage" />
      </cc:Work>
    </rdf:RDF>
  </metadata>
  <g
     inkscape:label="sign"
     inkscape:groupmode="layer"
     id="layer1"
     transform="translate(0,-74.656898)">
    <rect
       style="fill:#005d35;fill-opacity:1;stroke:none;stroke-width:1;stroke-linecap:butt;stroke-linejoin:round;stroke-miterlimit:4;stroke-dasharray:none;stroke-opacity:1"
       id="rect_bg"
       width="350"
       height="90"
       x="0"
       y="205" />
    <rect
       style="opacity:1;fill:#ffffff;fill-opacity:1;fill-rule:nonzero;stroke:none;stroke-width:0.01;stroke-linecap:butt;stroke-linejoin:miter;marker:none;marker-start:none;marker-mid:none;marker-end:none;stroke-miterlimit:4;stroke-dasharray:none;stroke-dashoffset:0;stroke-opacity:1;visibility:visible;display:inline;overflow:visible;enable-background:accumulate"
       id="rect3169"
       width="212"
       height="84"
       x="135"
       y="208" />
    <rect
       y="74.656898"
       x="0"
       height="120"
       width="350"
       id="rect2401"
       style="fill:#005d35;fill-opacity:1;stroke:none;stroke-width:1;stroke-linecap:butt;stroke-linejoin:round;stroke-miterlimit:4;stroke-dasharray:none;stroke-opacity:1" />
    <path
       style="font-size:90px;font-style:normal;font-variant:normal;font-weight:normal;font-stretch:normal;text-align:start;line-height:125%;writing-mode:lr-tb;text-anchor:start;fill:#ffffff;fill-opacity:1;fill-rule:nonzero;stroke:none;stroke-width:1;stroke-linecap:butt;stroke-linejoin:round;marker:none;marker-start:none;marker-mid:none;marker-end:none;stroke-miterlimit:4;stroke-dashoffset:0;stroke-opacity:1;visibility:visible;display:inline;overflow:visible;enable-background:accumulate;font-family:GD-HighwayGothicJA-OTF;-inkscape-font-specification:GD-HighwayGothicJA-OTF"
       d="M 27.543545,214.72618 L 39.451714,249.67657 L 48.453281,239.23075 L 100.93761,284.03997 L 107.30732,276.58436 L 54.822982,231.77512 L 63.824565,221.32932 L 27.543545,214.72618 z"
       id="text2420" />
    <path
       id="path2440"
       style="font-size:38px;font-style:normal;font-variant:normal;font-weight:normal;font-stretch:normal;text-align:start;line-height:125%;writing-mode:lr-tb;text-anchor:start;fill:#005d35;fill-opacity:1;fill-rule:nonzero;stroke:none;stroke-width:1;stroke-linecap:butt;stroke-linejoin:round;marker:none;marker-start:none;marker-mid:none;marker-end:none;stroke-miterlimit:4;stroke-dashoffset:0;stroke-opacity:1;visibility:visible;display:inline;overflow:visible;enable-background:accumulate;font-family:GD-HighwayGothicJA-OTF;-inkscape-font-specification:GD-HighwayGothicJA-OTF"
       d="M 212.83579,223.56636 L 188.89609,223.56636 L 188.89609,226.98632 L 212.83579,226.98632 L 212.83579,223.56636 z M 212.83579,241.99612 L 212.83579,243.5161 L 202.57592,243.5161 L 202.57592,241.99612 L 212.83579,241.99612 z M 216.25574,238.57617 L 185.47614,238.57617 L 185.47614,251.876 L 216.25574,251.876 L 216.25574,238.57617 z M 188.89609,241.99612 L 199.15596,241.99612 L 199.15596,243.5161 L 188.89609,243.5161 L 188.89609,241.99612 z M 212.83579,248.45604 L 202.57592,248.45604 L 202.57592,246.93606 L 212.83579,246.93606 L 212.83579,248.45604 z M 188.89609,248.45604 L 188.89609,246.93606 L 199.15596,246.93606 L 199.15596,248.45604 L 188.89609,248.45604 z M 188.89609,228.5063 L 188.89609,236.86619 L 212.83579,236.86619 L 212.83579,228.5063 L 188.89609,228.5063 z M 183.57616,218.62642 L 183.57616,225.46634 L 186.99612,225.46634 L 186.99612,222.04638 L 214.54576,222.04638 L 214.54576,225.46634 L 217.96572,225.46634 L 217.96572,218.62642 L 202.57592,218.62642 L 202.57592,215.58646 L 199.15596,215.58646 L 199.15596,218.62642 L 183.57616,218.62642 z M 192.31605,233.44623 L 192.31605,231.92625 L 209.41583,231.92625 L 209.41583,233.44623 L 192.31605,233.44623 z" />
    <path
       style="font-size:38px;font-style:normal;font-variant:normal;font-weight:normal;font-stretch:normal;text-align:start;line-height:125%;writing-mode:lr-tb;text-anchor:start;fill:#005d35;fill-opacity:1;fill-rule:nonzero;stroke:none;stroke-width:1;stroke-linecap:butt;stroke-linejoin:round;marker:none;marker-start:none;marker-mid:none;marker-end:none;stroke-miterlimit:4;stroke-dashoffset:0;stroke-opacity:1;visibility:visible;display:inline;overflow:visible;enable-background:accumulate;font-family:GD-HighwayGothicJA-OTF;-inkscape-font-specification:GD-HighwayGothicJA-OTF"
       d="M 226.67637,225.46634 L 226.67637,228.88629 L 242.63616,228.88629 L 242.63616,248.45604 L 230.85631,248.45604 L 230.85631,251.876 L 257.83597,251.876 L 257.83597,248.45604 L 246.05612,248.45604 L 246.05612,228.88629 L 262.01591,228.88629 L 262.01591,225.46634 L 246.05612,225.46634 L 246.05612,215.96646 L 242.63616,215.96646 L 242.63616,225.46634 L 226.67637,225.46634 z"
       id="path2422" />
    <path
       id="path2420"
       style="font-size:38px;font-style:normal;font-variant:normal;font-weight:normal;font-stretch:normal;text-align:start;line-height:125%;writing-mode:lr-tb;text-anchor:start;fill:#005d35;fill-opacity:1;fill-rule:nonzero;stroke:none;stroke-width:1;stroke-linecap:butt;stroke-linejoin:round;marker:none;marker-start:none;marker-mid:none;marker-end:none;stroke-miterlimit:4;stroke-dashoffset:0;stroke-opacity:1;visibility:visible;display:inline;overflow:visible;enable-background:accumulate;font-family:GD-HighwayGothicJA-OTF;-inkscape-font-specification:GD-HighwayGothicJA-OTF"
       d="M 286.32299,215.58646 L 289.81895,215.58646 L 289.81895,245.91007 L 286.32299,245.91007 L 286.32299,215.58646 z M 300.61081,215.58646 L 304.10676,215.58646 L 304.10676,252.06599 L 300.61081,252.06599 L 300.61081,215.58646 z M 273.51716,215.58646 L 277.12711,215.58646 L 277.12711,237.85418 C 277.14056,241.36835 276.67665,244.22939 275.73538,246.43732 C 274.79409,248.64525 273.2947,250.4328 271.23719,251.8 L 269.22321,248.83603 C 270.79861,247.86546 271.91326,246.51965 272.56717,244.79859 C 273.22107,243.07753 273.53774,240.76273 273.51716,237.85418 L 273.51716,215.58646 z" />
    <path
       style="font-size:24px;font-style:normal;font-variant:normal;font-weight:normal;font-stretch:normal;text-indent:0;text-align:start;text-decoration:none;line-height:125%;letter-spacing:normal;word-spacing:normal;text-transform:none;direction:ltr;block-progression:tb;writing-mode:lr-tb;text-anchor:start;fill:#005d35;fill-opacity:1;fill-rule:nonzero;stroke:none;stroke-width:1;stroke-linecap:butt;stroke-linejoin:round;stroke-miterlimit:4;stroke-dashoffset:0;stroke-opacity:1;marker:none;marker-start:none;marker-mid:none;marker-end:none;visibility:visible;display:inline;overflow:visible;enable-background:accumulate;font-family:GD-HighwayGothicJA-OTF;-inkscape-font-specification:GD-HighwayGothicJA-OTF"
       d="M 197.08821,261.27164 L 185.37636,261.27164 L 185.37636,267.36756 L 195.55223,267.36756 L 195.55223,270.41552 L 185.37636,270.41552 L 185.37636,280.56739 L 181.65641,280.56739 L 181.65641,258.19968 L 197.08821,258.19968 L 197.08821,261.27164 z M 210.83616,264.99159 L 214.38811,264.99159 L 214.38811,280.56739 L 211.00415,280.56739 L 210.90816,278.35942 C 210.33865,279.2179 209.61166,279.8829 208.72718,280.35439 C 207.84269,280.82588 206.9057,281.06488 205.91622,281.07138 C 204.28323,281.02538 202.97725,280.52339 201.99827,279.5654 C 201.01928,278.60741 200.51729,277.46943 200.49229,276.15144 L 200.49229,264.99159 L 204.04424,264.99159 L 204.04424,275.47945 C 204.03824,276.19795 204.26624,276.84894 204.72824,277.43243 C 205.19022,278.01592 205.92221,278.32492 206.92421,278.35942 C 207.97968,278.34242 208.88667,277.99842 209.64517,277.32743 C 210.40365,276.65644 210.80064,275.76045 210.83616,274.63946 L 210.83616,264.99159 z M 215.37345,286.99931 L 215.37345,284.28734 C 216.61344,284.43083 217.43943,284.35383 217.85142,284.05634 C 218.26341,283.75884 218.45341,283.38785 218.42142,282.94336 L 218.42142,264.99159 L 221.99737,264.99159 L 221.99737,283.27935 C 221.96892,284.61148 221.60981,285.57117 220.92005,286.15843 C 220.23028,286.74567 219.38051,287.07959 218.37075,287.16019 C 217.36098,287.24078 216.36189,287.18715 215.37345,286.99931 L 215.37345,286.99931 z M 221.99737,258.19968 L 221.99737,261.77563 L 218.44542,261.77563 L 218.44542,258.19968 L 221.99737,258.19968 z M 229.63799,280.56739 L 226.08604,280.56739 L 226.08604,264.99159 L 229.63799,264.99159 L 229.63799,280.56739 z M 229.63799,258.19968 L 229.63799,261.77563 L 226.08604,261.77563 L 226.08604,258.19968 L 229.63799,258.19968 z M 245.77451,265.01559 L 248.82247,265.01559 L 248.82247,281.26338 C 248.82764,282.13744 248.57194,283.02661 248.05537,283.9309 C 247.53877,284.83518 246.73019,285.59813 245.62962,286.21976 C 244.52903,286.84137 243.10535,287.16522 241.35857,287.1913 C 238.69209,287.1278 236.81912,286.5768 235.73964,285.53832 C 234.66015,284.49983 234.10116,283.35485 234.06266,282.10337 L 237.78261,282.10337 C 237.76211,282.66086 238.0191,283.21385 238.5536,283.76235 C 239.08809,284.31083 240.02308,284.60583 241.35857,284.64734 C 242.70704,284.60233 243.69402,284.23033 244.31953,283.53135 C 244.94501,282.83235 245.254,282.07636 245.24652,281.26338 L 245.24652,278.21542 C 244.65101,278.93741 243.94602,279.4854 243.13154,279.8594 C 242.31704,280.23339 241.43806,280.42139 240.49458,280.42339 C 238.5571,280.40889 236.85212,279.7179 235.37964,278.35042 C 233.90716,276.98294 233.13217,275.02596 233.05467,272.47949 C 233.13217,269.92053 233.90716,267.95256 235.37964,266.57557 C 236.85212,265.1986 238.5571,264.50261 240.49458,264.4876 C 241.48706,264.49011 242.40604,264.70111 243.25154,265.12059 C 244.09702,265.54009 244.81801,266.15309 245.41451,266.95956 L 245.77451,265.01559 z M 241.02257,277.87942 C 242.00705,277.91842 242.94203,277.54643 243.82753,276.76344 C 244.71301,275.98045 245.186,274.55247 245.24652,272.47949 C 245.186,270.39403 244.71301,268.95505 243.82753,268.16255 C 242.94203,267.37007 242.00705,266.99307 241.02257,267.03156 C 240.02658,266.99307 239.08459,267.37007 238.19661,268.16255 C 237.30861,268.95505 236.83462,270.39403 236.77463,272.47949 C 236.83462,274.55247 237.30861,275.98045 238.19661,276.76344 C 239.08459,277.54643 240.02658,277.91842 241.02257,277.87942 L 241.02257,277.87942 z M 266.96236,280.56739 C 266.59701,280.56739 266.11169,280.56739 265.50638,280.56739 C 264.90104,280.56739 264.35171,280.56739 263.8584,280.56739 C 263.36506,280.56739 263.10373,280.56739 263.07441,280.56739 L 262.57042,278.52741 C 261.99741,279.4209 261.21142,280.06989 260.21245,280.47439 C 259.21345,280.87888 258.12746,281.07788 256.95449,281.07138 C 255.571,281.06138 254.44402,280.66138 253.57353,279.8714 C 252.70304,279.08141 252.25405,277.96142 252.22655,276.51144 C 252.25355,275.07796 252.78754,273.97898 253.82853,273.21448 C 254.86951,272.45 256.25549,271.90901 257.98647,271.5915 C 259.65794,271.28351 260.84493,270.97552 261.54743,270.66752 C 262.24991,270.35953 262.5909,269.88353 262.57042,269.23953 C 262.5979,268.76955 262.41091,268.29356 262.00942,267.81155 C 261.60792,267.32957 260.82693,267.06957 259.66645,267.03156 C 258.42996,267.05557 257.59697,267.34357 257.16749,267.89555 C 256.73798,268.44755 256.49899,269.11954 256.45049,269.91153 L 252.89854,269.91153 C 253.04254,268.13156 253.76853,266.78358 255.07651,265.86758 C 256.38449,264.9516 257.91447,264.49161 259.66645,264.4876 C 261.42642,264.49361 262.9284,264.9016 264.17239,265.71158 C 265.41636,266.52158 266.06636,267.69756 266.12237,269.23953 C 266.12235,269.95213 266.12235,270.86293 266.12237,271.97194 C 266.12235,273.08097 266.12235,274.14466 266.12237,275.16301 C 266.12235,276.18137 266.12235,276.91084 266.12237,277.35143 C 266.11535,277.90542 266.17135,278.45342 266.29037,278.99541 C 266.40935,279.5374 266.63335,280.06139 266.96236,280.56739 L 266.96236,280.56739 z M 258.49047,278.52741 C 259.69994,278.49641 260.67693,278.13842 261.42143,277.45343 C 262.16591,276.76844 262.5489,275.94245 262.57042,274.97546 L 262.57042,272.1675 C 262.32491,272.4585 261.94591,272.71049 261.43343,272.92349 C 260.92093,273.13649 260.16394,273.36449 259.16246,273.60748 C 258.21996,273.85698 257.45297,274.18597 256.86149,274.59446 C 256.26999,275.00296 255.965,275.57796 255.9465,276.31944 C 255.9355,277.08343 256.12549,277.64343 256.51649,277.99942 C 256.90748,278.35542 257.56547,278.53141 258.49047,278.52741 L 258.49047,278.52741 z M 288.17118,264.99159 L 291.72314,264.99159 L 286.8032,280.56739 L 283.41924,280.56739 L 280.37128,269.81553 L 277.32332,280.56739 L 273.91537,280.56739 L 268.99543,264.99159 L 272.57138,264.99159 L 275.69134,277.01543 L 278.8353,264.99159 L 281.88326,264.99159 L 285.02722,277.01543 L 288.17118,264.99159 z M 308.68111,280.56739 C 308.31576,280.56739 307.83044,280.56739 307.22513,280.56739 C 306.61979,280.56739 306.07046,280.56739 305.57715,280.56739 C 305.08381,280.56739 304.82248,280.56739 304.79316,280.56739 L 304.28917,278.52741 C 303.71616,279.4209 302.93017,280.06989 301.9312,280.47439 C 300.9322,280.87888 299.84621,281.07788 298.67324,281.07138 C 297.28975,281.06138 296.16277,280.66138 295.29228,279.8714 C 294.42179,279.08141 293.9728,277.96142 293.9453,276.51144 C 293.9723,275.07796 294.50629,273.97898 295.54728,273.21448 C 296.58826,272.45 297.97424,271.90901 299.70522,271.5915 C 301.37669,271.28351 302.56368,270.97552 303.26618,270.66752 C 303.96866,270.35953 304.30965,269.88353 304.28917,269.23953 C 304.31665,268.76955 304.12966,268.29356 303.72817,267.81155 C 303.32667,267.32957 302.54568,267.06957 301.3852,267.03156 C 300.14871,267.05557 299.31572,267.34357 298.88624,267.89555 C 298.45673,268.44755 298.21774,269.11954 298.16924,269.91153 L 294.61729,269.91153 C 294.76129,268.13156 295.48728,266.78358 296.79526,265.86758 C 298.10324,264.9516 299.63322,264.49161 301.3852,264.4876 C 303.14517,264.49361 304.64715,264.9016 305.89114,265.71158 C 307.13511,266.52158 307.78511,267.69756 307.84112,269.23953 C 307.8411,269.95213 307.8411,270.86293 307.84112,271.97194 C 307.8411,273.08097 307.8411,274.14466 307.84112,275.16301 C 307.8411,276.18137 307.8411,276.91084 307.84112,277.35143 C 307.8341,277.90542 307.8901,278.45342 308.00912,278.99541 C 308.1281,279.5374 308.3521,280.06139 308.68111,280.56739 L 308.68111,280.56739 z M 300.20922,278.52741 C 301.41869,278.49641 302.39568,278.13842 303.14018,277.45343 C 303.88466,276.76844 304.26765,275.94245 304.28917,274.97546 L 304.28917,272.1675 C 304.04366,272.4585 303.66466,272.71049 303.15218,272.92349 C 302.63968,273.13649 301.88269,273.36449 300.88121,273.60748 C 299.93871,273.85698 299.17172,274.18597 298.58024,274.59446 C 297.98874,275.00296 297.68375,275.57796 297.66525,276.31944 C 297.65425,277.08343 297.84424,277.64343 298.23524,277.99942 C 298.62623,278.35542 299.28422,278.53141 300.20922,278.52741 L 300.20922,278.52741 z"
       id="text2411" />
    <path
       id="path3237"
       style="font-size:100px;font-style:normal;font-variant:normal;font-weight:normal;font-stretch:normal;text-indent:0;text-align:start;text-decoration:none;line-height:125%;letter-spacing:normal;word-spacing:normal;text-transform:none;direction:ltr;block-progression:tb;writing-mode:lr-tb;text-anchor:start;fill:#ffffff;fill-opacity:1;fill-rule:nonzero;stroke:none;stroke-width:1;stroke-linecap:butt;stroke-linejoin:round;marker:none;marker-start:none;marker-mid:none;marker-end:none;stroke-miterlimit:4;stroke-dashoffset:0;stroke-opacity:1;visibility:visible;display:inline;overflow:visible;enable-background:accumulate;font-family:GD-HighwayGothicJA-OTF;-inkscape-font-specification:GD-HighwayGothicJA-OTF"
       d="M 31.970493,182.95983 L 31.970493,92.160995 L 59.070143,92.160995 C 64.962613,92.258609 70.032913,93.707972 74.281063,96.509088 C 78.529083,99.310362 81.799413,102.87821 84.092043,107.21265 C 86.384533,111.54723 87.543773,116.06321 87.569783,120.76063 C 87.543773,125.29333 86.384533,129.6834 84.092043,133.93083 C 81.799413,138.17834 78.529083,141.68693 74.281063,144.45662 C 70.032903,147.22636 64.962603,148.66091 59.070143,148.76027 L 43.570343,148.76027 L 43.570343,182.95983 L 31.970493,182.95983 z M 59.070143,136.96042 C 64.657523,136.67921 68.807463,134.76674 71.519983,131.22299 C 74.232383,127.67933 75.582363,124.19188 75.569933,120.76063 C 75.582363,117.13781 74.232383,113.5337 71.519983,109.94826 C 68.807463,106.36296 64.657523,104.43382 59.070143,104.16084 L 43.570343,104.16084 L 43.570343,136.96042 L 59.070143,136.96042 z" />
    <path
       id="path3233"
       style="font-size:100px;font-style:normal;font-variant:normal;font-weight:normal;font-stretch:normal;text-indent:0;text-align:start;text-decoration:none;line-height:125%;letter-spacing:normal;word-spacing:normal;text-transform:none;direction:ltr;block-progression:tb;writing-mode:lr-tb;text-anchor:start;fill:#ffffff;fill-opacity:1;fill-rule:nonzero;stroke:none;stroke-width:1;stroke-linecap:butt;stroke-linejoin:round;marker:none;marker-start:none;marker-mid:none;marker-end:none;stroke-miterlimit:4;stroke-dashoffset:0;stroke-opacity:1;visibility:visible;display:inline;overflow:visible;enable-background:accumulate;font-family:GD-HighwayGothicJA-OTF;-inkscape-font-specification:GD-HighwayGothicJA-OTF"
       d="M 155.71209,91.960998 C 156.79325,91.986081 157.70574,92.361076 158.44955,93.085983 C 159.19322,93.811055 159.58072,94.736042 159.61204,95.860947 L 159.61204,183.05982 L 122.31252,183.05982 L 122.31252,129.26052 C 121.62499,129.24806 120.975,129.19806 120.36255,129.11052 C 119.75002,129.02306 119.10003,128.97306 118.41257,128.96052 C 118.51069,133.73026 118.58105,138.57957 118.62368,143.50848 C 118.66624,148.43746 118.69216,152.82752 118.70146,156.67868 C 118.71068,160.52988 118.71439,163.22367 118.71257,164.76006 C 118.69795,168.23086 118.02713,170.73915 116.70009,172.28496 C 115.37299,173.83078 113.47719,174.5891 111.01267,174.55993 C 108.44809,174.67035 106.20229,174.09952 104.27525,172.84745 C 102.34818,171.59539 101.42736,168.99959 101.51279,165.06006 C 101.63746,162.00517 102.08807,158.3151 102.86462,153.98983 C 103.64114,149.6646 104.59544,145.4338 105.72755,141.2974 C 106.85961,137.16107 108.02132,133.84877 109.21269,131.36049 C 109.92932,129.96889 110.87097,128.90224 112.03765,128.16053 C 113.20428,127.41892 114.49592,126.95226 115.9126,126.76055 C 115.90007,123.93564 115.85007,121.61067 115.76261,119.78564 C 115.67507,117.96072 115.62507,116.78574 115.61261,116.26068 C 114.27093,116.26074 113.45427,115.91075 113.16264,115.2107 C 112.87095,114.51077 112.75428,113.46078 112.81264,112.06074 C 112.8397,111.30456 113.21053,110.59207 113.92513,109.92326 C 114.63968,109.25459 115.5355,108.6671 116.6126,108.16079 C 117.21881,107.79628 118.08129,107.30045 119.20006,106.67331 C 120.31876,106.0463 121.35625,105.37548 122.31252,104.66083 L 122.31252,95.860947 C 122.33957,94.736042 122.71039,93.811055 123.42501,93.085982 C 124.13954,92.361074 125.03536,91.986079 126.11247,91.960998 L 155.71209,91.960998 z M 111.01267,172.85996 C 112.9397,172.71204 114.31051,171.85789 115.12511,170.29749 C 115.93966,168.7371 116.33548,167.35795 116.3126,166.16004 C 116.30763,165.4008 116.27306,162.98602 116.2089,158.91569 C 116.14467,154.84539 116.08047,150.07509 116.01631,144.60476 C 115.95208,139.1345 115.91751,133.91976 115.9126,128.96052 C 115.08134,129.10432 114.34385,129.36681 113.70013,129.74801 C 113.05636,130.1293 112.39387,130.66679 111.71266,131.36049 C 110.71056,132.67093 109.41475,136.35005 107.82521,142.39785 C 106.23562,148.44571 104.96481,155.29978 104.01276,162.96008 C 103.57941,167.09129 104.12107,169.80375 105.63774,171.09748 C 107.15436,172.39121 108.946,172.9787 111.01267,172.85996 L 111.01267,172.85996 z M 122.31252,126.76055 L 122.31252,108.16079 C 120.75001,108.63793 119.70002,109.10876 119.16256,109.57327 C 118.62503,110.03791 118.37504,110.63374 118.41257,111.36075 C 118.41254,111.45873 118.41254,112.91288 118.41257,115.72319 C 118.41254,118.53363 118.41254,122.11275 118.41257,126.46055 C 119.31877,126.45435 120.10626,126.46685 120.77504,126.49805 C 121.44374,126.52935 121.95624,126.61685 122.31252,126.76055 L 122.31252,126.76055 z M 131.41241,113.06073 L 131.41241,126.76055 L 150.11216,126.76055 L 150.11216,113.06073 L 131.41241,113.06073 z M 131.41241,99.360902 L 131.41241,109.16078 L 150.11216,109.16078 L 150.11216,99.360902 L 131.41241,99.360902 z" />
    <path
       id="path3223"
       style="font-size:100px;font-style:normal;font-variant:normal;font-weight:normal;font-stretch:normal;text-indent:0;text-align:start;text-decoration:none;line-height:125%;letter-spacing:normal;word-spacing:normal;text-transform:none;direction:ltr;block-progression:tb;writing-mode:lr-tb;text-anchor:start;fill:#ffffff;fill-opacity:1;fill-rule:nonzero;stroke:none;stroke-width:1;stroke-linecap:butt;stroke-linejoin:round;marker:none;marker-start:none;marker-mid:none;marker-end:none;stroke-miterlimit:4;stroke-dashoffset:0;stroke-opacity:1;visibility:visible;display:inline;overflow:visible;enable-background:accumulate;font-family:GD-HighwayGothicJA-OTF;-inkscape-font-specification:GD-HighwayGothicJA-OTF"
       d="M 218.56483,183.05982 C 218.7252,183.05982 218.40437,183.05982 217.60234,183.05982 C 216.80023,183.05982 214.55443,183.05982 210.86493,183.05982 C 210.8649,182.83196 210.8649,180.38772 210.86493,175.72711 C 210.8649,171.06649 210.8649,165.55667 210.86493,159.19763 C 210.8649,152.83862 210.8649,146.99756 210.86493,141.67442 C 210.8649,136.35135 210.8649,132.91338 210.86493,131.36049 C 210.54268,130.79511 209.74269,129.59266 208.46496,127.75313 C 207.18717,125.9137 205.96496,124.02977 204.79834,122.10135 C 203.63166,120.17303 203.05389,118.79281 203.06503,117.96066 C 203.21315,116.98234 203.50574,114.45027 203.94279,110.36446 C 204.3798,106.27878 204.87238,102.3097 205.42055,98.457208 C 205.96866,94.604869 206.48347,92.539466 206.96498,92.260994 C 207.34149,92.540086 207.75506,94.493146 208.2057,98.120178 C 208.65628,101.74737 209.08467,105.37448 209.49087,109.00152 C 209.89701,112.62869 210.22169,114.58175 210.46493,114.8607 C 210.8365,114.57805 211.25995,112.59907 211.73528,108.92374 C 212.21056,105.24855 212.70808,101.57329 213.22786,97.897955 C 213.74757,94.222776 214.25991,92.243792 214.76488,91.960998 C 215.1136,92.243792 215.53829,94.222776 216.03893,97.897955 C 216.53951,101.57329 217.02345,105.24855 217.49076,108.92374 C 217.958,112.59907 218.31602,114.57805 218.56483,114.8607 C 218.9333,114.58176 219.32959,112.6287 219.7537,109.00152 C 220.17773,105.37448 220.61846,101.74736 221.0759,98.120176 C 221.53326,94.493143 221.99622,92.540084 222.46478,92.260994 C 222.85176,92.539468 223.32213,94.604871 223.87587,98.457208 C 224.42952,102.3097 224.94433,106.27878 225.42029,110.36446 C 225.89616,114.45027 226.21098,116.98234 226.36473,117.96066 C 226.37024,118.79281 225.77024,120.17304 224.56475,122.10135 C 223.35916,124.02977 222.11474,125.91369 220.83146,127.75313 C 219.54811,129.59266 218.79256,130.79511 218.56483,131.36049 C 218.56479,132.91338 218.56479,136.35135 218.56483,141.67442 C 218.56479,146.99756 218.56479,152.83862 218.56483,159.19763 C 218.56479,165.55667 218.56479,171.06649 218.56483,175.7271 C 218.56479,180.38772 218.56479,182.83195 218.56483,183.05982 L 218.56483,183.05982 z M 250.26442,91.960998 C 250.59976,91.981915 250.80392,92.290244 250.87691,92.885986 C 250.94975,93.481893 250.97892,94.240215 250.96441,95.160956 C 250.96434,95.669829 250.96434,98.896184 250.96441,104.84003 C 250.96434,110.78402 250.96434,118.07272 250.96441,126.70615 C 250.96434,135.33968 250.96434,143.94516 250.96441,152.52262 C 250.96434,161.10012 250.96434,168.27682 250.96441,174.05274 C 250.96434,179.82866 250.96434,182.83102 250.96441,183.05982 L 244.2645,183.05982 C 244.26443,182.87961 244.26443,180.9713 244.2645,177.3349 C 244.26443,173.69849 244.26443,169.41521 244.2645,164.48506 C 244.26443,159.55493 244.26443,155.05916 244.2645,150.99774 C 244.26443,146.93636 244.26443,144.39056 244.2645,143.36034 C 244.24152,141.80622 243.76236,140.38957 242.82701,139.11039 C 241.89155,137.83128 240.6374,136.41463 239.06456,134.86045 C 237.54369,133.47509 236.66037,132.04594 236.4146,130.573 C 236.16871,129.10015 236.08538,127.49601 236.1646,125.76056 C 236.24996,123.59814 236.97912,120.32318 238.35207,115.93569 C 239.72491,111.54831 241.22906,107.32337 242.86451,103.26085 C 244.29152,99.858887 245.66233,97.138091 246.97696,95.098455 C 248.29146,93.05898 249.38728,92.013162 250.26442,91.960998 L 250.26442,91.960998 z" />
    <path
       style="font-size:100px;font-style:normal;font-variant:normal;font-weight:normal;font-stretch:normal;text-indent:0;text-align:start;text-decoration:none;line-height:125%;letter-spacing:normal;word-spacing:normal;text-transform:none;direction:ltr;block-progression:tb;writing-mode:lr-tb;text-anchor:start;fill:#ffffff;fill-opacity:1;fill-rule:nonzero;stroke:none;stroke-width:1;stroke-linecap:butt;stroke-linejoin:round;marker:none;marker-start:none;marker-mid:none;marker-end:none;stroke-miterlimit:4;stroke-dashoffset:0;stroke-opacity:1;visibility:visible;display:inline;overflow:visible;enable-background:accumulate;font-family:GD-HighwayGothicJA-OTF;-inkscape-font-specification:GD-HighwayGothicJA-OTF"
       d="M 293.95931,183.75982 C 293.95614,183.51424 293.93739,180.90542 293.90306,175.93335 C 293.86864,170.96128 293.83739,165.09939 293.8093,158.34764 C 293.78114,151.59593 293.77489,145.42778 293.79055,139.84319 C 293.80614,134.25867 293.86239,130.73112 293.95931,129.26052 C 294.16134,126.79393 294.13218,124.45229 293.87181,122.23561 C 293.61135,120.01902 292.80719,118.02739 291.45934,116.26068 C 289.95724,114.63785 288.58642,113.1337 287.34689,111.74824 C 286.10729,110.36291 285.61146,108.33377 285.85941,105.66082 C 286.51978,103.33384 288.37393,100.71304 291.42184,97.798422 C 294.46967,94.883957 296.84881,93.03815 298.55925,92.260994 C 299.78835,91.794417 300.68,91.727751 301.23421,92.060996 C 301.78832,92.394409 301.82999,92.927734 301.35921,93.660976 C 300.74458,94.573546 299.89876,96.098526 298.82174,98.235918 C 297.74463,100.37347 296.82381,102.14844 296.05928,103.56085 C 295.28633,104.67965 295.38216,105.86714 296.34678,107.1233 C 297.3113,108.3796 298.38212,109.29209 299.55923,109.86077 C 300.72375,110.63999 302.09457,111.20665 303.67168,111.56075 C 305.24869,111.91497 306.34451,111.58164 306.95914,110.56076 L 312.95906,100.06089 C 313.03192,99.865138 313.41108,99.556808 314.09655,99.135904 C 314.78189,98.715152 315.33605,99.35681 315.75903,101.06088 C 316.32145,106.36505 315.89646,110.58165 314.48404,113.71072 C 313.0715,116.8399 311.49652,118.85654 309.7591,119.76064 C 307.91949,120.60027 306.24867,121.69609 304.74667,123.0481 C 303.24455,124.40022 302.44873,126.37102 302.3592,128.96052 C 302.35915,130.26315 302.35915,133.7079 302.3592,139.29476 C 302.35915,144.8817 302.35915,151.09516 302.3592,157.93515 C 302.35915,164.77517 302.35915,170.72613 302.3592,175.78804 C 302.35915,180.84995 302.35915,183.50721 302.3592,183.75982 L 293.95931,183.75982 z"
       id="text2444" />
  </g>
</svg>
