<?xml version="1.0" encoding="UTF-8" standalone="no"?>
<!-- Created with Inkscape (http://www.inkscape.org/) -->

<svg
   xmlns:svg="http://www.w3.org/2000/svg"
   xmlns="http://www.w3.org/2000/svg"
   version="1.2"
   width="600"
   height="202.5"
   id="svg1890">
  <defs
     id="defs1893" />
  <g
     id="g4158"
     style="fill:#ffffff;stroke:#ffffff">
    <rect
       width="548.03845"
       height="180"
       rx="10"
       ry="10"
       x="0"
       y="11.25"
       id="rect3644"
       style="color:#000000;fill:#ffffff;fill-opacity:1;fill-rule:nonzero;stroke:#ffffff;stroke-width:0;marker:none;visibility:visible;display:inline;overflow:visible;enable-background:accumulate" />
    <path
       d="m 98.25,101.25 -49.125,85.087 -98.25,0 -49.125,-85.087 49.125,-85.086996 98.25,0 L 98.25,101.25 z"
       transform="translate(496.51031,0)"
       id="path4156"
       style="color:#000000;fill:#ffffff;fill-opacity:1;fill-rule:nonzero;stroke:#ffffff;stroke-width:9.89999962;stroke-linecap:round;stroke-linejoin:round;stroke-miterlimit:4;stroke-opacity:1;stroke-dasharray:none;stroke-dashoffset:261;marker:none;visibility:visible;display:inline;overflow:visible;enable-background:accumulate" />
  </g>
  <rect
     width="467.33792"
     height="172.5"
     rx="6.3955951"
     ry="7.5"
     x="5"
     y="15"
     id="rect3644-5"
     style="color:#000000;fill:#0066b3;fill-opacity:1;fill-rule:nonzero;stroke:none;stroke-width:0;marker:none;visibility:visible;display:inline;overflow:visible;enable-background:accumulate" />
  <path
     d="m 94,101.25 -47,81.40639 -94,0 -47,-81.40639 47,-81.406388 94,0 L 94,101.25 z"
     transform="translate(496.51031,-4.2689138e-6)"
     id="path4156-9"
     style="color:#000000;fill:#0066b3;fill-opacity:1;fill-rule:nonzero;stroke:#0066b3;stroke-width:9.69999981;stroke-linecap:round;stroke-linejoin:round;stroke-miterlimit:4;stroke-opacity:1;stroke-dasharray:none;stroke-dashoffset:261;marker:none;visibility:visible;display:inline;overflow:visible;enable-background:accumulate" />
  <path
     d="m 44.412075,24.438078 469.210185,0 c 3.65746,0 5.36899,2.473356 6.60191,6.679297 l 20.86121,63.802935 c 0.87496,2.839696 1.72897,5.70484 -0.10572,11.83701 l -20.75549,64.6253 c -0.61646,3.70033 -2.94445,6.6793 -6.60191,6.6793 l -469.210185,0 c -3.65746,0 -6.601914,-2.97897 -6.601914,-6.6793 l 0,-140.265245 c 0,-3.70033 2.944454,-6.679297 6.601914,-6.679297 z"
     id="rect3644-5-3"
     style="color:#000000;fill:#ed7db1;fill-opacity:1;fill-rule:nonzero;stroke:none;stroke-width:0;marker:none;visibility:visible;display:inline;overflow:visible;enable-background:accumulate" />
  <path
     d="M 185.0762,203.00305 C 55.497164,428.97625 -56.140571,429.30534 -187.04958,204.1 -317.9586,-21.105335 -262.42472,-117.95099 -1.9366759,-118.71885 258.55137,-119.48672 314.65523,-22.970144 185.0762,203.00305 z"
     transform="matrix(0.39712855,0,0,0.39712855,301.59863,50.792782)"
     id="path2821"
     style="color:#000000;fill:#0066b3;fill-opacity:1;fill-rule:nonzero;stroke:#ffffff;stroke-width:17.22055435;stroke-linecap:round;stroke-linejoin:miter;stroke-miterlimit:4;stroke-opacity:1;stroke-dasharray:none;stroke-dashoffset:261;marker:none;visibility:visible;display:inline;overflow:visible;enable-background:accumulate" />
  <g id="text3" transform="scale(0.95,1) translate(15,-10)" >
    <path
        d="m 255.94527,135.69164 -7.41487,0 0,-63.470578 c -4.64119,1.898125 -9.5295,3.501659 -14.66497,4.810607 l -1.3594,-6.823209 c 7.35993,-2.192522 13.60765,-4.794176 18.74315,-7.804968 l 4.69609,0 z"
       style="stroke-width:5;stroke-miterlimit:4;stroke-opacity:1;fill:#ffffff;stroke:#ffffff"
       id="path100" />
    <path
        d="m 273.74096,118.46181 -9.96888,0 0,17.22983 -6.75578,0 0,-17.22983 -30.9365,0 0,-8.0504 29.74189,-47.222512 7.95039,0 0,47.811552 9.96888,0 z m -16.31272,-46.338924 -0.24716,0 c -2.44419,4.712492 -4.88836,9.032218 -7.33249,12.95919 l -16.35391,25.918374 23.52162,0 0,-23.709421 c -3e-5,-3.436096 0.13728,-8.492139 0.41194,-15.168143 z"
       style="stroke-width:5;stroke-miterlimit:4;stroke-opacity:1;fill:#ffffff;stroke:#ffffff"
       transform="translate(53.22231,0)"
       id="path10" />
    <path
        d="m 271.72247,135.69164 -42.34716,0 0,-8.34493 c 3.32295,-9.2285 9.6805,-17.65524 19.0727,-25.28024 l 2.34804,-1.86534 c 4.8059,-3.926986 7.96409,-6.986792 9.47456,-9.179425 1.7301,-2.55252 2.59516,-5.366886 2.59521,-8.443109 -5e-5,-3.403367 -1.01615,-6.315909 -3.04834,-8.737636 -2.25196,-2.683403 -5.20418,-4.025136 -8.85666,-4.025203 -7.3325,6.7e-5 -12.13843,4.859758 -14.4178,14.579089 l -6.50862,-2.798007 c 3.13072,-12.762771 10.2435,-19.144184 21.33836,-19.144259 6.06918,7.5e-5 10.90257,2.143575 14.5002,6.430507 3.15814,3.861642 4.73723,8.524982 4.73728,13.990036 -5e-5,4.057978 -1.01616,7.739563 -3.04833,11.044764 -1.8675,3.207112 -6.16537,7.314123 -12.89365,12.321053 l -1.77133,1.27628 c -8.56832,6.31599 -14.07454,13.05739 -16.51869,20.2242 l 35.34423,0 z"
       style="stroke-width:5;stroke-miterlimit:4;stroke-opacity:1;fill:#ffffff;stroke:#ffffff"
       transform="translate(106.44462,0)"
       id="path1" />
</g></svg>
