<?xml version="1.0" encoding="UTF-8" standalone="no"?>
<!-- Created with Inkscape (http://www.inkscape.org/) -->

<svg
   xmlns:svg="http://www.w3.org/2000/svg"
   xmlns="http://www.w3.org/2000/svg"
   version="1.1"
   width="1800"
   height="300"
   id="svg5338">
  <defs
     id="defs5340" />
  <g
     transform="translate(0,-772.36217)"
     id="layer1">
    <rect
       width="1800"
       height="300"
       rx="50"
       ry="50"
       x="0"
       y="0"
       transform="translate(0,772.36217)"
       id="rect5348"
       style="color:#000000;fill:#000000;fill-opacity:1;stroke:none;stroke-width:99;marker:none;visibility:visible;display:inline;overflow:visible;enable-background:accumulate" />
    <rect
       width="1770"
       height="270"
       rx="50"
       ry="50"
       x="15"
       y="15"
       transform="translate(0,772.36217)"
       id="rect5860"
       style="color:#000000;fill:#ffffff;fill-opacity:1;fill-rule:nonzero;stroke:none;stroke-width:99;marker:none;visibility:visible;display:inline;overflow:visible;enable-background:accumulate" />
    <g
       id="text2814"
       style="font-size:250px;font-style:normal;font-weight:normal;text-align:center;text-anchor:middle;fill:#000000;fill-opacity:1;stroke:none">
      <path
         d="m 295.49255,824.85968 c 2.50242,-2.16656 5.46135,-3.16601 8.8768,-2.99835 3.41539,0.16804 6.2904,1.41671 8.62503,3.74603 7.66495,8.00087 16.24801,17.25278 25.74921,27.75574 2.16668,2.32966 3.12544,5.11948 2.87628,8.36944 -0.2493,3.25027 -1.5412,5.95871 -3.87573,8.12531 -2.49742,2.16689 -5.33047,3.08369 -8.49914,2.7504 -3.1688,-0.33301 -5.83655,-1.66434 -8.00324,-3.99399 -5.8289,-6.33733 -14.57727,-15.50531 -26.24512,-27.50397 -2.16677,-2.33442 -3.20818,-5.08481 -3.12423,-8.25119 0.0839,-3.16601 1.29061,-5.83249 3.62014,-7.99942 z m 31.25,182.50272 c -7.16659,7.1666 -15.49788,14.2492 -24.99389,21.2479 -2.67032,1.9989 -5.67121,2.6232 -9.00269,1.873 -3.33152,-0.7502 -5.83142,-2.6232 -7.49969,-5.619 -1.66831,-3.1688 -2.08538,-6.4621 -1.25122,-9.8801 0.83413,-3.418 2.75165,-6.2103 5.75256,-8.3771 6.83082,-4.8319 14.16267,-10.83116 21.99554,-17.99773 0.83411,-0.66627 1.25118,-1.74964 1.25122,-3.25012 l 0,-56.49566 c -4e-5,-1.50036 -0.66634,-2.25059 -1.9989,-2.25067 l -17.25006,0 c -3.16876,8e-5 -5.8365,-1.04133 -8.00323,-3.12424 -2.16676,-2.08273 -3.25014,-4.70852 -3.25012,-7.87735 -2e-5,-3.16864 1.08336,-5.87707 3.25012,-8.12531 2.16673,-2.24802 4.83447,-3.37208 8.00323,-3.37219 l 30.74646,0 c 3.83499,1.1e-4 7.16903,1.41663 10.00214,4.24957 2.83298,2.83315 4.2495,6.16465 4.24957,9.99451 l 0,61.50055 c -7e-5,1.33263 0.41701,2.66778 1.25122,4.00543 4.16558,6.83088 9.37391,11.95528 15.625,15.37323 6.25093,3.41798 15.54352,5.91788 27.87781,7.49968 12.33406,1.5818 29.91726,2.3728 52.74963,2.3728 l 59.24988,0 c 3.00067,0 5.58449,1.1673 7.75147,3.5019 2.16651,2.3345 3.16596,5.0023 2.99835,8.0032 -0.16808,3.1636 -1.4193,5.7869 -3.75366,7.8697 -2.33483,2.0828 -5.08395,3.1242 -8.24738,3.1242 l -59.24988,0 c -30.66521,0 -53.87381,-1.7496 -69.62585,-5.249 -15.75224,-3.4993 -27.62611,-9.7478 -35.62164,-18.7454 -1.00206,-1.1698 -2.00405,-1.2538 -3.00599,-0.2518 z M 427.24457,807.11371 c 3.49919,0.33081 6.20762,1.99656 8.1253,4.99725 1.91736,3.0011 2.37512,6.16729 1.37329,9.4986 -0.16801,0.66649 -0.58508,2.00036 -1.25122,4.00162 -0.66646,2.00163 -1.16492,3.5008 -1.49536,4.49752 -0.33585,1.50063 0.1626,2.25086 1.49536,2.25067 l 39.00147,0 c 3.83483,1.9e-4 7.16887,1.41671 10.00213,4.24958 2.83284,2.83322 4.24936,6.16726 4.24958,10.00213 l 0,40.25269 c -2.2e-4,3.83008 -1.41674,7.16158 -4.24958,9.99451 -2.83326,2.83316 -6.1673,4.24968 -10.00213,4.24957 l -84.99909,0 c -1.33272,1.1e-4 -1.99902,0.66895 -1.9989,2.00653 l 0,12.74872 c -1.2e-4,1.50054 0.66618,2.25077 1.9989,2.25067 l 91.24756,0 c 3.83483,10e-5 7.16887,1.37466 10.00214,4.12369 2.83282,2.74921 4.24935,6.04129 4.24957,9.87625 l 0,42.24396 c -2.2e-4,3.83507 -1.41675,7.16912 -4.24957,10.00213 -2.83327,2.83308 -6.16731,4.2496 -10.00214,4.24957 l -93.24646,0 -12.00104,0 c -3.83514,3e-5 -7.16918,-1.41649 -10.00213,-4.24957 -2.83314,-2.83301 -4.24967,-6.16706 -4.24957,-10.00213 l 0,-127.74659 c -1e-4,-3.83487 1.41643,-7.16891 4.24957,-10.00213 2.83295,-2.83287 6.16699,-4.24939 10.00213,-4.24958 l 27.99988,0 c 1.50032,1.9e-4 2.49976,-0.66611 2.99835,-1.9989 0.83401,-2.49717 2.08523,-6.41358 3.75367,-11.74926 1.16461,-3.667 3.33008,-6.58397 6.49643,-8.75092 3.16605,-2.16654 6.66666,-3.08207 10.50186,-2.74658 z m 38.74969,132.74383 -76.49994,0 c -1.33272,8e-5 -1.99902,0.7503 -1.9989,2.25068 l 0,23.25439 c -1.2e-4,1.33265 0.66618,1.99895 1.9989,1.9989 l 76.49994,0 c 1.33241,5e-5 1.99871,-0.66625 1.9989,-1.9989 l 0,-23.25439 c -1.9e-4,-1.50038 -0.66649,-2.2506 -1.9989,-2.25068 z m -3.9978,-62.24823 0,-21.24786 c -1.9e-4,-1.50029 -0.75042,-2.25051 -2.25067,-2.25067 l -70.25147,0 c -1.33272,1.6e-4 -1.99902,0.75038 -1.9989,2.25067 l 0,21.24786 c -1.2e-4,1.50059 0.66618,2.25081 1.9989,2.25068 l 70.25147,0 c 1.50025,1.3e-4 2.25048,-0.75009 2.25067,-2.25068 z"
         id="path2817"
         style="font-variant:normal;font-stretch:normal" />
      <path
         d="m 561.24725,997.36029 c -1.66833,8.33131 -3.66977,16.99831 -6.00433,26.00101 -0.83418,3.1687 -2.75043,5.502 -5.74875,6.9999 -2.99838,1.4979 -6.08065,1.6645 -9.24683,0.4998 -3.16621,-1.1648 -5.49953,-3.3316 -6.99996,-6.5003 -1.50046,-3.1687 -1.83361,-6.5028 -0.99946,-10.0021 6.83084,-24.83113 11.24571,-51.99683 13.24463,-81.49721 0.16782,-3.16866 1.5017,-5.8364 4.00162,-8.00324 2.49987,-2.16665 5.41684,-3.08345 8.75092,-2.75039 3.334,0.33324 6.08439,1.70907 8.25119,4.1275 2.1667,2.4186 3.16615,5.29361 2.99835,8.62503 -0.4985,9.16552 -1.41403,18.91587 -2.74658,29.2511 -0.1679,1.50049 0.0813,2.83309 0.74768,3.9978 3.00084,5.66614 6.91726,11.16693 11.74927,16.50238 0.16778,0.33064 0.41828,0.41329 0.75149,0.24796 0.33309,-0.16528 0.49967,-0.41578 0.49973,-0.7515 l 0,-75.24872 c -6e-5,-1.33249 -0.66636,-1.99879 -1.99891,-1.9989 l -34.75189,0 c -3.16876,1.1e-4 -5.8365,-1.08326 -8.00323,-3.25012 -2.16676,-2.16664 -3.25014,-4.83311 -3.25012,-7.99942 -2e-5,-3.16608 1.08336,-5.83255 3.25012,-7.99942 2.16673,-2.16662 4.83447,-3.24999 8.00323,-3.25012 l 29.74701,0 c 1.33255,1.3e-4 1.99885,-0.7501 1.9989,-2.25067 l 0,-25.74921 c -5e-5,-1.33244 -0.66635,-1.99874 -1.9989,-1.9989 l -23.7503,0 c -2.99584,1.6e-4 -5.57712,-1.08321 -7.74384,-3.25012 -2.16677,-2.16659 -3.25014,-4.75041 -3.25012,-7.75147 -2e-5,-3.00072 1.08335,-5.58454 3.25012,-7.75146 2.16672,-2.16657 4.748,-3.24994 7.74384,-3.25013 l 23.7503,0 c 1.33255,1.9e-4 1.99885,-0.66611 1.9989,-1.9989 l 0,-9.75036 c -5e-5,-3.667 1.29186,-6.79251 3.87574,-9.37653 2.58376,-2.58362 5.70926,-3.87552 9.37652,-3.87573 3.66712,2.1e-4 6.79263,1.29211 9.37653,3.87573 2.58374,2.58402 3.87565,5.70953 3.87573,9.37653 l 0,9.75036 c -8e-5,1.33279 0.66622,1.99909 1.9989,1.9989 l 19.99664,0 c 3.00079,1.9e-4 5.58461,1.08356 7.75147,3.25013 2.16663,2.16692 3.25001,4.75074 3.25012,7.75146 -1.1e-4,3.00106 -1.08349,5.58488 -3.25012,7.75147 -2.16686,2.16691 -4.75068,3.25028 -7.75147,3.25012 l -19.99664,0 c -1.33268,1.6e-4 -1.99898,0.66646 -1.9989,1.9989 l 0,25.74921 c -8e-5,1.50057 0.66622,2.2508 1.9989,2.25067 l 22.24732,0 c 3.16863,1.3e-4 5.83637,1.0835 8.00323,3.25012 2.16663,2.16687 3.25,4.83334 3.25012,7.99942 -1.2e-4,3.16631 -1.08349,5.83278 -3.25012,7.99942 -2.16686,2.16686 -4.8346,3.25023 -8.00323,3.25012 l -17.25007,0 c -1.33268,1.1e-4 -1.99898,0.66641 -1.9989,1.9989 l 0,28.25165 c -8e-5,1.50052 0.66622,2.25075 1.9989,2.25067 l 13.50403,0 c 3.66709,8e-5 6.7926,1.25003 9.37653,3.74985 2.58371,2.49997 3.87562,5.58351 3.87573,9.25064 -1.1e-4,0.49852 0.20715,0.87236 0.6218,1.12152 0.41441,0.24929 0.78952,0.2086 1.12533,-0.12207 1.50033,-0.49839 2.91685,-1.08077 4.24958,-1.74713 1.33247,-0.50348 1.99877,-1.58685 1.9989,-3.25012 l 0,-104.25568 c -1.3e-4,-3.82978 1.4164,-7.16128 4.24957,-9.9945 2.83292,-2.83287 6.16696,-4.24939 10.00214,-4.24958 l 24.00207,0 c 1.33244,1.9e-4 1.99874,-0.66866 1.9989,-2.00653 -1.6e-4,-0.82887 -0.0421,-2.1602 -0.12588,-3.99399 -0.0841,-1.8334 -0.12605,-3.2512 -0.12589,-4.25338 -1.6e-4,-3.33131 1.20782,-6.20632 3.62396,-8.62503 2.41581,-2.41832 5.29082,-3.62757 8.62503,-3.62778 3.33387,2.1e-4 6.20888,1.20946 8.62504,3.62778 2.41578,2.41871 3.62377,5.29372 3.62396,8.62503 -1.9e-4,1.00218 0.0418,2.41998 0.12588,4.25338 0.0837,1.83379 0.1257,3.16512 0.12589,3.99399 -1.9e-4,1.33787 0.66611,2.00672 1.9989,2.00653 l 11.74927,0 c 0.33549,1.9e-4 0.62795,-0.16766 0.87738,-0.50354 0.24902,-0.33551 0.28971,-0.66866 0.12207,-0.99945 -2.83325,-4.16546 -4.41508,-6.50005 -4.74549,-7.00378 -1.50064,-2.16656 -2.04233,-4.49988 -1.62506,-6.99997 0.41688,-2.4997 1.79017,-4.33202 4.11988,-5.49698 6.33727,-3.00069 11.33961,-2.00124 15.00702,2.99835 4.83172,6.66829 8.66422,12.4183 11.49749,17.25006 0.33038,0.50373 0.91276,0.7555 1.74713,0.75531 2.16652,1.9e-4 4.00012,0.74914 5.5008,2.24686 1.50021,1.49808 2.25043,3.33041 2.25067,5.49698 l 0,3.25012 c -2.4e-4,3.00107 -1.08361,5.58488 -3.25012,7.75147 -2.16698,2.16691 -4.7508,3.25028 -7.75147,3.25012 l -34.50012,0 c -1.33279,1.6e-4 -1.99909,0.66646 -1.9989,1.9989 1.16965,19.33302 3.17109,38.08351 6.00433,56.25152 -1.9e-4,0.3358 0.16638,0.50365 0.49973,0.50354 0.33295,1.1e-4 0.58091,-0.16774 0.74386,-0.50354 4.83684,-11.33207 9.08895,-23.66625 12.75635,-37.00256 0.82885,-2.99566 2.61921,-5.32771 5.37109,-6.99615 2.75146,-1.66815 5.62646,-2.00257 8.62504,-1.00327 2.99812,0.9996 5.24752,2.91712 6.74819,5.75256 1.50022,2.83574 1.83337,5.75143 0.99946,8.74711 -7.83307,25.00417 -16.83321,46.50379 -27.00043,64.4989 -0.82927,1.33775 -0.99457,2.67289 -0.49591,4.00543 4.66389,16.16419 8.58031,24.24626 11.74927,24.24621 0.66608,5e-5 1.24973,-0.45772 1.75094,-1.37329 0.50078,-0.91548 1.00051,-3.16488 1.49918,-6.7482 0.49823,-3.58322 0.9153,-8.87419 1.25122,-15.87295 0.16762,-2.67022 1.33492,-4.71363 3.50189,-6.13022 2.16652,-1.41645 4.49857,-1.70764 6.99615,-0.87357 3.00067,1.00207 5.41791,2.83567 7.25174,5.5008 1.83336,2.66526 2.58231,5.58223 2.24686,8.75091 -2.16698,31.16356 -9.66667,46.74536 -22.49908,46.74526 -11.0018,1e-4 -21.00138,-9.9156 -29.99878,-29.74697 -0.16804,-0.49841 -0.54315,-0.7896 -1.12534,-0.87356 -0.58256,-0.0839 -0.95767,0.042 -1.12533,0.37765 -6.66827,8.16349 -13.75089,15.49533 -21.24787,21.99555 -2.5026,1.99892 -5.33692,2.87375 -8.50296,2.62451 -3.16635,-0.24921 -5.83282,-1.62504 -7.99942,-4.1275 -1.99905,-2.32949 -2.83192,-4.99469 -2.49863,-7.99561 0.33301,-3.00086 1.66688,-5.50076 4.00162,-7.49969 9.66374,-8.33634 18.82918,-18.50377 27.49634,-30.50232 0.83397,-1.33253 1.08574,-2.66513 0.75531,-3.9978 -6.33765,-24.66828 -10.42192,-54.16858 -12.25281,-88.50098 -1.6e-4,-1.66813 -0.75039,-2.50228 -2.25067,-2.50244 l -11.74927,0 c -1.50059,1.6e-4 -2.25082,0.75038 -2.25067,2.25067 l 0,81.25305 c -1.5e-4,0.49853 0.20839,0.87237 0.62561,1.12152 0.41693,0.24931 0.79077,0.20862 1.12152,-0.12207 1.5003,-0.83407 3.75097,-2.25059 6.75202,-4.24957 2.33443,-1.50037 4.70972,-1.7089 7.12585,-0.62561 2.41581,1.08345 3.95695,2.95774 4.62342,5.62286 1.66812,7.67016 -0.58255,13.50409 -6.75202,17.50183 -12.16649,8.16859 -25.16442,15.33513 -38.99383,21.49964 -3.33671,1.50048 -6.67075,1.37587 -10.00214,-0.37384 -3.33161,-1.74964 -5.41444,-4.45807 -6.24847,-8.12531 l -0.99946,-4.24957 c -0.33579,-1.33255 -1.16994,-1.99885 -2.50244,-1.9989 l -14.50348,0 c -1.33268,5e-5 -1.99898,0.66635 -1.9989,1.9989 l 0,36.49902 c -8e-5,1.50044 0.66622,2.41594 1.9989,2.74654 15.00438,4.5014 40.33903,6.7521 76.00403,6.7521 l 60.5011,0 c 3.00067,0 5.58449,1.1673 7.75147,3.5019 2.16651,2.3345 3.16596,5.0023 2.99835,8.0032 -0.16808,3.1636 -1.4193,5.7869 -3.75366,7.8697 -2.33483,2.0828 -5.08395,3.1242 -8.24738,3.1242 l -59.24988,0 c -35.16655,0 -61.62526,-2.4159 -79.37622,-7.2479 -17.75112,-4.8319 -31.95959,-13.916 -42.62543,-27.25218 -0.16788,-0.33059 -0.46034,-0.45393 -0.87738,-0.37003 -0.41711,0.084 -0.70703,0.29121 -0.86975,0.6218 z"
         id="path2819"
         style="font-variant:normal;font-stretch:normal;font-family:'Rounded M+ 1m medium';-inkscape-font-specification:'Rounded M+ 1m medium,'" />
      <path
         d="m 891.24146,1027.3591 c -27.16583,0 -46.03966,-6.7915 -56.62156,-20.3743 -10.58202,-13.58287 -15.873,-38.45849 -15.87295,-74.62695 -5e-5,-27.99977 0.83155,-60.99941 2.49481,-98.99902 0.1678,-3.82978 1.62755,-7.03666 4.37927,-9.62067 2.75161,-2.58363 5.95977,-3.79289 9.62448,-3.62778 3.66459,0.1655 6.74686,1.58202 9.24683,4.24957 2.49982,2.66794 3.66839,5.8354 3.50571,9.50242 -1.66837,37.50116 -2.50252,70.33295 -2.50244,98.49548 -8e-5,14.66885 0.83279,26.58595 2.49862,35.75134 1.66567,9.16548 4.49872,16.29006 8.49915,21.37375 4.00025,5.08374 8.66689,8.50043 13.99994,10.25009 5.33284,1.74967 12.24888,2.62457 20.74814,2.62447 31.33631,1e-4 56.42173,-21.08248 75.25634,-63.24764 1.33241,-3.16357 3.62377,-5.41297 6.87409,-6.7482 3.24991,-1.33506 6.4568,-1.41771 9.62066,-0.24795 3.33638,1.33268 5.71293,3.58208 7.12967,6.7482 1.41631,3.16627 1.45827,6.33374 0.12589,9.50241 -11.16964,26.33162 -25.2128,46.08029 -42.12952,59.24608 -16.91707,13.1658 -35.8761,19.7487 -56.87713,19.7487 z"
         id="path2821"
         style="font-variant:normal;font-stretch:normal;font-family:'Rounded M+ 1m medium';-inkscape-font-specification:'Rounded M+ 1m medium,'" />
      <path
         d="m 1072.493,873.61151 c -6.9988,11.00172 -15.2487,21.58368 -24.7498,31.74591 -2.1667,2.16686 -4.7086,3.08365 -7.6256,2.7504 -2.9169,-0.33305 -5.291,-1.7483 -7.122,-4.24576 -1.8361,-2.83294 -2.5457,-5.91648 -2.1286,-9.25064 0.4171,-3.33392 1.7929,-6.16824 4.1275,-8.50296 10.1674,-9.83161 19.1676,-20.74672 27.0004,-32.74536 0.3357,-0.33553 0.3776,-0.71192 0.1259,-1.12915 -0.2518,-0.41691 -0.6269,-0.62545 -1.1253,-0.62561 l -16.2506,0 c -3.0009,1.6e-4 -5.5848,-1.04125 -7.7515,-3.12424 -2.1668,-2.08266 -3.2501,-4.62451 -3.2501,-7.62558 0,-3.00072 1.0833,-5.58327 3.2501,-7.74765 2.1667,-2.16402 4.7506,-3.24612 7.7515,-3.24631 l 26.7486,0 c 1.5004,1.9e-4 2.2506,-0.75004 2.2507,-2.25067 l 0,-6.00433 c -1e-4,-3.667 1.2919,-6.75055 3.8757,-9.25064 2.5838,-2.4997 5.7093,-3.74965 9.3766,-3.74985 3.6671,2e-4 6.7506,1.25015 9.2506,3.74985 2.4998,2.50009 3.7498,5.58364 3.7498,9.25064 l 0,6.00433 c 0,1.50063 0.6663,2.25086 1.9989,2.25067 l 23.2468,0 c 3.0008,1.9e-4 5.5846,1.08229 7.7515,3.24631 2.1666,2.16438 3.25,4.74693 3.2501,7.74765 -1e-4,3.00107 -1.0835,5.54292 -3.2501,7.62558 -2.1669,2.08299 -4.7507,3.1244 -7.7515,3.12424 l -13.7482,0 c -0.3307,1.6e-4 -0.5379,0.16673 -0.6217,0.49972 -0.084,0.33331 0.039,0.66774 0.37,1.00327 7.1664,6.33255 13.5827,12.33179 19.2489,17.99774 2.3345,2.16689 3.5438,4.83336 3.6278,7.99942 0.084,3.16633 -0.9576,5.91672 -3.1242,8.25119 -1.999,2.16687 -4.5409,3.25025 -7.6256,3.25012 -3.0849,1.3e-4 -5.6268,-1.16717 -7.6256,-3.50189 -3.001,-3.33137 -7.7515,-8.24724 -14.2517,-14.74762 -0.3307,-0.33046 -0.6626,-0.41312 -0.9956,-0.24795 -0.3333,0.16544 -0.4998,0.41594 -0.4998,0.75149 l 0,22.75086 c 0,3.66222 -1.25,6.74322 -3.7498,9.24301 -2.5,2.5 -5.5835,3.74995 -9.2506,3.74984 -3.6673,1.1e-4 -6.7928,-1.24984 -9.3766,-3.74984 -2.5838,-2.49979 -3.8758,-5.58079 -3.8757,-9.24301 l 0,-21.50727 c -1e-4,-0.33047 -0.1666,-0.53773 -0.4997,-0.62179 -0.3332,-0.0838 -0.5837,-0.0418 -0.7515,0.12588 z m 150.2533,-20.24841 c 8.8346,11.50019 19.5005,22.58314 31.9977,33.2489 2.5022,2.33472 3.9619,5.08511 4.3792,8.25119 0.4169,3.16631 -0.3766,6.16593 -2.3803,8.99887 -1.8313,2.66531 -4.33,4.20645 -7.4959,4.62341 -3.1664,0.41718 -5.9168,-0.45765 -8.2512,-2.62451 -11.836,-11.00147 -21.5024,-21.25028 -28.9993,-30.74646 -0.3359,-0.33555 -0.6703,-0.46144 -1.0033,-0.37765 -0.3333,0.0841 -0.4999,0.29132 -0.4997,0.62179 l 0,20.25605 c -2e-4,3.66222 -1.2502,6.74322 -3.7499,9.24301 -2.5001,2.5 -5.5836,3.74995 -9.2506,3.74984 -3.6674,1.1e-4 -6.7916,-1.24984 -9.3727,-3.74984 -2.5815,-2.49979 -3.8721,-5.58079 -3.8719,-9.24301 l 0,-22.00318 c -2e-4,-0.33555 -0.1261,-0.58605 -0.3777,-0.75149 -0.2519,-0.16517 -0.5431,-0.1639 -0.8736,0.004 -8.835,10.66602 -18.3361,20.58168 -28.5034,29.74701 -2.3347,2.16686 -5.0851,3.08365 -8.2512,2.7504 -3.1663,-0.33305 -5.6649,-1.75084 -7.4959,-4.25339 -1.999,-2.49724 -2.7912,-5.32902 -2.3765,-8.49533 0.4144,-3.16608 1.8729,-5.83255 4.3754,-7.99942 10.8337,-9.33316 21.0825,-19.74981 30.7465,-31.25 0.834,-1.16968 0.5848,-1.7546 -0.7477,-1.75476 l -14.7476,0 c -3.001,1.6e-4 -5.5848,-1.04125 -7.7515,-3.12424 -2.1668,-2.08266 -3.2502,-4.62451 -3.2501,-7.62558 -1e-4,-3.00072 1.0833,-5.58327 3.2501,-7.74765 2.1667,-2.16402 4.7505,-3.24612 7.7515,-3.24631 l 26.2451,0 c 1.3375,1.9e-4 2.0064,-0.75004 2.0066,-2.25067 l 0,-6.00433 c -2e-4,-3.667 1.2904,-6.75055 3.8719,-9.25064 2.5811,-2.4997 5.7053,-3.74965 9.3727,-3.74985 3.667,2e-4 6.7505,1.25015 9.2506,3.74985 2.4997,2.50009 3.7497,5.58364 3.7499,9.25064 l 0,6.00433 c -2e-4,1.50063 0.75,2.25086 2.2506,2.25067 l 32.5013,0 c 3.0006,1.9e-4 5.5844,1.08229 7.7514,3.24631 2.1665,2.16438 3.2499,4.74693 3.2501,7.74765 -2e-4,3.00107 -1.0836,5.54292 -3.2501,7.62558 -2.167,2.08299 -4.7508,3.1244 -7.7514,3.12424 l -21.4997,0 c -0.3359,1.6e-4 -0.6283,0.2087 -0.8774,0.62561 -0.2494,0.41723 -0.2901,0.79362 -0.122,1.12915 z m -155.7541,62.74414 156.0058,0 c 2.8329,10e-5 5.3328,1.04278 7.4997,3.12805 2.1666,2.08546 3.25,4.54467 3.2502,7.37763 -2e-4,2.83313 -1.0836,5.33302 -3.2502,7.49969 -2.1669,2.16683 -4.6668,3.2502 -7.4997,3.25012 l -156.0058,0 c -2.8331,8e-5 -5.333,-1.08329 -7.4997,-3.25012 -2.1668,-2.16667 -3.2502,-4.66656 -3.2501,-7.49969 -1e-4,-2.83296 1.0833,-5.29217 3.2501,-7.37763 2.1667,-2.08527 4.6666,-3.12795 7.4997,-3.12805 z m 165.5044,107.00226 c -11.668,-8.3313 -25.1695,-17.0797 -40.5044,-26.24512 -3.1638,-2.00397 -5.1627,-4.88025 -5.9967,-8.62885 -0.8343,-3.74854 -0.168,-7.2072 1.9989,-10.37597 l 1.9989,-2.99835 c 0.3355,-0.33566 0.3775,-0.71077 0.1259,-1.12534 -0.252,-0.41449 -0.6271,-0.62175 -1.1254,-0.6218 l -24.498,0 c -1.3327,5e-5 -1.999,0.66634 -1.9989,1.99891 l 0,30.99822 c -1e-4,11.9985 -1.8337,19.4982 -5.5007,22.4991 -3.6674,3.0009 -13.0846,4.5013 -28.2517,4.5013 -5.1677,0 -13.0845,-0.2492 -23.7503,-0.7476 -3.001,-0.1679 -5.5848,-1.3352 -7.7515,-3.5019 -2.1668,-2.1668 -3.3315,-4.7506 -3.4942,-7.7515 -0.1679,-2.8331 0.7476,-5.249 2.7466,-7.2479 1.9988,-1.9989 4.4148,-2.917 7.2479,-2.7542 6.0017,0.3357 12.418,0.5035 19.2489,0.5035 6.0017,0 9.5023,-0.3331 10.5019,-0.9995 0.9993,-0.6662 1.4991,-3.0008 1.4992,-7.0037 l 0,-28.49582 c -10e-5,-1.33257 -0.6664,-1.99886 -1.9989,-1.99891 l -37.2467,0 c -1.1699,5e-5 -1.4217,0.4985 -0.7553,1.49537 l 2.7542,3.25012 c 2.4973,3.16877 3.6213,6.71135 3.3722,10.62774 -0.2493,3.91645 -1.8744,7.12333 -4.8752,9.62067 -12.1664,10.16743 -25.083,18.91833 -38.7497,26.25273 -3.0009,1.6683 -6.1264,2.0434 -9.3765,1.1254 -3.2502,-0.9181 -5.7908,-2.7937 -7.6218,-5.6267 -1.6683,-2.6652 -2.0434,-5.4983 -1.1253,-8.4992 0.918,-3.0009 2.7936,-5.2515 5.6266,-6.752 15.8335,-8.49911 30.3319,-18.58262 43.4952,-30.25053 0.8341,-0.82902 0.5849,-1.24355 -0.7477,-1.2436 l -40.4968,0 c -3.0009,5e-5 -5.5847,-1.08333 -7.7515,-3.25012 -2.1667,-2.1667 -3.2501,-4.75052 -3.2501,-7.75146 0,-3.00084 1.0834,-5.58466 3.2501,-7.75147 2.1668,-2.16668 4.7506,-3.25006 7.7515,-3.25012 l 195.4956,0 c 3.0007,6e-5 5.5845,1.08344 7.7515,3.25012 2.1665,2.16681 3.2499,4.75063 3.2501,7.75147 -2e-4,3.00094 -1.0836,5.58476 -3.2501,7.75146 -2.167,2.16679 -4.7508,3.25017 -7.7515,3.25012 l -42.2516,0 c -0.3308,5e-5 -0.4961,0.12466 -0.4959,0.37385 -2e-4,0.24926 0.084,0.4578 0.2518,0.62561 16.4996,9.66392 31.8322,19.57958 45.9976,29.74697 2.665,1.8311 4.2481,4.4136 4.7493,7.7477 0.5008,3.334 -0.1655,6.3349 -1.9989,9.0027 -1.8338,2.6677 -4.3757,4.2101 -7.6256,4.6272 -3.2503,0.4171 -6.208,-0.2925 -8.873,-2.1286 z"
         id="path2823"
         style="font-variant:normal;font-stretch:normal;font-family:'Rounded M+ 1m medium';-inkscape-font-specification:'Rounded M+ 1m medium,'" />
      <path
         d="m 1502.8671,1006.6147 c 2.253,2.3296 3.3796,5.0774 3.3798,8.2436 -2e-4,3.1662 -1.1255,5.9166 -3.376,8.2512 -2.2509,2.3346 -5.0419,3.5019 -8.3732,3.5019 l -199.0051,0 c -3.3316,0 -6.1227,-1.1673 -8.3733,-3.5019 -2.2507,-2.3346 -3.376,-5.085 -3.376,-8.2512 0,-3.1662 1.1253,-5.9153 3.376,-8.2474 2.2506,-2.332 5.0417,-3.498 8.3733,-3.498 l 18.0053,0 c 1.3326,0 1.9989,-0.7503 1.9989,-2.2507 l 0,-136.0016 c 0,-3.66705 1.2919,-6.79255 3.8758,-9.37653 2.5837,-2.58366 5.708,-3.87557 9.3727,-3.87573 3.6646,1.6e-4 6.7888,1.29207 9.3727,3.87573 2.5837,2.58398 3.8756,5.70948 3.8757,9.37653 l 0,136.0016 c -10e-5,1.5004 0.6662,2.2507 1.9989,2.2507 l 43.5028,0 c 1.5004,0 2.2506,-0.7503 2.2507,-2.2507 l 0,-172.00472 c -10e-5,-3.82976 1.2918,-6.99469 3.8757,-9.49478 2.5837,-2.4997 5.7092,-3.74965 9.3766,-3.74985 3.8298,2e-4 7.0367,1.29211 9.6206,3.87574 2.5837,2.58401 3.8756,5.70697 3.8758,9.36889 l 0,45.24994 c -2e-4,1.33783 0.75,2.00667 2.2506,2.00653 l 67.2531,0 c 3.3313,1.4e-4 6.0804,1.08351 8.2474,3.25012 2.1665,2.16688 3.2499,4.91601 3.2501,8.24738 -2e-4,3.33163 -1.0836,6.08075 -3.2501,8.24738 -2.167,2.16686 -4.9161,3.25023 -8.2474,3.25012 l -67.2531,0 c -1.5006,1.1e-4 -2.2508,0.75034 -2.2506,2.25067 l 0,99.50258 c -2e-4,1.5004 0.75,2.2507 2.2506,2.2507 l 75.7523,0 c 3.3313,0 6.1211,1.1673 8.3694,3.5018 z"
         id="path2825"
         style="font-variant:normal;font-stretch:normal;font-family:'Rounded M+ 1m medium';-inkscape-font-specification:'Rounded M+ 1m medium,'" />
    </g>
  </g>
</svg>
