<?xml version="1.0" encoding="UTF-8" standalone="no"?>
<!-- Created with Inkscape (http://www.inkscape.org/) -->
<svg
   xmlns:dc="http://purl.org/dc/elements/1.1/"
   xmlns:cc="http://creativecommons.org/ns#"
   xmlns:rdf="http://www.w3.org/1999/02/22-rdf-syntax-ns#"
   xmlns:svg="http://www.w3.org/2000/svg"
   xmlns="http://www.w3.org/2000/svg"
   xmlns:sodipodi="http://sodipodi.sourceforge.net/DTD/sodipodi-0.dtd"
   xmlns:inkscape="http://www.inkscape.org/namespaces/inkscape"
   width="150"
   height="295"
   id="svg4203"
   sodipodi:version="0.32"
   inkscape:version="0.46"
   version="1.0"
   sodipodi:docbase="D:\Documents and Settings\Administrator\デスクトップ\看板\sign\西日本\svg"
   sodipodi:docname="Japanese Road sign (Exit B).svg"
   inkscape:output_extension="org.inkscape.output.svg.inkscape">
  <defs
     id="defs4205">
    <inkscape:perspective
       sodipodi:type="inkscape:persp3d"
       inkscape:vp_x="0 : 315 : 1"
       inkscape:vp_y="0 : 1000 : 0"
       inkscape:vp_z="1500 : 315 : 1"
       inkscape:persp3d-origin="750 : 210 : 1"
       id="perspective9" />
    <inkscape:perspective
       id="perspective3163"
       inkscape:persp3d-origin="372.04724 : 350.78739 : 1"
       inkscape:vp_z="744.09448 : 526.18109 : 1"
       inkscape:vp_y="0 : 1000 : 0"
       inkscape:vp_x="0 : 526.18109 : 1"
       sodipodi:type="inkscape:persp3d" />
    <inkscape:perspective
       id="perspective2395"
       inkscape:persp3d-origin="372.04724 : 350.78739 : 1"
       inkscape:vp_z="744.09448 : 526.18109 : 1"
       inkscape:vp_y="0 : 1000 : 0"
       inkscape:vp_x="0 : 526.18109 : 1"
       sodipodi:type="inkscape:persp3d" />
    <inkscape:perspective
       id="perspective3843"
       inkscape:persp3d-origin="227.5 : 145 : 1"
       inkscape:vp_z="455 : 217.5 : 1"
       inkscape:vp_y="0 : 1000 : 0"
       inkscape:vp_x="0 : 217.5 : 1"
       sodipodi:type="inkscape:persp3d" />
    <inkscape:perspective
       id="perspective2404"
       inkscape:persp3d-origin="372.04724 : 350.78739 : 1"
       inkscape:vp_z="744.09448 : 526.18109 : 1"
       inkscape:vp_y="0 : 1000 : 0"
       inkscape:vp_x="0 : 526.18109 : 1"
       sodipodi:type="inkscape:persp3d" />
  </defs>
  <sodipodi:namedview
     id="base"
     pagecolor="#ffffff"
     bordercolor="#666666"
     borderopacity="1.0"
     gridtolerance="10000"
     guidetolerance="10"
     objecttolerance="10"
     inkscape:pageopacity="0.0"
     inkscape:pageshadow="2"
     inkscape:zoom="1.7220339"
     inkscape:cx="75"
     inkscape:cy="147.5"
     inkscape:document-units="px"
     inkscape:current-layer="layer1"
     width="1500px"
     height="630px"
     inkscape:window-width="1024"
     inkscape:window-height="712"
     inkscape:window-x="-4"
     inkscape:window-y="-4"
     showgrid="false"
     showguides="true"
     inkscape:guide-bbox="true" />
  <metadata
     id="metadata4208">
    <rdf:RDF>
      <cc:Work
         rdf:about="">
        <dc:format>image/svg+xml</dc:format>
        <dc:type
           rdf:resource="http://purl.org/dc/dcmitype/StillImage" />
      </cc:Work>
    </rdf:RDF>
  </metadata>
  <g
     inkscape:label="sign"
     inkscape:groupmode="layer"
     id="layer1">
    <rect
       style="fill:#005d35;fill-opacity:1;stroke:none;stroke-width:1;stroke-linecap:butt;stroke-linejoin:round;stroke-miterlimit:4;stroke-dasharray:none;stroke-opacity:1"
       id="rect_bg"
       width="150"
       height="65"
       x="0"
       y="230" />
    <rect
       style="opacity:1;fill:#ffffff;fill-opacity:1;fill-rule:nonzero;stroke:none;stroke-width:0.01;stroke-linecap:butt;stroke-linejoin:miter;marker:none;marker-start:none;marker-mid:none;marker-end:none;stroke-miterlimit:4;stroke-dasharray:none;stroke-dashoffset:0;stroke-opacity:1;visibility:visible;display:inline;overflow:visible;enable-background:accumulate"
       id="rect3169"
       width="48"
       height="61"
       x="2"
       y="232" />
    <rect
       y="3.8635761e-14"
       x="0"
       height="220"
       width="150"
       id="rect2401"
       style="fill:#005d35;fill-opacity:1;stroke:none;stroke-width:1;stroke-linecap:butt;stroke-linejoin:round;stroke-miterlimit:4;stroke-dasharray:none;stroke-opacity:1" />
    <path
       style="font-size:26px;font-style:normal;font-variant:normal;font-weight:normal;font-stretch:normal;text-align:start;line-height:125%;writing-mode:lr-tb;text-anchor:start;fill:#ffffff;fill-opacity:1;fill-rule:nonzero;stroke:none;stroke-width:1;stroke-linecap:butt;stroke-linejoin:round;marker:none;marker-start:none;marker-mid:none;marker-end:none;stroke-miterlimit:4;stroke-dashoffset:0;stroke-opacity:1;visibility:visible;display:inline;overflow:visible;enable-background:accumulate;font-family:GD-HighwayGothicJA-OTF;-inkscape-font-specification:GD-HighwayGothicJA-OTF"
       d="M 65.535937,48.037515 L 65.535937,63.587239 L 49.305557,63.587239 L 49.305557,42.330715 L 70.562097,42.330715 L 70.562097,21.231231 L 65.535937,21.231231 L 65.535937,37.356888 L 49.305557,37.356888 L 49.305557,18.456359 L 44.279387,18.456359 L 44.279387,37.356888 L 27.839597,37.356888 L 27.839597,21.231231 L 23.022837,21.231231 L 23.022837,42.330715 L 44.279387,42.330715 L 44.279387,63.587239 L 27.839597,63.587239 L 27.839597,48.037515 L 23.022837,48.037515 L 23.022837,68.403999 L 70.562097,68.403999 L 70.562097,48.037515 L 65.535937,48.037515 z"
       id="path2448" />
    <path
       id="path2446"
       style="font-size:26px;font-style:normal;font-variant:normal;font-weight:normal;font-stretch:normal;text-align:start;line-height:125%;writing-mode:lr-tb;text-anchor:start;fill:#ffffff;fill-opacity:1;fill-rule:nonzero;stroke:none;stroke-width:1;stroke-linecap:butt;stroke-linejoin:round;marker:none;marker-start:none;marker-mid:none;marker-end:none;stroke-miterlimit:4;stroke-dashoffset:0;stroke-opacity:1;visibility:visible;display:inline;overflow:visible;enable-background:accumulate;font-family:GD-HighwayGothicJA-OTF;-inkscape-font-specification:GD-HighwayGothicJA-OTF"
       d="M 78.717877,20.812388 L 78.717877,68.456359 L 126.36185,68.456359 L 126.36185,20.812388 L 78.717877,20.812388 z M 83.429917,25.524431 L 121.6498,25.524431 L 121.6498,63.744309 L 83.429917,63.744309 L 83.429917,25.524431 z" />
    <path
       style="font-size:15px;font-style:normal;font-variant:normal;font-weight:normal;font-stretch:normal;text-align:start;line-height:125%;writing-mode:lr-tb;text-anchor:start;fill:#ffffff;fill-opacity:1;fill-rule:nonzero;stroke:none;stroke-width:1;stroke-linecap:butt;stroke-linejoin:round;marker:none;marker-start:none;marker-mid:none;marker-end:none;stroke-miterlimit:4;stroke-dashoffset:0;stroke-opacity:1;visibility:visible;display:inline;overflow:visible;enable-background:accumulate;font-family:GD-HighwayGothicJA-OTF;-inkscape-font-specification:GD-HighwayGothicJA-OTF"
       d="M 40.514907,102.33858 L 53.792807,102.33858 L 53.792807,105.74524 L 36.357177,105.74524 L 36.357177,80.74523 L 53.417267,80.74523 L 53.417267,84.1787 L 40.514907,84.1787 L 40.514907,90.992 L 51.888287,90.992 L 51.888287,94.39866 L 40.514907,94.39866 L 40.514907,102.33858 z M 78.461557,105.74524 L 73.338167,105.74524 L 67.651457,96.35681 L 61.964757,105.74524 L 56.868207,105.74524 L 65.478717,93.08428 L 57.431517,80.74523 L 62.340307,80.74523 L 67.651457,89.94587 L 72.962627,80.74523 L 77.898247,80.74523 L 69.851047,93.08428 L 78.461557,105.74524 z M 86.828877,105.74524 L 82.671147,105.74524 L 82.671147,80.74523 L 86.828877,80.74523 L 86.828877,105.74524 z M 110.34067,80.74523 L 110.34067,84.1787 L 102.7763,84.1787 L 102.7763,105.74524 L 98.591764,105.74524 L 98.591764,84.1787 L 91.027377,84.1787 L 91.027377,80.74523 L 110.34067,80.74523 z"
       id="text3207" />
    <path
       style="font-size:48px;font-style:normal;font-variant:normal;font-weight:normal;font-stretch:normal;text-align:start;line-height:125%;writing-mode:lr-tb;text-anchor:start;fill:#005d35;fill-opacity:1;fill-rule:nonzero;stroke:none;stroke-width:1;stroke-linecap:butt;stroke-linejoin:round;marker:none;marker-start:none;marker-mid:none;marker-end:none;stroke-miterlimit:4;stroke-dashoffset:0;stroke-opacity:1;visibility:visible;display:inline;overflow:visible;enable-background:accumulate;font-family:GD-HighwayGothicJA-OTF;-inkscape-font-specification:GD-HighwayGothicJA-OTF"
       d="M 36.14977,267.44872 L 36.14977,271.59906 L 32.45696,271.59906 L 32.45696,278.2984 L 27.391599,278.2984 L 27.391599,271.59906 L 13.535389,271.59906 L 13.535389,266.53368 L 26.443887,248.2984 L 32.45696,248.2984 L 32.45696,267.44872 L 36.14977,267.44872 z M 17.554997,267.44872 L 27.391599,267.44872 L 27.391599,253.6252 L 17.554997,267.44872 z"
       id="text2416" />
    <path
       style="font-size:90px;font-style:normal;font-variant:normal;font-weight:normal;font-stretch:normal;text-align:start;line-height:125%;writing-mode:lr-tb;text-anchor:start;fill:#ffffff;fill-opacity:1;fill-rule:nonzero;stroke:none;stroke-width:1;stroke-linecap:butt;stroke-linejoin:round;marker:none;marker-start:none;marker-mid:none;marker-end:none;stroke-miterlimit:4;stroke-dashoffset:0;stroke-opacity:1;visibility:visible;display:inline;overflow:visible;enable-background:accumulate;font-family:GD-HighwayGothicJA-OTF;-inkscape-font-specification:GD-HighwayGothicJA-OTF"
       d="M 28.613024,117.23927 L 42.189974,157.08752 L 52.452998,145.17785 L 112.29235,196.26653 L 119.55469,187.7661 L 59.715333,136.67741 L 69.978374,124.76776 L 28.613024,117.23927 z"
       id="text2420" />
    <path
       id="path2440"
       style="font-size:45px;font-style:normal;font-variant:normal;font-weight:normal;font-stretch:normal;text-align:start;line-height:125%;writing-mode:lr-tb;text-anchor:start;fill:#ffffff;fill-opacity:1;fill-rule:nonzero;stroke:none;stroke-width:1;stroke-linecap:butt;stroke-linejoin:round;marker:none;marker-start:none;marker-mid:none;marker-end:none;stroke-miterlimit:4;stroke-dashoffset:0;stroke-opacity:1;visibility:visible;display:inline;overflow:visible;enable-background:accumulate;font-family:GD-HighwayGothicJA-OTF;-inkscape-font-specification:GD-HighwayGothicJA-OTF"
       d="M 69.578177,237.35421 L 69.578177,242.45144 L 65.432831,242.45144 L 65.432831,245.21501 L 69.578177,245.21501 L 69.578177,246.13619 C 69.564146,247.14858 69.346541,248.40602 68.925386,249.90851 C 68.504212,251.41104 67.963626,252.91869 67.303637,254.43144 C 66.643642,255.94419 65.948393,257.2221 65.217887,258.26517 L 67.520857,259.76976 C 67.875252,259.27528 68.225812,258.72128 68.572546,258.10779 C 68.919266,257.49432 69.254471,256.84053 69.578177,256.14643 L 69.578177,266.83221 L 72.341737,266.83221 L 72.341737,251.90896 L 73.784927,253.59781 L 75.872951,251.81685 L 72.341737,247.6101 L 72.341737,245.21501 L 75.412362,245.21501 L 75.412362,242.45144 L 72.341737,242.45144 L 72.341737,237.35421 L 69.578177,237.35421 z M 81.553605,237.20069 L 78.790047,237.20069 L 78.790047,239.65719 L 76.333546,239.65719 L 76.333546,242.42074 L 78.790047,242.42074 L 78.790047,244.57018 L 76.333546,244.57018 L 76.333546,247.33375 L 83.703045,247.33375 L 83.703045,249.32965 L 76.333546,249.32965 L 76.333546,261.61215 L 93.836105,261.61215 L 93.836105,249.32965 L 86.466605,249.32965 L 86.466605,247.33375 L 93.836105,247.33375 L 93.836105,244.57018 L 91.379615,244.57018 L 91.379615,242.42074 L 93.836105,242.42074 L 93.836105,239.65719 L 91.379615,239.65719 L 91.379615,237.20069 L 88.616045,237.20069 L 88.616045,239.65719 L 81.553605,239.65719 L 81.553605,237.20069 z M 91.072535,258.84858 L 86.466605,258.84858 L 86.466605,256.85267 L 91.072535,256.85267 L 91.072535,258.84858 z M 79.097106,258.84858 L 79.097106,256.85267 L 83.703045,256.85267 L 83.703045,258.84858 L 79.097106,258.84858 z M 91.072535,252.0932 L 91.072535,254.08912 L 86.466605,254.08912 L 86.466605,252.0932 L 91.072535,252.0932 z M 79.097106,252.0932 L 83.703045,252.0932 L 83.703045,254.08912 L 79.097106,254.08912 L 79.097106,252.0932 z M 81.553605,244.57018 L 81.553605,242.42074 L 88.616045,242.42074 L 88.616045,244.57018 L 81.553605,244.57018 z M 88.339695,263.57735 C 89.036305,264.35651 89.830835,265.02437 90.723255,265.58093 C 91.615625,266.13747 92.663485,266.60575 93.866815,266.98575 L 94.695885,264.34499 C 93.761865,264.02834 92.935355,263.6637 92.216345,263.25109 C 91.497295,262.83847 90.870365,262.34335 90.335595,261.76567 L 88.339695,263.57735 z M 81.829965,263.57735 L 79.834061,261.76567 C 79.299242,262.34335 78.672327,262.83847 77.953301,263.25109 C 77.234252,263.6637 76.407741,264.02834 75.473772,264.34499 L 76.302837,266.98575 C 77.506127,266.60575 78.553977,266.13747 79.446393,265.58093 C 80.338777,265.02437 81.133305,264.35651 81.829965,263.57735 L 81.829965,263.57735 z" />
    <path
       id="path2422"
       style="font-size:45px;font-style:normal;font-variant:normal;font-weight:normal;font-stretch:normal;text-align:start;line-height:125%;writing-mode:lr-tb;text-anchor:start;fill:#ffffff;fill-opacity:1;fill-rule:nonzero;stroke:none;stroke-width:1;stroke-linecap:butt;stroke-linejoin:round;marker:none;marker-start:none;marker-mid:none;marker-end:none;stroke-miterlimit:4;stroke-dashoffset:0;stroke-opacity:1;visibility:visible;display:inline;overflow:visible;enable-background:accumulate;font-family:GD-HighwayGothicJA-OTF;-inkscape-font-specification:GD-HighwayGothicJA-OTF"
       d="M 112.47829,255.01031 L 112.47829,257.77386 L 133.81914,257.77386 L 133.81914,255.01031 L 130.44143,255.01031 L 130.44143,246.87314 L 132.89794,246.87314 L 132.89794,244.10959 L 117.39129,244.10959 L 117.39129,243.15768 C 119.22404,242.94085 121.23914,242.5148 123.43658,241.87954 C 125.63399,241.24432 127.61068,240.41143 129.36674,239.38083 L 127.98493,237.01645 C 126.74869,237.73674 125.31804,238.36034 123.69289,238.88725 C 122.06773,239.41421 120.48009,239.82173 118.93004,240.10981 C 117.37989,240.39795 116.09933,240.54389 115.08828,240.54767 L 114.62773,240.54767 L 114.62773,255.01031 L 112.47829,255.01031 z M 108.33293,254.54971 L 108.33293,254.91818 C 108.35874,255.01866 108.32423,255.61951 108.22943,256.72075 C 108.13468,257.822 107.82493,259.12797 107.30029,260.63864 C 106.77564,262.14931 105.88137,263.56901 104.61748,264.89771 L 106.55197,267.01645 C 108.09674,265.32323 109.19004,263.56123 109.83183,261.73042 C 110.47364,259.8996 110.85274,258.33322 110.96914,257.03122 C 111.08549,255.72925 111.12794,255.0249 111.09649,254.91818 L 111.09649,254.54971 L 108.33293,254.54971 z M 106.39844,237.44632 L 104.83242,239.71859 L 109.49978,242.94275 L 111.06578,240.67048 L 106.39844,237.44632 z M 106.39844,245.58349 L 104.83242,247.85575 L 109.49978,251.07991 L 111.06578,248.80765 L 106.39844,245.58349 z M 112.44759,264.09935 L 113.64514,266.86291 C 114.77674,266.30187 115.88348,265.45874 116.96524,264.33349 C 118.04698,263.20823 118.94644,261.85075 119.66354,260.26106 L 117.08423,259.09423 C 116.73364,259.84015 116.17578,260.71271 115.41074,261.71194 C 114.64564,262.71117 113.65788,263.50698 112.44759,264.09935 L 112.44759,264.09935 z M 133.88053,264.09935 C 132.67018,263.50698 131.68244,262.71117 130.91738,261.71194 C 130.15228,260.71271 129.59444,259.84015 129.24389,259.09423 L 126.66458,260.26106 C 127.38169,261.85075 128.28108,263.20823 129.36289,264.33349 C 130.44463,265.45874 131.55133,266.30187 132.68298,266.86291 L 133.88053,264.09935 z M 117.39129,255.01031 L 117.39129,246.87314 L 127.67789,246.87314 L 127.67789,255.01031 L 117.39129,255.01031 z" />
    <path
       style="font-size:16px;font-style:normal;font-variant:normal;font-weight:normal;font-stretch:normal;text-align:start;line-height:125%;writing-mode:lr-tb;text-anchor:start;fill:#ffffff;fill-opacity:1;fill-rule:nonzero;stroke:none;stroke-width:0.01;stroke-linecap:butt;stroke-linejoin:miter;stroke-miterlimit:4;stroke-dashoffset:0;stroke-opacity:1;marker:none;marker-start:none;marker-mid:none;marker-end:none;visibility:visible;display:inline;overflow:visible;enable-background:accumulate;font-family:GD-HighwayGothicJA-OTF;-inkscape-font-specification:GD-HighwayGothicJA-OTF"
       d="M 68.578008,272.09285 L 64.49806,281.06874 L 64.49806,287.00466 L 62.242089,287.00466 L 62.242089,281.06874 L 58.162142,272.09285 L 60.770108,272.09285 L 63.362075,278.76477 L 65.970041,272.09285 L 68.578008,272.09285 z M 74.328085,287.34066 C 73.633867,287.34342 72.95121,287.14945 72.280111,286.75874 C 71.609006,286.36803 71.050792,285.76399 70.605466,284.94661 C 70.160137,284.12924 69.929029,283.08195 69.912142,281.80473 C 69.92903,280.53275 70.160138,279.48921 70.605466,278.6741 C 71.050792,277.85901 71.609006,277.25635 72.280111,276.86613 C 72.95121,276.47592 73.633867,276.28214 74.328085,276.2848 C 75.022292,276.28214 75.70495,276.47592 76.376058,276.86613 C 77.047153,277.25635 77.605367,277.85901 78.050703,278.6741 C 78.496022,279.48921 78.72713,280.53275 78.744028,281.80473 C 78.72713,283.08195 78.496022,284.12924 78.050704,284.94661 C 77.605367,285.76399 77.047153,286.36803 76.376058,286.75874 C 75.70495,287.14945 75.022292,287.34342 74.328085,287.34066 L 74.328085,287.34066 z M 74.328085,285.42068 C 75.012404,285.41102 75.53973,285.09035 75.910064,284.45869 C 76.280386,283.82704 76.467717,282.94238 76.472057,281.80473 C 76.467717,280.67475 76.280386,279.79476 75.910064,279.16476 C 75.539729,278.53478 75.012403,278.21478 74.328085,278.20478 C 73.643756,278.21478 73.11643,278.53478 72.746105,279.16476 C 72.375773,279.79476 72.188443,280.67475 72.184113,281.80473 C 72.188443,282.94238 72.375774,283.82704 72.746105,284.4587 C 73.11643,285.09035 73.643756,285.41102 74.328085,285.42068 L 74.328085,285.42068 z M 85.987566,287.00466 L 83.443599,282.54072 L 82.483611,283.7887 L 82.483611,287.00466 L 80.339639,287.00466 L 80.339639,272.09285 L 82.483611,272.09285 L 82.483611,281.02074 L 85.539572,276.6208 L 88.131538,276.6208 L 84.803581,280.86074 L 88.467534,287.00466 L 85.987566,287.00466 z M 94.046835,287.34066 C 93.352617,287.34342 92.66996,287.14945 91.998861,286.75874 C 91.327756,286.36803 90.769542,285.76399 90.324216,284.94661 C 89.878887,284.12924 89.647779,283.08195 89.630892,281.80473 C 89.64778,280.53275 89.878888,279.48921 90.324216,278.6741 C 90.769542,277.85901 91.327756,277.25635 91.998861,276.86613 C 92.66996,276.47592 93.352617,276.28214 94.046835,276.2848 C 94.741042,276.28214 95.4237,276.47592 96.094808,276.86613 C 96.765903,277.25635 97.324117,277.85901 97.769453,278.6741 C 98.214772,279.48921 98.44588,280.53275 98.462778,281.80473 C 98.44588,283.08195 98.214772,284.12924 97.769454,284.94661 C 97.324117,285.76399 96.765903,286.36803 96.094808,286.75874 C 95.4237,287.14945 94.741042,287.34342 94.046835,287.34066 L 94.046835,287.34066 z M 94.046835,285.42068 C 94.731154,285.41102 95.25848,285.09035 95.628814,284.45869 C 95.999136,283.82704 96.186467,282.94238 96.190807,281.80473 C 96.186467,280.67475 95.999136,279.79476 95.628814,279.16476 C 95.258479,278.53478 94.731153,278.21478 94.046835,278.20478 C 93.362506,278.21478 92.83518,278.53478 92.464855,279.16476 C 92.094523,279.79476 91.907193,280.67475 91.902863,281.80473 C 91.907193,282.94238 92.094524,283.82704 92.464855,284.4587 C 92.83518,285.09035 93.362506,285.41102 94.046835,285.42068 L 94.046835,285.42068 z M 104.57033,276.2848 C 105.58664,276.29681 106.34997,276.61281 106.8603,277.23279 C 107.37062,277.85279 107.62595,278.70478 107.62629,279.78876 L 107.62629,287.00466 L 105.48232,287.00466 L 105.48232,280.01275 C 105.48165,279.5431 105.36698,279.14644 105.13832,278.82277 C 104.90965,278.49911 104.57099,278.33045 104.12234,278.31677 C 103.59434,278.32678 103.14634,278.53478 102.77835,278.94077 C 102.41036,279.34677 102.21836,279.89076 102.20236,280.57275 L 102.20236,287.00466 L 100.05839,287.00466 L 100.05839,272.09285 L 102.20236,272.09285 L 102.20236,277.80478 C 102.51802,277.34946 102.87868,276.98413 103.28435,276.70879 C 103.69,276.43347 104.11866,276.29214 104.57033,276.2848 L 104.57033,276.2848 z M 117.48054,287.00466 L 115.11257,287.00466 L 114.93657,285.82068 C 114.62623,286.255 114.2429,286.61433 113.78658,286.89866 C 113.33025,287.18299 112.79092,287.33032 112.1686,287.34066 C 111.05895,287.32266 110.28629,287.02266 109.85063,286.44067 C 109.41497,285.85868 109.20631,285.10269 109.22464,284.1727 C 109.24597,283.26905 109.5713,282.53639 110.20063,281.97473 C 110.82995,281.41307 111.63527,281.02041 112.6166,280.79674 C 113.55358,280.58208 114.15557,280.36742 114.42257,280.15275 C 114.68957,279.93809 114.80756,279.66743 114.77657,279.34076 C 114.79323,279.03677 114.7039,278.75678 114.50857,278.50077 C 114.31324,278.24478 113.91191,278.10878 113.30459,278.09278 C 112.69259,278.10412 112.2726,278.27745 112.04461,278.61277 C 111.8166,278.94811 111.70861,279.37743 111.72061,279.90075 L 109.57664,279.90075 C 109.59797,278.71411 109.9513,277.81546 110.63662,277.20479 C 111.32195,276.59414 112.21127,276.28748 113.30459,276.2848 C 114.44224,276.28914 115.32689,276.53247 115.95855,277.01479 C 116.59021,277.49713 116.91087,278.19245 116.92054,279.10076 C 116.92053,280.05609 116.92053,281.08141 116.92054,282.17672 C 116.92053,283.27205 116.92053,284.12937 116.92054,284.74869 C 116.92287,285.29768 116.9742,285.74368 117.07454,286.08667 C 117.17486,286.42967 117.3102,286.73566 117.48054,287.00466 L 117.48054,287.00466 z M 112.8566,285.42068 C 113.32858,285.41868 113.76058,285.25469 114.15258,284.92869 C 114.54457,284.60269 114.75256,284.1267 114.77657,283.50071 C 114.77656,283.21671 114.77656,282.91272 114.77657,282.58872 C 114.77656,282.26473 114.77656,281.94473 114.77657,281.62873 C 114.58757,281.82507 114.31357,281.9884 113.95458,282.11873 C 113.59558,282.24906 113.22959,282.36839 112.8566,282.47672 C 112.29826,282.64539 111.91094,282.86005 111.69461,283.12071 C 111.47828,283.38138 111.37494,283.73204 111.38461,284.1727 C 111.38194,284.62369 111.49928,284.94569 111.73661,285.13869 C 111.97394,285.33168 112.34726,285.42568 112.8566,285.42068 L 112.8566,285.42068 z M 128.56976,276.2848 C 129.5884,276.29681 130.33506,276.61281 130.80973,277.23279 C 131.28438,277.85279 131.51904,278.70478 131.51372,279.78876 L 131.51372,287.00466 L 129.36975,287.00466 L 129.36975,280.01275 C 129.37474,279.5431 129.28074,279.14644 129.08776,278.82277 C 128.89475,278.49911 128.57275,278.33045 128.12177,278.31677 C 127.60076,278.32678 127.15477,278.53478 126.78378,278.94077 C 126.41278,279.34677 126.21878,279.89076 126.20179,280.57275 L 126.20179,287.00466 L 124.05782,287.00466 L 124.05782,280.01275 C 124.06181,279.5431 123.96582,279.14644 123.76982,278.82277 C 123.57382,278.49911 123.25383,278.33045 122.80984,278.31677 C 122.28184,278.32678 121.83384,278.53478 121.46585,278.94077 C 121.09786,279.34677 120.90586,279.89076 120.88986,280.57275 L 120.88986,287.00466 L 118.74589,287.00466 L 118.74589,276.6208 L 120.77786,276.6208 L 120.82586,277.86878 C 121.14419,277.38279 121.51552,276.9988 121.93985,276.71679 C 122.36417,276.43481 122.8035,276.29081 123.25783,276.2848 C 123.99015,276.28814 124.57747,276.44947 125.01981,276.76879 C 125.46213,277.08813 125.78146,277.54546 125.9778,278.14078 C 126.29578,277.59446 126.67978,277.15113 127.12978,276.81079 C 127.57977,276.47047 128.05976,276.29514 128.56976,276.2848 L 128.56976,276.2848 z M 141.35554,287.00466 L 138.98757,287.00466 L 138.81157,285.82068 C 138.50123,286.255 138.1179,286.61433 137.66158,286.89866 C 137.20525,287.18299 136.66592,287.33032 136.0436,287.34066 C 134.93395,287.32266 134.16129,287.02266 133.72563,286.44067 C 133.28997,285.85868 133.08131,285.10269 133.09964,284.1727 C 133.12097,283.26905 133.4463,282.53639 134.07563,281.97473 C 134.70495,281.41307 135.51027,281.02041 136.4916,280.79674 C 137.42858,280.58208 138.03057,280.36742 138.29757,280.15275 C 138.56457,279.93809 138.68256,279.66743 138.65157,279.34076 C 138.66823,279.03677 138.5789,278.75678 138.38357,278.50077 C 138.18824,278.24478 137.78691,278.10878 137.17959,278.09278 C 136.56759,278.10412 136.1476,278.27745 135.91961,278.61277 C 135.6916,278.94811 135.58361,279.37743 135.59561,279.90075 L 133.45164,279.90075 C 133.47297,278.71411 133.8263,277.81546 134.51162,277.20479 C 135.19695,276.59414 136.08627,276.28748 137.17959,276.2848 C 138.31724,276.28914 139.20189,276.53247 139.83355,277.01479 C 140.46521,277.49713 140.78587,278.19245 140.79554,279.10076 C 140.79553,280.05609 140.79553,281.08141 140.79554,282.17672 C 140.79553,283.27205 140.79553,284.12937 140.79554,284.74869 C 140.79787,285.29768 140.8492,285.74368 140.94954,286.08667 C 141.04986,286.42967 141.1852,286.73566 141.35554,287.00466 L 141.35554,287.00466 z M 136.7316,285.42068 C 137.20358,285.41868 137.63558,285.25469 138.02758,284.92869 C 138.41957,284.60269 138.62756,284.1267 138.65157,283.50071 C 138.65156,283.21671 138.65156,282.91272 138.65157,282.58872 C 138.65156,282.26473 138.65156,281.94473 138.65157,281.62873 C 138.46257,281.82507 138.18857,281.9884 137.82958,282.11873 C 137.47058,282.24906 137.10459,282.36839 136.7316,282.47672 C 136.17326,282.64539 135.78594,282.86005 135.56961,283.12071 C 135.35328,283.38138 135.24994,283.73204 135.25961,284.1727 C 135.25694,284.62369 135.37428,284.94569 135.61161,285.13869 C 135.84894,285.33168 136.22226,285.42568 136.7316,285.42068 L 136.7316,285.42068 z"
       id="text2476" />
  </g>
</svg>
