<?xml version="1.0" encoding="UTF-8" standalone="no"?>
<!DOCTYPE svg PUBLIC "-//W3C//DTD SVG 1.1//EN" "http://www.w3.org/Graphics/SVG/1.1/DTD/svg11.dtd">
<svg height="500.34" width="500.34" xmlns="http://www.w3.org/2000/svg">
<path d="m496.89 242.34c4.332 4.332 4.332 11.339 0 15.671l-238.88 238.88c-4.332 4.332-11.339 4.332-15.671 0l-238.89-238.88c-4.332-4.332-4.332-11.339-0.00001-15.671l238.89-238.89c4.332-4.3319 11.339-4.3319 15.671 0.00001z" fill="#fcdc0f"/>
<path d="m250.17 12.232-237.94 237.94 237.94 237.94 237.94-237.94zm16.734 30.875 190.33 190.33c9.2596 9.2596 9.2596 24.209 0.00001 33.469l-190.32 190.33c-9.2596 9.2596-24.209 9.2596-33.469 0l-190.33-190.33c-9.2596-9.2596-9.2596-24.209 0-33.469l190.33-190.33c9.2596-9.2597 24.209-9.2596 33.469 0.00002z"/>
<path d="m377.03 303.08h-68.324l-0.34796-10.598c-0.0327-1.899-1.449-4.2473-3.1242-5.1662l-2.7567-1.5715c-1.654-0.93932-3.3284 2.7771-5.0028 3.6551l-7.5962-0.34795c-1.6948 0.87887-3.165 3.1446-3.3284 5.105l-0.61258 8.9234h-8.9643l-51.682-147.57c3.3693-0.9197 5.9422-4.0635 5.9422-7.9433 0-4.6148-3.5122-8.3313-7.8616-8.3313-1.2448 0-2.4095 0.36756-3.4305 0.96055l-4.4311-12.558-102.02 185.08h273.36l-9.8219-9.6381"/>
<path d="m276.69 255.01c5.2887 0 9.5973-4.2473 9.5973-9.4339s-4.3086-9.4135-9.5973-9.4135c-5.3092 0-9.5973 4.2269-9.5973 9.4135s4.2881 9.4339 9.5973 9.4339"/>
<path d="m254.65 198.91c5.0028 0 9.0255-3.9002 9.0255-8.7396 0-4.8395-4.0227-8.7805-9.0255-8.7805s-9.046 3.941-9.046 8.7805 4.0431 8.7396 9.046 8.7396"/>
<g stroke="#000" stroke-width="2.1441" fill="none">
	<path d="m247.81 168.65 4.7578 9.536"/>
	<path d="m251.53 168.18 4.7578 9.5564"/>
	<path d="m240.3 174.02 4.7578 9.5156"/>
	<path d="m242.89 171.45 4.7578 9.5565"/>
	<path d="m269.4 222.87 4.7578 9.5564"/>
	<path d="m273.11 222.44 4.7578 9.5156"/>
	<path d="m260.31 229.38 4.7578 9.5156"/>
	<path d="m262.9 226.81 4.7578 9.5564"/>
</g>
</svg>
