<?xml version="1.0" encoding="UTF-8" standalone="no"?>
<!-- Created with Inkscape (http://www.inkscape.org/) -->

<svg
   xmlns:svg="http://www.w3.org/2000/svg"
   xmlns="http://www.w3.org/2000/svg"
   version="1.1"
   width="250"
   height="830"
   id="svg2">
  <defs
     id="defs4" />
  <g
     id="layer1">
    <rect
       width="250"
       height="830"
       x="0"
       y="0"
       id="rect2832"
       style="color:#000000;fill:#ffffff;fill-opacity:1;fill-rule:nonzero;stroke:none;stroke-width:1;marker:none;visibility:visible;display:inline;overflow:visible;enable-background:accumulate" />
    <rect
       width="220"
       height="800"
       rx="5"
       ry="5"
       x="15"
       y="15"
       id="rect2830"
       style="color:#000000;fill:#ffffff;fill-opacity:1;fill-rule:nonzero;stroke:#0566ae;stroke-width:6;stroke-linecap:round;stroke-linejoin:round;stroke-miterlimit:4;stroke-opacity:1;stroke-dasharray:none;stroke-dashoffset:261;marker:none;visibility:visible;display:inline;overflow:visible;enable-background:accumulate" />
    <g
       id="text3644"
       style="font-size:40px;font-style:normal;font-weight:normal;text-align:center;text-anchor:middle;fill:#0566ae;fill-opacity:1;stroke:none;font-family:'Rounded M+ 1m medium';-inkscape-font-specification:'Rounded M+ 1m medium'">
      <path
         d="m 70.372635,184.45847 c 10.998501,-7.2998 18.698079,-15.17485 23.098755,-23.62519 4.400584,-8.45028 6.6009,-19.5251 6.60095,-33.22448 l 0,-5.55268 c -5e-5,-0.79949 -0.39983,-1.19927 -1.199339,-1.19934 l -36.149597,0 c -1.901258,7e-5 -3.527081,-0.64996 -4.877472,-1.95007 -1.350412,-1.29998 -2.025612,-2.95022 -2.025604,-4.95072 -8e-6,-2.00035 0.675192,-3.65059 2.025604,-4.95071 1.350391,-1.29997 2.976214,-1.94999 4.877472,-1.95007 l 50.248716,0 c 0.9002,8e-5 1.35034,-0.44853 1.35041,-1.34583 l 0,-14.250182 c -7e-5,-0.900172 -0.45021,-1.350306 -1.35041,-1.350403 l -39.898679,0 c -1.901269,9.7e-5 -3.501915,-0.649927 -4.801941,-1.950073 -1.300069,-1.299949 -1.950092,-2.900594 -1.950074,-4.801941 -1.8e-5,-1.90114 0.650005,-3.501022 1.950074,-4.799652 1.300026,-1.298413 2.900672,-1.947674 4.801941,-1.947785 l 39.898679,0 c 0.9002,1.11e-4 1.35034,-0.450023 1.35041,-1.350402 l 0,-4.650879 c -7e-5,-2.300907 0.82466,-4.250978 2.47421,-5.85022 1.6494,-1.598997 3.5743,-2.398557 5.77469,-2.398682 2.20024,1.25e-4 4.12513,0.799685 5.77469,2.398682 1.64939,1.599242 2.47412,3.549313 2.47421,5.85022 l 0,4.650879 c -9e-5,0.900379 0.45005,1.350513 1.3504,1.350402 l 39.89868,0 c 1.90112,1.11e-4 3.50177,0.649372 4.80194,1.947785 1.29992,1.29863 1.94995,2.898512 1.95008,4.799652 -1.3e-4,1.901347 -0.65016,3.501992 -1.95008,4.801941 -1.30017,1.300146 -2.90082,1.95017 -4.80194,1.950073 l -39.89868,0 c -0.90035,9.7e-5 -1.35049,0.450231 -1.3504,1.350403 l 0,14.250182 c -9e-5,0.8973 0.45005,1.34591 1.3504,1.34583 l 50.24872,0 c 1.90111,8e-5 3.52693,0.6501 4.87747,1.95007 1.35026,1.30012 2.02546,2.95036 2.02561,4.95071 -1.5e-4,2.0005 -0.67535,3.65074 -2.02561,4.95072 -1.35054,1.30011 -2.97636,1.95014 -4.87747,1.95007 l -30.14832,0 c -0.79966,7e-5 -1.19944,0.39985 -1.19934,1.19934 l 0,55.05066 c -1e-4,9.8999 -1.07508,15.9996 -3.22494,18.2991 -2.15006,2.29949 -7.82556,3.44924 -17.02652,3.44925 -2.49947,-1e-5 -6.44844,-0.14954 -11.84693,-0.44861 -2.00202,-0.10071 -3.67819,-0.85068 -5.02853,-2.2499 -1.35047,-1.39924 -2.07526,-3.04872 -2.17438,-4.94843 -0.0992,-1.89972 0.50119,-3.4996 1.8013,-4.79965 1.29998,-1.30005 2.8991,-1.90124 4.79737,-1.80359 4.50126,0.30213 7.80174,0.45319 9.90142,0.45319 3.50029,0 5.5503,-0.35019 6.15006,-1.05057 0.59958,-0.70038 0.89942,-3.05099 0.8995,-7.05185 l 0,-54.8996 c -8e-5,-0.79949 -0.45022,-1.19927 -1.3504,-1.19934 l -17.24853,0 c -0.90034,7e-5 -1.35047,0.39985 -1.35041,1.19934 l 0,7.50275 c -6e-5,15.69828 -2.82523,28.74759 -8.47549,39.14795 -5.65038,10.4004 -14.925429,19.65026 -27.825165,27.74963 -1.800567,1.10168 -3.725461,1.45186 -5.774689,1.05057 -2.049279,-0.40132 -3.673576,-1.45188 -4.872894,-3.1517 -1.199361,-1.59913 -1.599141,-3.37373 -1.199341,-5.3238 0.39976,-1.95007 1.449564,-3.47442 3.149414,-4.57305 z m 13.050842,-44.40308 c -3.601106,11.50211 -8.251981,21.85214 -13.952637,31.05011 -1.098653,1.80055 -2.673359,2.90071 -4.724121,3.30048 -2.050796,0.39979 -3.976453,0.0504 -5.776977,-1.04828 -1.699839,-1.00097 -2.77482,-2.47649 -3.224945,-4.42658 -0.450142,-1.95005 -0.124367,-3.775 0.977325,-5.47485 4.998765,-8.09934 9.248334,-17.39956 12.748718,-27.9007 0.601174,-1.89814 1.776863,-3.32254 3.52707,-4.27322 1.750155,-0.95057 3.574342,-1.12528 5.472564,-0.52414 2.00192,0.5982 3.477444,1.82272 4.426575,3.67355 0.94906,1.85094 1.124536,3.72548 0.526428,5.62363 z m 80.397033,-8.39996 c 1.90113,-0.90022 3.85196,-1.04975 5.85251,-0.44861 2.0003,0.60125 3.49948,1.80211 4.49753,3.6026 5.99962,10.99857 11.30052,22.19851 15.90271,33.59985 0.69871,1.89821 0.64835,3.82234 -0.15106,5.7724 -0.79971,1.95009 -2.15011,3.3249 -4.05121,4.12445 -1.80068,0.79957 -3.60045,0.82475 -5.39933,0.0755 -1.79914,-0.74919 -3.09995,-2.07442 -3.90243,-3.97567 -4.8982,-12.1002 -10.14721,-23.10025 -15.74707,-33.00019 -1.00109,-1.69978 -1.20174,-3.52473 -0.60196,-5.47485 0.59956,-1.95002 1.79966,-3.37519 3.60031,-4.27551 z"
         id="path3659"
         style="font-size:150px;fill:#0566ae" />
      <path
         d="m 60.022598,361.45737 c 3.500351,-1.00097 5.700666,-1.65099 6.600952,-1.95008 0.799541,-0.29905 1.199321,-0.84837 1.199341,-1.64795 l 0,-57.6004 c -2e-5,-0.80254 -0.3998,-1.20384 -1.199341,-1.20392 l -6.303405,0 c -1.898205,8e-5 -3.497324,-0.67436 -4.797364,-2.02331 -1.300055,-1.3488 -1.950079,-2.9731 -1.950073,-4.8729 -6e-6,-1.89963 0.650018,-3.4751 1.950073,-4.72641 1.30004,-1.25113 2.899159,-1.87674 4.797364,-1.87683 l 6.303405,0 c 0.799541,9e-5 1.199321,-0.45004 1.199341,-1.3504 l 0,-20.84656 c -2e-5,-2.2002 0.774363,-4.05033 2.323151,-5.55038 1.548743,-1.49982 3.423283,-2.24979 5.623627,-2.24991 2.200287,1.2e-4 4.050413,0.75009 5.550384,2.24991 1.499904,1.50005 2.249873,3.35018 2.249909,5.55038 l 0,20.84656 c -3.6e-5,0.90036 0.450097,1.35049 1.350402,1.3504 l 8.85315,0 c 1.898145,9e-5 3.497265,0.6257 4.797363,1.87683 1.299997,1.25131 1.950023,2.82678 1.950073,4.72641 -5e-5,1.8998 -0.650076,3.5241 -1.950073,4.8729 -1.300098,1.34895 -2.899218,2.02339 -4.797363,2.02331 l -8.85315,0 c -0.900305,8e-5 -1.350438,0.40138 -1.350402,1.20392 l 0,52.19879 c -3.6e-5,0.69888 0.399743,0.94912 1.19934,0.75074 4.501301,-1.69981 9.352066,-3.59953 14.552307,-5.69916 0.698801,-0.3021 1.148931,-0.85294 1.350401,-1.65253 3.10053,-12.10018 4.65082,-27.00037 4.65088,-44.70062 l 0,-35.2478 c -6e-5,-2.30092 0.84986,-4.30134 2.54974,-6.00129 1.69977,-1.69971 3.69867,-2.54962 5.99671,-2.54974 l 69.90051,0 c 1.90111,1.2e-4 3.47658,0.65014 4.72641,1.95007 1.24955,1.30017 1.8744,2.90005 1.87454,4.79966 -1.4e-4,1.89982 -0.62499,3.49971 -1.87454,4.79965 -1.24983,1.30015 -2.8253,1.95017 -4.72641,1.95007 l -61.50055,0 c -0.79963,10e-5 -1.19941,0.39988 -1.19934,1.19934 l 0,16.95099 c -7e-5,0.90035 0.39971,1.35049 1.19934,1.3504 l 57.90253,0 c 1.8004,9e-5 3.35069,0.65011 4.65088,1.95008 1.29991,1.30013 1.94993,2.85042 1.95007,4.65088 -1.4e-4,4.4007 -0.60133,8.70063 -1.80359,12.89978 -4.8982,16.59855 -11.64716,30.44742 -20.24688,41.54663 -0.50061,0.70192 -0.45026,1.35195 0.15106,1.95007 6.69848,6.50026 14.24852,11.90034 22.65014,16.20026 1.79735,1.00098 3.04628,2.4765 3.7468,4.42657 0.70023,1.95007 0.54993,3.82538 -0.4509,5.62592 -1.09877,1.89818 -2.62312,3.19747 -4.57306,3.89785 -1.95021,0.70037 -3.92469,0.5516 -5.92346,-0.44632 -9.70166,-4.90112 -18.35186,-11.05193 -25.95062,-18.45245 -0.6013,-0.50048 -1.20097,-0.50048 -1.79901,0 -8.59995,7.69959 -18.29995,13.94958 -29.10004,18.75 -2.00203,0.90026 -4.00245,0.97503 -6.00128,0.22431 -1.99897,-0.75075 -3.44855,-2.12556 -4.34876,-4.12446 -0.90033,-1.89819 -0.97586,-3.79791 -0.22659,-5.69915 0.74914,-1.90125 2.07437,-3.25165 3.97568,-4.05121 9.69841,-4.40063 18.2479,-10.0006 25.6485,-16.79993 0.6011,-0.59812 0.70181,-1.19779 0.30212,-1.79901 -6.90011,-9.39938 -12.60079,-20.29872 -17.10205,-32.69806 -0.69893,-2.00189 -0.59822,-3.97791 0.30212,-5.92804 0.90019,-1.95001 2.34978,-3.32482 4.34876,-4.12445 1.90116,-0.69878 3.80164,-0.62325 5.70145,0.22659 1.89962,0.84998 3.19891,2.27439 3.89785,4.27323 3.70169,10.29973 8.05197,19.05064 13.05085,26.25274 0.19825,0.1984 0.44774,0.32276 0.74844,0.37308 0.30049,0.0504 0.5515,-0.0251 0.75302,-0.22659 6.6985,-9.50008 11.89716,-20.95026 15.59601,-34.35059 0.20129,-0.89714 -0.0978,-1.34575 -0.89722,-1.34582 l -46.95282,0 c -0.79963,7e-5 -1.19941,0.39985 -1.19934,1.19934 l 0,6.8985 c -7e-5,26.30008 -5.60004,48.64961 -16.79993,67.04864 -1.09868,1.80053 -2.72298,2.75115 -4.872889,2.85187 -2.150014,0.1007 -3.875018,-0.65003 -5.175019,-2.2522 -3.298993,-3.9978 -3.649945,-8.54797 -1.052856,-13.65051 l 0.151062,-0.29755 0.151062,-0.30212 c 0.100662,-0.19836 0.100662,-0.37231 0,-0.52185 -0.100754,-0.14953 -0.25029,-0.17547 -0.448609,-0.0778 -10.501133,4.50135 -21.002221,8.35114 -31.503296,11.54938 -1.797497,0.50048 -3.496561,0.22582 -5.097198,-0.82398 -1.600654,-1.0498 -2.501685,-2.5238 -2.703094,-4.422 -0.198371,-2.10265 0.302117,-4.02831 1.501464,-5.77697 1.199332,-1.74865 2.799978,-2.92357 4.801941,-3.52478 z"
         id="path3661"
         style="font-size:150px;fill:#0566ae" />
      <path
         d="m 114.32253,532.3085 c -2.80158,20.09889 -18.252617,33.74786 -46.353154,40.94696 -1.99892,0.50048 -3.873461,0.251 -5.623627,-0.74844 -1.750196,-0.99946 -2.974713,-2.50016 -3.673554,-4.50211 -0.601206,-1.79749 -0.45167,-3.54614 0.448609,-5.24597 0.900256,-1.69983 2.301011,-2.75116 4.20227,-3.15399 20.397913,-5.29784 31.947279,-14.34782 34.648133,-27.14996 0.201365,-0.89719 -0.148061,-1.3458 -1.048279,-1.34583 l -10.652161,0 -7.649231,0 c -2.301054,3e-5 -4.301479,-0.85064 -6.001281,-2.55203 -1.699853,-1.70132 -2.549767,-3.70098 -2.549744,-5.99899 l 0,-69.90052 c -2.3e-5,-2.30091 0.849891,-4.30134 2.549744,-6.00128 1.699802,-1.69971 3.700227,-2.54962 6.001281,-2.54974 l 87.899784,0 c 2.3009,1.2e-4 4.30133,0.85003 6.00128,2.54974 1.6997,1.69994 2.54961,3.70037 2.54974,6.00128 l 0,69.90052 c -1.3e-4,2.29801 -0.85004,4.29767 -2.54974,5.99899 -1.69995,1.70139 -3.70038,2.55206 -6.00128,2.55203 l -20.54901,0 c -0.90037,3e-5 -1.3505,0.44864 -1.35041,1.34583 l 0,21.60186 c -9e-5,2.30104 0.27456,3.70103 0.82398,4.19999 0.54922,0.49896 2.17427,0.7988 4.87518,0.8995 1.29994,0.10071 3.30037,0.15107 6.00128,0.15106 2.79835,10e-6 4.89796,-0.0503 6.29883,-0.15106 2.70069,-0.1007 4.55081,-0.42572 5.55038,-0.97504 0.99933,-0.54931 1.82407,-1.82418 2.47422,-3.82461 0.6499,-2.00042 1.12445,-5.44966 1.42364,-10.34775 0.20129,-2.10264 1.07715,-3.82841 2.62757,-5.17731 1.55016,-1.34885 3.37511,-1.9241 5.47485,-1.72576 2.20018,0.20144 3.99995,1.12688 5.39932,2.77633 1.39909,1.6495 1.99953,3.57439 1.8013,5.77469 -0.30226,4.40065 -0.62804,7.97578 -0.97732,10.7254 -0.34957,2.74964 -0.97442,5.19944 -1.87455,7.3494 -0.9004,2.14996 -1.77549,3.72466 -2.62527,4.72412 -0.85005,0.99944 -2.29963,1.82418 -4.34876,2.47421 -2.04938,0.65002 -4.04904,1.07574 -5.99899,1.27716 -1.95019,0.20141 -4.77612,0.35095 -8.47778,0.44861 -0.90038,-10e-6 -2.25002,0.0252 -4.04892,0.0755 -1.79912,0.0503 -3.19911,0.0755 -4.19998,0.0755 -3.50047,-10e-6 -6.15092,-0.0504 -7.95136,-0.15106 -8.09945,-0.29908 -13.17376,-1.09864 -15.22293,-2.39868 -2.04934,-1.30006 -3.07396,-4.20075 -3.07388,-8.70209 l 0,-29.10003 c -8e-5,-0.89719 -0.39986,-1.3458 -1.19934,-1.34583 l -11.70044,0 c -0.70197,3e-5 -1.15211,0.39981 -1.3504,1.19934 z m -28.051763,-73.35205 0,9.30176 c -3.8e-5,0.90036 0.399741,1.35049 1.199341,1.3504 l 70.202632,0 c 0.79945,9e-5 1.19923,-0.45004 1.19935,-1.3504 l 0,-9.30176 c -1.2e-4,-0.90016 -0.3999,-1.3503 -1.19935,-1.3504 l -70.202632,0 c -0.7996,1e-4 -1.199379,0.45024 -1.199341,1.3504 z m 0,24.00055 0,9.30176 c -3.8e-5,0.90034 0.399741,1.35047 1.199341,1.3504 l 70.202632,0 c 0.79945,7e-5 1.19923,-0.45006 1.19935,-1.3504 l 0,-9.30176 c -1.2e-4,-0.90019 -0.3999,-1.35032 -1.19935,-1.3504 l -70.202632,0 c -0.7996,8e-5 -1.199379,0.45021 -1.199341,1.3504 z m 0,24.00055 0,9.30176 c -3.8e-5,0.89726 0.399741,1.34587 1.199341,1.34582 l 70.202632,0 c 0.79945,5e-5 1.19923,-0.44856 1.19935,-1.34582 l 0,-9.30176 c -1.2e-4,-0.90021 -0.3999,-1.35035 -1.19935,-1.3504 l -70.202632,0 c -0.7996,5e-5 -1.199379,0.45019 -1.199341,1.3504 z"
         id="path3663"
         style="font-size:150px;fill:#0566ae" />
      <path
         d="m 72.322708,645.25711 0,110.10132 c -2.5e-5,2.0996 -0.725579,3.8742 -2.176666,5.32379 -1.451132,1.44957 -3.22649,2.17436 -5.32608,2.17438 -2.099625,-2e-5 -3.87422,-0.72481 -5.323792,-2.17438 -1.449595,-1.44959 -2.174387,-3.22419 -2.174377,-5.32379 l 0,-115.20081 c -10e-6,-2.30091 0.849904,-4.30134 2.549743,-6.00128 1.699815,-1.69971 3.700241,-2.54962 6.001282,-2.54974 l 31.347656,0 c 1.699778,1.2e-4 3.174536,0.60055 4.424286,1.8013 1.24964,1.20098 1.87449,2.65133 1.87454,4.35104 -5e-5,4.19933 -0.65008,8.19865 -1.95007,11.99799 -2.99993,9.3995 -6.999254,19.14986 -11.997987,29.2511 -0.399822,0.90033 -0.349468,1.64954 0.151062,2.24762 2.200273,3.10065 3.900101,5.7511 5.099488,7.95135 0.399732,0.69891 0.799512,0.74927 1.19934,0.15106 7.501167,-15.4998 13.050777,-33.70047 16.648867,-54.60205 0.39971,-2.09949 1.47469,-3.77414 3.22494,-5.02395 1.75012,-1.24958 3.67577,-1.72413 5.77698,-1.42365 2.10106,0.30072 3.80089,1.30093 5.09949,3.00064 1.29844,1.69995 1.79817,3.59966 1.49917,5.69916 -1.49849,10.09837 -3.64845,20.09744 -6.44989,29.99725 -0.19843,1.00106 -0.29762,1.80215 -0.29754,2.40326 l 0,85.79865 c -8e-5,2.0996 -0.77522,3.89937 -2.32544,5.39932 -1.55036,1.49993 -3.37531,2.24989 -5.47486,2.24991 -2.09967,-2e-5 -3.89944,-0.74998 -5.39932,-2.24991 -1.5,-1.49995 -2.24996,-3.29972 -2.24991,-5.39932 l 0,-55.05066 c -5e-5,-0.10066 -0.0756,-0.15101 -0.22659,-0.15106 -0.15112,5e-5 -0.22665,0.0504 -0.22659,0.15106 -1.49847,4.80046 -3.09759,9.30027 -4.79737,13.49945 -0.30217,0.79959 -0.45323,1.55033 -0.45318,2.2522 -0.399834,5.99978 -1.97454,10.44924 -4.724123,13.34838 -2.749679,2.89919 -6.874125,4.54866 -12.373352,4.94843 -1.901279,0.10072 -3.576692,-0.42342 -5.026245,-1.57242 -1.449614,-1.14897 -2.374296,-2.67408 -2.774048,-4.57535 -0.2991,-1.59909 0.07627,-3.04868 1.126099,-4.34875 1.049774,-1.30002 2.42459,-2.10111 4.124451,-2.40326 2.200282,-0.49741 3.725396,-1.57163 4.575347,-3.22266 0.849876,-1.65096 1.274833,-4.47689 1.274872,-8.47778 -3.9e-5,-4.09847 -0.550118,-7.77278 -1.650238,-11.02295 -1.100195,-3.25007 -3.150211,-6.87555 -6.150055,-10.87646 -3.399686,-4.59894 -3.999356,-9.29864 -1.799011,-14.09913 4.598965,-9.89981 8.3984,-19.39992 11.398315,-28.50036 0.198324,-0.69875 -0.102274,-1.04817 -0.901794,-1.04828 l -13.796997,0 c -0.900294,1.1e-4 -1.350428,0.39988 -1.350403,1.19934 z m 113.548282,-9.5993 0,12.14904 c -1.4e-4,0.69896 0.39964,1.04838 1.19934,1.04828 l 0.15106,0 c 1.99876,10e-5 3.67341,0.6753 5.02396,2.02561 1.35025,1.3505 2.02545,2.97556 2.0256,4.87518 -1.5e-4,1.89981 -0.67535,3.52487 -2.0256,4.87518 -1.35055,1.35049 -3.0252,2.02569 -5.02396,2.02561 l -0.15106,0 c -0.7997,8e-5 -1.19948,0.39986 -1.19934,1.19934 l 0,74.70245 c -1.4e-4,5.79835 -0.12526,10.04792 -0.37537,12.74872 -0.25038,2.7008 -1.04994,4.95071 -2.39868,6.74973 -1.34901,1.799 -2.99849,2.8488 -4.94843,3.14941 -1.9502,0.30059 -5.07519,0.45088 -9.375,0.4509 -5.30102,-2e-5 -9.80235,-0.10072 -13.50402,-0.30213 -1.8983,-0.0977 -3.54778,-0.84687 -4.94843,-2.24762 -1.40086,-1.40076 -2.15006,-3.10059 -2.24762,-5.09948 -0.10081,-1.90125 0.52404,-3.47672 1.87454,-4.72641 1.3503,-1.2497 2.9746,-1.82419 4.8729,-1.72348 5.4015,0.19836 8.55243,0.29754 9.45282,0.29754 2.99976,0 4.74917,-0.39978 5.24826,-1.19934 0.49884,-0.79956 0.74832,-3.49883 0.74844,-8.09784 l 0,-74.55139 c -1.2e-4,-0.90018 -0.45026,-1.35032 -1.3504,-1.3504 l -34.95026,0 c -1.99898,8e-5 -3.64846,-0.64994 -4.94842,-1.95008 -1.30013,-1.29995 -1.95016,-2.95019 -1.95008,-4.95071 -8e-5,-2.00033 0.64995,-3.65057 1.95008,-4.95071 1.29996,-1.29995 2.94944,-1.94998 4.94842,-1.95008 l 34.95026,0 c 0.90014,10e-5 1.35028,-0.39968 1.3504,-1.19934 l 0,-11.99798 c -1.2e-4,-2.20021 0.74985,-4.05033 2.24991,-5.55039 1.49981,-1.49982 3.34994,-2.24979 5.55038,-2.24991 2.20019,1.2e-4 4.05031,0.75009 5.55039,2.24991 1.4998,1.50006 2.24977,3.35018 2.24991,5.55039 z m -41.99982,47.69897 c 6.10036,9.89996 11.39973,19.34972 15.89813,28.34931 0.90016,1.80057 1.02528,3.67587 0.37537,5.62591 -0.65014,1.9501 -1.87465,3.37527 -3.67355,4.27551 -1.79912,0.9003 -3.64849,1.00024 -5.5481,0.29984 -1.89982,-0.70035 -3.29981,-1.95081 -4.19998,-3.75137 -4.60215,-9.19796 -9.80234,-18.34712 -15.60059,-27.44751 -1.10177,-1.69977 -1.42754,-3.5499 -0.97732,-5.55039 0.45005,-2.00036 1.52503,-3.50106 3.22494,-4.5021 1.80045,-0.99786 3.72611,-1.24734 5.77698,-0.74845 2.05069,0.49903 3.62539,1.64878 4.72412,3.44925 z"
         id="path3665"
         style="font-size:150px;fill:#0566ae" />
    </g>
  </g>
</svg>
