<?xml version="1.0" encoding="UTF-8" standalone="no"?>
<!-- Created with Inkscape (http://www.inkscape.org/) -->

<svg
   xmlns:dc="http://purl.org/dc/elements/1.1/"
   xmlns:cc="http://creativecommons.org/ns#"
   xmlns:rdf="http://www.w3.org/1999/02/22-rdf-syntax-ns#"
   xmlns:svg="http://www.w3.org/2000/svg"
   xmlns="http://www.w3.org/2000/svg"
   xmlns:sodipodi="http://sodipodi.sourceforge.net/DTD/sodipodi-0.dtd"
   xmlns:inkscape="http://www.inkscape.org/namespaces/inkscape"
   width="466.15918"
   height="310.38336"
   id="svg4203"
   sodipodi:version="0.32"
   inkscape:version="0.48.4 r9939"
   version="1.0"
   sodipodi:docname="Japanese_Road_sign_(Direction_and_Notice_of_exit_B).svg"
   inkscape:output_extension="org.inkscape.output.svg.inkscape">
  <defs
     id="defs4205">
    <inkscape:perspective
       sodipodi:type="inkscape:persp3d"
       inkscape:vp_x="0 : 315 : 1"
       inkscape:vp_y="0 : 1000 : 0"
       inkscape:vp_z="1500 : 315 : 1"
       inkscape:persp3d-origin="750 : 210 : 1"
       id="perspective9" />
    <inkscape:perspective
       id="perspective3163"
       inkscape:persp3d-origin="372.04724 : 350.78739 : 1"
       inkscape:vp_z="744.09448 : 526.18109 : 1"
       inkscape:vp_y="0 : 1000 : 0"
       inkscape:vp_x="0 : 526.18109 : 1"
       sodipodi:type="inkscape:persp3d" />
    <inkscape:perspective
       id="perspective2395"
       inkscape:persp3d-origin="372.04724 : 350.78739 : 1"
       inkscape:vp_z="744.09448 : 526.18109 : 1"
       inkscape:vp_y="0 : 1000 : 0"
       inkscape:vp_x="0 : 526.18109 : 1"
       sodipodi:type="inkscape:persp3d" />
    <inkscape:perspective
       id="perspective3843"
       inkscape:persp3d-origin="227.5 : 145 : 1"
       inkscape:vp_z="455 : 217.5 : 1"
       inkscape:vp_y="0 : 1000 : 0"
       inkscape:vp_x="0 : 217.5 : 1"
       sodipodi:type="inkscape:persp3d" />
  </defs>
  <sodipodi:namedview
     id="base"
     pagecolor="#ffffff"
     bordercolor="#666666"
     borderopacity="1.0"
     gridtolerance="10000"
     guidetolerance="10"
     objecttolerance="10"
     inkscape:pageopacity="0.0"
     inkscape:pageshadow="2"
     inkscape:zoom="0.85428568"
     inkscape:cx="407.95412"
     inkscape:cy="-93.941208"
     inkscape:document-units="px"
     inkscape:current-layer="layer1"
     width="1500px"
     height="630px"
     inkscape:window-width="1050"
     inkscape:window-height="1618"
     inkscape:window-x="-8"
     inkscape:window-y="-8"
     showgrid="false"
     showguides="true"
     inkscape:guide-bbox="true"
     inkscape:snap-center="true"
     inkscape:window-maximized="1"
     fit-margin-top="0"
     fit-margin-left="0"
     fit-margin-right="0"
     fit-margin-bottom="0"
     inkscape:object-nodes="true" />
  <metadata
     id="metadata4208">
    <rdf:RDF>
      <cc:Work
         rdf:about="">
        <dc:format>image/svg+xml</dc:format>
        <dc:type
           rdf:resource="http://purl.org/dc/dcmitype/StillImage" />
        <dc:title />
      </cc:Work>
    </rdf:RDF>
  </metadata>
  <g
     inkscape:label="sign"
     inkscape:groupmode="layer"
     id="layer1"
     transform="translate(752.70488,-123.59372)">
    <path
       inkscape:connector-curvature="0"
       style="fill:#005d35;fill-opacity:1;fill-rule:nonzero;stroke:none"
       d="m -752.70488,123.59372 0,310.38337 466.15919,0 0,-310.38337 -466.15919,0 z"
       id="path6493" />
    <path
       inkscape:connector-curvature="0"
       style="fill:#ffffff;fill-opacity:1;fill-rule:nonzero;stroke:none"
       d="m -740.08441,356.08917 0,62.31033 92.29719,0 0,-62.31033 -92.29719,0 z"
       id="path6503" />
    <g
       style="font-size:87.66098785px;font-style:normal;font-variant:normal;font-weight:bold;font-stretch:normal;line-height:125%;letter-spacing:0px;word-spacing:0px;fill:#ffffff;fill-opacity:1;stroke:none;font-family:IPAGothic;-inkscape-font-specification:IPAGothic Bold"
       id="text6610">
      <path
         d="m -542.09317,168.36019 0,12.27382 9.46753,0 0,-12.27382 z m -6.48736,0 -26.12334,0 0,-5.96035 77.14209,0 0,5.96035 -28.66477,0 0,12.27382 24.54497,0 0,54.52327 -6.66393,0 0,-4.73243 -55.57463,0 0,4.73243 -6.66392,0 0,-54.52327 22.00353,0 z m -15.33961,56.54305 55.57463,0 0,-15.07744 -13.76123,0 c -4.26611,2e-5 -7.08577,-0.59922 -8.45899,-1.79773 -1.37332,-1.19847 -2.05995,-3.6971 -2.05991,-7.49591 l 0,-14.19997 -9.6441,0 c -0.17481,5.96038 -0.74418,10.63529 -1.70811,14.02474 -0.964,3.38951 -2.55663,6.25331 -4.77791,8.59141 -2.22134,2.33814 -5.61126,4.76366 -10.16978,7.27655 l -4.11981,-4.99728 c 4.15011,-2.27925 7.17487,-4.36858 9.07429,-6.268 1.89936,-1.89936 3.22893,-4.20806 3.98872,-6.92609 0.75973,-2.71797 1.19757,-6.61841 1.31352,-11.70133 l -15.25132,0 z m 55.57463,-20.60173 0,-17.96932 -17.88104,0 0,12.00898 c -6e-5,2.92134 0.29198,4.64506 0.87612,5.17116 0.58403,0.52615 2.39559,0.78921 5.43467,0.78918 z"
         style="font-weight:normal;font-family:VL Gothic;-inkscape-font-specification:VL Gothic"
         id="path6670"
         inkscape:connector-curvature="0" />
      <path
         d="m -470.82582,172.30611 11.39636,0 0,6.13691 c -2.51294,6.779 -5.58139,12.76877 -9.20537,17.96933 4.38374,4.67449 8.41615,9.37928 12.09726,14.11436 l -4.55854,4.03153 c -2.62886,-3.44743 -5.87209,-7.3336 -9.72971,-11.65853 l 0,34.01251 -6.57296,0 0,-31.03234 c -3.27268,3.33154 -7.04293,6.34114 -11.31076,9.02881 l -2.27659,-6.74954 c 11.45341,-7.42276 19.69302,-17.32813 24.71886,-29.71613 l -22.52787,0 0,-6.13691 11.39636,0 0,-13.76391 6.57296,0 z m 42.51697,2.62972 0,14.19997 13.84952,0 0,-14.19997 z m -6.74953,0 -14.02608,0 0,14.19997 14.02608,0 z m -14.02608,19.89815 0,14.90354 14.02608,0 0,-14.90354 z m 20.77561,14.90354 13.84952,0 0,-14.90354 -13.84952,0 z m 0,5.69818 0,21.47652 -6.74953,0 0,-21.47652 -14.02608,0 0,5.52162 -6.39908,0 0,-51.89623 20.42516,0 0,-10.51889 6.74953,0 0,10.51889 20.42516,0 0,51.89623 -6.57564,0 0,-5.52162 z"
         style="font-weight:normal;font-family:VL Gothic;-inkscape-font-specification:VL Gothic"
         id="path6672"
         inkscape:connector-curvature="0" />
      <path
         d="m -396.31344,163.10074 71.00518,0 0,71.62049 -6.83781,0 0,-5.61258 -57.32956,0 0,5.61258 -6.83781,0 z m 38.83322,5.87474 0,23.31706 25.33415,0 0,-23.31706 z m -6.66125,0 -25.33416,0 0,23.31706 25.33416,0 z m -25.33416,29.01524 0,25.42243 25.33416,0 0,-25.42243 z m 31.99541,25.42243 25.33415,0 0,-25.42243 -25.33415,0 z"
         style="font-weight:normal;font-family:VL Gothic;-inkscape-font-specification:VL Gothic"
         id="path6674"
         inkscape:connector-curvature="0" />
    </g>
    <g
       style="font-size:59.1219902px;font-style:normal;font-variant:normal;font-weight:normal;font-stretch:normal;line-height:125%;letter-spacing:0px;word-spacing:0px;fill:#ffffff;fill-opacity:1;stroke:none;font-family:IPAGothic;-inkscape-font-specification:IPAGothic"
       id="text6614"
       transform="translate(10,0)">
      <path
         d="m -555.43484,333.82012 13.94333,0 0,-14.26087 4.33022,0 0,21.21809 -4.33022,0 0,-3.11776 -13.94333,0 0,19.91903 16.39712,0 0,-13.19275 4.24362,0 0,20.87168 -4.24362,0 0,-3.83946 -36.86464,0 0,3.83946 -4.24362,0 0,-20.87168 4.24362,0 0,13.19275 16.02183,0 0,-19.91903 -13.65464,0 0,3.11776 -4.24362,0 0,-21.21809 4.24362,0 0,14.26087 13.65464,0 0,-20.23658 4.44569,0 z"
         id="path6644"
         inkscape:connector-curvature="0" />
      <path
         d="m -477.77949,319.55925 0,42.08977 -4.73437,0 0,-4.12815 -31.72611,0 0,4.50344 -4.73438,0 0,-42.46506 z m -36.46048,4.18588 0,29.6476 31.72611,0 0,-29.6476 z"
         id="path6646"
         inkscape:connector-curvature="0" />
    </g>
    <text
       xml:space="preserve"
       style="font-size:40px;font-style:normal;font-variant:normal;font-weight:normal;font-stretch:normal;line-height:125%;letter-spacing:0px;word-spacing:0px;fill:#000000;fill-opacity:1;stroke:none;font-family:IPAPGothic;-inkscape-font-specification:IPAPGothic"
       x="184.94984"
       y="197.71613"
       id="text3073"
       sodipodi:linespacing="125%"
       transform="translate(-752.70488,123.59372)"><tspan
         sodipodi:role="line"
         id="tspan3075"
         x="184.94984"
         y="197.71613" /></text>
    <g
       transform="scale(1.0191839,0.98117719)"
       style="font-size:44.08481216px;font-style:normal;font-variant:normal;font-weight:800;font-stretch:normal;line-height:125%;letter-spacing:0px;word-spacing:0px;fill:#ffffff;fill-opacity:1;stroke:none;font-family:Prosign-MP;-inkscape-font-specification:Prosign-MP Ultra-Bold"
       id="text3432">
      <path
         d="m -538.79267,256.53569 0,0 5.59939,0 0,39.19173 -4.93748,0 -14.3281,-26.49556 0,26.49556 -5.59939,0 0,-39.19173 5.11372,0 14.15186,26.18612 z"
         style=""
         id="path3465" />
      <path
         d="m -524.87087,295.72742 0,-27.99429 5.64245,0 0,27.99429 z m 0,-33.63674 0,-5.59939 5.64245,0 0,5.59939 z"
         style=""
         id="path3467" />
      <path
         d="m -512.01728,275.71247 c -10e-6,2e-5 -10e-6,2e-5 0,0 -10e-6,-0.61705 0.0807,-1.24892 0.24216,-1.89561 0.16144,-0.64665 0.46998,-1.34467 0.92561,-2.09406 0.45563,-0.74934 1.02157,-1.41059 1.69785,-1.98373 0.67626,-0.5731 1.58729,-1.05071 2.7331,-1.43282 1.14579,-0.38205 2.42411,-0.57309 3.83495,-0.57312 1.41083,3e-5 2.68937,0.19107 3.83563,0.57312 1.14623,0.38211 2.05726,0.85972 2.7331,1.43282 0.6758,0.57314 1.24153,1.23439 1.69717,1.98373 0.45561,0.74939 0.76437,1.45481 0.92629,2.11625 0.16187,0.6615 0.24281,1.28597 0.24283,1.87342 l -5.59939,0 c -2e-5,-0.61705 -0.27178,-1.16798 -0.81529,-1.65278 -0.54354,-0.48475 -1.55009,-0.72714 -3.01966,-0.72716 -1.4696,2e-5 -2.47638,0.24241 -3.02034,0.72716 -0.54398,0.4848 -0.81597,1.03573 -0.81596,1.65278 -10e-6,0.76419 1.54312,1.6167 4.62939,2.55753 1.05833,0.32291 2.00636,0.63862 2.84409,0.94714 0.8377,0.30855 1.69738,0.72001 2.57906,1.23437 0.88164,0.51439 1.61621,1.05814 2.2037,1.63125 0.58746,0.57314 1.06506,1.27855 1.43281,2.11625 0.36771,0.83773 0.55158,1.75616 0.5516,2.7553 -2e-5,1.08796 -0.18389,2.12411 -0.5516,3.10846 -0.36775,0.98436 -0.94088,1.90997 -1.71937,2.77683 -0.77854,0.86686 -1.87321,1.56488 -3.28403,2.09405 -1.41085,0.52918 -3.0273,0.79377 -4.84935,0.79377 -1.82208,0 -3.43853,-0.26459 -4.84936,-0.79377 -1.41084,-0.52917 -2.50574,-1.22719 -3.2847,-2.09405 -0.77897,-0.86686 -1.35209,-1.79987 -1.71937,-2.79903 -0.36729,-0.99915 -0.55093,-2.0279 -0.55093,-3.08626 l 5.5994,0 c -10e-6,2.11582 1.60164,3.17372 4.80496,3.17371 3.20329,1e-5 4.80494,-1.05789 4.80495,-3.17371 -10e-6,-1.08704 -1.86648,-2.18889 -5.59939,-3.30555 -1.26375,-0.38207 -2.35843,-0.77155 -3.28403,-1.16845 -0.92561,-0.39687 -1.82185,-0.90384 -2.6887,-1.52093 -0.86687,-0.61706 -1.52811,-1.36642 -1.98374,-2.2481 -0.45563,-0.88164 -0.68345,-1.88124 -0.68344,-2.99881 z"
         style=""
         id="path3469" />
      <path
         d="m -475.41537,267.73313 c -2.32211,3e-5 -4.42356,0.69065 -6.30437,2.07186 l 0,-13.3137 -5.59939,0 0,39.23613 5.59939,0 0,-14.01867 c -10e-6,-2.14539 0.60249,-4.07778 1.80749,-5.79717 1.20499,-1.71935 2.70394,-2.57903 4.49688,-2.57905 0.70495,2e-5 1.23368,0.19846 1.58618,0.59532 0.35246,0.3969 0.61705,1.19044 0.79376,2.38062 0.17667,1.19021 0.26502,2.9903 0.26504,5.40028 l 0,14.01867 5.59805,0 0,-14.01867 c -3e-5,-0.85205 -0.007,-1.50589 -0.0222,-1.96154 -0.0148,-0.45561 -0.0442,-1.13166 -0.0881,-2.02813 -0.044,-0.89644 -0.1099,-1.60926 -0.19777,-2.13845 -0.0879,-0.52916 -0.22739,-1.18323 -0.41841,-1.96221 -0.19106,-0.77895 -0.41888,-1.41822 -0.68344,-1.91782 -0.26461,-0.49955 -0.61015,-1.0285 -1.0366,-1.58685 -0.4265,-0.5583 -0.90411,-0.99173 -1.43281,-1.30029 -0.52875,-0.30851 -1.1678,-0.5657 -1.91714,-0.77157 -0.74939,-0.20581 -1.5649,-0.30873 -2.44654,-0.30876 z"
         style=""
         id="path3471" />
      <path
         d="m -458.65755,295.72742 0,-27.99429 5.64245,0 0,27.99429 z m 0,-33.63674 0,-5.59939 5.64245,0 0,5.59939 z"
         style=""
         id="path3473" />
      <path
         d="m -440.33776,288.23241 0,7.49501 -5.59805,0 0,-39.19173 5.59805,0 0,22.52808 8.77311,-11.41809 7.09812,0 -10.13999,13.13746 11.54993,14.94428 -7.05373,0 -8.02239,-10.35929 z"
         style=""
         id="path3475" />
      <path
         d="m -408.23608,278.93058 c 1.23503,10e-6 2.19046,-0.15426 2.86629,-0.46281 0.67581,-0.30852 1.07246,-0.68298 1.18997,-1.12338 -0.0296,-0.41166 -0.0958,-0.80114 -0.19844,-1.16844 -0.10271,-0.36727 -0.29375,-0.74195 -0.57312,-1.12405 -0.2794,-0.38206 -0.69826,-0.6906 -1.25657,-0.92561 -0.55834,-0.23497 -1.23438,-0.35246 -2.02813,-0.35249 -0.85208,3e-5 -1.57207,0.12492 -2.15998,0.37469 -0.58793,0.24981 -1.01396,0.58772 -1.27809,1.01373 -0.26415,0.42605 -0.44039,0.82271 -0.52873,1.18997 -0.0883,0.3673 -0.13253,0.77158 -0.13252,1.21284 l -5.64245,0 c 0,-1.17582 0.19822,-2.3075 0.59465,-3.39502 0.39643,-1.08747 0.97673,-2.08685 1.7409,-2.99813 0.76416,-0.91124 1.78551,-1.63863 3.06406,-2.18218 1.27854,-0.5435 2.71874,-0.81526 4.32063,-0.81529 1.60187,3e-5 3.04207,0.27179 4.32063,0.81529 1.27853,0.54355 2.29988,1.27094 3.06406,2.18218 0.76415,0.91128 1.34445,1.91066 1.7409,2.99813 0.39641,1.08752 0.59463,2.2192 0.59465,3.39502 l 0,13.66619 c -2e-5,1.70413 0.33811,3.20286 1.0144,4.4962 l -6.03933,0 c -0.11751,-0.38209 -0.20585,-0.74937 -0.26503,-1.10185 -1.49875,0.70497 -3.21812,1.07225 -5.15812,1.10185 -3.14457,0 -5.55433,-0.7126 -7.2293,-2.13778 -1.67498,-1.42519 -2.51246,-3.46072 -2.51246,-6.1066 0,-1.35163 0.21301,-2.549 0.63904,-3.59212 0.42603,-1.04309 0.97696,-1.866 1.65278,-2.46873 0.67582,-0.60271 1.49133,-1.10251 2.44654,-1.49941 0.9552,-0.39687 1.88843,-0.66145 2.7997,-0.79376 0.91125,-0.13228 1.8956,-0.19843 2.95307,-0.19844 z m 4.10066,5.02627 c -1.14626,0.41169 -2.51315,0.60273 -4.10066,0.57312 -0.93997,1e-5 -1.73329,0.0662 -2.37995,0.19844 -0.64668,0.13231 -1.13168,0.272 -1.45501,0.41908 -0.32334,0.14711 -0.57313,0.37492 -0.74936,0.68345 -0.17625,0.30854 -0.27177,0.56551 -0.28656,0.77089 -0.0148,0.2054 -0.0222,0.49914 -0.0222,0.88121 -10e-6,0.41169 0.022,0.72785 0.0659,0.94848 0.0439,0.22065 0.18363,0.48523 0.41908,0.79376 0.23543,0.30855 0.66169,0.53614 1.27877,0.68277 0.61706,0.14666 1.41037,0.21998 2.37994,0.21997 1.70501,1e-5 2.9396,-0.41145 3.70378,-1.23437 0.76415,-0.8229 1.14623,-2.15997 1.14625,-4.01119 z"
         style=""
         id="path3477" />
      <path
         d="m -380.06018,267.73313 c -10e-6,3e-5 -10e-6,3e-5 0,0 0.88165,3e-5 1.69716,0.10295 2.44654,0.30876 0.74935,0.20587 1.38862,0.46306 1.91782,0.77157 0.52915,0.30856 1.00675,0.74199 1.43281,1.30029 0.42601,0.55835 0.77132,1.0873 1.03592,1.58685 0.26457,0.4996 0.49238,1.13887 0.68345,1.91782 0.19102,0.77898 0.33071,1.43305 0.41908,1.96221 0.0883,0.52919 0.15447,1.24201 0.19844,2.13845 0.0439,0.89647 0.0733,1.57252 0.0881,2.02813 0.0148,0.45565 0.0222,1.10949 0.0222,1.96154 l 0,14.01867 -5.5994,0 0,-14.01867 c -10e-6,-2.40998 -0.0881,-4.21007 -0.26436,-5.40028 -0.17626,-1.19018 -0.44062,-1.98372 -0.79309,-2.38062 -0.3525,-0.39686 -0.88168,-0.5953 -1.58753,-0.59532 -1.79293,2e-5 -3.29189,0.8597 -4.49687,2.57905 -1.205,1.71939 -1.8075,3.65178 -1.80749,5.79717 l 0,14.01867 -5.59805,0 0,-27.99429 5.59805,0 0,2.07186 c 1.8817,-1.38121 3.98315,-2.07183 6.30436,-2.07186 z"
         style=""
         id="path3479" />
      <path
         d="m -349.01192,256.49129 5.5994,0 0,39.23613 -5.5994,0 0,-1.45434 c -1.61624,0.96956 -3.49706,1.45434 -5.64244,1.45434 -1.58754,0 -3.02775,-0.27177 -4.32063,-0.81529 -1.2929,-0.54353 -2.3582,-1.26352 -3.19591,-2.15998 -0.83772,-0.89646 -1.54313,-1.95458 -2.11625,-3.17438 -0.57313,-1.21979 -0.97719,-2.48353 -1.21217,-3.79123 -0.235,-1.30768 -0.35249,-2.66694 -0.35249,-4.07779 0,-1.7929 0.22041,-3.50488 0.66125,-5.13592 0.44082,-1.63101 1.10947,-3.11516 2.00593,-4.45247 0.89645,-1.33727 2.07925,-2.40279 3.54839,-3.19658 1.46913,-0.79374 3.12975,-1.19062 4.98188,-1.19065 2.11579,3e-5 3.9966,0.5144 5.64244,1.54313 z m -5.64244,33.63673 c -2e-5,1e-5 -2e-5,1e-5 0,0 0.93994,1e-5 1.76263,-0.19821 2.46806,-0.59465 0.7054,-0.39642 1.25655,-0.8812 1.65345,-1.45433 0.39687,-0.57312 0.7128,-1.25656 0.94781,-2.05034 0.23497,-0.79375 0.38924,-1.52854 0.4628,-2.20437 0.0735,-0.67581 0.1103,-1.381 0.11032,-2.11558 -2e-5,-0.35247 -0.0146,-0.72716 -0.0437,-1.12405 -0.0292,-0.39687 -0.0953,-0.94802 -0.19844,-1.65345 -0.10316,-0.7054 -0.28703,-1.35947 -0.5516,-1.96221 -0.26461,-0.6027 -0.58794,-1.1904 -0.97001,-1.7631 -0.3821,-0.57265 -0.91105,-1.02806 -1.58685,-1.36621 -0.67584,-0.33811 -1.4326,-0.50718 -2.2703,-0.5072 -0.83772,2e-5 -1.59449,0.16909 -2.2703,0.5072 -0.67583,0.33815 -1.20478,0.79356 -1.58685,1.36621 -0.38209,0.5727 -0.70543,1.1604 -0.97001,1.7631 -0.26459,0.60274 -0.44823,1.25681 -0.55092,1.96221 -0.10271,0.70543 -0.16885,1.25658 -0.19844,1.65345 -0.0296,0.39689 -0.0444,0.77158 -0.0444,1.12405 -10e-6,0.73458 0.0368,1.43977 0.11032,2.11558 0.0735,0.67583 0.22781,1.41062 0.46281,2.20437 0.23498,0.79378 0.55091,1.47722 0.9478,2.05034 0.39687,0.57313 0.94062,1.05791 1.63125,1.45433 0.69061,0.39644 1.50635,0.59466 2.44722,0.59465 z"
         style=""
         id="path3481" />
      <path
         d="m -328.24626,278.93058 c 1.23503,10e-6 2.19046,-0.15426 2.86629,-0.46281 0.67581,-0.30852 1.07246,-0.68298 1.18998,-1.12338 -0.0296,-0.41166 -0.0958,-0.80114 -0.19844,-1.16844 -0.10272,-0.36727 -0.29376,-0.74195 -0.57313,-1.12405 -0.2794,-0.38206 -0.69826,-0.6906 -1.25657,-0.92561 -0.55834,-0.23497 -1.23438,-0.35246 -2.02813,-0.35249 -0.85207,3e-5 -1.57207,0.12492 -2.15998,0.37469 -0.58793,0.24981 -1.01396,0.58772 -1.27809,1.01373 -0.26415,0.42605 -0.44039,0.82271 -0.52873,1.18997 -0.0883,0.3673 -0.13253,0.77158 -0.13252,1.21284 l -5.64244,0 c -10e-6,-1.17582 0.19821,-2.3075 0.59465,-3.39502 0.39643,-1.08747 0.97672,-2.08685 1.74089,-2.99813 0.76416,-0.91124 1.78552,-1.63863 3.06407,-2.18218 1.27853,-0.5435 2.71874,-0.81526 4.32062,-0.81529 1.60187,3e-5 3.04208,0.27179 4.32063,0.81529 1.27853,0.54355 2.29988,1.27094 3.06407,2.18218 0.76414,0.91128 1.34444,1.91066 1.74089,2.99813 0.39641,1.08752 0.59463,2.2192 0.59465,3.39502 l 0,13.66619 c -2e-5,1.70413 0.33811,3.20286 1.01441,4.4962 l -6.03933,0 c -0.11751,-0.38209 -0.20586,-0.74937 -0.26504,-1.10185 -1.49875,0.70497 -3.21812,1.07225 -5.15812,1.10185 -3.14456,0 -5.55433,-0.7126 -7.2293,-2.13778 -1.67498,-1.42519 -2.51246,-3.46072 -2.51246,-6.1066 0,-1.35163 0.21301,-2.549 0.63905,-3.59212 0.42602,-1.04309 0.97695,-1.866 1.65277,-2.46873 0.67582,-0.60271 1.49133,-1.10251 2.44654,-1.49941 0.9552,-0.39687 1.88843,-0.66145 2.7997,-0.79376 0.91125,-0.13228 1.8956,-0.19843 2.95307,-0.19844 z m 4.10066,5.02627 c -1.14626,0.41169 -2.51315,0.60273 -4.10066,0.57312 -0.93997,1e-5 -1.73328,0.0662 -2.37994,0.19844 -0.64668,0.13231 -1.13169,0.272 -1.45501,0.41908 -0.32335,0.14711 -0.57314,0.37492 -0.74937,0.68345 -0.17625,0.30854 -0.27177,0.56551 -0.28656,0.77089 -0.0148,0.2054 -0.0222,0.49914 -0.0222,0.88121 -10e-6,0.41169 0.022,0.72785 0.0659,0.94848 0.0439,0.22065 0.18364,0.48523 0.41908,0.79376 0.23543,0.30855 0.66169,0.53614 1.27877,0.68277 0.61706,0.14666 1.41038,0.21998 2.37994,0.21997 1.70501,1e-5 2.9396,-0.41145 3.70378,-1.23437 0.76415,-0.8229 1.14624,-2.15997 1.14625,-4.01119 z"
         style=""
         id="path3483" />
    </g>
    <g
       style="font-size:34.10099792px;font-style:normal;font-variant:normal;font-weight:800;font-stretch:normal;line-height:125%;letter-spacing:0px;word-spacing:0px;fill:#005d35;fill-opacity:1;stroke:none;font-family:Prosign-MP;-inkscape-font-specification:Prosign-MP Ultra-Bold"
       id="text3436">
      <path
         d="m -722.59903,372.23927 14.32287,0 0,4.33131 -10.36725,0 c -0.0451,0.47735 -0.13026,1.41517 -0.25548,2.81347 -0.12524,1.39835 -0.24475,2.64283 -0.35852,3.73344 0.93244,-0.31773 1.89889,-0.47661 2.89934,-0.47663 2.95482,2e-5 5.22228,0.85823 6.8024,2.57464 1.58008,1.71645 2.37013,4.17731 2.37015,7.38259 -2e-5,3.1602 -0.75018,5.63823 -2.25047,7.43409 -1.50033,1.79587 -3.58048,2.6938 -6.24044,2.6938 -1.25021,0 -2.39826,-0.18749 -3.44413,-0.56248 -1.04589,-0.375 -1.89838,-0.85249 -2.55747,-1.4325 -0.6591,-0.58 -1.22176,-1.25072 -1.68798,-2.01216 -0.46623,-0.76142 -0.79595,-1.51158 -0.98917,-2.25047 -0.19322,-0.73887 -0.28983,-1.47186 -0.28983,-2.19895 l 4.33131,-0.0343 c 0.0222,0.27266 0.056,0.54532 0.10147,0.81797 0.0454,0.27267 0.15921,0.62511 0.34134,1.05733 0.18211,0.43224 0.4265,0.80168 0.73316,1.10832 0.30664,0.30666 0.76125,0.57932 1.36381,0.81798 0.60254,0.23867 1.30171,0.358 2.09749,0.35799 0.22755,10e-6 0.41522,-0.006 0.56301,-0.0167 0.14776,-0.0111 0.3807,-0.0508 0.69881,-0.11916 0.31809,-0.0683 0.59092,-0.17066 0.8185,-0.307 0.22755,-0.13632 0.47766,-0.35226 0.75033,-0.64782 0.27264,-0.29555 0.49986,-0.63654 0.68165,-1.02299 0.18175,-0.38643 0.33525,-0.89792 0.4605,-1.53448 0.12521,-0.63654 0.18782,-1.3527 0.18784,-2.14848 -2e-5,-1.13641 -0.1138,-2.08551 -0.34134,-2.8473 -0.22758,-0.76177 -0.56858,-1.3416 -1.02299,-1.7395 -0.45445,-0.39787 -0.95449,-0.6707 -1.50014,-0.8185 -0.54568,-0.14776 -1.20495,-0.22164 -1.97781,-0.22166 -0.61402,2e-5 -1.15968,0.0966 -1.63699,0.28983 -0.47734,0.19323 -0.84106,0.43762 -1.09116,0.73316 -0.25011,0.29557 -0.43206,0.53995 -0.54583,0.73316 -0.11379,0.19323 -0.19323,0.36963 -0.23832,0.52918 l -4.26262,-0.78467 z"
         style=""
         id="path3449" />
      <path
         d="m -699.49906,374.08127 c 1.54575,-1.54573 3.46667,-2.31305 5.76276,-2.30198 2.29608,0.0111 4.217,0.77845 5.76277,2.30198 0.68197,0.68202 1.26735,1.52323 1.75614,2.52365 0.48876,1.00046 0.85265,1.93829 1.09168,2.81348 0.23899,0.87523 0.42093,1.89249 0.54583,3.05179 0.12487,1.15934 0.19303,2.02882 0.2045,2.60846 0.0114,0.57968 0.0171,1.30139 0.0172,2.16514 -2e-5,3.50155 -0.32957,6.3322 -0.98865,8.49195 -0.7049,2.25064 -1.77923,3.97834 -3.22298,5.1831 -1.44379,1.20476 -3.16594,1.80714 -5.16646,1.80714 -2.00054,0 -3.72269,-0.60238 -5.16645,-1.80714 -1.44378,-1.20476 -2.51776,-2.93246 -3.22195,-5.1831 -0.65979,-2.15975 -0.98969,-4.9904 -0.98968,-8.49195 -10e-6,-0.86375 0.006,-1.58546 0.0172,-2.16514 0.0114,-0.57964 0.0798,-1.44912 0.20501,-2.60846 0.12523,-1.1593 0.30717,-2.17656 0.54584,-3.05179 0.23866,-0.87519 0.60238,-1.81302 1.09115,-2.81348 0.48877,-1.00042 1.07415,-1.84163 1.75615,-2.52365 z m 0.71599,13.16252 c -1e-5,7.41173 1.68225,11.12314 5.04677,11.13423 3.36451,0.0111 5.04676,-3.7003 5.04678,-11.13423 -2e-5,-5.13747 -0.78434,-8.50199 -2.35298,-10.09356 -0.682,-0.68196 -1.57421,-1.02296 -2.67663,-1.02298 -1.10243,2e-5 -2.00609,0.34102 -2.71097,1.02298 -1.56866,1.56868 -2.35298,4.93319 -2.35297,10.09356 z"
         style=""
         id="path3451" />
      <path
         d="m -671.55681,372.27361 4.33027,-0.0343 0,30.48671 -4.33027,0 0,-20.86979 -4.33131,0 0,-4.33131 c 0.0909,2e-5 0.24993,-0.006 0.47715,-0.0166 0.22721,-0.0111 0.57965,-0.0565 1.05733,-0.13633 0.47767,-0.0798 0.90972,-0.18782 1.29617,-0.32417 0.38643,-0.13631 0.73315,-0.34652 1.04016,-0.63065 0.30699,-0.28408 0.46049,-0.60791 0.4605,-0.97148 z"
         style=""
         id="path3453" />
    </g>
    <g
       transform="matrix(1.0435232,0,0,0.95829207,-66,0)"
       style="font-size:28.21495819px;font-style:normal;font-variant:normal;font-weight:800;font-stretch:normal;line-height:125%;letter-spacing:0px;word-spacing:0px;fill:#ffffff;fill-opacity:1;stroke:none;font-family:Prosign-MP;-inkscape-font-specification:Prosign-MP Ultra-Bold"
       id="text3440">
      <path
         d="m -448.76071,403.37105 0,0 -10.52378,0 0,7.22336 8.49256,0 0,3.58284 -8.49256,0 0,7.25092 10.52378,0 0,3.5837 -14.10748,0 0,-25.22452 14.10748,0 z"
         id="path3456"
         inkscape:connector-curvature="0" />
      <path
         d="m -432.94835,399.78735 4.03489,0 -6.46133,12.61269 6.46133,12.61183 -4.03489,0 -4.54205,-8.85936 -4.54291,8.85936 -4.03489,0 6.46134,-12.61183 -6.46134,-12.61269 4.03489,0 c 1.27895,2.50224 2.79325,5.45564 4.54291,8.86022 -10e-6,2e-5 1.51401,-2.95339 4.54205,-8.86022 z"
         id="path3458"
         inkscape:connector-curvature="0" />
      <path
         d="m -424.35935,425.01187 0,-25.22452 3.61125,0 0,25.22452 z"
         id="path3460"
         inkscape:connector-curvature="0" />
      <path
         d="m -400.08887,399.78735 0,0 0,3.5837 -6.15136,0 0,21.64082 -3.61125,0 0,-21.64082 -6.1505,0 0,-3.5837 z"
         id="path3462"
         inkscape:connector-curvature="0" />
    </g>
    <path
       inkscape:connector-curvature="0"
       style="fill:#ffffff;fill-opacity:1;fill-rule:nonzero;stroke:none"
       d="m -635.35928,158.85608 0,97.74934 -40.50172,-56.85818 17.91422,-12.46206 -54.52154,-23.75582 4.67327,59.19482 17.91422,-12.85151 54.52155,76.71961 0,56.0793 20.64029,0 0,-183.8155 -20.64029,0 z"
       id="path6511" />
    <g
       transform="scale(1.0235984,0.97694565)"
       style="font-size:46.22237778px;font-style:normal;font-variant:normal;font-weight:800;font-stretch:normal;line-height:125%;letter-spacing:0px;word-spacing:0px;fill:#ffffff;fill-opacity:1;stroke:none;font-family:Prosign-MP;-inkscape-font-specification:Prosign-MP Ultra-Bold"
       id="text5006">
      <path
         d="m -419.92208,329.80513 2.91147,0 0,25.93097 3.2359,0 0,5.87089 -3.2359,0 0,9.52152 -5.86949,0 0,-9.52152 -15.76199,0 0,-7.07272 12.80397,-24.72914 z m -2.95802,7.02617 0,0 c -5.1769,10.04628 -8.42784,16.34788 -9.75285,18.9048 l 9.75285,0 z"
         style=""
         id="path5896" />
      <path
         d="m -403.95697,332.30188 c 2.0952,-2.09516 4.69892,-3.13524 7.81117,-3.12023 3.11223,0.0151 5.71595,1.05516 7.81117,3.12023 0.92439,0.92445 1.71785,2.06468 2.38038,3.42069 0.66249,1.35609 1.15572,2.62727 1.47972,3.81355 0.32394,1.18634 0.57055,2.56519 0.73985,4.13657 0.16925,1.57143 0.26164,2.74998 0.27719,3.53565 0.0155,0.78573 0.0232,1.76398 0.0233,2.93475 -3e-5,4.7462 -0.44672,8.58301 -1.34007,11.51045 -0.95546,3.05066 -2.41167,5.39248 -4.36861,7.02547 -1.95698,1.633 -4.29128,2.4495 -7.0029,2.4495 -2.71164,0 -5.04594,-0.8165 -7.0029,-2.4495 -1.95697,-1.63299 -3.4127,-3.97481 -4.3672,-7.02547 -0.89432,-2.92744 -1.34148,-6.76425 -1.34147,-11.51045 -10e-6,-1.17077 0.008,-2.14902 0.0233,-2.93475 0.0155,-0.78567 0.10814,-1.96422 0.27789,-3.53565 0.16974,-1.57138 0.41636,-2.95023 0.73986,-4.13657 0.32349,-1.18628 0.81649,-2.45746 1.479,-3.81355 0.66251,-1.35601 1.45597,-2.49624 2.38038,-3.42069 z m 0.97049,17.84121 c -1e-5,10.04627 2.28022,15.07691 6.84068,15.09195 4.56044,0.0151 6.84066,-5.01559 6.84068,-15.09195 -2e-5,-6.96361 -1.06314,-11.52406 -3.18935,-13.68136 -0.92443,-0.92438 -2.13378,-1.38658 -3.62805,-1.38662 -1.49431,4e-5 -2.71917,0.46224 -3.6746,1.38662 -2.12625,2.12627 -3.18937,6.68671 -3.18936,13.68136 z"
         style=""
         id="path5898" />
      <path
         d="m -373.89437,332.30188 c 2.0952,-2.09516 4.69892,-3.13524 7.81117,-3.12023 3.11223,0.0151 5.71595,1.05516 7.81117,3.12023 0.92439,0.92445 1.71785,2.06468 2.38038,3.42069 0.66249,1.35609 1.15572,2.62727 1.47972,3.81355 0.32394,1.18634 0.57056,2.56519 0.73985,4.13657 0.16925,1.57143 0.26164,2.74998 0.27719,3.53565 0.0155,0.78573 0.0232,1.76398 0.0233,2.93475 -3e-5,4.7462 -0.44671,8.58301 -1.34006,11.51045 -0.95547,3.05066 -2.41168,5.39248 -4.36862,7.02547 -1.95698,1.633 -4.29128,2.4495 -7.0029,2.4495 -2.71164,0 -5.04594,-0.8165 -7.00289,-2.4495 -1.95698,-1.63299 -3.41271,-3.97481 -4.36721,-7.02547 -0.89432,-2.92744 -1.34148,-6.76425 -1.34147,-11.51045 -10e-6,-1.17077 0.008,-2.14902 0.0233,-2.93475 0.0155,-0.78567 0.10815,-1.96422 0.27789,-3.53565 0.16974,-1.57138 0.41636,-2.95023 0.73986,-4.13657 0.32349,-1.18628 0.81649,-2.45746 1.47901,-3.81355 0.6625,-1.35601 1.45596,-2.49624 2.38037,-3.42069 z m 0.97049,17.84121 c 0,10.04627 2.28022,15.07691 6.84068,15.09195 4.56044,0.0151 6.84066,-5.01559 6.84068,-15.09195 -2e-5,-6.96361 -1.06313,-11.52406 -3.18935,-13.68136 -0.92443,-0.92438 -2.13378,-1.38658 -3.62805,-1.38662 -1.4943,4e-5 -2.71917,0.46224 -3.6746,1.38662 -2.12625,2.12627 -3.18936,6.68671 -3.18936,13.68136 z"
         style=""
         id="path5900" />
      <path
         d="m -321.83071,341.77685 c -3.23499,3e-5 -6.00822,1.2484 -8.31969,3.74513 -1.38617,-2.49673 -3.69719,-3.7451 -6.93308,-3.74513 -2.43469,3e-5 -4.63804,0.72413 -6.61004,2.17231 l 0,-2.17231 -5.86949,0 0,29.35166 5.86949,0 0,-14.6984 c -1e-5,-2.24941 0.6317,-4.2755 1.89513,-6.07825 1.26341,-1.80272 2.83505,-2.70409 4.71491,-2.70412 0.73914,3e-5 1.29374,0.20809 1.6638,0.62419 0.37003,0.41615 0.64745,1.24817 0.83225,2.49605 0.18477,1.24793 0.27717,3.1353 0.27718,5.66213 l 0,14.6984 5.8709,0 0,-14.6984 c -2e-5,-2.24941 0.62393,-4.2755 1.87186,-6.07825 1.24788,-1.80272 2.8268,-2.70409 4.73678,-2.70412 0.74006,3e-5 1.29489,0.20809 1.6645,0.62419 0.36954,0.41615 0.64673,1.24817 0.83155,2.49605 0.18475,1.24793 0.27715,3.1353 0.27718,5.66213 l 0,14.6984 5.87089,0 0,-14.6984 c -3e-5,-0.89336 -0.008,-1.57891 -0.0233,-2.05665 -0.0156,-0.4777 -0.0464,-1.18653 -0.0924,-2.12647 -0.0461,-0.93991 -0.11548,-1.68729 -0.20807,-2.24214 -0.0927,-0.55481 -0.23913,-1.2406 -0.4394,-2.05735 -0.20034,-0.81671 -0.44672,-1.48698 -0.73915,-2.01081 -0.2925,-0.52377 -0.65455,-1.07837 -1.08616,-1.66379 -0.43167,-0.58537 -0.93244,-1.03982 -1.50228,-1.36334 -0.56992,-0.32347 -1.24018,-0.59313 -2.0108,-0.80898 -0.77069,-0.21579 -1.61822,-0.3237 -2.5426,-0.32373 z"
         style=""
         id="path5902" />
    </g>
  </g>
</svg>
