<?xml version="1.0" encoding="UTF-8" standalone="no"?>
<!-- Created with Inkscape (http://www.inkscape.org/) -->

<svg
   xmlns:svg="http://www.w3.org/2000/svg"
   xmlns="http://www.w3.org/2000/svg"
   version="1.1"
   width="1800"
   height="300"
   id="svg5338">
  <defs
     id="defs5340" />
  <rect
     width="1800"
     height="300"
     rx="50"
     ry="50"
     x="0"
     y="0"
     id="rect5348"
     style="color:#000000;fill:#000000;fill-opacity:1;stroke:none;stroke-width:99;marker:none;visibility:visible;display:inline;overflow:visible;enable-background:accumulate" />
  <rect
     width="1770"
     height="270"
     rx="50"
     ry="50"
     x="15"
     y="15"
     id="rect5860"
     style="color:#000000;fill:#ffffff;fill-opacity:1;fill-rule:nonzero;stroke:none;stroke-width:99;marker:none;visibility:visible;display:inline;overflow:visible;enable-background:accumulate" />
  <g
     id="text2814"
     style="font-size:250px;font-style:normal;font-weight:normal;text-align:center;text-anchor:middle;fill:#000000;fill-opacity:1;stroke:none">
    <path
       d="m 376.34125,37.498123 c 15.50275,3.835242 31.83727,9.501334 49.0036,16.998291 3.00068,1.332787 5.0835,3.541494 6.24847,6.626129 1.16454,3.084996 1.08061,6.12785 -0.25177,9.128571 -1.33281,3.001063 -3.58221,5.041924 -6.7482,6.122589 -3.1664,1.080995 -6.24995,0.95511 -9.25064,-0.377655 -15.66587,-6.998526 -31.49939,-12.496771 -47.50061,-16.494751 -3.00104,-0.833965 -5.20975,-2.584909 -6.62613,-5.252838 -1.41667,-2.667555 -1.54001,-5.417949 -0.37002,-8.25119 1.33245,-3.163458 3.45723,-5.57943 6.37436,-7.247925 2.91681,-1.66809 5.95712,-2.085163 9.12094,-1.251221 z m 33.75244,141.502377 0,52.00196 c -2e-4,1.49537 0.75003,2.24305 2.25067,2.24304 l 32.50122,0 c 3.33127,1e-5 6.08039,1.08338 8.24738,3.25012 2.1665,2.16675 3.24988,4.91715 3.25012,8.25119 -2.4e-4,3.33404 -1.08362,6.08443 -3.25012,8.25119 -2.16699,2.16674 -4.91611,3.25011 -8.24738,3.25012 l -98.25134,0 c -3.16887,-10e-6 -5.87858,-1.08338 -8.12912,-3.25012 -2.2508,-2.16676 -3.37613,-4.91715 -3.37601,-8.25119 -1.2e-4,-3.33404 1.12521,-6.08444 3.37601,-8.25119 2.25054,-2.16674 4.96025,-3.25011 8.12912,-3.25012 l 33.74481,0 c 1.50028,1e-5 2.2505,-0.74767 2.25067,-2.24304 l 0,-52.00196 c -1.7e-4,-1.50038 -0.75039,-2.2506 -2.25067,-2.25067 l -26.9928,0 c -3.16888,7e-5 -5.87858,-1.04134 -8.12912,-3.12423 -2.2508,-2.08276 -3.37613,-4.70854 -3.376,-7.87735 -1.3e-4,-3.16867 1.1252,-5.8771 3.376,-8.12531 2.25054,-2.24804 4.96024,-3.37211 8.12912,-3.37219 l 26.9928,0 c 1.50028,8e-5 2.2505,-0.66622 2.25067,-1.9989 l 0,-42.50336 c -1.7e-4,-1.50032 -0.75039,-2.25054 -2.25067,-2.25067 l -31.74591,0 c -3.33163,1.3e-4 -6.12272,-1.1252 -8.37326,-3.37601 -2.2508,-2.25053 -3.37613,-4.958963 -3.37601,-8.125304 -1.2e-4,-3.166051 1.1659,-5.915173 3.49808,-8.247376 2.33192,-2.331896 5.08232,-3.49792 8.25119,-3.498077 l 94.24591,0 c 3.16851,1.57e-4 5.87821,1.12422 8.12912,3.372192 2.25043,2.24828 3.37577,5.040635 3.37601,8.377075 -2.4e-4,3.163798 -1.08362,5.87096 -3.25012,8.12149 -2.16699,2.25081 -4.91865,3.37614 -8.25501,3.37601 l -30.49469,0 c -1.50064,1.3e-4 -2.25087,0.75035 -2.25067,2.25067 l 0,42.50336 c -2e-4,1.33268 0.75003,1.99898 2.25067,1.9989 l 26.00098,0 c 3.16342,8e-5 5.78666,1.12415 7.86972,3.37219 2.08259,2.24821 3.124,4.95664 3.12423,8.12531 -2.3e-4,3.16881 -1.04164,5.79459 -3.12423,7.87735 -2.08306,2.08289 -4.7063,3.1243 -7.86972,3.12423 l -26.00098,0 c -1.50064,7e-5 -2.25087,0.75029 -2.25067,2.25067 z m -176.75018,-14.99939 0,-104.751583 c -2e-5,-3.834857 1.37454,-7.168899 4.12368,-10.002136 2.7491,-2.832854 6.04118,-4.249377 9.87625,-4.249573 l 76.49994,0 c 2.83294,1.96e-4 5.29087,1.083569 7.37381,3.250122 2.08271,2.166939 3.12412,4.666835 3.12424,7.499695 -1.2e-4,2.833231 -1.04153,5.291165 -3.12424,7.37381 -2.08294,2.083 -4.54087,3.124412 -7.37381,3.124237 l -15.50293,0 c -1.33269,1.75e-4 -1.99899,0.669018 -1.9989,2.006531 l 0,12.748718 c -9e-5,1.500606 0.66621,2.250829 1.9989,2.250671 l 13.25226,0 c 2.66509,1.58e-4 4.95645,0.916956 6.87409,2.750397 1.9174,1.833751 2.87616,4.083149 2.87628,6.748199 -1.2e-4,2.665348 -0.95888,4.956707 -2.87628,6.874085 -1.91764,1.917657 -4.209,2.876417 -6.87409,2.876277 l -13.25226,0 c -1.33269,1.4e-4 -1.99899,0.75037 -1.9989,2.25068 l 0,12.49694 c -9e-5,1.33273 0.66621,1.99903 1.9989,1.99891 l 13.25226,0 c 2.66509,1.2e-4 4.95645,0.95888 6.87409,2.87628 1.9174,1.91764 2.87616,4.20899 2.87628,6.87408 -1.2e-4,2.66531 -0.95888,4.95667 -2.87628,6.87409 -1.91764,1.91762 -4.209,2.87638 -6.87409,2.87628 l -13.25226,0 c -1.33269,1e-4 -1.99899,0.6664 -1.9989,1.9989 l 0,13.99994 c -9e-5,1.33268 0.66621,1.99898 1.9989,1.9989 l 12.50458,0 c 3.82985,8e-5 7.16135,1.41788 9.99451,4.25339 2.83293,2.83567 4.24945,6.16844 4.24957,9.99832 l 0,5.75256 c -1.2e-4,24.99902 -0.74907,43.49902 -2.24686,55.50003 -1.49802,12.00104 -3.70545,19.9178 -6.62231,23.75031 -2.91708,3.83248 -7.46038,5.74873 -13.62991,5.74875 -4.83205,-2e-5 -10.58206,-0.24925 -17.25006,-0.74768 -3.16374,-0.16787 -5.82894,-1.41909 -7.99561,-3.75367 -2.16682,-2.3346 -3.33412,-5.16765 -3.50189,-8.49914 -0.16792,-3.0009 0.83153,-5.5008 2.99835,-7.4997 2.16667,-1.9989 4.75049,-2.83304 7.75147,-2.50244 4.99971,0.3357 8.08198,0.50354 9.24682,0.50354 1.6682,0 2.8355,-0.25049 3.50189,-0.75149 0.66621,-0.501 1.29182,-1.95948 1.87683,-4.37546 0.58483,-2.41597 0.95867,-6.37308 1.12153,-11.87134 -10e-5,-0.33567 -0.20737,-0.71206 -0.6218,-1.12915 -0.41463,-0.41705 -0.78974,-0.54167 -1.12534,-0.37384 -3.00098,0.49847 -5.75138,-0.12714 -8.25119,-1.87683 -2.49998,-1.74965 -3.99915,-4.12493 -4.49752,-7.12586 -0.66639,-3.16362 -2.08291,-9.74524 -4.24958,-19.74487 -0.33577,-1.83609 -0.003,-3.54507 0.99945,-5.12695 1.00192,-1.58177 2.41844,-2.53926 4.24958,-2.87247 1.83097,-0.33309 3.6226,0.042 5.3749,1.12534 1.75213,1.08343 2.79354,2.54064 3.12424,4.37164 2.3345,10.66594 3.91887,18.5827 4.75311,23.75031 -9e-5,0.16787 0.0826,0.25179 0.24796,0.25177 0.16521,2e-5 0.24786,-0.0839 0.24796,-0.25177 l 0,-32.753 c -1e-4,-1.50038 -0.6664,-2.2506 -1.99891,-2.25067 l -61.24878,0 c -3.83507,7e-5 -7.12715,-1.41646 -9.87625,-4.24957 -2.74914,-2.83298 -4.1237,-6.16448 -4.12368,-9.99451 z m 26.00097,-95.748897 0,12.748718 c -4e-5,1.500606 0.75018,2.250829 2.25067,2.250671 l 17.74598,0 c 1.33253,1.58e-4 1.99883,-0.750065 1.9989,-2.250671 l 0,-12.748718 c -7e-5,-1.337513 -0.66637,-2.006356 -1.9989,-2.006531 l -17.74598,0 c -1.50049,1.75e-4 -2.25071,0.669018 -2.25067,2.006531 z m 0,36.499027 0,12.49694 c -4e-5,1.33273 0.75018,1.99903 2.25067,1.99891 l 17.74598,0 c 1.33253,1.2e-4 1.99883,-0.66618 1.9989,-1.99891 l 0,-12.49694 c -7e-5,-1.50031 -0.66637,-2.25054 -1.9989,-2.25068 l -17.74598,0 c -1.50049,1.4e-4 -2.25071,0.75037 -2.25067,2.25068 z m 0,35.99548 0,13.99994 c -4e-5,1.33268 0.75018,1.99898 2.25067,1.9989 l 17.74598,0 c 1.33253,8e-5 1.99883,-0.66622 1.9989,-1.9989 l 0,-13.99994 c -7e-5,-1.3325 -0.66637,-1.9988 -1.9989,-1.9989 l -17.74598,0 c -1.50049,1e-4 -2.25071,0.6664 -2.25067,1.9989 z m -11.25335,54.25262 c -1.83109,19.66861 -4.08176,36.25235 -6.75202,49.75129 -0.49848,2.33458 -1.78912,4.16818 -3.87192,5.50079 -2.08284,1.33259 -4.29155,1.66574 -6.62613,0.99945 -2.3346,-0.66631 -4.1682,-2.04214 -5.50079,-4.1275 -1.33261,-2.08537 -1.74968,-4.37673 -1.25122,-6.87409 3.50442,-16.99827 5.92294,-32.83179 7.25555,-47.50061 0.33059,-2.33454 1.37073,-4.2101 3.12043,-5.62668 1.74965,-1.41646 3.70786,-2.0408 5.87463,-1.87301 2.33457,0.1679 4.29405,1.25127 5.87845,3.25012 1.58434,1.99895 2.20867,4.1657 1.87302,6.50024 z m 15.50293,51.49842 c -2.1668,0.16784 -4.04236,-0.41454 -5.62668,-1.74713 -1.58442,-1.33261 -2.46052,-3.08228 -2.62833,-5.24903 -0.49849,-12.33417 -1.41402,-27.16824 -2.74658,-44.50226 -0.16789,-2.1667 0.3738,-4.08294 1.62506,-5.74874 1.25118,-1.6657 2.96016,-2.5825 5.12695,-2.7504 1.99886,-0.33564 3.87314,0.12212 5.62287,1.37329 1.74962,1.25127 2.70838,2.96025 2.87628,5.12695 1.33254,13.66683 2.41592,28.6662 3.25012,44.99817 0.16779,2.16675 -0.49851,4.04231 -1.9989,5.62668 -1.5005,1.58437 -3.3341,2.54185 -5.50079,2.87247 z m 9.87243,-57.99866 c 1.25116,-1.66824 2.87622,-2.66896 4.87518,-3.00217 1.99884,-0.33309 3.83244,0.084 5.5008,1.25122 1.66822,1.16735 2.66767,2.75045 2.99835,4.7493 1.83607,10.50317 3.42044,21.8379 4.75311,34.00421 0.16777,2.16676 -0.33195,4.04105 -1.49917,5.62287 -1.16738,1.58183 -2.8344,2.54059 -5.00107,2.87628 -1.99897,0.33061 -3.79061,-0.12842 -5.37491,-1.37711 -1.58443,-1.24866 -2.54192,-2.87245 -2.87247,-4.87137 -0.67145,-5.16762 -2.25581,-16.41842 -4.75311,-33.75244 -0.33575,-1.99885 0.12201,-3.83244 1.37329,-5.50079 z"
       id="path2824"
       style="font-variant:normal;font-stretch:normal;font-family:'Rounded M+ 1p medium';-inkscape-font-specification:'Rounded M+ 1p medium,'" />
    <path
       d="m 575.0946,252.50209 0,-14.75525 c -1.1e-4,-1.33259 -0.75033,-1.99889 -2.25067,-1.9989 l -86.99798,0 c -2.83307,1e-5 -5.33297,-1.08337 -7.4997,-3.25012 -2.16676,-2.16674 -3.25013,-4.66663 -3.25012,-7.4997 -1e-5,-2.83303 1.08336,-5.29096 3.25012,-7.37381 2.16673,-2.0828 4.66663,-3.12421 7.4997,-3.12423 l 86.99798,0 c 1.50034,2e-5 2.25056,-0.7502 2.25067,-2.25068 l 0,-14.50347 c -1.1e-4,-1.33256 -0.75033,-1.99886 -2.25067,-1.99891 l -51.0025,0 -11.24573,0 c -3.83508,5e-5 -7.16912,-1.41647 -10.00213,-4.24957 -2.83309,-2.83299 -4.24961,-6.16704 -4.24958,-10.00213 l 0,-69.24439 c -3e-5,-3.83491 1.41649,-7.12699 4.24958,-9.87625 2.83301,-2.748984 6.16705,-4.123545 10.00213,-4.123688 l 62.24823,0 c 1.50034,1.43e-4 2.25056,-0.75008 2.25067,-2.250672 l 0,-13.252258 c -1.1e-4,-1.332441 -0.75033,-1.998741 -2.25067,-1.998901 l -84.50317,0 c -2.83307,1.6e-4 -5.33297,-1.083213 -7.4997,-3.250122 -2.16676,-2.166582 -3.25013,-4.666478 -3.25012,-7.499695 -10e-6,-2.832875 1.08336,-5.33277 3.25012,-7.499695 2.16673,-2.166567 4.66663,-3.24994 7.4997,-3.250122 l 84.50317,0 c 1.50034,1.82e-4 2.25056,-0.666118 2.25067,-1.998901 l 0,-7.255555 c -1.1e-4,-3.829761 1.37445,-7.078608 4.12369,-9.746551 2.74901,-2.667541 5.95717,-4.001413 9.62448,-4.001618 3.66707,2.05e-4 6.87523,1.334077 9.62448,4.001618 2.74899,2.667943 4.12355,5.91679 4.12369,9.746551 l 0,7.255555 c -1.4e-4,1.332783 0.75009,1.999083 2.25067,1.998901 l 84.50318,0 c 2.83282,1.82e-4 5.33271,1.083555 7.49969,3.250122 2.16652,2.166925 3.24989,4.66682 3.25012,7.499695 -2.3e-4,2.833217 -1.0836,5.333113 -3.25012,7.499695 -2.16698,2.166909 -4.66687,3.250282 -7.49969,3.250122 l -84.50318,0 c -1.50058,1.6e-4 -2.25081,0.66646 -2.25067,1.998901 l 0,13.252258 c -1.4e-4,1.500592 0.75009,2.250815 2.25067,2.250672 l 62.24823,0 c 3.83484,1.43e-4 7.16888,1.374704 10.00214,4.123688 2.83283,2.74926 4.24936,6.04134 4.24957,9.87625 l 0,69.24439 c -2.1e-4,3.83509 -1.41674,7.16914 -4.24957,10.00213 -2.83326,2.8331 -6.1673,4.24962 -10.00214,4.24957 l -62.24823,0 c -1.50058,5e-5 -2.25081,0.66635 -2.25067,1.99891 l 0,14.50347 c -1.4e-4,1.50048 0.75009,2.2507 2.25067,2.25068 l 86.99799,0 c 2.83282,2e-5 5.33271,1.04143 7.49969,3.12423 2.16651,2.08285 3.24989,4.54078 3.25013,7.37381 -2.4e-4,2.83307 -1.08362,5.33296 -3.25013,7.4997 -2.16698,2.16675 -4.66687,3.25013 -7.49969,3.25012 l -86.99799,0 c -1.50058,1e-5 -2.25081,0.66631 -2.25067,1.9989 l 0,14.75525 c -1.4e-4,3.82994 -1.3747,7.07879 -4.12369,9.74655 -2.74925,2.66772 -5.95741,4.00159 -9.62448,4.00162 -3.66731,-3e-5 -6.87547,-1.3339 -9.62448,-4.00162 -2.74924,-2.66776 -4.1238,-5.91661 -4.12369,-9.74655 z m 80.74952,-79.00238 0,-15.7547 c -2e-4,-1.33252 -0.75042,-1.99882 -2.25068,-1.9989 l -48.75183,0 c -1.50058,8e-5 -2.25081,0.66638 -2.25067,1.9989 l 0,15.7547 c -1.4e-4,1.50051 0.75009,2.25074 2.25067,2.25067 l 48.75183,0 c 1.50026,7e-5 2.25048,-0.75016 2.25068,-2.25067 z m -2.25068,-55.25208 -48.75183,0 c -1.50058,1.3e-4 -2.25081,0.66643 -2.25067,1.99891 l 0,14.50348 c -1.4e-4,1.3327 0.75009,1.999 2.25067,1.9989 l 48.75183,0 c 1.50026,1e-4 2.25048,-0.6662 2.25068,-1.9989 l 0,-14.50348 c -2e-4,-1.33248 -0.75042,-1.99878 -2.25068,-1.99891 z m -131.75201,1.99891 0,14.50348 c -6e-5,1.3327 0.75017,1.999 2.25067,1.9989 l 48.75183,0 c 1.50034,1e-4 2.25056,-0.6662 2.25067,-1.9989 l 0,-14.50348 c -1.1e-4,-1.33248 -0.75033,-1.99878 -2.25067,-1.99891 l -48.75183,0 c -1.5005,1.3e-4 -2.25073,0.66643 -2.25067,1.99891 z m 2.25067,55.50384 48.75183,0 c 1.50034,7e-5 2.25056,-0.75016 2.25067,-2.25067 l 0,-15.7547 c -1.1e-4,-1.33252 -0.75033,-1.99882 -2.25067,-1.9989 l -48.75183,0 c -1.5005,8e-5 -2.25073,0.66638 -2.25067,1.9989 l 0,15.7547 c -6e-5,1.50051 0.75017,2.25074 2.25067,2.25067 z"
       id="path2826"
       style="font-variant:normal;font-stretch:normal;font-family:'Rounded M+ 1p medium';-inkscape-font-specification:'Rounded M+ 1p medium,'" />
    <path
       d="m 736.34186,226.50111 c 16.16919,-12.83261 29.33497,-26.91646 39.49737,-42.25158 1.83608,-2.83299 4.37921,-4.66659 7.6294,-5.5008 3.25005,-0.83408 6.29163,-0.50093 9.12475,0.99945 3.00082,1.66836 4.95903,4.04364 5.87464,7.12586 0.91544,3.08233 0.5416,6.03998 -1.12152,8.87298 -11.83581,19.17016 -27.08695,36.08705 -45.75348,50.75074 -2.83309,2.16674 -5.95859,3.00088 -9.37653,2.50244 -3.41799,-0.49846 -6.21035,-2.16548 -8.37707,-5.00107 -2.16677,-2.83559 -2.99964,-5.91914 -2.49863,-9.25064 0.50098,-3.33149 2.168,-6.08062 5.00107,-8.24738 z m 165.00091,-44.75402 c 15.16704,14.66882 29.66796,30.75157 43.50281,48.24829 2.16652,2.83305 2.99939,5.9166 2.49863,9.25064 -0.50123,3.33404 -2.16825,6.08444 -5.00107,8.25119 -2.83327,2.16674 -5.91682,3.00088 -9.25064,2.50244 -3.33426,-0.49846 -6.08466,-2.16421 -8.25119,-4.99725 -11.99869,-15.67077 -25.74939,-31.25506 -41.25214,-46.75293 -2.32967,-2.33455 -3.49443,-5.16887 -3.49426,-8.50296 -1.7e-4,-3.33399 1.24851,-6.08439 3.74603,-8.25119 2.50227,-2.32945 5.4612,-3.45351 8.8768,-3.3722 3.41525,0.0814 6.29025,1.28943 8.62503,3.62397 z M 771.34552,101.74525 c -12.50208,6.83607 -22.83736,12.17156 -31.00586,16.00647 -2.83307,1.33273 -5.70808,1.41538 -8.62503,0.24796 -2.91699,-1.16717 -5.04177,-3.25127 -6.37436,-6.25229 -1.33261,-2.83292 -1.41526,-5.74988 -0.24795,-8.75091 1.16728,-3.000759 3.16745,-5.167505 6.00051,-6.500249 28.49829,-13.997237 55.16554,-30.163908 80.00184,-48.500061 8.00058,-5.833745 16.49972,-8.750713 25.49743,-8.750915 l 4.50134,0 c 8.99747,2.02e-4 17.4966,2.91717 25.49744,8.750915 24.83605,18.336153 51.5033,34.502824 80.00183,48.500061 2.83282,1.332744 4.83299,3.49949 6.00052,6.500249 1.16706,3.00103 1.08441,5.91799 -0.24795,8.75091 -1.33284,3.00102 -3.45763,5.08512 -6.37436,6.25229 -2.9172,1.16742 -5.79221,1.08477 -8.62503,-0.24796 -8.16876,-3.83491 -18.50403,-9.1704 -31.00586,-16.00647 -1.3328,-0.82892 -1.9991,-0.49322 -1.9989,1.00708 -2e-4,3.8301 -1.2921,7.03698 -3.87574,9.62067 -2.584,2.58395 -5.70696,3.87586 -9.36889,3.87573 l -34.50013,0 c -1.50058,1.3e-4 -2.25081,0.66643 -2.25067,1.9989 l 0,26.50452 c -1.4e-4,1.3327 0.75009,1.999 2.25067,1.9989 l 77.49939,0 c 2.99559,1e-4 5.57687,1.08347 7.74384,3.25012 2.16652,2.16684 3.24989,4.74939 3.25012,7.74766 -2.3e-4,2.99843 -1.0836,5.58098 -3.25012,7.74765 -2.16697,2.16682 -4.74825,3.25019 -7.74384,3.25012 l -77.49939,0 c -1.50058,7e-5 -2.25081,0.66637 -2.25067,1.9989 l 0,54.25262 c -1.4e-4,16.49984 -1.79177,26.666 -5.37491,30.49851 -3.5834,3.83248 -13.21041,5.74873 -28.88107,5.74875 -3.83006,-2e-5 -10.91267,-0.24925 -21.24786,-0.74768 -3.33159,-0.16787 -6.12267,-1.41782 -8.37326,-3.74985 -2.25075,-2.33207 -3.46001,-5.08119 -3.62778,-8.24738 -0.16792,-3.1662 0.87349,-5.83267 3.12424,-7.99942 2.25059,-2.16674 4.96029,-3.16874 8.12912,-3.00598 9.16535,0.50354 15.41382,0.75531 18.74542,0.75531 5.16753,0 8.25108,-0.62561 9.25064,-1.87683 0.99934,-1.25121 1.49906,-5.04302 1.49918,-11.37543 l 0,-54.25262 c -1.2e-4,-1.33253 -0.7478,-1.99883 -2.24305,-1.9989 l -81.75659,0 c -2.99583,7e-5 -5.57711,-1.0833 -7.74383,-3.25012 -2.16677,-2.16667 -3.25014,-4.74922 -3.25012,-7.74765 -2e-5,-2.99827 1.08335,-5.58082 3.25012,-7.74766 2.16672,-2.16665 4.748,-3.25002 7.74383,-3.25012 l 81.75659,0 c 1.49525,1e-4 2.24293,-0.6662 2.24305,-1.9989 l 0,-26.50452 c -1.2e-4,-1.33247 -0.7478,-1.99877 -2.24305,-1.9989 l -38.75732,0 c -3.66218,1.3e-4 -6.78514,-1.29178 -9.3689,-3.87573 -2.58388,-2.58369 -3.87579,-5.79057 -3.87573,-9.62067 -6e-5,-0.5034 -0.25056,-0.87978 -0.75149,-1.12915 -0.50106,-0.24908 -0.91686,-0.20839 -1.24741,0.12207 z m 65.99426,-43.243404 c -14.6638,11.500212 -31.746,23.081622 -51.24664,34.744263 -0.16792,0.167995 -0.25184,0.418493 -0.25177,0.751495 -7e-5,0.333298 0.16777,0.499872 0.50354,0.499726 l 104.99573,0 c 0.33551,1.46e-4 0.50336,-0.166428 0.50354,-0.499726 -1.8e-4,-0.333002 -0.0841,-0.5835 -0.25177,-0.751495 -19.50089,-11.662641 -36.58309,-23.244051 -51.24665,-34.744263 -1.00212,-0.833963 -2.00411,-0.833963 -3.00598,0 z"
       id="path2828"
       style="font-variant:normal;font-stretch:normal;font-family:'Rounded M+ 1p medium';-inkscape-font-specification:'Rounded M+ 1p medium,'" />
    <path
       d="m 985.84595,224.74635 c 5.82883,-1.66319 9.49348,-2.74656 10.99395,-3.25012 1.33766,-0.49843 2.0065,-1.41396 2.00654,-2.74658 l 0,-103.50037 c -4e-5,-1.33247 -0.66888,-1.99877 -2.00654,-1.9989 l -10.49804,0 c -3.16368,1.3e-4 -5.82888,-1.12521 -7.99561,-3.37601 -2.16676,-2.25053 -3.25013,-4.95897 -3.25012,-8.1253 -10e-6,-3.166057 1.08336,-5.790566 3.25012,-7.873536 2.16673,-2.082675 4.83193,-3.124087 7.99561,-3.124237 l 10.49804,0 c 1.33766,1.5e-4 2.0065,-0.750073 2.00654,-2.250671 l 0,-32.249451 c -4e-5,-3.667007 1.29056,-6.750551 3.87196,-9.250641 2.5812,-2.499701 5.7054,-3.749649 9.3727,-3.749847 3.6671,1.98e-4 6.7507,1.250146 9.2506,3.749847 2.4998,2.50009 3.7498,5.583634 3.7499,9.250641 l 0,32.249451 c -10e-5,1.500598 0.7501,2.250821 2.2506,2.250671 l 14,0 c 2.8329,1.5e-4 5.3328,1.041562 7.4997,3.124237 2.1666,2.08297 3.25,4.540904 3.2501,7.373806 -1e-4,1.1649 0.5009,1.58197 1.503,1.25122 l 9.9945,-2.502437 c 1.5003,-0.330465 2.2505,-1.164612 2.2506,-2.502441 l 0,-33.744812 c -10e-5,-3.667015 1.2499,-6.750559 3.7499,-9.250641 2.4998,-2.499709 5.5833,-3.749657 9.2506,-3.749848 3.6671,1.91e-4 6.7926,1.250139 9.3766,3.749848 2.5837,2.500082 3.8756,5.583626 3.8757,9.250641 l 0,27.748108 c -1e-4,1.332749 0.6662,1.833745 1.9989,1.50299 l 21.4996,-5.004882 c 1.3325,-0.330454 1.9988,-1.162057 1.9989,-2.494812 l 0,-35.507203 c -10e-5,-3.499154 1.2091,-6.456813 3.6278,-8.872985 2.4184,-2.415773 5.3773,-3.623759 8.8768,-3.623963 3.4992,2.04e-4 6.4568,1.20819 8.873,3.623963 2.4158,2.416172 3.6238,5.373831 3.624,8.872985 l 0,29.754639 c -2e-4,1.332761 0.6661,1.831214 1.9989,1.495361 l 39.2532,-8.995056 c 3.4991,-0.833977 6.6653,-0.167677 9.4986,1.998902 2.8328,2.166913 4.2493,5.083881 4.2496,8.750915 -3e-4,31.499358 -0.7925,54.624028 -2.3766,69.374088 -1.5846,14.75023 -3.7513,24.00087 -6.5002,27.75192 -2.7494,3.75118 -7.2901,5.62673 -13.6223,5.62668 -1.5007,5e-5 -4.9186,-0.16779 -10.2539,-0.50354 -3.4996,-0.16779 -6.4992,-1.37705 -8.9989,-3.62778 -2.5001,-2.25061 -4.0832,-5.04169 -4.7493,-8.37326 -0.4986,-2.83298 0.2109,-5.41553 2.1286,-7.74765 1.9173,-2.33197 4.374,-3.41662 7.37,-3.25394 0.8339,8e-5 1.8766,0.042 3.1281,0.12589 1.251,0.084 2.1258,0.12596 2.6245,0.12588 1.1645,8e-5 1.9554,-0.37503 2.3727,-1.12533 0.4169,-0.75015 0.8759,-3.16612 1.3771,-7.24793 0.5008,-4.08163 0.8759,-10.12284 1.1253,-18.12362 0.2491,-8.00058 0.4576,-19.50061 0.6257,-34.50013 -3e-4,-1.5003 -0.6666,-2.085222 -1.9989,-1.754757 l -25.2533,6.004337 c -1.3328,0.33074 -1.9991,1.24627 -1.9989,2.74658 l 0,83.25195 c -2e-4,3.4994 -1.2082,6.45706 -3.624,8.87299 -2.4162,2.41601 -5.3738,3.624 -8.873,3.62396 -3.4995,4e-5 -6.4584,-1.20795 -8.8768,-3.62396 -2.4187,-2.41593 -3.6279,-5.37359 -3.6278,-8.87299 l 0,-77.49939 c -10e-5,-1.33247 -0.6664,-1.83347 -1.9989,-1.50299 l -21.4996,5.00488 c -1.3327,0.33073 -1.999,1.24626 -1.9989,2.74659 l 0,104.49981 c -1e-4,5.83396 1.8754,9.25065 5.6267,10.25009 3.751,0.99946 17.0426,1.49919 39.875,1.49918 7.497,1e-5 12.788,-0.042 15.873,-0.12588 3.0846,-0.0839 6.6272,-0.501 10.6277,-1.25122 4.0001,-0.75022 6.5827,-1.66575 7.7477,-2.74659 1.1645,-1.08082 2.5391,-3.07972 4.1236,-5.9967 1.5842,-2.91696 2.5849,-6.08442 3.0022,-9.50241 0.4169,-3.41794 0.8746,-8.2092 1.3733,-14.37378 0.3355,-3.33655 1.8359,-6.04625 4.5013,-8.12912 2.665,-2.08278 5.6659,-2.79104 9.0027,-2.12479 3.6619,0.66635 6.5763,2.49995 8.7433,5.5008 2.1665,3.00093 3.0846,6.33497 2.7542,10.00213 -0.4987,6.66812 -1.0404,12.16891 -1.625,16.50238 -0.5852,4.33351 -1.5859,8.49916 -3.0022,12.49695 -1.4168,3.9978 -2.7494,7.12204 -3.9978,9.37271 -1.2489,2.25067 -3.4157,4.33476 -6.5002,6.25229 -3.0851,1.91751 -6.044,3.29207 -8.8768,4.12369 -2.8333,0.83159 -7.1248,1.53985 -12.8747,2.12478 -5.7502,0.58491 -11.209,0.91933 -16.3764,1.00327 -5.1679,0.0839 -12.2505,0.12587 -21.2479,0.12589 -10.8339,-2e-5 -19.4589,-0.084 -25.8751,-0.25177 -6.4165,-0.16787 -12.333,-0.70956 -17.7498,-1.62507 -5.417,-0.91554 -9.3334,-1.91499 -11.7493,-2.99835 -2.416,-1.08338 -4.4582,-2.91698 -6.1264,-5.50079 -1.6684,-2.58383 -2.6691,-5.25157 -3.0021,-8.00324 -0.3333,-2.75166 -0.4999,-6.62739 -0.4998,-11.62719 l 0,-103.2486 c -10e-5,-0.49834 -0.2493,-0.9561 -0.7476,-1.37329 -0.4986,-0.41696 -0.9996,-0.54157 -1.503,-0.37384 l -6.7444,1.74713 c -3.6673,0.83426 -7.084,0.20992 -10.2501,-1.87302 -3.1663,-2.0827 -5.0011,-5.04163 -5.5046,-8.8768 l 0,-0.74768 c -0.3307,-1.33247 -1.1623,-1.99877 -2.4948,-1.9989 l -11.2534,0 c -1.5005,1.3e-4 -2.2507,0.66643 -2.2506,1.9989 l 0,94.49768 c -10e-5,1.16987 0.6662,1.58695 1.9989,1.25122 7.0037,-2.66516 12.2552,-4.74799 15.7547,-6.24847 2.4972,-1.1698 4.9132,-1.0045 7.2479,0.49591 2.3345,1.50048 3.5832,3.58585 3.746,6.2561 0.1678,3.49938 -0.6651,6.74823 -2.4986,9.74656 -1.8337,2.99836 -4.3323,5.24776 -7.4959,6.7482 -17.8325,8.16854 -36.3338,15.16977 -55.50384,21.00372 -3.00092,0.83414 -5.83396,0.37637 -8.49915,-1.37329 -2.66521,-1.74968 -4.16566,-4.20889 -4.50134,-7.37763 -0.33062,-3.49934 0.50353,-6.7075 2.50244,-9.62448 1.99889,-2.91696 4.66663,-4.87644 8.00324,-5.87845 z"
       id="path2830"
       style="font-variant:normal;font-stretch:normal;font-family:'Rounded M+ 1p medium';-inkscape-font-specification:'Rounded M+ 1p medium,'" />
    <path
       d="m 1293.8446,138.25191 c -11.668,1e-4 -20.9605,3.62406 -27.8778,10.87188 -6.9174,7.24801 -10.376,17.12298 -10.376,29.62494 0,13.83469 3.334,24.37723 10.0022,31.62766 6.668,7.25049 16.0852,10.87572 28.2516,10.8757 12.4969,2e-5 22.0794,-3.58325 28.7476,-10.74982 6.6679,-7.1665 10.002,-17.75101 10.0021,-31.75354 -10e-5,-12.83256 -3.4168,-22.79018 -10.2501,-29.87289 -6.8335,-7.08252 -16.3333,-10.62383 -28.4996,-10.62393 z m 0,105.49926 c -21.1691,0 -37.5036,-6.16709 -49.0036,-18.50128 -11.5001,-12.33416 -17.2501,-30.7515 -17.2501,-55.25207 0,-31.16343 7.3751,-56.66212 22.1253,-76.496126 14.7501,-19.833715 35.3749,-31.833469 61.8744,-35.999298 3.1686,-0.503356 6.1275,0.203634 8.8768,2.120971 2.749,1.917701 4.5406,4.54221 5.3749,7.873535 0.6662,3.001066 0.082,5.75146 -1.751,8.251191 -1.8337,2.500061 -4.2509,3.999235 -7.2517,4.497528 -14.8316,2.670446 -26.914,8.130544 -36.2473,16.38031 -9.3333,8.250059 -16.5838,19.625469 -21.7514,34.126279 l 0,0.49591 0.5036,0 c 11.3321,-9.16532 24.915,-13.74804 40.7486,-13.74817 18.8343,1.3e-4 33.5425,5.37503 44.1246,16.12473 10.5818,10.74991 15.8728,25.79125 15.8729,45.12405 -10e-5,19.83139 -5.9994,35.62295 -17.9977,47.37473 -11.9986,11.75181 -28.0814,17.62771 -48.2483,17.62771 z"
       id="path2832"
       style="font-variant:normal;font-stretch:normal;font-family:'Rounded M+ 1p medium';-inkscape-font-specification:'Rounded M+ 1p medium,'" />
    <path
       d="m 1414.5569,166.25179 0,62.5 c -10e-5,3.49935 -1.208,6.45701 -3.624,8.87298 -2.416,2.41598 -5.3736,3.62396 -8.873,3.62396 -3.4993,0 -6.4583,-1.20798 -8.8768,-3.62396 -2.4185,-2.41597 -3.6278,-5.37363 -3.6277,-8.87298 l 0,-105.49927 c -10e-5,-3.33647 1.1672,-6.17079 3.5019,-8.50296 2.3345,-2.33193 5.0849,-3.49795 8.2511,-3.49808 3.1662,1.3e-4 5.9573,1.16615 8.3733,3.49808 2.4159,2.33217 3.7078,5.16649 3.8757,8.50296 l 0.2518,5.24902 c 0,0.16287 0.084,0.24425 0.2518,0.24414 0.3305,1.1e-4 0.4958,-0.0813 0.4959,-0.24414 9.5011,-13.16821 20.3348,-19.75237 32.5012,-19.7525 15.6656,1.3e-4 27.1656,7.4159 34.5001,22.24731 -10e-5,0.16796 0.1665,0.25188 0.4998,0.25177 0.333,1.1e-4 0.4996,-0.0838 0.4997,-0.25177 9.501,-14.83141 21.8352,-22.24718 37.0025,-22.24731 13.6667,1.3e-4 23.7502,3.91655 30.2506,11.74927 6.5001,7.83295 9.7502,20.5842 9.7504,38.25378 l 0,70.24384 c -2e-4,3.33659 -1.2095,6.21287 -3.6278,8.62884 -2.4187,2.41598 -5.2937,3.62396 -8.6251,3.62396 -3.3316,0 -6.2066,-1.20798 -8.625,-3.62396 -2.4187,-2.41597 -3.6279,-5.29225 -3.6278,-8.62884 l 0,-62.74414 c -10e-5,-14.6687 -1.5832,-24.5869 -4.7493,-29.75464 -3.1663,-5.16754 -8.8337,-7.75136 -17.0021,-7.75147 -6.8309,1.1e-4 -12.9128,3.70927 -18.2457,11.12747 -5.333,7.41841 -7.9995,16.21128 -7.9994,26.37864 l 0,62.74414 c -10e-5,3.33659 -1.2081,6.21287 -3.6239,8.62884 -2.4161,2.41598 -5.2911,3.62396 -8.6251,3.62396 -3.3341,0 -6.2091,-1.20798 -8.625,-3.62396 -2.4161,-2.41597 -3.6241,-5.29225 -3.624,-8.62884 l 0,-62.74414 c -10e-5,-14.6687 -1.5844,-24.5869 -4.7531,-29.75464 -3.1688,-5.16754 -8.8349,-7.75136 -16.9983,-7.75147 -6.836,1.1e-4 -12.9204,3.70927 -18.2533,11.12747 -5.333,7.41841 -7.9995,16.21128 -7.9994,26.37864 z"
       id="path2834"
       style="font-variant:normal;font-stretch:normal;font-family:'Rounded M+ 1p medium';-inkscape-font-specification:'Rounded M+ 1p medium,'" />
  </g>
</svg>
