<?xml version="1.0" encoding="UTF-8" standalone="no"?>
<!-- Created with Inkscape (http://www.inkscape.org/) -->

<svg
   xmlns:dc="http://purl.org/dc/elements/1.1/"
   xmlns:cc="http://creativecommons.org/ns#"
   xmlns:rdf="http://www.w3.org/1999/02/22-rdf-syntax-ns#"
   xmlns:svg="http://www.w3.org/2000/svg"
   xmlns="http://www.w3.org/2000/svg"
   xmlns:sodipodi="http://sodipodi.sourceforge.net/DTD/sodipodi-0.dtd"
   xmlns:inkscape="http://www.inkscape.org/namespaces/inkscape"
   width="371.63214"
   height="224.04021"
   id="svg4203"
   sodipodi:version="0.32"
   inkscape:version="0.48.4 r9939"
   version="1.0"
   sodipodi:docname="Japanese_Road_sign_(Direction_and_Exit_B).svg"
   inkscape:output_extension="org.inkscape.output.svg.inkscape">
  <defs
     id="defs4205">
    <inkscape:perspective
       sodipodi:type="inkscape:persp3d"
       inkscape:vp_x="0 : 315 : 1"
       inkscape:vp_y="0 : 1000 : 0"
       inkscape:vp_z="1500 : 315 : 1"
       inkscape:persp3d-origin="750 : 210 : 1"
       id="perspective9" />
    <inkscape:perspective
       id="perspective3163"
       inkscape:persp3d-origin="372.04724 : 350.78739 : 1"
       inkscape:vp_z="744.09448 : 526.18109 : 1"
       inkscape:vp_y="0 : 1000 : 0"
       inkscape:vp_x="0 : 526.18109 : 1"
       sodipodi:type="inkscape:persp3d" />
    <inkscape:perspective
       id="perspective2395"
       inkscape:persp3d-origin="372.04724 : 350.78739 : 1"
       inkscape:vp_z="744.09448 : 526.18109 : 1"
       inkscape:vp_y="0 : 1000 : 0"
       inkscape:vp_x="0 : 526.18109 : 1"
       sodipodi:type="inkscape:persp3d" />
    <inkscape:perspective
       id="perspective3843"
       inkscape:persp3d-origin="227.5 : 145 : 1"
       inkscape:vp_z="455 : 217.5 : 1"
       inkscape:vp_y="0 : 1000 : 0"
       inkscape:vp_x="0 : 217.5 : 1"
       sodipodi:type="inkscape:persp3d" />
  </defs>
  <sodipodi:namedview
     id="base"
     pagecolor="#ffffff"
     bordercolor="#666666"
     borderopacity="1.0"
     gridtolerance="10000"
     guidetolerance="10"
     objecttolerance="10"
     inkscape:pageopacity="0.0"
     inkscape:pageshadow="2"
     inkscape:zoom="1.2081424"
     inkscape:cx="536.85903"
     inkscape:cy="11.997965"
     inkscape:document-units="px"
     inkscape:current-layer="layer1"
     width="1500px"
     height="630px"
     inkscape:window-width="1680"
     inkscape:window-height="988"
     inkscape:window-x="-8"
     inkscape:window-y="-8"
     showgrid="false"
     showguides="true"
     inkscape:guide-bbox="true"
     inkscape:snap-center="true"
     inkscape:window-maximized="1"
     fit-margin-top="0"
     fit-margin-left="0"
     fit-margin-right="0"
     fit-margin-bottom="0"
     inkscape:object-nodes="true" />
  <metadata
     id="metadata4208">
    <rdf:RDF>
      <cc:Work
         rdf:about="">
        <dc:format>image/svg+xml</dc:format>
        <dc:type
           rdf:resource="http://purl.org/dc/dcmitype/StillImage" />
        <dc:title></dc:title>
      </cc:Work>
    </rdf:RDF>
  </metadata>
  <g
     inkscape:label="sign"
     inkscape:groupmode="layer"
     id="layer1"
     transform="translate(386.71192,-153.53422)">
    <path
       inkscape:connector-curvature="0"
       style="fill:#005d35;fill-opacity:1;fill-rule:nonzero;stroke:none"
       d="m -386.71192,153.53422 0,224.0402 371.632145,0 0,-224.0402 -371.632145,0 z"
       id="path7992" />
    <g
       id="g8074"
       transform="translate(0,4)"
       style="fill:#ffffff;fill-opacity:1">
      <g
         transform="scale(1.0914091,0.91624673)"
         style="font-size:43.65636444px;font-style:normal;font-variant:normal;font-weight:normal;font-stretch:normal;line-height:125%;letter-spacing:0px;word-spacing:0px;fill:#ffffff;stroke:none;font-family:GD-HighwayGothicJA-TTF;-inkscape-font-specification:GD-HighwayGothicJA-TTF"
         id="text8049">
        <path
           d="m -298.99279,334.8824 0,-6.18181 -22.85138,0 0,40.62941 6.18181,0 0,-17.77804 14.49528,0 0,-6.1818 -14.49528,0 0,-10.48776 z"
           style=""
           id="path8085" />
        <path
           d="m -280.53263,341.06421 0,17.56486 c 0.0284,1.56322 -0.44056,2.96301 -1.40689,4.19937 -0.96637,1.23636 -2.24536,1.88296 -3.83699,1.93981 l 0,0 c -1.25058,0 -2.19562,-0.48318 -2.8351,-1.44953 -0.63951,-0.96635 -0.93084,-2.03218 -0.87398,-3.19749 l 0,0 0,-19.05702 -5.84075,0 0,19.69652 c -0.11369,2.58641 0.56844,4.91702 2.04639,6.99184 1.64848,1.79059 3.72329,2.62904 6.22445,2.51536 l 0,0 c 1.42109,-0.0568 2.68587,-0.4974 3.79435,-1.32163 1.10844,-0.82425 2.06058,-1.81902 2.85642,-2.98432 l 0,0 0.17053,3.36802 5.54231,0 0,-28.26579 z"
           style=""
           id="path8087" />
        <path
           d="m -270.25803,372.86855 0,-31.80434 5.84074,0 0,31.46327 c -1e-5,1.44952 -0.15633,2.91326 -0.46897,4.39122 -0.31265,1.47794 -1.09425,2.68588 -2.34482,3.62382 -1.08004,0.54 -2.21693,0.76738 -3.41065,0.68213 -1.19373,-0.0853 -2.34483,-0.28424 -3.45329,-0.59686 l 0,0 0,-5.24388 c 0.54002,0.17052 1.1511,0.24868 1.83323,0.23448 0.68213,-0.0142 1.20793,-0.29844 1.57742,-0.85267 0.36949,-0.55423 0.5116,-1.18663 0.42634,-1.89717 z m 5.84074,-37.34666 0,-6.8213 -5.84074,0 0,6.8213 z"
           style=""
           id="path8089" />
        <path
           d="m -253.67373,335.52189 0,-6.8213 -5.84075,0 0,6.8213 z m -5.84075,33.80811 5.84075,0 0,-28.26579 -5.84075,0 z"
           style=""
           id="path8091" />
        <path
           d="m -231.46185,341.10684 4.98808,0 0,29.33162 c -3e-5,2.5864 -0.69637,4.94544 -2.08903,7.0771 -2.35905,2.8422 -5.40022,4.17804 -9.1235,4.00752 l 0,0 c -1.62007,0.0568 -3.22592,-0.14923 -4.81754,-0.61818 -1.59165,-0.46898 -2.9417,-1.32875 -4.05016,-2.57931 -1.36426,-1.73376 -2.00376,-3.7233 -1.91849,-5.96864 l 0,0 5.88338,0 c -1e-5,1.30741 0.50448,2.31639 1.51348,3.02696 1.00897,0.71054 2.13875,1.02318 3.38933,0.93793 l 0,0 c 1.5632,0.0852 2.8493,-0.42635 3.8583,-1.5348 1.00897,-1.10847 1.51346,-2.44431 1.51348,-4.00752 l 0,0 0,-4.90281 c -1.6485,2.1885 -3.837,3.29696 -6.56551,3.32539 l 0,0 c -2.9559,-0.0568 -5.42863,-1.17952 -7.41817,-3.36802 -2.47272,-3.12643 -3.62382,-6.70762 -3.45328,-10.74356 l 0,0 c -0.14212,-4.12119 1.00898,-7.83028 3.45328,-11.12726 1.9327,-2.33059 4.40542,-3.58116 7.41817,-3.75172 l 0,0 c 3.04115,0.0284 5.35755,1.36429 6.94921,4.00752 l 0,0 z m -6.48025,23.49087 c 1.47794,-0.0284 2.63614,-0.60396 3.47461,-1.72664 0.83843,-1.12267 1.39977,-2.35903 1.68401,-3.70908 0.2842,-1.35005 0.44052,-2.7072 0.46896,-4.07147 l 0,0 c -0.0284,-1.36425 -0.18476,-2.72141 -0.46896,-4.07147 -0.28424,-1.35003 -0.84558,-2.58639 -1.68401,-3.70909 -0.83847,-1.12265 -1.99667,-1.72662 -3.47461,-1.81191 l 0,0 c -1.50638,0.0853 -2.67169,0.69637 -3.49592,1.83323 -0.82425,1.1369 -1.36427,2.37326 -1.62006,3.70909 -0.2558,1.33585 -0.3837,2.6859 -0.38369,4.05015 l 0,0 c -1e-5,1.36427 0.12078,2.71432 0.36238,4.05015 0.24158,1.33584 0.7816,2.5722 1.62006,3.70908 0.83844,1.13689 2.01085,1.71954 3.51723,1.74796 z"
           style=""
           id="path8093" />
        <path
           d="m -200.12648,369.33 c -1.13691,-1.84744 -1.6485,-3.87962 -1.53479,-6.09655 l 0,0 c -0.0284,-2.33061 -0.0284,-4.66122 0,-6.99184 -0.0284,-2.78535 -0.0284,-5.58493 0,-8.39873 l 0,0 c 0.0284,-2.33059 -0.85269,-4.23487 -2.64326,-5.71285 -2.18852,-1.42108 -4.59018,-2.089 -7.205,-2.00375 l 0,0 c -6.48025,0.19898 -9.87669,3.49594 -10.18933,9.89089 l 0,0 5.84074,0 c -0.19896,-3.12641 1.25057,-4.77489 4.34859,-4.94545 l 0,0 c 2.50113,-0.11366 3.83697,1.02322 4.00751,3.41066 l 0,0 c -0.0853,1.47796 -0.79583,2.44431 -2.13165,2.89905 -1.33586,0.45477 -2.58643,0.81005 -3.75172,1.06583 l 0,0 c -1.56323,0.34108 -3.04828,0.89531 -4.45517,1.66269 -1.4069,0.76741 -2.5722,1.81192 -3.49592,3.13354 -0.92372,1.32164 -1.35716,2.79248 -1.30031,4.41254 l 0,0 c -0.17053,2.27377 0.3837,4.33437 1.66269,6.1818 1.70532,1.79059 3.82277,2.60062 6.35235,2.4301 l 0,0 c 3.18326,-0.1137 5.69861,-1.49217 7.54607,-4.13542 l 0,0 0.46896,3.19749 z m -12.61942,-4.26332 c -2.58642,0.2558 -3.92225,-0.88108 -4.00751,-3.41065 l 0,0 c -0.1137,-1.22215 0.23447,-2.23824 1.04451,-3.04828 0.81002,-0.81002 1.79769,-1.32872 2.963,-1.55611 l 0,0 c 0.9095,-0.28421 1.81901,-0.57554 2.72853,-0.87398 0.90949,-0.29842 1.74794,-0.7887 2.51535,-1.47084 l 0,0 c -0.0284,1.73376 -0.0284,3.43908 0,5.11598 l 0,0 c -0.28423,3.24012 -2.03219,4.98808 -5.24388,5.24388 z"
           style=""
           id="path8095" />
        <path
           d="m -171.30645,341.06421 -3.83699,19.86705 -4.17805,-19.86705 -5.24388,0 -4.13541,19.86705 -3.87962,-19.86705 -5.88338,0 6.82131,28.26579 5.84074,0 3.83699,-17.6075 3.87961,17.6075 5.88338,0 6.73604,-28.26579 z"
           style=""
           id="path8097" />
        <path
           d="m -140.61058,369.33 c -1.13691,-1.84744 -1.6485,-3.87962 -1.53479,-6.09655 l 0,0 c -0.0284,-2.33061 -0.0284,-4.66122 0,-6.99184 -0.0284,-2.78535 -0.0284,-5.58493 0,-8.39873 l 0,0 c 0.0284,-2.33059 -0.85269,-4.23487 -2.64326,-5.71285 -2.18852,-1.42108 -4.59018,-2.089 -7.205,-2.00375 l 0,0 c -6.48025,0.19898 -9.87669,3.49594 -10.18933,9.89089 l 0,0 5.84074,0 c -0.19896,-3.12641 1.25057,-4.77489 4.34859,-4.94545 l 0,0 c 2.50113,-0.11366 3.83696,1.02322 4.00751,3.41066 l 0,0 c -0.0853,1.47796 -0.79583,2.44431 -2.13165,2.89905 -1.33586,0.45477 -2.58643,0.81005 -3.75172,1.06583 l 0,0 c -1.56323,0.34108 -3.04828,0.89531 -4.45517,1.66269 -1.4069,0.76741 -2.5722,1.81192 -3.49592,3.13354 -0.92372,1.32164 -1.35716,2.79248 -1.30031,4.41254 l 0,0 c -0.17053,2.27377 0.3837,4.33437 1.66269,6.1818 1.70532,1.79059 3.82277,2.60062 6.35235,2.4301 l 0,0 c 3.18326,-0.1137 5.69861,-1.49217 7.54607,-4.13542 l 0,0 0.46896,3.19749 z M -153.23,365.06668 c -2.58642,0.2558 -3.92225,-0.88108 -4.00751,-3.41065 l 0,0 c -0.1137,-1.22215 0.23447,-2.23824 1.04451,-3.04828 0.81002,-0.81002 1.79769,-1.32872 2.963,-1.55611 l 0,0 c 0.9095,-0.28421 1.81901,-0.57554 2.72853,-0.87398 0.90949,-0.29842 1.74794,-0.7887 2.51535,-1.47084 l 0,0 c -0.0284,1.73376 -0.0284,3.43908 0,5.11598 l 0,0 c -0.28423,3.24012 -2.03219,4.98808 -5.24388,5.24388 z"
           style=""
           id="path8099" />
      </g>
      <g
         transform="scale(1.0914091,0.91624672)"
         style="font-size:43.65636444px;font-style:normal;font-variant:normal;font-weight:normal;font-stretch:normal;line-height:125%;letter-spacing:0px;word-spacing:0px;fill:#ffffff;stroke:none;font-family:GD-HighwayGothicJA-TTF;-inkscape-font-specification:GD-HighwayGothicJA-TTF"
         id="text8049-7">
        <path
           d="m -100.42124,360.4623 c 0.0852,-2.27376 -0.30556,-4.49779 -1.17241,-6.67209 -0.8669,-2.17428 -2.42301,-3.7446 -4.66833,-4.71097 l 0,0 c 2.01794,-0.59685 3.60247,-1.76215 4.75359,-3.49592 1.15107,-1.73373 1.72662,-3.65222 1.726647,-5.75548 l 0,0 c 0.113661,-3.29693 -0.909537,-6.15335 -3.069587,-8.56926 -1.84746,-1.70529 -4.02175,-2.55796 -6.52288,-2.55799 l 0,0 -14.7937,0 0,40.62941 6.1818,0 0,-17.18117 6.73605,0 c 1.59162,0.28423 2.76403,1.10847 3.51723,2.47272 0.75317,1.36427 1.12976,2.79959 1.12978,4.30595 l 0,0 c -2e-5,1.64849 -2e-5,3.28276 0,4.90282 l 0,0 c -0.19897,2.07481 0.32683,3.90804 1.57743,5.49968 l 0,0 6.437606,0 c -1.080068,-1.22216 -1.662716,-2.62194 -1.747956,-4.19937 -0.0853,-1.57743 -0.11372,-3.13354 -0.0853,-4.66833 z m -10.14669,-25.5799 c 1.44951,0.0569 2.58639,0.64663 3.41065,1.76927 0.82422,1.1227 1.22213,2.39459 1.19373,3.81567 l 0,0 c 0.0284,1.39271 -0.36951,2.6646 -1.19373,3.81567 -0.82426,1.15112 -1.96114,1.72666 -3.41065,1.72664 l 0,0 -7.41818,0 0,-11.12725 z"
           style=""
           id="path8102" />
        <path
           d="m -89.336616,335.52189 0,-6.8213 -5.840744,0 0,6.8213 z m -5.840744,33.80811 5.840744,0 0,-28.26579 -5.840744,0 z"
           style=""
           id="path8104" />
        <path
           d="m -70.322222,341.06421 -4.817548,21.87081 -4.774915,-21.87081 -5.883377,0 7.418171,28.26579 6.480242,0 7.418171,-28.26579 z"
           style=""
           id="path8106" />
        <path
           d="m -52.714723,369.15946 0,-7.63133 -6.18181,0 0,7.63133 z"
           style=""
           id="path8108" />
      </g>
    </g>
    <g
       style="font-size:86.03297424px;font-style:normal;font-variant:normal;font-weight:normal;font-stretch:normal;line-height:125%;letter-spacing:0px;word-spacing:0px;fill:#ffffff;fill-opacity:1;stroke:none;font-family:GD-HighwayGothicJA-TTF;-inkscape-font-specification:GD-HighwayGothicJA-TTF"
       id="text8080">
      <path
         d="m -266.29495,213.75806 0,7.72952 -54.19069,0 0,-7.72952 z m 0,41.67222 -23.18858,0 0,3.44468 23.18858,0 z m 7.72952,-7.72953 0,30.07794 -69.64974,0 0,-30.07794 z m -61.92021,7.72953 0,3.44468 23.18857,0 0,-3.44468 z m 54.19069,14.61888 0,-3.36066 -23.18858,0 0,3.36066 z m -54.19069,0 23.18857,0 0,-3.36066 -23.18857,0 z m 0,-45.1169 54.19069,0 0,18.90373 -54.19069,0 z m -12.01437,-22.34841 35.20294,0 0,-6.88936 7.81354,0 0,6.88936 34.78287,0 0,15.45905 -7.72953,0 0,-7.72952 -62.3403,0 0,7.72952 -7.72952,0 z m 19.74389,33.52262 38.73164,0 0,-3.44468 -38.73164,0 z"
         style=""
         id="path8111" />
      <path
         d="m -247.39122,218.0429 36.12713,0 0,-21.50824 7.81354,0 0,21.50824 36.12713,0 0,7.72953 -36.12713,0 0,44.27673 26.63325,0 0,7.72953 -61.08005,0 0,-7.72953 26.63326,0 0,-44.27673 -36.12713,0 z"
         style=""
         id="path8113" />
      <path
         d="m -125.31514,195.69449 0,68.64155 7.98158,0 0,-68.64155 z m 32.346385,0 0,82.50428 7.981575,0 0,-82.50428 z m -61.332105,0 0,50.40995 c 0.16803,5.37708 -0.53211,10.61411 -2.10041,15.7111 -1.5123,3.92078 -4.0328,6.94537 -7.56149,9.07379 l 0,0 4.53689,6.72133 c 4.5929,-3.02461 7.98157,-7.0574 10.16601,-12.09839 2.29643,-6.21722 3.36064,-12.68649 3.19263,-19.40783 l 0,0 0,-50.40995 z"
         style=""
         id="path8115" />
    </g>
  </g>
</svg>
