<?xml version="1.0" encoding="UTF-8" standalone="no"?>
<!-- Created with Inkscape (http://www.inkscape.org/) -->

<svg
   xmlns:dc="http://purl.org/dc/elements/1.1/"
   xmlns:cc="http://creativecommons.org/ns#"
   xmlns:rdf="http://www.w3.org/1999/02/22-rdf-syntax-ns#"
   xmlns:svg="http://www.w3.org/2000/svg"
   xmlns="http://www.w3.org/2000/svg"
   xmlns:sodipodi="http://sodipodi.sourceforge.net/DTD/sodipodi-0.dtd"
   xmlns:inkscape="http://www.inkscape.org/namespaces/inkscape"
   version="1.1"
   width="1005.4"
   height="1005.4"
   id="svg2"
   xml:space="preserve"
   inkscape:version="0.48.4 r9939"
   sodipodi:docname="AJAX1.svg"><sodipodi:namedview
     pagecolor="#ffffff"
     bordercolor="#666666"
     borderopacity="1"
     objecttolerance="10"
     gridtolerance="10"
     guidetolerance="10"
     inkscape:pageopacity="0"
     inkscape:pageshadow="2"
     inkscape:window-width="1280"
     inkscape:window-height="1004"
     id="namedview28"
     showgrid="false"
     fit-margin-top="0.2"
     fit-margin-left="0.2"
     fit-margin-right="0.2"
     fit-margin-bottom="0.2"
     inkscape:zoom="0.51603029"
     inkscape:cx="511.8671"
     inkscape:cy="504.67889"
     inkscape:window-x="-8"
     inkscape:window-y="-8"
     inkscape:window-maximized="1"
     inkscape:current-layer="svg2" /><metadata
     id="metadata8"><rdf:RDF><cc:Work
         rdf:about=""><dc:format>image/svg+xml</dc:format><dc:type
           rdf:resource="http://purl.org/dc/dcmitype/StillImage" /></cc:Work></rdf:RDF></metadata><defs
     id="defs6" /><path
     inkscape:connector-curvature="0"
     style="fill:#ffffff;fill-opacity:1;stroke:#ed1c23;stroke-width:5;stroke-miterlimit:4;stroke-opacity:1;stroke-dasharray:none"
     d="M 2.7,502.70001 C 2.7,226.55763 226.55763,2.7 502.7,2.7 c 276.14238,0 500,223.85763 500,500.00001 0,276.14237 -223.85762,499.99999 -500,499.99999 -276.14237,0 -500,-223.85762 -500,-499.99999 z"
     id="path3854" /><path
     id="path14622"
     d="M 968.075,502.70001 C 968.075,245.68049 759.71952,37.325 502.7,37.325 245.68047,37.325 37.325,245.68049 37.325,502.70001 37.325,759.71953 245.68047,968.075 502.7,968.075 c 257.01952,0 465.375,-208.35547 465.375,-465.37499 z"
     style="fill:#ed1c23;fill-opacity:1;stroke:none"
     inkscape:connector-curvature="0" /><path
     id="path15520"
     d="m 835.55,502.7 c 0,-183.82797 -149.02204,-332.85 -332.85,-332.85 -183.82798,0 -332.85,149.02203 -332.85,332.85 0,183.82797 149.02202,332.84999 332.85,332.84999 183.82796,0 332.85,-149.02202 332.85,-332.84999 z"
     style="fill:#ffffff;fill-opacity:1;stroke:none"
     inkscape:connector-curvature="0" /><path
     style="fill:#ed1c23;fill-opacity:1;stroke:none"
     d="M 783.75726,851.49809 851.49809,783.75726 221.64272,153.9019 153.90189,221.64273 z"
     id="path3011"
     inkscape:connector-curvature="0"
     sodipodi:nodetypes="ccccc" /><path
     sodipodi:nodetypes="scsscssscsscssscsscss"
     inkscape:connector-curvature="0"
     id="path3867"
     d="m 449.32766,245.65132 c -67.22976,0 -62.29014,24.92737 -74.79706,79.21617 -18.54343,10.2778 -30.6996,23.05144 -30.6996,48.65713 l 0,44.73771 c 0,12.78312 3.82206,23.00964 13.42912,28.13868 l 0,22.36104 c 0,17.30061 8.9354,24.31295 20.45598,24.31295 11.50086,0 20.45598,-5.11854 20.45598,-24.31295 l 0,-21.0806 c 8.30509,-1.93323 13.45923,9.58777 28.74768,9.58777 l 151.56053,0 c 15.28845,0 20.44258,-11.521 28.74767,-9.58777 l 0,21.0806 c 0,19.19441 8.95512,24.31295 20.45598,24.31295 11.5206,0 20.45599,-7.01234 20.45599,-24.31295 l 0,-22.36104 c 9.60706,-5.12904 13.42911,-15.35556 13.42911,-28.13868 l 0,-44.73771 c 0,-25.60569 -12.15617,-38.37933 -30.69958,-48.65713 -12.50695,-54.2888 -7.56731,-79.21617 -74.79707,-79.21617 z"
     style="fill:#ffffff;fill-opacity:1;fill-rule:nonzero;stroke:#ffffff;stroke-width:20;stroke-miterlimit:4;stroke-opacity:1;stroke-dasharray:none" /><path
     style="fill:#0066b3;fill-opacity:1;fill-rule:nonzero;stroke:none"
     d="m 449.32766,245.65132 c -67.22976,0 -62.29014,24.92737 -74.79706,79.21617 -18.54343,10.2778 -30.6996,23.05144 -30.6996,48.65713 l 0,44.73771 c 0,12.78312 3.82206,23.00964 13.42912,28.13868 l 0,22.36104 c 0,17.30061 8.9354,24.31295 20.45598,24.31295 11.50086,0 20.45598,-5.11854 20.45598,-24.31295 l 0,-21.0806 c 8.30509,-1.93323 13.45923,9.58777 28.74768,9.58777 l 151.56053,0 c 15.28845,0 20.44258,-11.521 28.74767,-9.58777 l 0,21.0806 c 0,19.19441 8.95512,24.31295 20.45598,24.31295 11.5206,0 20.45599,-7.01234 20.45599,-24.31295 l 0,-22.36104 c 9.60706,-5.12904 13.42911,-15.35556 13.42911,-28.13868 l 0,-44.73771 c 0,-25.60569 -12.15617,-38.37933 -30.69958,-48.65713 -12.50695,-54.2888 -7.56731,-79.21617 -74.79707,-79.21617 z m -3.21675,19.76892 43.48847,0 0,46.06499 -91.4273,7.6827 c 0,-32.6088 7.67593,-53.74769 47.93883,-53.74769 z m 69.68975,0 43.48847,0 c 40.26291,0 47.93883,21.13889 47.93883,53.74769 l -91.4273,-7.6827 z m -109.9615,70.37794 c 15.47092,-0.002 29.04382,2.20899 39.97506,6.58962 1.89458,0.76937 2.85436,2.90748 2.12368,4.84074 -0.78909,1.87407 -2.94284,2.80013 -4.85635,2.02998 -14.75583,-5.87787 -35.04255,-7.50966 -58.55721,-4.66897 -2.0516,0.19728 -3.87746,-1.22346 -4.15365,-3.2948 -0.23673,-1.99244 1.21198,-3.87009 3.26359,-4.10682 7.74286,-0.9247 15.17266,-1.38819 22.20488,-1.38975 z m 193.72171,0 c 7.03223,0.002 14.46204,0.46505 22.20489,1.38975 2.05161,0.23673 3.5003,2.11438 3.26359,4.10682 -0.27617,2.07134 -2.10204,3.49208 -4.15366,3.2948 -23.51462,-2.84069 -43.80137,-1.2089 -58.55719,4.66897 -1.91352,0.77015 -4.06726,-0.15591 -4.85636,-2.02998 -0.73068,-1.93326 0.22911,-4.07137 2.12367,-4.84074 10.93126,-4.38063 24.50415,-6.59312 39.97506,-6.58962 z m -100.35882,0.20298 3.49781,0 3.49782,0 c 14.75582,0 36.46103,8.73208 36.4612,29.16929 l 0,46.065 -79.91773,0 0,-46.065 c 0,-20.43721 21.70508,-29.16929 36.4609,-29.16929 z m -115.56777,17.47348 c 10.37642,0 18.80076,8.41283 18.80076,18.76953 0,10.33696 -8.42434,18.7227 -18.80076,18.7227 -10.35669,0 -18.75392,-8.38574 -18.75392,-18.7227 0,-10.3567 8.39723,-18.76953 18.75392,-18.76953 z m 238.13148,0 c 10.35671,0 18.75391,8.41283 18.75391,18.76953 0,10.33696 -8.3972,18.7227 -18.75391,18.7227 -10.37641,0 -18.80076,-8.38574 -18.80076,-18.7227 0,-10.3567 8.42435,-18.76953 18.80076,-18.76953 z m -242.1446,66.19306 246.15771,0 0,15.99001 -246.15771,0 z"
     id="path15521"
     inkscape:connector-curvature="0"
     sodipodi:nodetypes="scsscssscsscssscsscssscccscscccsccccccssccccccsscssccssssssssssssccccc" /><path
     id="path15534"
     style="fill:#ffffff;fill-opacity:1;fill-rule:nonzero;stroke:#ffffff;stroke-width:20;stroke-miterlimit:4;stroke-opacity:1;stroke-dasharray:none"
     d="m 573.89335,650.10318 c 6.0797,-1.6581 11.2119,-18.27864 10.146,-20.17362 -1.4592,-2.60559 -15.1598,0 -18.1997,3.03828 -3.0793,3.00038 -7.6589,8.5274 -4.3821,12.4358 5.2111,6.4745 6.4745,6.43503 12.4358,4.69796"
     inkscape:connector-curvature="0"
     sodipodi:nodetypes="ccccc" /><path
     id="path15536"
     style="fill:#ffffff;fill-opacity:1;fill-rule:nonzero;stroke:#ffffff;stroke-width:20;stroke-miterlimit:4;stroke-opacity:1;stroke-dasharray:none"
     d="m 580.48785,680.02804 c -4.4216,0 -8.6853,0.63166 -12.7911,1.77496 l -25.3454,-61.03408 -22.2265,0 c -3.1977,0 -5.7244,2.64666 -5.7244,5.72442 0,3.23725 2.5267,5.76389 5.7244,5.76389 l 14.6466,0 c 0.6727,1.73706 3.7505,9.15906 7.9747,19.22613 -4.2242,-1.10541 -9.3564,-2.40978 -11.4883,-3.04144 -3.9478,-1.14331 -19.6998,-2.21081 -24.7136,-2.21081 -5.0928,0 -22.4634,1.61705 -27.0035,2.21081 -4.4611,0.5527 -10.1065,3.39517 -10.1065,3.39517 l -20.2131,-13.50172 c 0,0 5.0532,-15.71253 10.067,-21.95016 1.5381,-1.73707 3.5136,-4.22422 5.5665,-6.90878 l 2.1729,4.30318 30.8329,17.60751 c 3.5926,2.1729 8.1326,0.5527 10.0671,-3.51361 0.5906,-1.18436 0.8685,-2.48874 0.8685,-3.78996 0,-2.95932 -1.5002,-5.80337 -4.0268,-7.26408 0,0 -23.3319,-13.38328 -26.806,-15.31774 -0.6317,-1.38017 -2.0529,-4.65848 -3.5531,-8.33 0.1579,-0.74852 0.221,-1.50019 0.032,-2.015 -1.0676,-5.01379 -2.2519,-11.80413 -6.7114,-15.752 -4.5006,-3.94787 -6.7114,-9.55385 -5.6455,-11.21195 1.1433,-1.69601 3.4347,-2.21081 6.8298,-3.39517 3.2768,-1.10541 5.5271,-8.92219 8.409,-12.31736 2.8046,-3.39517 -1.1433,-3.39517 0.5527,-7.89574 1.6581,-4.46109 6.1982,-1.69916 6.1982,-8.40896 0,-7.38252 -6.1982,-8.40897 -16.3442,-13.50172 -10.1066,-5.05328 -22.4239,11.25143 -26.885,19.69987 -4.5401,8.36949 -0.6727,10.65925 0,15.12035 0.4737,4.50057 6.0797,5.60597 6.0797,5.60597 0,0 0,2.88353 -3.3557,4.50058 -3.3952,1.6581 -1.6581,1.6581 -9.5538,8.44844 -7.8168,6.71138 -29.1748,57.2836 -31.9778,64.03446 -2.8835,6.75086 -2.2108,8.96167 -0.5938,15.15983 1.6992,6.19815 5.0533,6.71138 5.0533,6.71138 l -4.4627,3.98735 -14.0544,-7.30356 -53.96737,0 0,7.30356 6.79034,6.75085 0,7.69835 c -21.83173,5.68494 -37.97852,25.42429 -37.97852,49.03256 0,27.95092 22.70026,50.65118 50.69066,50.65118 21.16059,0 39.28129,-13.02798 46.90069,-31.54349 l 78.5626,0 0,-0.5906 c 5.8034,-0.28425 7.8563,-1.62021 12.7911,-5.84285 3.9084,-3.23725 5.8824,-7.06669 5.9613,-7.2246 0.4738,-0.98539 0.4327,-1.89498 0.032,-2.80457 l 5.1322,2.80457 c 1.895,0.94749 4.5401,-0.25267 5.9219,-2.80457 1.2633,-2.21081 1.0264,-4.65849 -0.2211,-5.96128 1.6991,0.25266 3.7504,-0.94749 4.8953,-3.11724 1.3012,-2.21081 1.0675,-4.65849 -0.2842,-5.88233 1.737,0.15791 3.7899,-1.02645 4.9743,-3.11724 1.3833,-2.60559 0.9854,-5.52702 -0.9064,-6.59294 l -12.7911,-7.02721 c -1.895,-1.02645 -4.6585,0.22108 -6.0403,2.80456 -1.2633,2.16975 -0.9854,4.57953 0.3159,6.00077 -1.7782,-0.28425 -3.79,0.90959 -4.9349,3.00038 -1.2254,2.28976 -1.0264,4.69797 0.2843,6.00076 -1.7371,-0.18949 -3.8295,0.98539 -4.8954,3.07934 -1.4591,2.6056 -1.1054,5.52702 0.8685,6.59295 l 4.1058,2.2487 c -1.0264,0.15792 -1.9739,0.71062 -2.4887,1.73707 -0.095,0 -1.4591,2.80456 -4.1848,5.09275 -2.2897,1.85708 -3.553,2.95932 -4.8953,3.55308 l -2.2108,-14.80451 c -0.7106,-5.32963 -4.6585,-9.55385 -9.7118,-10.85665 4.1848,-7.65887 14.6071,-26.41125 17.2522,-28.70102 3.3952,-2.76351 6.7509,-1.6581 6.7509,-1.6581 l 59.8497,-0.51165 c 0.8685,2.0529 1.696,4.18475 2.5645,6.27712 -14.2518,8.13261 -23.9636,23.48983 -23.9636,41.05785 0,26.13491 21.2001,47.29549 47.335,47.29549 26.0165,0 47.2166,-21.16058 47.2166,-47.29549 0,-26.05594 -21.2001,-47.25601 -47.2166,-47.25601"
     inkscape:connector-curvature="0"
     sodipodi:nodetypes="cccssscccsccccccccscccccccccscccccccccccccccssccccccccccccccccccccccccccccccsssc" /><path
     inkscape:connector-curvature="0"
     d="m 573.89335,650.10318 c 6.0797,-1.6581 11.2119,-18.27864 10.146,-20.17362 -1.4592,-2.60559 -15.1598,0 -18.1997,3.03828 -3.0793,3.00038 -7.6589,8.5274 -4.3821,12.4358 5.2111,6.4745 6.4745,6.43503 12.4358,4.69796"
     style="fill:#0066b3;fill-opacity:1;fill-rule:nonzero;stroke:none"
     id="path15562" /><path
     inkscape:connector-curvature="0"
     d="m 580.48625,763.88082 c -20.2526,0 -36.6757,-16.34419 -36.6757,-36.59677 0,-13.10693 7.0272,-24.59523 17.489,-31.10922 4.1058,9.98812 7.8563,18.9103 10.304,24.91107 -1.0265,1.57915 -1.6171,3.39517 -1.6171,5.44806 0,5.5665 4.5401,10.14603 10.1066,10.14603 5.606,0 10.146,-4.57953 10.146,-10.14603 0,-4.85588 -3.4346,-8.88271 -8.0536,-9.90916 l -10.304,-24.8321 c 2.7635,-0.67272 5.606,-1.10541 8.6064,-1.10541 20.1341,0 36.5178,16.42314 36.5178,36.59676 0,20.25258 -16.3837,36.59677 -36.5178,36.59677 m -141.6496,-53.4147 -11.4883,0 1.0643,-5.29014 13.5017,-12.94902 7.3036,1.77496 -10.3829,16.46263 z m -89.06399,0 c -7.18512,0 -12.94902,5.7639 -12.94902,12.94902 l -4.77692,8.76427 -17.13376,0 c -0.43268,-2.2487 -0.63166,-4.50057 -0.63166,-6.75086 0,-21.67381 17.56803,-39.20235 39.24184,-39.20235 16.30471,0 30.31961,9.98811 36.20201,24.23992 l -39.95249,0 z m 3.75048,54.12531 c -14.68608,0 -27.47718,-8.13261 -34.22804,-20.05518 l 68.37715,0 c -6.6719,11.92257 -19.463,20.05518 -34.14911,20.05518 m 226.96311,-84.56339 c -4.4216,0 -8.6853,0.63166 -12.7911,1.77496 l -25.3454,-61.03408 -22.2265,0 c -3.1977,0 -5.7244,2.64666 -5.7244,5.72442 0,3.23725 2.5267,5.76389 5.7244,5.76389 l 14.6466,0 c 0.6727,1.73706 3.7505,9.15906 7.9747,19.22613 -4.2242,-1.10541 -9.3564,-2.40978 -11.4883,-3.04144 -3.9478,-1.14331 -19.6998,-2.21081 -24.7136,-2.21081 -5.0928,0 -22.4634,1.61705 -27.0035,2.21081 -4.4611,0.5527 -10.1065,3.39517 -10.1065,3.39517 l -20.2131,-13.50172 c 0,0 5.0532,-15.71253 10.067,-21.95016 1.5381,-1.73707 3.5136,-4.22422 5.5665,-6.90878 l 2.1729,4.30318 30.8329,17.60751 c 3.5926,2.1729 8.1326,0.5527 10.0671,-3.51361 0.5906,-1.18436 0.8685,-2.48874 0.8685,-3.78996 0,-2.95932 -1.5002,-5.80337 -4.0268,-7.26408 0,0 -23.3319,-13.38328 -26.806,-15.31774 -0.6317,-1.38017 -2.0529,-4.65848 -3.5531,-8.33 0.1579,-0.74852 0.221,-1.50019 0.032,-2.015 -1.0676,-5.01379 -2.2519,-11.80413 -6.7114,-15.752 -4.5006,-3.94787 -6.7114,-9.55385 -5.6455,-11.21195 1.1433,-1.69601 3.4347,-2.21081 6.8298,-3.39517 3.2768,-1.10541 5.5271,-8.92219 8.409,-12.31736 2.8046,-3.39517 -1.1433,-3.39517 0.5527,-7.89574 1.6581,-4.46109 6.1982,-1.69916 6.1982,-8.40896 0,-7.38252 -6.1982,-8.40897 -16.3442,-13.50172 -10.1066,-5.05328 -22.4239,11.25143 -26.885,19.69987 -4.5401,8.36949 -0.6727,10.65925 0,15.12035 0.4737,4.50057 6.0797,5.60597 6.0797,5.60597 0,0 0,2.88353 -3.3557,4.50058 -3.3952,1.6581 -1.6581,1.6581 -9.5538,8.44844 -7.8168,6.71138 -29.1748,57.2836 -31.9778,64.03446 -2.8835,6.75086 -2.2108,8.96167 -0.5938,15.15983 1.6992,6.19815 5.0533,6.71138 5.0533,6.71138 l -4.4627,3.98735 -14.0544,-7.30356 -53.96737,0 0,7.30356 6.79034,6.75085 0,7.69835 c -21.83173,5.68494 -37.97852,25.42429 -37.97852,49.03256 0,27.95092 22.70026,50.65118 50.69066,50.65118 21.16059,0 39.28129,-13.02798 46.90069,-31.54349 l 78.5626,0 0,-0.5906 c 5.8034,-0.28425 7.8563,-1.62021 12.7911,-5.84285 3.9084,-3.23725 5.8824,-7.06669 5.9613,-7.2246 0.4738,-0.98539 0.4327,-1.89498 0.032,-2.80457 l 5.1322,2.80457 c 1.895,0.94749 4.5401,-0.25267 5.9219,-2.80457 1.2633,-2.21081 1.0264,-4.65849 -0.2211,-5.96128 1.6991,0.25266 3.7504,-0.94749 4.8953,-3.11724 1.3012,-2.21081 1.0675,-4.65849 -0.2842,-5.88233 1.737,0.15791 3.7899,-1.02645 4.9743,-3.11724 1.3833,-2.60559 0.9854,-5.52702 -0.9064,-6.59294 l -12.7911,-7.02721 c -1.895,-1.02645 -4.6585,0.22108 -6.0403,2.80456 -1.2633,2.16975 -0.9854,4.57953 0.3159,6.00077 -1.7782,-0.28425 -3.79,0.90959 -4.9349,3.00038 -1.2254,2.28976 -1.0264,4.69797 0.2843,6.00076 -1.7371,-0.18949 -3.8295,0.98539 -4.8954,3.07934 -1.4591,2.6056 -1.1054,5.52702 0.8685,6.59295 l 4.1058,2.2487 c -1.0264,0.15792 -1.9739,0.71062 -2.4887,1.73707 -0.095,0 -1.4591,2.80456 -4.1848,5.09275 -2.2897,1.85708 -3.553,2.95932 -4.8953,3.55308 l -2.2108,-14.80451 c -0.7106,-5.32963 -4.6585,-9.55385 -9.7118,-10.85665 4.1848,-7.65887 14.6071,-26.41125 17.2522,-28.70102 3.3952,-2.76351 6.7509,-1.6581 6.7509,-1.6581 l 59.8497,-0.51165 c 0.8685,2.0529 1.696,4.18475 2.5645,6.27712 -14.2518,8.13261 -23.9636,23.48983 -23.9636,41.05785 0,26.13491 21.2001,47.29549 47.335,47.29549 26.0165,0 47.2166,-21.16058 47.2166,-47.29549 0,-26.05594 -21.2001,-47.25601 -47.2166,-47.25601"
     style="fill:#0066b3;fill-opacity:1;fill-rule:nonzero;stroke:none"
     id="path15564" /></svg>