<?xml version="1.0" encoding="UTF-8" standalone="no"?>
<!-- Created with Inkscape (http://www.inkscape.org/) -->

<svg
   xmlns:svg="http://www.w3.org/2000/svg"
   xmlns="http://www.w3.org/2000/svg"
   version="1.0"
   width="1000"
   height="675"
   id="svg1890">
  <defs
     id="defs1893">
    <marker
       refX="0"
       refY="0"
       orient="auto"
       id="Arrow2Lend"
       style="overflow:visible">
      <path
         d="M 8.7185878,4.0337352 -2.2072895,0.01601326 8.7185884,-4.0017078 c -1.7454984,2.3720609 -1.7354408,5.6174519 -6e-7,8.035443 z"
         transform="matrix(-1.1,0,0,-1.1,-1.1,0)"
         id="path3864"
         style="font-size:12px;fill-rule:evenodd;stroke-width:0.625;stroke-linejoin:round" />
    </marker>
  </defs>
  <rect
     width="997.5"
     height="672.5"
     rx="33.316483"
     x="1.25"
     y="1.25"
     id="rect2385"
     style="fill:#ffffff;fill-opacity:1;fill-rule:evenodd;stroke:#0066b3;stroke-width:2.5;stroke-linecap:butt;stroke-linejoin:round;stroke-miterlimit:4;stroke-opacity:1;stroke-dasharray:none;stroke-dashoffset:0;marker:none;visibility:visible;display:inline;overflow:visible;enable-background:accumulate" />
  <rect
     width="965"
     height="640"
     rx="22.503939"
     ry="22.503939"
     x="16.978363"
     y="17.24411"
     id="rect3157"
     style="fill:#0066b3;fill-opacity:1;stroke:none;stroke-width:8;marker:none;visibility:visible;display:inline;overflow:visible;enable-background:accumulate" />
  <g
     id="text3611-3-1-9"
     style="font-size:40px;font-style:normal;font-weight:normal;text-align:center;text-anchor:middle;fill:#0066b3;fill-opacity:1;stroke:#0066b3;stroke-width:2;stroke-miterlimit:4;stroke-opacity:1;font-family:Arphic Round-Gothic Medium JIS;-inkscape-font-specification:Arphic Round-Gothic Medium JIS">
    <path
       d="m 69.716354,575.97534 c -0.703133,0.0391 -1.210945,0.25395 -1.523437,0.64453 -0.273445,0.3516 -0.390633,0.83988 -0.351563,1.46485 0.03906,0.62503 0.292961,1.05472 0.761719,1.28906 0.351554,0.15628 0.76171,0.17581 1.230469,0.0586 11.523416,-2.34371 23.535123,-2.7734 36.035158,-1.28906 0.50776,0.11722 0.93745,0.0586 1.28906,-0.17578 0.39058,-0.23434 0.64448,-0.66403 0.76172,-1.28906 0.039,-0.62497 -0.1563,-1.11325 -0.58594,-1.46485 -0.39067,-0.2734 -0.91801,-0.44918 -1.58203,-0.52734 -12.343783,-1.56246 -24.355489,-1.13277 -36.035156,1.28906 z m 1.582032,21.09375 c -5.195319,4.37501 -7.792972,8.39845 -7.792969,12.07031 -3e-6,7.1875 6.445303,10.78125 19.335937,10.78125 7.851532,0 17.539026,-0.82031 29.062496,-2.46093 0.50776,-0.15626 0.89839,-0.42969 1.17188,-0.82032 0.23432,-0.35156 0.29291,-0.80078 0.17578,-1.34765 -0.11724,-0.50782 -0.39068,-0.89844 -0.82031,-1.17188 -0.39068,-0.15625 -0.80083,-0.19531 -1.23047,-0.11718 -11.484415,1.56249 -20.937531,2.36327 -28.359376,2.40234 -10.546887,0 -15.820319,-2.42188 -15.820312,-7.26563 -7e-6,-2.81249 2.382803,-6.21092 7.148437,-10.19531 0.351549,-0.46873 0.449205,-0.93748 0.292969,-1.40625 -0.156264,-0.46873 -0.429701,-0.82029 -0.820312,-1.05469 -0.390638,-0.27342 -0.800794,-0.35154 -1.230469,-0.23437 -0.351575,0.15627 -0.722668,0.4297 -1.113281,0.82031 z"
       id="path3691"
       style="font-size:60px;fill:#0066b3;stroke:#0066b3" />
    <path
       d="m 149.9312,600.05737 c 2.03122,-6.21091 3.3984,-14.04294 4.10156,-23.49609 4.57027,0.62504 8.51558,2.63675 11.83594,6.03516 3.9062,3.9844 5.85932,8.75002 5.85937,14.29687 -5e-5,5.31251 -1.38677,9.84376 -4.16015,13.59375 -2.50005,3.39844 -5.54692,5.54687 -9.14063,6.44531 -0.82035,0.11719 -1.42582,0.33203 -1.8164,0.64453 -0.39067,0.39062 -0.56645,0.89844 -0.52735,1.52344 0.039,0.625 0.23434,1.05468 0.58594,1.28906 0.2734,0.23437 0.85934,0.2539 1.75781,0.0586 4.72652,-1.17188 8.61324,-3.61329 11.66016,-7.32422 3.43744,-4.25781 5.15619,-9.66796 5.15625,-16.23047 -6e-5,-6.71873 -2.32427,-12.42185 -6.97266,-17.10937 -4.68754,-4.68747 -10.78129,-7.03121 -18.28125,-7.03125 -7.38283,4e-5 -13.45705,2.73441 -18.22265,8.20312 -4.84376,5.62503 -7.28516,12.75393 -7.32422,21.38672 -1e-5,4.80469 1.01562,8.69141 3.04687,11.66016 1.87499,2.6953 4.2578,4.04296 7.14844,4.04296 2.92967,0 5.62498,-1.34766 8.08594,-4.04296 2.69528,-2.96875 5.09763,-7.61718 7.20703,-13.94532 z m -2.92969,-2.57812 c -1.87502,6.13282 -3.9258,10.58594 -6.15234,13.35937 -1.91408,2.46094 -3.98439,3.69141 -6.21094,3.69141 -1.75783,0 -3.28126,-1.01563 -4.57031,-3.04688 -1.40626,-2.22655 -2.10939,-5.27343 -2.10938,-9.14062 -1e-5,-8.20311 2.24609,-14.68747 6.73828,-19.45313 4.14061,-4.37496 9.23826,-6.58199 15.29297,-6.62109 0.15622,4e-5 0.332,0.0196 0.52735,0.0586 -0.62503,8.4766 -1.79691,15.52737 -3.51563,21.15235 z"
       id="path3693"
       style="font-size:60px;fill:#0066b3;stroke:#0066b3" />
    <path
       d="m 209.16948,592.323 -23.37891,0 c -0.50781,2e-5 -0.95703,0.15627 -1.34765,0.46875 -0.27344,0.27346 -0.42969,0.70314 -0.46875,1.28906 -10e-6,0.50783 0.19531,0.91799 0.58593,1.23047 0.39062,0.27345 0.80078,0.4297 1.23047,0.46875 l 13.53516,0 0,4.10156 c -2e-5,1.21095 -0.0977,2.34376 -0.29297,3.39844 -0.23439,1.28907 -0.54689,2.46094 -0.9375,3.51562 -0.39064,1.09376 -1.03517,2.22657 -1.93359,3.39844 -0.85939,1.21094 -1.79689,2.28516 -2.8125,3.22266 -0.97658,0.85937 -1.93361,1.64062 -2.8711,2.34375 -1.09376,0.74218 -2.18751,1.36718 -3.28125,1.875 -0.97657,0.39062 -1.875,0.74218 -2.69531,1.05469 -0.58594,0.15624 -0.9375,0.52733 -1.05469,1.11328 -0.11719,0.46874 -0.0586,0.89843 0.17578,1.28906 0.27344,0.46874 0.60547,0.76171 0.9961,0.87891 0.39062,0.11717 0.8789,0.0586 1.46484,-0.17579 0.74218,-0.35157 1.71874,-0.80078 2.92969,-1.34765 1.21093,-0.50782 2.44139,-1.19141 3.69141,-2.05078 1.21092,-0.82032 2.28514,-1.71876 3.22265,-2.69532 0.93749,-0.97656 1.87498,-2.08984 2.8125,-3.33984 0.97654,-1.40625 1.77733,-2.83203 2.40235,-4.27734 0.50779,-1.44531 0.89841,-2.7539 1.17187,-3.92578 0.15623,-1.09374 0.29295,-2.28515 0.41016,-3.57422 l 0.0586,0 0,-4.80469 12.24609,0 0,21.67969 c -3e-5,1.09374 0.35153,2.05077 1.05469,2.87109 0.74215,0.82031 1.75778,1.23046 3.04688,1.23047 3.86714,-10e-6 7.49995,-10e-6 10.89843,0 1.17183,-10e-6 2.18745,-0.50782 3.04688,-1.52344 0.85932,-0.97657 1.30854,-2.22657 1.34766,-3.75 l 0,-6.03515 c -6e-5,-0.46875 -0.13678,-0.89844 -0.41016,-1.28907 -0.23443,-0.27343 -0.66412,-0.42968 -1.28906,-0.46875 -0.62506,-0.039 -1.07427,0.13673 -1.34766,0.52735 -0.27349,0.39063 -0.42974,0.89844 -0.46875,1.52343 l 0,4.16016 c -5e-5,2.26562 -0.99614,3.39843 -2.98828,3.39844 -2.50005,-10e-6 -5.07817,-10e-6 -7.73438,0 -0.58597,-0.0391 -1.01566,-0.19532 -1.28906,-0.46875 -0.27347,-0.27344 -0.41019,-0.70313 -0.41015,-1.28906 l 0,-20.56641 16.99218,0 c 0.4687,2e-5 0.89838,-0.17576 1.28907,-0.52734 0.27338,-0.27342 0.42963,-0.70311 0.46875,-1.28907 -6e-5,-0.50779 -0.19537,-0.91795 -0.58594,-1.23047 -0.39068,-0.27341 -0.78131,-0.41013 -1.17188,-0.41015 l -22.85156,0 0,-12.48047 19.80469,0 c 0.4687,3e-5 0.89838,-0.17575 1.28906,-0.52734 0.27338,-0.27341 0.42963,-0.70309 0.46875,-1.28907 -5e-5,-0.50777 -0.19537,-0.91793 -0.58594,-1.23047 -0.39067,-0.2734 -0.7813,-0.41011 -1.17187,-0.41015 l -19.80469,0 0,-6.50391 c -3e-5,-0.50777 -0.17581,-0.93745 -0.52734,-1.28906 -0.3516,-0.27339 -0.76175,-0.42964 -1.23047,-0.46875 -0.50784,4e-5 -0.93753,0.15629 -1.28906,0.46875 -0.27347,0.27348 -0.41019,0.70317 -0.41016,1.28906 l 0,6.50391 -14.35547,0 c 0.74217,-1.87496 1.40623,-3.76949 1.99219,-5.6836 0.15623,-0.58589 0.0976,-1.07417 -0.17578,-1.46484 -0.23439,-0.39058 -0.60549,-0.64449 -1.11328,-0.76172 -0.46877,-0.039 -0.87893,0.0391 -1.23047,0.23438 -0.39064,0.23442 -0.66408,0.64457 -0.82032,1.23047 -0.7422,2.96879 -1.79688,5.72269 -3.16406,8.26171 -1.40626,2.61722 -3.24219,4.9805 -5.50781,7.08985 -0.625,0.50784 -0.97657,0.95706 -1.05469,1.34765 -0.11719,0.39066 0,0.85941 0.35156,1.40625 0.27344,0.50784 0.64453,0.76175 1.11329,0.76172 0.5078,3e-5 1.01561,-0.21482 1.52343,-0.64453 2.34374,-1.91403 4.45312,-4.58981 6.32813,-8.02734 0.0391,-0.11716 0.0391,-0.21481 0,-0.29297 l 16.11328,0 z"
       id="path3695"
       style="font-size:60px;fill:#0066b3;stroke:#0066b3" />
    <path
       d="m 260.43901,615.05737 0,-39.375 c -2e-5,-1.44527 -0.54689,-2.18746 -1.64062,-2.22656 -0.8594,4e-5 -1.58205,0.62504 -2.16797,1.875 -0.50783,0.9766 -1.81642,2.03129 -3.92578,3.16406 -2.14845,1.17191 -4.16017,1.77738 -6.03516,1.81641 -0.70313,-0.039 -1.23047,0.11722 -1.58203,0.46875 -0.35157,0.35159 -0.52735,0.82034 -0.52735,1.40625 0,0.58597 0.21484,0.99612 0.64454,1.23047 0.46874,0.27347 0.95702,0.41018 1.46484,0.41015 2.49999,-0.15622 5.15624,-0.99606 7.96875,-2.51953 0.8203,-0.46871 1.58201,-0.957 2.28516,-1.46484 l 0,35.21484 c -2e-5,0.625 0.15623,1.15234 0.46875,1.58203 0.27342,0.39063 0.7031,0.58594 1.28906,0.58594 0.50779,0 0.93748,-0.21485 1.28906,-0.64453 0.27342,-0.35156 0.42967,-0.85938 0.46875,-1.52344 z"
       id="path3697"
       style="font-size:60px;fill:#0066b3;stroke:#0066b3" />
    <path
       d="m 275.43901,579.02222 c -2.61719,3.78909 -3.94531,9.17971 -3.98437,16.17187 -10e-6,7.03126 1.1914,12.34376 3.57421,15.9375 2.73437,4.02344 6.01562,6.05469 9.84375,6.09375 3.78905,0 7.03123,-1.93359 9.72657,-5.80078 2.49997,-3.74999 3.74997,-9.29686 3.75,-16.64062 -3e-5,-6.91404 -1.34769,-12.24607 -4.04297,-15.9961 -2.61721,-3.55465 -5.76174,-5.33199 -9.4336,-5.33203 -3.63282,4e-5 -6.77735,1.85551 -9.43359,5.56641 z m -0.46875,16.17187 c 0,-6.0156 1.03515,-10.62497 3.10547,-13.82812 1.87499,-2.92966 4.14061,-4.3945 6.79687,-4.39453 2.49999,3e-5 4.68748,1.2305 6.5625,3.6914 2.26561,3.08597 3.39842,7.793 3.39844,14.1211 -2e-5,6.25001 -0.95705,10.9961 -2.87109,14.23828 -1.87502,3.08594 -4.2383,4.64843 -7.08985,4.6875 -2.73438,0 -5.03907,-1.52344 -6.91406,-4.57032 -1.99219,-3.28124 -2.98828,-7.92967 -2.98828,-13.94531 z"
       id="path3699"
       style="font-size:60px;fill:#0066b3;stroke:#0066b3" />
    <path
       d="m 305.43901,579.02222 c -2.61719,3.78909 -3.94531,9.17971 -3.98437,16.17187 -10e-6,7.03126 1.1914,12.34376 3.57421,15.9375 2.73437,4.02344 6.01562,6.05469 9.84375,6.09375 3.78905,0 7.03123,-1.93359 9.72657,-5.80078 2.49997,-3.74999 3.74997,-9.29686 3.75,-16.64062 -3e-5,-6.91404 -1.34769,-12.24607 -4.04297,-15.9961 -2.61721,-3.55465 -5.76174,-5.33199 -9.4336,-5.33203 -3.63282,4e-5 -6.77735,1.85551 -9.43359,5.56641 z m -0.46875,16.17187 c 0,-6.0156 1.03515,-10.62497 3.10547,-13.82812 1.87499,-2.92966 4.14061,-4.3945 6.79687,-4.39453 2.49999,3e-5 4.68748,1.2305 6.5625,3.6914 2.26561,3.08597 3.39842,7.793 3.39844,14.1211 -2e-5,6.25001 -0.95705,10.9961 -2.87109,14.23828 -1.87502,3.08594 -4.2383,4.64843 -7.08985,4.6875 -2.73438,0 -5.03907,-1.52344 -6.91406,-4.57032 -1.99219,-3.28124 -2.98828,-7.92967 -2.98828,-13.94531 z"
       id="path3701"
       style="font-size:60px;fill:#0066b3;stroke:#0066b3" />
    <path
       d="m 341.53276,589.21753 0,25.83984 c -10e-6,1.44531 0.48827,2.16797 1.46484,2.16797 1.32812,0 2.01171,-0.72266 2.05079,-2.16797 l 0,-18.6914 c 0.15623,-1.67967 0.83982,-3.02733 2.05078,-4.04297 1.21092,-1.05467 2.75388,-1.58201 4.6289,-1.58203 1.79685,2e-5 3.41795,0.70314 4.86328,2.10937 1.21091,1.21096 1.81638,3.06643 1.81641,5.56641 l 0,16.64062 c -3e-5,1.44531 0.58591,2.16797 1.75781,2.16797 1.17185,0 1.75778,-0.72266 1.75782,-2.16797 l 0,-16.64062 c -4e-5,-2.3828 0.64449,-4.29686 1.93359,-5.74219 1.2109,-1.28904 2.91012,-1.93357 5.09766,-1.93359 2.10933,2e-5 3.80855,0.58596 5.09765,1.75781 1.17183,1.05471 1.75777,2.79299 1.75781,5.21484 l 0,17.34375 c -4e-5,1.44531 0.56636,2.16797 1.69922,2.16797 1.21089,0 1.81636,-0.72266 1.81641,-2.16797 l 0,-17.34375 c -5e-5,-3.43748 -0.99614,-6.03513 -2.98828,-7.79297 -2.14848,-1.79685 -4.60942,-2.69528 -7.38281,-2.69531 -3.08598,3e-5 -5.44926,0.80081 -7.08985,2.40235 -0.70315,0.62502 -1.28909,1.36721 -1.75781,2.22656 -0.35159,-0.50779 -0.74222,-0.97654 -1.17188,-1.40625 -2.14846,-2.14841 -4.5508,-3.22263 -7.20703,-3.22266 -2.38283,3e-5 -4.51173,0.93753 -6.38672,2.8125 -0.1172,0.0391 -0.21485,0.13674 -0.29296,0.29297 l 0,-1.11328 c -2e-5,-1.3281 -0.68361,-1.99216 -2.05079,-1.99219 -0.97657,3e-5 -1.46485,0.66409 -1.46484,1.99219 z"
       id="path3703"
       style="font-size:60px;fill:#0066b3;stroke:#0066b3" />
  </g>
  <path
     d="m 623.00292,13.660406 0,645.160034"
     id="path3648"
     style="fill:none;stroke:#ffffff;stroke-width:65;stroke-linecap:butt;stroke-linejoin:miter;stroke-miterlimit:2;stroke-opacity:1;stroke-dasharray:none" />
  <path
     d="m 995.04306,553.65329 -370.09603,0 -605.282431,-69.05496 -7.326661,0.41089"
     id="path3650"
     style="fill:none;stroke:#ffffff;stroke-width:70;stroke-linecap:butt;stroke-linejoin:miter;stroke-miterlimit:4;stroke-opacity:1;stroke-dasharray:none" />
  <path
     d="m 984.73729,154.44915 -974.539609,0"
     id="path3652"
     style="fill:none;stroke:#ffffff;stroke-width:70;stroke-linecap:butt;stroke-linejoin:miter;stroke-miterlimit:4;stroke-opacity:1;stroke-dasharray:none" />
  <path
     d="m 217.41286,160.28769 0,350.89425 0,2.02244"
     id="path3654"
     style="fill:none;stroke:#ffffff;stroke-width:60;stroke-linecap:butt;stroke-linejoin:miter;stroke-miterlimit:4;stroke-opacity:1;stroke-dasharray:none" />
  <g
     transform="matrix(0.6997593,0,0,0.6997593,467.35901,202.52063)"
     id="g3642">
    <path
       d="m 371.10877,256.89067 a 148.23808,147.7536 0 1 1 -296.476156,0 148.23808,147.7536 0 1 1 296.476156,0 z"
       id="path9909"
       style="color:#000000;fill:#ffffff;fill-opacity:1;fill-rule:evenodd;stroke:#ffffff;stroke-width:0.83176547;stroke-linecap:round;stroke-linejoin:miter;stroke-miterlimit:4;stroke-opacity:1;stroke-dasharray:none;stroke-dashoffset:0;marker:none;visibility:visible;display:inline;overflow:visible" />
    <path
       d="m 361.03837,256.89049 a 138.16761,137.71594 0 1 1 -276.335198,0 138.16761,137.71594 0 1 1 276.335198,0 z"
       id="path9911"
       style="color:#000000;fill:#ed1c23;fill-opacity:1;fill-rule:evenodd;stroke:#ed1c23;stroke-width:0.83176541;stroke-linecap:round;stroke-linejoin:miter;stroke-miterlimit:4;stroke-opacity:1;stroke-dasharray:none;stroke-dashoffset:0;marker:none;visibility:visible;display:inline;overflow:visible" />
    <path
       d="m 321.74949,257.13581 a 98.879125,99.123819 0 0 1 -197.75825,0 98.879125,99.123819 0 1 1 197.75825,0 z"
       id="path2817"
       style="fill:#ffffff;fill-rule:evenodd;stroke:#ffffff;stroke-width:0.83176541;stroke-linecap:butt;stroke-linejoin:miter;stroke-miterlimit:4;stroke-opacity:1;stroke-dasharray:none" />
    <path
       d="m 137.11941,194.89618 161.19938,147.74571 17.36746,-21.52587 -159.24248,-147.7457 -19.32436,21.52586 z"
       id="path15326"
       style="fill:#ed1c23;fill-opacity:1;fill-rule:evenodd;stroke:#ed1c23;stroke-width:0.66541237px;stroke-linecap:butt;stroke-linejoin:miter;stroke-opacity:1" />
  </g>
  <path
     d="m 622.08686,659.26907 0,-104.39619 -404.71398,-48.62288 0,-353.23093 406.14407,0 0,-90.095342"
     id="path3656"
     style="fill:none;stroke:#000000;stroke-width:30;stroke-linecap:butt;stroke-linejoin:miter;stroke-miterlimit:4;stroke-opacity:1;stroke-dasharray:none;marker-start:none;marker-mid:none;marker-end:none" />
  <path
     d="m 566.96798,71.514748 -42.12685,0 -42.12686,-10e-7 21.06343,-36.482928 21.06343,-36.4829298 21.06342,36.4829288 21.06343,36.48293 z"
     transform="matrix(0.5506217,0,0,0.5506217,335.66789,26.333641)"
     id="path5394"
     style="color:#000000;fill:#000000;fill-opacity:1;fill-rule:evenodd;stroke:none;stroke-width:30;marker:none;visibility:visible;display:inline;overflow:visible;enable-background:accumulate" />
  <g
     id="text2845"
     style="font-size:90px;font-style:normal;font-weight:normal;text-align:center;text-anchor:middle;fill:#ffffff;fill-opacity:1;stroke:none;font-family:'Rounded M+ 1m regular';-inkscape-font-specification:'Rounded M+ 1m regular'">
    <path
       d="m 726.81744,96.524872 0,-62.369385 c -4e-5,-1.380546 0.49526,-2.550589 1.4859,-3.510132 0.99056,-0.9594 2.14596,-1.439136 3.46619,-1.439209 1.32014,7.3e-5 2.47508,0.479809 3.46481,1.439209 0.98964,0.959543 1.48448,2.129586 1.48453,3.510132 l 0,62.550659 c -5e-5,2.160648 -0.0449,3.870854 -0.13458,5.130614 -0.0898,1.25977 -0.29989,2.44446 -0.63034,3.55408 -0.33056,1.10961 -0.73568,1.90475 -1.21536,2.38541 -0.47979,0.48064 -1.27492,0.90087 -2.38541,1.26068 -1.11058,0.35979 -2.26552,0.56945 -3.46481,0.62896 -1.19939,0.0595 -2.87938,0.0893 -5.03998,0.0893 -1.73954,-1e-5 -5.0391,-0.0897 -9.89868,-0.26917 -1.2012,-0.0604 -2.23666,-0.52552 -3.10639,-1.39526 -0.86977,-0.86976 -1.33486,-1.9043 -1.39526,-3.10364 -0.0605,-1.14075 0.32957,-2.11624 1.17004,-2.92648 0.84043,-0.81024 1.86033,-1.18515 3.0597,-1.12473 4.32125,0.17945 7.2015,0.26917 8.64074,0.26917 2.2192,0 3.52383,-0.19501 3.91388,-0.58502 0.38998,-0.39002 0.58498,-1.755067 0.58502,-4.095158 z M 709.44806,55.216278 c -2.40053,12.240635 -5.88045,23.760704 -10.43976,34.560242 -0.54017,1.259776 -1.45524,2.174845 -2.74521,2.745209 -1.28999,0.570382 -2.59507,0.614785 -3.91525,0.133209 -1.19935,-0.479727 -2.05399,-1.28951 -2.56393,-2.429352 -0.50996,-1.139819 -0.52506,-2.309404 -0.0453,-3.508759 4.55931,-10.559666 8.00902,-21.659508 10.34912,-33.29956 0.30028,-1.320141 0.97548,-2.340495 2.0256,-3.061066 1.05009,-0.720467 2.23524,-0.960793 3.55545,-0.720978 1.32017,0.300346 2.34007,0.975546 3.05969,2.025605 0.71959,1.050159 0.95945,2.235308 0.71961,3.55545 z m 62.91046,36.134033 c -0.65927,1.109629 -1.64895,1.844797 -2.96905,2.205506 -1.32028,0.360726 -2.55029,0.211037 -3.69004,-0.449067 -1.13991,-0.660085 -1.89018,-1.650227 -2.25082,-2.970428 -3.05977,-11.22068 -6.87019,-22.860683 -11.43128,-34.920044 -0.41937,-1.199293 -0.34384,-2.369335 0.2266,-3.510132 0.5703,-1.140695 1.45516,-1.920724 2.65457,-2.340088 1.25969,-0.419258 2.50481,-0.344185 3.73535,0.22522 1.23039,0.56951 2.0855,1.484121 2.56531,2.743836 4.55924,11.821327 8.42917,23.611476 11.6098,35.370483 0.3588,1.320203 0.20865,2.535107 -0.45044,3.644714 z"
       id="path2850"
       style="fill:#ffffff;font-family:'Rounded M+ 1m medium';-inkscape-font-specification:'Rounded M+ 1m medium'" />
    <path
       d="m 793.41931,103.45724 c -2e-5,1.31836 -0.45,2.44263 -1.34994,3.37281 -0.89998,0.93017 -2.01006,1.39526 -3.33023,1.39526 l -0.18128,0 c -1.3202,0 -2.44492,-0.46509 -3.37417,-1.39526 -0.92927,-0.93018 -1.3939,-2.08466 -1.3939,-3.46344 l 0,-64.800112 c 0,-1.380551 0.49484,-2.565699 1.48453,-3.555451 0.98968,-0.989617 2.17483,-1.484459 3.55545,-1.484527 l 64.07776,0 c 1.38054,6.8e-5 2.56569,0.49491 3.55545,1.484527 0.98961,0.989752 1.48445,2.1749 1.48453,3.555451 l 0,64.800112 c -8e-5,1.37878 -0.46471,2.53326 -1.39389,3.46344 -0.92934,0.93017 -2.05406,1.39526 -3.37418,1.39526 l -0.18127,0 c -1.32027,0 -2.43034,-0.46509 -3.33023,-1.39526 -0.90004,-0.93018 -1.35002,-2.05445 -1.34995,-3.37281 -7e-5,-0.42114 -0.23994,-0.63171 -0.7196,-0.63171 l -53.45947,0 c -0.47976,0 -0.71963,0.21057 -0.71961,0.63171 z m 54.89868,-9.272456 0,-22.140198 c -7e-5,-0.479706 -0.27015,-0.719574 -0.81024,-0.719604 l -21.14868,0 c -0.54021,3e-5 -0.81029,0.239898 -0.81024,0.719604 l 0,22.140198 c -5e-5,0.481575 0.27003,0.722358 0.81024,0.722351 l 21.14868,0 c 0.54009,7e-6 0.81017,-0.240776 0.81024,-0.722351 z m -0.81024,-52.558594 -21.14868,0 c -0.54021,6.1e-5 -0.81029,0.239929 -0.81024,0.719605 l 0,20.341186 c -5e-5,0.479775 0.27003,0.719643 0.81024,0.719605 l 21.14868,0 c 0.54009,3.8e-5 0.81017,-0.23983 0.81024,-0.719605 l 0,-20.341186 c -7e-5,-0.479676 -0.27015,-0.719544 -0.81024,-0.719605 z m -54.08844,0.719605 0,20.341186 c -2e-5,0.479775 0.27006,0.719643 0.81024,0.719605 l 21.14868,0 c 0.54013,3.8e-5 0.81021,-0.23983 0.81025,-0.719605 l 0,-20.341186 c -4e-5,-0.479676 -0.27012,-0.719544 -0.81025,-0.719605 l -21.14868,0 c -0.54018,6.1e-5 -0.81026,0.239929 -0.81024,0.719605 z m 0,29.698791 0,22.140198 c -2e-5,0.481575 0.27006,0.722358 0.81024,0.722351 l 21.14868,0 c 0.54013,7e-6 0.81021,-0.240776 0.81025,-0.722351 l 0,-22.140198 c -4e-5,-0.479706 -0.27012,-0.719574 -0.81025,-0.719604 l -21.14868,0 c -0.54018,3e-5 -0.81026,0.239898 -0.81024,0.719604 z"
       id="path2852"
       style="fill:#ffffff;font-family:'Rounded M+ 1m medium';-inkscape-font-specification:'Rounded M+ 1m medium'" />
    <path
       d="m 885.84729,99.765839 c 4.38169,-4.200433 7.92203,-8.610524 10.62103,-13.230286 0.66098,-1.080306 1.5614,-1.785261 2.70127,-2.114868 1.13979,-0.329572 2.21966,-0.224286 3.23959,0.315857 1.08028,0.598771 1.80035,1.513382 2.16019,2.743835 0.35976,1.230482 0.23937,2.385877 -0.36118,3.466187 -2.9993,5.339361 -6.83902,10.288696 -11.51916,14.848026 -0.9595,0.90087 -2.09933,1.35131 -3.4195,1.35131 -1.32021,0 -2.46096,-0.45044 -3.42224,-1.35131 -0.89907,-0.83863 -1.33348,-1.84296 -1.30325,-3.013 0.0302,-1.17005 0.46461,-2.1753 1.30325,-3.015751 z m 45.36255,-14.578858 c 1.01983,-0.780011 2.17477,-1.125165 3.46481,-1.035461 1.28991,0.08974 2.38442,0.614336 3.28354,1.573791 4.37981,4.619763 8.34037,9.330146 11.88171,14.131165 0.71952,1.019894 0.97404,2.144624 0.76355,3.374174 -0.21065,1.22955 -0.82588,2.20459 -1.8457,2.92511 -1.01998,0.72052 -2.1296,0.9906 -3.32886,0.81024 -1.19942,-0.18036 -2.1598,-0.78049 -2.88116,-1.80038 -3.5395,-4.79919 -7.43964,-9.449152 -11.70044,-13.949891 -0.83869,-0.840443 -1.22824,-1.875445 -1.16867,-3.105011 0.0594,-1.229538 0.56985,-2.204116 1.53122,-2.923737 z M 884.58936,65.027069 c -2e-5,15.959494 -2.3099,29.159554 -6.92963,39.600221 -0.48158,1.13891 -1.36735,1.79855 -2.65732,1.97891 -1.28998,0.18036 -2.35428,-0.21012 -3.1929,-1.17142 -2.16065,-2.39868 -2.6413,-5.2185 -1.44196,-8.459469 3.30139,-9.120469 4.95208,-21.87009 4.95209,-38.248901 l 0,-21.689758 c -1e-5,-1.380549 0.50994,-2.580804 1.52985,-3.600769 1.01988,-1.019828 2.21922,-1.529776 3.59802,-1.529847 l 66.32996,0 c 1.08024,7.1e-5 1.9953,0.390085 2.7452,1.170044 0.74974,0.780098 1.12465,1.710273 1.12473,2.790528 -8e-5,1.080387 -0.37499,2.010562 -1.12473,2.790527 -0.7499,0.780092 -1.66496,1.170106 -2.7452,1.170044 l -23.93921,0 c -0.54022,6.2e-5 -0.84051,0.209718 -0.90088,0.628967 -0.35894,1.499694 -0.77826,3.029539 -1.25794,4.589539 -0.1209,0.479793 0.0585,0.719661 0.53833,0.719604 l 18.98987,0 c 1.38054,5.7e-5 2.56569,0.495356 3.55545,1.485901 0.98961,0.990655 1.48445,2.175346 1.48453,3.554077 l 0,25.19989 c -8e-5,1.38064 -0.49492,2.565789 -1.48453,3.555451 -0.98976,0.989707 -2.17491,1.484549 -3.55545,1.484527 l -15.29846,0 c -0.4798,2.2e-5 -0.71966,0.270102 -0.7196,0.810242 l 0,14.490967 c -6e-5,2.158817 -0.0303,3.868566 -0.0906,5.129246 -0.0605,1.26068 -0.25549,2.43072 -0.58502,3.51013 -0.32965,1.0794 -0.71967,1.85943 -1.17005,2.34009 -0.45049,0.48064 -1.17055,0.90087 -2.16018,1.26068 -0.98974,0.35979 -2.06961,0.58455 -3.2396,0.67428 -1.17009,0.0897 -2.7448,0.13458 -4.72412,0.13459 -2.58183,-1e-5 -4.89262,-0.0595 -6.93237,-0.17853 -1.13896,-0.0604 -2.12864,-0.51087 -2.96906,-1.35132 -0.84049,-0.84046 -1.29001,-1.86036 -1.34857,-3.05969 -0.0605,-1.14075 0.29934,-2.10114 1.07941,-2.88117 0.77999,-0.78003 1.73946,-1.13983 2.87842,-1.0794 2.70076,0.18127 4.68104,0.27191 5.94085,0.27191 1.79988,0 2.87975,-0.21012 3.2396,-0.63034 0.35975,-0.42023 0.53965,-1.800385 0.5397,-4.140476 l 0,-14.490967 c -5e-5,-0.54014 -0.23992,-0.81022 -0.71961,-0.810242 l -13.85925,0 -3.86993,0 c -1.38065,2.2e-5 -2.5809,-0.49482 -3.60077,-1.484527 -1.01992,-0.989662 -1.52987,-2.174811 -1.52985,-3.555451 l 0,-25.19989 c -2e-5,-1.378731 0.50993,-2.563422 1.52985,-3.554077 1.01987,-0.990545 2.22012,-1.485844 3.60077,-1.485901 l 13.40881,0 c 0.4211,5.7e-5 0.7516,-0.270024 0.99152,-0.810241 0.59871,-1.918887 1.01802,-3.388307 1.25793,-4.408265 0.12081,-0.479674 -0.0586,-0.719542 -0.53833,-0.719604 l -26.01013,0 c -0.47976,6.2e-5 -0.71962,0.23993 -0.7196,0.719604 z m 51.30065,7.827759 0,-5.39978 c -7e-5,-0.540126 -0.27015,-0.810207 -0.81024,-0.810242 l -34.29107,0 c -0.47977,3.5e-5 -0.71964,0.270116 -0.71961,0.810242 l 0,5.39978 c -3e-5,0.54019 0.23984,0.81027 0.71961,0.810242 l 34.29107,0 c 0.54009,2.8e-5 0.81017,-0.270052 0.81024,-0.810242 z m 0,-13.94989 0,-4.949341 c -7e-5,-0.540113 -0.27015,-0.810193 -0.81024,-0.810242 l -34.29107,0 c -0.47977,4.9e-5 -0.71964,0.270129 -0.71961,0.810242 l 0,4.949341 c -3e-5,0.540204 0.23984,0.810284 0.71961,0.810241 l 34.29107,0 c 0.54009,4.3e-5 0.81017,-0.270037 0.81024,-0.810241 z"
       id="path2854"
       style="fill:#ffffff;font-family:'Rounded M+ 1m medium';-inkscape-font-specification:'Rounded M+ 1m medium'" />
  </g>
</svg>
