<?xml version="1.0" encoding="UTF-8" standalone="no"?>
<!-- Created with Inkscape (http://www.inkscape.org/) -->

<svg
   xmlns:svg="http://www.w3.org/2000/svg"
   xmlns="http://www.w3.org/2000/svg"
   version="1.2"
   width="450"
   height="450"
   id="svg1890">
  <defs
     id="defs1893" />
  <rect
     width="447.5"
     height="447.5"
     rx="33.316483"
     x="1.25"
     y="1.25"
     id="rect2385"
     style="fill:#ffffff;fill-opacity:1;fill-rule:evenodd;stroke:#0066b3;stroke-width:2.5;stroke-linecap:butt;stroke-linejoin:round;stroke-miterlimit:4;stroke-opacity:1;stroke-dasharray:none;stroke-dashoffset:0;marker:none;visibility:visible;display:inline;overflow:visible;enable-background:accumulate" />
  <rect
     width="415"
     height="415"
     rx="22.503939"
     ry="22.503939"
     x="16.978363"
     y="17.24411"
     id="rect3157"
     style="fill:#0066b3;fill-opacity:1;fill-rule:evenodd;stroke:none;stroke-width:1.25;marker:none;visibility:visible;display:inline;overflow:visible;enable-background:accumulate" />
  <rect
     width="37.5"
     height="285"
     x="61.754227"
     y="45.8983"
     id="rect2840"
     style="color:#000000;fill:#ffffff;fill-opacity:1;fill-rule:evenodd;stroke:none;stroke-width:30;marker:none;visibility:visible;display:inline;overflow:visible;enable-background:accumulate" />
  <g
     transform="matrix(0,-0.74312463,0.74312463,0,100.16781,56.300144)"
     id="g3622">
    <g
       id="g3707"
       style="fill:#ffffff;fill-opacity:1">
      <g
         id="g3673"
         style="fill:#ffffff;fill-opacity:1">
        <rect
           width="177.33049"
           height="352.75418"
           rx="20"
           ry="20"
           x="-267.90253"
           y="31.461864"
           id="rect3647"
           style="color:#000000;fill:#ffffff;fill-opacity:1;fill-rule:evenodd;stroke:none;stroke-width:30;marker:none;visibility:visible;display:inline;overflow:visible;enable-background:accumulate" />
        <path
           d="m -253.13688,42.653291 20.36733,0"
           id="path3649"
           style="fill:#ffffff;fill-opacity:1;stroke:#0066b3;stroke-width:10;stroke-linecap:round;stroke-linejoin:miter;stroke-miterlimit:4;stroke-opacity:1;stroke-dasharray:none" />
      </g>
    </g>
    <path
       d="m -105.33769,42.653287 -20.36733,0"
       id="path3649-5"
       style="fill:none;stroke:#0066b3;stroke-width:10;stroke-linecap:round;stroke-linejoin:miter;stroke-miterlimit:4;stroke-opacity:1;stroke-dasharray:none" />
    <path
       d="m -228.61295,189.38124 -27.84921,-47.38523 c 56.37794,-22.09285 98.38271,-21.52508 156.28812,0 l -28.68053,47.38523 c -34.39285,-4.56022 -67.58201,-4.30569 -99.75838,0 z"
       id="path3712"
       style="fill:#0066b3;fill-opacity:1;stroke:#0066b3;stroke-width:2;stroke-linecap:butt;stroke-linejoin:miter;stroke-miterlimit:4;stroke-opacity:1;stroke-dasharray:none" />
    <path
       d="m -125.94495,202.68235 25.77091,-42.39731 0,150.46889 -25.77091,-33.25279 0,-74.81879 z"
       id="path3714"
       style="fill:#0066b3;fill-opacity:1;stroke:#0066b3;stroke-width:2;stroke-linecap:butt;stroke-linejoin:bevel;stroke-miterlimit:4;stroke-opacity:1;stroke-dasharray:none" />
    <path
       d="m -229.85993,289.13962 c 34.63833,2.77107 68.16823,2.77107 100.5897,0 l 29.09619,38.24071 c -51.94245,9.10801 -104.48439,8.62409 -157.5351,0 l 27.84921,-38.24071 z"
       id="path3716"
       style="fill:#0066b3;fill-opacity:1;stroke:#0066b3;stroke-width:2;stroke-linecap:butt;stroke-linejoin:miter;stroke-miterlimit:4;stroke-opacity:1;stroke-dasharray:none" />
    <path
       d="m -232.17404,202.68235 -25.77091,-42.39731 0,150.46889 25.77091,-33.25279 0,-74.81879 z"
       id="path3714-1"
       style="fill:#0066b3;fill-opacity:1;stroke:#0066b3;stroke-width:2;stroke-linecap:butt;stroke-linejoin:bevel;stroke-miterlimit:4;stroke-opacity:1;stroke-dasharray:none" />
  </g>
  <g
     id="g2848"
     style="fill:#ffffff">
    <path
       d="m 85.265274,357.15881 c 0.3206,-1.60151 0.560672,-2.82872 0.720215,-3.68164 0.107383,-0.48009 -0.07898,-0.72016 -0.559082,-0.72021 l -28.959961,0 c -0.960294,5e-5 -1.787116,-0.34663 -2.480469,-1.04004 -0.693365,-0.69331 -1.040044,-1.51972 -1.040039,-2.47925 -5e-6,-0.95941 0.346674,-1.78583 1.040039,-2.47925 0.693353,-0.6933 1.520175,-1.03998 2.480469,-1.04004 l 30.078125,0 c 0.428021,6e-5 0.694947,-0.21315 0.800781,-0.63964 0.05367,-0.16108 0.106975,-0.41498 0.159912,-0.76172 0.05286,-0.34662 0.07931,-0.59971 0.07935,-0.75928 0.161093,-1.22715 0.708374,-2.22731 1.641846,-3.00049 0.933388,-0.77304 2.012896,-1.13274 3.238525,-1.0791 1.173457,0.0538 2.120315,0.50706 2.840576,1.35986 0.720167,0.85293 1.000521,1.86611 0.841065,3.03955 -0.05376,0.10749 -0.08061,0.29425 -0.08057,0.56031 -4.8e-5,0.26617 -0.0269,0.45294 -0.08057,0.5603 -0.105843,0.4802 0.08052,0.72027 0.559082,0.72021 l 22.480472,0 c 0.96021,6e-5 1.78704,0.34674 2.48047,1.04004 0.69328,0.69342 1.03996,1.51984 1.04004,2.47925 -8e-5,0.95953 -0.34676,1.78594 -1.04004,2.47925 -0.69343,0.69341 -1.52026,1.04009 -2.48047,1.04004 l -23.598636,0 c -0.42648,5e-5 -0.693407,0.24012 -0.800781,0.72021 -0.05376,0.3744 -0.147345,0.97458 -0.280762,1.80054 -0.13351,0.82606 -0.253546,1.45269 -0.360108,1.87988 -0.106654,0.4273 0.08011,0.64092 0.560303,0.64087 l 17.280274,0 c 1.22715,5e-5 2.29404,0.43991 3.20069,1.31958 0.9065,0.87977 1.35979,1.93323 1.35986,3.1604 l 0,31.35987 c -7e-5,1.22559 -0.45336,2.27865 -1.35986,3.15918 -0.90665,0.88054 -1.97354,1.3208 -3.20069,1.3208 l -31.679688,0 -3.840332,0 c -1.225613,0 -2.2921,-0.44026 -3.199463,-1.3208 -0.907414,-0.88053 -1.361108,-1.93359 -1.361084,-3.15918 l 0,-31.35987 c -2.4e-5,-1.22717 0.45367,-2.28063 1.361084,-3.1604 0.907363,-0.87967 1.97385,-1.31953 3.199463,-1.31958 l 8.161621,0 c 0.426395,5e-5 0.692508,-0.21317 0.79834,-0.63965 z m 22.480466,33.75977 0,-3.9209 c -6e-5,-0.42641 -0.21327,-0.63963 -0.63965,-0.63965 l -26.24023,0 c -0.480176,2e-5 -0.720247,0.21324 -0.720215,0.63965 l 0,3.9209 c -3.2e-5,0.42645 0.240039,0.63966 0.720215,0.63965 l 26.24023,0 c 0.42638,1e-5 0.63959,-0.2132 0.63965,-0.63965 z m 0,-11.20117 0,-3.6792 c -6e-5,-0.4264 -0.21327,-0.63962 -0.63965,-0.63965 l -26.24023,0 c -0.480176,3e-5 -0.720247,0.21325 -0.720215,0.63965 l 0,3.6792 c -3.2e-5,0.42646 0.240039,0.63967 0.720215,0.63965 l 26.24023,0 c 0.42638,2e-5 0.63959,-0.21319 0.63965,-0.63965 z m 0,-11.04004 0,-3.43994 c -6e-5,-0.48011 -0.21327,-0.72018 -0.63965,-0.72022 l -26.24023,0 c -0.480176,4e-5 -0.720247,0.24011 -0.720215,0.72022 l 0,3.43994 c -3.2e-5,0.42647 0.240039,0.63968 0.720215,0.63965 l 26.24023,0 c 0.42638,3e-5 0.63959,-0.21318 0.63965,-0.63965 z m -47.119138,-8.32031 c 1.225572,4e-5 2.251775,0.42688 3.078613,1.28051 0.826807,0.85373 1.240218,1.86731 1.240235,3.04077 l 0,36.79932 c -1.7e-5,0.42644 0.240054,0.63965 0.720215,0.63965 l 53.359375,0 c 0.96021,0 1.78704,0.34668 2.48047,1.04004 0.69328,0.69336 1.03996,1.52018 1.04004,2.48047 -8e-5,0.96028 -0.34676,1.78711 -1.04004,2.48047 -0.69343,0.69335 -1.52026,1.04003 -2.48047,1.04004 l -53.520508,0 c -0.372739,-10e-6 -0.559099,0.18635 -0.559082,0.55908 -1.7e-5,0.96028 -0.333269,1.77367 -0.999756,2.44018 -0.666519,0.6665 -1.479914,0.99975 -2.440186,0.99976 l -0.878906,0 c -1.173514,-1e-5 -2.173676,-0.41342 -3.000488,-1.24024 -0.826832,-0.82682 -1.240243,-1.85303 -1.240234,-3.07861 l 0,-44.16016 c -9e-6,-1.22717 0.413402,-2.25418 1.240234,-3.08105 0.826812,-0.82678 1.826974,-1.24019 3.000488,-1.24023 z"
       id="path2836"
       style="font-size:80px;font-style:normal;font-weight:normal;text-align:center;text-anchor:middle;fill:#ffffff;fill-opacity:1;stroke:none;font-family:'Rounded M+ 1m medium';-inkscape-font-specification:'Rounded M+ 1m medium'" />
    <path
       d="m 147.82484,404.19739 c 2.1875,-3.7858 3.7211,-8.06558 4.60083,-12.83936 0.87971,-4.77374 1.31957,-11.10756 1.31958,-19.00146 l 0,-3.27881 c -1e-5,-0.10739 -0.0667,-0.18755 -0.20019,-0.24048 -0.13348,-0.0529 -0.2531,-0.0525 -0.35889,10e-4 -0.10743,0.10583 -0.25432,0.23889 -0.44067,0.39917 -0.18637,0.16036 -0.33326,0.29341 -0.44068,0.39917 -0.79916,0.6934 -1.71875,0.90702 -2.75878,0.64087 -1.04005,-0.26608 -1.77329,-0.87928 -2.19971,-1.8396 -1.1198,-2.45439 -0.63965,-4.64107 1.44043,-6.56006 6.45344,-5.91954 11.57306,-12.4796 15.35889,-19.68017 0.58591,-1.11973 1.42575,-1.973 2.51953,-2.55982 1.09372,-0.58668 2.22735,-0.77345 3.40088,-0.5603 l 0.0806,0 c 1.01234,0.15957 1.78545,0.67959 2.31934,1.56006 0.53382,0.8806 0.58672,1.80019 0.15869,2.75879 -0.10583,0.37441 0.002,0.56158 0.32226,0.56152 l 22.15821,0 c 0.90652,6e-5 1.70649,0.34674 2.3999,1.04004 0.6933,0.69342 1.03998,1.49339 1.04004,2.3999 -6e-5,2.34706 -0.77317,4.34657 -2.31934,5.99854 -1.38677,1.49419 -2.53341,2.66769 -3.43994,3.5205 -0.10747,0.0538 -0.13433,0.14735 -0.0806,0.28077 0.0537,0.13351 0.13422,0.20024 0.24169,0.20019 l 16.4795,0 c 1.22551,5e-5 2.27857,0.43991 3.15918,1.31958 0.88046,0.87977 1.32073,1.93323 1.3208,3.1604 l 0,39.27979 c -7e-5,5.27994 -0.60025,8.53311 -1.80054,9.75952 -1.20043,1.22639 -4.33397,1.83959 -9.40063,1.8396 -1.38678,-10e-6 -3.81354,-0.0798 -7.28028,-0.23926 -1.01242,-0.0537 -1.86528,-0.42725 -2.55859,-1.12061 -0.69341,-0.69336 -1.06695,-1.54622 -1.12061,-2.55859 -0.0538,-0.90658 0.25264,-1.69352 0.91919,-2.36084 0.66645,-0.66732 1.45299,-0.97412 2.35962,-0.92041 3.09402,0.15951 5.20095,0.23926 6.3208,0.23926 1.97422,0 3.17458,-0.21322 3.60108,-0.63965 0.42637,-0.42643 0.63958,-1.62597 0.63964,-3.59863 l 0,-5.92041 c -6e-5,-0.42642 -0.24013,-0.63964 -0.72021,-0.63965 l -43.84033,0 c -0.42645,10e-6 -0.69338,0.21323 -0.80078,0.63965 -1.11981,5.27995 -2.87925,9.94629 -5.27832,13.99902 -0.58758,1.01399 -1.49456,1.6276 -2.72095,1.84082 -1.22641,0.21321 -2.31975,-0.0533 -3.28003,-0.79956 -0.96029,-0.74626 -1.53362,-1.74642 -1.71997,-3.00049 -0.18637,-1.25407 0.0134,-2.41414 0.59936,-3.48022 z m 30.56153,-32.16065 0,-7.03857 c -4e-5,-0.42639 -0.24011,-0.63961 -0.72022,-0.63965 l -14.7998,0 c -0.48017,4e-5 -0.72024,0.21326 -0.72022,0.63965 l 0,7.03857 c -2e-5,0.48018 0.24005,0.72025 0.72022,0.72022 l 14.7998,0 c 0.48011,3e-5 0.72018,-0.24004 0.72022,-0.72022 z m -16.24024,16.16211 15.52002,0 c 0.48011,2e-5 0.72018,-0.24005 0.72022,-0.72021 l 0,-7.44141 c -4e-5,-0.4264 -0.24011,-0.63962 -0.72022,-0.63965 l -14.96093,0 c -0.48017,3e-5 -0.72024,0.21325 -0.72022,0.63965 -0.0521,2.66767 -0.21161,5.14813 -0.47852,7.44141 -1e-5,0.48016 0.2132,0.72023 0.63965,0.72021 z m 43.43994,-0.72021 0,-7.44141 c -6e-5,-0.4264 -0.24013,-0.63962 -0.72021,-0.63965 l -17.68066,0 c -0.42648,3e-5 -0.6397,0.21325 -0.63965,0.63965 l 0,7.44141 c -5e-5,0.48016 0.21317,0.72023 0.63965,0.72021 l 17.68066,0 c 0.48008,2e-5 0.72015,-0.24005 0.72021,-0.72021 z m 0,-15.4419 0,-7.03857 c -6e-5,-0.42639 -0.24013,-0.63961 -0.72021,-0.63965 l -17.68066,0 c -0.42648,4e-5 -0.6397,0.21326 -0.63965,0.63965 l 0,7.03857 c -5e-5,0.48018 0.21317,0.72025 0.63965,0.72022 l 17.68066,0 c 0.48008,3e-5 0.72015,-0.24004 0.72021,-0.72022 z m -17.76123,-21.27929 -18.479,0 c -0.42646,5e-5 -0.77314,0.18641 -1.04004,0.55908 -1.17353,1.86691 -2.45364,3.70692 -3.84033,5.52002 -0.26695,0.3744 -0.16034,0.56157 0.31982,0.56152 l 15.92041,0 c 0.53382,5e-5 0.96025,-0.16027 1.2793,-0.48096 1.97424,-1.65359 3.97457,-3.54649 6.00098,-5.67871 0.10575,-0.10736 0.13219,-0.21438 0.0793,-0.32104 -0.0529,-0.10655 -0.1331,-0.15986 -0.24048,-0.15991 z"
       id="path2838"
       style="font-size:80px;font-style:normal;font-weight:normal;text-align:center;text-anchor:middle;fill:#ffffff;fill-opacity:1;stroke:none;font-family:'Rounded M+ 1m medium';-inkscape-font-specification:'Rounded M+ 1m medium'" />
    <path
       d="m 281.74525,340.75745 c 4.96089,1.22727 10.18793,3.04042 15.68116,5.43945 0.96021,0.42649 1.62672,1.13328 1.99951,2.12036 0.37265,0.9872 0.34579,1.96091 -0.0806,2.92114 -0.4265,0.96034 -1.14631,1.61342 -2.15942,1.95923 -1.01325,0.34592 -1.99999,0.30564 -2.96021,-0.12085 -5.01308,-2.23953 -10.0798,-3.99896 -15.20019,-5.27832 -0.96034,-0.26687 -1.66712,-0.82717 -2.12036,-1.68091 -0.45334,-0.85361 -0.49281,-1.73374 -0.11841,-2.64038 0.42638,-1.0123 1.10631,-1.78541 2.03979,-2.31933 0.93338,-0.53379 1.90628,-0.66726 2.9187,-0.40039 z m 10.80079,45.28076 0,16.64062 c -7e-5,0.47852 0.24,0.71778 0.72021,0.71778 l 10.40039,0 c 1.06601,0 1.94573,0.34668 2.63916,1.04004 0.69328,0.69336 1.03996,1.57348 1.04004,2.64038 -8e-5,1.06689 -0.34676,1.94701 -1.04004,2.64038 -0.69343,0.69335 -1.57315,1.04003 -2.63916,1.04004 l -31.44043,0 c -1.01404,-1e-5 -1.88114,-0.34669 -2.60132,-1.04004 -0.72025,-0.69337 -1.08036,-1.57349 -1.08032,-2.64038 -4e-5,-1.0669 0.36007,-1.94702 1.08032,-2.64038 0.72018,-0.69336 1.58728,-1.04004 2.60132,-1.04004 l 10.79834,0 c 0.48009,0 0.72016,-0.23926 0.72022,-0.71778 l 0,-16.64062 c -6e-5,-0.48012 -0.24013,-0.7202 -0.72022,-0.72022 l -8.63769,0 c -1.01404,2e-5 -1.88115,-0.33323 -2.60132,-0.99975 -0.72026,-0.66648 -1.08037,-1.50673 -1.08032,-2.52075 -5e-5,-1.01398 0.36006,-1.88068 1.08032,-2.6001 0.72017,-0.71938 1.58728,-1.07908 2.60132,-1.0791 l 8.63769,0 c 0.48009,2e-5 0.72016,-0.21319 0.72022,-0.63965 l 0,-13.60108 c -6e-5,-0.4801 -0.24013,-0.72017 -0.72022,-0.72021 l -10.15869,0 c -1.06612,4e-5 -1.95927,-0.36007 -2.67944,-1.08032 -0.72026,-0.72017 -1.08037,-1.58687 -1.08033,-2.6001 -4e-5,-1.01314 0.37309,-1.89286 1.11939,-2.63916 0.74621,-0.74621 1.62634,-1.11934 2.64038,-1.11939 l 30.15869,0 c 1.01392,5e-5 1.88103,0.35975 2.60132,1.07911 0.72014,0.71944 1.08025,1.613 1.08032,2.68066 -7e-5,1.01241 -0.34675,1.87871 -1.04004,2.59888 -0.69343,0.72025 -1.57396,1.08036 -2.6416,1.08032 l -9.7583,0 c -0.48021,4e-5 -0.72028,0.24011 -0.72021,0.72021 l 0,13.60108 c -7e-5,0.42646 0.24,0.63967 0.72021,0.63965 l 8.32031,0 c 1.0123,2e-5 1.85174,0.35972 2.51831,1.0791 0.66643,0.71942 0.99968,1.58612 0.99976,2.6001 -8e-5,1.01402 -0.33333,1.85427 -0.99976,2.52075 -0.66657,0.66652 -1.50601,0.99977 -2.51831,0.99975 l -8.32031,0 c -0.48021,2e-5 -0.72028,0.2401 -0.72021,0.72022 z m -56.56006,-4.79981 0,-33.5205 c -1e-5,-1.22716 0.43985,-2.29405 1.31958,-3.20069 0.87971,-0.90651 1.93317,-1.3598 3.1604,-1.35986 l 24.47998,0 c 0.90654,6e-5 1.69308,0.34674 2.35962,1.04004 0.66646,0.69342 0.99971,1.49338 0.99975,2.3999 -4e-5,0.90663 -0.33329,1.69317 -0.99975,2.35962 -0.66654,0.66656 -1.45308,0.99981 -2.35962,0.99976 l -4.96094,0 c -0.42646,5e-5 -0.63968,0.21408 -0.63965,0.64208 l 0,4.07959 c -3e-5,0.4802 0.21319,0.72027 0.63965,0.72022 l 4.24072,0 c 0.85283,5e-5 1.58607,0.29343 2.19971,0.88013 0.61357,0.5868 0.92037,1.3066 0.92041,2.15942 -4e-5,0.85291 -0.30684,1.58615 -0.92041,2.19971 -0.61364,0.61365 -1.34688,0.92045 -2.19971,0.92041 l -4.24072,0 c -0.42646,4e-5 -0.63968,0.24011 -0.63965,0.72021 l 0,3.99903 c -3e-5,0.42647 0.21319,0.63968 0.63965,0.63964 l 4.24072,0 c 0.85283,4e-5 1.58607,0.30685 2.19971,0.92041 0.61357,0.61365 0.92037,1.34688 0.92041,2.19971 -4e-5,0.8529 -0.30684,1.58614 -0.92041,2.19971 -0.61364,0.61364 -1.34688,0.92044 -2.19971,0.92041 l -4.24072,0 c -0.42646,3e-5 -0.63968,0.21325 -0.63965,0.63965 l 0,4.47998 c -3e-5,0.42646 0.21319,0.63967 0.63965,0.63965 l 4.00147,0 c 1.22555,2e-5 2.29163,0.45372 3.19824,1.36108 0.90653,0.90741 1.35982,1.9739 1.35986,3.19946 l 0,1.84082 c -4e-5,7.99969 -0.2397,13.91969 -0.71899,17.76001 -0.47937,3.84033 -1.18575,6.3737 -2.11914,7.6001 -0.93347,1.22639 -2.38733,1.83959 -4.36158,1.8396 -1.54625,-10e-6 -3.38625,-0.0798 -5.52002,-0.23926 -1.01239,-0.0537 -1.86525,-0.45411 -2.55859,-1.20117 -0.69338,-0.74707 -1.06692,-1.65365 -1.1206,-2.71973 -0.0537,-0.96028 0.26609,-1.76025 0.95947,-2.3999 0.69333,-0.63965 1.52016,-0.90657 2.48047,-0.80078 1.5999,0.10742 2.58623,0.16113 2.95898,0.16113 0.53383,0 0.90736,-0.0802 1.12061,-0.24048 0.21318,-0.16031 0.41338,-0.62703 0.60058,-1.40014 0.18715,-0.77311 0.30677,-2.03939 0.35889,-3.79883 -3e-5,-0.10742 -0.0664,-0.22786 -0.19898,-0.36133 -0.13268,-0.13346 -0.25271,-0.17333 -0.3601,-0.11963 -0.96032,0.15951 -1.84044,-0.0407 -2.64038,-0.60058 -0.8,-0.55989 -1.27973,-1.31998 -1.43921,-2.28028 -0.21325,-1.01236 -0.66653,-3.11847 -1.35987,-6.31836 -0.10744,-0.58754 -8.3e-4,-1.13442 0.31983,-1.64062 0.32061,-0.50617 0.7739,-0.81256 1.35986,-0.91919 0.58591,-0.10659 1.15923,0.0134 1.71997,0.36011 0.56068,0.34669 0.89393,0.813 0.99976,1.39892 0.74704,3.4131 1.25404,5.94647 1.52099,7.6001 -3e-5,0.0537 0.0264,0.0806 0.0794,0.0806 0.0529,10e-6 0.0793,-0.0269 0.0794,-0.0806 l 0,-10.48096 c -4e-5,-0.48012 -0.21325,-0.72019 -0.63965,-0.72021 l -19.59961,0 c -1.22723,2e-5 -2.28069,-0.45327 -3.1604,-1.35986 -0.87973,-0.90656 -1.31959,-1.97264 -1.31958,-3.19825 z m 8.32031,-30.63965 0,4.07959 c -1e-5,0.4802 0.24006,0.72027 0.72021,0.72022 l 5.67872,0 c 0.42641,5e-5 0.63962,-0.24002 0.63964,-0.72022 l 0,-4.07959 c -2e-5,-0.428 -0.21323,-0.64203 -0.63964,-0.64208 l -5.67872,0 c -0.48015,5e-5 -0.72022,0.21408 -0.72021,0.64208 z m 0,11.67969 0,3.99903 c -1e-5,0.42647 0.24006,0.63968 0.72021,0.63964 l 5.67872,0 c 0.42641,4e-5 0.63962,-0.21317 0.63964,-0.63964 l 0,-3.99903 c -2e-5,-0.4801 -0.21323,-0.72017 -0.63964,-0.72021 l -5.67872,0 c -0.48015,4e-5 -0.72022,0.24011 -0.72021,0.72021 z m 0,11.51856 0,4.47998 c -1e-5,0.42646 0.24006,0.63967 0.72021,0.63965 l 5.67872,0 c 0.42641,2e-5 0.63962,-0.21319 0.63964,-0.63965 l 0,-4.47998 c -2e-5,-0.4264 -0.21323,-0.63962 -0.63964,-0.63965 l -5.67872,0 c -0.48015,3e-5 -0.72022,0.21325 -0.72021,0.63965 z m -3.60107,17.36084 c -0.58595,6.29395 -1.30617,11.60075 -2.16065,15.92041 -0.15951,0.74707 -0.57252,1.33382 -1.23901,1.76025 -0.66651,0.42643 -1.3733,0.53304 -2.12036,0.31983 -0.74708,-0.21322 -1.33383,-0.65349 -1.76026,-1.32081 -0.42643,-0.66731 -0.5599,-1.40055 -0.40039,-2.1997 1.12142,-5.43945 1.89534,-10.50618 2.32178,-15.2002 0.10579,-0.74705 0.43863,-1.34723 0.99853,-1.80054 0.55989,-0.45327 1.18652,-0.65305 1.87989,-0.59936 0.74706,0.0537 1.37409,0.40041 1.8811,1.04004 0.50699,0.63966 0.70678,1.33302 0.59937,2.08008 z m 4.96093,16.47949 c -0.69337,0.0537 -1.29355,-0.13265 -1.80053,-0.55908 -0.50702,-0.42644 -0.78737,-0.98633 -0.84107,-1.67969 -0.15952,-3.94694 -0.45249,-8.69384 -0.8789,-14.24072 -0.0537,-0.69335 0.11961,-1.30655 0.52001,-1.8396 0.40038,-0.53303 0.94726,-0.8264 1.64063,-0.88013 0.63963,-0.1074 1.2394,0.0391 1.79932,0.43945 0.55987,0.40041 0.86668,0.94729 0.92041,1.64063 0.42641,4.37338 0.77309,9.17318 1.04004,14.39941 0.0537,0.69336 -0.15953,1.29354 -0.63965,1.80054 -0.48016,0.507 -1.06691,0.81339 -1.76026,0.91919 z m 3.15918,-18.55957 c 0.40037,-0.53384 0.92039,-0.85407 1.56006,-0.96069 0.63963,-0.10659 1.22638,0.0269 1.76026,0.40039 0.53383,0.37355 0.85365,0.88014 0.95947,1.51977 0.58754,3.36102 1.09454,6.98813 1.52099,10.88135 0.0537,0.69336 -0.10622,1.29313 -0.47973,1.79932 -0.37356,0.50618 -0.90701,0.81299 -1.60034,0.92041 -0.63967,0.10579 -1.213,-0.0411 -1.71997,-0.44068 -0.50702,-0.39957 -0.81342,-0.91918 -0.91919,-1.55884 -0.21487,-1.65364 -0.72187,-5.25389 -1.521,-10.80078 -0.10744,-0.63963 0.039,-1.22638 0.43945,-1.76025 z"
       id="path2840"
       style="font-size:80px;font-style:normal;font-weight:normal;text-align:center;text-anchor:middle;fill:#ffffff;fill-opacity:1;stroke:none;font-family:'Rounded M+ 1m medium';-inkscape-font-specification:'Rounded M+ 1m medium'" />
    <path
       d="m 351.34633,409.55872 0,-4.72168 c -4e-5,-0.42643 -0.24011,-0.63965 -0.72022,-0.63965 l -27.83935,0 c -0.90658,0 -1.70655,-0.34668 -2.3999,-1.04004 -0.69337,-0.69336 -1.04005,-1.49332 -1.04004,-2.3999 -10e-6,-0.90657 0.34667,-1.69311 1.04004,-2.35962 0.69335,-0.6665 1.49332,-0.99975 2.3999,-0.99976 l 27.83935,0 c 0.48011,10e-6 0.72018,-0.24006 0.72022,-0.72021 l 0,-4.64112 c -4e-5,-0.42641 -0.24011,-0.63963 -0.72022,-0.63965 l -16.3208,0 -3.59863,0 c -1.22723,2e-5 -2.29412,-0.45327 -3.20068,-1.35986 -0.90659,-0.90656 -1.35988,-1.97345 -1.35987,-3.20068 l 0,-22.15821 c -1e-5,-1.22717 0.45328,-2.28063 1.35987,-3.1604 0.90656,-0.87967 1.97345,-1.31953 3.20068,-1.31958 l 19.91943,0 c 0.48011,5e-5 0.72018,-0.24002 0.72022,-0.72021 l 0,-4.24072 c -4e-5,-0.42638 -0.24011,-0.6396 -0.72022,-0.63965 l -27.04101,0 c -0.90658,5e-5 -1.70655,-0.34663 -2.3999,-1.04004 -0.69337,-0.69331 -1.04005,-1.49327 -1.04004,-2.3999 -10e-6,-0.90652 0.34667,-1.70649 1.04004,-2.39991 0.69335,-0.6933 1.49332,-1.03998 2.3999,-1.04003 l 27.04101,0 c 0.48011,5e-5 0.72018,-0.21316 0.72022,-0.63965 l 0,-2.32178 c -4e-5,-1.22552 0.43982,-2.26515 1.31958,-3.1189 0.87968,-0.85361 1.90629,-1.28045 3.07983,-1.28051 1.17346,6e-5 2.20007,0.4269 3.07984,1.28051 0.87967,0.85375 1.31953,1.89338 1.31958,3.1189 l 0,2.32178 c -5e-5,0.42649 0.24002,0.6397 0.72021,0.63965 l 27.04102,0 c 0.9065,5e-5 1.70647,0.34673 2.3999,1.04003 0.69328,0.69342 1.03996,1.49339 1.04004,2.39991 -8e-5,0.90663 -0.34676,1.70659 -1.04004,2.3999 -0.69343,0.69341 -1.4934,1.04009 -2.3999,1.04004 l -27.04102,0 c -0.48019,5e-5 -0.72026,0.21327 -0.72021,0.63965 l 0,4.24072 c -5e-5,0.48019 0.24002,0.72026 0.72021,0.72021 l 19.91944,0 c 1.22714,5e-5 2.29404,0.43991 3.20068,1.31958 0.90651,0.87977 1.35979,1.93323 1.35986,3.1604 l 0,22.15821 c -7e-5,1.22723 -0.45335,2.29412 -1.35986,3.20068 -0.90664,0.90659 -1.97354,1.35988 -3.20068,1.35986 l -19.91944,0 c -0.48019,2e-5 -0.72026,0.21324 -0.72021,0.63965 l 0,4.64112 c -5e-5,0.48015 0.24002,0.72022 0.72021,0.72021 l 27.83936,0 c 0.9065,10e-6 1.70647,0.33326 2.3999,0.99976 0.69328,0.66651 1.03996,1.45305 1.04004,2.35962 -8e-5,0.90658 -0.34676,1.70654 -1.04004,2.3999 -0.69343,0.69336 -1.4934,1.04004 -2.3999,1.04004 l -27.83936,0 c -0.48019,0 -0.72026,0.21322 -0.72021,0.63965 l 0,4.72168 c -5e-5,1.22558 -0.43991,2.26521 -1.31958,3.11889 -0.87977,0.85367 -1.90638,1.28051 -3.07984,1.28052 -1.17354,-10e-6 -2.20015,-0.42685 -3.07983,-1.28052 -0.87976,-0.85368 -1.31962,-1.89331 -1.31958,-3.11889 z m 25.83984,-25.28077 0,-5.0415 c -6e-5,-0.4264 -0.24013,-0.63962 -0.72021,-0.63965 l -15.60059,0 c -0.48019,3e-5 -0.72026,0.21325 -0.72021,0.63965 l 0,5.0415 c -5e-5,0.48017 0.24002,0.72024 0.72021,0.72022 l 15.60059,0 c 0.48008,2e-5 0.72015,-0.24005 0.72021,-0.72022 z m -0.72021,-17.68066 -15.60059,0 c -0.48019,4e-5 -0.72026,0.21326 -0.72021,0.63965 l 0,4.64111 c -5e-5,0.42647 0.24002,0.63968 0.72021,0.63965 l 15.60059,0 c 0.48008,3e-5 0.72015,-0.21318 0.72021,-0.63965 l 0,-4.64111 c -6e-5,-0.42639 -0.24013,-0.63961 -0.72021,-0.63965 z m -42.16065,0.63965 0,4.64111 c -2e-5,0.42647 0.24006,0.63968 0.72022,0.63965 l 15.60058,0 c 0.48011,3e-5 0.72018,-0.21318 0.72022,-0.63965 l 0,-4.64111 c -4e-5,-0.42639 -0.24011,-0.63961 -0.72022,-0.63965 l -15.60058,0 c -0.48016,4e-5 -0.72024,0.21326 -0.72022,0.63965 z m 0.72022,17.76123 15.60058,0 c 0.48011,2e-5 0.72018,-0.24005 0.72022,-0.72022 l 0,-5.0415 c -4e-5,-0.4264 -0.24011,-0.63962 -0.72022,-0.63965 l -15.60058,0 c -0.48016,3e-5 -0.72024,0.21325 -0.72022,0.63965 l 0,5.0415 c -2e-5,0.48017 0.24006,0.72024 0.72022,0.72022 z"
       id="path2842"
       style="font-size:80px;font-style:normal;font-weight:normal;text-align:center;text-anchor:middle;fill:#ffffff;fill-opacity:1;stroke:none;font-family:'Rounded M+ 1m medium';-inkscape-font-specification:'Rounded M+ 1m medium'" />
  </g>
</svg>
