<?xml version="1.0" encoding="UTF-8" standalone="no"?>
<!-- Created with Inkscape (http://www.inkscape.org/) -->

<svg
   xmlns:svg="http://www.w3.org/2000/svg"
   xmlns="http://www.w3.org/2000/svg"
   version="1.0"
   width="500.34357"
   height="500.34357"
   id="svg1890">
  <defs
     id="defs1893" />
  <path
     d="m 496.8946,242.33616 c 4.33196,4.33195 4.33196,11.33928 0,15.67124 L 258.00741,496.89459 c -4.33196,4.33196 -11.33929,4.33196 -15.67125,0 L 3.448976,258.0074 c -4.33196815,-4.33197 -4.33196515,-11.33928 -8e-6,-15.67124 L 242.33617,3.4489584 c 4.33195,-4.3319492 11.33929,-4.3319432 15.67125,1e-5 z"
     id="path5216"
     style="fill:#fcdc0f;fill-opacity:1;fill-rule:nonzero;stroke:none" />
  <path
     d="M 250.17179,12.231763 12.231779,250.17177 250.17179,488.1118 488.11181,250.17178 z m 16.73435,30.875126 190.33054,190.330551 c 9.25965,9.25963 9.25965,24.20902 1e-5,33.46868 L 266.90615,457.23668 c -9.25965,9.25963 -24.20908,9.25963 -33.46871,0 L 43.106879,266.90612 c -9.25963,-9.25964 -9.25964,-24.20905 0,-33.46869 L 233.43744,43.106869 c 9.25965,-9.259653 24.20905,-9.25963 33.4687,2e-5 z"
     id="path17826"
     style="fill:#000000;fill-opacity:1;fill-rule:nonzero;stroke:none" />
  <g
     transform="translate(617.59773,-3.6061957)"
     id="g3641">
    <path
       d="m -286.57231,192.84618 c 4.34625,-0.81755 11.35489,-1.13728 17.83866,-0.0933 5.9924,1.83329 11.26632,5.6071 12.95302,9.72016 2.90023,8.84267 3.7956,19.60172 4.81256,28.00525 l 8.83407,11.66927 c 3.64071,5.31266 1.97032,14.64193 -5.47971,14.48012 l -21.17284,0.60406 15.46207,6.2181 c -3.43423,2.10817 -4.87267,3.47306 -10.16051,5.08234 -14.89599,3.55263 -27.38451,2.65577 -37.95646,0.21504 -2.65771,6.99406 -15.57678,16.16885 -26.62402,18.47126 l 0.0244,7.80758 c 7.02373,5.54764 9.69574,7.34745 12.31023,13.40143 1.41869,3.21112 -0.40651,6.74994 -2.48878,8.78033 -2.53206,2.39524 -7.72678,4.25614 -11.82758,-0.068 -1.44277,-1.16952 -1.26819,-3.49391 -3.64826,-6.14932 -6.82586,-7.89457 -12.62526,-11.42079 -18.67795,-35.8471 l -2.07245,-0.0933 c -0.18719,9.87105 -0.0854,12.75851 5.38228,20.479 -27.06754,3.88114 -44.35887,-3.66401 -59.22846,-21.77098 l 5.27476,-10.52171 -1.35671,-0.9254 -3.51356,6.61669 c -7.98143,11.52353 -21.37699,18.22717 -30.81887,33.88635 -1.39446,2.52176 -0.73137,4.63201 -0.30413,6.78943 1.15343,3.53498 1.48836,5.24102 -0.78291,6.8507 -4.9479,2.06278 -12.59832,-3.07908 -13.15368,-5.64186 -0.50594,-2.21301 -0.95075,-3.11336 1.13575,-5.1227 3.85252,-4.30477 6.54179,-9.65831 10.01018,-20.69404 -0.90493,-5.95851 -0.66872,-11.34645 -0.0689,-16.55258 -3.89618,-5.48518 -5.16473,-9.44479 -7.10558,-19.03096 -8.51534,12.28985 0.29623,29.99781 -5.57767,45.33832 -4.45141,12.68518 -8.55965,25.75166 -19.62718,31.0856 -4.74018,2.29485 -9.48035,2.2683 -14.22053,0.0202 -19.92892,-13.11685 -21.09617,-25.76871 -17.14896,-48.37237 4.6739,-22.15101 24.14176,-35.41977 34.34257,-42.79104 2.4673,-1.78291 6.22299,-3.69015 7.8117,-6.14086 27.37568,-66.24447 106.13769,-80.51146 152.59696,-25.35465 1.45953,1.68614 5.92687,0.83848 6.89523,-1.74817 l 1.51293,-11.85578 c 1.12334,-6.39215 2.89277,-6.50659 6.66001,-4.79841 5.01926,3.0571 6.7874,4.09625 9.15832,8.05126 l 0,4e-5 z"
       id="path2837"
       style="fill:#000000;fill-opacity:1;stroke:#000000;stroke-width:1px;stroke-linecap:round;stroke-linejoin:round;stroke-opacity:1" />
    <path
       d="m -268.88925,197.23979 c -1.24926,-8.55334 3.52037,-11.85195 6.67254,-13.34509 7.65584,-2.74966 12.78514,1.21487 11.21555,8.80208 -0.70754,9.00383 -8.271,12.50223 -10.50571,11.78343 l -7.38238,-7.24042 z"
       id="path3613"
       style="fill:#000000;fill-opacity:1;stroke:#000000;stroke-width:1px;stroke-linecap:butt;stroke-linejoin:miter;stroke-opacity:1" />
    <path
       d="m -289.33278,198.51751 -6.24664,-8.2342 0,8.51814 6.24664,-0.28394 z"
       id="path3615"
       style="fill:#fcdc0f;fill-opacity:1;stroke:#fcdc0f;stroke-width:2;stroke-linecap:round;stroke-linejoin:round;stroke-miterlimit:4;stroke-opacity:1;stroke-dasharray:none" />
    <path
       d="m -245.03846,239.68852 c 2.82893,-3.79629 5.37905,-7.87139 9.65389,-10.22177"
       id="path3617"
       style="fill:none;stroke:#000000;stroke-width:2;stroke-linecap:round;stroke-linejoin:miter;stroke-miterlimit:4;stroke-opacity:1;stroke-dasharray:none" />
    <path
       d="m -244.18665,242.81183 c 7.43734,-3.50037 11.56328,-4.24124 14.48084,-3.97513"
       id="path3619"
       style="fill:none;stroke:#000000;stroke-width:2;stroke-linecap:round;stroke-linejoin:miter;stroke-miterlimit:4;stroke-opacity:1;stroke-dasharray:none" />
    <path
       d="m -242.76696,245.93516 c 4.7686,-0.62623 9.91064,-0.87902 16.18447,-1e-5"
       id="path3621"
       style="fill:none;stroke:#000000;stroke-width:2;stroke-linecap:round;stroke-linejoin:miter;stroke-miterlimit:4;stroke-opacity:1;stroke-dasharray:none" />
    <path
       d="m -247.87784,254.16935 c -0.89962,6.49496 -0.68516,10.713 0.28393,15.04871"
       id="path3623"
       style="fill:none;stroke:#000000;stroke-width:2;stroke-linecap:round;stroke-linejoin:miter;stroke-miterlimit:4;stroke-opacity:1;stroke-dasharray:none" />
    <path
       d="m -253.5566,253.88541 -3.6912,17.60416"
       id="path3625"
       style="fill:none;stroke:#000000;stroke-width:2;stroke-linecap:round;stroke-linejoin:miter;stroke-miterlimit:4;stroke-opacity:1;stroke-dasharray:none" />
    <path
       d="m -256.67992,252.74966 -7.38239,18.17203"
       id="path3627"
       style="fill:none;stroke:#000000;stroke-width:2;stroke-linecap:round;stroke-linejoin:miter;stroke-miterlimit:4;stroke-opacity:1;stroke-dasharray:none" />
    <path
       d="m -271.20946,245.64825 c -3.14907,1.7841 -11.81945,1.0724 -14.16542,-0.16637 -5.5266,-3.05012 -6.21079,-7.25525 -5.41204,-11.87372 2.51032,-8.78072 16.31502,-15.58747 26.97411,-9.75428 8.6283,3.77431 -0.33606,17.35611 -7.39665,21.79437 z"
       id="path3635"
       style="fill:#fcdc0f;fill-opacity:1;stroke:#fcdc0f;stroke-width:1px;stroke-linecap:butt;stroke-linejoin:miter;stroke-opacity:1" />
    <path
       d="m -206.4229,253.88542 a 3.1233177,3.1233177 0 1 1 -6.24664,0 3.1233177,3.1233177 0 1 1 6.24664,0 z"
       transform="translate(-63.318166,-21.863223)"
       id="path3633"
       style="color:#000000;fill:#fcdc0f;fill-opacity:1;fill-rule:evenodd;stroke:#000000;stroke-width:2;stroke-linecap:round;stroke-linejoin:round;stroke-miterlimit:4;stroke-opacity:1;stroke-dasharray:none;stroke-dashoffset:0;marker:none;visibility:visible;display:inline;overflow:visible;enable-background:accumulate" />
    <path
       d="m -314.38675,286.32889 c 5.82513,-3.60573 10.85934,-7.93619 13.62041,-12.34982 9.66768,2.69344 18.14861,12.64768 24.06879,20.93538 l 3.83318,0.14197 c 4.49772,-0.0193 1.80553,8.30115 -2.57833,9.62806 -1.68591,0.44728 -7.32029,2.02565 -9.06314,0.45174 -7.1781,-7.49682 -15.44721,-14.00549 -29.88091,-18.80733 z"
       id="path3637"
       style="fill:#000000;fill-opacity:1;stroke:#000000;stroke-width:1px;stroke-linecap:round;stroke-linejoin:round;stroke-opacity:1" />
    <path
       d="m -417.61088,282.70406 c 2.98701,-2.39171 4.59056,-3.70691 7.1275,-6.72595 2.53404,3.11648 8.06816,8.94205 10.33988,10.54064 0.5095,4.01549 -0.37624,7.83021 2.50968,11.8457 1.75005,2.70248 2.05464,3.71354 4.61781,7.72983 1.27079,2.2117 1.66278,4.88434 0,7.62942 -1.55497,1.91969 -9.92337,1.1834 -13.25111,-2.20851 -1.06726,-1.29977 -1.93972,-1.98727 -2.40929,-3.81472 l -1.10427,-9.73755 c -0.66656,-4.19137 -4.633,-12.61992 -7.8302,-15.25886 z"
       id="path3639"
       style="fill:#000000;fill-opacity:1;stroke:#000000;stroke-width:1px;stroke-linecap:butt;stroke-linejoin:bevel;stroke-opacity:1" />
  </g>
</svg>
