<?xml version="1.0" encoding="UTF-8" standalone="no"?>
<!-- Created with Inkscape (http://www.inkscape.org/) -->

<svg
   xmlns:svg="http://www.w3.org/2000/svg"
   xmlns="http://www.w3.org/2000/svg"
   version="1.2"
   width="750"
   height="525"
   id="svg1890">
  <defs
     id="defs1893" />
  <path
     d="M 130.10072,507.77503 2.363207,283.26148 C -0.6938375,273.07507 -0.80236611,254.44442 2.1392252,244.81592 L 125.21986,27.596886 C 134.38033,10.578574 139.06984,5.3971205 148.4543,1.925078 L 720.20045,0.49276277 C 737.58271,0.37211819 750.30119,14.626586 749.49651,29.161494 l 0.0326,468.903636 C 749.5301,512.475 731.97593,525 717.77761,525 l -569.3337,-0.16566 c -7.75303,-0.4632 -14.12134,-10.26183 -18.34319,-17.05931 z"
     id="path2865"
     style="fill:#0566ae;fill-opacity:1;stroke:none" />
  <path
     d="M 137.78801,500.07632 14.063956,282.61689 c -2.960993,-9.86636 -3.066112,-27.91164 -0.216944,-37.23761 L 133.06051,34.98517 c 8.87265,-16.483604 13.41481,-21.502258 22.50442,-24.865211 L 709.34706,8.7326469 c 16.83611,-0.116854 29.15498,13.6897451 28.37559,27.7679721 l 0.0316,454.170881 c 9.6e-4,13.95712 -17.00167,26.08859 -30.75388,26.08859 L 155.5549,516.59963 c -7.50944,-0.44864 -13.67766,-9.9394 -17.76686,-16.52331 z"
     id="path2865-4"
     style="fill:#ffffff;fill-opacity:1;stroke:none" />
  <path
     d="M 147.01228,490.83835 28.10412,281.84342 c -2.845738,-9.48231 -2.946765,-26.82519 -0.208499,-35.78814 L 142.46879,43.850649 c 8.52729,-15.841988 12.89264,-20.665292 21.62845,-23.897344 l 532.22643,-1.333313 c 16.18077,-0.112305 28.02013,13.15688 27.27109,26.687118 l 0.0304,436.4925 c 9.3e-4,13.41385 -16.33989,25.07311 -29.5568,25.07311 L 164.08762,506.7185 c -7.21713,-0.43117 -13.14526,-9.55251 -17.07529,-15.88015 z"
     id="path2865-4-9"
     style="fill:#0566ae;fill-opacity:1;stroke:none" />
  <g
     transform="translate(881.4225,0)"
     id="g3934">
    <rect
       width="268.98523"
       height="18.876425"
       x="-494.82495"
       y="349.04727"
       id="rect3814"
       style="color:#000000;fill:#ffffff;fill-opacity:1;fill-rule:nonzero;stroke:none;stroke-width:4;marker:none;visibility:visible;display:inline;overflow:visible;enable-background:accumulate" />
    <rect
       width="268.98523"
       height="260.22159"
       x="-494.82495"
       y="81.702141"
       id="rect3814-1"
       style="color:#000000;fill:#ffffff;fill-opacity:1;fill-rule:nonzero;stroke:none;stroke-width:4;marker:none;visibility:visible;display:inline;overflow:visible;enable-background:accumulate" />
    <rect
       width="123.3692"
       height="18.876404"
       x="-423.36523"
       y="384.103"
       id="rect3814-9"
       style="color:#000000;fill:#ffffff;fill-opacity:1;fill-rule:nonzero;stroke:none;stroke-width:4;marker:none;visibility:visible;display:inline;overflow:visible;enable-background:accumulate" />
    <path
       d="m -353.25376,378.03564 a 22.921045,22.921045 0 1 1 -45.84209,0 22.921045,22.921045 0 1 1 45.84209,0 z"
       transform="translate(16.179562,16.179562)"
       id="path3860"
       style="color:#000000;fill:#ffffff;fill-opacity:1;fill-rule:nonzero;stroke:none;stroke-width:4;marker:none;visibility:visible;display:inline;overflow:visible;enable-background:accumulate" />
    <path
       d="m -492.80249,373.31661 32.35912,0 0.0596,60.93391 c 0.0352,2.1677 -3.60515,4.16603 -5.78985,4.12141 l -19.88738,0 c -2.29678,-0.0373 -6.70955,-3.01213 -6.75346,-5.56173 l 0.012,-59.49359 z"
       id="path3862"
       style="fill:#ffffff;fill-opacity:1;stroke:none" />
    <path
       d="m -457.76541,373.31661 32.35912,0 0.0596,60.93391 c 0.0352,2.1677 -3.60515,4.16603 -5.78985,4.12141 l -19.88738,0 c -2.29678,-0.0373 -6.70955,-3.01213 -6.75346,-5.56173 l 0.012,-59.49359 z"
       id="path3862-3"
       style="fill:#ffffff;fill-opacity:1;stroke:none" />
    <path
       d="m -295.277,373.31661 32.35912,0 0.0596,60.93391 c 0.0352,2.1677 -3.60515,4.16603 -5.78985,4.12141 l -19.88738,0 c -2.29678,-0.0373 -6.70955,-3.01213 -6.75346,-5.56173 l 0.012,-59.49359 z"
       id="path3862-30"
       style="fill:#ffffff;fill-opacity:1;stroke:none" />
    <path
       d="m -260.23992,373.31661 32.35912,0 0.0596,60.93391 c 0.0352,2.1677 -3.60515,4.16603 -5.78985,4.12141 l -19.88738,0 c -2.29678,-0.0373 -6.70955,-3.01213 -6.75346,-5.56173 l 0.012,-59.49359 z"
       id="path3862-3-1"
       style="fill:#ffffff;fill-opacity:1;stroke:none" />
    <g
       transform="scale(0.93858289,1.065436)"
       id="text3911"
       style="font-size:128.88360596px;font-style:normal;font-weight:normal;text-align:center;text-anchor:middle;fill:#0066b3;fill-opacity:1;stroke:#0066b3;stroke-width:2.95076275;stroke-miterlimit:4;stroke-opacity:1;font-family:IPAPGothic;-inkscape-font-specification:IPAPGothic">
      <path
         d="m -414.50817,196.96679 -64.69353,0 0,-10.69835 c 5.07646,-11.83109 14.78887,-22.63431 29.13726,-32.40969 l 3.5871,-2.3914 c 7.34195,-5.03446 12.16669,-8.95719 14.47423,-11.76818 2.64306,-3.27237 3.96462,-6.88044 3.96468,-10.82421 -6e-5,-4.36317 -1.55237,-8.0971 -4.65693,-11.2018 -3.4403,-3.44016 -7.95038,-5.16029 -13.53026,-5.16037 -11.20183,8e-5 -18.54382,6.23029 -22.02601,18.69064 l -9.94316,-3.5871 c 4.78277,-16.36209 15.64892,-24.54317 32.59849,-24.54326 9.27184,9e-5 16.65579,2.7481 22.15187,8.24402 4.82467,4.95069 7.23704,10.92917 7.23711,17.93546 -7e-5,5.2024 -1.55238,9.92225 -4.65692,14.15958 -2.85296,4.11157 -9.4188,9.37683 -19.69755,15.79579 l -2.70605,1.63622 c -13.08977,8.09721 -21.5016,16.73978 -25.23551,25.92775 l 53.99518,0 z"
         id="path3930"
         style="fill:#0066b3;fill-opacity:1;stroke:#0066b3;stroke-opacity:1" />
      <path
         d="m -365.86216,103.07307 c 11.32761,9e-5 20.03312,5.24438 26.11656,15.73286 4.82467,8.30702 7.23704,19.04731 7.23711,32.2209 -7e-5,13.04782 -2.41244,23.80909 -7.23711,32.28383 -5.99953,10.36272 -14.85188,15.54407 -26.55708,15.54407 -11.66332,0 -20.49469,-5.18135 -26.49414,-15.54407 -4.82475,-8.47474 -7.23712,-19.27796 -7.23711,-32.40969 -10e-6,-18.29201 4.42616,-31.61249 13.27853,-39.96147 5.62185,-5.2442 12.58626,-7.86634 20.89324,-7.86643 z m -0.44052,9.31385 c -6.71272,9e-5 -11.99895,3.39838 -15.85872,10.1949 -3.94373,6.88057 -5.91558,16.38321 -5.91556,28.50794 -2e-5,11.87311 1.92988,21.2289 5.7897,28.06743 3.90172,6.7127 9.22991,10.06904 15.98458,10.06903 8.09713,10e-6 14.09659,-4.71984 17.9984,-14.15957 2.55915,-6.33507 3.83875,-14.55811 3.83882,-24.66913 -7e-5,-11.7891 -1.97192,-21.06099 -5.91556,-27.8157 -3.98571,-6.79652 -9.29292,-10.19481 -15.92166,-10.1949 z"
         id="path3932"
         style="fill:#0066b3;fill-opacity:1;stroke:#0066b3;stroke-opacity:1" />
    </g>
    <g
       id="text3915"
       style="font-size:114.89094543px;font-style:normal;font-weight:normal;text-align:center;text-anchor:middle;fill:#0066b3;fill-opacity:1;stroke:#0066b3;stroke-width:4.5956378;stroke-miterlimit:4;stroke-opacity:1;font-family:IPAGothic;-inkscape-font-specification:IPAGothic">
      <path
         d="m -284.10837,108.1361 8.75146,0 0,14.81017 13.51988,0 0,8.24656 -13.51988,0 0,34.78144 c -3e-5,2.61797 1.45854,3.92695 4.37573,3.92694 3.5529,1e-5 6.86274,-0.29918 9.92954,-0.89759 l 0,8.58316 c -4.52537,0.6358 -8.4149,0.95369 -11.66861,0.95369 -7.59211,0 -11.38814,-3.79603 -11.38812,-11.38812 l 0,-35.95952 -10.82713,0 0,-8.24656 10.82713,0 z"
         id="path3927"
         style="fill:#0066b3;fill-opacity:1;stroke:#0066b3;stroke-opacity:1" />
    </g>
    <g
       id="text3919"
       style="font-size:116.53705597px;font-style:normal;font-weight:normal;text-align:center;text-anchor:middle;fill:#0066b3;fill-opacity:1;stroke:#0066b3;stroke-opacity:1;font-family:'Rounded M+ 1m medium';-inkscape-font-specification:'Rounded M+ 1m medium'">
      <path
         d="m -356.37783,299.30939 0,-23.19147 c -6e-5,-1.78529 0.66025,-3.31929 1.98093,-4.60202 1.32056,-1.28264 2.87353,-1.92398 4.65892,-1.92403 l 33.91411,0 c 1.78522,5e-5 3.33879,0.64139 4.6607,1.92403 1.32169,1.28273 1.9826,2.81673 1.9827,4.60202 l 0,23.19147 c -10e-5,1.78771 -0.66101,3.34187 -1.9827,4.66248 -1.32191,1.32063 -2.87548,1.98094 -4.6607,1.98093 l -29.25163,0 -4.66248,0 c -1.78539,10e-6 -3.33836,-0.6603 -4.65892,-1.98093 -1.32068,-1.32061 -1.98099,-2.87477 -1.98093,-4.66248 z m 11.30233,-19.22961 0,15.03302 c -7e-5,0.62358 0.34964,0.93536 1.04915,0.93534 l 21.9076,0 c 0.69933,2e-5 1.04905,-0.31176 1.04914,-0.93534 l 0,-15.03302 c -9e-5,-0.62116 -0.34981,-0.93175 -1.04914,-0.93179 l -21.9076,0 c -0.69951,4e-5 -1.04922,0.31063 -1.04915,0.93179 z m -52.09101,28.78573 c -0.85593,4.3507 -1.7889,8.3908 -2.79891,12.12031 -0.38885,1.4771 -1.28211,2.56477 -2.67977,3.26302 -1.39769,0.69824 -2.83448,0.77589 -4.31039,0.23295 -1.47593,-0.54296 -2.5636,-1.55298 -3.26303,-3.03008 -0.69943,-1.4771 -0.85473,-3.03126 -0.46589,-4.66248 3.18418,-11.57497 5.24217,-24.23822 6.17396,-37.98977 0.15647,-1.55293 0.79782,-2.7959 1.92403,-3.72891 1.12619,-0.93293 2.42784,-1.36029 3.90496,-1.2821 1.55295,0.15416 2.85401,0.79491 3.90318,1.92225 1.04912,1.12743 1.53458,2.46761 1.45636,4.02055 -0.23238,4.27249 -0.65915,8.8176 -1.28032,13.63534 -0.0783,0.62122 0.0379,1.20329 0.34853,1.74621 2.02003,3.72953 4.11714,6.64342 6.29133,8.7417 0.15645,0.1565 0.31234,0.17606 0.46767,0.0587 0.15526,-0.11735 0.23291,-0.25308 0.23294,-0.40721 l 0,-35.89503 c -3e-5,-0.69938 -0.31062,-1.0491 -0.93178,-1.04915 l -17.13132,0 c -1.47711,5e-5 -2.72068,-0.4854 -3.73069,-1.45636 -1.01004,-0.97085 -1.51505,-2.19426 -1.51504,-3.67023 -10e-6,-1.47586 0.505,-2.73839 1.51504,-3.7876 1.01001,-1.04908 2.25358,-1.57366 3.73069,-1.57372 l 15.26775,0 c 0.69703,6e-5 1.04556,-0.31053 1.04559,-0.93178 l 0,-12.00295 c -3e-5,-0.69935 -0.34856,-1.04907 -1.04559,-1.04914 l -12.4724,0 c -1.3965,7e-5 -2.59976,-0.48538 -3.60977,-1.45636 -1.01004,-0.97083 -1.51505,-2.15571 -1.51504,-3.55465 -10e-6,-1.39878 0.505,-2.60323 1.51504,-3.61333 1.01001,-1.00995 2.21327,-1.51496 3.60977,-1.51504 l 12.4724,0 c 0.69703,8e-5 1.04556,-0.34963 1.04559,-1.04915 l 0,-4.42775 c -3e-5,-1.70937 0.60219,-3.16632 1.80666,-4.37085 1.20442,-1.20435 2.66137,-1.80657 4.37086,-1.80667 1.70942,1e-4 3.14681,0.60232 4.31217,1.80667 1.16528,1.20453 1.74794,2.66148 1.74798,4.37085 l 0,4.42775 c -4e-5,0.69952 0.31056,1.04923 0.93178,1.04915 l 10.02202,0 c 1.39881,8e-5 2.60325,0.50509 3.61333,1.51504 1.00997,1.0101 1.51499,2.21455 1.51504,3.61333 -5e-5,1.39894 -0.50507,2.58382 -1.51504,3.55465 -1.01008,0.97098 -2.21452,1.45643 -3.61333,1.45636 l -10.02202,0 c -0.62122,7e-5 -0.93182,0.34979 -0.93178,1.04914 l 0,12.00295 c -4e-5,0.62125 0.31056,0.93184 0.93178,0.93178 l 13.98388,0 c 0.62351,6e-5 1.16823,0.23301 1.63418,0.69884 0.46584,0.46595 0.69878,1.01068 0.69884,1.63418 -6e-5,0.0759 0.0385,0.13342 0.11558,0.17249 0.077,0.0392 0.15465,0.0196 0.23295,-0.0587 8.54722,-3.72945 13.98618,-10.60521 16.31689,-20.62729 0.15404,-0.62111 -0.11862,-0.9317 -0.81797,-0.93178 l -9.3214,0 c -1.39893,8e-5 -2.60337,-0.50494 -3.61334,-1.51504 -1.01008,-1.00995 -1.51509,-2.2138 -1.51503,-3.61156 -6e-5,-1.39759 0.50495,-2.60144 1.51503,-3.61155 1.00997,-1.00994 2.21441,-1.51495 3.61334,-1.51504 l 39.85334,0 c 1.78759,9e-5 3.32219,0.64084 4.60379,1.92225 1.28139,1.28159 1.92214,2.81619 1.92225,4.6038 -0.15422,8.93382 -0.60055,15.55648 -1.33899,19.86799 -0.73866,4.31163 -1.90398,7.2445 -3.49597,8.7986 -1.5922,1.55421 -4.01946,2.33129 -7.28179,2.33124 -3.88608,5e-5 -7.1497,-0.0782 -9.79085,-0.23472 -1.39895,-0.0758 -2.58383,-0.5998 -3.55465,-1.57194 -0.97099,-0.97204 -1.53349,-2.15633 -1.68752,-3.55288 -0.0783,-1.24469 0.30992,-2.31339 1.16473,-3.20612 0.85464,-0.8926 1.94231,-1.301 3.26302,-1.22519 3.41645,0.15655 5.39738,0.23479 5.94279,0.23473 1.86348,6e-5 3.16454,-1.04909 3.90318,-3.14744 0.73846,-2.09823 1.14685,-6.60422 1.22519,-13.51799 -1e-4,-0.69935 -0.31069,-1.04906 -0.93178,-1.04914 l -11.30589,0 c -0.69951,8e-5 -1.08835,0.27273 -1.16651,0.81797 -2.02013,12.4286 -7.84674,21.55676 -17.47984,27.38451 -1.63129,0.93183 -3.32118,1.12625 -5.06969,0.58325 -1.74864,-0.5429 -3.12794,-1.6691 -4.13791,-3.37861 l -0.81442,-1.28387 c -0.0783,-0.0782 -0.15595,-0.0977 -0.23295,-0.0587 -0.0771,0.0392 -0.11564,0.0979 -0.11558,0.17604 -6e-5,1.47716 -0.52463,2.73969 -1.57372,3.7876 -1.0492,1.04801 -2.35026,1.57199 -3.90318,1.57194 l -8.97287,0 c -0.69947,5e-5 -1.04919,0.34977 -1.04915,1.04915 l 0,13.16945 c -4e-5,0.62123 0.34968,0.93182 1.04915,0.93179 l 8.73815,0 c 1.3988,3e-5 2.58369,0.50505 3.55465,1.51504 0.97084,1.01005 1.4563,2.2145 1.45635,3.61333 -5e-5,1.39889 -0.48551,2.60333 -1.45635,3.61333 -0.97096,1.01005 -2.15585,1.51506 -3.55465,1.51504 l -8.73815,0 c -0.69947,2e-5 -1.04919,0.31062 -1.04915,0.93178 l 0,17.24868 c -4e-5,0.69707 0.31056,1.12384 0.93179,1.28032 7.07013,1.94181 18.60717,2.91271 34.61116,2.91271 l 28.20248,0 c 1.39876,0 2.6032,0.54414 3.61333,1.6324 1.00992,1.08827 1.47581,2.33183 1.39768,3.7307 -0.0784,1.47472 -0.66161,2.69754 -1.74976,3.66845 -1.08838,0.9709 -2.36988,1.45635 -3.8445,1.45636 l -27.61923,0 c -16.39282,-1e-5 -28.72651,-1.12621 -37.00108,-3.37861 -8.27466,-2.25241 -14.89791,-6.48692 -19.86977,-12.70356 -0.0783,-0.15411 -0.21459,-0.2116 -0.40899,-0.17249 -0.19444,0.0391 -0.32958,0.13575 -0.40543,0.28985 z"
         id="path3924"
         style="fill:#0066b3;fill-opacity:1;stroke:#0066b3;stroke-opacity:1" />
    </g>
  </g>
  <path
     d="m 180.1009,60.03363 89.46188,0 -120.06726,209.52915 115.96388,200.85534 -90.06702,0 L 56.679208,264.80088 180.1009,60.03363 z"
     id="path3753"
     style="fill:#ffffff;stroke:none" />
</svg>
