<?xml version="1.0" encoding="UTF-8" standalone="no"?>
<!-- Created with Inkscape (http://www.inkscape.org/) -->
<svg
   xmlns:dc="http://purl.org/dc/elements/1.1/"
   xmlns:cc="http://creativecommons.org/ns#"
   xmlns:rdf="http://www.w3.org/1999/02/22-rdf-syntax-ns#"
   xmlns:svg="http://www.w3.org/2000/svg"
   xmlns="http://www.w3.org/2000/svg"
   xmlns:sodipodi="http://sodipodi.sourceforge.net/DTD/sodipodi-0.dtd"
   xmlns:inkscape="http://www.inkscape.org/namespaces/inkscape"
   width="420"
   height="360"
   id="svg4203"
   sodipodi:version="0.32"
   inkscape:version="0.46"
   version="1.0"
   sodipodi:docbase="D:\Documents and Settings\Administrator\デスクトップ\看板\sign\西日本\svg"
   sodipodi:docname="Japanese Road sign (Direction and Lane A).svg"
   inkscape:output_extension="org.inkscape.output.svg.inkscape">
  <defs
     id="defs4205">
    <inkscape:perspective
       sodipodi:type="inkscape:persp3d"
       inkscape:vp_x="0 : 315 : 1"
       inkscape:vp_y="0 : 1000 : 0"
       inkscape:vp_z="1500 : 315 : 1"
       inkscape:persp3d-origin="750 : 210 : 1"
       id="perspective9" />
    <inkscape:perspective
       id="perspective3163"
       inkscape:persp3d-origin="372.04724 : 350.78739 : 1"
       inkscape:vp_z="744.09448 : 526.18109 : 1"
       inkscape:vp_y="0 : 1000 : 0"
       inkscape:vp_x="0 : 526.18109 : 1"
       sodipodi:type="inkscape:persp3d" />
    <inkscape:perspective
       id="perspective2395"
       inkscape:persp3d-origin="372.04724 : 350.78739 : 1"
       inkscape:vp_z="744.09448 : 526.18109 : 1"
       inkscape:vp_y="0 : 1000 : 0"
       inkscape:vp_x="0 : 526.18109 : 1"
       sodipodi:type="inkscape:persp3d" />
  </defs>
  <sodipodi:namedview
     id="base"
     pagecolor="#ffffff"
     bordercolor="#666666"
     borderopacity="1.0"
     gridtolerance="10000"
     guidetolerance="10"
     objecttolerance="10"
     inkscape:pageopacity="0.0"
     inkscape:pageshadow="2"
     inkscape:zoom="1.4111111"
     inkscape:cx="210"
     inkscape:cy="180"
     inkscape:document-units="px"
     inkscape:current-layer="layer1"
     width="1500px"
     height="630px"
     inkscape:window-width="1024"
     inkscape:window-height="712"
     inkscape:window-x="-4"
     inkscape:window-y="-4"
     showgrid="false" />
  <metadata
     id="metadata4208">
    <rdf:RDF>
      <cc:Work
         rdf:about="">
        <dc:format>image/svg+xml</dc:format>
        <dc:type
           rdf:resource="http://purl.org/dc/dcmitype/StillImage" />
      </cc:Work>
    </rdf:RDF>
  </metadata>
  <g
     inkscape:label="sign"
     inkscape:groupmode="layer"
     id="layer1">
    <rect
       style="fill:#005d35;fill-opacity:1;stroke:none;stroke-width:1;stroke-linecap:butt;stroke-linejoin:round;stroke-miterlimit:4;stroke-dasharray:none;stroke-opacity:1"
       id="rect_bg"
       width="420"
       height="360"
       x="0"
       y="0" />
    <path
       style="font-size:144px;font-style:normal;font-variant:normal;font-weight:normal;font-stretch:normal;text-align:start;line-height:125%;writing-mode:lr-tb;text-anchor:start;fill:#ffffff;fill-opacity:1;stroke:none;stroke-width:1px;stroke-linecap:butt;stroke-linejoin:miter;stroke-opacity:1;font-family:GD-HighwayGothicJA-OTF;-inkscape-font-specification:GD-HighwayGothicJA-OTF"
       d="M 224.25222,230.10976 L 190.84465,230.10976 L 190.84465,266.54129 L 137.70933,266.54129 L 207.54844,327.7405 L 277.38754,266.54129 L 224.25222,266.54129 L 224.25222,230.10976 z"
       id="text2401" />
    <path
       style="font-size:85px;font-style:normal;font-variant:normal;font-weight:normal;font-stretch:normal;text-align:start;line-height:125%;writing-mode:lr-tb;text-anchor:start;fill:#ffffff;fill-opacity:1;stroke:none;stroke-width:1px;stroke-linecap:butt;stroke-linejoin:miter;stroke-opacity:1;font-family:GD-HighwayGothicJA-OTF;-inkscape-font-specification:GD-HighwayGothicJA-OTF"
       d="M 91.877191,131.02831 L 95.192151,138.16822 C 99.194431,136.17756 103.58079,133.10396 108.35123,128.94741 C 113.12164,124.79087 117.72207,119.76544 122.15254,113.87112 C 126.58294,107.97684 130.28931,101.42773 133.27165,94.223785 C 136.25549,101.42773 139.95871,107.97684 144.38133,113.87112 C 148.80383,119.76544 153.38223,124.79087 158.11652,128.94741 C 162.85068,133.10396 167.17722,136.17756 171.09617,138.16822 L 174.75112,131.02831 C 170.7776,129.0513 166.36186,125.8182 161.50388,121.32899 C 156.64576,116.8398 152.06632,111.39673 147.76554,104.99975 C 143.46465,98.602833 140.16334,91.554228 137.8616,83.853919 L 172.62615,83.853919 L 172.62615,76.289016 L 137.2666,76.289016 L 137.2666,56.909266 L 129.27671,56.909266 L 129.27671,76.289016 L 94.002161,76.289016 L 94.002161,83.853919 L 128.76671,83.853919 C 126.4334,91.554229 123.10061,98.602836 118.76832,104.99976 C 114.43598,111.39673 109.84394,116.83981 104.9922,121.32899 C 100.14044,125.8182 95.768771,129.0513 91.877191,131.02831 L 91.877191,131.02831 z"
       id="path3194" />
    <path
       id="path3192"
       style="font-size:85px;font-style:normal;font-variant:normal;font-weight:normal;font-stretch:normal;text-align:start;line-height:125%;writing-mode:lr-tb;text-anchor:start;fill:#ffffff;fill-opacity:1;stroke:none;stroke-width:1px;stroke-linecap:butt;stroke-linejoin:miter;stroke-opacity:1;font-family:GD-HighwayGothicJA-OTF;-inkscape-font-specification:GD-HighwayGothicJA-OTF"
       d="M 243.67954,60.734216 L 243.67954,138.93321 L 251.32945,138.93321 L 251.32945,129.15834 L 263.65429,129.15834 C 266.01829,129.13177 267.87764,128.44116 269.23234,127.08649 C 270.58698,125.73182 271.27759,123.87247 271.30419,121.50843 L 271.30419,121.08344 C 271.25635,115.85956 270.14074,110.92255 267.95736,106.27238 C 265.77392,101.62226 262.80959,97.74773 259.06435,94.64878 C 262.84678,91.004492 265.82173,86.499555 267.98923,81.133954 C 270.15667,75.768451 271.26166,69.988532 271.30419,63.794177 L 271.30419,60.734216 L 243.67954,60.734216 z M 251.32945,68.384118 L 263.39929,68.384118 C 262.76886,73.255674 261.39471,77.686237 259.27684,81.67582 C 257.15894,85.6655 254.50981,88.799832 251.32945,91.078826 L 251.32945,68.384118 z M 263.65429,121.50843 L 251.32945,121.50843 L 251.32945,98.643728 C 254.96668,100.66779 257.9133,103.71713 260.16933,107.79174 C 262.42532,111.86639 263.58697,116.29695 263.65429,121.08344 L 263.65429,121.50843 z M 281.75905,131.28331 L 285.32901,138.08322 C 288.84933,136.25397 292.0297,134.32378 294.87013,132.29267 C 297.71046,130.26155 300.25334,128.14012 302.49879,125.92838 C 304.96192,128.34731 307.68542,130.56436 310.66931,132.57954 C 313.65305,134.59472 316.9078,136.42928 320.43356,138.08322 L 323.83351,131.11331 C 320.60701,129.58687 317.64622,127.92231 314.95112,126.11962 C 312.25588,124.31695 309.80508,122.35489 307.59872,120.23345 C 311.48204,115.12114 314.38262,109.49351 316.30048,103.35054 C 318.21819,97.207633 319.56755,90.36877 320.34856,82.833932 L 284.47902,82.833932 L 284.47902,68.384118 L 322.72853,68.384118 L 322.72853,60.734216 L 276.82912,60.734216 L 276.82912,112.66855 C 276.82554,116.90611 275.98263,120.6496 274.3004,123.89903 C 272.6181,127.14847 270.11772,129.97822 266.79925,132.38829 L 271.04919,138.59321 C 279.9882,132.37412 284.46481,123.73258 284.47902,112.66855 L 284.47902,90.483833 L 284.56402,90.483833 C 285.66365,96.428478 287.268,101.87903 289.37708,106.8355 C 291.48607,111.79201 294.13165,116.28633 297.31385,120.31845 C 295.32164,122.31593 293.03729,124.2284 290.46081,126.05587 C 287.88424,127.88335 284.98365,129.62583 281.75905,131.28331 L 281.75905,131.28331 z M 311.67867,90.483833 C 310.89944,95.027768 309.78029,99.284792 308.32121,103.25492 C 306.862,107.2251 304.89286,110.92963 302.41379,114.36853 C 299.95584,111.10494 297.9017,107.49603 296.25137,103.54179 C 294.60092,99.587599 293.31177,95.234951 292.38392,90.483833 L 311.67867,90.483833 z" />
    <path
       style="font-size:50px;font-style:normal;font-variant:normal;font-weight:normal;font-stretch:normal;text-align:start;line-height:125%;writing-mode:lr-tb;text-anchor:start;fill:#ffffff;fill-opacity:1;stroke:none;stroke-width:1px;stroke-linecap:butt;stroke-linejoin:miter;stroke-opacity:1;font-family:GD-HighwayGothicJA-OTF;-inkscape-font-specification:GD-HighwayGothicJA-OTF"
       d="M 136.7381,146.2632 C 141.00222,146.32837 144.74599,147.49255 147.96944,149.75575 C 151.19282,152.01903 153.71068,154.99059 155.52305,158.67045 C 157.33532,162.35037 158.25692,166.34784 158.28783,170.66289 C 158.25692,174.94525 157.33533,178.91927 155.52305,182.58496 C 153.71068,186.25065 151.19282,189.21358 147.96944,191.47373 C 144.74599,193.73388 141.00222,194.89683 136.7381,194.96257 C 132.4582,194.89683 128.70702,193.73388 125.48454,191.47373 C 122.26205,189.21357 119.74788,186.25065 117.94205,182.58496 C 116.1362,178.91927 115.21831,174.94525 115.18838,170.66289 C 115.21832,166.34784 116.1362,162.35037 117.94205,158.67045 C 119.74788,154.99059 122.26205,152.01903 125.48454,149.75575 C 128.70702,147.49255 132.4582,146.32837 136.7381,146.2632 L 136.7381,146.2632 z M 136.7381,152.61312 C 132.93292,152.68086 129.81838,154.32042 127.39447,157.53181 C 124.97053,160.74325 123.71847,165.12028 123.63827,170.66289 C 123.71847,176.1795 124.97053,180.5336 127.39448,183.72522 C 129.81838,186.91685 132.93292,188.54599 136.7381,188.61266 C 140.51928,188.54599 143.61923,186.91685 146.03798,183.72522 C 148.45667,180.5336 149.70665,176.1795 149.78794,170.66289 C 149.70665,165.12027 148.45667,160.74325 146.03798,157.53181 C 143.61923,154.32042 140.51928,152.68086 136.7381,152.61312 L 136.7381,152.61312 z M 165.38369,170.66289 C 165.46494,167.61087 166.71492,165.15257 169.13365,163.28798 C 171.55236,161.42345 174.65231,160.46513 178.43353,160.41302 C 182.25325,160.42867 185.42612,161.37241 187.95215,163.24423 C 190.47813,165.11611 191.78853,167.82232 191.88335,171.36288 L 184.43345,171.36288 C 184.44905,169.88063 183.98031,168.58273 183.02722,167.46918 C 182.07408,166.35567 180.54285,165.77027 178.43353,165.71295 C 176.64499,165.73381 175.2596,166.12964 174.27733,166.90044 C 173.29504,167.67128 172.79713,168.6921 172.7836,169.9629 C 172.75338,170.82645 172.98879,171.54935 173.48984,172.13162 C 173.99086,172.71392 174.93877,173.22433 176.33355,173.66285 C 177.6429,174.05557 178.92413,174.42015 180.17725,174.75658 C 181.43034,175.09305 183.19907,175.59513 185.48344,176.26282 C 187.89379,176.9649 189.73544,178.02322 191.00836,179.43777 C 192.28123,180.85235 192.92289,182.61066 192.93334,184.71271 C 192.87498,187.61163 191.57916,190.02618 189.04589,191.95636 C 186.51256,193.88654 183.09178,194.88861 178.78352,194.96257 C 174.67419,194.9282 171.35548,193.94696 168.8274,192.01886 C 166.2993,190.09076 164.91807,187.42205 164.6837,184.01272 L 172.08361,184.01272 C 172.05339,185.64812 172.5513,186.98976 173.57734,188.03766 C 174.60336,189.08557 176.33875,189.62723 178.78352,189.66264 C 181.22826,189.59702 182.96366,189.11578 183.9897,188.21891 C 185.01571,187.32205 185.51362,186.40331 185.48344,185.4627 C 185.52508,184.72834 185.31675,184.0346 184.85844,183.38147 C 184.40009,182.72836 183.44177,182.17212 181.98348,181.71275 C 180.46473,181.28984 178.86475,180.84818 177.18354,180.38776 C 175.5023,179.92736 173.85232,179.4357 172.23361,178.91278 C 170.48258,178.45967 168.92218,177.54093 167.55242,176.15657 C 166.18264,174.77222 165.45973,172.941 165.38369,170.66289 L 165.38369,170.66289 z M 229.27003,193.91259 C 228.50889,193.91258 227.4978,193.91258 226.23673,193.91259 C 224.97561,193.91258 223.83118,193.91258 222.80344,193.91259 C 221.77565,193.91258 221.23122,193.91258 221.17013,193.91259 L 220.12014,189.66264 C 218.92639,191.52408 217.28891,192.87614 215.20771,193.71884 C 213.12647,194.56153 210.864,194.97611 208.4203,194.96257 C 205.53803,194.94174 203.19015,194.10842 201.37664,192.46261 C 199.56311,190.81679 198.62771,188.48349 198.57042,185.4627 C 198.62667,182.47628 199.73915,180.18673 201.90788,178.59403 C 204.07659,177.00136 206.96405,175.87429 210.57027,175.21283 C 214.0525,174.57119 216.52538,173.92953 217.98892,173.28785 C 219.45242,172.64621 220.16283,171.65456 220.12014,170.31289 C 220.17741,169.33376 219.78783,168.34211 218.95141,167.33793 C 218.11494,166.3338 216.48788,165.79214 214.07022,165.71295 C 211.4942,165.76297 209.75881,166.36297 208.86404,167.51293 C 207.96925,168.66293 207.47134,170.06292 207.37031,171.71287 L 199.9704,171.71287 C 200.2704,168.00461 201.78288,165.19632 204.50785,163.28798 C 207.2328,161.3797 210.42026,160.42138 214.07022,160.41302 C 217.73682,160.42555 220.86594,161.27554 223.4576,162.96299 C 226.0492,164.65049 227.40335,167.10046 227.52005,170.31289 C 227.52002,171.79746 227.52002,173.69496 227.52005,176.00541 C 227.52002,178.31589 227.52002,180.5319 227.52005,182.65347 C 227.52002,184.77506 227.52002,186.29479 227.52005,187.21267 C 227.50543,188.36683 227.6221,189.50848 227.87005,190.63763 C 228.11793,191.76678 228.58459,192.85843 229.27003,193.91259 L 229.27003,193.91259 z M 211.62025,189.66264 C 214.14,189.59806 216.17538,188.85224 217.72643,187.42517 C 219.27742,185.99811 220.07533,184.2773 220.12014,182.26274 L 220.12014,176.41281 C 219.60867,177.01907 218.8191,177.54406 217.75142,177.98779 C 216.68371,178.43155 215.10665,178.90654 213.02024,179.41277 C 211.0567,179.93257 209.45881,180.61798 208.22655,181.469 C 206.99426,182.32004 206.35885,183.51794 206.32032,185.0627 C 206.2974,186.65435 206.69322,187.821 207.50781,188.56266 C 208.32237,189.30431 209.69318,189.67098 211.62025,189.66264 L 211.62025,189.66264 z M 257.90528,193.91259 L 247.85541,179.41277 L 243.40547,184.01272 L 243.40547,193.91259 L 236.00556,193.91259 L 236.00556,147.31319 L 243.40547,147.31319 L 243.40547,176.06282 L 256.85529,161.46301 L 265.65518,161.46301 L 252.40535,174.86283 L 267.10516,193.91259 L 257.90528,193.91259 z M 302.41456,193.91259 C 301.65342,193.91258 300.64233,193.91258 299.38126,193.91259 C 298.12014,193.91258 296.97571,193.91258 295.94797,193.91259 C 294.92018,193.91258 294.37575,193.91258 294.31466,193.91259 L 293.26468,189.66264 C 292.07092,191.52408 290.43344,192.87614 288.35224,193.71884 C 286.271,194.56153 284.00853,194.97611 281.56483,194.96257 C 278.68256,194.94174 276.33468,194.10842 274.52117,192.46261 C 272.70764,190.81679 271.77224,188.48349 271.71495,185.4627 C 271.7712,182.47628 272.88369,180.18673 275.05241,178.59403 C 277.22112,177.00136 280.10858,175.87429 283.7148,175.21283 C 287.19703,174.57119 289.66991,173.92953 291.13345,173.28785 C 292.59695,172.64621 293.30736,171.65456 293.26468,170.31289 C 293.32194,169.33376 292.93236,168.34211 292.09594,167.33793 C 291.25947,166.3338 289.63241,165.79214 287.21475,165.71295 C 284.63873,165.76297 282.90334,166.36297 282.00857,167.51293 C 281.11378,168.66293 280.61587,170.06292 280.51484,171.71287 L 273.11494,171.71287 C 273.41493,168.00461 274.92741,165.19632 277.65238,163.28798 C 280.37733,161.3797 283.56479,160.42138 287.21475,160.41302 C 290.88135,160.42555 294.01047,161.27554 296.60213,162.96299 C 299.19374,164.65049 300.54788,167.10046 300.66458,170.31289 C 300.66455,171.79746 300.66455,173.69496 300.66458,176.00541 C 300.66455,178.31589 300.66455,180.5319 300.66458,182.65347 C 300.66455,184.77506 300.66455,186.29479 300.66458,187.21267 C 300.64997,188.36683 300.76663,189.50848 301.01458,190.63763 C 301.26246,191.76678 301.72912,192.85843 302.41456,193.91259 L 302.41456,193.91259 z M 284.76479,189.66264 C 287.28453,189.59806 289.31991,188.85224 290.87096,187.42517 C 292.42195,185.99811 293.21986,184.2773 293.26468,182.26274 L 293.26468,176.41281 C 292.7532,177.01907 291.96363,177.54406 290.89596,177.98779 C 289.82824,178.43155 288.25118,178.90654 286.16477,179.41277 C 284.20124,179.93257 282.60334,180.61798 281.37108,181.469 C 280.13879,182.32004 279.50338,183.51794 279.46485,185.0627 C 279.44193,186.65435 279.83776,187.821 280.65234,188.56266 C 281.4669,189.30431 282.83771,189.67098 284.76479,189.66264 L 284.76479,189.66264 z"
       id="text3179" />
  </g>
</svg>
