<?xml version="1.0" encoding="UTF-8" standalone="no"?>
<!-- Created with Inkscape (http://www.inkscape.org/) -->

<svg
   xmlns:svg="http://www.w3.org/2000/svg"
   xmlns="http://www.w3.org/2000/svg"
   version="1.1"
   width="1800"
   height="300"
   id="svg5338">
  <defs
     id="defs5340" />
  <g
     transform="translate(0,-772.36217)"
     id="layer1">
    <rect
       width="1800"
       height="300"
       rx="50"
       ry="50"
       x="0"
       y="0"
       transform="translate(0,772.36217)"
       id="rect5348"
       style="color:#000000;fill:#000000;fill-opacity:1;stroke:none;stroke-width:99;marker:none;visibility:visible;display:inline;overflow:visible;enable-background:accumulate" />
    <rect
       width="1770"
       height="270"
       rx="50"
       ry="50"
       x="15"
       y="15"
       transform="translate(0,772.36217)"
       id="rect5860"
       style="color:#000000;fill:#ffffff;fill-opacity:1;fill-rule:nonzero;stroke:none;stroke-width:99;marker:none;visibility:visible;display:inline;overflow:visible;enable-background:accumulate" />
    <g
       id="text2814"
       style="font-size:250px;font-style:normal;font-weight:normal;text-align:center;text-anchor:middle;fill:#000000;fill-opacity:1;stroke:none">
      <path
         d="m 307.24182,1009.3613 c -28.16271,9.8318 -53.57874,17.6646 -76.24817,23.4986 -3.00091,0.8341 -5.792,0.4183 -8.37326,-1.2474 -2.58129,-1.6658 -4.1237,-3.9991 -4.62723,-7 l 0,-1.2512 c -0.49846,-2.8331 0.003,-5.4169 1.50299,-7.7515 1.50044,-2.3346 3.58326,-3.835 6.24848,-4.5013 1.00197,-0.3306 1.50297,-0.913 1.50299,-1.7472 l 0,-85.25083 c -2e-5,-3.33141 1.12404,-6.12249 3.37219,-8.37326 2.2481,-2.25057 5.03919,-3.3759 8.37326,-3.376 3.33401,10e-5 6.16833,1.16612 8.50296,3.49807 2.33456,2.33215 3.50185,5.08254 3.50189,8.25119 l 0,78.00293 c -4e-5,1.3326 0.66626,1.8311 1.99891,1.4954 l 7.49969,-2.2507 c 1.50039,-0.6663 2.25062,-1.58182 2.25067,-2.74659 l 0,-97.25189 c -5e-5,-1.50033 -0.66635,-2.25056 -1.9989,-2.25067 l -11.7569,0 -11.49749,0 c -3.83507,1.1e-4 -7.12715,-1.37445 -9.87625,-4.12369 -2.74915,-2.749 -4.12371,-6.04108 -4.12369,-9.87625 l 0,-54.245 c -2e-5,-3.83485 1.37454,-7.16889 4.12369,-10.00213 2.7491,-2.83286 6.04118,-4.24938 9.87625,-4.24958 l 63.00354,0 c 3.82986,2e-4 7.16135,1.41672 9.9945,4.24958 2.83295,2.83324 4.24947,6.16728 4.24958,10.00213 l 0,30.49469 c -1.1e-4,0.33585 0.12577,0.58635 0.37765,0.7515 0.25166,0.16545 0.54285,0.0828 0.87357,-0.24796 11.00146,-12.66971 20.6679,-27.08671 28.99933,-43.25103 1.66815,-3.33131 4.08539,-5.8312 7.25173,-7.4997 3.16606,-1.66809 6.58275,-2.16909 10.2501,-1.50299 3.16858,0.6665 5.50317,2.37549 7.00378,5.12695 1.50028,2.75187 1.66559,5.54422 0.49591,8.37708 -0.99707,2.66539 -1.57944,4.08191 -1.74713,4.24957 -0.49861,1.16494 -0.16546,1.74732 0.99945,1.74713 l 59.74579,0 c 2.83791,1.9e-4 5.33908,1.08356 7.50351,3.25012 2.16397,2.16693 3.24607,4.66683 3.24631,7.4997 -2.4e-4,6.99886 -1.91521,13.58303 -5.74494,19.7525 -9.50135,14.50108 -20.41901,27.41763 -32.75299,38.7497 -0.9971,1.00211 -0.91318,1.83625 0.25177,2.50244 11.00138,7.83295 24.00186,14.99949 39.00147,21.49963 3.16342,1.33269 5.57939,3.58209 7.24792,6.7482 1.66805,3.16628 2.16905,6.41513 1.50299,9.74655 -0.50378,3.00097 -2.08815,5.25164 -4.75311,6.75202 -2.66544,1.50051 -5.41456,1.66836 -8.24738,0.50354 -1.00222,-0.33563 -1.50321,-0.002 -1.50299,0.99945 l 0,73.9975 c -2.2e-4,3.6672 -1.29213,6.7927 -3.87573,9.3765 -2.58404,2.5838 -5.70955,3.8757 -9.37653,3.8758 l -2.25067,0 c -2.99601,-10e-5 -5.5366,-1.0834 -7.62176,-3.2502 -2.08557,-2.1667 -3.12825,-4.7506 -3.12805,-7.7514 -2e-4,-1.002 -0.58258,-1.503 -1.74714,-1.503 l -54.74853,0 c -1.1649,0 -1.74727,0.501 -1.74713,1.503 -1.4e-4,3.0008 -1.04283,5.5847 -3.12805,7.7514 -2.08551,2.1668 -4.62609,3.2501 -7.62177,3.2502 l -2.00653,0 c -3.49947,-10e-5 -6.4991,-1.292 -8.99887,-3.8758 -2.50002,-2.5838 -3.74996,-5.6254 -3.74985,-9.1247 l 0,-75.00461 c -1.1e-4,-1.16469 -0.66641,-1.57922 -1.9989,-1.24359 -0.33072,0.16283 -0.87114,0.37009 -1.62125,0.62179 -0.75033,0.25184 -1.29329,0.45911 -1.62887,0.6218 -2.16686,0.83421 -4.3336,0.66764 -6.50025,-0.49973 -2.16685,-1.16723 -3.49945,-2.91563 -3.9978,-5.24521 -0.33579,-1.00192 -0.92071,-1.50291 -1.75476,-1.50299 l -17.25006,0 c -1.49544,8e-5 -2.24312,0.7503 -2.24304,2.25067 l 0,49.00361 c -8e-5,1.33262 0.66622,1.83107 1.9989,1.49536 4.33341,-1.33258 9.16535,-2.99833 14.49585,-4.99726 2.67019,-1.00196 5.25528,-0.71077 7.75528,0.87357 2.49979,1.58439 3.91504,3.7931 4.24576,6.62613 0.33558,3.33152 -0.28876,6.37306 -1.87302,9.12476 -1.58448,2.7517 -3.96103,4.7099 -7.12967,5.8746 z m 101.2497,-11.00156 0,-35.75134 c -2e-4,-1.33255 -0.74788,-1.99885 -2.24305,-1.9989 l -53.75671,0 c -1.4955,5e-5 -2.24318,0.66635 -2.24304,1.9989 l 0,35.75134 c -1.4e-4,1.50046 0.74754,2.25066 2.24304,2.25066 l 53.75671,0 c 1.49517,0 2.24285,-0.7502 2.24305,-2.25066 z m 10.74981,-60.24933 c -12.83284,-6.33231 -24.91524,-13.832 -36.24725,-22.49908 -1.16493,-0.83405 -2.33223,-0.83405 -3.50189,0 -12.1665,8.33139 -25.66543,15.915 -40.49683,22.75085 -0.16798,0.33068 -0.16798,0.57991 0,0.74768 l 80.00183,0 c 0.3304,8e-5 0.4957,-0.12454 0.49591,-0.37384 -2.1e-4,-0.24915 -0.0841,-0.45769 -0.25177,-0.62561 z m -11.74926,-87.50152 -50.49897,0 c -0.83429,1.6e-4 -1.50059,0.33331 -1.9989,0.99945 -0.4986,0.66646 -0.4986,1.33276 0,1.9989 7.66484,11.00173 15.91476,20.75209 24.74976,29.2511 1.00182,1.00212 2.00127,1.00212 2.99835,0 9.83665,-9.33316 18.41971,-19.49804 25.74921,-30.49469 0.33549,-0.33553 0.37872,-0.71192 0.1297,-1.12915 -0.24943,-0.41691 -0.62582,-0.62545 -1.12915,-0.62561 z m -91.49933,31.50177 c -0.16287,-0.16772 -0.4121,-0.16772 -0.74768,0 -0.3358,0.16797 -0.50365,0.33582 -0.50354,0.50354 l 0,2.49481 c -1.1e-4,3.83517 -1.41663,7.12725 -4.24958,9.87625 -2.83315,2.74924 -6.16464,4.1238 -9.9945,4.12369 l -10.50568,0 c -1.49544,1.1e-4 -2.24312,0.75034 -2.24304,2.25067 l 0,13.25226 c -8e-5,1.3327 0.7476,1.999 2.24304,1.9989 l 16.75415,0 c 1.66819,10e-5 3.08472,0.58374 4.24957,1.75094 1.16465,1.1674 1.74703,2.66657 1.74713,4.49753 -1e-4,0.83424 0.33305,1.08601 0.99946,0.75531 17.33386,-6.33738 33.2513,-14.33807 47.75238,-24.00207 1.16459,-0.66619 1.24852,-1.50033 0.25177,-2.50244 -7.50239,-7.16642 -14.33578,-14.58219 -20.50019,-22.24732 -0.83428,-1.1697 -1.75235,-1.1697 -2.75421,0 -1.33273,1.66335 -3.33163,3.9954 -5.9967,6.99616 -2.16687,2.50257 -4.83334,3.75379 -7.99942,3.75366 -3.16632,1.3e-4 -6.00063,-1.16717 -8.50296,-3.50189 z m -64.75067,-3.99781 37.00256,0 c 1.33252,1.4e-4 1.99882,-0.75008 1.9989,-2.25067 l 0,-35.2478 c -8e-5,-1.33751 -0.66638,-2.00636 -1.9989,-2.00653 l -37.00256,0 c -1.50049,1.7e-4 -2.25072,0.66902 -2.25068,2.00653 l 0,35.2478 c -4e-5,1.50059 0.75019,2.25081 2.25068,2.25067 z"
         id="path2817"
         style="font-variant:normal;font-stretch:normal;font-family:'Rounded M+ 1m medium';-inkscape-font-specification:'Rounded M+ 1m medium,'" />
      <path
         d="m 601.99585,834.11414 c -2.16677,-2.16657 -3.25014,-4.66774 -3.25012,-7.50351 -2e-5,-2.83541 1.08335,-5.29461 3.25012,-7.37763 2.16673,-2.08263 4.66662,-3.12404 7.49969,-3.12424 l 195.99915,0 c 2.83282,2e-4 5.33272,1.04161 7.49969,3.12424 2.16652,2.08302 3.24989,4.54222 3.25013,7.37763 -2.4e-4,2.83577 -1.08361,5.33694 -3.25013,7.50351 -2.16697,2.16692 -4.66687,3.25029 -7.49969,3.25012 l -195.99915,0 c -2.83307,1.7e-4 -5.33296,-1.0832 -7.49969,-3.25012 z m 39.24561,88.99688 c -6e-5,42.00241 -8.08213,74.6689 -24.24622,97.99958 -1.99893,3.0009 -4.83198,4.6259 -8.49915,4.8752 -3.66721,0.2492 -6.83341,-0.8749 -9.49859,-3.3722 -2.6703,-2.3346 -4.21271,-5.3355 -4.62723,-9.0027 -0.41454,-3.6672 0.37764,-7.0826 2.37656,-10.2463 13.00046,-20.50267 19.50069,-50.83711 19.50073,-91.00339 l 0,-47.75238 c -4e-5,-3.82981 1.41649,-7.12062 4.24957,-9.87244 2.83301,-2.75151 6.16451,-4.12734 9.99451,-4.1275 l 159.00421,0 c 3.83483,1.6e-4 7.16887,1.37599 10.00214,4.1275 2.83282,2.75182 4.24935,6.04263 4.24957,9.87244 l 0,29.25109 c -2.2e-4,3.83516 -1.41675,7.1692 -4.24957,10.00214 -2.83327,2.83316 -6.16731,4.24968 -10.00214,4.24957 l -146.00372,0 c -1.50051,1.1e-4 -2.25073,0.66641 -2.25067,1.9989 z m 134.75036,-52.49786 -132.49969,0 c -1.50051,1.4e-4 -2.25073,0.66644 -2.25067,1.9989 l 0,13.25226 c -6e-5,1.49549 0.75016,2.24317 2.25067,2.24304 l 132.49969,0 c 1.33749,1.3e-4 2.00634,-0.74755 2.00653,-2.24304 l 0,-13.25226 c -1.9e-4,-1.33246 -0.66904,-1.99876 -2.00653,-1.9989 z m -3.9978,142.49424 c 4.9996,0 7.91657,-0.2912 8.75091,-0.8736 0.83395,-0.5824 1.25103,-2.6232 1.25122,-6.1226 l 0,-4.2496 c -1.9e-4,-1.3326 -0.75042,-1.99885 -2.25067,-1.99887 l -98.74725,0 c -1.50054,2e-5 -2.25077,0.66627 -2.25067,1.99887 l 0,20.752 c -10e-5,3.6672 -1.29201,6.8334 -3.87573,9.4986 -2.58392,2.6652 -5.79334,3.9978 -9.6283,3.9978 -3.66727,0 -6.79151,-1.2919 -9.37271,-3.8757 -2.58135,-2.5839 -3.87199,-5.7908 -3.87192,-9.6207 l 0,-88.50099 c -7e-5,-3.83496 1.37449,-7.169 4.12369,-10.00214 2.74905,-2.83295 6.04113,-4.24948 9.87625,-4.24957 l 128.49426,0 c 3.83483,9e-5 7.16887,1.41662 10.00214,4.24957 2.83282,2.83314 4.24935,6.16718 4.24957,10.00214 l 0,71.99859 c -2.2e-4,13.4989 -1.79186,21.7908 -5.37491,24.8756 -3.58349,3.0848 -13.04265,4.6273 -28.37753,4.6273 -1.50064,0 -3.33423,-0.042 -5.50079,-0.1259 -2.16694,-0.084 -5.20852,-0.2098 -9.12476,-0.3777 -3.9166,-0.1678 -7.54055,-0.3331 -10.87189,-0.4959 -3.1689,-0.1678 -5.87733,-1.3351 -8.1253,-3.5019 -2.24829,-2.1667 -3.45627,-4.8345 -3.62396,-8.0032 -0.16801,-3.0009 0.87341,-5.5847 3.12423,-7.7515 2.25051,-2.1667 4.87629,-3.1662 7.87735,-2.9983 10.99633,0.4984 18.74524,0.7477 23.24677,0.7477 z m -93.24646,-70.99918 0,7.49969 c -10e-5,1.50051 0.75013,2.25073 2.25067,2.25067 l 98.74725,0 c 1.50025,6e-5 2.25048,-0.75016 2.25067,-2.25067 l 0,-7.49969 c -1.9e-4,-1.50038 -0.75042,-2.2506 -2.25067,-2.25068 l -98.74725,0 c -1.50054,8e-5 -2.25077,0.7503 -2.25067,2.25068 z m 2.25067,39.505 98.74725,0 c 1.50025,3e-5 2.25048,-0.66627 2.25067,-1.9989 l 0,-7.75147 c -1.9e-4,-1.33255 -0.75042,-1.99885 -2.25067,-1.9989 l -98.74725,0 c -1.50054,5e-5 -2.25077,0.66635 -2.25067,1.9989 l 0,7.75147 c -10e-5,1.33263 0.75013,1.99893 2.25067,1.9989 z"
         id="path2819"
         style="font-variant:normal;font-stretch:normal;font-family:'Rounded M+ 1m medium';-inkscape-font-specification:'Rounded M+ 1m medium,'" />
      <path
         d="m 982.49664,939.36163 c 0.33058,-0.83407 0.0788,-1.25114 -0.75531,-1.25122 l -0.24414,0 c -2.83307,-0.16777 -5.12443,-1.33506 -6.87408,-3.50189 -1.74969,-2.16667 -2.3753,-4.58264 -1.87683,-7.24792 3.33148,-17.83234 5.9153,-34.16431 7.75146,-48.99598 0.49843,-4.00275 2.2481,-7.37875 5.24903,-10.12802 3.00086,-2.74897 6.5002,-4.12354 10.49804,-4.12368 l 50.24719,0 c 1.5004,1.4e-4 2.2506,-0.66616 2.2507,-1.99891 l 0,-19.00482 c -10e-5,-1.33243 -0.7503,-1.99873 -2.2507,-1.9989 l -60.24932,0 c -3.16369,1.7e-4 -5.82888,-1.0832 -7.99561,-3.25012 -2.16677,-2.16657 -3.25014,-4.83304 -3.25012,-7.99942 -2e-5,-3.16601 1.08335,-5.83248 3.25012,-7.99942 2.16673,-2.16656 4.83192,-3.24993 7.99561,-3.25012 l 74.50102,0 c 3.8349,1.9e-4 7.169,1.41671 10.0021,4.24957 2.833,2.83324 4.2495,6.16728 4.2496,10.00214 l 0,37.2467 c -10e-5,3.83518 -1.4166,7.12726 -4.2496,9.87625 -2.8331,2.74926 -6.1672,4.12382 -10.0021,4.12369 l -52.2461,0 c -1.1699,1.3e-4 -1.9201,0.66643 -2.2507,1.9989 -0.5035,4.00301 -1.4216,10.0048 -2.7542,18.00537 -0.1628,0.49856 0.01,0.95633 0.5036,1.37329 0.4984,0.41718 0.9968,0.62572 1.4953,0.62561 l 57.251,0 c 3.8349,1.1e-4 7.0863,1.41663 9.7542,4.24957 2.6676,2.83315 3.9176,6.1672 3.7498,10.00214 -1.0021,18.16312 -1.9608,33.24515 -2.8762,45.24613 -0.9157,12.00107 -2.0817,22.37576 -3.4981,31.12411 -1.4167,8.74842 -2.7925,15.41522 -4.1275,20.00042 -1.3353,4.5853 -3.2528,8.1698 -5.7526,10.7537 -2.5,2.5838 -4.916,4.1669 -7.2479,4.7493 -2.3322,0.5823 -5.581,0.8735 -9.7466,0.8735 -8.1686,0 -20.0018,-0.4171 -35.4995,-1.2512 -3.1688,-0.1679 -5.8785,-1.4178 -8.12915,-3.7498 -2.25071,-2.3321 -3.37605,-5.0825 -3.37601,-8.2512 -4e-5,-3.0009 1.08334,-5.5428 3.25012,-7.6256 2.16674,-2.0828 4.75054,-3.0403 7.75144,-2.8725 12.1663,0.8342 21.0825,1.2513 26.7487,1.2512 1.836,1e-4 3.2119,-0.3331 4.1275,-0.9994 0.9154,-0.6663 1.9149,-2.917 2.9983,-6.752 1.0833,-3.83504 2.126,-9.66898 3.1281,-17.50185 -10e-5,-1.33257 -0.5011,-1.66572 -1.503,-0.99945 -16.3321,9.99961 -33.9992,18.4988 -53.0014,25.4974 -2.83308,1.1699 -5.66613,1.0885 -8.49915,-0.2441 -2.83307,-1.3326 -4.74931,-3.4167 -5.74875,-6.2523 -0.99946,-2.8356 -0.87485,-5.62792 0.37384,-8.37707 1.24866,-2.7491 3.28952,-4.62211 6.12259,-5.61904 18.50377,-6.83591 34.75437,-14.25422 48.75187,-22.25495 2.6702,-1.5004 5.4218,-1.7509 8.255,-0.75149 2.8329,0.99949 4.8318,2.91828 5.9967,5.75637 0.3356,0.16281 0.5848,0.16281 0.7477,0 1.3325,-15.50287 2.4998,-30.00379 3.5018,-43.5028 0,-1.33252 -0.6663,-1.99882 -1.9989,-1.9989 l -45.2499,0 c -1.5005,8e-5 -2.41855,0.75031 -2.75421,2.25067 -4e-5,0.16284 -0.0407,0.37011 -0.12207,0.62179 -0.0814,0.25186 -0.12211,0.45912 -0.12207,0.6218 -0.33573,1.33777 0.16272,2.42114 1.49535,3.25012 4.1707,2.33467 10.7549,6.16971 19.7525,11.50513 2.6652,1.66327 4.3309,3.95336 4.9973,6.87027 0.6662,2.91703 0.1665,5.70938 -1.4992,8.37707 -1.6658,2.6678 -4.0398,4.33482 -7.122,5.00107 -3.0824,0.66635 -5.9587,0.16535 -8.6289,-1.50299 -2.9958,-1.99885 -10.41161,-6.33234 -22.2473,-13.00049 -1.99893,-1.16469 -3.29084,-2.83044 -3.87574,-4.99725 -0.58494,-2.16668 -0.29248,-4.2495 0.87738,-6.24848 z m 166.74806,47.50061 c -16.1643,8.99762 -33.7475,16.91436 -52.7496,23.75026 -2.8332,0.997 -5.6243,0.8291 -8.3733,-0.5035 -2.7493,-1.3326 -4.7087,-3.4154 -5.8785,-6.2485 -0.997,-2.833 -0.8291,-5.5834 0.5036,-8.25116 1.3325,-2.66772 3.4153,-4.50004 6.2485,-5.49697 18.6664,-6.50022 36.0817,-14.16775 52.2461,-23.00263 2.5022,-1.33255 5.0873,-1.58178 7.7552,-0.74768 2.6676,0.83419 4.4999,2.58387 5.497,5.24902 1.1697,2.66525 1.2536,5.49829 0.2518,8.49915 -1.0022,3.00093 -2.8358,5.25159 -5.5008,6.75201 z m 12.001,-60.24932 -48.2483,0 c -1.5006,8e-5 -2.4186,0.83169 -2.7542,2.49481 -10e-5,0.16793 -0.042,0.37646 -0.1259,0.62561 -0.084,0.24931 -0.126,0.45784 -0.1258,0.62561 -0.3308,1.33268 0.1702,2.41605 1.5029,3.25012 7.3343,4.00296 14.0024,7.75408 20.0043,11.25336 2.665,1.50051 4.3728,3.74991 5.1232,6.7482 0.75,2.99841 0.291,5.83145 -1.3771,8.49914 -1.6685,2.6678 -3.9612,4.37678 -6.8779,5.12695 -2.9172,0.75028 -5.7083,0.29124 -8.3733,-1.3771 -7.833,-4.66405 -15.6658,-9.08146 -23.4985,-13.25226 -1.9991,-1.16469 -3.3736,-2.83044 -4.1237,-4.99725 -0.7504,-2.16668 -0.5431,-4.2495 0.6218,-6.24848 0.3355,-0.83407 0.1702,-1.25114 -0.4959,-1.25122 l -0.2518,0 c -2.6654,-0.16777 -4.8321,-1.25114 -6.5003,-3.25012 -1.6684,-1.99882 -2.2508,-4.33087 -1.7471,-6.99615 2.8329,-14.17023 5.4142,-30.67005 7.7438,-49.49952 0.5034,-4.00275 2.2544,-7.37875 5.2529,-10.12802 2.9982,-2.74897 6.4988,-4.12354 10.5018,-4.12368 l 53.4974,0 c 1.3324,1.4e-4 1.9987,-0.66616 1.9989,-1.99891 l 0,-19.00482 c -2e-4,-1.33243 -0.6665,-1.99873 -1.9989,-1.9989 l -63.4995,0 c -3.1689,1.7e-4 -5.8353,-1.0832 -7.9994,-3.25012 -2.1643,-2.16657 -3.2464,-4.83304 -3.2463,-7.99942 -10e-5,-3.16601 1.082,-5.83248 3.2463,-7.99942 2.1641,-2.16656 4.8305,-3.24993 7.9994,-3.25012 l 77.7512,0 c 3.8348,1.9e-4 7.1269,1.41671 9.8762,4.24957 2.7489,2.83324 4.1235,6.16728 4.1237,10.00214 l 0,37.2467 c -2e-4,3.83518 -1.3748,7.12726 -4.1237,9.87625 -2.7493,2.74926 -6.0414,4.12382 -9.8762,4.12369 l -55.5039,0 c -1.1649,1.3e-4 -1.9126,0.66643 -2.243,1.9989 -0.5037,4.00301 -1.4218,10.0048 -2.7542,18.00537 -0.168,0.49856 0,0.95633 0.4997,1.37329 0.5008,0.41718 1.0006,0.62572 1.4992,0.62561 l 60.5011,0 c 3.8348,1.1e-4 7.0849,1.41663 9.7503,4.24957 2.665,2.83315 3.8323,6.1672 3.5019,10.00214 -1.9991,35.83278 -4.2078,61.49931 -6.6261,76.99967 -2.4187,15.50039 -5.3777,25.33339 -8.8768,29.49909 -3.4996,4.1656 -9.3335,6.2484 -17.5018,6.2484 -5.6663,0 -18.8321,-0.501 -39.4974,-1.503 -3.1689,-0.1627 -5.8773,-1.3695 -8.1253,-3.6201 -2.2483,-2.2507 -3.3724,-4.9604 -3.3722,-8.1291 -2e-4,-3.0009 1.0832,-5.5428 3.2501,-7.6256 2.1666,-2.0828 4.7504,-3.0403 7.7515,-2.8725 13.8294,0.8342 23.9942,1.2513 30.4947,1.2512 1.6681,1e-4 2.8773,-0.2504 3.6277,-0.7514 0.7501,-0.501 1.7088,-2.0841 2.8763,-4.7493 1.1671,-2.6652 2.1246,-6.87284 2.8725,-12.62288 0.7475,-5.74999 1.6223,-13.83333 2.6245,-24.25003 1.0018,-10.41661 2.0852,-23.62562 3.2501,-39.62707 -2e-4,-1.33252 -0.6665,-1.99882 -1.9989,-1.9989 z"
         id="path2821"
         style="font-variant:normal;font-stretch:normal;font-family:'Rounded M+ 1m medium';-inkscape-font-specification:'Rounded M+ 1m medium,'" />
      <path
         d="m 1453.7415,1027.3591 c -27.1659,0 -46.0397,-6.7915 -56.6216,-20.3743 -10.582,-13.58287 -15.873,-38.45849 -15.873,-74.62695 0,-27.99977 0.8316,-60.99941 2.4949,-98.99902 0.1678,-3.82978 1.6275,-7.03666 4.3792,-9.62067 2.7516,-2.58363 5.9598,-3.79289 9.6245,-3.62778 3.6646,0.1655 6.7469,1.58202 9.2468,4.24957 2.4999,2.66794 3.6684,5.8354 3.5057,9.50242 -1.6683,37.50116 -2.5025,70.33295 -2.5024,98.49548 -10e-5,14.66885 0.8328,26.58595 2.4986,35.75134 1.6657,9.16548 4.4987,16.29006 8.4992,21.37375 4.0002,5.08374 8.6669,8.50043 13.9999,10.25009 5.3329,1.74967 12.2489,2.62457 20.7482,2.62447 31.3363,1e-4 56.4217,-21.08248 75.2563,-63.24764 1.3324,-3.16357 3.6238,-5.41297 6.8741,-6.7482 3.2499,-1.33506 6.4568,-1.41771 9.6207,-0.24795 3.3363,1.33268 5.7129,3.58208 7.1296,6.7482 1.4163,3.16627 1.4583,6.33374 0.1259,9.50241 -11.1696,26.33162 -25.2128,46.08029 -42.1295,59.24608 -16.9171,13.1658 -35.8761,19.7487 -56.8771,19.7487 z"
         id="path2823"
         style="font-variant:normal;font-stretch:normal;font-family:'Rounded M+ 1m medium';-inkscape-font-specification:'Rounded M+ 1m medium,'" />
    </g>
  </g>
</svg>
