<?xml version="1.0" encoding="UTF-8" standalone="no"?>
<!-- Created with Inkscape (http://www.inkscape.org/) -->

<svg
   xmlns:dc="http://purl.org/dc/elements/1.1/"
   xmlns:cc="http://creativecommons.org/ns#"
   xmlns:rdf="http://www.w3.org/1999/02/22-rdf-syntax-ns#"
   xmlns:svg="http://www.w3.org/2000/svg"
   xmlns="http://www.w3.org/2000/svg"
   xmlns:sodipodi="http://sodipodi.sourceforge.net/DTD/sodipodi-0.dtd"
   xmlns:inkscape="http://www.inkscape.org/namespaces/inkscape"
   version="1.1"
   width="1005.4"
   height="1005.4"
   id="svg2"
   xml:space="preserve"
   inkscape:version="0.48.4 r9939"
   sodipodi:docname="AJAX1.svg"><sodipodi:namedview
     pagecolor="#ffffff"
     bordercolor="#666666"
     borderopacity="1"
     objecttolerance="10"
     gridtolerance="10"
     guidetolerance="10"
     inkscape:pageopacity="0"
     inkscape:pageshadow="2"
     inkscape:window-width="1280"
     inkscape:window-height="1004"
     id="namedview28"
     showgrid="false"
     fit-margin-top="2.7"
     fit-margin-left="2.7"
     fit-margin-right="2.7"
     fit-margin-bottom="2.7"
     inkscape:zoom="0.50515648"
     inkscape:cx="550.05746"
     inkscape:cy="463.71901"
     inkscape:window-x="-8"
     inkscape:window-y="-8"
     inkscape:window-maximized="1"
     inkscape:current-layer="svg2"
     showguides="true"
     inkscape:guide-bbox="true" /><metadata
     id="metadata8"><rdf:RDF><cc:Work
         rdf:about=""><dc:format>image/svg+xml</dc:format><dc:type
           rdf:resource="http://purl.org/dc/dcmitype/StillImage" /><dc:title /></cc:Work></rdf:RDF></metadata><defs
     id="defs6" /><path
     inkscape:connector-curvature="0"
     style="fill:#ffffff;fill-opacity:1;stroke:#ed1c23;stroke-opacity:1;stroke-width:5;stroke-miterlimit:4;stroke-dasharray:none"
     d="M 2.7,502.70001 C 2.7,226.55763 226.55764,2.7 502.7,2.7 c 276.14238,0 500,223.85763 500,500.00001 0,276.14237 -223.85762,499.99999 -500,499.99999 -276.14236,0 -500,-223.85762 -500,-499.99999 z"
     id="path3854" /><path
     inkscape:connector-curvature="0"
     d="m 568.92373,556.25276 -3.4227,-138.41703 c 0,-40.95203 29.53006,-74.74043 65.86552,-74.74043 36.29565,0 65.86551,33.7884 65.86551,75.37719 0,0 3.4624,136.74553 3.542,137.82006 0,41.5092 -29.60966,75.2578 -65.90532,75.2578 -36.41505,0 -65.94501,-33.7486 -65.94501,-75.29759 m -49.78724,-137.78027 3.46249,138.41704 c 0,66.42266 50.34424,121.02536 112.26976,121.02536 61.84592,0 112.19026,-54.6027 112.19026,-121.66213 l -3.4624,-138.41703 c 0,-66.50227 -50.42403,-121.06517 -112.23005,-121.06517 -61.88572,0 -112.23006,54.5629 -112.23006,121.70193"
     style="fill:#0066b3;fill-opacity:1;fill-rule:nonzero;stroke:none"
     id="path4268" /><path
     inkscape:connector-curvature="0"
     d="m 264.11169,398.37455 c 0.6367,-29.53002 9.75049,-53.44855 27.42067,-71.75557 19.14287,-19.89894 44.49404,-29.84842 76.1334,-29.84842 28.37587,0 51.06064,8.67595 68.05433,26.10742 17.31218,17.23248 25.94827,40.51424 25.94827,69.80548 0,38.84273 -14.08848,66.26348 -42.22556,82.30202 32.11697,17.39168 48.11565,47.47888 48.11565,90.38099 0,35.8579 -8.99428,63.55722 -26.98296,83.13779 -17.98858,19.06318 -43.53887,28.53507 -76.73032,28.53507 -34.78336,0 -61.48783,-12.09855 -79.9937,-36.25587 C 266.81799,618.37726 258.341,587.45429 258.341,548.09419 l 51.89643,0 c 0,25.27165 4.6166,44.93181 13.92919,59.02026 9.19328,14.48643 22.40627,21.65005 39.67855,21.65005 15.91908,0 28.41566,-5.25332 37.25075,-15.87936 9.71069,-11.223 14.48648,-27.06255 14.48648,-47.51867 0,-21.76943 -4.77579,-37.96718 -14.48648,-48.51361 -9.51169,-11.22301 -23.87867,-16.83451 -42.98165,-16.83451 l -26.74416,0 0,-48.15544 26.74416,0 c 16.23748,0 28.69427,-4.81554 37.33046,-14.28744 9.55148,-10.22805 14.24758,-25.15225 14.24758,-44.89201 0,-13.0537 -3.94,-23.99812 -11.89959,-32.87305 -8.31769,-9.90967 -18.98357,-14.80481 -31.99746,-14.80481 -15.40178,0 -27.30136,4.89514 -35.89765,14.80481 -8.31789,9.19331 -12.89458,22.04803 -13.88948,38.56414 l -51.89644,0"
     style="fill:#0066b3;fill-opacity:1;fill-rule:nonzero;stroke:none"
     id="path4272" /><path
     style="fill:#0066b3;fill-opacity:1;stroke:none"
     d="m 222.7,716.71489 560,0 0,31.2 -560,0 z"
     id="rect15217"
     inkscape:connector-curvature="0"
     sodipodi:nodetypes="ccccc" /><path
     sodipodi:nodetypes="ssssssssss"
     inkscape:connector-curvature="0"
     id="path15323"
     d="m 502.7,37.325 c -257.01952,0 -465.375,208.35548 -465.375,465.375 0,257.01952 208.35548,465.375 465.375,465.375 257.01952,0 465.375,-208.35548 465.375,-465.375 C 968.075,245.68048 759.71952,37.325 502.7,37.325 z m 0,132.525 c 183.82796,0 332.85,149.02201 332.85,332.85 0,183.82797 -149.02204,332.85 -332.85,332.85 -183.82797,0 -332.85,-149.02203 -332.85,-332.85 0,-183.82799 149.02203,-332.85 332.85,-332.85 z"
     style="fill:#ed1c23;fill-opacity:1;stroke:none" /></svg>