<?xml version="1.0" encoding="UTF-8" standalone="no"?>
<!-- Created with Inkscape (http://www.inkscape.org/) -->

<svg
   xmlns:svg="http://www.w3.org/2000/svg"
   xmlns="http://www.w3.org/2000/svg"
   version="1.0"
   width="350"
   height="220.34311"
   id="svg4203">
  <defs
     id="defs4205" />
  <g
     transform="translate(0,-74.656898)"
     id="layer1">
    <rect
       width="350"
       height="90"
       x="0"
       y="205"
       id="rect_bg"
       style="fill:#005d35;fill-opacity:1;stroke:none" />
    <rect
       width="212"
       height="84"
       x="135"
       y="208"
       id="rect3169"
       style="fill:#ffffff;fill-opacity:1;fill-rule:nonzero;stroke:none;stroke-width:0.01;marker:none;visibility:visible;display:inline;overflow:visible;enable-background:accumulate" />
    <rect
       width="350"
       height="120"
       x="0"
       y="74.656898"
       id="rect2401"
       style="fill:#005d35;fill-opacity:1;stroke:none" />
    <path
       d="m 212.83579,223.56636 -23.9397,0 0,3.41996 23.9397,0 0,-3.41996 z m 0,18.42976 0,1.51998 -10.25987,0 0,-1.51998 10.25987,0 z m 3.41995,-3.41995 -30.7796,0 0,13.29983 30.7796,0 0,-13.29983 z m -27.35965,3.41995 10.25987,0 0,1.51998 -10.25987,0 0,-1.51998 z m 23.9397,6.45992 -10.25987,0 0,-1.51998 10.25987,0 0,1.51998 z m -23.9397,0 0,-1.51998 10.25987,0 0,1.51998 -10.25987,0 z m 0,-19.94974 0,8.35989 23.9397,0 0,-8.35989 -23.9397,0 z m -5.31993,-9.87988 0,6.83992 3.41996,0 0,-3.41996 27.54964,0 0,3.41996 3.41996,0 0,-6.83992 -15.3898,0 0,-3.03996 -3.41996,0 0,3.03996 -15.5798,0 z m 8.73989,14.81981 0,-1.51998 17.09978,0 0,1.51998 -17.09978,0 z"
       id="path2440"
       style="font-size:38px;font-style:normal;font-variant:normal;font-weight:normal;font-stretch:normal;text-align:start;line-height:125%;writing-mode:lr-tb;text-anchor:start;fill:#005d35;fill-opacity:1;fill-rule:nonzero;stroke:none;stroke-width:1;marker:none;visibility:visible;display:inline;overflow:visible;enable-background:accumulate;font-family:GD-HighwayGothicJA-OTF;-inkscape-font-specification:GD-HighwayGothicJA-OTF" />
    <path
       d="m 226.67637,225.46634 0,3.41995 15.95979,0 0,19.56975 -11.77985,0 0,3.41996 26.97966,0 0,-3.41996 -11.77985,0 0,-19.56975 15.95979,0 0,-3.41995 -15.95979,0 0,-9.49988 -3.41996,0 0,9.49988 -15.95979,0 z"
       id="path2422"
       style="font-size:38px;font-style:normal;font-variant:normal;font-weight:normal;font-stretch:normal;text-align:start;line-height:125%;writing-mode:lr-tb;text-anchor:start;fill:#005d35;fill-opacity:1;fill-rule:nonzero;stroke:none;stroke-width:1;marker:none;visibility:visible;display:inline;overflow:visible;enable-background:accumulate;font-family:GD-HighwayGothicJA-OTF;-inkscape-font-specification:GD-HighwayGothicJA-OTF" />
    <path
       d="m 286.32299,215.58646 3.49596,0 0,30.32361 -3.49596,0 0,-30.32361 z m 14.28782,0 3.49595,0 0,36.47953 -3.49595,0 0,-36.47953 z m -27.09365,0 3.60995,0 0,22.26772 c 0.0134,3.51417 -0.45046,6.37521 -1.39173,8.58314 -0.94129,2.20793 -2.44068,3.99548 -4.49819,5.36268 l -2.01398,-2.96397 c 1.5754,-0.97057 2.69005,-2.31638 3.34396,-4.03744 0.6539,-1.72106 0.97057,-4.03586 0.94999,-6.94441 l 0,-22.26772 z"
       id="path2420"
       style="font-size:38px;font-style:normal;font-variant:normal;font-weight:normal;font-stretch:normal;text-align:start;line-height:125%;writing-mode:lr-tb;text-anchor:start;fill:#005d35;fill-opacity:1;fill-rule:nonzero;stroke:none;stroke-width:1;marker:none;visibility:visible;display:inline;overflow:visible;enable-background:accumulate;font-family:GD-HighwayGothicJA-OTF;-inkscape-font-specification:GD-HighwayGothicJA-OTF" />
    <path
       d="m 197.08821,261.27164 -11.71185,0 0,6.09592 10.17587,0 0,3.04796 -10.17587,0 0,10.15187 -3.71995,0 0,-22.36771 15.4318,0 0,3.07196 z m 13.74795,3.71995 3.55195,0 0,15.5758 -3.38396,0 -0.096,-2.20797 c -0.56951,0.85848 -1.2965,1.52348 -2.18098,1.99497 -0.88449,0.47149 -1.82148,0.71049 -2.81096,0.71699 -1.63299,-0.046 -2.93897,-0.54799 -3.91795,-1.50598 -0.97899,-0.95799 -1.48098,-2.09597 -1.50598,-3.41396 l 0,-11.15985 3.55195,0 0,10.48786 c -0.006,0.7185 0.222,1.36949 0.684,1.95298 0.46198,0.58349 1.19397,0.89249 2.19597,0.92699 1.05547,-0.017 1.96246,-0.361 2.72096,-1.03199 0.75848,-0.67099 1.15547,-1.56698 1.19099,-2.68797 l 0,-9.64787 z m 4.53729,22.00772 0,-2.71197 c 1.23999,0.14349 2.06598,0.0665 2.47797,-0.231 0.41199,-0.2975 0.60199,-0.66849 0.57,-1.11298 l 0,-17.95177 3.57595,0 0,18.28776 c -0.0284,1.33213 -0.38756,2.29182 -1.07732,2.87908 -0.68977,0.58724 -1.53954,0.92116 -2.5493,1.00176 -1.00977,0.0806 -2.00886,0.027 -2.9973,-0.16088 l 0,0 z m 6.62392,-28.79963 0,3.57595 -3.55195,0 0,-3.57595 3.55195,0 z m 7.64062,22.36771 -3.55195,0 0,-15.5758 3.55195,0 0,15.5758 z m 0,-22.36771 0,3.57595 -3.55195,0 0,-3.57595 3.55195,0 z m 16.13652,6.81591 3.04796,0 0,16.24779 c 0.005,0.87406 -0.25053,1.76323 -0.7671,2.66752 -0.5166,0.90428 -1.32518,1.66723 -2.42575,2.28886 -1.10059,0.62161 -2.52427,0.94546 -4.27105,0.97154 -2.66648,-0.0635 -4.53945,-0.6145 -5.61893,-1.65298 -1.07949,-1.03849 -1.63848,-2.18347 -1.67698,-3.43495 l 3.71995,0 c -0.0205,0.55749 0.23649,1.11048 0.77099,1.65898 0.53449,0.54848 1.46948,0.84348 2.80497,0.88499 1.34847,-0.045 2.33545,-0.41701 2.96096,-1.11599 0.62548,-0.699 0.93447,-1.45499 0.92699,-2.26797 l 0,-3.04796 c -0.59551,0.72199 -1.3005,1.26998 -2.11498,1.64398 -0.8145,0.37399 -1.69348,0.56199 -2.63696,0.56399 -1.93748,-0.0145 -3.64246,-0.70549 -5.11494,-2.07297 -1.47248,-1.36748 -2.24747,-3.32446 -2.32497,-5.87093 0.0775,-2.55896 0.85249,-4.52693 2.32497,-5.90392 1.47248,-1.37697 3.17746,-2.07296 5.11494,-2.08797 0.99248,0.003 1.91146,0.21351 2.75696,0.63299 0.84548,0.4195 1.56647,1.0325 2.16297,1.83897 l 0.36,-1.94397 z m -4.75194,12.86383 c 0.98448,0.039 1.91946,-0.33299 2.80496,-1.11598 0.88548,-0.78299 1.35847,-2.21097 1.41899,-4.28395 -0.0605,-2.08546 -0.53351,-3.52444 -1.41899,-4.31694 -0.8855,-0.79248 -1.82048,-1.16948 -2.80496,-1.13099 -0.99599,-0.0385 -1.93798,0.33851 -2.82596,1.13099 -0.888,0.7925 -1.36199,2.23148 -1.42198,4.31694 0.06,2.07298 0.53398,3.50096 1.42198,4.28395 0.88798,0.78299 1.82997,1.15498 2.82596,1.11598 l 0,0 z m 25.93979,2.68797 c -0.36535,0 -0.85067,0 -1.45598,0 -0.60534,0 -1.15467,0 -1.64798,0 -0.49334,0 -0.75467,0 -0.78399,0 l -0.50399,-2.03998 c -0.57301,0.89349 -1.359,1.54248 -2.35797,1.94698 -0.999,0.40449 -2.08499,0.60349 -3.25796,0.59699 -1.38349,-0.01 -2.51047,-0.41 -3.38096,-1.19998 -0.87049,-0.78999 -1.31948,-1.90998 -1.34698,-3.35996 0.027,-1.43348 0.56099,-2.53246 1.60198,-3.29696 1.04098,-0.76448 2.42696,-1.30547 4.15794,-1.62298 1.67147,-0.30799 2.85846,-0.61598 3.56096,-0.92398 0.70248,-0.30799 1.04347,-0.78399 1.02299,-1.42799 0.0275,-0.46998 -0.15951,-0.94597 -0.561,-1.42798 -0.4015,-0.48198 -1.18249,-0.74198 -2.34297,-0.77999 -1.23649,0.024 -2.06948,0.31201 -2.49896,0.86399 -0.42951,0.552 -0.6685,1.22399 -0.717,2.01598 l -3.55195,0 c 0.144,-1.77997 0.86999,-3.12795 2.17797,-4.04395 1.30798,-0.91598 2.83796,-1.37597 4.58994,-1.37998 1.75997,0.006 3.26195,0.414 4.50594,1.22398 1.24397,0.81 1.89397,1.98598 1.94998,3.52795 -2e-5,0.7126 -2e-5,1.6234 0,2.73241 -2e-5,1.10903 -2e-5,2.17272 0,3.19107 -2e-5,1.01836 -2e-5,1.74783 0,2.18842 -0.007,0.55399 0.049,1.10199 0.168,1.64398 0.11898,0.54199 0.34298,1.06598 0.67199,1.57198 l 0,0 z m -8.47189,-2.03998 c 1.20947,-0.031 2.18646,-0.38899 2.93096,-1.07398 0.74448,-0.68499 1.12747,-1.51098 1.14899,-2.47797 l 0,-2.80796 c -0.24551,0.291 -0.62451,0.54299 -1.13699,0.75599 -0.5125,0.213 -1.26949,0.441 -2.27097,0.68399 -0.9425,0.2495 -1.70949,0.57849 -2.30097,0.98698 -0.5915,0.4085 -0.89649,0.9835 -0.91499,1.72498 -0.011,0.76399 0.17899,1.32399 0.56999,1.67998 0.39099,0.356 1.04898,0.53199 1.97398,0.52799 l 0,0 z m 29.68071,-13.53582 3.55196,0 -4.91994,15.5758 -3.38396,0 -3.04796,-10.75186 -3.04796,10.75186 -3.40795,0 -4.91994,-15.5758 3.57595,0 3.11996,12.02384 3.14396,-12.02384 3.04796,0 3.14396,12.02384 3.14396,-12.02384 z m 20.50993,15.5758 c -0.36535,0 -0.85067,0 -1.45598,0 -0.60534,0 -1.15467,0 -1.64798,0 -0.49334,0 -0.75467,0 -0.78399,0 l -0.50399,-2.03998 c -0.57301,0.89349 -1.359,1.54248 -2.35797,1.94698 -0.999,0.40449 -2.08499,0.60349 -3.25796,0.59699 -1.38349,-0.01 -2.51047,-0.41 -3.38096,-1.19998 -0.87049,-0.78999 -1.31948,-1.90998 -1.34698,-3.35996 0.027,-1.43348 0.56099,-2.53246 1.60198,-3.29696 1.04098,-0.76448 2.42696,-1.30547 4.15794,-1.62298 1.67147,-0.30799 2.85846,-0.61598 3.56096,-0.92398 0.70248,-0.30799 1.04347,-0.78399 1.02299,-1.42799 0.0275,-0.46998 -0.15951,-0.94597 -0.561,-1.42798 -0.4015,-0.48198 -1.18249,-0.74198 -2.34297,-0.77999 -1.23649,0.024 -2.06948,0.31201 -2.49896,0.86399 -0.42951,0.552 -0.6685,1.22399 -0.717,2.01598 l -3.55195,0 c 0.144,-1.77997 0.86999,-3.12795 2.17797,-4.04395 1.30798,-0.91598 2.83796,-1.37597 4.58994,-1.37998 1.75997,0.006 3.26195,0.414 4.50594,1.22398 1.24397,0.81 1.89397,1.98598 1.94998,3.52795 -2e-5,0.7126 -2e-5,1.6234 0,2.73241 -2e-5,1.10903 -2e-5,2.17272 0,3.19107 -2e-5,1.01836 -2e-5,1.74783 0,2.18842 -0.007,0.55399 0.049,1.10199 0.168,1.64398 0.11898,0.54199 0.34298,1.06598 0.67199,1.57198 l 0,0 z m -8.47189,-2.03998 c 1.20947,-0.031 2.18646,-0.38899 2.93096,-1.07398 0.74448,-0.68499 1.12747,-1.51098 1.14899,-2.47797 l 0,-2.80796 c -0.24551,0.291 -0.62451,0.54299 -1.13699,0.75599 -0.5125,0.213 -1.26949,0.441 -2.27097,0.68399 -0.9425,0.2495 -1.70949,0.57849 -2.30097,0.98698 -0.5915,0.4085 -0.89649,0.9835 -0.91499,1.72498 -0.011,0.76399 0.17899,1.32399 0.56999,1.67998 0.39099,0.356 1.04898,0.53199 1.97398,0.52799 l 0,0 z"
       id="text2411"
       style="font-size:24px;font-style:normal;font-variant:normal;font-weight:normal;font-stretch:normal;text-indent:0;text-align:start;text-decoration:none;line-height:125%;letter-spacing:normal;word-spacing:normal;text-transform:none;direction:ltr;block-progression:tb;writing-mode:lr-tb;text-anchor:start;fill:#005d35;fill-opacity:1;fill-rule:nonzero;stroke:none;stroke-width:1;marker:none;visibility:visible;display:inline;overflow:visible;enable-background:accumulate;font-family:GD-HighwayGothicJA-OTF;-inkscape-font-specification:GD-HighwayGothicJA-OTF" />
    <path
       d="m 31.970493,182.95983 0,-90.798835 27.09965,0 c 5.89247,0.09761 10.96277,1.546977 15.21092,4.348093 4.24802,2.801274 7.51835,6.369122 9.81098,10.703562 2.29249,4.33458 3.45173,8.85056 3.47774,13.54798 -0.02601,4.5327 -1.18525,8.92277 -3.47774,13.1702 -2.29263,4.24751 -5.56296,7.7561 -9.81098,10.52579 -4.24816,2.76974 -9.31846,4.20429 -15.21092,4.30365 l -15.4998,0 0,34.19956 -11.59985,0 z m 27.09965,-45.99941 c 5.58738,-0.28121 9.73732,-2.19368 12.44984,-5.73743 2.7124,-3.54366 4.06238,-7.03111 4.04995,-10.46236 0.01243,-3.62282 -1.33755,-7.22693 -4.04995,-10.81237 -2.71252,-3.5853 -6.86246,-5.51444 -12.44984,-5.78742 l -15.4998,0 0,32.79958 15.4998,0 z"
       id="path3237"
       style="font-size:100px;font-style:normal;font-variant:normal;font-weight:normal;font-stretch:normal;text-indent:0;text-align:start;text-decoration:none;line-height:125%;letter-spacing:normal;word-spacing:normal;text-transform:none;direction:ltr;block-progression:tb;writing-mode:lr-tb;text-anchor:start;fill:#ffffff;fill-opacity:1;fill-rule:nonzero;stroke:none;stroke-width:1;marker:none;visibility:visible;display:inline;overflow:visible;enable-background:accumulate;font-family:GD-HighwayGothicJA-OTF;-inkscape-font-specification:GD-HighwayGothicJA-OTF" />
    <path
       d="m 155.71209,91.960998 c 1.08116,0.02508 1.99365,0.400078 2.73746,1.124985 0.74367,0.725072 1.13117,1.650059 1.16249,2.774964 l 0,87.198873 -37.29952,0 0,-53.7993 c -0.68753,-0.0125 -1.33752,-0.0625 -1.94997,-0.15 -0.61253,-0.0875 -1.26252,-0.13746 -1.94998,-0.15 0.0981,4.76974 0.16848,9.61905 0.21111,14.54796 0.0426,4.92898 0.0685,9.31904 0.0778,13.1702 0.009,3.8512 0.0129,6.54499 0.0111,8.08138 -0.0146,3.4708 -0.68544,5.97909 -2.01248,7.5249 -1.3271,1.54582 -3.2229,2.30414 -5.68742,2.27497 -2.56458,0.11042 -4.81038,-0.46041 -6.73742,-1.71248 -1.92707,-1.25206 -2.84789,-3.84786 -2.76246,-7.78739 0.12467,-3.05489 0.57528,-6.74496 1.35183,-11.07023 0.77652,-4.32523 1.73082,-8.55603 2.86293,-12.69243 1.13206,-4.13633 2.29377,-7.44863 3.48514,-9.93691 0.71663,-1.3916 1.65828,-2.45825 2.82496,-3.19996 1.16663,-0.74161 2.45827,-1.20827 3.87495,-1.39998 -0.0125,-2.82491 -0.0625,-5.14988 -0.14999,-6.97491 -0.0875,-1.82492 -0.13754,-2.9999 -0.15,-3.52496 -1.34168,6e-5 -2.15834,-0.34993 -2.44997,-1.04998 -0.29169,-0.69993 -0.40836,-1.74992 -0.35,-3.14996 0.0271,-0.75618 0.39789,-1.46867 1.11249,-2.13748 0.71455,-0.66867 1.61037,-1.25616 2.68747,-1.76247 0.60621,-0.36451 1.46869,-0.86034 2.58746,-1.48748 1.1187,-0.62701 2.15619,-1.29783 3.11246,-2.01248 l 0,-8.799883 c 0.027,-1.124905 0.39787,-2.049892 1.11249,-2.774965 0.71453,-0.724908 1.61035,-1.099903 2.68746,-1.124984 l 29.59962,0 z m -44.69942,80.898962 c 1.92703,-0.14792 3.29784,-1.00207 4.11244,-2.56247 0.81455,-1.56039 1.21037,-2.93954 1.18749,-4.13745 -0.005,-0.75924 -0.0395,-3.17402 -0.1037,-7.24435 -0.0642,-4.0703 -0.12843,-8.8406 -0.19259,-14.31093 -0.0642,-5.47026 -0.0988,-10.685 -0.10371,-15.64424 -0.83126,0.1438 -1.56875,0.40629 -2.21247,0.78749 -0.64377,0.38129 -1.30626,0.91878 -1.98747,1.61248 -1.0021,1.31044 -2.29791,4.98956 -3.88745,11.03736 -1.58959,6.04786 -2.8604,12.90193 -3.81245,20.56223 -0.43335,4.13121 0.10831,6.84367 1.62498,8.1374 1.51662,1.29373 3.30826,1.88122 5.37493,1.76248 l 0,0 z m 11.29985,-46.09941 0,-18.59976 c -1.56251,0.47714 -2.6125,0.94797 -3.14996,1.41248 -0.53753,0.46464 -0.78752,1.06047 -0.74999,1.78748 -3e-5,0.098 -3e-5,1.55213 0,4.36244 -3e-5,2.81044 -3e-5,6.38956 0,10.73736 0.9062,-0.006 1.69369,0.006 2.36247,0.0375 0.6687,0.0313 1.1812,0.1188 1.53748,0.2625 l 0,0 z m 9.09989,-13.69982 0,13.69982 18.69975,0 0,-13.69982 -18.69975,0 z m 0,-13.699828 0,9.799878 18.69975,0 0,-9.799878 -18.69975,0 z"
       id="path3233"
       style="font-size:100px;font-style:normal;font-variant:normal;font-weight:normal;font-stretch:normal;text-indent:0;text-align:start;text-decoration:none;line-height:125%;letter-spacing:normal;word-spacing:normal;text-transform:none;direction:ltr;block-progression:tb;writing-mode:lr-tb;text-anchor:start;fill:#ffffff;fill-opacity:1;fill-rule:nonzero;stroke:none;stroke-width:1;marker:none;visibility:visible;display:inline;overflow:visible;enable-background:accumulate;font-family:GD-HighwayGothicJA-OTF;-inkscape-font-specification:GD-HighwayGothicJA-OTF" />
    <path
       d="m 218.56483,183.05982 c 0.16037,0 -0.16046,0 -0.96249,0 -0.80211,0 -3.04791,0 -6.73741,0 -3e-5,-0.22786 -3e-5,-2.6721 0,-7.33271 -3e-5,-4.66062 -3e-5,-10.17044 0,-16.52948 -3e-5,-6.35901 -3e-5,-12.20007 0,-17.52321 -3e-5,-5.32307 -3e-5,-8.76104 0,-10.31393 -0.32225,-0.56538 -1.12224,-1.76783 -2.39997,-3.60736 -1.27779,-1.83943 -2.5,-3.72336 -3.66662,-5.65178 -1.16668,-1.92832 -1.74445,-3.30854 -1.73331,-4.14069 0.14812,-0.97832 0.44071,-3.51039 0.87776,-7.5962 0.43701,-4.08568 0.92959,-8.05476 1.47776,-11.907252 0.54811,-3.852339 1.06292,-5.917742 1.54443,-6.196214 0.37651,0.279092 0.79008,2.232152 1.24072,5.859184 0.45058,3.627192 0.87897,7.254302 1.28517,10.881342 0.40614,3.62717 0.73082,5.58023 0.97406,5.85918 0.37157,-0.28265 0.79502,-2.26163 1.27035,-5.93696 0.47528,-3.67519 0.9728,-7.35045 1.49258,-11.025785 0.51971,-3.675179 1.03205,-5.654163 1.53702,-5.936957 0.34872,0.282794 0.77341,2.261778 1.27405,5.936957 0.50058,3.675335 0.98452,7.350595 1.45183,11.025785 0.46724,3.67533 0.82526,5.65431 1.07407,5.93696 0.36847,-0.27894 0.76476,-2.232 1.18887,-5.85918 0.42403,-3.62704 0.86476,-7.25416 1.3222,-10.881344 0.45736,-3.627033 0.92032,-5.580092 1.38888,-5.859182 0.38698,0.278474 0.85735,2.343877 1.41109,6.196214 0.55365,3.852492 1.06846,7.821572 1.54442,11.907252 0.47587,4.08581 0.79069,6.61788 0.94444,7.5962 0.006,0.83215 -0.59449,2.21238 -1.79998,4.14069 -1.20559,1.92842 -2.45001,3.81234 -3.73329,5.65178 -1.28335,1.83953 -2.0389,3.04198 -2.26663,3.60736 -4e-5,1.55289 -4e-5,4.99086 0,10.31393 -4e-5,5.32314 -4e-5,11.1642 0,17.52321 -4e-5,6.35904 -4e-5,11.86886 0,16.52947 -4e-5,4.66062 -4e-5,7.10485 0,7.33272 l 0,0 z m 31.69959,-91.098822 c 0.33534,0.02092 0.5395,0.329246 0.61249,0.924988 0.0728,0.595907 0.10201,1.354229 0.0875,2.27497 -7e-5,0.508873 -7e-5,3.735228 0,9.679074 -7e-5,5.94399 -7e-5,13.23269 0,21.86612 -7e-5,8.63353 -7e-5,17.23901 0,25.81647 -7e-5,8.5775 -7e-5,15.7542 0,21.53012 -7e-5,5.77592 -7e-5,8.77828 0,9.00708 l -6.69991,0 c -7e-5,-0.18021 -7e-5,-2.08852 0,-5.72492 -7e-5,-3.63641 -7e-5,-7.91969 0,-12.84984 -7e-5,-4.93013 -7e-5,-9.4259 0,-13.48732 -7e-5,-4.06138 -7e-5,-6.60718 0,-7.6374 -0.023,-1.55412 -0.50214,-2.97077 -1.43749,-4.24995 -0.93546,-1.27911 -2.18961,-2.69576 -3.76245,-4.24994 -1.52087,-1.38536 -2.40419,-2.81451 -2.64996,-4.28745 -0.24589,-1.47285 -0.32922,-3.07699 -0.25,-4.81244 0.0854,-2.16242 0.81452,-5.43738 2.18747,-9.82487 1.37284,-4.38738 2.87699,-8.61232 4.51244,-12.67484 1.42701,-3.401963 2.79782,-6.122759 4.11245,-8.162395 1.3145,-2.039475 2.41032,-3.085293 3.28746,-3.137457 l 0,0 z"
       id="path3223"
       style="font-size:100px;font-style:normal;font-variant:normal;font-weight:normal;font-stretch:normal;text-indent:0;text-align:start;text-decoration:none;line-height:125%;letter-spacing:normal;word-spacing:normal;text-transform:none;direction:ltr;block-progression:tb;writing-mode:lr-tb;text-anchor:start;fill:#ffffff;fill-opacity:1;fill-rule:nonzero;stroke:none;stroke-width:1;marker:none;visibility:visible;display:inline;overflow:visible;enable-background:accumulate;font-family:GD-HighwayGothicJA-OTF;-inkscape-font-specification:GD-HighwayGothicJA-OTF" />
    <path
       d="m 293.95931,183.75982 c -0.003,-0.24558 -0.0219,-2.8544 -0.0563,-7.82647 -0.0344,-4.97207 -0.0657,-10.83396 -0.0938,-17.58571 -0.0282,-6.75171 -0.0344,-12.91986 -0.0188,-18.50445 0.0156,-5.58452 0.0718,-9.11207 0.16876,-10.58267 0.20203,-2.46659 0.17287,-4.80823 -0.0875,-7.02491 -0.26046,-2.21659 -1.06462,-4.20822 -2.41247,-5.97493 -1.5021,-1.62283 -2.87292,-3.12698 -4.11245,-4.51244 -1.2396,-1.38533 -1.73543,-3.41447 -1.48748,-6.08742 0.66037,-2.32698 2.51452,-4.94778 5.56243,-7.862398 3.04783,-2.914465 5.42697,-4.760272 7.13741,-5.537428 1.2291,-0.466577 2.12075,-0.533243 2.67496,-0.199998 0.55411,0.333413 0.59578,0.866738 0.125,1.59998 -0.61463,0.91257 -1.46045,2.43755 -2.53747,4.574942 -1.07711,2.137552 -1.99793,3.912522 -2.76246,5.324932 -0.77295,1.1188 -0.67712,2.30629 0.2875,3.56245 0.96452,1.2563 2.03534,2.16879 3.21245,2.73747 1.16452,0.77922 2.53534,1.34588 4.11245,1.69998 1.57701,0.35422 2.67283,0.0209 3.28746,-0.99999 l 5.99992,-10.49987 c 0.0729,-0.195752 0.45202,-0.504082 1.13749,-0.924986 0.68534,-0.420752 1.2395,0.220906 1.66248,1.924976 0.56242,5.30417 0.13743,9.52077 -1.27499,12.64984 -1.41254,3.12918 -2.98752,5.14582 -4.72494,6.04992 -1.83961,0.83963 -3.51043,1.93545 -5.01243,3.28746 -1.50212,1.35212 -2.29794,3.32292 -2.38747,5.91242 -5e-5,1.30263 -5e-5,4.74738 0,10.33424 -5e-5,5.58694 -5e-5,11.8004 0,18.64039 -5e-5,6.84002 -5e-5,12.79098 0,17.85289 -5e-5,5.06191 -5e-5,7.71917 0,7.97178 l -8.39989,0 z"
       id="text2444"
       style="font-size:100px;font-style:normal;font-variant:normal;font-weight:normal;font-stretch:normal;text-indent:0;text-align:start;text-decoration:none;line-height:125%;letter-spacing:normal;word-spacing:normal;text-transform:none;direction:ltr;block-progression:tb;writing-mode:lr-tb;text-anchor:start;fill:#ffffff;fill-opacity:1;fill-rule:nonzero;stroke:none;stroke-width:1;marker:none;visibility:visible;display:inline;overflow:visible;enable-background:accumulate;font-family:GD-HighwayGothicJA-OTF;-inkscape-font-specification:GD-HighwayGothicJA-OTF" />
    <g
       id="text2829"
       style="font-size:42.98006439px;font-style:normal;font-weight:normal;text-align:center;text-anchor:middle;fill:#ffffff;fill-opacity:1;stroke:none;font-family:IPAPGothic;-inkscape-font-specification:IPAPGothic">
      <path
         d="m 38.158577,224.97113 0,0.875 c -0.291689,2.77088 -1.44924,5.05864 -3.472656,6.86328 -2.023455,1.80473 -4.420588,2.67061 -7.191407,2.59766 l 0,0 -3.609375,0 0,5.52344 13.125,0 0,35.49218 8.695313,0 0,-51.35156 z"
         id="path2838"
         style="font-size:56px" />
      <path
         d="m 76.248421,274.08051 5.140625,0 -8.230469,-10.63672 7.4375,-7.49219 -4.921875,0 -7.546875,8.17578 0,-16.10547 -4.128906,0 0,26.0586 4.128906,0 0,-5.4961 2.488281,-2.59765 z"
         id="path2840"
         style="font-size:28px" />
      <path
         d="m 105.26014,255.35004 c -2.5521,0.16408 -4.50262,1.31251 -5.851563,3.44531 l 0,0 c -0.492205,-1.11197 -1.257829,-1.96418 -2.296875,-2.55664 -1.039077,-0.59243 -2.151055,-0.88866 -3.335938,-0.88867 l 0,0 c -2.351572,0.0729 -4.165372,1.09376 -5.441406,3.0625 l 0,0 -0.109375,-2.46094 -3.9375,0 0,18.12891 4.128906,0 0,-11.21094 c -0.01823,-1.18489 0.373692,-2.19661 1.175782,-3.03516 0.802075,-0.83853 1.804678,-1.27603 3.007812,-1.3125 l 0,0 c 2.005196,0.20054 3.053372,1.32163 3.144531,3.36328 l 0,0 0,12.19532 4.15625,0 0,-11.21094 c -0.01825,-1.18489 0.373676,-2.19661 1.175786,-3.03516 0.80206,-0.83853 1.80466,-1.27603 3.00781,-1.3125 l 0,0 c 2.00518,0.20054 3.05336,1.32163 3.14453,3.36328 l 0,0 0,12.19532 4.15625,0 0,-12.98829 c -0.0365,-1.65884 -0.65628,-3.03514 -1.85938,-4.1289 -1.20315,-1.09374 -2.62502,-1.6315 -4.26562,-1.61328 z"
         id="path2842"
         style="font-size:28px" />
    </g>
  </g>
</svg>
