<?xml version="1.0" encoding="UTF-8" standalone="no"?>
<!-- Created with Inkscape (http://www.inkscape.org/) -->

<svg
   xmlns:osb="http://www.openswatchbook.org/uri/2009/osb"
   xmlns:dc="http://purl.org/dc/elements/1.1/"
   xmlns:cc="http://creativecommons.org/ns#"
   xmlns:rdf="http://www.w3.org/1999/02/22-rdf-syntax-ns#"
   xmlns:svg="http://www.w3.org/2000/svg"
   xmlns="http://www.w3.org/2000/svg"
   xmlns:xlink="http://www.w3.org/1999/xlink"
   xmlns:sodipodi="http://sodipodi.sourceforge.net/DTD/sodipodi-0.dtd"
   xmlns:inkscape="http://www.inkscape.org/namespaces/inkscape"
   version="1.1"
   width="1200.4003"
   height="1200.4001"
   id="svg2"
   xml:space="preserve"
   inkscape:version="0.48.4 r9939"
   sodipodi:docname="Ajax.svg"><sodipodi:namedview
     pagecolor="#ffffff"
     bordercolor="#666666"
     borderopacity="1"
     objecttolerance="10"
     gridtolerance="10"
     guidetolerance="10"
     inkscape:pageopacity="0"
     inkscape:pageshadow="2"
     inkscape:window-width="1280"
     inkscape:window-height="1001"
     id="namedview28"
     showgrid="false"
     fit-margin-top="0.2"
     fit-margin-left="0.2"
     fit-margin-right="0.2"
     fit-margin-bottom="0.2"
     inkscape:zoom="0.40989584"
     inkscape:cx="521.91755"
     inkscape:cy="495.79696"
     inkscape:window-x="-8"
     inkscape:window-y="-8"
     inkscape:window-maximized="1"
     inkscape:current-layer="svg2" /><metadata
     id="metadata8"><rdf:RDF><cc:Work
         rdf:about=""><dc:format>image/svg+xml</dc:format><dc:type
           rdf:resource="http://purl.org/dc/dcmitype/StillImage" /><dc:title /></cc:Work></rdf:RDF></metadata><defs
     id="defs6"><linearGradient
       id="linearGradient15703"
       osb:paint="solid"><stop
         style="stop-color:#ffffff;stop-opacity:1;"
         offset="0"
         id="stop15705" /></linearGradient><linearGradient
       inkscape:collect="always"
       xlink:href="#linearGradient15703"
       id="linearGradient15707"
       x1="-37.125"
       y1="465.375"
       x2="967.87512"
       y2="465.375"
       gradientUnits="userSpaceOnUse"
       gradientTransform="translate(961.6578,56.04101)" /></defs><g
     id="g2991"
     transform="matrix(34.167339,0,0,34.167339,14.96955,634.01046)" /><path
     style="font-size:medium;font-style:normal;font-variant:normal;font-weight:normal;font-stretch:normal;text-indent:0;text-align:start;text-decoration:none;line-height:normal;letter-spacing:normal;word-spacing:normal;text-transform:none;direction:ltr;block-progression:tb;writing-mode:lr-tb;text-anchor:start;baseline-shift:baseline;color:#000000;fill:#000000;fill-opacity:1;fill-rule:nonzero;stroke:none;stroke-width:30;marker:none;visibility:visible;display:inline;overflow:visible;enable-background:accumulate;font-family:Sans;-inkscape-font-specification:Sans"
     d="m 1143.544,1200.2002 c 31.1185,0 56.6563,-25.5377 56.6563,-56.6563 l 0,-1086.6877 C 1200.2003,25.7364 1174.6619,0.2 1143.544,0.2 L 56.8563,0.2 C 25.7386,0.2 0.2,25.7364 0.2,56.8562 l 0,1086.6877 c 0,31.1186 25.5377,56.6563 56.6563,56.6563 z"
     id="path14428"
     inkscape:connector-curvature="0"
     sodipodi:nodetypes="sssssssss" /><path
     inkscape:connector-curvature="0"
     d="m 56.8668,1185.2002 c -23.012,0 -41.6668,-18.6548 -41.6668,-41.6668 l 0,-1086.667 c 0,-23.014 18.6548,-41.6668 41.6668,-41.6668 l 1086.6669,0 c 23.0119,0 41.6666,18.6528 41.6666,41.6668 l 0,1086.667 c 0,23.012 -18.6547,41.6668 -41.6666,41.6668 z"
     style="fill:#ffffff;fill-opacity:1;fill-rule:nonzero;stroke:none"
     id="path14430"
     sodipodi:nodetypes="sssssssss" /><path
     inkscape:connector-curvature="0"
     d="m 381.19968,192.506 c -1.99807,2.0631 -4.39776,3.0946 -7.1991,3.0945 -2.80168,10e-5 -5.2024,-1.0324 -7.20215,-3.0976 -2.00008,-2.0649 -3.00004,-4.4992 -2.99988,-7.3028 l 0,-9.5948 c -1.6e-4,-1.07 -0.60034,-1.605 -1.80053,-1.6052 l -123.59622,0 c -1.2004,2e-4 -1.8006,0.5352 -1.8005,1.6052 l 0,9.5948 c -1e-4,2.8036 -1,5.2379 -2.9999,7.3028 -1.9999,2.0652 -4.4007,3.0977 -7.2021,3.0976 -2.8016,10e-5 -5.2023,-1.0324 -7.2022,-3.0976 -1.9999,-2.0649 -2.9999,-4.4992 -2.9999,-7.3028 l 0,-16.7969 c 0,-3.0679 1.1343,-5.7351 3.4027,-8.0017 2.2685,-2.2663 4.9347,-3.3995 7.9987,-3.3997 l 59.8022,0 c 1.2003,2e-4 1.8005,-0.6 1.8006,-1.8005 l 0,-7.1961 c -10e-5,-2.9336 1.0995,-5.5011 3.2989,-7.7026 2.1992,-2.2011 4.7658,-3.3018 7.6996,-3.302 2.9337,2e-4 5.5002,1.1009 7.6996,3.302 2.1992,2.2015 3.2988,4.769 3.299,7.7026 l 0,7.1961 c -2e-4,1.2005 0.6,1.8007 1.8005,1.8005 l 59.80224,0 c 3.06379,2e-4 5.73001,1.1334 7.99866,3.3997 2.26829,2.2666 3.40252,4.9338 3.40271,8.0017 l 0,16.7969 c -1.9e-4,2.8036 -1.00116,5.2389 -3.00293,7.3059 z M 231.1997,254.60315 c 9.4685,-10.40033 17.6696,-21.13437 24.6032,-32.20214 0.2645,-0.26441 0.297,-0.56348 0.098,-0.89722 -0.1994,-0.33358 -0.5005,-0.50041 -0.9033,-0.50049 l -34.198,0 c -2.5309,8e-5 -4.6631,-0.86662 -6.3965,-2.6001 -1.7334,-1.73331 -2.6001,-3.86649 -2.6001,-6.39953 0,-2.53287 0.8667,-4.66605 2.6001,-6.39954 1.7334,-1.7333 3.8656,-2.6 6.3965,-2.6001 l 44.2017,0 c 1.2003,1e-4 1.9998,-0.46783 2.3987,-1.4038 2.6651,-5.46463 4.7993,-10.26393 6.4026,-14.39823 1.2002,-2.9336 3.1666,-5.2336 5.899,-6.9 2.7323,-1.6661 5.6324,-2.2999 8.7006,-1.9012 2.6651,0.2686 4.7311,1.6033 6.1981,4.0039 1.4668,2.4008 1.7343,4.8666 0.8026,7.3974 -2.1363,5.3346 -3.8046,9.2673 -5.0049,11.79813 -0.1303,0.26865 -0.062,0.56976 0.2045,0.90332 0.2664,0.33375 0.599,0.50058 0.9979,0.50048 l 88.20191,0 c 2.53074,1e-4 4.6629,0.8668 6.39649,2.6001 1.73321,1.73349 2.59991,3.86667 2.60009,6.39954 -1.8e-4,2.53304 -0.86688,4.66622 -2.60009,6.39953 -1.73359,1.73348 -3.86575,2.60018 -6.39649,2.6001 l -19.7998,0 c -1.3348,8e-5 -2.06925,0.46598 -2.20337,1.39771 -6.53091,20.40207 -15.93034,36.93648 -28.19824,49.60327 -0.8017,0.79755 -0.7346,1.46284 0.2014,1.99585 15.6004,7.06789 31.4004,15.20183 47.39991,24.40185 2.26626,1.33464 3.666,3.30201 4.19922,5.9021 0.53286,2.6001 -1.8e-4,4.96622 -1.59912,7.09839 -1.73357,2.26643 -3.96746,3.66617 -6.70166,4.19922 -2.73454,0.53303 -5.36719,0.0671 -7.89795,-1.39771 -17.737,-10.40039 -34.8716,-19.33389 -51.4038,-26.80053 -1.2005,-0.53303 -2.1994,-0.46589 -2.9968,0.20141 -19.0675,12.66684 -46.0023,22.13338 -80.8045,28.39966 -2.5309,0.53303 -4.9296,0.0997 -7.196,-1.30005 -2.2665,-1.39975 -3.7334,-3.43425 -4.4007,-6.10351 -0.6673,-2.39665 -0.3347,-4.66207 0.998,-6.79627 1.3325,-2.13419 3.1992,-3.40067 5.5999,-3.79944 25.7324,-4.53286 46.8668,-11.19993 63.4034,-20.00122 0.9317,-0.66729 0.9968,-1.13522 0.1953,-1.4038 -10.3964,-3.99981 -23.1955,-8.19903 -38.3972,-12.59766 -0.8017,-0.26445 -1.6012,0.002 -2.3987,0.79956 l -0.4029,0.40283 c -1.8677,1.99792 -4.2013,3.13012 -7.0007,3.39661 -2.7995,0.26655 -5.3996,-0.33261 -7.8003,-1.79749 -2.1322,-1.3346 -3.3315,-3.26839 -3.598,-5.80139 -0.2666,-2.53291 0.4669,-4.66609 2.2003,-6.39954 z m 103.8025,-33.59985 -52.8016,0 c -1.0661,8e-5 -1.9328,0.53312 -2.6,1.59912 -4.8016,8.13403 -10.4676,16.46735 -16.9983,25 -0.2687,0.26861 -0.3032,0.5687 -0.1038,0.90027 0.1993,0.33168 0.5004,0.56463 0.9033,0.69885 13.9973,3.99989 28.3976,8.93356 43.2007,14.80103 0.7974,0.3988 1.6641,0.26656 2.6001,-0.39673 11.7308,-10.53462 20.7294,-24.20241 26.9959,-41.00342 0.2684,-1.066 -0.1304,-1.59904 -1.1963,-1.59912 z"
     id="path2841"
     style="font-size:200px;font-style:normal;font-weight:normal;text-align:center;text-anchor:middle;fill:#000000;fill-opacity:1;stroke:none;font-family:'Rounded M+ 1m medium';-inkscape-font-specification:'Rounded M+ 1m medium'" /><path
     inkscape:connector-curvature="0"
     d="m 439.59811,200.0011 c -7.86542,4.93581 -13.19786,8.13608 -15.99731,9.60083 -2.40074,1.33473 -4.93471,1.60227 -7.60193,0.80262 -2.66725,-0.79947 -4.60104,-2.39961 -5.80139,-4.80042 -1.33057,-2.53489 -1.56251,-5.10244 -0.6958,-7.70263 0.86669,-2.6 2.50039,-4.6325 4.90112,-6.0974 23.19739,-13.1998 44.52916,-28.133 63.99536,-44.7998 5.73316,-4.9356 12.33308,-7.4034 19.79981,-7.4036 l 4.0039,0 c 7.46653,2e-4 14.06646,2.468 19.79981,7.4036 19.06724,16.3982 40.39901,31.3315 63.99536,44.7998 2.40053,1.4649 4.03423,3.4974 4.90112,6.0974 0.86651,2.60019 0.63356,5.16672 -0.69885,7.69958 -1.33279,2.53305 -3.3327,4.16676 -5.99975,4.90112 -2.66742,0.73455 -5.2014,0.36732 -7.60193,-1.10168 -9.06593,-5.2001 -14.19898,-8.19896 -15.39917,-8.99658 -0.93197,-0.66724 -1.39787,-0.46784 -1.39771,0.59814 l 0,1.20239 c -1.6e-4,3.06406 -1.13338,5.73028 -3.39966,7.99866 -2.26659,2.26856 -4.93382,3.4028 -8.00171,3.40271 l -35.40039,0 c -1.20047,9e-5 -1.80064,0.53313 -1.80053,1.59912 l 0,26.00098 c -1.1e-4,1.19635 0.60006,1.79449 1.80053,1.79443 l 46.39893,0 c 2.40055,6e-5 4.46761,0.86676 6.20117,2.6001 1.73323,1.73345 2.59993,3.80051 2.6001,6.20117 -1.7e-4,2.40077 -0.86687,4.43425 -2.6001,6.10047 -1.73356,1.6663 -3.80062,2.49943 -6.20117,2.49938 l -46.39893,0 c -1.20047,5e-5 -1.80064,0.60022 -1.80053,1.80054 l 0,32.59888 c -1.1e-4,1.06609 0.60006,1.59913 1.80053,1.59912 l 64.20288,0 c 2.53075,10e-6 4.66291,0.90027 6.39649,2.70081 1.73321,1.80053 2.59991,3.96728 2.6001,6.50024 -1.9e-4,2.53295 -0.86689,4.63358 -2.6001,6.30188 -1.73358,1.66828 -3.86574,2.50243 -6.39649,2.50244 l -154.0039,0 c -2.53095,-10e-6 -4.66311,-0.83416 -6.39649,-2.50244 -1.73341,-1.6683 -2.60011,-3.76893 -2.60009,-6.30188 -2e-5,-2.53296 0.86668,-4.69971 2.60009,-6.50024 1.73338,-1.80054 3.86554,-2.7008 6.39649,-2.70081 l 64.20288,0 c 1.20027,10e-6 1.80045,-0.53303 1.80054,-1.59912 l 0,-32.59888 c -9e-5,-1.20032 -0.60027,-1.80049 -1.80054,-1.80054 l -46.39893,0 c -2.40075,5e-5 -4.46781,-0.83308 -6.20117,-2.49938 -1.73343,-1.66622 -2.60013,-3.6997 -2.6001,-6.10047 -3e-5,-2.40066 0.86667,-4.46772 2.6001,-6.20117 1.73336,-1.73334 3.80042,-2.60004 6.20117,-2.6001 l 46.39893,0 c 1.20027,6e-5 1.80045,-0.59808 1.80054,-1.79443 l 0,-26.00098 c -9e-5,-1.06599 -0.60027,-1.59903 -1.80054,-1.59912 l -34.80225,0 c -3.06401,9e-5 -5.73023,-1.13415 -7.99865,-3.40271 -2.26852,-2.26838 -3.40275,-4.9346 -3.40271,-7.99866 l 0,-1.40381 c -4e-5,-0.39866 -0.19943,-0.69776 -0.59815,-0.89726 -0.3988,-0.1992 -0.73246,-0.1667 -1.00098,0.098 z m 59.39942,-45.398 c -15.46639,14.5347 -32.66608,28.0682 -51.59912,40.6006 -0.13433,0.1344 -0.20147,0.3012 -0.20142,0.5005 -5e-5,0.1995 0.13423,0.2992 0.40283,0.2991 l 105.2002,0 c 0.2684,1e-4 0.40268,-0.1 0.40283,-0.2991 -1.5e-4,-0.1993 -0.0673,-0.3661 -0.20141,-0.5005 -18.93324,-12.5324 -36.13293,-26.0659 -51.59913,-40.6006 -0.80169,-0.8014 -1.60329,-0.8014 -2.40478,0 z"
     id="path2843"
     style="font-size:200px;font-style:normal;font-weight:normal;text-align:center;text-anchor:middle;fill:#000000;fill-opacity:1;stroke:none;font-family:'Rounded M+ 1m medium';-inkscape-font-specification:'Rounded M+ 1m medium'" /><path
     inkscape:connector-curvature="0"
     d="m 733.00021,289.90589 c -2.13229,2.063 -4.66524,3.09449 -7.59887,3.09448 -2.93388,1e-5 -5.46785,-1.0325 -7.60193,-3.09753 -2.13431,-2.06501 -3.20141,-4.63154 -3.2013,-7.69959 l 0,-26.00097 c -1.1e-4,-0.26444 -0.13337,-0.46382 -0.39978,-0.59815 -0.26663,-0.13423 -0.46703,-0.13423 -0.60119,0 -10.13194,9.73311 -20.99822,18.13357 -32.59888,25.20142 -2.40079,1.46486 -5.00089,1.89719 -7.80029,1.29699 -2.79955,-0.60015 -5.06599,-2.03346 -6.79932,-4.29992 -1.46491,-2.13214 -1.86469,-4.4647 -1.19934,-6.99768 0.66522,-2.53293 2.13108,-4.46672 4.39758,-5.80139 14.40015,-7.86536 26.80045,-16.53234 37.20093,-26.00098 0.26845,-0.13422 0.33559,-0.33461 0.20142,-0.6012 -0.13439,-0.26645 -0.33377,-0.39971 -0.59815,-0.39978 l -18.60351,0 -8.19702,0 c -3.06811,7e-5 -5.73535,-1.13315 -8.00171,-3.39966 -2.26651,-2.26636 -3.39973,-4.9336 -3.39966,-8.0017 l 0,-33.79513 c -7e-5,-3.068 1.13315,-5.7016 3.39966,-7.901 2.26636,-2.1992 4.9336,-3.2989 8.00171,-3.299 l 33.39843,0 c 1.06597,1e-4 1.59901,-0.6001 1.59912,-1.8005 l 0,-8.5999 c -1.1e-4,-1.0659 -0.53315,-1.599 -1.59912,-1.5991 l -45.00122,0 c -2.39671,1e-4 -4.46173,-0.8666 -6.19507,-2.6001 -1.73345,-1.7333 -2.60015,-3.8003 -2.60009,-6.2012 -6e-5,-2.4006 0.86664,-4.4676 2.60009,-6.2012 1.73334,-1.7332 3.79836,-2.5999 6.19507,-2.6 l 45.00122,0 c 1.06597,1e-4 1.59901,-0.5329 1.59912,-1.5992 l 0,-1.5991 c -1.1e-4,-2.9336 1.06699,-5.4676 3.2013,-7.6019 2.13408,-2.134 4.66805,-3.2011 7.60193,-3.2013 2.93363,2e-4 5.46658,1.0673 7.59887,3.2013 2.13203,2.1343 3.19811,4.6683 3.19825,7.6019 l 0,1.5991 c -1.4e-4,1.0663 0.5329,1.5993 1.59912,1.5992 l 41.60156,0 c 2.40053,1e-4 4.46759,0.8668 6.20117,2.6 1.73321,1.7336 2.59991,3.8006 2.6001,6.2012 -1.9e-4,2.4009 -0.86689,4.4679 -2.6001,6.2012 -1.73358,1.7335 -3.80064,2.6002 -6.20117,2.6001 l -41.60156,0 c -1.06622,1e-4 -1.59926,0.5332 -1.59912,1.5991 l 0,8.5999 c -1.4e-4,1.2004 0.5329,1.8006 1.59912,1.8005 l 33.59985,0 c 3.06786,1e-4 5.70153,1.0998 7.901,3.299 2.19912,2.1994 3.29877,4.833 3.29895,7.901 l 0,33.79513 c -1.8e-4,3.0681 -1.09983,5.73534 -3.29895,8.0017 -2.19947,2.26651 -4.83314,3.39973 -7.901,3.39966 l -25.19531,0 c -0.2687,7e-5 -0.4691,0.13333 -0.6012,0.39978 -0.13239,0.26659 -0.1334,0.53412 -0.003,0.80261 9.06967,8.80133 21.20345,17.60055 36.40137,26.39771 2.13198,1.20039 3.53171,3.0345 4.19922,5.50232 0.66713,2.46788 0.26837,4.76789 -1.19629,6.90002 -1.4691,2.26646 -3.5036,3.6662 -6.10352,4.19922 -2.60027,0.53306 -5.03354,0.13227 -7.2998,-1.20239 -13.46452,-8.12985 -24.93098,-16.99622 -34.39942,-26.59912 -0.66745,-0.66727 -1.00111,-0.46585 -1.00097,0.60425 l 0,27.19726 c -1.4e-4,3.06805 -1.06622,5.6356 -3.19825,7.70264 z m 27.99683,-92.90159 -23.19946,0 c -1.06622,1e-4 -1.59926,0.6003 -1.59912,1.8005 l 0,21.99709 c -1.4e-4,1.06616 0.5329,1.5992 1.59912,1.59912 l 23.19946,0 c 1.06999,8e-5 1.60506,-0.53296 1.60523,-1.59912 l 0,-21.99709 c -1.7e-4,-1.2002 -0.53524,-1.8004 -1.60523,-1.8005 z m -73.19946,1.8005 0,21.99709 c -9e-5,1.06616 0.53498,1.5992 1.60522,1.59912 l 23.59619,0 c 1.06597,8e-5 1.59901,-0.53296 1.59912,-1.59912 l 0,-21.99709 c -1.1e-4,-1.2002 -0.53315,-1.8004 -1.59912,-1.8005 l -23.59619,0 c -1.07024,1e-4 -1.60531,0.6003 -1.60522,1.8005 z m -68.59741,-47.8027 c 1.99786,-1.7333 4.36399,-2.5328 7.09838,-2.3987 2.73435,0.1344 5.03537,1.1334 6.90308,2.9968 6.13196,6.4007 12.99841,13.8022 20.59937,22.2046 1.73334,1.8637 2.50035,4.0956 2.30102,6.6956 -0.19944,2.6002 -1.23296,4.7669 -3.10058,6.5002 -2.00201,1.7335 -4.30303,2.467 -6.90308,2.2003 -2.60014,-0.2664 -4.76689,-1.3314 -6.50025,-3.1952 -7.06383,-7.735 -13.99742,-15.0694 -20.80078,-22.0031 -1.73341,-1.8676 -2.56654,-4.0679 -2.49939,-6.601 0.0671,-2.5328 1.03453,-4.666 2.90223,-6.3995 z m 26.3977,146.00218 c -5.73327,5.73323 -12.39831,11.39932 -19.99512,16.99829 -2.13625,1.59911 -4.53696,2.09858 -7.20214,1.49841 -2.66522,-0.60019 -4.66514,-2.0986 -5.99976,-4.49524 -1.33465,-2.535 -1.66831,-5.16968 -1.00098,-7.90405 0.66731,-2.73437 2.20132,-4.96826 4.60205,-6.70166 5.46466,-3.86555 11.33014,-8.66494 17.59644,-14.39819 0.66728,-0.53302 1.00094,-1.39972 1.00098,-2.6001 l 0,-45.19653 c -4e-5,-1.20029 -0.53308,-1.80047 -1.59913,-1.80054 l -13.80004,0 c -2.53501,7e-5 -4.66921,-0.83306 -6.40259,-2.49939 -1.73341,-1.66619 -2.60011,-3.76681 -2.6001,-6.30188 -1e-5,-2.53491 0.86669,-4.70166 2.6001,-6.50025 1.73338,-1.79841 3.86758,-2.69766 6.40259,-2.69775 l 24.59716,0 c 3.06799,9e-5 5.73522,1.13331 8.00171,3.39966 2.26639,2.26652 3.39961,4.93172 3.39966,7.9956 l 0,49.20044 c -5e-5,1.06611 0.3336,2.13422 1.00098,3.20435 3.33246,5.4647 7.49912,9.56422 12.5,12.29858 5.00074,2.73439 12.43481,4.7343 22.30224,5.99976 9.86725,1.26547 23.93381,1.8982 42.19971,1.89819 l 47.3999,0 c 2.40054,1e-5 4.46759,0.93384 6.20117,2.80152 1.73321,1.86767 2.53277,4.00187 2.39869,6.40258 -0.13447,2.53092 -1.13545,4.62951 -3.00293,6.29578 -1.86786,1.66625 -4.06716,2.49938 -6.5979,2.49939 l -47.39991,0 c -24.53217,-1e-5 -43.09904,-1.39975 -55.70068,-4.19922 -12.60179,-2.79948 -22.10088,-7.79826 -28.49731,-14.99634 -0.80165,-0.93586 -1.60324,-1.003 -2.40479,-0.20141 z"
     id="path2845"
     style="font-size:200px;font-style:normal;font-weight:normal;text-align:center;text-anchor:middle;fill:#000000;fill-opacity:1;stroke:none;font-family:'Rounded M+ 1m medium';-inkscape-font-specification:'Rounded M+ 1m medium'" /><path
     inkscape:connector-curvature="0"
     d="m 839.79953,309.40052 c -0.80163,-2.26645 -0.60225,-4.43217 0.59815,-6.49719 1.20031,-2.06503 2.93371,-3.29895 5.20019,-3.70179 18.4,-3.06396 33.66691,-6.66299 45.80078,-10.79712 0.26847,-0.13426 0.40274,-0.36823 0.40283,-0.7019 -9e-5,-0.33364 -0.13436,-0.56761 -0.40283,-0.7019 -8.66707,-5.0659 -15.80004,-10.13181 -21.39892,-15.19776 -2.13223,-1.86764 -2.96536,-4.23479 -2.49939,-7.10144 0.46583,-2.86658 1.96628,-5.0323 4.50134,-6.49719 l 3.60107,-2.00195 c 0.13014,-0.13424 0.19524,-0.2675 0.19532,-0.39978 -8e-5,-0.1322 -0.13232,-0.19832 -0.39673,-0.19837 l -17.19971,0 c -2.26649,5e-5 -4.26641,-0.86665 -5.99976,-2.6001 -1.73344,-1.73334 -2.60014,-3.73326 -2.60009,-5.99975 -5e-5,-2.26638 0.86665,-4.2663 2.60009,-5.99976 1.73335,-1.73333 3.73327,-2.60003 5.99976,-2.6001 l 105.99976,0 c 2.26627,7e-5 4.23262,0.86677 5.89904,2.6001 1.66609,1.73346 2.49922,3.73338 2.49939,5.99976 -1.7e-4,5.99777 -1.73357,10.99654 -5.20019,14.99634 -8.53287,9.60289 -18.5996,17.87111 -30.2002,24.80468 -0.26462,0.2645 -0.36431,0.53001 -0.29907,0.79651 0.065,0.26654 0.2318,0.46694 0.50049,0.6012 12.39812,4.13412 27.1971,7.8003 44.39697,10.99853 2.26626,0.40284 3.99965,1.63676 5.2002,3.70179 1.20017,2.06502 1.40158,4.23074 0.60425,6.49719 -0.93606,2.53498 -2.53722,4.43622 -4.80347,5.70373 -2.26662,1.26749 -4.73244,1.63471 -7.39746,1.10169 -21.73274,-4.2684 -41.53253,-10.00367 -59.39942,-17.20581 -1.06619,-0.39876 -2.13431,-0.39876 -3.20434,0 -17.99733,7.33642 -38.26302,13.13679 -60.79712,17.40112 -2.53504,0.53303 -4.96933,0.13325 -7.30286,-1.19934 -2.33362,-1.33261 -3.96631,-3.26641 -4.89807,-5.80139 z m 42.60254,-52.6001 c 8.26407,8.26827 18.33079,15.40327 30.2002,21.40503 0.93169,0.53306 1.99777,0.46592 3.19824,-0.20142 11.06758,-5.86748 21.1343,-13.00045 30.20019,-21.39892 0.66717,-0.66727 0.46779,-1.00093 -0.59814,-1.00098 l -62.40235,0 c -0.26863,5e-5 -0.46903,0.13331 -0.60119,0.39978 -0.13233,0.26657 -0.13131,0.53207 0.003,0.79651 z m -42.19971,-30.99976 c -4e-5,33.20317 -5.06798,61.33628 -15.20385,84.39942 -1.06611,2.4007 -2.96532,3.73432 -5.69764,4.00085 -2.73235,0.26651 -4.96522,-0.59917 -6.6986,-2.59704 l -0.40284,-0.20142 c -4.80144,-5.33448 -5.80038,-11.66788 -2.99682,-19.00024 7.06378,-19.6004 10.59568,-46.66743 10.5957,-81.20117 l 0,-48.19946 c -2e-5,-3.0638 1.10065,-5.6965 3.302,-7.898 2.20131,-2.2011 4.83396,-3.3018 7.89795,-3.302 l 61.60278,0 c 1.06599,2e-4 1.59903,-0.6 1.59913,-1.8005 l 0,-3.7964 c -10e-5,-3.0679 1.067,-5.669 3.20129,-7.8033 2.1341,-2.134 4.73419,-3.2011 7.80029,-3.2013 3.06589,2e-4 5.66497,1.0673 7.79724,3.2013 2.13205,2.1343 3.19813,4.7354 3.19825,7.8033 l 0,3.7964 c -1.2e-4,1.2005 0.53495,1.8007 1.60522,1.8005 l 61.59668,0 c 2.40053,2e-4 4.46759,0.8333 6.20117,2.4994 1.73321,1.6664 2.59991,3.6999 2.6001,6.1005 -1.9e-4,2.4008 -0.86689,4.4679 -2.6001,6.2012 -1.73358,1.7335 -3.80064,2.6002 -6.20117,2.6001 l -18.59741,0 c -1.06624,1e-4 -1.59928,0.6003 -1.59912,1.8005 l 0,9.8022 c -1.6e-4,1.0662 0.53288,1.5993 1.59912,1.5992 l 19.39697,0 c 2.26626,1e-4 4.2326,0.8668 5.89905,2.6001 1.66607,1.7335 2.4992,3.7334 2.49939,5.9997 -1.9e-4,2.2666 -0.83332,4.2665 -2.49939,5.9998 -1.66645,1.7335 -3.63279,2.6002 -5.89905,2.6001 l -19.39697,0 c -1.06624,1e-4 -1.59928,0.5331 -1.59912,1.5991 l 0,16.99829 c -1.6e-4,3.06811 -1.1344,5.73535 -3.40271,8.00171 -2.26863,2.26651 -4.93485,3.39973 -7.99866,3.39965 l -69.7998,0 c -3.06811,8e-5 -5.73535,-1.13314 -8.00171,-3.39965 -2.26651,-2.26636 -3.39973,-4.9336 -3.39966,-8.00171 l 0,-16.99829 c -7e-5,-1.066 -0.53311,-1.599 -1.59912,-1.5991 l -23.19947,0 c -1.06612,1e-4 -1.59916,0.5331 -1.59912,1.5991 z m 97.39991,-13.39721 0,-11.19995 c -1.4e-4,-1.066 -0.53522,-1.599 -1.60523,-1.5991 l -46.59424,0 c -1.20044,1e-4 -1.80062,0.5331 -1.80053,1.5991 l 0,11.19995 c -9e-5,1.06617 0.60009,1.59921 1.80053,1.59912 l 46.59424,0 c 1.07001,9e-5 1.60509,-0.53295 1.60523,-1.59912 z m -1.60523,-43.20065 -46.59424,0 c -1.20044,1e-4 -1.80062,0.6003 -1.80053,1.8005 l 0,9.8022 c -9e-5,1.0662 0.60009,1.5993 1.80053,1.5992 l 46.59424,0 c 1.07001,1e-4 1.60509,-0.533 1.60523,-1.5992 l 0,-9.8022 c -1.4e-4,-1.2002 -0.53522,-1.8004 -1.60523,-1.8005 z m -70.99609,0 -23.19947,0 c -1.06612,1e-4 -1.59916,0.6003 -1.59912,1.8005 l 0,9.8022 c -4e-5,1.0662 0.533,1.5993 1.59912,1.5992 l 23.19947,0 c 1.06601,1e-4 1.59905,-0.533 1.59912,-1.5992 l 0,-9.8022 c -7e-5,-1.2002 -0.53311,-1.8004 -1.59912,-1.8005 z"
     id="path2847"
     style="font-size:200px;font-style:normal;font-weight:normal;text-align:center;text-anchor:middle;fill:#000000;fill-opacity:1;stroke:none;font-family:'Rounded M+ 1m medium';-inkscape-font-specification:'Rounded M+ 1m medium'" /><path
     inkscape:connector-curvature="0"
     d="m 702.33348,872.78489 -0.0622,-216.12792 c 1.5618,-63.90479 48.93152,-115.50476 105.63234,-114.11904 56.63866,1.38423 101.49331,55.23812 99.90723,120.13664 0,0 0.18787,213.52094 0.27115,215.20082 -1.58305,64.77439 -49.07545,116.30918 -105.71419,114.925 -56.82503,-1.38877 -101.61888,-55.17901 -100.03432,-120.0155 M 629.896,655.88246 630.0203,872.0117 c -2.53318,103.65144 73.94566,190.7779 170.5793,193.1395 96.50942,2.3587 177.15326,-80.92773 179.71074,-185.5727 L 980.18609,663.44908 C 982.7223,559.67365 906.11749,472.60622 809.67032,470.2491 713.09878,467.88894 632.45649,551.11334 629.89599,655.88246"
     style="fill:#000000;fill-opacity:1;fill-rule:nonzero;stroke:none"
     id="path4268" /><path
     inkscape:connector-curvature="0"
     d="m 229.1193,629.1782 c 0.99623,-46.20525 15.25643,-83.63013 42.90466,-112.27478 29.95254,-31.13564 69.61909,-46.7033 119.12466,-46.7033 44.39926,0 79.89373,13.57504 106.48348,40.84981 27.08807,26.9634 40.60082,63.3919 40.60082,109.2235 0,60.7765 -22.04401,103.68127 -66.06963,128.77652 50.25289,27.21252 75.28575,74.28948 75.28575,141.4177 0,56.1062 -14.07319,99.44686 -42.21979,130.08415 -28.14642,29.8278 -68.12454,44.6483 -120.05864,44.6483 -54.42494,0 -96.20898,-18.9303 -125.16481,-56.7288 C 233.3538,973.4127 220.09,925.02805 220.09,863.44196 l 81.20147,0 c 0,39.54204 7.22352,70.30402 21.79477,92.34806 14.38458,22.66666 35.05872,33.87542 62.08437,33.87542 24.90831,0 44.4615,-8.21979 58.28562,-24.84629 15.19416,-17.56043 22.66676,-42.34417 22.66676,-74.3515 0,-34.06236 -7.4726,-59.40668 -22.66676,-75.9084 -14.88278,-17.56044 -37.36255,-26.34071 -67.25266,-26.34071 l -41.84614,0 0,-75.34811 41.84614,0 c 25.40651,0 44.89744,-7.53471 58.41034,-22.35526 14.94504,-16.00376 22.29296,-39.35541 22.29296,-70.24174 0,-20.4249 -6.16486,-37.54959 -18.6191,-51.43599 -13.01455,-15.50554 -29.70327,-23.16482 -50.06589,-23.16482 -24.09891,0 -42.71798,7.65928 -56.16845,23.16482 -13.01486,14.3846 -20.17594,34.49814 -21.73263,60.34076 l -81.2015,0"
     style="fill:#000000;fill-opacity:1;fill-rule:nonzero;stroke:none"
     id="path4272" /></svg>