<?xml version="1.0" encoding="UTF-8" standalone="no"?>
<!-- Created with Inkscape (http://www.inkscape.org/) -->

<svg
   xmlns:svg="http://www.w3.org/2000/svg"
   xmlns="http://www.w3.org/2000/svg"
   version="1.0"
   width="640"
   height="280"
   id="svg4203">
  <defs
     id="defs4205" />
  <g
     id="layer1">
    <rect
       width="640"
       height="280"
       x="0"
       y="0"
       id="rect_bg"
       style="fill:#005d35;fill-opacity:1;stroke:none" />
    <path
       d="m 135.29128,67.492744 0,7.199907 29.91961,0 c -3.53665,6.819955 -8.06325,13.219866 -13.57983,19.199753 -5.51661,5.979946 -11.44319,10.939876 -17.77977,14.879806 l 3.59996,6.15992 c 6.25491,-3.86494 12.08482,-8.55487 17.48977,-14.06982 5.4049,-5.514897 10.05484,-11.464814 13.94982,-17.849766 l 0,28.879626 -20.79973,0 0,7.19991 20.79973,0 0,11.99985 7.19991,0 0,-11.99985 20.79973,0 0,-7.19991 -20.79973,0 0,-28.879626 c 3.8949,6.384952 8.54484,12.334869 13.94982,17.849766 5.40487,5.51495 11.23479,10.20488 17.48978,14.06982 l 3.59995,-6.15992 c -6.33666,-3.93993 -12.26324,-8.899858 -17.77977,-14.879806 -5.51665,-5.979889 -10.04326,-12.3798 -13.57983,-19.199753 l 29.91962,0 0,-7.199907 -33.59957,0 0,-13.19983 -7.19991,0 0,13.19983 -33.59956,0 z"
       id="path3257"
       style="font-size:80px;font-style:normal;font-variant:normal;font-weight:normal;font-stretch:normal;text-align:start;line-height:125%;writing-mode:lr-tb;text-anchor:start;fill:#ffffff;fill-opacity:1;stroke:none;font-family:GD-HighwayGothicJA-OTF;-inkscape-font-specification:GD-HighwayGothicJA-OTF" />
    <path
       d="m 316.05439,58.692857 0,31.679593 19.2797,0 0,41.19947 7.2799,0 0,-41.19947 19.27976,0 0,-31.679593 -18.39976,0 c 0.1183,-0.566594 0.2016,-1.073253 0.25,-1.51998 0.0483,-0.446595 0.0716,-0.793257 0.07,-1.039987 l 0,-2.239971 -7.3599,0 0,2.239971 c 0.0233,0.04173 -0.0234,0.318396 -0.14,0.829989 -0.1167,0.511726 -0.4434,1.008385 -0.98,1.489982 -0.08,0.08006 -0.16,0.160062 -0.24,0.239996 l -19.0397,0 z m 38.47946,7.679902 0,4.479942 -31.11956,0 0,-4.479942 31.11956,0 z m -38.47946,29.919614 0,7.599907 8.7999,0 c -0.2634,4.60995 -1.0767,8.6099 -2.44,11.99984 -1.3634,3.38996 -3.3767,6.34992 -6.0399,8.87989 l -1.12,1.43998 5.3599,5.35993 1.12,-1.43998 c 3.6666,-3.62163 6.3732,-7.83824 8.1199,-12.64984 1.7466,-4.8116 2.6132,-10.56818 2.6,-17.26978 l 0,-3.919947 -16.3998,0 z m 29.43956,0 0,3.919947 c -0.0134,6.7016 0.8532,12.45819 2.5999,17.26978 1.7466,4.81161 4.4533,9.02821 8.1199,12.64984 l 1.44,1.43998 5.04,-5.35993 -1.12,-1.43998 c -2.6634,-2.52997 -4.6767,-5.48993 -6.0399,-8.87989 -1.3634,-3.38995 -2.1768,-7.38989 -2.44,-11.99984 l 8.7999,0 0,-7.599907 -16.3998,0 z m -39.27946,-5.359931 0,1.999975 -8.7199,0 c 2.34,-2.371605 4.7799,-5.248232 7.3199,-8.62989 2.54,-3.38158 5.0599,-7.198194 7.5599,-11.449852 l -6.4799,-3.999948 c -0.565,0.998372 -1.135,1.961692 -1.71,2.889962 -0.575,0.928373 -1.125,1.831694 -1.65,2.709966 l -5.1199,-4.959937 c 2.025,-3.293233 3.4949,-6.62652 4.4099,-9.999871 0.915,-3.373224 1.365,-5.266531 1.35,-5.679927 l -8.3199,0 c 0.0617,0.340064 -0.2616,1.98004 -0.97,4.919936 -0.7083,2.940024 -2.1716,5.859984 -4.3899,8.759888 l -2.24,2.799964 10.8799,10.399866 c -3.2483,4.194983 -5.9716,7.244941 -8.1699,9.149882 -2.1983,1.905008 -3.5816,2.934993 -4.1499,3.089961 l -0.24,0 0,7.279903 11.8398,0 0,31.3596 7.5999,0 0,-16.71979 8.2399,0 0,-7.2799 -8.2399,0 0,-7.35991 8.7999,0 0,-9.279878 -7.5999,0 z m -20.3997,12.959838 0,23.43969 7.3599,0 0,-23.43969 -7.3599,0 z m 68.71906,-21.119733 -31.11956,0 0,-4.559941 31.11956,0 0,4.559941 z"
       id="path3255"
       style="font-size:80px;font-style:normal;font-variant:normal;font-weight:normal;font-stretch:normal;text-align:start;line-height:125%;writing-mode:lr-tb;text-anchor:start;fill:#ffffff;fill-opacity:1;stroke:none;font-family:GD-HighwayGothicJA-OTF;-inkscape-font-specification:GD-HighwayGothicJA-OTF" />
    <path
       d="m 79.1059,160.92607 0,6.95415 -12.205896,0 0,43.68065 -6.752197,0 0,-43.68065 -12.205896,0 0,-6.95415 31.163989,0 z m 31.20706,0 6.7522,0 0,50.6348 -6.7522,0 0,-22.98123 -17.746158,0 0,22.98123 -6.708915,0 0,-50.6348 6.708915,0 0,20.75375 17.746158,0 0,-20.75375 z m 43.79985,39.11701 c -0.0515,2.80927 0.0515,5.06847 0.30839,6.77757 0.25697,1.70911 0.97655,3.28918 2.15875,4.74022 l -7.35814,0 c -0.48608,-0.35541 -0.95318,-1.07075 -1.40131,-2.146 -0.44819,-1.07527 -0.68805,-2.65986 -0.71958,-4.75381 -4e-5,-0.0711 -4e-5,-0.61103 0,-1.61981 -4e-5,-1.00878 -4e-5,-2.05981 0,-3.15311 -4e-5,-1.09329 -4e-5,-1.80224 0,-2.12688 -0.0578,-2.52177 -0.63485,-4.48666 -1.73134,-5.89471 -1.09653,-1.40803 -2.36617,-2.12335 -3.80892,-2.14602 l -9.17608,0 0,21.84034 -6.70891,0 0,-50.6348 17.14019,0 c 3.1786,0.009 5.97578,1.14661 8.39155,3.41595 2.41573,2.26942 3.68718,5.62197 3.81435,10.0577 -0.0632,3.15111 -0.81341,5.73175 -2.25073,7.74189 -1.43741,2.01021 -3.18315,3.44993 -5.23729,4.31917 2.88734,1.27563 4.73049,3.20658 5.52946,5.79285 0.7989,2.58632 1.14876,5.1828 1.04961,7.78945 l 0,0 z m -12.24917,-32.16286 c -1.77465,3e-5 -3.61417,3e-5 -5.51863,0 -1.90448,3e-5 -3.22462,3e-5 -3.96043,0 l 0,14.94051 c 0.94411,2e-5 2.35622,2e-5 4.23636,0 1.88011,2e-5 3.62767,2e-5 5.2427,0 1.46799,-0.007 2.83863,-0.65872 4.11191,-1.95584 1.27322,-1.29709 1.95133,-3.19861 2.03431,-5.70457 -0.0641,-2.49006 -0.70427,-4.32819 -1.9207,-5.51441 -1.21646,-1.18615 -2.62497,-1.77472 -4.22552,-1.76569 l 0,0 z m 44.68915,-6.95415 6.75219,0 0,35.25963 c 0.01,2.5129 -0.51944,5.02682 -1.58705,7.54171 -1.06769,2.5149 -2.73169,4.62233 -4.99202,6.32231 -2.26037,1.69995 -5.17478,2.58398 -8.74322,2.65206 -3.55433,-0.0681 -6.45858,-0.95211 -8.71278,-2.65206 -2.25422,-1.69998 -3.91446,-3.80741 -4.98078,-6.32231 -1.06633,-2.51489 -1.59481,-5.02881 -1.58545,-7.54171 l 0,-35.25963 6.70892,0 0,35.25963 c 0.0623,2.92021 0.90081,5.24278 2.51584,6.96773 1.61498,1.72495 3.63307,2.60779 6.05425,2.64854 2.44007,-0.0407 4.46357,-0.92359 6.07048,-2.64854 1.60686,-1.72495 2.44007,-4.04752 2.49962,-6.96773 l 0,-35.25963 z m 66.28038,0 0,6.95415 -12.20589,0 0,43.68065 -6.75219,0 0,-43.68065 -12.2059,0 0,-6.95415 31.16398,0 z m 35.18914,39.11701 c -0.0515,2.80927 0.0514,5.06847 0.30839,6.77757 0.25696,1.70911 0.97655,3.28918 2.15875,4.74022 l -7.35816,0 c -0.48606,-0.35541 -0.95316,-1.07075 -1.4013,-2.146 -0.44818,-1.07527 -0.68804,-2.65986 -0.71958,-4.75381 -3e-5,-0.0711 -3e-5,-0.61103 0,-1.61981 -3e-5,-1.00878 -3e-5,-2.05981 0,-3.15311 -3e-5,-1.09329 -3e-5,-1.80224 0,-2.12688 -0.0578,-2.52177 -0.63485,-4.48666 -1.73134,-5.89471 -1.09653,-1.40803 -2.36616,-2.12335 -3.80893,-2.14602 l -9.17606,0 0,21.84034 -6.70892,0 0,-50.6348 17.1402,0 c 3.17859,0.009 5.97578,1.14661 8.39154,3.41595 2.41572,2.26942 3.68718,5.62197 3.81435,10.0577 -0.0631,3.15111 -0.81339,5.73175 -2.25073,7.74189 -1.4374,2.01021 -3.18315,3.44993 -5.23728,4.31917 2.88733,1.27563 4.73048,3.20658 5.52945,5.79285 0.7989,2.58632 1.14877,5.1828 1.04962,7.78945 l 0,0 z m -12.24918,-32.16286 c -1.77465,3e-5 -3.61417,3e-5 -5.51863,0 -1.90447,3e-5 -3.22462,3e-5 -3.96042,0 l 0,14.94051 c 0.94411,2e-5 2.35622,2e-5 4.23635,0 1.88011,2e-5 3.62767,2e-5 5.2427,0 1.46799,-0.007 2.83864,-0.65872 4.1119,-1.95584 1.27323,-1.29709 1.95133,-3.19861 2.03432,-5.70457 -0.0641,-2.49006 -0.70427,-4.32819 -1.92069,-5.51441 -1.21646,-1.18615 -2.62498,-1.77472 -4.22553,-1.76569 l 0,0 z m 48.67121,43.68065 -3.07312,-11.51779 -16.49095,0 -3.0731,11.51779 -7.01191,0 14.37007,-50.6348 7.92084,0 14.41335,50.6348 -7.05518,0 z m -17.57302,-18.41759 12.50887,0 -6.2328,-23.19856 -6.27607,23.19856 z m 59.16613,-25.26306 -21.12227,0 0,13.7996 18.35214,0 0,6.89982 -18.35214,0 0,22.98123 -6.70891,0 0,-50.6348 27.83118,0 0,6.95415 z m 34.57637,0 -21.12225,0 0,13.7996 18.3521,0 0,6.89982 -18.3521,0 0,22.98123 -6.70892,0 0,-50.6348 27.83117,0 0,6.95415 z m 13.45411,43.68065 -6.70892,0 0,-50.6348 6.70892,0 0,50.6348 z m 25.73281,-51.77571 c 3.36539,0.0598 6.2098,0.92431 8.53323,2.59372 2.32337,1.66948 4.10332,3.78565 5.33988,6.34846 1.23649,2.56289 1.9071,5.21429 2.01188,7.9542 l -7.01191,0 c -0.1398,-2.43686 -0.93152,-4.6802 -2.37516,-6.73004 -1.44372,-2.04975 -3.60968,-3.13859 -6.49792,-3.26653 -3.28143,0.0737 -5.92712,1.85514 -7.93708,5.34464 -2.00997,3.48954 -3.04336,8.2456 -3.10016,14.26819 0.0569,5.99434 1.09019,10.72549 3.10016,14.1935 2.00996,3.46801 4.65565,5.23823 7.93708,5.31067 2.88824,-0.12 5.0542,-1.22466 6.49792,-3.31407 1.44364,-2.0894 2.23536,-4.44366 2.37516,-7.0628 l 7.01191,0 c -0.10478,2.88147 -0.77539,5.63012 -2.01188,8.24597 -1.23656,2.61585 -3.01651,4.76085 -5.33988,6.43499 -2.32343,1.67413 -5.16784,2.53937 -8.53323,2.59572 -3.70128,-0.0715 -6.92242,-1.33508 -9.66341,-3.79097 -2.741,-2.45588 -4.86883,-5.67538 -6.38347,-9.65853 -1.51467,-3.9831 -2.28307,-8.30127 -2.30525,-12.95448 0.0222,-4.68872 0.79058,-9.03236 2.30525,-13.03097 1.51464,-3.99851 3.64247,-7.2274 6.38347,-9.68668 2.74099,-2.45919 5.96213,-3.72418 9.66341,-3.79499 l 0,0 z"
       id="text3236"
       style="font-size:45px;font-style:normal;font-variant:normal;font-weight:normal;font-stretch:normal;text-align:start;line-height:125%;writing-mode:lr-tb;text-anchor:start;fill:#ffffff;fill-opacity:1;stroke:none;font-family:GD-HighwayGothicJA-OTF;-inkscape-font-specification:GD-HighwayGothicJA-OTF" />
    <path
       d="m 543.84375,38.449528 -41.90625,72.343752 29.625,0.0312 0,124.82589 24.875,0 0,-124.76339 29.125,0.0312 -41.71875,-72.468752 0,1e-4 z"
       id="rect3015"
       style="color:#000000;fill:#ffffff;fill-opacity:1;fill-rule:nonzero;stroke:#ffffff;stroke-width:1.81570888;stroke-linecap:butt;stroke-linejoin:miter;stroke-miterlimit:4;stroke-opacity:1;stroke-dashoffset:261;marker:none;visibility:visible;display:inline;overflow:visible;enable-background:accumulate" />
  </g>
</svg>
