<?xml version="1.0" encoding="UTF-8" standalone="no"?>
<!-- Created with Inkscape (http://www.inkscape.org/) -->
<svg
   xmlns:dc="http://purl.org/dc/elements/1.1/"
   xmlns:cc="http://creativecommons.org/ns#"
   xmlns:rdf="http://www.w3.org/1999/02/22-rdf-syntax-ns#"
   xmlns:svg="http://www.w3.org/2000/svg"
   xmlns="http://www.w3.org/2000/svg"
   xmlns:sodipodi="http://sodipodi.sourceforge.net/DTD/sodipodi-0.dtd"
   xmlns:inkscape="http://www.inkscape.org/namespaces/inkscape"
   width="350"
   height="245"
   id="svg4203"
   sodipodi:version="0.32"
   inkscape:version="0.46"
   version="1.0"
   sodipodi:docbase="D:\Documents and Settings\Administrator\デスクトップ\看板\sign\西日本\svg"
   sodipodi:docname="Japanese Road sign (Direction, Lane and Notice of exit A).svg"
   inkscape:output_extension="org.inkscape.output.svg.inkscape">
  <defs
     id="defs4205">
    <inkscape:perspective
       sodipodi:type="inkscape:persp3d"
       inkscape:vp_x="0 : 315 : 1"
       inkscape:vp_y="0 : 1000 : 0"
       inkscape:vp_z="1500 : 315 : 1"
       inkscape:persp3d-origin="750 : 210 : 1"
       id="perspective9" />
    <inkscape:perspective
       id="perspective3163"
       inkscape:persp3d-origin="372.04724 : 350.78739 : 1"
       inkscape:vp_z="744.09448 : 526.18109 : 1"
       inkscape:vp_y="0 : 1000 : 0"
       inkscape:vp_x="0 : 526.18109 : 1"
       sodipodi:type="inkscape:persp3d" />
    <inkscape:perspective
       id="perspective2395"
       inkscape:persp3d-origin="372.04724 : 350.78739 : 1"
       inkscape:vp_z="744.09448 : 526.18109 : 1"
       inkscape:vp_y="0 : 1000 : 0"
       inkscape:vp_x="0 : 526.18109 : 1"
       sodipodi:type="inkscape:persp3d" />
  </defs>
  <sodipodi:namedview
     id="base"
     pagecolor="#ffffff"
     bordercolor="#666666"
     borderopacity="1.0"
     gridtolerance="10000"
     guidetolerance="10"
     objecttolerance="10"
     inkscape:pageopacity="0.0"
     inkscape:pageshadow="2"
     inkscape:zoom="2.0734694"
     inkscape:cx="175"
     inkscape:cy="122.5"
     inkscape:document-units="px"
     inkscape:current-layer="layer1"
     width="1500px"
     height="630px"
     inkscape:window-width="1024"
     inkscape:window-height="712"
     inkscape:window-x="-4"
     inkscape:window-y="-4"
     showgrid="false" />
  <metadata
     id="metadata4208">
    <rdf:RDF>
      <cc:Work
         rdf:about="">
        <dc:format>image/svg+xml</dc:format>
        <dc:type
           rdf:resource="http://purl.org/dc/dcmitype/StillImage" />
      </cc:Work>
    </rdf:RDF>
  </metadata>
  <g
     inkscape:label="sign"
     inkscape:groupmode="layer"
     id="layer1">
    <rect
       style="fill:#005d35;fill-opacity:1;stroke:none;stroke-width:1;stroke-linecap:butt;stroke-linejoin:round;stroke-miterlimit:4;stroke-dasharray:none;stroke-opacity:1"
       id="rect_bg"
       width="350"
       height="110"
       x="0"
       y="135" />
    <rect
       style="opacity:1;fill:#ffffff;fill-opacity:1;fill-rule:nonzero;stroke:none;stroke-width:0.01;stroke-linecap:butt;stroke-linejoin:miter;marker:none;marker-start:none;marker-mid:none;marker-end:none;stroke-miterlimit:4;stroke-dasharray:none;stroke-dashoffset:0;stroke-opacity:1;visibility:visible;display:inline;overflow:visible;enable-background:accumulate"
       id="rect3169"
       width="117"
       height="104"
       x="3"
       y="138" />
    <rect
       y="0"
       x="0"
       height="125"
       width="350"
       id="rect2401"
       style="fill:#005d35;fill-opacity:1;stroke:none;stroke-width:1;stroke-linecap:butt;stroke-linejoin:round;stroke-miterlimit:4;stroke-dasharray:none;stroke-opacity:1" />
    <path
       style="font-size:48px;font-style:normal;font-variant:normal;font-weight:normal;font-stretch:normal;text-align:start;line-height:125%;writing-mode:lr-tb;text-anchor:start;fill:#005d35;fill-opacity:1;fill-rule:nonzero;stroke:none;stroke-width:1;stroke-linecap:butt;stroke-linejoin:round;stroke-miterlimit:4;stroke-dashoffset:0;stroke-opacity:1;marker:none;marker-start:none;marker-mid:none;marker-end:none;visibility:visible;display:inline;overflow:visible;enable-background:accumulate;font-family:GD-HighwayGothicJA-OTF;-inkscape-font-specification:GD-HighwayGothicJA-OTF"
       d="M 52.448531,177.20096 C 57.025446,177.17399 60.747394,178.33197 63.614386,180.67492 C 66.481315,183.0179 67.959294,186.70785 68.04833,191.74477 C 67.978295,196.39172 66.426317,200.08167 63.39239,202.81463 C 60.3584,205.54759 56.262457,206.94557 51.104548,207.00858 C 47.143584,207.02457 43.701632,205.98459 40.778681,203.88862 C 37.855712,201.79264 36.321734,198.54469 36.176741,194.14474 L 43.616645,194.14474 C 43.678632,196.35872 44.454621,198.0387 45.944614,199.18468 C 47.434579,200.33066 49.266554,200.90666 51.440544,200.91266 C 53.87349,200.89066 55.883462,200.08267 57.470465,198.48869 C 59.057418,196.89471 59.879406,194.64674 59.936435,191.74477 C 59.954407,189.32282 59.282416,187.27885 57.920461,185.61285 C 56.558453,183.94689 54.398483,183.0789 51.440544,183.00889 C 49.724548,183.02291 48.224568,183.3309 46.940601,183.93287 C 45.656604,184.53488 44.660618,185.34687 43.952641,186.36884 L 36.848732,186.36884 L 40.592684,162.65715 L 66.032356,162.65715 L 66.032356,168.75307 L 46.688605,168.75307 L 45.008627,179.93693 C 45.915601,179.15096 46.981586,178.50297 48.206586,177.99295 C 49.431553,177.48298 50.845533,177.21898 52.448531,177.20096 L 52.448531,177.20096 z"
       id="text2403" />
    <path
       style="font-size:23px;font-style:normal;font-variant:normal;font-weight:normal;font-stretch:normal;text-align:start;line-height:125%;writing-mode:lr-tb;text-anchor:start;fill:#005d35;fill-opacity:1;fill-rule:nonzero;stroke:none;stroke-width:1;stroke-linecap:butt;stroke-linejoin:round;stroke-miterlimit:4;stroke-dashoffset:0;stroke-opacity:1;marker:none;marker-start:none;marker-mid:none;marker-end:none;visibility:visible;display:inline;overflow:visible;enable-background:accumulate;font-family:GD-HighwayGothicJA-OTF;-inkscape-font-specification:GD-HighwayGothicJA-OTF"
       d="M 84.427908,193.6349 C 85.597523,194.05225 86.575968,194.71254 87.363245,195.61575 C 88.150487,196.51897 88.55969,197.645 88.590854,198.99383 C 88.529024,200.87406 87.836158,202.34028 86.512256,203.39252 C 85.18832,204.44476 83.604217,204.9795 81.759942,204.99675 L 72.330064,204.99675 L 72.330064,183.56103 L 81.437946,183.56103 C 83.126974,183.55769 84.613328,184.01289 85.897014,184.92663 C 87.180667,185.84041 87.856283,187.23285 87.923863,189.10395 C 87.900366,190.31912 87.562079,191.29852 86.909,192.04217 C 86.255888,192.78583 85.428858,193.31674 84.427908,193.6349 L 84.427908,193.6349 z M 80.931953,186.50499 C 79.988955,186.505 79.011469,186.505 77.99949,186.50499 C 76.987496,186.505 76.286006,186.505 75.895018,186.50499 L 75.895018,192.50791 C 76.396692,192.50792 77.147057,192.50792 78.146114,192.50791 C 79.145155,192.50792 80.073767,192.50792 80.931953,192.50791 C 81.712015,192.51175 82.440338,192.26259 83.116925,191.76042 C 83.793486,191.25827 84.153814,190.48012 84.197911,189.42595 C 84.163876,188.37852 83.823673,187.6272 83.177299,187.17198 C 82.530899,186.71679 81.782451,186.49446 80.931953,186.50499 L 80.931953,186.50499 z M 81.115951,202.07579 C 82.156675,202.06477 83.030663,201.75906 83.737917,201.15867 C 84.445143,200.55829 84.813138,199.72934 84.841903,198.67183 C 84.813139,197.60427 84.445144,196.77245 83.737917,196.17636 C 83.030663,195.58029 82.156675,195.27747 81.115951,195.26788 C 80.280284,195.26788 79.346881,195.26788 78.315737,195.26788 C 77.284576,195.26788 76.47767,195.26788 75.895018,195.26788 L 75.895018,202.07579 C 76.292235,202.07579 77.021517,202.07579 78.082864,202.07579 C 79.144196,202.07579 80.155224,202.07579 81.115951,202.07579 L 81.115951,202.07579 z"
       id="text2409" />
    <path
       style="font-size:45px;font-style:normal;font-variant:normal;font-weight:normal;font-stretch:normal;text-align:start;line-height:125%;writing-mode:lr-tb;text-anchor:start;fill:#ffffff;fill-opacity:1;fill-rule:nonzero;stroke:none;stroke-width:1;stroke-linecap:butt;stroke-linejoin:round;stroke-miterlimit:4;stroke-dashoffset:0;stroke-opacity:1;marker:none;marker-start:none;marker-mid:none;marker-end:none;visibility:visible;display:inline;overflow:visible;enable-background:accumulate;font-family:GD-HighwayGothicJA-OTF;-inkscape-font-specification:GD-HighwayGothicJA-OTF"
       d="M 61.036224,27.880195 L 103.33568,27.880195 L 103.33568,23.830248 L 84.210925,23.830248 L 84.210925,20.230294 L 80.160978,20.230294 L 80.160978,23.830248 L 61.036224,23.830248 L 61.036224,27.880195 z M 87.630881,53.259869 C 88.648964,54.808603 90.392689,56.582328 92.862063,58.58105 C 95.331371,60.579773 98.627576,62.151001 102.75069,63.294739 L 103.83067,59.154793 C 100.27005,58.191055 97.457591,56.889823 95.393281,55.251092 C 93.328899,53.612369 91.911419,52.15364 91.140836,50.874899 L 87.630881,53.259869 z M 60.58623,59.154793 L 61.531217,63.294739 C 65.733032,62.151001 69.051736,60.579772 71.487339,58.58105 C 73.922919,56.582328 75.644145,54.808603 76.651023,53.259869 L 73.321066,50.874899 C 72.461376,52.15364 70.997021,53.612369 68.927996,55.251092 C 66.858953,56.889823 64.078367,58.191055 60.58623,59.154793 L 60.58623,59.154793 z M 80.160978,63.654735 L 84.210925,63.654735 L 84.210925,49.479917 L 99.960723,49.479917 L 99.960723,31.930143 L 64.636177,31.930143 L 64.636177,49.479917 L 80.160978,49.479917 L 80.160978,63.654735 z M 95.910775,35.980091 L 95.910775,45.429969 L 68.686125,45.429969 L 68.686125,35.980091 L 95.910775,35.980091 z M 124.57599,45.969963 L 124.57599,50.244907 L 113.41613,50.244907 L 113.41613,45.969963 L 124.57599,45.969963 z M 107.8812,24.055245 L 107.8812,28.195191 L 114.54111,28.195191 L 114.54111,32.020142 C 114.5411,32.057668 114.5411,32.162667 114.54111,32.335138 L 105.63123,32.335138 L 105.63123,36.475085 L 113.55113,36.475085 C 113.05706,37.759465 112.2002,38.959448 110.98053,40.075038 C 109.76086,41.190667 108.03776,41.940656 105.81123,42.325009 L 106.44122,46.419957 C 107.4312,46.277471 108.33119,46.067474 109.14118,45.789965 L 109.14118,63.114742 L 128.85093,63.114742 L 128.85093,41.695018 L 115.17111,41.695018 C 115.84421,40.878484 116.41045,40.025371 116.86983,39.135676 C 117.32919,38.246021 117.69294,37.359158 117.96107,36.475085 L 128.85093,36.475085 L 128.85093,32.335138 L 118.68106,32.335138 C 118.68105,32.207666 118.68105,32.102668 118.68106,32.020142 L 118.68106,28.195191 L 128.85093,28.195191 L 128.85093,24.055245 L 118.68106,24.055245 L 118.68106,20.095296 L 114.54111,20.095296 L 114.54111,24.055245 L 107.8812,24.055245 z M 130.78591,22.300267 L 130.78591,63.609735 L 135.06085,63.609735 L 135.06085,57.579813 L 143.79074,57.579813 C 145.07693,57.538565 146.07067,57.137321 146.77195,56.376079 C 147.47315,55.614842 147.85939,54.741104 147.93068,53.754862 L 147.93068,53.574865 C 147.92783,50.86647 147.53971,48.430879 146.76632,46.268083 C 145.99286,44.105313 144.851,42.265964 143.34074,40.75003 C 142.84665,40.340366 142.36103,39.955996 141.88389,39.596919 C 141.40667,39.237881 140.9323,38.932261 140.46078,38.680056 C 142.83071,36.973849 144.61569,34.885128 145.81571,32.413886 C 147.01565,29.942697 147.72064,27.741478 147.93068,25.810222 L 147.93068,22.300267 L 130.78591,22.300267 z M 143.47574,26.440214 C 143.27932,27.395789 142.8821,28.589661 142.28409,30.021835 C 141.68601,31.454066 140.80546,32.79127 139.64246,34.033449 C 138.47938,35.275679 136.95218,36.089556 135.06085,36.475085 L 135.06085,26.440214 L 143.47574,26.440214 z M 135.06085,40.930027 C 136.07358,41.106988 137.24301,41.578093 138.56914,42.343342 C 139.8952,43.108626 141.06129,44.366386 142.06743,46.116626 C 143.07349,47.866893 143.60292,50.307971 143.65574,53.439866 L 135.06085,53.439866 L 135.06085,40.930027 z M 124.57599,58.974795 L 113.41613,58.974795 L 113.41613,54.519852 L 124.57599,54.519852 L 124.57599,58.974795 z"
       id="text2415" />
    <path
       style="font-size:45px;font-style:normal;font-variant:normal;font-weight:normal;font-stretch:normal;text-align:start;line-height:125%;writing-mode:lr-tb;text-anchor:start;fill:#ffffff;fill-opacity:1;fill-rule:nonzero;stroke:none;stroke-width:1;stroke-linecap:butt;stroke-linejoin:round;stroke-miterlimit:4;stroke-dashoffset:0;stroke-opacity:1;marker:none;marker-start:none;marker-mid:none;marker-end:none;visibility:visible;display:inline;overflow:visible;enable-background:accumulate;font-family:GD-HighwayGothicJA-OTF;-inkscape-font-specification:GD-HighwayGothicJA-OTF"
       d="M 206.88448,31.255152 L 206.88448,35.3051 L 219.03432,35.3051 L 219.03432,42.055013 L 200.80956,42.055013 L 200.80956,46.104961 L 219.03432,46.104961 L 219.03432,59.154793 L 216.78435,59.154793 L 216.78435,63.204741 L 219.03432,63.204741 C 220.28585,63.190674 221.27021,62.825054 221.98741,62.107879 C 222.70456,61.390699 223.07018,60.406338 223.08427,59.154793 L 223.08427,46.104961 L 241.30904,46.104961 L 241.30904,42.055013 L 223.08427,42.055013 L 223.08427,35.3051 L 235.23411,35.3051 L 235.23411,31.255152 L 206.88448,31.255152 z M 200.58456,23.830248 L 200.58456,31.930143 L 204.63451,31.930143 L 204.63451,27.880195 L 237.25909,27.880195 L 237.25909,31.930143 L 241.30904,31.930143 L 241.30904,23.830248 L 223.08427,23.830248 L 223.08427,20.230294 L 219.03432,20.230294 L 219.03432,23.830248 L 200.58456,23.830248 z M 285.67904,45.204972 L 285.67904,63.294739 L 255.79943,63.294739 L 255.79943,45.204972 L 285.67904,45.204972 z M 281.5841,49.29992 L 259.93937,49.29992 L 259.93937,58.974795 L 281.5841,58.974795 L 281.5841,49.29992 z M 266.59929,20.230294 L 270.73924,20.230294 C 270.69254,22.480302 270.17088,24.625272 269.17426,26.665211 C 268.17758,28.705215 266.98593,30.55019 265.5993,32.20014 C 264.21263,33.850144 262.91098,35.215125 261.69435,36.295087 L 281.5841,36.295087 L 281.5841,29.950169 L 285.67904,29.950169 L 285.67904,40.435034 L 255.79943,40.435034 L 255.79943,35.665095 L 256.60942,35.035103 C 257.62522,34.31236 258.90854,33.172931 260.45937,31.616814 C 262.01016,30.060752 263.40348,28.284665 264.63931,26.288548 C 265.87511,24.292498 266.52843,22.273082 266.59929,20.230294 L 266.59929,20.230294 z M 248.64452,46.14996 L 248.64452,46.329958 C 248.66479,47.321624 248.56924,48.683271 248.35786,50.414905 C 248.14647,52.146557 247.69758,53.968198 247.01121,55.879835 C 246.32482,57.791478 245.27928,59.513121 243.87458,61.044768 L 246.70955,64.05973 C 248.54063,62.162529 249.88839,60.067002 250.75283,57.773143 C 251.61725,55.479287 252.17169,53.300429 252.41614,51.236561 C 252.66057,49.172709 252.76835,47.537176 252.73947,46.329958 L 252.73947,46.14996 L 248.64452,46.14996 z M 246.25955,32.245139 L 244.18958,36.07009 C 245.3155,36.976662 246.35986,37.807276 247.32266,38.561933 C 248.28546,39.316631 249.56606,40.225993 251.16449,41.290023 L 252.91947,37.330074 C 252.85008,37.298221 252.15634,36.810728 250.83824,35.867592 C 249.52013,34.924503 247.9939,33.71702 246.25955,32.245139 L 246.25955,32.245139 z M 246.25955,20.005297 L 244.18958,23.830248 C 245.3155,24.736832 246.35986,25.567445 247.32266,26.32209 C 248.28546,27.076801 249.56606,27.986163 251.16449,29.05018 L 252.91947,25.090231 C 252.85008,25.058391 252.15634,24.570898 250.83824,23.62775 C 249.52013,22.684673 247.9939,21.47719 246.25955,20.005297 L 246.25955,20.005297 z"
       id="text3191" />
    <path
       style="font-size:26px;font-style:normal;font-variant:normal;font-weight:normal;font-stretch:normal;text-align:start;line-height:125%;writing-mode:lr-tb;text-anchor:start;fill:#ffffff;fill-opacity:1;fill-rule:nonzero;stroke:none;stroke-width:1;stroke-linecap:butt;stroke-linejoin:round;stroke-miterlimit:4;stroke-dashoffset:0;stroke-opacity:1;marker:none;marker-start:none;marker-mid:none;marker-end:none;visibility:visible;display:inline;overflow:visible;enable-background:accumulate;font-family:GD-HighwayGothicJA-OTF;-inkscape-font-specification:GD-HighwayGothicJA-OTF"
       d="M 73.850934,102.10587 L 66.41503,90.92601 L 63.009074,94.669962 L 63.009074,102.10587 L 58.979126,102.10587 L 58.979126,77.874178 L 63.009074,77.874178 L 63.009074,89.652026 L 73.304941,77.874178 L 78.08888,77.874178 L 69.092996,87.884049 L 78.998868,102.10587 L 73.850934,102.10587 z M 93.345306,85.232083 L 97.375254,85.232083 L 90.121347,106.26581 C 89.878674,106.98675 89.369515,107.63133 88.593867,108.19954 C 87.818202,108.76773 86.82805,109.06781 85.623405,109.09978 C 85.034616,109.09977 84.496207,109.09977 84.008176,109.09978 C 83.520138,109.09977 83.261225,109.09977 83.231436,109.09978 L 83.231436,105.79782 C 83.261225,105.79781 83.520138,105.79781 84.008176,105.79782 C 84.496208,105.79781 85.034617,105.79781 85.623405,105.79782 C 86.185642,105.79456 86.660136,105.61906 87.046887,105.27132 C 87.433625,104.92357 87.635122,104.42308 87.651379,103.76984 C 87.652997,103.50822 87.623747,103.25797 87.56363,103.0191 C 87.503498,102.78023 87.40275,102.48448 87.261384,102.13187 C 87.167806,101.86124 86.825206,100.87501 86.233585,99.173185 C 85.641951,97.471361 84.972731,95.54671 84.225923,93.399228 C 83.479107,91.251759 82.826137,89.374233 82.267011,87.766644 C 81.707881,86.15908 81.414031,85.314227 81.38546,85.232083 L 85.441408,85.232083 L 89.393357,98.751909 L 93.345306,85.232083 z M 108.49156,102.65186 C 106.12666,102.62152 104.10303,101.8112 102.42064,100.22089 C 100.73824,98.630578 99.858585,96.442276 99.781671,93.655975 C 99.858585,90.882144 100.73824,88.701425 102.42064,87.113809 C 104.10303,85.526218 106.12666,84.71698 108.49156,84.68609 C 110.86889,84.71698 112.90011,85.526219 114.58523,87.113809 C 116.27032,88.701425 117.15105,90.882144 117.22745,93.655975 C 117.15105,96.442276 116.27032,98.630578 114.58523,100.22089 C 112.90011,101.8112 110.86889,102.62152 108.49156,102.65186 L 108.49156,102.65186 z M 113.1715,93.655975 C 113.10323,91.395096 112.57674,89.787451 111.59202,88.833037 C 110.60727,87.878644 109.57378,87.414984 108.49156,87.442055 C 107.40931,87.414985 106.37583,87.878645 105.3911,88.833037 C 104.40635,89.787451 103.87986,91.395095 103.81162,93.655975 C 103.87986,95.929324 104.40636,97.544552 105.3911,98.501662 C 106.37583,99.458775 107.40931,99.923519 108.49156,99.895895 C 109.57378,99.923519 110.60727,99.458776 111.59202,98.501662 C 112.57674,97.544552 113.10323,95.929324 113.1715,93.655975 L 113.1715,93.655975 z M 129.32283,87.988048 L 126.02088,87.988048 L 126.02088,98.075918 C 125.9862,98.557455 126.19203,98.959366 126.63837,99.281652 C 127.08469,99.60394 127.97951,99.687356 129.32283,99.531899 L 129.32283,102.28786 C 128.25202,102.49136 127.16967,102.54946 126.07577,102.46216 C 124.98185,102.37485 124.06127,102.0131 123.31402,101.37691 C 122.56677,100.74072 122.17774,99.701058 122.14693,98.257916 L 122.14693,87.988048 L 119.57296,87.988048 L 119.57296,85.232083 L 122.14693,85.232083 L 122.14693,80.08415 L 126.02088,80.08415 L 126.02088,85.232083 L 129.32283,85.232083 L 129.32283,87.988048 z M 140.43297,102.65186 C 138.06807,102.62152 136.04443,101.8112 134.36204,100.22089 C 132.67965,98.630578 131.79999,96.442276 131.72308,93.655975 C 131.79999,90.882144 132.67965,88.701425 134.36204,87.113809 C 136.04443,85.526218 138.06807,84.71698 140.43297,84.68609 C 142.8103,84.71698 144.84152,85.526219 146.52664,87.113809 C 148.21172,88.701425 149.09246,90.882144 149.16885,93.655975 C 149.09246,96.442276 148.21172,98.630578 146.52664,100.22089 C 144.84152,101.8112 142.8103,102.62152 140.43297,102.65186 L 140.43297,102.65186 z M 145.11291,93.655975 C 145.04464,91.395096 144.51815,89.787451 143.53343,88.833037 C 142.54868,87.878644 141.51519,87.414984 140.43297,87.442055 C 139.35072,87.414985 138.31723,87.878645 137.3325,88.833037 C 136.34776,89.787451 135.82127,91.395095 135.75303,93.655975 C 135.82127,95.929324 136.34776,97.544552 137.33251,98.501662 C 138.31724,99.458775 139.35072,99.923519 140.43297,99.895895 C 141.51519,99.923519 142.54868,99.458776 143.53342,98.501662 C 144.51815,97.544552 145.04464,95.929324 145.11291,93.655975 L 145.11291,93.655975 z"
       id="text3195" />
    <path
       style="font-size:26px;font-style:normal;font-variant:normal;font-weight:normal;font-stretch:normal;text-align:start;line-height:125%;writing-mode:lr-tb;text-anchor:start;fill:#ffffff;fill-opacity:1;fill-rule:nonzero;stroke:none;stroke-width:1;stroke-linecap:butt;stroke-linejoin:round;stroke-miterlimit:4;stroke-dashoffset:0;stroke-opacity:1;marker:none;marker-start:none;marker-mid:none;marker-end:none;visibility:visible;display:inline;overflow:visible;enable-background:accumulate;font-family:GD-HighwayGothicJA-OTF;-inkscape-font-specification:GD-HighwayGothicJA-OTF"
       d="M 239.32576,77.874178 L 243.38171,77.874178 L 243.38171,94.747961 C 243.38747,95.95053 243.06969,97.153574 242.42839,98.357099 C 241.78704,99.560627 240.7875,100.56916 239.42976,101.38269 C 238.07198,102.19622 236.32134,102.61928 234.17783,102.65186 C 232.0428,102.61928 230.29825,102.19622 228.94419,101.38269 C 227.59012,100.56916 226.59282,99.560628 225.9523,98.3571 C 225.31178,97.153575 224.99433,95.95053 224.99995,94.747961 L 224.99995,77.874178 L 229.02989,77.874178 L 229.02989,94.747961 C 229.06726,96.145447 229.57101,97.256931 230.54113,98.082417 C 231.51123,98.907908 232.72346,99.330402 234.17783,99.349902 C 235.64355,99.330403 236.85903,98.907908 237.82428,98.082418 C 238.7895,97.256931 239.29,96.145447 239.32576,94.747961 L 239.32576,77.874178 z M 244.81971,109.07378 L 244.81971,106.13581 C 246.16303,106.29126 247.05785,106.20785 247.50418,105.88557 C 247.9505,105.56327 248.15633,105.16136 248.12167,104.67983 L 248.12167,85.232083 L 251.99562,85.232083 L 251.99562,105.04383 C 251.9648,106.48696 251.57577,107.52663 250.82852,108.16282 C 250.08127,108.79901 249.16069,109.16075 248.06678,109.24807 C 246.97287,109.33537 245.89051,109.27727 244.81971,109.07378 L 244.81971,109.07378 z M 251.99562,77.874178 L 251.99562,81.748128 L 248.14767,81.748128 L 248.14767,77.874178 L 251.99562,77.874178 z M 260.27296,102.10587 L 256.42501,102.10587 L 256.42501,85.232083 L 260.27296,85.232083 L 260.27296,102.10587 z M 260.27296,77.874178 L 260.27296,81.748128 L 256.42501,81.748128 L 256.42501,77.874178 L 260.27296,77.874178 z"
       id="text3199" />
    <path
       style="font-size:26px;font-style:normal;font-variant:normal;font-weight:normal;font-stretch:normal;text-align:start;line-height:125%;writing-mode:lr-tb;text-anchor:start;fill:#ffffff;fill-opacity:1;fill-rule:nonzero;stroke:none;stroke-width:1;stroke-linecap:butt;stroke-linejoin:round;stroke-miterlimit:4;stroke-dashoffset:0;stroke-opacity:1;marker:none;marker-start:none;marker-mid:none;marker-end:none;visibility:visible;display:inline;overflow:visible;enable-background:accumulate;font-family:GD-HighwayGothicJA-OTF;-inkscape-font-specification:GD-HighwayGothicJA-OTF"
       d="M 173.83265,160.07232 L 173.83265,167.79422 L 165.77275,167.79422 L 165.77275,157.23836 L 176.32861,157.23836 L 176.32861,146.76049 L 173.83265,146.76049 L 173.83265,154.76839 L 165.77275,154.76839 L 165.77275,145.38251 L 163.27678,145.38251 L 163.27678,154.76839 L 155.11289,154.76839 L 155.11289,146.76049 L 152.72092,146.76049 L 152.72092,157.23836 L 163.27678,157.23836 L 163.27678,167.79422 L 155.11289,167.79422 L 155.11289,160.07232 L 152.72092,160.07232 L 152.72092,170.18619 L 176.32861,170.18619 L 176.32861,160.07232 L 173.83265,160.07232 z M 178.69492,146.5525 L 178.69492,170.21219 L 202.35461,170.21219 L 202.35461,146.5525 L 178.69492,146.5525 z M 181.03489,148.89247 L 200.01464,148.89247 L 200.01464,167.87222 L 181.03489,167.87222 L 181.03489,148.89247 z"
       id="text3203" />
    <path
       style="font-size:15px;font-style:normal;font-variant:normal;font-weight:normal;font-stretch:normal;text-align:start;line-height:125%;writing-mode:lr-tb;text-anchor:start;fill:#ffffff;fill-opacity:1;fill-rule:nonzero;stroke:none;stroke-width:1;stroke-linecap:butt;stroke-linejoin:round;stroke-miterlimit:4;stroke-dashoffset:0;stroke-opacity:1;marker:none;marker-start:none;marker-mid:none;marker-end:none;visibility:visible;display:inline;overflow:visible;enable-background:accumulate;font-family:GD-HighwayGothicJA-OTF;-inkscape-font-specification:GD-HighwayGothicJA-OTF"
       d="M 158.94511,191.73182 L 166.37002,191.73182 L 166.37002,193.6368 L 156.62014,193.6368 L 156.62014,179.65698 L 166.16002,179.65698 L 166.16002,181.57695 L 158.94511,181.57695 L 158.94511,185.3869 L 165.30503,185.3869 L 165.30503,187.29188 L 158.94511,187.29188 L 158.94511,191.73182 z M 180.16461,193.6368 L 177.29964,193.6368 L 174.11968,188.38687 L 170.93972,193.6368 L 168.08976,193.6368 L 172.9047,186.55689 L 168.40476,179.65698 L 171.14972,179.65698 L 174.11968,184.80191 L 177.08964,179.65698 L 179.84961,179.65698 L 175.34967,186.55689 L 180.16461,193.6368 z M 184.84355,193.6368 L 182.51858,193.6368 L 182.51858,179.65698 L 184.84355,179.65698 L 184.84355,193.6368 z M 197.99118,179.65698 L 197.99118,181.57695 L 193.76124,181.57695 L 193.76124,193.6368 L 191.42127,193.6368 L 191.42127,181.57695 L 187.19132,181.57695 L 187.19132,179.65698 L 197.99118,179.65698 z"
       id="text3207" />
    <path
       style="font-size:38px;font-style:normal;font-variant:normal;font-weight:normal;font-stretch:normal;text-align:start;line-height:125%;writing-mode:lr-tb;text-anchor:start;fill:#ffffff;fill-opacity:1;fill-rule:nonzero;stroke:none;stroke-width:1;stroke-linecap:butt;stroke-linejoin:round;stroke-miterlimit:4;stroke-dashoffset:0;stroke-opacity:1;marker:none;marker-start:none;marker-mid:none;marker-end:none;visibility:visible;display:inline;overflow:visible;enable-background:accumulate;font-family:GD-HighwayGothicJA-OTF;-inkscape-font-specification:GD-HighwayGothicJA-OTF"
       d="M 248.65705,170.31434 L 253.74899,170.31434 L 253.74899,205.19789 L 247.85906,205.19789 L 247.85906,181.06821 L 238.96718,181.06821 L 238.96718,177.30625 L 241.39915,177.30625 C 243.09176,177.2664 244.47334,176.86905 245.54391,176.11419 C 246.61445,175.35939 247.40212,174.48634 247.90691,173.49504 C 248.41168,172.5038 248.66173,171.63357 248.65705,170.88434 L 248.65705,170.31434 z M 285.16194,205.19789 L 277.52404,194.17804 L 274.14208,197.67399 L 274.14208,205.19789 L 268.51815,205.19789 L 268.51815,169.78235 L 274.14208,169.78235 L 274.14208,191.63207 L 284.36395,180.53621 L 291.05186,180.53621 L 280.98199,190.72008 L 292.15385,205.19789 L 285.16194,205.19789 z M 325.18291,179.73822 C 327.75734,179.81108 329.78081,180.6059 331.25333,182.12269 C 332.72577,183.63952 333.47626,185.44133 333.5048,187.52812 L 333.5048,205.19789 L 327.88087,205.19789 L 327.88087,188.59211 C 327.8848,187.45451 327.53489,186.42378 326.83114,185.4999 C 326.12732,184.57605 325.04592,184.08681 323.58693,184.03217 C 322.05425,184.0591 320.74011,184.60376 319.64448,185.66615 C 318.5488,186.72856 317.97564,188.14721 317.925,189.92209 L 317.925,205.19789 L 312.30108,205.19789 L 312.30108,188.59211 C 312.30502,187.45451 311.9551,186.42378 311.25134,185.4999 C 310.54754,184.57605 309.46614,184.08681 308.00713,184.03217 C 306.47447,184.0591 305.16032,184.60376 304.06468,185.66615 C 302.96902,186.72856 302.39586,188.14721 302.3452,189.92209 L 302.3452,205.19789 L 296.72128,205.19789 L 296.72128,180.53621 L 302.07921,180.53621 L 302.23121,183.88017 C 303.05135,182.54387 304.109,181.52105 305.40416,180.81171 C 306.6993,180.10241 308.09895,179.74458 309.60311,179.73822 C 311.50069,179.76674 313.11092,180.21324 314.4338,181.0777 C 315.75663,181.94221 316.69237,183.0537 317.24101,184.41216 C 318.13477,182.9872 319.27317,181.85671 320.65622,181.0207 C 322.03921,180.18474 323.54811,179.75724 325.18291,179.73822 L 325.18291,179.73822 z"
       id="text3211" />
    <path
       style="font-size:45px;font-style:normal;font-variant:normal;font-weight:normal;font-stretch:normal;text-align:start;line-height:125%;writing-mode:lr-tb;text-anchor:start;fill:#ffffff;fill-opacity:1;fill-rule:nonzero;stroke:none;stroke-width:1;stroke-linecap:butt;stroke-linejoin:round;stroke-miterlimit:4;stroke-dashoffset:0;stroke-opacity:1;marker:none;marker-start:none;marker-mid:none;marker-end:none;visibility:visible;display:inline;overflow:visible;enable-background:accumulate;font-family:GD-HighwayGothicJA-OTF;-inkscape-font-specification:GD-HighwayGothicJA-OTF"
       d="M 181.37182,203.77303 L 170.93195,203.77303 L 170.93195,215.15788 L 154.32717,215.15788 L 176.15189,234.28263 L 197.97661,215.15788 L 181.37182,215.15788 L 181.37182,203.77303 z"
       id="text3215" />
  </g>
</svg>
