<?xml version="1.0" encoding="UTF-8" standalone="no"?>
<!-- Created with Inkscape (http://www.inkscape.org/) -->

<svg
   xmlns:svg="http://www.w3.org/2000/svg"
   xmlns="http://www.w3.org/2000/svg"
   version="1.1"
   width="800"
   height="330"
   id="svg2">
  <defs
     id="defs4" />
  <g
     id="layer1">
    <rect
       width="800"
       height="330"
       x="0"
       y="0"
       id="rect2832"
       style="color:#000000;fill:#ffffff;fill-opacity:1;fill-rule:nonzero;stroke:none;stroke-width:1;marker:none;visibility:visible;display:inline;overflow:visible;enable-background:accumulate" />
    <rect
       width="770"
       height="300"
       rx="5"
       ry="5"
       x="15"
       y="15"
       id="rect2830"
       style="color:#000000;fill:#ffffff;fill-opacity:1;fill-rule:nonzero;stroke:#0566ae;stroke-width:6;stroke-linecap:round;stroke-linejoin:round;stroke-miterlimit:4;stroke-opacity:1;stroke-dasharray:none;stroke-dashoffset:261;marker:none;visibility:visible;display:inline;overflow:visible;enable-background:accumulate" />
  </g>
  <g
     id="text2831"
     style="font-size:150px;font-style:normal;font-weight:normal;text-align:center;text-anchor:middle;fill:#0566ae;fill-opacity:1;stroke:none;font-family:'Rounded M+ 1m medium';-inkscape-font-specification:'Rounded M+ 1m medium'">
    <path
       d="m 121.32388,156.1299 c -12.20098,10.4004 -28.050267,19.90051 -47.54791,28.50036 -1.901261,0.79956 -3.826918,0.84991 -5.776977,0.15107 -1.950084,-0.69886 -3.375253,-1.99891 -4.275513,-3.90015 -0.900276,-1.80054 -1.000221,-3.65067 -0.299835,-5.55038 0.70037,-1.89972 2.00118,-3.19901 3.902435,-3.89786 19.598358,-7.90099 35.498,-16.75108 47.69897,-26.5503 0.50043,-0.50045 0.3509,-0.7507 -0.4486,-0.75073 l -24.302677,0 -6.747436,0 c -2.301051,3e-5 -4.301477,-0.84988 -6.001282,-2.54974 -1.69985,-1.69979 -2.549763,-3.70022 -2.549744,-6.00128 l 0,-39.898685 c -1.9e-5,-2.300942 0.849894,-4.301367 2.549744,-6.001282 1.699805,-1.69974 3.700231,-2.549654 6.001282,-2.549743 l 37.348933,0 c 0.90021,8.9e-5 1.35034,-0.450045 1.35041,-1.350403 l 0,-6.001282 c -7e-5,-0.799463 -0.4502,-1.199243 -1.35041,-1.199341 l -51.599116,0 c -1.699842,9.8e-5 -3.175365,-0.649926 -4.426575,-1.950073 -1.251229,-1.299948 -1.876839,-2.799885 -1.876831,-4.499817 -8e-6,-1.699723 0.625602,-3.19966 1.876831,-4.499817 1.25121,-1.299938 2.726733,-1.949962 4.426575,-1.950073 l 51.599116,0 c 0.90021,1.11e-4 1.35034,-0.399669 1.35041,-1.199341 l 0,-2.851867 c -7e-5,-2.297857 0.82467,-4.247165 2.47421,-5.847931 1.6494,-1.600525 3.5743,-2.400848 5.77469,-2.400971 2.20024,1.23e-4 4.12513,0.800446 5.77469,2.400971 1.64939,1.600766 2.47413,3.550074 2.47421,5.847931 l 0,2.851867 c -8e-5,0.799672 0.45005,1.199452 1.3504,1.199341 l 51.59912,0 c 1.6997,1.11e-4 3.17522,0.650135 4.42658,1.950073 1.25108,1.300157 1.87669,2.800094 1.87683,4.499817 -1.4e-4,1.699932 -0.62575,3.199869 -1.87683,4.499817 -1.25136,1.300147 -2.72688,1.950171 -4.42658,1.950073 l -51.59912,0 c -0.90035,9.8e-5 -1.35048,0.399878 -1.3504,1.199341 l 0,6.001282 c -8e-5,0.900358 0.45005,1.350492 1.3504,1.350403 l 37.34894,0 c 2.3009,8.9e-5 4.30133,0.850003 6.00128,2.549743 1.6997,1.699915 2.54962,3.70034 2.54975,6.001282 l 0,39.898685 c -1.3e-4,2.30106 -0.85005,4.30149 -2.54975,6.00128 -1.69995,1.69986 -3.70038,2.54977 -6.00128,2.54974 l -31.05011,0 c -0.19845,3e-5 -0.34799,0.0748 -0.44861,0.22431 -0.1008,0.14956 -0.0504,0.32504 0.15106,0.52642 12.29849,9.79922 28.09895,18.64931 47.40143,26.5503 1.89806,0.79956 3.22252,2.12402 3.97339,3.97339 0.75059,1.84936 0.67582,3.67431 -0.2243,5.47485 -0.90041,1.90124 -2.32558,3.20129 -4.27552,3.90015 -1.9502,0.69884 -3.87586,0.64849 -5.77697,-0.15107 -19.4978,-8.59985 -35.34708,-18.09996 -47.54792,-28.50036 -0.60128,-0.39976 -0.90187,-0.2487 -0.90179,0.45318 l 0,25.04883 c -8e-5,2.30102 -0.82482,4.25109 -2.47421,5.85022 -1.64956,1.59911 -3.57445,2.39867 -5.77469,2.39868 -2.20039,-1e-5 -4.12529,-0.79957 -5.77469,-2.39868 -1.64954,-1.59913 -2.47428,-3.5492 -2.47421,-5.85022 l 0,-25.04883 c -7e-5,-0.70188 -0.30067,-0.85294 -0.9018,-0.45318 z m 49.3515,-25.34638 0,-8.70208 c -1.1e-4,-0.79951 -0.45024,-1.19929 -1.3504,-1.19934 l -29.2511,0 c -0.90035,5e-5 -1.35048,0.39983 -1.3504,1.19934 l 0,8.70208 c -8e-5,0.89727 0.45005,1.34587 1.3504,1.34583 l 29.2511,0 c 0.90016,4e-5 1.35029,-0.44856 1.3504,-1.34583 z m -1.3504,-31.654354 -29.2511,0 c -0.90035,7.7e-5 -1.35048,0.450211 -1.3504,1.350404 l 0,7.80029 c -8e-5,0.90034 0.45005,1.35047 1.3504,1.3504 l 29.2511,0 c 0.90016,7e-5 1.35029,-0.45006 1.3504,-1.3504 l 0,-7.80029 c -1.1e-4,-0.900193 -0.45024,-1.350327 -1.3504,-1.350404 z m -79.051207,1.350404 0,7.80029 c -3.5e-5,0.90034 0.450099,1.35047 1.350403,1.3504 l 29.251094,0 c 0.90021,7e-5 1.35034,-0.45006 1.35041,-1.3504 l 0,-7.80029 c -7e-5,-0.900193 -0.4502,-1.350327 -1.35041,-1.350404 l -29.251094,0 c -0.900304,7.7e-5 -1.350438,0.450211 -1.350403,1.350404 z m 0,21.60187 0,8.70208 c -3.5e-5,0.89727 0.450099,1.34587 1.350403,1.34583 l 29.251094,0 c 0.90021,4e-5 1.35034,-0.44856 1.35041,-1.34583 l 0,-8.70208 c -7e-5,-0.79951 -0.4502,-1.19929 -1.35041,-1.19934 l -29.251094,0 c -0.900304,5e-5 -1.350438,0.39983 -1.350403,1.19934 z"
       id="path3676" />
    <path
       d="m 254.67502,154.7795 c -7.50126,9.50013 -16.55124,18.15033 -27.14997,25.95062 -1.69984,1.19933 -3.54997,1.67464 -5.55038,1.42593 -2.00044,-0.24872 -3.70103,-1.17417 -5.10178,-2.77634 -1.30005,-1.49841 -1.79978,-3.19747 -1.49917,-5.09719 0.30059,-1.89972 1.25044,-3.45077 2.84958,-4.65317 9.30173,-6.90001 17.60251,-14.79948 24.90234,-23.69843 1.30001,-1.49838 2.92507,-2.37271 4.87518,-2.62298 1.95003,-0.25021 3.72463,0.22433 5.3238,1.42364 1.59907,1.19937 2.54893,2.77408 2.84957,4.72412 0.30055,1.9501 -0.19917,3.7247 -1.49917,5.3238 z m 61.65161,-10.04792 c 10.29956,8.30081 19.49908,16.75112 27.59857,25.35095 1.40062,1.49842 2.07582,3.2982 2.02561,5.39933 -0.0505,2.10113 -0.82641,3.85055 -2.32773,5.24826 -1.39784,1.40075 -3.09691,2.07595 -5.0972,2.0256 -2.00056,-0.0504 -3.70115,-0.77439 -5.10178,-2.17209 -9.50024,-9.80224 -18.49986,-18.10301 -26.9989,-24.90234 -1.59922,-1.30003 -2.47431,-2.92509 -2.62527,-4.87518 -0.15116,-1.95005 0.47368,-3.67429 1.87454,-5.17273 1.40065,-1.60214 3.12566,-2.478 5.17502,-2.62757 2.04915,-0.1495 3.87486,0.42576 5.47714,1.72577 z m 29.69971,-77.101133 c 1.2999,1.300157 1.94993,2.850448 1.95007,4.650879 -1.4e-4,1.80064 -0.65017,3.350931 -1.95007,4.650879 -1.30019,1.300147 -2.85048,1.950171 -4.65088,1.950073 l -121.80176,0 c -1.80055,9.8e-5 -3.35084,-0.649926 -4.65088,-1.950073 -1.30006,-1.299948 -1.95008,-2.850239 -1.95007,-4.650879 -1e-5,-1.800431 0.65001,-3.350722 1.95007,-4.650879 1.30004,-1.299938 2.85033,-1.949962 4.65088,-1.950073 l 51.30157,0 c 0.90021,1.11e-4 1.35034,-0.399669 1.35041,-1.199341 l 0,-2.851867 c -7e-5,-2.297857 0.82467,-4.247165 2.47421,-5.847931 1.6494,-1.600525 3.5743,-2.400848 5.77469,-2.400971 2.20024,1.23e-4 4.12513,0.800446 5.77469,2.400971 1.64939,1.600766 2.47413,3.550074 2.47421,5.847931 l 0,2.851867 c -8e-5,0.799672 0.45005,1.199452 1.3504,1.199341 l 51.30158,0 c 1.8004,1.11e-4 3.35069,0.650135 4.65088,1.950073 z M 266.673,174.58235 c 3.50031,0 5.55032,-0.35019 6.15006,-1.05057 0.5996,-0.70037 0.89944,-3.00063 0.8995,-6.90078 l 0,-28.05176 c -6e-5,-0.79952 -0.44867,-1.1993 -1.34582,-1.19934 l -28.20282,0 -7.64923,0 c -2.30106,4e-5 -4.30148,-0.84988 -6.00128,-2.54975 -1.69986,-1.69978 -2.54977,-3.69868 -2.54975,-5.9967 l 0,-32.400512 c -2e-5,-2.300944 0.84989,-4.301369 2.54975,-6.001282 1.6998,-1.699742 3.70022,-2.549655 6.00128,-2.549744 l 87.89978,0 c 2.3009,8.9e-5 4.30133,0.850002 6.00128,2.549744 1.6997,1.699913 2.54962,3.700338 2.54974,6.001282 l 0,32.400512 c -1.2e-4,2.29802 -0.85004,4.29692 -2.54974,5.9967 -1.69995,1.69987 -3.70038,2.54979 -6.00128,2.54975 l -32.84912,0 c -0.90036,4e-5 -1.35049,0.39982 -1.3504,1.19934 l 0,28.05176 c -9e-5,9.8999 -1.12542,15.99959 -3.37601,18.2991 -2.25075,2.29949 -8.12614,3.44924 -17.62619,3.44925 -2.99994,-10e-6 -7.79883,-0.14955 -14.39667,-0.44861 -2.002,-0.10072 -3.70259,-0.85069 -5.10178,-2.24991 -1.39927,-1.39924 -2.14924,-3.04871 -2.2499,-4.94842 -0.10075,-1.89973 0.52409,-3.49961 1.87454,-4.79966 1.35036,-1.30004 2.97618,-1.90124 4.87747,-1.80358 5.89899,0.30212 10.04785,0.45318 12.44659,0.45318 z m -21.29974,-49.50256 70.20264,0 c 0.79945,5e-5 1.19923,-0.45008 1.19934,-1.3504 l 0,-22.65015 c -1.1e-4,-0.79949 -0.39989,-1.199265 -1.19934,-1.199342 l -70.20264,0 c -0.7996,7.7e-5 -1.19938,0.399852 -1.19934,1.199342 l 0,22.65015 c -4e-5,0.90032 0.39974,1.35045 1.19934,1.3504 z"
       id="path3678" />
    <path
       d="m 367.17502,130.03279 0,-62.850951 c -1e-5,-2.300914 0.82472,-4.301339 2.47421,-6.001282 1.64946,-1.699712 3.62471,-2.549626 5.92575,-2.549743 l 45.89997,0 c 1.69976,1.17e-4 3.17452,0.650141 4.42428,1.950073 1.24962,1.300163 1.87447,2.800101 1.87454,4.499817 -7e-5,1.699938 -0.62492,3.174699 -1.87454,4.424286 -1.24976,1.2498 -2.72452,1.874647 -4.42428,1.874542 l -9.30176,0 c -0.79962,1.05e-4 -1.1994,0.401411 -1.19934,1.203918 l 0,7.649231 c -6e-5,0.900364 0.39972,1.350498 1.19934,1.350403 l 7.95135,0 c 1.59906,9.5e-5 2.97387,0.550174 4.12445,1.650238 1.15045,1.100251 1.7257,2.449889 1.72577,4.04892 -7e-5,1.599208 -0.57532,2.974024 -1.72577,4.124451 -1.15058,1.150596 -2.52539,1.725852 -4.12445,1.725769 l -7.95135,0 c -0.79962,8.3e-5 -1.1994,0.450217 -1.19934,1.350402 l 0,7.498166 c -6e-5,0.79964 0.39972,1.19942 1.19934,1.19934 l 7.95135,0 c 1.59906,8e-5 2.97387,0.57533 4.12445,1.72577 1.15045,1.15059 1.7257,2.5254 1.72577,4.12445 -7e-5,1.59919 -0.57532,2.97401 -1.72577,4.12445 -1.15058,1.15058 -2.52539,1.72584 -4.12445,1.72577 l -7.95135,0 c -0.79962,7e-5 -1.1994,0.39984 -1.19934,1.19934 l 0,8.39997 c -6e-5,0.79961 0.39972,1.19939 1.19934,1.19934 l 7.50274,0 c 2.29791,5e-5 4.29681,0.85073 5.99671,2.55203 1.69976,1.7014 2.54967,3.70106 2.54974,5.99899 l 0,3.45154 c -7e-5,14.99942 -0.44944,26.09941 -1.34811,33.30002 -0.89882,7.20062 -2.22328,11.95068 -3.97339,14.25018 -1.75025,2.29949 -4.47623,3.44924 -8.17795,3.44925 -2.89923,-1e-5 -6.34923,-0.14955 -10.35004,-0.44861 -1.89824,-0.10072 -3.49736,-0.85145 -4.79736,-2.25219 -1.30009,-1.40077 -2.00047,-3.1006 -2.10113,-5.09949 -0.10075,-1.80054 0.49892,-3.30048 1.79901,-4.49982 1.3,-1.19934 2.85029,-1.69982 4.65088,-1.50146 2.99982,0.20142 4.84919,0.30212 5.54809,0.30212 1.00092,0 1.7013,-0.1503 2.10114,-0.4509 0.39972,-0.30059 0.77509,-1.17568 1.1261,-2.62527 0.35089,-1.44958 0.57519,-3.82384 0.67291,-7.1228 -6e-5,-0.20141 -0.12442,-0.42724 -0.37308,-0.67749 -0.24877,-0.25023 -0.47384,-0.325 -0.6752,-0.22431 -1.80059,0.29909 -3.45083,-0.0763 -4.95071,-1.1261 -1.49999,-1.04979 -2.3995,-2.47496 -2.69852,-4.27551 -0.39983,-1.89817 -1.24974,-5.84714 -2.54975,-11.84692 -0.20146,-1.10166 -0.002,-2.12705 0.59968,-3.07617 0.60114,-0.94907 1.45106,-1.52356 2.54974,-1.72348 1.09858,-0.19986 2.17356,0.0252 3.22494,0.6752 1.05128,0.65005 1.67613,1.52438 1.87455,2.62298 1.4007,6.39956 2.35132,11.14962 2.85186,14.25019 -5e-5,0.10072 0.0495,0.15107 0.14878,0.15106 0.0991,1e-5 0.14871,-0.0503 0.14877,-0.15106 l 0,-19.6518 c -6e-5,-0.90023 -0.39984,-1.35036 -1.19934,-1.3504 l -36.74927,0 c -2.30104,4e-5 -4.27629,-0.84988 -5.92575,-2.54974 -1.64949,-1.69979 -2.47422,-3.69869 -2.47421,-5.99671 z m 15.60058,-57.44934 0,7.649231 c -2e-5,0.900364 0.45011,1.350498 1.35041,1.350403 l 10.64758,0 c 0.79952,9.5e-5 1.1993,-0.450039 1.19934,-1.350403 l 0,-7.649231 c -4e-5,-0.802507 -0.39982,-1.203813 -1.19934,-1.203918 l -10.64758,0 c -0.9003,1.05e-4 -1.35043,0.401411 -1.35041,1.203918 z m 0,21.899414 0,7.498166 c -2e-5,0.79964 0.45011,1.19942 1.35041,1.19934 l 10.64758,0 c 0.79952,8e-5 1.1993,-0.3997 1.19934,-1.19934 l 0,-7.498166 c -4e-5,-0.900185 -0.39982,-1.350319 -1.19934,-1.350402 l -10.64758,0 c -0.9003,8.3e-5 -1.35043,0.450217 -1.35041,1.350402 z m 0,21.597286 0,8.39997 c -2e-5,0.79961 0.45011,1.19939 1.35041,1.19934 l 10.64758,0 c 0.79952,5e-5 1.1993,-0.39973 1.19934,-1.19934 l 0,-8.39997 c -4e-5,-0.7995 -0.39982,-1.19927 -1.19934,-1.19934 l -10.64758,0 c -0.9003,7e-5 -1.35043,0.39984 -1.35041,1.19934 z m 103.64685,4.80195 -7.49816,0 c -0.9004,5e-5 -1.24982,0.45018 -1.04828,1.3504 3.50024,19.69913 9.55034,36.89882 18.15033,51.59912 1.09849,1.90125 1.42274,3.92685 0.97274,6.07681 -0.45027,2.14996 -1.52525,3.87496 -3.22494,5.17502 -1.69997,1.30004 -3.59968,1.74941 -5.69916,1.34811 -2.09974,-0.40131 -3.70038,-1.50071 -4.80194,-3.29818 -9.6986,-15.802 -16.59862,-36.10227 -20.70007,-60.90088 -0.19847,-0.90022 -0.69744,-1.35035 -1.49689,-1.3504 l -7.80029,0 c -0.90037,5e-5 -1.3505,0.39983 -1.35041,1.19934 -0.90036,24.39883 -3.90023,44.34815 -8.99963,59.84802 -0.70199,1.90124 -2.02798,3.22722 -3.97797,3.97796 -1.95015,0.75073 -3.82393,0.57525 -5.62133,-0.52642 -1.90132,-1.09864 -3.2769,-2.72294 -4.12674,-4.8729 -0.84999,-2.14996 -0.92552,-4.3251 -0.2266,-6.52542 2.80144,-9.10033 4.80187,-19.27564 6.00129,-30.52597 1.19926,-11.25026 1.79893,-25.77585 1.79901,-43.576812 l 0,-31.947327 c -8e-5,-2.300914 0.84983,-4.301339 2.54974,-6.001281 1.69974,-1.699713 3.70017,-2.549627 6.00128,-2.549744 l 41.09802,0 c 2.3009,1.17e-4 4.30132,0.850031 6.00129,2.549744 1.69969,1.699942 2.5496,3.700367 2.54974,6.001281 l 0,44.398499 c -1.4e-4,2.30109 -0.85005,4.30151 -2.54974,6.00128 -1.69997,1.69989 -3.70039,2.5498 -6.00129,2.54975 z m -34.19952,-15.00092 0,0.15106 c -1e-4,0.90034 0.40121,1.35047 1.20392,1.3504 l 24.89777,0 c 0.90014,7e-5 1.35027,-0.39971 1.3504,-1.19934 l 0,-31.649776 c -1.3e-4,-0.900166 -0.45026,-1.3503 -1.3504,-1.350403 l -24.75129,0 c -0.90036,1.03e-4 -1.3505,0.450237 -1.3504,1.350403 z m -76.19934,42.75055 c -1.09865,11.80116 -2.44905,21.75141 -4.05121,29.85077 -0.29909,1.40075 -1.07347,2.50091 -2.32315,3.30047 -1.24971,0.79956 -2.57493,0.99945 -3.97568,0.59967 -1.40076,-0.39978 -2.50092,-1.22528 -3.30047,-2.4765 -0.79957,-1.25122 -1.04981,-2.62604 -0.75074,-4.12445 2.10266,-10.19896 3.55377,-19.69907 4.35334,-28.50036 0.19835,-1.40073 0.82243,-2.52606 1.87225,-3.37601 1.04979,-0.84988 2.22472,-1.22448 3.52478,-1.12381 1.40074,0.10074 2.57643,0.75076 3.52707,1.95007 0.9506,1.19937 1.32521,2.49942 1.12381,3.90015 z m 9.30176,30.89905 c -1.30008,0.1007 -2.42541,-0.24872 -3.37601,-1.04828 -0.95065,-0.79956 -1.47631,-1.84937 -1.577,-3.14942 -0.29909,-7.4005 -0.84841,-16.30094 -1.64794,-26.70135 -0.10074,-1.30002 0.22428,-2.44977 0.97503,-3.44925 0.75071,-0.99942 1.7761,-1.5495 3.07617,-1.65024 1.19932,-0.20138 2.32389,0.0733 3.37372,0.82398 1.04978,0.75076 1.62503,1.77615 1.72577,3.07617 0.79953,8.20009 1.44955,17.19972 1.95007,26.9989 0.10068,1.30005 -0.2991,2.42538 -1.19934,3.37601 -0.9003,0.95062 -2.00045,1.52511 -3.30047,1.72348 z m 5.92346,-34.7992 c 0.7507,-1.00094 1.72573,-1.60137 2.92511,-1.8013 1.1993,-0.19985 2.29946,0.0504 3.30048,0.75074 1.00093,0.70041 1.6006,1.65026 1.79901,2.84957 1.10164,6.30191 2.05226,13.10274 2.85186,20.40253 0.10067,1.30006 -0.19917,2.42463 -0.8995,3.37372 -0.70042,0.9491 -1.70064,1.52436 -3.00064,1.72577 -1.19938,0.19837 -2.27436,-0.0771 -3.22495,-0.82627 -0.95066,-0.7492 -1.52515,-1.72347 -1.72348,-2.92282 -0.40287,-3.10057 -1.35349,-9.85105 -2.85186,-20.25146 -0.20146,-1.19931 0.0732,-2.29947 0.82397,-3.30048 z"
       id="path3680" />
  </g>
  <g
     transform="scale(0.9900231,1.0100774)"
     id="text2835"
     style="font-size:39.60092545px;font-style:normal;font-weight:normal;text-align:center;text-anchor:middle;fill:#0566ae;fill-opacity:1;stroke:#0566ae;stroke-opacity:1;font-family:'Rounded M+ 1m medium';-inkscape-font-specification:'Rounded M+ 1m medium'">
    <path
       d="m 148.37345,223.8903 -19.61435,0 0,47.31372 -6.59854,0 0,-47.31372 -18.998,0 0,-5.72841 45.21089,0 z"
       id="path3650"
       style="font-size:74.25173187px;fill:#0566ae;stroke:#0566ae;stroke-width:2.97006941;stroke-miterlimit:4;font-family:IPAPGothic;-inkscape-font-specification:IPAPGothic" />
    <path
       d="m 170.30816,233.17176 c 5.2208,4e-5 9.61983,1.7524 13.19709,5.25709 3.67387,3.67394 5.51083,8.50803 5.51087,14.50229 -4e-5,5.77676 -1.80074,10.47791 -5.4021,14.10347 -3.52893,3.50473 -7.96421,5.25709 -13.30586,5.25709 -5.34169,0 -9.74071,-1.72819 -13.19708,-5.18457 -3.62558,-3.62557 -5.43836,-8.4234 -5.43836,-14.39353 0,-5.84923 1.83695,-10.61081 5.51087,-14.28475 3.50471,-3.50469 7.87956,-5.25705 13.12457,-5.25709 z m 0,4.89453 c -3.09384,3e-5 -5.71633,1.11187 -7.86749,3.33552 -2.73128,2.7313 -4.09691,6.52606 -4.0969,11.3843 -1e-5,4.78577 1.34145,8.52011 4.02439,11.20302 2.17533,2.17535 4.82199,3.26302 7.94,3.26302 3.19048,0 5.86132,-1.11184 8.01252,-3.33553 2.68289,-2.68291 4.02435,-6.47767 4.02439,-11.3843 -4e-5,-4.61654 -1.36567,-8.3267 -4.0969,-11.13051 -2.22371,-2.22365 -4.87038,-3.33549 -7.94001,-3.33552 z"
       id="path3652"
       style="font-size:74.25173187px;fill:#0566ae;stroke:#0566ae;stroke-width:2.97006941;stroke-miterlimit:4;font-family:IPAPGothic;-inkscape-font-specification:IPAPGothic" />
    <path
       d="m 230.49267,271.20402 -7.72247,0 -12.6895,-17.98284 -4.24192,4.0969 0,13.88594 -6.23599,0 0,-54.89117 6.23599,0 0,35.1318 15.58996,-17.22147 8.01252,0 -15.37243,15.37243 z"
       id="path3654"
       style="font-size:74.25173187px;fill:#0566ae;stroke:#0566ae;stroke-width:2.97006941;stroke-miterlimit:4;font-family:IPAPGothic;-inkscape-font-specification:IPAPGothic" />
    <path
       d="m 267.50977,234.22318 -17.94659,43.36185 c -2.29621,5.53503 -6.26017,8.30255 -11.89188,8.30256 l -0.83388,0 -1.55899,-5.80091 1.19643,0 c 4.03647,-10e-6 6.75564,-1.80071 8.15754,-5.40211 l 2.39288,-5.94594 -15.29992,-34.51545 7.21489,0 8.15754,20.77453 c 1.28102,3.35971 2.22367,5.98221 2.82795,7.8675 l 0.21753,0 c 0.9668,-2.99713 1.88528,-5.61963 2.75544,-7.8675 l 7.72247,-20.77453 z"
       id="path3656"
       style="font-size:74.25173187px;fill:#0566ae;stroke:#0566ae;stroke-width:2.97006941;stroke-miterlimit:4;font-family:IPAPGothic;-inkscape-font-specification:IPAPGothic" />
    <path
       d="m 290.09709,233.17176 c 5.2208,4e-5 9.61982,1.7524 13.19708,5.25709 3.67388,3.67394 5.51083,8.50803 5.51087,14.50229 -4e-5,5.77676 -1.80074,10.47791 -5.4021,14.10347 -3.52892,3.50473 -7.9642,5.25709 -13.30585,5.25709 -5.3417,0 -9.74072,-1.72819 -13.19709,-5.18457 -3.62557,-3.62557 -5.43836,-8.4234 -5.43836,-14.39353 0,-5.84923 1.83696,-10.61081 5.51088,-14.28475 3.5047,-3.50469 7.87956,-5.25705 13.12457,-5.25709 z m 0,4.89453 c -3.09384,3e-5 -5.71634,1.11187 -7.86749,3.33552 -2.73128,2.7313 -4.09691,6.52606 -4.0969,11.3843 -10e-6,4.78577 1.34145,8.52011 4.02438,11.20302 2.17533,2.17535 4.822,3.26302 7.94001,3.26302 3.19048,0 5.86131,-1.11184 8.01251,-3.33553 2.6829,-2.68291 4.02436,-6.47767 4.02439,-11.3843 -3e-5,-4.61654 -1.36566,-8.3267 -4.0969,-11.13051 -2.22371,-2.22365 -4.87037,-3.33549 -7.94,-3.33552 z"
       id="path3658"
       style="font-size:74.25173187px;fill:#0566ae;stroke:#0566ae;stroke-width:2.97006941;stroke-miterlimit:4;font-family:IPAPGothic;-inkscape-font-specification:IPAPGothic" />
    <path
       d="m 366.52416,229.69121 c -2.75546,-4.76153 -6.87653,-7.14232 -12.3632,-7.14237 -3.09384,5e-5 -5.57131,0.96686 -7.43242,2.90045 -1.42608,1.5953 -2.1391,3.43226 -2.13909,5.51088 -10e-6,2.29623 0.91846,4.16944 2.75543,5.61963 1.35353,1.03937 4.13314,2.42917 8.33882,4.16941 l 2.50165,1.05142 c 5.60752,2.24788 9.43854,4.73744 11.49306,7.46868 1.78858,2.3929 2.68289,5.07582 2.68293,8.04877 -4e-5,4.7616 -1.7524,8.5201 -5.25709,11.27553 -3.16636,2.46539 -7.17866,3.69809 -12.0369,3.69809 -8.12129,0 -14.38144,-3.08174 -18.78046,-9.24522 l 5.11205,-3.87936 c 3.48054,4.95496 8.06084,7.43243 13.74092,7.43243 2.70707,0 5.01535,-0.64052 6.92485,-1.92156 2.36867,-1.71609 3.55303,-4.0002 3.55306,-6.85233 -3e-5,-2.22367 -0.87017,-4.20565 -2.61041,-5.94594 -1.86116,-1.78859 -5.29336,-3.63763 -10.29663,-5.54713 l -2.17534,-0.83388 c -8.41134,-3.21464 -12.617,-7.86746 -12.617,-13.95845 0,-4.03643 1.36563,-7.38404 4.0969,-10.04284 3.06964,-2.92458 7.15445,-4.38689 12.25444,-4.38694 7.56533,5e-5 13.35416,2.97302 17.36649,8.91891 z"
       id="path3660"
       style="font-size:74.25173187px;fill:#0566ae;stroke:#0566ae;stroke-width:2.97006941;stroke-miterlimit:4;font-family:IPAPGothic;-inkscape-font-specification:IPAPGothic" />
    <path
       d="m 400.82207,269.13745 c -2.73128,1.90947 -5.54714,2.8642 -8.44758,2.8642 -5.75259,0 -8.62887,-3.23884 -8.62886,-9.71654 l 0,-23.52996 -5.03955,0 0,-4.53197 5.03955,0 0,-8.30256 6.09096,-3.04548 0,11.34804 10.26037,0 0,4.53197 -10.26037,0 0,22.65983 c -10e-6,3.79477 1.2931,5.69215 3.87936,5.69215 1.74026,0 3.39593,-0.66469 4.96704,-1.99407 z"
       id="path3662"
       style="font-size:74.25173187px;fill:#0566ae;stroke:#0566ae;stroke-width:2.97006941;stroke-miterlimit:4;font-family:IPAPGothic;-inkscape-font-specification:IPAPGothic" />
    <path
       d="m 438.45553,271.20402 -5.65589,0 c -0.846,-1.86112 -1.38983,-3.77059 -1.63151,-5.7284 l -0.21753,0 c -2.80381,4.49571 -6.9853,6.74356 -12.54449,6.74356 -3.81895,0 -6.93693,-1.20852 -9.35397,-3.62557 -2.12701,-2.127 -3.19051,-4.72532 -3.19051,-7.79498 0,-7.63786 6.58645,-11.65015 19.75937,-12.0369 l 4.96704,-0.14503 0,-1.92155 c -3e-5,-2.58621 -0.74931,-4.61653 -2.24786,-6.09096 -1.52276,-1.54688 -3.49265,-2.32033 -5.90968,-2.32037 -4.15734,4e-5 -7.27533,2.01827 -9.35398,6.05471 l -5.51087,-2.5379 c 3.40803,-5.65586 8.41132,-8.4838 15.00987,-8.48384 4.51986,4e-5 8.01249,1.26899 10.47791,3.80685 2.27199,2.27206 3.408,5.48673 3.40804,9.64402 l 0,13.5959 c -4e-5,4.61657 0.66465,8.23005 1.99406,10.84046 z m -7.72247,-18.12786 -4.0969,0.0725 c -9.54735,0.21755 -14.32102,2.79171 -14.32101,7.72247 -1e-5,1.74029 0.568,3.17843 1.70402,4.31443 1.40188,1.37773 3.23883,2.06658 5.51087,2.06658 3.16631,0 5.90966,-1.16018 8.23005,-3.48055 1.98195,-2.05448 2.97294,-4.53195 2.97297,-7.43243 z"
       id="path3664"
       style="font-size:74.25173187px;fill:#0566ae;stroke:#0566ae;stroke-width:2.97006941;stroke-miterlimit:4;font-family:IPAPGothic;-inkscape-font-specification:IPAPGothic" />
    <path
       d="m 456.47462,271.20402 -8.01251,0 0,-8.01251 8.01251,0 z"
       id="path3666"
       style="font-size:74.25173187px;fill:#0566ae;stroke:#0566ae;stroke-width:2.97006941;stroke-miterlimit:4;font-family:IPAPGothic;-inkscape-font-specification:IPAPGothic" />
  </g>
  <g
     transform="scale(0.99002314,1.0100774)"
     id="text2835-1"
     style="font-size:39.60092545px;font-style:normal;font-weight:normal;text-align:center;text-anchor:middle;fill:#0566ae;fill-opacity:1;stroke:#0566ae;stroke-width:1;stroke-opacity:1;font-family:'Rounded M+ 1m medium';-inkscape-font-specification:'Rounded M+ 1m medium'">
    <path
       d="m 607.73331,271.20402 -37.27089,0 0,-6.16347 c 2.92462,-6.81606 8.52008,-13.03996 16.7864,-18.6717 l 2.06658,-1.37772 c 4.22981,-2.90043 7.00941,-5.16036 8.33882,-6.77982 1.52271,-1.88526 2.28408,-3.96392 2.28411,-6.23598 -3e-5,-2.51369 -0.89434,-4.66486 -2.68292,-6.45352 -1.98201,-1.98194 -4.58034,-2.97292 -7.79499,-2.97297 -6.45353,5e-5 -10.68336,3.58936 -12.6895,10.76795 l -5.72841,-2.06658 c 2.75543,-9.42644 9.01558,-14.13968 18.78047,-14.13973 5.34165,5e-5 9.59565,1.58322 12.76202,4.7495 2.77956,2.85216 4.16937,6.29645 4.16941,10.33288 -4e-5,2.99718 -0.89435,5.71635 -2.68293,8.15754 -1.64363,2.36874 -5.4263,5.40213 -11.34804,9.10019 l -1.559,0.94265 c -7.54121,4.66492 -12.38738,9.64403 -14.53854,14.93736 l 31.10741,0 z"
       id="path3669"
       style="font-size:74.25173187px;fill:#0566ae;stroke:#0566ae;stroke-width:2.97006941;stroke-miterlimit:4;font-family:IPAPGothic;-inkscape-font-specification:IPAPGothic" />
    <path
       d="m 649.7537,271.20402 -7.72247,0 -12.68951,-17.98284 -4.24192,4.0969 0,13.88594 -6.23598,0 0,-54.89117 6.23598,0 0,35.1318 15.58997,-17.22147 8.01251,0 -15.37243,15.37243 z"
       id="path3671"
       style="font-size:74.25173187px;fill:#0566ae;stroke:#0566ae;stroke-width:2.97006941;stroke-miterlimit:4;font-family:IPAPGothic;-inkscape-font-specification:IPAPGothic" />
    <path
       d="m 708.81428,271.20402 -6.38101,0 0,-23.16741 c -5e-5,-6.23595 -2.4171,-9.35394 -7.25115,-9.35397 -2.29624,3e-5 -4.39907,1.06353 -6.30849,3.1905 -1.35359,1.4986 -2.29624,3.38389 -2.82795,5.65589 l 0,23.67499 -6.38101,0 0,-23.23992 c -3e-5,-6.18761 -2.28414,-9.28143 -6.85233,-9.28146 -2.41707,3e-5 -4.54407,1.06353 -6.38101,3.1905 -1.98199,2.19954 -2.97298,4.32654 -2.97297,6.38101 l 0,22.94987 -6.38101,0 0,-36.98084 5.94594,0 0,6.38101 c 2.44121,-4.73738 6.1272,-7.10609 11.058,-7.10612 5.38999,3e-5 8.9793,2.57419 10.76795,7.72247 2.68289,-5.14828 6.53808,-7.72244 11.56558,-7.72247 4.06059,3e-5 7.22692,1.43818 9.499,4.31443 1.93358,2.36874 2.9004,5.72843 2.90046,10.07909 z"
       id="path3673"
       style="font-size:74.25173187px;fill:#0566ae;stroke:#0566ae;stroke-width:2.97006941;stroke-miterlimit:4;font-family:IPAPGothic;-inkscape-font-specification:IPAPGothic" />
  </g>
  <g
     transform="matrix(0.56175222,0,0,0.56175222,95.55176,-288.37818)"
     id="g3833">
    <path
       d="m 817.5,699.43856 0,28.57786 299.9232,0.28867 -111.7135,-109.6928 -81.98089,0 81.40359,81.4036 L 817.5,699.43856 z"
       id="path3807"
       style="fill:#0566ae;fill-opacity:1;stroke:none" />
    <path
       d="m 817.5,770.34588 0,-28.57786 299.9232,-0.28867 -111.7135,109.6928 -81.98089,0 81.40359,-81.4036 -187.6324,0.57733 z"
       id="path3807-5"
       style="fill:#0566ae;fill-opacity:1;stroke:none" />
  </g>
</svg>
