<?xml version="1.0" encoding="UTF-8" standalone="no"?>
<!-- Created with Inkscape (http://www.inkscape.org/) -->

<svg
   xmlns:svg="http://www.w3.org/2000/svg"
   xmlns="http://www.w3.org/2000/svg"
   version="1.1"
   width="1200"
   height="300"
   id="svg5338">
  <defs
     id="defs5340" />
  <g
     transform="translate(0,-772.36217)"
     id="layer1">
    <rect
       width="1200"
       height="300"
       rx="50"
       ry="50"
       x="0"
       y="0"
       transform="translate(0,772.36217)"
       id="rect5348"
       style="color:#000000;fill:#000000;fill-opacity:1;stroke:none;stroke-width:99;marker:none;visibility:visible;display:inline;overflow:visible;enable-background:accumulate" />
    <rect
       width="1170"
       height="270"
       rx="50"
       ry="50"
       x="15"
       y="15"
       transform="translate(0,772.36217)"
       id="rect5860"
       style="color:#000000;fill:#ffffff;fill-opacity:1;fill-rule:nonzero;stroke:none;stroke-width:99;marker:none;visibility:visible;display:inline;overflow:visible;enable-background:accumulate" />
    <g
       id="text2814"
       style="font-size:250px;font-style:normal;font-weight:normal;text-align:center;text-anchor:middle;fill:#000000;fill-opacity:1;stroke:none;font-family:'Rounded M+ 1m medium';-inkscape-font-specification:'Rounded M+ 1m medium'">
      <path
         d="m 225.56934,1020.8577 c -31.33147,4.5014 -64.41504,7.6701 -99.2508,9.5063 -2.99583,0.1627 -5.61906,-0.7554 -7.86972,-2.7543 -2.25068,-1.9989 -3.45994,-4.4988 -3.62778,-7.4997 -0.16785,-3.0009 0.74895,-5.6254 2.7504,-7.8735 2.00143,-2.2481 4.5026,-3.4561 7.50351,-3.624 19.165,-1.1698 32.16293,-2.0039 38.99384,-2.5024 1.33254,0 1.99884,-0.8341 1.9989,-2.5024 l 0,-8.49918 c -6e-5,-1.50043 -0.66636,-2.25065 -1.9989,-2.25067 l -35.49958,0 c -2.66522,2e-5 -4.99727,-0.95747 -6.99615,-2.87247 -1.99892,-1.91495 -2.99837,-4.28896 -2.99835,-7.12204 -2e-5,-2.83301 0.99943,-5.2083 2.99835,-7.12585 1.99888,-1.91749 4.33093,-2.87625 6.99615,-2.87628 l 35.49958,0 c 1.33254,3e-5 1.99884,-0.66626 1.9989,-1.99891 l 0,-7.00378 c -6e-5,-1.5004 -0.66636,-2.25062 -1.9989,-2.25067 l -16.99829,0 -10.74982,0 c -3.83507,5e-5 -7.16911,-1.41647 -10.00214,-4.24957 -2.83307,-2.833 -4.24959,-6.16449 -4.24957,-9.99451 l 0,-49.0036 c -2e-5,-3.83493 1.4165,-7.16897 4.24957,-10.00214 2.83303,-2.83292 6.16707,-4.24944 10.00214,-4.24957 l 27.74811,0 c 1.33254,1.3e-4 1.99884,-0.66617 1.9989,-1.9989 l 0,-6.99616 c -6e-5,-1.50031 -0.66636,-2.25053 -1.9989,-2.25067 l -37.49848,0 c -2.66522,1.4e-4 -4.99854,-0.95862 -6.99997,-2.87628 -2.00145,-1.91738 -3.00218,-4.29266 -3.00216,-7.12585 -2e-5,-2.8329 1.00071,-5.20818 3.00216,-7.12586 2.00143,-1.91736 4.33475,-2.87612 6.99997,-2.87628 l 37.49848,0 c 1.33254,1.6e-4 1.99884,-0.66614 1.9989,-1.9989 l 0,-8.24738 c -6e-5,-1.33243 -0.66636,-1.99873 -1.9989,-1.9989 -14.33314,0.99708 -24.9151,1.66338 -31.74591,1.9989 -3.00092,0.16802 -5.62671,-0.83143 -7.87735,-2.99835 -2.25069,-2.16657 -3.45868,-4.75039 -3.62397,-7.75146 -0.16532,-3.00072 0.79344,-5.58454 2.87629,-7.75147 2.0828,-2.16656 4.62466,-3.33385 7.62558,-3.50189 29.83087,-1.50026 60.57984,-4.49861 92.247,-8.99506 3.16862,-0.50334 6.00294,0.16169 8.50296,1.99509 2.49977,1.83379 3.9163,4.33369 4.24958,7.49969 0.33302,3.16639 -0.41721,5.95875 -2.25067,8.37708 -1.83373,2.4187 -4.3349,3.87718 -7.50351,4.37546 -6.50036,1.00217 -16.91702,2.33477 -31.25,3.9978 -1.50054,0.33587 -2.25076,1.08609 -2.25067,2.25067 l 0,10.74982 c -9e-5,1.33276 0.66875,1.99906 2.00653,1.9989 l 38.49792,0 c 1.33247,1.6e-4 2.4985,0.50115 3.49808,1.50299 0.99931,1.00215 1.49904,2.16945 1.49917,3.50189 -1.3e-4,0.49861 0.16772,0.74784 0.50354,0.74768 l 20.24842,0 c 1.50029,1.6e-4 2.25051,-0.75007 2.25067,-2.25067 0.33045,-14.66861 0.49575,-26.41787 0.49591,-35.2478 -1.6e-4,-3.49916 1.24979,-6.45809 3.74985,-8.8768 2.49973,-2.41832 5.50062,-3.62758 9.00268,-3.62778 3.50172,2e-4 6.41869,1.20946 8.75092,3.62778 2.33187,2.41871 3.49789,5.37764 3.49808,8.8768 -1.9e-4,8.82993 -0.16549,20.57919 -0.49592,35.2478 -1.8e-4,1.5006 0.66612,2.25083 1.99891,2.25067 l 38.24615,0 c 3.83482,1.6e-4 7.16886,1.37472 10.00214,4.12369 2.83281,2.74927 4.24933,6.04135 4.24957,9.87625 l 0,1.9989 c -2.4e-4,25.16694 -0.12485,45.83368 -0.37384,62.00028 -0.24946,16.16674 -0.91576,30.29128 -1.9989,42.37366 -1.08361,12.08243 -2.20894,21.1665 -3.37601,27.2522 -1.16753,6.0857 -3.08505,10.9609 -5.75256,14.6255 -2.66797,3.6647 -5.33444,5.8721 -7.99942,6.6224 -2.66542,0.7502 -6.41399,1.1253 -11.24573,1.1253 -2.50265,0 -9.75311,-0.4985 -21.7514,-1.4954 -3.49953,-0.1678 -6.4165,-1.5437 -8.75092,-4.1275 -2.33477,-2.5838 -3.50206,-5.6254 -3.50189,-9.1247 -1.7e-4,-3.3315 1.20781,-6.04 3.62396,-8.1253 2.4158,-2.0854 5.20815,-2.9602 8.37708,-2.6245 5.83375,0.6663 10.66824,0.9994 14.50347,0.9994 1.66301,0 3.07826,-0.6256 4.24576,-1.8768 1.1671,-1.2512 2.29243,-4.00163 3.37601,-8.25122 1.08317,-4.24955 1.91604,-10.41536 2.49863,-18.49746 0.58216,-8.08203 1.03993,-19.08106 1.37329,-32.99713 0.33294,-13.91594 0.49951,-31.04137 0.49972,-51.37635 l 0,-8.00323 c -2.1e-4,-1.33247 -0.74789,-1.99877 -2.24304,-1.9989 l -24.75738,0 c -1.49555,1.3e-4 -2.24323,0.66643 -2.24305,1.9989 -1.66847,33.83392 -4.96055,61.376 -9.87625,82.62634 -4.91604,21.25043 -11.79139,39.70845 -20.62607,55.37415 -1.83629,3.3366 -4.71256,5.4207 -8.62884,6.2523 -3.91656,0.8316 -7.54052,0.164 -10.87189,-2.0027 l -5.9967,-3.5019 c -1.50057,-0.8291 -2.83572,-1.1622 -4.00543,-0.9995 z m -30.49469,-105.49924 14.49585,0 c 1.33249,10e-5 1.99879,-0.75013 1.9989,-2.25067 l 0,-7.4997 c -1.1e-4,-1.33249 -0.66641,-1.99879 -1.9989,-1.9989 l -14.49585,0 c -1.33778,1.1e-4 -2.00662,0.66641 -2.00653,1.9989 l 0,7.4997 c -9e-5,1.50054 0.66875,2.25077 2.00653,2.25067 z m 14.49585,14.99939 -14.49585,0 c -1.33778,8e-5 -2.00662,0.7503 -2.00653,2.25067 l 0,7.4997 c -9e-5,1.50051 0.66875,2.25074 2.00653,2.25067 l 14.49585,0 c 1.33249,7e-5 1.99879,-0.75016 1.9989,-2.25067 l 0,-7.4997 c -1.1e-4,-1.50037 -0.66641,-2.25059 -1.9989,-2.25067 z m -62.5,-24.74976 0,7.4997 c -5e-5,1.50054 0.75018,2.25077 2.25067,2.25067 l 14.74762,0 c 1.33254,10e-5 1.99884,-0.75013 1.9989,-2.25067 l 0,-7.4997 c -6e-5,-1.33249 -0.66636,-1.99879 -1.9989,-1.9989 l -14.74762,0 c -1.50049,1.1e-4 -2.25072,0.66641 -2.25067,1.9989 z m 0,27.00043 0,7.4997 c -5e-5,1.50051 0.75018,2.25074 2.25067,2.25067 l 14.74762,0 c 1.33254,7e-5 1.99884,-0.75016 1.9989,-2.25067 l 0,-7.4997 c -6e-5,-1.50037 -0.66636,-2.25059 -1.9989,-2.25067 l -14.74762,0 c -1.50049,8e-5 -2.25072,0.7503 -2.25067,2.25067 z m 45.99762,62.5 0,6.25608 c -9e-5,1.3326 0.66875,1.9989 2.00653,1.9989 13.33099,-1.3326 23.49587,-2.4159 30.49469,-3.2501 1.99877,-0.33568 3.79041,0.1628 5.3749,1.4954 1.58425,1.3326 2.46035,3.0009 2.62833,5.0048 -1.3e-4,0.4985 0.16517,0.5799 0.49591,0.2442 7.5021,-13.82954 13.41996,-30.28613 17.7536,-49.36982 4.33335,-19.08359 7.25032,-43.79263 8.75092,-74.1272 -1.6e-4,-1.50032 -0.66646,-2.25054 -1.9989,-2.25067 l -16.25061,0 c -2.00413,1.3e-4 -3.67242,-0.70813 -5.00489,-2.12479 -1.33273,-1.41639 -1.99903,-3.1241 -1.9989,-5.12314 -1.3e-4,-0.66616 -0.33328,-0.99931 -0.99945,-0.99945 l -39.2456,0 c -1.33778,1.4e-4 -2.00662,0.75036 -2.00653,2.25067 l 0,6.99616 c -9e-5,1.33273 0.66875,1.99903 2.00653,1.9989 l 25.99334,0 c 3.83492,1.3e-4 7.16897,1.41665 10.00214,4.24957 2.83292,2.83317 4.24944,6.16721 4.24957,10.00214 l 0,49.0036 c -1.3e-4,3.83002 -1.41665,7.16151 -4.24957,9.99451 -2.83317,2.8331 -6.16722,4.24962 -10.00214,4.24957 l -25.99334,0 c -1.33778,5e-5 -2.00662,0.75027 -2.00653,2.25067 l 0,7.00378 c -9e-5,1.33265 0.66875,1.99894 2.00653,1.99891 l 30.24292,0 c 2.83801,3e-5 5.21456,0.95879 7.12967,2.87628 1.91484,1.91755 2.87233,4.29284 2.87246,7.12585 -1.3e-4,2.83308 -0.95762,5.20709 -2.87246,7.12204 -1.91511,1.915 -4.29166,2.87249 -7.12967,2.87247 l -30.24292,0 c -1.33778,2e-5 -2.00662,0.75024 -2.00653,2.25067 z"
         id="path2819" />
      <path
         d="m 392.32501,871.61151 c -2.00402,12.33432 -4.25469,23.75042 -6.75201,34.24835 -0.66633,3.16885 -2.37532,5.58609 -5.12696,7.25174 -2.75169,1.66585 -5.70935,2.08165 -8.87298,1.24741 -3.16876,-0.6662 -5.586,-2.37391 -7.25174,-5.12314 -1.66576,-2.74902 -2.08156,-5.70795 -1.24741,-8.8768 5.16255,-22.66425 8.91112,-46.08139 11.24573,-70.25147 0.33567,-3.16347 1.66955,-5.74601 4.00162,-7.74765 2.33202,-2.00125 5.08242,-2.91805 8.25119,-2.75039 3.16362,0.33588 5.74617,1.5871 7.74765,3.75366 2.0014,2.16693 2.9182,4.83341 2.7504,7.99942 -0.16789,3.16638 -0.58497,7.75037 -1.25123,13.75198 -4e-5,1.33277 0.66626,1.99907 1.99891,1.99891 l 3.50189,0 c 1.5004,1.6e-4 2.25062,-0.66614 2.25067,-1.99891 l 0,-23.00262 c -5e-5,-3.667 1.2499,-6.75055 3.74985,-9.25064 2.49984,-2.4997 5.58338,-3.74965 9.25064,-3.74985 3.66713,2e-4 6.79263,1.25015 9.37652,3.74985 2.58375,2.50009 3.87566,5.58364 3.87574,9.25064 l 0,23.00262 c -8e-5,1.33277 0.66622,1.99907 1.9989,1.99891 l 11.00158,0 c 3.16357,1.6e-4 5.82877,1.08353 7.99561,3.25012 2.16665,2.1669 3.25002,4.83338 3.25012,7.99942 -1e-4,3.16635 -1.08347,5.83282 -3.25012,7.99942 -2.16684,2.16689 -4.83204,3.25026 -7.99561,3.25012 l -11.00158,0 c -1.33268,1.4e-4 -1.99898,0.75036 -1.9989,2.25067 l 0,54.245 c -8e-5,1.33268 0.5823,1.83368 1.74713,1.50299 1.33252,-0.33561 3.49927,-0.8773 6.50024,-1.62506 3.00081,-0.7476 5.25148,-1.37321 6.75202,-1.87684 2.83295,-0.83405 5.4155,-0.41698 7.74765,1.25123 2.33195,1.66837 3.66582,3.91904 4.00161,6.75201 0.16775,3.33158 -0.66513,6.37189 -2.49862,9.12094 -1.8337,2.74919 -4.41879,4.62475 -7.75528,5.62668 -5.49834,1.66836 -10.33028,3.08488 -14.49585,4.24957 -1.33268,0.33576 -1.99898,1.25383 -1.9989,2.75421 l 0,66.99369 c -8e-5,3.6672 -1.29199,6.7927 -3.87574,9.3766 -2.58389,2.5838 -5.70939,3.8757 -9.37652,3.8757 -3.66726,0 -6.7508,-1.2919 -9.25064,-3.8757 -2.49995,-2.5839 -3.7499,-5.7094 -3.74985,-9.3766 l 0,-60.49344 c -5e-5,-0.50349 -0.25055,-0.9638 -0.7515,-1.38092 -0.50104,-0.41702 -1.00077,-0.54164 -1.49917,-0.37384 -6.50029,1.5005 -14.83412,3.33409 -25.00153,5.50079 -2.99583,0.66635 -5.74495,0.0407 -8.24737,-1.87683 -2.50246,-1.91747 -3.92025,-4.45933 -4.25339,-7.62558 -0.33316,-3.16614 0.41706,-6.04115 2.25067,-8.62503 1.83358,-2.58375 4.33475,-4.20881 7.50351,-4.87518 11.99846,-2.16668 21.33175,-4.08166 27.99988,-5.74494 1.33255,-0.33561 1.99885,-1.25368 1.9989,-2.75421 l 0,-60.74524 c -5e-5,-1.50031 -0.75027,-2.25053 -2.25067,-2.25067 l -6.50025,0 c -1.33264,1.4e-4 -2.16424,0.66644 -2.49481,1.9989 z m 156.49414,135.00209 c 3.0007,10e-5 5.33402,-2.084 6.99997,-6.2522 1.66555,-4.16822 3.24865,-13.96054 4.7493,-29.37703 1.50024,-15.4164 2.75146,-38.29185 3.75366,-68.6264 -0.16805,-0.16265 -0.3359,-0.32795 -0.50354,-0.49591 -8.16365,25.16691 -19.16268,48.45816 -32.99713,69.87381 -13.8348,21.41573 -29.50047,39.37403 -46.99707,53.87493 -2.83317,2.1668 -5.95868,3.0836 -9.37653,2.7504 -3.41808,-0.3331 -6.29436,-1.9162 -8.62884,-4.7493 -2.16686,-2.6652 -3.04169,-5.6228 -2.62451,-8.8729 0.41696,-3.2502 1.9581,-6.0425 4.62341,-8.3771 20.33475,-16.99829 37.83529,-38.12279 52.50168,-63.37359 14.66606,-25.25066 25.41714,-52.8754 32.25326,-82.8743 0.33041,-1.50029 -0.17058,-2.25051 -1.50299,-2.25067 l -15.74707,0 c -1.50062,1.6e-4 -2.41869,0.66646 -2.75421,1.9989 -6.50041,22.16607 -15.33397,42.99938 -26.5007,62.5 -11.16703,19.50081 -23.49993,35.83278 -36.99875,48.99598 -2.49747,2.33463 -5.45512,3.37731 -8.87298,3.12805 -3.41808,-0.24919 -6.29181,-1.70641 -8.62122,-4.37165 -2.16684,-2.67024 -3.1256,-5.71309 -2.87628,-9.12857 0.24913,-3.41537 1.62242,-6.29038 4.11987,-8.62503 24.66825,-23.6663 43.16952,-54.49919 55.50385,-92.49878 0.33045,-1.33244 -0.17055,-1.99874 -1.50299,-1.9989 l -15.25116,0 c -1.33274,1.6e-4 -2.33219,0.58253 -2.99836,1.74713 -8.33142,18.49888 -17.83001,34.74947 -28.49578,48.75183 -1.83625,2.49746 -4.37938,3.7881 -7.6294,3.87192 -3.25022,0.084 -5.95865,-1.04131 -8.1253,-3.376 -2.33469,-2.32941 -3.58463,-5.24511 -3.74985,-8.74711 -0.16539,-3.50177 0.75141,-6.58532 2.7504,-9.25064 15.66558,-21.66733 27.49876,-46.33314 35.49957,-73.99749 1.00187,-3.33639 2.96135,-5.96218 5.87845,-7.87735 2.91683,-1.91478 6.12499,-2.70696 9.62448,-2.37656 3.33136,0.3359 5.9139,1.87831 7.74765,4.62723 1.83345,2.74932 2.24925,5.70825 1.2474,8.8768 -1.33274,4.66429 -2.66534,8.82993 -3.9978,12.49695 -0.33075,1.33277 0.17025,1.99907 1.50299,1.9989 l 75.75226,0 c 3.82973,1.7e-4 7.12054,1.45866 9.87244,4.37546 2.75143,2.91714 4.04334,6.29314 3.87573,10.12802 -0.83438,43.49784 -1.79314,77.07986 -2.87628,100.74615 -1.08361,23.66642 -2.9172,41.62473 -5.5008,53.87502 -2.58404,12.2502 -5.33444,19.7512 -8.25119,22.5029 -2.91718,2.7516 -7.29264,4.1274 -13.12637,4.1275 -8.16365,-10e-5 -19.49583,-0.4171 -33.99658,-1.2513 -3.33167,-0.1678 -6.16472,-1.4597 -8.49915,-3.8757 -2.33475,-2.416 -3.58597,-5.2923 -3.75366,-8.6288 -0.16292,-3.1637 0.87976,-5.8289 3.12805,-7.9957 2.24797,-2.1667 4.9564,-3.1661 8.12531,-2.9983 12.334,0.6663 20.08292,0.9995 23.24676,0.9994 z"
         id="path2821" />
      <path
         d="m 671.07257,854.36145 c -2.16681,2.49751 -4.87524,3.87207 -8.1253,4.12369 -3.25018,0.25192 -6.12646,-0.70557 -8.62885,-2.87247 -5.83399,-5.16748 -13.4176,-11.41849 -22.75085,-18.75305 -2.49738,-1.99873 -3.9546,-4.62323 -4.37165,-7.87354 -0.41709,-3.24993 0.45774,-6.12621 2.62451,-8.62884 2.16672,-2.66501 4.91712,-4.16418 8.25119,-4.49753 3.33401,-0.33295 6.33363,0.49992 8.99888,2.49863 10.83368,8.50441 18.41729,14.6715 22.75085,18.50128 2.66513,2.16692 4.08166,4.95928 4.24957,8.37707 0.16778,3.41814 -0.83167,6.45972 -2.99835,9.12476 z m -6.75201,58.74634 c -2.16681,2.50254 -4.87524,3.87837 -8.12531,4.1275 -3.25017,0.24932 -6.12391,-0.70944 -8.62121,-2.87628 -10.50317,-9.33319 -19.58723,-16.9168 -27.2522,-22.75086 -2.50246,-1.99878 -3.92025,-4.58132 -4.25339,-7.74765 -0.33316,-3.16606 0.50226,-6.00038 2.50626,-8.50296 2.16673,-2.49721 4.87389,-3.95443 8.12149,-4.37164 3.24755,-0.41693 6.20648,0.37398 8.8768,2.37274 8.66695,6.33253 17.74846,13.75084 27.24457,22.25495 2.67022,2.32962 4.12998,5.16139 4.37927,8.49533 0.24916,3.33415 -0.7096,6.33377 -2.87628,8.99887 z m 10.49804,47.25647 c -7.49721,21.83027 -16.91187,41.99474 -28.24402,60.49344 -1.83618,3.0009 -4.50392,4.9184 -8.00323,5.7526 -3.49938,0.8341 -6.7495,0.2505 -9.75037,-1.751 -3.00091,-2.0014 -4.83451,-4.7518 -5.50079,-8.2511 -0.66632,-3.4994 -0.0814,-6.7495 1.75476,-9.7504 10.16232,-16.83043 19.15991,-35.32915 26.9928,-55.49623 1.16979,-3.16868 3.21319,-5.41935 6.13022,-6.75201 2.91691,-1.33253 5.95722,-1.41646 9.12094,-0.25177 3.16867,1.33775 5.50327,3.54773 7.00378,6.62994 1.50038,3.08233 1.66568,6.20784 0.49591,9.37653 z m 61.00464,-152.50397 c 18.66644,3.83524 38.5003,9.7531 59.50165,17.7536 3.16346,1.33279 5.41159,3.45757 6.74438,6.37436 1.33241,2.91715 1.41633,5.95873 0.25177,9.12476 -1.16495,3.16636 -3.24777,5.41576 -6.24847,6.7482 -3.00108,1.33276 -6.0859,1.41668 -9.25445,0.25177 -18.99736,-7.33422 -38.66338,-13.16816 -58.99811,-17.50183 -3.16378,-0.66612 -5.49583,-2.37383 -6.99616,-5.12314 -1.50056,-2.74894 -1.75233,-5.62395 -0.75531,-8.62503 1.16973,-3.33639 3.25382,-5.83756 6.25229,-7.50351 2.99823,-1.66555 6.1657,-2.16528 9.50241,-1.49918 z m 38.7497,141.50238 0,52.00193 c -1.7e-4,1.4954 0.75005,2.2431 2.25067,2.2431 l 55.0003,0 c 3.33127,0 6.12236,1.1253 8.37326,3.376 2.25044,2.2506 3.37577,4.9591 3.37601,8.1253 -2.4e-4,3.1662 -1.12557,5.8746 -3.37601,8.1253 -2.2509,2.2506 -5.04199,3.376 -8.37326,3.376 l -143.75305,0 c -3.33158,0 -6.0807,-1.0834 -8.24737,-3.2501 -2.16683,-2.1668 -3.2502,-4.9172 -3.25013,-8.2512 -7e-5,-3.3341 1.0833,-6.0845 3.25013,-8.2512 2.16667,-2.1668 4.91579,-3.2501 8.24737,-3.2501 l 56.99921,0 c 1.33246,0 1.99876,-0.7477 1.9989,-2.2431 l 0,-52.00193 c -1.4e-4,-1.50038 -0.66644,-2.25061 -1.9989,-2.25067 l -44.7464,0 c -3.16884,6e-5 -5.83658,-1.04135 -8.00324,-3.12424 -2.16683,-2.08275 -3.2502,-4.70853 -3.25012,-7.87735 -8e-5,-3.16866 1.08329,-5.87709 3.25012,-8.1253 2.16666,-2.24804 4.8344,-3.37211 8.00324,-3.37219 l 44.7464,0 c 1.33246,8e-5 1.99876,-0.66622 1.9989,-1.99891 l 0,-42.50335 c -1.4e-4,-1.50032 -0.66644,-2.25054 -1.9989,-2.25067 l -53.74909,0 c -3.33158,1.3e-4 -6.12267,-1.12521 -8.37326,-3.37601 -2.25074,-2.25053 -3.37608,-4.95897 -3.376,-8.12531 -8e-5,-3.16605 1.16595,-5.91517 3.49807,-8.24737 2.33197,-2.3319 5.08237,-3.49792 8.25119,-3.49808 l 137.49695,0 c 3.16852,1.6e-4 5.87822,1.12422 8.12912,3.37219 2.25044,2.24828 3.37577,5.04064 3.37601,8.37708 -2.4e-4,3.1638 -1.12557,5.87096 -3.37601,8.12149 -2.2509,2.2508 -4.9606,3.37614 -8.12912,3.37601 l -51.99432,0 c -1.50062,1.3e-4 -2.25084,0.75035 -2.25067,2.25067 l 0,42.50335 c -1.7e-4,1.33269 0.75005,1.99899 2.25067,1.99891 l 42.7475,0 c 3.16852,8e-5 5.87695,1.12415 8.1253,3.37219 2.2479,2.24821 3.37197,4.95664 3.37219,8.1253 -2.2e-4,3.16882 -1.12429,5.7946 -3.37219,7.87735 -2.24835,2.08289 -4.95678,3.1243 -8.1253,3.12424 l -42.7475,0 c -1.50062,6e-5 -2.25084,0.75029 -2.25067,2.25067 z"
         id="path2823" />
      <path
         d="m 878.56921,864.11182 43.25104,0 c 0.49839,1.4e-4 0.8735,-0.25035 1.12534,-0.7515 0.2517,-0.50085 0.20974,-0.91665 -0.12589,-1.2474 -2.49742,-4.1655 -5.57969,-9.16529 -9.24682,-14.99939 -0.83421,-1.16968 -1.83366,-1.7546 -2.99836,-1.75477 l -24.25384,0 c -3.00093,1.7e-4 -5.58474,-1.0832 -7.75147,-3.25012 -2.16677,-2.16657 -3.25014,-4.74912 -3.25012,-7.74765 -2e-5,-2.99817 1.08335,-5.54003 3.25012,-7.62558 2.16673,-2.08518 4.75054,-3.12786 7.75147,-3.12805 l 76.75171,0 c 1.50033,1.9e-4 2.25056,-0.74749 2.25067,-2.24304 l 0,-4.75311 c -1.1e-4,-3.667 1.37445,-6.87516 4.12369,-9.62449 2.749,-2.74891 5.95716,-4.12347 9.62448,-4.12368 3.66706,2.1e-4 6.87522,1.37477 9.62448,4.12368 2.74899,2.74933 4.12355,5.95749 4.12369,9.62449 l 0,4.75311 c -1.4e-4,1.49555 0.75008,2.24323 2.25067,2.24304 l 76.75173,0 c 3.0007,1.9e-4 5.5845,1.04287 7.7514,3.12805 2.1666,2.08555 3.2499,4.62741 3.2502,7.62558 -3e-4,2.99853 -1.0836,5.58108 -3.2502,7.74765 -2.1669,2.16692 -4.7507,3.25029 -7.7514,3.25012 l -24.2539,0 c -1.4955,1.7e-4 -2.495,0.66647 -2.9983,1.99891 -1.9991,4.00305 -4.7482,9.00538 -8.2474,15.00702 -0.3359,0.33075 -0.3778,0.70459 -0.1259,1.12152 0.2516,0.41722 0.6267,0.62575 1.1254,0.62561 l 42.2515,0 c 2.8329,1.4e-4 5.3328,1.04156 7.4997,3.12423 2.1665,2.08297 3.2499,4.5409 3.2502,7.37381 -3e-4,2.83319 -1.0837,5.33308 -3.2502,7.4997 -2.1669,2.16687 -4.6668,3.25025 -7.4997,3.25012 l -201.00399,0 c -2.83307,1.3e-4 -5.33296,-1.08325 -7.49969,-3.25012 -2.16676,-2.16662 -3.25014,-4.66651 -3.25012,-7.4997 -2e-5,-2.83291 1.08336,-5.29084 3.25012,-7.37381 2.16673,-2.08267 4.66662,-3.12409 7.49969,-3.12423 z m 64.25476,-16.99829 c 1.99882,3.33166 4.83186,8.33145 8.49915,14.99939 0.49836,1.33274 1.58173,1.99904 3.25012,1.9989 l 49.49956,0 c 1.3324,1.4e-4 2.4158,-0.50085 3.2501,-1.50299 2.3344,-3.33135 5.5006,-8.49645 9.4986,-15.4953 0.3355,-0.33553 0.3775,-0.71192 0.1259,-1.12916 -0.252,-0.4169 -0.6271,-0.62544 -1.1254,-0.62561 l -71.99857,0 c -0.50363,1.7e-4 -0.88002,0.20871 -1.12916,0.62561 -0.24931,0.41724 -0.20608,0.79363 0.1297,1.12916 z m 23.75031,118.24798 -48.00415,0 -13.4964,0 c -3.83509,5e-5 -7.12717,-1.41648 -9.87625,-4.24957 -2.74916,-2.833 -4.12373,-6.16704 -4.12369,-10.00214 l 0,-43.49518 c -4e-5,-3.83493 1.37453,-7.12701 4.12369,-9.87625 2.74908,-2.74901 6.04116,-4.12357 9.87625,-4.12368 l 147.99497,0 c 3.8349,1.1e-4 7.1269,1.37467 9.8763,4.12368 2.7489,2.74924 4.1235,6.04132 4.1237,9.87625 l 0,43.49518 c -2e-4,3.8351 -1.3748,7.16914 -4.1237,10.00214 -2.7494,2.83309 -6.0414,4.24962 -9.8763,4.24957 l -69.24436,0 c -0.33582,5e-5 -0.54563,0.12466 -0.62942,0.37384 -0.0841,0.24927 -0.0421,0.45781 0.12588,0.62561 7.16641,4.33354 14.91532,9.66648 23.2468,15.99884 2.5023,1.83617 3.8781,4.29538 4.1275,7.37763 0.249,3.08229 -0.7097,5.7068 -2.8763,7.87353 -2.1669,2.33461 -4.8753,3.62654 -8.12532,3.87574 -3.25026,0.2492 -6.124,-0.6256 -8.62121,-2.62452 -5.66623,-4.33348 -12.91669,-9.33327 -21.75141,-14.99939 -3.00101,-1.83611 -4.66803,-4.50385 -5.00107,-8.00323 -0.33326,-3.49931 0.66746,-6.49766 3.00217,-8.99506 0.33049,-0.67134 0.0813,-1.17234 -0.74768,-1.50299 z m -48.00415,-51.75018 0,4.50134 c -7e-5,1.50054 0.66623,2.25076 1.9989,2.25067 l 117.00437,0 c 1.3324,9e-5 1.9987,-0.75013 1.9989,-2.25067 l 0,-4.50134 c -2e-4,-1.3325 -0.6665,-1.9988 -1.9989,-1.9989 l -117.00437,0 c -1.33267,10e-5 -1.99897,0.6664 -1.9989,1.9989 z m 0,25.7492 0,5.75257 c -7e-5,1.50051 0.66623,2.25073 1.9989,2.25067 l 117.00437,0 c 1.3324,6e-5 1.9987,-0.75016 1.9989,-2.25067 l 0,-5.75257 c -2e-4,-1.50037 -0.6665,-2.25059 -1.9989,-2.25067 l -117.00437,0 c -1.33267,8e-5 -1.99897,0.7503 -1.9989,2.25067 z m -10.24628,53.49732 c -5.16769,9.99965 -11.584,19.41685 -19.24896,28.25165 -2.16678,2.6652 -5.0011,4.2063 -8.50296,4.6234 -3.50192,0.4171 -6.75331,-0.2899 -9.75418,-2.121 -2.66522,-1.6683 -4.16439,-4.0435 -4.49753,-7.1258 -0.33316,-3.0823 0.49971,-5.7907 2.49863,-8.1253 6.50022,-7.5022 12.33416,-15.75216 17.50183,-24.74978 1.66826,-2.83301 4.00158,-4.83319 6.99997,-6.00052 2.99831,-1.16726 5.99793,-1.16599 8.99887,0.004 3.00084,1.33263 5.1269,3.49811 6.37817,6.49643 1.25117,2.99837 1.12655,5.91407 -0.37384,8.7471 z m 15.24353,-12.24518 c 2.67022,-2.67025 5.83896,-4.0054 9.50623,-4.00543 3.66711,3e-5 6.83331,1.3339 9.49859,4.00162 2.66512,2.66777 3.99771,5.83524 3.99781,9.50241 l 0,6.24847 c -10e-5,6.66806 0.45894,10.66846 1.3771,12.00106 0.91798,1.3326 3.79299,2.1667 8.62503,2.5024 6.00169,0.4985 13.91845,0.7477 23.75031,0.7477 8.8347,0 16.75146,-0.2492 23.75035,-0.7477 7.1663,-0.5035 11.791,-1.255 13.874,-2.2545 2.0827,-0.9994 3.5412,-3.4141 4.3755,-7.2441 0.8339,-3.5044 2.5429,-6.25606 5.1269,-8.25498 2.5837,-1.99888 5.5413,-2.7491 8.873,-2.25067 3.4992,0.50356 6.3742,2.12989 8.625,4.879 2.2505,2.74913 3.1241,5.87335 2.6207,9.37275 -1.4955,10.6658 -4.4099,17.5819 -8.7433,20.7481 -4.3336,3.1662 -12.7514,5.1663 -25.2532,6.0005 -8.0009,0.6663 -18.66678,0.9994 -31.99773,0.9995 -12.67,-10e-5 -23.33842,-0.2493 -32.00531,-0.7477 -13.33118,-0.8342 -21.66374,-2.959 -24.99771,-6.3744 -3.33411,-3.4154 -5.00114,-12.0404 -5.00107,-25.87507 l 0,-9.75036 c -7e-5,-3.66717 1.33253,-6.83337 3.9978,-9.4986 z m 129.50132,-6.50024 c 3.1686,-1.50041 6.5446,-1.83356 10.128,-0.99945 3.5831,0.83418 6.4581,2.66778 8.6251,5.50079 6.8306,9.16547 13.4148,19.16505 19.7525,29.99873 1.6629,2.6653 2.0368,5.5809 1.1215,8.7471 -0.9158,3.1662 -2.874,5.4169 -5.8746,6.7521 -3.0012,1.3351 -6.1267,1.5017 -9.3766,0.4997 -3.2503,-1.002 -5.707,-2.9195 -7.37,-5.7526 -6.002,-9.9996 -12.8353,-19.91522 -20.5001,-29.74698 -1.8364,-2.50242 -2.4213,-5.29478 -1.7548,-8.37708 0.6661,-3.08224 2.4158,-5.28968 5.249,-6.62231 z"
         id="path2825" />
    </g>
  </g>
</svg>
