<?xml version="1.0" encoding="UTF-8" standalone="no"?>
<!-- Created with Inkscape (http://www.inkscape.org/) -->

<svg
   xmlns:dc="http://purl.org/dc/elements/1.1/"
   xmlns:cc="http://creativecommons.org/ns#"
   xmlns:rdf="http://www.w3.org/1999/02/22-rdf-syntax-ns#"
   xmlns:svg="http://www.w3.org/2000/svg"
   xmlns="http://www.w3.org/2000/svg"
   xmlns:sodipodi="http://sodipodi.sourceforge.net/DTD/sodipodi-0.dtd"
   xmlns:inkscape="http://www.inkscape.org/namespaces/inkscape"
   version="1.1"
   width="1005.4"
   height="1005.4"
   id="svg2"
   xml:space="preserve"
   inkscape:version="0.48.4 r9939"
   sodipodi:docname="AJAX1.svg"><sodipodi:namedview
     pagecolor="#ffffff"
     bordercolor="#666666"
     borderopacity="1"
     objecttolerance="10"
     gridtolerance="10"
     guidetolerance="10"
     inkscape:pageopacity="0"
     inkscape:pageshadow="2"
     inkscape:window-width="1280"
     inkscape:window-height="1004"
     id="namedview28"
     showgrid="false"
     fit-margin-top="0.2"
     fit-margin-left="0.2"
     fit-margin-right="0.2"
     fit-margin-bottom="0.2"
     inkscape:zoom="0.51603029"
     inkscape:cx="430.64557"
     inkscape:cy="573.51953"
     inkscape:window-x="-8"
     inkscape:window-y="-8"
     inkscape:window-maximized="1"
     inkscape:current-layer="svg2" /><metadata
     id="metadata8"><rdf:RDF><cc:Work
         rdf:about=""><dc:format>image/svg+xml</dc:format><dc:type
           rdf:resource="http://purl.org/dc/dcmitype/StillImage" /></cc:Work></rdf:RDF></metadata><defs
     id="defs6" /><path
     inkscape:connector-curvature="0"
     style="fill:#ffffff;fill-opacity:1;stroke:#ed1c23;stroke-width:5;stroke-miterlimit:4;stroke-opacity:1;stroke-dasharray:none"
     d="M 2.7,502.70001 C 2.7,226.55763 226.55763,2.7 502.7,2.7 c 276.14238,0 500,223.85763 500,500.00001 0,276.14237 -223.85762,499.99999 -500,499.99999 -276.14237,0 -500,-223.85762 -500,-499.99999 z"
     id="path3854" /><path
     id="path14622"
     d="M 968.075,502.70001 C 968.075,245.68049 759.71952,37.325 502.7,37.325 245.68047,37.325 37.325,245.68049 37.325,502.70001 37.325,759.71953 245.68047,968.075 502.7,968.075 c 257.01952,0 465.375,-208.35547 465.375,-465.37499 z"
     style="fill:#ed1c23;fill-opacity:1;stroke:none"
     inkscape:connector-curvature="0" /><path
     id="path15520"
     d="m 835.55,502.7 c 0,-183.82797 -149.02204,-332.85 -332.85,-332.85 -183.82798,0 -332.85,149.02203 -332.85,332.85 0,183.82797 149.02202,332.84999 332.85,332.84999 183.82796,0 332.85,-149.02202 332.85,-332.84999 z"
     style="fill:#ffffff;fill-opacity:1;stroke:none"
     inkscape:connector-curvature="0" /><path
     style="fill:#ed1c23;fill-opacity:1;stroke:none"
     d="M 783.75726,851.49809 851.49809,783.75726 221.64272,153.9019 153.90189,221.64273 z"
     id="path3011"
     inkscape:connector-curvature="0"
     sodipodi:nodetypes="ccccc" /><path
     style="fill:#ffffff;fill-opacity:1;fill-rule:nonzero;stroke:#ffffff;stroke-width:20;stroke-miterlimit:4;stroke-opacity:1;stroke-dasharray:none"
     d="m 316.04375,399.66875 c -16.08975,0.025 -19.51913,2.21988 -32.84375,6.21875 -15.47631,4.38232 -41.05378,23.9253 -53.6875,37.625 -11.92308,13.02852 -18.47363,23.77226 -18.75,28.3125 -0.7896,11.80463 -0.84375,80.28125 -0.84375,80.28125 0,11.48879 12.11974,19.9375 23.6875,19.9375 l 46.90625,0 40.90625,0 10.90625,0 c -0.008,0.29314 -0.0312,0.57999 -0.0312,0.875 0,18.12149 14.67454,32.8125 32.875,32.8125 18.12149,0 32.9375,-14.69101 32.9375,-32.8125 0,-0.2949 -0.0235,-0.58197 -0.0312,-0.875 l 10.8125,0 270.9375,0 10.90625,0 c -0.008,0.29314 -0.0312,0.57999 -0.0312,0.875 0,18.12149 14.67455,32.8125 32.875,32.8125 18.1215,0 32.9375,-14.69101 32.9375,-32.8125 0,-0.2949 -0.0235,-0.58197 -0.0312,-0.875 l 9.46875,0 c 0,0 1.3125,-3.08381 1.3125,0 l 21.875,0.96875 c 3.4348,0 6.3125,-2.83823 6.3125,-6.3125 l 0,-98.625 0.0312,0 c 0,-9.63321 -23.34375,-57.375 -23.34375,-57.375 -2.5678,-6.4353 -14.10752,-11 -20.1875,-11 l -432.5,0 c -1.19181,-0.0178 -2.3336,-0.0329 -3.40625,-0.0312 z"
     id="path4303"
     inkscape:connector-curvature="0"
     sodipodi:nodetypes="sccccscccsssccccsssccccscccscs" /><path
     id="path15377"
     style="fill:#0066b3;fill-opacity:1;fill-rule:nonzero;stroke:none"
     d="m 753.8548,449.03836 c 0.3569,1.50026 -0.59379,2.68467 -2.05298,2.68467 l -21.87214,0 c -1.50025,0 -2.76362,-1.18441 -2.76362,-2.80469 l 0,-7.06699 c 0,-1.45919 1.26337,-2.76363 2.76362,-2.76363 l 18.55578,0 c 1.46236,0 3.04157,1.18442 3.47428,2.64677 l 1.89506,7.30387 z m 20.64824,27.51783 c 1.10545,2.88048 -0.59379,5.17193 -3.67168,5.17193 l -46.62633,0 c -3.00051,0 -5.48777,-2.48885 -5.48777,-5.52726 l 0,-41.4544 c 0,-3.07947 2.48884,-5.52725 5.48777,-5.52725 l 27.59679,0 c 3.00051,0 6.35634,2.28986 7.38283,5.13245 l 15.31839,42.20453 z m -82.98777,-27.63627 c 0,1.61712 -1.26337,2.80469 -2.76362,2.80469 l -35.2165,0 c -1.50026,0 -2.80469,-1.18442 -2.80469,-2.80469 l 0,-7.06699 c 0,-1.45919 1.30127,-2.76363 2.80469,-2.76363 l 35.2165,0 c 1.50025,0 2.76362,1.30444 2.76362,2.76363 l 0,7.06699 z m 8.52777,27.28094 c 0,3.03841 -2.48569,5.52726 -5.56674,5.52726 l -46.62633,0 c -3.07947,0 -5.52725,-2.48885 -5.52725,-5.52726 l 0,-41.4544 c 0,-3.07947 2.44778,-5.52725 5.52725,-5.52725 l 46.62633,0 c 3.07947,0 5.56674,2.44778 5.56674,5.52725 l 0,41.4544 z m -84.92231,-27.28094 c 0,1.61712 -1.22231,2.80469 -2.76362,2.80469 l -35.17702,0 c -1.57922,0 -2.80469,-1.18442 -2.80469,-2.80469 l 0,-7.06699 c 0,-1.45919 1.22231,-2.76363 2.80469,-2.76363 l 35.17702,0 c 1.53815,0 2.76362,1.30444 2.76362,2.76363 l 0,7.06699 z m 8.48829,27.28094 c 0,3.03841 -2.48885,5.52726 -5.56674,5.52726 l -46.58685,0 c -3.07947,0 -5.56673,-2.48885 -5.56673,-5.52726 l 0,-41.4544 c 0,-3.07947 2.48884,-5.52725 5.56673,-5.52725 l 46.58685,0 c 3.07947,0 5.56674,2.44778 5.56674,5.52725 l 0,41.4544 z M 538.7262,448.91992 c 0,1.61712 -1.22232,2.80469 -2.72573,2.80469 l -35.25598,0 c -1.50025,0 -2.76363,-1.18442 -2.76363,-2.80469 l 0,-7.06699 c 0,-1.45919 1.26338,-2.76363 2.76363,-2.76363 l 35.25598,0 c 1.50026,0 2.72573,1.30444 2.72573,2.76363 l 0,7.06699 z m 8.48828,27.28094 c 0,3.03841 -2.40988,5.52726 -5.48777,5.52726 l -46.7053,0 c -3.07947,0 -5.48777,-2.48885 -5.48777,-5.52726 l 0,-41.4544 c 0,-3.07947 2.40988,-5.52725 5.48777,-5.52725 l 46.7053,0 c 3.07946,0 5.48777,2.44778 5.48777,5.52725 l 0,41.4544 z m -84.9223,-27.28094 c 0,1.61712 -1.18441,2.80469 -2.72573,2.80469 l -35.2165,0 c -1.50025,0 -2.72572,-1.18442 -2.72572,-2.80469 l 0,-7.06699 c 0,-1.45919 1.22547,-2.76363 2.72572,-2.76363 l 35.2165,0 c 1.53816,0 2.72573,1.30444 2.72573,2.76363 l 0,7.06699 z m 8.48828,27.28094 c 0,3.03841 -2.48884,5.52726 -5.48777,5.52726 l -46.66582,0 c -3.0005,0 -5.52725,-2.48885 -5.52725,-5.52726 l 0,-41.4544 c 0,-3.07947 2.52675,-5.52725 5.52725,-5.52725 l 46.66582,0 c 3.0005,0 5.48777,2.44778 5.48777,5.52725 l 0,41.4544 z M 309.54258,448.91992 c 0,1.61712 -1.22231,2.80469 -2.80469,2.80469 l -31.7817,0 c -1.46236,0 -1.85716,-0.78961 -0.63169,-1.8161 l 10.22542,-8.92257 c 1.14335,-1.06755 3.31635,-1.89506 4.77713,-1.89506 l 17.41084,0 c 1.57922,0 2.80469,1.30443 2.80469,2.76363 l 0,7.06699 z m 8.4488,27.28094 c 0,3.03841 -2.44778,5.52726 -5.52725,5.52726 l -60.91823,0 c -3.03841,0 -5.56673,-2.48885 -5.56673,-5.52726 l 0,-3.31635 c 0,-2.95945 0.59378,-7.81712 1.34233,-10.58074 l 1.61711,-2.2488 c 5.56674,-7.22491 24.99109,-23.64875 31.03158,-28.189 4.42181,-3.35583 7.22491,-3.07947 7.22491,-3.07947 3.03841,0.15792 8.054,0.43271 11.09399,0.43271 l 14.17346,0 c 3.07947,0 5.52725,2.44778 5.52725,5.52725 l 0,41.4544 z m 67.94574,-27.28094 c 0,1.61712 -1.26337,2.80469 -2.76363,2.80469 l -35.25598,0 c -1.50025,0 -2.72572,-1.18442 -2.72572,-2.80469 l 0,-7.06699 c 0,-1.45919 1.22231,-2.76363 2.72572,-2.76363 l 35.25598,0 c 1.50026,0 2.76363,1.30444 2.76363,2.76363 l 0,7.06699 z m 8.48828,27.28094 c 0,3.03841 -2.44778,5.52726 -5.52725,5.52726 l -46.70529,0 c -3.00051,0 -5.48778,-2.48885 -5.48778,-5.52726 l 0,-41.4544 c 0,-3.07947 2.48885,-5.52725 5.48778,-5.52725 l 46.70529,0 c 3.07947,0 5.52725,2.44778 5.52725,5.52725 l 0,41.4544 z m 401.04175,-8.13296 c 0,-9.63321 -23.33294,-57.36499 -23.33294,-57.36499 -2.5678,-6.4353 -14.09449,-11.01503 -20.17447,-11.01503 l -432.50758,0 c -19.06903,-0.28426 -22.03006,1.93296 -36.24299,6.19842 -15.47631,4.38232 -41.0596,23.92511 -53.69332,37.62481 -11.92308,13.02852 -18.47682,23.76719 -18.75319,28.30743 -0.7896,11.80463 -0.83066,80.3031 -0.83066,80.3031 0,11.48879 12.12047,19.93759 23.68823,19.93759 l 87.80437,0 c 0,-25.26744 20.7272,-40.54635 43.74426,-40.54635 22.97758,0 43.70478,19.85863 43.70478,40.54635 l 270.95386,0 c 0,-25.26744 20.7272,-40.54635 43.74426,-40.54635 23.01707,0 43.70479,19.85863 43.70479,40.54635 l 21.8721,0.94753 c 3.4348,0 6.3169,-2.84259 6.3169,-6.31686 l 0,-98.622 z M 723.57334,605.736 c 18.1215,0 32.92664,-14.68671 32.92664,-32.8082 0,-18.20046 -14.80514,-32.92664 -32.92664,-32.92664 -18.20045,0 -32.88715,14.72618 -32.88715,32.92664 0,18.12149 14.6867,32.8082 32.88715,32.8082 M 332.28328,572.9278 c 0,-18.20046 14.6867,-32.92664 32.88716,-32.92664 18.12149,0 32.92664,14.72618 32.92664,32.92664 0,18.12149 -14.80515,32.8082 -32.92664,32.8082 -18.20046,0 -32.88716,-14.68671 -32.88716,-32.8082"
     inkscape:connector-curvature="0" /></svg>