<?xml version="1.0" encoding="UTF-8" standalone="no"?>
<!-- Created with Inkscape (http://www.inkscape.org/) -->

<svg
   xmlns:svg="http://www.w3.org/2000/svg"
   xmlns="http://www.w3.org/2000/svg"
   version="1.0"
   width="500"
   height="280"
   id="svg4203">
  <defs
     id="defs38" />
  <rect
     width="497.5"
     height="277.5"
     x="2.5"
     y="2.5"
     id="rect2870"
     style="color:#000000;fill:#0066b3;fill-opacity:1;fill-rule:nonzero;stroke:#ffffff;stroke-width:5;stroke-linecap:round;stroke-linejoin:round;stroke-miterlimit:4;stroke-opacity:1;stroke-dasharray:none;stroke-dashoffset:261;marker:none;visibility:visible;display:inline;overflow:visible;enable-background:accumulate" />
  <g
     id="text2848"
     style="font-size:40px;font-style:normal;font-weight:normal;text-align:center;text-anchor:middle;fill:#ffffff;fill-opacity:1;stroke:none;font-family:IPAGothic;-inkscape-font-specification:IPAGothic">
    <path
       d="m 154.26176,81.440819 c -1e-5,1.054684 -0.37172,1.942012 -1.11511,2.661987 -0.74342,0.719965 -1.6432,1.07995 -2.69934,1.079956 l -0.0725,0 c -1.05616,-6e-6 -1.96803,-0.383794 -2.73559,-1.151367 -0.76759,-0.767582 -1.15138,-1.679446 -1.15137,-2.735596 l 0,-53.92749 c -1e-5,-1.104439 0.40795,-2.064643 1.22388,-2.880615 0.8159,-0.815862 1.77537,-1.223821 2.87841,-1.223877 l 43.6333,0 c 1.10297,5.6e-5 2.06244,0.408015 2.87842,1.223877 0.81586,0.815972 1.22382,1.776176 1.22388,2.880615 l 0,53.92749 c -6e-5,1.05615 -0.38385,1.968014 -1.15137,2.735596 -0.76764,0.767573 -1.6795,1.151361 -2.73559,1.151367 l -0.0725,0 c -1.05621,-6e-6 -1.95599,-0.359991 -2.69934,-1.079956 -0.74347,-0.719975 -1.11517,-1.607303 -1.11512,-2.661987 -5e-5,-0.385256 -0.16851,-0.577883 -0.50537,-0.577881 l -35.27929,0 c -0.33694,-2e-6 -0.50539,0.192625 -0.50538,0.577881 z m 0,-50.904053 0,16.918945 c -1e-5,0.432161 0.19261,0.648225 0.57789,0.648194 l 35.13427,0 c 0.3852,3.1e-5 0.57783,-0.216033 0.57788,-0.648194 l 0,-16.918945 c -5e-5,-0.43208 -0.19268,-0.648144 -0.57788,-0.648193 l -35.13427,0 c -0.38528,4.9e-5 -0.5779,0.216113 -0.57789,0.648193 z m 0,24.695068 0,18.575684 c -1e-5,0.383794 0.19261,0.575689 0.57789,0.575684 l 35.13427,0 c 0.3852,5e-6 0.57783,-0.19189 0.57788,-0.575684 l 0,-18.575684 c -5e-5,-0.432104 -0.19268,-0.648168 -0.57788,-0.648193 l -35.13427,0 c -0.38528,2.5e-5 -0.5779,0.216089 -0.57789,0.648193 z"
       id="path3764"
       style="font-size:72px;fill:#ffffff;font-family:'Rounded M+ 1m medium';-inkscape-font-specification:'Rounded M+ 1m medium'" />
    <path
       d="m 240.22978,45.080467 c -6.57571,11.23098 -14.51955,21.214613 -23.83154,29.950928 -0.76759,0.672367 -1.64356,0.94849 -2.62793,0.828369 -0.98438,-0.120113 -1.74024,-0.6123 -2.26758,-1.476562 -0.57568,-0.911127 -0.79175,-1.930657 -0.64819,-3.058594 0.14355,-1.127921 0.62329,-2.076406 1.43921,-2.845459 10.51317,-9.74412 18.45774,-19.607636 23.83374,-29.590576 0.0952,-0.09664 0.1069,-0.205038 0.0352,-0.325196 -0.0718,-0.120076 -0.17947,-0.180134 -0.32299,-0.180175 l -20.15992,0 c -0.9126,4.1e-5 -1.693,-0.311971 -2.34118,-0.936036 -0.6482,-0.62398 -0.9723,-1.415728 -0.97229,-2.375244 -1e-5,-0.959427 0.32409,-1.763259 0.97229,-2.411499 0.64818,-0.648146 1.42858,-0.972242 2.34118,-0.97229 l 24.26221,0 c 0.38522,4.8e-5 0.57785,-0.191846 0.57788,-0.575683 l 0,-6.840088 c -3e-5,-1.056096 0.38376,-1.968327 1.15137,-2.736695 0.76754,-0.768251 1.67941,-1.152406 2.73559,-1.152465 1.05612,5.9e-5 1.96798,0.384214 2.7356,1.152465 0.76754,0.768368 1.15133,1.680599 1.15137,2.736695 l 0,6.840088 c -4e-5,0.383837 0.19258,0.575731 0.57788,0.575683 l 24.2622,0 c 0.91254,4.8e-5 1.69293,0.324144 2.34119,0.97229 0.64813,0.64824 0.97222,1.452072 0.97229,2.411499 -7e-5,0.959516 -0.32416,1.751264 -0.97229,2.375244 -0.64826,0.624065 -1.42865,0.936077 -2.34119,0.936036 l -20.15991,0 c -0.38383,4.1e-5 -0.47978,0.191935 -0.28784,0.575683 5.37593,10.032745 13.29633,19.848654 23.76123,29.447754 0.81585,0.769053 1.31976,1.717539 1.51172,2.845459 0.19182,1.127937 -0.0242,2.171637 -0.64819,3.131104 -0.52742,0.864262 -1.28327,1.356449 -2.26758,1.476562 -0.98444,0.120121 -1.86042,-0.156002 -2.62793,-0.828369 -9.31207,-8.736315 -17.25591,-18.719948 -23.83154,-29.950928 -0.0484,-0.0483 -0.10881,-0.07247 -0.18128,-0.07251 -0.0726,3.5e-5 -0.1088,0.04764 -0.10876,0.142823 l 0,22.322021 c -4e-5,0.383801 0.19258,0.575695 0.57788,0.575684 l 11.51806,0 c 0.91255,1.1e-5 1.69294,0.323741 2.34119,0.971191 0.64814,0.647471 0.97224,1.427499 0.97229,2.340088 -5e-5,0.912605 -0.32415,1.66883 -0.97229,2.268677 -0.64825,0.599859 -1.42864,0.899785 -2.34119,0.89978 l -11.51806,0 c -0.3853,5e-6 -0.57792,0.216069 -0.57788,0.648193 l 0,7.558594 c -4e-5,1.056148 -0.38383,1.968379 -1.15137,2.736695 -0.76762,0.768303 -1.67948,1.152458 -2.7356,1.152465 -1.05618,-7e-6 -1.96805,-0.384162 -2.73559,-1.152465 -0.76761,-0.768316 -1.1514,-1.680547 -1.15137,-2.736695 l 0,-7.558594 c -3e-5,-0.432124 -0.19266,-0.648188 -0.57788,-0.648193 l -11.51807,0 c -0.91261,5e-6 -1.69301,-0.299921 -2.34118,-0.89978 -0.64821,-0.599847 -0.97231,-1.356072 -0.97229,-2.268677 -2e-5,-0.912589 0.32408,-1.692617 0.97229,-2.340088 0.64817,-0.64745 1.42857,-0.97118 2.34118,-0.971191 l 11.51807,0 c 0.38522,1.1e-5 0.57785,-0.191883 0.57788,-0.575684 l 0,-22.322021 c -3e-5,-0.09518 -0.0363,-0.142788 -0.10876,-0.142823 -0.0725,3.5e-5 -0.13297,0.02421 -0.18128,0.07251 z"
       id="path3766"
       style="font-size:72px;fill:#ffffff;font-family:'Rounded M+ 1m medium';-inkscape-font-specification:'Rounded M+ 1m medium'" />
    <path
       d="m 289.98247,60.990868 c -0.57569,1.920426 -1.39161,4.152846 -2.44776,6.697265 -0.33545,0.815929 -0.93531,1.259776 -1.79956,1.331543 -0.86426,0.07179 -1.53662,-0.276112 -2.01709,-1.043701 l -0.0703,-0.145019 c -1.39307,-2.304186 -1.48975,-4.703597 -0.29004,-7.198243 3.0249,-6.432103 5.20898,-13.272184 6.55225,-20.520263 0.0967,-0.43209 -0.0711,-0.648154 -0.50318,-0.648194 l -3.24096,0 c -0.91114,4e-5 -1.67872,-0.311971 -2.30274,-0.936035 -0.62402,-0.623982 -0.93603,-1.391925 -0.93603,-2.303833 0,-0.911821 0.31201,-1.679765 0.93603,-2.303833 0.62402,-0.623977 1.3916,-0.935989 2.30274,-0.936035 l 3.38598,0 c 0.38378,4.6e-5 0.57568,-0.19258 0.57569,-0.577881 l 0,-7.773926 c -10e-6,-0.960881 0.34789,-1.78925 1.0437,-2.485107 0.69579,-0.695743 1.52379,-1.043643 2.48401,-1.043701 0.96019,5.8e-5 1.78819,0.347958 2.48401,1.043701 0.69578,0.695857 1.04368,1.524226 1.0437,2.485107 l 0,7.773926 c -2e-5,0.385301 0.19187,0.577927 0.57568,0.577881 l 1.58423,0 c 0.91258,4.6e-5 1.68089,0.312058 2.30493,0.936035 0.624,0.624068 0.93601,1.392012 0.93604,2.303833 -3e-5,0.911908 -0.31204,1.679851 -0.93604,2.303833 -0.62404,0.624064 -1.39235,0.936075 -2.30493,0.936035 l -1.22388,0 c -0.43214,4e-5 -0.55226,0.191935 -0.36035,0.575684 1.10447,2.352576 2.1848,4.800327 3.24097,7.343262 0.19187,0.38382 0.45554,0.479767 0.79101,0.287841 4.5117,-2.207485 8.35178,-4.847131 11.52027,-7.918945 0.0966,-0.0483 0.12081,-0.144613 0.0725,-0.28894 -0.0484,-0.144247 -0.12089,-0.216391 -0.21753,-0.216431 l -5.83155,0 c -0.81594,4e-5 -1.51174,-0.287801 -2.0874,-0.863525 -0.57571,-0.575642 -0.86355,-1.271442 -0.86352,-2.087403 -3e-5,-0.815874 0.28781,-1.51204 0.86352,-2.088501 0.57566,-0.57637 1.27146,-0.864578 2.0874,-0.864624 l 10.3689,0 c 0.43209,4.6e-5 0.7441,-0.167678 0.93604,-0.503174 0.47896,-0.86421 0.81514,-1.512403 1.00854,-1.94458 0.0468,-0.143506 0.0223,-0.275341 -0.0736,-0.395507 -0.096,-0.120069 -0.21573,-0.180127 -0.35925,-0.180176 -4.41654,0.191943 -7.80032,0.28789 -10.15137,0.287842 -0.86428,4.8e-5 -1.59634,-0.287793 -2.19616,-0.863526 -0.59988,-0.575633 -0.92398,-1.295603 -0.97229,-2.159912 -0.0484,-0.815865 0.22739,-1.535835 0.82727,-2.159912 0.59982,-0.623969 1.30771,-0.93598 2.12365,-0.936035 12.57711,-0.1435 23.8813,-1.079534 33.9126,-2.808106 0.8642,-0.143496 1.64422,0.03668 2.34009,0.540528 0.69573,0.503963 1.11578,1.188044 1.26013,2.052246 0.14422,0.864312 -0.0239,1.656425 -0.50427,2.376343 -0.48054,0.720022 -1.15217,1.151785 -2.01489,1.295288 -4.75202,0.815968 -9.96026,1.439991 -15.62476,1.87207 -0.43218,5e-5 -0.72002,0.191944 -0.86353,0.575684 -0.0967,0.240283 -0.45707,1.0562 -1.08105,2.447753 -0.1436,0.335496 -0.0235,0.50322 0.36035,0.503174 l 20.0874,0 c 0.81585,4.6e-5 1.51202,0.288254 2.0885,0.864624 0.57635,0.576461 0.86456,1.272627 0.86463,2.088501 -7e-5,0.815961 -0.28828,1.511761 -0.86463,2.087403 -0.57648,0.575724 -1.27265,0.863565 -2.0885,0.863525 l -8.56714,0 c -0.0967,4e-5 -0.16888,0.04838 -0.21643,0.14502 -0.0477,0.09672 -0.0473,0.192666 10e-4,0.287841 2.59125,2.592811 5.75897,4.897008 9.50318,6.912598 0.81585,0.432161 1.37981,1.104158 1.69189,2.015991 0.31194,0.911895 0.25189,1.775786 -0.18017,2.591675 -0.4322,0.815945 -1.09211,1.35574 -1.97974,1.619385 -0.88776,0.263698 -1.73957,0.156032 -2.55542,-0.322998 -0.91266,-0.528781 -2.23248,-1.417208 -3.95947,-2.665283 -0.33698,-0.23874 -0.50543,-0.142793 -0.50537,0.287841 l 0,1.801758 c -6e-5,1.103054 -0.39594,2.062526 -1.18763,2.878418 -0.7918,0.815942 -1.73992,1.2239 -2.84436,1.223877 l -17.20678,0 -2.7378,0 c -1.10306,2.3e-5 -2.06253,-0.407935 -2.87842,-1.223877 -0.81595,-0.815892 -1.2239,-1.775364 -1.22387,-2.878418 l 0,-1.94458 c -3e-5,-0.09665 -0.048,-0.180879 -0.14392,-0.252686 -0.096,-0.07175 -0.19229,-0.08347 -0.28894,-0.03516 -2.44779,1.775419 -4.77542,3.239529 -6.98291,4.392334 -0.33694,0.19192 -0.43362,0.479761 -0.29004,0.863526 0.0967,0.287133 0.28891,0.73098 0.57678,1.331543 0.28782,0.600608 0.48008,1.044455 0.57678,1.331543 0.14353,0.38381 0.4072,0.575704 0.79102,0.575683 l 37.87207,0 c 1.10443,2.1e-5 2.06463,0.408346 2.88061,1.224976 0.81585,0.816669 1.22381,1.776507 1.22388,2.879516 l 0,12.095948 c -7e-5,4.705078 -0.456,7.621579 -1.3678,8.749511 -0.91193,1.127925 -3.28827,1.691889 -7.12903,1.691895 -0.19195,-6e-6 -1.34405,-0.04834 -3.4563,-0.14502 -1.15142,-0.04834 -2.13506,-0.492558 -2.95092,-1.332641 -0.81597,-0.840091 -1.27227,-1.835818 -1.3689,-2.987183 l 0,-0.360351 c -5e-5,-0.38379 -0.21612,-0.575684 -0.64819,-0.575684 l -10.43921,0 c -0.24028,0 -0.36039,0.120117 -0.36035,0.360352 -4e-5,0.672362 -0.252,1.260496 -0.75586,1.764404 -0.50395,0.503903 -1.09208,0.755856 -1.76441,0.755859 l -0.86352,0 c -0.95951,-3e-6 -1.77543,-0.336184 -2.44776,-1.008545 -0.67239,-0.672364 -1.00857,-1.488281 -1.00854,-2.447754 l 0,-8.496826 c -3e-5,-1.103017 0.40792,-2.05077 1.22388,-2.843262 0.81588,-0.792467 1.77608,-1.188707 2.88061,-1.18872 l 16.12793,0 c 1.10444,1.3e-5 2.06464,0.396253 2.88062,1.18872 0.81586,0.792492 1.22382,1.740245 1.22387,2.843262 l 0,7.560791 c -5e-5,0.43213 0.19184,0.648194 0.57569,0.648194 1.1513,0 1.8233,-0.132202 2.01599,-0.396607 0.19256,-0.264403 0.28888,-1.068235 0.28894,-2.411499 l 0,-11.01709 c -6e-5,-0.383774 -0.21613,-0.575668 -0.6482,-0.575683 l -28.87207,0 c -0.38382,1.5e-5 -0.57571,0.191909 -0.57568,0.575683 l 0,16.633301 c -3e-5,1.00781 -0.3483,1.859615 -1.0448,2.55542 -0.69656,0.695796 -1.54873,1.043696 -2.55652,1.043701 -1.00784,-5e-6 -1.85964,-0.347905 -2.55542,-1.043701 -0.69582,-0.695805 -1.04372,-1.54761 -1.0437,-2.55542 l 0,-18.793213 c -2e-5,-0.04686 -0.0363,-0.09446 -0.10876,-0.142822 -0.0725,-0.04832 -0.13223,-0.04832 -0.17908,0 -0.48049,0.383806 -1.04482,0.491838 -1.69299,0.324097 -0.64822,-0.167708 -1.06826,-0.563582 -1.26014,-1.187623 -1.05617,-2.881326 -1.9922,-5.377418 -2.8081,-7.488281 -0.0484,-0.09665 -0.10842,-0.144994 -0.18018,-0.145019 -0.0718,2.5e-5 -0.10768,0.04836 -0.10766,0.145019 l 0,28.29419 c -2e-5,0.960933 -0.33583,1.789302 -1.00745,2.485107 -0.67164,0.695795 -1.48756,1.043695 -2.44775,1.043701 -0.96022,-6e-6 -1.78822,-0.347906 -2.48401,-1.043701 -0.69581,-0.695805 -1.04371,-1.524174 -1.0437,-2.485107 l 0,-21.383789 c -1e-5,-0.04686 -0.0242,-0.07029 -0.0725,-0.07031 -0.0484,1.9e-5 -0.0725,0.02346 -0.0725,0.07031 z m 41.40088,13.104492 0,-2.375244 c -5e-5,-0.383781 -0.21612,-0.575676 -0.6482,-0.575684 l -9.7207,0 c -0.43217,8e-6 -0.64823,0.191903 -0.64819,0.575684 l 0,2.375244 c -4e-5,0.432134 0.21602,0.648198 0.64819,0.648193 l 9.7207,0 c 0.43208,5e-6 0.64815,-0.216059 0.6482,-0.648193 z m 1.72705,-23.18335 0,-2.880615 c -6e-5,-0.432097 -0.19195,-0.648161 -0.57569,-0.648193 l -13.177,0 c -0.4307,3.2e-5 -0.64603,0.216096 -0.64599,0.648193 l 0,2.880615 c -4e-5,0.383817 0.21529,0.575712 0.64599,0.575684 l 13.177,0 c 0.38374,2.8e-5 0.57563,-0.191867 0.57569,-0.575684 z m -4.53516,-11.665283 -5.47339,0 c -0.38383,4e-5 -0.69584,0.168497 -0.93603,0.505371 -0.86284,1.151406 -1.53447,1.991493 -2.0149,2.520264 -0.0967,0.09525 -0.1088,0.190833 -0.0362,0.286743 0.0725,0.09598 0.15633,0.143958 0.25159,0.143921 l 10.94458,0 c 0.0966,3.7e-5 0.18085,-0.04794 0.25268,-0.143921 0.0717,-0.09591 0.0593,-0.191491 -0.0374,-0.286743 -0.47906,-0.528771 -1.15069,-1.368858 -2.01489,-2.520264 -0.24029,-0.336874 -0.5523,-0.505331 -0.93604,-0.505371 z"
       id="path3768"
       style="font-size:72px;fill:#ffffff;font-family:'Rounded M+ 1m medium';-inkscape-font-specification:'Rounded M+ 1m medium'" />
  </g>
  <g
     id="text2848-2"
     style="font-size:40px;font-style:normal;font-weight:normal;text-align:center;text-anchor:middle;fill:#ffffff;fill-opacity:1;stroke:none;font-family:IPAGothic;-inkscape-font-specification:IPAGothic">
    <path
       d="m 154.26176,219.44083 c -1e-5,1.05468 -0.37172,1.94201 -1.11511,2.66198 -0.74342,0.71997 -1.6432,1.07995 -2.69934,1.07996 l -0.0725,0 c -1.05616,-1e-5 -1.96803,-0.38379 -2.73559,-1.15137 -0.76759,-0.76758 -1.15138,-1.67944 -1.15137,-2.73559 l 0,-53.92749 c -1e-5,-1.10444 0.40795,-2.06465 1.22388,-2.88062 0.8159,-0.81586 1.77537,-1.22382 2.87841,-1.22388 l 43.6333,0 c 1.10297,6e-5 2.06244,0.40802 2.87842,1.22388 0.81586,0.81597 1.22382,1.77618 1.22388,2.88062 l 0,53.92749 c -6e-5,1.05615 -0.38385,1.96801 -1.15137,2.73559 -0.76764,0.76758 -1.6795,1.15136 -2.73559,1.15137 l -0.0725,0 c -1.05621,-1e-5 -1.95599,-0.35999 -2.69934,-1.07996 -0.74347,-0.71997 -1.11517,-1.6073 -1.11512,-2.66198 -5e-5,-0.38526 -0.16851,-0.57789 -0.50537,-0.57788 l -35.27929,0 c -0.33694,-1e-5 -0.50539,0.19262 -0.50538,0.57788 z m 0,-50.90406 0,16.91895 c -1e-5,0.43216 0.19261,0.64822 0.57789,0.64819 l 35.13427,0 c 0.3852,3e-5 0.57783,-0.21603 0.57788,-0.64819 l 0,-16.91895 c -5e-5,-0.43208 -0.19268,-0.64814 -0.57788,-0.64819 l -35.13427,0 c -0.38528,5e-5 -0.5779,0.21611 -0.57789,0.64819 z m 0,24.69507 0,18.57569 c -1e-5,0.38379 0.19261,0.57568 0.57789,0.57568 l 35.13427,0 c 0.3852,0 0.57783,-0.19189 0.57788,-0.57568 l 0,-18.57569 c -5e-5,-0.4321 -0.19268,-0.64817 -0.57788,-0.64819 l -35.13427,0 c -0.38528,2e-5 -0.5779,0.21609 -0.57789,0.64819 z"
       id="path3771"
       style="font-size:72px;fill:#ffffff;font-family:'Rounded M+ 1m medium';-inkscape-font-specification:'Rounded M+ 1m medium'" />
    <path
       d="m 226.76714,213.17642 c 3.98435,-1.00781 8.56857,-2.3518 13.75268,-4.03198 0.81589,-0.28857 1.59555,-0.21679 2.33899,0.21533 0.74337,0.43214 1.23519,1.08033 1.47546,1.94458 0.2402,0.91114 0.13217,1.78675 -0.32409,2.62683 -0.45634,0.84009 -1.14005,1.40442 -2.05115,1.693 -8.92825,2.97509 -17.85646,5.25512 -26.78467,6.84008 -0.91114,0.14355 -1.75086,-0.0487 -2.51916,-0.57678 -0.76832,-0.52808 -1.24842,-1.24768 -1.44031,-2.15881 -0.1919,-0.86426 -0.0359,-1.66846 0.46802,-2.4126 0.5039,-0.74414 1.18798,-1.18799 2.05224,-1.33154 0.91113,-0.14502 2.27929,-0.40942 4.1045,-0.79322 0.43211,-0.0952 0.64818,-0.33471 0.64819,-0.7185 l 0,-50.25806 c -1e-5,-1.05463 0.37169,-1.95404 1.11511,-2.69824 0.7434,-0.74408 1.66735,-1.11615 2.77185,-1.11621 1.10448,6e-5 2.02843,0.37213 2.77185,1.11621 0.74339,0.7442 1.1151,1.64361 1.11511,2.69824 l 0,16.41797 c -1e-5,0.4307 0.19261,0.64603 0.57789,0.646 l 12.95947,0 c 0.95944,3e-5 1.75119,0.31204 2.37524,0.93603 0.62399,0.62406 0.936,1.41617 0.93604,2.37634 -4e-5,0.96024 -0.31205,1.75236 -0.93604,2.37635 -0.62405,0.62405 -1.4158,0.93606 -2.37524,0.93603 l -12.95947,0 c -0.38528,3e-5 -0.5779,0.19193 -0.57789,0.57569 l 0,24.19189 c -1e-5,0.14503 0.0483,0.27723 0.14502,0.39661 0.0967,0.11939 0.21678,0.15564 0.36036,0.10876 z m 28.07885,9 c -3.35893,-0.24024 -5.44669,-0.92432 -6.2633,-2.05224 -0.81669,-1.12794 -1.22502,-3.94776 -1.22498,-8.45948 l 0,-47.44995 c -4e-5,-1.10297 0.37203,-2.01447 1.11621,-2.73449 0.7441,-0.71992 1.64425,-1.0799 2.70044,-1.07996 1.10445,6e-5 2.02877,0.37213 2.77295,1.11621 0.7441,0.7442 1.11617,1.64361 1.11621,2.69824 l 0,17.06397 c -4e-5,0.14505 0.06,0.25345 0.18018,0.32519 0.12007,0.0718 0.22773,0.0835 0.323,0.0352 4.51166,-2.83151 9.28778,-6.69503 14.32837,-11.59058 0.6723,-0.67231 1.51238,-1.00849 2.52026,-1.00854 1.00775,5e-5 1.82366,0.35966 2.44775,1.07885 0.6723,0.72075 1.00848,1.57293 1.00855,2.55652 -7e-5,0.98369 -0.36042,1.81169 -1.08106,2.48401 -6.5274,6.24027 -12.91118,11.11234 -19.15136,14.61621 -0.38384,0.24026 -0.57573,0.52811 -0.57569,0.86353 l 0,19.94458 c -4e-5,2.20752 0.0959,3.52735 0.28784,3.95947 0.19185,0.43213 0.83931,0.71997 1.94239,0.86353 1.29633,0.14502 2.71284,0.21753 4.24951,0.21753 1.5351,0 2.97504,-0.0725 4.31982,-0.21753 1.68012,-0.23877 2.7121,-1.01843 3.09595,-2.33899 0.38373,-1.32055 0.69574,-5.53234 0.93604,-12.63538 0.0483,-0.96092 0.43243,-1.7534 1.15246,-2.37744 0.71991,-0.624 1.53546,-0.88767 2.44666,-0.79102 0.96087,0.0952 1.77715,0.51492 2.44885,1.25904 0.67156,0.74416 0.98321,1.62013 0.93494,2.62793 -0.14363,3.36036 -0.27546,6.07252 -0.39551,8.13647 -0.12019,2.06397 -0.34834,3.92396 -0.68445,5.57996 -0.33625,1.656 -0.66035,2.86816 -0.97229,3.63647 -0.31208,0.76831 -0.83979,1.44031 -1.58313,2.01599 -0.74347,0.57568 -1.47516,0.94775 -2.19507,1.11621 -0.72003,0.16846 -1.77655,0.32446 -3.16955,0.46802 -2.39948,0.24023 -4.55939,0.36035 -6.47974,0.36035 -1.68023,0 -3.86431,-0.0959 -6.55225,-0.28784 z"
       id="path3773"
       style="font-size:72px;fill:#ffffff;font-family:'Rounded M+ 1m medium';-inkscape-font-specification:'Rounded M+ 1m medium'" />
    <path
       d="m 306.97392,166.95255 c -4.2715,4.89555 -9.86354,9.33549 -16.77612,13.31982 -0.81593,0.47904 -1.67982,0.58671 -2.59168,0.323 -0.91187,-0.26364 -1.63147,-0.80343 -2.15881,-1.61939 -0.48047,-0.81588 -0.61267,-1.65596 -0.39661,-2.52026 0.21606,-0.86422 0.73206,-1.53585 1.54798,-2.01489 5.75975,-3.40865 10.75193,-7.36885 14.97656,-11.88062 0.67234,-0.72065 1.47617,-1.11689 2.4115,-1.18872 0.93528,-0.0717 1.76328,0.18023 2.48401,0.75586 0.72068,0.62408 1.14072,1.40411 1.26013,2.34009 0.11936,0.93608 -0.13296,1.76445 -0.75696,2.48511 z m 17.35181,-4.89771 c 0.62398,-0.76752 1.41609,-1.22309 2.37634,-1.3667 0.96016,-0.1435 1.84822,0.0726 2.66419,0.64819 5.75971,4.03131 11.13568,8.35113 16.12793,12.95948 0.72063,0.62406 1.09307,1.4279 1.11731,2.4115 0.0241,0.98368 -0.3,1.83585 -0.97229,2.55651 -0.62409,0.71928 -1.41621,1.10307 -2.37635,1.15137 -0.96026,0.0484 -1.79998,-0.26363 -2.51916,-0.93603 -4.89703,-4.46334 -10.15362,-8.68721 -15.76978,-12.67163 -0.76762,-0.5273 -1.21147,-1.27107 -1.33154,-2.23133 -0.12016,-0.96015 0.10762,-1.8006 0.68335,-2.52136 z m -32.18335,36.28784 c -0.24025,0.14504 -0.6244,0.37356 -1.15247,0.68555 -0.52808,0.31203 -0.9115,0.53981 -1.15026,0.68335 -0.81593,0.48048 -1.69191,0.5768 -2.62793,0.28894 -0.93605,-0.28783 -1.6443,-0.84007 -2.12476,-1.65674 -0.48047,-0.81663 -0.57679,-1.68089 -0.28894,-2.59277 0.28784,-0.91185 0.84045,-1.60728 1.65784,-2.08631 8.2075,-4.70505 15.62327,-10.08102 22.24731,-16.12793 2.06394,-1.82515 4.39157,-2.73775 6.98291,-2.73779 l 1.44141,0 c 2.59127,4e-5 4.9189,0.91264 6.98291,2.73779 6.62397,6.04691 14.03973,11.42288 22.24731,16.12793 0.81732,0.47903 1.36993,1.17446 1.65784,2.08631 0.28777,0.91188 0.19146,1.77614 -0.28894,2.59277 -0.48054,0.81667 -1.18879,1.36891 -2.12476,1.65674 -0.9361,0.28786 -1.81207,0.19154 -2.62793,-0.28894 -0.23883,-0.14354 -0.62225,-0.37132 -1.15027,-0.68335 -0.52813,-0.31199 -0.91229,-0.54051 -1.15246,-0.68555 -0.0967,-0.0952 -0.20514,-0.10691 -0.3252,-0.0351 -0.12017,0.0718 -0.18023,0.18019 -0.18017,0.32519 l 0,21.23877 c -6e-5,1.05615 -0.38385,1.96838 -1.15137,2.73669 -0.76764,0.76831 -1.6795,1.15246 -2.7356,1.15247 l -0.7207,0 c -0.86431,-1e-5 -1.60845,-0.31202 -2.23242,-0.93603 -0.62408,-0.62403 -0.93609,-1.36817 -0.93604,-2.23243 -5e-5,-0.28857 -0.1436,-0.43286 -0.43066,-0.43286 l -31.10449,0 c -0.28713,0 -0.43069,0.14429 -0.43067,0.43286 -2e-5,0.86426 -0.31203,1.6084 -0.93603,2.23243 -0.62404,0.62401 -1.36818,0.93602 -2.23242,0.93603 l -0.72071,0 c -1.05616,-1e-5 -1.96803,-0.38416 -2.73559,-1.15247 -0.76759,-0.76831 -1.15138,-1.68054 -1.15137,-2.73669 l 0,-21.23877 c -10e-6,-0.145 -0.0601,-0.2534 -0.18017,-0.32519 -0.12013,-0.0718 -0.22853,-0.06 -0.3252,0.0351 z m 40.24731,15.04907 0,-12.81665 c -5e-5,-0.38377 -0.19194,-0.57566 -0.57568,-0.57568 l -30.81445,0 c -0.38381,2e-5 -0.57571,0.19191 -0.57569,0.57568 l 0,12.81665 c -2e-5,0.3838 0.19188,0.57569 0.57569,0.57569 l 30.81445,0 c 0.38374,0 0.57563,-0.19189 0.57568,-0.57569 z m -16.41577,-33.47973 c -4.99075,4.94388 -10.31838,9.40798 -15.98291,13.39233 -0.0967,0.0469 -0.13295,0.11868 -0.10876,0.21533 0.0242,0.0967 0.0846,0.14505 0.18127,0.14502 l 32.68653,0 c 0.0966,3e-5 0.15705,-0.0483 0.18127,-0.14502 0.0241,-0.0966 -0.0121,-0.16843 -0.10876,-0.21533 -5.6646,-3.98435 -10.99223,-8.44845 -15.98291,-13.39233 -0.28861,-0.28854 -0.57719,-0.28854 -0.86573,0 z"
       id="path3775"
       style="font-size:72px;fill:#ffffff;font-family:'Rounded M+ 1m medium';-inkscape-font-specification:'Rounded M+ 1m medium'" />
  </g>
  <g
     transform="translate(14,2)"
     id="text3863"
     style="font-size:40px;font-style:normal;font-weight:normal;text-align:center;text-anchor:middle;fill:#ffffff;fill-opacity:1;stroke:#ffffff;stroke-opacity:1;font-family:IPAGothic;-inkscape-font-specification:IPAGothic">
    <path
       d="m 424.60364,49.830589 3.125,0 0,13.359375 8.125,-13.359375 3.86719,0 -6.67969,10.800782 7.69531,17.207031 -3.88672,0 -5.8789,-14.570313 -3.24219,4.882813 0,9.6875 -3.125,0 z"
       id="path3868" />
    <path
       d="m 446.02942,58.834496 0.44922,1.484375 c 1.1328,-1.497375 2.3177,-2.246072 3.55469,-2.246094 1.23697,2.2e-5 2.194,0.748719 2.87109,2.246094 1.18488,-1.497375 2.48696,-2.246072 3.90625,-2.246094 2.29165,2.2e-5 3.43748,1.601582 3.4375,4.804687 l 0,14.960938 -2.87109,0 0,-14.414063 c -2e-5,-1.861961 -0.46877,-2.792949 -1.40625,-2.792968 -0.84637,1.9e-5 -1.52997,0.468768 -2.05079,1.40625 -0.29949,0.585954 -0.44923,1.223974 -0.44921,1.914062 l 0,13.886719 -2.79297,0 0,-14.453125 c -1e-5,-1.835919 -0.48178,-2.753887 -1.44532,-2.753906 -1.62761,1.9e-5 -2.44141,1.093768 -2.4414,3.28125 l 0,13.925781 -2.8711,0 0,-19.003906 z"
       id="path3870" />
  </g>
  <g
     transform="translate(14,140)"
     id="text3863-1"
     style="font-size:40px;font-style:normal;font-weight:normal;text-align:center;text-anchor:middle;fill:#ffffff;fill-opacity:1;stroke:#ffffff;stroke-opacity:1;font-family:IPAGothic;-inkscape-font-specification:IPAGothic">
    <path
       d="m 424.60364,49.830589 3.125,0 0,13.359375 8.125,-13.359375 3.86719,0 -6.67969,10.800782 7.69531,17.207031 -3.88672,0 -5.8789,-14.570313 -3.24219,4.882813 0,9.6875 -3.125,0 z"
       id="path3868-8" />
    <path
       d="m 446.02942,58.834496 0.44922,1.484375 c 1.1328,-1.497375 2.3177,-2.246072 3.55469,-2.246094 1.23697,2.2e-5 2.194,0.748719 2.87109,2.246094 1.18488,-1.497375 2.48696,-2.246072 3.90625,-2.246094 2.29165,2.2e-5 3.43748,1.601582 3.4375,4.804687 l 0,14.960938 -2.87109,0 0,-14.414063 c -2e-5,-1.861961 -0.46877,-2.792949 -1.40625,-2.792968 -0.84637,1.9e-5 -1.52997,0.468768 -2.05079,1.40625 -0.29949,0.585954 -0.44923,1.223974 -0.44921,1.914062 l 0,13.886719 -2.79297,0 0,-14.453125 c -1e-5,-1.835919 -0.48178,-2.753887 -1.44532,-2.753906 -1.62761,1.9e-5 -2.44141,1.093768 -2.4414,3.28125 l 0,13.925781 -2.8711,0 0,-19.003906 z"
       id="path3870-2" />
  </g>
  <path
     d="m 73.450412,21.92344 c -0.41062,0.002 -0.82296,0.27112 -1.136426,0.81443 L 45.418621,69.015575 c -0.678064,0.792601 -1.098546,1.842495 -1.098546,2.954695 0,2.518425 2.046209,4.564635 4.564634,4.564635 1.022713,0 1.954384,-0.334318 2.695856,-0.871253 0.03583,0.01027 0.08535,0.01261 0.126265,0.01261 l 6.622827,-3.857526 c 0,0 0,112.063204 0,185.650864 0,2.10933 0.91829,3.8449 3.851221,3.8449 2.932931,0 11.269534,0 11.269534,0 3.756514,0 8.336614,0 11.269542,0 2.932928,0 3.851213,-1.73557 3.851213,-3.8449 0,-13.43729 0,-185.650856 0,-185.650856 l 6.622827,3.857526 c 0.04092,0 0.09047,-0.0025 0.126273,-0.01261 0.741462,0.536935 1.673133,0.871253 2.695846,0.871253 2.518427,0 4.564637,-2.046209 4.564637,-4.564634 0,-1.1122 -0.42049,-2.162094 -1.09854,-2.954696 L 74.586838,22.73788 C 74.273372,22.19457 73.861032,21.926 73.450412,21.92344 z"
     id="path13506"
     style="fill:#ffffff;fill-opacity:1;fill-rule:nonzero;stroke:none" />
  <g
     id="text2877"
     style="font-size:40px;font-style:normal;font-weight:normal;text-align:center;text-anchor:middle;fill:#ffffff;fill-opacity:1;stroke:#ffffff;stroke-opacity:1;font-family:IPAGothic;-inkscape-font-specification:IPAGothic">
    <path
       d="m 166.70883,125.9653 -3.20312,0 -12.71485,-19.29687 c -0.96355,-1.45832 -2.1224,-3.43097 -3.47656,-5.91797 l -0.15625,0 0.0781,1.875 c 0.1302,4.14064 0.1953,6.90757 0.19531,8.30078 l 0,15.03906 -3.4375,0 0,-28.574217 4.72656,0 10.91797,16.601567 c 1.41925,2.21355 2.66925,4.32292 3.75,6.32812 l 0.15625,0 c -0.18232,-3.8802 -0.27346,-7.01171 -0.27344,-9.39453 l 0,-13.535157 3.4375,0 z"
       id="path3693"
       style="font-family:IPAPGothic;-inkscape-font-specification:IPAPGothic" />
    <path
       d="m 177.9393,101.80515 -3.92578,0 0,-4.003911 3.92578,0 z m -0.25391,24.16015 -3.4375,0 0,-19.92187 3.4375,0 z"
       id="path3695"
       style="font-family:IPAPGothic;-inkscape-font-specification:IPAPGothic" />
    <path
       d="m 202.27524,125.9653 -3.4375,0 0,-12.36328 c -2e-5,-3.3854 -1.38674,-5.07811 -4.16016,-5.07812 -2.85157,1e-5 -4.9349,1.69272 -6.25,5.07812 l 0,12.36328 -3.4375,0 0,-29.570311 3.4375,0 0,13.046871 c 1.80989,-2.52602 4.13411,-3.78904 6.97266,-3.78906 4.58331,2e-5 6.87498,2.58466 6.875,7.75391 z"
       id="path3697"
       style="font-family:IPAPGothic;-inkscape-font-specification:IPAPGothic" />
    <path
       d="m 217.64633,105.47702 c 2.81249,2e-5 5.18228,0.94403 7.10938,2.83203 1.97914,1.97918 2.96872,4.58335 2.96875,7.8125 -3e-5,3.11199 -0.97008,5.64454 -2.91016,7.59766 -1.90106,1.88802 -4.29038,2.83203 -7.16797,2.83203 -2.87761,0 -5.2474,-0.93099 -7.10937,-2.79297 -1.95313,-1.95312 -2.92969,-4.53775 -2.92969,-7.75391 0,-3.15102 0.98958,-5.71613 2.96875,-7.69531 1.88801,-1.888 4.24478,-2.83201 7.07031,-2.83203 z m 0,2.63672 c -1.66668,2e-5 -3.07943,0.59897 -4.23828,1.79687 -1.47136,1.47137 -2.20704,3.51564 -2.20703,6.13282 -1e-5,2.57813 0.72265,4.58985 2.16797,6.03515 1.17186,1.17188 2.59764,1.75782 4.27734,1.75782 1.71874,0 3.15754,-0.59896 4.31641,-1.79688 1.44529,-1.44531 2.16795,-3.48958 2.16797,-6.13281 -2e-5,-2.48697 -0.7357,-4.48566 -2.20703,-5.9961 -1.19794,-1.1979 -2.62372,-1.79685 -4.27735,-1.79687 z"
       id="path3699"
       style="font-family:IPAPGothic;-inkscape-font-specification:IPAPGothic" />
    <path
       d="m 250.59555,125.9653 -3.4375,0 0,-12.36328 c -2e-5,-3.3854 -1.39976,-5.07811 -4.19922,-5.07812 -2.82553,1e-5 -4.89584,1.69272 -6.21094,5.07812 l 0,12.36328 -3.4375,0 0,-19.92187 3.20313,0 0,3.59375 c 1.87499,-2.65623 4.26431,-3.98436 7.16797,-3.98438 4.60935,2e-5 6.91404,2.58466 6.91406,7.75391 z"
       id="path3701"
       style="font-family:IPAPGothic;-inkscape-font-specification:IPAPGothic" />
    <path
       d="m 260.96664,109.28561 c 1.77083,-2.53904 4.04947,-3.80857 6.83594,-3.80859 2.36978,2e-5 4.39451,0.83986 6.07422,2.51953 1.9531,1.95314 2.92967,4.64845 2.92969,8.08594 -2e-5,3.35938 -0.97659,6.00912 -2.92969,7.94922 -1.67971,1.67969 -3.73048,2.51953 -6.15234,2.51953 -2.69533,0 -5.02605,-1.13932 -6.99219,-3.41797 l -0.48828,2.94922 -2.67578,0 0,-29.687501 3.39843,0 z m 0,4.58985 0,4.64844 c 0,1.52344 0.83984,2.88411 2.51954,4.08203 1.14582,0.82031 2.37629,1.23047 3.6914,1.23047 1.53645,0 2.83853,-0.53386 3.90625,-1.60157 1.41925,-1.45832 2.12889,-3.48306 2.12891,-6.07422 -2e-5,-2.34373 -0.58596,-4.2643 -1.75781,-5.76171 -1.15887,-1.4453 -2.57163,-2.16796 -4.23829,-2.16797 -1.52344,1e-5 -2.95574,0.67059 -4.29687,2.01172 -1.30209,1.30209 -1.95313,2.51303 -1.95313,3.63281 z"
       id="path3703"
       style="font-family:IPAPGothic;-inkscape-font-specification:IPAPGothic" />
    <path
       d="m 298.66196,125.9653 -3.04688,0 c -0.45574,-1.0026 -0.74871,-2.03125 -0.8789,-3.08594 l -0.11719,0 c -1.51043,2.42188 -3.76303,3.63282 -6.75781,3.63282 -2.0573,0 -3.73699,-0.65104 -5.03907,-1.95313 -1.14583,-1.14583 -1.71875,-2.54557 -1.71875,-4.19922 0,-4.11457 3.54817,-6.27603 10.64453,-6.48437 l 2.67579,-0.0781 0,-1.03515 c -2e-5,-1.39322 -0.40367,-2.48697 -1.21094,-3.28125 -0.82033,-0.83332 -1.88152,-1.24999 -3.1836,-1.25 -2.23959,1e-5 -3.91927,1.08725 -5.03906,3.26172 l -2.96875,-1.36719 c 1.83593,-3.04686 4.53124,-4.57029 8.08594,-4.57031 2.43488,2e-5 4.31639,0.68361 5.64453,2.05078 1.22394,1.22397 1.83592,2.95574 1.83594,5.19531 l 0,7.32422 c -2e-5,2.48698 0.35805,4.43359 1.07422,5.83984 z m -4.16016,-9.76562 -2.20703,0.0391 c -5.14324,0.1172 -7.71485,1.50391 -7.71484,4.16016 -10e-6,0.9375 0.30598,1.71224 0.91796,2.32421 0.75521,0.74219 1.74479,1.11329 2.96875,1.11329 1.70572,0 3.18359,-0.625 4.4336,-1.875 1.06769,-1.10677 1.60154,-2.4414 1.60156,-4.00391 z"
       id="path3705"
       style="font-family:IPAPGothic;-inkscape-font-specification:IPAPGothic" />
    <path
       d="m 314.93149,110.43796 c -1.23699,-1.60155 -2.79949,-2.40233 -4.6875,-2.40235 -2.47397,2e-5 -3.71095,0.95054 -3.71094,2.85157 -10e-6,1.34116 1.33463,2.44793 4.00391,3.32031 l 1.30859,0.42969 c 3.78905,1.23699 5.68358,3.28125 5.68359,6.13281 -10e-6,1.91407 -0.78777,3.41797 -2.36328,4.51172 -1.25001,0.84635 -2.86459,1.26953 -4.84375,1.26953 -3.04688,0 -5.63151,-1.11328 -7.7539,-3.33984 l 2.16797,-1.97266 c 1.64062,1.75781 3.54165,2.63672 5.70312,2.63672 2.56509,0 3.84764,-0.99609 3.84766,-2.98828 -2e-5,-1.51041 -1.41278,-2.76692 -4.23828,-3.76953 l -1.36719,-0.46875 c -3.56771,-1.24999 -5.35157,-3.07942 -5.35156,-5.48829 -10e-6,-1.52342 0.52083,-2.80597 1.5625,-3.84765 1.24999,-1.24998 2.96874,-1.87498 5.15625,-1.875 2.92967,2e-5 5.33201,1.01564 7.20703,3.04687 z"
       id="path3707"
       style="font-family:IPAPGothic;-inkscape-font-specification:IPAPGothic" />
    <path
       d="m 340.40024,125.9653 -3.4375,0 0,-12.36328 c -2e-5,-3.3854 -1.38674,-5.07811 -4.16016,-5.07812 -2.85157,1e-5 -4.9349,1.69272 -6.25,5.07812 l 0,12.36328 -3.4375,0 0,-29.570311 3.4375,0 0,13.046871 c 1.80989,-2.52602 4.13411,-3.78904 6.97266,-3.78906 4.58331,2e-5 6.87498,2.58466 6.875,7.75391 z"
       id="path3709"
       style="font-family:IPAPGothic;-inkscape-font-specification:IPAPGothic" />
    <path
       d="m 351.14243,101.80515 -3.92579,0 0,-4.003911 3.92579,0 z m -0.25391,24.16015 -3.4375,0 0,-19.92187 3.4375,0 z"
       id="path3711"
       style="font-family:IPAPGothic;-inkscape-font-specification:IPAPGothic" />
  </g>
  <g
     id="text2877-0"
     style="font-size:40px;font-style:normal;font-weight:normal;text-align:center;text-anchor:middle;fill:#ffffff;fill-opacity:1;stroke:#ffffff;stroke-opacity:1;font-family:IPAGothic;-inkscape-font-specification:IPAGothic">
    <path
       d="m 214.36508,261.9653 -3.51562,0 0,-13.35937 -15.29297,0 0,13.35937 -3.51563,0 0,-28.57422 3.51563,0 0,12.28516 15.29297,0 0,-12.28516 3.51562,0 z"
       id="path3714"
       style="font-family:IPAPGothic;-inkscape-font-specification:IPAPGothic" />
    <path
       d="m 225.59555,237.80515 -3.92578,0 0,-4.00391 3.92578,0 z m -0.25391,24.16015 -3.4375,0 0,-19.92187 3.4375,0 z"
       id="path3716"
       style="font-family:IPAPGothic;-inkscape-font-specification:IPAPGothic" />
    <path
       d="m 236.04477,245.28561 c 1.77082,-2.53904 4.04947,-3.80857 6.83594,-3.80859 2.36977,2e-5 4.39451,0.83986 6.07422,2.51953 1.9531,1.95314 2.92966,4.64845 2.92968,8.08594 -2e-5,3.35938 -0.97658,6.00912 -2.92968,7.94922 -1.67971,1.67969 -3.73049,2.51953 -6.15235,2.51953 -2.69532,0 -5.02605,-1.13932 -6.99219,-3.41797 l -0.48828,2.94922 -2.67578,0 0,-29.6875 3.39844,0 z m 0,4.58985 0,4.64844 c -1e-5,1.52344 0.83984,2.88411 2.51953,4.08203 1.14582,0.82031 2.37629,1.23047 3.69141,1.23047 1.53644,0 2.83852,-0.53386 3.90625,-1.60157 1.41925,-1.45832 2.12888,-3.48306 2.1289,-6.07422 -2e-5,-2.34373 -0.58595,-4.2643 -1.75781,-5.76171 -1.15887,-1.4453 -2.57163,-2.16796 -4.23828,-2.16797 -1.52345,1e-5 -2.95574,0.67059 -4.29688,2.01172 -1.30209,1.30209 -1.95313,2.51303 -1.95312,3.63281 z"
       id="path3718"
       style="font-family:IPAPGothic;-inkscape-font-specification:IPAPGothic" />
    <path
       d="m 261.3768,237.80515 -3.92578,0 0,-4.00391 3.92578,0 z m -0.25391,24.16015 -3.4375,0 0,-19.92187 3.4375,0 z"
       id="path3720"
       style="font-family:IPAPGothic;-inkscape-font-specification:IPAPGothic" />
    <path
       d="m 284.30649,242.04343 -9.66797,23.35937 c -1.23699,2.98177 -3.3724,4.47265 -6.40625,4.47266 l -0.44922,0 -0.83984,-3.125 0.64453,0 c 2.17447,-10e-6 3.63931,-0.97006 4.39453,-2.91016 l 1.28906,-3.20312 -8.24219,-18.59375 3.88672,0 4.39453,11.1914 c 0.6901,1.80991 1.19791,3.22266 1.52344,4.23828 l 0.11719,0 c 0.52082,-1.61457 1.01561,-3.02733 1.48437,-4.23828 l 4.16016,-11.1914 z"
       id="path3722"
       style="font-family:IPAPGothic;-inkscape-font-specification:IPAPGothic" />
    <path
       d="m 304.20883,261.9653 -3.04687,0 c -0.45575,-1.0026 -0.74872,-2.03125 -0.87891,-3.08594 l -0.11719,0 c -1.51043,2.42188 -3.76303,3.63282 -6.75781,3.63282 -2.0573,0 -3.73698,-0.65104 -5.03906,-1.95313 -1.14584,-1.14583 -1.71875,-2.54557 -1.71875,-4.19922 0,-4.11457 3.54817,-6.27603 10.64453,-6.48437 l 2.67578,-0.0781 0,-1.03515 c -10e-6,-1.39322 -0.40366,-2.48697 -1.21094,-3.28125 -0.82032,-0.83332 -1.88152,-1.24999 -3.18359,-1.25 -2.23959,1e-5 -3.91928,1.08725 -5.03906,3.26172 l -2.96875,-1.36719 c 1.83593,-3.04686 4.53124,-4.57029 8.08593,-4.57031 2.43489,2e-5 4.3164,0.68361 5.64454,2.05078 1.22394,1.22397 1.83591,2.95574 1.83593,5.19531 l 0,7.32422 c -2e-5,2.48698 0.35806,4.43359 1.07422,5.83984 z m -4.16015,-9.76562 -2.20704,0.0391 c -5.14323,0.1172 -7.71485,1.50391 -7.71484,4.16016 -10e-6,0.9375 0.30598,1.71224 0.91797,2.32421 0.7552,0.74219 1.74478,1.11329 2.96875,1.11329 1.70572,0 3.18358,-0.625 4.43359,-1.875 1.0677,-1.10677 1.60155,-2.4414 1.60157,-4.00391 z"
       id="path3724"
       style="font-family:IPAPGothic;-inkscape-font-specification:IPAPGothic" />
  </g>
  <g
     transform="scale(0.90837312,1.1008692)"
     id="text3726"
     style="font-size:36.33492661px;font-style:normal;font-weight:normal;text-align:center;text-anchor:middle;fill:#ffffff;fill-opacity:1;stroke:none;font-family:'Rounded M+ 1m medium';-inkscape-font-specification:'Rounded M+ 1m medium'">
    <path
       d="m 413.63365,31.953983 -9.81003,8.893895 c -0.56686,0.524296 -1.24281,0.69894 -2.02787,0.523934 -0.78508,-0.174948 -1.35192,-0.611059 -1.70054,-1.308337 -0.39254,-0.871527 -0.49067,-1.776019 -0.2944,-2.713476 0.19626,-0.937391 0.64302,-1.733436 1.34027,-2.388139 l 10.00763,-9.155363 c 1.74443,-1.614001 3.8375,-2.421024 6.27922,-2.421071 1.00193,4.7e-5 1.85187,0.349003 2.54981,1.046869 0.69788,0.697958 1.04684,1.548559 1.04687,2.551805 l 0,40.549455 c -3e-5,1.001963 -0.34899,1.851899 -1.04687,2.54981 -0.69794,0.697913 -1.53723,1.046869 -2.51788,1.046869 -0.98069,0 -1.83096,-0.348956 -2.55081,-1.046869 -0.71988,-0.697911 -1.07982,-1.547847 -1.0798,-2.54981 l 0,-35.579572 c -2e-5,-0.04387 -0.0213,-0.06583 -0.0639,-0.06587 z"
       id="path3759"
       style="font-size:65.40286255px;fill:#ffffff;font-family:'Rounded M+ 1p medium';-inkscape-font-specification:'Rounded M+ 1p medium'" />
    <path
       d="m 463.68975,32.772317 c -1.72185,-2.85681 -4.3485,-4.285234 -7.87995,-4.285277 -3.5315,4.3e-5 -6.15848,1.428135 -7.88096,4.284279 -1.72251,2.856221 -2.58375,7.685053 -2.58374,14.486511 -10e-6,6.801505 0.86123,11.630337 2.58374,14.48651 1.72248,2.856193 4.34946,4.284284 7.88096,4.284279 3.53145,5e-6 6.15843,-1.428086 7.88095,-4.284279 1.72247,-2.856173 2.58371,-7.685005 2.58374,-14.48651 -3e-5,-6.801458 -0.86161,-11.629957 -2.58474,-14.485513 z m 5.36309,33.192432 c -2.94204,3.880103 -7.35639,5.820151 -13.24304,5.820152 -5.8867,-1e-6 -10.30138,-1.940382 -13.24404,-5.82115 -2.94269,-3.880758 -4.41402,-10.116059 -4.41402,-18.705921 0,-8.589815 1.47133,-14.824783 4.41402,-18.704924 2.94266,-3.880055 7.35734,-5.820103 13.24404,-5.820152 5.88665,4.9e-5 10.30133,1.940097 13.24404,5.820152 2.94263,3.880141 4.41397,10.115109 4.41401,18.704924 -4e-5,8.589862 -1.47171,14.825496 -4.41501,18.706919 z"
       id="path3761"
       style="font-size:65.40286255px;fill:#ffffff;font-family:'Rounded M+ 1p medium';-inkscape-font-specification:'Rounded M+ 1p medium'" />
  </g>
  <g
     transform="scale(0.90837312,1.1008692)"
     id="text3726-7"
     style="font-size:36.33492661px;font-style:normal;font-weight:normal;text-align:center;text-anchor:middle;fill:#ffffff;fill-opacity:1;stroke:none;font-family:'Rounded M+ 1m medium';-inkscape-font-specification:'Rounded M+ 1m medium'">
    <path
       d="m 448.56488,193.01873 c 4.66515,-13.86509 10.57312,-26.5965 17.72392,-38.19425 -3e-5,-0.0439 0.0106,-0.0658 0.0319,-0.0659 0.0213,5e-5 0.0319,-0.0219 0.0319,-0.0659 -3e-5,-0.0439 -0.0213,-0.0658 -0.0639,-0.0659 l -21.5182,0 c -0.82898,4e-5 -1.52689,-0.28305 -2.09373,-0.84927 -0.56686,-0.56614 -0.85028,-1.26372 -0.85027,-2.09274 -1e-5,-0.82893 0.28341,-1.52684 0.85027,-2.09374 0.56684,-0.5668 1.26475,-0.85022 2.09373,-0.85027 l 25.50808,0 c 0.82761,5e-5 1.52486,0.28347 2.09174,0.85027 0.56681,0.5669 0.85023,1.26481 0.85027,2.09374 -4e-5,1.96138 -0.50168,3.77103 -1.50494,5.42895 -6.27791,10.68228 -11.50992,22.62928 -15.69605,35.84104 -0.34864,1.04587 -0.97004,1.89581 -1.8642,2.54981 -0.8942,0.654 -1.88618,0.981 -2.97594,0.981 l -0.0659,0 c -0.91548,0 -1.64566,-0.37058 -2.19054,-1.11173 -0.5449,-0.74116 -0.66433,-1.52623 -0.35827,-2.35521 z"
       id="path3756"
       style="font-size:65.40286255px;fill:#ffffff;font-family:'Rounded M+ 1p medium';-inkscape-font-specification:'Rounded M+ 1p medium'" />
  </g>
</svg>
