<?xml version="1.0" encoding="UTF-8" standalone="no"?>
<!-- Created with Inkscape (http://www.inkscape.org/) -->

<svg
   xmlns:osb="http://www.openswatchbook.org/uri/2009/osb"
   xmlns:dc="http://purl.org/dc/elements/1.1/"
   xmlns:cc="http://creativecommons.org/ns#"
   xmlns:rdf="http://www.w3.org/1999/02/22-rdf-syntax-ns#"
   xmlns:svg="http://www.w3.org/2000/svg"
   xmlns="http://www.w3.org/2000/svg"
   xmlns:xlink="http://www.w3.org/1999/xlink"
   xmlns:sodipodi="http://sodipodi.sourceforge.net/DTD/sodipodi-0.dtd"
   xmlns:inkscape="http://www.inkscape.org/namespaces/inkscape"
   version="1.1"
   width="1800.4003"
   height="300.40027"
   id="svg2"
   xml:space="preserve"
   inkscape:version="0.48.4 r9939"
   sodipodi:docname="Ajax.svg"><sodipodi:namedview
     pagecolor="#ffffff"
     bordercolor="#666666"
     borderopacity="1"
     objecttolerance="10"
     gridtolerance="10"
     guidetolerance="10"
     inkscape:pageopacity="0"
     inkscape:pageshadow="2"
     inkscape:window-width="1280"
     inkscape:window-height="1001"
     id="namedview28"
     showgrid="false"
     fit-margin-top="0.2"
     fit-margin-left="0.2"
     fit-margin-right="0.2"
     fit-margin-bottom="0.2"
     inkscape:zoom="0.40989584"
     inkscape:cx="913.57296"
     inkscape:cy="8.2990351"
     inkscape:window-x="-8"
     inkscape:window-y="-8"
     inkscape:window-maximized="1"
     inkscape:current-layer="svg2" /><metadata
     id="metadata8"><rdf:RDF><cc:Work
         rdf:about=""><dc:format>image/svg+xml</dc:format><dc:type
           rdf:resource="http://purl.org/dc/dcmitype/StillImage" /><dc:title /></cc:Work></rdf:RDF></metadata><defs
     id="defs6"><linearGradient
       id="linearGradient15703"
       osb:paint="solid"><stop
         style="stop-color:#ffffff;stop-opacity:1;"
         offset="0"
         id="stop15705" /></linearGradient><linearGradient
       inkscape:collect="always"
       xlink:href="#linearGradient15703"
       id="linearGradient15707"
       x1="-37.125"
       y1="465.375"
       x2="967.87512"
       y2="465.375"
       gradientUnits="userSpaceOnUse"
       gradientTransform="translate(961.6578,56.04101)" /></defs><g
     id="g2991"
     transform="matrix(34.167339,0,0,34.167339,14.96955,-265.98947)" /><path
     style="font-size:medium;font-style:normal;font-variant:normal;font-weight:normal;font-stretch:normal;text-indent:0;text-align:start;text-decoration:none;line-height:normal;letter-spacing:normal;word-spacing:normal;text-transform:none;direction:ltr;block-progression:tb;writing-mode:lr-tb;text-anchor:start;baseline-shift:baseline;color:#000000;fill:#000000;fill-opacity:1;fill-rule:nonzero;stroke:none;stroke-width:30;marker:none;visibility:visible;display:inline;overflow:visible;enable-background:accumulate;font-family:Sans;-inkscape-font-specification:Sans"
     d="m 1743.544,300.20026 c 31.1185,0 56.6563,-25.5377 56.6563,-56.6563 l 0,-186.68776 C 1800.2003,25.7364 1774.6619,0.2 1743.544,0.2 L 56.8563,0.2 C 25.7386,0.2 0.2,25.7364 0.2,56.8562 l 0,186.68776 c 0,31.1186 25.5377,56.6563 56.6563,56.6563 z"
     id="path14428"
     inkscape:connector-curvature="0"
     sodipodi:nodetypes="sssssssss" /><path
     inkscape:connector-curvature="0"
     d="m 56.8668,285.20026 c -23.012,0 -41.6668,-18.6548 -41.6668,-41.6668 l 0,-186.66706 c 0,-23.014 18.6548,-41.6668 41.6668,-41.6668 l 1686.6669,0 c 23.0119,0 41.6666,18.6528 41.6666,41.6668 l 0,186.66706 c 0,23.012 -18.6547,41.6668 -41.6666,41.6668 z"
     style="fill:#ffffff;fill-opacity:1;fill-rule:nonzero;stroke:none"
     id="path14430"
     sodipodi:nodetypes="sssssssss" /><path
     inkscape:connector-curvature="0"
     d="m 491.39463,72.162317 c 10.49777,18.997231 19.91492,37.495843 28.25148,55.495903 1.49511,3.16883 1.61845,6.37824 0.37003,9.62823 -1.24891,3.25021 -3.45634,5.54156 -6.62227,6.87405 -3.16641,1.3327 -6.37455,1.37339 -9.62443,0.12207 -3.25032,-1.25111 -5.62559,-3.45854 -7.12581,-6.62228 -0.3359,-0.83403 -1.5032,-3.24999 -3.50188,-7.24788 -0.49865,-1.33757 -1.4981,-1.83856 -2.99833,-1.50298 -34.33224,4.99987 -67.24777,8.41527 -98.74666,10.24622 -3.33668,0.16794 -6.17099,-0.8315 -8.50291,-2.99834 -2.33214,-2.16663 -3.58208,-4.83181 -3.74983,-7.99555 -0.16795,-3.33646 0.87346,-6.17076 3.12422,-8.50292 2.25055,-2.33191 4.9577,-3.58186 8.12144,-3.74982 1.00188,1.3e-4 1.75209,-0.50087 2.25066,-1.50299 9.6688,-22.831954 18.41966,-45.580103 26.25259,-68.244534 1.1646,-3.33637 3.33134,-5.837526 6.5002,-7.503467 3.16857,-1.66554 6.41867,-2.081338 9.75032,-1.247402 3.33132,0.834345 5.78923,2.792544 7.37376,5.874596 1.58419,3.082452 1.794,6.207944 0.62942,9.376476 -7.50235,21.331828 -15.16984,40.997735 -23.00249,58.997771 -0.16799,0.49858 -0.0853,0.95633 0.24795,1.37328 0.33301,0.4172 0.74881,0.62574 1.2474,0.62561 15.33484,-1.16462 34.67013,-3.24743 58.00594,-6.24844 1.33239,-0.33555 1.66554,-1.08578 0.99946,-2.25066 -5.16782,-9.831545 -9.08421,-17.247263 -11.74921,-22.247184 -1.66847,-3.000713 -2.0029,-6.126205 -1.00326,-9.376476 0.99925,-3.249932 2.99942,-5.541279 6.00048,-6.874041 3.16854,-1.500261 6.4606,-1.75076 9.8762,-0.751496 3.4152,0.999624 5.95704,3.083703 7.62553,6.252254 z m 5.74491,191.244953 -2.74657,0 c -3.00109,0 -5.54293,-1.04139 -7.62554,-3.12428 -2.08301,-2.08279 -3.12442,-4.62468 -3.12421,-7.62546 -2.1e-4,-1.16479 -0.58258,-1.74719 -1.74712,-1.74719 l -68.99984,0 c -1.16996,0 -1.75488,0.5824 -1.75475,1.74719 -1.3e-4,3.00078 -1.04153,5.54267 -3.12422,7.62546 -2.08294,2.08289 -4.62477,3.12428 -7.62553,3.12428 l -2.50243,0 c -3.6622,0 -6.74318,-1.24999 -9.24296,-3.74988 -2.49998,-2.49988 -3.74993,-5.58337 -3.74983,-9.25055 l 0,-81.00081 c -1e-4,-3.82987 1.41642,-7.12065 4.24956,-9.87238 2.83291,-2.75158 6.16439,-4.1274 9.99444,-4.12748 l 97.25132,0 c 3.8348,8e-5 7.12686,1.3759 9.8762,4.12748 2.74887,2.75173 4.12342,6.04251 4.12365,9.87238 l 0,80.50492 c -2.3e-4,3.82988 -1.29213,7.03676 -3.8757,9.62064 -2.58403,2.58379 -5.70952,3.87568 -9.37647,3.87568 z m -83.74737,-34.4999 68.25216,0 c 1.33238,0 1.99868,-0.6663 1.99889,-1.99893 l 0,-46.9968 c -2.1e-4,-1.33761 -0.66651,-2.00646 -1.99889,-2.00652 l -68.25216,0 c -1.50057,6e-5 -2.25079,0.66891 -2.25066,2.00652 l 0,46.9968 c -1.3e-4,1.33263 0.75009,1.99893 2.25066,1.99893 z m -116.75193,7.49965 c 12.33409,-11.99845 22.66929,-26.41536 31.00567,-43.25083 0.66625,-1.50039 0.4984,-2.74905 -0.50353,-3.74601 -2.33463,-2.66513 -5.83396,-6.50015 -10.49799,-11.50506 -0.33573,-0.33054 -0.79476,-0.41319 -1.37711,-0.24795 -0.5824,0.16536 -0.95751,0.49978 -1.12532,1.00326 l -0.74768,2.25065 c -1.16477,3.00094 -3.3315,4.83453 -6.5002,5.50077 -3.16874,0.66635 -5.83647,-0.1678 -8.00318,-2.50243 -6.16453,-6.00169 -7.9142,-13.16819 -5.24899,-21.49951 5.66603,-17.50163 10.58443,-37.75245 14.75516,-60.75252 0.33057,-1.33245 -0.25435,-1.99875 -1.75476,-1.99889 l -7.49964,0 c -3.16366,1.4e-4 -5.82884,-1.083224 -7.99557,-3.250102 -2.16674,-2.166587 -3.25011,-4.833042 -3.2501,-7.999374 -10e-6,-3.166022 1.08336,-5.832486 3.2501,-7.999374 2.16673,-2.166577 4.83191,-3.249941 7.99557,-3.250101 l 11.00152,0 c 1.33256,1.6e-4 2.1667,-0.666136 2.50243,-1.998899 1.1647,-9.165217 2.16415,-17.748228 2.99832,-25.749052 0.33057,-3.49914 1.82974,-6.416083 4.49751,-8.75087 2.66768,-2.334377 5.7512,-3.41774 9.25058,-3.250101 3.33143,0.168049 6.1225,1.542601 8.37321,4.123666 2.2506,2.581455 3.21063,5.540368 2.88009,8.876749 -0.16791,1.164933 -1.1699,9.330877 -3.00598,24.49784 -0.33065,1.500611 0.25426,2.250827 1.75476,2.250667 l 19.99653,0 c 3.83494,1.6e-4 7.16895,1.416672 10.00206,4.249545 2.83295,2.833184 4.24946,6.167215 4.24956,10.002083 -0.16794,35.664783 -5.6687,67.413023 -16.50228,95.244813 -0.49852,1.16988 -0.33069,2.33718 0.50354,3.50187 4.66399,6.50025 10.33004,15.2511 16.99818,26.2526 1.83603,3.16365 2.5036,6.53709 2.0027,10.12033 -0.50109,3.58327 -2.08418,6.54215 -4.74926,8.87674 -2.33468,2.16679 -5.08505,2.99958 -8.25114,2.49859 -3.16626,-0.501 -5.49956,-2.16799 -6.99992,-5.00098 -4.5014,-7.83281 -8.08465,-13.83202 -10.74976,-17.99767 -0.66637,-0.99688 -1.33266,-0.99688 -1.99889,0 -9.50115,16.16919 -21.41818,30.8353 -35.75113,43.99843 -2.33461,2.16678 -5.08499,2.91698 -8.25115,2.25068 -3.16619,-0.66629 -5.4995,-2.41598 -6.99992,-5.24897 -3.66719,-6.83086 -2.41851,-13.33102 3.74601,-19.50059 z m 27.5038,-83.25152 c 4.66403,4.1708 8.82964,8.17113 12.49687,12.00097 0.33564,0.33577 0.75271,0.41969 1.25121,0.25177 0.4984,-0.16777 0.83155,-0.50092 0.99946,-0.99944 5.666,-18.66639 9.08394,-39.49958 10.25384,-62.49964 -7e-5,-1.50031 -0.75029,-2.25052 -2.25066,-2.25066 l -10.74976,0 c -1.33264,1.4e-4 -2.16678,0.75035 -2.50242,2.25066 -3.00093,16.99831 -6.50025,32.91567 -10.49799,47.7521 -0.33573,1.66329 -0.003,2.82804 0.99945,3.49424 z"
     id="path2817"
     style="font-size:250px;font-style:normal;font-variant:normal;font-weight:normal;font-stretch:normal;text-align:center;text-anchor:middle;fill:#000000;fill-opacity:1;stroke:none;font-family:'Rounded M+ 1m medium';-inkscape-font-specification:'Rounded M+ 1m medium,'" /><path
     inkscape:connector-curvature="0"
     d="m 1313.645,181.62772 0,-56.49532 c -10e-5,-3.83491 1.4164,-7.16893 4.2495,-10.00208 2.833,-2.83291 6.1644,-4.24942 9.9944,-4.24955 l 53.5047,0 c 1.5003,1.3e-4 2.2505,-0.66616 2.2507,-1.9989 l 0,-59.249513 c -2e-4,-3.834828 1.3744,-7.084928 4.1236,-9.750312 2.749,-2.664985 5.9571,-3.997567 9.6244,-3.997777 3.6671,2.1e-4 6.8753,1.332792 9.6245,3.997777 2.7489,2.665384 4.1235,5.915484 4.1236,9.750312 l 0,9.246765 c -10e-5,1.332782 0.7501,1.999078 2.2507,1.998888 l 82.7479,0 c 3.1685,1.9e-4 5.8362,1.083553 8.0032,3.25011 2.1665,2.166907 3.2499,4.834632 3.2501,8.003183 -2e-4,3.168891 -1.0836,5.835345 -3.2501,7.999372 -2.167,2.164357 -4.8347,3.246451 -8.0032,3.246291 l -82.7479,0 c -1.5006,1.6e-4 -2.2508,0.668996 -2.2507,2.006518 l 0,23.498386 c -10e-5,1.33274 0.7501,1.99903 2.2507,1.9989 l 68.5039,0 c 3.8297,1.3e-4 7.1612,1.41664 9.9944,4.24955 2.8328,2.83315 4.2494,6.16717 4.2496,10.00208 l 0,56.49532 c -2e-4,3.83508 -1.4168,7.1691 -4.2496,10.00208 -2.8332,2.83309 -6.1647,4.2496 -9.9944,4.24955 l -141.5016,0 -12.5045,0 c -3.83,5e-5 -7.1614,-1.41646 -9.9944,-4.24955 -2.8331,-2.83298 -4.2496,-6.167 -4.2495,-10.00208 z m 26.7484,-46.24911 0,36.49881 c 0,1.33266 0.7502,1.99896 2.2507,1.99889 l 124.4957,0 c 1.5003,7e-5 2.2505,-0.66623 2.2507,-1.99889 l 0,-36.49881 c -2e-4,-1.33248 -0.7504,-1.99878 -2.2507,-1.99889 l -124.4957,0 c -1.5005,1.1e-4 -2.2507,0.66641 -2.2507,1.99889 z m 2.5025,89.00399 c -7.3344,12.66471 -14.3356,23.41445 -21.0036,32.2493 -2.1668,2.83298 -5.0418,4.54067 -8.625,5.12307 -3.5833,0.58239 -6.8754,-0.042 -9.8761,-1.87299 -2.8331,-1.83619 -4.5828,-4.33728 -5.2491,-7.50346 -0.6663,-3.16618 0,-6.16586 1.9989,-8.99884 7.67,-10.49794 14.5034,-20.74673 20.5001,-30.74628 1.6683,-3.00084 4.1693,-4.91835 7.5034,-5.75253 3.334,-0.8341 6.5829,-0.50095 9.7466,0.99945 3.0007,1.50047 5.0009,3.87573 6.0004,7.1258 0.9994,3.25014 0.6675,6.37563 -0.9956,9.37648 z m 48.37,34.99578 c -2.2481,2.83308 -5.1219,4.50007 -8.6211,5.00107 -3.4994,0.501 -6.625,-0.3739 -9.3764,-2.62448 -2.7518,-2.25069 -4.3768,-5.12567 -4.8752,-8.62495 -0.4985,-4.16568 -2.0829,-13.91592 -4.7531,-29.25096 -0.6664,-3.49931 0,-6.66548 2.0027,-9.49854 2.0014,-2.833 4.7517,-4.49874 8.2511,-4.99722 3.6671,-0.50351 6.9592,0.24544 9.8762,2.24684 2.9169,2.00146 4.7085,4.83577 5.3749,8.50291 1.663,8.82971 3.2449,18.74535 4.7454,29.74679 0.5035,3.49938 -0.3714,6.66556 -2.6245,9.49854 z m 36.125,-5.50077 c -3.9978,-11.49993 -7.8303,-21.74867 -11.4974,-30.74622 -1.3327,-3.16871 -1.2501,-6.25223 0.248,-9.25059 1.4977,-2.9983 3.915,-4.91454 7.2517,-5.74871 3.4991,-1.00196 6.8319,-0.71077 9.9982,0.87355 3.1661,1.5844 5.4155,4.04232 6.7482,7.37377 3.1685,7.83282 7.0035,18.16552 11.505,30.99804 1.1646,3.16868 0.9141,6.25356 -0.7514,9.25445 -1.666,3.00078 -4.1659,4.91707 -7.4997,5.74866 -3.3341,0.8316 -6.5436,0.4565 -9.6282,-1.12529 -3.085,-1.58189 -5.2098,-4.04108 -6.3744,-7.37766 z m 44.7538,-46.99674 c 2.9955,-1.66825 6.2024,-2.12727 9.6206,-1.3771 3.4178,0.75026 6.1262,2.54189 8.1253,5.37488 8.6667,12.66982 15.6679,23.33568 21.0035,31.99753 1.663,2.83808 2.0368,5.88086 1.1215,9.12844 -0.9157,3.24759 -2.79,5.70547 -5.6227,7.37376 -3.0011,1.66829 -6.1266,2.04339 -9.3765,1.12539 -3.2504,-0.91809 -5.7909,-2.79368 -7.6217,-5.62666 -4.1709,-6.83086 -11.0883,-17.4127 -20.7519,-31.74572 -1.8363,-2.66517 -2.4199,-5.62281 -1.7509,-8.87294 0.6686,-3.25007 2.4196,-5.70926 5.2528,-7.37758 z"
     id="path2819"
     style="font-size:250px;font-style:normal;font-variant:normal;font-weight:normal;font-stretch:normal;text-align:center;text-anchor:middle;fill:#000000;fill-opacity:1;stroke:none;font-family:'Rounded M+ 1m medium';-inkscape-font-specification:'Rounded M+ 1m medium,'" /></svg>