<?xml version="1.0" encoding="UTF-8" standalone="no"?>
<!-- Created with Inkscape (http://www.inkscape.org/) -->

<svg
   xmlns:osb="http://www.openswatchbook.org/uri/2009/osb"
   xmlns:dc="http://purl.org/dc/elements/1.1/"
   xmlns:cc="http://creativecommons.org/ns#"
   xmlns:rdf="http://www.w3.org/1999/02/22-rdf-syntax-ns#"
   xmlns:svg="http://www.w3.org/2000/svg"
   xmlns="http://www.w3.org/2000/svg"
   xmlns:sodipodi="http://sodipodi.sourceforge.net/DTD/sodipodi-0.dtd"
   xmlns:inkscape="http://www.inkscape.org/namespaces/inkscape"
   version="1.1"
   width="1005.4"
   height="1005.4"
   id="svg2"
   xml:space="preserve"
   inkscape:version="0.48.4 r9939"
   sodipodi:docname="AJAX1.svg"><sodipodi:namedview
     pagecolor="#ffffff"
     bordercolor="#666666"
     borderopacity="1"
     objecttolerance="10"
     gridtolerance="10"
     guidetolerance="10"
     inkscape:pageopacity="0"
     inkscape:pageshadow="2"
     inkscape:window-width="1280"
     inkscape:window-height="1004"
     id="namedview28"
     showgrid="false"
     fit-margin-top="0.2"
     fit-margin-left="0.2"
     fit-margin-right="0.2"
     fit-margin-bottom="0.2"
     inkscape:zoom="0.5"
     inkscape:cx="519.30703"
     inkscape:cy="557.44811"
     inkscape:window-x="-8"
     inkscape:window-y="-8"
     inkscape:window-maximized="1"
     inkscape:current-layer="svg2" /><metadata
     id="metadata8"><rdf:RDF><cc:Work
         rdf:about=""><dc:format>image/svg+xml</dc:format><dc:type
           rdf:resource="http://purl.org/dc/dcmitype/StillImage" /></cc:Work></rdf:RDF></metadata><defs
     id="defs6"><linearGradient
       id="linearGradient15703"
       osb:paint="solid"><stop
         style="stop-color:#ffffff;stop-opacity:1;"
         offset="0"
         id="stop15705" /></linearGradient></defs><path
     inkscape:connector-curvature="0"
     style="fill:#ffffff;fill-opacity:1;stroke:#0066b3;stroke-width:5;stroke-miterlimit:4;stroke-opacity:1;stroke-dasharray:none"
     d="m 2.69998,502.7 c 0,-276.1424 223.85772,-500 500.0001,-500 276.14238,0 500.00002,223.8576 500.00002,500 0,276.1423 -223.85764,500.0001 -500.00002,500.0001 C 226.5577,1002.7001 2.69998,778.8423 2.69998,502.7 z"
     id="path3854" /><path
     id="path14622"
     d="m 37.325,502.7 c 0,257.0196 208.35548,465.375 465.375,465.375 257.01958,0 465.37508,-208.3554 465.37508,-465.375 C 968.07508,245.6804 759.71958,37.325 502.7,37.325 245.68048,37.325 37.325,245.6804 37.325,502.7 z"
     style="fill:#0066b3;fill-opacity:1;stroke:none"
     inkscape:connector-curvature="0"
     sodipodi:nodetypes="sssss" /><path
     style="color:#000000;fill:#ffffff;fill-opacity:1;fill-rule:evenodd;stroke:none;stroke-width:0.5999254px;marker:none;visibility:visible;display:inline;overflow:visible"
     d="m 431.29074,825.31351 c 2.54728,10.35849 -15.94619,5.01622 -22.74181,1.54681 -8.32227,-4.2489 -10.13844,-4.07766 -18.54545,-10.18672 -6.72565,-4.88722 -10.79099,-10.37858 -14.08917,-17.10818 -2.38913,-4.87491 0,-17.60757 0,-23.20153 0,-8.76501 -0.95029,-17.58377 0,-26.29503 1.07208,-9.82747 2.14414,-18.0143 2.14414,-27.2949 0,-9.28061 0,-18.56121 0,-27.8418 0,-10.82736 -0.53602,-21.10787 -0.53602,-31.9352 0,-10.31181 -3.21617,-21.17042 -3.21617,-31.48222 0,-10.31176 -1.60809,-21.71725 -1.60809,-32.02904 0,-9.15543 0.20067,-19.45783 -1.33219,-28.84169 0.94669,-15.5342 -3.17813,-11.4862 -11.76109,-23.80998 -4.51018,-6.13521 -4.58402,-9.88429 -4.73224,-35.40405 -0.0347,-5.37853 2.59982,-7.02763 8.65261,-18.84271 5.36028,-15.16558 6.7929,-27.35521 8.63686,-34.13878 1.85131,-6.81043 2.58818,-17.60427 2.58818,-23.37303 0,-9.79621 -0.53602,-19.59236 -0.53602,-29.38858 0,-11.38651 -3.82509,-18.72818 -8.10084,-17.74894 -6.29989,1.44289 -14.7152,21.34925 -15.9731,26.4827 -4.29283,35.4181 -6.21994,71.90342 -7.74874,107.83667 0,8.24943 -3.21617,15.95199 -3.21617,24.20142 0,10.71728 -1.29843,16.1516 -8.7446,18.27968 -9.39793,2.68585 -12.17025,-1.17802 -14.5332,-5.99941 -4.39593,-8.96959 -8.11663,-21.52471 -8.11663,-33.68573 0,-8.32015 -0.092,-13.62886 -0.092,-22.46697 0,-9.2806 0,-18.56122 0,-27.84179 0,-9.28057 0,-18.56118 0,-27.84176 0,-9.2806 0,-18.56121 0,-27.84181 3.10098,-19.00155 3.64881,-36.58795 8.56071,-56.60571 6.27435,-17.02269 14.54183,-29.47912 26.31,-42.38725 18.34975,-21.83124 25.15783,-27.94186 44.41147,-38.85685 5.98928,-4.5827 9.34168,-4.03071 16.23326,-7.54617 3.55711,-1.8145 1.5161,-8.67431 1.5161,-15.46763 -10.87791,-5.6827 -9.09671,-4.31482 -11.77686,-17.09216 -2.66171,-12.68947 5.5868,-20.3652 -7.93265,-23.12378 -9.22703,-1.8827 -8.95828,-13.143 -5.62041,-14.2801 11.20926,-3.81855 11.89482,-4.69145 17.93883,-14.33504 8.99134,-13.51969 24.71655,-16.9404 40.7457,-14.69426 11.21908,1.61997 21.80103,6.08401 29.0219,25.54972 5.48726,1.42367 7.75266,3.50763 10.77622,8.67248 5.85911,9.89712 -5.49016,9.55295 -10.04436,9.0872 -0.65144,13.45766 -0.35005,27.69198 -5.68542,38.28249 -2.71637,5.17 -5.43273,8.87074 -8.14912,11.98746 0.31663,1.81107 0.27602,3.4281 0.96736,4.89504 3.01029,6.38689 9.68838,8.38135 14.95191,12.6994 17.34057,4.9545 31.70338,11.55188 46.43106,19.33456 5.38217,5.49093 9.38053,13.33883 10.99186,19.9146 5.30669,25.04248 0.74183,89.30871 7.01206,114.07396 5.4317,32.88382 21.62287,25.21869 22.74176,59.55049 2.44659,20.33956 1.25227,43.13931 15.91922,58.0037 2.31658,2.36342 7.1647,5.30764 10.61281,6.18706 21.11828,1.5838 35.76398,-4.88708 31.27259,-13.20092 -6.42856,-11.8994 -16.93315,-29.1247 -6.25664,-51.76323 1.95391,-3.98685 9.70646,-15.35421 12.88703,-17.78782 -0.50542,-1.28896 -1.01078,-2.57793 -1.51615,-3.86691 -1.36097,-3.47112 -4.50666,-8.87072 -3.9798,-11.02068 0.64187,-2.61933 13.97514,1.4251 14.59265,1.7401 3.19964,1.63218 6.57873,4.5781 9.85478,5.41363 5.08415,1.29679 7.2914,-2.79853 9.85472,-5.41363 2.7843,-2.84055 5.87571,-4.93069 8.33865,-6.18705 5.83075,-2.97436 0.89782,3.58169 0,5.41365 -1.36317,2.78151 -1.15605,5.66657 -3.79024,7.7338 l -7.39112,5.80043 c 7.80097,4.16007 9.92298,7.74075 12.887,11.40737 6.51094,19.31187 9.00829,38.25834 -5.49588,54.52349 -2.18678,4.50788 -3.46906,8.88391 1.32656,12.37415 13.92105,-1.65889 25.43713,2.36294 33.35461,12.18077 12.32218,22.63425 6.77382,45.21768 6.82252,66.89764 l 1.32658,50.46323 -11.56038,-0.38669 c -1.64137,-28.64356 -8.57184,-60.00665 -17.24584,-83.52537 l -6.76755,0.17498 c -8.79958,9.86648 -10.39567,25.24475 -11.23636,41.20109 9.43564,16.22057 10.96291,28.40708 12.50797,40.60262 0.32879,14.05289 -2.1324,16.23432 -10.61283,27.64843 l 0.54927,16.63786 c 5.54508,16.42914 14.50433,22.40872 22.95054,29.95849 -2.63179,17.80966 -9.0558,31.75043 -18.76192,42.3427 -4.40919,0.89243 -10.16396,4.99369 -12.12898,-8.31385 l -0.18955,-27.84178 c -7.02868,-1.42397 -7.97865,-5.32857 -10.23376,-8.70056 -4.75295,-11.41901 -5.91149,-24.67149 -6.68436,-38.12075 0.11799,-11.91805 -18.76586,-12.01074 -19.27913,-0.74177 -0.69483,9.28065 -2.55701,19.51259 -2.08469,29.77526 5.38527,12.14587 10.42083,24.35123 9.85479,37.50906 -2.26138,12.05206 -10.25149,19.92938 -19.52005,26.87503 -7.01732,3.14095 -12.94143,0.15728 -12.50796,-19.72121 1.25723,-6.22635 4.90075,-6.19107 5.02809,-11.61051 0.63447,-27.01377 -13.41059,-62.45332 -16.77804,-86.60916 L 562.0177,680.85113 c -6.2055,-5.01283 -1.60998,-6.8773 -1.5161,-10.05397 l 24.25784,-49.10979 7.95967,-31.70872 -44.72549,-5.80037 c -4.52373,-3.90541 -5.93359,-8.60504 -6.44353,-13.5342 l 0.75806,-27.06843 c 2.04894,-13.7877 -14.72533,-26.41538 -16.33677,-42.90988 0.26804,-30.00991 -22.16624,-38.63485 -21.43669,-56.13934 0.96633,-23.18535 -3.59384,-41.79279 -17.1858,-56.01405 -30.68666,37.77044 -8.24044,79.63196 13.26605,121.42111 l -21.98373,37.50911 c 16.43332,35.63785 27.44673,73.33476 30.70141,111.75383 0.28642,48.74362 -7.24258,94.58774 -20.08853,139.20895 9.61936,3.41137 13.41061,8.11587 12.88695,14.30754 -3.26905,7.85748 -14.94669,7.04139 -24.25785,6.1871 -12.66931,-6.17488 -21.31388,-15.86925 -26.91109,-28.22849 6.42693,-40.8124 8.98553,-83.31614 8.33865,-127.22149 0.70848,-32.04483 -7.42552,-55.06842 -20.84662,-72.69802 l -12.12894,-0.38668 c -3.44223,27.81422 -6.8516,55.63959 -4.37143,85.46794 2.59425,46.39993 1.16228,88.69231 0.96018,132.23937 l 8.37674,17.24094 z"
     id="path3022"
     sodipodi:nodetypes="cssssssssssccscssssccsssssssccccscssscccccccscccccccscssssssssscccccccccccccccccccccccccscccccccccscccccccccccccc"
     inkscape:connector-curvature="0" /></svg>