<?xml version="1.0" encoding="UTF-8" standalone="no"?>
<!-- Created with Inkscape (http://www.inkscape.org/) -->

<svg
   xmlns:svg="http://www.w3.org/2000/svg"
   xmlns="http://www.w3.org/2000/svg"
   version="1.0"
   width="640"
   height="360"
   id="svg4203">
  <defs
     id="defs4205" />
  <g
     id="layer1"
     style="fill:#005d35;fill-opacity:1">
    <rect
       width="640"
       height="360"
       x="0"
       y="0"
       id="rect_bg"
       style="fill:#005d35;fill-opacity:1;stroke:none" />
  </g>
  <g
     id="text3641"
     style="font-size:56.0850029px;font-style:normal;font-weight:normal;text-align:center;text-anchor:middle;fill:#ffffff;fill-opacity:1;stroke:#ffffff;stroke-width:0.98039216;font-family:GD-HighwayGothicJA-TTF;-inkscape-font-specification:GD-HighwayGothicJA-TTF">
    <path
       d="m 356.21028,274.57655 13.22708,0 0,-13.52832 4.10779,0 0,20.12817 -4.10779,0 0,-2.95761 -13.22708,0 0,18.89583 15.55483,0 0,-12.51507 4.02563,0 0,19.79954 -4.02563,0 0,-3.64224 -34.97097,0 0,3.64224 -4.02564,0 0,-19.79954 4.02564,0 0,12.51507 15.19881,0 0,-18.89583 -12.95322,0 0,2.95761 -4.02564,0 0,-20.12817 4.02564,0 0,13.52832 12.95322,0 0,-19.19706 4.21733,0 z"
       id="path3682"
       style="fill:#ffffff;stroke:#ffffff;stroke-width:1.40212512;stroke-miterlimit:4;stroke-opacity:1;font-family:IPAGothic;-inkscape-font-specification:IPAGothic" />
    <path
       d="m 429.87662,261.04823 0,39.92771 -4.49118,0 0,-3.9161 -30.0964,0 0,4.2721 -4.49118,0 0,-40.28371 z m -34.58758,3.97087 0,28.12465 30.0964,0 0,-28.12465 z"
       id="path3684"
       style="fill:#ffffff;stroke:#ffffff;stroke-width:1.40212512;stroke-miterlimit:4;stroke-opacity:1;font-family:IPAGothic;-inkscape-font-specification:IPAGothic" />
  </g>
  <g
     id="text2847"
     style="font-size:107.47835541px;font-style:normal;font-weight:normal;text-align:center;text-anchor:middle;fill:#ffffff;fill-opacity:1;stroke:#ffffff;stroke-width:2.91262126;stroke-miterlimit:4;stroke-opacity:1;font-family:IPAPGothic;-inkscape-font-specification:IPAPGothic">
    <path
       d="m 231.86126,123.5023 29.75597,0 0,7.29467 -66.75413,0 0,-7.29467 28.81133,0 0,-63.762799 -25.0328,0 0,-7.294673 58.98715,0 0,7.294673 -25.76752,0 z M 188.88042,66.876736 C 183.98229,60.999082 178.45444,55.663655 172.29684,50.870438 l 5.61532,-5.720284 c 5.70277,4.128481 11.31809,9.184017 16.84598,15.166624 z m -4.88061,24.822882 c -5.14303,-5.807706 -10.72336,-11.038174 -16.74102,-15.69142 l 5.35293,-5.825243 c 6.47247,4.653252 12.24523,9.673801 17.31829,15.061664 z m -16.0063,36.840722 c 8.57166,-8.7466 16.4611,-19.34748 23.66833,-31.802674 l 5.35292,6.140124 c -7.13726,12.80505 -14.86926,23.80827 -23.19601,33.00971 z"
       id="path3658" />
    <path
       d="m 357.55006,67.296573 0,39.044867 -7.97691,0 0,-6.822352 -54.47389,0 c -0.31491,8.081892 -1.34701,14.869252 -3.0963,20.362112 -2.1342,6.15762 -5.86025,12.10531 -11.17817,17.84308 l -5.9302,-6.24508 c 5.73776,-5.94769 9.35885,-12.6126 10.86329,-19.99475 1.01459,-5.00304 1.52189,-11.14315 1.52191,-18.420361 l 0,-25.767516 z m -7.97691,6.769877 -54.36893,0 0,18.682761 54.36893,0 z m -71.10995,-26.869589 87.48361,0 0,7.084755 -87.48361,0 z"
       id="path3660" />
    <path
       d="m 393.81351,87.081407 c -3.32373,11.475585 -7.39964,21.254283 -12.22776,29.336133 l -3.8835,-7.66203 c 6.82235,-10.950726 11.91287,-23.808231 15.27159,-38.572555 l -12.91,0 0,-6.874836 13.74967,0 0,-22.671216 6.87484,0 0,22.671216 10.33849,0 0,6.874836 -10.33849,0 0,12.909998 c 4.16335,4.05847 8.29175,8.53673 12.3852,13.434794 l -4.51325,6.979793 c -2.48407,-4.408259 -5.10805,-8.501668 -7.87195,-12.280239 l 0,46.024669 -6.87484,0 z m 31.4878,3.20126 0,-11.493047 c -3.63864,3.778583 -7.3472,7.067306 -11.12569,9.866177 l -4.82813,-5.457885 c 7.10221,-4.688132 13.20734,-10.443396 18.3154,-17.26581 l -15.11414,0 0,-6.035162 18.99764,0 c 1.36441,-2.658897 2.46648,-4.950507 3.30622,-6.874836 -5.63287,0.489887 -11.96541,0.839751 -18.99764,1.049594 l -2.5715,-5.877723 c 19.48739,-0.874579 36.10593,-2.816324 49.85568,-5.825243 l 5.30044,6.35004 c -7.73209,1.399537 -16.09384,2.589075 -25.08528,3.568617 l -1.15455,0.104959 c -0.69979,1.994303 -1.78437,4.495831 -3.25374,7.504592 l 37.31304,0 0,6.035162 -18.5778,0 c 5.00298,6.052713 11.77285,11.230701 20.30963,15.533981 l -4.51325,6.24508 c -4.40838,-2.728898 -8.81667,-6.122579 -13.22487,-10.181055 l 0,12.752559 z m 28.49646,-5.457885 0,-6.664918 -22.14642,0 0,6.664918 z m -23.24849,-12.122803 24.98032,0 c -1.81938,-2.029155 -3.65616,-4.285778 -5.51037,-6.769877 l -14.58935,0 c -1.39951,2.27418 -3.02638,4.530804 -4.8806,6.769877 z m 27.02702,33.954341 0,19.41748 -22.25137,0 0,4.72317 -6.66492,0 0,-24.14065 z m -6.66491,5.45789 -15.58646,0 0,8.5017 15.58646,0 z m 21.6741,-16.531097 0,33.954347 c -10e-5,4.65319 -2.60659,6.97979 -7.81947,6.97979 -3.53372,0 -6.80495,-0.13995 -9.8137,-0.41983 l -1.15455,-7.29468 c 3.07872,0.55978 5.98259,0.83968 8.71162,0.83968 1.99414,0 2.99125,-0.99712 2.99134,-2.99134 l 0,-25.24272 -44.18788,0 0,35.84361 -6.97979,0 0,-41.668857 z"
       id="path3662" />
  </g>
  <rect
     width="145.93698"
     height="68.350235"
     x="27.709555"
     y="243.65285"
     id="rect2854"
     style="color:#000000;fill:#ffffff;fill-opacity:1;fill-rule:nonzero;stroke:none;stroke-width:4;marker:none;visibility:visible;display:inline;overflow:visible;enable-background:accumulate" />
  <g
     transform="scale(0.93392869,1.0707456)"
     id="text3653"
     style="font-size:62.91613007px;font-style:normal;font-weight:normal;text-align:center;text-anchor:middle;fill:#005d35;fill-opacity:1;stroke:#005d35;stroke-width:0.93514013;stroke-opacity:1;font-family:IPAPGothic;-inkscape-font-specification:IPAPGothic">
    <path
       d="m 70.873645,259.09813 c 7.372953,1.31078 11.059441,5.03823 11.059476,11.18236 -3.5e-5,3.70698 -1.239104,6.72786 -3.717213,9.06263 -2.744416,2.56006 -6.625469,3.84009 -11.64317,3.84009 -7.51636,0 -12.94369,-2.99015 -16.282007,-8.97046 l 4.608115,-2.45766 c 2.314288,4.5262 6.185101,6.78929 11.61245,6.78929 3.194938,0 5.673077,-0.81922 7.434426,-2.45766 1.679373,-1.55651 2.519073,-3.53288 2.519102,-5.92911 -2.9e-5,-2.78533 -1.259579,-5.02795 -3.778654,-6.72785 -2.29384,-1.5565 -5.314712,-2.33475 -9.062626,-2.33478 l -2.764869,0 0,-4.45451 2.887752,0 c 3.768394,3e-5 6.645903,-0.71679 8.632535,-2.15045 2.129947,-1.51553 3.194932,-3.55334 3.19496,-6.11343 -2.8e-5,-2.78532 -1.198137,-4.84361 -3.594329,-6.17488 -1.536062,-0.92158 -3.379306,-1.38239 -5.529738,-1.38243 -4.567169,4e-5 -7.93621,2.29385 -10.107133,6.88145 l -4.608115,-2.2119 c 3.010628,-6.0417 7.936186,-9.06258 14.776689,-9.06262 4.321365,4e-5 7.823528,1.09575 10.506502,3.28712 2.682915,2.10953 4.024387,4.91536 4.024421,8.41749 -3.4e-5,3.31787 -1.300545,6.03154 -3.901538,8.141 -1.67943,1.35174 -3.76844,2.21192 -6.267036,2.58055 z"
       id="path3705"
       style="fill:#005d35;stroke:#005d35;stroke-width:1.57290328" />
    <path
       d="m 107.18559,236.42621 c 5.52971,4e-5 9.77942,2.56011 12.74912,7.68019 2.35522,4.05518 3.53285,9.29818 3.53289,15.72903 -4e-5,6.36946 -1.17767,11.6227 -3.53289,15.75976 -2.92874,5.05868 -7.25013,7.58802 -12.96416,7.58802 -5.6936,0 -10.004743,-2.52934 -12.933447,-7.58802 -2.355263,-4.13706 -3.532891,-9.41078 -3.532888,-15.8212 -3e-6,-8.92947 2.160688,-15.43203 6.482082,-19.50769 2.744376,-2.56001 6.144133,-3.84005 10.199293,-3.84009 z m -0.21504,4.54667 c -3.2769,4e-5 -5.85744,1.65896 -7.741637,4.97677 -1.925178,3.35883 -2.887761,7.99766 -2.887752,13.9165 -9e-6,5.796 0.942093,10.36315 2.82631,13.70146 1.904669,3.27689 4.505699,4.91533 7.803079,4.91533 3.95271,0 6.88142,-2.30405 8.78614,-6.91218 1.24928,-3.09254 1.87393,-7.10671 1.87396,-12.04254 -3e-5,-5.75499 -0.96261,-10.28118 -2.88775,-13.57857 -1.94567,-3.31781 -4.53646,-4.97673 -7.77235,-4.97677 z"
       id="path3707"
       style="fill:#005d35;stroke:#005d35;stroke-width:1.57290328" />
    <path
       d="m 150.25611,259.09813 c 7.37295,1.31078 11.05944,5.03823 11.05947,11.18236 -3e-5,3.70698 -1.2391,6.72786 -3.71721,9.06263 -2.74442,2.56006 -6.62547,3.84009 -11.64317,3.84009 -7.51636,0 -12.94369,-2.99015 -16.28201,-8.97046 l 4.60812,-2.45766 c 2.31429,4.5262 6.1851,6.78929 11.61245,6.78929 3.19494,0 5.67307,-0.81922 7.43442,-2.45766 1.67938,-1.55651 2.51908,-3.53288 2.51911,-5.92911 -3e-5,-2.78533 -1.25958,-5.02795 -3.77866,-6.72785 -2.29384,-1.5565 -5.31471,-2.33475 -9.06262,-2.33478 l -2.76487,0 0,-4.45451 2.88775,0 c 3.76839,3e-5 6.6459,-0.71679 8.63253,-2.15045 2.12995,-1.51553 3.19494,-3.55334 3.19496,-6.11343 -2e-5,-2.78532 -1.19813,-4.84361 -3.59433,-6.17488 -1.53606,-0.92158 -3.3793,-1.38239 -5.52973,-1.38243 -4.56717,4e-5 -7.93621,2.29385 -10.10714,6.88145 l -4.60811,-2.2119 c 3.01063,-6.0417 7.93618,-9.06258 14.77669,-9.06262 4.32136,4e-5 7.82353,1.09575 10.5065,3.28712 2.68291,2.10953 4.02439,4.91536 4.02442,8.41749 -3e-5,3.31787 -1.30054,6.03154 -3.90154,8.141 -1.67943,1.35174 -3.76844,2.21192 -6.26703,2.58055 z"
       id="path3709"
       style="fill:#005d35;stroke:#005d35;stroke-width:1.57290328" />
  </g>
  <g
     id="text3637"
     style="font-size:62.19630814px;font-style:normal;font-weight:normal;text-align:center;text-anchor:middle;fill:#ffffff;fill-opacity:1;stroke:#ffffff;stroke-width:3.10981536;stroke-miterlimit:4;stroke-opacity:1;font-family:GD-HighwayGothicJA-TTF;-inkscape-font-specification:GD-HighwayGothicJA-TTF">
    <path
       d="m 221.00899,205.56281 -28.54713,0 0,-44.43027 27.7879,0 0,4.73761 -22.38217,0 0,14.54689 19.83115,0 0,4.46428 -19.83115,0 0,15.88314 23.1414,0 z"
       id="path3665"
       style="fill:#ffffff;stroke:#ffffff;font-family:IPAPGothic;-inkscape-font-specification:IPAPGothic" />
    <path
       d="m 256.54106,205.56281 -4.85909,0 0,-5.40573 c -2.91547,4.21121 -6.60028,6.31681 -11.05442,6.31681 -3.70506,0 -6.8331,-1.30588 -9.38411,-3.91764 -3.07742,-3.05717 -4.61613,-7.238 -4.61613,-12.54252 0,-5.20325 1.48809,-9.33347 4.46429,-12.39067 2.57125,-2.61172 5.7499,-3.9176 9.53595,-3.91764 4.08971,4e-5 7.63279,1.72096 10.62925,5.16278 l 0,-19.2845 5.28426,0 z m -5.28426,-12.05661 0,-7.7138 c -2e-5,-2.04484 -1.26541,-4.01884 -3.79616,-5.92201 -1.78168,-1.29573 -3.73544,-1.94361 -5.86127,-1.94363 -2.38907,2e-5 -4.41368,0.83012 -6.07386,2.49028 -2.20684,2.20686 -3.31026,5.35514 -3.31025,9.44485 -1e-5,3.68482 0.91107,6.69137 2.73324,9.01968 1.7614,2.20684 3.95811,3.31025 6.59013,3.31025 3.0774,0 5.69928,-1.50834 7.86565,-4.52502 1.23499,-1.68043 1.8525,-3.06729 1.85252,-4.1606 z"
       id="path3667"
       style="fill:#ffffff;stroke:#ffffff;font-family:IPAPGothic;-inkscape-font-specification:IPAPGothic" />
    <path
       d="m 281.10982,173.70542 c 4.37315,4e-5 8.05796,1.46788 11.05442,4.40355 3.07739,3.07745 4.6161,7.12668 4.61613,12.14772 -3e-5,4.83885 -1.50837,8.77673 -4.52502,11.81365 -2.95597,2.9357 -6.67115,4.40355 -11.14553,4.40355 -4.47443,0 -8.15923,-1.4476 -11.05442,-4.34281 -3.03694,-3.03692 -4.5554,-7.05579 -4.5554,-12.05661 0,-4.89956 1.53871,-8.88805 4.61613,-11.9655 2.93569,-2.93567 6.60025,-4.40351 10.99369,-4.40355 z m 0,4.09986 c -2.59153,3e-5 -4.78824,0.93135 -6.59014,2.79397 -2.28783,2.28785 -3.43174,5.4665 -3.43173,9.53596 -10e-6,4.00876 1.12366,7.13679 3.37099,9.38411 1.82215,1.82216 4.0391,2.73324 6.65088,2.73324 2.67247,0 4.90968,-0.93132 6.71161,-2.79398 2.2473,-2.24732 3.37096,-5.42596 3.37099,-9.53595 -3e-5,-3.86701 -1.14394,-6.97479 -3.43173,-9.32338 -1.86267,-1.86262 -4.07963,-2.79394 -6.65087,-2.79397 z"
       id="path3669"
       style="fill:#ffffff;stroke:#ffffff;font-family:IPAPGothic;-inkscape-font-specification:IPAPGothic" />
    <path
       d="m 310.93246,179.62744 c 2.75347,-3.94798 6.29655,-5.92198 10.62925,-5.92202 3.68479,4e-5 6.83307,1.30592 9.44485,3.91764 3.0369,3.03696 4.55536,7.22792 4.5554,12.57289 -4e-5,5.22353 -1.5185,9.34362 -4.5554,12.3603 -2.61178,2.61176 -5.80056,3.91764 -9.56632,3.91764 -4.19098,0 -7.81505,-1.77154 -10.87221,-5.31463 l -0.75923,4.58577 -4.16059,0 0,-46.16133 5.28425,0 z m 0,7.13678 0,7.22789 c -10e-6,2.36882 1.30587,4.48454 3.91764,6.34718 1.78165,1.27552 3.69491,1.91327 5.7398,1.91327 2.38903,0 4.41364,-0.83009 6.07386,-2.49028 2.2068,-2.26757 3.31022,-5.41585 3.31025,-9.44485 -3e-5,-3.6443 -0.91111,-6.63061 -2.73324,-8.95894 -1.80193,-2.2473 -3.99864,-3.37097 -6.59013,-3.371 -2.36883,3e-5 -4.59591,1.04271 -6.68125,3.12804 -2.02463,2.02464 -3.03694,3.90754 -3.03693,5.64869 z"
       id="path3671"
       style="fill:#ffffff;stroke:#ffffff;font-family:IPAPGothic;-inkscape-font-specification:IPAPGothic" />
    <path
       d="m 369.5452,205.56281 -4.73761,0 c -0.70864,-1.55895 -1.16418,-3.1584 -1.36662,-4.79835 l -0.18222,0 c -2.34858,3.7658 -5.85116,5.64869 -10.50777,5.64869 -3.19891,0 -5.81067,-1.01231 -7.83528,-3.03693 -1.78167,-1.78166 -2.6725,-3.95812 -2.67249,-6.5294 -10e-6,-6.39778 5.51707,-9.75864 16.55126,-10.0826 l 4.16059,-0.12148 0,-1.60957 c -2e-5,-2.16632 -0.62765,-3.867 -1.88289,-5.10204 -1.27554,-1.29573 -2.9256,-1.94361 -4.9502,-1.94364 -3.48236,3e-5 -6.09411,1.69059 -7.83528,5.07168 l -4.61613,-2.12585 c 2.85471,-4.73758 7.04567,-7.10639 12.57289,-7.10642 3.78602,3e-5 6.71159,1.06296 8.77672,3.18878 1.90312,1.90317 2.85469,4.59591 2.85472,8.07823 l 0,11.38848 c -3e-5,3.86703 0.55674,6.89383 1.67031,9.08042 z m -6.46866,-15.18464 -3.43173,0.0607 c -7.99726,0.18224 -11.99588,2.33845 -11.99587,6.46866 -10e-6,1.45774 0.47578,2.66238 1.42736,3.61395 1.17426,1.15404 2.71297,1.73105 4.61613,1.73105 2.65223,0 4.95017,-0.97181 6.89383,-2.91545 1.66016,-1.72092 2.49025,-3.79615 2.49028,-6.22571 z"
       id="path3673"
       style="fill:#ffffff;stroke:#ffffff;font-family:IPAPGothic;-inkscape-font-specification:IPAPGothic" />
    <path
       d="m 394.84282,181.41922 c -1.92341,-2.49025 -4.35295,-3.73539 -7.28863,-3.73542 -3.84679,3e-5 -5.77018,1.478 -5.77017,4.43392 -10e-6,2.08538 2.07523,3.8063 6.22571,5.16278 l 2.03474,0.66812 c 5.89162,1.92341 8.83744,5.10206 8.83746,9.53596 -2e-5,2.9762 -1.22492,5.31463 -3.67468,7.01531 -1.94365,1.316 -4.45418,1.974 -7.53158,1.974 -4.73762,0 -8.75649,-1.73105 -12.05661,-5.19315 l 3.37099,-3.0673 c 2.55101,2.73324 5.50695,4.09986 8.86783,4.09986 3.98848,0 5.98273,-1.54883 5.98275,-4.6465 -2e-5,-2.34855 -2.19673,-4.30231 -6.59013,-5.86128 l -2.12585,-0.72886 c -5.54747,-1.94362 -8.32119,-4.78821 -8.32119,-8.53377 0,-2.36878 0.80984,-4.36303 2.42954,-5.98275 1.94363,-1.94361 4.61612,-2.91542 8.0175,-2.91545 4.55537,3e-5 8.29079,1.57923 11.20626,4.73761 z"
       id="path3675"
       style="fill:#ffffff;stroke:#ffffff;font-family:IPAPGothic;-inkscape-font-specification:IPAPGothic" />
    <path
       d="m 434.44437,205.56281 -5.34499,0 0,-19.22376 c -3e-5,-5.26399 -2.15625,-7.89599 -6.46866,-7.89602 -4.43394,3e-5 -7.67332,2.63203 -9.71818,7.89602 l 0,19.22376 -5.34499,0 0,-45.97911 5.34499,0 0,20.28669 c 2.81421,-3.92773 6.42815,-5.89161 10.84184,-5.89164 7.12663,3e-5 10.68996,4.0189 10.68999,12.05661 z"
       id="path3677"
       style="fill:#ffffff;stroke:#ffffff;font-family:IPAPGothic;-inkscape-font-specification:IPAPGothic" />
    <path
       d="m 451.14749,167.996 -6.10423,0 0,-6.22571 6.10423,0 z m -0.3948,37.56681 -5.345,0 0,-30.97668 5.345,0 z"
       id="path3679"
       style="fill:#ffffff;stroke:#ffffff;font-family:IPAPGothic;-inkscape-font-specification:IPAPGothic" />
  </g>
  <g
     transform="scale(0.9244516,1.0817224)"
     id="text3645"
     style="font-size:62.19700623px;font-style:normal;font-weight:normal;text-align:center;text-anchor:middle;fill:#ffffff;fill-opacity:1;stroke:#ffffff;stroke-opacity:1;font-family:IPAPGothic;-inkscape-font-specification:IPAPGothic">
    <path
       d="m 538.55881,271.26412 -7.34945,0 0,10.65974 -4.98062,0 0,-10.65974 -22.80759,0 0,-4.98062 21.92687,-29.21559 5.86134,0 0,29.58002 7.34945,0 z m -12.02637,-28.66894 -0.18222,0 c -1.80196,2.91553 -3.60389,5.58805 -5.4058,8.01759 l -12.05674,16.03516 17.34106,0 0,-14.66853 c -2e-5,-2.12584 0.10121,-5.25391 0.3037,-9.38422 z"
       id="path3687"
       style="font-variant:normal;font-stretch:normal;fill:#ffffff;fill-opacity:1;stroke:#ffffff;stroke-width:1.5549252;stroke-miterlimit:4;stroke-opacity:1;font-family:IPAPGothic;-inkscape-font-specification:IPAPGothic" />
    <path
       d="m 560.54642,236.61237 c 5.46651,4e-5 9.66764,2.53084 12.6034,7.5924 2.32831,4.00883 3.49247,9.19191 3.49251,15.54926 -4e-5,6.29665 -1.1642,11.48985 -3.49251,15.57962 -2.89527,5.00087 -7.16726,7.5013 -12.81598,7.5013 -5.62852,0 -9.89039,-2.50043 -12.78562,-7.5013 -2.32834,-4.08977 -3.49251,-9.30322 -3.49251,-15.64036 0,-8.82741 2.136,-15.25564 6.408,-19.28472 2.713,-2.53076 6.07391,-3.79616 10.08271,-3.7962 z m -0.21258,4.4947 c -3.23945,4e-5 -5.79049,1.64 -7.65315,4.91988 -1.90317,3.32045 -2.85475,7.90626 -2.85475,13.75745 0,5.72975 0.93133,10.2447 2.79401,13.54485 1.8829,3.23943 4.4542,4.85915 7.71389,4.85914 3.90753,10e-6 6.80277,-2.27771 8.68571,-6.83316 1.235,-3.0572 1.85252,-7.02549 1.85255,-11.9049 -3e-5,-5.68922 -0.95161,-10.16367 -2.85475,-13.42338 -1.92343,-3.27988 -4.4846,-4.91984 -7.68351,-4.91988 z"
       id="path3689"
       style="font-variant:normal;font-stretch:normal;fill:#ffffff;fill-opacity:1;stroke:#ffffff;stroke-width:1.5549252;stroke-miterlimit:4;stroke-opacity:1;font-family:IPAPGothic;-inkscape-font-specification:IPAPGothic" />
    <path
       d="m 599.78399,236.61237 c 5.46651,4e-5 9.66763,2.53084 12.6034,7.5924 2.3283,4.00883 3.49247,9.19191 3.4925,15.54926 -3e-5,6.29665 -1.1642,11.48985 -3.4925,15.57962 -2.89527,5.00087 -7.16726,7.5013 -12.81599,7.5013 -5.62852,0 -9.89039,-2.50043 -12.78561,-7.5013 -2.32835,-4.08977 -3.49252,-9.30322 -3.49251,-15.64036 -10e-6,-8.82741 2.13599,-15.25564 6.40799,-19.28472 2.71301,-2.53076 6.07391,-3.79616 10.08272,-3.7962 z m -0.21259,4.4947 c -3.23944,4e-5 -5.79049,1.64 -7.65315,4.91988 -1.90317,3.32045 -2.85475,7.90626 -2.85474,13.75745 -10e-6,5.72975 0.93132,10.2447 2.794,13.54485 1.88291,3.23943 4.4542,4.85915 7.71389,4.85914 3.90754,10e-6 6.80277,-2.27771 8.68572,-6.83316 1.235,-3.0572 1.85251,-7.02549 1.85254,-11.9049 -3e-5,-5.68922 -0.95161,-10.16367 -2.85474,-13.42338 -1.92344,-3.27988 -4.48461,-4.91984 -7.68352,-4.91988 z"
       id="path3691"
       style="font-variant:normal;font-stretch:normal;fill:#ffffff;fill-opacity:1;stroke:#ffffff;stroke-width:1.5549252;stroke-miterlimit:4;stroke-opacity:1;font-family:IPAPGothic;-inkscape-font-specification:IPAPGothic" />
    <path
       d="m 668.02455,281.92386 -5.34505,0 0,-19.4062 c -5e-5,-5.22355 -2.02469,-7.83533 -6.07393,-7.83536 -1.92345,3e-5 -3.68488,0.89087 -5.28432,2.67253 -1.13383,1.2553 -1.92344,2.83452 -2.36883,4.73766 l 0,19.83137 -5.34505,0 0,-19.46694 c -3e-5,-5.18306 -1.91331,-7.77459 -5.73986,-7.77462 -2.02466,3e-5 -3.80635,0.89087 -5.34506,2.67253 -1.66022,1.84244 -2.49032,3.62413 -2.49031,5.34505 l 0,19.22398 -5.34505,0 0,-30.97703 4.98062,0 0,5.34506 c 2.04487,-3.96827 5.13245,-5.95242 9.26273,-5.95245 4.51493,3e-5 7.52152,2.15627 9.01978,6.46873 2.24733,-4.31246 5.47663,-6.4687 9.68792,-6.46873 3.40135,3e-5 6.05363,1.20469 7.95684,3.61399 1.61967,1.98417 2.42952,4.79842 2.42957,8.44275 z"
       id="path3693"
       style="font-variant:normal;font-stretch:normal;fill:#ffffff;fill-opacity:1;stroke:#ffffff;stroke-width:1.5549252;stroke-miterlimit:4;stroke-opacity:1;font-family:IPAPGothic;-inkscape-font-specification:IPAPGothic" />
  </g>
  <g
     id="text3649"
     style="font-size:33.81323624px;font-style:normal;font-weight:normal;text-align:center;text-anchor:middle;fill:#ffffff;fill-opacity:1;stroke:#ffffff;stroke-width:0.84533089;stroke-opacity:1;font-family:IPAPGothic;-inkscape-font-specification:IPAPGothic">
    <path
       d="m 363.08344,341.19259 -15.51975,0 0,-24.15467 15.10699,0 0,2.57562 -12.16814,0 0,7.90846 10.78127,0 0,2.42703 -10.78127,0 0,8.63492 12.5809,0 z"
       id="path3696" />
    <path
       d="m 386.69327,341.19259 -3.87994,0 -6.90133,-10.08784 -6.76925,10.08784 -3.8139,0 8.78352,-12.18465 -8.55237,-11.97002 3.79738,0 6.65368,9.93924 6.70321,-9.93924 3.78087,0 -8.65143,11.937 z"
       id="path3698" />
    <path
       d="m 394.02388,341.19259 -3.00489,0 0,-24.15467 3.00489,0 z"
       id="path3700" />
    <path
       d="m 417.86485,319.64656 -8.93211,0 0,21.54603 -3.00489,0 0,-21.54603 -8.65143,0 0,-2.60864 20.58843,0 z"
       id="path3702" />
  </g>
</svg>
