<?xml version="1.0" encoding="UTF-8" standalone="no"?>
<!-- Created with Inkscape (http://www.inkscape.org/) -->

<svg
   xmlns:svg="http://www.w3.org/2000/svg"
   xmlns="http://www.w3.org/2000/svg"
   version="1.0"
   width="500"
   height="500"
   id="svg4203">
  <rect
     width="497.5"
     height="497.5"
     x="2.5"
     y="2.5"
     id="rect2870"
     style="color:#000000;fill:#005d35;fill-opacity:1;fill-rule:nonzero;stroke:#005d35;stroke-width:5;stroke-linecap:round;stroke-linejoin:round;stroke-miterlimit:4;stroke-opacity:1;stroke-dasharray:none;stroke-dashoffset:261;marker:none;visibility:visible;display:inline;overflow:visible;enable-background:accumulate" />
  <defs />
  <g
     id="text2864"
     style="font-size:40px;font-style:normal;font-weight:normal;text-align:center;text-anchor:middle;fill:#ffffff;fill-opacity:1;stroke:none;font-family:GD-HighwayGothicJA-TTF;-inkscape-font-specification:GD-HighwayGothicJA-TTF">
    <path
       d="m 232.72263,29.804024 4.98046,0 c -0.13023,0.260458 -0.24416,0.520875 -0.34179,0.78125 l 0,0 17.23633,0 c -2.86462,7.421909 -6.86853,14.143907 -12.01172,20.166015 l 0,0 20.36133,0 0,25.732422 -28.22266,0 0,-17.724609 c -4.78517,4.134124 -9.96095,7.633469 -15.52734,10.498047 l 0,0 -2.00196,-4.003907 c 3.09245,-1.595043 6.07096,-3.401682 8.93555,-5.419921 2.76691,-2.018215 5.40363,-4.215479 7.91016,-6.591797 l 0,0 -7.22657,-8.398438 c -2.3112,2.148463 -4.80144,4.00393 -7.4707,5.566406 l 0,0 -2.24609,-3.759765 c 3.2552,-2.018202 6.20116,-4.459606 8.83789,-7.324219 2.66925,-2.864548 4.93162,-6.038373 6.78711,-9.521484 z m 2.19726,5.273437 c -1.43231,2.311233 -3.05991,4.475944 -4.88281,6.494141 l 0,0 7.27539,8.398437 c 4.10154,-4.492161 7.55205,-9.456348 10.35156,-14.892578 l 0,0 z m 4.29688,20.166016 0,16.748047 19.23828,0 0,-16.748047 z"
       id="path3868"
       style="font-size:50px;fill:#ffffff" />
    <path
       d="m 267.9277,37.274727 0,-4.492188 20.75196,0 0,-4.003906 4.54101,0 0,4.003906 20.75196,0 0,4.492188 -20.75196,0 0,13.476562 16.74805,0 0,25.732422 -38.03711,0 0,-25.732422 16.74805,0 0,-13.476562 z m 8.54493,17.96875 0,16.748047 28.95507,0 0,-16.748047 z"
       id="path3870"
       style="font-size:50px;fill:#ffffff" />
    <path
       d="m 363.63083,31.024727 0,13.037109 -37.98828,0 0,19.140625 c -1e-5,3.02735 -0.65105,5.908206 -1.95313,8.642578 -0.91146,1.920572 -2.14844,3.597002 -3.71093,5.029297 l 0,0 -3.32032,-3.320312 c 2.86458,-2.799478 4.2806,-6.249996 4.24805,-10.351563 l 0,0 0,-32.177734 z m -4.58984,4.589844 -33.39844,0 0,3.857421 33.39844,0 z m -28.56446,10.546875 31.98242,0 0,4.589843 -5.41992,0 5.41992,7.861328 -3.71093,2.636719 -1.85547,-2.539062 -25.87891,2.392578 -0.3418,-4.736328 3.02735,-0.244141 5.0293,-5.371094 -8.25196,0 z m 22.2168,6.689453 3.17383,-2.09961 -10.69336,0 -4.54102,4.785157 13.23242,-1.123047 z m -21.72852,10.693359 13.42774,0 0,-2.294922 4.54101,0 0,2.294922 13.33008,0 0,4.589844 -13.33008,0 0,3.662109 15.57618,0 0,4.589844 -36.76758,0 0,-4.589844 16.65039,0 0,-3.662109 -13.42774,0 z"
       id="path3872"
       style="font-size:50px;fill:#ffffff" />
  </g>
  <g
     id="text2864-2"
     style="font-size:40px;font-style:normal;font-weight:normal;text-align:center;text-anchor:middle;fill:#ffffff;fill-opacity:1;stroke:none;font-family:GD-HighwayGothicJA-TTF;-inkscape-font-specification:GD-HighwayGothicJA-TTF">
    <path
       d="m 31.609344,351.95193 c 4.524735,-2.60416 8.479809,-5.94074 11.865235,-10.00976 2.148423,-2.53905 4.036442,-5.24087 5.664062,-8.10547 1.790345,-3.02732 3.173807,-6.2337 4.150391,-9.61914 l 0,0 -20.458984,0 0,-4.44336 20.751953,0 0,-11.37695 4.736328,0 0,11.37695 20.800781,0 0,4.44336 -20.458984,0 c 0.943982,3.38544 2.294892,6.59182 4.052734,9.61914 1.627571,2.8646 3.499314,5.56642 5.615234,8.10547 3.385376,4.10157 7.389279,7.43815 12.011719,10.00976 l 0,0 -2.148437,4.19922 c -4.459678,-2.50651 -8.365925,-5.64778 -11.71875,-9.42382 -2.181023,-2.34375 -4.134146,-4.83398 -5.859375,-7.47071 -1.855497,-2.79946 -3.401719,-5.77797 -4.638672,-8.93554 l 0,0 c -1.302107,3.15757 -2.880882,6.13608 -4.736328,8.93554 -1.725279,2.63673 -3.678402,5.12696 -5.859375,7.47071 -3.41798,3.80859 -7.356778,6.94986 -11.816407,9.42382 l 0,0 z"
       id="path3906"
       style="font-size:50px;fill:#ffffff" />
    <path
       d="m 99.43161,310.64334 30.0293,0 0,4.49219 -30.0293,0 z m 0,40.9668 30.0293,0 0,4.49219 -30.0293,0 z m -16.992187,-30.22461 5.517578,0 0,-11.96289 4.492187,0 0,11.96289 5.761719,0 0,4.49219 -5.761719,0 0,17.33398 c 1.497383,-0.61848 2.962225,-1.3509 4.394531,-2.19727 l 0,0 2.246094,3.75977 c -2.311213,1.46485 -4.752617,2.68555 -7.324219,3.66211 -2.962247,1.10677 -5.989588,2.00195 -9.082031,2.68555 l 0,0 -0.976562,-4.49219 c 2.08333,-0.42317 4.166661,-0.99283 6.25,-1.70899 l 0,0 0,-19.04296 -5.517578,0 z m 18.261717,-1.75781 27.49024,0 0,26.02539 -27.49024,0 z m 4.49219,15.23437 0,6.25 18.50586,0 0,-6.25 z m 0,-4.49219 18.50586,0 0,-6.25 -18.50586,0 z"
       id="path3908"
       style="font-size:50px;fill:#ffffff" />
  </g>
  <path
     d="m 444.17056,297.4184 4.98047,0 c -0.13023,0.26045 -0.24416,0.52087 -0.3418,0.78125 l 0,0 17.23633,0 c -2.86462,7.4219 -6.86852,14.1439 -12.01172,20.16601 l 0,0 20.36133,0 0,25.73242 -28.22265,0 0,-17.72461 c -4.78517,4.13413 -9.96095,7.63347 -15.52735,10.49805 l 0,0 -2.00195,-4.00391 c 3.09244,-1.59504 6.07096,-3.40168 8.93555,-5.41992 2.76691,-2.01821 5.40363,-4.21548 7.91015,-6.59179 l 0,0 -7.22656,-8.39844 c -2.31121,2.14846 -4.80144,4.00393 -7.4707,5.5664 l 0,0 -2.2461,-3.75976 c 3.25521,-2.0182 6.20117,-4.45961 8.83789,-7.32422 2.66926,-2.86455 4.93163,-6.03837 6.78711,-9.52148 z m 2.19727,5.27343 c -1.43231,2.31124 -3.05991,4.47595 -4.88281,6.49414 l 0,0 7.27539,8.39844 c 4.10153,-4.49216 7.55205,-9.45635 10.35156,-14.89258 l 0,0 z m 4.29687,20.16602 0,16.74805 19.23828,0 0,-16.74805 z"
     id="path3890"
     style="font-size:50px;font-style:normal;font-weight:normal;text-align:center;text-anchor:middle;fill:#ffffff;fill-opacity:1;stroke:none;font-family:GD-HighwayGothicJA-TTF;-inkscape-font-specification:GD-HighwayGothicJA-TTF" />
  <g
     transform="scale(1.0491479,0.95315445)"
     id="text2864-6"
     style="font-size:31.47443771px;font-style:normal;font-weight:normal;text-align:center;text-anchor:middle;fill:#ffffff;fill-opacity:1;stroke:none;font-family:GD-HighwayGothicJA-TTF;-inkscape-font-specification:GD-HighwayGothicJA-TTF">
    <path
       d="m 244.95813,87.900078 0,16.503902 -6.90918,-16.503902 -4.22363,0 0,23.266602 3.54004,0 0,-16.528321 6.88476,16.528321 4.22363,0 0,-23.266602 z"
       id="path3875"
       style="font-size:25px;fill:#ffffff" />
    <path
       d="m 263.78137,111.16668 c -0.65105,-1.05794 -0.94402,-2.22168 -0.8789,-3.49121 l 0,0 c -0.0163,-1.33463 -0.0163,-2.66927 0,-4.00391 -0.0163,-1.59504 -0.0163,-3.19823 0,-4.809568 l 0,0 c 0.0163,-1.334624 -0.4883,-2.425118 -1.51368,-3.271484 -1.25326,-0.813788 -2.62859,-1.196275 -4.12597,-1.147461 l 0,0 c -3.71094,0.113946 -5.65593,2.001965 -5.83496,5.664063 l 0,0 3.34472,0 c -0.11393,-1.790355 0.71614,-2.734364 2.49024,-2.832032 l 0,0 c 1.43228,-0.06509 2.19725,0.585949 2.29492,1.953125 l 0,0 c -0.0488,0.846367 -0.45574,1.399747 -1.2207,1.660157 -0.76499,0.26042 -1.48113,0.46387 -2.14844,0.61035 l 0,0 c -0.89519,0.19532 -1.74561,0.5127 -2.55127,0.95215 -0.80567,0.43946 -1.47298,1.0376 -2.00195,1.79443 -0.52898,0.75684 -0.77719,1.59913 -0.74463,2.52686 l 0,0 c -0.0977,1.30208 0.21972,2.48209 0.95215,3.54004 0.97656,1.02539 2.18912,1.48925 3.63769,1.3916 l 0,0 c 1.82291,-0.0651 3.26334,-0.8545 4.32129,-2.36817 l 0,0 0.26855,1.83106 z m -7.22656,-2.44141 c -1.48113,0.14649 -2.2461,-0.50455 -2.29492,-1.95312 l 0,0 c -0.0651,-0.69987 0.13427,-1.28174 0.59814,-1.74561 0.46386,-0.46386 1.02946,-0.7609 1.69678,-0.89111 l 0,0 c 0.52083,-0.16276 1.04166,-0.32959 1.5625,-0.50049 0.52082,-0.17089 1.00097,-0.45165 1.44043,-0.84228 l 0,0 c -0.0163,0.99284 -0.0163,1.9694 0,2.92968 l 0,0 c -0.16277,1.85547 -1.16375,2.85645 -3.00293,3.00293 z"
       id="path3877"
       style="font-size:25px;fill:#ffffff" />
    <path
       d="m 275.42688,95.00457 2.85645,0 0,16.79688 c -2e-5,1.48111 -0.39878,2.83202 -1.19629,4.05273 -1.35093,1.6276 -3.09246,2.39257 -5.22461,2.29492 l 0,0 c -0.92774,0.0325 -1.84734,-0.0855 -2.75879,-0.354 -0.91146,-0.26857 -1.68458,-0.76092 -2.31934,-1.47705 -0.78125,-0.99285 -1.14746,-2.13217 -1.09863,-3.41797 l 0,0 3.36914,0 c -10e-6,0.74869 0.28889,1.32649 0.8667,1.7334 0.57779,0.40689 1.22476,0.58593 1.94092,0.53711 l 0,0 c 0.89517,0.0488 1.63166,-0.24415 2.20947,-0.87891 0.57779,-0.63477 0.86669,-1.39974 0.8667,-2.29492 l 0,0 0,-2.80762 c -0.94402,1.25325 -2.19728,1.88802 -3.75977,1.9043 l 0,0 c -1.69271,-0.0326 -3.10872,-0.67546 -4.24804,-1.92871 -1.41602,-1.79037 -2.0752,-3.84115 -1.97754,-6.15235 l 0,0 c -0.0814,-2.36002 0.5778,-4.484036 1.97754,-6.372068 1.10676,-1.334621 2.52278,-2.050766 4.24804,-2.148437 l 0,0 c 1.74153,0.01629 3.06803,0.781264 3.9795,2.294922 l 0,0 z m -3.71094,13.45215 c 0.84635,-0.0163 1.5096,-0.34587 1.98975,-0.98877 0.48013,-0.6429 0.80158,-1.35091 0.96435,-2.12402 0.16275,-0.77311 0.25227,-1.55029 0.26856,-2.33155 l 0,0 c -0.0163,-0.78124 -0.10581,-1.55842 -0.26856,-2.33154 -0.16277,-0.773103 -0.48422,-1.48111 -0.96435,-2.124024 -0.48015,-0.642892 -1.1434,-0.988758 -1.98975,-1.037598 l 0,0 c -0.86263,0.04884 -1.52995,0.398775 -2.00195,1.049805 -0.47201,0.651052 -0.78126,1.359059 -0.92774,2.124027 -0.14648,0.76498 -0.21973,1.53809 -0.21972,2.31933 l 0,0 c -10e-6,0.78126 0.0692,1.55437 0.20752,2.31934 0.13834,0.76498 0.44758,1.47298 0.92773,2.12402 0.48014,0.65104 1.15153,0.9847 2.01416,1.00098 z"
       id="path3879"
       style="font-size:25px;fill:#ffffff" />
    <path
       d="m 287.36536,111.70379 c 1.8229,-0.0488 3.36913,-0.74056 4.63867,-2.0752 1.57876,-1.87174 2.3356,-4.05273 2.27051,-6.54297 l 0,0 c 0.0651,-2.49022 -0.69175,-4.679347 -2.27051,-6.567378 -1.26954,-1.318346 -2.81577,-2.010077 -4.63867,-2.075195 l 0,0 c -1.8392,0.06512 -3.38542,0.756849 -4.63868,2.075195 -1.59505,1.888031 -2.34375,4.077158 -2.24609,6.567378 l 0,0 c -0.0977,2.49024 0.65104,4.67123 2.24609,6.54297 1.25326,1.33464 2.79948,2.02637 4.63868,2.0752 z m 0,-2.97852 c -1.10678,-0.0326 -1.92872,-0.52897 -2.46582,-1.48925 -0.65105,-1.30208 -0.94402,-2.68555 -0.87891,-4.1504 l 0,0 c -0.0651,-1.44856 0.22786,-2.82388 0.87891,-4.125972 0.5371,-0.960275 1.35904,-1.464832 2.46582,-1.513672 l 0,0 c 1.10676,0.04884 1.92056,0.553397 2.4414,1.513672 0.65103,1.302092 0.95214,2.677412 0.90332,4.125972 l 0,0 c 0.0488,1.46485 -0.25229,2.84832 -0.90332,4.1504 -0.52084,0.96028 -1.33464,1.4567 -2.4414,1.48925 z"
       id="path3881"
       style="font-size:25px;fill:#ffffff" />
    <path
       d="m 304.50403,95.053398 3.36914,0 -5.15137,19.873052 c -0.53711,1.92056 -1.78223,2.94595 -3.73535,3.07617 l 0,0 -2.31934,0 0,-3.39356 1.61133,0 c 0.53711,0.0488 0.99691,-0.11394 1.3794,-0.48828 0.38248,-0.37435 0.56558,-0.83415 0.54931,-1.37939 -0.0163,-0.54525 -0.0895,-1.06202 -0.21972,-1.5503 l 0,0 -4.34571,-16.137692 3.34473,0 2.75879,12.524412 z"
       id="path3883"
       style="font-size:25px;fill:#ffffff" />
    <path
       d="m 322.17981,111.16668 c -0.65106,-1.05794 -0.94402,-2.22168 -0.87891,-3.49121 l 0,0 c -0.0163,-1.33463 -0.0163,-2.66927 0,-4.00391 -0.0163,-1.59504 -0.0163,-3.19823 0,-4.809568 l 0,0 c 0.0163,-1.334624 -0.48829,-2.425118 -1.51367,-3.271484 -1.25326,-0.813788 -2.62859,-1.196275 -4.12598,-1.147461 l 0,0 c -3.71094,0.113946 -5.65592,2.001965 -5.83496,5.664063 l 0,0 3.34473,0 c -0.11394,-1.790355 0.71614,-2.734364 2.49023,-2.832032 l 0,0 c 1.43229,-0.06509 2.19726,0.585949 2.29493,1.953125 l 0,0 c -0.0488,0.846367 -0.45574,1.399747 -1.22071,1.660157 -0.76498,0.26042 -1.48112,0.46387 -2.14843,0.61035 l 0,0 c -0.89519,0.19532 -1.74561,0.5127 -2.55127,0.95215 -0.80567,0.43946 -1.47299,1.0376 -2.00196,1.79443 -0.52897,0.75684 -0.77718,1.59913 -0.74463,2.52686 l 0,0 c -0.0976,1.30208 0.21973,2.48209 0.95215,3.54004 0.97656,1.02539 2.18913,1.48925 3.6377,1.3916 l 0,0 c 1.82291,-0.0651 3.26334,-0.8545 4.32129,-2.36817 l 0,0 0.26855,1.83106 z m -7.22656,-2.44141 c -1.48113,0.14649 -2.2461,-0.50455 -2.29492,-1.95312 l 0,0 c -0.0651,-0.69987 0.13427,-1.28174 0.59814,-1.74561 0.46386,-0.46386 1.02945,-0.7609 1.69678,-0.89111 l 0,0 c 0.52082,-0.16276 1.04166,-0.32959 1.5625,-0.50049 0.52082,-0.17089 1.00096,-0.45165 1.44043,-0.84228 l 0,0 c -0.0163,0.99284 -0.0163,1.9694 0,2.92968 l 0,0 c -0.16277,1.85547 -1.16375,2.85645 -3.00293,3.00293 z"
       id="path3885"
       style="font-size:25px;fill:#ffffff" />
  </g>
  <g
     transform="scale(1.0466075,0.95546803)"
     id="text2864-6-3"
     style="font-size:31.39822388px;font-style:normal;font-weight:normal;text-align:center;text-anchor:middle;fill:#ffffff;fill-opacity:1;stroke:none;font-family:GD-HighwayGothicJA-TTF;-inkscape-font-specification:GD-HighwayGothicJA-TTF">
    <path
       d="m 376.31445,389.34869 4.24805,0 -7.42188,-13.64746 6.90918,-9.61914 -4.24804,0 -7.59278,10.69336 0,-10.69336 -3.54003,0 0,23.2666 3.54003,0 0,-6.83593 2.63672,-3.61328 z"
       id="path3893"
       style="font-size:25px;fill:#ffffff" />
    <path
       d="m 391.10937,373.16217 0,10.05859 c 0.0163,0.89519 -0.25228,1.69678 -0.80566,2.40479 -0.55339,0.70801 -1.28581,1.07829 -2.19726,1.11084 l 0,0 c -0.71616,0 -1.25733,-0.27669 -1.62354,-0.83008 -0.36622,-0.55338 -0.53304,-1.16373 -0.50049,-1.83105 l 0,0 0,-10.91309 -3.34472,0 0,11.2793 c -0.0651,1.48112 0.32551,2.81575 1.17187,4.0039 0.94401,1.02539 2.13216,1.50553 3.56445,1.44043 l 0,0 c 0.8138,-0.0326 1.53808,-0.28483 2.17285,-0.75683 0.63476,-0.47201 1.18001,-1.04167 1.63575,-1.70899 l 0,0 0.0976,1.92871 3.17383,0 0,-16.18652 z"
       id="path3895"
       style="font-size:25px;fill:#ffffff" />
    <path
       d="m 411.8125,373.16217 -2.19727,11.37695 -2.39257,-11.37695 -3.00293,0 -2.36817,11.37695 -2.22168,-11.37695 -3.36914,0 3.90625,16.18652 3.34473,0 2.19726,-10.083 2.22168,10.083 3.36914,0 3.85743,-16.18652 z"
       id="path3897"
       style="font-size:25px;fill:#ffffff" />
    <path
       d="m 429.39062,389.34869 c -0.65105,-1.05794 -0.94402,-2.22168 -0.8789,-3.49121 l 0,0 c -0.0163,-1.33463 -0.0163,-2.66926 0,-4.0039 -0.0163,-1.59505 -0.0163,-3.19824 0,-4.80957 l 0,0 c 0.0163,-1.33463 -0.4883,-2.42512 -1.51367,-3.27149 -1.25327,-0.81379 -2.62859,-1.19627 -4.12598,-1.14746 l 0,0 c -3.71094,0.11395 -5.65593,2.00197 -5.83496,5.66406 l 0,0 3.34473,0 c -0.11394,-1.79035 0.71614,-2.73436 2.49023,-2.83203 l 0,0 c 1.43228,-0.0651 2.19726,0.58595 2.29492,1.95313 l 0,0 c -0.0488,0.84636 -0.45574,1.39975 -1.2207,1.66015 -0.76498,0.26043 -1.48113,0.46388 -2.14844,0.61036 l 0,0 c -0.89519,0.19532 -1.74561,0.5127 -2.55127,0.95214 -0.80567,0.43946 -1.47298,1.03761 -2.00195,1.79444 -0.52897,0.75684 -0.77718,1.59912 -0.74463,2.52685 l 0,0 c -0.0977,1.30209 0.21973,2.4821 0.95215,3.54004 0.97656,1.02539 2.18912,1.48926 3.63769,1.3916 l 0,0 c 1.82291,-0.0651 3.26334,-0.85449 4.32129,-2.36816 l 0,0 0.26856,1.83105 z m -7.22656,-2.4414 c -1.48112,0.14648 -2.2461,-0.50456 -2.29492,-1.95313 l 0,0 c -0.0651,-0.69986 0.13427,-1.28173 0.59815,-1.7456 0.46386,-0.46387 1.02945,-0.7609 1.69677,-0.89112 l 0,0 c 0.52083,-0.16275 1.04166,-0.32958 1.5625,-0.50048 0.52083,-0.1709 1.00097,-0.45166 1.44043,-0.84229 l 0,0 c -0.0163,0.99284 -0.0163,1.96941 0,2.92969 l 0,0 c -0.16277,1.85547 -1.16374,2.85644 -3.00293,3.00293 z"
       id="path3899"
       style="font-size:25px;fill:#ffffff" />
    <path
       d="m 438.13086,372.62506 c -0.83009,0.0488 -1.56658,0.30926 -2.20947,0.78125 -0.64291,0.47202 -1.17595,1.04168 -1.59912,1.70899 l 0,0 -0.0733,-1.95313 -3.17382,0 0,16.18652 3.34472,0 0,-10.00976 c -0.0326,-0.8789 0.22786,-1.67642 0.78125,-2.39258 0.55338,-0.71613 1.29394,-1.09862 2.22168,-1.14746 l 0,0 c 0.69986,0.0163 1.2329,0.30112 1.59912,0.85449 0.3662,0.5534 0.54117,1.15561 0.5249,1.80664 l 0,0 0,10.88867 3.34473,0 0,-11.23046 c 0.0163,-0.91145 -0.13836,-1.8107 -0.46387,-2.69776 -0.32553,-0.88703 -0.88705,-1.58283 -1.68457,-2.0874 -0.79753,-0.50454 -1.6683,-0.74055 -2.6123,-0.70801 z"
       id="path3901"
       style="font-size:25px;fill:#ffffff" />
    <path
       d="m 457.95508,389.34869 c -0.65106,-1.05794 -0.94403,-2.22168 -0.87891,-3.49121 l 0,0 c -0.0163,-1.33463 -0.0163,-2.66926 0,-4.0039 -0.0163,-1.59505 -0.0163,-3.19824 0,-4.80957 l 0,0 c 0.0163,-1.33463 -0.48829,-2.42512 -1.51367,-3.27149 -1.25327,-0.81379 -2.62859,-1.19627 -4.12598,-1.14746 l 0,0 c -3.71094,0.11395 -5.65592,2.00197 -5.83496,5.66406 l 0,0 3.34473,0 c -0.11394,-1.79035 0.71614,-2.73436 2.49023,-2.83203 l 0,0 c 1.43229,-0.0651 2.19726,0.58595 2.29493,1.95313 l 0,0 c -0.0488,0.84636 -0.45574,1.39975 -1.22071,1.66015 -0.76498,0.26043 -1.48112,0.46388 -2.14844,0.61036 l 0,0 c -0.89518,0.19532 -1.74561,0.5127 -2.55126,0.95214 -0.80567,0.43946 -1.47299,1.03761 -2.00196,1.79444 -0.52897,0.75684 -0.77718,1.59912 -0.74463,2.52685 l 0,0 c -0.0977,1.30209 0.21973,2.4821 0.95215,3.54004 0.97656,1.02539 2.18912,1.48926 3.6377,1.3916 l 0,0 c 1.82291,-0.0651 3.26333,-0.85449 4.32129,-2.36816 l 0,0 0.26855,1.83105 z m -7.22656,-2.4414 c -1.48113,0.14648 -2.2461,-0.50456 -2.29493,-1.95313 l 0,0 c -0.0651,-0.69986 0.13428,-1.28173 0.59815,-1.7456 0.46386,-0.46387 1.02945,-0.7609 1.69678,-0.89112 l 0,0 c 0.52082,-0.16275 1.04165,-0.32958 1.5625,-0.50048 0.52082,-0.1709 1.00096,-0.45166 1.44043,-0.84229 l 0,0 c -0.0163,0.99284 -0.0163,1.96941 0,2.92969 l 0,0 c -0.16277,1.85547 -1.16375,2.85644 -3.00293,3.00293 z"
       id="path3903"
       style="font-size:25px;fill:#ffffff" />
  </g>
  <g
     transform="scale(1.0744828,0.93068033)"
     id="text2864-6-9"
     style="font-size:32.23448181px;font-style:normal;font-weight:normal;text-align:center;text-anchor:middle;fill:#ffffff;fill-opacity:1;stroke:none;font-family:GD-HighwayGothicJA-TTF;-inkscape-font-specification:GD-HighwayGothicJA-TTF">
    <path
       d="m 48.798599,387.642 c 2.815743,0.0489 4.980454,1.27769 6.494141,3.68652 0.797509,1.31838 1.354962,2.71812 1.672363,4.19922 0.317364,1.48113 0.476056,2.97853 0.476074,4.49219 l 0,0 c -1.8e-5,1.51368 -0.15871,3.01514 -0.476074,4.50439 -0.317401,1.48926 -0.874854,2.88493 -1.672363,4.18701 -1.513687,2.3763 -3.678398,3.58073 -6.494141,3.61329 l 0,0 c -2.832038,-0.0326 -5.004888,-1.23699 -6.518554,-3.61329 -0.781253,-1.30208 -1.334638,-2.69775 -1.660157,-4.18701 -0.325522,-1.48925 -0.480144,-2.99071 -0.463867,-4.50439 l 0,0 c -0.01628,-1.51366 0.138345,-3.01106 0.463867,-4.49219 0.325519,-1.4811 0.878904,-2.88084 1.660157,-4.19922 1.513666,-2.40883 3.686516,-3.63767 6.518554,-3.68652 z m -4.956054,12.37793 c -0.01628,1.13933 0.06917,2.27051 0.256347,3.39355 0.187169,1.12305 0.557449,2.18913 1.11084,3.19824 0.781243,1.4323 1.977531,2.17286 3.588867,2.22168 l 0,0 c 1.595041,-0.0488 2.799467,-0.78938 3.613281,-2.22168 0.52082,-1.00911 0.874823,-2.07519 1.062012,-3.19824 0.18716,-1.12304 0.280747,-2.25422 0.280762,-3.39355 l 0,0 c -1.5e-5,-1.12304 -0.0936,-2.25015 -0.280762,-3.38135 -0.187189,-1.13117 -0.541192,-2.20132 -1.062012,-3.21045 -0.813814,-1.43227 -2.01824,-2.18097 -3.613281,-2.24609 l 0,0 c -1.611336,0.0651 -2.807624,0.81382 -3.588867,2.24609 -0.553391,1.00913 -0.923671,2.07928 -1.11084,3.21045 -0.187179,1.1312 -0.272629,2.25831 -0.256347,3.38135 z"
       id="path3911"
       style="font-size:25px;fill:#ffffff" />
    <path
       d="m 69.794693,395.4545 2.856445,0 0,16.79687 c -1.4e-5,1.48112 -0.398777,2.83203 -1.196289,4.05274 -1.350923,1.62759 -3.092458,2.39257 -5.224609,2.29492 l 0,0 c -0.927741,0.0325 -1.847337,-0.0855 -2.758789,-0.354 -0.911463,-0.26857 -1.684574,-0.76092 -2.319336,-1.47706 -0.781252,-0.99284 -1.147463,-2.13216 -1.098633,-3.41796 l 0,0 3.369141,0 c -5e-6,0.74869 0.288894,1.32649 0.866699,1.73339 0.577793,0.4069 1.224765,0.58594 1.940918,0.53711 l 0,0 c 0.895173,0.0488 1.631664,-0.24414 2.209473,-0.8789 0.577788,-0.63477 0.866688,-1.39975 0.866699,-2.29492 l 0,0 0,-2.80762 c -0.944021,1.25325 -2.197275,1.88802 -3.759766,1.9043 l 0,0 c -1.692714,-0.0326 -3.108728,-0.67546 -4.248047,-1.92872 -1.416017,-1.79036 -2.075196,-3.84114 -1.977539,-6.15234 l 0,0 c -0.08138,-2.36002 0.577798,-4.48404 1.977539,-6.37207 1.106767,-1.33462 2.522781,-2.05077 4.248047,-2.14844 l 0,0 c 1.741528,0.0163 3.068024,0.78127 3.979492,2.29492 l 0,0 z m -3.710938,13.45215 c 0.846346,-0.0163 1.509594,-0.34587 1.989747,-0.98877 0.480133,-0.6429 0.801584,-1.35091 0.964355,-2.12403 0.16275,-0.7731 0.252268,-1.55028 0.268555,-2.33154 l 0,0 c -0.01629,-0.78124 -0.105805,-1.55842 -0.268555,-2.33154 -0.162771,-0.7731 -0.484222,-1.48111 -0.964355,-2.12403 -0.480153,-0.64289 -1.143401,-0.98875 -1.989747,-1.03759 l 0,0 c -0.862637,0.0488 -1.529954,0.39877 -2.001953,1.0498 -0.47201,0.65105 -0.781255,1.35906 -0.927734,2.12402 -0.146489,0.76499 -0.219731,1.5381 -0.219727,2.31934 l 0,0 c -4e-6,0.78126 0.06917,1.55437 0.20752,2.31934 0.138341,0.76497 0.447586,1.47298 0.927734,2.12402 0.480137,0.65104 1.151523,0.9847 2.01416,1.00098 z"
       id="path3913"
       style="font-size:25px;fill:#ffffff" />
    <path
       d="m 87.739029,411.61661 c -0.651055,-1.05795 -0.944023,-2.22168 -0.878906,-3.49121 l 0,0 c -0.01629,-1.33464 -0.01629,-2.66927 0,-4.00391 -0.01629,-1.59504 -0.01629,-3.19823 0,-4.80957 l 0,0 c 0.01626,-1.33462 -0.488294,-2.42512 -1.513672,-3.27148 -1.253266,-0.81379 -2.62859,-1.19628 -4.125977,-1.14747 l 0,0 c -3.710941,0.11395 -5.655926,2.00197 -5.834961,5.66407 l 0,0 3.344727,0 c -0.113937,-1.79036 0.71614,-2.73437 2.490234,-2.83203 l 0,0 c 1.432283,-0.0651 2.197256,0.58594 2.294922,1.95312 l 0,0 c -0.04884,0.84636 -0.455738,1.39975 -1.220703,1.66016 -0.764982,0.26042 -1.481127,0.46387 -2.148438,0.61035 l 0,0 c -0.895187,0.19532 -1.74561,0.5127 -2.551269,0.95215 -0.805667,0.43946 -1.472984,1.0376 -2.001953,1.79443 -0.528973,0.75684 -0.777182,1.59913 -0.744629,2.52686 l 0,0 c -0.09766,1.30208 0.219725,2.48209 0.952148,3.54004 0.97656,1.02538 2.189124,1.48925 3.637696,1.3916 l 0,0 c 1.822909,-0.0651 3.263337,-0.8545 4.321289,-2.36817 l 0,0 0.268554,1.83106 z m -7.226563,-2.44141 c -1.481125,0.14649 -2.246098,-0.50455 -2.294921,-1.95312 l 0,0 c -0.06511,-0.69987 0.134272,-1.28174 0.598144,-1.74561 0.463862,-0.46386 1.029454,-0.7609 1.696777,-0.89111 l 0,0 c 0.520827,-0.16276 1.041659,-0.32959 1.5625,-0.50049 0.520825,-0.17089 1.000968,-0.45165 1.44043,-0.84229 l 0,0 c -0.01629,0.99285 -0.01629,1.96941 0,2.92969 l 0,0 c -0.16277,1.85547 -1.163745,2.85645 -3.00293,3.00293 z"
       id="path3915"
       style="font-size:25px;fill:#ffffff" />
    <path
       d="m 98.237076,411.61661 3.881834,0 -5.712889,-9.57031 5.200199,-6.61622 -4.052738,0 -4.785156,6.86036 0,-13.94043 -3.344727,0 0,23.2666 3.344727,0 0,-4.98047 1.513672,-1.95313 z"
       id="path3917"
       style="font-size:25px;fill:#ffffff" />
    <path
       d="m 107.31911,392.25626 0,-3.90625 -3.34473,0 0,3.90625 z m -3.34473,19.36035 3.34473,0 0,-16.18653 -3.34473,0 z"
       id="path3919"
       style="font-size:25px;fill:#ffffff" />
  </g>
  <g
     transform="scale(1.0744828,0.93068033)"
     id="text2864-6-9-6"
     style="font-size:32.23448181px;font-style:normal;font-weight:normal;text-align:center;text-anchor:middle;fill:#ffffff;fill-opacity:1;stroke:none;font-family:GD-HighwayGothicJA-TTF;-inkscape-font-specification:GD-HighwayGothicJA-TTF">
    <path
       d="m 245.80928,501.87622 c 2.83309,-1.04928 4.24965,-3.10591 4.24966,-6.16988 l 0,0 c 0.0839,-2.58125 -0.82896,-4.71133 -2.73867,-6.39023 -1.76283,-1.25913 -3.74601,-1.86773 -5.94953,-1.82578 l 0,0 c -2.16156,2e-5 -4.00833,0.74503 -5.5403,2.23501 -1.74184,2.1196 -2.5498,4.56447 -2.42388,7.3346 l 0,0 4.56445,0 c -0.12592,-1.15421 0.0682,-2.29795 0.58237,-3.43121 0.51414,-1.13322 1.45327,-1.73132 2.81736,-1.7943 l 0,0 c 2.6862,0.14692 3.97684,1.59495 3.87192,4.3441 l 0,0 c -0.18889,2.77016 -1.69988,4.13425 -4.53297,4.09227 l 0,0 0,3.87191 c 0.20985,10e-6 0.4302,10e-6 0.66105,0 l 0,0 c 2.91704,0.12593 4.43853,1.63692 4.56446,4.53298 l 0,0 c 0.0629,1.25916 -0.27283,2.40814 -1.00733,3.44694 -0.73452,1.03881 -1.77333,1.55821 -3.11642,1.55821 l 0,0 c -0.90241,0.063 -1.69463,-0.16264 -2.37666,-0.67679 -0.68206,-0.51416 -1.14375,-1.19096 -1.38508,-2.0304 -0.24134,-0.83943 -0.35152,-1.67887 -0.33053,-2.51832 l 0,0 -4.53297,0 c -0.042,1.42705 0.13641,2.82787 0.53514,4.20245 0.39873,1.37458 1.14373,2.55504 2.23501,3.54138 1.72084,1.28015 3.67254,1.86775 5.85509,1.76283 l 0,0 c 2.28746,-10e-6 4.31261,-0.74501 6.07544,-2.23501 1.9307,-1.84677 2.87507,-4.12375 2.83311,-6.83094 l 0,0 c 0.021,-3.52564 -1.61594,-5.86557 -4.91072,-7.01982 z"
       id="path3922"
       style="fill:#ffffff" />
    <path
       d="m 263.46899,487.49033 c -3.33678,0.063 -5.79214,1.57397 -7.36608,4.53297 -0.81846,1.532 -1.38508,3.16891 -1.69987,4.91072 -0.37774,2.01467 -0.54563,4.03982 -0.50366,6.07545 l 0,0 c -0.042,1.84677 0.0944,3.68829 0.40923,5.52456 0.31479,1.83628 0.91289,3.57287 1.7943,5.20977 1.61592,2.81212 4.07127,4.21818 7.36608,4.21819 l 0,0 c 3.25282,-10e-6 5.69768,-1.40607 7.33461,-4.21819 0.8604,-1.6369 1.44801,-3.37349 1.76282,-5.20977 0.31477,-1.83627 0.47216,-3.67779 0.47218,-5.52456 l 0,0 c -2e-5,-2.03563 -0.18889,-4.06078 -0.56662,-6.07545 -0.31481,-1.74181 -0.87093,-3.37872 -1.66838,-4.91072 -1.59496,-2.959 -4.03982,-4.46999 -7.33461,-4.53297 z m -4.7848,15.51914 c -0.12593,-2.87507 0.26232,-5.6662 1.16472,-8.37341 0.62957,-1.69985 1.83626,-2.63372 3.62008,-2.80163 l 0,0 c 1.76281,0.16791 2.94852,1.10178 3.55713,2.80163 0.92337,2.70721 1.33259,5.49834 1.22768,8.37341 l 0,0 c -2e-5,1.38508 -0.0735,2.76491 -0.22035,4.13948 -0.14692,1.37459 -0.4827,2.71245 -1.00733,4.01357 -0.65058,1.61593 -1.83629,2.45537 -3.55713,2.51832 l 0,0 c -1.74184,-0.063 -2.94854,-0.90239 -3.62008,-2.51832 -0.52466,-1.30112 -0.85519,-2.63898 -0.99159,-4.01357 -0.13641,-1.37457 -0.19413,-2.7544 -0.17313,-4.13948 z"
       id="path3924"
       style="fill:#ffffff" />
    <path
       d="m 284.8747,487.49033 c -3.33678,0.063 -5.79214,1.57397 -7.36608,4.53297 -0.81846,1.532 -1.38508,3.16891 -1.69987,4.91072 -0.37774,2.01467 -0.54563,4.03982 -0.50366,6.07545 l 0,0 c -0.042,1.84677 0.0944,3.68829 0.40923,5.52456 0.31479,1.83628 0.91289,3.57287 1.7943,5.20977 1.61592,2.81212 4.07127,4.21818 7.36608,4.21819 l 0,0 c 3.25282,-10e-6 5.69768,-1.40607 7.33461,-4.21819 0.8604,-1.6369 1.44801,-3.37349 1.76282,-5.20977 0.31477,-1.83627 0.47216,-3.67779 0.47218,-5.52456 l 0,0 c -2e-5,-2.03563 -0.18889,-4.06078 -0.56662,-6.07545 -0.31481,-1.74181 -0.87093,-3.37872 -1.66838,-4.91072 -1.59496,-2.959 -4.03982,-4.46999 -7.33461,-4.53297 z m -4.7848,15.51914 c -0.12592,-2.87507 0.26232,-5.6662 1.16472,-8.37341 0.62957,-1.69985 1.83626,-2.63372 3.62008,-2.80163 l 0,0 c 1.76281,0.16791 2.94852,1.10178 3.55713,2.80163 0.92337,2.70721 1.33259,5.49834 1.22768,8.37341 l 0,0 c -2e-5,1.38508 -0.0735,2.76491 -0.22035,4.13948 -0.14692,1.37459 -0.4827,2.71245 -1.00733,4.01357 -0.65058,1.61593 -1.83629,2.45537 -3.55713,2.51832 l 0,0 c -1.74184,-0.063 -2.94854,-0.90239 -3.62008,-2.51832 -0.52466,-1.30112 -0.85519,-2.63898 -0.99159,-4.01357 -0.13641,-1.37457 -0.19413,-2.7544 -0.17313,-4.13948 z"
       id="path3926"
       style="fill:#ffffff" />
    <path
       d="m 316.98327,495.70634 c -1.19622,0.084 -2.23503,0.48795 -3.11642,1.21194 -0.88143,0.72404 -1.58446,1.56872 -2.10909,2.53406 l 0,0 c -0.9234,-2.53929 -2.74918,-3.78795 -5.47734,-3.746 l 0,0 c -1.0703,0.063 -2.01992,0.39876 -2.84885,1.00733 -0.82896,0.60861 -1.51625,1.34312 -2.06188,2.20353 l 0,0 -0.0944,-2.51832 -4.09227,0 0,20.87057 4.31262,0 0,-12.90639 c -0.042,-1.13323 0.2938,-2.16154 1.00733,-3.08494 0.71351,-0.92337 1.66837,-1.41654 2.86458,-1.47951 l 0,0 c 0.90239,0.021 1.5582,0.39875 1.96744,1.13324 0.40922,0.73453 0.59284,1.50052 0.55088,2.29797 l 0,0 0,14.03963 4.31262,0 0,-12.90639 c -0.042,-1.13323 0.29379,-2.16154 1.00733,-3.08494 0.71351,-0.92337 1.66837,-1.41654 2.86459,-1.47951 l 0,0 c 0.90238,0.021 1.55819,0.3935 1.96744,1.1175 0.4092,0.72403 0.59283,1.49527 0.55088,2.31371 l 0,0 0,14.03963 4.31262,0 0,-14.48034 c 0.0839,-1.86773 -0.38827,-3.57809 -1.41655,-5.13107 -1.19623,-1.36407 -2.69673,-2.01464 -4.5015,-1.9517 z"
       id="path3928"
       style="fill:#ffffff" />
  </g>
  <path
     d="m 222.45762,272.2034 a 41.822033,41.822033 0 0 1 -41.82203,41.82203"
     transform="translate(-11.759579,18.898304)"
     id="path3795-8"
     style="color:#000000;fill:none;stroke:#ffffff;stroke-width:20;stroke-linecap:square;stroke-linejoin:round;stroke-miterlimit:4;stroke-opacity:1;stroke-dasharray:none;stroke-dashoffset:261;marker:none;visibility:visible;display:inline;overflow:visible;enable-background:accumulate" />
  <path
     d="m 141.07627,334.10222 30.5625,17.625 0,-7.96875 0,-19.5625 0,-7.75 -30.5625,17.65625 z"
     id="rect3015-1"
     style="color:#000000;fill:#ffffff;fill-opacity:1;fill-rule:nonzero;stroke:#ffffff;stroke-width:1;stroke-linecap:butt;stroke-linejoin:miter;stroke-miterlimit:4;stroke-opacity:1;stroke-dashoffset:261;marker:none;visibility:visible;display:inline;overflow:visible;enable-background:accumulate" />
  <path
     d="m 369.38877,320.9751 -30.5625,17.625 0,-7.96875 0,-19.5625 0,-7.75 30.5625,17.65625 z"
     id="rect3015-1-9"
     style="color:#000000;fill:#ffffff;fill-opacity:1;fill-rule:nonzero;stroke:#ffffff;stroke-width:1;stroke-linecap:butt;stroke-linejoin:miter;stroke-miterlimit:4;stroke-opacity:1;stroke-dashoffset:261;marker:none;visibility:visible;display:inline;overflow:visible;enable-background:accumulate" />
  <path
     d="m 387.29873,300.26794 26.25,0 c -5.31503,6.19017 -15.37012,9.30119 -28.80826,9.30833"
     id="path3936"
     style="fill:none;stroke:#ffffff;stroke-width:4;stroke-linecap:butt;stroke-linejoin:miter;stroke-miterlimit:4;stroke-opacity:1;stroke-dasharray:none" />
  <path
     d="m 393.75001,300.26794 c 8.74087,7.08365 13.68177,9.26225 27.4577,9.41955"
     id="path3938"
     style="fill:none;stroke:#ffffff;stroke-width:4;stroke-linecap:butt;stroke-linejoin:miter;stroke-miterlimit:4;stroke-opacity:1;stroke-dasharray:none" />
  <path
     d="m 384.43936,313.80297 15.53617,0 c -2.44482,5.83707 -12.43711,12.28189 -15.50687,12.28124"
     id="path3940"
     style="fill:none;stroke:#ffffff;stroke-width:4;stroke-linecap:butt;stroke-linejoin:miter;stroke-miterlimit:4;stroke-opacity:1;stroke-dasharray:none" />
  <path
     d="m 388.51992,317.51168 c 4.0141,4.41359 9.36093,8.19386 11.64086,8.19276"
     id="path3942"
     style="fill:none;stroke:#ffffff;stroke-width:4;stroke-linecap:butt;stroke-linejoin:miter;stroke-miterlimit:4;stroke-opacity:1;stroke-dasharray:none" />
  <path
     d="m 384.40678,330.70975 38.39303,-0.16848 m -19.92905,-4.7549 0,17.15855"
     id="path3969"
     style="fill:none;stroke:#ffffff;stroke-width:4;stroke-linecap:butt;stroke-linejoin:miter;stroke-miterlimit:4;stroke-opacity:1;stroke-dasharray:none" />
  <path
     d="m 385.74153,339.60805 c 6.35384,-1.18794 11.80673,-5.30398 17.35169,-9.12076 5.82052,4.02437 11.60575,8.17225 18.24153,9.34321"
     id="path3971"
     style="fill:none;stroke:#ffffff;stroke-width:4;stroke-linecap:butt;stroke-linejoin:miter;stroke-miterlimit:4;stroke-opacity:1;stroke-dasharray:none" />
  <path
     d="m 405.24804,313.80297 15.53617,0 c -2.44482,5.83707 -12.43711,12.28189 -15.50687,12.28124"
     id="path3940-8"
     style="fill:none;stroke:#ffffff;stroke-width:4;stroke-linecap:butt;stroke-linejoin:miter;stroke-miterlimit:4;stroke-opacity:1;stroke-dasharray:none" />
  <path
     d="m 409.3286,317.51168 c 4.0141,4.41359 10.69567,8.19386 12.9756,8.19276"
     id="path3942-2"
     style="fill:none;stroke:#ffffff;stroke-width:4;stroke-linecap:butt;stroke-linejoin:miter;stroke-miterlimit:4;stroke-opacity:1;stroke-dasharray:none" />
  <path
     d="m 252.67161,227.2733 c -28.50207,0 -51.8125,23.34168 -51.8125,51.84375 0,28.50207 23.31043,51.8125 51.8125,51.8125 l 90.7943,-0.1032 -0.0316,-19.91533 -90.76271,0.0185 c -17.69327,0 -31.8125,-14.11923 -31.8125,-31.8125 0,-17.69327 14.11923,-31.84375 31.8125,-31.84375 14.45115,0 27.00977,9.63501 30.75,23.59375 l 19.3125,-5.1875 c -6.05808,-22.60907 -26.65587,-38.40625 -50.0625,-38.40625 l 10e-6,3e-5 z"
     id="path3795"
     style="font-size:medium;font-style:normal;font-variant:normal;font-weight:normal;font-stretch:normal;text-indent:0;text-align:start;text-decoration:none;line-height:normal;letter-spacing:normal;word-spacing:normal;text-transform:none;direction:ltr;block-progression:tb;writing-mode:lr-tb;text-anchor:start;color:#000000;fill:#ffffff;fill-opacity:1;stroke:none;stroke-width:20;marker:none;visibility:visible;display:inline;overflow:visible;enable-background:accumulate;font-family:Bitstream Vera Sans;-inkscape-font-specification:Bitstream Vera Sans" />
  <rect
     width="40.042374"
     height="36.038136"
     x="273.17798"
     y="303.34744"
     id="rect4203"
     style="color:#000000;fill:#005d35;fill-opacity:1;fill-rule:nonzero;stroke:none;stroke-width:4;marker:none;visibility:visible;display:inline;overflow:visible;enable-background:accumulate" />
  <path
     d="m 292.28125,119.46769 -17.625,30.5625 7.96875,0 0,292.34481 19.5625,0 0,-292.34481 7.75,0 -17.65625,-30.5625 z"
     id="rect3015"
     style="color:#000000;fill:#ffffff;fill-opacity:1;fill-rule:nonzero;stroke:#ffffff;stroke-width:1;stroke-linecap:butt;stroke-linejoin:miter;stroke-miterlimit:4;stroke-opacity:1;stroke-dashoffset:261;marker:none;visibility:visible;display:inline;overflow:visible;enable-background:accumulate" />
</svg>
