<?xml version="1.0" encoding="UTF-8" standalone="no"?>
<!-- Created with Inkscape (http://www.inkscape.org/) -->

<svg
   xmlns:osb="http://www.openswatchbook.org/uri/2009/osb"
   xmlns:dc="http://purl.org/dc/elements/1.1/"
   xmlns:cc="http://creativecommons.org/ns#"
   xmlns:rdf="http://www.w3.org/1999/02/22-rdf-syntax-ns#"
   xmlns:svg="http://www.w3.org/2000/svg"
   xmlns="http://www.w3.org/2000/svg"
   xmlns:sodipodi="http://sodipodi.sourceforge.net/DTD/sodipodi-0.dtd"
   xmlns:inkscape="http://www.inkscape.org/namespaces/inkscape"
   version="1.1"
   width="1005.4"
   height="1005.4"
   id="svg2"
   xml:space="preserve"
   inkscape:version="0.48.4 r9939"
   sodipodi:docname="AJAX1.svg"><sodipodi:namedview
     pagecolor="#ffffff"
     bordercolor="#666666"
     borderopacity="1"
     objecttolerance="10"
     gridtolerance="10"
     guidetolerance="10"
     inkscape:pageopacity="0"
     inkscape:pageshadow="2"
     inkscape:window-width="1280"
     inkscape:window-height="1004"
     id="namedview28"
     showgrid="false"
     fit-margin-top="0.2"
     fit-margin-left="0.2"
     fit-margin-right="0.2"
     fit-margin-bottom="0.2"
     inkscape:zoom="0.5"
     inkscape:cx="331.09438"
     inkscape:cy="503.46396"
     inkscape:window-x="-8"
     inkscape:window-y="-8"
     inkscape:window-maximized="1"
     inkscape:current-layer="svg2"
     showguides="true"
     inkscape:guide-bbox="true" /><metadata
     id="metadata8"><rdf:RDF><cc:Work
         rdf:about=""><dc:format>image/svg+xml</dc:format><dc:type
           rdf:resource="http://purl.org/dc/dcmitype/StillImage" /></cc:Work></rdf:RDF></metadata><defs
     id="defs6"><linearGradient
       id="linearGradient15703"
       osb:paint="solid"><stop
         style="stop-color:#ffffff;stop-opacity:1;"
         offset="0"
         id="stop15705" /></linearGradient></defs><path
     inkscape:connector-curvature="0"
     style="fill:#ffffff;fill-opacity:1;stroke:#0066b3;stroke-width:5;stroke-miterlimit:4;stroke-opacity:1;stroke-dasharray:none"
     d="M 1002.7001,502.7 C 1002.7001,226.5576 778.84238,2.7 502.7,2.7 226.55762,2.7 2.699976,226.5576 2.699976,502.7 c 0,276.1423 223.857644,500.0001 500.000024,500.0001 276.14238,0 500.0001,-223.8578 500.0001,-500.0001 z"
     id="path3854" /><path
     id="path14622"
     d="m 968.07508,502.7 c 0,257.0196 -208.35548,465.375 -465.375,465.375 C 245.6805,968.075 37.325,759.7196 37.325,502.7 c 0,-257.0196 208.3555,-465.375 465.37508,-465.375 257.01952,0 465.375,208.3554 465.375,465.375 z"
     style="fill:#0066b3;fill-opacity:1;stroke:none"
     inkscape:connector-curvature="0"
     sodipodi:nodetypes="sssss" /><path
     inkscape:connector-curvature="0"
     d="m 468.43395,723.24821 0,179.15437 c 0,3.67152 2.95933,6.63242 6.59295,6.63242 l 53.41469,0 c 3.67152,0 6.59294,-2.9609 6.59294,-6.63242 l 0,-116.73854 c 9.79072,-121.00223 66.91641,-169.28469 143.54458,-169.28469 l 79.23377,0 c 0,0 -24.6742,34.38595 -28.9379,39.6761 -4.34265,5.44806 -11.88309,19.42352 -3.3162,28.02988 8.60636,8.68532 21.47641,2.09237 35.53084,-4.2637 L 919.8335,586.45449 c 3.07934,-1.8555 3.07934,-4.89536 0,-6.75086 L 761.08962,486.29701 c -14.05443,-6.39555 -26.92448,-12.83058 -35.53084,-4.2637 -8.56688,8.60635 -1.02644,22.58182 3.3162,27.9904 4.2637,5.32963 28.9379,39.75506 28.9379,39.75506 l -62.8501,0 c -41.76847,0 -113.93555,9.86967 -159.92824,54.63853 l 0,-343.78058 c 0,0 34.42543,24.71367 39.79454,29.0958 5.40858,4.22423 19.38404,11.84362 27.95092,3.19778 8.56688,-8.64584 2.17291,-21.47642 -4.2637,-35.4124 L 505.14915,98.73454 c -1.89498,-3.1583 -4.93484,-3.1583 -6.71138,0 L 405.07063,257.5179 c -6.43503,13.93598 -12.94902,26.76656 -4.30318,35.4124 8.56688,8.64584 22.54234,1.02645 27.95092,-3.19778 5.32963,-4.38213 39.71558,-29.0958 39.71558,-29.0958 l 0,190.36632 -78.20732,-80.57604 c -2.52663,-2.64507 -6.79033,-2.68455 -9.43541,-0.19581 l -38.80757,36.67414 c -2.60559,2.48716 -2.72561,6.71138 -0.22108,9.35645 l 126.68717,133.95125 0,8.36949 C 422.45705,515.47177 351.59277,505.79949 310.45596,505.79949 l -62.92906,0 c 0,0 24.71367,-34.38596 29.05633,-39.79454 4.30318,-5.32962 11.76465,-19.26561 3.23725,-27.87197 -8.64584,-8.60635 -21.55537,-2.13185 -35.45188,4.2637 L 85.624725,535.80331 c -3.1583,1.8555 -3.1583,4.8164 0,6.59294 L 244.3686,635.88183 c 13.89651,6.43503 26.80604,12.83058 35.45188,4.2637 8.5274,-8.56688 1.06435,-22.58182 -3.23724,-27.95093 -4.34266,-5.3691 -29.05634,-39.75505 -29.05634,-39.75505 l 79.31272,0 c 72.52239,0 127.7531,43.34762 141.61012,150.80866"
     style="fill:#ffffff;fill-opacity:1;fill-rule:nonzero;stroke:none"
     id="path4621" /></svg>