<?xml version="1.0" encoding="UTF-8" standalone="no"?>
<!-- Created with Inkscape (http://www.inkscape.org/) -->

<svg
   xmlns:svg="http://www.w3.org/2000/svg"
   xmlns="http://www.w3.org/2000/svg"
   version="1.0"
   width="500"
   height="250"
   id="svg4203">
  <defs
     id="defs24" />
  <rect
     width="497.5"
     height="247.5"
     x="2.5"
     y="2.5"
     id="rect2870"
     style="color:#000000;fill:#0066b3;fill-opacity:1;fill-rule:nonzero;stroke:#ffffff;stroke-width:5;stroke-linecap:round;stroke-linejoin:round;stroke-miterlimit:4;stroke-opacity:1;stroke-dasharray:none;stroke-dashoffset:261;marker:none;visibility:visible;display:inline;overflow:visible;enable-background:accumulate" />
  <path
     d="m 250.07753,101.67918 c -0.32359,0.002 -0.64853,0.21365 -0.89556,0.64182 l -21.19489,36.46913 c -0.53434,0.62461 -0.8657,1.45197 -0.8657,2.32844 0,1.98465 1.61251,3.59717 3.59716,3.59717 0.80951,0.0273 1.54636,-0.35292 2.22397,-0.67667 l 5.21911,-3.03992 c 0,0 0,37.17552 0,95.16626 0,1.66226 1.37269,3.02997 3.03496,3.02997 2.96032,0 8.88095,0 8.88095,0 2.96031,0 5.92064,0 8.88096,0 1.66226,0 3.03495,-1.36771 3.03495,-3.02997 l 0,-95.16625 5.21911,3.03991 c 0.6755,0.40348 1.42811,0.57388 2.22397,0.67667 1.98465,0 3.59716,-1.61251 3.59716,-3.59717 0,-0.87646 -0.33136,-1.70382 -0.86569,-2.32843 L 250.97309,102.321 c -0.24703,-0.42816 -0.57197,-0.63981 -0.89556,-0.64182 z"
     id="path13506"
     style="fill:#ffffff;fill-opacity:1;fill-rule:nonzero;stroke:none" />
  <g
     id="text3688"
     style="font-size:33.38999176px;font-style:normal;font-weight:normal;text-align:center;text-anchor:middle;fill:#ffffff;fill-opacity:1;stroke:none;font-family:'Rounded M+ 1mn medium';-inkscape-font-specification:'Rounded M+ 1mn medium'">
    <path
       d="m 185.9902,65.163979 c -10e-6,0.733665 -0.25858,1.350912 -0.7757,1.851745 -0.51715,0.500825 -1.14306,0.75124 -1.87773,0.751244 l -0.0504,0 c -0.7347,-4e-6 -1.36901,-0.266977 -1.90295,-0.80092 -0.53395,-0.533949 -0.80093,-1.168264 -0.80092,-1.902948 l 0,-37.513301 c -1e-5,-0.768275 0.28378,-1.436217 0.85136,-2.003828 0.56757,-0.567534 1.235,-0.85132 2.0023,-0.851359 l 30.35241,0 c 0.76725,3.9e-5 1.43468,0.283825 2.0023,0.851359 0.56753,0.567611 0.85131,1.235553 0.85136,2.003828 l 0,37.513301 c -5e-5,0.734684 -0.26702,1.368999 -0.80092,1.902948 -0.53399,0.533943 -1.16831,0.800916 -1.90295,0.80092 l -0.0504,0 c -0.73473,-4e-6 -1.36064,-0.250419 -1.87773,-0.751244 -0.51717,-0.500833 -0.77574,-1.11808 -0.7757,-1.851745 -4e-5,-0.267993 -0.11722,-0.401989 -0.35155,-0.401988 l -24.54115,0 c -0.23438,-10e-7 -0.35156,0.133995 -0.35155,0.401988 z m 0,-35.410123 0,11.769239 c -10e-6,0.300621 0.13398,0.450921 0.40199,0.450899 l 24.44027,0 c 0.26796,2.2e-5 0.40195,-0.150278 0.40199,-0.450899 l 0,-11.769239 c -4e-5,-0.300565 -0.13403,-0.450865 -0.40199,-0.450899 l -24.44027,0 c -0.26801,3.4e-5 -0.402,0.150334 -0.40199,0.450899 z m 0,17.178503 0,12.921707 c -10e-6,0.266976 0.13398,0.400463 0.40199,0.400459 l 24.44027,0 c 0.26796,4e-6 0.40195,-0.133483 0.40199,-0.400459 l 0,-12.921707 c -4e-5,-0.300583 -0.13403,-0.450882 -0.40199,-0.4509 l -24.44027,0 c -0.26801,1.8e-5 -0.402,0.150317 -0.40199,0.4509 z"
       id="path2884"
       style="font-size:50.08498764px;fill:#ffffff" />
    <path
       d="m 245.79169,39.870816 c -4.57423,7.812548 -10.10016,14.757411 -16.57782,20.834609 -0.53395,0.467715 -1.1433,0.659793 -1.82805,0.576234 -0.68476,-0.08355 -1.21055,-0.425932 -1.57738,-1.027134 -0.40047,-0.633802 -0.55077,-1.343013 -0.4509,-2.127633 0.0999,-0.78461 0.43357,-1.4444 1.00115,-1.979372 7.31322,-6.778252 12.83966,-13.639558 16.57934,-20.58394 0.0662,-0.06722 0.0744,-0.142629 0.0245,-0.226214 -0.0499,-0.08353 -0.12484,-0.125306 -0.22468,-0.125334 l -14.02374,0 c -0.63483,2.8e-5 -1.17769,-0.217015 -1.62859,-0.65113 -0.4509,-0.434056 -0.67635,-0.984815 -0.67634,-1.652279 -1e-5,-0.667401 0.22544,-1.226567 0.67634,-1.677498 0.4509,-0.450867 0.99376,-0.676316 1.62859,-0.676349 l 16.8774,0 c 0.26797,3.3e-5 0.40196,-0.133453 0.40198,-0.40046 l 0,-4.758135 c -2e-5,-0.734647 0.26695,-1.369217 0.80092,-1.903712 0.53393,-0.534416 1.16824,-0.801643 1.90295,-0.801684 0.73466,4.1e-5 1.36898,0.267268 1.90295,0.801684 0.53392,0.534495 0.80089,1.169065 0.80092,1.903712 l 0,4.758135 c -3e-5,0.267007 0.13397,0.400493 0.40199,0.40046 l 16.87739,0 c 0.63478,3.3e-5 1.17764,0.225482 1.62859,0.676349 0.45085,0.450931 0.6763,1.010097 0.67635,1.677498 -5e-5,0.667464 -0.2255,1.218223 -0.67635,1.652279 -0.45095,0.434115 -0.99381,0.651158 -1.62859,0.65113 l -14.02373,0 c -0.26701,2.8e-5 -0.33375,0.133515 -0.20023,0.400459 3.73962,6.979027 9.24925,13.807217 16.5289,20.484589 0.56752,0.534973 0.91805,1.194763 1.05159,1.979372 0.13343,0.784621 -0.0169,1.510645 -0.4509,2.178073 -0.36688,0.601202 -0.89268,0.94358 -1.57739,1.027134 -0.6848,0.08356 -1.29415,-0.108519 -1.82805,-0.576234 -6.4777,-6.077198 -12.00364,-13.022061 -16.57781,-20.834609 -0.0337,-0.0336 -0.0757,-0.05042 -0.1261,-0.05044 -0.0505,2.4e-5 -0.0757,0.03314 -0.0757,0.09935 l 0,15.527752 c -3e-5,0.266982 0.13397,0.400468 0.40199,0.40046 l 8.01225,0 c 0.63479,8e-6 1.17765,0.225203 1.62859,0.675585 0.45086,0.450397 0.67631,0.993004 0.67635,1.627823 -4e-5,0.634831 -0.22549,1.16088 -0.67635,1.578148 -0.45094,0.417277 -0.9938,0.625913 -1.62859,0.62591 l -8.01225,0 c -0.26802,3e-6 -0.40202,0.150303 -0.40199,0.450899 l 0,5.257945 c -3e-5,0.734683 -0.267,1.369253 -0.80092,1.903713 -0.53397,0.534451 -1.16829,0.801679 -1.90295,0.801684 -0.73471,-5e-6 -1.36902,-0.267233 -1.90295,-0.801684 -0.53397,-0.53446 -0.80094,-1.16903 -0.80092,-1.903713 l 0,-5.257945 c -2e-5,-0.300596 -0.13401,-0.450896 -0.40198,-0.450899 l -8.01226,0 c -0.63484,3e-6 -1.1777,-0.208633 -1.62859,-0.62591 -0.45091,-0.417268 -0.67636,-0.943317 -0.67634,-1.578148 -2e-5,-0.634819 0.22543,-1.177426 0.67634,-1.627823 0.45089,-0.450382 0.99375,-0.675577 1.62859,-0.675585 l 8.01226,0 c 0.26797,8e-6 0.40196,-0.133478 0.40198,-0.40046 l 0,-15.527752 c -2e-5,-0.06621 -0.0252,-0.09933 -0.0757,-0.09935 -0.0505,2.4e-5 -0.0925,0.01684 -0.12609,0.05044 z"
       id="path2886"
       style="font-size:50.08498764px;fill:#ffffff" />
    <path
       d="m 280.40089,50.938485 c -0.40047,1.335897 -0.96804,2.888823 -1.70272,4.658785 -0.23335,0.56758 -0.65062,0.876331 -1.25182,0.926254 -0.6012,0.04994 -1.06891,-0.192071 -1.40314,-0.726024 l -0.0489,-0.10088 c -0.96905,-1.602848 -1.0363,-3.271939 -0.20176,-5.007276 2.1042,-4.474331 3.6235,-9.232461 4.55791,-14.274405 0.0672,-0.300571 -0.0494,-0.450871 -0.35002,-0.450899 l -2.2545,0 c -0.63381,2.8e-5 -1.16775,-0.217015 -1.60184,-0.651129 -0.43409,-0.434058 -0.65113,-0.968258 -0.65113,-1.602604 0,-0.634285 0.21704,-1.168486 0.65113,-1.602603 0.43409,-0.434054 0.96803,-0.651097 1.60184,-0.651129 l 2.35538,0 c 0.26696,3.2e-5 0.40045,-0.133964 0.40046,-0.401989 l 0,-5.407735 c -10e-6,-0.668414 0.242,-1.244647 0.72602,-1.728703 0.48401,-0.483976 1.05999,-0.725984 1.72794,-0.726024 0.66793,4e-5 1.24391,0.242048 1.72794,0.726024 0.484,0.484056 0.72601,1.060289 0.72602,1.728703 l 0,5.407735 c -10e-6,0.268025 0.13348,0.402021 0.40046,0.401989 l 1.10203,0 c 0.63481,3.2e-5 1.16927,0.217075 1.60337,0.651129 0.43407,0.434117 0.65111,0.968318 0.65113,1.602603 -2e-5,0.634346 -0.21706,1.168546 -0.65113,1.602604 -0.4341,0.434114 -0.96856,0.651157 -1.60337,0.651129 l -0.85136,0 c -0.30061,2.8e-5 -0.38417,0.133514 -0.25067,0.40046 0.7683,1.63651 1.5198,3.339227 2.2545,5.108155 0.13347,0.266995 0.31689,0.333738 0.55025,0.20023 3.13845,-1.535582 5.8097,-3.371785 8.01378,-5.508615 0.0672,-0.0336 0.084,-0.100597 0.0504,-0.200994 -0.0337,-0.100342 -0.0841,-0.150527 -0.15132,-0.150555 l -4.05656,0 c -0.56759,2.8e-5 -1.05161,-0.200201 -1.45205,-0.600689 -0.40048,-0.400431 -0.60071,-0.884447 -0.60069,-1.452049 -2e-5,-0.567543 0.20021,-1.051813 0.60069,-1.452813 0.40044,-0.400938 0.88446,-0.601422 1.45205,-0.601454 l 7.21286,0 c 0.30057,3.2e-5 0.51761,-0.116642 0.65113,-0.350021 0.33318,-0.601166 0.56703,-1.052065 0.70157,-1.352698 0.0326,-0.09983 0.0155,-0.191534 -0.0512,-0.275125 -0.0668,-0.08352 -0.15007,-0.1253 -0.2499,-0.125335 -3.07226,0.133521 -5.4261,0.200264 -7.06155,0.20023 -0.60121,3.4e-5 -1.11045,-0.200195 -1.5277,-0.600689 -0.4173,-0.400425 -0.64274,-0.901254 -0.67635,-1.502489 -0.0337,-0.567536 0.15818,-1.068365 0.57547,-1.502488 0.41725,-0.434049 0.90967,-0.651091 1.47727,-0.65113 8.74894,-0.09982 16.61242,-0.75095 23.59044,-1.953388 0.60116,-0.09982 1.14376,0.02551 1.62782,0.376005 0.48397,0.350569 0.77617,0.826433 0.87658,1.427593 0.10033,0.601237 -0.0166,1.152251 -0.35078,1.653043 -0.33427,0.500866 -0.80148,0.80121 -1.40161,0.901035 -3.30562,0.567608 -6.9286,1.001693 -10.86897,1.302258 -0.30063,3.5e-5 -0.50086,0.133521 -0.60069,0.40046 -0.0673,0.167147 -0.31795,0.734719 -0.75201,1.702718 -0.0999,0.233379 -0.0163,0.350053 0.25067,0.350021 l 13.9733,0 c 0.56752,3.2e-5 1.05179,0.200516 1.45281,0.601454 0.40092,0.401 0.60141,0.88527 0.60145,1.452813 -4e-5,0.567602 -0.20053,1.051618 -0.60145,1.452049 -0.40102,0.400488 -0.88529,0.600717 -1.45281,0.600689 l -5.95952,0 c -0.0673,2.8e-5 -0.11747,0.03365 -0.15055,0.100879 -0.0332,0.06728 -0.0329,0.134024 7.6e-4,0.20023 1.80254,1.803624 4.00609,3.40648 6.61065,4.808575 0.56752,0.300622 0.95983,0.768079 1.17692,1.402373 0.217,0.634337 0.17522,1.235281 -0.12533,1.802834 -0.30065,0.567592 -0.7597,0.943086 -1.37716,1.126484 -0.61755,0.183435 -1.21008,0.10854 -1.77761,-0.224685 -0.63487,-0.367834 -1.55297,-0.985845 -2.75431,-1.854038 -0.23441,-0.166073 -0.35159,-0.09933 -0.35155,0.20023 l 0,1.253348 c -4e-5,0.767311 -0.27542,1.434744 -0.82614,2.002299 -0.5508,0.567589 -1.21033,0.851375 -1.9786,0.851359 l -11.96947,0 -1.90448,0 c -0.76732,1.6e-5 -1.43475,-0.28377 -2.0023,-0.851359 -0.56759,-0.567555 -0.85138,-1.234988 -0.85136,-2.002299 l 0,-1.352698 c -2e-5,-0.06723 -0.0334,-0.125824 -0.10011,-0.175775 -0.0668,-0.04991 -0.13377,-0.05806 -0.201,-0.02446 -1.70274,1.235025 -3.3219,2.253496 -4.85748,3.055416 -0.23439,0.133504 -0.30164,0.333734 -0.20176,0.60069 0.0672,0.199737 0.20098,0.508488 0.40122,0.926254 0.20022,0.417799 0.33396,0.72655 0.40123,0.926255 0.0998,0.266988 0.28326,0.400474 0.55025,0.400459 l 26.34475,0 c 0.76827,1.5e-5 1.43621,0.284056 2.00383,0.852124 0.56752,0.568096 0.85131,1.235783 0.85136,2.003063 l 0,8.414241 c -5e-5,3.27297 -0.31721,5.30176 -0.95148,6.086378 -0.63436,0.784613 -2.2874,1.17692 -4.95913,1.176924 -0.13353,-4e-6 -0.93495,-0.03363 -2.40428,-0.100879 -0.80096,-0.03363 -1.48521,-0.342636 -2.05274,-0.927019 -0.56761,-0.584388 -0.88502,-1.27704 -0.95224,-2.077958 l 0,-0.25067 c -4e-5,-0.266973 -0.15034,-0.40046 -0.4509,-0.40046 l -7.26177,0 c -0.16714,0 -0.2507,0.08356 -0.25067,0.25067 -3e-5,0.467712 -0.1753,0.876832 -0.5258,1.227363 -0.35055,0.350528 -0.75968,0.525793 -1.22736,0.525795 l -0.60069,0 c -0.66746,-2e-6 -1.23503,-0.233858 -1.70272,-0.701569 -0.46774,-0.467713 -0.70159,-1.035286 -0.70157,-1.702718 l 0,-5.910604 c -2e-5,-0.767286 0.28376,-1.426566 0.85136,-1.977843 0.56755,-0.55126 1.23549,-0.826895 2.00383,-0.826904 l 11.21899,0 c 0.76827,9e-6 1.43621,0.275644 2.00382,0.826904 0.56754,0.551277 0.85132,1.210557 0.85136,1.977843 l 0,5.259474 c -4e-5,0.300601 0.13345,0.4509 0.40046,0.4509 0.80088,0 1.26834,-0.09196 1.40238,-0.27589 0.13395,-0.183925 0.20095,-0.74309 0.20099,-1.677498 l 0,-7.663761 c -4e-5,-0.266963 -0.15034,-0.40045 -0.4509,-0.40046 l -20.08413,0 c -0.26699,10e-6 -0.40048,0.133497 -0.40046,0.40046 l 0,11.570537 c -2e-5,0.701057 -0.24228,1.293594 -0.72679,1.777613 -0.48454,0.484013 -1.07733,0.726021 -1.77837,0.726025 -0.70108,-4e-6 -1.29362,-0.242012 -1.77762,-0.726025 -0.48403,-0.484019 -0.72604,-1.076556 -0.72602,-1.777613 l 0,-13.073026 c -2e-5,-0.0326 -0.0252,-0.06571 -0.0757,-0.09935 -0.0505,-0.03361 -0.092,-0.03361 -0.12457,0 -0.33424,0.266985 -0.72681,0.342135 -1.17769,0.22545 -0.45091,-0.116662 -0.74311,-0.392041 -0.87658,-0.826139 -0.7347,-2.004323 -1.38583,-3.740666 -1.95339,-5.209035 -0.0336,-0.06724 -0.0754,-0.100861 -0.12533,-0.100879 -0.0499,1.8e-5 -0.0749,0.03364 -0.0749,0.100879 l 0,19.682141 c -1e-5,0.668449 -0.23361,1.244683 -0.7008,1.728702 -0.46721,0.484012 -1.03479,0.72602 -1.70272,0.726025 -0.66795,-5e-6 -1.24393,-0.242013 -1.72794,-0.726025 -0.48402,-0.484019 -0.72603,-1.060253 -0.72602,-1.728702 l 0,-14.875095 c -10e-6,-0.03259 -0.0168,-0.0489 -0.0504,-0.04891 -0.0336,1.3e-5 -0.0505,0.01632 -0.0504,0.04891 z m 28.79948,9.115811 0,-1.652279 c -4e-5,-0.266968 -0.15034,-0.400454 -0.4509,-0.40046 l -6.76196,0 c -0.30063,6e-6 -0.45093,0.133492 -0.4509,0.40046 l 0,1.652279 c -3e-5,0.300603 0.15027,0.450902 0.4509,0.450899 l 6.76196,0 c 0.30056,3e-6 0.45086,-0.150296 0.4509,-0.450899 z m 1.20138,-16.126914 0,-2.003828 c -4e-5,-0.300577 -0.13353,-0.450877 -0.40046,-0.450899 l -9.16625,0 c -0.29961,2.2e-5 -0.4494,0.150322 -0.44937,0.450899 l 0,2.003828 c -3e-5,0.266993 0.14976,0.400479 0.44937,0.40046 l 9.16625,0 c 0.26693,1.9e-5 0.40042,-0.133467 0.40046,-0.40046 z m -3.15477,-8.114661 -3.80743,0 c -0.267,2.8e-5 -0.48404,0.117211 -0.65112,0.351549 -0.60021,0.800946 -1.06742,1.385332 -1.40161,1.753158 -0.0673,0.06626 -0.0757,0.132748 -0.0252,0.199466 0.0504,0.06677 0.10874,0.10014 0.17501,0.100115 l 7.61332,0 c 0.0672,2.5e-5 0.12581,-0.03335 0.17577,-0.100115 0.0499,-0.06672 0.0412,-0.133206 -0.026,-0.199466 -0.33324,-0.367826 -0.80045,-0.952212 -1.40161,-1.753158 -0.16715,-0.234338 -0.38419,-0.351521 -0.65113,-0.351549 z"
       id="path2888"
       style="font-size:50.08498764px;fill:#ffffff" />
  </g>
  <g
     id="text3688-6"
     style="font-size:33.38999176px;font-style:normal;font-weight:normal;text-align:center;text-anchor:middle;fill:#ffffff;fill-opacity:1;stroke:none;font-family:'Rounded M+ 1mn medium';-inkscape-font-specification:'Rounded M+ 1mn medium'">
    <path
       d="m 375.40162,73.414711 c -1.67014,4.040275 -4.00768,7.721597 -7.01264,11.043978 -3.00499,3.322392 -6.44405,6.01887 -10.31719,8.089441 -0.63483,0.333204 -1.30277,0.408099 -2.00382,0.224685 -0.70107,-0.183419 -1.25183,-0.575727 -1.65228,-1.176923 -0.36684,-0.567574 -0.47536,-1.160112 -0.32557,-1.777614 0.14979,-0.617502 0.50847,-1.093366 1.07605,-1.427593 4.94205,-2.704373 8.88219,-6.07669 11.82044,-10.11696 2.93821,-4.040247 4.72474,-8.631264 5.35959,-13.773066 0.0336,-0.100854 2.3e-4,-0.193071 -0.10012,-0.276653 -0.10039,-0.08353 -0.2005,-0.125309 -0.30034,-0.125335 l -15.72645,0 c -0.66846,2.6e-5 -1.23629,-0.233576 -1.70349,-0.700805 -0.4672,-0.467176 -0.70081,-1.01819 -0.7008,-1.653043 -10e-6,-0.667404 0.2336,-1.234721 0.7008,-1.701954 0.4672,-0.467173 1.03503,-0.700774 1.70349,-0.700805 l 15.97712,0 c 0.26695,3.1e-5 0.40044,-0.133965 0.40046,-0.401988 l 0,-6.861313 c -2e-5,-0.768274 0.27536,-1.419402 0.82614,-1.953388 0.55073,-0.533906 1.19346,-0.800879 1.92817,-0.800919 0.73466,4e-5 1.37738,0.267013 1.92816,0.800919 0.55074,0.533986 0.82612,1.185114 0.82614,1.953388 l 0,6.861313 c -2e-5,0.268023 0.15028,0.402019 0.4509,0.401988 l 15.97713,0 c 0.63478,3.1e-5 1.18579,0.233632 1.65304,0.700805 0.46716,0.467233 0.70076,1.034805 0.7008,1.702718 -4e-5,0.66797 -0.23364,1.227136 -0.7008,1.677499 -0.46725,0.450416 -1.01826,0.675611 -1.65304,0.675585 l -15.7769,0 c -0.30062,2.6e-5 -0.4173,0.150325 -0.35002,0.450899 0.63378,5.142821 2.41165,9.734348 5.33361,13.774595 2.92189,4.04027 6.85388,7.412586 11.79598,10.116959 0.56753,0.300601 0.93462,0.768058 1.10127,1.402374 0.16656,0.634315 0.0664,1.218446 -0.30035,1.752394 -0.4005,0.601196 -0.95967,0.993504 -1.67749,1.176923 -0.71792,0.183414 -1.39427,0.108519 -2.02905,-0.224685 -3.77333,-2.070571 -7.12068,-4.767049 -10.04207,-8.089441 -2.92145,-3.322381 -5.2004,-7.003703 -6.83685,-11.043978 -0.0337,-0.06622 -0.092,-0.09933 -0.17501,-0.09935 -0.0831,1.7e-5 -0.14141,0.03313 -0.17501,0.09935 z"
       id="path2891"
       style="font-size:50.08498764px;fill:#ffffff" />
    <path
       d="m 452.40606,69.558375 c -0.55028,0.533966 -1.19274,0.800939 -1.9274,0.800919 -0.73471,2e-5 -1.37744,-0.266953 -1.92817,-0.800919 -0.55078,-0.533926 -0.82616,-1.185054 -0.82614,-1.953388 l 0,-7.111983 c -2e-5,-0.0662 -0.0418,-0.124541 -0.12534,-0.17501 -0.0836,-0.05041 -0.15898,-0.05882 -0.22621,-0.02522 -4.07289,3.105883 -9.09799,5.994184 -15.07532,8.664911 -0.63382,0.266994 -1.26813,0.291959 -1.90295,0.07489 -0.63483,-0.217022 -1.08573,-0.642446 -1.3527,-1.276274 -0.26698,-0.601177 -0.26698,-1.210782 0,-1.828818 0.26697,-0.617988 0.71787,-1.06048 1.3527,-1.327478 5.14177,-2.036917 9.78323,-4.340832 13.92438,-6.911753 0.0326,-0.03359 0.0489,-0.08378 0.0489,-0.150554 -2e-5,-0.06671 -0.0331,-0.100083 -0.0994,-0.100115 l -12.07035,0 c -0.63483,3.2e-5 -1.16928,-0.217011 -1.60336,-0.65113 -0.43409,-0.434052 -0.65114,-0.968253 -0.65113,-1.602603 -1e-5,-0.634281 0.21704,-1.168481 0.65113,-1.602604 0.43408,-0.434049 0.96853,-0.651092 1.60336,-0.651129 l 15.07533,0 c 0.30058,3.7e-5 0.45088,-0.133449 0.4509,-0.40046 l 0,-0.952238 c -2e-5,-0.767254 0.27536,-1.418128 0.82614,-1.952624 0.55073,-0.534415 1.19346,-0.801642 1.92817,-0.801683 0.73466,4.1e-5 1.37738,0.267268 1.92816,0.801683 0.55074,0.534496 0.82612,1.18537 0.82614,1.952624 l 0,0.952238 c -2e-5,0.267011 0.15028,0.400497 0.4509,0.40046 l 15.07533,0 c 0.63478,3.7e-5 1.16923,0.21708 1.60336,0.651129 0.43405,0.434123 0.65109,0.968323 0.65113,1.602604 -4e-5,0.63435 -0.21708,1.168551 -0.65113,1.602603 -0.43413,0.434119 -0.96858,0.651162 -1.60336,0.65113 l -12.07035,0 c -0.0663,3.2e-5 -0.10779,0.0334 -0.12457,0.100115 -0.0169,0.06677 0.008,0.11696 0.0741,0.150554 4.07385,2.538313 8.73212,4.842228 13.97482,6.911753 0.63377,0.266998 1.076,0.70949 1.32672,1.327478 0.25062,0.618036 0.24247,1.227641 -0.0245,1.828818 -0.26702,0.633828 -0.71792,1.067659 -1.3527,1.301494 -0.63487,0.233877 -1.25237,0.217318 -1.8525,-0.04967 -6.27799,-2.83886 -11.33672,-5.743973 -15.17621,-8.715351 -0.20076,-0.133457 -0.30113,-0.06671 -0.30111,0.20023 l 0,7.111983 c -2e-5,0.768334 -0.27566,1.419462 -0.8269,1.953388 z m -17.05317,12.822356 c -1.50199,2.370156 -3.13796,4.540585 -4.90792,6.511293 -0.40047,0.434086 -0.9013,0.62591 -1.50249,0.57547 -0.6012,-0.05044 -1.08573,-0.325819 -1.45358,-0.82614 -0.40046,-0.567571 -0.55891,-1.185328 -0.47535,-1.853273 0.0836,-0.667938 0.376,-1.252069 0.87734,-1.752393 2.53726,-2.50465 4.57369,-5.059235 6.1093,-7.663762 0.0673,-0.06724 0.0759,-0.14239 0.026,-0.225449 -0.0499,-0.08304 -0.12535,-0.124558 -0.22622,-0.124571 l -3.6561,0 c -0.60121,1.3e-5 -1.11885,-0.21703 -1.55293,-0.651129 -0.43409,-0.434072 -0.65113,-0.951715 -0.65113,-1.552928 0,-0.601184 0.21704,-1.118826 0.65113,-1.552928 0.43408,-0.434069 0.95172,-0.651112 1.55293,-0.65113 l 5.0088,0 c 0.26697,1.8e-5 0.40045,-0.133469 0.40046,-0.400459 l 0,-1.702719 c -1e-5,-0.734666 0.25881,-1.360829 0.77647,-1.878493 0.51763,-0.51762 1.14379,-0.776442 1.87849,-0.776464 0.73467,2.2e-5 1.36083,0.258844 1.87849,0.776464 0.51763,0.517664 0.77645,1.143827 0.77647,1.878493 l 0,1.702719 c -2e-5,0.26699 0.13347,0.400477 0.40045,0.400459 l 3.50479,0 c 0.60118,1.8e-5 1.11882,0.217061 1.55293,0.65113 0.43407,0.434102 0.65111,0.951744 0.65113,1.552928 -2e-5,0.601213 -0.21706,1.118856 -0.65113,1.552928 -0.43411,0.434099 -0.95175,0.651142 -1.55293,0.651129 l -2.9041,0 c -0.0673,1.3e-5 -0.10904,0.02498 -0.12533,0.07489 -0.0163,0.04994 0.009,0.108025 0.0749,0.174246 1.50298,1.335896 3.17257,2.888823 5.0088,4.658784 0.43406,0.434094 0.66767,0.959888 0.7008,1.577384 0.0331,0.617509 -0.15057,1.160116 -0.55101,1.627823 -0.36685,0.434091 -0.84246,0.65954 -1.42683,0.676349 -0.5844,0.01682 -1.07683,-0.191819 -1.47727,-0.625909 -0.93544,-1.068906 -1.90398,-2.087377 -2.90562,-3.055417 -0.0663,-0.06724 -0.13274,-0.08406 -0.19947,-0.05044 -0.0668,0.03363 -0.10013,0.08356 -0.10011,0.14979 l 0,9.56671 c -2e-5,0.734683 -0.25884,1.35244 -0.77647,1.853272 -0.51766,0.500826 -1.14382,0.75124 -1.87849,0.751245 -0.7347,-5e-6 -1.36086,-0.250419 -1.87849,-0.751245 -0.51766,-0.500832 -0.77648,-1.118589 -0.77647,-1.853272 l 0,-9.364952 c -1e-5,-0.06724 -0.025,-0.100871 -0.0749,-0.100879 -0.0499,8e-6 -0.0917,0.01682 -0.12534,0.05044 z m 27.12122,11.269428 c -0.51768,0.500315 -1.14384,0.750475 -1.87849,0.75048 -0.73472,-5e-6 -1.35248,-0.250419 -1.85328,-0.751245 -0.50086,-0.500832 -0.75127,-1.118589 -0.75124,-1.853272 l 0,-8.713822 c -3e-5,-0.06725 -0.0334,-0.109279 -0.10012,-0.126099 -0.0668,-0.01681 -0.11696,0.0084 -0.15055,0.07566 -1.96972,2.604521 -4.35669,5.17541 -7.16089,7.712672 -0.46774,0.434085 -1.0106,0.60935 -1.62859,0.525795 -0.61804,-0.08356 -1.11046,-0.375496 -1.47727,-0.875815 -0.40048,-0.501339 -0.55893,-1.069166 -0.47536,-1.703482 0.0835,-0.634315 0.35866,-1.168515 0.82538,-1.602604 3.70703,-3.239337 6.64526,-6.478167 8.8147,-9.7165 0.0672,-0.06724 0.0759,-0.14239 0.026,-0.225449 -0.05,-0.08304 -0.12536,-0.124558 -0.22621,-0.124571 l -5.00728,0 c -0.60122,1.3e-5 -1.11886,-0.21703 -1.55292,-0.651129 -0.43411,-0.434072 -0.65116,-0.951715 -0.65113,-1.552928 -3e-5,-0.601184 0.21702,-1.118826 0.65113,-1.552928 0.43406,-0.434069 0.9517,-0.651112 1.55292,-0.65113 l 6.15975,0 c 0.26694,1.8e-5 0.40043,-0.133469 0.40046,-0.400459 l 0,-1.702719 c -3e-5,-0.734666 0.25038,-1.360829 0.75124,-1.878493 0.5008,-0.51762 1.11856,-0.776442 1.85328,-0.776464 0.73465,2.2e-5 1.36081,0.258844 1.87849,0.776464 0.5176,0.517664 0.77642,1.143827 0.77646,1.878493 l 0,1.702719 c -4e-5,0.26699 0.15026,0.400477 0.4509,0.400459 l 7.11198,0 c 0.60116,1.8e-5 1.1188,0.217061 1.55293,0.65113 0.43404,0.434102 0.65108,0.951744 0.65113,1.552928 -5e-5,0.601213 -0.21709,1.118856 -0.65113,1.552928 -0.43413,0.434099 -0.95177,0.651142 -1.55293,0.651129 l -5.51014,0 c -0.26701,1.3e-5 -0.31694,0.116686 -0.14979,0.35002 1.96965,2.905127 4.57416,5.776614 7.81355,8.614471 0.50027,0.467716 0.80062,1.027137 0.90104,1.678263 0.10032,0.651131 -0.0497,1.260482 -0.45014,1.828053 -0.3679,0.533947 -0.88554,0.842698 -1.55293,0.926255 -0.66748,0.08356 -1.23505,-0.09171 -1.70272,-0.525795 -2.60455,-2.403775 -4.84173,-4.85799 -6.71152,-7.362652 -0.13352,-0.133479 -0.20027,-0.09985 -0.20023,0.100879 l 0,9.164722 c -4e-5,0.734683 -0.25886,1.352694 -0.77646,1.854037 z"
       id="path2893"
       style="font-size:50.08498764px;fill:#ffffff" />
  </g>
  <g
     id="text3688-6-1"
     style="font-size:33.38999176px;font-style:normal;font-weight:normal;text-align:center;text-anchor:middle;fill:#ffffff;fill-opacity:1;stroke:none;font-family:'Rounded M+ 1mn medium';-inkscape-font-specification:'Rounded M+ 1mn medium'">
    <path
       d="m 75.26123,87.317255 c 0.451362,0.466695 0.677066,1.017199 0.677113,1.651515 -4.7e-5,0.634315 -0.225496,1.185329 -0.676349,1.653043 -0.450945,0.46771 -1.010111,0.701566 -1.677498,0.701569 l -39.868678,0 c -0.667437,-3e-6 -1.226603,-0.233859 -1.677498,-0.701569 -0.450903,-0.467714 -0.676352,-1.018728 -0.676349,-1.653043 -3e-6,-0.634316 0.225446,-1.185075 0.676349,-1.652279 0.450895,-0.467201 1.010061,-0.700803 1.677498,-0.700805 l 15.076853,0 c 0.266953,2e-6 0.40044,-0.150297 0.40046,-0.450899 l 0,-34.408974 c -2e-5,-0.734648 0.266952,-1.368963 0.80092,-1.902948 0.533924,-0.533907 1.185053,-0.80088 1.953388,-0.800919 0.768288,3.9e-5 1.419416,0.267012 1.953387,0.800919 0.533921,0.533985 0.800894,1.1683 0.80092,1.902948 l 0,10.017609 c -2.6e-5,0.267 0.150274,0.400487 0.450899,0.40046 l 15.726454,0 c 0.668409,2.7e-5 1.219678,0.21707 1.653808,0.651129 0.434041,0.434112 0.651084,0.985126 0.651129,1.653043 -4.5e-5,0.667967 -0.217088,1.21898 -0.651129,1.653043 -0.43413,0.434109 -0.985399,0.651152 -1.653808,0.65113 l -15.726454,0 c -0.300625,2.2e-5 -0.450925,0.150321 -0.450899,0.450899 l 0,18.931661 c -2.6e-5,0.300602 0.150274,0.450901 0.450899,0.450899 l 18.431851,0 c 0.667387,2e-6 1.226298,0.233858 1.676734,0.701569 z"
       id="path2896"
       style="font-size:50.08498764px;fill:#ffffff" />
    <path
       d="m 113.60143,83.56027 c -0.80093,2.80424 -1.63547,5.224828 -2.50364,7.261773 -0.23335,0.634822 -0.68399,1.077315 -1.35193,1.327478 -0.66795,0.250156 -1.31908,0.24175 -1.95339,-0.02522 -0.63432,-0.266976 -1.0684,-0.726027 -1.30226,-1.377154 -0.23385,-0.65113 -0.2173,-1.293598 0.0497,-1.927403 0.96803,-2.404795 1.76946,-4.625663 2.40429,-6.662612 0.19971,-0.6338 0.59176,-1.101002 1.17616,-1.401609 0.58438,-0.300592 1.19398,-0.350777 1.82881,-0.150555 0.63482,0.200238 1.11068,0.584139 1.4276,1.151704 0.31689,0.567579 0.39179,1.168778 0.22468,1.803598 z m 8.26445,-1.102029 c 0.43407,2.003322 0.80141,4.056568 1.10203,6.159744 0.0998,0.634825 -0.0421,1.211059 -0.42568,1.728703 -0.38366,0.51764 -0.8929,0.826391 -1.52771,0.926254 -0.63484,0.09986 -1.20266,-0.04203 -1.70348,-0.42568 -0.50084,-0.383648 -0.78437,-0.892884 -0.85059,-1.527708 -0.20076,-1.569231 -0.53498,-3.605664 -1.00268,-6.109305 -0.1335,-0.601193 -0.025,-1.152206 0.32556,-1.653043 0.35052,-0.500821 0.82638,-0.801675 1.4276,-0.902563 0.63481,-0.09985 1.20263,0.02548 1.70348,0.376005 0.50081,0.350537 0.81797,0.826401 0.95147,1.427593 z m 9.21516,-0.80092 c 0.46769,1.501985 0.9354,3.238328 1.40314,5.209035 0.13346,0.600181 0.0415,1.159092 -0.27589,1.676734 -0.31744,0.517642 -0.77674,0.843207 -1.37791,0.976694 -0.5676,0.133486 -1.10996,0.02496 -1.62706,-0.325565 -0.51716,-0.350529 -0.84247,-0.80958 -0.97593,-1.377153 -0.53499,-2.270288 -0.96908,-3.989818 -1.30226,-5.158595 -0.16714,-0.567566 -0.1088,-1.101767 0.17501,-1.602604 0.28376,-0.500821 0.70944,-0.817979 1.27704,-0.951474 0.56754,-0.133478 1.1183,-0.04992 1.65228,0.25067 0.53392,0.300607 0.88444,0.734693 1.05158,1.302258 z m 0.95224,-11.570537 0,3.306086 c -3e-5,0.300615 0.15027,0.450915 0.4509,0.4509 l 14.47464,0 c 0.76725,1.5e-5 1.43493,0.275394 2.00306,0.826139 0.56804,0.550773 0.85208,1.210309 0.85212,1.978608 l 0,0.80092 c -4e-5,4.241008 -0.20053,7.46328 -0.60145,9.666824 -0.40101,2.203547 -1.01877,3.714441 -1.85327,4.532685 -0.83459,0.818239 -2.05329,1.22736 -3.65611,1.227364 -1.13518,-4e-6 -2.8216,-0.08356 -5.05924,-0.25067 -0.63384,-0.06726 -1.1846,-0.317926 -1.65228,-0.752008 -0.46775,-0.434089 -0.71842,-0.984848 -0.75201,-1.652279 -0.0326,-0.6012 0.15969,-1.110436 0.577,-1.527708 0.41724,-0.417273 0.92647,-0.592283 1.52771,-0.525031 1.80254,0.133487 2.87094,0.200231 3.2052,0.20023 0.73465,10e-7 1.28566,-0.192077 1.65305,-0.576234 0.3673,-0.384155 0.67605,-1.285698 0.92625,-2.704632 0.25012,-1.418927 0.39201,-3.564136 0.42568,-6.435634 -4e-5,-0.300589 -0.15034,-0.450888 -0.4509,-0.450899 l -4.80857,0 c -0.30064,1.1e-5 -0.3842,0.133497 -0.25067,0.40046 0.83553,2.003326 1.57021,3.939899 2.20405,5.809724 0.16708,0.53395 0.11715,1.051337 -0.14979,1.552164 -0.26701,0.500831 -0.66772,0.834802 -1.20214,1.001913 -0.53449,0.167115 -1.05213,0.125337 -1.55293,-0.125334 -0.50086,-0.250668 -0.85114,-0.659788 -1.05082,-1.227364 -0.60124,-1.669087 -1.06895,-2.937718 -1.40314,-3.805896 -0.26701,-0.701052 -0.24179,-1.393959 0.0757,-2.078723 0.31738,-0.684746 0.84292,-1.143797 1.57662,-1.377154 0.0336,1.1e-5 0.0504,-0.02495 0.0504,-0.07489 -4e-5,-0.04992 -0.0169,-0.07488 -0.0504,-0.07489 l -24.69095,0 c -0.76832,1.1e-5 -1.43626,-0.283776 -2.00382,-0.851359 -0.56758,-0.567561 -0.85137,-1.235503 -0.85136,-2.003828 l 0,-23.089106 c -1e-5,-0.768275 0.28378,-1.436216 0.85136,-2.003827 0.56756,-0.567534 1.2355,-0.85132 2.00382,-0.851359 l 32.90496,0 c 0.60116,3.9e-5 1.11039,0.217082 1.52771,0.651129 0.41723,0.434124 0.62586,0.951767 0.62591,1.552928 -5e-5,0.601236 -0.20868,1.110471 -0.62591,1.527708 -0.41732,0.417309 -0.92655,0.625945 -1.52771,0.62591 l -13.27173,0 c -0.30063,3.5e-5 -0.45093,0.150334 -0.4509,0.450899 l 0,3.055417 c -3e-5,0.267004 0.15027,0.400491 0.4509,0.40046 l 11.92056,0 c 0.5339,3.1e-5 1.00111,0.20026 1.40161,0.600689 0.40042,0.40049 0.60065,0.867948 0.60069,1.402374 -4e-5,0.534484 -0.20027,1.001942 -0.60069,1.402373 -0.4005,0.400487 -0.86771,0.600717 -1.40161,0.60069 l -11.92056,0 c -0.30063,2.7e-5 -0.45093,0.133514 -0.4509,0.40046 l 0,3.206735 c -3e-5,0.266997 0.15027,0.400483 0.4509,0.40046 l 11.92056,0 c 0.5339,2.3e-5 1.00111,0.200253 1.40161,0.60069 0.40042,0.400482 0.60065,0.867939 0.60069,1.402373 -4e-5,0.534477 -0.20027,1.001934 -0.60069,1.402374 -0.4005,0.400479 -0.86771,0.600709 -1.40161,0.60069 l -11.92056,0 c -0.30063,1.9e-5 -0.45093,0.133505 -0.4509,0.400459 z m -16.67869,-15.876244 0,3.055417 c -1e-5,0.267004 0.15029,0.400491 0.4509,0.40046 l 10.41807,0 c 0.30058,3.1e-5 0.45088,-0.133456 0.4509,-0.40046 l 0,-3.055417 c -2e-5,-0.300565 -0.15032,-0.450864 -0.4509,-0.450899 l -10.41807,0 c -0.30061,3.5e-5 -0.45091,0.150334 -0.4509,0.450899 z m 0,7.862463 0,3.206735 c -1e-5,0.266997 0.15029,0.400483 0.4509,0.40046 l 10.41807,0 c 0.30058,2.3e-5 0.45088,-0.133463 0.4509,-0.40046 l 0,-3.206735 c -2e-5,-0.266946 -0.15032,-0.400433 -0.4509,-0.40046 l -10.41807,0 c -0.30061,2.7e-5 -0.45091,0.133514 -0.4509,0.40046 z m 0.4509,11.770767 10.41807,0 c 0.30058,1.5e-5 0.45088,-0.150285 0.4509,-0.4509 l 0,-3.306086 c -2e-5,-0.266954 -0.15032,-0.40044 -0.4509,-0.400459 l -10.41807,0 c -0.30061,1.9e-5 -0.45091,0.133505 -0.4509,0.400459 l 0,3.306086 c -1e-5,0.300615 0.15029,0.450915 0.4509,0.4509 z"
       id="path2898"
       style="font-size:50.08498764px;fill:#ffffff" />
  </g>
  <g
     id="text3748"
     style="font-size:33.38999176px;font-style:normal;font-weight:normal;text-align:center;text-anchor:middle;fill:#ffffff;fill-opacity:1;stroke:#ffffff;stroke-opacity:1;font-family:'Rounded M+ 1mn medium';-inkscape-font-specification:'Rounded M+ 1mn medium'">
    <path
       d="m 194.82986,93.887952 -2.13904,0 -8.49097,-12.88645 c -0.64346,-0.973861 -1.41735,-2.291199 -2.32165,-3.952019 l -0.10435,0 0.0522,1.252125 c 0.0869,2.765122 0.13042,4.612873 0.13042,5.54326 l 0,10.043084 -2.29556,0 0,-19.081859 3.1564,0 7.29102,11.086521 c 0.94777,1.47821 1.78252,2.886848 2.50425,4.225921 l 0.10434,0 c -0.12175,-2.591196 -0.18262,-4.682416 -0.1826,-6.273667 l 0,-9.038775 2.29556,0 z"
       id="path2901"
       style="font-size:26.71199417px;fill:#ffffff;fill-opacity:1;stroke:#ffffff;stroke-width:0.83474982;stroke-opacity:1;font-family:IPAPGothic;-inkscape-font-specification:IPAPGothic" />
    <path
       d="m 202.32957,77.753803 -2.62164,0 0,-2.673808 2.62164,0 z m -0.16956,16.134149 -2.29556,0 0,-13.303825 2.29556,0 z"
       id="path2903"
       style="font-size:26.71199417px;fill:#ffffff;fill-opacity:1;stroke:#ffffff;stroke-width:0.83474982;stroke-opacity:1;font-family:IPAPGothic;-inkscape-font-specification:IPAPGothic" />
    <path
       d="m 218.5811,93.887952 -2.29556,0 0,-8.256197 c -1e-5,-2.26077 -0.92606,-3.39116 -2.77815,-3.391172 -1.90428,1.2e-5 -3.29553,1.130402 -4.17375,3.391172 l 0,8.256197 -2.29556,0 0,-19.74705 2.29556,0 0,8.712701 c 1.20864,-1.686877 2.76075,-2.530322 4.65634,-2.530336 3.06074,1.4e-5 4.59111,1.726032 4.59112,5.178058 z"
       id="path2905"
       style="font-size:26.71199417px;fill:#ffffff;fill-opacity:1;stroke:#ffffff;stroke-width:0.83474982;stroke-opacity:1;font-family:IPAPGothic;-inkscape-font-specification:IPAPGothic" />
    <path
       d="m 228.84592,80.205881 c 1.87818,1.4e-5 3.46072,0.630423 4.74764,1.89123 1.32167,1.321698 1.98252,3.060758 1.98253,5.217186 -1e-5,2.078184 -0.64781,3.76942 -1.9434,5.073714 -1.26953,1.26082 -2.86512,1.89123 -4.78677,1.89123 -1.92167,0 -3.50421,-0.621714 -4.74764,-1.865144 -1.3043,-1.304294 -1.95645,-3.030311 -1.95644,-5.178058 -1e-5,-2.104256 0.66084,-3.81723 1.98253,-5.138928 1.26081,-1.260807 2.83466,-1.891216 4.72155,-1.89123 z m 0,1.7608 c -1.11301,1.2e-5 -2.05645,0.399996 -2.83032,1.199953 -0.98258,0.98258 -1.47386,2.347743 -1.47386,4.095491 0,1.721677 0.48259,3.065101 1.44777,4.030277 0.78257,0.78258 1.73471,1.173868 2.85641,1.173867 1.14777,10e-7 2.1086,-0.399982 2.8825,-1.199953 0.96516,-0.965176 1.44775,-2.330338 1.44776,-4.095491 -10e-6,-1.660796 -0.49129,-2.995525 -1.47385,-4.004191 -0.79998,-0.799957 -1.75211,-1.199941 -2.85641,-1.199953 z"
       id="path2907"
       style="font-size:26.71199417px;fill:#ffffff;fill-opacity:1;stroke:#ffffff;stroke-width:0.83474982;stroke-opacity:1;font-family:IPAPGothic;-inkscape-font-specification:IPAPGothic" />
    <path
       d="m 250.8494,93.887952 -2.29556,0 0,-8.256197 c -1e-5,-2.26077 -0.93476,-3.39116 -2.80424,-3.391172 -1.88689,1.2e-5 -3.26944,1.130402 -4.14766,3.391172 l 0,8.256197 -2.29556,0 0,-13.303825 2.13904,0 0,2.399906 c 1.25212,-1.773831 2.84771,-2.660752 4.78677,-2.660766 3.07813,1.4e-5 4.6172,1.726032 4.61721,5.178058 z"
       id="path2909"
       style="font-size:26.71199417px;fill:#ffffff;fill-opacity:1;stroke:#ffffff;stroke-width:0.83474982;stroke-opacity:1;font-family:IPAPGothic;-inkscape-font-specification:IPAPGothic" />
    <path
       d="m 257.77522,82.749259 c 1.18255,-1.695572 2.70423,-2.543364 4.56503,-2.543378 1.58254,1.4e-5 2.93466,0.560861 4.05637,1.682542 1.30428,1.304308 1.95643,3.104235 1.95644,5.399788 -1e-5,2.243395 -0.65216,4.012889 -1.95644,5.308487 -1.12171,1.121696 -2.49122,1.682543 -4.10854,1.682543 -1.79993,0 -3.35639,-0.760839 -4.66938,-2.282519 l -0.32607,1.969488 -1.78689,0 0,-19.825308 2.26948,0 z m 0,3.065097 0,3.104226 c -10e-6,1.017356 0.56084,1.926015 1.68254,2.72598 0.76518,0.547806 1.58689,0.821708 2.46512,0.821707 1.02604,10e-7 1.89557,-0.356506 2.60859,-1.069523 0.94778,-0.973872 1.42167,-2.325991 1.42169,-4.056363 -2e-5,-1.565147 -0.39131,-2.847704 -1.17387,-3.847675 -0.77389,-0.965168 -1.71733,-1.447757 -2.83032,-1.447769 -1.01736,1.2e-5 -1.97385,0.44782 -2.86946,1.343425 -0.86953,0.869541 -1.3043,1.678204 -1.30429,2.425992 z"
       id="path2911"
       style="font-size:26.71199417px;fill:#ffffff;fill-opacity:1;stroke:#ffffff;stroke-width:0.83474982;stroke-opacity:1;font-family:IPAPGothic;-inkscape-font-specification:IPAPGothic" />
    <path
       d="m 282.94814,93.887952 -2.03471,0 c -0.30434,-0.669538 -0.49999,-1.356467 -0.58693,-2.060789 l -0.0783,0 c -1.00866,1.617329 -2.51295,2.425992 -4.51286,2.425992 -1.37387,0 -2.49556,-0.434765 -3.36509,-1.304297 -0.76519,-0.765185 -1.14778,-1.69993 -1.14778,-2.804237 0,-2.747712 2.36947,-4.191132 7.10842,-4.330265 l 1.78688,-0.05217 0,-0.691277 c -1e-5,-0.930388 -0.26956,-1.660794 -0.80866,-2.191218 -0.54781,-0.556488 -1.25648,-0.834738 -2.126,-0.83475 -1.4956,1.2e-5 -2.6173,0.72607 -3.36509,2.178175 l -1.98253,-0.913007 c 1.22604,-2.03469 3.02596,-3.05204 5.39979,-3.052054 1.62601,1.4e-5 2.88248,0.456517 3.76941,1.369511 0.81735,0.817371 1.22603,1.973846 1.22604,3.469429 l 0,4.891112 c -10e-6,1.660807 0.23911,2.960755 0.71737,3.899847 z m -2.77816,-6.521483 -1.47385,0.02609 c -3.43465,0.07826 -5.15198,1.004314 -5.15197,2.778152 -10e-6,0.626065 0.20433,1.143436 0.61302,1.552113 0.50432,0.495634 1.16516,0.74345 1.98253,0.743449 1.13908,10e-7 2.12599,-0.417373 2.96075,-1.252125 0.71301,-0.739098 1.06951,-1.630366 1.06952,-2.673808 z"
       id="path2913"
       style="font-size:26.71199417px;fill:#ffffff;fill-opacity:1;stroke:#ffffff;stroke-width:0.83474982;stroke-opacity:1;font-family:IPAPGothic;-inkscape-font-specification:IPAPGothic" />
    <path
       d="m 293.81293,83.518794 c -0.82606,-1.069511 -1.8695,-1.604272 -3.13031,-1.604285 -1.65211,1.3e-5 -2.47817,0.63477 -2.47816,1.904273 -10e-6,0.895627 0.89126,1.634727 2.67381,2.217305 l 0.87387,0.286945 c 2.53033,0.826061 3.7955,2.191224 3.79551,4.095491 -10e-6,1.278213 -0.52608,2.282521 -1.5782,3.012925 -0.83476,0.565196 -1.91298,0.847793 -3.23466,0.847793 -2.0347,0 -3.76072,-0.743448 -5.17805,-2.230347 l 1.44776,-1.31734 c 1.09561,1.173869 2.36512,1.760802 3.80855,1.760801 1.71297,10e-7 2.56946,-0.665189 2.56946,-1.995574 0,-1.008651 -0.94344,-1.847748 -2.83032,-2.517293 l -0.91301,-0.313031 c -2.38251,-0.834742 -3.57377,-2.056432 -3.57377,-3.665073 0,-1.01734 0.34781,-1.873828 1.04344,-2.569464 0.83474,-0.834737 1.98252,-1.252111 3.44334,-1.252125 1.95644,1.4e-5 3.56072,0.678247 4.81286,2.034703 z"
       id="path2915"
       style="font-size:26.71199417px;fill:#ffffff;fill-opacity:1;stroke:#ffffff;stroke-width:0.83474982;stroke-opacity:1;font-family:IPAPGothic;-inkscape-font-specification:IPAPGothic" />
    <path
       d="m 310.82096,93.887952 -2.29556,0 0,-8.256197 c -10e-6,-2.26077 -0.92606,-3.39116 -2.77815,-3.391172 -1.90428,1.2e-5 -3.29553,1.130402 -4.17375,3.391172 l 0,8.256197 -2.29557,0 0,-19.74705 2.29557,0 0,8.712701 c 1.20864,-1.686877 2.76075,-2.530322 4.65634,-2.530336 3.06073,1.4e-5 4.59111,1.726032 4.59112,5.178058 z"
       id="path2917"
       style="font-size:26.71199417px;fill:#ffffff;fill-opacity:1;stroke:#ffffff;stroke-width:0.83474982;stroke-opacity:1;font-family:IPAPGothic;-inkscape-font-specification:IPAPGothic" />
    <path
       d="m 317.99458,77.753803 -2.62163,0 0,-2.673808 2.62163,0 z m -0.16956,16.134149 -2.29556,0 0,-13.303825 2.29556,0 z"
       id="path2919"
       style="font-size:26.71199417px;fill:#ffffff;fill-opacity:1;stroke:#ffffff;stroke-width:0.83474982;stroke-opacity:1;font-family:IPAPGothic;-inkscape-font-specification:IPAPGothic" />
  </g>
  <g
     id="text3748-5"
     style="font-size:33.38999176px;font-style:normal;font-weight:normal;text-align:center;text-anchor:middle;fill:#ffffff;fill-opacity:1;stroke:#ffffff;stroke-opacity:1;font-family:'Rounded M+ 1mn medium';-inkscape-font-specification:'Rounded M+ 1mn medium'">
    <path
       d="m 49.413169,121.80973 -3.039011,0 -7.238846,-9.53441 -2.11296,2.04775 0,7.48666 -2.347734,0 0,-19.08186 2.347734,0 0,9.11703 8.464885,-9.11703 3.156397,0 -7.995338,8.09968 z"
       id="path3705"
       style="font-size:26.71199417px;fill:#ffffff;stroke:#ffffff;stroke-width:0.83474982;font-family:IPAPGothic;-inkscape-font-specification:IPAPGothic" />
    <path
       d="m 62.573522,121.80973 -2.034703,0 c -0.304347,-0.66954 -0.499991,-1.35647 -0.586933,-2.06079 l -0.07826,0 c -1.008666,1.61733 -2.512953,2.42599 -4.512866,2.42599 -1.373864,0 -2.495558,-0.43476 -3.365086,-1.3043 -0.765189,-0.76518 -1.147782,-1.69993 -1.147781,-2.80423 -10e-7,-2.74771 2.369469,-4.19113 7.108417,-4.33027 l 1.786886,-0.0522 0,-0.69128 c -10e-6,-0.93039 -0.269565,-1.66079 -0.808664,-2.19122 -0.547813,-0.55648 -1.25648,-0.83473 -2.126003,-0.83475 -1.495599,2e-5 -2.617293,0.72607 -3.365085,2.17818 l -1.982531,-0.91301 c 1.226035,-2.03469 3.025963,-3.05204 5.399788,-3.05205 1.626014,1e-5 2.882485,0.45652 3.769417,1.36951 0.817347,0.81737 1.226026,1.97385 1.226039,3.46943 l 0,4.89111 c -1.3e-5,1.66081 0.239108,2.96076 0.717363,3.89985 z m -2.778152,-6.52149 -1.473855,0.0261 c -3.434653,0.0783 -5.151975,1.00431 -5.151972,2.77815 -3e-6,0.62607 0.204336,1.14344 0.61302,1.55212 0.504323,0.49563 1.165166,0.74345 1.982531,0.74344 1.139078,10e-6 2.125995,-0.41737 2.960753,-1.25212 0.713005,-0.7391 1.069513,-1.63037 1.069523,-2.67381 z"
       id="path3707"
       style="font-size:26.71199417px;fill:#ffffff;stroke:#ffffff;stroke-width:0.83474982;font-family:IPAPGothic;-inkscape-font-specification:IPAPGothic" />
    <path
       d="m 85.072638,121.80973 -2.295562,0 0,-8.33446 c -1.9e-5,-2.24338 -0.869549,-3.36507 -2.608593,-3.36508 -0.82607,1e-5 -1.582561,0.3826 -2.269477,1.14778 -0.48695,0.53912 -0.826067,1.21735 -1.017351,2.0347 l 0,8.51706 -2.295562,0 0,-8.36054 c -1e-5,-2.22599 -0.821716,-3.33899 -2.46512,-3.339 -0.869539,1e-5 -1.634725,0.3826 -2.295562,1.14778 -0.713021,0.79128 -1.069528,1.55647 -1.069524,2.29556 l 0,8.2562 -2.295562,0 0,-13.30383 2.139047,0 0,2.29556 c 0.878221,-1.70426 2.204254,-2.5564 3.978104,-2.55642 1.939044,2e-5 3.230297,0.92607 3.873761,2.77816 0.965166,-1.85209 2.352067,-2.77814 4.160706,-2.77816 1.460795,2e-5 2.599879,0.51739 3.417257,1.55212 0.695605,0.85215 1.043417,2.0608 1.043438,3.62594 z"
       id="path3709"
       style="font-size:26.71199417px;fill:#ffffff;stroke:#ffffff;stroke-width:0.83474982;font-family:IPAPGothic;-inkscape-font-specification:IPAPGothic" />
    <path
       d="m 92.298442,105.67558 -2.621637,0 0,-2.67381 2.621637,0 z m -0.169559,16.13415 -2.295562,0 0,-13.30383 2.295562,0 z"
       id="path3711"
       style="font-size:26.71199417px;fill:#ffffff;stroke:#ffffff;stroke-width:0.83474982;font-family:IPAPGothic;-inkscape-font-specification:IPAPGothic" />
    <path
       d="m 108.28912,121.80973 -2.13905,0 0,-2.42599 c -1.313,1.79123 -2.90859,2.68685 -4.78677,2.68685 -1.539071,0 -2.739023,-0.52172 -3.599854,-1.56516 -0.678237,-0.84344 -1.017354,-2.04774 -1.017352,-3.6129 l 0,-8.38663 2.295562,0 0,8.30837 c -4e-6,2.20861 0.926045,3.31292 2.778154,3.31292 1.86948,0 3.26073,-1.14778 4.17375,-3.44335 l 0,-8.17794 2.29556,0 z"
       id="path3713"
       style="font-size:26.71199417px;fill:#ffffff;stroke:#ffffff;stroke-width:0.83474982;font-family:IPAPGothic;-inkscape-font-specification:IPAPGothic" />
    <path
       d="m 131.66211,121.80973 -2.29556,0 0,-8.33446 c -2e-5,-2.24338 -0.86955,-3.36507 -2.6086,-3.36508 -0.82607,1e-5 -1.58256,0.3826 -2.26947,1.14778 -0.48695,0.53912 -0.82607,1.21735 -1.01735,2.0347 l 0,8.51706 -2.29557,0 0,-8.36054 c -1e-5,-2.22599 -0.82171,-3.33899 -2.46512,-3.339 -0.86953,1e-5 -1.63472,0.3826 -2.29556,1.14778 -0.71302,0.79128 -1.06953,1.55647 -1.06952,2.29556 l 0,8.2562 -2.29556,0 0,-13.30383 2.13904,0 0,2.29556 c 0.87822,-1.70426 2.20426,-2.5564 3.97811,-2.55642 1.93904,2e-5 3.23029,0.92607 3.87376,2.77816 0.96517,-1.85209 2.35207,-2.77814 4.16071,-2.77816 1.46079,2e-5 2.59987,0.51739 3.41725,1.55212 0.69561,0.85215 1.04342,2.0608 1.04344,3.62594 z"
       id="path3715"
       style="font-size:26.71199417px;fill:#ffffff;stroke:#ffffff;stroke-width:0.83474982;font-family:IPAPGothic;-inkscape-font-specification:IPAPGothic" />
    <path
       d="m 147.14411,121.80973 -2.0347,0 c -0.30435,-0.66954 -0.49999,-1.35647 -0.58693,-2.06079 l -0.0783,0 c -1.00867,1.61733 -2.51295,2.42599 -4.51287,2.42599 -1.37386,0 -2.49556,-0.43476 -3.36508,-1.3043 -0.76519,-0.76518 -1.14779,-1.69993 -1.14778,-2.80423 -1e-5,-2.74771 2.36946,-4.19113 7.10841,-4.33027 l 1.78689,-0.0522 0,-0.69128 c -1e-5,-0.93039 -0.26957,-1.66079 -0.80866,-2.19122 -0.54782,-0.55648 -1.25649,-0.83473 -2.12601,-0.83475 -1.4956,2e-5 -2.61729,0.72607 -3.36508,2.17818 l -1.98253,-0.91301 c 1.22603,-2.03469 3.02596,-3.05204 5.39978,-3.05205 1.62602,1e-5 2.88249,0.45652 3.76942,1.36951 0.81735,0.81737 1.22603,1.97385 1.22604,3.46943 l 0,4.89111 c -1e-5,1.66081 0.23911,2.96076 0.71736,3.89985 z m -2.77815,-6.52149 -1.47385,0.0261 c -3.43466,0.0783 -5.15198,1.00431 -5.15198,2.77815 0,0.62607 0.20434,1.14344 0.61302,1.55212 0.50433,0.49563 1.16517,0.74345 1.98253,0.74344 1.13908,10e-6 2.126,-0.41737 2.96076,-1.25212 0.713,-0.7391 1.06951,-1.63037 1.06952,-2.67381 z"
       id="path3717"
       style="font-size:26.71199417px;fill:#ffffff;stroke:#ffffff;stroke-width:0.83474982;font-family:IPAPGothic;-inkscape-font-specification:IPAPGothic" />
  </g>
  <g
     id="text3748-5-8"
     style="font-size:33.38999176px;font-style:normal;font-weight:normal;text-align:center;text-anchor:middle;fill:#ffffff;fill-opacity:1;stroke:#ffffff;stroke-opacity:1;font-family:'Rounded M+ 1mn medium';-inkscape-font-specification:'Rounded M+ 1mn medium'">
    <path
       d="m 383.57428,103.52394 c 2.54771,2e-5 4.63893,0.81738 6.27366,2.45208 1.85209,1.86081 2.77814,4.37375 2.77816,7.53883 -2e-5,3.09554 -0.94346,5.5737 -2.83033,7.43449 -1.61734,1.61733 -3.69117,2.42599 -6.22149,2.42599 -2.51295,0 -4.57809,-0.80866 -6.19541,-2.42599 -1.88689,-1.86079 -2.83033,-4.37373 -2.83032,-7.53883 -10e-6,-3.09552 0.92604,-5.57368 2.77815,-7.43449 1.63471,-1.6347 3.71723,-2.45206 6.24758,-2.45208 z m 0,1.93036 c -1.63473,2e-5 -3.03902,0.58695 -4.21288,1.7608 -1.4956,1.49561 -2.24339,3.57378 -2.24339,6.23454 0,2.66077 0.74779,4.7259 2.24339,6.1954 1.15647,1.15648 2.56076,1.73472 4.21288,1.73472 1.6434,0 3.05639,-0.57824 4.23896,-1.73472 1.49558,-1.49558 2.24338,-3.59985 2.24339,-6.31279 -10e-6,-2.5651 -0.75651,-4.60415 -2.26947,-6.11715 -1.1478,-1.17385 -2.55209,-1.76078 -4.21288,-1.7608 z"
       id="path3694"
       style="font-size:26.71199417px;fill:#ffffff;stroke:#ffffff;stroke-width:0.83474982;font-family:IPAPGothic;-inkscape-font-specification:IPAPGothic" />
    <path
       d="m 415.21651,122.98404 -2.29556,0 0,-8.33445 c -2e-5,-2.24338 -0.86955,-3.36507 -2.60859,-3.36509 -0.82607,2e-5 -1.58256,0.38261 -2.26948,1.14778 -0.48695,0.53912 -0.82607,1.21736 -1.01735,2.03471 l 0,8.51705 -2.29556,0 0,-8.36054 c -10e-6,-2.22599 -0.82172,-3.33898 -2.46512,-3.339 -0.86954,2e-5 -1.63473,0.38261 -2.29556,1.14778 -0.71302,0.79129 -1.06953,1.55647 -1.06953,2.29557 l 0,8.25619 -2.29556,0 0,-13.30382 2.13905,0 0,2.29556 c 0.87822,-1.70427 2.20425,-2.55641 3.9781,-2.55642 1.93905,1e-5 3.2303,0.92606 3.87376,2.77815 0.96517,-1.85209 2.35207,-2.77814 4.16071,-2.77815 1.46079,1e-5 2.59988,0.51738 3.41726,1.55211 0.6956,0.85215 1.04341,2.0608 1.04343,3.62595 z"
       id="path3696"
       style="font-size:26.71199417px;fill:#ffffff;stroke:#ffffff;stroke-width:0.83474982;font-family:IPAPGothic;-inkscape-font-specification:IPAPGothic" />
    <path
       d="m 425.5335,109.30197 c 1.87818,2e-5 3.46072,0.63043 4.74764,1.89123 1.32167,1.3217 1.98252,3.06076 1.98253,5.21719 -10e-6,2.07818 -0.64781,3.76942 -1.9434,5.07371 -1.26953,1.26082 -2.86512,1.89123 -4.78677,1.89123 -1.92167,0 -3.50422,-0.62171 -4.74764,-1.86514 -1.3043,-1.30429 -1.95645,-3.03031 -1.95644,-5.17806 -1e-5,-2.10425 0.66084,-3.81723 1.98253,-5.13893 1.26081,-1.2608 2.83466,-1.89121 4.72155,-1.89123 z m 0,1.7608 c -1.11301,2e-5 -2.05645,0.4 -2.83032,1.19996 -0.98258,0.98258 -1.47386,2.34774 -1.47386,4.09549 0,1.72167 0.48259,3.0651 1.44777,4.03027 0.78257,0.78258 1.73471,1.17387 2.85641,1.17387 1.14777,0 2.1086,-0.39998 2.8825,-1.19995 0.96516,-0.96518 1.44775,-2.33034 1.44776,-4.09549 -1e-5,-1.6608 -0.49129,-2.99553 -1.47385,-4.00419 -0.79998,-0.79996 -1.75212,-1.19994 -2.85641,-1.19996 z"
       id="path3698"
       style="font-size:26.71199417px;fill:#ffffff;stroke:#ffffff;stroke-width:0.83474982;font-family:IPAPGothic;-inkscape-font-specification:IPAPGothic" />
    <path
       d="m 443.28498,109.41936 -0.40434,2.26948 c -0.29565,-0.0609 -0.56085,-0.0913 -0.79562,-0.0913 -1.02605,1e-5 -1.87384,0.4826 -2.54338,1.44776 -0.83475,1.21736 -1.25213,2.28688 -1.25212,3.20857 l 0,6.73017 -2.29556,0 0,-13.30382 2.16513,0 -0.10434,3.95202 0.0522,0 c 0.98256,-2.88683 2.41294,-4.33025 4.29113,-4.33027 0.30433,2e-5 0.59997,0.0392 0.88693,0.11739 z"
       id="path3700"
       style="font-size:26.71199417px;fill:#ffffff;stroke:#ffffff;stroke-width:0.83474982;font-family:IPAPGothic;-inkscape-font-specification:IPAPGothic" />
    <path
       d="m 448.47608,106.8499 -2.62164,0 0,-2.67381 2.62164,0 z m -0.16956,16.13414 -2.29556,0 0,-13.30382 2.29556,0 z"
       id="path3702"
       style="font-size:26.71199417px;fill:#ffffff;stroke:#ffffff;stroke-width:0.83474982;font-family:IPAPGothic;-inkscape-font-specification:IPAPGothic" />
  </g>
  <text
     x="254.29584"
     y="472.46854"
     id="text3748-5-5"
     xml:space="preserve"
     style="font-size:63.4311409px;font-style:normal;font-weight:normal;text-align:center;text-anchor:middle;fill:#000000;fill-opacity:1;stroke:none;font-family:'Rounded M+ 1mn medium';-inkscape-font-specification:'Rounded M+ 1mn medium'"><tspan
       x="254.29584"
       y="472.46854"
       id="tspan3750-7-3"
       style="font-size:50.74491882px;fill:#ffffff;fill-opacity:1;stroke:#ffffff;stroke-width:1.58577871;stroke-opacity:1;font-family:IPAPGothic;-inkscape-font-specification:IPAPGothic">300m</tspan></text>
  <path
     d="m 356.75,211.125 -23.90625,0 c 0,-36.48761 29.69993,-66.23025 66.1875,-66.28125 l 36.28125,0.1875 -3.03125,-5.21875 c -0.32375,-0.67761 -0.7148,-1.40924 -0.6875,-2.21875 0,-1.98465 1.6091,-3.59375 3.59375,-3.59375 0.87647,0 1.71914,0.34066 2.34375,0.875 L 474,156.0625 c 0.42817,0.24703 0.623,0.58266 0.625,0.90625 -0.002,0.32359 -0.19684,0.62797 -0.625,0.875 l -36.46875,21.1875 c -0.62461,0.53433 -1.46729,0.875 -2.34375,0.875 -1.98466,0 -3.59375,-1.6091 -3.59375,-3.59375 0.10279,-0.79586 0.28402,-1.54325 0.6875,-2.21875 l 3.03125,-5.21875 -36.25,0 c -24.17263,0 -42.3125,19.15818 -42.3125,42.25 z"
     id="path13506-3"
     style="fill:#ffffff;fill-opacity:1;fill-rule:nonzero;stroke:none" />
  <path
     d="m 148.81197,211.125 23.90625,0 c 0,-36.48761 -29.69993,-66.23025 -66.18749,-66.28125 l -36.28126,0.1875 3.03125,-5.21875 c 0.32375,-0.67761 0.7148,-1.40924 0.6875,-2.21875 0,-1.98465 -1.6091,-3.59375 -3.59375,-3.59375 -0.87647,0 -1.71914,0.34066 -2.34375,0.875 l -36.46875,21.1875 c -0.42817,0.24703 -0.623,0.58266 -0.625,0.90625 0.002,0.32359 0.19684,0.62797 0.625,0.875 l 36.46875,21.1875 c 0.62461,0.53433 1.46729,0.875 2.34375,0.875 1.98466,0 3.59375,-1.6091 3.59375,-3.59375 -0.10279,-0.79586 -0.28402,-1.54325 -0.6875,-2.21875 l -3.03125,-5.21875 36.25001,0 c 24.17262,0 42.31249,19.15818 42.31249,42.25 z"
     id="path13506-3-8"
     style="fill:#ffffff;fill-opacity:1;fill-rule:nonzero;stroke:none" />
  <g
     transform="matrix(0.60029386,0,0,0.60029386,8.468455,-43.402773)"
     id="text3748-5-5-1"
     style="font-size:63.4311409px;font-style:normal;font-weight:normal;text-align:center;text-anchor:middle;fill:#ffffff;fill-opacity:1;stroke:#ffffff;stroke-opacity:1;font-family:'Rounded M+ 1mn medium';-inkscape-font-specification:'Rounded M+ 1mn medium'">
    <path
       d="m 203.05536,453.29053 c 5.94665,1.0572 8.91998,4.06357 8.92001,9.01911 -3e-5,2.98986 -0.9994,5.42634 -2.99811,7.30945 -2.21351,2.06482 -5.34377,3.09722 -9.39079,3.09722 -6.06231,0 -10.43971,-2.4117 -13.13223,-7.23511 l 3.71667,-1.98222 c 1.86659,3.6506 4.98859,5.47589 9.36601,5.47589 2.57687,0 4.57561,-0.66074 5.99622,-1.98223 1.3545,-1.2554 2.03176,-2.84943 2.03178,-4.78211 -2e-5,-2.24651 -1.01591,-4.05528 -3.04767,-5.42634 -1.85009,-1.25539 -4.28657,-1.88309 -7.30945,-1.88311 l -2.23,0 0,-3.59278 2.32911,0 c 3.0394,2e-5 5.36025,-0.57813 6.96256,-1.73444 1.71791,-1.22235 2.57687,-2.86594 2.57689,-4.93078 -2e-5,-2.24649 -0.96635,-3.9066 -2.899,-4.98034 -1.2389,-0.7433 -2.72557,-1.11497 -4.46,-1.115 -3.68364,3e-5 -6.40094,1.85011 -8.15189,5.55022 l -3.71667,-1.784 c 2.42822,-4.87293 6.40092,-7.30941 11.91812,-7.30945 3.48539,4e-5 6.31005,0.88378 8.474,2.65123 2.1639,1.70144 3.24586,3.96448 3.24589,6.78911 -3e-5,2.67603 -1.04895,4.86473 -3.14678,6.56612 -1.35454,1.09024 -3.03943,1.78402 -5.05467,2.08133 z"
       id="path3734"
       style="font-size:50.74491882px;fill:#ffffff;fill-opacity:1;stroke:#ffffff;stroke-width:1.58577871;stroke-opacity:1;font-family:IPAPGothic;-inkscape-font-specification:IPAPGothic" />
    <path
       d="m 232.34271,435.00451 c 4.45999,4e-5 7.88758,2.06486 10.28279,6.19445 1.8996,3.2707 2.84942,7.49944 2.84944,12.68623 -2e-5,5.13728 -0.94984,9.37428 -2.84944,12.71101 -2.36218,4.08008 -5.84758,6.12011 -10.45623,6.12011 -4.59216,0 -8.06931,-2.04003 -10.43145,-6.12011 -1.89964,-3.33673 -2.84945,-7.59025 -2.84945,-12.76056 0,-7.20206 1.7427,-12.44668 5.22812,-15.7339 2.21347,-2.06478 4.95554,-3.09719 8.22622,-3.09723 z m -0.17344,3.66712 c -2.64298,3e-5 -4.72431,1.33803 -6.244,4.014 -1.55275,2.70907 -2.32912,6.45051 -2.32912,11.22434 0,4.67476 0.75985,8.35839 2.27956,11.0509 1.53621,2.64296 3.63406,3.96445 6.29356,3.96444 3.18806,10e-6 5.5502,-1.85833 7.08645,-5.575 1.0076,-2.49429 1.51142,-5.73192 1.51144,-9.7129 -2e-5,-4.64168 -0.77639,-8.29227 -2.32911,-10.95178 -1.56928,-2.67597 -3.65887,-4.01397 -6.26878,-4.014 z"
       id="path3736"
       style="font-size:50.74491882px;fill:#ffffff;fill-opacity:1;stroke:#ffffff;stroke-width:1.58577871;stroke-opacity:1;font-family:IPAPGothic;-inkscape-font-specification:IPAPGothic" />
    <path
       d="m 264.35562,435.00451 c 4.45999,4e-5 7.88758,2.06486 10.28279,6.19445 1.8996,3.2707 2.84941,7.49944 2.84944,12.68623 -3e-5,5.13728 -0.94984,9.37428 -2.84944,12.71101 -2.36218,4.08008 -5.84758,6.12011 -10.45623,6.12011 -4.59216,0 -8.06931,-2.04003 -10.43145,-6.12011 -1.89964,-3.33673 -2.84945,-7.59025 -2.84945,-12.76056 0,-7.20206 1.7427,-12.44668 5.22812,-15.7339 2.21347,-2.06478 4.95554,-3.09719 8.22622,-3.09723 z m -0.17344,3.66712 c -2.64298,3e-5 -4.72431,1.33803 -6.244,4.014 -1.55275,2.70907 -2.32912,6.45051 -2.32912,11.22434 0,4.67476 0.75985,8.35839 2.27956,11.0509 1.53621,2.64296 3.63406,3.96445 6.29356,3.96444 3.18806,10e-6 5.5502,-1.85833 7.08645,-5.575 1.0076,-2.49429 1.51142,-5.73192 1.51144,-9.7129 -2e-5,-4.64168 -0.77639,-8.29227 -2.32911,-10.95178 -1.56928,-2.67597 -3.65887,-4.01397 -6.26878,-4.014 z"
       id="path3738"
       style="font-size:50.74491882px;fill:#ffffff;fill-opacity:1;stroke:#ffffff;stroke-width:1.58577871;stroke-opacity:1;font-family:IPAPGothic;-inkscape-font-specification:IPAPGothic" />
    <path
       d="m 320.03132,471.97298 -4.36089,0 0,-15.83301 c -3e-5,-4.26176 -1.65188,-6.39265 -4.95556,-6.39267 -1.56928,2e-5 -3.0064,0.72684 -4.31133,2.18045 -0.92506,1.02416 -1.56929,2.31261 -1.93267,3.86533 l 0,16.1799 -4.36089,0 0,-15.88256 c -2e-5,-4.22873 -1.56102,-6.3431 -4.683,-6.34312 -1.65187,2e-5 -3.1055,0.72684 -4.3609,2.18045 -1.35452,1.5032 -2.03178,2.95683 -2.03177,4.36089 l 0,15.68434 -4.3609,0 0,-25.27335 4.06356,0 0,4.36089 c 1.66836,-3.2376 4.18744,-4.85642 7.55723,-4.85644 3.68361,2e-5 6.13661,1.75924 7.359,5.27767 1.83353,-3.51843 4.46824,-5.27765 7.90412,-5.27767 2.77508,2e-5 4.939,0.98287 6.49178,2.94855 1.32144,1.61884 1.98218,3.91491 1.98222,6.88823 z"
       id="path3740"
       style="font-size:50.74491882px;fill:#ffffff;fill-opacity:1;stroke:#ffffff;stroke-width:1.58577871;stroke-opacity:1;font-family:IPAPGothic;-inkscape-font-specification:IPAPGothic" />
  </g>
  <g
     transform="matrix(0.60029386,0,0,0.60029386,205.32862,-43.402773)"
     id="text3748-5-5-1-4"
     style="font-size:63.4311409px;font-style:normal;font-weight:normal;text-align:center;text-anchor:middle;fill:#ffffff;fill-opacity:1;stroke:#ffffff;stroke-opacity:1;font-family:'Rounded M+ 1mn medium';-inkscape-font-specification:'Rounded M+ 1mn medium'">
    <path
       d="m 203.05536,453.29053 c 5.94665,1.0572 8.91998,4.06357 8.92001,9.01911 -3e-5,2.98986 -0.9994,5.42634 -2.99811,7.30945 -2.21351,2.06482 -5.34377,3.09722 -9.39079,3.09722 -6.06231,0 -10.43971,-2.4117 -13.13223,-7.23511 l 3.71667,-1.98222 c 1.86659,3.6506 4.98859,5.47589 9.36601,5.47589 2.57687,0 4.57561,-0.66074 5.99622,-1.98223 1.3545,-1.2554 2.03176,-2.84943 2.03178,-4.78211 -2e-5,-2.24651 -1.01591,-4.05528 -3.04767,-5.42634 -1.85009,-1.25539 -4.28657,-1.88309 -7.30945,-1.88311 l -2.23,0 0,-3.59278 2.32911,0 c 3.0394,2e-5 5.36025,-0.57813 6.96256,-1.73444 1.71791,-1.22235 2.57687,-2.86594 2.57689,-4.93078 -2e-5,-2.24649 -0.96635,-3.9066 -2.899,-4.98034 -1.2389,-0.7433 -2.72557,-1.11497 -4.46,-1.115 -3.68364,3e-5 -6.40094,1.85011 -8.15189,5.55022 l -3.71667,-1.784 c 2.42822,-4.87293 6.40092,-7.30941 11.91812,-7.30945 3.48539,4e-5 6.31005,0.88378 8.474,2.65123 2.1639,1.70144 3.24586,3.96448 3.24589,6.78911 -3e-5,2.67603 -1.04895,4.86473 -3.14678,6.56612 -1.35454,1.09024 -3.03943,1.78402 -5.05467,2.08133 z"
       id="path3734-0"
       style="font-size:50.74491882px;fill:#ffffff;fill-opacity:1;stroke:#ffffff;stroke-width:1.58577871;stroke-opacity:1;font-family:IPAPGothic;-inkscape-font-specification:IPAPGothic" />
    <path
       d="m 232.34271,435.00451 c 4.45999,4e-5 7.88758,2.06486 10.28279,6.19445 1.8996,3.2707 2.84942,7.49944 2.84944,12.68623 -2e-5,5.13728 -0.94984,9.37428 -2.84944,12.71101 -2.36218,4.08008 -5.84758,6.12011 -10.45623,6.12011 -4.59216,0 -8.06931,-2.04003 -10.43145,-6.12011 -1.89964,-3.33673 -2.84945,-7.59025 -2.84945,-12.76056 0,-7.20206 1.7427,-12.44668 5.22812,-15.7339 2.21347,-2.06478 4.95554,-3.09719 8.22622,-3.09723 z m -0.17344,3.66712 c -2.64298,3e-5 -4.72431,1.33803 -6.244,4.014 -1.55275,2.70907 -2.32912,6.45051 -2.32912,11.22434 0,4.67476 0.75985,8.35839 2.27956,11.0509 1.53621,2.64296 3.63406,3.96445 6.29356,3.96444 3.18806,10e-6 5.5502,-1.85833 7.08645,-5.575 1.0076,-2.49429 1.51142,-5.73192 1.51144,-9.7129 -2e-5,-4.64168 -0.77639,-8.29227 -2.32911,-10.95178 -1.56928,-2.67597 -3.65887,-4.01397 -6.26878,-4.014 z"
       id="path3736-9"
       style="font-size:50.74491882px;fill:#ffffff;fill-opacity:1;stroke:#ffffff;stroke-width:1.58577871;stroke-opacity:1;font-family:IPAPGothic;-inkscape-font-specification:IPAPGothic" />
    <path
       d="m 264.35562,435.00451 c 4.45999,4e-5 7.88758,2.06486 10.28279,6.19445 1.8996,3.2707 2.84941,7.49944 2.84944,12.68623 -3e-5,5.13728 -0.94984,9.37428 -2.84944,12.71101 -2.36218,4.08008 -5.84758,6.12011 -10.45623,6.12011 -4.59216,0 -8.06931,-2.04003 -10.43145,-6.12011 -1.89964,-3.33673 -2.84945,-7.59025 -2.84945,-12.76056 0,-7.20206 1.7427,-12.44668 5.22812,-15.7339 2.21347,-2.06478 4.95554,-3.09719 8.22622,-3.09723 z m -0.17344,3.66712 c -2.64298,3e-5 -4.72431,1.33803 -6.244,4.014 -1.55275,2.70907 -2.32912,6.45051 -2.32912,11.22434 0,4.67476 0.75985,8.35839 2.27956,11.0509 1.53621,2.64296 3.63406,3.96445 6.29356,3.96444 3.18806,10e-6 5.5502,-1.85833 7.08645,-5.575 1.0076,-2.49429 1.51142,-5.73192 1.51144,-9.7129 -2e-5,-4.64168 -0.77639,-8.29227 -2.32911,-10.95178 -1.56928,-2.67597 -3.65887,-4.01397 -6.26878,-4.014 z"
       id="path3738-4"
       style="font-size:50.74491882px;fill:#ffffff;fill-opacity:1;stroke:#ffffff;stroke-width:1.58577871;stroke-opacity:1;font-family:IPAPGothic;-inkscape-font-specification:IPAPGothic" />
    <path
       d="m 320.03132,471.97298 -4.36089,0 0,-15.83301 c -3e-5,-4.26176 -1.65188,-6.39265 -4.95556,-6.39267 -1.56928,2e-5 -3.0064,0.72684 -4.31133,2.18045 -0.92506,1.02416 -1.56929,2.31261 -1.93267,3.86533 l 0,16.1799 -4.36089,0 0,-15.88256 c -2e-5,-4.22873 -1.56102,-6.3431 -4.683,-6.34312 -1.65187,2e-5 -3.1055,0.72684 -4.3609,2.18045 -1.35452,1.5032 -2.03178,2.95683 -2.03177,4.36089 l 0,15.68434 -4.3609,0 0,-25.27335 4.06356,0 0,4.36089 c 1.66836,-3.2376 4.18744,-4.85642 7.55723,-4.85644 3.68361,2e-5 6.13661,1.75924 7.359,5.27767 1.83353,-3.51843 4.46824,-5.27765 7.90412,-5.27767 2.77508,2e-5 4.939,0.98287 6.49178,2.94855 1.32144,1.61884 1.98218,3.91491 1.98222,6.88823 z"
       id="path3740-8"
       style="font-size:50.74491882px;fill:#ffffff;fill-opacity:1;stroke:#ffffff;stroke-width:1.58577871;stroke-opacity:1;font-family:IPAPGothic;-inkscape-font-specification:IPAPGothic" />
  </g>
</svg>
